<svg xmlns="http://www.w3.org/2000/svg" width="26" height="26" viewBox="0 0 26 26" fill="none">
                                            <path d="M17.3445 17.1785C20.1112 12.8371 19.7634 13.3787 19.8431 13.2655C20.8504 11.8448 21.3828 10.1726 21.3828 8.42969C21.3828 3.80758 17.6321 0 13.0039 0C8.39084 0 4.625 3.80006 4.625 8.42969C4.625 10.1715 5.16856 11.8874 6.20887 13.3273L8.66323 17.1786C6.03911 17.5818 1.57812 18.7836 1.57812 21.4297C1.57812 22.3943 2.20771 23.7689 5.20705 24.8401C7.30137 25.5881 10.0703 26 13.0039 26C18.4896 26 24.4297 24.4526 24.4297 21.4297C24.4297 18.7831 19.9739 17.5827 17.3445 17.1785ZM7.48139 12.4894C7.47302 12.4763 7.46427 12.4635 7.45514 12.4509C6.58947 11.26 6.14844 9.84857 6.14844 8.42969C6.14844 4.62018 9.21593 1.52344 13.0039 1.52344C16.784 1.52344 19.8594 4.62155 19.8594 8.42969C19.8594 9.85085 19.4267 11.2144 18.6078 12.3739C18.5344 12.4707 18.9173 11.876 13.0039 21.1549L7.48139 12.4894ZM13.0039 24.4766C7.01202 24.4766 3.10156 22.7153 3.10156 21.4297C3.10156 20.5656 5.11088 19.1448 9.56337 18.591L12.3615 22.9817C12.4303 23.0897 12.5253 23.1786 12.6375 23.2402C12.7498 23.3018 12.8758 23.334 13.0039 23.334C13.1319 23.334 13.2579 23.3018 13.3702 23.2402C13.4824 23.1786 13.5774 23.0897 13.6462 22.9817L16.4443 18.591C20.8969 19.1448 22.9062 20.5656 22.9062 21.4297C22.9062 22.7044 19.031 24.4766 13.0039 24.4766Z" fill="#45B34A"></path>
                                            <path d="M13.0039 4.62109C10.9038 4.62109 9.19531 6.32963 9.19531 8.42969C9.19531 10.5297 10.9038 12.2383 13.0039 12.2383C15.104 12.2383 16.8125 10.5297 16.8125 8.42969C16.8125 6.32963 15.104 4.62109 13.0039 4.62109ZM13.0039 10.7148C11.7439 10.7148 10.7188 9.68972 10.7188 8.42969C10.7188 7.16965 11.7439 6.14453 13.0039 6.14453C14.2639 6.14453 15.2891 7.16965 15.2891 8.42969C15.2891 9.68972 14.2639 10.7148 13.0039 10.7148Z" fill="#45B34A"></path>
                                        </svg>