<svg xmlns="http://www.w3.org/2000/svg" width="26" height="26" viewBox="0 0 26 26" fill="none">
                                            <g clip-path="url(#clip0_1968_375)">
                                                <path d="M24.4034 18.3576C24.3604 18.3219 19.4886 14.8509 18.1732 15.0678C17.5386 15.1799 17.1763 15.613 16.4491 16.4791C16.248 16.7203 16.0424 16.9575 15.8324 17.1909C15.3728 17.0411 14.9245 16.8587 14.4909 16.6449C12.2529 15.5553 10.4447 13.7471 9.35513 11.5091C9.14133 11.0755 8.95886 10.6272 8.80912 10.1676C9.048 9.94906 9.38275 9.66712 9.52575 9.54688C10.3878 8.82375 10.8201 8.46056 10.9322 7.82519C11.1621 6.50975 7.67812 1.63963 7.64237 1.59575C7.48371 1.37073 7.27707 1.18375 7.03736 1.0483C6.79766 0.912851 6.53087 0.832313 6.25625 0.8125C4.84412 0.8125 0.8125 6.04175 0.8125 6.92331C0.8125 6.9745 0.886438 12.1777 7.30275 18.7046C13.8223 25.1136 19.0255 25.1875 19.0767 25.1875C19.9574 25.1875 25.1875 21.1559 25.1875 19.7437C25.1675 19.4691 25.0868 19.2023 24.9512 18.9626C24.8156 18.7229 24.6285 18.5163 24.4034 18.3576ZM18.9865 23.5576C18.2812 23.4975 13.91 22.9214 8.45 17.5581C3.06069 12.0713 2.49925 7.69275 2.44319 7.01431C3.50819 5.34271 4.79439 3.82283 6.26681 2.496C6.29931 2.5285 6.34238 2.57725 6.39762 2.64062C7.52686 4.18212 8.49963 5.83234 9.3015 7.56681C9.04074 7.82915 8.76511 8.07628 8.476 8.307C8.02766 8.64862 7.61595 9.03581 7.2475 9.46237C7.18516 9.54985 7.14078 9.64882 7.11693 9.75356C7.09308 9.85829 7.09024 9.96672 7.10856 10.0726C7.28051 10.8174 7.54386 11.5381 7.89262 12.2184C9.14216 14.7843 11.2156 16.8574 13.7816 18.1066C14.4617 18.4558 15.1825 18.7195 15.9274 18.8914C16.0333 18.9098 16.1417 18.9069 16.2464 18.8831C16.3512 18.8592 16.4502 18.8148 16.5376 18.7525C16.9657 18.3825 17.3542 17.9692 17.6971 17.5191C17.9522 17.2153 18.2926 16.8098 18.4218 16.6953C20.1607 17.4963 21.8146 18.4703 23.3586 19.6024C23.426 19.6593 23.4739 19.7031 23.5056 19.7316C22.1787 21.2045 20.6585 22.4909 18.9865 23.556V23.5576Z" fill="#43A047"></path>
                                                <path d="M13.8125 7.3125C15.105 7.31379 16.3443 7.82782 17.2582 8.74178C18.1722 9.65574 18.6862 10.895 18.6875 12.1875C18.6875 12.403 18.7731 12.6097 18.9255 12.762C19.0778 12.9144 19.2845 13 19.5 13C19.7155 13 19.9222 12.9144 20.0745 12.762C20.2269 12.6097 20.3125 12.403 20.3125 12.1875C20.3106 10.4642 19.6251 8.81201 18.4066 7.59344C17.188 6.37488 15.5358 5.68944 13.8125 5.6875C13.597 5.6875 13.3903 5.7731 13.238 5.92548C13.0856 6.07785 13 6.28451 13 6.5C13 6.71549 13.0856 6.92215 13.238 7.07452C13.3903 7.2269 13.597 7.3125 13.8125 7.3125Z" fill="#43A047"></path>
                                                <path d="M13.8125 3.25C16.182 3.2528 18.4537 4.19532 20.1292 5.87082C21.8047 7.54632 22.7472 9.81799 22.75 12.1875C22.75 12.403 22.8356 12.6097 22.988 12.762C23.1403 12.9144 23.347 13 23.5625 13C23.778 13 23.9847 12.9144 24.137 12.762C24.2894 12.6097 24.375 12.403 24.375 12.1875C24.3718 9.38714 23.2579 6.7024 21.2778 4.72225C19.2976 2.74209 16.6129 1.62823 13.8125 1.625C13.597 1.625 13.3903 1.7106 13.238 1.86298C13.0856 2.01535 13 2.22201 13 2.4375C13 2.65299 13.0856 2.85965 13.238 3.01202C13.3903 3.1644 13.597 3.25 13.8125 3.25Z" fill="#43A047"></path>
                                            </g>
                                            <defs>
                                                <clipPath id="clip0_1968_375">
                                                    <rect width="26" height="26" fill="white"></rect>
                                                </clipPath>
                                            </defs>
                                        </svg>