<svg xmlns="http://www.w3.org/2000/svg" width="22" height="22" viewBox="0 0 22 22" fill="none">
                                    <path d="M16.3285 11C16.3288 12.2536 15.8869 13.467 15.0805 14.4268C14.2741 15.3865 13.155 16.031 11.9201 16.2467C10.6853 16.4624 9.41389 16.2356 8.32986 15.6061C7.24583 14.9766 6.41866 13.9848 5.99398 12.8054L2.94629 15.2433C3.89392 17.0446 5.41777 18.4764 7.27452 19.3102C9.13128 20.144 11.2139 20.3316 13.1897 19.8431C15.1656 19.3546 16.9209 18.2182 18.1752 16.6153C19.4295 15.0124 20.1106 13.0354 20.1097 11" fill="#00AC47"></path>
                                    <path d="M16.3275 11C16.3268 11.8477 16.1236 12.683 15.7347 13.4363C15.3458 14.1896 14.7825 14.839 14.0918 15.3306L17.1051 17.7409C18.0499 16.8903 18.8054 15.8507 19.3229 14.6895C19.8403 13.5283 20.1081 12.2713 20.1088 11" fill="#4285F4"></path>
                                    <path d="M5.67177 11C5.67315 10.3841 5.78203 9.7731 5.99352 9.19462L2.94583 6.75674C2.25291 8.06379 1.89062 9.52064 1.89062 11C1.89062 12.4794 2.25291 13.9362 2.94583 15.2432L5.99352 12.8054C5.78203 12.2269 5.67315 11.6159 5.67177 11Z" fill="#FFBA00"></path>
                                    <path d="M11.0004 5.67188C12.1278 5.67223 13.2256 6.03256 14.134 6.70038L16.9252 4.09475C15.8891 3.20139 14.6645 2.55357 13.343 2.19964C12.0214 1.84572 10.637 1.79482 9.29306 2.05075C7.9491 2.30668 6.68029 2.86283 5.58132 3.67769C4.48235 4.49256 3.5816 5.54509 2.94629 6.75675L5.99398 9.19463C6.36565 8.16436 7.04556 7.27355 7.94129 6.64326C8.83701 6.01298 9.9051 5.67382 11.0004 5.67188Z" fill="#EA4435"></path>
                                    <path d="M20.1094 10.3125V11L18.5625 13.4062H11.3438V9.625H19.4219C19.6042 9.625 19.7791 9.69743 19.908 9.82636C20.0369 9.9553 20.1094 10.1302 20.1094 10.3125Z" fill="#4285F4"></path>
                                </svg>