<svg xmlns="http://www.w3.org/2000/svg" version="1.1" xmlns:xlink="http://www.w3.org/1999/xlink" width="512" height="512" x="0" y="0" viewBox="0 0 64 64" style="enable-background:new 0 0 512 512" xml:space="preserve"><g><path d="M49.23 20.69a5 5 0 0 0 1.15-7 5 5 0 0 0-7-1.14L35.82 2a1 1 0 0 0-1.68.08c-.08.13-8 13.71-11 17.68-2.32 3.08-10.26 10.85-10.82 11.4l-7.25 5.2a8 8 0 0 0 3.39 14.4 7.32 7.32 0 0 0 1.31.11 7.91 7.91 0 0 0 4.65-1.5l8.17 11.37a4 4 0 0 0 3.25 1.67 4 4 0 0 0 2.33-.75 4 4 0 0 0 .92-5.58L20.92 44.7l.75-.54c.87-.44 10.64-5.4 14.26-6.6 4.71-1.56 20.12-4.71 20.27-4.75a1 1 0 0 0 .73-.61 1 1 0 0 0-.12-1zm-4.66-6.5a3 3 0 0 1 4.18.69 3 3 0 0 1-.68 4.19zM4.88 46.37A6 6 0 0 1 6.26 38l6.5-4.66 7 9.75-6.5 4.66a6 6 0 0 1-8.38-1.38zm22.58 10.87a2 2 0 0 1-3.25 2.34L16.05 48.2l3.25-2.33zm7.85-21.57C32 36.77 24 40.75 21.46 42L14.3 32c2-2 8.34-8.25 10.46-11.08C27.27 17.62 33 8 35.09 4.42l19.2 26.75c-4.05.83-15 3.19-18.98 4.5zM52.2 12.6a1 1 0 0 1 .2-1.4l8-6a1 1 0 0 1 1.2 1.6l-8 6a1 1 0 0 1-.6.2 1 1 0 0 1-.8-.4zM49 8.84l1-6a1 1 0 0 1 2 .32l-1 6a1 1 0 0 1-1 .84h-.16A1 1 0 0 1 49 8.84zm12.92 10.55A1 1 0 0 1 61 20a1 1 0 0 1-.39-.08l-7-3a1 1 0 0 1 .78-1.84l7 3a1 1 0 0 1 .53 1.31z" data-name="07-Advertising" fill="#ffffff" opacity="1" data-original="#000000"></path></g></svg>