<?xml version="1.0" encoding="utf-8"?>
<!-- Generator: Adobe Illustrator 26.0.1, SVG Export Plug-In . SVG Version: 6.00 Build 0)  -->
<svg version="1.1" id="Layer_1" xmlns="http://www.w3.org/2000/svg" xmlns:xlink="http://www.w3.org/1999/xlink" x="0px" y="0px"
	 viewBox="0 0 500 500" style="enable-background:new 0 0 500 500;" xml:space="preserve">
<style type="text/css">
	.st0{fill:#FAFAFA;}
	.st1{fill:#7ABDE8;}
	.st2{fill:#FFFFFF;}
	.st3{fill:#5095D0;}
	.st4{fill:#1585C4;}
	.st5{fill:#E0E0E0;}
	.st6{fill:#E6E6E6;}
	.st7{opacity:0.1;fill:#FFFFFF;enable-background:new    ;}
	.st8{opacity:0.25;enable-background:new    ;}
	.st9{opacity:0.3;fill:#FFFFFF;enable-background:new    ;}
	.st10{opacity:0.3;}
	.st11{fill:#37474F;}
	.st12{fill:#263238;}
	.st13{opacity:0.1;enable-background:new    ;}
	.st14{opacity:0.2;}
	.st15{fill:#FFA8A7;}
	.st16{fill:#455A64;}
	.st17{fill:#EBEBEB;}
	.st18{opacity:0.15;enable-background:new    ;}
	.st19{fill:#F28F8F;}
	.st20{fill:#45B34A;}
	.st21{opacity:0.2;fill:#FFFFFF;enable-background:new    ;}
	.st22{opacity:0.4;enable-background:new    ;}
	.st23{opacity:0.2;enable-background:new    ;}
	.st24{opacity:0.35;fill:#FFFFFF;enable-background:new    ;}
	.st25{opacity:0.8;fill:#FFFFFF;enable-background:new    ;}
	.st26{opacity:0.7;fill:#FFFFFF;enable-background:new    ;}
	.st27{opacity:0.55;}
	.st28{fill:#FFBDA7;}
	.st29{fill:#F0997A;}
	.st30{fill:#B16668;}
	.st31{fill:#F0F0F0;}
	.st32{fill:#9A4A4D;}
</style>
<g id="freepik--Floor--inject-19">
	<path id="freepik--floor--inject-19" class="st0" d="M77.7,248.3c-95.2,54.9-95.2,144.1,0,199s249.5,55,344.7,0s95.2-144,0-199
		S172.8,193.4,77.7,248.3z"/>
</g>
<g id="freepik--Plants--inject-19">
	<g id="freepik--plants--inject-19">
		<path class="st1" d="M39.7,383.9l-8.9,5.1c0.3-3.7,0.3-7.4,0-11.1c-2.8-19.5-10.3-25.9-14-35.4c-3.8-10,0.8-13.2,6.9-11.4
			c5.4,1.6,13.2,9.6,15.6,24.1C40.7,364.7,40.8,374.3,39.7,383.9z"/>
		<path class="st2" d="M35,386.6l-0.9,0.5c3.2-22.8-4.6-42.5-12.3-50.6c-0.1-0.2-0.1-0.4,0-0.6c0.2-0.1,0.4-0.1,0.6,0
			C30,344.1,37.8,364,35,386.6z"/>
		<path class="st3" d="M33.3,387.6l-5,2.9l0,0c-2.7-7.9-5.4-11-8.8-16.2c-3.1-4.7-6.7-7.6-8.6-10.9c-1.7-2.9-3-6.6-0.4-8.8
			c4-3.5,9.2,0.2,12.9,4.3C26.3,362.3,32.6,371.6,33.3,387.6z"/>
		<path class="st2" d="M31.2,388.8l-0.7,0.4c-2.1-12.4-10.6-26.8-15.8-30.2c-0.2-0.1-0.2-0.4-0.1-0.5c0.1-0.2,0.4-0.2,0.6-0.1
			c0,0,0,0,0,0C20.5,361.8,29,376.1,31.2,388.8z"/>
	</g>
	<g id="freepik--plants--inject-19_00000056409276959244336560000003930456701600501899_">
		<path class="st3" d="M463.5,322.4l8.3,4.8c-0.3-3.4-0.3-6.9,0-10.3c2.5-18.1,9.6-24.1,12.9-32.9c3.5-9.3-0.8-12.3-6.4-10.6
			c-5,1.5-12.2,8.9-14.5,22.4C462.5,304.5,462.4,313.5,463.5,322.4z"/>
		<path class="st2" d="M467.9,324.9l0.8,0.5c-3-21.1,4.3-39.5,11.4-47c0.1-0.1,0.1-0.4,0-0.5c-0.1-0.1-0.4-0.1-0.5,0l0,0
			C472.5,285.4,465.2,303.9,467.9,324.9z"/>
		<path class="st4" d="M469.5,325.8l4.7,2.7l0,0c2.5-7.3,5-10.2,8.2-15c2.9-4.4,6.2-7.1,8-10.2c1.6-2.7,2.8-6.1,0.4-8.2
			c-3.7-3.3-8.6,0.2-12,4C475.9,302.3,470.1,311,469.5,325.8z"/>
		<path class="st2" d="M471.4,326.9l0.7,0.4c2-11.6,9.8-24.9,14.7-28.1c0.2-0.1,0.2-0.3,0.1-0.5c-0.1-0.2-0.3-0.2-0.5-0.1
			c0,0,0,0,0,0C481.3,301.9,473.5,315.2,471.4,326.9z"/>
	</g>
</g>
<g id="freepik--Shadows--inject-19">
	<path id="freepik--Shadow--inject-19" class="st5" d="M261.1,451c-2,0-3.9-0.4-5.7-1.4l-4.3-2.5c-2.5-1-3.6-3.8-2.6-6.3
		c0.5-1.2,1.4-2.1,2.6-2.6l56.3-32.6c-5-5.6-7.2-11.9-6.5-18.3c1-8.2,7-15.8,16.9-21.5c10.7-6.2,24.9-9.6,39.9-9.6
		s29.2,3.4,39.9,9.6c11,6.3,17,14.9,17,24s-6,17.7-17,24c-10.7,6.2-24.9,9.6-39.9,9.6l0,0c-14.5,0-28.2-3.2-38.7-8.9l-51.6,34.8
		C265.6,450.5,263.4,451.1,261.1,451z"/>
	<ellipse id="freepik--shadow--inject-19" class="st6" cx="67.3" cy="401.9" rx="44.4" ry="25.6"/>
	
		<ellipse id="freepik--shadow--inject-19_00000066503258571322247390000000636334879521333178_" class="st5" cx="440.5" cy="339.7" rx="40.1" ry="23.1"/>
	<path id="freepik--shadow--inject-19_00000109750179095622183740000013196715886609314229_" class="st5" d="M169.9,446.4
		c1.1,3,4.4,4.9,9.8,5.6l93.4-54.5l10-10.1c0.3-0.3,0.3-0.8,0-1.1c-0.2-0.2-0.5-0.3-0.8-0.2l-18.4,6.1L169.9,446.4z"/>
	<polygon id="freepik--shadow--inject-19_00000039850595151044969800000000488156571770027199_" class="st5" points="416.3,247.5 
		368.5,219.9 122.8,361.7 162.4,384.6 103.4,418.7 136.7,437.9 333.8,324 308.8,309.6 	"/>
</g>
<g id="freepik--magnifying-glass--inject-19_00000137099233333305173500000014233863314096495526_">
	<g id="freepik--magnifying-glass--inject-19">
		<path class="st4" d="M392.1,356c-19-11-49.9-11-68.9,0c-5.5,3.2-9.5,7-11.8,11c-1.6,2.7-2.5,5.8-2.5,8.9v12.8
			c0,7.2,4.8,14.4,14.3,19.9c19,11,49.9,11,68.9,0c9.5-5.5,14.3-12.7,14.3-19.9v-12.9C406.4,368.6,401.6,361.4,392.1,356z
			 M389.4,373.6c4.5,2.6,7.8,5.6,9.6,8.7c-1.9,3.2-5.2,6.2-9.6,8.7c-8.4,4.8-19.6,7.5-31.7,7.5s-23.3-2.7-31.7-7.5
			c-4.5-2.6-7.8-5.6-9.6-8.7c1.9-3.2,5.2-6.2,9.6-8.7c8.4-4.8,19.6-7.5,31.7-7.5S381,368.7,389.4,373.6L389.4,373.6z"/>
		<path class="st7" d="M368.8,416v-18.3c-3.7,0.5-7.4,0.8-11.1,0.8c-0.7,0-1.5,0-2.2,0v18.3C359.9,416.9,364.4,416.6,368.8,416z
			 M380.9,394.8c-2.1,0.7-4.2,1.3-6.4,1.8V415c2.2-0.5,4.3-1,6.4-1.7V394.8z"/>
		<path class="st8" d="M309,375.9v12.8c0,7.2,4.8,14.4,14.3,19.9c0.4,0.2,0.7,0.4,1.1,0.6v-12.8c-0.4-0.2-0.7-0.4-1.1-0.6
			C313.8,390.2,309,383.1,309,375.9z"/>
		<path class="st4" d="M389.4,360.7c-8.4-4.8-19.6-7.5-31.7-7.5s-23.3,2.7-31.7,7.5c-4.5,2.6-7.9,5.7-9.8,9
			c-2.4,3.9-2.3,8.8,0.1,12.6c1.9-3.2,5.2-6.2,9.6-8.7c8.4-4.8,19.6-7.5,31.7-7.5s23.3,2.7,31.7,7.5c4.5,2.6,7.8,5.6,9.6,8.7
			c0.1-0.1,0.1-0.2,0.1-0.2C403.4,374.6,399.7,366.7,389.4,360.7z"/>
		<path class="st8" d="M389.4,360.7c-8.4-4.8-19.6-7.5-31.7-7.5s-23.3,2.7-31.7,7.5c-4.5,2.6-7.9,5.7-9.8,9
			c-2.4,3.9-2.3,8.8,0.1,12.6c1.9-3.2,5.2-6.2,9.6-8.7c8.4-4.8,19.6-7.5,31.7-7.5s23.3,2.7,31.7,7.5c4.5,2.6,7.8,5.6,9.6,8.7
			c0.1-0.1,0.1-0.2,0.1-0.2C403.4,374.6,399.7,366.7,389.4,360.7z"/>
		<path class="st9" d="M389.4,366.7c-8.4-4.8-19.6-7.5-31.7-7.5s-23.3,2.7-31.7,7.5c-4.5,2.6-7.9,5.7-9.8,9c-0.6,1-1,2-1.3,3.1l0,0
			c0.3,1.2,0.8,2.4,1.5,3.5c1.9,3.1,5.1,6.1,9.6,8.7c8.4,4.8,19.6,7.5,31.7,7.5s23.3-2.7,31.7-7.5c4.4-2.5,7.7-5.5,9.6-8.7
			c0.1-0.1,0.1-0.2,0.1-0.2c0.6-1,1-2.1,1.3-3.2C399.3,374.5,395.5,370.2,389.4,366.7z"/>
		<path class="st3" d="M392.1,356c-19-11-49.9-11-68.9,0s-19,28.8,0,39.8s49.9,11,68.9,0S411.1,366.9,392.1,356z M357.7,353.2
			c12.1,0,23.3,2.7,31.7,7.5c10.4,6,14,14,9.8,21.3c0,0.1-0.1,0.2-0.1,0.2c-1.9,3.2-5.2,6.2-9.6,8.7c-8.4,4.8-19.6,7.5-31.7,7.5
			s-23.3-2.7-31.7-7.5c-4.5-2.6-7.8-5.6-9.6-8.7c-2.5-3.8-2.5-8.7-0.1-12.6c1.9-3.3,5.3-6.4,9.8-9
			C334.3,355.9,345.6,353.2,357.7,353.2L357.7,353.2z"/>
		<g class="st10">
			<path class="st2" d="M392.1,356c-19-11-49.9-11-68.9,0s-19,28.8,0,39.8s49.9,11,68.9,0S411.1,366.9,392.1,356z M357.7,353.2
				c12.1,0,23.3,2.7,31.7,7.5c10.4,6,14,14,9.8,21.3c0,0.1-0.1,0.2-0.1,0.2c-1.9,3.2-5.2,6.2-9.6,8.7c-8.4,4.8-19.6,7.5-31.7,7.5
				s-23.3-2.7-31.7-7.5c-4.5-2.6-7.8-5.6-9.6-8.7c-2.5-3.8-2.5-8.7-0.1-12.6c1.9-3.3,5.3-6.4,9.8-9
				C334.3,355.9,345.6,353.2,357.7,353.2L357.7,353.2z"/>
		</g>
		<g class="st10">
			<path class="st2" d="M354.1,403.9c-6.9-0.3-13.8-1.6-20.4-3.7c-3.3-1.1-6.5-2.5-9.5-4.2c-3-1.7-5.8-3.7-8.3-6.1
				c-2.5-2.4-4.5-5.3-5.7-8.5c-1.2-3.3-1.3-6.8-0.3-10.2c1-3.3,2.8-6.3,5.3-8.8c2.4-2.5,5.2-4.7,8.2-6.4c-3.1,1.7-5.9,3.8-8.3,6.3
				c-2.5,2.5-4.3,5.5-5.4,8.9c-1,3.4-0.9,7,0.2,10.3c1.2,3.3,3.2,6.3,5.7,8.7c2.5,2.4,5.4,4.5,8.5,6.1c3.1,1.7,6.3,3,9.6,4.1
				c3.3,1.1,6.7,1.9,10.1,2.5C347.1,403.4,350.6,403.8,354.1,403.9z"/>
		</g>
		<g class="st10">
			<path class="st2" d="M399.1,382c0.9-1.5,1.5-3.1,1.7-4.8c0.2-1.7,0.1-3.5-0.5-5.1c-0.6-1.6-1.4-3.2-2.5-4.6
				c-1.1-1.4-2.3-2.6-3.6-3.7c-2.7-2.2-5.7-4-8.8-5.4c-3.1-1.4-6.4-2.6-9.8-3.4c-3.4-0.9-6.8-1.5-10.2-1.8
				c-3.4-0.3-6.9-0.5-10.4-0.4c-6.9,0.2-13.8,1.3-20.4,3.5c-3.3,1.1-6.5,2.5-9.5,4.3c-3,1.7-5.8,4-8,6.7c-1.1,1.4-2,2.9-2.6,4.6
				c-0.9,2.6-0.9,5.3,0,7.9c0.3,0.8,0.7,1.7,1.1,2.4c0.9,1.5,2,2.9,3.2,4.1c2.5,2.4,5.4,4.4,8.5,5.9c3.1,1.6,6.3,2.8,9.7,3.7
				c3.3,0.9,6.7,1.6,10.1,2c3.4,0.4,6.9,0.6,10.3,0.5c-6.9-0.1-13.7-1.1-20.3-3c-3.3-1-6.5-2.2-9.5-3.8c-3-1.5-5.8-3.5-8.2-5.9
				c-1.2-1.2-2.2-2.5-3-4c-0.8-1.4-1.4-3-1.6-4.7c-0.2-1.6,0-3.3,0.6-4.9c0.6-1.6,1.4-3,2.5-4.3c2.2-2.6,4.8-4.8,7.7-6.5
				c2.9-1.7,6.1-3.1,9.3-4.2c6.5-2.1,13.3-3.3,20.1-3.5c6.8-0.2,13.7,0.4,20.3,2c3.3,0.8,6.6,1.9,9.7,3.2c3.1,1.3,6.1,3.1,8.8,5.2
				c1.3,1.1,2.6,2.3,3.6,3.6c1.1,1.3,1.9,2.8,2.5,4.4c0.6,1.6,0.8,3.3,0.6,5C400.5,378.9,400,380.5,399.1,382z"/>
		</g>
		<path class="st11" d="M323.4,402.4c-0.1-2.4-1.4-4.7-3.4-6c-0.7-0.5-1.6-0.6-2.4-0.3l0,0l-16.6,9.5l0,0c-0.7,0.5-1.1,1.4-1,2.2
			c0.1,2.4,1.4,4.7,3.4,6c0.7,0.5,1.6,0.6,2.5,0.2l0,0l16.6-9.5l0,0C323.1,404.1,323.5,403.3,323.4,402.4z"/>
		<path class="st12" d="M322.4,404.6c0.7-0.5,1.1-1.4,1-2.2c0-0.9-0.2-1.8-0.6-2.6l-21.4,12.2c0.5,0.7,1.2,1.3,1.9,1.8
			c0.7,0.5,1.6,0.6,2.5,0.2L322.4,404.6L322.4,404.6z"/>
		<path class="st4" d="M306.1,413.8c-0.2-3.2-1.8-6.1-4.5-7.8c-0.9-0.7-2.1-0.8-3.1-0.4l0,0h0l0,0l-43.2,22.6l8.2,14.5l41.2-26.1
			C305.7,416.1,306.3,415,306.1,413.8z"/>
		<path class="st13" d="M259.3,435.3l4.2,7.5l41.2-26.1c0.9-0.7,1.5-1.8,1.3-2.9c-0.1-1.7-0.6-3.3-1.5-4.7"/>
		<path class="st4" d="M259.4,442.4c-3.5-2.3-5.7-6.1-5.9-10.2c0-3.8,2.7-5.3,5.9-3.4c3.5,2.3,5.6,6.1,5.9,10.2
			C265.3,442.8,262.6,444.3,259.4,442.4z"/>
		<g class="st14">
			<path d="M259.4,442.4c-3.5-2.3-5.7-6.1-5.9-10.2c0-3.8,2.7-5.3,5.9-3.4c3.5,2.3,5.6,6.1,5.9,10.2
				C265.3,442.8,262.6,444.3,259.4,442.4z"/>
		</g>
	</g>
</g>
<g id="freepik--Pencil--inject-19">
	<g id="freepik--pencil--inject-19">
		<path class="st15" d="M264.5,385.4l16.4-3.2c0.3-0.1,0.5,0.1,0.6,0.4c0,0.2,0,0.3-0.1,0.4l-11.1,12.6L264.5,385.4z"/>
		<path class="st12" d="M281.4,383c0.2-0.2,0.2-0.5,0-0.7c-0.1-0.1-0.3-0.2-0.4-0.1l-3.2,0.6l0,0c0.9,0.6,1.4,1.6,1.3,2.6v0.3
			L281.4,383z"/>
		<path class="st16" d="M192.7,440.1l1.3-0.8l1.6-0.9l74.6-42.8c0.5-1.8,0.4-3.7-0.5-5.4c-1.2-2.6-3.4-4.7-5.3-4.8l-74.6,42.8
			l-3.1,1.8C188.9,428.9,194.8,439,192.7,440.1z"/>
		<path class="st17" d="M197.8,437.2l3-1.7c0.9-0.5,0.4-2.6-0.7-4.9c-1.4-3-4.1-5.9-5.2-5.2l-2.2,1.3l-0.8,0.5
			c1.2-0.6,3.9,2.3,5.2,5.2C198.1,434.5,198.6,436.5,197.8,437.2L197.8,437.2C197.9,437.1,197.8,437.2,197.8,437.2z"/>
		<path class="st3" d="M198.6,436.7c2-1.1-3.8-11.2-5.9-10.1l-3,1.7c2.1-1.1,7.9,9,5.9,10.1L198.6,436.7z"/>
		<path class="st17" d="M192.7,440.1l3-1.7c2-1-3.6-10.9-5.7-10.2c0,0-0.1,0-0.1,0l-3,1.7C188.9,428.9,194.8,439,192.7,440.1z"/>
		<path class="st18" d="M281.5,382.5l-0.5-0.3l-11.9,6.5l-77.9,44.7c-0.1-0.2-0.2-0.2-0.3-0.1c1.8,2.7,3.1,6.2,1.9,6.8l1.3-0.8
			l1.6-0.9l74.6-42.8l0,0l11.1-12.6C281.5,382.8,281.5,382.6,281.5,382.5z"/>
		<path class="st19" d="M180.1,447.3l12.6-7.2c0.9-0.5,0.4-2.6-0.6-4.8c-1.4-3-4-5.9-5.2-5.3l0,0l-12.6,7.2
			c-2.5,1.4-0.2,6.9,2.6,9.3C177.6,447.4,179,447.7,180.1,447.3z"/>
		<path class="st13" d="M180.9,443.4c-0.7-2.8-3-5.6-5.1-6.2c-0.6-0.2-1.3-0.1-1.9,0.2c-1.9,1.8,0.3,6.8,2.9,9
			c0.8,0.9,2.1,1.2,3.2,0.8C181,446.8,181.4,445.3,180.9,443.4z"/>
	</g>
</g>
<g id="freepik--agile-method--inject-19">
	<g id="freepik--Launch--inject-19">
		<path class="st1" d="M405.9,211.3L229.8,313c-15.4,8.9-28,5.8-34.9-6.7c5.2-0.6,10.1-2.3,14.6-5l176-101.7L405.9,211.3z"/>
		<path class="st3" d="M412.9,224.8l-7,21.5l-167.6,96.9c-19.4,11.2-37.1,11.9-50.7,4.1l0,0c0,0,0,0-0.1,0h-0.1l-0.3-0.2
			c-13.2-7.8-22.4-23.7-25.4-46l18,3.2l10.9-10.3c0,0.3,0.1,0.5,0.2,0.8c0.8,4,2.2,7.9,4.1,11.5l0,0c6.8,12.5,19.5,15.6,34.9,6.7
			l176-101.7L412.9,224.8z"/>
		<path class="st4" d="M187.2,347c-2.6-1.5-17.1-9.9-19.9-11.5c-13.4-7.7-22.8-23.7-25.8-46.3l20.3,11.8
			C164.8,323.3,174,339.2,187.2,347z"/>
		<polygon class="st20" points="190.7,293.9 170.4,282.1 159.5,292.4 141.5,289.2 161.8,301 179.8,304.1 		"/>
		<polygon class="st21" points="190.7,293.9 170.4,282.1 159.5,292.4 141.5,289.2 161.8,301 179.8,304.1 		"/>
		<polygon class="st20" points="159.5,292.4 179.8,304.1 161.8,301 141.5,289.2 		"/>
		<path class="st2" d="M348.7,265.1c0.1,0,0.2,0,0.2,0c0.1,0.1,0.1,0.2,0.1,0.2v1.1c0,0.1,0,0.2-0.1,0.4c0,0.1-0.1,0.2-0.2,0.2
			l-5.1,2.9c-0.1,0.1-0.2,0.1-0.2,0c-0.1-0.1-0.1-0.2-0.1-0.2v-10c0-0.1,0-0.2,0.1-0.4c0-0.1,0.1-0.2,0.2-0.2l0.9-0.5
			c0.1,0,0.2,0,0.2,0c0.1,0.1,0.1,0.2,0.1,0.2v8.5L348.7,265.1z"/>
		<path class="st2" d="M354.8,252.7c0.1-0.1,0.2-0.1,0.3,0c0.1,0.1,0.1,0.2,0.2,0.3l2.9,8.1c0,0,0,0.1,0,0.1c0,0.1,0,0.2-0.1,0.4
			c-0.1,0.1-0.1,0.2-0.2,0.2l-0.8,0.5c-0.1,0.1-0.3,0.1-0.3,0.1c-0.1,0-0.1-0.1-0.1-0.2l-0.5-1.4l-3.7,2.1l-0.5,2
			c0,0.1-0.1,0.2-0.1,0.3c-0.1,0.1-0.2,0.2-0.3,0.3l-0.8,0.5c-0.1,0.1-0.2,0.1-0.2,0c-0.1-0.1-0.1-0.1-0.1-0.2c0,0,0-0.1,0-0.1
			l2.8-11.4c0-0.2,0.1-0.3,0.2-0.5c0.1-0.1,0.2-0.2,0.3-0.3L354.8,252.7z M355.4,259.1l-1.3-3.7l-1.3,5.1L355.4,259.1z"/>
		<path class="st2" d="M366.1,246.2c0.1-0.1,0.2-0.1,0.2,0c0.1,0.1,0.1,0.1,0.1,0.2v6.3c0,0.6-0.1,1.2-0.2,1.9
			c-0.1,0.6-0.3,1.2-0.6,1.7c-0.3,0.5-0.6,1-1,1.5c-0.4,0.4-0.9,0.8-1.5,1.1c-0.4,0.3-0.9,0.5-1.5,0.5c-0.4,0-0.7,0-1-0.3
			c-0.3-0.3-0.5-0.6-0.6-1c-0.2-0.5-0.2-1.1-0.2-1.6v-6.3c0-0.1,0-0.2,0.1-0.3c0-0.1,0.1-0.2,0.2-0.2l0.9-0.6c0.1-0.1,0.2-0.1,0.2,0
			c0.1,0.1,0.1,0.2,0.1,0.2v6.3c0,0.3,0,0.7,0.1,1c0.1,0.2,0.2,0.4,0.4,0.5c0.2,0.1,0.4,0.1,0.5,0.1c0.3,0,0.5-0.1,0.7-0.3
			c0.3-0.2,0.5-0.3,0.7-0.5c0.2-0.2,0.4-0.5,0.6-0.7c0.2-0.3,0.3-0.6,0.4-0.9c0.1-0.4,0.1-0.8,0.1-1.2v-6.2c0-0.1,0-0.2,0.1-0.3
			c0-0.1,0.1-0.2,0.2-0.2L366.1,246.2z"/>
		<path class="st2" d="M374.3,252.3c-0.1,0.1-0.2,0.1-0.3,0l-0.1-0.1l-3.2-4.6v6.4c0,0.1,0,0.2-0.1,0.4c0,0.1-0.1,0.2-0.2,0.2
			l-0.9,0.5c-0.1,0.1-0.2,0.1-0.2,0c-0.1-0.1-0.1-0.1-0.1-0.2v-10c0-0.1,0-0.2,0.1-0.3c0-0.1,0.1-0.2,0.2-0.3l0.8-0.5
			c0.1-0.1,0.2-0.1,0.3,0c0.1,0,0.1,0.1,0.1,0.1l3.2,4.6v-6.4c0-0.1,0-0.2,0.1-0.4c0-0.1,0.1-0.2,0.2-0.2l0.9-0.5c0.1,0,0.2,0,0.2,0
			c0.1,0.1,0.1,0.2,0.1,0.2v10c0,0.1,0,0.2-0.1,0.4c0,0.1-0.1,0.2-0.2,0.2L374.3,252.3z"/>
		<path class="st2" d="M383.1,243.8c0-0.1,0-0.3,0.1-0.4c0.1-0.1,0.1-0.2,0.2-0.2l0.9-0.5c0.1,0,0.2,0,0.2,0c0.1,0,0.1,0.1,0.1,0.2
			c0,0.5-0.1,0.9-0.2,1.4c-0.1,0.5-0.4,1-0.6,1.5c-0.3,0.5-0.6,1-1.1,1.4c-0.4,0.5-1,0.9-1.5,1.2c-0.4,0.3-0.9,0.4-1.4,0.5
			c-0.4,0-0.7-0.1-1-0.3c-0.3-0.3-0.6-0.6-0.7-1c-0.2-0.5-0.3-1-0.3-1.6c0-0.4,0-0.8,0-1.3s0-0.9,0-1.3c0-0.6,0.1-1.3,0.3-1.9
			c0.2-0.6,0.4-1.2,0.7-1.7c0.3-0.5,0.6-1,1-1.5c0.4-0.4,0.9-0.8,1.4-1.1c0.5-0.3,1-0.5,1.5-0.6c0.4,0,0.7,0,1.1,0.2
			c0.3,0.2,0.5,0.5,0.6,0.8c0.1,0.4,0.2,0.7,0.2,1.1c0,0.2-0.1,0.5-0.3,0.6l-0.9,0.5c-0.1,0-0.2,0-0.2,0c-0.1-0.1-0.1-0.1-0.1-0.2
			c0-0.2-0.1-0.4-0.2-0.5c-0.1-0.1-0.2-0.3-0.3-0.3c-0.2-0.1-0.4-0.1-0.6-0.1c-0.3,0.1-0.5,0.2-0.8,0.3c-0.3,0.2-0.6,0.4-0.8,0.6
			c-0.2,0.2-0.4,0.5-0.6,0.8c-0.2,0.3-0.3,0.6-0.4,0.9c-0.1,0.3-0.1,0.7-0.1,1c0,0.4,0,0.8,0,1.3s0,0.9,0,1.3c0,0.3,0.1,0.6,0.1,0.8
			c0.1,0.2,0.2,0.4,0.4,0.5c0.2,0.1,0.4,0.2,0.6,0.2c0.3,0,0.6-0.1,0.8-0.3c0.3-0.2,0.6-0.4,0.8-0.6c0.2-0.2,0.4-0.4,0.6-0.7
			c0.1-0.2,0.3-0.5,0.4-0.7C383,244.2,383.1,244,383.1,243.8z"/>
		<path class="st2" d="M393.3,230.5c0.1,0,0.2,0,0.2,0c0.1,0.1,0.1,0.2,0.1,0.2v10c0,0.1,0,0.2-0.1,0.4c0,0.1-0.1,0.2-0.2,0.2
			l-0.9,0.5c-0.1,0-0.2,0-0.2,0c-0.1-0.1-0.1-0.1-0.1-0.2v-4.1l-3.5,2v4.1c0,0.1,0,0.2-0.1,0.4c0,0.1-0.1,0.2-0.2,0.2l-0.9,0.5
			c-0.1,0-0.2,0-0.2,0c-0.1,0-0.1-0.1-0.1-0.2v-10c0-0.1,0-0.2,0.1-0.3c0-0.1,0.1-0.2,0.2-0.2l0.9-0.6c0.1-0.1,0.2-0.1,0.2,0
			c0.1,0.1,0.1,0.2,0.1,0.2v4l3.5-2v-4c0-0.1,0-0.2,0.1-0.4c0-0.1,0.1-0.2,0.2-0.2L393.3,230.5z"/>
	</g>
	<g id="freepik--Review--inject-19">
		<path class="st4" d="M160.8,284.6c0,5.5,0.3,10.9,1,16.4l-20.3-11.7c-0.7-5.4-1.1-10.9-1.1-16.4c0-22.5,9.4-49.6,25.2-74.2
			l20.4,11.7C170.1,235,160.8,262.1,160.8,284.6z"/>
		<path class="st3" d="M190.7,293.9l-10.9,10.3l-18-3.2c-0.7-5.4-1-10.9-1-16.4c0-22.5,9.4-49.6,25.2-74.2l7.4,16.9l16.1,1
			c-9.5,14.5-16.3,30.2-18.8,44.6C189.5,279.8,189.5,286.9,190.7,293.9z"/>
		<polygon class="st20" points="189.1,216.7 209.4,228.4 193.3,227.4 188.6,216.7 		"/>
		<path class="st12" d="M190.7,293.9c-3.1,3.2-7.6,7.6-10.8,10.8h-0.2l-9-1.5c-2.6-0.4-6.4-1.2-9-1.6c-6.9-3.9-13.6-8.1-20.4-12.3
			c6.7,3.6,14.5,7.8,20.5,11.3c2.7,0.5,6.4,1,9,1.5l9,1.7l-0.4,0.1C182.8,300.9,187.4,296.7,190.7,293.9L190.7,293.9z"/>
		<path class="st2" d="M190.2,242.6c-0.4,0.9-1,1.7-1.7,2.4c-0.6,0.5-1.3,0.7-2.1,0.6c-0.4,0-0.8-0.3-1.1-0.6
			c-0.2-0.4-0.3-0.9-0.2-1.4l-3.4,1.4c0,0-0.1,0-0.1,0c-0.1,0-0.1,0-0.1-0.1c0-0.1,0-0.1,0-0.2l0.5-1.1c0.1-0.1,0.2-0.3,0.3-0.4
			c0.1-0.1,0.2-0.1,0.3-0.1l3.2-1.3l0.8-1.7l-2.4-0.4c-0.1,0-0.1-0.1-0.1-0.1c0-0.1,0-0.2,0-0.3l0.5-1c0-0.1,0.1-0.2,0.2-0.2
			c0.1-0.1,0.2-0.1,0.2-0.1l6.7,1.1c0.1,0,0.1,0.1,0.1,0.1c0,0.1,0,0.2,0,0.3L190.2,242.6z M187.8,240.1L187,242
			c-0.2,0.4-0.3,0.8-0.3,1.2c0,0.3,0.2,0.5,0.6,0.6c0.4,0.1,0.8,0,1-0.3c0.3-0.3,0.6-0.7,0.7-1.1l0.9-1.9L187.8,240.1z"/>
		<path class="st2" d="M179.2,254.2c0,0.1-0.1,0.2-0.2,0.2c-0.1,0.1-0.2,0.1-0.2,0.1H178c-0.1,0-0.1,0-0.2-0.1c0-0.1,0-0.2,0-0.2
			l2.1-5.7c0-0.1,0.1-0.2,0.2-0.2c0.1-0.1,0.2-0.1,0.2-0.1l7.2-0.1c0.1,0,0.1,0,0.2,0.1c0,0.1,0,0.2,0,0.2l-2.1,5.6
			c0,0.1-0.1,0.2-0.2,0.2c-0.1,0.1-0.2,0.1-0.2,0.1h-0.8c-0.1,0-0.1,0-0.2-0.1c0-0.1,0-0.2,0-0.2l1.6-4.2H184l-1.4,3.9
			c0,0.1-0.1,0.2-0.2,0.2c-0.1,0.1-0.2,0.1-0.2,0.1h-0.8c-0.1,0-0.1,0-0.2-0.1c0-0.1,0-0.2,0-0.2l1.4-3.9h-1.9L179.2,254.2z"/>
		<path class="st2" d="M178,260.9l5,1.2c0.1,0,0.1,0.1,0.2,0.1c0,0.1,0,0.1,0,0.3l-0.3,1c0,0.1-0.1,0.2-0.2,0.3
			c-0.1,0.1-0.2,0.1-0.2,0.1l0,0h-0.1l-6.5-1.7c-0.1,0-0.2-0.1-0.2-0.1c0-0.1,0-0.2,0-0.3l0.3-1c0-0.1,0.1-0.2,0.2-0.3
			c0.1-0.1,0.2-0.2,0.4-0.2l8.2-4.1h0.1h0.1c0.1,0,0.1,0,0.2,0.1c0,0.1,0,0.2,0,0.2l-0.3,1c0,0.1-0.1,0.2-0.2,0.3
			c-0.1,0.1-0.1,0.1-0.2,0.2L178,260.9z"/>
		<path class="st2" d="M173.8,268.4c0-0.1,0.1-0.2,0.1-0.3c0.1-0.1,0.2-0.1,0.2-0.2l7.8-2.1c0.1,0,0.1,0,0.2,0c0,0.1,0,0.2,0,0.2
			l-0.2,1c0,0.1-0.1,0.2-0.1,0.3c-0.1,0.1-0.2,0.1-0.2,0.2l-7.8,2.1c-0.1,0-0.2,0-0.3-0.1c0,0,0-0.1,0-0.1L173.8,268.4z"/>
		<path class="st2" d="M173.4,278.5c0,0.1-0.1,0.2-0.1,0.3c-0.1,0.1-0.2,0.1-0.2,0.2l-0.9,0.3c-0.1,0-0.2,0-0.2,0
			c-0.1,0-0.1-0.1-0.1-0.2l0.8-5.5c0-0.1,0.1-0.2,0.1-0.3c0.1-0.1,0.2-0.1,0.2-0.2l7.9-3c0.1,0,0.2,0,0.2,0c0.1,0,0.1,0.1,0.1,0.2
			l-0.8,5.4c0,0.1-0.1,0.2-0.1,0.3c-0.1,0.1-0.2,0.1-0.2,0.2l-0.9,0.3c-0.1,0-0.2,0-0.2,0c-0.1,0-0.1-0.1-0.1-0.2l0.6-4l-2,0.7
			l-0.6,3.7c0,0.1-0.1,0.2-0.1,0.3c-0.1,0.1-0.1,0.1-0.2,0.2l-0.9,0.3c-0.1,0.1-0.2,0-0.3-0.1c0,0,0-0.1,0-0.1l0.6-3.7l-2,0.8
			L173.4,278.5z"/>
		<path class="st2" d="M175.5,284.4l-3.7,1c-0.1,0-0.2,0-0.3,0c-0.1,0-0.1-0.1-0.1-0.2v-1c0-0.1,0-0.2,0.1-0.3
			c0.1-0.1,0.2-0.2,0.3-0.3l7.9-5.6l0.1-0.1c0.1,0,0.2,0,0.2,0c0.1,0,0.1,0.1,0.1,0.2v0.9c0,0.1,0,0.2-0.1,0.3
			c-0.1,0.1-0.2,0.2-0.3,0.3l-5.3,3.8l3.3-0.9h0.2c0.1,0,0.1,0.1,0.1,0.2v1c0,0.1-0.1,0.3-0.1,0.4c-0.1,0.1-0.1,0.2-0.2,0.2
			l-3.4,2.6l5.3-1.8c0.1,0,0.2,0,0.2,0c0.1,0,0.1,0.1,0.1,0.2v0.9c0,0.1,0,0.2-0.1,0.3c-0.1,0.1-0.1,0.2-0.2,0.2h-0.1l-7.8,2.6
			c-0.1,0-0.2,0-0.3,0c-0.1,0-0.1-0.1-0.1-0.2v-1c0-0.1,0-0.2,0.1-0.3c0.1-0.1,0.2-0.2,0.3-0.3L175.5,284.4z"/>
	</g>
	<g id="freepik--Deploy--inject-19">
		<path class="st3" d="M259.6,182.4c-19.4,9-37.3,26.4-50.2,46l-16.1-1l-7.3-17c17.8-27.5,43.6-51.8,73.6-62.8l-6.9,21.3
			L259.6,182.4z"/>
		<path class="st4" d="M259.5,147.6L259.5,147.6c-29.9,11-55.8,35.3-73.6,62.8l0,0l-20.3-11.7c17.8-27.5,43.7-51.8,73.6-62.8
			L259.5,147.6z"/>
		<path class="st12" d="M209.4,228.4c-4.7,0-11.4-0.4-16.2-0.6H193l-0.1-0.2c-2.2-4.9-5.4-12.1-7.4-16.9
			c-5.5-2.9-13.6-8.1-19.9-11.9c6.9,3.7,13.8,7.4,20.6,11.3c0.1,0.1,0.1,0.1,0.2,0.2c2.2,4.8,5.3,12,7.3,17l-0.4-0.3
			C198.1,227.3,204.8,227.9,209.4,228.4L209.4,228.4z"/>
		<path class="st0" d="M206.4,201.6c0.3-0.4,0.6-0.7,1-1c0.3-0.2,0.7-0.4,1.1-0.4c0.4-0.1,0.8,0,1.1,0.1c0.4,0.1,0.8,0.3,1.2,0.5
			c0.4,0.3,0.9,0.6,1.3,1c0.3,0.3,0.6,0.6,0.9,1c0.4,0.7,0.6,1.5,0.3,2.2c-0.1,0.4-0.4,0.9-0.6,1.2l-1.6,2.2
			c-0.1,0.1-0.3,0.2-0.4,0.1c0,0,0,0,0,0l-5.7-4.3c-0.1,0-0.1-0.1-0.1-0.2c0-0.1,0-0.2,0.1-0.2L206.4,201.6z M209.9,202
			c-0.2-0.1-0.4-0.2-0.6-0.3c-0.2,0-0.4,0-0.6,0c-0.2,0-0.4,0.1-0.6,0.2c-0.2,0.2-0.4,0.4-0.6,0.6l-0.9,1.2l4,3l0.9-1.2
			c0.2-0.2,0.3-0.4,0.4-0.7c0-0.2,0-0.4,0-0.7c0-0.2-0.1-0.4-0.2-0.6c-0.1-0.2-0.3-0.4-0.4-0.5C210.8,202.6,210.4,202.3,209.9,202z"
			/>
		<path class="st0" d="M217.9,197.6c0.1-0.1,0.1-0.1,0.2-0.1c0.1,0,0.2,0,0.2,0.1l0.6,0.5c0.1,0.1,0.1,0.1,0.1,0.2
			c0,0.1,0,0.2-0.1,0.2l-3.2,3.7c-0.1,0.1-0.1,0.1-0.2,0.1c-0.1,0-0.2,0-0.2-0.1l-5.4-4.6c-0.1-0.1-0.1-0.1-0.1-0.2
			c0-0.1,0-0.2,0.1-0.2l3.1-3.6c0-0.1,0.1-0.1,0.2-0.1c0.1,0,0.2,0,0.2,0.1l0.6,0.5c0.1,0,0.1,0.1,0.1,0.2c0,0.1,0,0.2-0.1,0.2
			l-2.3,2.7l1.3,1.1l2.2-2.5c0-0.1,0.1-0.1,0.2-0.1c0.1,0,0.2,0,0.2,0.1l0.6,0.5c0.1,0.1,0.1,0.1,0.1,0.2c0,0.1,0,0.2-0.1,0.2
			l-2.2,2.5l1.4,1.2L217.9,197.6z"/>
		<path class="st0" d="M216.9,189.4c0.5-0.6,1.2-0.9,1.9-1.1c1.4,0,2.6,1.2,2.6,2.6c-0.1,0.7-0.4,1.4-1,1.9l-1.2,1.3l1.8,1.7
			c0.1,0.1,0.1,0.1,0.1,0.2c0,0.1,0,0.2-0.1,0.2l-0.6,0.6c-0.1,0.1-0.3,0.1-0.4,0c0,0,0,0,0,0l-5.1-5c-0.1-0.1-0.1-0.3,0-0.4
			L216.9,189.4z M218.2,193.1l1.2-1.2c0.3-0.2,0.4-0.6,0.5-0.9c0-0.3-0.1-0.7-0.4-0.9c-0.2-0.3-0.5-0.4-0.9-0.3
			c-0.3,0.1-0.6,0.3-0.9,0.6l-1.2,1.2L218.2,193.1z"/>
		<path class="st0" d="M228.4,187.4c0.1-0.1,0.1-0.1,0.2-0.1c0.1,0,0.2,0,0.2,0.1l0.5,0.6c0.1,0.1,0.1,0.1,0.1,0.2
			c0,0.1,0,0.2-0.1,0.2l-3.6,3.2c-0.1,0.1-0.3,0.1-0.4,0l-4.8-5.4c-0.1-0.1-0.1-0.1-0.1-0.2c0-0.1,0-0.2,0.1-0.2l0.7-0.6
			c0.1-0.1,0.1-0.1,0.2-0.1c0.1,0,0.2,0,0.2,0.1l4,4.5L228.4,187.4z"/>
		<path class="st0" d="M227.2,183.8c-0.2-0.3-0.4-0.7-0.5-1.1c-0.1-0.4-0.1-0.7-0.1-1.1c0.1-0.4,0.2-0.8,0.4-1.1
			c0.5-0.8,1.3-1.4,2.2-1.7c0.8-0.2,1.6-0.1,2.2,0.3c0.3,0.2,0.6,0.5,0.9,0.8l0.3,0.4l0.3,0.4l0.3,0.4c0.1,0.1,0.2,0.3,0.3,0.4
			c0.2,0.3,0.4,0.7,0.5,1.1c0.1,0.4,0.1,0.7,0.1,1.1c-0.1,0.4-0.2,0.8-0.4,1.1c-0.3,0.4-0.6,0.7-1,1c-0.4,0.3-0.8,0.5-1.3,0.7
			c-0.4,0.1-0.8,0.2-1.2,0.1c-0.4-0.1-0.7-0.2-1.1-0.4c-0.3-0.2-0.6-0.5-0.9-0.8l-0.3-0.4l-0.3-0.4l-0.3-0.4L227.2,183.8z
			 M231.2,180.8c-0.5-0.7-1.6-0.9-2.3-0.4c0,0-0.1,0.1-0.1,0.1c-0.8,0.5-1,1.5-0.5,2.3c0,0,0.1,0.1,0.1,0.1c0.2,0.2,0.3,0.5,0.6,0.8
			s0.4,0.5,0.6,0.7c0.3,0.4,0.7,0.6,1.2,0.7c0.5,0,0.9-0.1,1.2-0.4c0.4-0.3,0.6-0.6,0.7-1.1c0.1-0.5-0.1-0.9-0.3-1.3
			c-0.2-0.2-0.3-0.5-0.6-0.8S231.4,181,231.2,180.8L231.2,180.8z"/>
		<path class="st0" d="M237.1,173.4c0.1,0,0.1,0,0.2,0c0.1,0,0.1,0.1,0.2,0.1c0,0,0,0.1,0,0.1l0.2,5.3l1.3,2.1
			c0.1,0.1,0.1,0.3-0.1,0.4c0,0,0,0,0,0l-0.8,0.5c-0.1,0-0.1,0-0.2,0c-0.1,0-0.1-0.1-0.2-0.1l-1.3-2.1l-4.7-2.5l-0.1-0.1
			c0-0.1,0-0.2,0-0.2c0-0.1,0.1-0.1,0.1-0.2l0.7-0.4c0.1-0.1,0.2-0.1,0.3-0.1c0.1,0,0.1,0,0.2,0.1l3.2,1.7l-0.1-3.6
			c0-0.1,0-0.1,0-0.2c0-0.1,0.1-0.2,0.2-0.3L237.1,173.4z"/>
	</g>
	<g id="freepik--Test--inject-19">
		<path class="st1" d="M311.1,219.2l-20.3-11.7c0.7-13.5-1.3-24.2-5.4-31.6c0.5,0,1,0,1.5,0C302.6,175.5,312.5,191.5,311.1,219.2z"
			/>
		<path class="st20" d="M312.6,146.2c-5.8-3.2-12.4-4.8-19-4.8c-11.6,0.1-23.1,2.2-34,6.2l-20.3-11.7c10.9-4.1,22.4-6.2,34-6.2
			c7.1,0,14.1,1.9,20.2,5.4L312.6,146.2z"/>
		<path class="st4" d="M312.6,146.2c-5.8-3.2-12.4-4.8-19-4.8c-11.6,0.1-23.1,2.2-34,6.2l-20.3-11.7c10.9-4.1,22.4-6.2,34-6.2
			c7.1,0,14.1,1.9,20.2,5.4L312.6,146.2z"/>
		<path class="st3" d="M313.7,146.8C313.7,146.8,313.7,146.8,313.7,146.8L313.7,146.8c-0.1,0-0.1,0-0.1,0l0,0
			c-0.1-0.1-0.2-0.1-0.4-0.2l0,0c-0.2-0.1-0.4-0.2-0.5-0.3c-5.8-3.2-12.4-4.8-19-4.8c-11.6,0.1-23.1,2.2-34,6.2l0,0l-6.9,21.3
			l7,13.5c8.1-3.9,16.9-6.2,25.8-6.5c0.5,0,1,0,1.5,0c15.7-0.3,25.6,15.7,24.2,43.3l0,0l15-15.4l13.7-1.2
			C338.5,175.2,328.6,155.7,313.7,146.8z"/>
		<path class="st12" d="M259.6,182.4c-2.2-3.8-5.3-9.5-7.4-13.4c1.9-6.3,4.8-15.3,6.9-21.5l0.2,0.6c-6.7-4-13.4-8-20.1-12.1
			c6.9,3.7,13.8,7.5,20.6,11.3l0.3,0.2l-0.1,0.4c-1.9,6.1-4.9,15.2-6.9,21.3v-0.3C255.1,172.7,257.8,178.4,259.6,182.4L259.6,182.4z
			"/>
		<path class="st2" d="M302.5,159.4c0.1,0,0.1,0.1,0.1,0.2c0,0.1,0,0.2-0.1,0.3L302,161c-0.1,0.1-0.1,0.2-0.2,0.3
			c-0.1,0.1-0.1,0.1-0.2,0.1l-1.5-0.4l-3.9,8.4c0,0.1-0.1,0.2-0.2,0.3c-0.1,0.1-0.1,0.1-0.2,0.1l-0.7-0.2c-0.1,0-0.1-0.1-0.1-0.2
			c0-0.1,0-0.2,0.1-0.3l3.8-8.4l-1.5-0.4c-0.1,0-0.1-0.1-0.1-0.2c0-0.1,0-0.2,0.1-0.3l0.5-1.1c0-0.1,0.1-0.2,0.2-0.3
			c0.1-0.1,0.1-0.1,0.2-0.1L302.5,159.4z"/>
		<path class="st2" d="M303.6,170.8c0.1,0,0.1,0.1,0.1,0.2c0,0.1,0,0.2-0.1,0.3l-0.6,1c-0.1,0.1-0.1,0.2-0.2,0.2c-0.1,0-0.1,0-0.2,0
			l-3.3-1.8c-0.1,0-0.1-0.1-0.1-0.2c0-0.1,0-0.2,0.1-0.3l5.4-9.5c0.1-0.1,0.1-0.2,0.2-0.2c0.1-0.1,0.1-0.1,0.2-0.1l3.2,1.8
			c0.1,0,0.1,0.1,0.1,0.2c0,0.1,0,0.2-0.1,0.3l-0.6,1.1c-0.1,0.1-0.1,0.2-0.2,0.2c-0.1,0-0.1,0-0.2,0l-2.4-1.3l-1.3,2.4l2.2,1.2
			c0.1,0,0.1,0.1,0.1,0.2c0,0.1,0,0.2-0.1,0.3l-0.6,1c0,0.1-0.1,0.2-0.2,0.2c-0.1,0-0.1,0-0.2,0l-2.2-1l-1.4,2.4L303.6,170.8z"/>
		<path class="st2" d="M312.4,165.4c0.3,0.3,0.5,0.6,0.6,1c0.1,0.4,0.1,0.8,0.1,1.1c0,0.4-0.1,0.8-0.3,1.1c-0.1,0.4-0.3,0.7-0.5,1
			c-0.1,0.1-0.1,0.2-0.2,0.2c-0.1,0-0.1,0-0.2,0l-0.4-0.4c-0.1-0.1-0.1-0.1-0.1-0.2c0-0.1,0-0.2,0.1-0.3c0.1-0.3,0.1-0.6,0.1-0.9
			c0-0.3-0.1-0.6-0.4-0.8c-0.1-0.1-0.2-0.2-0.4-0.2c-0.1,0-0.3,0-0.4,0c-0.1,0-0.3,0.1-0.4,0.2c-0.2,0.1-0.3,0.2-0.4,0.4
			c-0.1,0.2-0.2,0.4-0.3,0.6c-0.1,0.2-0.1,0.4,0,0.5c0,0.2,0.1,0.4,0.2,0.6c0.1,0.2,0.2,0.5,0.4,0.9c0.2,0.3,0.3,0.7,0.4,1.1
			c0.1,0.3,0.1,0.7,0,1c-0.1,0.3-0.2,0.7-0.3,1c-0.2,0.4-0.4,0.7-0.6,1.1c-0.3,0.4-0.6,0.7-0.9,1c-0.3,0.2-0.6,0.4-1,0.6
			c-0.3,0.1-0.7,0.1-1,0c-0.3-0.1-0.7-0.3-0.9-0.5c-0.2-0.2-0.4-0.5-0.5-0.8c-0.1-0.3-0.2-0.7-0.2-1.1c0-0.4,0.1-0.8,0.2-1.2
			c0.1-0.4,0.3-0.9,0.6-1.3c0.1-0.1,0.1-0.2,0.2-0.2c0.1,0,0.1,0,0.2,0l0.4,0.4c0.1,0.1,0.1,0.1,0.1,0.2c0,0.1,0,0.2-0.1,0.3
			l-0.1,0.5c0,0.2-0.1,0.3,0,0.5c0,0.2,0,0.3,0.1,0.5c0.1,0.2,0.2,0.3,0.3,0.5c0.1,0.1,0.3,0.2,0.4,0.3c0.1,0.1,0.3,0.1,0.5,0.1
			c0.2,0,0.3-0.1,0.5-0.2c0.2-0.1,0.3-0.3,0.5-0.4c0.1-0.2,0.2-0.4,0.3-0.6c0-0.2,0-0.4,0-0.6c-0.1-0.2-0.2-0.5-0.3-0.7
			c-0.1-0.2-0.2-0.6-0.4-0.9c-0.1-0.3-0.2-0.6-0.3-0.9c0-0.3,0-0.6,0-0.9c0.1-0.3,0.2-0.7,0.3-1c0.2-0.4,0.4-0.8,0.7-1.1
			c0.3-0.4,0.6-0.7,0.9-1c0.3-0.2,0.6-0.4,1-0.6c0.3-0.1,0.6-0.1,0.9-0.1C311.9,165,312.2,165.2,312.4,165.4z"/>
		<path class="st2" d="M318,173.1c0,0.1,0,0.2,0,0.2c0,0.1-0.1,0.2-0.2,0.3l-0.8,0.9c-0.1,0.1-0.1,0.1-0.2,0.2c-0.1,0-0.1,0-0.2-0.1
			l-0.9-1.4l-5.8,6.9c-0.1,0.1-0.1,0.1-0.2,0.2c0,0-0.1,0-0.2,0l-0.4-0.6c0-0.1,0-0.2,0-0.2c0-0.1,0.1-0.2,0.2-0.3l5.8-6.9l-0.9-1.4
			c0-0.1,0-0.2,0-0.2c0-0.1,0.1-0.2,0.2-0.3l0.8-0.9c0.1-0.1,0.1-0.1,0.2-0.2c0.1,0,0.1,0,0.2,0.1L318,173.1z"/>
	</g>
	<g id="freepik--Develop--inject-19">
		<polygon class="st20" points="295.2,279.2 310.6,280.5 317.5,295.1 297.2,283.4 		"/>
		<polygon class="st22" points="295.2,279.2 310.6,280.5 317.5,295.1 297.2,283.4 		"/>
		<path class="st1" d="M311.1,219.2c0,0.4,0,0.7,0,1.1c-1.2,19.2-7.5,40.2-16.8,58.9l-20.3-11.7c9.3-18.6,15.7-39.7,16.8-58.9
			c0-0.4,0-0.7,0-1.1L311.1,219.2z"/>
		<path class="st3" d="M340,209.2c0,28.4-8.6,59.1-22.5,85.8l-6.9-14.5l-16.3-1.5c9.3-18.6,15.7-39.7,16.8-58.9c0-0.4,0-0.7,0-1.1
			l0,0l15-15.4l13.7-1.2C339.9,204.7,340,207,340,209.2z"/>
		<path class="st12" d="M290.8,207.4c7,3.6,13.8,7.4,20.6,11.3l-0.6,0.1l3.7-3.8c3.5-3.5,7.8-7.9,11.4-11.4l0.1-0.1h0.1
			c4.6-0.3,9.1-0.6,13.7-0.9c-4.1,0.5-10.2,1.4-13.4,1.5c-3.4,3.6-7.7,8-11.1,11.6l-3.8,3.8l-0.3,0.3
			C304.3,215.9,297.5,211.8,290.8,207.4L290.8,207.4z"/>
		<path class="st2" d="M310.9,263.8c0.2-0.4,0.4-0.8,0.7-1.2c0.3-0.3,0.6-0.5,1-0.7c0.4-0.2,0.8-0.3,1.2-0.3c0.5,0,0.9,0,1.4,0.1
			c0.6,0.1,1.1,0.3,1.7,0.4c0.4,0.1,0.8,0.3,1.2,0.6c0.3,0.2,0.6,0.5,0.8,0.8c0.2,0.3,0.3,0.6,0.3,1c0,0.4-0.1,0.9-0.2,1.3l-0.9,2.4
			c0,0.1-0.1,0.1-0.1,0.2c-0.1,0-0.2,0-0.2,0l-7.2-1.9c-0.1,0-0.1-0.1-0.2-0.1c0-0.1,0-0.1,0-0.2L310.9,263.8z M314.6,263
			c-0.2,0-0.5,0-0.7,0c-0.2,0-0.4,0.1-0.6,0.2c-0.2,0.1-0.4,0.2-0.5,0.4c-0.2,0.2-0.3,0.4-0.4,0.7l-0.5,1.3l5,1.3l0.5-1.3
			c0.1-0.2,0.1-0.5,0.1-0.7c0-0.2-0.1-0.4-0.2-0.6c-0.1-0.2-0.3-0.3-0.4-0.4c-0.2-0.1-0.4-0.2-0.6-0.3
			C315.7,263.3,315.1,263.1,314.6,263L314.6,263z"/>
		<path class="st2" d="M320.5,256.1c0-0.1,0.1-0.1,0.2-0.2c0.1,0,0.2,0,0.2,0l0.8,0.2c0.1,0,0.1,0.1,0.2,0.1c0,0.1,0,0.1,0,0.2
			l-1.4,4.3c0,0.1-0.1,0.1-0.1,0.2c-0.1,0-0.2,0-0.2,0l-7.3-1.7c-0.1,0-0.1-0.1-0.2-0.1c0-0.1,0-0.1,0-0.2l1.4-4.2
			c0-0.1,0.1-0.1,0.1-0.2c0.1,0,0.2,0,0.2,0l0.8,0.2c0.1,0,0.1,0.1,0.2,0.1c0,0.1,0,0.1,0,0.2l-1,3.1l1.8,0.4l1-2.9
			c0-0.1,0.1-0.1,0.1-0.2c0.1,0,0.2,0,0.2,0l0.8,0.2c0.1,0,0.1,0.1,0.2,0.1c0,0.1,0,0.1,0,0.2l-1,2.9l1.9,0.4L320.5,256.1z"/>
		<path class="st2" d="M321.1,251.3l-5-2.8c-0.1,0-0.1-0.1-0.2-0.1c0-0.1,0-0.2,0-0.2l0.2-0.8c0-0.1,0.1-0.1,0.1-0.2
			c0.1,0,0.2,0,0.2,0l0,0h0.1l6.5,3.7c0.1,0,0.2,0.1,0.2,0.2c0,0.1,0,0.2,0,0.3l-0.2,0.8c0,0.1-0.1,0.2-0.2,0.2
			c-0.1,0-0.2,0.1-0.3,0.1l-7.8,0.8h-0.1c-0.1,0-0.2-0.1-0.2-0.1c0-0.1,0-0.1,0-0.2l0.2-0.8c0-0.1,0.1-0.2,0.2-0.2l0.2-0.1
			L321.1,251.3z"/>
		<path class="st2" d="M324.4,242.2c0-0.1,0.1-0.1,0.1-0.2c0.1,0,0.2,0,0.2,0l0.8,0.1c0.1,0,0.1,0.1,0.2,0.1c0.1,0.1,0.1,0.1,0,0.2
			l-1.1,4.4c0,0.1-0.1,0.1-0.1,0.2c-0.1,0-0.2,0-0.2,0l-7.4-1.3c-0.1,0-0.2-0.1-0.2-0.1c0-0.1-0.1-0.1,0-0.2l1.1-4.3
			c0-0.1,0.1-0.1,0.1-0.2c0.1,0,0.2,0,0.2,0l0.8,0.1c0.1,0,0.1,0.1,0.2,0.1c0.1,0.1,0.1,0.1,0,0.2l-0.8,3.2l1.8,0.3l0.8-3
			c0-0.1,0.1-0.1,0.1-0.2c0.1,0,0.2,0,0.2,0l0.8,0.1c0.1,0,0.1,0.1,0.2,0.1c0,0.1,0,0.1,0,0.2l-0.8,3l1.9,0.3L324.4,242.2z"/>
		<path class="st2" d="M325.9,235.4c0-0.1,0.1-0.1,0.1-0.2c0.1,0,0.2,0,0.2,0l0.8,0.1c0.1,0,0.1,0,0.2,0.1c0,0.1,0.1,0.1,0,0.2
			l-1,4.4c0,0.1-0.1,0.1-0.1,0.2c-0.1,0-0.2,0.1-0.2,0.1l-7.5-1.1c-0.1,0-0.1,0-0.2-0.1c-0.1-0.1-0.1-0.1,0-0.2l0.2-0.8
			c0-0.1,0.1-0.1,0.1-0.2c0.1,0,0.1-0.1,0.2-0.1l6.3,0.9L325.9,235.4z"/>
		<path class="st2" d="M322.6,233.4c-0.4-0.1-0.8-0.2-1.2-0.4c-0.3-0.2-0.7-0.4-0.9-0.7c-0.2-0.3-0.4-0.6-0.5-1
			c-0.1-0.4-0.1-0.9,0-1.3c0.1-0.4,0.2-0.9,0.5-1.2c0.2-0.3,0.5-0.6,0.8-0.8c0.3-0.2,0.7-0.4,1.1-0.4c0.4-0.1,0.8-0.1,1.3-0.1h0.5
			l0.5,0.1l0.5,0.1l0.5,0.1c0.4,0.1,0.8,0.2,1.2,0.4c0.3,0.2,0.7,0.4,0.9,0.7c0.2,0.3,0.4,0.6,0.5,1c0.1,0.4,0.1,0.9,0,1.3
			c-0.1,0.4-0.2,0.9-0.5,1.3c-0.2,0.3-0.5,0.6-0.8,0.8c-0.3,0.2-0.7,0.4-1.1,0.4c-0.4,0.1-0.8,0.1-1.3,0.1h-0.5l-0.5-0.1l-0.5-0.1
			L322.6,233.4z M323.4,228.9c-0.5-0.1-1,0.1-1.4,0.3c-0.4,0.3-0.6,0.6-0.7,1.1c-0.1,0.4,0,0.8,0.3,1.2c0.3,0.3,0.8,0.6,1.2,0.6
			l1,0.1l1,0.1c0.5,0.1,1,0,1.4-0.3c0.4-0.3,0.6-0.6,0.6-1.1c0.1-0.4,0-0.8-0.2-1.2c-0.3-0.3-0.7-0.6-1.2-0.6l-1-0.1L323.4,228.9z"
			/>
		<path class="st2" d="M321.2,222.4c0-1.4,1.2-2.5,2.6-2.4c0.1,0,0.2,0,0.4,0c0.7,0,1.4,0.3,1.9,0.8c0.4,0.6,0.6,1.3,0.5,1.9
			l-0.2,1.6l2.6,0.2c0.1,0,0.2,0,0.2,0.1c0.1,0.1,0.1,0.1,0.1,0.2l-0.1,0.8c0,0.1,0,0.1-0.1,0.2c-0.1,0-0.2,0.1-0.2,0.1l-7.5-0.6
			c-0.1,0-0.2,0-0.2-0.1c-0.1-0.1-0.1-0.1-0.1-0.2L321.2,222.4z M324.8,224.3l0.2-1.6c0.1-0.3,0-0.7-0.1-0.9
			c-0.2-0.3-0.5-0.4-0.9-0.4c-0.3-0.1-0.7,0-1,0.3c-0.2,0.2-0.3,0.6-0.4,0.9l-0.2,1.6L324.8,224.3z"/>
	</g>
	<g id="freepik--Design--inject-19">
		<path class="st1" d="M294.2,279.1c-9.6,19.2-22.4,35.9-36,45.3c-1.3,0.9-2.6,1.8-3.9,2.5L234,315.2c1.3-0.8,2.6-1.6,3.9-2.5
			c13.6-9.4,26.4-26.1,36-45.3L294.2,279.1z"/>
		<path class="st3" d="M317.5,295.1c-14,26.9-33.5,49.7-54.9,62.1l-8.2,4.8l7-21.5l-7-13.5c1.3-0.8,2.6-1.6,3.9-2.5
			c13.6-9.5,26.4-26.1,36-45.3l16.3,1.5L317.5,295.1z"/>
		<polygon class="st20" points="234,315.2 254.3,326.9 261.3,340.4 254.3,361.9 234,350.2 241,328.7 		"/>
		<polygon class="st22" points="234,315.2 254.3,326.9 261.3,340.4 254.3,361.9 234,350.2 241,328.7 		"/>
		<polygon class="st23" points="234,315.2 254.3,326.9 261.3,340.4 241,328.7 		"/>
		<path class="st12" d="M273.9,267.4c6.6,3.5,14.6,7.8,20.4,11.2c5.3,0.4,11.3,1,16.5,1.6l0.1,0.2l3.3,7.3c1.1,2.5,2.2,4.9,3.2,7.4
			c-1.2-2.4-2.4-4.8-3.6-7.2l-3.6-7.2l0.3,0.2c-5.2-0.3-11.1-0.8-16.3-1.3C287.3,275.8,280.6,271.6,273.9,267.4z"/>
		<path class="st2" d="M271.9,328.5c0.4-0.4,0.9-0.7,1.4-0.9c0.4-0.2,0.8-0.3,1.3-0.3c0.4,0,0.8,0.1,1.2,0.3c0.4,0.2,0.7,0.5,1,0.8
			c0.4,0.4,0.7,0.8,1,1.2c0.3,0.3,0.5,0.7,0.6,1.1c0.1,0.4,0.1,0.8,0.1,1.2c-0.1,0.4-0.2,0.8-0.5,1.2c-0.3,0.5-0.7,0.9-1.1,1.2
			l-2.5,2.1c-0.1,0.1-0.2,0.1-0.2,0.1c-0.1,0-0.2,0-0.2-0.1l-4.6-5.4c-0.1-0.1-0.1-0.1-0.1-0.2c0-0.1,0.1-0.2,0.1-0.2L271.9,328.5z
			 M275.5,329.5c-0.2-0.2-0.3-0.3-0.5-0.4c-0.2-0.1-0.4-0.1-0.6-0.1c-0.3,0-0.5,0-0.7,0.1c-0.3,0.1-0.6,0.3-0.8,0.5l-1.3,1.1
			l3.2,3.8l1.4-1.2c0.2-0.2,0.4-0.4,0.6-0.7c0.1-0.2,0.2-0.4,0.3-0.7c0-0.2,0-0.4,0-0.6c-0.1-0.2-0.2-0.4-0.3-0.6
			C276.2,330.3,275.8,329.8,275.5,329.5L275.5,329.5z"/>
		<path class="st2" d="M285.2,324.7c0.1-0.1,0.1-0.1,0.2-0.1c0.1,0,0.2,0,0.2,0.1l0.6,0.6c0.1,0.1,0.1,0.1,0.1,0.2
			c0,0.1,0,0.2-0.1,0.2l-3.9,3.9c-0.1,0.1-0.2,0.1-0.2,0.1c-0.1,0-0.2,0-0.2-0.1l-5-5c-0.1-0.1-0.1-0.1-0.1-0.2c0-0.1,0-0.2,0.1-0.2
			l3.9-3.9c0.1-0.1,0.1-0.1,0.2-0.1c0.1,0,0.2,0,0.2,0.1l0.5,0.5c0.1,0.1,0.1,0.1,0.1,0.2c0,0.1,0,0.2-0.1,0.2l-2.9,2.9l1.2,1.2
			l2.7-2.7c0.1-0.1,0.1-0.1,0.2-0.1c0.1,0,0.2,0,0.2,0.1l0.5,0.5c0.1,0.1,0.1,0.1,0.1,0.2c0,0.1,0,0.2-0.1,0.2l-2.7,2.7l1.3,1.3
			L285.2,324.7z"/>
		<path class="st2" d="M284.4,315.9c0.3-0.4,0.7-0.7,1.1-1c0.3-0.2,0.7-0.4,1.1-0.5c0.3-0.1,0.6-0.1,0.9-0.1c0.2,0,0.5,0.1,0.7,0.2
			c0.1,0,0.1,0.1,0.1,0.2c0,0.1,0,0.2-0.1,0.2l-0.6,0.7c-0.1,0.1-0.2,0.2-0.3,0.2c-0.1,0-0.2,0-0.3,0c-0.3,0-0.5,0-0.7,0.1
			c-0.4,0.2-0.7,0.4-0.9,0.7c-0.1,0.2-0.3,0.3-0.4,0.5c-0.1,0.2-0.2,0.3-0.2,0.5c0,0.1,0,0.3,0,0.5c0,0.1,0.1,0.3,0.2,0.3
			c0.1,0.1,0.3,0.2,0.4,0.2c0.2,0,0.3,0,0.5-0.1c0.2-0.1,0.5-0.3,0.7-0.4l0.9-0.7c0.3-0.3,0.7-0.5,1.1-0.8c0.3-0.2,0.6-0.3,0.9-0.4
			c0.3-0.1,0.5-0.1,0.8,0c0.6,0.2,1.1,0.6,1.2,1.2c0.1,0.3,0.1,0.7,0.1,1c-0.1,0.4-0.2,0.8-0.4,1.2c-0.2,0.5-0.5,0.9-0.9,1.3
			c-0.3,0.3-0.6,0.7-1,0.9c-0.3,0.2-0.7,0.4-1.1,0.6c-0.3,0.1-0.7,0.2-1,0.2c-0.3,0-0.6-0.1-0.9-0.3c-0.1,0-0.1-0.1-0.1-0.2
			c0-0.1,0-0.2,0.1-0.2l0.6-0.7c0.1-0.1,0.2-0.2,0.3-0.2c0.1,0,0.2,0,0.3,0c0.1,0,0.2,0,0.4,0c0.1,0,0.3,0,0.4-0.1
			c0.2-0.1,0.3-0.2,0.5-0.3c0.2-0.2,0.4-0.4,0.6-0.6c0.2-0.2,0.3-0.4,0.5-0.6c0.1-0.2,0.2-0.4,0.3-0.6c0.1-0.2,0.1-0.3,0.1-0.5
			c0-0.2-0.1-0.3-0.2-0.4c-0.1-0.1-0.3-0.2-0.4-0.1c-0.2,0-0.4,0.1-0.5,0.2c-0.2,0.1-0.5,0.3-0.8,0.5c-0.3,0.2-0.6,0.5-1,0.8
			c-0.3,0.2-0.7,0.4-1,0.6c-0.3,0.1-0.6,0.2-0.9,0.3c-0.3,0.1-0.5,0.1-0.8,0c-0.3-0.1-0.5-0.3-0.7-0.5c-0.2-0.2-0.4-0.5-0.5-0.8
			c-0.1-0.3-0.1-0.7-0.1-1c0.1-0.4,0.2-0.8,0.3-1.1C283.9,316.6,284.1,316.2,284.4,315.9z"/>
		<path class="st2" d="M294.6,315.8c-0.1,0.1-0.1,0.1-0.2,0.1c-0.1,0-0.2,0-0.2,0l-5.6-4.4c-0.1-0.1-0.1-0.1-0.1-0.2
			c0-0.1,0-0.2,0.1-0.2l0.6-0.8c0.1-0.1,0.1-0.1,0.2-0.1c0.1,0,0.2,0,0.2,0l5.6,4.4c0.1,0,0.1,0.1,0.1,0.2c0,0.1,0,0.2-0.1,0.2
			L294.6,315.8z"/>
		<path class="st2" d="M293.2,309.7c-0.3-0.2-0.6-0.6-0.8-0.9c-0.2-0.3-0.3-0.7-0.4-1.1c0-0.5,0-0.9,0.2-1.3c0.2-0.5,0.4-1,0.8-1.5
			c0.3-0.5,0.8-1,1.2-1.4c0.3-0.3,0.7-0.5,1.1-0.6c0.3-0.1,0.6-0.1,0.9-0.1c0.2,0,0.4,0.1,0.6,0.2c0.1,0,0.1,0.1,0.1,0.2
			c0,0.1,0,0.2-0.1,0.2l-0.6,0.9c0,0.1-0.1,0.1-0.2,0.1c-0.1,0-0.1,0-0.2,0h-0.2c-0.2,0-0.3,0-0.5,0.1c-0.2,0.1-0.4,0.2-0.6,0.3
			c-0.3,0.2-0.5,0.4-0.6,0.7c-0.3,0.4-0.5,1-0.5,1.5c0,0.5,0.3,0.9,0.6,1.2c0.2,0.2,0.5,0.4,0.7,0.5s0.5,0.4,0.8,0.5
			c0.4,0.3,0.9,0.4,1.4,0.3c0.5-0.2,0.9-0.6,1.2-1c0.2-0.2,0.3-0.5,0.4-0.8c0.1-0.2,0.2-0.5,0.2-0.7c0-0.2-0.1-0.5-0.2-0.7
			c-0.1-0.2-0.3-0.4-0.6-0.6l-0.1,0l-0.9,1.3c0,0.1-0.1,0.1-0.2,0.1c-0.1,0-0.2,0-0.2,0l-0.6-0.4c-0.1,0-0.1-0.1-0.1-0.2
			c0-0.1,0-0.2,0.1-0.2l1.7-2.4c0.1-0.1,0.1-0.1,0.2-0.1c0.1,0,0.2,0,0.2,0l1,0.7c0.3,0.2,0.6,0.5,0.9,0.9c0.2,0.3,0.3,0.7,0.4,1.1
			c0,0.5,0,0.9-0.2,1.4c-0.2,0.5-0.4,1.1-0.8,1.5c-0.3,0.5-0.7,0.9-1.1,1.2c-0.3,0.3-0.7,0.5-1.2,0.6c-0.4,0.1-0.8,0.1-1.2,0
			c-0.4-0.1-0.8-0.2-1.2-0.5l-0.4-0.2l-0.4-0.3l-0.4-0.3C293.5,309.9,293.3,309.8,293.2,309.7z"/>
		<path class="st2" d="M306,298.6c-0.1,0.1-0.1,0.2-0.2,0.2l-0.2,0.1l-5.7,0.9l4,2.2c0.1,0,0.1,0.1,0.1,0.2c0,0.1,0,0.2,0,0.2
			l-0.5,0.9c0,0.1-0.1,0.1-0.2,0.2c-0.1,0-0.2,0-0.2,0l-6.2-3.5c-0.1,0-0.1-0.1-0.1-0.2c0-0.1,0-0.2,0-0.2l0.4-0.8
			c0.1-0.1,0.1-0.2,0.2-0.2l0.2-0.1l5.7-0.9l-4-2.2c-0.1,0-0.1-0.1-0.1-0.2c0-0.1,0-0.2,0-0.2l0.5-0.9c0-0.1,0.1-0.1,0.2-0.2
			c0.1,0,0.2,0,0.2,0l6.2,3.5c0.1,0,0.1,0.1,0.1,0.2c0,0.1,0,0.2,0,0.2L306,298.6z"/>
	</g>
	<g id="freepik--Plan--inject-19">
		<polygon class="st1" points="254.3,326.9 136.6,394.9 116.3,383.1 234,315.2 		"/>
		<polygon class="st3" points="261.3,340.4 254.3,361.9 136.6,429.9 143.6,408.4 136.6,394.9 254.3,326.9 		"/>
		<polygon class="st4" points="116.3,383.1 123.3,396.6 116.3,418.2 136.6,429.9 143.6,408.4 136.6,394.9 		"/>
		<polygon class="st23" points="116.3,383.1 136.6,394.9 143.6,408.4 123.3,396.6 		"/>
		<path class="st12" d="M254.3,362c2-7.3,4.2-14.5,6.5-21.7v0.4c-1.8-3.3-5.3-10.1-7-13.5l0.2,0.2l-5.1-3c-4.9-2.9-10.2-6.1-15-9.2
			c5,2.6,10.5,5.7,15.4,8.4l5.1,2.9l0.1,0.1l0.1,0.1l3.5,6.7l3.4,6.8l0.1,0.2C259.4,347.6,256.9,354.8,254.3,362L254.3,362z"/>
		<path class="st2" d="M183.6,380.4c0.9-0.5,1.7-0.7,2.2-0.4s0.8,1,0.8,2.1c0,1.1-0.3,2.1-0.8,3c-0.5,0.9-1.3,1.6-2.2,2.1l-1.9,1.1
			v3.5c0,0.1,0,0.2-0.1,0.4c0,0.1-0.1,0.2-0.2,0.2l-0.9,0.5c-0.1,0-0.2,0-0.2,0c-0.1-0.1-0.1-0.2-0.1-0.2v-10c0-0.1,0-0.2,0.1-0.4
			c0-0.1,0.1-0.2,0.2-0.2L183.6,380.4z M181.7,386.5l1.8-1c0.4-0.2,0.8-0.6,1.1-1c0.3-0.4,0.4-0.9,0.4-1.5c0-0.6-0.1-0.9-0.4-1
			c-0.4,0-0.8,0.1-1.1,0.3l-1.8,1L181.7,386.5z"/>
		<path class="st2" d="M194.1,383.2c0.1-0.1,0.2-0.1,0.2,0c0.1,0.1,0.1,0.2,0.1,0.2v1.1c0,0.1,0,0.2-0.1,0.3c0,0.1-0.1,0.2-0.2,0.2
			l-5.1,2.9c-0.1,0.1-0.2,0.1-0.2,0c-0.1-0.1-0.1-0.2-0.1-0.2v-10c0-0.1,0-0.2,0.1-0.4c0.1-0.1,0.1-0.2,0.2-0.2l0.9-0.5
			c0.1-0.1,0.2-0.1,0.2,0c0.1,0.1,0.1,0.1,0.1,0.2v8.5L194.1,383.2z"/>
		<path class="st2" d="M200.2,370.8c0.1-0.1,0.2-0.1,0.3,0c0.1,0.1,0.1,0.2,0.2,0.3l2.8,8.1c0,0,0,0.1,0,0.1c0,0.1,0,0.2-0.1,0.3
			c0,0.1-0.1,0.2-0.2,0.2l-0.8,0.5c-0.1,0.1-0.3,0.1-0.3,0c-0.1,0-0.1-0.1-0.1-0.2l-0.5-1.4l-3.7,2.1l-0.5,2c0,0.1-0.1,0.2-0.1,0.3
			c-0.1,0.1-0.2,0.2-0.3,0.3l-0.8,0.5c-0.1,0-0.2,0-0.2,0c-0.1-0.1-0.1-0.2-0.1-0.2c0,0,0-0.1,0-0.1l2.8-11.4c0-0.2,0.1-0.3,0.2-0.5
			c0.1-0.1,0.2-0.2,0.3-0.3L200.2,370.8z M200.8,377.2l-1.3-3.7l-1.3,5.1L200.8,377.2z"/>
		<path class="st2" d="M210.7,375.5c-0.1,0.1-0.2,0.1-0.3,0l-0.1-0.1l-3.2-4.5v6.4c0,0.1,0,0.2-0.1,0.4c0,0.1-0.1,0.2-0.2,0.2
			l-0.9,0.5c-0.1,0.1-0.2,0.1-0.2,0c-0.1-0.1-0.1-0.1-0.1-0.2v-10c0-0.1,0-0.2,0.1-0.3c0-0.1,0.1-0.2,0.2-0.2l0.8-0.5
			c0.1-0.1,0.2-0.1,0.3,0l0.2,0.1l3.2,4.6v-6.4c0-0.1,0-0.2,0.1-0.4c0-0.1,0.1-0.2,0.2-0.2l0.9-0.5c0.1,0,0.2,0,0.2,0
			c0.1,0.1,0.1,0.2,0.1,0.2v10c0,0.1,0,0.2-0.1,0.4c0,0.1-0.1,0.2-0.2,0.2L210.7,375.5z"/>
	</g>
</g>
<g id="freepik--Cloud--inject-19">
	<g id="freepik--cloud--inject-19">
		<path class="st4" d="M388.9,75.4L388.9,75.4l-0.2-0.1l-0.1-0.1l-3.8-2.2c0-0.1,0-0.2,0-0.3c0-4.7-1.6-8-4-9.3l0,0l-7.3-4.2l0,0
			c-2-1.2-4.6-1-7.5,0.6c-1.3,0.8-2.5,1.8-3.6,2.9c-0.5-0.5-1-0.9-1.6-1.2l0,0l-7.1-4.1l0,0c-2.6-1.7-6.1-1.7-9.9,0.5
			c-8,4.6-14.5,17-14.5,27.7c0,1.2,0.1,2.4,0.3,3.5l-1,0.6c-5.1,2.9-9.2,10.8-9.2,17.6l0,0c0,3.8,1.3,6.4,3.2,7.6l0,0l7.4,4.3l0,0
			c1.6,0.9,3.7,0.8,6-0.5l13.4-7.7l35.7-20.6c3.1-1.8,5.5-6.5,5.5-10.6l0,0C390.7,77.6,390,76.1,388.9,75.4z"/>
		<path class="st24" d="M380.8,63.5L380.8,63.5c-2-1.1-4.6-1-7.4,0.6c-1.4,0.8-2.7,1.8-3.8,3l-6.7-3.9l-0.7-0.4l0.2-0.2
			c1.1-1.1,2.3-2.1,3.6-2.8c2.9-1.7,5.5-1.8,7.5-0.6l0,0L380.8,63.5z"/>
		<path class="st25" d="M362.4,62.7c0.2,0.2,0.3,0.4,0.5,0.5l-0.7-0.4L362.4,62.7z"/>
		<path class="st24" d="M360.6,61.3L360.6,61.3c-2.5-1.4-5.8-1.2-9.4,0.8s-7,5.8-9.5,10.2l-7.4-4.3c2.5-4.4,5.9-8.1,9.5-10.2
			c3.8-2.2,7.3-2.2,9.9-0.5l0,0L360.6,61.3z"/>
		<path class="st4" d="M385.1,75.6l-0.5,0.3c0.2-1,0.2-2.1,0.2-3.1c0-8.4-5.1-12.3-11.5-8.7c-3.2,2.1-5.9,4.9-7.6,8.3
			c-0.3-10.2-6.6-14.8-14.5-10.2c-8,4.6-14.5,17-14.5,27.7c0,1.2,0.1,2.4,0.3,3.5l-1,0.6c-5.1,2.9-9.2,10.8-9.2,17.6l0,0
			c0,6.8,4.1,10.1,9.2,7.1l13.4-7.7l0,0l35.7-20.6c3.1-1.8,5.5-6.5,5.5-10.6l0,0C390.7,75.7,388.2,73.8,385.1,75.6z"/>
		<path class="st26" d="M385.1,75.6l-0.5,0.3c0.2-1,0.2-2.1,0.2-3.1c0-8.4-5.1-12.3-11.5-8.7c-3.2,2.1-5.9,4.9-7.6,8.3
			c-0.3-10.2-6.6-14.8-14.5-10.2c-8,4.6-14.5,17-14.5,27.7c0,1.2,0.1,2.4,0.3,3.5l-1,0.6c-5.1,2.9-9.2,10.8-9.2,17.6l0,0
			c0,6.8,4.1,10.1,9.2,7.1l13.4-7.7l0,0l35.7-20.6c3.1-1.8,5.5-6.5,5.5-10.6l0,0C390.7,75.7,388.2,73.8,385.1,75.6z"/>
		<path class="st26" d="M332.4,117.9c-2.3,0-3.7-2.5-3.7-6.3c0-6.1,3.8-13.4,8.3-16l1-0.6c0.7-0.4,1-1.2,0.9-1.9l0,0
			c-0.2-1.1-0.2-2.1-0.2-3.2c0-10.1,6.1-21.8,13.5-26.1c1.4-0.9,3.1-1.4,4.8-1.5c4,0,6.7,3.9,6.9,10.1l0,0c0,1,0.9,1.9,1.9,1.8
			c0.7,0,1.3-0.4,1.6-1l0,0c1.6-3.1,4-5.7,7-7.6c1.1-0.7,2.3-1.1,3.6-1.1c3,0,5,3.2,5,8.2c0,1-0.1,1.9-0.2,2.9l0,0
			c-0.1,1,0.6,2,1.6,2.1c0.4,0.1,0.8,0,1.2-0.2l0.5-0.3c0.4-0.2,0.8-0.4,1.2-0.4c1,0,1.5,1.5,1.5,3c0,3.4-2.1,7.5-4.6,8.9L335,117.1
			C334.2,117.6,333.3,117.9,332.4,117.9L332.4,117.9z"/>
	</g>
</g>
<g id="freepik--Gears--inject-19">
	<g id="freepik--Gear--inject-19">
		<path class="st20" d="M133.6,88.5L133.6,88.5l-5.8-3.3l0,0c-0.2-0.1-0.4-0.1-0.6,0l-4,1.8c-0.1-0.3,0-0.7,0.1-1l4.6-9.3
			c0.3-0.5,0.1-1.1-0.4-1.3l-5-2.9l0,0l-5.8-3.3c-0.5-0.3-1.1-0.1-1.4,0.3l-5.7,8.6c-0.2,0.3-0.5,0.5-0.8,0.6l-0.4-4.4
			c0-0.2-0.1-0.4-0.3-0.5l0,0l-5.8-3.3l0,0c-0.2-0.1-0.4-0.1-0.6,0.1L93.9,75c-0.5,0.3-0.8,0.8-0.9,1.4L92.2,85
			c-0.1,0.6-0.4,1.2-0.8,1.6c-1.5,1.4-3,2.9-4.3,4.6c-0.4,0.4-1,0.6-1.5,0.4l-5-1.7c-0.5-0.2-1.1,0-1.4,0.5l-5.7,9.9
			c-0.3,0.5-0.2,1.1,0.2,1.5l4,3.4c0.4,0.4,0.6,1,0.4,1.5c-0.7,2-1.3,4-1.8,6c-0.2,0.6-0.5,1.1-1,1.5l-7.1,5
			c-0.5,0.4-0.8,0.9-0.8,1.5v8.9c0,0.2,0.1,0.4,0.3,0.6l0,0l5.8,3.3l0,0c0.2,0.1,0.4,0.1,0.6,0l4-1.8c0.1,0.3,0,0.7-0.1,1l-4.6,9.2
			c-0.3,0.5-0.1,1.1,0.4,1.4l7,4l0,0l3.8,2.2c0.5,0.3,1.1,0.2,1.4-0.3c0,0,0,0,0,0l5.7-8.6c0.2-0.3,0.5-0.5,0.8-0.6l0.4,4.4
			c0,0.2,0.1,0.4,0.3,0.5l0,0l5.8,3.3l0,0c0.2,0.1,0.4,0.1,0.6-0.1l7.8-4.5c0.5-0.3,0.8-0.9,0.9-1.4l0.8-8.6
			c0.1-0.6,0.4-1.2,0.8-1.6c1.5-1.4,3-2.9,4.3-4.6c0.4-0.4,1-0.6,1.5-0.4l5,1.7c0.5,0.2,1.1-0.1,1.4-0.5l5.7-9.9
			c0.3-0.5,0.2-1.1-0.2-1.5l-4-3.4c-0.4-0.4-0.6-1-0.4-1.5c0.7-2,1.3-4,1.8-6c0.2-0.6,0.5-1.1,1-1.5l7.1-5c0.5-0.4,0.8-0.9,0.8-1.5
			v-8.9C133.9,88.9,133.8,88.6,133.6,88.5z M90.5,118.6c0-8.3,5.9-18.5,13.1-22.7c2.8-1.6,5.4-2.1,7.6-1.6c1.1,1.5,1.7,3.9,1.7,6.9
			c0,8.3-5.9,18.5-13.1,22.7c-2.8,1.6-5.2,2.2-7.1,1.7C91.2,123.7,90.4,121.1,90.5,118.6z"/>
		<path class="st4" d="M133.6,88.5L133.6,88.5l-5.8-3.3l0,0c-0.2-0.1-0.4-0.1-0.6,0l-4,1.8c-0.1-0.3,0-0.7,0.1-1l4.6-9.3
			c0.3-0.5,0.1-1.1-0.4-1.3l-5-2.9l0,0l-5.8-3.3c-0.5-0.3-1.1-0.1-1.4,0.3l-5.7,8.6c-0.2,0.3-0.5,0.5-0.8,0.6l-0.4-4.4
			c0-0.2-0.1-0.4-0.3-0.5l0,0l-5.8-3.3l0,0c-0.2-0.1-0.4-0.1-0.6,0.1L93.9,75c-0.5,0.3-0.8,0.8-0.9,1.4L92.2,85
			c-0.1,0.6-0.4,1.2-0.8,1.6c-1.5,1.4-3,2.9-4.3,4.6c-0.4,0.4-1,0.6-1.5,0.4l-5-1.7c-0.5-0.2-1.1,0-1.4,0.5l-5.7,9.9
			c-0.3,0.5-0.2,1.1,0.2,1.5l4,3.4c0.4,0.4,0.6,1,0.4,1.5c-0.7,2-1.3,4-1.8,6c-0.2,0.6-0.5,1.1-1,1.5l-7.1,5
			c-0.5,0.4-0.8,0.9-0.8,1.5v8.9c0,0.2,0.1,0.4,0.3,0.6l0,0l5.8,3.3l0,0c0.2,0.1,0.4,0.1,0.6,0l4-1.8c0.1,0.3,0,0.7-0.1,1l-4.6,9.2
			c-0.3,0.5-0.1,1.1,0.4,1.4l7,4l0,0l3.8,2.2c0.5,0.3,1.1,0.2,1.4-0.3c0,0,0,0,0,0l5.7-8.6c0.2-0.3,0.5-0.5,0.8-0.6l0.4,4.4
			c0,0.2,0.1,0.4,0.3,0.5l0,0l5.8,3.3l0,0c0.2,0.1,0.4,0.1,0.6-0.1l7.8-4.5c0.5-0.3,0.8-0.9,0.9-1.4l0.8-8.6
			c0.1-0.6,0.4-1.2,0.8-1.6c1.5-1.4,3-2.9,4.3-4.6c0.4-0.4,1-0.6,1.5-0.4l5,1.7c0.5,0.2,1.1-0.1,1.4-0.5l5.7-9.9
			c0.3-0.5,0.2-1.1-0.2-1.5l-4-3.4c-0.4-0.4-0.6-1-0.4-1.5c0.7-2,1.3-4,1.8-6c0.2-0.6,0.5-1.1,1-1.5l7.1-5c0.5-0.4,0.8-0.9,0.8-1.5
			v-8.9C133.9,88.9,133.8,88.6,133.6,88.5z M90.5,118.6c0-8.3,5.9-18.5,13.1-22.7c2.8-1.6,5.4-2.1,7.6-1.6c1.1,1.5,1.7,3.9,1.7,6.9
			c0,8.3-5.9,18.5-13.1,22.7c-2.8,1.6-5.2,2.2-7.1,1.7C91.2,123.7,90.4,121.1,90.5,118.6z"/>
		<path class="st13" d="M82.3,131c-0.1-0.4-0.6-0.7-1-0.6c-0.1,0-0.1,0-0.1,0.1l-2.9,1.3c0.1,0.3,0,0.7-0.1,1l-4.6,9.2
			c-0.2,0.5-0.1,1.1,0.4,1.4l7,4l-1.2-0.7c-0.5-0.3-0.7-0.9-0.4-1.3l4.6-9.3c0.2-0.5,0.2-1.2-0.1-1.7
			C83.2,133.3,82.6,132.2,82.3,131z M99,148.3c-0.1-0.1-0.2-0.3-0.2-0.5l-0.8-7.5c0-0.4-0.4-0.8-0.9-0.8c0,0-0.1,0-0.1,0
			c-1.2,0.3-2.5,0.4-3.7,0.4c-0.3,0-0.5,0.1-0.7,0.2l0.4,4.4c0,0.2,0.1,0.4,0.3,0.5l0,0L99,148.3z"/>
		<path class="st13" d="M116.7,103.5c0,8.3-5.9,18.5-13.1,22.7c-4.6,2.6-8.6,2.3-10.9-0.5c1.9,0.4,4.3-0.1,7.1-1.7
			c7.2-4.2,13.1-14.3,13.1-22.7c0-3-0.6-5.4-1.7-6.9C114.5,95.2,116.7,98.4,116.7,103.5z"/>
		<path class="st20" d="M116.7,69.2c-0.5-0.3-1.1-0.1-1.4,0.3l-5.7,8.6c-0.1,0.1-0.2,0.3-0.4,0.4l5.8,3.3c0.2-0.1,0.3-0.2,0.4-0.4
			l5.7-8.6c0.3-0.4,0.8-0.6,1.2-0.4L116.7,69.2z M127.8,85.2L127.8,85.2c-0.2-0.1-0.4-0.1-0.6,0l-4,1.8c0,0.2,0.1,0.5,0.2,0.7
			c0.6,1,1.1,2.1,1.5,3.2l0.1,0.2c0,0.1,0.1,0.3,0.2,0.4l0.1,0.1c0.1,0.1,0.1,0.1,0.2,0.1c0.1,0,0.3,0,0.4,0c0.1,0,0.1,0,0.2-0.1
			l6.9-3.1c0.1,0,0.1,0,0.2-0.1c0.1,0,0.2,0,0.2,0c0.1,0,0.1,0,0.2,0.1l0,0L127.8,85.2z M102.3,70.4c-0.2-0.1-0.4-0.1-0.6,0.1
			L93.9,75c-0.3,0.2-0.6,0.5-0.8,0.9l5.8,3.3c0.2-0.4,0.4-0.7,0.8-0.9l7.8-4.5c0.2-0.1,0.4-0.2,0.6-0.1L102.3,70.4z M75.9,113.6
			c-0.1,0.2-0.3,0.4-0.5,0.6l-7.1,5c-0.2,0.2-0.3,0.3-0.5,0.5l5.8,3.3c0.1-0.2,0.3-0.4,0.5-0.5l7.1-5c0.2-0.2,0.4-0.4,0.6-0.6
			L75.9,113.6z M80.2,89.8c-0.4,0-0.8,0.2-1,0.6l-5.7,9.9c-0.1,0.2-0.2,0.5-0.1,0.7l5.8,3.3c0-0.3,0-0.5,0.1-0.7l5.7-9.9
			c0.2-0.3,0.5-0.5,0.9-0.6L80.2,89.8z"/>
		<path class="st1" d="M116.7,69.2c-0.5-0.3-1.1-0.1-1.4,0.3l-5.7,8.6c-0.1,0.1-0.2,0.3-0.4,0.4l5.8,3.3c0.2-0.1,0.3-0.2,0.4-0.4
			l5.7-8.6c0.3-0.4,0.8-0.6,1.2-0.4L116.7,69.2z M127.8,85.2L127.8,85.2c-0.2-0.1-0.4-0.1-0.6,0l-4,1.8c0,0.2,0.1,0.5,0.2,0.7
			c0.6,1,1.1,2.1,1.5,3.2l0.1,0.2c0,0.1,0.1,0.3,0.2,0.4l0.1,0.1c0.1,0.1,0.1,0.1,0.2,0.1c0.1,0,0.3,0,0.4,0c0.1,0,0.1,0,0.2-0.1
			l6.9-3.1c0.1,0,0.1,0,0.2-0.1c0.1,0,0.2,0,0.2,0c0.1,0,0.1,0,0.2,0.1l0,0L127.8,85.2z M102.3,70.4c-0.2-0.1-0.4-0.1-0.6,0.1
			L93.9,75c-0.3,0.2-0.6,0.5-0.8,0.9l5.8,3.3c0.2-0.4,0.4-0.7,0.8-0.9l7.8-4.5c0.2-0.1,0.4-0.2,0.6-0.1L102.3,70.4z M75.9,113.6
			c-0.1,0.2-0.3,0.4-0.5,0.6l-7.1,5c-0.2,0.2-0.3,0.3-0.5,0.5l5.8,3.3c0.1-0.2,0.3-0.4,0.5-0.5l7.1-5c0.2-0.2,0.4-0.4,0.6-0.6
			L75.9,113.6z M80.2,89.8c-0.4,0-0.8,0.2-1,0.6l-5.7,9.9c-0.1,0.2-0.2,0.5-0.1,0.7l5.8,3.3c0-0.3,0-0.5,0.1-0.7l5.7-9.9
			c0.2-0.3,0.5-0.5,0.9-0.6L80.2,89.8z"/>
		<path class="st3" d="M133.9,98v-8.9c0.1-0.3-0.2-0.6-0.5-0.7c-0.1,0-0.3,0-0.4,0.1l-6.9,3.1c-0.4,0.2-0.9,0-1.1-0.4
			c0,0,0-0.1,0-0.1c-0.4-1.2-0.9-2.3-1.5-3.4c-0.3-0.5-0.3-1.1-0.1-1.7l4.6-9.3c0.3-0.5,0.1-1.1-0.4-1.3l-5-2.9
			c-0.5-0.3-1.1-0.1-1.4,0.3l-5.7,8.6c-0.4,0.5-0.9,0.7-1.5,0.7c-1.3,0-2.5,0.1-3.7,0.4c-0.4,0.1-0.9-0.2-1-0.6c0,0,0-0.1,0-0.1
			l-0.8-7.5c0-0.3-0.2-0.6-0.5-0.6c-0.1,0-0.3,0-0.4,0.1l-7.8,4.5c-0.5,0.3-0.8,0.9-0.9,1.4l-0.8,8.6C98,89,97.7,89.6,97.2,90
			c-1.5,1.4-2.9,2.9-4.2,4.6c-0.4,0.4-1,0.6-1.5,0.4l-5-1.7c-0.5-0.2-1.1,0.1-1.4,0.5l-5.7,9.9c-0.3,0.5-0.2,1.1,0.2,1.5l4,3.4
			c0.4,0.4,0.6,1,0.4,1.5c-0.7,2-1.3,4-1.8,6c-0.2,0.6-0.5,1.1-1,1.5l-7.1,5c-0.5,0.4-0.8,0.9-0.8,1.5v8.9c0,0.3,0.2,0.6,0.5,0.7
			c0.1,0,0.3,0,0.4-0.1l6.9-3.1c0.4-0.2,0.9,0,1.1,0.4c0,0.1,0,0.1,0.1,0.2c0.4,1.2,0.9,2.3,1.5,3.4c0.3,0.5,0.3,1.1,0.1,1.7
			l-4.6,9.3c-0.3,0.5-0.1,1.1,0.4,1.3l5,2.9c0.5,0.3,1.1,0.2,1.4-0.3c0,0,0,0,0,0l5.7-8.6c0.4-0.5,0.9-0.7,1.5-0.7
			c1.3,0,2.5-0.1,3.7-0.4c0.4-0.1,0.9,0.2,1,0.6c0,0,0,0.1,0,0.1l0.8,7.5c0,0.3,0.2,0.6,0.5,0.6c0.1,0,0.3,0,0.4-0.1l7.8-4.5
			c0.5-0.3,0.8-0.9,0.9-1.4l0.8-8.6c0.1-0.6,0.4-1.2,0.8-1.6c1.5-1.4,3-2.9,4.3-4.6c0.4-0.4,1-0.6,1.5-0.4l5,1.7
			c0.5,0.2,1.1-0.1,1.4-0.5l5.7-9.9c0.3-0.5,0.2-1.1-0.2-1.5l-4-3.4c-0.4-0.4-0.6-1-0.4-1.5c0.7-2,1.3-4,1.8-6
			c0.2-0.6,0.5-1.1,1-1.5l7.1-5C133.6,99.2,133.9,98.6,133.9,98z M103.6,126.1c-7.2,4.2-13.1,0.8-13.1-7.6s5.9-18.4,13.1-22.6
			s13.1-0.8,13.1,7.6S110.8,122,103.6,126.1L103.6,126.1z"/>
		<g class="st27">
			<path class="st2" d="M122,73.1c0.1,0,0.1,0,0.2,0l5,2.9c0.2,0.1,0.2,0.3,0.1,0.5l-4.6,9.3c-0.3,0.7-0.3,1.6,0.1,2.3
				c0.6,1,1.1,2.1,1.5,3.3c0.2,0.6,0.8,1.1,1.4,1.1c0.2,0,0.4,0,0.6-0.1l6.8-3.1V98c0,0.4-0.2,0.7-0.5,1l-7.1,5
				c-0.6,0.5-1.1,1.1-1.3,1.9c-0.5,2-1,4-1.8,5.9c-0.3,0.8-0.1,1.7,0.6,2.3l4,3.4c0.2,0.2,0.2,0.4,0.1,0.6l-5.7,9.8
				c-0.1,0.2-0.3,0.2-0.5,0.2H121l-5-1.7c-0.2-0.1-0.4-0.1-0.6-0.1c-0.6,0-1.2,0.3-1.6,0.7c-1.3,1.6-2.7,3.1-4.2,4.5
				c-0.5,0.5-0.9,1.2-1,2l-0.8,8.6c-0.1,0.4-0.3,0.7-0.6,0.9l-7.7,4.4l-0.8-7.5c-0.1-0.8-0.7-1.4-1.5-1.3c-0.1,0-0.2,0-0.3,0
				c-1.1,0.2-2.1,0.4-3.2,0.4h-0.4c-0.8,0-1.5,0.4-2,1l-5.7,8.6c-0.1,0.1-0.2,0.2-0.3,0.2c-0.1,0-0.1,0.1-0.2,0l-5-2.9
				c-0.2-0.1-0.2-0.3-0.2-0.5l4.6-9.3c0.3-0.7,0.3-1.6-0.1-2.3c-0.6-1-1.1-2.1-1.5-3.3c-0.2-0.6-0.8-1.1-1.4-1.1
				c-0.2,0-0.4,0-0.6,0.1L74,133v-8.9c0-0.4,0.2-0.7,0.5-1l7.1-5c0.6-0.5,1.1-1.1,1.2-1.9c0.5-2,1-4,1.8-5.9c0.3-0.8,0-1.7-0.6-2.3
				l-4-3.4c-0.2-0.2-0.2-0.4-0.1-0.6l5.7-9.9c0.1-0.2,0.3-0.3,0.5-0.2h0.1l5,1.7c0.2,0.1,0.4,0.1,0.6,0.1c0.6,0,1.2-0.2,1.6-0.6
				c1.3-1.6,2.7-3.1,4.2-4.5c0.5-0.5,0.9-1.2,1-2l0.8-8.6c0.1-0.4,0.3-0.7,0.6-0.9l7.7-4.4l0.8,7.5c0.1,0.7,0.7,1.3,1.5,1.3
				c0.1,0,0.2,0,0.3,0c1.1-0.2,2.1-0.4,3.2-0.4h0.4c0.8,0,1.5-0.4,2-1l5.7-8.6C121.8,73.2,121.9,73.1,122,73.1L122,73.1 M97.8,128.6
				c2.2-0.1,4.3-0.7,6.2-1.9c7.4-4.3,13.4-14.7,13.4-23.2c0.1-2.6-0.6-5.2-2.2-7.3c-1.4-1.8-3.5-2.8-5.7-2.7
				c-2.2,0.1-4.3,0.7-6.2,1.9c-7.4,4.3-13.4,14.7-13.4,23.2C89.9,124.7,93,128.6,97.8,128.6 M122,72.4c-0.3,0-0.7,0.2-0.9,0.5
				l-5.7,8.6c-0.4,0.5-0.9,0.7-1.5,0.7h-0.4c-1.1,0-2.3,0.1-3.4,0.4c-0.1,0-0.1,0-0.2,0c-0.4,0-0.8-0.3-0.8-0.8l-0.8-7.5
				c0-0.4-0.3-0.6-0.6-0.6c-0.1,0-0.3,0-0.4,0.1l-7.8,4.5c-0.5,0.3-0.8,0.9-0.9,1.4L98,88.4c-0.1,0.6-0.3,1.2-0.8,1.6
				c-1.5,1.4-2.9,2.9-4.2,4.6c-0.3,0.3-0.7,0.5-1.1,0.5c-0.1,0-0.3,0-0.4-0.1l-5-1.7c-0.1,0-0.2-0.1-0.3-0.1c-0.4,0-0.8,0.2-1,0.6
				l-5.7,9.9c-0.3,0.5-0.2,1.1,0.2,1.5l4,3.4c0.4,0.4,0.6,1,0.4,1.5c-0.7,2-1.3,4-1.8,6c-0.2,0.6-0.5,1.1-1,1.5l-7.1,5
				c-0.5,0.4-0.8,0.9-0.8,1.5v8.9c0,0.4,0.2,0.6,0.6,0.6c0.1,0,0.2,0,0.3-0.1l6.9-3.1c0.1-0.1,0.2-0.1,0.4-0.1
				c0.4,0,0.7,0.3,0.8,0.6c0.4,1.2,0.9,2.3,1.5,3.4c0.3,0.5,0.3,1.1,0.1,1.7l-4.6,9.3c-0.3,0.5-0.1,1.1,0.4,1.3l5,2.9
				c0.5,0.3,1.1,0.2,1.4-0.3c0,0,0,0,0,0l5.7-8.6c0.4-0.5,0.9-0.7,1.5-0.7h0.4c1.1,0,2.3-0.1,3.4-0.4c0.1,0,0.1,0,0.2,0
				c0.4,0,0.8,0.3,0.8,0.8l0.8,7.5c0,0.4,0.3,0.6,0.6,0.6c0.1,0,0.3,0,0.4-0.1l7.8-4.5c0.5-0.3,0.8-0.9,0.9-1.4l0.8-8.6
				c0.1-0.6,0.4-1.2,0.8-1.6c1.5-1.4,3-2.9,4.3-4.6c0.3-0.3,0.7-0.5,1.1-0.5c0.1,0,0.3,0,0.4,0.1l5,1.7c0.1,0,0.2,0,0.3,0
				c0.4,0,0.8-0.2,1-0.6l5.7-9.9c0.3-0.5,0.2-1.1-0.2-1.5l-4-3.4c-0.4-0.4-0.6-1-0.4-1.5c0.7-2,1.3-4,1.8-6c0.2-0.6,0.5-1.1,1-1.5
				l7.1-5c0.5-0.4,0.8-0.9,0.8-1.5v-8.9c0-0.4-0.2-0.7-0.6-0.7c-0.1,0-0.2,0-0.3,0.1l-6.9,3.1c-0.1,0-0.2,0.1-0.4,0.1
				c-0.4,0-0.7-0.3-0.8-0.6c-0.4-1.2-0.9-2.3-1.5-3.4c-0.3-0.5-0.3-1.1-0.1-1.7l4.6-9.3c0.3-0.5,0.1-1.1-0.4-1.3l-5-2.9
				C122.4,72.4,122.3,72.4,122,72.4L122,72.4z M97.8,128c-4.3,0-7.2-3.4-7.2-9.3c0-8.3,5.9-18.5,13.1-22.7c1.8-1.1,3.8-1.7,5.8-1.8
				c4.3,0,7.2,3.4,7.2,9.3c0,8.3-5.9,18.5-13.1,22.7C101.9,127.3,99.9,127.9,97.8,128z"/>
		</g>
	</g>
	<g id="freepik--gear--inject-19">
		<path class="st20" d="M179.5,127c0.1-0.7,0.4-1.4,0.9-1.9l3.8-3.5c0.5-0.5,0.7-1.2,0.6-1.9l-0.7-4.2c0-0.2-0.2-0.5-0.4-0.6l0,0
			l-4.6-2.6l0,0c-0.3-0.1-0.6-0.1-0.8,0.1l-1.6,1.1l1.6-4.3c0.1-0.4-0.1-0.9-0.5-1.1l0,0l-4.6-2.6l0,0c-0.1-0.1-0.2-0.1-0.3-0.1
			l-2.9-0.7c-0.7-0.1-1.3,0.2-1.6,0.8l-2.7,5.2c-0.3,0.4-0.6,0.8-1.1,1l-0.1-0.4c-0.1-0.2-0.2-0.4-0.4-0.5l0,0l-4.6-2.6l0,0
			c-0.3-0.2-0.6-0.1-0.9,0.1l-4.3,3.4c-0.5,0.5-0.8,1.1-0.8,1.8l0.3,4.1c0,0.7-0.2,1.4-0.7,2c-0.7,0.8-1.4,1.8-2,2.7
			c-0.4,0.6-1.1,0.9-1.8,0.9l-2.8-0.1c-0.7,0-1.3,0.4-1.6,1l-2.6,5.9c-0.2,0.5,0,1.1,0.4,1.4l0,0l3.1,1.8c0.1,0.3,0.1,0.5,0.1,0.8
			c-0.2,0.9-0.4,1.9-0.5,2.8c-0.1,0.7-0.4,1.4-0.9,1.9l-3.8,3.5c-0.5,0.5-0.7,1.2-0.6,1.9l0.7,4.2c0,0.2,0.2,0.4,0.4,0.6l0,0
			l4.6,2.6l0,0c0.3,0.1,0.6,0.1,0.8-0.1l1.6-1.1l-1.6,4.3c-0.2,0.4,0,0.9,0.4,1.2l0,0l4.6,2.6l0,0c0.1,0.1,0.2,0.1,0.3,0.1l2.9,0.6
			c0.7,0.1,1.3-0.2,1.6-0.8l2.7-5.2c0.3-0.4,0.6-0.8,1.1-1l0.1,0.4c0.1,0.2,0.2,0.4,0.4,0.5l0,0l4.5,2.6l0,0h0.1l0,0
			c0.3,0.1,0.6,0.1,0.8-0.1l4.3-3.4c0.5-0.5,0.8-1.1,0.8-1.8l-0.3-4.1c0-0.7,0.2-1.4,0.7-2c0.7-0.9,1.4-1.8,2-2.7
			c0.4-0.6,1.1-0.9,1.8-0.9l2.8,0.1c0.7,0,1.3-0.4,1.6-1l2.6-5.9c0.2-0.6,0-1.2-0.6-1.5c0,0,0,0,0,0l-2.2-1
			c-0.6-0.3-0.9-0.9-0.8-1.6C179.3,128.9,179.4,128,179.5,127z M156.4,139.8c-0.9-4.9,2.3-11.9,7-15.6c1.4-1.2,3.1-2,4.9-2.2
			c0.3,0.6,0.4,1.2,0.5,1.8c0.9,4.9-2.3,11.9-7,15.6c-1.4,1.2-3.1,2-4.9,2.2C156.7,141,156.5,140.4,156.4,139.8L156.4,139.8z"/>
		<path class="st4" d="M179.5,127c0.1-0.7,0.4-1.4,0.9-1.9l3.8-3.5c0.5-0.5,0.7-1.2,0.6-1.9l-0.7-4.2c0-0.2-0.2-0.5-0.4-0.6l0,0
			l-4.6-2.6l0,0c-0.3-0.1-0.6-0.1-0.8,0.1l-1.6,1.1l1.6-4.3c0.1-0.4-0.1-0.9-0.5-1.1l0,0l-4.6-2.6l0,0c-0.1-0.1-0.2-0.1-0.3-0.1
			l-2.9-0.7c-0.7-0.1-1.3,0.2-1.6,0.8l-2.7,5.2c-0.3,0.4-0.6,0.8-1.1,1l-0.1-0.4c-0.1-0.2-0.2-0.4-0.4-0.5l0,0l-4.6-2.6l0,0
			c-0.3-0.2-0.6-0.1-0.9,0.1l-4.3,3.4c-0.5,0.5-0.8,1.1-0.8,1.8l0.3,4.1c0,0.7-0.2,1.4-0.7,2c-0.7,0.8-1.4,1.8-2,2.7
			c-0.4,0.6-1.1,0.9-1.8,0.9l-2.8-0.1c-0.7,0-1.3,0.4-1.6,1l-2.6,5.9c-0.2,0.5,0,1.1,0.4,1.4l0,0l3.1,1.8c0.1,0.3,0.1,0.5,0.1,0.8
			c-0.2,0.9-0.4,1.9-0.5,2.8c-0.1,0.7-0.4,1.4-0.9,1.9l-3.8,3.5c-0.5,0.5-0.7,1.2-0.6,1.9l0.7,4.2c0,0.2,0.2,0.4,0.4,0.6l0,0
			l4.6,2.6l0,0c0.3,0.1,0.6,0.1,0.8-0.1l1.6-1.1l-1.6,4.3c-0.2,0.4,0,0.9,0.4,1.2l0,0l4.6,2.6l0,0c0.1,0.1,0.2,0.1,0.3,0.1l2.9,0.6
			c0.7,0.1,1.3-0.2,1.6-0.8l2.7-5.2c0.3-0.4,0.6-0.8,1.1-1l0.1,0.4c0.1,0.2,0.2,0.4,0.4,0.5l0,0l4.5,2.6l0,0h0.1l0,0
			c0.3,0.1,0.6,0.1,0.8-0.1l4.3-3.4c0.5-0.5,0.8-1.1,0.8-1.8l-0.3-4.1c0-0.7,0.2-1.4,0.7-2c0.7-0.9,1.4-1.8,2-2.7
			c0.4-0.6,1.1-0.9,1.8-0.9l2.8,0.1c0.7,0,1.3-0.4,1.6-1l2.6-5.9c0.2-0.6,0-1.2-0.6-1.5c0,0,0,0,0,0l-2.2-1
			c-0.6-0.3-0.9-0.9-0.8-1.6C179.3,128.9,179.4,128,179.5,127z M156.4,139.8c-0.9-4.9,2.3-11.9,7-15.6c1.4-1.2,3.1-2,4.9-2.2
			c0.3,0.6,0.4,1.2,0.5,1.8c0.9,4.9-2.3,11.9-7,15.6c-1.4,1.2-3.1,2-4.9,2.2C156.7,141,156.5,140.4,156.4,139.8L156.4,139.8z"/>
		<path class="st13" d="M152.1,149c-0.3-0.5-1-0.7-1.5-0.4c0,0,0,0,0,0l-2.2,1.4l-1.6,4.3c-0.2,0.4,0,0.9,0.4,1.2l4.5,2.6
			c-0.4-0.3-0.5-0.7-0.3-1.1l2-5.3c0.2-0.6,0-1.3-0.4-1.8C152.6,149.6,152.3,149.3,152.1,149z M165.4,155.6
			c-0.2-0.1-0.3-0.3-0.4-0.5l-1-3.2c-0.2-0.5-0.7-0.8-1.2-0.7c0,0-0.1,0-0.1,0c-0.6,0.2-1.2,0.4-1.8,0.6c-0.2,0.1-0.4,0.1-0.6,0.2
			l0.1,0.4c0.1,0.2,0.2,0.4,0.4,0.5l0,0L165.4,155.6z"/>
		<path class="st13" d="M166.4,142c-4.1,3.2-8,2.9-9.5-0.4c1.8-0.2,3.5-1,4.9-2.2c4.7-3.7,7.8-10.7,7-15.6c-0.1-0.6-0.3-1.2-0.6-1.8
			c2.6-0.2,4.6,1.3,5.1,4.4C174.3,131.3,171.1,138.3,166.4,142z"/>
		<path class="st20" d="M150.4,122.8c-0.2,0.1-0.5,0.2-0.8,0.2l-2.8-0.1c-0.4,0-0.8,0.1-1.1,0.4l4.6,2.6c0.3-0.3,0.7-0.4,1.2-0.4
			l2.8,0.1c0.3,0,0.5,0,0.8-0.2L150.4,122.8z M159.8,107.9c-0.3-0.2-0.6-0.1-0.9,0.1l-4.4,3.4c-0.3,0.3-0.6,0.7-0.7,1.1l4.6,2.6
			c0.1-0.4,0.4-0.8,0.7-1.1l4.3-3.4c0.2-0.2,0.6-0.3,0.9-0.1l0,0L159.8,107.9z M144.7,138.5l-3.8,3.5c-0.3,0.3-0.5,0.7-0.6,1.1
			l4.6,2.6c0.1-0.4,0.3-0.8,0.6-1.1l3.8-3.5L144.7,138.5z M173.5,105.3c-0.1-0.1-0.2-0.1-0.3-0.1l-2.9-0.7c-0.7-0.1-1.3,0.2-1.6,0.8
			l-2.7,5.2c-0.2,0.3-0.4,0.5-0.6,0.7l4.6,2.6c0.2-0.2,0.5-0.4,0.6-0.7l2.7-5.2c0.3-0.6,1-0.9,1.6-0.8l2.9,0.7
			c0.1,0,0.2,0.1,0.3,0.1L173.5,105.3z M179.3,112.3L179.3,112.3c-0.3-0.1-0.6-0.1-0.8,0.1l-1.6,1.1l-0.4,1c-0.2,0.7,0,1.3,0.5,1.8
			c0.3,0.3,0.5,0.6,0.7,0.9l0.2,0.2l0.2,0.1c0.1,0.1,0.3,0.1,0.4,0.2c0.2,0,0.3,0,0.5,0c0.1,0,0.2-0.1,0.3-0.1l3.8-2.6
			c0.1-0.1,0.2-0.1,0.3-0.1c0.1,0,0.2,0,0.3,0h0.2L179.3,112.3z"/>
		<path class="st1" d="M150.4,122.8c-0.2,0.1-0.5,0.2-0.8,0.2l-2.8-0.1c-0.4,0-0.8,0.1-1.1,0.4l4.6,2.6c0.3-0.3,0.7-0.4,1.2-0.4
			l2.8,0.1c0.3,0,0.5,0,0.8-0.2L150.4,122.8z M159.8,107.9c-0.3-0.2-0.6-0.1-0.9,0.1l-4.4,3.4c-0.3,0.3-0.6,0.7-0.7,1.1l4.6,2.6
			c0.1-0.4,0.4-0.8,0.7-1.1l4.3-3.4c0.2-0.2,0.6-0.3,0.9-0.1l0,0L159.8,107.9z M144.7,138.5l-3.8,3.5c-0.3,0.3-0.5,0.7-0.6,1.1
			l4.6,2.6c0.1-0.4,0.3-0.8,0.6-1.1l3.8-3.5L144.7,138.5z M173.5,105.3c-0.1-0.1-0.2-0.1-0.3-0.1l-2.9-0.7c-0.7-0.1-1.3,0.2-1.6,0.8
			l-2.7,5.2c-0.2,0.3-0.4,0.5-0.6,0.7l4.6,2.6c0.2-0.2,0.5-0.4,0.6-0.7l2.7-5.2c0.3-0.6,1-0.9,1.6-0.8l2.9,0.7
			c0.1,0,0.2,0.1,0.3,0.1L173.5,105.3z M179.3,112.3L179.3,112.3c-0.3-0.1-0.6-0.1-0.8,0.1l-1.6,1.1l-0.4,1c-0.2,0.7,0,1.3,0.5,1.8
			c0.3,0.3,0.5,0.6,0.7,0.9l0.2,0.2l0.2,0.1c0.1,0.1,0.3,0.1,0.4,0.2c0.2,0,0.3,0,0.5,0c0.1,0,0.2-0.1,0.3-0.1l3.8-2.6
			c0.1-0.1,0.2-0.1,0.3-0.1c0.1,0,0.2,0,0.3,0h0.2L179.3,112.3z"/>
		<path class="st3" d="M185,119.7l-0.7-4.2c0-0.4-0.3-0.7-0.7-0.7c-0.2,0-0.3,0.1-0.4,0.2l-3.8,2.5c-0.5,0.3-1.2,0.2-1.5-0.3
			c-0.2-0.3-0.5-0.6-0.8-0.9c-0.5-0.5-0.6-1.2-0.4-1.8l2-5.3c0.2-0.5-0.1-1.1-0.6-1.3c0,0-0.1,0-0.1,0l-2.9-0.7
			c-0.7-0.1-1.3,0.2-1.6,0.8l-2.7,5.2c-0.4,0.6-1,1-1.6,1.2c-0.6,0.2-1.2,0.4-1.8,0.6c-0.5,0.2-1.1,0-1.3-0.5c0,0,0-0.1,0-0.1
			l-1-3.2c-0.1-0.4-0.5-0.7-0.8-0.6c-0.1,0-0.3,0.1-0.4,0.2l-4.3,3.4c-0.5,0.5-0.8,1.1-0.8,1.8l0.3,4.1c0,0.7-0.2,1.4-0.7,2
			c-0.7,0.9-1.4,1.7-2,2.7c-0.4,0.6-1.1,0.9-1.8,0.9l-2.8-0.1c-0.7,0-1.3,0.4-1.6,1l-2.6,5.9c-0.3,0.6,0,1.2,0.5,1.5c0,0,0,0,0,0
			l2.2,1c0.6,0.3,0.9,0.9,0.8,1.6c-0.2,0.9-0.4,1.9-0.5,2.8c-0.1,0.7-0.4,1.4-0.9,1.9l-3.8,3.5c-0.5,0.5-0.7,1.2-0.6,1.9l0.7,4.2
			c0,0.4,0.3,0.7,0.7,0.7c0.2,0,0.3-0.1,0.4-0.2l3.8-2.5c0.5-0.3,1.2-0.2,1.5,0.3c0,0,0,0,0,0c0.2,0.3,0.5,0.6,0.7,0.9
			c0.5,0.5,0.6,1.2,0.4,1.8l-2,5.3c-0.2,0.5,0.1,1.1,0.6,1.3c0,0,0.1,0,0.1,0l2.9,0.6c0.7,0.1,1.3-0.2,1.6-0.8l2.7-5.2
			c0.4-0.6,1-1,1.6-1.2c0.6-0.2,1.2-0.4,1.8-0.6c0.5-0.2,1.1,0,1.3,0.5c0,0,0,0.1,0,0.1l1,3.2c0.1,0.4,0.4,0.7,0.8,0.6
			c0.1,0,0.3-0.1,0.4-0.2l4.3-3.4c0.5-0.5,0.8-1.1,0.8-1.8l-0.3-4.1c0-0.7,0.2-1.4,0.7-2c0.7-0.9,1.4-1.8,2-2.7
			c0.4-0.6,1.1-0.9,1.8-0.9l2.8,0.1c0.7,0,1.3-0.4,1.6-1l2.6-5.9c0.2-0.6,0-1.2-0.6-1.5c0,0,0,0,0,0l-2.2-1
			c-0.6-0.3-0.9-0.9-0.8-1.6c0.2-1,0.4-1.9,0.5-2.8c0.1-0.7,0.4-1.4,0.9-1.9l3.8-3.5C184.8,121.1,185.1,120.4,185,119.7z M166.4,142
			c-4.7,3.7-9.2,2.7-10.1-2.2s2.3-11.9,7-15.6s9.2-2.7,10,2.2S171.1,138.3,166.4,142z"/>
		<g class="st27">
			<path class="st2" d="M174.6,107.8h0.1l2.9,0.7c0.1,0,0.2,0.1,0.2,0.1c0,0.1,0,0.2,0,0.3l-2,5.3c-0.3,0.9,0,1.9,0.6,2.6
				c0.2,0.3,0.5,0.5,0.7,0.8c0.3,0.5,0.9,0.8,1.5,0.8c0.4,0,0.7-0.1,1-0.3l3.8-2.5h0.1c0,0,0,0,0,0.1l0.7,4.2c0,0.5-0.1,0.9-0.4,1.3
				l-3.8,3.5c-0.6,0.6-1,1.4-1.2,2.3c-0.1,0.9-0.3,1.8-0.5,2.7c-0.2,1,0.3,1.9,1.2,2.4l2.2,1c0.2,0.1,0.3,0.3,0.2,0.5c0,0,0,0,0,0
				l-2.6,5.9c-0.2,0.3-0.5,0.6-0.9,0.6l0,0l-2.8-0.1h-0.1c-0.9,0-1.7,0.5-2.3,1.2c-0.6,0.9-1.3,1.8-2,2.6c-0.5,0.7-0.8,1.6-0.8,2.5
				l0.3,4.1c0,0.5-0.2,0.9-0.6,1.2l-4.3,3.4l-0.1,0.1c0,0,0-0.1-0.1-0.1l-1-3.2c-0.2-0.7-0.9-1.2-1.6-1.2c-0.2,0-0.5,0-0.7,0.1
				c-0.6,0.2-1.1,0.4-1.7,0.6c-0.9,0.2-1.6,0.8-2.1,1.6l-2.7,5.2c-0.2,0.3-0.4,0.4-0.8,0.4h-0.1l-2.9-0.6c-0.1,0-0.2-0.1-0.2-0.1
				c0-0.1,0-0.2,0-0.3l2-5.3c0.3-0.9,0.1-1.9-0.6-2.5c-0.3-0.3-0.5-0.5-0.7-0.8c-0.3-0.5-0.9-0.8-1.5-0.8c-0.4,0-0.7,0.1-1,0.3
				l-3.8,2.5h-0.1c0,0,0-0.1,0-0.1l-0.7-4.2c0-0.5,0.1-0.9,0.4-1.3l3.8-3.5c0.6-0.6,1-1.5,1.2-2.3c0.1-0.9,0.3-1.8,0.5-2.7
				c0.2-1-0.3-1.9-1.2-2.3l-2.3-1c-0.2-0.1-0.3-0.3-0.2-0.6c0,0,0,0,0,0l2.6-5.9c0.2-0.3,0.5-0.6,0.9-0.6l0,0l2.8,0.1h0.1
				c0.9,0,1.7-0.5,2.3-1.2c0.6-0.9,1.3-1.8,2-2.6c0.6-0.7,0.9-1.6,0.8-2.5l-0.4-4.1c0-0.5,0.2-0.9,0.6-1.2l4.3-3.4h0.1
				c0,0,0,0.1,0,0.1l1,3.2c0.2,0.7,0.9,1.2,1.6,1.2c0.2,0,0.5,0,0.7-0.1c0.6-0.2,1.1-0.5,1.7-0.6c0.9-0.2,1.6-0.8,2.1-1.6l2.7-5.2
				C174,108,174.2,107.8,174.6,107.8 M161,145c2.2-0.1,4.2-1,5.8-2.4c4.9-3.8,8.1-11.1,7.2-16.3c-0.5-3.2-2.5-5.1-5.3-5.1
				c-2.2,0.1-4.2,1-5.8,2.4c-4.9,3.8-8.1,11.1-7.2,16.3C156.2,143.1,158.2,145,161,145 M174.6,107.2c-0.6,0-1.1,0.3-1.4,0.8
				l-2.7,5.2c-0.4,0.6-1,1-1.6,1.2c-0.6,0.2-1.2,0.4-1.8,0.6c-0.1,0.1-0.3,0.1-0.4,0.1c-0.4,0-0.8-0.3-0.9-0.7l-1-3.2
				c-0.1-0.3-0.4-0.6-0.7-0.6c-0.2,0-0.4,0.1-0.5,0.2l-4.3,3.4c-0.5,0.5-0.8,1.1-0.8,1.8l0.3,4.1c0,0.7-0.2,1.4-0.7,2
				c-0.7,0.9-1.4,1.7-2,2.7c-0.4,0.5-1,0.9-1.7,0.9h-0.1l-2.8-0.1h-0.1c-0.7,0-1.2,0.4-1.5,1l-2.6,5.9c-0.3,0.6,0,1.2,0.5,1.5
				c0,0,0,0,0,0l2.2,1c0.6,0.3,0.9,0.9,0.8,1.6c-0.2,0.9-0.4,1.9-0.5,2.8c-0.1,0.7-0.4,1.4-0.9,1.9l-3.8,3.5
				c-0.5,0.5-0.7,1.2-0.6,1.9l0.7,4.2c0,0.4,0.3,0.6,0.6,0.7c0.2,0,0.3-0.1,0.5-0.2l3.8-2.5c0.2-0.1,0.4-0.2,0.6-0.2
				c0.4,0,0.8,0.2,1,0.5c0.2,0.3,0.5,0.6,0.7,0.9c0.5,0.5,0.6,1.2,0.4,1.8l-2,5.3c-0.2,0.5,0.1,1.1,0.6,1.3c0,0,0.1,0,0.1,0l2.9,0.6
				c0.1,0,0.2,0,0.3,0c0.6,0,1.1-0.3,1.4-0.8l2.7-5.2c0.4-0.6,1-1,1.6-1.2c0.6-0.2,1.2-0.4,1.8-0.6c0.1-0.1,0.3-0.1,0.4-0.1
				c0.4,0,0.8,0.3,0.9,0.7l1,3.2c0.1,0.3,0.4,0.6,0.7,0.6c0.2,0,0.4-0.1,0.5-0.2l4.3-3.4c0.5-0.5,0.8-1.1,0.8-1.8l-0.3-4.1
				c0-0.7,0.2-1.4,0.7-2c0.7-0.9,1.4-1.8,2-2.7c0.4-0.5,1-0.9,1.7-0.9h0.1l2.8,0.1h0.1c0.7,0,1.2-0.4,1.5-1l2.6-5.9
				c0.2-0.6,0-1.2-0.6-1.5c0,0,0,0,0,0l-2.2-1c-0.6-0.3-0.9-0.9-0.8-1.6c0.2-1,0.4-1.9,0.5-2.8c0.1-0.7,0.4-1.4,0.9-1.9l3.8-3.5
				c0.5-0.5,0.7-1.2,0.6-1.9l-0.7-4.2c0-0.4-0.3-0.6-0.7-0.7c-0.2,0-0.3,0.1-0.5,0.2l-3.8,2.5c-0.2,0.1-0.4,0.2-0.6,0.2
				c-0.4,0-0.8-0.2-1-0.5c-0.2-0.3-0.5-0.6-0.8-0.9c-0.5-0.5-0.6-1.2-0.4-1.8l2-5.3c0.2-0.5-0.1-1.1-0.6-1.3c0,0-0.1,0-0.1,0
				l-2.9-0.7C174.7,107.2,174.6,107.2,174.6,107.2L174.6,107.2z M161,144.3c-2.4,0-4.1-1.6-4.6-4.5c-0.9-4.9,2.3-11.9,7-15.6
				c1.5-1.3,3.4-2.1,5.4-2.2c2.4,0,4.1,1.5,4.6,4.5c0.9,4.9-2.3,11.9-7,15.6C164.9,143.4,163,144.2,161,144.3L161,144.3z"/>
		</g>
	</g>
</g>
<g id="freepik--speech-bubble-2--inject-19">
	<g id="freepik--speech-bubble--inject-19_00000163792276054281458490000004655294030223035797_">
		<g id="freepik--speech-bubble--inject-19">
			<path class="st4" d="M395.8,158.4l-2.8-5.4l2.3-6.6v-4l-7,4v4l3,5.2c0,0.1,0.1,0.1,0.2,0.2l0,0L395.8,158.4z"/>
			<path class="st23" d="M395.8,158.4l-2.8-5.4l2.3-6.6v-4l-7,4v4l3,5.2c0,0.1,0.1,0.1,0.2,0.2l0,0L395.8,158.4z"/>
			<path class="st4" d="M412.5,110.2c-0.1-1.5-0.9-2.8-2.1-3.6l-1.7-1c-1.3-0.7-2.9-0.7-4.2,0l-26.2,15.2c-1.2,0.8-2,2.2-2.1,3.6
				v28.8c0.1,1.5,0.9,2.8,2.1,3.6l1.7,1c1.3,0.7,2.9,0.7,4.2,0l8.4-4.9l3,5.2c0.1,0.2,0.4,0.3,0.6,0.1c0.1-0.1,0.2-0.1,0.2-0.2
				l3.2-9.2l10.8-6.2c1.2-0.8,2-2.2,2.1-3.6L412.5,110.2z"/>
			<path class="st23" d="M376.1,153.3c0.1,1.5,0.9,2.8,2.1,3.6l1.7,1c1.2,0.6,2.6,0.7,3.9,0.2c-1,0.4-1.8-0.2-1.8-1.4v-28.9
				c0-0.7,0.2-1.4,0.6-2.1l-5.9-3.4c-0.4,0.6-0.6,1.3-0.6,2.1V153.3z"/>
			<path class="st9" d="M412.4,109.6c-0.2-0.9-1.1-1.2-2-0.6l-26.2,15.2c-0.6,0.4-1.1,0.9-1.5,1.6l-5.9-3.4c0.3-0.6,0.9-1.2,1.5-1.6
				l26.2-15.2c1.3-0.7,2.9-0.7,4.2,0l1.7,1C411.5,107.3,412.2,108.4,412.4,109.6z"/>
		</g>
		<path id="freepik--Check--inject-19" class="st2" d="M405.1,118.6c-1.2-0.5-2.5,0-3,1.2c0,0,0,0,0,0l-8.6,20.6l-2.1-2
			c-0.9-0.9-2.4-0.9-3.2,0.1c-0.9,0.9-0.9,2.4,0,3.2l4.5,4.3c0.4,0.4,1,0.6,1.6,0.6c0.9,0,1.8-0.5,2.1-1.4l9.9-23.6
			C406.8,120.5,406.3,119.1,405.1,118.6z"/>
	</g>
</g>
<g id="freepik--speech-bubble-1--inject-19">
	<g id="freepik--speech-bubble--inject-19_00000157285677999137849650000005000067674783347374_">
		<g id="freepik--Bubble--inject-19">
			<path class="st1" d="M118.3,169.2c-3-1.7-7.2-1.4-11.8,1.2c-9.2,5.3-16.7,18.3-16.7,29c0,5.3,1.9,9.1,4.9,10.8l5.7,3.3
				c3,1.7,7.2,1.5,11.8-1.2c9.2-5.3,16.8-18.3,16.8-29c0-5.3-1.9-9.1-4.9-10.8L118.3,169.2z"/>
			<path class="st4" d="M102.9,213.7c-1,1.7-2.5,3.1-4.2,4.1c-1.9,1.1-4.1,1.7-6.3,1.6c-0.1,0-0.2,0-0.3-0.1l-5.7-3.3
				c-0.3-0.2-0.4-0.5-0.2-0.8c0.1-0.1,0.1-0.2,0.2-0.2c2.9-1.6,4.9-4.5,5.2-7.9L102.9,213.7z"/>
			<path class="st3" d="M119.7,171.4c-2.6,0.1-5.2,0.9-7.5,2.3C103,179,95.5,192,95.5,202.6c-0.1,2.7,0.6,5.5,1.9,7.9
				c-0.3,3.3-2.3,6.3-5.2,7.9c-0.3,0.2-0.4,0.5-0.2,0.8c0.1,0.2,0.3,0.3,0.5,0.3h0.1c2.2,0.1,4.3-0.5,6.2-1.6
				c1.5-0.9,2.8-2.1,3.8-3.5c0.7,0.2,1.5,0.3,2.2,0.3c2.6-0.1,5.2-0.9,7.4-2.3c9.2-5.3,16.8-18.3,16.8-28.9
				C129,175.8,125.2,171.4,119.7,171.4z"/>
		</g>
		<path class="st2" d="M102.3,198.1c0-0.1,0-0.2,0.1-0.2c0,0,1.4-2.9,2.2-4.5c0.7-1.3,1.3-2.4,2-2.2c0.3,0.1,0.4,0.5,0.5,0.9
			c0.1,0.5,0.3,0.9,0.7,1.2c0.8,0.5,1.9-0.9,2.5-2s1.2-2.9,0.4-3.6c-0.3-0.3-0.8-0.4-1.2-0.2c-0.4,0.1-0.7,0.1-0.9-0.2
			c-0.4-0.7,0.1-1.9,0.8-3.2c0.8-1.5,2.4-4.3,2.4-4.3c0-0.1,0.1-0.1,0.2-0.2c0.1,0,0.1,0,0.2,0.1c0.5,0.8,1,1.6,1.6,2.4
			c1.4,1.9,2.1,0.9,2.6,0.2c0.2-0.3,0.3-0.7,0.3-1.1c0.1-0.7,0.3-1.4,0.7-2c0.6-1.1,1.7-1.9,2.7-1.1c0.5,0.4,0.8,1,0.8,1.6
			c0,0.6-0.1,1.3-0.4,1.9c-0.3,0.6-0.7,1.1-1.2,1.6c-0.3,0.2-0.5,0.5-0.7,0.8c-0.3,0.9-0.7,2,1.3,2.7c0.8,0.3,1.6,0.5,2.5,0.7
			c0.1,0,0.1,0.1,0.1,0.1c0,0.1,0,0.2-0.1,0.3c0,0-1.4,2.9-2.2,4.5c-0.7,1.3-1.3,2.4-2,2.2c-0.3-0.1-0.4-0.5-0.5-0.9
			c-0.1-0.5-0.3-0.9-0.7-1.2c-0.8-0.5-1.8,0.7-2.5,2s-1.2,2.9-0.4,3.6c0.3,0.3,0.8,0.4,1.2,0.2c0.4-0.1,0.7-0.1,0.9,0.2
			c0.4,0.7-0.1,1.9-0.8,3.2c-0.8,1.5-2.4,4.3-2.4,4.3c0,0.1-0.1,0.1-0.2,0.2c-0.1,0-0.1,0-0.2-0.1c0,0,0,0,0,0
			c-0.5-0.8-1-1.6-1.6-2.4c-1.4-1.9-2.1-0.9-2.6-0.2c-0.2,0.3-0.3,0.7-0.3,1.1c-0.1,0.7-0.3,1.4-0.7,2c-0.6,1.1-1.7,1.9-2.7,1.1
			s-0.9-2.3-0.3-3.4c0.3-0.6,0.7-1.1,1.2-1.6c0.3-0.2,0.5-0.5,0.7-0.8c0.3-0.9,0.7-2-1.3-2.7c-0.8-0.3-1.6-0.5-2.5-0.7
			C102.4,198.3,102.3,198.3,102.3,198.1L102.3,198.1z"/>
	</g>
</g>
<g id="freepik--character-2--inject-19">
	<g id="freepik--Character--inject-19">
		<g id="freepik--Bottom--inject-19">
			<path class="st28" d="M275.6,171.4c0,0-4.9,9.2-5.6,13c-0.8,3.9-1.9,5.1-1.8,9.5c0,1,0.3,2.9,0.3,3.7c0.1,0.6-0.4,1.2-1,1.3
				c-0.1,0-0.1,0-0.2,0c-1.8,0.1-4.2-3.5-5.1-7.1c-0.8-4.2-1.4-8.5-1.7-12.8c0.1-1,0.4-1.9,0.9-2.7c0.3-0.5,0.6-0.9,1-1.3
				c0.8-1.6,1.6-4.9,2.4-7.1L275.6,171.4z"/>
			<path class="st12" d="M256.4,182c-0.3,0.4-0.5,0.8-0.6,1.2c-0.1,0.8,1.3,3.6,1.9,4.6c0.8,1.4,1.1,3.1,0.7,4.6
				c-0.3,2.6,0.3,5.2,1.7,7.4c1.9,3,4.7,5.4,8,6.8c4.1,1.8,5.8-0.1,5.8-0.1s1.6-1.8,0.9-2.8S256.4,182,256.4,182z"/>
			<path class="st11" d="M262.2,174.8c-0.1,0-0.4-0.1-0.7,0.3c-0.1,0.1-1.2,1.9-2,2.8s-2.7,2.5-3.2,4.1c0.5,3.2,3.2,5.7,3.2,8.7
				s-0.4,6.4,3.7,10.5s8.7,5.1,10.5,4.4s1.9-2.5,0-6.2c-2-3.9-2.6-11.9-2.6-11.9c-0.1-1.1-0.1-2.2,0-3.4c0.2-1.1,0.5-2.1,0.8-3.2
				c0.2-0.5,0.2-1,0-1.5c-0.3-0.4-0.7-0.8-1.1-1c-0.7-0.4-1.5-0.8-2.2-1.1c-0.8-0.3-1.7-0.3-2.5,0c-0.6,0.2-1.1,0.6-1.6,0.7
				c-0.8,0.2-1.6-0.1-2.2-0.7c-0.6-0.6-0.7-1.4-0.3-2.1L262.2,174.8z"/>
			<path class="st0" d="M261,198c1.7-2.1,4.4-3.1,7.1-2.6c4.8,0.6,6.2,3.3,6.7,4.8c0.6,1.8,1.1,5-1,5.6c-2.3,0.7-4.8,0.1-8.4-2.4
				C263.4,202.1,261.8,200.2,261,198z"/>
			<path class="st0" d="M263.9,183.8c0.1,0.1,0.3,0.1,0.4,0.1c0.8-0.3,4.9-0.6,6.9,1.8c0.3-0.2,0.3-0.6,0-1.3
				c-2.1-1.5-4.7-2-7.2-1.4c-0.2,0.1-0.4,0.3-0.3,0.6C263.7,183.7,263.8,183.8,263.9,183.8L263.9,183.8z"/>
			<path class="st0" d="M271.3,188.5c0.2-0.4,0.2-0.9-0.1-1.3c-2.1-1.3-4.6-1.7-7-1.2c-0.2,0.1-0.4,0.3-0.3,0.6
				c0,0.1,0.1,0.2,0.2,0.3c0.1,0.1,0.3,0.1,0.4,0.1C265.4,186.6,269.3,186.3,271.3,188.5z"/>
			<path class="st0" d="M272.4,195.2c0.1-0.6,0-1.3-0.4-1.8c-2.1-1.4-4.7-1.9-7.2-1.4c-0.2,0.1-0.4,0.3-0.3,0.6c0,0,0,0,0,0
				c0,0.1,0.1,0.2,0.2,0.2c0.1,0.1,0.3,0.1,0.4,0C266.1,192.6,270.5,192.3,272.4,195.2z"/>
			<path class="st0" d="M264.5,189.8c0.1,0.1,0.3,0.1,0.4,0.1c0.8-0.3,4.8-0.6,6.8,1.8c0.2-0.5,0.1-1-0.2-1.5
				c-2.1-1.3-4.6-1.7-7-1.2c-0.2,0.1-0.4,0.3-0.3,0.6c0,0,0,0,0,0C264.3,189.7,264.4,189.8,264.5,189.8z"/>
			<path class="st28" d="M276.4,180.8c0,0,0.4,9.9,1.1,16.8c0.6,5,4.5,7.1,7.8,10.3c0.7,0.7,2.4,2,3,2.5c0.5,0.4,0.6,1.1,0.2,1.6
				c-0.1,0.1-0.1,0.1-0.2,0.2c-1.2,1.4-7,2.2-10.4,0.2s-6.8-6.8-8.9-8.6c-0.8-0.6-1.5-1.3-2.2-2c-0.7-0.7-0.6-1.4-0.7-2.2
				c-0.1-0.4-0.4-2.4-0.4-2.4c-0.6-1.9-2.2-6.9-2.9-9.2L276.4,180.8z"/>
			<path class="st12" d="M265.3,206.6c0,0.5,0.1,0.9,0.2,1.4c0.4,0.7,3.3,2.2,4.4,2.7c1.5,0.7,2.8,1.9,3.4,3.4
				c1.3,2.3,3.4,4.1,5.9,5.1c3.4,1.4,7.2,1.7,10.8,0.9c4.5-0.9,4.4-3.5,4.4-3.5s0.1-2.5-1-2.8S265.3,206.6,265.3,206.6z"/>
			<path class="st11" d="M265.7,197.2c-0.1,0.1-0.2,0.1-0.3,0.7c0,0.2,0.2,2.3,0.1,3.5s-0.7,3.7-0.1,5.3c2.4,2.3,6.1,2.9,8,5.3
				s3.5,5.5,9.5,6.5s9.9-0.5,11-2.2s-0.5-3.3-3.6-5.4c-3.7-2.5-9-8.4-9-8.4c-0.5-0.5-0.9-1.1-1.3-1.7c-0.7-1.1-1-2.3-1-3.6
				c0-0.6-0.1-1.1-0.7-1.3c-0.3-0.1-0.6-0.1-0.9-0.1c-1.4,0-2.8,0.2-4.1,0.6c-0.7,0.2-1.3,0.5-1.9,0.8c-0.5,0.2-1.2,0.5-1.4,1
				c-0.1,0.2-0.1,0.5-0.1,0.7c0.1,0.8,0.2,1.6,0.4,2.4c0,0.1,0,0.2,0,0.3c-0.2,0.4-1.4-1.3-1.6-1.5c-0.4-0.5-0.8-0.8-1.4-1
				c-0.5-0.1-0.9-0.5-1.1-1L265.7,197.2z"/>
			<path class="st0" d="M278.9,217c0.1-2.8,1.8-5.2,4.3-6.4c4.4-2.3,6.3-0.6,7.7,0.3c1.6,1.1,4.5,3.4,3.1,5.1s-3.6,2.6-8.1,2.8
				C283.4,219,280.9,218.4,278.9,217z"/>
			<path class="st0" d="M272.7,203.6c0.2,0,0.3-0.1,0.4-0.2c0.5-0.7,3.7-3.3,6.9-2.6c0.2-0.4-0.1-0.7-0.8-1.1c-2.7,0-5.2,1.1-7,3.1
				c-0.1,0.2-0.1,0.5,0.1,0.6c0,0,0,0,0,0C272.5,203.6,272.6,203.6,272.7,203.6z"/>
			<path class="st0" d="M281.8,203.1c-0.1-0.5-0.4-0.9-0.9-1.1c-2.5,0.1-4.8,1.3-6.5,3.1c-0.2,0.2-0.1,0.5,0.1,0.7
				c0.1,0.1,0.2,0.1,0.3,0.1c0.2,0,0.3-0.1,0.4-0.2C275.6,205.1,278.7,202.5,281.8,203.1z"/>
			<path class="st0" d="M286.7,208c-0.3-0.6-0.8-1-1.4-1.3c-2.6,0.1-5.1,1.2-6.8,3.1c-0.1,0.2-0.1,0.5,0.1,0.7c0,0,0,0,0,0
				c0.1,0.1,0.2,0.1,0.3,0.1c0.2,0,0.3-0.1,0.4-0.2C279.9,209.6,283.4,206.7,286.7,208z"/>
			<path class="st0" d="M276.9,208.3c0.2,0,0.3-0.1,0.4-0.2c0.5-0.7,3.6-3.3,6.7-2.6c-0.2-0.5-0.6-0.9-1.1-1.1
				c-2.5,0.1-4.9,1.3-6.5,3.1c-0.1,0.2-0.1,0.5,0.1,0.6c0,0,0,0,0,0C276.6,208.2,276.7,208.3,276.9,208.3z"/>
			<path class="st16" d="M257.9,118.1c0,0,17.9,10.9,26.2,20.4c3,3.4,4.8,6.4,1,14.6c-2.9,6.3-7.2,14.9-11.7,23l-36.6-49.4
				L257.9,118.1z"/>
			<path class="st11" d="M273.4,176.2l-22.8-40.8l0.9-0.1c4.8-1.8,7-8,7-8c0.3,2.9-0.6,5.8-2.5,8c2.5,2.1,8.3,6.8,17.1,14.2
				c1.5,1.3,4.4,3.7,4.2,8.2c-0.3,6.3-1,13.1-1,13.1L273.4,176.2z"/>
			<path class="st16" d="M257.9,118.1L257.9,118.1l-38.5,3.6c-0.2,4.6,0.6,12.3,3.8,17.6c2.3,3.9,5,6.3,14.4,12
				c8.8,5.3,16.8,9.7,18.8,10.9c1.5,0.9,1.3,5.1,1.9,9.3c1.2,8.4,5.5,21,5.5,21c4.5,1,9.3,0.2,13.2-2.4c0,0-0.6-18.7-1-24.9
				c-0.5-7.4-0.4-9.2-3.8-13c-3-3.2-20.7-17-20.7-17S260.7,126.9,257.9,118.1z"/>
			<path class="st11" d="M224.5,121.3c-0.1,6.3,0.5,11.1,4.7,16c3-1.8,2.5-3.6,1.6-6.9c-0.3-1-0.6-2.1-0.8-3.4
				c-0.4-2-0.6-4.1-0.6-6.2h0.1h0.4c0,2.1,0.2,4.1,0.6,6.1c0.2,1.2,0.6,2.4,0.8,3.3c0.9,3.3,1.5,5.5-1.8,7.5
				c1.1,1.2,2.3,2.3,3.5,3.2c6.5,5.2,15.7,11.4,21.2,15c1.9,1.3,3.5,2.3,4.2,2.9c3.2,2.3,3.4,4.1,3.1,9.7
				c-0.3,6.9,3.3,17.5,4.9,24.5h-0.5c-1.7-7.2-5.4-17.8-4.9-24.5c0.4-5.6,0-7.1-2.9-9.2c-0.8-0.6-2.3-1.6-4.2-2.9
				c-5.5-3.7-14.8-9.9-21.3-15.1c-8-6.4-9-12-8.8-20L224.5,121.3z"/>
		</g>
		<g id="freepik--Top--inject-19">
			<path class="st28" d="M287.5,92.7c-1.4,1.1-2.8,2.7-5.2,4.6s-6,5.2-9.4,7.1s-5.1,2.8-9.3-1.7c-3.8-4.2-7.3-8.8-10.4-13.5
				l0.3-16.2c3.5,1.1,5.6,3.1,7.7,6.5c4.1,6.4,6.8,10.6,9.2,14.2c0,0,10.1-5.7,11.4-6.6c1-0.7,1.7-1.7,2.1-2.8
				c0.3-1,0.6-1.9,1.1-2.8c0.4-1,0.6-1.3,1-2.6s0.9-3.3,1-3.8s1.1-0.5,1.7,0.8c0.3,0.8,0.4,1.7,0.3,2.5c0,0.8-0.3,1.7-0.1,1.8
				s1.3-0.4,2.4-0.7s2-0.7,3.2-0.3c0.8,0.2,1.2,0.9,1.1,1.7c0,0.1,0,0.1-0.1,0.2c-0.1,0.3-0.4,0.5-0.6,0.7c0.4,0,0.8,0.1,1.1,0.4
				c0.5,0.6,0.5,1.5,0,2.1c0.5,0,0.9,0.4,0.9,0.8c0.1,0.7,0,1.4-0.7,1.7c0,0,0.6,0.1,0.6,0.5c0.1,0.6-0.1,1.2-0.6,1.6
				c-0.6,0.3-1.3,0.4-2,0.5c0,0-0.1,0.2-0.8,0.6c-0.7,0.5-1.5,0.9-2.3,1.2C289.9,91.5,288.7,92,287.5,92.7z"/>
			<path class="st29" d="M270.4,93.8c-1.8,1.2-3.1,3.1-3.5,5.2c-0.3-2.4,0.9-4.7,3-5.9L270.4,93.8z"/>
			<path class="st4" d="M245.5,72.8c8.3-1.6,11.8,1.8,13.3,3.3s4.1,5.8,5.7,8.2s3.2,4.9,3.2,4.9s0,6.2-7.8,9.3l-6.9-9.2L245.5,72.8z
				"/>
			<path class="st29" d="M292.7,87.8c0.3-0.1,0.6-0.1,0.9-0.3c0.3-0.1,0.6-0.2,0.9-0.2c0.6-0.1,1.2-0.2,1.8-0.4
				c-0.6,0-1.2,0.1-1.8,0.2c-0.3,0-0.6,0.1-0.9,0.2c-0.3,0.1-0.6,0.2-0.9,0.2c-0.3,0-0.6-0.1-0.8-0.2c-0.3-0.1-0.5-0.2-0.7-0.4
				c-0.1-0.1-0.1-0.2-0.2-0.4c0-0.1,0-0.3,0.1-0.4c0.1-0.2,0.3-0.3,0.5-0.3c0.2,0.1,0.4,0.1,0.6,0.1c0.3,0,0.7-0.1,1-0.2
				c0.3-0.1,0.6-0.2,0.9-0.4c0.6-0.3,1.2-0.6,1.8-0.9c-0.6,0.2-1.3,0.4-1.9,0.7c-0.6,0.3-1.2,0.5-1.9,0.6c-0.3,0-0.6-0.1-0.9-0.2
				c-0.3-0.1-0.6-0.3-0.9-0.5c-0.3-0.2-0.4-0.5-0.4-0.8c0-0.2,0.1-0.3,0.2-0.4h0.2c0.4-0.1,0.8-0.1,1.2-0.1c0.4,0,0.8-0.2,1.1-0.3
				c0.7-0.3,1.4-0.7,2-1.2c-0.3,0.2-0.7,0.4-1,0.6c-0.3,0.2-0.7,0.3-1.1,0.5c-0.4,0.1-0.7,0.2-1.1,0.3c-0.4,0.1-0.8,0.1-1.2,0.1
				l-0.6,0.1c-0.2,0-0.2,0-0.3-0.2c-0.1-0.4,0-0.7,0.2-1c0.5-0.6,1.2-1,1.9-1.2l0,0l0,0c0.1-0.2,0.1-0.3,0.3-0.5
				c0.1-0.1,0.2-0.3,0.4-0.4c-0.1,0.1-0.3,0.2-0.4,0.4c-0.1,0.1-0.2,0.3-0.3,0.4c-0.8,0.1-1.5,0.6-2,1.2c-0.1,0.2-0.2,0.3-0.3,0.5
				c-0.1,0.2-0.1,0.5,0,0.7c0,0.1,0.1,0.2,0.2,0.3h0c0.8,2-0.1,4.3-2,5.3c0.8-0.3,1.4-0.7,2-1.3c0.5-0.5,0.8-1.1,1-1.7l0.2,0.3
				c0,0.1,0,0.1,0,0.2c0,0.2,0.1,0.3,0.2,0.5c0.2,0.3,0.5,0.4,0.8,0.6c0.2,0.1,0.4,0.2,0.6,0.2c0,0.1-0.1,0.2-0.1,0.2
				c0,0.1,0,0.3,0.1,0.4c0.1,0.2,0.3,0.4,0.5,0.6c0.1,0.1,0.2,0.2,0.3,0.2c0.1,0.1,0.2,0.1,0.4,0.2c0.2,0.1,0.5,0.1,0.8,0.1
				l-0.7-0.3c-0.1,0-0.2-0.1-0.3-0.2c-0.1-0.1-0.2-0.1-0.3-0.2c-0.2-0.2-0.3-0.3-0.5-0.5c-0.1-0.1-0.2-0.3-0.1-0.5
				C292.4,87.8,292.5,87.8,292.7,87.8z"/>
			<path class="st0" d="M218.6,99c-0.1,0.8-0.1,1.6-0.1,2.4C218.5,100.6,218.5,99.8,218.6,99c-0.1,0.9-0.1,1.8-0.1,2.8v-0.2
				c0-0.5,0-1,0-1.5c0-0.1,0-0.2,0-0.3C218.5,99.6,218.5,99.3,218.6,99c-0.1-0.3-0.1-0.6,0-0.9V98c0-0.3,0-0.5,0-0.8
				c0-0.1,0-0.1,0-0.2c0,0,0-0.1,0-0.1v-0.3c0.1-1.3,0.2-2.5,0.4-3.7c0.6-5.1,0.5-11.1,5.1-14.2c3.6-1.5,6.9-2.6,12-4.6
				c3.8-1.5,7.9-1.8,11.9-0.9c2.3,0.1,4.4,1,6.2,2.4c5.1,4.6,5.8,12.1,5.8,18.5l0.2,13.2c0.2,4.3-0.2,8.8,1.6,12.9
				c0,0.1,0.1,0.3,0,0.4v0.2c-1.8,3.9-5.4,6.8-9.1,8.8c-7.5,4-24.6,6.9-32.5,3.6c-1-5.6-1-11.4-1.4-17.1
				C218.8,111.1,218.2,104,218.6,99z"/>
			<path class="st5" d="M243.7,74c1.5,0,2.9,0.2,4.3,0.5h0.1c2,0.1,3.9,0.8,5.4,2.1c4.7,4.2,5.4,11.3,5.4,17.6l0.2,13.2
				c0,0.9,0,1.8,0.1,2.7c0,3.4,0.1,6.9,1.4,10.2l0,0.1l0.1,0.3c-1.9,3.4-4.9,6.1-8.4,7.8c-5.3,2.9-15.6,5-23.4,4.9
				c-2.5,0-5-0.3-7.4-1.1c-0.6-4.1-0.9-8.1-1-12.2c-0.1-1.3-0.1-2.7-0.2-4s-0.1-3-0.2-4.7c-0.2-3.2-0.4-6.7-0.3-9.7l0,0v-0.1l0,0
				c0-0.5,0-1,0-1.4v-0.5c0-0.2,0-0.4,0-0.6l-1.2-0.1l0,0l1.2,0.1c0-0.2,0-0.4,0-0.6v-0.4l0.1-0.8v-0.4v-0.2
				c0.1-1.4,0.3-2.6,0.4-3.7c0.1-0.7,0.2-1.5,0.2-2.2c0.4-4.3,0.9-8.7,4.2-11c2.4-1,4.6-1.8,7.4-2.9l4.4-1.7
				C238.9,74.4,241.3,73.9,243.7,74 M218.6,99L218.6,99 M243.7,72.7c-2.5,0-5,0.4-7.4,1.4c-5.1,2-8.4,3.1-12,4.6
				c-4.6,3.1-4.5,9.1-5.1,14.2c-0.2,1.2-0.3,2.4-0.4,3.7v0.3c0,0,0,0.1,0,0.1c0,0.1,0,0.1,0,0.2c0,0.3,0,0.5,0,0.8c0,0,0,0.1,0,0.1
				c0,0.3,0,0.6-0.1,0.9s0,0.6,0,0.8c0,0.1,0,0.2,0,0.3c0,0.5,0,1,0,1.5v0.2c0-1,0-1.9,0.1-2.8c-0.1,0.8-0.1,1.6-0.1,2.4
				c0-0.8,0-1.7,0.1-2.4c-0.4,4.9,0.3,12.1,0.4,17.1c0.3,5.7,0.4,11.5,1.4,17.1c2.7,1,5.6,1.5,8.5,1.4c8.3,0.1,18.6-2.1,24-5
				c3.7-2,7.3-4.9,9.1-8.8v-0.2c0.1-0.2,0-0.3,0-0.4c-1.8-4-1.4-8.6-1.6-12.9l-0.2-13.2c0-6.4-0.7-13.9-5.8-18.5
				c-1.7-1.5-3.9-2.3-6.2-2.4c-1.5-0.3-3-0.5-4.5-0.5L243.7,72.7z"/>
			<g id="freepik--Head--inject-19">
				<path class="st12" d="M232.9,71.3c-0.5-3-3.9-6.9-5.2-9.5s-2-4.5-1.8-6.8c0.1-1.4,1-3.3,2.1-3.7c-0.9-3.5,1.2-7,4.6-7.9
					c0.1,0,0.2,0,0.2-0.1c1-0.2,1.9-0.4,2.9-0.8c1.1-0.5,1.4-1.4,2.3-2.1c1.6-1.3,4.2-1.3,5.2,0.7c1.1-1.3,2.5-1.3,4.1-0.8
					c1.4,0.3,2.3,1.7,2.1,3.2c1.4-0.9,3.2-0.5,4,0.9c0.1,0.2,0.2,0.4,0.3,0.7c0.1,1-0.1,1.8,0.5,2.6c0.4,0.7,1.3,1,2,0.6
					c0.2-0.1,0.3-0.2,0.4-0.4c0.2,1.3-0.3,2.4-1.8,2.3c0.5,0.8,0.6,1.7,0.4,2.6c-0.4,1.1-1.4,1.9-2.5,1.9c-0.1,0.7-0.3,1.4-0.7,2
					c-0.5,0.6-1,1.2-1.7,1.5c-2.3,0.9-4.6,1.5-7.1,1.8l-2.8,0.5c-0.2,0-1,0.1-1.1,0.2L232.9,71.3z"/>
				<path class="st28" d="M228.8,66.6c2.1,1.3,3.9-0.8,3.9-0.8l-0.6,10.8c1.8,3.8,8.7,6.4,13,4.9c2.7-1,1.6-3.1,0-5.2l0.1-2.8
					c0.9,0,1.8,0,2.7-0.1c2.4-0.3,4.1-2.2,4.8-4.7c0.8-3.3,0.9-6.7,0.4-10.1c-0.1-0.8-0.2-1.6-0.1-2.5c0.2-1.8,0-3.6-0.7-5.3
					c-2.6-2.1-8.5-2.9-14.1,0.4c0.6,3.3-0.7,5.9-3.1,7.2c0.1,0.9,0.2,3.2-1.3,3.1c-1.1,0-1.1-1.4-2.2-2.5s-3.6-1.5-4.6,0.2
					C225.7,61.8,226.4,65,228.8,66.6z"/>
				<path class="st12" d="M238.2,56.8l-7.1,1.8c0.4,0.3,0.8,0.7,1,1.2l6.2-1.3L238.2,56.8z"/>
				<path class="st11" d="M254.5,55.8c-1.7-0.2-3.4-0.1-5,0.4c-1.4,0.5-1.9,1.1-2.7,1.2s-1.4-0.5-3-0.9c-1.6-0.2-3.3-0.2-4.9,0.1
					c-0.6,0-1,0.2-1,1s0.5,0.8,0.7,1.4c0.3,2.2,0.9,5,3.8,4.7c4.7-0.2,2.8-5.1,4.7-5c0.7,0.1,0.7,1.5,1.2,2.5
					c0.2,0.5,0.5,0.9,0.9,1.2c1.8,1.6,4.9,0.4,5.2-1.4c0.2-1,0.3-1.9,0.4-2.9c0.1-0.5,0.5-0.7,0.5-1.4
					C255,56.2,254.7,55.8,254.5,55.8z M245,60.3c-0.1,0.6-0.3,1.1-0.6,1.6l0,0c-1.1,1.5-4.2,1.3-4.8-0.7l0,0c0-0.1-0.1-0.2-0.1-0.3
					c-0.3-0.8-0.6-2.6-0.2-3.2c0.8-0.9,4.5-0.9,5.6,0.3C245.1,58.8,245.2,59.6,245,60.3z M253.9,59.6c0.1,1.5-1,2.7-2.4,2.8
					c-0.9,0.1-1.8-0.3-2.3-1c-0.6-1-0.9-2.3-0.6-3.5c0.6-0.7,1.5-1.1,2.4-1.2c0.9-0.3,1.9-0.1,2.8,0.3
					C254,57.3,253.9,58.8,253.9,59.6L253.9,59.6z"/>
				<path class="st29" d="M245.8,60.5l0.8,4.7l3.7-1.2c-0.1-0.2-2.1-4.5-3.5-5.3C246,58.7,246,59.6,245.8,60.5z"/>
				<path class="st29" d="M245.2,73.6c-3.7-0.2-7.4-0.9-9.3-3.7c-0.9-1.4-1.6-2.9-2.2-4.4c0.1,1.9,0.7,3.8,1.5,5.5
					c1.4,2.3,4.1,3.6,9.9,4.2L245.2,73.6z"/>
				<path class="st12" d="M243.1,59.3c0,0.6-0.4,1.1-1,1.1c-0.6,0-1.1-0.4-1.1-1c0,0,0,0,0,0c0-0.6,0.4-1.1,1-1.1
					C242.6,58.3,243.1,58.7,243.1,59.3L243.1,59.3z"/>
				<path class="st12" d="M242.7,54.2l-2.3,1.2c-0.3-0.6-0.1-1.4,0.6-1.8C241.6,53.3,242.3,53.5,242.7,54.2
					C242.7,54.2,242.7,54.2,242.7,54.2z"/>
				<path class="st30" d="M242.8,65.4l3.4,1.1c-0.3,1-1.4,1.5-2.4,1.2C242.9,67.4,242.5,66.4,242.8,65.4
					C242.8,65.5,242.8,65.4,242.8,65.4z"/>
				<path class="st19" d="M244.8,67.8c-0.3-0.9-1.1-1.6-2.1-1.8c0,0.8,0.4,1.5,1.2,1.7C244.2,67.8,244.5,67.8,244.8,67.8z"/>
				<path class="st12" d="M251.6,54.5l-2.4-0.9c0.2-0.7,0.9-1,1.6-0.8c0,0,0,0,0.1,0C251.5,53,251.8,53.8,251.6,54.5z"/>
				<path class="st12" d="M251.4,59.1c-0.1,0.5-0.6,0.9-1.1,0.9s-0.9-0.6-0.9-1.1c0.1-0.5,0.5-0.9,1-0.9
					C251,58,251.4,58.5,251.4,59.1C251.4,59.1,251.4,59.1,251.4,59.1z"/>
			</g>
			<g id="freepik--Laptop--inject-19">
				<path class="st5" d="M292.3,135v0.5c0,0.7-0.4,1.4-1,1.8l-36.1,20.3c-0.3,0.2-0.6,0.3-1,0.3c-0.4,0-0.7-0.1-1-0.3l-19.5-11.4
					c-0.6-0.4-1-1.1-1-1.8v-0.7l0,0c0,0.1,0,0.2,0.1,0.2l21.3,12.6L292.3,135z"/>
				<path class="st12" d="M254.1,156.5v1.4c0.4,0,0.7-0.1,1-0.3l36.1-20.3c0.6-0.4,1-1,1-1.8V135L254.1,156.5z"/>
				<path class="st31" d="M232.9,143.8c-0.1,0-0.1-0.1-0.1-0.2c0-0.1,0-0.1,0.1-0.2l37.1-20.8c0.2-0.1,0.4-0.2,0.6-0.2
					c0.2,0,0.4,0.1,0.5,0.2l21,12.5l-38,21.3L232.9,143.8z"/>
				<path class="st5" d="M270.6,122.5c0.2,0,0.3,0.1,0.5,0.2L292,135l-37.9,21.2l-21.2-12.6c0,0,0-0.1,0-0.1c0,0,0-0.1,0-0.1
					l37.1-20.8C270.2,122.5,270.4,122.5,270.6,122.5 M270.6,122.3c-0.2,0-0.5,0-0.7,0.2l-37.1,20.9c-0.1,0.1-0.2,0.2-0.1,0.4
					c0,0,0.1,0.1,0.1,0.1l21.3,12.6l38.2-21.4l-21.1-12.5C271,122.4,270.8,122.3,270.6,122.3L270.6,122.3z"/>
				<polygon class="st5" points="254,154.7 242.6,147.9 276.4,128.9 287.8,135.7 				"/>
				<polygon class="st5" points="287.8,135.7 287.4,135.9 276.3,129.5 243,148.2 242.6,147.9 276.4,128.9 				"/>
				<polygon class="st13" points="287.8,135.7 287.4,135.9 276.3,129.5 243,148.2 242.6,147.9 276.4,128.9 				"/>
				<polygon class="st5" points="248.6,136.2 248.8,136.3 254.4,139.6 264.4,134 264.6,133.9 258.8,130.4 				"/>
				<polygon class="st13" points="248.6,136.2 248.8,136.3 254.4,139.6 264.4,134 264.6,133.9 258.8,130.4 				"/>
				<polygon class="st5" points="248.8,136.3 254.4,139.6 264.4,134 258.8,130.7 				"/>
				<g id="freepik--Arm--inject-19">
					<path class="st28" d="M208.6,114.1c2.4-8.7,3.7-16.5,6-23.1c1.3-3.9,1.8-9.2,9.6-11.6c4.8,3.8,3.8,14.1,2.9,16.6l-5.4,19.9
						c0,0,1.4,1.7,5.9,6.3c3.8,3.9,5.7,5.3,10.2,6.1c4.5,0.8,4.9,0.5,7.2,1.6c1.2,0.6,4,2,5,2.6s2.6,2.4,4.1,3.7s-0.5,1.9-1.6,1.4
						c-1.2-0.5-2.4-1.1-3.4-1.9c-1-0.5-2-1-3-1.3c0.3,1.2,0.4,2.4,0.4,3.6c0,0.6,0.1,1.4-0.5,1.9c-0.4,0.2-0.9,0.4-1.4,0.5
						c0,0.2-0.1,0.4-0.3,0.6c-0.3,0.2-0.8,0.3-1.2,0.2c-0.2,0-0.4-0.1-0.6-0.1c-0.1,0.4-0.4,0.8-0.8,0.9c-0.9,0.2-1.9,0.2-2.8-0.1
						l-1.4-0.9c-0.4-0.2-0.8-0.4-1-0.7s0.5-1.1,1-1.1c0.6,0,1.2,0,1.8,0.2c-0.2-0.5-0.4-1-0.4-1.5c-0.4-0.8-3.9-0.2-7-0.9
						c-2.3-0.5-3.9-2.7-4.9-3.4c-4.7-2.9-9.2-6.1-13.5-9.6C207.6,119.5,207.4,118.8,208.6,114.1z"/>
					<path class="st29" d="M245.1,132.5c0.4,0.6,0.7,1.3,0.9,2l0.6,0.2C246.3,133.9,245.8,132.8,245.1,132.5z M243.1,133.2
						c0.2,0.2,0.4,0.5,0.5,0.8c0.1,0.3,0.2,0.6,0.3,0.9c0.2,0.6,0.3,1.2,0.3,1.8c0.1,0.6,0.1,1.2,0.2,1.9c0.1,0.6,0.1,1.3,0.1,1.9
						c0.1-0.6,0.2-1.3,0.2-1.9c0-0.6-0.1-1.3-0.1-1.9c-0.1-0.6-0.2-1.3-0.4-1.9C243.9,134.2,243.6,133.6,243.1,133.2L243.1,133.2z
						 M241.9,135.6c-0.1-0.6-0.4-1.2-0.9-1.7c0.2,0.3,0.3,0.5,0.4,0.8c0.1,0.3,0.2,0.6,0.2,0.9c0.1,0.6,0.2,1.2,0.3,1.8
						c0.2,1.2,0.4,2.4,0.4,3.7c0.1-0.6,0.1-1.2,0.1-1.9c0-0.6-0.1-1.3-0.2-1.9C242.2,136.8,242.1,136.2,241.9,135.6L241.9,135.6z
						 M237.4,139.3c0.3,0,0.5,0.1,0.8,0.1c0.2,0.1,0.4,0.2,0.6,0.3c0,0.1,0,0.1,0,0.2c0,0.1,0.1,0.2,0.2,0.3
						c0.1,0.2,0.3,0.3,0.5,0.4c-0.1-0.2-0.2-0.3-0.3-0.5c0-0.1-0.1-0.2-0.1-0.2c0-0.1,0-0.1,0-0.2v-0.1l-0.1-0.1
						c-0.2-0.1-0.5-0.2-0.7-0.2C238,139.2,237.7,139.2,237.4,139.3L237.4,139.3z"/>
					<path class="st4" d="M224.4,78.7c-5.1,2-7.1,3-9,8.6c-2.4,6.9-5.1,17.3-5.1,17.3s1.7,2.5,6.7,3.9s7.3,0.1,7.3,0.1
						s2.7-8.7,3.7-12.3S229.8,82,224.4,78.7z"/>
				</g>
				<path class="st12" d="M254.7,156.8c0.7,0.3,1.5,0.2,2.1-0.1l36-20.2c0.6-0.4,1.1-1,1.2-1.7l4.2-23.2c0-0.1,0-0.3,0-0.4
					c0-0.7-0.2-1.3-0.7-1.7l-37.4,21c-0.5,0.3-0.8,0.7-0.9,1.2L254.7,156.8z"/>
				<path class="st16" d="M254.1,156.5l0.2,0.1c0.1,0.1,0.2,0.1,0.3,0.2l4.5-25.2c0.1-0.5,0.4-1,0.9-1.2l37.4-21
					c-0.1-0.1-0.3-0.3-0.5-0.4l-37.4,21c-0.5,0.3-0.8,0.7-0.9,1.2L254.1,156.5z"/>
				<path class="st11" d="M259.6,130.8l-0.6-0.3c-0.2,0.2-0.3,0.5-0.3,0.8l-4.5,25.2l0.2,0.1c0.1,0.1,0.2,0.1,0.3,0.2l4.5-25.2
					C259.3,131.3,259.4,131.1,259.6,130.8z"/>
				<path class="st4" d="M275.1,135.5c0.6-1.9,1.9-3.6,3.6-4.6c1.7-1,2.9-0.5,2.6,1.1c-0.6,1.9-1.9,3.6-3.6,4.6
					C276,137.5,274.8,137.1,275.1,135.5z"/>
			</g>
		</g>
	</g>
</g>
<g id="freepik--character-3--inject-19">
	<g id="freepik--character--inject-19">
		<g id="freepik--bottom--inject-19_00000039115321700277986590000010836607414573762986_">
			<g id="freepik--bottom--inject-19">
				<polygon class="st12" points="431.1,332.5 428.8,331.3 431.1,330.7 				"/>
				<path class="st12" d="M407.7,336c0,0,28.1-11.5,28.4-9.6c0.1,0.4,0,0.8-0.1,1.1c0,0,0.1-0.1,0.1-0.1l-0.6,3.5
					c-1.3,1-2.8,1.5-4.4,1.6c0-0.2,0-1.2,0-1.8c-0.9,0.3-1.7,0.7-2.5,1.2c-1.8,1.1-3,3.1-5,5.5c-1.4,1.7-3.9,2.4-7.5,2.8
					c-3.9,0.4-7.3-0.5-8.2-1.5C407.3,337.8,407.3,336.8,407.7,336z"/>
				<path class="st30" d="M408.5,335.4c0.9-0.9,1.7-1.7,2.7-2.5c1.3-1.2,2.7-2.3,4.1-3.3c0.7-0.5,1.4-1,2-1.6c0.5-0.5,1-1,1.4-1.6
					c1.2-1.5,2.3-3.2,3.2-4.9c0.7-1.3,1.1-2.8,1-4.2c0-4.1-0.2-8.3-0.7-12.4l13.3,0.2c-0.5,2.1-0.7,5.7-1,8.1
					c-0.4,3.6-0.6,4.5,0.7,8.1c0.5,1,0.8,2.1,1,3.3c0,1.9-1.5,3.4-3.2,4.3c-1.4,0.7-3,1-4.3,1.7c-1.4,0.9-2.6,2-3.6,3.3
					c-1,1.2-1.8,2.5-3.1,3.3c-1.4,0.8-3,1.2-4.6,1.4c-2,0.3-4,0.3-6,0.1C408.6,338.5,406.5,337.4,408.5,335.4z"/>
				<path class="st11" d="M419.5,330.1c-1.3-0.8-2.8-1-4.3-0.5c-2.1,1.5-3.8,2.9-5.1,3.9c-1.5,1.2-2.8,2.2-2.8,3.6
					c0,2.2,8.5,3.2,13.3,1.3c1.5-0.5,2.7-1.5,3.5-2.8C424.1,335.5,423.5,332.4,419.5,330.1z M435.9,322.8c-0.7-1.4-0.9-2.2-0.9-2.2
					c-2.9,2-4.3,5.6-3.5,9.1c1.7-0.3,3.3-1.2,4.3-2.7C436.6,325.7,436.6,324.1,435.9,322.8z"/>
				<path class="st12" d="M456.4,325.6c-0.8,1.2,0.2,6,0,9.4c-0.2,3.1-1,8.4,0,11.4c1.1,3.6,3.4,7.8,7.6,4.4
					c2.6-2.1,4.1-4.8,4.5-9.2c0.2-3.1-1-7.3-2-11.1c-1.2-4.4-1.7-6.7-1.7-6.7L456.4,325.6z"/>
				<path class="st30" d="M465.1,303c0.3,7.1-0.5,12.2-0.6,16.8c0,2.1,0.2,4.2,0.7,6.2c0.6,2.9,1.6,7,2,8.9c0.6,2.6,1.1,4.3,0.1,7.3
					c-0.1,0.2-0.2,0.5-0.3,0.7c-1.3,2.5-4.5,4.3-5.6,4c-0.4,0.5-1.1,0.8-1.8,0.6l-0.4-0.1c-0.1,0-0.2-0.1-0.3-0.1
					c-0.9-0.5-1.5-1.3-1.7-2.2c-0.1-0.2-0.1-0.4-0.2-0.6c-0.5-2.5-0.5-5-0.1-7.5c0.1-2.2,0-4.3-0.2-6.5c-0.3-5.1-0.8-10.1-1.7-15.1
					c-0.7-2.8-1.6-6.3-2.5-10.1L465.1,303z"/>
				<path class="st11" d="M467.8,338.2c-2.6-1.1-10-1.3-11.2,2.3c0,3.4,0,5.7,2.1,8.7c2.9,3.9,6.6-0.2,8-2.9
					C467.9,343.8,468.3,341,467.8,338.2z"/>
				<path class="st11" d="M455.4,209.5c3.6,6.5,6.5,12,7.5,29.1c1.1,19.3,0.9,26.7,1,29s1.6,6.6,2.9,18.1s-0.1,39.3-0.1,39.3
					s-0.9,1.9-5.3,2.3c-2.2,0.3-4.4,0-6.4-1c0,0-7.8-34.9-9.4-41.8c-2.2-9.8-5.4-29.2-5.4-29.2l-2,16.3c0,0,1.3,6.3,0.1,16.4
					s-3.3,29.4-3.3,29.4c-1.8,1.2-3.9,1.9-6,2.2c-2.3,0.3-4.6-0.2-6.6-1.4c0,0-3.9-40-4-51.4s0.8-39.9,4.3-56.9L455.4,209.5z"/>
				<path class="st12" d="M425,226.4c1.8,4.7,8.1,8,10.8,8.6l2.8,20.2l-0.5,16.5l2-16.3l-3.2-24.1C437,231.3,429.3,230.8,425,226.4z
					 M451.1,223.9c0.5,1.9,0.9,3.7,1.3,5.6s0.9,3.7,1.4,5.6c0-1.9-0.1-3.9-0.4-5.8c-0.3-1.9-0.6-3.8-1.1-5.7c-0.5-1.9-1-3.7-1.7-5.6
					c-0.7-1.8-1.5-3.6-2.5-5.2c0.6,1.8,1.1,3.7,1.6,5.5S450.7,222,451.1,223.9L451.1,223.9z M454.4,220.3c0.6,1.1,1.2,2.2,1.8,3.4
					l1.8,3.4c-0.1-1.3-0.4-2.6-0.9-3.8c-0.5-1.2-1-2.4-1.6-3.6c-0.6-1.1-1.4-2.2-2.1-3.3c-0.8-1.1-1.7-2-2.6-2.9
					c0.6,1.2,1.2,2.3,1.9,3.4S453.7,219.2,454.4,220.3L454.4,220.3z M451.9,272.5c-1.1-5.9-2-11.9-2.8-17.9s-1.6-12-2.5-18
					c0.4,6,0.9,12.1,1.5,18.1s1.4,12,2.5,18s2.4,11.9,3.7,17.8s2.6,11.8,4,17.7c-1-6-2-12-3.1-17.9
					C454.2,284.4,453,278.4,451.9,272.5L451.9,272.5z M424.2,252.6l0.9-15.8c-0.8,5.2-1.4,10.5-1.8,15.7c-0.4,5.3-0.8,10.5-0.8,15.8
					c0.2,5.3,0.7,10.5,1.1,15.8s1,10.5,1.7,15.7c-0.2-5.3-0.4-10.5-0.7-15.8l-0.5-7.9c-0.1-2.6-0.3-5.3-0.4-7.9s0.1-5.2,0.2-7.9
					S424.1,255.2,424.2,252.6L424.2,252.6z"/>
			</g>
		</g>
		<g id="freepik--top--inject-19">
			<path class="st30" d="M383.9,182.3c0.6,0.1,1.1,0.3,1.6,0.6c-1.1-0.7-2.1-1.6-2.8-2.7c-0.1-0.2-0.2-0.4-0.2-0.7
				c0-0.2,0.1-0.7,0.5-0.8l-0.8-1c-0.3-0.4-1-1.3-0.3-1.6s1.3,0.1,2.1,0.6c-0.3-0.3-0.5-0.7-0.6-1.1c0-0.8,0.6-1.2,2-0.3
				s5.1,3.2,8.2,3.4c0.5,0.1,1.6,0.3,2.1,0l0,0c0.7-0.4-0.2-1.4-0.5-1.8c-0.3-0.4-0.6-0.8-0.9-1.2c-0.3-0.5-0.6-1-0.7-1.5
				c-0.1-0.6,0-1.1,0.3-1.6c0.2-0.2,0.5-0.4,0.7-0.2c1,0.9,2,1.8,3,2.7c1,0.8,1.9,1.7,2.8,2.7c0.9,1.2,1.6,2.7,2.9,4.3
				c1.8,2.2,3.9,4.1,6.1,5.8c1.9,1.5,5,4.3,5,4.3s5-9.4,7-13.1c3.6-6.8,6.8-8.6,13-9.4l-1.6,15.4c0,0-6.7,14.3-9.3,18.9
				s-5,5.4-6.7,5.2l0,0c-5.6-0.7-9.7-8-17.4-18.5c-1.1-1.6-2.9-2.6-4.8-2.8c-1-0.1-2.2-0.3-2.9-0.4c-1-0.2-2.1-0.5-3.1-0.9
				c-1.6-0.6-1.7-0.5-4-2.4c-0.3-0.2-1.4-1.3-1.3-1.6C383.2,182.5,383.5,182.3,383.9,182.3C383.9,182.3,383.9,182.3,383.9,182.3z"/>
			<path class="st32" d="M385.5,182.9c0.7,0.4,1.5,0.7,2.3,1c0.8,0.3,1.6,0.5,2.4,0.8c-0.8-0.1-1.7-0.2-2.5-0.5
				C386.9,183.9,386.1,183.5,385.5,182.9z"/>
			<path class="st32" d="M400.2,184.9c0-0.2,0-0.3-0.1-0.5c-0.1-0.3-0.2-0.6-0.4-0.8c-0.4-0.5-0.8-0.9-1.4-1.2
				c-1.2-0.7-2.7-0.6-3.9,0.1c0,0-0.1,0.1,0,0.1c1.2-0.3,2.5-0.3,3.7,0.2c0.9,0.6,1.6,1.5,1.9,2.6c0,0.1,0.1,0.1,0.1,0
				C400.1,185.2,400.2,185.1,400.2,184.9z"/>
			<path class="st32" d="M391.4,180.4c-1.3-0.5-2.5-1-3.7-1.7c-1.2-0.6-2.3-1.2-3.4-1.9l0,0c1.1,0.9,2.3,1.7,3.5,2.3
				C388.9,179.6,390.1,180,391.4,180.4L391.4,180.4z"/>
			<path class="st32" d="M391.2,182.7c-1.3-0.5-2.5-1-3.7-1.7c-0.5-0.2-0.9-0.5-1.4-0.7c-0.5-0.2-0.9-0.5-1.3-0.8l-0.4-0.3
				c-0.2-0.1-0.3-0.2-0.5-0.3c-0.2-0.1-0.4-0.1-0.6-0.1l0,0c0.3,0.1,0.5,0.2,0.7,0.3c0.1,0.1,0.3,0.2,0.4,0.3l0.4,0.3
				c0.4,0.3,0.8,0.6,1.2,0.8c0.5,0.3,1.1,0.6,1.6,0.9C388.8,181.9,390,182.3,391.2,182.7C391.3,182.7,391.3,182.7,391.2,182.7z"/>
			<path class="st11" d="M435,169.4c-6.5,0.8-9.3,2-11.9,6c-2.4,3.8-8.8,16.4-8.8,16.4l-5.5-4.4c0,0,0.4,1.6-1.5,4.6
				c-1.1,1.8-2.8,3-4.9,3.4c2,3.1,4.1,6,6.5,8.8c3.1,3.6,6.3,6.2,9.7,5.1s5-4.4,7-8.2s7.6-16,7.6-16L435,169.4z"/>
			<path class="st12" d="M420,201.7c-0.7-3.6-3-8.1-5.8-9.9l0.7-1.4C419.2,193.4,420.1,198.4,420,201.7z"/>
			<g id="freepik--head--inject-19">
				<path class="st12" d="M447.2,165.7c0.4-0.3,0.9-0.5,1.3-0.7c2.4-0.8,5.1,0.2,7.3-1.2c1.3-0.9,2.2-2.4,2.3-4
					c0.9,0.9,2.4,0.9,3.3,0.1c-0.8,0.2-1.9,0-2.1-0.8s0.6-1.5,1.2-2.2c0.9-1.1,1.2-2.6,0.7-4c-0.5-1.4-1.9-2-2.1-3.6
					c0-0.9,0-1.8,0.2-2.7c0.2-1.8-0.3-3.6-1.4-5c-0.5-0.7-1.1-1.2-1.8-1.7c-0.2-0.1-2.6-1.1-2.6-0.8c0-2.9-2-5.3-4.9-5.9
					c-0.9-0.1-1.7-0.1-2.5-0.2c-1.8-0.2-3.3-1.4-5-1.7c-1.6-0.3-3.3-0.1-4.8,0.6c-1.4,0.7-2.1,1.9-3.3,2.7s-3,0.9-4.5,1.3
					c-2.1,0.5-3.8,2.1-4.2,4.3c-0.2,1.6,0.5,3.3-0.4,4.7c-0.4,0.5-0.8,0.9-1.2,1.3c-0.7,0.9-0.9,2.1-0.6,3.2c0.3,1.2,1.2,2,1.6,3.2
					c0.3,0.7,0.1,1.5-0.4,2c-0.6,0.4-1.7,0.1-1.7-0.6c-0.4,0.7-0.1,1.6,0.5,2c0.8,0.5,1.7,0.7,2.6,0.5c-0.4,1.5-0.7,3.2,0.2,4.4
					s2.6,1.2,3.9,2.1c0.7,0.6,1.4,1.3,2,2.1c1.3,1.2,3.2,1.7,5,1.2c1.8-0.5,2.9-1.4,4.6-0.6c1.3,0.6,2.5,1.3,3.9,1.2
					C445.5,166.6,446.4,166.2,447.2,165.7z"/>
				<path class="st30" d="M436.5,170.9c0.4-0.4,0.9-0.7,1.5-0.8c0.6-0.1,0.6-0.8,0.7-1.8v-1.6c-1.9,0.3-3.8-0.3-5.4-1.4
					c-2.3-1.8-3.6-5.6-3.6-9.7c0.1-1.6,0.3-3.1,0.6-4.6c-0.4-3.6-0.1-4.3,0.6-6.2c1.4-3.1,5.2-4.3,7-1.2c4.6-3.9,10,0.7,10.1,6.4
					c-0.4,4.7,1,4.8,1.9,4.8c1.2-2.9,4.2-3,5.5-1.2c1.2,1.6,1.3,4.2-0.8,6.7s-4.5,1-4.5,0.6c0,0-0.1,6.3-0.1,7.5s0.3,2.6,1.9,3.1
					l0,0c0.7,0.1,1.4,0.4,2,0.8c-0.2,0.2-0.4,0.4-0.6,0.6c-0.5,0.7-1.3,1.3-3.3,3.8c-5.2,2.2-10.2,4.7-15,7.7
					c-1.1-2.6-2-5.3-2.8-8.1C433.5,174.2,434.9,172.5,436.5,170.9z"/>
				<path class="st32" d="M441.3,158.6l-3.5,1.1c0.3,1,1.3,1.5,2.2,1.2c0,0,0,0,0,0C441,160.7,441.5,159.6,441.3,158.6z"/>
				<path class="st19" d="M441,159.5c-1,0-1.8,0.6-2,1.6c0.3,0.1,0.7,0.1,1,0c0.7-0.2,1.2-0.8,1.3-1.5L441,159.5z"/>
				<path class="st12" d="M431.4,149.4l2.7-0.9c-0.2-0.7-0.9-1.2-1.6-1c0,0-0.1,0-0.1,0C431.6,147.9,431.2,148.7,431.4,149.4z"/>
				<path class="st12" d="M444.1,149.5l-2.7-1c0.2-0.7,1-1.1,1.7-0.9c0,0,0,0,0.1,0C444,147.9,444.4,148.7,444.1,149.5z"/>
				<path class="st12" d="M434.7,152.1c0,0.6-0.4,1.2-1.1,1.2c-0.6,0.1-1.2-0.4-1.2-1c0,0,0,0,0,0c0-0.6,0.4-1.2,1.1-1.2
					C434.1,151,434.6,151.4,434.7,152.1C434.7,152.1,434.7,152.1,434.7,152.1z"/>
				<path class="st12" d="M443.1,151.9c0,0.7-0.4,1.2-1.1,1.3c-0.6,0.1-1.2-0.4-1.3-1c0-0.6,0.4-1.2,1.1-1.3
					C442.4,150.8,443,151.2,443.1,151.9C443.1,151.8,443.1,151.8,443.1,151.9z"/>
				<path class="st32" d="M438.7,166.7c4.5-0.4,8.8-1.7,9.9-4.4c-0.1,1.6-1.1,3.1-2.5,3.8c-2.3,1.2-4.8,1.8-7.3,1.9L438.7,166.7z"/>
				<polygon class="st32" points="434,155.5 438.1,157 438.7,149.3 				"/>
			</g>
			<g id="freepik--Chest--inject-19">
				<path class="st2" d="M423.5,201.5c0.1-2.4,0.1-4.7,0-7.1c-1.7-1.9-2.8-4.4-2.9-6.9c0-4.1,1.8-6.9,6.1-11
					c2.5-2.4,5.2-4.5,8.1-6.4h3.3c0,0-2.1,4.1-0.9,6.6c6.7-0.5,12.5-3.4,14.9-5.4l5.6,1.1c0,0,3.4,7.2,2,13.1
					c-0.7,3.2-2.2,8.7-3.4,13c-1.1,4.2-0.7,8.6,1.2,12.5l0.5,1.1c1.6,3.4,3.8,9.5,3.8,9.5s-9.4,4.2-24.9,2.3s-16.7-4.6-16.7-4.6
					l2.9-13.4C423.2,204.4,423.4,202.9,423.5,201.5z"/>
				<path class="st5" d="M449.2,194.5c-1.3,3.2-4.3,5.3-7.6,5.4c-3.3,0.2-6.4-1.3-8.2-4c0,0,0.9,6.3,8.4,5.5
					S449.2,194.5,449.2,194.5z"/>
				<path class="st16" d="M450.5,170.2c0,0-6,11.4-8.1,17.5s-1.3,11.1-1,22.4c0.2,8.7,0.6,21.8,0.6,21.8s16.4,0.4,21.8-6.7
					c-1.2-4.4-5-14.5-6-17.3s-0.4-5.2,1.6-11.5s5-9.6,5-14.4c0-3.6-1.6-7-4.2-9.5L450.5,170.2z"/>
				<path class="st16" d="M438.5,169.6c-0.1,0.2-0.2,0.4-0.4,0.5c0,0-11.5,10.3-12.7,21.4s-2.8,35.3-2.8,35.3
					c-1.3-0.9-2.5-2-3.4-3.3c0.7-5,3.2-24.9,2.8-27.1s-5.6-7.7-0.4-14.9s13.4-12,13.4-12l3.6-0.4
					C438.6,169.2,438.6,169.4,438.5,169.6z"/>
				<path class="st11" d="M433.3,172c-0.7,0.6-1.5,1.2-2.2,1.9c-1.4,1.3-2.8,2.6-4.2,3.9c-0.7,0.7-1.4,1.3-2,2
					c-0.3,0.3-0.7,0.7-1,1.1c-0.4,0.4-0.7,0.8-0.8,1.3c-0.1,0.5-0.2,1-0.1,1.5c0,0.5,0.1,1,0.2,1.5c0.2,0.9,0.5,1.8,0.8,2.6
					c-0.8,0.9-1.5,1.9-2,3c-0.1,0.2-0.1,0.3-0.1,0.5c0,0.2,0,0.3,0,0.5c0,0.3,0,0.6,0.1,0.9c0.1,0.6,0.2,1.2,0.3,1.8
					c0.4,2.4,1,4.9,1.5,7.2c-0.4-2.4-0.8-4.9-1.1-7.3c-0.1-0.6-0.2-1.2-0.2-1.8c0-0.3,0-0.6-0.1-0.9c0-0.3,0-0.5,0.1-0.8
					c0.5-1.1,1.2-2.1,2-2.9l0.1-0.1l-0.1-0.2c-0.3-0.9-0.6-1.8-0.8-2.7c-0.1-0.5-0.2-0.9-0.2-1.4c0-0.4,0-0.9,0.1-1.3
					c0.2-0.4,0.4-0.8,0.7-1.1c0.3-0.4,0.6-0.7,0.9-1.1c0.6-0.7,1.3-1.4,2-2c1.3-1.4,2.7-2.7,4-4s2.7-2.7,4.2-3.9
					C434.7,170.8,434,171.4,433.3,172z"/>
				<path class="st11" d="M452.3,187.4l0-1.5l0.1-3c0.1-4,0.2-8.1,0.2-12.1c-0.3,4-0.6,8.1-0.8,12.1l-0.1,3l-0.1,1.5v0.4
					c0,0.1,0,0.2,0,0.3c-0.1,0.2-0.2,0.4-0.3,0.5c-0.7,0.6-1.5,1.1-2.5,1.5c-0.9,0.4-1.9,0.7-2.9,0.9l-0.3,0.1l0.1,0.3
					c0.4,1.2,0.8,2.5,1.1,3.8c0.1,0.3,0.1,0.6,0.2,1c0.1,0.3,0.1,0.6,0,0.9v0.1l-0.1,0.1l-0.8,1.5c-0.6,1.2-1.3,2.3-1.9,3.5
					l-1.9,3.5l2.1-3.4c0.7-1.1,1.4-2.3,2-3.4l0.5-1l0.3-0.4l0.2-0.3v-0.1c0.1-0.4,0.1-0.7,0.1-1.1c0-0.3-0.1-0.7-0.2-1
					c-0.3-1.2-0.6-2.4-1-3.6c0.9-0.2,1.8-0.5,2.6-0.8c1-0.3,1.9-0.9,2.7-1.6c0.2-0.2,0.4-0.5,0.5-0.8c0-0.1,0.1-0.3,0.1-0.5
					L452.3,187.4z"/>
			</g>
			<g id="freepik--arm--inject-19">
				<path class="st11" d="M460.3,172.5c5.3,1.1,7.3,4.5,9.4,11.6c2.9,9.7,5.3,19.1,5.8,23.9l-12.5-3.9l-6.2-13.9
					C456.7,190.2,454.5,179.1,460.3,172.5z"/>
				<polygon class="st3" points="432.5,225.2 460.1,222 465.6,187 438,190.2 				"/>
				<polygon class="st23" points="432.5,225.2 460.1,222 465.6,187 438,190.2 				"/>
				<polygon class="st0" points="433.6,223.6 460,220.6 465.2,188 438.7,191 				"/>
				<path class="st4" d="M437.4,213.9l3.5-22l24.8-4.9l-5.5,35l-26.2,5.1c-0.3,0.1-0.7-0.1-0.8-0.5c0-0.1,0-0.2,0-0.3l1.8-11.2
					c0.1-0.5,0.5-0.9,0.9-1L437.4,213.9z"/>
				<path class="st30" d="M475.3,208c-0.1,3.6-0.7,4.2-4.7,6.1s-14.1,4.6-22.1,5.1c-5.2,0.3-7.8,0-9.8-0.9c-3.6-1.6-5.6-5.4-4.8-9.2
					c-0.8-2.5,0.5-2.8,1.6-3l-0.3,1.6c1.3,0.9,2.8,1.5,4.4,1.8c2.1,0.1,0.2-2.4-0.1-4s-0.2-2.4,1-3c0.7,0,0.9,1,3,3.2
					c1.6,1.7,2.7,4.7,5.3,4.4c2-0.2,14-5.2,14-5.2l0.7-4.5L475.3,208z"/>
				<path class="st11" d="M475.5,208c0.1,2.2-0.4,3.4-1.5,4.3s-5.4,2.8-8.1,3.6s-9.6,2.4-10.9,2.6c1.5-2.1,1.3-6.3,0.2-8.2
					s-2.6-1.5-2.6-1.5l10.3-4.2l1-6.1L475.5,208z"/>
			</g>
		</g>
	</g>
</g>
<g id="freepik--character-1--inject-19">
	<g id="freepik--character--inject-19_00000055665347524844221040000009995379933889158281_">
		<g id="freepik--bottom--inject-19_00000131342271896685776220000013942198273678360744_">
			<path class="st12" d="M36.8,398c0,0,0,0.7,0,1.2c0.1,0.7,0.5,1.3,1.1,1.6c1.4,1.2,4.6,2.1,7.2,1.7c1.6-0.1,3.1-0.8,4.3-2
				c1.3-1.2,2.4-2.6,3-3c1.3-1,2.8-1.7,4.4-2.1c2.2-0.7,6.3-2,8.1-5.1c1-1.6,1.4-3.6,1-5.5L36.8,398z"/>
			<path class="st16" d="M51.8,382.9c-4.6,1.2-9.1,8.9-14.3,6.4c-0.3,3-1.3,5-0.6,8.7c2,3,7.5,3.9,10.7,2.1c1.6-1.1,2.2-2.2,3.8-3.3
				c1.3-0.9,2.7-1.5,4.2-1.9c1.7-0.6,3.4-1.3,5-2.1c5.3-3,6.7-8,4.2-10.6C62.8,380.1,59.1,381,51.8,382.9z"/>
			<path class="st0" d="M54,382.3l0.7-0.2c2.3,0,4.5,0.9,6.1,2.6c1.7,1.8,2,5.4,2,6.3l-0.2,0.1c0,0,0.1,0.8,1.2-0.7
				c1.3-1.6,2.1-3.6,2.1-5.6c-0.1-2.3-1.4-4-4.3-4C59.6,380.8,53.9,381.9,54,382.3z"/>
			<path class="st12" d="M62.2,410.4c0,0.6,0,1.2,0.1,1.7c0.3,0.4,0.7,0.7,1.2,0.8c2.5,0.8,5.1,0.8,7.5,1.5c1.6,0.5,3.2,1.1,4.7,1.7
				c1.5,0.8,3.1,1.4,4.7,1.9c3.6,1,7.9,1,10.6,0c5-1.9,4.8-3.5,4.7-5.4S62.2,410.4,62.2,410.4z"/>
			<path class="st16" d="M63.3,398.3c-0.9,3.7-2,9.2-1.1,12.1c1,1.1,4.4,1.8,7.4,2.4c2.8,0.4,5.4,1.4,7.9,2.9
				c5.7,2.7,15.5,2.2,18.2-1.9c1.9-5.9-9.3-6.4-15.8-11c-1.6-1.2-1.9-2.2-2.3-4C77.5,398.7,67.1,399.3,63.3,398.3z"/>
			<path class="st0" d="M81.1,416.8c-0.9-2.5-0.5-5.2,1.2-7.2c1.7-1.9,4.3-2.9,6.8-2.7c2.2,0.6,4.2,1.6,5.8,3.1
				c1.2,1.3,1.8,3.5-0.4,5.1S88.3,418.4,81.1,416.8z"/>
			<path class="st11" d="M37.7,351.6c0.5-7.8,3.4-14.2,3.3-18.5c-0.1-8.3,0.3-13.7-0.4-20.6c-0.7-6.2-0.9-12.3-0.6-18.5
				c0.3-5.2,1.2-9.5,1.9-16c0,0,40.2-2.5,41,12.6s-0.2,53.8-0.7,60.5c-0.3,6.8-3.8,44.1-3.9,48.9c-6.9,5-15.6,0.9-15.6,0.9
				c-1-16.9-4.2-27.6-1.2-42.5l-1.8-22.1c0,0-6.4,40.4-8.8,53.1c-3.5,4.8-12,3-13.6,0C37.6,373.8,37.1,361.1,37.7,351.6z"/>
			<path class="st12" d="M59.8,336.3L58,311c-4.6-1.2-8.7-3.8-11.7-7.5c1.3,4.9,6.7,9.2,10.1,10.5l1.1,17.2l-0.8,23.8L59.8,336.3z"
				/>
		</g>
		<g id="freepik--top--inject-19_00000137117701675380878880000009365099270811523006_">
			<polygon class="st15" points="66.2,232.3 64.8,242.6 50.9,241.9 52.4,230.8 			"/>
			<path class="st19" d="M71.8,213.1c1.1,1.4,4.4,5.5,4.5,6.3l-2.7,1.7L71.8,213.1z"/>
			<path class="st15" d="M64,202.8c4.3-0.5,7.1,2.6,8.3,11.8c0.1,0.4,0.6,0.9,1,2.3c1.7,5.9,0.8,11.5-0.2,13c-2.5,2-5.3,2.8-9.3,2.4
				c-3-0.3-10.8-1.2-14.8-5.4c-4.7-4.9-7-12.2-3.7-16C50,205.6,61.7,203.1,64,202.8z"/>
			<path class="st19" d="M73.1,229.8c-0.6,0.8-4.4,2.9-6.9,3v-1.9C68.6,230.9,70.9,230.5,73.1,229.8z"/>
			<path class="st12" d="M64.9,218.9c-0.1,0.4-0.6,0.7-1,0.5c-0.2-0.1-0.3-0.2-0.4-0.3c-0.5-0.7-1-1.3-1.6-1.8
				c-0.7-0.6-1.7-0.9-2.7-0.9c-3.6,0.3-2.7,5-1,6.7c2.9,2.7,4.5,0.4,4.5,0.4s2.1,4.6-1,7.3c0,0-5.2,2.3-9.4,1
				c-2.6-2.6-5-5.4-7.2-8.3c-4.9-6.8-4.9-13.5-1.8-15.4c-0.2-2.4,1.1-6,6-8.1c4.7-2,7.8-1.8,11.2-1.6s7.6,1.7,10.7-0.9
				c0.8,1.9,0.6,4.1-0.5,5.9c1.1-0.4,2.3,0.1,2.8,1.2c0.4,1,0,2.1-0.9,2.7c0.7,0.4,1,1.2,0.8,2c-0.3,0.8-1,1.3-1.8,1.3
				c-0.7,0-1.4,0-2.1-0.1c-1,2.8-4.1,3.8-6,3.6c0,0,0.3,0.4,0.3,0.4s0.2,0.3,0.3,0.5c0.2,0.3,0.3,0.7,0.4,1c0.3,0.7,0.4,1.5,0.4,2.2
				C65,218.4,65,218.7,64.9,218.9z"/>
			<path class="st16" d="M49,236.5c-5.2-0.2-10.3,1.3-13.5,8.5c-3,6.8-7.2,16.7-8.7,21.6c-0.8,2.4-2.1,4.6,2.4,8.8
				c4.2,3.8,8.8,7.1,13.8,9.8l4.5-9.7l-7.1-6.8l3.1-6.5L49,236.5z"/>
			<path class="st12" d="M40.5,268.8c-1,1.6-2.5,2.8-4.2,3.5c2,0.5,4.2-1.7,4.8-2.9L40.5,268.8z"/>
			<path class="st20" d="M45.2,238c-3.6,2-6.4,8.8-6.1,14.4c0.2,3.6,1.4,12.8,2.5,20.9c0.3,2.6-0.7,6.9-1.2,12.1
				c-0.3,3.9-0.8,7.9-0.8,7.9s5.2,6,18.5,6.8c17,1,25.2-3.4,25.2-3.4s-0.6-13.5-1-24.5c-0.6-16.2-0.7-21-3.2-26.5
				c-0.8-1.6-1.7-5.3-4.5-6c-2.2-0.6-7.2-1.8-9.2-2.1c-3.3,0.8-11.8,0.9-13.9-0.9v-0.5C48,236.3,47.5,236.8,45.2,238z"/>
			<g>
				<path class="st1" d="M45.2,238c-3.6,2-6.4,8.8-6.1,14.4c0.2,3.6,1.4,12.8,2.5,20.9c0.3,2.6-0.7,6.9-1.2,12.1
					c-0.3,3.9-0.8,7.9-0.8,7.9s5.2,6,18.5,6.8c17,1,25.2-3.4,25.2-3.4s-0.6-13.5-1-24.5c-0.6-16.2-0.7-21-3.2-26.5
					c-0.8-1.6-1.7-5.3-4.5-6c-2.2-0.6-7.2-1.8-9.2-2.1c-3.3,0.8-11.8,0.9-13.9-0.9v-0.5C48,236.3,47.5,236.8,45.2,238z"/>
			</g>
			<g id="freepik--arm--inject-19_00000110453098688105763940000007681524991621821598_">
				<path class="st19" d="M129,226.4c1.9-2.3,2.9-3.3,3.9-3.9s4.4-3.2,5.7-3.9c0.9-0.5,1.6,0.9,0.7,2.2c-1.1,1.3-2.4,2.4-3.7,3.5
					c-0.9,1.2-1.7,2.5-2.3,3.8L129,226.4z"/>
				<path class="st15" d="M109.2,257.5c-2,1.1-3.9,0.8-10.5,0.5c-4.8-0.3-11.3-0.5-22.5-1.5c-4.2-4.2-5.2-11.5-1-16
					c4.3-1,17.5,4.3,31.6,4c0,0,13.8-6.3,15.4-7.5s4.3-7,5.4-8.8c1.4-2.4,2.5-2.4,3.5-2.5c3.3-0.4,4.1-0.3,4.9,0
					c0.5,0.2,0.8,0.6,0.9,1.1c0.9-0.1,2.1-0.5,2.7,0.9c0.2,0.4,0.3,0.7,0.3,1.1c0.2,0,0.4,0,0.6,0.2c0.9,0.6,0.5,3.8-0.1,4.7
					c-0.6,0.6-1.4,1-2.2,1c-0.9,0.1-0.7-0.9-0.7-0.9l-1.2,0.4c-2.1,2.5-1.3,6.2-4.5,7.9c-1.4,0.5-2.7,1.2-4,1.9
					C119.7,250.4,111.7,256.1,109.2,257.5z"/>
				<path class="st19" d="M136.7,226.9l-4,0.2l3.8-0.7C136.6,226.5,136.7,226.7,136.7,226.9z"/>
				<path class="st19" d="M139.7,228.9l-4.5,0.6l4.4-1.1C139.7,228.5,139.7,228.7,139.7,228.9z"/>
				<path class="st19" d="M139.7,230.9c-0.1,0.3-0.2,0.5-0.5,0.7c-0.2,0.2-0.4,0.3-0.7,0.4l0.1-0.1c-0.1,0.3-0.1,0.5-0.2,0.8
					l-0.1-0.1c0.2-0.1,0.5-0.1,0.7,0c0.2,0.1,0.4,0.3,0.5,0.5c-0.2-0.2-0.4-0.3-0.6-0.4c-0.2-0.1-0.4-0.1-0.6,0l-0.2,0.1v-0.2
					c0.1-0.3,0.1-0.5,0.2-0.8l0,0l0,0c0.2-0.1,0.5-0.2,0.7-0.4C139.3,231.4,139.5,231.2,139.7,230.9z"/>
				<path class="st19" d="M138.6,231.8c-0.5,0.2-1,0.4-1.6,0.5c0,0.4-0.1,0.7-0.3,1c-0.2,0.3-0.4,0.6-0.7,0.9l1.2-0.4
					c0,0,0.1-0.6,1.2-1.1L138.6,231.8z"/>
				<path class="st16" d="M74.3,239.7c2.9,0,5.7,0.5,8.5,1.2c2.6,0.7,12,2.5,14.8,2.7s9.1,0.6,9.1,0.6l8.4-3.6c0,0,1.5,0.5,3,3.6
					s0.5,7.2,0.5,7.2s-7.4,5.1-9,6.1s-2.5,1.3-5,1.1s-19-1.2-20.9-1c-1.3,0.2-2.5,0.7-3.5,1.5c-1.1,0.6-3.9-0.4-5.7-3.2
					S69,243.7,74.3,239.7z"/>
			</g>
		</g>
	</g>
</g>
</svg>
