<?xml version="1.0" encoding="utf-8"?>
<!-- Generator: Adobe Illustrator 26.0.1, SVG Export Plug-In . SVG Version: 6.00 Build 0)  -->
<svg version="1.1" id="Layer_1" xmlns="http://www.w3.org/2000/svg" xmlns:xlink="http://www.w3.org/1999/xlink" x="0px" y="0px"
	 viewBox="0 0 500 500" style="enable-background:new 0 0 500 500;" xml:space="preserve">
<style type="text/css">
	.st0{fill:#FAFAFA;}
	.st1{fill-rule:evenodd;clip-rule:evenodd;fill:#E0E0E0;}
	.st2{fill-rule:evenodd;clip-rule:evenodd;fill:#F5F5F5;}
	.st3{fill-rule:evenodd;clip-rule:evenodd;fill:#EBEBEB;}
	.st4{fill:#EBEBEB;}
	.st5{fill:#E0E0E0;}
	.st6{fill:#F5F5F5;}
	.st7{fill:#455A64;}
	.st8{fill:#263238;}
	.st9{fill:#70C1F9;}
	.st10{fill:#FF725E;}
	.st11{fill:#319CF4;}
	.st12{fill:#1286C6;}
	.st13{fill:#FFFFFF;}
	.st14{opacity:0.2;}
	.st15{fill:#339135;}
	.st16{fill:#FFBE9D;}
	.st17{fill:#EB996E;}
	.st18{opacity:0.3;}
</style>
<g id="freepik--background-complete--inject-6">
	<path class="st0" d="M94.2,167.9h-4c-0.4,0-0.8,0-1.2,0.1c-0.6,0.3-1.1,0.8-1.2,1.5c0,0.2,0,0.5,0,0.7v0.7c0,0.3,0,0.5-0.1,0.8
		c-0.1,0.5-0.4,1-0.9,1.3c-0.2,0.1-0.5,0.2-0.8,0.3H70.5c-0.2,0-0.4,0-0.6-0.1c-0.4-0.1-0.7-0.3-1-0.6c-0.3-0.3-0.4-0.7-0.5-1.1
		v-1.2c0-0.4,0-0.8-0.1-1.2c-0.3-0.8-1.1-1.3-1.9-1.3H57c-0.9,0-1.9,0.1-2.7,0.5c-0.9,0.4-1.7,1-2.3,1.7c-0.6,0.8-1.1,1.6-1.3,2.6
		c-0.1,0.2-0.1,0.5-0.1,0.7s0,0.4,0,0.6v99.5c-0.1,2.1,0.9,4.1,2.7,5.3c1.2,0.8,2.6,1.2,4,1.1h40.7c1.3-0.1,2.5-0.5,3.5-1.4
		c0.5-0.4,0.9-0.9,1.3-1.4c0.3-0.5,0.6-1.1,0.8-1.7s0.2-1.2,0.2-1.9v-99.4c0-0.9-0.1-1.7-0.4-2.5c-0.3-0.7-0.7-1.3-1.2-1.9
		c-0.4-0.4-0.9-0.8-1.4-1.1c-0.7-0.4-1.5-0.7-2.3-0.8c-0.3,0-0.5,0-0.6-0.1L94.2,167.9L94.2,167.9z"/>
	<path class="st0" d="M445.9,167.9h-4c-0.4,0-0.8,0-1.2,0.1c-0.6,0.3-1.1,0.8-1.2,1.5c0,0.2,0,0.5,0,0.7v0.7c0,0.3,0,0.5,0,0.8
		c-0.1,0.5-0.4,1-0.9,1.3c-0.2,0.1-0.5,0.2-0.8,0.3h-15.6c-0.2,0-0.4,0-0.6-0.1c-0.4-0.1-0.7-0.3-1-0.6c-0.3-0.3-0.4-0.7-0.5-1.1
		v-1.2c0-0.4,0-0.8-0.1-1.2c-0.3-0.8-1-1.3-1.9-1.3h-9.3c-1.9-0.1-3.8,0.7-5,2.2c-0.6,0.8-1.1,1.6-1.3,2.6c-0.1,0.2-0.1,0.5-0.1,0.7
		s0,0.4,0,0.6v99.5c0,0.7,0.1,1.4,0.2,2c0.4,1.4,1.2,2.5,2.4,3.3c1.2,0.8,2.6,1.2,4,1.1h40.7c1.3-0.1,2.5-0.5,3.5-1.4
		c0.5-0.4,0.9-0.9,1.3-1.4c0.3-0.5,0.6-1.1,0.8-1.7c0.2-0.6,0.2-1.2,0.2-1.9v-99.3c0-1.6-0.5-3.2-1.6-4.4c-0.4-0.4-0.9-0.8-1.4-1.1
		c-0.7-0.4-1.5-0.7-2.3-0.8c-0.3,0-0.5,0-0.6-0.1L445.9,167.9L445.9,167.9L445.9,167.9z"/>
	<path class="st1" d="M216.3,88.4c0.3,1.8,0.3,3.6,0.1,5.4l4.1,2.8l-3,7.7l-4.9-0.7c-1.1,1.5-2.3,2.8-3.7,3.9l1,4.9l-7.5,3.3l-3-4
		c-1.8,0.3-3.6,0.3-5.4,0.1l-2.8,4.1l-7.7-3l0.7-4.9c-1.4-1.1-2.8-2.3-3.9-3.7l-4.9,1l-3.3-7.5l4-3c-0.3-1.8-0.3-3.6-0.1-5.4
		l-4.1-2.8l3-7.7l4.9,0.7c1.1-1.5,2.3-2.8,3.7-3.9l-1-4.9l7.5-3.3l3,4c1.8-0.3,3.6-0.3,5.4-0.1l2.8-4.1l7.7,3l-0.7,4.9
		c1.5,1.1,2.8,2.3,3.9,3.7l4.9-1l3.3,7.5L216.3,88.4L216.3,88.4L216.3,88.4z M204.5,88.3c-2-4.5-7.2-6.5-11.7-4.5s-6.5,7.2-4.5,11.7
		s7.2,6.5,11.7,4.5c0,0,0,0,0,0C204.5,98,206.5,92.8,204.5,88.3C204.5,88.4,204.5,88.4,204.5,88.3L204.5,88.3z"/>
	<path class="st2" d="M210.3,43.7c0.2,1.2,0.2,2.4,0.1,3.5l2.7,1.8l-2,5.1l-3.3-0.5c-0.7,1-1.5,1.8-2.4,2.6l0.6,3.2l-5,2.2l-2-2.6
		c-1.2,0.2-2.4,0.2-3.6,0.1l-1.8,2.7l-5.1-2l0.5-3.3c-1-0.7-1.8-1.5-2.6-2.5l-3.2,0.6l-2.2-5l2.6-2c-0.2-1.2-0.2-2.4-0.1-3.5
		l-2.6-1.7l2-5.1l3.3,0.5c0.7-1,1.5-1.8,2.4-2.6l-0.7-3.3l5-2.2l2,2.6c1.2-0.2,2.4-0.2,3.6-0.1l1.8-2.7l5.1,2L205,35
		c1,0.7,1.8,1.5,2.6,2.5l3.2-0.6l2.2,5L210.3,43.7L210.3,43.7L210.3,43.7z M202.5,43.7c-1.3-3-4.8-4.3-7.7-3s-4.3,4.8-3,7.7
		c1.3,3,4.8,4.3,7.7,3C202.4,50.1,203.8,46.7,202.5,43.7C202.5,43.7,202.5,43.7,202.5,43.7L202.5,43.7L202.5,43.7z"/>
	<path class="st1" d="M352.7,374.6c0.3,2.1,0.4,4.2,0.2,6.3l4.9,3.2l-3.5,9l-5.8-0.8c-1.2,1.7-2.7,3.2-4.3,4.6l1.1,5.7l-8.8,3.9
		l-3.4-4.7c-2.1,0.3-4.2,0.4-6.3,0.2l-3.3,4.9l-9-3.5l0.9-5.8c-1.7-1.2-3.2-2.7-4.6-4.3l-5.7,1.1l-4-8.9l4.7-3.5
		c-0.3-2.1-0.4-4.2-0.1-6.3l-4.9-3.2l3.5-9l5.8,0.9c1.2-1.7,2.7-3.2,4.4-4.6l-1.1-5.7l8.9-4l3.5,4.7c2.1-0.3,4.2-0.4,6.3-0.1
		l3.2-4.9l9,3.5l-0.8,5.8c1.7,1.2,3.2,2.7,4.6,4.4l5.7-1.1l3.9,8.8L352.7,374.6L352.7,374.6z M338.9,374.6
		c-2.3-5.2-8.5-7.6-13.7-5.3c-5.2,2.3-7.6,8.5-5.3,13.7c2.3,5.2,8.5,7.6,13.7,5.3l0,0C338.8,385.9,341.2,379.8,338.9,374.6
		L338.9,374.6z"/>
	<path class="st2" d="M329.4,428.2c0.2,1.2,0.2,2.5,0.1,3.7l2.8,1.9l-2,5.3l-3.4-0.5c-0.7,1-1.6,1.9-2.5,2.7l0.7,3.3l-5.1,2.3
		l-2-2.7c-1.2,0.2-2.5,0.2-3.7,0.1l-1.9,2.8l-5.3-2l0.5-3.4c-1-0.7-1.9-1.6-2.7-2.5l-3.3,0.7l-2.4-5.2l2.7-2
		c-0.2-1.2-0.2-2.5-0.1-3.7l-2.8-1.9l2-5.2l3.4,0.5c0.7-1,1.6-1.9,2.6-2.7l-0.7-3.3l5.1-2.3l2,2.7c1.2-0.2,2.5-0.2,3.7-0.1l1.9-2.8
		l5.2,2l-0.5,3.4c1,0.7,1.9,1.6,2.7,2.5l3.3-0.7l2.3,5.1L329.4,428.2L329.4,428.2L329.4,428.2z M321.3,428.2c-1.4-3-4.9-4.3-8-3
		c-3,1.4-4.3,4.9-3,8c1.4,3,4.8,4.3,7.8,3C321.3,434.8,322.7,431.3,321.3,428.2C321.3,428.2,321.3,428.2,321.3,428.2L321.3,428.2
		L321.3,428.2z"/>
	<path class="st3" d="M243.4,68.4c0.2,1.1,0.2,2.1,0.1,3.2l2.5,1.7l-1.8,4.6l-2.9-0.4c-0.6,0.9-1.4,1.7-2.2,2.3l0.6,2.9l-4.5,2
		l-1.8-2.4c-1.1,0.2-2.1,0.2-3.2,0.1l-1.7,2.5l-4.6-1.8l0.4-3c-0.9-0.6-1.7-1.3-2.3-2.2l-2.9,0.6l-2-4.5l2.4-1.8
		c-0.2-1.1-0.2-2.1-0.1-3.2l-2.5-1.7l1.8-4.6l3,0.4c0.6-0.9,1.4-1.7,2.2-2.3l-0.6-2.9l4.5-2l1.8,2.4c1.1-0.2,2.1-0.2,3.2-0.1
		l1.7-2.5l4.5,1.8l-0.4,3c0.9,0.6,1.6,1.4,2.3,2.2l2.9-0.6l2,4.5L243.4,68.4L243.4,68.4z M236.4,68.4c-1.2-2.7-4.3-3.8-7-2.7
		c-2.7,1.2-3.9,4.3-2.6,7c1.2,2.6,4.3,3.8,6.9,2.7C236.4,74.3,237.6,71.2,236.4,68.4C236.4,68.5,236.4,68.4,236.4,68.4L236.4,68.4
		L236.4,68.4z"/>
	<path class="st4" d="M420.9,400.9c3.7-1.8,8-2.3,12-1.5c2.2,0.4,4.5,1,5.9,2.6s1.8,4.5,0.1,5.9c-1.1,0.7-2.4,1.1-3.7,1
		c-3.2,0-6.7-0.6-9.2,1.3c-1.5,1.1-2.4,2.9-4.1,3.4c-1.8,0.4-3.6-0.4-4.5-2c-0.8-1.6-1-3.4-0.5-5.2
		C417.2,404.1,418.7,402,420.9,400.9L420.9,400.9z"/>
	<path class="st4" d="M412.5,384.7c2.2,3.2,6.6,2.1,8.6,0.2s2.9-4.8,3.6-7.5c1.8-6.1,3.6-12.6,2.2-18.9c-0.3-1.9-1.1-3.7-2.4-5.1
		c-1.3-1.5-3.3-2.1-5.2-1.7c-2.2,0.6-3.5,2.7-4.5,4.8c-2.9,6-4.4,12.6-4.4,19.3C410.4,378.9,410.8,382.1,412.5,384.7"/>
	<path class="st4" d="M406.4,389.3c2.3-3,3-7,1.8-10.7c-1.2-3.6-3.4-6.8-6.3-9.2c-3.3-2.9-7.2-5.2-11.3-6.7
		c-1.6-0.6-3.4-0.9-5.1-0.9c-1.8,0.1-3.4,1.1-4.3,2.6c-1.2,2.3,0,5,1.2,7.3c2.2,4,4.7,7.8,7.4,11.3c2.2,2.9,4.8,5.7,8.2,7
		s6.9,1.1,8.7-1.2"/>
	<path class="st5" d="M412.4,432.8c0.1-0.5,0.2-1,0.2-1.5c0.1-1.1,0.2-2.4,0.4-4c0.2-2,0.5-3.9,0.9-5.8c0.5-2.3,1.2-4.6,2.1-6.9
		c0.9-2.2,2-4.3,3.5-6.2c1.2-1.5,2.7-2.8,4.4-3.7c1.2-0.6,2.4-1,3.7-1.1c0.5,0,1-0.1,1.5-0.2c-0.5-0.1-1-0.1-1.5,0
		c-1.3,0.1-2.7,0.4-3.9,1c-1.8,0.9-3.4,2.1-4.7,3.7c-1.5,1.9-2.7,4-3.6,6.3c-0.9,2.3-1.6,4.6-2.1,7c-0.4,1.9-0.6,3.9-0.8,5.9
		c-0.1,1.7-0.2,3-0.2,4C412.3,431.9,412.3,432.4,412.4,432.8L412.4,432.8z"/>
	<path class="st5" d="M412.7,429.8c0-0.2,0-0.5,0-0.7v-1.9c0-1.7,0-4.1,0.1-7.1c0.1-6,0.7-12.4,1.6-21.4c0.9-8.5,2.2-18.4,3.5-24.9
		c0.3-1.5,0.6-2.8,0.9-3.9s0.5-2.1,0.7-3s0.3-1.4,0.5-1.9c0.1-0.2,0.1-0.4,0.1-0.7c-0.1,0.2-0.2,0.4-0.2,0.6
		c-0.1,0.5-0.3,1.1-0.6,1.8s-0.5,1.8-0.8,2.9s-0.6,2.5-0.9,3.9c-1.6,7.6-2.9,15.3-3.7,23.1c-1,9.1-1.4,17.3-1.5,23.3
		c0,3,0,5.4,0.1,7.1c0,0.8,0.1,1.4,0.1,1.9C412.5,429.3,412.6,429.5,412.7,429.8L412.7,429.8z"/>
	<path class="st5" d="M412.7,413.9c0-0.7,0-1.3,0-2c-0.1-1.3-0.2-3.2-0.6-5.4c-0.4-2.7-1-5.3-1.8-7.9c-0.9-3.2-2-6.4-3.3-9.4
		c-2.3-5.6-5.6-10.7-9.7-15.2c-0.7-0.8-1.5-1.5-2.3-2.1c-0.4-0.3-0.7-0.6-1-0.8l-0.9-0.6c-0.5-0.4-1.1-0.8-1.7-1.1
		c2,1.5,3.8,3.2,5.5,4.9c4,4.5,7.2,9.6,9.5,15.1c1.3,3,2.4,6.1,3.3,9.3c0.9,2.9,1.5,5.6,1.9,7.9s0.6,4.1,0.8,5.4
		C412.5,412.6,412.6,413.2,412.7,413.9L412.7,413.9z"/>
	<polygon class="st5" points="397.3,442 398.9,463.8 427,463.8 428.6,442 	"/>
	<rect x="394.6" y="433.3" class="st5" width="37.3" height="8.6"/>
	<polygon class="st4" points="394.6,463 394.6,465.4 396.4,465.4 431.3,465.4 431.3,463 	"/>
	<polygon class="st5" points="398.1,469.6 396.4,465.4 430,465.4 428,469.6 	"/>
	<path class="st6" d="M428.1,449.1c0,0.1-0.1,0.1-0.1,0.2l-0.4,0.6l-1.6,2.1l-0.1,0.1l-0.1-0.1l-4-5.5h0.3l-4,5.6l-0.1,0.2l-0.1-0.2
		l-4.7-5.6h0.3l-0.3,0.3l-4.2,5.3l-0.1,0.2l-0.1-0.2l-4-5.6h0.2L400,452l-0.1,0.1l-0.1-0.1l-1.5-2.6l-0.4-0.7c0-0.1-0.1-0.2-0.1-0.2
		c0.1,0.1,0.1,0.1,0.2,0.2c0.1,0.2,0.2,0.4,0.4,0.6l1.6,2.5h-0.1l4.8-5.6l0.1-0.1l0.1,0.2l4,5.6h-0.3l4.2-5.3l0.3-0.3l0.1-0.2
		l0.1,0.2l4.7,5.6h-0.3c1.4-2,2.8-3.9,4-5.6l0.1-0.2l0.1,0.2l3.9,5.6h-0.1l1.7-2l0.5-0.5C428,449.2,428.1,449.1,428.1,449.1
		L428.1,449.1z"/>
	<path class="st6" d="M429,441.8c0,0.1-7,0.2-15.7,0.2s-15.7-0.1-15.7-0.2s7-0.2,15.7-0.2S429,441.7,429,441.8z"/>
	<path class="st6" d="M430.4,465.6c0,0.1-7.6,0.2-17.1,0.2s-17.1-0.1-17.1-0.2s7.6-0.2,17.1-0.2S430.4,465.5,430.4,465.6z"/>
</g>
<g id="freepik--Floor--inject-6">
	<path class="st7" d="M462.5,470c0,0.1-95.1,0.3-212.5,0.3S37.5,470.2,37.5,470s95.1-0.3,212.5-0.3S462.5,469.9,462.5,470z"/>
</g>
<g id="freepik--Plant--inject-6">
	<rect x="88.1" y="422.6" class="st8" width="56.4" height="7.8"/>
	<path class="st8" d="M144.6,430.5H88v-7.9h56.6L144.6,430.5L144.6,430.5z M88.2,430.3h56.2v-7.6H88.2V430.3z"/>
	<polygon class="st8" points="93.3,427.8 101.5,467.9 131.5,467.9 139.4,430.4 	"/>
	<polygon class="st7" points="93.3,464.1 97.7,470.1 134.2,470.1 139.4,464.1 	"/>
	<path class="st8" d="M114.2,429c-0.1,0-0.2-18.6-0.3-41.5s0-41.5,0.1-41.5s0.2,18.6,0.3,41.5S114.3,429,114.2,429z"/>
	<path class="st8" d="M126.8,382.6c0,0.1-0.1,0.3-0.2,0.4l-0.5,1.2c-0.1,0.3-0.2,0.6-0.4,0.9s-0.2,0.7-0.4,1s-0.3,0.8-0.4,1.2
		s-0.3,0.9-0.4,1.4c-0.7,2.3-1.2,4.6-1.6,6.9c-0.4,2.9-0.7,5.8-0.9,8.6c-0.2,5.3-0.1,10.5,0.4,15.8c0.2,2,0.4,3.6,0.5,4.8l0.2,1.3
		c0,0.1,0,0.3,0,0.5c-0.1-0.1-0.1-0.3-0.1-0.5c-0.1-0.3-0.1-0.8-0.2-1.3c-0.2-1.1-0.4-2.8-0.6-4.8c-0.6-5.2-0.8-10.5-0.6-15.8
		c0.1-2.9,0.4-5.8,0.9-8.7c0.4-2.4,1-4.7,1.7-6.9c0.2-0.5,0.3-1,0.4-1.4s0.3-0.8,0.5-1.2s0.3-0.7,0.4-1s0.3-0.6,0.4-0.9l0.6-1.2
		C126.6,382.8,126.7,382.7,126.8,382.6z"/>
	<path class="st8" d="M125.3,367.6c-0.1,0.2-0.1,0.4-0.2,0.6c-0.1,0.4-0.3,1-0.6,1.7c-0.1,0.4-0.3,0.8-0.4,1.2l-0.4,1.5
		c-0.3,1.1-0.7,2.3-1.1,3.7c-0.2,0.7-0.4,1.4-0.6,2.1s-0.3,1.5-0.5,2.4c-0.4,1.6-0.7,3.4-1,5.2c-0.6,3.7-1.2,7.8-1.6,12.1
		s-0.5,8.4-0.6,12.1s0,7.1,0.2,9.9c0,1.4,0.2,2.7,0.2,3.8s0.1,2.1,0.2,2.9s0.1,1.4,0.1,1.8c0,0.2,0,0.4,0,0.6c0-0.2-0.1-0.4-0.1-0.6
		c-0.1-0.5-0.1-1-0.2-1.8s-0.2-1.8-0.3-2.9s-0.2-2.4-0.3-3.8c-0.2-2.8-0.3-6.2-0.3-10s0.2-7.9,0.5-12.2s0.9-8.4,1.6-12.1
		c0.4-1.8,0.7-3.6,1.1-5.2c0.2-0.8,0.4-1.6,0.6-2.4s0.4-1.5,0.6-2.1c0.4-1.4,0.8-2.6,1.1-3.7c0.2-0.5,0.3-1,0.5-1.5s0.3-0.9,0.5-1.2
		c0.3-0.7,0.5-1.3,0.7-1.7C125.2,368,125.2,367.8,125.3,367.6L125.3,367.6z"/>
	<path class="st8" d="M110.6,432.3c0-0.1,0-0.1,0-0.2v-0.6c0-0.6-0.1-1.4-0.2-2.5c-0.1-2.2-0.3-5.2-0.6-9
		c-0.5-7.6-1.2-18.2-2.5-29.8c-0.7-5.8-1.4-11.3-2.2-16.3c-0.4-2.5-0.8-4.9-1.2-7.1s-0.8-4.3-1.2-6.1s-0.8-3.6-1.1-5
		s-0.7-2.8-0.9-3.8s-0.4-1.8-0.6-2.4c0-0.3-0.1-0.5-0.1-0.6s0-0.2,0-0.2s0,0.1,0.1,0.2s0.1,0.4,0.2,0.6l0.7,2.4c0.3,1,0.6,2.3,1,3.8
		s0.8,3.1,1.2,5s0.9,3.9,1.3,6.1s0.8,4.6,1.3,7.1c0.8,5,1.6,10.5,2.2,16.3c1.3,11.6,1.9,22.2,2.4,29.8c0.2,3.8,0.3,6.9,0.4,9
		l0.1,2.5v0.9L110.6,432.3L110.6,432.3z"/>
	<path class="st9" d="M113.7,355c-0.2-2.6-2.9-4.6-5.5-4.6c-2.7,0.1-5.2,1.5-6.7,3.6c-1.5,2.2-2.6,4.6-3.2,7.2
		c-1.9,6.2-2.6,12.7-2,19.1c0.6,6.5,3.4,12.6,8,17.3c0.7,0.8,1.7,1.3,2.8,1.2c0.6-0.2,1.1-0.5,1.4-0.9c9.1-8.3,14.2-20.2,13.9-32.5
		c0.1-2.5-0.5-4.9-1.7-7C119.2,356.4,116.1,354.2,113.7,355"/>
	<path class="st10" d="M94,333.9l-3.7,6.7c-0.1,0.2-0.2,0.3-0.4,0.4s-0.3-0.2-0.4-0.3c-3.3-5-6.6-10.1-9.8-15.1l2.3-1.3L94,333.9
		L94,333.9z"/>
	<path class="st11" d="M94,333.9l-3.7,6.7c-0.1,0.2-0.2,0.3-0.4,0.4s-0.3-0.2-0.4-0.3c-3.3-5-6.6-10.1-9.8-15.1l2.3-1.3L94,333.9
		L94,333.9z"/>
	<path class="st9" d="M114,346.1l-33.6-19.8c-0.4-0.2-0.7-0.5-0.8-0.8c-0.1-0.5,0.2-1,0.6-1.4c4.7-4.8,11.2-7.4,17.9-7
		c6.7,0.5,12.8,4.2,16.2,10.1C117.6,333,117.7,340.6,114,346.1"/>
	<path class="st8" d="M85.3,320c0.1,0,0.3,0,0.4,0c0.4,0,0.8-0.1,1.3-0.1c1.6,0,3.1,0.1,4.7,0.4c10.4,1.8,18.9,9.4,21.7,19.6
		c0.4,1.5,0.7,3,0.8,4.6c0.1,0.5,0,0.7,0,1c0,0.3-0.1,0.5-0.3,0.7c0.1-0.6,0.1-1.1,0.1-1.7c-1.7-13.7-13.2-24.1-27-24.5
		C86.4,320,85.8,320,85.3,320z"/>
	<path class="st8" d="M109.4,332.4c-0.5,0.3-1.1,0.6-1.7,0.8c-1.1,0.4-2.6,1-4.2,1.5s-3.2,1-4.3,1.2c-0.6,0.2-1.2,0.3-1.8,0.4
		c0.6-0.3,1.2-0.5,1.8-0.6l4.3-1.3l4.3-1.4C108.2,332.7,108.8,332.5,109.4,332.4z"/>
	<path class="st8" d="M104.2,318.2c0.3,1.2,0.4,2.5,0.4,3.8c0.1,1.2,0,2.5-0.2,3.8c-0.2-1.2-0.2-2.5-0.2-3.7
		C104,320.7,104,319.5,104.2,318.2L104.2,318.2z"/>
	<path class="st8" d="M80.1,325.9c0.8-0.4,1.6-0.6,2.4-0.9c1.5-0.5,3.6-1.1,6-1.6s4.5-1,6.1-1.3c0.8-0.2,1.7-0.3,2.6-0.4
		c-0.8,0.3-1.7,0.5-2.5,0.6c-1.6,0.4-3.7,0.8-6.1,1.4s-4.5,1.1-6,1.5C81.8,325.6,81,325.8,80.1,325.9z"/>
	<path class="st9" d="M99.8,349.3c-2.9-2.2-5.9-2.6-9.6-2.5c-3.6,0.3-7.2,1.2-10.5,2.8c-5.7,2.5-11,6.1-14.4,11.3s-4.5,12-2,17.6
		c0.2,0.6,0.6,1.1,1.1,1.4c0.6,0.2,1.3,0.1,1.9-0.1c6.4-2.1,12.9-4.2,18.8-7.5s11.3-7.9,14.5-13.8c0.8-1.4,1.3-3,1.5-4.6
		C101.5,352.2,100.9,350.6,99.8,349.3"/>
	<path class="st8" d="M99.9,348.6l-0.5,0.2l-1.3,0.5l-1,0.3l-1.1,0.5c-0.8,0.3-1.8,0.7-2.8,1.1l-1.6,0.7c-0.6,0.2-1.1,0.6-1.7,0.9
		c-1.2,0.6-2.3,1.3-3.6,2c-2.7,1.7-5.2,3.6-7.6,5.6c-2.4,2.1-4.6,4.4-6.6,6.8c-0.9,1.1-1.8,2.2-2.5,3.3c-0.4,0.5-0.7,1-1.1,1.5
		l-0.9,1.5c-0.6,0.9-1.1,1.8-1.5,2.6c-0.2,0.4-0.4,0.7-0.6,1.1s-0.3,0.6-0.4,0.9l-0.6,1.3c-0.1,0.1-0.2,0.3-0.2,0.4
		c0.1-0.2,0.1-0.3,0.2-0.5l0.6-1.3l0.4-0.9l0.6-1.1c0.4-0.8,0.8-1.7,1.4-2.6l0.9-1.5c0.3-0.5,0.7-1,1-1.6c0.7-1.1,1.6-2.2,2.5-3.4
		c2-2.5,4.2-4.8,6.6-6.9c2.4-2.1,5-4,7.7-5.7c1.3-0.7,2.5-1.5,3.6-2c0.6-0.3,1.1-0.6,1.7-0.8l1.6-0.7c1-0.5,2-0.8,2.8-1.1
		c0.4-0.1,0.8-0.3,1.2-0.4l1-0.3l1.4-0.4C99.5,348.7,99.7,348.6,99.9,348.6L99.9,348.6z"/>
	<path class="st8" d="M77.3,360.8c-2.3,0.9-4.6,1.6-7,2.3c-2.3,0.8-4.7,1.4-7.1,1.9c2.3-0.9,4.6-1.6,7-2.3
		C72.5,361.9,74.9,361.3,77.3,360.8z"/>
	<path class="st8" d="M77.1,376.3c-0.1-0.7-0.2-1.5-0.2-2.2v-5.3c0-2.1,0.2-3.9,0.3-5.3c0-0.7,0.1-1.5,0.3-2.2
		c0.1,0.7,0.1,1.5,0,2.2c0,1.5-0.1,3.3-0.2,5.3s-0.1,3.8-0.1,5.3C77.2,374.8,77.1,375.6,77.1,376.3L77.1,376.3z"/>
	<path class="st8" d="M90.3,369.6c-0.1,0-0.5-3.8-0.8-8.5s-0.5-8.5-0.4-8.5s0.5,3.8,0.8,8.5S90.4,369.6,90.3,369.6z"/>
	<path class="st8" d="M73.8,352.2c0.8-0.1,1.5-0.1,2.2-0.1c1.4,0,3.3,0,5.4,0.1s4,0.2,5.4,0.2c0.8,0,1.5,0.1,2.2,0.2
		c-0.8,0.1-1.5,0.1-2.2,0.1c-1.4,0-3.3,0-5.4-0.1s-4-0.2-5.4-0.2C75.3,352.4,74.5,352.3,73.8,352.2z"/>
	<path class="st8" d="M105.7,398.4c0-0.1-0.1-0.3-0.1-0.5c0-0.3,0-0.8-0.1-1.3c-0.1-1.1-0.1-2.7,0-4.8s0.2-4.4,0.4-7
		s0.6-5.5,1.2-8.5s1.2-5.9,1.9-8.4s1.4-4.9,2.1-6.8s1.2-3.4,1.7-4.5l0.5-1.2c0.1-0.1,0.1-0.3,0.2-0.4c0,0.1-0.1,0.3-0.1,0.4
		c-0.1,0.3-0.3,0.7-0.4,1.2c-0.4,1-0.9,2.6-1.6,4.5s-1.3,4.2-2,6.8s-1.3,5.4-1.9,8.4s-0.9,5.9-1.2,8.5s-0.4,5-0.5,7
		s-0.1,3.6-0.1,4.7v1.3C105.7,398.1,105.7,398.3,105.7,398.4z"/>
	<path class="st8" d="M107.4,376.4c-0.4,0.5-0.8,1-1.3,1.5c-0.9,0.9-2.1,2-3.5,3.3s-2.7,2.3-3.7,3c-0.5,0.4-1.1,0.8-1.6,1.1
		c0.4-0.5,0.9-1,1.4-1.4l3.6-3.1l3.6-3.2C106.3,377.2,106.9,376.8,107.4,376.4L107.4,376.4z"/>
	<path class="st8" d="M118,385c-0.5-0.6-1-1.3-1.4-2l-3.3-4.8c-1.3-1.8-2.4-3.5-3.4-4.8c-0.5-0.6-1-1.3-1.4-2
		c0.6,0.6,1.1,1.2,1.6,1.9c0.9,1.2,2.2,2.8,3.5,4.7s2.4,3.6,3.2,4.9C117.3,383.5,117.7,384.2,118,385z"/>
	<path class="st8" d="M112.5,358.1c0.1,0.1-3.5,2.5-7.9,5.3s-8,5.1-8.1,5s3.5-2.5,7.9-5.3S112.4,358,112.5,358.1z"/>
	<path class="st8" d="M122.4,368.8c-1.9-1.5-3.7-3.2-5.3-4.9c-1.8-1.6-3.4-3.4-5-5.2c1.9,1.5,3.6,3.2,5.3,4.9
		C119.2,365.3,120.9,367,122.4,368.8z"/>
	<path class="st9" d="M124.9,368.6l3-0.2c2.1-0.2,4.2-0.8,6.1-1.9c0.9-0.5,1.9-1,2.9-1.4c3.8-1.5,7.9-1.2,12-1.4
		c6.6-0.3,13.1-2,19-4.9c0.4-0.2,0.6-0.4,0.8-0.8c0.6-1.1-0.5-2.1-1.5-2.8c-5.1-3.1-10.3-6.3-16.1-7.9s-12.4-1.3-17.3,2.1
		C128,353.4,125.9,361.6,124.9,368.6"/>
	<path class="st8" d="M168.8,357.6c-0.2-0.1-0.4-0.1-0.5-0.2l-1.4-0.8c-1.2-0.6-3-1.6-5.3-2.7c-2.6-1.3-5.4-2.4-8.2-3.2
		c-3.4-1-7.1-1.3-10.6-0.9c-3.6,0.4-6.9,1.9-9.7,4.2c-2.1,2-3.8,4.4-5,7.1c-0.8,1.8-1.6,3.6-2.2,5.5c-0.2,0.6-0.4,1.1-0.5,1.5
		c-0.1,0.2-0.1,0.4-0.2,0.5c0-0.2,0.1-0.4,0.1-0.5c0.1-0.4,0.3-0.9,0.5-1.5c0.6-1.9,1.3-3.8,2.1-5.6c1.2-2.7,2.9-5.2,5.1-7.2
		c2.8-2.4,6.2-3.9,9.9-4.3c3.6-0.4,7.3-0.1,10.8,0.9c2.8,0.8,5.6,1.9,8.2,3.3c2.3,1.1,4,2.1,5.2,2.8l1.4,0.8
		C168.5,357.4,168.6,357.5,168.8,357.6L168.8,357.6z"/>
	<path class="st8" d="M161.5,361.6c-0.1,0.1-4-2.5-8.9-5.7s-8.7-6-8.6-6.1s4,2.5,8.9,5.7S161.6,361.5,161.5,361.6z"/>
	<path class="st8" d="M157.3,349.6c-0.9,0.3-1.9,0.5-2.9,0.5c-1,0.1-2,0.1-2.9,0c1-0.2,1.9-0.3,2.9-0.3
		C155.3,349.6,156.3,349.6,157.3,349.6L157.3,349.6z"/>
	<path class="st8" d="M139.9,347.3c-0.3,0.7-0.8,1.4-1.3,2c-0.4,0.7-1,1.3-1.6,1.9c0.3-0.7,0.8-1.4,1.3-2
		C138.7,348.5,139.3,347.8,139.9,347.3L139.9,347.3z"/>
	<path class="st8" d="M143.5,363.9c-0.7-0.3-1.3-0.6-1.9-1c-1.1-0.7-2.7-1.7-4.3-2.9s-3.1-2.3-4.2-3.2c-0.6-0.4-1.1-0.9-1.6-1.4
		c0.6,0.3,1.2,0.7,1.8,1.2l4.2,3.1c1.6,1.2,3.2,2.2,4.3,3C142.3,363,142.9,363.4,143.5,363.9L143.5,363.9z"/>
	<path class="st9" d="M129.4,381.5c-2.9-0.8-6.3,2-6.9,5s0.5,5.9,1.8,8.6c2.8,6,6.8,11.4,11.9,15.6c5.1,4.2,11.6,6.6,18.3,6.7
		c-1.2-5.7,0.3-11.6-0.4-17.4c-1.2-10.5-9.5-18.7-20-19.8C132.2,380.1,130.1,379.8,129.4,381.5"/>
	<path class="st8" d="M154.4,417.4c-0.1,0-0.3-0.1-0.4-0.2c-0.4-0.2-0.7-0.5-1.1-0.7c-1.2-1.1-2.2-2.4-2.9-3.8
		c-0.5-0.9-1-1.9-1.5-2.9s-1-2.2-1.6-3.4c-0.6-1.3-1.2-2.5-1.9-3.7c-0.8-1.3-1.7-2.5-2.6-3.6c-2-2.3-4.1-4.3-5.9-6.2
		c-1.7-1.7-3.2-3.5-4.5-5.4c-0.9-1.3-1.6-2.7-2.2-4.2c-0.1-0.4-0.3-0.8-0.4-1.2c-0.1-0.1-0.1-0.3-0.1-0.5c0,0,0.2,0.6,0.6,1.6
		c0.6,1.5,1.4,2.8,2.3,4.1c1.4,1.9,2.9,3.7,4.6,5.3c1.9,1.9,4,3.9,6,6.2c1,1.1,1.9,2.4,2.7,3.6c0.7,1.2,1.4,2.5,1.9,3.7
		c0.5,1.2,1,2.4,1.5,3.4s1,2,1.4,3c0.6,1.5,1.6,2.8,2.7,3.8C153.9,417.1,154.5,417.4,154.4,417.4L154.4,417.4z"/>
	<path class="st8" d="M139.5,412.7c0-0.6,0.1-1.3,0.3-1.9c0.2-1.2,0.6-2.8,1.1-4.6s1-3.4,1.5-4.5c0.2-0.6,0.5-1.2,0.8-1.8
		c-0.1,0.6-0.3,1.3-0.5,1.9c-0.4,1.1-0.9,2.7-1.4,4.5s-0.9,3.4-1.2,4.6C139.9,411.5,139.7,412.1,139.5,412.7L139.5,412.7z"/>
	<path class="st8" d="M153.9,398.8c-0.7-0.1-1.4-0.2-2-0.5c-1.2-0.3-3-0.8-4.9-1.2s-3.7-0.8-4.9-1c-0.7-0.1-1.4-0.2-2-0.5
		c0.7,0,1.4,0,2.1,0.2c1.3,0.2,3,0.5,5,0.9s3.6,0.9,4.9,1.3C152.7,398.2,153.3,398.5,153.9,398.8L153.9,398.8z"/>
	<path class="st8" d="M128.8,402.8c0-0.8,0.1-1.5,0.3-2.2c0.3-1.4,0.7-3.3,1.2-5.3s1.1-3.9,1.6-5.2c0.2-0.7,0.5-1.4,0.8-2.1
		c-0.1,0.8-0.3,1.5-0.6,2.2c-0.4,1.4-0.9,3.2-1.4,5.3s-1,3.9-1.3,5.3C129.2,401.4,129.1,402.1,128.8,402.8L128.8,402.8z"/>
	<path class="st8" d="M147.3,386.6c0,0.1-3.6-0.2-8.1-0.6s-8-0.9-8-1c2.7,0.1,5.4,0.3,8,0.6C143.7,386.1,147.3,386.6,147.3,386.6z"
		/>
	<path class="st7" d="M144.6,430.4c0,0.1-12.7,0.2-28.3,0.2S88,430.5,88,430.4s12.7-0.2,28.3-0.2S144.6,430.3,144.6,430.4z"/>
	<path class="st7" d="M135.8,446.7c0,0.1-8.5,0.2-19.1,0.2s-19.1-0.1-19.1-0.2s8.5-0.2,19.1-0.2S135.8,446.6,135.8,446.7z"/>
	<path class="st7" d="M135.5,449c0,0.1-8.4,0.2-18.7,0.2S98,449.1,98,449s8.4-0.2,18.7-0.2S135.5,448.9,135.5,449z"/>
	<path class="st7" d="M136.1,444.8c0,0.1-8.8,0.2-19.7,0.2s-19.7-0.1-19.7-0.2s8.8-0.2,19.7-0.2S136.1,444.6,136.1,444.8z"/>
</g>
<g id="freepik--Screens--inject-6">
	<path class="st0" d="M149.2,125.9h-6.5c-0.7-0.1-1.4,0-2,0.2c-0.6,0.3-1.2,0.7-1.5,1.4c-0.2,0.3-0.3,0.6-0.4,1c0,0.4,0,0.8,0,1.1
		v1.2c0,0.4,0,0.8-0.1,1.2c-0.2,0.9-0.7,1.6-1.4,2.1c-0.4,0.3-0.8,0.4-1.3,0.5h-24.8c-0.3,0-0.6,0-0.9-0.1c-0.6-0.2-1.2-0.5-1.6-1
		c-0.4-0.5-0.7-1.1-0.8-1.8c0-0.3,0-0.7,0-1v-1c0.1-0.6,0-1.3-0.2-1.9c-0.2-0.6-0.6-1.1-1.2-1.5c-0.6-0.4-1.2-0.6-1.9-0.5H89.8
		c-3.1-0.1-6,1.2-8,3.5c-1,1.2-1.7,2.6-2,4.1c-0.1,0.4-0.2,0.8-0.2,1.2v159.8c0,1.1,0.1,2.1,0.4,3.1c0.6,2.1,2,4,3.8,5.3
		c1.9,1.2,4.1,1.9,6.3,1.7h65c2.1-0.1,4-0.9,5.6-2.2c0.8-0.6,1.4-1.4,2-2.2s1-1.8,1.2-2.7c0.3-1,0.4-2,0.4-3v-14.7
		c0-31.2,0-59.4,0.1-83s0-42.8,0.1-56V136c0-1.4-0.2-2.7-0.7-4c-0.4-1.1-1.1-2.1-1.9-2.9c-0.6-0.7-1.4-1.3-2.2-1.8
		c-1.1-0.7-2.4-1.1-3.7-1.3c-0.3-0.1-0.7-0.1-1-0.1L149.2,125.9L149.2,125.9L149.2,125.9z"/>
	<path class="st8" d="M154.6,126h0.3c0.3,0,0.7,0,1,0.1c2.3,0.3,4.4,1.4,6,3.1c0.8,0.9,1.4,1.9,1.9,3c0.5,1.3,0.8,2.6,0.7,4v158.5
		c0,1-0.1,2-0.4,3c-0.2,1-0.6,2-1.2,2.8c-0.6,0.9-1.3,1.6-2.1,2.3c-1.6,1.3-3.6,2.1-5.7,2.2c-2.1,0.1-4.1,0-6.2,0H90.4
		c-2.3,0.1-4.5-0.5-6.4-1.8c-1.9-1.3-3.3-3.2-4-5.4c-0.3-1.1-0.4-2.2-0.4-3.4V136.1c0-0.4,0-0.8,0.1-1.2s0.1-0.8,0.2-1.2
		c0.4-1.5,1.1-3,2.1-4.2c2-2.4,5-3.7,8.1-3.6h15c0.7,0,1.4,0.2,2,0.6c0.6,0.4,1,0.9,1.2,1.6c0.2,0.6,0.3,1.3,0.2,2v1
		c0,0.3,0,0.6,0,0.9c0.1,0.6,0.3,1.2,0.7,1.7c0.4,0.5,0.9,0.8,1.5,0.9c0.3,0.1,0.6,0.1,0.9,0.1h24.6c0.4-0.1,0.8-0.2,1.2-0.4
		c0.7-0.4,1.2-1.2,1.4-2c0.1-0.4,0.1-0.8,0.1-1.2v-1.2c0-0.4,0-0.8,0.1-1.2c0.1-0.4,0.2-0.7,0.4-1.1c0.3-0.6,0.9-1.1,1.6-1.4
		c0.6-0.2,1.3-0.3,2-0.2h0c-0.6-0.1-1.3,0-1.9,0.2c-0.6,0.3-1.2,0.8-1.5,1.4c-0.2,0.3-0.3,0.7-0.4,1c-0.1,0.4-0.1,0.8-0.1,1.1v1.2
		c0,0.4,0,0.8-0.1,1.2c-0.2,0.9-0.7,1.6-1.4,2.1c-0.4,0.2-0.8,0.4-1.3,0.4h-24.7c-0.3,0-0.6,0-0.9-0.1c-0.6-0.2-1.2-0.5-1.6-1
		s-0.7-1.1-0.8-1.7c0-0.3,0-0.7,0-1v-1c0.1-0.6,0-1.3-0.2-1.9c-0.2-0.6-0.6-1.1-1.2-1.5c-0.5-0.4-1.2-0.6-1.8-0.5H90.1
		c-3.1-0.1-6,1.3-7.9,3.6c-1,1.2-1.7,2.6-2,4.1c-0.1,0.4-0.1,0.8-0.2,1.2s0,0.8,0,1.2v158.5c0,1.1,0.1,2.2,0.4,3.3
		c0.6,2.1,2,4,3.8,5.3c1.9,1.2,4.1,1.9,6.3,1.7h64.8c2-0.1,4-0.9,5.6-2.2c0.8-0.6,1.4-1.4,2-2.2c0.6-0.8,1-1.8,1.2-2.7
		c0.3-1,0.4-2,0.4-3v-97.9c0-23.6,0-42.8,0.1-56v-4.7c0-1.4-0.2-2.7-0.7-4c-0.4-1.1-1.1-2.1-1.9-2.9c-1.6-1.7-3.7-2.8-5.9-3.1
		c-0.3-0.1-0.7-0.1-1-0.1L154.6,126L154.6,126z"/>
	<path class="st8" d="M156.5,142.1c0,0-1.6,0.1-3.7,0.1s-3.7,0-3.7,0s1.6-0.1,3.7-0.1S156.5,142,156.5,142.1z"/>
	<path class="st8" d="M156.5,143.9c0,0-1.6,0.1-3.7,0.1s-3.7,0-3.7,0s1.6-0.1,3.7-0.1S156.5,143.9,156.5,143.9L156.5,143.9z"/>
	<path class="st8" d="M156.6,145.8c0,0-1.6,0.1-3.7,0.1s-3.7,0-3.7,0s1.6-0.1,3.7-0.1S156.6,145.8,156.6,145.8z"/>
	<path class="st8" d="M89.9,147.9H92v-1.8c0.1-0.3,0.3-0.4,0.5-0.5h0.7c0.3,0,0.5,0.3,0.5,0.6v1.7l-0.1-0.1h2l-0.1,0.1v-3.1
		c0-0.2-0.1-0.4-0.3-0.5l-0.9-0.9l-0.8-0.8l-0.4-0.4c-0.1-0.1-0.2-0.3-0.4-0.3c-0.2,0-0.3,0-0.4,0.1c-0.1,0.1-0.2,0.2-0.4,0.4
		l-0.7,0.7c-0.4,0.5-0.9,0.9-1.2,1.3c-0.1,0.2-0.1,0.5-0.1,0.7v2.5c0,0.1,0,0.2,0,0.3c0-0.1,0-0.2,0-0.2v-2.9c0-0.1,0-0.3,0.1-0.4
		c0.4-0.4,0.8-0.9,1.2-1.3l0.7-0.7c0.1-0.1,0.2-0.2,0.4-0.4c0.2-0.1,0.4-0.2,0.6-0.1c0.2,0.1,0.3,0.2,0.5,0.3l0.4,0.4l0.8,0.8
		l0.9,0.9c0.1,0.1,0.2,0.1,0.2,0.2c0.1,0.1,0.1,0.2,0.1,0.3v3.2h-2.3v-1.7c0-0.2-0.2-0.4-0.4-0.5h-0.7c-0.2,0-0.4,0.2-0.4,0.4v1.8
		L89.9,147.9L89.9,147.9z"/>
	<path class="st8" d="M139.6,213.6c0,0.3-7.9,0.5-17.5,0.5s-17.5-0.2-17.5-0.5s7.8-0.5,17.5-0.5S139.6,213.3,139.6,213.6z"/>
	
		<rect x="105.2" y="162.2" transform="matrix(5.585019e-03 -1 1 5.585019e-03 -63.3292 305.9644)" class="st11" width="34" height="45.3"/>
	<polygon class="st10" points="99.4,201.7 115.4,180.6 125.1,193.9 131.8,186.9 144.7,202 	"/>
	<path class="st10" d="M129.3,178.1c0,2-1.6,3.6-3.6,3.5c-2,0-3.6-1.6-3.5-3.6c0-2,1.6-3.5,3.6-3.5
		C127.8,174.6,129.3,176.2,129.3,178.1C129.3,178.1,129.3,178.1,129.3,178.1z"/>
	<polygon class="st12" points="99.4,201.7 115.4,180.6 125.1,193.9 131.8,186.9 144.7,202 	"/>
	<path class="st12" d="M129.3,178.1c0,2-1.6,3.6-3.6,3.5c-2,0-3.6-1.6-3.5-3.6c0-2,1.6-3.5,3.6-3.5
		C127.8,174.6,129.3,176.2,129.3,178.1C129.3,178.1,129.3,178.1,129.3,178.1z"/>
	<path class="st8" d="M153.3,226.1c0,0.3-13.9,0.5-31.1,0.5s-31.1-0.2-31.1-0.5s13.9-0.5,31.1-0.5S153.3,225.8,153.3,226.1z"/>
	<path class="st8" d="M153.3,234.8c0,0.3-13.9,0.5-31.1,0.5s-31.1-0.2-31.1-0.5s13.9-0.5,31.1-0.5S153.3,234.5,153.3,234.8z"/>
	<path class="st8" d="M153.3,243.4c0,0.3-13.9,0.5-31.1,0.5s-31.1-0.2-31.1-0.5s13.9-0.5,31.1-0.5S153.3,243.1,153.3,243.4z"/>
	<path class="st8" d="M153.3,252.1c0,0.3-13.9,0.5-31.1,0.5s-31.1-0.2-31.1-0.5s13.9-0.5,31.1-0.5S153.3,251.8,153.3,252.1z"/>
	<path class="st8" d="M153.3,260.8c0,0.3-13.9,0.5-31.1,0.5s-31.1-0.2-31.1-0.5s13.9-0.5,31.1-0.5S153.3,260.5,153.3,260.8z"/>
	<path class="st8" d="M139.9,268.7c0,0.1-2,0.3-5.2,0.4s-7.7,0.1-12.6,0.1s-9.4,0-12.6-0.1s-5.2-0.2-5.2-0.4s2-0.3,5.2-0.4
		s7.7-0.1,12.6-0.1s9.4,0,12.6,0.1S139.9,268.6,139.9,268.7z"/>
	<path class="st0" d="M211.3,111.3h-7.2c-0.7-0.1-1.4,0-2.1,0.2c-0.7,0.3-1.3,0.8-1.7,1.5c-0.2,0.4-0.3,0.8-0.4,1.2
		c-0.1,0.4-0.1,0.8-0.1,1.3v1.3c0,0.5,0,0.9-0.1,1.4c-0.2,0.9-0.8,1.8-1.6,2.3c-0.4,0.3-0.9,0.4-1.4,0.5h-27.5c-0.3,0-0.7,0-1-0.1
		c-0.7-0.2-1.3-0.6-1.8-1.1c-0.5-0.6-0.8-1.3-0.9-2c0-0.4,0-0.7,0-1.1v-1.1c0.1-0.7,0-1.4-0.2-2.1c-0.2-0.7-0.7-1.3-1.3-1.7
		c-0.6-0.4-1.3-0.6-2.1-0.6h-16.7c-3.4-0.1-6.7,1.3-8.8,3.9c-1.1,1.3-1.9,2.9-2.3,4.6c-0.1,0.4-0.1,0.9-0.2,1.3s0,0.7-0.1,1.1v177.2
		c0,1.2,0.1,2.4,0.4,3.5c0.7,2.4,2.2,4.5,4.3,5.9c2.1,1.4,4.5,2.1,7,1.9h72.2c2.3-0.1,4.4-1,6.2-2.4c0.9-0.7,1.6-1.6,2.2-2.5
		c0.6-0.9,1.1-1.9,1.4-3c0.3-1.1,0.4-2.2,0.4-3.3v-16.6c0-34.9,0-66.2,0.1-92.6s0-47.7,0.1-62.4v-5.2c0-1.5-0.2-3-0.8-4.5
		c-0.5-1.2-1.2-2.3-2.1-3.3c-0.7-0.8-1.6-1.5-2.5-2.1c-1.2-0.8-2.7-1.3-4.1-1.4c-0.4-0.1-0.7-0.1-1.1-0.1L211.3,111.3L211.3,111.3z"
		/>
	<path class="st8" d="M217.3,111.2h0.4c0.4,0,0.8,0,1.1,0.1c2.6,0.3,4.9,1.6,6.7,3.5c0.9,1,1.6,2.1,2.1,3.3c0.6,1.4,0.9,3,0.8,4.5
		v176.8c0,1.1-0.1,2.3-0.4,3.4c-0.3,1.1-0.8,2.2-1.4,3.1c-0.6,1-1.4,1.8-2.3,2.6c-1.8,1.5-4.1,2.3-6.4,2.5c-2.3,0.1-4.6,0-7,0h-65.2
		c-2.6,0.1-5.1-0.6-7.2-2c-2.1-1.5-3.6-3.6-4.4-6.1c-0.4-1.2-0.5-2.5-0.5-3.7V122.4c0-0.4,0-0.9,0.1-1.3s0.1-0.9,0.2-1.3
		c0.4-1.7,1.2-3.3,2.3-4.7c1.1-1.3,2.5-2.4,4.1-3.1c1.6-0.7,3.2-1,4.9-0.9h16.6c0.8,0,1.5,0.2,2.2,0.6c0.6,0.4,1.1,1.1,1.4,1.8
		c0.2,0.7,0.3,1.4,0.2,2.2v1.1c0,0.3,0,0.7,0,1c0.1,0.7,0.4,1.3,0.8,1.9c0.4,0.5,1,0.8,1.7,1c0.3,0.1,0.7,0.1,1,0.1h27.5
		c0.5-0.1,0.9-0.2,1.4-0.5c0.8-0.5,1.4-1.3,1.6-2.2c0.1-0.4,0.1-0.9,0.1-1.3v-1.3c0-0.4,0-0.9,0.1-1.3c0.1-0.4,0.2-0.8,0.4-1.2
		c0.4-0.7,1-1.3,1.8-1.6c0.7-0.2,1.5-0.3,2.2-0.2h0.1c-0.7-0.1-1.5,0-2.2,0.2c-0.7,0.3-1.3,0.8-1.7,1.5c-0.2,0.4-0.3,0.8-0.4,1.2
		c0,0.4,0,0.8,0,1.3v1.3c0,0.5,0,0.9-0.1,1.4c-0.2,1-0.8,1.8-1.6,2.3c-0.4,0.3-0.9,0.4-1.4,0.5h-27.5c-0.3,0-0.7,0-1-0.1
		c-0.7-0.2-1.3-0.6-1.8-1.1c-0.5-0.6-0.8-1.2-0.9-1.9c0-0.4,0-0.7,0-1.1v-0.8c0.1-0.7,0-1.4-0.2-2.1c-0.3-0.7-0.8-1.3-1.4-1.7
		c-0.6-0.4-1.3-0.6-2.1-0.6h-16.6c-3.4-0.1-6.7,1.3-8.9,3.9c-1.1,1.3-1.9,2.9-2.3,4.6c-0.1,0.4-0.1,0.9-0.2,1.3s0,0.9-0.1,1.3v176.8
		c0,1.2,0.1,2.5,0.4,3.6c0.7,2.4,2.2,4.5,4.3,5.9c2.1,1.4,4.5,2.1,7,1.9h72.3c2.3-0.1,4.4-1,6.2-2.4c0.9-0.7,1.6-1.6,2.2-2.5
		c0.6-0.9,1.1-1.9,1.4-3s0.4-2.2,0.4-3.3v-16.6c0-34.8,0-66.2,0.1-92.6s0-47.7,0.1-62.4v-5.2c0-1.5-0.2-3-0.8-4.5
		c-0.5-1.2-1.2-2.3-2.1-3.3c-0.7-0.8-1.6-1.5-2.5-2c-1.6-0.9-3.4-1.5-5.2-1.6L217.3,111.2L217.3,111.2z"/>
	<path class="st8" d="M219.4,129.1c0,0-1.8,0.1-4.1,0.1s-4.1,0-4.1,0s1.8-0.1,4.1-0.1S219.4,129.1,219.4,129.1z"/>
	<path class="st8" d="M219.4,131.2c0,0-1.8,0.1-4.1,0.1s-4.1,0-4.1-0.1s1.8-0.1,4.1-0.1S219.4,131.2,219.4,131.2z"/>
	<path class="st8" d="M219.4,133.3c0,0-1.8,0.1-4.1,0.1s-4.1,0-4.1,0s1.8-0.1,4.1-0.1S219.4,133.3,219.4,133.3z"/>
	<path class="st8" d="M145.1,135.7h2.4v-2c0.1-0.3,0.3-0.5,0.6-0.5c0.3,0,0.6,0,0.8,0c0.3,0.1,0.6,0.3,0.6,0.7v1.8l-0.1-0.1h2.2
		l-0.1,0.1v-3.4c0-0.2-0.1-0.4-0.3-0.5l-1-1l-0.9-0.9l-0.4-0.4c-0.1-0.1-0.3-0.3-0.5-0.3c-0.2-0.1-0.4,0-0.5,0.1
		c-0.1,0.1-0.3,0.3-0.4,0.4l-0.8,0.8c-0.5,0.5-1,1-1.4,1.4c-0.1,0.3-0.1,0.5-0.1,0.8v-0.4c0-0.2,0-0.3,0.1-0.5
		c0.4-0.5,0.9-0.9,1.4-1.5l0.8-0.8c0.1-0.1,0.3-0.3,0.4-0.4c0.2-0.1,0.4-0.2,0.6-0.1c0.2,0.1,0.4,0.2,0.5,0.4l0.4,0.4
		c0.3,0.3,0.6,0.6,0.9,0.9l1,1c0.1,0.1,0.2,0.2,0.2,0.3c0.1,0.1,0.1,0.2,0.1,0.4v3.5h-2.4v-1.9c0-0.3-0.2-0.5-0.4-0.5h-0.8
		c-0.2,0-0.4,0.2-0.5,0.4v2h-2.4L145.1,135.7L145.1,135.7z"/>
	<path class="st11" d="M189.6,147.2c0,4.1-3.3,7.4-7.4,7.4c-4.1,0-7.4-3.3-7.4-7.4c0-4.1,3.3-7.4,7.4-7.4c0,0,0,0,0,0
		C186.3,139.8,189.6,143.1,189.6,147.2z"/>
	<path class="st13" d="M184.8,150.1h-5.1v-0.6c0-1.4,1.1-2.5,2.5-2.5l0,0c1.4,0,2.5,1.1,2.5,2.5V150.1z"/>
	<path class="st13" d="M183.7,145.7c0,0.8-0.7,1.5-1.5,1.5s-1.5-0.7-1.5-1.5s0.7-1.5,1.5-1.5l0,0C183,144.2,183.7,144.8,183.7,145.7
		C183.7,145.7,183.7,145.7,183.7,145.7L183.7,145.7z"/>
	<path class="st8" d="M200.6,166.7c0,0.3-8.8,0.6-19.5,0.6s-19.6-0.3-19.6-0.6s8.8-0.6,19.6-0.6S200.6,166.3,200.6,166.7z"/>
	
		<rect x="145.3" y="182" transform="matrix(5.585019e-03 -1 1 5.585019e-03 -41.7481 355.7242)" class="st11" width="25.4" height="33.8"/>
	<polygon class="st10" points="141,211.4 152.9,195.7 160.1,205.6 165.1,200.4 174.8,211.6 	"/>
	<path class="st10" d="M163.3,193.9c0,1.5-1.2,2.7-2.7,2.6c-1.5,0-2.7-1.2-2.6-2.7c0-1.5,1.2-2.7,2.7-2.6l0,0
		C162.1,191.2,163.3,192.4,163.3,193.9L163.3,193.9z"/>
	<polygon class="st12" points="141,211.4 152.9,195.7 160.1,205.6 165.1,200.4 174.8,211.6 	"/>
	<path class="st12" d="M163.3,193.9c0,1.5-1.2,2.7-2.7,2.6c-1.5,0-2.7-1.2-2.6-2.7c0-1.5,1.2-2.7,2.7-2.6l0,0
		C162.1,191.2,163.3,192.4,163.3,193.9L163.3,193.9z"/>
	
		<rect x="150.6" y="209.8" transform="matrix(5.585019e-03 -1 1 5.585019e-03 -69.9124 427.3108)" class="st11" width="58.6" height="78"/>
	<polygon class="st10" points="140.7,277.9 168.2,241.6 184.9,264.5 196.4,252.4 218.7,278.3 	"/>
	<path class="st10" d="M192.2,237.3c0,3.4-2.8,6.1-6.2,6.1s-6.1-2.8-6.1-6.2s2.8-6.1,6.2-6.1l0,0
		C189.5,231.1,192.2,233.9,192.2,237.3C192.2,237.3,192.2,237.3,192.2,237.3L192.2,237.3z"/>
	<polygon class="st12" points="140.7,277.9 168.2,241.6 184.9,264.5 196.4,252.4 218.7,278.3 	"/>
	<path class="st12" d="M192.2,237.3c0,3.4-2.8,6.1-6.2,6.1s-6.1-2.8-6.1-6.2s2.8-6.1,6.2-6.1l0,0
		C189.5,231.1,192.2,233.9,192.2,237.3C192.2,237.3,192.2,237.3,192.2,237.3L192.2,237.3z"/>
	
		<rect x="189.9" y="182" transform="matrix(5.585019e-03 -1 1 5.585019e-03 2.5512 400.273)" class="st11" width="25.4" height="33.8"/>
	<polygon class="st10" points="185.6,211.4 197.5,195.7 204.7,205.6 209.7,200.4 219.3,211.6 	"/>
	<circle class="st10" cx="205.2" cy="193.9" r="2.7"/>
	<polygon class="st12" points="185.6,211.4 197.5,195.7 204.7,205.6 209.7,200.4 219.3,211.6 	"/>
	<g class="st14">
		<circle cx="205.2" cy="193.9" r="2.7"/>
	</g>
	<path class="st0" d="M420.8,121.2h-6.4c-0.6-0.1-1.3,0-1.9,0.2c-1,0.4-1.7,1.3-1.9,2.4c0,0.4-0.1,0.8,0,1.1v1.2
		c0,0.4,0,0.8-0.1,1.2c-0.2,0.9-0.7,1.6-1.5,2.1c-0.4,0.2-0.8,0.4-1.3,0.4H383c-0.3,0-0.6,0-0.9-0.1c-0.6-0.2-1.2-0.5-1.6-1
		c-0.4-0.5-0.7-1.1-0.8-1.8c0-0.3,0-0.7,0-1v-1c0.1-0.6,0-1.3-0.2-1.9c-0.2-0.6-0.6-1.1-1.1-1.5c-0.5-0.4-1.2-0.6-1.9-0.5h-14.9
		c-3-0.1-6,1.2-7.9,3.5c-1,1.2-1.7,2.6-2,4.1c-0.1,0.4-0.1,0.8-0.2,1.1c0,0.3,0,0.7,0,1v158.9c0,1,0.1,2.1,0.4,3.1
		c0.6,2.1,2,4,3.8,5.3c1.9,1.3,4.1,1.9,6.3,1.7h64.8c2-0.1,4-0.9,5.6-2.2c0.8-0.6,1.5-1.4,2-2.2s1-1.8,1.2-2.7c0.3-1,0.4-2,0.4-3
		v-97.9c0-23.6,0-42.8,0.1-56v-4.7c0-1.4-0.2-2.7-0.7-4c-0.8-2-2.2-3.7-4.1-4.8c-1.1-0.7-2.4-1.1-3.7-1.3c-0.4-0.1-0.8-0.1-1-0.1
		L420.8,121.2L420.8,121.2z"/>
	<rect x="365.3" y="188.5" class="st4" width="55.8" height="11.4"/>
	<path class="st8" d="M426.3,121.1h0.3c0.3,0,0.7,0,1,0.1c2.3,0.3,4.4,1.4,6,3.1c0.8,0.9,1.4,1.9,1.9,3c0.5,1.3,0.8,2.6,0.7,4v158.6
		c0,1-0.1,2-0.4,3c-0.3,1-0.7,1.9-1.3,2.8c-0.6,0.9-1.3,1.6-2.1,2.3c-1.6,1.3-3.6,2.1-5.7,2.2c-2.1,0.1-4.1,0-6.2,0h-58.5
		c-2.3,0.1-4.6-0.5-6.5-1.8c-1.9-1.3-3.3-3.2-3.9-5.4c-0.3-1.1-0.5-2.2-0.4-3.4V130c0-0.4,0.1-0.8,0.2-1.2c1.1-4.7,5.4-8,10.2-7.8
		h14.9c0.7,0,1.4,0.2,2,0.6c0.6,0.4,1,0.9,1.2,1.6c0.2,0.7,0.3,1.3,0.2,2v1c0,0.3,0,0.6,0,0.9c0.1,0.6,0.3,1.2,0.8,1.7
		c0.4,0.5,0.9,0.8,1.5,0.9c0.3,0.1,0.6,0.1,0.9,0.1h24.7c0.4-0.1,0.8-0.2,1.2-0.4c0.7-0.4,1.2-1.2,1.4-2c0.1-0.4,0.1-0.8,0.1-1.2
		V125c0-0.4,0-0.8,0.1-1.2c0.1-0.4,0.2-0.7,0.4-1.1c0.4-0.6,0.9-1.1,1.6-1.4c0.6-0.2,1.3-0.3,2-0.2h0.1c-0.6-0.1-1.3,0-1.9,0.2
		c-0.6,0.3-1.2,0.7-1.5,1.4c-0.2,0.3-0.3,0.7-0.4,1c0,0.4,0,0.8,0,1.1v1.2c0,0.4,0,0.8-0.1,1.2c-0.2,0.9-0.7,1.6-1.4,2.1
		c-0.4,0.2-0.8,0.4-1.3,0.4h-24.8c-0.3,0-0.6,0-0.9-0.1c-1.3-0.4-2.2-1.4-2.4-2.7c0-0.3,0-0.7,0-1v-1c0-0.6,0-1.3-0.2-1.9
		c-0.4-1.3-1.7-2.1-3-2h-14.9c-1.5,0-3,0.2-4.3,0.8c-2.9,1.2-5,3.8-5.6,6.8c-0.1,0.4-0.1,0.8-0.2,1.2s0,0.8,0,1.2v158.4
		c0,1.1,0.1,2.2,0.4,3.3c0.6,2.1,2,4,3.8,5.3c1.9,1.3,4.1,1.9,6.3,1.7h64.8c2-0.1,4-0.9,5.6-2.2c0.8-0.6,1.4-1.4,2-2.2
		c0.5-0.8,1-1.8,1.2-2.7c0.3-1,0.4-2,0.4-3V275c0-31.2,0-59.4,0-83s0-42.8,0-56v-4.7c0-1.4-0.2-2.7-0.7-4c-0.4-1.1-1.1-2.1-1.9-2.9
		c-0.6-0.7-1.4-1.3-2.2-1.8c-1.1-0.7-2.4-1.1-3.7-1.3c-0.3-0.1-0.7-0.1-1-0.1L426.3,121.1L426.3,121.1z"/>
	<path class="st8" d="M428.2,137.2c0,0-1.6,0.1-3.7,0.1s-3.7,0-3.7-0.1s1.6-0.1,3.7-0.1S428.2,137.1,428.2,137.2z"/>
	<path class="st8" d="M428.3,139.1c0,0.1-1.6,0.1-3.7,0.1s-3.7,0-3.7-0.1s1.6-0.1,3.7-0.1S428.3,139,428.3,139.1L428.3,139.1z"/>
	<path class="st8" d="M428.3,140.9c0,0-1.6,0.1-3.7,0.1s-3.7,0-3.7-0.1s1.6-0.1,3.7-0.1S428.3,140.9,428.3,140.9z"/>
	<path class="st8" d="M361.6,143.1h2.1v-1.8c0-0.3,0.3-0.4,0.5-0.5h0.8c0.3,0,0.5,0.3,0.5,0.6v1.6l-0.1-0.1h2l-0.1,0.1V140
		c0-0.2-0.1-0.4-0.3-0.5l-0.9-0.9l-0.8-0.8l-0.4-0.4c-0.1-0.1-0.2-0.3-0.4-0.3c-0.1,0-0.3,0-0.5,0.1c-0.1,0.1-0.2,0.2-0.4,0.4
		l-0.7,0.7c-0.5,0.5-0.9,0.9-1.2,1.3c-0.1,0.2-0.1,0.5-0.1,0.7v2.8c0-0.1,0-0.2,0-0.2V140c0-0.1,0-0.3,0.1-0.4
		c0.4-0.4,0.8-0.9,1.2-1.3c0.2-0.2,0.5-0.5,0.7-0.7c0.1-0.1,0.2-0.3,0.4-0.4c0.2-0.1,0.4-0.2,0.6-0.1c0.2,0.1,0.4,0.2,0.5,0.3
		l0.4,0.4l0.8,0.8l0.9,0.9c0.1,0.1,0.1,0.1,0.2,0.2c0.1,0.1,0.1,0.2,0.1,0.3v3.2h-2.1v-1.7c0-0.2-0.2-0.4-0.4-0.5h-0.7
		c-0.2,0-0.4,0.2-0.4,0.4v1.8h-2.2L361.6,143.1L361.6,143.1z"/>
	<rect x="365.5" y="205.5" class="st4" width="55.8" height="11.4"/>
	<rect x="365.5" y="222.1" class="st4" width="55.8" height="11.4"/>
	<path class="st11" d="M407.9,256.1h-28c-3.1,0-5.7-2.6-5.7-5.7l0,0c0-3.1,2.5-5.7,5.7-5.7h28c3.1,0,5.7,2.6,5.7,5.7l0,0
		C413.6,253.6,411,256.1,407.9,256.1z"/>
	<path class="st8" d="M411.2,176.7c0,0.3-7.8,0.5-17.5,0.5s-17.5-0.2-17.5-0.5s7.8-0.5,17.5-0.5S411.2,176.4,411.2,176.7z"/>
	<path class="st0" d="M375.1,109.4h-7.2c-0.7-0.1-1.5,0-2.2,0.2c-0.7,0.3-1.3,0.8-1.7,1.5c-0.2,0.4-0.3,0.8-0.4,1.2
		c-0.1,0.4-0.1,0.8,0,1.3v1.3c0,0.5,0,0.9-0.1,1.4c-0.2,0.9-0.8,1.8-1.6,2.3c-0.4,0.3-0.9,0.4-1.4,0.5H333c-0.3,0-0.7,0-1-0.1
		c-0.7-0.2-1.3-0.6-1.8-1.1c-0.5-0.6-0.8-1.3-0.9-2c0-0.4,0-0.7,0-1.1v-1.1c0.1-0.7,0-1.4-0.2-2.1c-0.2-0.7-0.7-1.3-1.3-1.7
		c-0.6-0.4-1.3-0.6-2.1-0.6h-16.7c-3.4-0.1-6.7,1.3-8.8,3.9c-1.1,1.3-1.9,2.9-2.3,4.6c-0.1,0.4-0.1,0.9-0.2,1.3s0,0.7,0,1.1v177.2
		c0,1.2,0.1,2.4,0.5,3.5c0.7,2.4,2.2,4.5,4.3,5.9c2.1,1.4,4.5,2.1,7,1.9h72.2c2.3-0.1,4.5-1,6.2-2.4c0.9-0.7,1.6-1.6,2.2-2.5
		c0.6-0.9,1.1-1.9,1.4-3c0.3-1.1,0.5-2.2,0.4-3.3V281c0-34.9,0-66.2,0-92.6s0-47.7,0.1-62.4v-5.2c0-1.5-0.2-3-0.8-4.5
		c-0.5-1.2-1.2-2.3-2.1-3.3c-1.7-1.9-4.1-3.1-6.6-3.5c-0.4-0.1-0.7-0.1-1.1-0.1h-1.9L375.1,109.4L375.1,109.4z"/>
	<path class="st8" d="M381.1,109.6h0.4c0.4,0,0.8,0,1.1,0.1c1.5,0.2,2.9,0.7,4.1,1.4c0.9,0.5,1.8,1.2,2.5,2c0.9,1,1.6,2.1,2.1,3.3
		c0.6,1.4,0.9,2.9,0.8,4.5v176.8c0,1.1-0.1,2.3-0.4,3.4c-0.3,1.1-0.8,2.2-1.4,3.1c-0.6,1-1.4,1.8-2.3,2.6c-1.8,1.5-4,2.3-6.4,2.5
		c-2.3,0.1-4.6,0-7,0h-65.2c-2.5,0.1-5.1-0.6-7.2-2c-2.1-1.5-3.6-3.6-4.4-6c-0.4-1.2-0.5-2.5-0.5-3.8V120.7c0-0.4,0-0.9,0.1-1.3
		s0.1-0.9,0.2-1.3c0.4-1.7,1.2-3.3,2.3-4.7c1.1-1.3,2.5-2.4,4.1-3.1c1.5-0.7,3.2-1,4.9-0.9h16.6c0.8,0,1.5,0.2,2.2,0.6
		c0.6,0.4,1.1,1.1,1.4,1.8c0.2,0.7,0.3,1.4,0.2,2.2v1.1c0,0.3,0,0.7,0,1.1c0.1,0.7,0.4,1.3,0.8,1.8c0.5,0.5,1,0.8,1.7,1
		c0.3,0.1,0.7,0.1,1,0.1h27.6c0.5-0.1,1-0.2,1.4-0.5c0.8-0.5,1.4-1.3,1.5-2.2c0.1-0.4,0.1-0.9,0.1-1.3v-1.3c0-0.4,0-0.9,0.1-1.3
		c0.1-0.4,0.2-0.8,0.4-1.2c0.4-0.7,1-1.3,1.8-1.6c0.7-0.2,1.5-0.3,2.2-0.2h0.1c-0.7-0.1-1.5,0-2.2,0.2c-0.7,0.3-1.3,0.8-1.7,1.5
		c-0.2,0.4-0.3,0.8-0.4,1.2c-0.1,0.4-0.1,0.8-0.1,1.3v1.3c0,0.5,0,0.9-0.1,1.4c-0.2,0.9-0.8,1.8-1.6,2.3c-0.4,0.3-0.9,0.4-1.4,0.5
		H333c-0.3,0-0.7,0-1-0.1c-0.7-0.2-1.3-0.6-1.8-1.1c-0.5-0.6-0.8-1.3-0.9-2c0-0.4,0-0.7,0-1.1v-1.1c0.1-0.7,0-1.4-0.2-2.1
		c-0.2-0.7-0.7-1.3-1.3-1.7c-0.6-0.4-1.3-0.6-2.1-0.6h-16.6c-1.7-0.1-3.3,0.3-4.8,0.9c-3.2,1.4-5.5,4.2-6.3,7.6
		c-0.1,0.4-0.1,0.9-0.2,1.3s0,0.9-0.1,1.3v176.7c0,1.2,0.1,2.5,0.5,3.7c0.7,2.4,2.2,4.5,4.3,5.9c2.1,1.4,4.5,2.1,7,1.9h72.2
		c2.2,0,4.4-0.8,6.2-2.1c0.9-0.7,1.6-1.5,2.2-2.5c0.6-0.9,1.1-1.9,1.4-3c0.3-1.1,0.4-2.2,0.4-3.3v-16.6c0-34.8,0-66.2,0-92.6
		s0-47.7,0.1-62.4v-5.2c0-1.5-0.2-3-0.8-4.4c-0.5-1.2-1.2-2.3-2.1-3.3c-0.7-0.8-1.6-1.5-2.5-2c-1.3-0.8-2.7-1.3-4.1-1.5
		c-0.4-0.1-0.7-0.1-1.1-0.1L381.1,109.6L381.1,109.6z"/>
	<path class="st8" d="M383.2,127.5c0,0-1.8,0.1-4.1,0.1s-4.1,0-4.1,0s1.8-0.1,4.1-0.1S383.2,127.4,383.2,127.5z"/>
	<path class="st8" d="M383.2,129.6c0,0-1.8,0.1-4.1,0.1s-4.1,0-4.1,0s1.8-0.1,4.1-0.1S383.2,129.5,383.2,129.6z"/>
	<path class="st8" d="M383.2,131.6c0,0.1-1.8,0.1-4.1,0.1s-4.1,0-4.1,0s1.8-0.1,4.1-0.1S383.2,131.6,383.2,131.6z"/>
	<path class="st8" d="M308.9,134h2.4l0,0.1v-2c0.1-0.3,0.3-0.5,0.6-0.5h0.8c0.3,0.1,0.6,0.3,0.6,0.7v1.8l-0.1-0.1h2.2l-0.1,0.1v-3.5
		c0-0.2-0.1-0.4-0.3-0.5l-1-1l-0.9-0.9l-0.5-0.4c-0.1-0.2-0.3-0.3-0.5-0.3c-0.2-0.1-0.4,0-0.5,0.1c-0.1,0.1-0.3,0.3-0.4,0.4
		l-0.8,0.8c-0.5,0.5-1,1-1.4,1.4c-0.1,0.3-0.1,0.5-0.1,0.8v2.8C308.9,133.8,308.9,133.9,308.9,134l0-3.6c0-0.2,0-0.3,0.1-0.5
		c0.4-0.5,0.9-0.9,1.4-1.5l0.8-0.8c0.1-0.2,0.3-0.3,0.4-0.4c0.2-0.1,0.4-0.2,0.6-0.1c0.2,0.1,0.4,0.2,0.5,0.4l0.5,0.4l0.9,0.9l1,0.9
		c0.1,0.1,0.2,0.2,0.2,0.3c0.1,0.1,0.1,0.2,0.1,0.4v3.5h-2.4v-1.9c0-0.3-0.2-0.5-0.4-0.5H312c-0.2,0-0.4,0.2-0.5,0.4
		c0,0.2,0,0.5,0,0.7v1.3H308.9L308.9,134z"/>
	
		<ellipse transform="matrix(0.153 -0.9882 0.9882 0.153 119.9365 490.4418)" class="st11" cx="346.1" cy="175.3" rx="18.5" ry="18.5"/>
	<path class="st13" d="M352.4,182.7h-12.7v-1.6c0-3.5,2.8-6.3,6.3-6.3l0,0c3.5,0,6.3,2.8,6.3,6.3V182.7z"/>
	<circle class="st13" cx="346.1" cy="171.5" r="3.7"/>
	<rect x="313.2" y="214.9" class="st4" width="62.3" height="12.7"/>
	<rect x="313.2" y="233.4" class="st4" width="62.3" height="12.7"/>
	<path class="st11" d="M360.5,271.4h-31.3c-3.5,0-6.4-2.8-6.4-6.3v0l0,0c0-3.5,2.9-6.4,6.4-6.4h31.3c3.5,0,6.4,2.9,6.4,6.4l0,0
		C366.8,268.5,364,271.4,360.5,271.4z"/>
	<path class="st8" d="M364.4,207.2c0,0.3-8.8,0.6-19.5,0.6s-19.5-0.3-19.5-0.6s8.8-0.6,19.5-0.6S364.4,206.9,364.4,207.2z"/>
	<path class="st5" d="M321.8,224.1H319c-0.3,0-0.5-0.2-0.5-0.5c0,0,0,0,0,0l0,0c0-1,0.8-1.8,1.8-1.8c0,0,0,0,0,0h0.1
		c1,0,1.8,0.8,1.8,1.8l0,0C322.2,223.8,322,224.1,321.8,224.1L321.8,224.1z"/>
	<path class="st5" d="M321.5,220.8c0,0.6-0.5,1.1-1.1,1.1s-1.1-0.5-1.1-1.1s0.5-1.1,1.1-1.1C321,219.7,321.5,220.2,321.5,220.8
		C321.5,220.8,321.5,220.8,321.5,220.8z"/>
	<rect x="318.8" y="239.9" class="st5" width="3.3" height="2.3"/>
	<path class="st5" d="M322.4,240.4h-1.1v-0.7c0-0.5-0.4-0.9-0.9-0.9c-0.5,0-0.9,0.4-0.9,0.9v0.7h-1.1v-0.7c0-1.1,0.9-2,2-2
		s2,0.9,2,2V240.4z"/>
	<path class="st0" d="M309.1,70.4h-10.7c-1.1-0.1-2.2,0-3.2,0.3c-1.1,0.4-2,1.2-2.5,2.3c-0.3,0.5-0.5,1.1-0.6,1.7
		c-0.1,0.6-0.1,1.2-0.1,1.9v2c0,0.7,0,1.3-0.1,2c-0.3,1.4-1.2,2.7-2.4,3.4c-0.6,0.4-1.4,0.7-2.1,0.8c-0.8,0.1-1.5,0-2.3,0h-38.8
		c-0.5,0-1,0-1.6-0.2c-1-0.3-2-0.8-2.7-1.7c-0.7-0.8-1.2-1.8-1.3-2.9c-0.1-0.5-0.1-1.1-0.1-1.6v-1.5c0.1-1.1,0-2.1-0.3-3.2
		c-0.4-1-1-1.9-1.9-2.5c-0.9-0.6-2-0.9-3.1-0.8h-24.7c-5.1-0.2-9.9,2-13.2,5.8c-1.6,2-2.8,4.3-3.4,6.8c-0.2,0.6-0.2,1.3-0.3,1.9
		s-0.1,1.1-0.1,1.6v263.6c-0.1,1.8,0.2,3.5,0.7,5.2c1.1,3.5,3.3,6.6,6.4,8.8c3.1,2.1,6.8,3.1,10.5,2.9h97.2c3.5,0,6.9,0.1,10.3,0
		c3.4-0.2,6.6-1.5,9.3-3.6c1.3-1.1,2.4-2.3,3.3-3.7c0.9-1.4,1.6-2.9,2-4.5c0.4-1.6,0.6-3.2,0.6-4.9v-24.7c0-51.9,0-98.6,0.1-137.8
		s0.1-71,0.1-92.9v-7.8c0-2.3-0.4-4.5-1.2-6.6c-0.7-1.8-1.8-3.5-3.1-4.9c-1.1-1.2-2.3-2.2-3.7-3c-1.9-1.1-4-1.9-6.1-2.1
		c-0.5-0.1-1.1-0.1-1.7-0.2h-2.8L309.1,70.4L309.1,70.4z"/>
	<path class="st8" d="M318.1,70.4h0.6c0.6,0,1.1,0,1.7,0.1c2.2,0.3,4.3,1,6.2,2.1c1.4,0.8,2.7,1.8,3.8,3c1.3,1.4,2.4,3.1,3.1,4.9
		c0.9,2.1,1.3,4.4,1.2,6.7v262.7c0,1.7-0.2,3.4-0.6,5c-0.5,1.6-1.2,3.2-2.1,4.6c-1,1.4-2.1,2.7-3.4,3.8c-2.7,2.2-6,3.5-9.5,3.7
		c-3.4,0.1-6.9,0-10.3,0h-96.9c-3.8,0.2-7.6-0.9-10.7-3c-3.1-2.2-5.4-5.4-6.5-9c-0.5-1.8-0.8-3.7-0.7-5.6V87c0-0.7,0.1-1.3,0.1-2
		s0.2-1.3,0.3-2c0.6-2.6,1.8-5,3.5-7c3.3-3.9,8.3-6.1,13.4-5.9h24.6c1.1-0.1,2.3,0.2,3.2,0.9c0.9,0.7,1.6,1.6,2,2.7
		c0.3,1.1,0.4,2.2,0.3,3.2v1.6c0,0.5,0,1.1,0,1.6c0.1,1,0.6,2,1.2,2.8c0.6,0.8,1.5,1.3,2.5,1.6c0.5,0.1,1,0.2,1.5,0.2h40.9
		c0.7-0.1,1.4-0.3,2-0.7c1.2-0.8,2-1.9,2.3-3.3c0.1-0.7,0.2-1.3,0.1-2v-2c0-0.6,0-1.3,0.1-1.9c0.1-0.6,0.3-1.2,0.6-1.8
		c0.6-1.1,1.5-1.9,2.6-2.3c1-0.3,2.2-0.4,3.3-0.3l0,0c-1.1-0.1-2.2,0-3.2,0.3c-1.1,0.4-2,1.2-2.5,2.3c-0.3,0.5-0.5,1.1-0.6,1.7
		c-0.1,0.6-0.1,1.3-0.1,1.9v2c0,0.7,0,1.3-0.1,2c-0.3,1.4-1.2,2.7-2.4,3.4c-0.6,0.4-1.4,0.7-2.1,0.7c-0.8,0.1-1.5,0-2.3,0h-38.5
		c-0.5,0-1,0-1.5-0.2c-1-0.3-2-0.8-2.7-1.6c-0.7-0.8-1.2-1.8-1.3-2.9c0-0.5,0-1.1,0-1.6v-1.6c0.1-1.1,0-2.1-0.3-3.2
		c-0.4-1-1-1.9-1.9-2.5c-0.9-0.6-2-0.9-3.1-0.8h-24.6c-5-0.2-9.9,2-13.1,5.8c-1.6,2-2.8,4.3-3.4,6.8c-0.2,0.6-0.2,1.3-0.3,1.9
		s-0.1,1.3-0.1,2v262.9c-0.1,1.8,0.2,3.7,0.7,5.4c1.1,3.5,3.3,6.6,6.3,8.8c3.1,2.1,6.7,3.1,10.4,2.9h96.9c3.5,0,6.9,0.1,10.3,0
		c3.4-0.2,6.6-1.5,9.2-3.6c1.3-1.1,2.4-2.3,3.3-3.7c0.9-1.4,1.6-2.9,2-4.5c0.5-1.6,0.6-3.2,0.6-4.9v-24.6c0-51.8,0-98.4,0.1-137.5
		s0.1-70.8,0.1-92.7v-7.8c0-2.3-0.4-4.5-1.2-6.6c-0.7-1.8-1.8-3.4-3.1-4.9c-1.1-1.2-2.3-2.2-3.7-3c-1.9-1.1-4-1.9-6.1-2.2
		c-0.5-0.1-1.1-0.1-1.7-0.2L318.1,70.4L318.1,70.4z"/>
	<path class="st8" d="M321.3,97.1c0,0.1-2.7,0.2-6.1,0.2s-6.1,0-6.1-0.1s2.7-0.2,6.1-0.2S321.3,97,321.3,97.1z"/>
	<path class="st8" d="M321.3,100.2c0,0.1-2.7,0.2-6.1,0.2s-6.1,0-6.1-0.1s2.7-0.2,6.1-0.2S321.3,100.1,321.3,100.2z"/>
	<path class="st8" d="M321.3,103.3c0,0.1-2.7,0.2-6.1,0.2s-6.1,0-6.1-0.1s2.7-0.2,6.1-0.2S321.3,103.2,321.3,103.3z"/>
	<path class="st8" d="M210.9,106.8h1l2.6-0.1l-0.1,0.1v-3c0.1-0.4,0.4-0.7,0.9-0.8h1.2c0.5,0.1,0.9,0.5,0.9,1v2.7l-0.1-0.1h3.3
		l-0.1,0.1c0-1.3,0-2.7,0-4.1v-1c0-0.3-0.2-0.6-0.5-0.8l-1.4-1.4l-1.4-1.5l-0.7-0.7c-0.2-0.2-0.4-0.4-0.7-0.5
		c-0.3-0.1-0.5,0-0.8,0.1c-0.2,0.2-0.4,0.4-0.6,0.6l-1.2,1.2c-0.7,0.8-1.5,1.5-2.1,2.1c-0.2,0.4-0.2,0.8-0.2,1.2v4.2
		C210.9,106.5,210.9,106.7,210.9,106.8l0-5.2c0-0.2,0.1-0.5,0.2-0.7c0.6-0.7,1.3-1.4,2.1-2.2l1.2-1.2c0.2-0.2,0.4-0.4,0.6-0.6
		c0.3-0.2,0.6-0.3,0.9-0.2c0.3,0.1,0.6,0.3,0.8,0.6l0.7,0.7c0.5,0.4,0.9,0.9,1.4,1.4l1.3,1.4c0.1,0.1,0.2,0.3,0.4,0.4
		c0.1,0.2,0.2,0.3,0.2,0.6v5.2H217V104c0-0.4-0.3-0.7-0.7-0.8h-1.2c-0.4,0-0.6,0.3-0.7,0.6v3h-3.4
		C211,106.8,210.9,106.8,210.9,106.8L210.9,106.8z"/>
	<path class="st6" d="M214.8,123.2h97c4.9,0,8.8,3.9,8.8,8.8v3.3c0,4.9-3.9,8.8-8.8,8.8h-97c-4.9,0-8.8-3.9-8.8-8.8V132
		C206,127.2,209.9,123.2,214.8,123.2z"/>
	<path class="st8" d="M311.8,144.1l0.7-0.1c1.7-0.1,3.3-0.8,4.6-1.8c1.1-0.9,2-2,2.6-3.3c0.4-0.8,0.6-1.6,0.7-2.4
		c0.1-0.9,0.1-1.9,0.1-2.8c0-1,0-2.1-0.1-3.1c-0.2-1.1-0.6-2.1-1.1-3c-1.3-2.1-3.4-3.5-5.8-4c-1.3-0.2-2.7-0.2-4-0.2h-4.2l-90.4,0.1
		c-4.4,0-8.2,3.4-8.5,7.9c-0.1,1,0,2.1,0,3.2c-0.1,1,0.1,2.1,0.3,3.1c0.6,2,1.8,3.7,3.6,4.9c0.8,0.6,1.8,1,2.8,1.2
		c1,0.2,2,0.3,3,0.2h58.5l27.4,0.1l0,0l-27.4,0.1h-58.5c-1,0.1-2.1,0-3.1-0.2c-1-0.2-2-0.6-2.9-1.2c-1.8-1.2-3.1-3-3.7-5.1
		c-0.3-1.1-0.4-2.1-0.3-3.2V131c0.4-4.7,4.3-8.3,9-8.3l90.4,0.1h4.2c1.3-0.1,2.7,0,4,0.2c3.7,0.7,6.5,3.6,7.1,7.3
		c0.1,1,0.2,2.1,0.1,3.1c0,0.9,0,1.9-0.1,2.8c-0.1,0.9-0.4,1.7-0.7,2.5c-0.6,1.3-1.5,2.5-2.7,3.4c-0.9,0.6-1.8,1.1-2.8,1.4
		c-0.6,0.2-1.3,0.3-1.9,0.3C312.1,144.1,311.8,144.1,311.8,144.1L311.8,144.1z"/>
	<path class="st8" d="M313.6,133.1c0,0,0-0.3-0.2-0.9c-0.2-0.8-0.7-1.5-1.4-2c-1.6-1.2-3.8-0.9-5,0.7c-1.2,1.6-0.9,3.8,0.7,5
		c1.3,0.9,3,0.9,4.3,0c0.7-0.5,1.2-1.2,1.4-2C313.6,133.5,313.6,133.1,313.6,133.1c0.1,0,0,0,0,0.2c0,0.2,0,0.5-0.1,0.7
		c-0.2,0.9-0.7,1.6-1.4,2.2c-1.1,0.8-2.5,1.1-3.7,0.6c-2.1-0.8-3.1-3.1-2.3-5.2c0.4-1.1,1.2-1.9,2.3-2.3c1.3-0.4,2.7-0.2,3.7,0.6
		c0.7,0.5,1.2,1.3,1.4,2.2c0,0.2,0.1,0.5,0.1,0.7C313.6,133.1,313.6,133.2,313.6,133.1L313.6,133.1z"/>
	<path class="st8" d="M315.7,139.7c-0.7-0.4-1.3-1-1.9-1.7c-0.6-0.6-1.1-1.2-1.5-2c0.7,0.5,1.3,1,1.9,1.7
		C314.8,138.2,315.3,138.9,315.7,139.7L315.7,139.7z"/>
	<path class="st5" d="M221.5,131.6h-2V131h4.7v0.5h-2v5.3h-0.6L221.5,131.6z"/>
	<path class="st5" d="M228.4,134.9h-3.7c0.1,0.9,0.8,1.6,1.7,1.5l0,0c0.5,0,1-0.2,1.3-0.6l0.3,0.4c-0.9,0.9-2.3,1-3.3,0.1
		c-0.5-0.4-0.7-1-0.7-1.6c-0.1-1.2,0.8-2.2,2-2.2c0.1,0,0.1,0,0.1,0c1.1,0,2.1,0.9,2.1,2c0,0.1,0,0.1,0,0.2L228.4,134.9L228.4,134.9
		z M224.7,134.4h3.1c0-0.9-0.7-1.6-1.6-1.6S224.7,133.6,224.7,134.4z"/>
	<path class="st5" d="M232.2,136.9l-1.4-1.8l-1.4,1.8h-0.7l1.7-2.3l-1.6-2.1h0.7l1.3,1.7l1.3-1.7h0.6l-1.6,2.1l1.7,2.2L232.2,136.9z
		"/>
	<path class="st5" d="M236.2,136.6c-0.3,0.2-0.6,0.3-0.9,0.3c-0.6,0.1-1.2-0.4-1.3-1c0-0.1,0-0.2,0-0.2V133h-0.8v-0.5h0.8v-1h0.6v1
		h1.3v0.5h-1.3v2.6c-0.1,0.4,0.2,0.7,0.6,0.8c0.1,0,0.1,0,0.2,0c0.2,0,0.5-0.1,0.6-0.2L236.2,136.6L236.2,136.6z"/>
	<path class="st10" d="M284.2,163.9c0,0.1-8.4,0.2-18.7,0.2s-18.7-0.1-18.7-0.2s8.4-0.2,18.7-0.2S284.2,163.8,284.2,163.9z"/>
	<path class="st8" d="M314.1,171.6c0,0.1-15.1,0.2-33.7,0.2s-33.7-0.1-33.7-0.2s15.1-0.2,33.7-0.2S314.1,171.5,314.1,171.6z"/>
	<path class="st8" d="M313.3,177.1c0,0.1-14.9,0.2-33.3,0.2s-33.3-0.1-33.3-0.2s14.9-0.2,33.3-0.2S313.3,177,313.3,177.1z"/>
	<path class="st8" d="M286,182.4c0,0.1-8.8,0.2-19.6,0.2s-19.6-0.1-19.6-0.2s8.8-0.2,19.6-0.2C277.2,182.1,286,182.2,286,182.4z"/>
	<path class="st10" d="M284.2,205.7c0,0.1-8.4,0.2-18.7,0.2s-18.7-0.1-18.7-0.2s8.4-0.2,18.7-0.2S284.2,205.6,284.2,205.7z"/>
	<path class="st8" d="M314.1,213.4c0,0.1-15.1,0.2-33.7,0.2s-33.7-0.1-33.7-0.2s15.1-0.2,33.7-0.2S314.1,213.3,314.1,213.4z"/>
	<path class="st8" d="M313.3,218.9c0,0.1-14.9,0.2-33.3,0.2s-33.3-0.1-33.3-0.2s14.9-0.2,33.3-0.2S313.3,218.8,313.3,218.9z"/>
	<path class="st8" d="M286,224.1c0,0.1-8.8,0.2-19.6,0.2s-19.6-0.1-19.6-0.2s8.8-0.2,19.6-0.2C277.2,223.9,286,224,286,224.1z"/>
	<path class="st10" d="M284.2,247.6c0,0.1-8.4,0.2-18.7,0.2s-18.7-0.1-18.7-0.2s8.4-0.2,18.7-0.2S284.2,247.4,284.2,247.6z"/>
	<path class="st8" d="M314.1,255.2c0,0.1-15.1,0.2-33.7,0.2s-33.7-0.1-33.7-0.2s15.1-0.2,33.7-0.2S314.1,255.1,314.1,255.2z"/>
	<path class="st8" d="M313.3,260.7c0,0.1-14.9,0.2-33.3,0.2s-33.3-0.1-33.3-0.2s14.9-0.2,33.3-0.2S313.3,260.6,313.3,260.7z"/>
	<path class="st8" d="M286,265.9c0,0.1-8.8,0.2-19.6,0.2s-19.6-0.1-19.6-0.2s8.8-0.2,19.6-0.2C277.2,265.7,286,265.8,286,265.9z"/>
	<path class="st10" d="M284.2,289.3c0,0.1-8.4,0.2-18.7,0.2s-18.7-0.1-18.7-0.2s8.4-0.2,18.7-0.2S284.2,289.2,284.2,289.3z"/>
	<path class="st8" d="M314.1,297c0,0.1-15.1,0.2-33.7,0.2s-33.7-0.1-33.7-0.2s15.1-0.2,33.7-0.2S314.1,296.9,314.1,297z"/>
	<path class="st8" d="M313.3,302.5c0,0.1-14.9,0.2-33.3,0.2s-33.3-0.1-33.3-0.2s14.9-0.2,33.3-0.2S313.3,302.4,313.3,302.5z"/>
	<path class="st8" d="M286,307.7c0,0.1-8.8,0.2-19.6,0.2s-19.6-0.1-19.6-0.2s8.8-0.2,19.6-0.2C277.2,307.5,286,307.6,286,307.7z"/>
	<path class="st10" d="M284.2,330.8c0,0.1-8.4,0.2-18.7,0.2s-18.7-0.1-18.7-0.2s8.4-0.2,18.7-0.2S284.2,330.7,284.2,330.8z"/>
	<path class="st8" d="M314.1,338.6c0,0.1-15.1,0.2-33.7,0.2s-33.7-0.1-33.7-0.2s15.1-0.2,33.7-0.2S314.1,338.4,314.1,338.6z"/>
	<path class="st8" d="M313.3,344c0,0.1-14.9,0.2-33.3,0.2s-33.3-0.1-33.3-0.2s14.9-0.2,33.3-0.2S313.3,343.9,313.3,344z"/>
	<path class="st8" d="M286,349.2c0,0.1-8.8,0.2-19.6,0.2s-19.6-0.1-19.6-0.2s8.8-0.2,19.6-0.2C277.2,349,286,349.1,286,349.2z"/>
	
		<rect x="210.3" y="159.9" transform="matrix(5.585019e-03 -1 1 5.585019e-03 45.3882 395.966)" class="st11" width="22.9" height="30.5"/>
	<polygon class="st10" points="206.5,186.6 217.2,172.4 223.8,181.3 228.3,176.6 237,186.7 	"/>
	<path class="st10" d="M226.6,170.7c0,1.3-1.1,2.4-2.4,2.4s-2.4-1.1-2.4-2.4s1.1-2.4,2.4-2.4c0,0,0,0,0,0
		C225.6,168.2,226.6,169.3,226.6,170.7L226.6,170.7z"/>
	<polygon class="st12" points="206.5,186.6 217.2,172.4 223.8,181.3 228.3,176.6 237,186.7 	"/>
	<path class="st12" d="M226.6,170.7c0,1.3-1.1,2.4-2.4,2.4s-2.4-1.1-2.4-2.4s1.1-2.4,2.4-2.4c0,0,0,0,0,0
		C225.6,168.2,226.6,169.3,226.6,170.7L226.6,170.7z"/>
	
		<rect x="210.3" y="201.2" transform="matrix(5.585019e-03 -1 1 5.585019e-03 4.1277 437.0154)" class="st11" width="22.9" height="30.5"/>
	<polygon class="st10" points="206.5,227.8 217.2,213.6 223.8,222.6 228.3,217.8 237,228 	"/>
	<path class="st10" d="M226.6,211.9c0,1.3-1.1,2.4-2.4,2.4s-2.4-1.1-2.4-2.4s1.1-2.4,2.4-2.4l0,0
		C225.6,209.5,226.6,210.6,226.6,211.9C226.6,211.9,226.6,211.9,226.6,211.9L226.6,211.9z"/>
	<polygon class="st12" points="206.5,227.8 217.2,213.6 223.8,222.6 228.3,217.8 237,228 	"/>
	<path class="st15" d="M226.6,211.9c0,1.3-1.1,2.4-2.4,2.4s-2.4-1.1-2.4-2.4s1.1-2.4,2.4-2.4l0,0
		C225.6,209.5,226.6,210.6,226.6,211.9C226.6,211.9,226.6,211.9,226.6,211.9L226.6,211.9z"/>
	
		<rect x="210.3" y="242.5" transform="matrix(5.585019e-03 -1 1 5.585019e-03 -37.1628 478.0546)" class="st11" width="22.9" height="30.5"/>
	<polygon class="st10" points="206.5,269.1 217.2,254.9 223.8,263.9 228.3,259.1 237,269.3 	"/>
	<path class="st10" d="M226.6,253.2c0,1.3-1.1,2.4-2.4,2.4s-2.4-1.1-2.4-2.4s1.1-2.4,2.4-2.4l0,0
		C225.5,250.8,226.6,251.9,226.6,253.2L226.6,253.2z"/>
	<polygon class="st12" points="206.5,269.1 217.2,254.9 223.8,263.9 228.3,259.1 237,269.3 	"/>
	<path class="st12" d="M226.6,253.2c0,1.3-1.1,2.4-2.4,2.4s-2.4-1.1-2.4-2.4s1.1-2.4,2.4-2.4l0,0
		C225.5,250.8,226.6,251.9,226.6,253.2L226.6,253.2z"/>
	
		<rect x="210.3" y="283.7" transform="matrix(5.585019e-03 -1 1 5.585019e-03 -78.4133 519.094)" class="st11" width="22.9" height="30.5"/>
	<polygon class="st10" points="206.5,310.4 217.2,296.2 223.8,305.1 228.3,300.4 237,310.5 	"/>
	<path class="st10" d="M226.6,294.5c0,1.3-1.1,2.4-2.4,2.4s-2.4-1.1-2.4-2.4c0-1.3,1.1-2.4,2.4-2.4c0,0,0,0,0,0
		C225.6,292,226.6,293.1,226.6,294.5L226.6,294.5z"/>
	<polygon class="st12" points="206.5,310.4 217.2,296.2 223.8,305.1 228.3,300.4 237,310.5 	"/>
	<path class="st12" d="M226.6,294.5c0,1.3-1.1,2.4-2.4,2.4s-2.4-1.1-2.4-2.4c0-1.3,1.1-2.4,2.4-2.4c0,0,0,0,0,0
		C225.6,292,226.6,293.1,226.6,294.5L226.6,294.5z"/>
	
		<rect x="210.3" y="324.8" transform="matrix(5.585019e-03 -1 1 5.585019e-03 -119.4926 559.9233)" class="st11" width="22.9" height="30.5"/>
	<polygon class="st10" points="206.5,351.4 217.2,337.2 223.8,346.2 228.3,341.4 237,351.6 	"/>
	<path class="st10" d="M226.6,335.6c0,1.3-1.1,2.4-2.4,2.4c-1.3,0-2.4-1.1-2.4-2.4c0-1.3,1.1-2.4,2.4-2.4l0,0
		C225.5,333.2,226.6,334.2,226.6,335.6L226.6,335.6z"/>
	<polygon class="st12" points="206.5,351.4 217.2,337.2 223.8,346.2 228.3,341.4 237,351.6 	"/>
	<path class="st12" d="M226.6,335.6c0,1.3-1.1,2.4-2.4,2.4c-1.3,0-2.4-1.1-2.4-2.4c0-1.3,1.1-2.4,2.4-2.4l0,0
		C225.5,333.2,226.6,334.2,226.6,335.6L226.6,335.6z"/>
	<circle class="st11" cx="436" cy="124.3" r="10.9"/>
	<path class="st13" d="M435.4,127.8c-0.1,0-0.2,0-0.3-0.1l-3.7-3c-0.2-0.2-0.2-0.5-0.1-0.7s0.5-0.2,0.7-0.1l0,0l3.3,2.7l4.6-5.7
		c0.2-0.2,0.5-0.2,0.7-0.1c0.2,0.2,0.2,0.5,0.1,0.7l-5,6.1C435.6,127.8,435.5,127.8,435.4,127.8L435.4,127.8L435.4,127.8z"/>
	<circle class="st11" cx="389.1" cy="109.4" r="14.9"/>
	<path class="st13" d="M388.2,114.6c-0.2,0-0.5-0.1-0.6-0.2l-5-4.1c-0.4-0.3-0.5-1-0.1-1.4c0.4-0.4,1-0.5,1.4-0.1l0,0l4.2,3.5
		l6.2-7.6c0.4-0.4,1-0.5,1.4-0.1s0.5,1,0.1,1.4l0,0l-6.8,8.3c-0.2,0.2-0.4,0.3-0.7,0.4L388.2,114.6z"/>
</g>
<g id="freepik--magnifying-glass--inject-6">
	<path class="st8" d="M325.8,312c-15.6-4.4-25.2-20.1-22-36c-0.3,0.8-0.5,1.5-0.8,2.3c-4.4,16.6,5.5,33.6,22.1,38
		c16.2,4.3,32.8-5,37.7-21c0.2-0.8,0.4-1.6,0.6-2.4C357.8,308.1,341.4,316.4,325.8,312L325.8,312z"/>
	<path class="st7" d="M341.1,257c15.6,4.4,25.2,20.1,22,36c0.3-0.8,0.5-1.5,0.8-2.4c4.8-16.5-4.7-33.7-21.2-38.5
		c-16.5-4.8-33.7,4.7-38.5,21.2c0,0.1-0.1,0.2-0.1,0.3c-0.2,0.8-0.4,1.6-0.6,2.4C309.2,260.9,325.5,252.6,341.1,257L341.1,257z"/>
	<path class="st8" d="M364.2,290.5c0,0,0-0.2,0.1-0.5s0.2-0.8,0.3-1.4c0.1-0.3,0.1-0.7,0.2-1.1s0.1-0.8,0.2-1.3
		c0.2-1.1,0.2-2.2,0.2-3.3c0.1-3-0.3-6-1.1-8.9c-2.3-8.6-8.2-15.7-16.1-19.7c-1.2-0.6-2.4-1.1-3.6-1.5c-0.6-0.2-1.3-0.4-1.9-0.6
		l-2-0.5c-0.3-0.1-0.7-0.2-1-0.2l-1-0.1c-0.7-0.1-1.4-0.2-2.1-0.2c-1.4-0.1-2.9-0.1-4.3,0c-1.5,0.1-2.9,0.3-4.4,0.6
		c-0.7,0.2-1.4,0.4-2.2,0.6c-0.7,0.2-1.4,0.4-2.1,0.7c-1.4,0.5-2.8,1.2-4.2,1.9c-1.4,0.8-2.6,1.7-3.9,2.6c-2.5,2-4.8,4.3-6.6,7
		c-3.8,5.5-5.6,12.1-5.3,18.7c0.1,3.2,0.8,6.4,1.9,9.4c0.5,1.5,1.2,2.9,1.9,4.3c0.8,1.3,1.6,2.6,2.5,3.8c0.4,0.6,0.9,1.2,1.4,1.8
		c0.5,0.5,1,1.1,1.5,1.6c1.1,1,2.2,1.9,3.4,2.8c1.2,0.8,2.4,1.6,3.6,2.3c0.6,0.3,1.3,0.6,1.9,0.9l1,0.4c0.3,0.1,0.6,0.2,1,0.4
		l1.9,0.7c0.6,0.2,1.3,0.3,2,0.5c1.3,0.3,2.6,0.5,3.9,0.6c8.8,0.8,17.6-2.2,24-8.3c2.2-2,4.1-4.4,5.6-7c0.6-0.9,1.1-1.9,1.5-2.9
		c0.2-0.4,0.4-0.8,0.5-1.2l0.4-1c0.2-0.6,0.4-1.1,0.5-1.4S364.3,290.5,364.2,290.5c0.1,0,0.1,0.2-0.1,0.5s-0.3,0.8-0.5,1.4
		c-0.1,0.3-0.2,0.6-0.3,1s-0.3,0.8-0.5,1.2c-0.4,1-0.9,2-1.5,3c-1.5,2.6-3.4,5-5.5,7.1c-6.5,6.2-15.4,9.3-24.3,8.5
		c-1.3-0.1-2.6-0.3-3.9-0.6c-0.7-0.2-1.3-0.3-2-0.5l-2-0.7c-0.3-0.1-0.7-0.2-1-0.4l-1-0.4c-0.6-0.3-1.3-0.6-1.9-0.9
		c-1.3-0.7-2.5-1.5-3.7-2.3c-1.2-0.9-2.4-1.8-3.5-2.8c-0.5-0.5-1-1.1-1.6-1.6c-0.5-0.6-1-1.1-1.5-1.8c-1-1.2-1.8-2.5-2.6-3.9
		c-0.8-1.4-1.4-2.8-2-4.3c-1.2-3-1.9-6.3-2-9.5c-0.3-6.8,1.6-13.4,5.4-19c1.8-2.7,4.1-5.1,6.7-7.1c1.2-1,2.6-1.9,4-2.6
		c1.4-0.7,2.8-1.4,4.2-1.9c0.7-0.3,1.4-0.5,2.2-0.7c0.7-0.2,1.5-0.4,2.2-0.6c1.5-0.3,2.9-0.5,4.4-0.6c1.5-0.1,2.9-0.1,4.4,0
		c0.7,0.1,1.4,0.2,2.1,0.2l1,0.1c0.4,0.1,0.7,0.1,1,0.2l2,0.5c0.7,0.2,1.3,0.4,1.9,0.6c1.3,0.4,2.5,0.9,3.7,1.5
		c8,4,13.9,11.3,16.2,20c0.8,2.9,1.1,5.9,1,8.9c0,1.1-0.1,2.2-0.3,3.3c-0.1,0.5-0.1,0.9-0.2,1.3s-0.2,0.7-0.2,1.1
		c-0.2,0.6-0.3,1.1-0.4,1.4C364.3,290.3,364.2,290.5,364.2,290.5L364.2,290.5z"/>
	<path class="st8" d="M352.4,308.2c0.4,0.3,29.8,27.4,40.7,37.6c1.8,1.7,4.7,1.7,6.5-0.1l0,0c1.9-1.8,1.9-4.8,0.1-6.7
		c-0.1-0.1-0.1-0.1-0.2-0.2l-40.4-37.3L352.4,308.2z"/>
</g>
<g id="freepik--Character--inject-6">
	<path class="st16" d="M201.1,209.7l0.6-2.4c0.4-1.6,0.4-3.2-0.1-4.7l-2.5-8.2c-0.2-0.8-0.7-1.4-1.4-1.8c-1.9-1.1-5.6-3.2-5.9-2.9
		c-2.3,1.9,2.8,5.2,2.8,5.2s2,2.2,0.4,3.8c-1.8,1.8-5.1-2.2-5.1-2.2s0.2-0.4,0.3-0.3c0.9,0.7,2,1.2,3.2,1.4v-2.7l-3-1.9
		c-0.7-0.4-1.5-0.6-2.2-0.4l-1,0.2c-0.7,0.1-1.3,0.5-1.6,1.1l-1,1.5l-0.4,0.6c-0.4,0.6-0.5,1.3-0.2,1.9l0.5,1l-0.7,0.9
		c-0.5,0.8-0.7,1.8-0.3,2.6l5.1,7l7.5,12.2l8.1-8.7L201.1,209.7z"/>
	<path class="st17" d="M185.4,202.4c-0.1-0.1-0.2-0.3-0.3-0.5c-0.1-0.4-0.1-0.9,0.2-1.3l0,0v-0.1l-0.1-0.2c-0.3-0.7-0.7-1.4-1.1-2
		c0.2,0.7,0.6,1.4,0.9,2.1l0.1,0.2v-0.1c-0.3,0.4-0.4,1-0.2,1.5C185.2,202.3,185.4,202.5,185.4,202.4L185.4,202.4z"/>
	<path class="st17" d="M186.1,193.4c-0.2,0.4-0.3,0.9-0.2,1.4c0.3,1.1,0.7,2.2,1.4,3.2c0.2,0.3,0.4,0.6,0.5,0.9
		c0.1,0.3,0.1,0.7,0.1,1c-0.1,0.5,0,1,0.2,1.5c0.2,0.4,0.6,0.8,1,1c-0.5-0.1-0.9-0.4-1.2-0.9c-0.3-0.5-0.4-1.1-0.3-1.6
		c0-0.3,0-0.6-0.1-0.9c-0.1-0.3-0.3-0.6-0.4-0.9c-0.6-1-1.1-2.2-1.3-3.4C185.5,193.8,186,193.3,186.1,193.4L186.1,193.4z"/>
	<path class="st17" d="M190.1,196.4c-0.1-0.4-0.2-0.8-0.4-1.1c-0.3-0.6-0.6-1-0.6-1.1s0.5,0.3,0.9,0.9S190.1,196.4,190.1,196.4z"/>
	<polygon class="st7" points="203.9,251.6 207,255.5 223.1,236.2 202.1,208.5 191.7,216.7 	"/>
	<polygon class="st9" points="275.4,438.2 276.7,469.6 293.6,469.2 292.4,437.8 	"/>
	<path class="st8" d="M285,468.2c0.1,0-0.1-6.9-0.6-15.3s-1-15.3-1.1-15.3s0.1,6.9,0.6,15.3S284.9,468.2,285,468.2z"/>
	<polygon class="st8" points="276.6,467.4 293.5,467 293.6,469.2 276.7,469.6 	"/>
	<path class="st8" d="M293.2,459.2c0,0-0.1-0.3-0.5-0.7c-0.5-0.6-1-1.1-1.6-1.5c-0.9-0.7-1.8-1.3-2.8-1.7c-3.6-1.6-7.9-0.6-10.4,2.5
		c-0.5,0.6-0.9,1.2-1.2,1.9c-0.1,0.2-0.2,0.5-0.2,0.8c0.5-0.9,1-1.7,1.7-2.4c1.6-1.8,3.9-2.8,6.2-2.9c2.4,0,4.7,0.7,6.5,2.2
		C292.4,458.3,293.2,459.2,293.2,459.2z"/>
	<g class="st18">
		<polygon points="292.7,446.7 292.9,450.2 275.9,450.5 275.8,447.9 		"/>
	</g>
	<path class="st9" d="M235.5,440.1l0.8,19.1c0,0-19.1,7.2-19.3,10.8l37-0.3l-0.1-29.8L235.5,440.1z"/>
	<path class="st5" d="M247.6,457.6c0.8,0.2,1.2,1,1.1,1.7c-0.2,0.8-0.9,1.2-1.7,1.1c-0.8-0.2-1.3-1-1.1-1.8c0.3-0.8,1.1-1.2,1.9-0.9
		"/>
	<path class="st8" d="M254.1,469.7v-3l-35.9,1.4c0,0-1.7,0.7-1.5,1.9L254.1,469.7L254.1,469.7z"/>
	<path class="st8" d="M236,459.3c0,0.2,0.9,0.2,1.8,0.8s1.4,1.3,1.6,1.3s-0.1-1.1-1.2-1.8S236,459.1,236,459.3z"/>
	<path class="st8" d="M232.1,461c0,0.2,0.8,0.5,1.4,1.2s0.8,1.6,1,1.6s0.3-1-0.5-2S232.1,460.8,232.1,461L232.1,461z"/>
	<path class="st8" d="M229.9,465.6c0.2,0,0.4-0.9-0.1-1.9s-1.3-1.4-1.4-1.2s0.4,0.7,0.8,1.5S229.8,465.6,229.9,465.6L229.9,465.6z"
		/>
	<path class="st8" d="M236.3,454.9c0.1,0.2,0.9-0.1,1.9,0s1.8,0.4,1.9,0.2s-0.7-0.8-1.9-0.9S236.2,454.8,236.3,454.9L236.3,454.9z"
		/>
	<path class="st8" d="M235.6,450.8c0.6,0.2,1.2,0.2,1.9,0c0.7-0.1,1.3-0.3,1.9-0.6c0.4-0.2,0.7-0.4,1.1-0.6c0.2-0.1,0.4-0.3,0.6-0.4
		c0.3-0.3,0.3-0.7,0.1-1c-0.2-0.3-0.5-0.4-0.8-0.4c-0.2,0-0.5,0-0.7,0.1c-0.4,0.1-0.8,0.2-1.2,0.4c-0.6,0.3-1.2,0.7-1.7,1.1
		c-0.9,0.8-1.1,1.5-1.1,1.5s0.5-0.5,1.4-1.2c0.5-0.4,1.1-0.7,1.7-1c0.4-0.1,0.7-0.2,1.1-0.3c0.4-0.1,0.7-0.1,0.8,0.1s0,0.1,0,0.2
		c-0.1,0.1-0.3,0.2-0.4,0.3c-0.3,0.2-0.6,0.4-1,0.6c-0.6,0.3-1.2,0.5-1.8,0.7C236.8,450.4,236.2,450.6,235.6,450.8L235.6,450.8z"/>
	<path class="st8" d="M235.9,451.1c0.1,0,0.4-0.6,0.5-1.8c0-0.7-0.1-1.4-0.3-2c-0.1-0.4-0.3-0.8-0.5-1.1c-0.2-0.5-0.7-0.9-1.2-0.9
		c-0.3,0-0.6,0.2-0.8,0.5c-0.1,0.2-0.1,0.5-0.2,0.7c-0.1,0.4-0.1,0.8,0,1.3c0.1,0.7,0.4,1.4,0.8,1.9c0.7,1,1.5,1.2,1.5,1.1
		s-0.6-0.4-1.1-1.4c-0.5-0.8-0.7-1.9-0.6-2.8c0.1-0.4,0.2-0.7,0.4-0.7s0.5,0.3,0.7,0.6c0.2,0.3,0.3,0.6,0.5,1
		c0.2,0.6,0.3,1.2,0.4,1.9C236,450.3,235.8,451,235.9,451.1L235.9,451.1z"/>
	<g class="st18">
		<polygon points="254.1,451.4 254.1,455.6 236.2,455.6 236.2,451.8 		"/>
	</g>
	<path class="st16" d="M314,133.9l2.6,10.3c0,0,1,5.7-1.7,5.7c-2.3,0-2.6-3.1-2.6-3.1s1.2-6.2-1.9-5.9c-0.4,0.1-1.5,4.3-2.1,6.5
		c-0.2,0.8-0.1,1.6,0.3,2.4l4.4,7.8c0.8,1.4,2,2.6,3.5,3.5l2.2,1.2l0.3,4.6l12.4,0.2l-3.8-14.5l-1.6-8.8c-0.4-0.9-1.3-1.5-2.2-1.6
		l-1.2-0.2l-0.4-1.1c-0.3-0.7-0.9-1.1-1.6-1.2l-0.7-0.1l-1-2.5c-0.3-0.8-2.8-6.3-3.7-6.3C315.4,130.8,313.3,131.3,314,133.9
		L314,133.9z"/>
	<path class="st17" d="M322.9,146.3c0-0.4-0.1-0.8-0.2-1.1c-0.3-0.9-0.9-1.6-1.7-2.1c-0.4-0.9-0.7-1.8-0.9-2.7
		c-0.1-0.4-0.2-0.8-0.1-1.2c0,0,0.1,0.4,0.3,1.1c0.3,0.9,0.6,1.8,1,2.6c0.2,0.2,0.4,0.3,0.6,0.5c0.5,0.5,0.9,1.1,1.1,1.7
		c0.1,0.3,0.1,0.6,0.1,0.9C322.9,146.1,322.9,146.2,322.9,146.3L322.9,146.3z"/>
	<path class="st17" d="M324.8,145.3c0-0.2-0.1-0.4-0.2-0.6c-0.2-0.4-0.7-0.7-1.1-0.8h-0.1v-0.1l-0.1-0.2c-0.3-0.7-0.5-1.5-0.7-2.2
		c0.4,0.7,0.7,1.4,0.9,2.2l0.1,0.2l-0.1-0.1c0.5,0.1,1,0.4,1.3,0.9C324.9,145,324.8,145.3,324.8,145.3L324.8,145.3z"/>
	<path class="st16" d="M251.7,195l22.5-0.3l-2.5-19.1c0,0,1.5-0.3,1.6-8.7s0.5-22.5,0.5-22.5l0,0c-9.6-4.1-20.8-2.7-29.1,3.7
		l-1.2,0.9L251.7,195z"/>
	<path class="st16" d="M246.1,159.2c-0.1-0.1-5.7-1.7-5.6,4s5.9,4.3,5.9,4.2S246.1,159.2,246.1,159.2L246.1,159.2z"/>
	<path class="st16" d="M272.9,158.1c0.1-0.1,5.2-1.4,5,4.3s-5.9,4.4-5.9,4.2S272.9,158,272.9,158.1L272.9,158.1z"/>
	<path class="st8" d="M244.2,158.6c0.9,4.8,0.7,7.3,1.5,10.5c1.2,5,3.8,8.9,8.3,11.4c4.5,2.5,10.7,2.5,14.6-1c2.7-2.4,4.6-5.1,5-8.7
		s0.8-9.9,0.8-13.5c0-6.5,0.5-12.7,0.5-12.7l-18.6-3.4l-10.6,6.4L244.2,158.6L244.2,158.6z"/>
	<path class="st8" d="M263.4,183.4c-2.1,0.6-4.4,0.4-6.4-0.7c0.1-0.1,1.4,0.3,3.2,0.5C261.3,183.2,262.4,183.3,263.4,183.4
		L263.4,183.4z"/>
	<path class="st8" d="M245.1,166.7c-0.6-4.9-0.9-10.5-1.7-15.6c-0.3-1.9-1-4.7-0.8-6.7c0.1-2,0.5-3.9,1.2-5.7
		c1.9-4,6.8-5.7,10.8-3.7c0.6,0.3,1.2,0.7,1.8,1.2c1.8-2.8,5.5-3.6,8.3-1.8c1.5,1,2.5,2.6,2.7,4.3c1.7-1.6,4.3-1.5,5.9,0.1
		c1,1.1,1.4,2.6,1,4.1c2.2,0.4,3.7,2.5,3.4,4.7c-0.1,0.6-0.3,1.1-0.6,1.6c-0.9,1.3-2.4,2.1-3.4,3.3c-1.1,1.5-1.2,3.5-0.3,5.1"/>
	<path class="st7" d="M271,149c0,0.2-0.1,0.4-0.2,0.5c-0.3,0.5-0.6,0.9-1.1,1.2c-0.7,0.5-1.5,0.8-2.4,0.8c-1.1,0-2.2-0.5-3-1.4
		l0.4-0.1c-0.3,1.3-1.2,2.4-2.5,2.9c-1.4,0.5-3,0.3-4.2-0.5c-1.1-0.8-1.9-1.8-2.4-3.1h0.4c-0.9,1.4-2.5,2.3-4.2,2.3
		c-1.3,0-2.6-0.5-3.5-1.4c-0.6-0.6-1.1-1.4-1.3-2.2c-0.1-0.3-0.1-0.6-0.1-0.9c0,0,0.1,0.3,0.3,0.9c0.3,0.8,0.7,1.4,1.3,2
		c0.9,0.8,2.1,1.3,3.3,1.2c1.5-0.1,2.9-0.9,3.8-2.1l0.3-0.4l0.2,0.5c0.4,1.1,1.2,2.1,2.2,2.8c1.1,0.8,2.5,0.9,3.7,0.5
		c1.1-0.4,2-1.3,2.2-2.5l0.1-0.5l0.3,0.4c0.7,0.8,1.6,1.3,2.7,1.3c0.8,0,1.6-0.2,2.2-0.6C270.1,150.1,270.6,149.6,271,149L271,149z"
		/>
	<path class="st7" d="M270.9,146.8c-0.1-0.7-0.4-1.4-0.8-2.1c-0.5-0.7-1.2-1.1-2-1.3c-1-0.2-2,0-2.8,0.6l-0.5,0.3v-0.6
		c0-0.6,0-1.1-0.2-1.6c-0.4-1.2-1.2-2.1-2.3-2.7c-0.9-0.4-1.9-0.5-2.9-0.2c-0.9,0.3-1.7,0.7-2.4,1.4c0.1-0.2,0.3-0.5,0.5-0.6
		c0.5-0.5,1.2-0.9,1.9-1.1c1-0.3,2.2-0.3,3.2,0.2c1.2,0.6,2.2,1.6,2.6,2.9c0.2,0.6,0.3,1.2,0.2,1.8l-0.4-0.2c1-0.6,2.1-0.9,3.2-0.6
		c1.5,0.4,2.5,1.7,2.7,3.2C271,146.6,270.9,146.8,270.9,146.8L270.9,146.8z"/>
	<path class="st7" d="M259.1,146.9c-0.1,0,0-0.3,0-0.8c0-0.6-0.2-1.2-0.6-1.7c-0.4-0.6-0.8-1.2-1.1-1.5c-0.2-0.2-0.4-0.2-0.6-0.1
		c0,0,0-0.1,0.1-0.2c0.2-0.1,0.5-0.1,0.7,0c0.2,0.2,0.5,0.4,0.6,0.6c0.2,0.3,0.5,0.6,0.6,0.9c0.4,0.6,0.6,1.3,0.5,2
		C259.3,146.7,259.1,147,259.1,146.9z"/>
	<path class="st7" d="M248,139.8c-0.1,0,0-0.4,0.4-1c0.2-0.4,0.5-0.7,0.8-0.9c0.4-0.3,1-0.4,1.5-0.3c0.9,0.2,1.7,0.7,2.3,1.4
		c0.4,0.5,0.6,0.9,0.6,0.9s-0.4-0.2-0.8-0.7c-0.6-0.6-1.3-1-2.1-1.1c-0.8-0.1-1.6,0.3-2,0.9C248.3,139.4,248.1,139.8,248,139.8
		L248,139.8z"/>
	<path class="st7" d="M250.9,163.9c-1.7-2.2-2.6-4.9-2.6-7.7c0.1,0,0.4,1.8,1.2,3.9S251.1,163.9,250.9,163.9z"/>
	<path class="st7" d="M253.4,165.3c-0.6-0.8-1.1-1.6-1.4-2.6c-0.4-0.9-0.7-1.9-0.7-2.9c0.5,0.8,0.9,1.7,1.2,2.7
		C252.9,163.4,253.2,164.3,253.4,165.3z"/>
	<path class="st7" d="M269.1,165.7c0.4,3.4-0.9,6.9-3.5,9.2c0.9-1.4,1.7-2.8,2.4-4.3C268.5,169,268.9,167.3,269.1,165.7z"/>
	<path class="st7" d="M271.6,161.6c0.6,1.4,0.7,3,0.4,4.5c-0.2,1.5-0.9,3-1.9,4.1c0.6-1.4,1.1-2.8,1.4-4.2
		C271.6,164.5,271.7,163,271.6,161.6z"/>
	<polyline class="st8" points="264.4,318.7 269.9,371.4 273.8,450.9 294.8,450.9 295.3,281.8 235.3,286.1 222.8,374.8 233.6,452.4 
		256.6,452.4 251.2,378.6 264.4,318.7 	"/>
	<path class="st7" d="M264.4,318.7c-2.6,2.8-5.5,5.4-8.5,7.7c1.2-1.5,2.6-2.8,4.1-4C261.3,321,262.8,319.8,264.4,318.7z"/>
	<path class="st7" d="M264.3,317.6c-0.1-2.3,0-4.5,0.1-6.8c0-2.3,0.1-4.5,0.4-6.8c0.3,2.2,0.3,4.5,0.1,6.8
		C265,313.1,264.8,315.4,264.3,317.6z"/>
	<path class="st7" d="M271.2,297.9c0.1,0,0.2,0,0.3,0l1-0.1l4-0.2l14.2-0.6h0.2v15.5l-0.2,0.1l-9.2,3.7h-0.2l-8.2-2.8h-0.1v-0.1
		c-0.6-4.6-1.1-8.5-1.5-11.2c-0.2-1.3-0.3-2.3-0.4-3.1c0-0.3-0.1-0.7-0.1-1c0,0.1,0,0.2,0.1,0.3c0,0.2,0.1,0.5,0.1,0.8
		c0.1,0.8,0.3,1.8,0.5,3.1c0.4,2.7,1,6.5,1.7,11l-0.1-0.2l8.2,2.8h-0.2l9.2-3.7l-0.2,0.2v-15l0.2,0.2l-14.1,0.4l-4,0.1h-1.5
		L271.2,297.9L271.2,297.9z"/>
	<path class="st7" d="M241,298.2c0.1,0,0.2,0,0.3,0l0.9,0l3.6-0.1l13-0.3h0.2v0.2c-0.1,4.4-0.3,9.4-0.5,14.8v0.1l-0.1,0.1l-1.5,1
		l-7.6,5l-0.1,0.1l-0.1-0.1l-8.6-5.2l-0.1-0.1v-0.1c0.2-4.6,0.3-8.4,0.4-11.2c0.1-1.3,0.1-2.3,0.1-3.1c0-0.3,0-0.7,0.1-1
		c0,0.1,0,0.2,0,0.3v4c0,2.7-0.1,6.5-0.2,11l-0.1-0.2l8.6,5.1H249l7.6-5l1.5-1l-0.1,0.2c0.2-5.4,0.4-10.4,0.5-14.8l0.2,0.2
		l-12.8,0.1h-4.6L241,298.2L241,298.2z"/>
	<path class="st7" d="M288.8,322.1c-1,0.1-1.9,0-2.8-0.1c-1.8-0.1-4.2-0.4-6.8-0.7s-5-0.7-6.8-1c-0.9-0.1-1.9-0.3-2.8-0.6
		c1,0,1.9,0.1,2.8,0.3l6.8,0.9l6.8,0.9C287,321.7,287.9,321.9,288.8,322.1L288.8,322.1z"/>
	<path class="st7" d="M288.4,380.9c0,0-0.1,0.3-0.5,0.7c-0.6,0.5-1.4,0.7-2.1,0.7c-1.1,0-2.2-0.5-3.1-1.2c-1-0.9-2-1.8-2.9-2.9
		c-1.6-1.9-3-3.9-4.2-6c-0.5-0.9-1-1.8-1.3-2.7c0.6,0.8,1.1,1.7,1.6,2.5c1.3,2,2.8,4,4.3,5.8c0.8,1,1.8,2,2.8,2.9
		c0.8,0.7,1.8,1.1,2.8,1.2c0.7,0,1.4-0.1,2-0.5C288.2,381.1,288.3,380.9,288.4,380.9L288.4,380.9z"/>
	<path class="st7" d="M246.9,382.8c0,0.2-0.1,0.5-0.3,0.7c-0.4,0.6-0.9,1-1.4,1.4c-0.9,0.5-1.9,0.8-2.9,0.8c-1.2,0-2.4-0.4-3.5-1.1
		c-1.8-1.3-3.3-3-4.2-5c-0.4-0.8-0.8-1.6-1-2.5c0.5,0.7,1,1.5,1.4,2.3c1,1.9,2.4,3.5,4.1,4.7c0.9,0.6,2.1,1,3.2,1.1
		c0.9,0,1.9-0.2,2.7-0.6C245.8,384,246.4,383.4,246.9,382.8L246.9,382.8z"/>
	<path class="st7" d="M248.3,374.8c-0.5,0.4-1.1,0.8-1.7,1c-3,1.2-6.4,1.4-9.5,0.4c-0.6-0.2-1.3-0.5-1.8-0.9c2.1,0.7,4.3,1,6.6,1
		C244,376.1,246.2,375.6,248.3,374.8L248.3,374.8z"/>
	<path class="st7" d="M316.5,188.6H286c0,0-4.2-2.4-6.2-2c-1.5,0.5-2.8,1.4-3.8,2.6l4,33.7l9.9-7.3l36.9-3.8c3.2,0,6.2-1.4,8.4-3.7
		l0,0c2.4-2.5,3.5-6,3.1-9.4l-6.8-36.2l-14,0.5L317,172L316.5,188.6L316.5,188.6z"/>
	<path class="st7" d="M232.4,197.1c-3.3,2-5.9,5-7.4,8.6c-1.8,4.3-14,25.7-20.4,36.8c-2.3,4.1-1.7,9.2,1.5,12.6l0,0
		c3.9,4.1,8.6,2.5,14.2,0.6c2.6-0.8,14-18.4,14-18.4L232.4,197.1L232.4,197.1z"/>
	<polygon class="st7" points="237.7,273.5 230.7,213.1 232.4,197.1 250.2,189.5 273.3,187.9 295.3,190.4 290.2,252.2 295.8,287.1 
		234.2,289.9 	"/>
	<path class="st8" d="M237.6,273.2c-0.1,0-1.8-13.4-3.8-30s-3.4-30-3.2-30.1s1.8,13.4,3.8,30S237.8,273.2,237.6,273.2z"/>
	<path class="st8" d="M294.9,203.9c0,0.2,0,0.4,0,0.6c0,0.4-0.1,0.9-0.1,1.5c-0.1,1.4-0.3,3.4-0.6,5.7c-0.5,4.9-1.1,11.5-1.9,18.8
		s-1.3,14-1.6,18.8c-0.2,2.4-0.3,4.3-0.4,5.7c0,0.6-0.1,1.1-0.1,1.5c0,0.2,0,0.4-0.1,0.5c0-0.2,0-0.4,0-0.5v-1.6
		c0-1.4,0.1-3.3,0.2-5.7c0.3-4.8,0.8-11.5,1.5-18.8s1.5-14,2-18.8c0.3-2.4,0.5-4.3,0.8-5.7c0.1-0.6,0.2-1.1,0.2-1.5
		C294.8,204.2,294.8,204.1,294.9,203.9L294.9,203.9z"/>
	<path class="st8" d="M284.3,264c-0.3,0.4-0.6,0.8-1,1.2c-0.4,0.5-0.8,0.9-1.2,1.3c-0.5,0.5-1.1,1.1-1.8,1.6
		c-0.7,0.6-1.5,1.2-2.3,1.8c-0.9,0.6-1.9,1.2-2.8,1.8c-4.5,2.5-9.5,4-14.6,4.4c-1.2,0-2.3,0.1-3.3,0.1c-1,0-1.9-0.1-2.9-0.2
		c-0.9-0.1-1.7-0.2-2.4-0.4c-0.6-0.1-1.2-0.2-1.8-0.4c-0.5-0.1-1-0.3-1.5-0.5c0-0.1,2.1,0.5,5.6,0.9c0.9,0.1,1.9,0.1,2.9,0.1
		c1,0,2.1,0,3.3-0.1c5-0.4,9.9-1.9,14.4-4.3c1-0.6,2-1.1,2.8-1.7s1.6-1.1,2.3-1.7C282.8,265.6,284.2,263.9,284.3,264L284.3,264z"/>
	<g class="st18">
		<path d="M251.7,275.2c-3-0.9-3.2-3.7-2-4.9s3-1.4,4.7-1.1c1.6,0.4,3.3,0.6,5,0.7c2.7-0.2,5-2.1,6.9-4.1s3.7-4.2,6.2-5.3
			s6-0.7,7.3,1.7c0.8,1.6,0.6,3.5-0.3,5c-0.9,1.5-2.2,2.7-3.7,3.6C268.8,275.6,260,277.2,251.7,275.2"/>
	</g>
	<path class="st8" d="M288.1,189.8c1.6,0.6,3,1.7,4,3.2c1.1,1.4,1.7,3.1,1.8,4.8c-0.5-1.6-1.3-3.1-2.2-4.5
		C290.7,192,289.5,190.8,288.1,189.8z"/>
	<path class="st0" d="M286,189.1c-0.2-0.1-0.3-0.2-0.5-0.3c-0.5-0.2-1.1-0.3-1.7-0.1c-0.9,0.2-1.7,0.7-2.3,1.4
		c-0.8,0.9-1.6,1.8-2.5,2.6c-1.2,0.8-2.7,1.3-4.1,1.3c-1.6,0.1-3.2-0.1-5-0.1c-3.8-0.1-7.6-0.1-11.4,0.2c-6.9,0.5-13.7,2-20.2,4.5
		c-2,0.8-3.9,1.6-5.8,2.6l-1.5,0.8c-0.4,0.2-0.5,0.3-0.5,0.3s0.2-0.1,0.5-0.3l1.5-0.8c1.9-1,3.8-1.9,5.7-2.6
		c6.5-2.5,13.3-4,20.2-4.5c3.8-0.3,7.6-0.4,11.4-0.2c1.8,0.1,3.4,0.2,5,0.1c1.5,0,2.9-0.4,4.1-1.2c0.9-0.8,1.7-1.6,2.5-2.5
		c0.6-0.7,1.4-1.1,2.3-1.4c0.6-0.1,1.2-0.1,1.7,0.1C285.7,188.9,285.9,189,286,189.1L286,189.1z"/>
	<path class="st0" d="M292.9,201.5c0,0-0.2-0.1-0.6-0.1c-0.6-0.1-1.2-0.1-1.8-0.1c-1,0.1-1.9,0.4-2.8,0.7c-1.2,0.5-2.3,1.1-3.4,1.7
		c-1.3,0.8-2.8,1.4-4.2,1.8c-1.7,0.4-3.5,0.7-5.3,0.9c-3.7,0.2-7.9,0.3-12.1,0.6c-8.6,0.6-16.4,1.6-22,2.6c-2.8,0.4-5,0.9-6.6,1.2
		l-1.8,0.3l-0.6,0.1l0.6-0.1l1.8-0.4c1.6-0.3,3.8-0.8,6.6-1.2c5.6-1,13.3-2,22-2.6c4.3-0.3,8.4-0.4,12.2-0.6
		c1.8-0.1,3.5-0.4,5.2-0.8c1.5-0.4,2.9-1,4.2-1.8c1.1-0.6,2.2-1.2,3.4-1.7c0.9-0.4,1.8-0.6,2.8-0.7c0.6-0.1,1.2,0,1.8,0.1
		C292.5,201.3,292.7,201.4,292.9,201.5L292.9,201.5z"/>
	<path class="st0" d="M293.1,218.5c0,0-0.8,0.4-2.2,0.9c-2,0.8-4.1,1.5-6.2,2.1c-7,1.9-14.1,3-21.4,3.2c-7.2,0.2-14.4,0.1-21.6-0.5
		l-6.5-0.5l-1.8-0.2c-0.4,0-0.6-0.1-0.6-0.1h0.6l1.8,0.1l6.5,0.4c7.2,0.5,14.4,0.7,21.6,0.4c7.2-0.2,14.4-1.3,21.3-3.1
		c2.7-0.7,4.8-1.5,6.2-2c0.7-0.3,1.3-0.5,1.7-0.6L293.1,218.5z"/>
	<path class="st0" d="M290.7,238.1c0,0-0.7,0.3-2.1,0.8c-1.9,0.6-3.9,1.1-5.9,1.5c-3,0.5-5.9,0.8-8.9,0.9c-3.4,0.1-7.1,0-11-0.2
		c-7.8-0.5-14.8-1.1-19.9-0.9c-2.6,0.1-4.6,0.2-6,0.4c-0.7,0.1-1.3,0.2-1.6,0.2l-0.6,0.1c2.7-0.5,5.5-0.8,8.2-0.8
		c5.1-0.2,12.2,0.3,19.9,0.8c3.9,0.2,7.6,0.4,11,0.2c3-0.1,6-0.4,8.9-0.9c2-0.3,4-0.8,5.9-1.4c0.7-0.2,1.2-0.4,1.5-0.5L290.7,238.1
		L290.7,238.1z"/>
	<path class="st0" d="M288.8,253.3c0,0-2.8,0.9-7.5,2c-2.3,0.6-5.1,1.1-8.3,1.6s-6.6,0.9-10.3,1.1s-7.1,0.2-10.3,0.2s-6-0.3-8.4-0.6
		c-4.8-0.5-7.7-1.1-7.7-1.1l0.5,0.1l1.5,0.2c1.3,0.2,3.2,0.4,5.6,0.7s5.2,0.4,8.4,0.5s6.7,0,10.3-0.2s7.1-0.6,10.2-1.1
		s5.9-1,8.3-1.5s4.2-1,5.5-1.3l1.5-0.4L288.8,253.3L288.8,253.3z"/>
	<path class="st0" d="M290.9,258.9l-0.5,0.2l-1.5,0.5c-1.3,0.5-3.2,1.2-5.4,2.2s-5,2.3-8,3.5c-3.3,1.4-6.7,2.4-10.2,3.1
		c-6.4,1.1-12.9,1.5-19.4,1.1c-2.5-0.1-4.5-0.2-5.9-0.3l-1.6-0.1l0,0l1.6,0.1l5.9,0.2c6.5,0.4,13,0,19.3-1.1
		c3.5-0.7,6.9-1.7,10.2-3.1c3-1.2,5.7-2.5,8-3.5s4.2-1.7,5.5-2.2S290.9,258.9,290.9,258.9z"/>
	<path class="st0" d="M294.1,275.4c0,0-0.7,0.5-2,1.2c-1.9,1-3.8,1.9-5.8,2.6c-6.6,2.3-13.6,3.5-20.6,3.5
		c-8.2,0.1-15.6-0.5-20.9-0.7c-2.7-0.1-4.8-0.2-6.3-0.2l0,0c1.5,0,3.7,0.1,6.4,0.2c5.4,0.2,12.8,0.8,20.9,0.7c7,0,13.9-1.2,20.5-3.4
		c2-0.7,3.9-1.6,5.8-2.6c0.7-0.3,1.2-0.7,1.5-0.8S294.1,275.4,294.1,275.4L294.1,275.4z"/>
	<path class="st0" d="M303.4,214.4c0-0.1,0-0.2,0-0.2c0.1-0.2,0.1-0.5,0.2-0.7c0.2-0.6,0.4-1.5,0.6-2.6c1.2-5.8,1.1-11.9-0.3-17.6
		c-0.3-1.1-0.5-2-0.7-2.6l-0.2-0.7l-0.1-0.2c0,0.1,0.1,0.1,0.1,0.2c0.1,0.2,0.2,0.4,0.2,0.7c0.2,0.6,0.5,1.5,0.8,2.6
		c1.5,5.8,1.6,11.9,0.3,17.7c-0.2,1.1-0.5,2-0.7,2.6c-0.1,0.2-0.2,0.5-0.2,0.7C303.4,214.2,303.4,214.3,303.4,214.4L303.4,214.4z"/>
	<path class="st0" d="M318.2,210.7c0-0.1,0-0.1,0-0.2v-3.1c-0.1-5.3-1.2-10.5-3.5-15.3c-0.4-0.9-0.8-1.6-1.1-2.1l-0.3-0.6
		c-0.1-0.1-0.1-0.2-0.1-0.2c0,0.1,0.1,0.1,0.1,0.2l0.3,0.6c0.3,0.5,0.7,1.2,1.1,2.1c2.3,4.8,3.5,10.1,3.5,15.4c0,0.8,0,1.6-0.1,2.4
		l-0.1,0.7C318.2,210.6,318.2,210.7,318.2,210.7L318.2,210.7z"/>
	<path class="st0" d="M338.2,203.8c0,0-0.1-0.1-0.2-0.2l-0.5-0.6c-0.4-0.5-1.1-1.3-1.9-2.1c-4.3-4.6-9.5-8.4-15.3-11
		c-1.1-0.5-2-0.9-2.7-1.1l-0.7-0.3c-0.1,0-0.2-0.1-0.2-0.1c0.1,0,0.2,0,0.3,0.1l0.7,0.2c0.6,0.2,1.6,0.6,2.7,1.1
		c5.8,2.6,11.1,6.3,15.4,11c0.8,0.9,1.5,1.6,1.9,2.2c0.2,0.2,0.3,0.4,0.5,0.6S338.2,203.8,338.2,203.8L338.2,203.8z"/>
	<path class="st0" d="M333.7,175.4c-0.2,0-0.4,0-0.6,0h-7.5c-2.2,0-4.2,0.1-5.7,0.2l-1.7,0.1c-0.2,0-0.4,0-0.6,0
		c0.2-0.1,0.4-0.1,0.6-0.1c0.4,0,1-0.1,1.7-0.2c1.5-0.1,3.5-0.2,5.7-0.3s4.3,0,5.7,0.1l1.7,0.1C333.2,175.4,333.5,175.4,333.7,175.4
		L333.7,175.4z"/>
	<path class="st0" d="M220.4,215.1c0.1,0.1,0.3,0.2,0.4,0.4c0.2,0.3,0.6,0.6,1,1.1c1.1,1.1,2.4,2.2,3.7,3.1c1.4,0.9,2.7,1.8,4.2,2.5
		l1.3,0.7c0.2,0.1,0.3,0.2,0.5,0.3c-0.2-0.1-0.3-0.1-0.5-0.2c-0.3-0.1-0.8-0.4-1.3-0.6c-1.5-0.7-2.9-1.6-4.2-2.5
		c-1.4-0.9-2.6-2-3.7-3.2c-0.4-0.4-0.7-0.7-1-1.1C220.6,215.4,220.5,215.3,220.4,215.1L220.4,215.1z"/>
	<path class="st0" d="M224.6,207.1c0,0,0.2,0.4,0.7,0.8c0.6,0.6,1.3,1.1,2,1.6s1.4,0.9,2.2,1.3c0.6,0.3,1,0.5,0.9,0.5
		c-1.2-0.4-2.3-0.9-3.3-1.7c-0.7-0.5-1.4-1-2-1.7C224.9,207.8,224.7,207.5,224.6,207.1L224.6,207.1z"/>
	<path class="st0" d="M231.7,241.2c0,0-0.1,0-0.2-0.1l-0.6-0.3c-0.5-0.3-1.3-0.7-2.2-1.3c-2.3-1.5-4.5-3.2-6.5-5.2
		c-2-1.9-3.8-4-5.4-6.3c-0.5-0.7-0.9-1.4-1.3-2.1l-0.3-0.6c-0.1-0.1-0.1-0.2-0.1-0.2l0.1,0.2l0.4,0.6c0.3,0.5,0.8,1.2,1.4,2.1
		c1.6,2.2,3.4,4.3,5.5,6.2c2,1.9,4.2,3.6,6.4,5.2c0.9,0.6,1.6,1.1,2.1,1.4l0.6,0.4L231.7,241.2L231.7,241.2z"/>
	<path class="st8" d="M203.9,251.6c-0.1-0.4-0.2-0.8-0.2-1.1c-0.1-1.1-0.1-2.1-0.1-3.2c0.2-3.5,1.4-6.9,3.3-9.8
		c2.1-3.4,4.1-6.5,5.6-8.8l1.7-2.6c0.2-0.3,0.4-0.6,0.7-0.9c-0.1,0.4-0.3,0.7-0.5,1l-1.6,2.7c-1.4,2.3-3.3,5.4-5.4,8.8
		c-1.9,2.9-3.1,6.2-3.4,9.6C203.8,249.9,204,251.6,203.9,251.6L203.9,251.6z"/>
	<path class="st0" d="M221.4,255.6c-1.2,0-2.3-0.2-3.5-0.5c-5.6-1.5-9.9-5.9-11.4-11.4c-0.3-1.1-0.5-2.3-0.5-3.4c0,0.1,0,0.2,0,0.2
		c0,0.1,0,0.4,0.1,0.7c0.1,0.8,0.3,1.7,0.5,2.5c1.6,5.5,5.9,9.8,11.4,11.4c0.8,0.2,1.6,0.4,2.5,0.5c0.3,0,0.5,0.1,0.7,0.1
		L221.4,255.6z"/>
	<path class="st0" d="M211.4,221.5c-0.1,0.1-0.1,0.1-0.2,0.1l-0.5,0.3c-0.6,0.4-1.3,0.8-1.9,1.2c-4,2.9-7.2,6.8-9.1,11.4
		c-0.4,0.9-0.6,1.6-0.8,2.1c-0.1,0.2-0.1,0.4-0.2,0.6s-0.1,0.2-0.1,0.2c0-0.1,0-0.1,0-0.2c0.1-0.2,0.1-0.4,0.2-0.6
		c0.2-0.7,0.4-1.4,0.7-2.1c0.9-2.3,2.2-4.4,3.7-6.4c1.6-1.9,3.4-3.6,5.4-5c0.6-0.4,1.2-0.8,1.9-1.2l0.5-0.3
		C211.3,221.5,211.4,221.5,211.4,221.5L211.4,221.5z"/>
	<path class="st0" d="M205.8,214.1l-0.6,0.2c-0.4,0.1-0.9,0.3-1.5,0.6c-1.7,0.7-3.2,1.6-4.6,2.8c-1.4,1.2-2.6,2.5-3.7,3.9
		c-0.4,0.5-0.8,1-1,1.3c-0.1,0.2-0.2,0.3-0.4,0.5c0.1-0.2,0.2-0.4,0.3-0.5c0.2-0.3,0.5-0.8,0.9-1.3c1.1-1.5,2.3-2.8,3.7-4
		c1.4-1.2,3-2.1,4.7-2.8c0.5-0.2,1-0.4,1.6-0.5C205.4,214.1,205.6,214.1,205.8,214.1L205.8,214.1z"/>
</g>
</svg>
