<svg id="Layer_1" enable-background="new 0 0 512 512" height="512" viewBox="0 0 512 512" width="512" xmlns="http://www.w3.org/2000/svg"><path d="m341.235 178.486c0-4.418 3.582-8 8-8h154.765c4.418 0 8 3.582 8 8s-3.582 8-8 8h-154.765c-4.418 0-8-3.581-8-8zm-341.235-65.877c0-62.092 50.516-112.609 112.608-112.609s112.608 50.517 112.608 112.609-50.516 112.608-112.608 112.608-112.608-50.516-112.608-112.608zm208.878 8.042-82.284-.036 41.681 70.907c22.692-16.054 38.183-41.636 40.603-70.871zm-88.27-104.317v88.278l88.277.039c-3.843-46.922-41.361-84.452-88.277-88.317zm-104.608 96.275c0 53.27 43.338 96.608 96.608 96.608 14.999 0 29.21-3.436 41.888-9.562l-48.785-82.992c-.723-1.229-1.104-2.629-1.104-4.054v-96.275c-49.54 4.081-88.607 45.699-88.607 96.275zm333.235-91.373h154.765c4.418 0 8-3.582 8-8s-3.582-8-8-8h-154.765c-4.418 0-8 3.582-8 8s3.582 8 8 8zm0 33.494h77.382c4.418 0 8-3.582 8-8s-3.582-8-8-8h-77.382c-4.418 0-8 3.582-8 8s3.582 8 8 8zm-87.713-2.764v-43.966c0-4.418 3.582-8 8-8h43.966c4.418 0 8 3.582 8 8v43.966c0 4.418-3.582 8-8 8h-43.966c-4.418 0-8-3.582-8-8zm16-8h27.966v-27.966h-27.966zm71.713 59.895h154.765c4.418 0 8-3.582 8-8s-3.582-8-8-8h-154.765c-4.418 0-8 3.582-8 8s3.582 8 8 8zm0 33.494h77.382c4.418 0 8-3.582 8-8s-3.582-8-8-8h-77.382c-4.418 0-8 3.582-8 8s3.582 8 8 8zm-87.713-2.764v-43.966c0-4.418 3.582-8 8-8h43.966c4.418 0 8 3.582 8 8v43.966c0 4.418-3.582 8-8 8h-43.966c-4.418 0-8-3.581-8-8zm16-8h27.966v-27.966h-27.966zm-208.302 194.759v182.65c0 4.418-3.582 8-8 8h-53.22c-4.418 0-8-3.582-8-8v-182.65c0-4.418 3.582-8 8-8h53.22c4.418 0 8 3.581 8 8zm-16 8h-37.22v166.65h37.22zm453.888 136.342-20.422 21.046c-3.399 3.503-7.93 5.263-12.464 5.263-4.359 0-8.722-1.626-12.091-4.895l-56.564-54.889c-3.321-3.221-5.189-7.554-5.259-12.201-.037-2.436.435-4.795 1.345-6.972l-21.77-21.125c-7.655 5.728-16.073 10.486-25.067 14.105v97.976c0 4.418-3.582 8-8 8h-53.219c-4.418 0-8-3.582-8-8v-93.557c-9.698-2.521-18.885-6.323-27.367-11.215v104.772c0 4.418-3.582 8-8 8h-53.219c-4.418 0-8-3.582-8-8v-155.65c0-4.418 3.582-8 8-8h11.971c-4.186-11.679-6.474-24.253-6.474-37.354 0-42.433 23.937-79.376 59.014-98.05v-31.696c0-4.418 3.582-8 8-8h43.966c4.418 0 8 3.582 8 8v19.03c15.082 1.076 29.34 5.176 42.169 11.7h62.96c4.418 0 8 3.582 8 8s-3.582 8-8 8h-39.5c22.926 20.35 37.4 50.022 37.4 83.016 0 21.198-5.976 41.024-16.327 57.89l22.702 22.029c2.149-.975 4.493-1.518 6.928-1.554 4.665-.07 9.033 1.667 12.354 4.89l56.564 54.889c6.871 6.668 7.037 17.682.37 24.552zm-108.357-91.671c-2.135 2.559-4.38 5.023-6.734 7.379l19.914 19.324 6.954-7.166zm-121.229-176.037c8.872-3.049 18.247-5.003 27.966-5.7v-11.034h-27.966zm-59.013 105.012c0 52.385 42.619 95.004 95.005 95.004s95.004-42.619 95.004-95.004c0-52.386-42.618-95.004-95.004-95.004s-95.005 42.618-95.005 95.004zm23.721 85.02c-10.511-8.827-19.368-19.561-26.032-31.666h-11.187v139.65h37.219zm96.586 23.072c-8.13 1.903-16.601 2.912-25.303 2.912-4.026 0-8-.221-11.916-.641v82.641h37.219zm156.78 41.533-56.564-54.889c-.316-.307-.685-.374-.946-.374-.008 0-.016 0-.023 0-.264.004-.644.077-.959.402l-20.423 21.047c-.315.325-.377.707-.373.97s.077.642.401.958l56.566 54.89c.523.507 1.424.493 1.93-.028l20.422-21.047c.505-.521.491-1.423-.031-1.929zm-333.95-177.975v229.354c0 4.418-3.582 8-8 8h-53.22c-4.418 0-8-3.582-8-8v-229.354c0-4.418 3.582-8 8-8h53.22c4.417 0 8 3.582 8 8zm-16 8h-37.22v213.354h37.22zm84.868 20.35c0-45.766 37.233-83 83-83s83 37.234 83 83-37.233 83-83 83-83-37.234-83-83zm83 67c16.6 0 31.798-6.082 43.515-16.117-4.071-20.581-22.122-35.65-43.515-35.65s-39.443 15.069-43.515 35.651c11.717 10.034 26.915 16.116 43.515 16.116zm0-67.767c10.19 0 18.48-8.291 18.48-18.481s-8.29-18.48-18.48-18.48-18.48 8.29-18.48 18.48 8.289 18.481 18.48 18.481zm-67 .767c0 13.588 4.077 26.237 11.057 36.809 5.844-14.418 17.043-25.921 31.047-32.238-5.93-6.196-9.584-14.586-9.584-23.819 0-19.013 15.468-34.48 34.48-34.48s34.48 15.468 34.48 34.48c0 9.233-3.655 17.623-9.584 23.819 14.004 6.317 25.204 17.82 31.047 32.238 6.979-10.572 11.057-23.22 11.057-36.809 0-36.944-30.056-67-67-67s-67 30.056-67 67z"/></svg>