<?xml version="1.0" encoding="UTF-8" standalone="no"?>
<!-- Created with Inkscape (http://www.inkscape.org/) -->

<svg
   version="1.1"
   id="svg561"
   xml:space="preserve"
   width="682.66669"
   height="682.66669"
   viewBox="0 0 682.66669 682.66669"
   xmlns="http://www.w3.org/2000/svg"
   xmlns:svg="http://www.w3.org/2000/svg"><defs
     id="defs565"><clipPath
       clipPathUnits="userSpaceOnUse"
       id="clipPath575"><path
         d="M 0,512 H 512 V 0 H 0 Z"
         id="path573" /></clipPath></defs><g
     id="g567"
     transform="matrix(1.3333333,0,0,-1.3333333,0,682.66667)"><g
       id="g569"><g
         id="g571"
         clip-path="url(#clipPath575)"><g
           id="g577"
           transform="translate(191.7187,90.2498)"><path
             d="M 0,0 C 0.01,-0.43 0.03,-0.85 0.06,-1.28 1.12,-17.76 14.83,-30.8 31.58,-30.8 h 247.87 c 17.43,0 31.58,14.14 31.58,31.59 v 293.55 c 0,16.75 -13.051,30.45 -29.52,31.51"
             style="fill:none;stroke:#000000;stroke-width:15;stroke-linecap:round;stroke-linejoin:round;stroke-miterlimit:10;stroke-dasharray:none;stroke-opacity:1"
             id="path579" /></g><g
           id="g581"
           transform="translate(473.3096,337.27)"><path
             d="m 0,0 v -216.79 c 0,-17.45 -14.149,-31.58 -31.59,-31.58 h -247.87 c -4.88,0 -9.51,1.11 -13.63,3.08"
             style="fill:none;stroke:#000000;stroke-width:15;stroke-linecap:round;stroke-linejoin:round;stroke-miterlimit:10;stroke-dasharray:none;stroke-opacity:1"
             id="path583" /></g><g
           id="g585"
           transform="translate(443.79,445.54)"><path
             d="M 0,0 C 16.479,-1.06 29.52,-14.76 29.52,-31.51 V -78.33"
             style="fill:none;stroke:#000000;stroke-width:15;stroke-linecap:round;stroke-linejoin:round;stroke-miterlimit:10;stroke-dasharray:none;stroke-opacity:1"
             id="path587" /></g><g
           id="g589"
           transform="translate(414.3486,474.9897)"><path
             d="m 0,0 c 15.79,-1.02 28.42,-13.66 29.44,-29.45 0.05,-0.69 0.07,-1.38 0.07,-2.07 v -293.55 c 0,-17.44 -14.14,-31.58 -31.58,-31.58 h -135.26"
             style="fill:none;stroke:#000000;stroke-width:15;stroke-linecap:round;stroke-linejoin:round;stroke-miterlimit:10;stroke-dasharray:none;stroke-opacity:1"
             id="path591" /></g><g
           id="g593"
           transform="translate(103.3877,393.9458)"><path
             d="m 0,0 c 0,12.754 10.343,23.097 23.097,23.097 h 32.779 c 17.44,0 31.58,14.139 31.58,31.58 v 32.779 c 0,12.754 10.343,23.096 23.097,23.096"
             style="fill:none;stroke:#000000;stroke-width:15;stroke-linecap:round;stroke-linejoin:round;stroke-miterlimit:10;stroke-dasharray:none;stroke-opacity:1"
             id="path595" /></g><g
           id="g597"
           transform="translate(300.2187,147.7798)"><path
             d="m 0,0 h 82.62 c 17.44,0 31.58,14.14 31.58,31.59 v 293.55 c 0,0.7 -0.02,1.39 -0.07,2.07 -1.06,16.47 -14.77,29.51 -31.51,29.51 H -93.03 c -10.47,0 -20.51,-4.16 -27.91,-11.56 v -0.01 l -64.34,-64.32 c -7.4,-7.41 -11.56,-17.46 -11.56,-27.93 V 103.15"
             style="fill:none;stroke:#000000;stroke-width:15;stroke-linecap:round;stroke-linejoin:round;stroke-miterlimit:10;stroke-dasharray:none;stroke-opacity:1"
             id="path599" /></g><g
           id="g601"
           transform="translate(91.3516,116.1152)"><path
             d="M 0,0 20.521,20.52"
             style="fill:none;stroke:#000000;stroke-width:15;stroke-linecap:round;stroke-linejoin:round;stroke-miterlimit:10;stroke-dasharray:none;stroke-opacity:1"
             id="path603" /></g><g
           id="g605"
           transform="translate(117.8643,89.6033)"><path
             d="M 0,0 20.513,20.513"
             style="fill:none;stroke:#000000;stroke-width:15;stroke-linecap:round;stroke-linejoin:round;stroke-miterlimit:10;stroke-dasharray:none;stroke-opacity:1"
             id="path607" /></g><g
           id="g609"
           transform="translate(281.1387,122.259)"><path
             d="m 0,0 c -43.391,-43.39 -113.739,-43.39 -157.13,0 -43.39,43.39 -43.39,113.739 0,157.129 43.391,43.39 113.739,43.39 157.13,0 C 43.39,113.739 43.39,43.39 0,0 Z"
             style="fill:none;stroke:#000000;stroke-width:15;stroke-linecap:round;stroke-linejoin:round;stroke-miterlimit:10;stroke-dasharray:none;stroke-opacity:1"
             id="path611" /></g><g
           id="g613"
           transform="translate(258.1143,145.2832)"><path
             d="m 0,0 c -30.674,-30.674 -80.407,-30.674 -111.081,0 -30.674,30.674 -30.674,80.407 0,111.081 30.674,30.674 80.407,30.674 111.081,0 C 30.674,80.407 30.674,30.674 0,0 Z"
             style="fill:none;stroke:#000000;stroke-width:15;stroke-linecap:round;stroke-linejoin:round;stroke-miterlimit:10;stroke-dasharray:none;stroke-opacity:1"
             id="path615" /></g><g
           id="g617"
           transform="translate(107.7598,59.75)"><path
             d="m 0,0 7.95,7.95 c 6.771,6.77 6.771,17.75 0,24.53 l -21.729,21.73 c -6.781,6.77 -17.761,6.77 -24.531,0 L -93.43,-0.92 c -6.77,-6.77 -6.77,-17.75 0,-24.52 l 21.73,-21.73 c 6.77,-6.77 17.75,-6.77 24.52,0 l 25.97,25.96"
             style="fill:none;stroke:#000000;stroke-width:15;stroke-linecap:round;stroke-linejoin:round;stroke-miterlimit:10;stroke-dasharray:none;stroke-opacity:1"
             id="path619" /></g><g
           id="g621"
           transform="translate(142.8086,339.4875)"><path
             d="m 0,0 18.728,49.169 c 0.382,0.936 1.707,0.937 2.091,0.003 L 39.376,0"
             style="fill:none;stroke:#000000;stroke-width:15;stroke-linecap:round;stroke-linejoin:round;stroke-miterlimit:10;stroke-dasharray:none;stroke-opacity:1"
             id="path623" /></g><g
           id="g625"
           transform="translate(148.6494,351.7334)"><path
             d="M 0,0 H 27.789"
             style="fill:none;stroke:#000000;stroke-width:15;stroke-linecap:round;stroke-linejoin:round;stroke-miterlimit:10;stroke-dasharray:none;stroke-opacity:1"
             id="path627" /></g><g
           id="g629"
           transform="translate(321.0137,389.3596)"><path
             d="M 0,0 V -49.872"
             style="fill:none;stroke:#000000;stroke-width:15;stroke-linecap:round;stroke-linejoin:round;stroke-miterlimit:10;stroke-dasharray:none;stroke-opacity:1"
             id="path631" /></g><g
           id="g633"
           transform="translate(297.3369,364.4236)"><path
             d="m 0,0 c 0,-13.741 -7.626,-24.615 -19.727,-24.826 -4.027,-0.071 -14.436,-0.11 -14.436,-0.11 0,0 -0.066,18.064 -0.066,24.991 0,5.689 -0.036,24.881 -0.036,24.881 H -20.14 C -6.868,24.936 0,13.741 0,0 Z"
             style="fill:none;stroke:#000000;stroke-width:15;stroke-linecap:round;stroke-linejoin:round;stroke-miterlimit:10;stroke-dasharray:none;stroke-opacity:1"
             id="path635" /></g><g
           id="g637"
           transform="translate(203.4658,389.3596)"><path
             d="m 0,0 v -34.318 c 0,-5.844 2.899,-9.778 7.824,-12.925 2.399,-1.532 5.428,-2.624 9.193,-2.629 3.26,-0.004 5.985,0.75 8.238,1.885 5.739,2.89 9.399,7.279 9.399,13.706 V 0"
             style="fill:none;stroke:#000000;stroke-width:15;stroke-linecap:round;stroke-linejoin:round;stroke-miterlimit:10;stroke-dasharray:none;stroke-opacity:1"
             id="path639" /></g><g
           id="g641"
           transform="translate(347.4521,389.3596)"><path
             d="M 0,0 H 27.543"
             style="fill:none;stroke:#000000;stroke-width:15;stroke-linecap:round;stroke-linejoin:round;stroke-miterlimit:10;stroke-dasharray:none;stroke-opacity:1"
             id="path643" /></g><g
           id="g645"
           transform="translate(361.168,387.7671)"><path
             d="M 0,0 V -48.28"
             style="fill:none;stroke:#000000;stroke-width:15;stroke-linecap:round;stroke-linejoin:round;stroke-miterlimit:10;stroke-dasharray:none;stroke-opacity:1"
             id="path647" /></g><g
           id="g649"
           transform="translate(195.9102,147.6892)"><path
             d="m 0,0 c -4.89,0 -9.535,2.256 -12.559,6.155 l -26.573,34.279 c -5.378,6.936 -4.114,16.92 2.822,22.297 6.938,5.378 16.921,4.114 22.298,-2.822 l 11.93,-15.388 23.279,41.22 c 4.318,7.643 14.011,10.34 21.655,6.023 7.642,-4.316 10.338,-14.011 6.022,-21.653 L 13.841,8.078 C 11.225,3.445 6.463,0.428 1.156,0.042 0.771,0.014 0.385,0 0,0 Z"
             style="fill:none;stroke:#000000;stroke-width:15;stroke-linecap:round;stroke-linejoin:round;stroke-miterlimit:10;stroke-dasharray:none;stroke-opacity:1"
             id="path651" /></g></g></g></g></svg>
