<?xml version="1.0" encoding="UTF-8"?>
<svg id="Layer_1" data-name="Layer 1" xmlns="http://www.w3.org/2000/svg" xmlns:xlink="http://www.w3.org/1999/xlink" viewBox="0 0 1199.45 927.28">
  <defs>
    <style>
      .cls-1 {
        opacity: .7;
      }

      .cls-1, .cls-2, .cls-3, .cls-4, .cls-5, .cls-6, .cls-7, .cls-8, .cls-9, .cls-10, .cls-11, .cls-12, .cls-13, .cls-14, .cls-15, .cls-16, .cls-17, .cls-18, .cls-19, .cls-20, .cls-21, .cls-22, .cls-23, .cls-24, .cls-25, .cls-26, .cls-27, .cls-28, .cls-29, .cls-30, .cls-31, .cls-32, .cls-33, .cls-34, .cls-35, .cls-36, .cls-37, .cls-38, .cls-39, .cls-40, .cls-41, .cls-42, .cls-43 {
        stroke-width: 0px;
      }

      .cls-1, .cls-3, .cls-4, .cls-8, .cls-10, .cls-44, .cls-14, .cls-15, .cls-17, .cls-19, .cls-20, .cls-22, .cls-27, .cls-28, .cls-29, .cls-38, .cls-40, .cls-42 {
        isolation: isolate;
      }

      .cls-1, .cls-27, .cls-39, .cls-42 {
        fill: #fff;
      }

      .cls-2 {
        fill: #9bd2a5;
      }

      .cls-3 {
        fill: url(#linear-gradient-3);
      }

      .cls-3, .cls-8, .cls-10, .cls-14, .cls-19, .cls-20, .cls-22, .cls-28, .cls-29, .cls-45 {
        mix-blend-mode: multiply;
      }

      .cls-4 {
        opacity: .77;
      }

      .cls-4, .cls-9, .cls-38 {
        fill: #ddefe1;
      }

      .cls-5 {
        fill: #443d3e;
      }

      .cls-46 {
        opacity: .5;
      }

      .cls-6 {
        fill: #cac6cc;
      }

      .cls-7 {
        fill: #5095d0;
      }

      .cls-8 {
        fill: url(#linear-gradient-8);
      }

      .cls-10 {
        fill: url(#linear-gradient-4);
      }

      .cls-11 {
        fill: #bf845d;
      }

      .cls-12 {
        fill: #3a140f;
      }

      .cls-13 {
        fill: #4a494a;
      }

      .cls-14 {
        fill: url(#linear-gradient-6);
        opacity: .14;
      }

      .cls-15, .cls-18, .cls-41 {
        fill: #1585c4;
      }

      .cls-15, .cls-28 {
        opacity: .8;
      }

      .cls-16 {
        fill: #5dbc62;
      }

      .cls-17 {
        opacity: .42;
      }

      .cls-17, .cls-33 {
        fill: #c8d4e0;
      }

      .cls-19 {
        fill: url(#linear-gradient-9);
      }

      .cls-20 {
        fill: url(#linear-gradient-2);
      }

      .cls-20, .cls-29 {
        opacity: .85;
      }

      .cls-21 {
        fill: #7abde8;
      }

      .cls-22 {
        fill: url(#linear-gradient-7);
      }

      .cls-23 {
        fill: #cfcbd3;
      }

      .cls-24 {
        fill: #282b35;
      }

      .cls-25 {
        fill: #010101;
      }

      .cls-26 {
        fill: #f0efef;
      }

      .cls-27 {
        opacity: .36;
      }

      .cls-28 {
        fill: url(#linear-gradient-5);
      }

      .cls-29 {
        fill: url(#linear-gradient);
      }

      .cls-30 {
        fill: #fbbf9e;
      }

      .cls-31 {
        fill: #26282d;
      }

      .cls-32 {
        fill: #fdfefe;
      }

      .cls-34 {
        fill: #dce1e5;
      }

      .cls-35 {
        fill: #a3cce1;
      }

      .cls-36 {
        fill: #59170d;
      }

      .cls-37 {
        fill: #161924;
      }

      .cls-38 {
        opacity: .49;
      }

      .cls-40 {
        fill: #cddaea;
        mix-blend-mode: soft-light;
      }

      .cls-41 {
        fill-rule: evenodd;
      }

      .cls-42 {
        opacity: .37;
      }

      .cls-47 {
        opacity: .74;
      }

      .cls-43 {
        fill: #af674c;
      }
    </style>
    <linearGradient id="linear-gradient" x1="567.02" y1="431.05" x2="541" y2="482.29" gradientTransform="translate(0 925.89) scale(1 -1)" gradientUnits="userSpaceOnUse">
      <stop offset="0" stop-color="#fff"/>
      <stop offset=".47" stop-color="#a6a6a6"/>
      <stop offset=".83" stop-color="#686969"/>
      <stop offset="1" stop-color="#505151"/>
    </linearGradient>
    <linearGradient id="linear-gradient-2" x1="544.42" y1="414.76" x2="518.41" y2="466" gradientTransform="translate(0 925.89) scale(1 -1)" gradientUnits="userSpaceOnUse">
      <stop offset="0" stop-color="#fff"/>
      <stop offset=".47" stop-color="#a6a6a6"/>
      <stop offset=".83" stop-color="#686969"/>
      <stop offset="1" stop-color="#505151"/>
    </linearGradient>
    <linearGradient id="linear-gradient-3" x1="688.68" y1="555.68" x2="693.36" y2="617.02" gradientTransform="translate(0 925.89) scale(1 -1)" gradientUnits="userSpaceOnUse">
      <stop offset="0" stop-color="#fff"/>
      <stop offset=".47" stop-color="#a6a6a6"/>
      <stop offset=".83" stop-color="#686969"/>
      <stop offset="1" stop-color="#505151"/>
    </linearGradient>
    <linearGradient id="linear-gradient-4" x1="778.14" y1="558.1" x2="779.31" y2="573.35" gradientTransform="translate(0 925.89) scale(1 -1)" gradientUnits="userSpaceOnUse">
      <stop offset="0" stop-color="#fff"/>
      <stop offset=".47" stop-color="#a6a6a6"/>
      <stop offset=".83" stop-color="#686969"/>
      <stop offset="1" stop-color="#505151"/>
    </linearGradient>
    <linearGradient id="linear-gradient-5" x1="857.28" y1="547.44" x2="831.63" y2="623.3" gradientTransform="translate(0 925.89) scale(1 -1)" gradientUnits="userSpaceOnUse">
      <stop offset="0" stop-color="#fff"/>
      <stop offset=".47" stop-color="#a6a6a6"/>
      <stop offset=".83" stop-color="#686969"/>
      <stop offset="1" stop-color="#505151"/>
    </linearGradient>
    <linearGradient id="linear-gradient-6" x1="542.64" y1="1001.33" x2="789.99" y2="283.82" gradientTransform="translate(0 925.89) scale(1 -1)" gradientUnits="userSpaceOnUse">
      <stop offset="0" stop-color="#fff"/>
      <stop offset=".47" stop-color="#a6a6a6"/>
      <stop offset=".83" stop-color="#686969"/>
      <stop offset="1" stop-color="#505151"/>
    </linearGradient>
    <linearGradient id="linear-gradient-7" x1="422.66" y1="780.58" x2="432.2" y2="824.17" gradientTransform="translate(-147.92 1229.65) rotate(5.52) scale(1 -1)" gradientUnits="userSpaceOnUse">
      <stop offset="0" stop-color="#fff"/>
      <stop offset=".52" stop-color="#c6c0b9"/>
    </linearGradient>
    <linearGradient id="linear-gradient-8" x1="335.87" y1="292" x2="363.44" y2="398.21" gradientTransform="translate(0 925.89) scale(1 -1)" gradientUnits="userSpaceOnUse">
      <stop offset="0" stop-color="#fff"/>
      <stop offset=".09" stop-color="#f8f8f8"/>
      <stop offset=".23" stop-color="#e6e4e4"/>
      <stop offset=".39" stop-color="#c9c4c5"/>
      <stop offset=".57" stop-color="#a09899"/>
      <stop offset=".77" stop-color="#6d6062"/>
      <stop offset=".87" stop-color="#504143"/>
    </linearGradient>
    <linearGradient id="linear-gradient-9" x1="-6828.46" y1="361.48" x2="-6778.4" y2="396.03" gradientTransform="translate(-6015.59 996.46) rotate(178.59)" gradientUnits="userSpaceOnUse">
      <stop offset="0" stop-color="#fff"/>
      <stop offset=".52" stop-color="#c6c0b9"/>
    </linearGradient>
  </defs>
  <g class="cls-44">
    <g id="Layer_1-2" data-name="Layer 1">
      <g>
        <g>
          <rect class="cls-32" x="673.87" width="439.24" height="437.32"/>
          <rect class="cls-9" x="980.89" width="11.14" height="437.32"/>
          <rect class="cls-9" x="825.41" width="11.14" height="437.32"/>
          <rect class="cls-9" x="677.32" y="91.44" width="435" height="10.53"/>
        </g>
        <g>
          <path class="cls-2" d="M985.15,308.47c-2.55-4.33-5.23-8.57-8.03-12.72-37.32-55.3-101.54-93.12-164.72-110.21-27.67-7.49-56.24-11.41-84.86-12.38-187.74-6.36-262.52,141.6-324.57,179.79-62.05,38.19-157.51,103.42-151.15,240.25,6.36,136.83,105.01,265.71,295.94,273.66,190.93,7.96,203.65-77.96,310.25-109.78,70.55-21.06,120.67-92.19,145.21-157.92,33.45-89.58,31.87-205.94-18.07-290.68h0Z"/>
          <path class="cls-1" d="M985.15,308.47c-2.55-4.33-5.23-8.57-8.03-12.72-37.32-55.3-101.54-93.12-164.72-110.21-27.67-7.49-56.24-11.41-84.86-12.38-187.74-6.36-262.52,141.6-324.57,179.79-62.05,38.19-157.51,103.42-151.15,240.25,6.36,136.83,105.01,265.71,295.94,273.66,190.93,7.96,203.65-77.96,310.25-109.78,70.55-21.06,120.67-92.19,145.21-157.92,33.45-89.58,31.87-205.94-18.07-290.68h0Z"/>
        </g>
        <polygon class="cls-37" points="591.49 856.65 597.79 856.65 645.09 656.45 629.32 656.45 591.49 856.65"/>
        <polygon class="cls-37" points="801.67 859.8 795.37 859.8 748.07 659.6 763.84 659.6 801.67 859.8"/>
        <polygon class="cls-37" points="706.93 837.2 701.18 837.2 688.18 638.76 702.56 638.76 706.93 837.2"/>
        <polygon class="cls-5" points="899.75 687.47 500.7 687.47 511.48 319.09 889.01 319.09 899.75 687.47"/>
        <polygon class="cls-9" points="727.92 401.47 684.23 401.47 684.8 346.24 727.94 346.24 727.92 401.47"/>
        <g class="cls-45">
          <path class="cls-6" d="M695.9,359.68c-.19-.02-.48,0-.56-.37h0c.06-.3.11-.26.1-.34h0c.01-.08-.07-.39-.94-.94h0c-.73-.47-1.18-.63-1.46-.62h0c-.66-.08-1.11,1.04-3.13,2.25h0l-.28-.48c1.94-1.08,2.19-2.25,3.41-2.33h0c.48,0,1,.23,1.76.72h0c.91.57,1.18.99,1.2,1.4h0c0,.06-.01.12-.03.16h0c.22,0,.61.01,1.24.01h0c3.21,0,6.43-.8,6.37-.77h0l1.52-.85,16.84-.39.02.55-16.71.35-1.46.84s-3.28.82-6.57.82h0c-.67,0-1.06,0-1.31-.02h0Z"/>
          <path class="cls-6" d="M689.75,369.36h0ZM689.62,368.83l3.33-.82,1.44.07,2.76-2.59.19.17.78.74s.78.1,2.67.13h0c4.44.07,7.99.09,10.82.09h0c8.25,0,10.29-.22,10.3-.21h0l.06.54s-2.11.22-10.36.22h0c-2.83,0-6.38-.02-10.82-.09h0c-1.89-.02-2.72-.13-2.88-.2h0l-.74-.65-2.59,2.33h-1.56l-3.26.8-.13-.53h-.01Z"/>
          <path class="cls-6" d="M709.19,375.68s-1.39-2.94-3.87-4.17h0c-.23-.12-.39-.16-.5-.16h0c-1.11-.21-.43,3.3-1.67,3.74h0c-.29-.02-.49-.18-.72-.45h0c-.31-.34-.58-.45-.85-.45h0c-1.15-.07-2.62,2.3-2.62,2.32h0l-.09.14h-9.25v-.55h8.95c.34-.53,1.52-2.39,3-2.45h0c.43,0,.88.19,1.26.63h0c.2.24.31.27.31.26h0c.27.43-.15-3.54,1.67-3.74h0c.24,0,.48.07.75.21h0c2.64,1.33,4.04,4.26,3.97,4.29h0l4.54,1.6,7.93-.81.05.54-8.05.8-4.82-1.77h0v.02Z"/>
          <path class="cls-6" d="M695.45,385.94c-.1,0-.22.02-.36.05h0c-1.71.44-2.26,1.17-3.21,1.22h0c-.71-.01-1.37-.48-2.55-1.69h0l.39-.39c1.17,1.21,1.75,1.54,2.16,1.52h0c.55.04,1.26-.71,3.07-1.19h0c.18-.05.34-.08.5-.08h0c2.01.22,1.29,3.69,1.97,3.33h0c.26.04,1.06-.45,2.42-1.95h0c.57-.62,1.18-.9,1.76-.9h0c1.77.04,2.94,2.2,2.97,2.29h0s.53.26,1.29.26h0c.99,0,2.4-.41,3.77-2.43h0c1.52-2.28,3.19-2.8,4.31-2.79h0c.78,0,1.29.24,1.32.26h0c1.44.79,3.1,2.75,3.49,3.22h3.5v.55h-3.77l-.08-.11s-1.95-2.39-3.4-3.18h0s-.41-.2-1.07-.2h0c-.94,0-2.4.39-3.85,2.55h0c-1.45,2.15-3.08,2.68-4.23,2.67h0c-.92,0-1.52-.31-1.66-.43h0s-1.28-2.17-2.6-2.12h0c-.41,0-.85.18-1.36.72h0c-1.41,1.51-2.15,2.1-2.82,2.13h0c-1.6-.37-.68-3.55-1.97-3.33h0v.02Z"/>
        </g>
        <polygon class="cls-26" points="576.59 398.04 529.56 398.04 531.86 338.6 578.29 338.6 576.59 398.04"/>
        <g>
          <polygon class="cls-23" points="569.29 354.98 539.75 354.98 539.91 350.73 569.42 350.73 569.29 354.98"/>
          <polygon class="cls-23" points="568.89 367.91 539.27 367.91 539.42 363.94 569.02 363.94 568.89 367.91"/>
          <polygon class="cls-23" points="568.7 374.16 539.05 374.16 539.2 370.19 568.82 370.19 568.7 374.16"/>
          <polygon class="cls-23" points="568.51 380.43 538.82 380.43 538.97 376.45 568.63 376.45 568.51 380.43"/>
        </g>
        <polygon class="cls-9" points="646.39 397.64 606.57 397.64 607.81 347.32 647.11 347.32 646.39 397.64"/>
        <g class="cls-47">
          <polygon class="cls-39" points="639.05 361.19 614.05 361.19 614.13 357.59 639.11 357.59 639.05 361.19"/>
          <polygon class="cls-39" points="638.87 372.13 613.81 372.13 613.88 368.78 638.93 368.78 638.87 372.13"/>
          <polygon class="cls-39" points="638.79 377.42 613.68 377.42 613.76 374.06 638.84 374.06 638.79 377.42"/>
          <polygon class="cls-39" points="638.7 382.73 613.56 382.73 613.64 379.36 638.75 379.36 638.7 382.73"/>
        </g>
        <polygon class="cls-32" points="862.58 654.2 549.72 654.2 558 414.2 855.3 414.2 862.58 654.2"/>
        <g>
          <g>
            <path class="cls-18" d="M597.66,500.37c-1.9-2.77-2.68-6.47-2.68-10.57h0c.17-16.1,11.73-39.69,25.45-40.06h0c.61,0,1.1.49,1.1,1.11h0c0,.62-.49,1.11-1.1,1.11h0c-5.47-.07-11.43,5.39-15.86,13.05h0c-4.44,7.61-7.38,17.23-7.36,24.79h0c.12,7.75,2.71,12.77,9.59,12.81h0c8.1.04,16.45-6.52,22.69-14.99h0c6.25-8.43,10.32-18.7,10.3-25.27h0c-.06-4.02-1.28-6.22-4.04-6.78h0c-.61-.11-1.01-.7-.89-1.3h0c.11-.61.7-1,1.3-.89h0c4.12.78,5.92,4.56,5.85,8.96h0c-.18,14.63-16.67,42.19-35.21,42.49h-.1c-4.06,0-7.15-1.7-9.03-4.46h-.01Z"/>
            <path class="cls-18" d="M632.16,464.9l-2.84-15.31c-.07-.36.04-.72.29-.97h0c.25-.26.61-.39.96-.33h0l9.94,1.47c.6.09,1.03.65.93,1.26h0c-.09.6-.65,1.02-1.26.93h0l-8.4-1.24,2.56,13.78h0c.11.61-.29,1.19-.89,1.3h0c-.07,0-.13.02-.2.02h0c-.53,0-1-.37-1.1-.91h.01Z"/>
          </g>
          <g>
            <path class="cls-18" d="M587.44,462.89c-.69-.57-.83-1.41-.82-2.04h0c.01-1.08.26-2.23.26-3.72h0c0-1.26-.16-2.72-.78-4.43h0c-.78-2.14-1.24-4.29-1.24-6.2h0c0-1.41.25-2.72.96-3.79h0c.7-1.07,1.98-1.74,3.44-1.72h0c.26,0,.54.02.81.05h0c4.06.37,6.12,2.52,5.99,5.15h0c-.03,2.24-.99,4.65-1.62,7.35h0c-.42,1.72-.55,2.83-.55,3.56h0c-.02,1.3.39,1.42.47,2.8h0c0,.28-.03.58-.11.92h0c-.6,2.11-2.7,2.77-4.36,2.79h0c-.86-.01-1.71-.17-2.45-.73h0ZM592.09,460.31c.04-.18.05-.3.05-.4h0c.07-.27-.46-.98-.48-2.8h0c0-.97.16-2.25.6-4.08h0c.69-2.83,1.58-5.28,1.56-6.83h0c-.12-1.56-.35-2.31-4.07-2.94h0l.14-1.1-.15,1.1c-.19-.03-.36-.04-.51-.04h0c-1.55.05-2.05.89-2.17,3.29h0c0,1.54.4,3.49,1.11,5.43h0c.72,1.98.91,3.74.91,5.19h0c0,1.71-.27,3.05-.26,3.72h0c0,.18.02.3.03.34h0c.15.09.54.21,1.01.2h0c1.1.03,2.19-.62,2.21-1.09h.02Z"/>
            <path class="cls-18" d="M581.04,443.19l-2.94-2.63c-.46-.41-.49-1.11-.09-1.57h0c.41-.45,1.11-.49,1.57-.09h0l2.94,2.63c.46.41.49,1.11.09,1.57h0c-.22.24-.52.37-.83.37h0c-.26,0-.53-.09-.74-.28h0Z"/>
            <path class="cls-18" d="M575.22,449.56c-.1-.61.32-1.18.93-1.27h0l5.67-.88c.61-.09,1.18.33,1.27.93h0c.09.61-.33,1.18-.93,1.27h0l-5.67.87c-.06,0-.12.01-.17.01h0c-.54,0-1.01-.4-1.1-.94h0Z"/>
            <path class="cls-18" d="M597.38,443.09c-.4-.47-.34-1.17.12-1.57h0l3.08-2.63c.47-.4,1.18-.34,1.58.12h0c.39.47.33,1.17-.13,1.57h0l-3.08,2.63c-.21.18-.47.27-.72.27h0c-.32,0-.63-.13-.85-.39h0Z"/>
            <path class="cls-18" d="M603.17,450.49l-5.63-.87c-.61-.1-1.02-.67-.93-1.27h0c.1-.61.66-1.02,1.27-.93h0l5.63.88c.61.1,1.02.66.93,1.27h0c-.08.55-.56.94-1.09.94h0c-.06,0-.11,0-.17-.01h-.01Z"/>
            <path class="cls-18" d="M585.58,438.87l-.34-3.37c-.05-.62.39-1.16,1-1.22h0c.61-.06,1.15.39,1.22.99h0l.33,3.37c.06.61-.39,1.15-1,1.22h-.11c-.56,0-1.04-.43-1.1-1h0Z"/>
            <path class="cls-18" d="M592.55,439.58c-.58-.19-.9-.82-.7-1.4h0l1.35-4.1c.19-.58.82-.9,1.4-.7h0c.58.19.9.82.71,1.4h0l-1.35,4.1c-.15.47-.59.76-1.06.76h0c-.11,0-.23-.02-.35-.05h0Z"/>
          </g>
          <g>
            <path class="cls-18" d="M647.87,459.19c-.53-.32-.7-1-.38-1.53h0l7.96-13.24c.18-.31.51-.51.86-.54h0c.36-.03.7.11.93.39h0l2.4,2.81,8.07-13.21c.31-.52,1-.69,1.52-.37h0c.52.31.69,1,.37,1.52h0l-8.87,14.52c-.19.3-.51.5-.86.53h0c-.36.03-.71-.12-.94-.39h0l-2.39-2.81-7.16,11.92h0c-.21.35-.58.55-.95.55h0c-.19,0-.4-.05-.57-.16h0Z"/>
            <path class="cls-18" d="M669.15,440.59l-.45-6.31-5.3,1.74h0c-.59.2-1.22-.12-1.4-.71h0c-.2-.58.12-1.21.71-1.41h0l6.66-2.18c.32-.11.68-.05.97.13h0c.28.19.46.5.48.85h0l.55,7.74c.04.61-.42,1.14-1.03,1.18h-.09c-.58,0-1.07-.45-1.1-1.04h0Z"/>
          </g>
          <g>
            <path class="cls-18" d="M647.05,494.05c-.19,0-.37-.07-.5-.21h0c-.13-.14-.2-.31-.2-.5h0l.3-13.48c0-.38.32-.68.7-.68h4.21c.19,0,.37.07.49.2h0c.14.13.2.32.2.5h0l-.3,13.47c0,.38-.31.68-.69.68h-4.22v.02ZM651.27,493.35h0ZM647.76,492.66h2.83l.26-12.09h-2.83l-.27,12.09h.01Z"/>
            <path class="cls-18" d="M653.8,494.05c-.19,0-.36-.07-.5-.21h0c-.13-.14-.2-.31-.2-.5h0l.39-17.96c0-.38.31-.68.69-.68h4.2c.19,0,.37.08.49.21h0c.13.14.2.32.2.5h0l-.36,17.96c-.01.38-.32.68-.7.68h-4.22,0ZM658.02,493.35h0ZM654.5,492.66h2.84l.33-16.58h-2.82l-.35,16.58h0Z"/>
            <path class="cls-18" d="M660.97,494.05c-.19,0-.37-.07-.5-.21h0c-.13-.14-.2-.31-.19-.5h0l.45-22.92c0-.38.31-.68.7-.68h4.2c.19,0,.37.08.49.21h0c.13.14.2.32.2.5h0l-.44,22.91c0,.38-.32.68-.69.68h-4.22ZM665.19,493.35h0ZM661.67,492.66h2.83l.41-21.53h-2.82l-.42,21.53h0Z"/>
            <path class="cls-18" d="M668.26,494.05c-.19,0-.37-.07-.5-.21h0c-.13-.13-.2-.31-.19-.5h0l.5-27.87c0-.39.31-.68.7-.68h4.21c.18,0,.36.07.49.2h0c.13.13.19.32.19.5h0l-.49,27.87c0,.37-.32.68-.69.68h-4.22ZM672.47,493.35h0ZM668.96,492.66h2.82l.47-26.48h-2.82l-.48,26.48h.01Z"/>
          </g>
        </g>
        <g>
          <path class="cls-9" d="M723.72,443.11c-.13-.09-.48.14-.7-.63h0c.05-.17.09-.28.13-.36h0s-.11-.05-.18-.08h0c-.5-.21-1.45-.49-3.01-.82h0c-2.67-.57-4.38-.79-5.69-.79h0c-3.13-.02-4.4,1.33-11.52,2.74h0l-.21-1.08c6.97-1.35,8.17-2.74,11.74-2.76h0c1.44,0,3.23.24,5.92.82h0c3.14.79,3.94.83,4.27,1.9h.17c.8.02,2.2.02,4.56.02h0c11.59,0,23.17-.97,23.12-.96h0l5.08-.98,60.14-.47v1.11l-60.03.46-5.04.98s-11.63.98-23.28.98h0c-3.55,0-4.9,0-5.47-.07h0ZM702.73,443.16h0Z"/>
          <path class="cls-9" d="M702.6,454.8h0ZM702.51,453.7l11.69-.98,5.65.03,9.32-2.97.16.05,3.19.95s2.87.11,9.62.16h0c15.65.08,28.2.11,38.22.11h0c29.89,0,37.29-.27,37.34-.27h0l.04,1.11s-7.48.27-37.38.27h0c-10.03,0-22.58-.03-38.23-.11h0c-6.76-.04-9.66-.16-9.8-.18h0l-3.17-.93-9.15,2.9h-5.77l-11.64.96-.1-1.1h0Z"/>
          <path class="cls-9" d="M773.1,462.57l-.11-.08s-5-3.53-14.17-5.08h0c-.85-.15-1.54-.22-2.14-.22h0c-2.46.05-2.89.89-3.39,1.91h0c-.41.95-.7,2.56-2.52,2.58h0c-.57,0-1.23-.14-2.07-.46h0c-1.14-.44-2.36-.61-3.58-.61h0c-4.91-.01-9.86,2.86-9.86,2.87h0l-.14.07h-32.64v-1.11h32.35c.84-.47,5.45-2.94,10.29-2.95h0c1.33,0,2.68.19,3.97.68h0c.76.28,1.3.39,1.67.39h0c.91.02.95-.62,1.5-1.9h0c.47-1.22,1.62-2.64,4.41-2.58h0c.67,0,1.44.07,2.33.23h0c8.57,1.44,13.64,4.61,14.49,5.18h0l16.47,1.92,28.32-.97.03,1.11-28.4.97-16.82-1.96h.01ZM702.49,463.56h0Z"/>
          <path class="cls-6" d="M727.31,476.43c-.53-.9-.91-1.65-3.77-1.71h0c-.43,0-.91.02-1.47.07h0c-6.21.55-8.4,1.45-11.22,1.46h0c-2.07,0-4.36-.51-8.62-1.97h0l.36-1.05c4.23,1.44,6.38,1.9,8.25,1.9h0c2.53.01,4.82-.88,11.13-1.45h0c.57-.05,1.08-.09,1.56-.09h0c3.07-.05,4.21,1.19,4.75,2.3h0c.64,1.09.58,1.65,2.4,1.71h0c1.49,0,4.22-.62,9.09-2.41h0c1.96-.73,3.93-1.02,5.77-1.02h0c5.73,0,10.27,2.67,10.27,2.71h0c.09,0,2.06.34,5.02.34h0c3.78,0,9.11-.56,13.95-3h0c5.37-2.72,11.04-3.26,14.79-3.27h0c2.6,0,4.3.27,4.34.28h0c5.27.97,11.7,3.56,12.57,3.91h12.84v1.11h-13.06l-.1-.05s-6.98-2.88-12.43-3.89h0s-1.61-.26-4.15-.26h0c-3.65,0-9.15.54-14.28,3.15h0c-5.08,2.55-10.56,3.11-14.45,3.12h0c-3.11,0-5.2-.36-5.41-.43h0s-1.12-.66-2.91-1.31h0c-1.79-.66-4.26-1.31-6.98-1.31h0c-1.73,0-3.56.26-5.38.95h0c-4.93,1.81-7.7,2.47-9.48,2.48h-.15c-2.15,0-2.8-1.4-3.23-2.3h0v.03Z"/>
        </g>
        <g>
          <g>
            <path class="cls-9" d="M737.09,574.72c-.11-.08-.4.13-.58-.52h0c.04-.14.08-.24.11-.31h0s-.09-.04-.15-.07h0c-.42-.17-1.21-.4-2.53-.69h0c-2.23-.48-3.67-.67-4.77-.67h0c-2.62-.01-3.68,1.13-9.65,2.3h0l-.18-.91c5.83-1.13,6.83-2.29,9.82-2.31h0c1.21,0,2.7.2,4.96.69h0c2.63.65,3.3.69,3.57,1.59h.15c.67.01,1.85.02,3.83.02h0c9.7,0,19.39-.81,19.36-.81h0l4.26-.82,50.38-.39v.92l-50.28.4-4.22.82s-9.74.81-19.49.81h0c-2.98,0-4.11,0-4.58-.05h-.01Z"/>
            <path class="cls-9" d="M719.31,583.6l9.8-.82,4.73.02,7.79-2.49.14.05,2.68.8s2.41.11,8.06.13h0c13.27.07,23.87.09,32.33.09h0c24.77,0,30.92-.22,30.96-.22h0l.03.92s-6.22.23-30.99.23h0c-8.45,0-19.07-.02-32.33-.1h0c-5.67-.02-8.09-.13-8.21-.14h0l-2.66-.78-7.66,2.42h-4.83l-9.75.82h0l-.08-.93h-.01Z"/>
            <path class="cls-9" d="M778.45,591.03l-.09-.07s-4.19-2.96-11.87-4.25h0c-.71-.13-1.3-.19-1.8-.19h0c-2.06.05-2.42.74-2.84,1.6h0c-.34.8-.59,2.15-2.12,2.17h0c-.47,0-1.02-.12-1.73-.39h0c-.96-.37-1.97-.52-3-.52h0c-4.11,0-8.25,2.4-8.26,2.41h0l-.11.06h-27.33v-.93h27.09c.69-.39,4.56-2.46,8.62-2.47h0c1.11,0,2.24.15,3.33.57h0c.64.24,1.09.33,1.39.33h0c.76.01.79-.52,1.26-1.6h0c.4-1.03,1.37-2.21,3.7-2.16h0c.56,0,1.21.06,1.96.2h0c7.19,1.2,11.45,3.87,12.14,4.33h0l13.78,1.62,23.72-.81.03.93-23.79.81-14.09-1.64h0ZM719.31,591.86h0Z"/>
            <path class="cls-9" d="M740.1,602.64c-.45-.75-.78-1.38-3.16-1.43h0c-.36,0-.77.01-1.22.06h0c-5.21.46-7.04,1.2-9.4,1.21h0c-1.75,0-3.66-.42-7.23-1.64h0l.3-.88c3.54,1.21,5.34,1.59,6.92,1.59h0c2.12,0,4.04-.74,9.31-1.21h0c.48-.04.92-.06,1.31-.06h0c2.56-.05,3.53.99,3.98,1.92h0c.54.91.49,1.37,2.01,1.43h0c1.25,0,3.53-.52,7.62-2.03h0c1.64-.61,3.28-.84,4.81-.84h0c4.83,0,8.67,2.26,8.63,2.27h0c.07,0,1.73.29,4.2.29h0c3.17,0,7.64-.47,11.7-2.51h0c4.49-2.28,9.24-2.74,12.38-2.74h0c2.18,0,3.6.23,3.62.23h0c4.69.87,10.49,3.26,10.44,3.28h10.84v.93l-11.02-.04s-5.85-2.41-10.41-3.25h0s-1.35-.22-3.47-.22h0c-3.05,0-7.66.46-11.97,2.64h0c-4.25,2.14-8.86,2.61-12.11,2.61h0c-2.6,0-4.34-.29-4.53-.35h0s-3.71-2.21-8.3-2.21h0c-1.44,0-2.96.22-4.49.79h0c-4.12,1.52-6.45,2.09-7.94,2.09h-.14c-1.79,0-2.33-1.18-2.69-1.92h0Z"/>
          </g>
          <g>
            <polygon class="cls-9" points="807.83 519.47 720.15 519.47 720.22 515.22 807.79 515.22 807.83 519.47"/>
            <polygon class="cls-9" points="807.9 526.16 720.04 526.16 720.11 521.9 807.86 521.9 807.9 526.16"/>
            <polygon class="cls-9" points="807.95 532.89 719.93 532.89 720 528.6 807.91 528.6 807.95 532.89"/>
            <polygon class="cls-9" points="808.01 539.64 719.82 539.64 719.89 535.34 807.99 535.34 808.01 539.64"/>
            <polygon class="cls-9" points="808.07 546.41 719.7 546.41 719.78 542.1 808.03 542.1 808.07 546.41"/>
            <polygon class="cls-9" points="808.13 553.22 719.59 553.22 719.66 548.9 808.1 548.9 808.13 553.22"/>
            <polygon class="cls-9" points="808.2 560.05 719.48 560.05 719.55 555.71 808.16 555.71 808.2 560.05"/>
          </g>
        </g>
        <g>
          <path class="cls-4" d="M759.13,627.63c-.79-.66-1.98-.56-2.65.23-.67.79-.57,1.98.23,2.65.79.67,1.97.57,2.65-.23.67-.79.57-1.97-.23-2.65ZM762.87,623.2c-3.24-2.74-8.08-2.33-10.83.91-2.73,3.25-2.33,8.09.92,10.83,3.24,2.73,8.09,2.33,10.83-.92,2.74-3.24,2.33-8.08-.92-10.82ZM755.37,632.08c-1.66-1.41-1.87-3.89-.47-5.55,1.4-1.67,3.9-1.88,5.56-.48,1.66,1.41,1.88,3.9.47,5.56-1.4,1.66-3.89,1.87-5.56.47ZM765.02,640.84l-1.57.78c-.23.14-.55.05-.7-.19l-1.38-2.07c-1.67.57-3.48.71-5.23.42l-.99,2.2c-.12.27-.42.41-.65.31l-1.68-.52c-.26-.05-.42-.34-.36-.63l.43-2.45c-.68-.36-1.35-.8-1.96-1.32-.67-.56-1.24-1.19-1.74-1.86l-2.39.86c-.27.1-.58-.02-.68-.26l-.8-1.57c-.14-.22-.04-.53.19-.7l2.1-1.41c-.53-1.64-.67-3.39-.4-5.09l-2.42-1.09c-.27-.11-.41-.41-.32-.65l.51-1.68c.05-.25.33-.42.62-.37l2.71.47c.36-.69.8-1.35,1.31-1.96.61-.72,1.29-1.34,2.03-1.86l-.93-2.62c-.09-.28.03-.58.26-.67l1.58-.8c.22-.13.54-.04.7.2l1.57,2.34c1.59-.47,3.26-.58,4.9-.31l1.07-2.55c.11-.27.4-.43.64-.34l1.7.47c.25.05.42.33.38.62l-.42,2.9s0,.03-.01.06c.65.34,1.27.76,1.85,1.26.64.54,1.2,1.13,1.67,1.77h.03l2.78-.9c.28-.08.57.04.67.28l.74,1.6c.13.21.04.53-.21.69l-2.36,1.5c.49,1.49.64,3.07.48,4.63l2.41,1.08c.26.12.4.41.31.66l-.51,1.68c-.06.26-.34.41-.63.37l-2.53-.43c-.4.84-.91,1.65-1.54,2.39-.54.65-1.14,1.21-1.78,1.69l.85,2.41c.09.27-.02.57-.26.68l-.04-.02Z"/>
          <path class="cls-38" d="M782.11,628.99c-.53-.45-1.33-.38-1.78.15-.45.54-.39,1.33.14,1.78.54.45,1.33.38,1.78-.16.46-.53.39-1.33-.15-1.77h.01ZM784.63,626c-2.19-1.84-5.45-1.57-7.3.62-1.84,2.18-1.56,5.45.62,7.29,2.18,1.85,5.45,1.58,7.3-.61,1.84-2.19,1.56-5.45-.62-7.3ZM779.58,631.99c-1.11-.95-1.26-2.62-.32-3.75.94-1.12,2.63-1.26,3.75-.32s1.26,2.63.31,3.74c-.94,1.12-2.61,1.27-3.75.32h.01ZM786.08,637.89l-1.06.53c-.15.09-.37.03-.47-.13l-.93-1.39c-1.13.38-2.34.47-3.52.28l-.67,1.48c-.08.18-.28.28-.45.21l-1.12-.35c-.17-.04-.29-.23-.25-.42l.29-1.66c-.46-.24-.91-.54-1.32-.88-.45-.38-.84-.81-1.17-1.25l-1.61.57c-.19.07-.39-.02-.46-.17l-.53-1.06c-.1-.15-.04-.36.13-.47l1.4-.96c-.36-1.09-.45-2.28-.26-3.43l-1.64-.72c-.18-.08-.27-.28-.21-.45l.34-1.13c.04-.17.23-.28.42-.25l1.83.32c.24-.46.54-.91.88-1.31.42-.49.87-.91,1.36-1.25l-.63-1.76c-.06-.19.01-.4.18-.46l1.06-.53c.15-.08.35-.03.47.13l1.05,1.58c1.07-.32,2.2-.39,3.31-.21l.71-1.71c.08-.18.26-.29.43-.23l1.15.32c.17.04.29.22.26.42l-.29,1.95v.03c.43.23.85.52,1.24.84.44.37.8.76,1.13,1.19h.01l1.87-.61c.19-.06.4.03.46.19l.5,1.08c.09.15.02.36-.15.47l-1.59,1.01c.33,1,.43,2.07.31,3.11l1.63.73c.17.08.26.28.2.44l-.34,1.14c-.04.16-.23.28-.42.25l-1.71-.29c-.27.57-.62,1.11-1.04,1.61-.36.43-.77.81-1.21,1.14l.57,1.62c.05.18-.02.39-.18.45h.04Z"/>
        </g>
        <g>
          <path class="cls-41" d="M671.67,527.28v17.91l3.93,4.45,2.79,3.04h29.02v-25.5l-35.74.11h0ZM691.86,531.43h11.32v.41h-11.32v-.41ZM691.86,533.32h11.32v.42h-11.32v-.42ZM691.86,535.21h11.32v.42h-11.32v-.42ZM691.86,537.1h11.32v.42h-11.32v-.42ZM676.39,531.43h11.5v.41h-11.5v-.41ZM676.39,533.32h11.5v.42h-11.5v-.42ZM676.39,535.21h11.5v.42h-11.5v-.42ZM676.39,537.1h11.5v.42h-11.5v-.42ZM703.72,543.03h-27.33v-.43h27.33v.43ZM703.72,540.5h-27.33v-.41h27.33v.41Z"/>
          <g>
            <polygon class="cls-18" points="653.14 508.45 653.14 533.59 675.81 533.84 675.81 508.34 653.14 508.45"/>
            <g>
              <rect class="cls-40" x="657.86" y="515.94" width="6.93" height=".42"/>
              <rect class="cls-40" x="657.86" y="517.83" width="6.93" height=".43"/>
              <rect class="cls-40" x="657.86" y="519.73" width="6.93" height=".41"/>
              <rect class="cls-40" x="657.86" y="521.61" width="6.93" height=".42"/>
              <rect class="cls-40" x="657.86" y="523.5" width="14.7" height=".42"/>
              <rect class="cls-40" x="657.86" y="526.03" width="14.7" height=".41"/>
            </g>
          </g>
        </g>
        <g>
          <path class="cls-18" d="M631.65,599.66l1.74,1.91-13.49,11.59-7.08-3.36-30.96,25.73c1.04.16,1.84.99,1.97,2.04l29.59-23.9,7.16,3.38,14.93-13.16,1.85,2.04,1.1-6.96-6.82.7h.01Z"/>
          <path class="cls-18" d="M603.64,604.65l1.3,1.42-10.02,8.6-5.26-2.49-23,19.1c.78.12,1.37.73,1.47,1.51l21.98-17.74,5.31,2.51,11.09-9.77,1.38,1.52.82-5.18-5.07.51h0Z"/>
        </g>
        <g>
          <path class="cls-18" d="M592.33,561.24c0-13.56,10.99-24.56,24.55-24.56s24.55,10.99,24.55,24.56-10.99,24.55-24.55,24.55-24.55-11-24.55-24.55Z"/>
          <g>
            <path class="cls-9" d="M625.29,558.85c0-3.89-3.65-7.03-8.13-7.03s-8.13,3.15-8.13,7.03c0,1.28.4,2.46,1.08,3.49,1.02,1.89,2.99,6.24,3.53,9.29h6.99c.64-3.66,3.75-9.18,4.07-10.09h-.02c.39-.83.62-1.74.62-2.7h-.01ZM622.68,560.99c-.24.67-2.51,4.72-2.98,7.4h-5.12c-.39-2.24-1.84-5.42-2.58-6.81-.5-.76-.79-1.63-.79-2.56,0-2.85,2.66-5.16,5.95-5.16s5.96,2.31,5.96,5.16c0,.7-.16,1.37-.45,1.97h.02-.01Z"/>
            <g>
              <path class="cls-9" d="M618.31,549.41c0,.51-.41.92-.93.92h-.46c-.11,0-.21-.02-.31-.05-.36-.12-.62-.46-.62-.87v-4.16c0-.51.41-.92.92-.92h.46c.51,0,.93.41.93.92v4.16h.01Z"/>
              <path class="cls-9" d="M626.62,553.55c-.39.33-.97.27-1.3-.11l-.3-.36c-.33-.4-.28-.97.12-1.3l3.17-2.67c.4-.33.98-.28,1.3.12l.3.35c.33.39.27.97-.11,1.31l-3.19,2.67h.01Z"/>
              <path class="cls-9" d="M628.16,559.95h4.16c.51,0,.92.41.92.92v.47c0,.51-.41.92-.92.92h-4.16c-.51,0-.92-.41-.92-.92v-.47c0-.51.41-.92.92-.92Z"/>
              <g>
                <path class="cls-9" d="M607.8,553.55c.39.33.98.27,1.3-.11l.3-.36c.32-.4.27-.97-.11-1.3l-3.18-2.67c-.39-.33-.98-.28-1.3.12l-.31.35c-.33.39-.27.97.12,1.31l3.18,2.67h0Z"/>
                <path class="cls-9" d="M606.25,562.26c.52,0,.93-.41.93-.92v-.47c0-.51-.41-.92-.93-.92h-4.16c-.5,0-.92.41-.92.92v.47c0,.51.41.92.92.92h4.16Z"/>
              </g>
            </g>
            <path class="cls-9" d="M613.76,572.3v3.47c0,.34,2.03,2.25,2.46,2.6.03.07.06.11.09.12.11.07.5.1.88.09.4,0,.78-.03.9-.09.01,0,.05-.05.08-.12.43-.34,2.46-2.26,2.46-2.6v-3.47h-6.89.02ZM619.75,575.58c0,.08-.05.15-.13.15h-4.81c-.07,0-.13-.07-.13-.15v-.11c0-.07.06-.15.13-.15h4.81c.08,0,.13.08.13.15v.11ZM619.75,574.52c0,.09-.05.15-.13.15h-4.81c-.07,0-.13-.07-.13-.15v-.12c0-.07.06-.14.13-.14h4.81c.08,0,.13.07.13.14v.12ZM619.75,573.47c0,.09-.05.15-.13.15h-4.81c-.07,0-.13-.06-.13-.15v-.11c0-.08.06-.14.13-.14h4.81c.08,0,.13.06.13.14v.11Z"/>
          </g>
          <path class="cls-5" d="M585.23,561.11c0-17.61,14.26-31.87,31.87-31.87h0c17.6,0,31.87,14.27,31.87,31.87h0c0,17.6-14.28,31.87-31.87,31.87h0c-17.61,0-31.87-14.27-31.87-31.87h0ZM587.14,561.11c.03,16.54,13.41,29.92,29.96,29.95h0c16.53-.03,29.92-13.41,29.95-29.95h0c-.03-16.54-13.42-29.93-29.95-29.95h0c-16.55.02-29.92,13.41-29.96,29.95h0Z"/>
          <polygon class="cls-5" points="585.45 557.11 585.45 559.6 574.2 559.56 570.81 537.82 572.93 537.82 575.69 557.08 585.45 557.11"/>
          <g class="cls-46">
            <path class="cls-16" d="M580.54,523.41c0-1.98-1.86-3.6-4.17-3.6s-4.15,1.62-4.15,3.6c0,.65.2,1.26.55,1.79.53.97,1.53,3.19,1.81,4.75h3.58c.33-1.87,1.92-4.7,2.09-5.16h-.01c.2-.43.31-.89.31-1.38h-.01ZM579.21,524.51c-.12.34-1.29,2.41-1.53,3.79h-2.61c-.2-1.15-.94-2.78-1.33-3.5-.25-.38-.41-.83-.41-1.3,0-1.46,1.37-2.64,3.04-2.64s3.06,1.18,3.06,2.64c0,.35-.09.69-.23,1h.01Z"/>
            <g>
              <path class="cls-16" d="M576.97,518.58c0,.26-.22.48-.48.48h-.24s-.1-.01-.15-.03c-.18-.06-.32-.24-.32-.45v-2.12c0-.27.21-.48.47-.48h.24c.26,0,.48.21.48.48v2.12h0Z"/>
              <path class="cls-16" d="M581.22,520.71c-.2.17-.49.14-.66-.06l-.15-.19c-.17-.2-.14-.5.05-.67l1.64-1.36c.2-.17.49-.14.67.06l.15.19c.17.2.14.49-.05.66l-1.63,1.37h-.02Z"/>
              <path class="cls-16" d="M582.01,525.16c-.26,0-.47-.21-.47-.47v-.23c0-.27.22-.48.47-.48h2.12c.27,0,.48.21.47.48v.23c0,.26-.2.47-.47.47h-2.12Z"/>
              <g>
                <path class="cls-16" d="M571.58,520.71c.2.17.5.14.67-.06l.15-.19c.17-.2.14-.5-.05-.67l-1.63-1.36c-.2-.17-.49-.14-.67.06l-.15.19c-.17.2-.15.49.06.66l1.63,1.37h-.01Z"/>
                <path class="cls-16" d="M568.67,523.98h2.13c.26,0,.48.21.48.48v.23c0,.26-.21.48-.48.48h-2.13c-.26,0-.48-.21-.48-.48v-.23c0-.26.21-.47.47-.47h.01Z"/>
              </g>
            </g>
            <path class="cls-16" d="M574.64,530.3v1.77c0,.17,1.04,1.15,1.26,1.32.02.04.04.06.04.06.06.03.26.05.46.05s.4-.02.46-.05c0,0,.01-.03.04-.06.22-.17,1.26-1.15,1.26-1.32v-1.77h-3.53.01ZM577.71,531.98s-.03.07-.08.07h-2.45s-.08-.03-.08-.07v-.06s.03-.07.08-.07h2.45s.08.04.08.07v.06ZM577.71,531.43s-.03.08-.08.08h-2.45s-.08-.03-.08-.08v-.05s.03-.07.08-.07h2.45s.08.04.08.07v.05ZM577.71,530.9s-.03.07-.08.07h-2.45s-.08-.03-.08-.07v-.06s.03-.07.08-.07h2.45s.08.03.08.07v.06Z"/>
            <path class="cls-16" d="M562.83,525c0-7.54,6.11-13.66,13.66-13.66h0c7.54,0,13.66,6.11,13.66,13.66h0c0,7.55-6.12,13.67-13.66,13.67h0c-7.55,0-13.66-6.12-13.66-13.67h0ZM564.65,525h0c.01,6.56,5.3,11.84,11.84,11.85h0c6.53,0,11.83-5.29,11.84-11.85h0c-.01-6.53-5.3-11.82-11.84-11.83h0c-6.54,0-11.83,5.3-11.84,11.83h0Z"/>
          </g>
          <g>
            <path class="cls-16" d="M665.38,589.38c0-2.27-2.12-4.11-4.74-4.11s-4.75,1.83-4.75,4.11c0,.75.23,1.44.63,2.04.6,1.1,1.75,3.65,2.06,5.43h4.08c.37-2.13,2.19-5.36,2.38-5.89h-.01c.23-.49.36-1.02.36-1.58h-.01ZM663.86,590.64c-.14.39-1.47,2.76-1.74,4.32h-2.99c-.23-1.31-1.07-3.17-1.51-3.98-.29-.43-.47-.94-.47-1.49,0-1.66,1.56-3.01,3.48-3.01s3.47,1.36,3.47,3.01c0,.4-.1.79-.26,1.15h.02Z"/>
            <g>
              <path class="cls-16" d="M661.31,583.87c0,.29-.25.54-.54.54h-.27c-.07,0-.12,0-.18-.03-.2-.08-.35-.28-.35-.51v-2.43c0-.29.23-.53.54-.53h.27c.29,0,.54.24.54.53v2.43h-.01Z"/>
              <path class="cls-16" d="M666.16,586.29c-.23.19-.56.17-.77-.06l-.17-.21c-.19-.23-.16-.57.07-.76l1.86-1.56c.22-.19.56-.15.75.08l.18.19c.19.23.16.57-.07.76l-1.86,1.56h.01Z"/>
              <path class="cls-16" d="M667.07,591.38c-.3,0-.55-.25-.55-.55v-.26c0-.3.25-.54.55-.54h2.42c.3,0,.55.24.54.54v.26c0,.3-.24.55-.54.55h-2.42Z"/>
              <g>
                <path class="cls-16" d="M655.17,586.29c.23.19.57.17.76-.06l.17-.21c.19-.23.17-.57-.06-.76l-1.85-1.56c-.24-.19-.57-.15-.77.08l-.17.19c-.19.23-.17.57.06.76l1.86,1.56Z"/>
                <path class="cls-16" d="M654.27,591.38c.29,0,.54-.25.54-.55v-.26c0-.3-.25-.54-.54-.54h-2.43c-.3,0-.54.24-.54.54v.26c0,.3.24.55.54.55h2.43Z"/>
              </g>
            </g>
            <path class="cls-16" d="M658.65,597.24s.01,1.82.01,2.02,1.19,1.31,1.44,1.51c.02.04.04.06.05.07.06.04.29.06.52.05.23,0,.46-.02.53-.05,0,0,.02-.03.04-.07.25-.2,1.44-1.32,1.44-1.51v-2.02h-4.04,0ZM662.15,599.15s-.03.08-.08.08h-2.81s-.08-.04-.08-.08v-.07s.03-.08.08-.08h2.81s.08.04.08.08v.07ZM662.15,598.53s-.03.09-.08.09h-2.81s-.08-.04-.08-.09v-.06s.03-.09.08-.09h2.81s.08.04.08.09v.06ZM662.15,597.91s-.03.09-.08.09h-2.81s-.08-.04-.08-.09v-.06s.03-.09.08-.09h2.81s.08.04.08.09v.06Z"/>
            <path class="cls-5" d="M644.54,591.03c0-8.61,6.98-15.58,15.59-15.58h0c8.62,0,15.58,6.97,15.58,15.58h0c0,8.62-6.97,15.59-15.58,15.59h0c-8.61,0-15.59-6.97-15.59-15.59h0ZM646.62,591.03c.01,7.46,6.05,13.51,13.51,13.52h0c7.46,0,13.49-6.05,13.51-13.52h0c-.02-7.46-6.05-13.5-13.51-13.51h0c-7.46.01-13.5,6.05-13.51,13.51h0Z"/>
            <polygon class="cls-5" points="661.68 563.27 648.15 563.27 648.44 565.03 659.44 565.03 659.44 575.75 661.65 575.75 661.65 565.03 661.68 565.03 661.68 563.27"/>
            <path class="cls-5" d="M656.87,631.48c0-3.93,3.19-7.12,7.12-7.12h0c3.92,0,7.11,3.19,7.11,7.12h0c0,3.93-3.19,7.11-7.11,7.11h0c-3.93,0-7.12-3.18-7.12-7.11h0ZM659.29,631.48h0c0,2.59,2.1,4.68,4.69,4.69h0c2.59,0,4.68-2.1,4.69-4.69h0c0-2.59-2.1-4.69-4.69-4.69h0c-2.6,0-4.69,2.1-4.69,4.69h0Z"/>
            <polygon class="cls-5" points="661.62 624.75 659.29 625.93 659.29 606.91 661.62 606.91 661.62 624.75"/>
          </g>
        </g>
        <polygon class="cls-29" points="568.57 457.18 583.7 501.86 552.16 505.01 543.1 488.46 562.02 486.89 568.57 457.18"/>
        <polygon class="cls-20" points="545.97 473.47 561.11 518.15 529.58 521.3 520.51 504.75 539.43 503.17 545.97 473.47"/>
        <path class="cls-26" d="M520.5,472.18h29.4s6.07,28.19.82,32.39c-20.42,1.63-32.56.84-32.56.84l2.35-33.23h-.01Z"/>
        <path class="cls-18" d="M537.06,457.18h31.5s-2.99,21.62,4.63,33c-12.35.26-30.48-.14-30.48-.14,0,0-7.49-12.61-5.65-32.86Z"/>
        <polygon class="cls-3" points="668.74 363 678.85 373.97 709.25 369.21 697.99 332.34 692.03 356.77 668.74 363"/>
        <path class="cls-18" d="M672.73,332.34h25.26s1.47,30.65,4.3,30.65c-16.23.81-33.55,0-33.55,0,0,0,2.22-9.32,3.99-30.65Z"/>
        <g>
          <polygon class="cls-10" points="760.18 360.74 771.64 368.41 796.59 368.41 787.05 358.88 760.18 360.74"/>
          <path class="cls-26" d="M764.28,330.29h25.2s1.36,30.45,4.18,30.45c-16.2.8-33.48,0-33.48,0,0,0,2.25-9.26,4.1-30.45Z"/>
        </g>
        <g>
          <polygon class="cls-15" points="804.29 378.33 776.32 378.35 787.41 389.33 818.97 386.03 805.49 349.08 804.29 378.33"/>
          <path class="cls-18" d="M780.18,349.08h25.31s1.48,30.72,4.31,30.72c-16.27.81-33.63,0-33.63,0,0,0,2.23-9.34,4.01-30.72Z"/>
        </g>
        <polygon class="cls-28" points="859.28 364.92 833.18 371.53 843.18 383.31 878.73 377.53 860.66 337.34 859.28 364.92"/>
        <path class="cls-9" d="M830.56,337.34h30.1s-.12,21.62,8.47,28.55c-17.22,5.3-34.66,7.61-34.66,7.61,0,0-5.65-12.99-3.91-36.16h0Z"/>
        <polygon class="cls-18" points="616.57 380.01 588.37 367.62 605.6 329.38 633.44 341.6 616.57 380.01"/>
        <g class="cls-45">
          <path class="cls-6" d="M615.21,343.38l-1.21.16s-2.36-.37-4.49-1.3h0c-.79-.41-.98-.3-1.12-.69h0c.14-.39.2-.19.21-.41h0c0-.13-.06-.38-.34-.82h0c-.47-.74-.72-.89-.96-.89h0c-.39-.02-1.08.51-2.48.71h0l-.06-.4c1.34-.18,1.89-.7,2.55-.72h0c.47,0,.83.33,1.3,1.08h0c.29.47.4.78.4,1.03h0c0,.16-.05.29-.12.37h0c.14.07.39.18.78.36h0c2.07.9,4.39,1.27,4.33,1.27h0l1.25-.15,11,4.5-.15.37-10.88-4.48h-.01ZM604.81,340.15h0Z"/>
          <path class="cls-6" d="M609.55,348.39c-1.22-.56-1.71-.86-1.81-.96h0l-.27-.65-2.38.88-1-.44-2.36-.36.05-.4,2.41.38.9.46,2.59-1.03.08.19.26.73s.48.29,1.68.85h0c11.16,5.13,13.65,5.89,13.67,5.89h0l-.12.39s-2.55-.78-13.72-5.92h.02ZM601.73,346.85h0Z"/>
          <path class="cls-6" d="M614.92,359.35l-2.55-2.5-.03-.1h0s-.01-2.45-1.22-3.99h0c-.18-.22-.3-.27-.4-.27h0c-.59-.1-1.2,2-1.96,2.18h0c-.29-.03-.39-.26-.48-.56h0c-.16-.49-.38-.59-.73-.6h0c-.81-.02-2.05.92-2.26.96h0l-.76-.33-2.26-.99-.45-.2h0c-.45-.19-1.07-.46-1.07-.46h0s-.6-.26-1.34-.59h0l.16-.37c.74.34,1.34.59,1.34.59h0s.62.26,1.07.47h0l.45.2h0l2.26.99.55.36s1.25-1,2.3-1.02h0c.48-.01.96.26,1.12.9h0c.07.26.08.26.09.26h0c.16.17.92-2.09,1.96-2.18h0c.26,0,.51.16.71.43h0c1.25,1.6,1.3,3.9,1.3,4.13h0l2.39,2.37,5.37,1.69-.12.38-5.45-1.74h.01Z"/>
          <path class="cls-6" d="M614.81,367.32s-.53-2.21-1.22-3.17h0s-.5-.62-1.55-.62h0c-.59,0-1.36.2-2.33.86h0c-.97.65-1.79.88-2.46.88h0c-1.33,0-1.99-.88-2.05-1.01h0s-.23-2.34-1.4-2.28h0c-.2,0-.42.05-.71.19h0c-1.09.52-1.73.73-2.17.73h0c-.42,0-.65-.32-.65-.64h0c0-.55.36-1.29.34-1.79h0c-.03-.34-.06-.48-.5-.56h0c-.28-.05-.51-.05-.73-.05h0c-.51,0-.88.08-1.22.08h0c-.71.01-1.13-.42-1.64-2h0l.38-.12c.56,1.6.76,1.71,1.25,1.72h0c.28,0,.67-.08,1.22-.08h0c.24,0,.49.02.79.07h0c.61.05.87.52.85.96h0c0,.63-.35,1.39-.34,1.79h0c.04.21-.01.2.25.23h0c.31,0,.93-.18,2-.69h0c.32-.16.61-.24.88-.24h0c1.65.08,1.77,2.46,1.77,2.55h0s.56.73,1.68.73h0c.57,0,1.31-.2,2.23-.82h0c1.02-.69,1.88-.93,2.56-.93h0c1.22,0,1.85.74,1.87.78h0c.75,1.07,1.24,3.16,1.18,3.2h0l2.34,1.03-.16.36-2.46-1.16h0Z"/>
        </g>
        <polygon class="cls-18" points="722.66 659.09 692.84 666.81 682.72 626.1 712.16 618.48 722.66 659.09"/>
        <g class="cls-45">
          <path class="cls-6" d="M688.47,634.77c1.22-1.23,1.06-2.27,2.17-2.35h0c.28,0,.61.08,1.07.25h0c.84.29,1.08.63,1.1.93h0c.15-.03.42-.09.83-.19h0c2.18-.56,4.23-1.72,4.19-1.68h0l.89-.9,11.42-3.27.11.39-11.33,3.22-.85.88s-2.08,1.18-4.34,1.76h0c-.64.15-.9.22-1.07.22h0c-.08,0-.28-.16-.28-.25h0c0-.11.03-.13.02-.14h0c0-.06.01-.26-.83-.57h0c-.44-.16-.73-.22-.93-.22h0c-.64-.08-.59.82-1.88,2.22h0l-.29-.28h0v-.02Z"/>
          <path class="cls-6" d="M690.49,642.22h0ZM690.29,641.87l2.12-1.19.99-.2,1.4-2.41.17.1.67.41s.55-.06,1.84-.37h0c11.94-2.87,14.37-3.82,14.39-3.82h0l.14.37s-2.48.97-14.43,3.85h0c-1.31.31-1.89.38-2.01.35h0l-.62-.34-1.32,2.17-1.06.26-2.07,1.18-.2-.35h-.01Z"/>
          <path class="cls-6" d="M691.7,647.21c.79-.19,1.42-.36,1.42-.36h0s.64-.18,1.13-.29h0l.48-.12h0l2.39-.63.65-.05s.49-2.39,1.87-2.49h0c.23,0,.48.08.73.27h0c.16.11.26.13.26.13h0s-.01,0-.01-.19h0c0-.4-.16-1.12-.16-1.73h0c0-.53.16-1.14.81-1.14h0c.11,0,.23.01.35.05h0c2.06.51,3.57,2.41,3.52,2.44h0l3.39.38,5.26-1.99.14.38-5.35,2-3.62-.45s-1.51-1.91-3.45-2.38h0c-.1-.03-.17-.04-.25-.04h0c-.31,0-.39.22-.41.74h0c0,.55.16,1.25.16,1.73h0c0,.22-.04.57-.39.61h0c-.18,0-.31-.09-.5-.22h0c-.19-.15-.35-.19-.49-.19h0c-.83-.09-1.49,2.17-1.63,2.32h0l-.79.2-2.39.62-.47.12h0c-.48.11-1.13.29-1.13.29h0s-.63.16-1.42.36h0l-.1-.39h0v.02Z"/>
          <path class="cls-6" d="M697.66,653.38c-.1,0-.2.03-.35.11h0c-1.21.68-1.37,1.44-2.21,1.49h0c-.45,0-.95-.25-1.83-.83h0l.22-.34c.86.57,1.33.76,1.61.76h0c.45.05.72-.66,2-1.43h0c.19-.12.38-.18.56-.18h0c1.17.13,1.36,2.32,1.72,2.12h0c.11.05.61-.38,1.31-1.85h0c.33-.72.86-1.03,1.38-1.02h0c1.1.03,2.11,1.15,2.12,1.2h0s.15.03.36.03h0c.65-.01,1.93-.25,2.66-2.51h0c.8-2.55,2.36-2.91,3.04-2.9h0c.2,0,.33.03.35.04h0c1.24.37,2.92,1.7,2.9,1.77h0l2.47-.63.1.39-2.65.6s-1.78-1.41-2.92-1.74h0s-.09-.02-.25-.02h0c-.55.01-1.88.21-2.66,2.62h0c-.75,2.41-2.28,2.81-3.05,2.8h0c-.27,0-.45-.04-.56-.11h0s-1.07-1.14-1.92-1.12h0c-.37,0-.71.16-1.03.79h0c-.74,1.47-1.13,2.04-1.67,2.08h0c-.97-.19-1.04-2.25-1.72-2.12h.02Z"/>
        </g>
        <path class="cls-14" d="M892.6,878.61c-.07-.42-.18-.8-.27-1.19-.02-.07-.03-.11-.05-.18-1.58-6.24-6.12-8.73-11.82-13.59-1.43-1.22-2.53-2.61-3.45-3.99.83.27,1.64.61,2.4,1.03-.02-7.08-2.1-7.28-4.36-19.97-1.47-8.24-3.65-36.55-6.44-52-2.55-14.07-8.06-33.97-9.56-44.42-3.7-25.77-8.43-66.51-11.87-97.24-.92-8.19-2.24-15.73-3.75-22.54,3.15-1.61,4.85-3.32,4.42-5.07-1.3-5.23-2.52-10.61-3.67-16.07-.75-3.62-1.59-7.81-2.46-12.36-.18-.92-.35-1.85-.52-2.78-.02-.13-.04-.26-.07-.4-1.63-8.95-3.08-17.97-4.36-26.83,12.64-3.82,26.23-8.77,27.1-12.82.67-3.13.78-12.44-5.37-28.11,1.27-.99,2.07-1.68,2.07-1.68,0,0-14.58-31.66-17.91-38.85-3.31-7.19-10.39-10.46-15.06-10.69l-21.68-5.5c-.62-.34-1.64-.82-3.13-1.32,0,.3-.33.93-.89,1.78-1.39-1.01-3.13-2.95-4.74-6.71-.57-1.88-1.22-3.96-1.84-5.98,1.75.31,4.3-.67,3.61-.43-.82.3-1.41-4.42-.91-5.08,1.71-2.22,3.93-15.01,4.31-20.74.7-3.76,1.15-9.45-1.08-13.83-1.83-3.54-4.33-8.78-7.07-10.02-1.38-2.82-10.78-2.74-20.28-5.92,0,0,8.42,2.93,8.55,5.14-.03-.03-.06-.03-.08-.03-1.18-1.73-15.12-6.06-14.45-5.02.24.37.46.7.66,1-.92-.91-2.07-1.59-3.03-1.83.83,3.48-3.34,3.32-6.11,7.23-.1.1-.2.22-.3.32-1.05.78-1.91,1.44-2.46,1.84.02-.09.03-.14.04-.23-2.41.73-4.01,6.21-4,10.29-.24,1.2-.43,2.56-.55,4.01-.58,6.05.78,12.63.78,12.63l1.17.71s-.12-.78-.23-2c.13.97.43,2.06.7,3.12-1.98-.14-3.87-.14-4.36.3-1.04.96-.08,8.58,1.72,8.95.94.2,2.14.35,3.32.38,1.03,6.85,3.64,14.7,9.19,19.71.9.48,1.87.96,2.89,1.28-.06.61-.12,1.22-.19,1.78-.4.66-.89,1.3-1.57,1.88-.21.1-.43.18-.66.27-.32-.95-.49-1.54-.49-1.54l-1.85.27c-.04.21-.04.46-.05.7l-18.54,2.81c-8.66-2.09-16.69,2.21-30.72.83-.02.36-.02.74-.04,1.11-11.06-.22-19.48-.18-22.46-1.21-5.43-1.88-46.43-8.71-46.87-9.36-1.13-1.69-4.94-6.23-7.01-8.23-1.46-1.41-4.05-3.29-5.89-6.34-.65-1.11-2.4-1.71-2.42-.15,0,1.59,1.65,3.24,2.14,5.25.61,2.47-5.69-.87-7.3-1.84-1.36-.82-10.34-4.53-10.81-3.42-.82,2.02,9.73,5.24,9.18,6.01-.44.59-10.52-5.79-10.76-4.46-.54,2.86,8.22,6.18,8.62,7.9,0,0-1.23-1.11-3.38-2.43-2.39-1.47-4.08-2.68-4.69-2.52-3.39,1.04,10.19,8.95,8.36,8.37-.7-.21-7.06-5.93-7.75-4.22-.58,1.47,8.56,9.07,8.56,9.07,0,0,8.28,4.43,14.23,6.46,6.5,2.21,42.96,20.46,53.98,22.13,6.71,1.02,16.17,3.86,26.62,6.2.91,4.42,1.92,7.54,2.75,8.24,1.53,1.28,8.23-.94,20.51,3.59,1.81,8.95,6.49,28.99,6.79,32.22,3.67,38.23,8.62,76.24,8.75,84.84.02,1.38.89,2.55,2.42,3.52.5,9.29,1.02,14.46,1.22,18.4.12,2.18,1.07,11.61,2.5,23.99,3.67,36.53,9.32,81.51,12.78,91.48,5.77,16.69,6.43,64.97,5.98,72.01-.21,3.22-.33,6.49-.29,9.2-.2,5,.13,9.55.13,9.55-2.6,3.37-14.36,11-17.01,13.74-3.1,2.24-3.81,8.06,0,10.81,5.93,4.29,15.35,2.62,22.24,1.09,10.02-2.21,12.8-6.81,17.78-9.75,3.29-1.95,6.61-1.64,6.8-1.75,2.76-1.56,2.29-6.03,1.82-7.99,0-.52-.08-1.07-.18-1.65,1.83.86,3.05,1.89,3.26,3.12,0,0,3.02-4.49,2.13-19.91-1.63-28.1,1.98-56.12-8.34-96.05-2.05-7.92-2.19-45.35-2.44-65.92,5.96,25.97,21.53,86.5,24.05,92.13,3.01,6.74,3.35,22.85,8.17,46.51,1.36,6.7,4.55,27.17,3.17,30.11-1.37,2.94,3.02,22.24,7.13,17.13.64-.79,1.4-1.48,2.21-2.15.1,2.58,0,4.66.05,6.57.03,1.5.38,2.49,1,3.25.48,1.19,1.39,1.34,3.24,2.4,1.05.6,1.61.96,1.96,1.24.12.6.59,1.86,2.27,4.41,1.16,1.75,3.74,3.22,6.82,4.36.37.14.73.28,1.13.41,4.04,1.34,8.71,2.12,12.3,2.12,3.79,0,7.04-.9,9.51-2.07,1.14-.47,2.1-1.05,2.86-1.74.53-.42,1-.85,1.32-1.25.97-1.22.64-3.9.24-5.82h-.02ZM753.79,427.82c-.16-2.45-.18-5.85.46-8.92-.44,2.86-.58,5.9-.46,8.92ZM755.16,440.38c-1.08-.02-2.11-.15-2.64-.41-1.24-.6-1.8-5.55-1.27-6.04.24-.23,1.92-.17,3.7-.06.05.26.11.53.14.76.26,2.04.03,4,.06,5.75h.01ZM806.25,671.65c-.43-.96-.87-1.92-1.3-2.86-.02-.99.45.13,1.3,2.86ZM770.59,398.63l-.53.17c-.07-.34-.12-.68-.28-1,.39.48.65.71.81.83h0Z"/>
        <path class="cls-13" d="M55.49,698.62c.55,10.59,2.76,20.92,20.75,17.54l71.32-7.02c8.95-.53,11.62-8.81,11.08-19.41l-17.91-83.98c-.55-10.59-6.12-22.98-15.08-22.45l-66.73,2.24c-8.98.54-15.81,9.53-15.29,20.14l11.86,92.95h0Z"/>
        <g>
          <g>
            <path class="cls-37" d="M142.84,800.54c0,.41-2.71.74-6.08.74s-6.08-.34-6.08-.74,2.73-.74,6.08-.74,6.08.34,6.08.74Z"/>
            <path class="cls-13" d="M132.79,802.25c0,1.42.8,2.56,1.83,2.56h3.6c1,0,1.79-1.15,1.79-2.56v-56.25c0-1.4-.79-2.55-1.79-2.55h-3.6c-1.03,0-1.83,1.15-1.83,2.55v56.25Z"/>
            <path class="cls-37" d="M130.76,800.46h-.11v41.55h12.19v-41.51c-.29.36-2.86.65-6.03.65s-5.94-.31-6.05-.69Z"/>
          </g>
          <g>
            <path class="cls-37" d="M143.78,845.21c3.21-.22,43.97.68,47.81,1.52,1.87.41,2.53.69,2.63,2.19.18,2.46.89,3.43,1.15,5.21l5.29-.77s.64-8.47-1.94-11.04c-2.57-2.58-38.44-7.58-49.03-7.21-4.61.16-12.23-.2-12.23-.2l6.32,10.29h0Z"/>
            <g>
              <path class="cls-9" d="M197.97,853.14c0,2.86-2.3,5.16-5.14,5.16s-5.14-2.31-5.14-5.16,2.3-5.14,5.14-5.14,5.14,2.32,5.14,5.14Z"/>
              <path class="cls-24" d="M195.34,853.58c0,2.01-1.63,3.65-3.64,3.65s-3.66-1.64-3.66-3.65,1.65-3.64,3.66-3.64,3.64,1.62,3.64,3.64Z"/>
            </g>
            <path class="cls-37" d="M136.53,848.47c4.09-.28,38.6,13.3,42.42,16.51,1.77,1.51,1.91.84,2.05,2.75.21,2.98,1.72,3.94,1.72,3.94l6.86-.47s.96-7.61-1.57-10.47c-3.05-3.45-34.79-21.19-40.24-23.38-5.44-2.17-11.96,1.64-11.96,1.64l.7,9.47h.02Z"/>
            <g>
              <path class="cls-33" d="M185.8,869.48c0,3.6-2.93,6.54-6.53,6.54s-6.52-2.94-6.52-6.54,2.93-6.52,6.52-6.52,6.53,2.91,6.53,6.52Z"/>
              <path class="cls-24" d="M182.47,870.03c0,2.55-2.07,4.61-4.62,4.61s-4.63-2.07-4.63-4.61,2.08-4.63,4.63-4.63,4.62,2.07,4.62,4.63Z"/>
            </g>
            <path class="cls-24" d="M144.8,837.1c2.72,1.09,34.98,14.58,43.7,23.4,0,0,1.52,1.68,1.52,10.66-1.15.27-2.16.24-2.16.24,0,0-.1-8.93-1.91-10.24-17.26-12.5-47.69-23.25-50-22.73,4.21-1.89,8.83-1.34,8.83-1.34h.02Z"/>
          </g>
          <path class="cls-37" d="M131.06,845.21c-3.21-.22-43.7,1.59-47.03,3.7-1.28.82-1.88,1.37-1.97,2.87-.17,2.34-.44,4.91-.44,4.91l-6.64-1.16s-.65-8.47,1.93-11.04c2.57-2.57,34.04-7.55,48.24-9.38,4.58-.61,12.23-.2,12.23-.2l-6.33,10.29h.01Z"/>
          <g>
            <path class="cls-9" d="M77.66,855.33c0,2.84,2.31,5.13,5.15,5.13s5.15-2.29,5.15-5.13-2.31-5.15-5.15-5.15-5.15,2.3-5.15,5.15Z"/>
            <path class="cls-24" d="M80.28,855.75c0,2.01,1.63,3.64,3.64,3.64s3.64-1.63,3.64-3.64-1.63-3.65-3.64-3.65-3.64,1.63-3.64,3.65Z"/>
          </g>
          <path class="cls-37" d="M138.3,848.47c-4.08-.28-36.72,14-40.52,17.24-1.77,1.5-2.41,3.1-2.56,4.99-.21,2.99-.39,3.43-.39,3.43l-8.64-1.36s0-8.47,2.5-11.31c3.04-3.46,32.92-21.91,38.36-24.09,5.45-2.17,11.97,1.63,11.97,1.63l-.72,9.48h0Z"/>
          <path class="cls-24" d="M130.04,837.09c-2.72,1.09-33.47,14.99-41.9,25.18,0,0-1.38-1.12-1.11,9.48,1.15.27,2.23.47,2.23.47,0,0-.21-7.15,1.6-8.46,17.26-12.51,45.7-25.86,48.01-25.33-4.21-1.89-8.83-1.35-8.83-1.35h0Z"/>
          <g>
            <path class="cls-9" d="M85.93,869.78c0,3.59,2.92,6.51,6.52,6.51s6.52-2.92,6.52-6.51-2.92-6.54-6.52-6.54-6.52,2.93-6.52,6.54Z"/>
            <path class="cls-24" d="M89.26,870.31c0,2.56,2.06,4.63,4.62,4.63s4.62-2.07,4.62-4.63-2.07-4.62-4.62-4.62-4.62,2.07-4.62,4.62Z"/>
          </g>
        </g>
        <g>
          <path class="cls-5" d="M61.62,743.85c-6.24-2.44-6.67-8.26-2.66-8.7,4.02-.45,109.97-14.92,109.97-14.92l55,8.32-46.66,18.47-115.64-3.17h0Z"/>
          <path class="cls-13" d="M56.2,737.78c-2.51,4.81-.75,15.3,1.75,16.18,2.52.88,72.14,8.41,76.65,7.53,4.52-.87,103.73-19.38,104.32-22.31.6-2.95-.94-13.25-6.48-12.37-5.52.88-88.31,16.31-99.35,17.62-11.04,1.31-76.9-6.64-76.9-6.64h0Z"/>
        </g>
        <g>
          <g>
            <path class="cls-30" d="M181.97,837c-2.07,16.36,6.47,28.45,18.91,37.69,0,0-21.73-1.64-39.41-22.78-2.33-2.81-.21-7.85,1.24-13.05,1.85-6.63,3.52-13.26,3.52-13.26,0,0,19.49-18.27,15.74,11.39h0Z"/>
            <path class="cls-37" d="M159.13,864.57c-2.89-2.28-.35-10.48.38-15.63.8-5.75,14,11.6,16.86,15.45,2.18,2.94,18.95,6.31,23.11,7.43,0,0,9.24,1.86,6.18,8.42-1.58,3.37-21.62,4.89-26.25-3.35-3.73-6.6-8.32-9.21-12.43-10.44-1.29,3.63-1.27,15.92-1.27,15.92,0,0-2.63.32-3.57-.06.37-3.2-.85-15.41-3.01-17.74Z"/>
          </g>
          <path class="cls-37" d="M197.51,718.33c-6.59-7.39-18.17-7.99-19.32-8.07-11.21-2.05-30.97-5.68-36.8-6.84-8.28-1.66-15.74-8.29-15.74-8.29l-43.91,6.63c-4.14,14.91-8.29,33.14,7.46,35.62,11.65,1.84,54.14,3.45,75.44,4.17,0,.02,0,.04,0,.06-6.4,33.31-11.75,78.35-10.13,96.47l30.91,4.79s14.99-89.87,16.51-103.93c.56-5.11-.12-15.78-4.43-20.62h0Z"/>
        </g>
        <g>
          <g>
            <path class="cls-30" d="M218.63,826.65c0,15.12,8.47,34.38,20.91,43.62,0,0-10.76,9.77-28.44-11.37-1.57-1.89-13.55-9.89-12.35-13.82,6.63-21.75,4.97-30.85,4.97-30.85,0,0,14.91-17.48,14.91,12.42Z"/>
            <path class="cls-37" d="M197.79,860.16c-2.89-2.28-.35-10.49.38-15.63.8-5.75,13.99,11.6,16.86,15.45,2.18,2.94,18.95,6.31,23.11,7.43,0,0,9.24,1.86,6.18,8.42-1.58,3.36-21.62,4.88-26.25-3.36-3.73-6.6-8.32-9.21-12.43-10.44-1.29,3.63-1.26,15.92-1.26,15.92,0,0-2.63.32-3.58-.06.37-3.2-.84-15.4-3.01-17.74h0Z"/>
          </g>
          <path class="cls-37" d="M221.46,707.84c-.35-.04-51.91-3.87-51.91-3.87l-11.87-9.94s-33.14,2.49-33.97,2.49c0,0,18.78,21.26,27.61,25.12,5.45,2.39,24.86,6.24,38.95,8.84,8.36,2.1,16.89,3.89,16.35,6.72-6.4,33.31-11.74,78.35-10.13,96.47l30.91,4.79s12.42-83.27,14.77-97.22c3.59-21.26-5.8-32.03-20.71-33.41h0Z"/>
        </g>
        <polygon class="cls-5" points="321.53 852 327.32 852 301.65 660.67 284.92 660.67 321.53 852"/>
        <g>
          <path class="cls-37" d="M129.09,576.75s7.07,3.46,21.87-41.15c6-18.14,2.85-11.53,13.35-15.39,27.96-10.34,34.88,7.49,36.17,9.63l2.14,14.24-4.64,64.21-7.87-3.19c.77,3.12,1.59,5.32,2.32,5.9-2.52,1.84-11.69-3-14.15-6.87,2.2,4.37,5.81,7.27,4.13,7.51-14.1,2.03-27.62-14.11-31.87-24.92l-21.46-9.98h0Z"/>
          <path class="cls-24" d="M196.89,522.65s4.29,29.89-2.4,67.02c-1.71,9.56,10.92,10.21,14.52,6.44-3.92.56-6.08-9.88-5.47-16.57.97-10.79,2.22-39.04-2.74-50.62l-3.91-6.27Z"/>
          <path class="cls-24" d="M195.99,524.18c5.7,5.15,3.31,34.68-.8,61.81-1.91,12.55,8.55,14.4,11.8,13.94-3.93,2.56-10.08,7.51-15.02-3.97-6.38-14.81,6.44-32.5,2.83-57.78-2.45-17.14,1.19-14,1.19-14h0Z"/>
        </g>
        <path class="cls-30" d="M222.35,613.52c2.63-3.84,4.42-8.94,7.25-11.03,3.98-3.58,3.14-3.22,4.2-3.99,2.29-1.67,6.19-5.66,6.69-3.89.19.75-2.37,3.59-4.34,5.6l-1.79,1.97c2.7-.24,11.16-.8,11.77.13,1.2,1.89-4.4,1.33-8.34,3.24-.04.15-.07.3-.1.46,2.99-1.2,7.77-.72,7.74,0-.02.73-5.87,2.04-8.74,3.63-.06.18-.1.35-.16.51,2.65-.83,7.44-2.19,7.4-1.46-.02.88-4.48,2.57-7.43,4.45-1.24,2.79-4.5,5.21-6.44,6.06-3.34,1.47-5.02.28-5.02.28l-2.7-5.97h0Z"/>
        <path class="cls-18" d="M221.94,611.51l-27.21,12.25-23.22-27.28s-15.39-20.57-28.62-2.65c-9.25,12.54,31.5,45.42,48.65,52.96,10.71,4.71,37.89-20.83,37.89-20.83l-7.49-14.44h0Z"/>
        <path class="cls-21" d="M154.86,580.69c3.72,4.31,11.33,14.44,11.33,14.44,1.42,11.76,5.94,38.93,4.54,44.28-1.98,7.46-5.76,14.3-8.8,17.55-10.1,10.82-4.3,30.6-.39,37.61,2.38,4.28-40.04,14.64-40.04,14.64,0,0-33.99,7.41-37.98,2.57-2.52-3.03,23.42-83.05,32.79-100.42,9.45-17.36,13.58-25.83,33.59-38.47,1.57,9.51.58,2.75,4.95,7.79h.01Z"/>
        <path class="cls-7" d="M113.43,604.65c-13.63,30.34-38.19,97.59-38.77,112.2l34.97-5.42s-6.64-33.96,3.65-58.92c20.6-49.94,18.58-57.92,20.68-58.79,2.82-1.16,15.05-11.53,20.6-13.56-4.22-2.93-3.61-2.72-8.93-9.84-20.18,16.74-25.2,18.79-32.19,34.33h-.01Z"/>
        <polygon class="cls-5" points="438.52 862.47 444.75 862.47 417.09 656.2 399.05 656.2 438.52 862.47"/>
        <polygon class="cls-39" points="166.59 583.58 171.51 596.47 169.23 609.73 161.23 591.2 166.59 583.58"/>
        <path class="cls-30" d="M188.15,574.26c-16.49,3.24-22.08,17.15-23.38,21.69-1.98,6.93-6.84.46-14.35-8.89-6.58-8.24-2.67-5.31-7.68-9.29,5.85-2.58,18.35-19.97,21.62-34.88,3.22-14.9,23.78,31.36,23.78,31.36h.01Z"/>
        <path class="cls-30" d="M167.42,517.13c-15.94,2.42-15.03,14.67-9.67,34.19,5.41,19.51,14.95,27.77,28.46,27.09,4.62-.22,8.18-3.84,10.49-12.64,2.27-.65,4.33-1.63,4.03-3.26-1.04-1.87-1.77-5.64-1.95-10.19.91-7.55.67-13.47-1.32-20.74-5.4-19.51-20.13-15.96-30.04-14.45h0Z"/>
        <path class="cls-39" d="M147.33,571.01l18.65,27.57s-8.52,3.05-11.76,8.52c-3.06-5.91-11.75-31-12.57-31.62s5.68-4.46,5.68-4.46h0Z"/>
        <path class="cls-37" d="M192.87,519.03c-8.8-7.38-29.45-7.27-39.19,2.15-7.82,7.57-17.13,30.83-22.47,43.91-7.44,18.23-16.15,25.86-19.06,25.72,8.76,1.65,15.69-1.95,23.5-5.47-2.13,2.56-3.51,7-8.05,8.82,16.29,1.29,27.95-10.51,32.71-18.28,1.95-2.21,6.13-17.79,6.08-17.97-.25-.97-1.65-2.23-1.89-6.76-.27-5,7.16-7.44,7.57-3.11.1-1.55,5.55-7.16,12.08-9.38,6.55-2.22,16.77,1.08,16.13-7.22,0,0,1.38-5.06-7.41-12.42h0Z"/>
        <g>
          <polygon class="cls-5" points="207.81 918.69 214.69 918.69 188.64 685.89 168.76 685.89 207.81 918.69"/>
          <polygon class="cls-5" points="9.93 879.73 3.62 879.73 31.27 679.52 49.54 679.52 9.93 879.73"/>
          <polygon class="cls-5" points="0 675.81 182.69 687.39 458.57 655.95 299.43 654.45 0 675.81"/>
          <polygon class="cls-37" points="2.76 690.17 186.02 698.44 458.57 671.75 458.57 655.95 183.47 683 2.76 674.73 2.76 690.17"/>
        </g>
        <g>
          <g>
            <path class="cls-37" d="M459.22,837.28c-2.82-3.41-2.57-5.22,1.87-6.76,4.44-1.52,29.55-11.08,29.71-7.84.35,6.93-31.58,14.6-31.58,14.6h0Z"/>
            <g>
              <path class="cls-30" d="M481.26,812.5c-.4,10.89,13.11,34.92,28.62,44.31,13.76,8.33-7.6,10.77-11.92,11.03-4.34.28-27.01-5.62-27.2-8.5-.41-6.46.66-4.89-.65-15.18-.8-6.26-15.21-20.45-15.9-25.46-.69-5.02,27.04-6.2,27.04-6.2h.01Z"/>
              <path class="cls-37" d="M517.09,857.9s-7.58-4.16-12.45-10.21c-6.52-8.05-9.95,6.97-3.27,15.11-3.49-1.02-8.72.69-16.13-3.67-10.8-6.36-15.61-6.48-15.61-6.48-2.52,10.21.91,18.86,3.76,19.5,2.41.53,11.99-2.61,21.28.68.89.84,11.63,3.32,13.28,3.42,11.48.76,22.49-.59,23.57-6.09,1.84-9.29-14.44-12.26-14.44-12.26h.01Z"/>
            </g>
            <path class="cls-37" d="M491.37,832.17c-.94-2.1-32.94-92.42-32.94-92.42-5.64-19.85-43.21-91.05-45.57-95.21-9.77-17.2-11.13-22.79-18.71-33.28l-46.5,1.09s1.61,26.89,3.5,41.89c1.88,14.97,20.49,4.48,22.94,8.67,2.11,3.61,47.47,88.37,47.87,89.91,14.7,56.62,28.72,67.35,43.28,88.74,0,0,27.4-6.58,26.13-9.39h0Z"/>
            <path class="cls-24" d="M457.28,833.73c6.59,2.58,32.77-5.48,33.41-11.77,2.28,4.98,2.37,11,2.37,11,0,0-17.81,12.26-29.74,10.45-3.48-.53-6.05-9.68-6.05-9.68h0Z"/>
          </g>
          <g>
            <path class="cls-37" d="M385.66,847.93c-2.33-3.98-1.62-5.67,3.67-6.15,5.3-.49,35.38-4.13,34.85-.93-1.12,6.87-38.52,7.08-38.52,7.08h0Z"/>
            <g>
              <path class="cls-30" d="M409.29,823.38c1.64,11.4,10.2,40.64,24.92,49.19,14.71,8.54-1.58,8.76-6.03,9.86s-27.97-.13-28.72-3.09c-1.64-6.64-2.28-7.44-1.89-18.41.43-12.37-9.13-27.21-10.79-32.3-1.65-5.1,22.52-5.24,22.52-5.24h0Z"/>
              <path class="cls-37" d="M421.02,844.95c-.83-2.15-3.79-102.81-3.79-102.81-5.04-22.14-29.07-85.15-31.02-88.76-10.95-20.28-12.07-39.43-17.76-45.2l-46.4,5.46s-7.35,21.51-5.09,36.45c3.5,23.17,15.27,19.01,17.49,23.32,20.46,39.85,46.59,65.31,47.16,70.61,2.3,21.3-3.28,89.85,10.11,112.02,0,0,30.4-8.21,29.3-11.08h0Z"/>
              <path class="cls-37" d="M439.15,874.25s-3.83-4.31-9.02-9.21c-7.2-6.8-17.15,3.27-8.98,16.33-3.27-1.16-12.39-5.3-14.92-6.29-4.3-1.66-9.46-8.89-9.46-8.89-2.95,9.63-1.89,21.24.74,22.13,10.36,3.5,8.87-1.41,17.56,2.21.8.85,3.3,2.44,4.64,3.29,15.31,9.8,30.73,6.78,34.91-.61,4.32-7.65-15.47-18.97-15.47-18.97h0Z"/>
            </g>
            <path class="cls-24" d="M381.74,646.28c4.78,14.39,38.47,88.15,39.01,93.37,1.31,12.68.13,20.81.44,22.95.77,5.33-.04,69.88-.17,71.62s.88,7.81.88,7.81c0,0-13.3,3.4-18.63,2.27-6.17-1.31-.62-3.4-.62-3.4l12.8-6.51-11.57-1.59,9.73-5.13s-3.54-61.17-1.38-66.6c3.75-9.44,1.74-21.64-1.35-27.12-3.1-5.5-29.13-87.67-29.13-87.67h0Z"/>
            <path class="cls-24" d="M384.34,844.03c6.72,4.01,37.7,2.07,39.9-3.89,1.36,5.35.04,11.25.04,11.25,0,0-20.61,9.87-33.43,5.41-3.74-1.31-6.51-12.76-6.51-12.76h0Z"/>
          </g>
          <g>
            <g>
              <path class="cls-30" d="M453.72,577.12c1.94-.28,5.96-.8,7.81-1.42,1.84-.6,6.05.06,10.02-2.02,1.09-.57,2.33.48,1.2,1.45-1.11,1-4.27,2.01-6.02,2.92-2.16,1.13,4.59,2.68,6.3,3.22,1.49.44,10.26,4.34,9.78,5.35-.91,1.84-10.44-2.88-10.63-2-.16.68,10.74,3.08,10.26,4.29-1.31,3.38-10.13-1.05-11.63-.25,0,0,2.46.49,4.68,1.48,2.02.91,4.76,1.16,4.88,1.86.44,2.47-12.38-2.27-12.56-.43-.14,1.45,6.66,4.12,5.55,5.47-.55.67-9.84-2.89-9.84-2.89,0,0-12.43-2.92-16.5-5.01-2.45-1.28-9.22-2.98-9.22-2.98l6.32-10.31s6.29,1.73,9.6,1.29v-.02Z"/>
              <path class="cls-39" d="M445.19,574.43c1.35.07,6.82,1.83,6.82,1.83,0,0-5.52,13.91-4.97,16.67.54,2.76-6.37-2.34-6.37-2.34l4.53-16.16h-.01Z"/>
              <path class="cls-7" d="M394.85,503.94c3.21.67,7.06,9.21,7.54,20.48.37,8.45,14.01,36.66,14.01,36.66,0,0,19.69,11.01,33.89,14.46-4.91,6.4-9.26,19.53-9.26,19.53,0,0-32.13-2.13-38.51-7.56-6.39-5.41-20.16-27.55-21.33-45.51-1.18-17.95,13.67-38.06,13.67-38.06h-.01Z"/>
              <path class="cls-18" d="M396.78,505.98c2.84,1.52,6.51,14.35,5.92,19.36-.58,5.01,12.01,34.31,13.71,35.74,1.7,1.44,34.28,13.46,33.89,14.46s-3.41,2.7-4.23,3.02c-.81.33-31.69-13.09-34.38-11.58-2.7,1.52-4.34,1.88-4.34,1.88l5.25-5.79-4.06,1.86,2.23-5.37s-10.83-22.73-11.71-29.32c-.87-6.6-3.38-18.38-4.53-19.15-1.14-.78,2.25-5.09,2.25-5.09v-.02Z"/>
            </g>
            <path class="cls-7" d="M338.26,484.67c-25.84,7.26-35.78,12.79-35.78,12.79,0,0,6.75,46.38,6.29,51.11-.46,4.75,2.07,33.59,1.66,59.3-.35,21.57,3.2,17.74,5.8,29.86.68,3.18-3.65,6.59-4.25,11.55,6.17-.1,16.28-2.27,25.54-9.89,11.15-9.18,41.74-12.55,48.8-13.69,12.86-2.06,16.17-.41,16.17-.41-.2-2.28-1.41-7.02-1.66-9.95-1.25-14.93-4.6-24.03-8.12-38.42-4.26-17.47.32-27.41.43-35.6.11-8.2,6.31-30.41,3.44-36.16-2.87-5.74-11.52-11.01-27.95-16.26-7.39-2.37-30.38-4.23-30.38-4.23h.01Z"/>
            <path class="cls-33" d="M332.55,485.41c-.2-2.99,3.51-4.53,9.66-4.46,6.14.09,31.05,4.38,30.51,9.97-.54,5.59,1.47,17.5-15.42,11.75-16.9-5.72-24.65-15.71-24.75-17.25h0Z"/>
            <path class="cls-30" d="M372.68,471.07c-2.13,6.03-3.78,17.8-2.01,23.4,1.75,5.61-1.61,10.7-9.58,12.43-16.17,3.5-30.78-17.86-30.78-17.86,0,0,6.52-4.43,7.98-7.4.11-.22.23-.48.34-.74,1.52-3.54,3.59-11.02,5.96-26.78.75-4.87,28.1,16.95,28.1,16.95h-.01Z"/>
            <path class="cls-22" d="M370.38,483.33c-3.3,3.69-18.29,21.58-23.57,20.83-4.39-.62-14.72-10.98-17.09-14.34,12.53-3.9,14.23-30.57,14.37-31.63,0,0,24.11,19.48,26.28,25.14h.01Z"/>
            <path class="cls-37" d="M384.27,447.07s-16.52-.34-16.69,1.44c-.17,1.77,2.23.8,2.23.8l15.04,1.12-.58-3.36h0Z"/>
            <path class="cls-43" d="M329.11,451.11c.69,4.42,5.87,15.68,8.31,17.9.65.58,3.34,5.88,4.54,4.2,1.17-1.68,1.36-24.71.41-25.72-.95-1-13.26,3.62-13.26,3.62Z"/>
            <path class="cls-39" d="M334.21,482.41c.64,4.15,9.29,18.86,26.85,17.65,11.01-.77,11.28-6.96,11.58-10,2.11,4.81,2.94,8.5,2.94,8.5,0,0-3.56,4.7-9.08,7.15-4.66,2.09-10.73,2.24-17.1.07-12.28-4.21-21.21-17.8-21.21-17.8l6.02-5.56h0Z"/>
            <path class="cls-11" d="M349.66,434.12c-.88-3.83-2.36-5.78,1.59-7.84,3.95-2.04-2.04-.39-3.95,2.06s-.43,4.47-.43,4.47l2.79,1.31Z"/>
            <g>
              <path class="cls-11" d="M380.42,446.69c.6-6.24,1.62-14.89-1.73-20.13-3.36-5.21-13.84-10.78-26.06-9.16-5.72.76-8.89,1.41-8.89,1.41,0,0,31.73,15.48,30.89,17.86-.82,2.39,5.79,10.02,5.79,10.02h0Z"/>
              <path class="cls-30" d="M381.28,461.32c-.25-9.54-.76-22.93-6.15-30.94-3.52-5.12-6.63-7.43-11.09-7.17-1.05.49-12.6-6.31-13.61-5.68-2.94-.19-6.18,4.04-10.46,5.03-18.84,4.27-3.39,17.4-.77,29.7-4.86-1.56-5.71,3.03-4.28,7.83,1.09,3.66,3.09,6.1,5.88,6.75,5.26,14.35,20.73,20.77,32.21,17.71,6.16-3.17,8.5-14.27,8.27-23.25v.02Z"/>
              <path class="cls-43" d="M370.51,419.74c-6.33-6.91-31.22-3.26-32.13-1.14-.02,0-5.07,4.19-5.95,7.5.56-.05,2.57,1.01,5.07,2.59,5.61,2.54,10.44,4.02,12.6,6.07,3.94-.69,10.87,1.84,17.3.49,1.28-.26,3.25-2.19,4.55-2.97,3.18-1.9,4.41.5,5.24.94,2.41,1.28,3.44-6.91-6.68-13.48h0ZM332.37,426.15s.05-.03.07-.05c-.06,0-.08.04-.07.05ZM332.44,426.1c-6.52,2.24-4.27,8.09-5.47,12.25-2.43,8.44,2.53,16.53,2.53,16.53l8.94-4.25,3.06,11.4,4.01,3.72s-1.52-18.93-.54-21.77c.54-1.59.86-7.45,3.71-9.05-2.78-3.09-6.57-3.15-10.67-5.74-2.85-1.29-5.42-2.84-5.57-3.1h0Z"/>
              <g>
                <path class="cls-37" d="M350.09,450.84s-15.69-.55-15.87,1.26c-.18,1.83,2.28.84,2.28.84l15.27,2.27-1.69-4.36h.01Z"/>
                <g>
                  <path class="cls-27" d="M367.82,451.23c-.65,2.13-.16,7-2.04,8.39-1.88,1.38-10.35,2.05-11.44,1.69-1.1-.38-3.44-7.86-2.5-9.53.95-1.65,3.78-1.82,7.78-2.56,6.85-1.27,8.2,2.01,8.2,2.01h0Z"/>
                  <path class="cls-42" d="M373.25,449.4c.07,2.03-.62,7.25,2.47,8.76,3.1,1.53,6.71,1.22,7.65-.26.92-1.48,3.01-10.8,1.56-11.18-1.45-.42-10.45.71-10.91,1.18-.48.47-.76,1.5-.76,1.5h0Z"/>
                  <path class="cls-37" d="M385.67,446.66s-.6-.85-1.62-.81c-1.84.09-7.56.78-9.16,1.08-2.5.46-2.78,1.16-3.24,2.32-.18.45-1.07-1.04-3.31.49,0,0-.24-.28-.91-1.04-1.57-1.73-7.44-.94-11.31-.49-4.94.57-5.29,2.18-6.03,2.63-.73.46.56,7.84,2.93,10.53,2.36,2.68,11.59.66,12.6-.1,1.7-1.29,3.19-8.49,3.19-8.49.76-.63,3.28-.47,3.28-.47,0,0,1.21,5.49,2.65,7.07.99,1.08,5.41.9,7.5.26,5.36-1.64,3.44-12.98,3.44-12.98h-.01ZM364.65,459.6c-1.45.55-9.25,1.64-10.28.39-1.01-1.23-3.12-8.39-.97-8.93,1.52-.38,10.31-1.71,11.75-1.14.69.27,1.95,1.5,1.65,3.75-.3,2.25-.69,5.36-2.15,5.93ZM375.22,456.88c-1.68-3.75-1.88-6.89-1.88-6.89.43-.83,1.22-1.52,3.44-1.82,2.21-.31,7.4-.99,7.49-.45.73,4.39-.03,8.97-1.35,9.9-1.14.77-6.34,2.28-7.69-.74h0Z"/>
                </g>
              </g>
              <path class="cls-43" d="M369.82,434.49c8.27-2.89,11.47-11.39,9.8-16.09-.5,4.78-5.5,11.26-7.39,11.78-1.9.54-2.41,4.31-2.41,4.31h0Z"/>
              <path class="cls-11" d="M349.1,427.3c4.56,1.3,16.46-3.09,15.21-11.52-.66,4.7-1.89,5.64-5.63,7.55-3.74,1.91-4.38,1.99-4.38,1.99,0,0,6.44-1.93,7.19-8.26-1.8,5.37-6.76,7.45-10.41,8.51-3.66,1.07-1.98,1.72-1.98,1.72h0Z"/>
              <path class="cls-11" d="M350.1,434.77c-.95-3.43-1.69-6.6,2.29-8.2,4-1.61,5.23-1.84,5.23-1.84,0,0-5.09,1.92-6.17,3.52-1.08,1.6-.35,6.5-.63,6.55l-.72-.03h0Z"/>
              <path class="cls-11" d="M345.25,431.41c-.85-2.92-1.2-7.94,3.04-7.95,4.26-.02,6.85-.33,7.6-3.67,0,0-2.23,2.48-4.45,2.7-2.23.2-7.25-.77-7.56,3.17-.31,3.95.97,6.14.97,6.14l.39-.39h0Z"/>
              <path class="cls-43" d="M363.81,421.7c2.96-2.7,7.58-4.94,7.86-7.76,2.34,5.86.29,7.27.29,7.27,0,0,4.31-3.42,3.78-6.75,1.33,2.41,2.51,4.94.27,8.97-2.24,4.05-12.19-1.74-12.19-1.74h0Z"/>
              <g>
                <path class="cls-11" d="M356.55,435.06c4.52,1.71,11.61,1.98,15.43-2.34,3.83-4.32,10.4-13.49,5.44-19.51.72,10.15-4.54,12.78-6.73,13.41,3.63-2.2,4.38-8.95,2.76-11.98-.03,6.23-6.32,12.49-9.36,13.04l-3.03.56c6.86-4.88,6.34-8.34,5.71-10.53-.82,7.02-6.63,8.31-10.72,10.9-4.09,2.58.51,6.44.51,6.44h-.01Z"/>
                <path class="cls-43" d="M363.16,434.28c.83-2.77,2.45-3.32,7.34-5.41,4.89-2.08,7.85-9.18,7.09-13.09-.48,4.96-1.34,9.38-6.67,11.7-5.35,2.33-8.85,3.27-8.55,6.14.29,2.86.79.65.79.65h0Z"/>
                <path class="cls-43" d="M359.41,434.92c-1.08-2.1-.16-4.29,3.26-5.8,3.41-1.52,7.95-4.35,8.84-6.25-4.87,4.79-9.66,4.47-11.67,6.12s-2.01,4.64-1.01,6.02.58-.09.58-.09h0Z"/>
              </g>
            </g>
            <path class="cls-8" d="M380.28,593.95l-39.56,43.47-19.41,4.08s-9.2-12.24-9.2-24.5-2.23-23.32,2.04-25.7c4.25-2.39,45.08-13.29,51.39-12.18,6.32,1.11,14.73,14.84,14.73,14.84h.01Z"/>
            <path class="cls-18" d="M310.97,520.24c8.71,9.12,15.63,41.6,14.38,47.42-1.24,5.81.42,19.9-1.66,26.54-2.08,6.64.42,21.98,2.9,24.88,2.49,2.91,33.17-5.8,51.01-7.04,2.49,1.65-31.1,3.32-50.59,17.83-5.58,4.16,2.67,11.76,1.24,13.27-4.56,4.84-16.28,6.16-16.28,6.16,0,0,3-6.58,1.34-12.38-1.66-5.81-7.47-6.64-4.56-20.32,2.9-13.69,2.49-49.77-1.66-65.94s3.87-30.41,3.87-30.41h.01Z"/>
            <g>
              <path class="cls-30" d="M351.71,573.82c-6.47.67-20.09-.34-23.82-.34s-8.87,17.02-4.78,18.05c4.1,1.02,29.96-4.43,32.01-6.82,2.04-2.38-3.41-10.89-3.41-10.89h0Z"/>
              <g>
                <g>
                  <g>
                    <path class="cls-34" d="M356.06,557.09l26.2-1.57-2.21,38.45s.05.04.05.07c.05.63-3.87,1.39-8.76,1.67-4.71.29-8.56.04-8.84-.56h-.08l-6.36-38.06h0Z"/>
                    <path class="cls-39" d="M371.34,595.71c4.89-.28,8.81-1.04,8.76-1.67,0-.03,2.16-38.52,2.16-38.52l-13.09.78,2.18,39.4h-.01Z"/>
                    <path class="cls-35" d="M356.07,557.21c.06.94,5.98,1.37,13.24.94,7.23-.42,13.1-1.57,13.04-2.48-.05-.95-6.01-1.37-13.24-.93-7.28.43-13.1,1.54-13.05,2.48h0Z"/>
                  </g>
                  <g>
                    <path class="cls-34" d="M382.8,553.24l1.58,5.78c-.35.84-6.73,1.99-15.05,2.47-8.39.51-14.94.12-15.28-.7-.03-.04-.03-.1-.05-.15l.37-5.7,28.43-1.7h0Z"/>
                    <path class="cls-39" d="M354.37,554.94c.04.82,6.42,1.13,14.28.66,7.84-.47,14.15-1.53,14.1-2.36-.05-.84-6.44-1.12-14.29-.65s-14.15,1.51-14.09,2.35h0Z"/>
                  </g>
                </g>
                <g>
                  <path class="cls-30" d="M359.92,567.44c1.65-1.69,5.57-2.41,6.42-2.23,0,0-3.27,14.01-.88,16.95.99,1.22-9.28,4.05-11.86,3.45-8.13.46-4.02-3.45-4.73-8.09-.75-4.95,1.87-2.09,11.05-10.08Z"/>
                  <path class="cls-30" d="M367.05,565.14c1.7.3,3.9,1.51,5.69,2.4,1.77.87,7.12,4.09,6.68,5.16-.47,1.08-3.85-.86-7.27-1.96-3.66-1.17-3.69-.9-4.57-.46,0,0,2.88.85,5.49,1.73,1.95.66,7.39,2.27,6.56,4.21-.6,1.43-4.17-.9-6.91-1.3-2.75-.4-6.07-1.06-6.07-1.06,0,0,2.59.78,5.28,1.79,2.92,1.14,6.18,1.85,6.01,2.9-.2,1.09-3.98.47-7.12.34-2.65-.16-5.34.21-5.34.21,0,0,11.53,1.36,9.74,2.89-1.81,1.53-9.34.98-13.6.05-2.08-.44-1.63-5.51-.66-9.9,1.6-7.36,6.08-6.99,6.08-6.99h.01Z"/>
                </g>
              </g>
            </g>
            <path class="cls-39" d="M333.46,572.91c1.02,0,8.21,1.1,8.21,1.1,0,0-4.08,7.53-.35,18.52-6.9,1.03-10.06.94-10.06.94l2.2-20.57h0Z"/>
            <path class="cls-18" d="M302.47,497.46c-4.68-1.14-7.5,6.81-11.14,16.03-3.62,9.22-25.56,62.69-13.31,79.27,5.51,7.45,52.77,2.41,56.24,2.05-1.24-4.91-1.14-21.17,3.73-22.08-18.25-3.98-35.34-6.32-35.34-6.32,0,0,8.57-10.45,10.31-20.04,5.1-27.9-10.49-48.91-10.49-48.91Z"/>
            <path class="cls-7" d="M313.19,534.89c-1.66,9.4-7.8,30.41-10.54,31.52-2.74,1.1,28.4,4.14,30.8,6.49s-3.13,4.56-3.13,4.56c0,0-34.84-6.64-38.71-3.87s6.08-4.42,6.08-4.42c0,0-8.29,1.66-9.95,2.77-1.66,1.1,9.95-8.3,9.95-8.3,0,0,13.27-28.75,12.17-45.34,3.87,7.74,3.32,16.59,3.32,16.59h.01Z"/>
          </g>
        </g>
        <g>
          <g>
            <path class="cls-37" d="M238.36,659.41c-.18.44-.07.92.26,1.08l11.08,9.59c.38.18.86-.07,1.09-.54l30.23-68.01c.51-1.33-.53-2.18-.99-2.2l-14.59.3c-.41-.01-.88.34-1.08.76l-26,59.03h0Z"/>
            <path class="cls-24" d="M238.01,662.55c-.19.45-.12.89.15,1.01l10.75,4.71c.31.13.73-.13.94-.61l29.1-66.26c.21-.48.29-1.47-.59-1.46l-12.35.22c-.32.02-.74.36-.94.83l-27.06,61.57h0Z"/>
            <path class="cls-24" d="M165.99,667.87c-.34.31-.17.58.42.57l82.3.07c.7,0,.94-.29.52-.65l-9.98-8.41c-.24-.2-.88-.34-1.4-.34l-62.32.72c-.45,0-.98.17-1.21.36l-8.33,7.68h0Z"/>
            <polygon class="cls-17" points="270.53 611.11 251.26 653.93 246.04 650.73 264.27 610.38 270.53 611.11"/>
            <path class="cls-37" d="M165.72,670.25c.03.53.49.94,1.08.94l82.4-.56c.58,0,1.03-.45,1.04-.97v-.85c0-.51-.49-.94-1.06-.93l-82.41.57c-.57,0-1.05.43-1.04.95v.85h-.01Z"/>
            <polygon class="cls-17" points="233.29 660.2 238.91 666.03 198.2 666.31 196.45 660.65 233.29 660.2"/>
          </g>
          <g>
            <path class="cls-30" d="M200.15,660.12c4.65.17,12.53.72,15.81,2,2.65,1.36,3.63,2.28,4.75,2.98,2.17,1.37,4.67,3.95,3.78,4.51-.66.41-2.58-1.37-4.51-2.33l-4.12-1.58c4.04,2.14,8.44,5.25,7.82,6.17-.8,1.2-4.99-2.42-9.25-3.54-.15.04-.28.09-.44.15,3.82,1.46,7.18,4.12,6.64,4.59-1.37,1.22-6.67-1.28-9.56-2.88-.18.06-.34.11-.5.13,2.1,1.81,6.67,3.93,6.03,4.29-.74.45-5.42-1.21-8.59-2.71-3.02.44-6.8-1.03-8.56-2.22-3.03-2.04-2.91-4.09-2.91-4.09l3.6-5.46h0Z"/>
            <path class="cls-18" d="M203.09,659.79l-41.53-17.06-17.03-47.84s-14-12.36-21.08,4.05c-6.18,14.3,3.39,37.02,15.81,60.82,3.49,6.68,53.53,19.51,53.53,19.51l10.3-19.47h0Z"/>
          </g>
        </g>
        <g>
          <g>
            <path class="cls-25" d="M1193.43,904.58c1.19,6.5,6.5,13,1.19,17.15-5.32,4.13-10.65,4.13-17.16,2.35-6.49-1.78-8.85-5.32-12.38-8.28-3.56-2.95-13.01-4.71-15.98-8.86-2.93-4.13-6.8-12.44-1.45-13.44,7.36-1.37,13.85,4.52,33.15.12l12.64,10.96h-.01Z"/>
            <path class="cls-37" d="M1124.48,618.38c-4.05,18.99,4.69,40.75,6.04,51.61,1.36,10.85,13.56,89.91,14.07,94.78,1.36,12.88,2.72,21.09,6.78,33.28,4.07,12.22,13.17,88.25,11.82,97.74-.81,5.62,14.25,14.54,24.2,15.64,6.84.74,10.79-2.23,10.79-2.23,0,0,7.07-62.55-12.13-124.22-3.86-48.83-2.42-81.53-5.29-95.07-.96-4.52,7.44-40.12-8.51-62.65-12.56-17.75-47.77-8.89-47.77-8.89h0Z"/>
            <path class="cls-24" d="M1131.94,666.71c2.12,18.99,8.46,106.96,11.26,111.9,2.81,4.92,3.7,6.54,8.18,19.44,4.49,12.93,9.55,94.19,8.84,97-.7,2.82,9.3,7.82,9.3,7.82,0,0-.29-63.62-11.54-105.26-2.15-7.95-10.1-27.69-11.5-37.54-1.42-9.84-14.55-93.36-14.55-93.36h.01Z"/>
          </g>
          <path class="cls-25" d="M1129.51,903.41c2.98,9.34,5.58,14.31,2.7,20.23-2.89,5.9-16.92,3.72-25.05-.16-4.82-2.3-6.73-5.82-12.35-5.98-11.99-.35-22.31-19.84-12.48-20.66,9.83-.82,16.23,3.21,20.7-.48,4.44-3.67,26.48,7.04,26.48,7.04h0Z"/>
          <path class="cls-37" d="M1091.81,627.29c-4.06,18.97-4.6,39.75-4.2,50.67.7,20.41,4.38,89.93,4.92,94.77,1.36,12.89,1.55,15.96,5.63,28.16,4.06,12.2,3.86,86.52,2.51,96.02-1.36,9.48,33.12,15.26,33.12,15.26,0,0,14.53-58.26,2.33-123.35-.75-63.87,3.28-97.85,1.92-119.55-1.36-21.69-46.22-41.98-46.22-41.98h-.01Z"/>
          <path class="cls-30" d="M1147.79,443.64c-1.52,4.96-1.4,23.18.51,30.86,1.86,7.68,11.1,18.06,11.1,18.06l-42.98,8.1s3.75-29.07-4.26-34.61c-4.94-3.4,35.62-22.41,35.62-22.41h.01Z"/>
          <path class="cls-30" d="M1106.11,428.87c-2.41,7.95.34,8.58-.94,11.79-3.19,7.98-3.8,26.96,1.59,30.28,2.46,1.53,7.27,5,12.43,3.83,8.92-2.03,20.24-11.5,25.39-19.69,8.1-12.94,6.26-29.85-7.5-35.81-15-6.47-26.5-4.97-30.97,9.61h0Z"/>
          <path class="cls-12" d="M1104.49,421.53c-2.33-4.32-1.61-8.2-1.61-8.2,5.78,5.6,35.24-12.64,51.12.86,1.9,1.6,1.25.64,2.59,2.19,1.28,1.5,3.68,1.97,4.97,2.98,8.01,6.43,5.61,29.02.66,37-6.22,10.05-5.43,12.66-4.62,15.42,1.34,4.48-34.12.44-34.12.44l-4.03-16.04-4.87-3.91-2.86-8.27-2.76-3.3s1.86-7.55,1.67-11.61c-.1-1.97-4.88-5.24-6.14-7.56h0Z"/>
          <path class="cls-36" d="M1148.81,414.07c-3.31-2.2-13.27-.53-15.21,4.02-2.15,5.09.55-4.02.55-4.02,0,0-3.99,1.81-3.99,7.35-4.99-3.33-1.52-5.96-1.52-5.96l-5.03.62-2.18,2.7s-15.19,6.35-17.8-9.04c4.1,5.72,8.32,4.72,8.32,4.72,0,0-9.61-.63-6.58-8.32.37.75-.52,7.89,11.09,2.95,9.13-3.86,12.18-1.93,12.18-1.93,0,0,14.38-1.65,23.51,6.64,3.46,3.17,4.9,5.76,4.9,5.76l-8.24-5.49h0Z"/>
          <path class="cls-30" d="M1113.94,439.6c4.41-.56,7.75,2.78,4.41,9.95-3.3,7.19-6.07,8.31-8.83,6.09-2.78-2.23,4.41-16.05,4.41-16.05h0Z"/>
          <g>
            <path class="cls-18" d="M1152.96,480.35c6.8,3.83,8.95,2.52,23.03,12.66,0,0,6.27,2.08,7.19,4.22,9.43,21.59,1.13,39.03-.8,50.27-3.83,22.18-8.99,43.47-6.16,59.43,4.8,26.89,8.44,52.1,7.45,55.83-.4,1.51-39.85,15.63-65.63,11.78-23.16-3.45-36.75-7.5-38.19-8.69,2.33-20.82,7.56-53.23,8.27-67.34,1.09-21.13-3.05-34.13-3.98-43.6-.94-9.47,2.49-22.54,1.43-24.51-2.87-5.31.44-33.05.44-33.05,0,0,11.97-6.11,29.04-15.71,4.18-2.36,16.51-3.78,16.51-3.78l21.4,2.48h0Z"/>
            <path class="cls-18" d="M1154.27,475.09l2.84,7s-10.79-.84-19.17-.05c-13.39,1.26-27.34,2.99-27.34,2.99l3.01-8.48s7.53-2.91,25.21-3.09c5.42-.06,15.46,1.62,15.46,1.62h0Z"/>
            <path class="cls-7" d="M1088.1,495.25c5.59,2.79,8.1,6.54,8.1,6.54,0,0,9.34-10.21,34.36-12.99,41.43-4.64,48.82,5.89,48.82,5.89,0,0-18.91-13.58-23.08-13.58s-24.17-2.85-44.39,2.64c-4.07,1.1-16.24,7.84-18.07,8.9l-5.75,2.61h.01Z"/>
            <path class="cls-7" d="M1090.39,513.13c6.72,6.24,6.94,67.76,5.99,84.56-.96,16.8-7.41,59.07-8.38,63.39s23.08,9.32,23.08,9.32c0,0-28.12-3.55-30.3-7.82-.97-1.88,3.3-29.87,4.61-37.43,1.34-7.57,3.9-28.67,2.45-35.87-1.43-7.19.26-25.14-1.66-36.18l4.2-39.97h.01Z"/>
            <path class="cls-7" d="M1091.5,495.52c-9.77-5.57-16.2,13.71-20.94,31.92-3.14,12.03-6.74,21.14-8.37,24.6-12.54,26.76-8.86,37.88-3.69,40.92,19.46,11.5,32.24-25.9,35.84-40.83,6.74-27.86-2.83-56.6-2.83-56.6h-.01Z"/>
            <path class="cls-18" d="M1077.63,507.01c.7,9.79,8.25,20.69,7.59,20.61-2.85-.39-10.72-8.55-10.72-8.55,0,0-.41,1.44,0,5.21.25,2.51,1.55,10.73,3.74,13.1,2.11,2.29-6.38-6.98-6.38-10.46s5.77-19.91,5.77-19.91h0Z"/>
          </g>
        </g>
        <g>
          <g>
            <g>
              <g>
                <path class="cls-30" d="M1007.79,825.73c-2.74,23.37-4.49,29.1-16.9,34.97-5.74,2.65,3.1,10.81,3.1,10.81,0,0,18.89-3.68,26.7-7.82,10.51-5.54.99-9.45,2.3-32.72.6-10.48-15.2-5.25-15.2-5.25h0Z"/>
                <path class="cls-37" d="M992.43,859.44c-1.97,2.69-1.52,5.41,2.15,6.16,5.27,1.09,20.21-3.13,31.61-12.64,5.11,19.94-2.5,18.55-13.78,17.3-2.42-.27-13.82,12.66-35.46,4.39-3.9-1.49-2.29-9.07,7.15-11.37,6.71-1.63,8.33-3.84,8.33-3.84h0Z"/>
              </g>
              <path class="cls-37" d="M997.72,591.32c2.25,8.3,15.61,20.55,13.94,39.63-.95,10.96-3.83,20.51-4.97,24.71-3.56,12.98,4.91,66.22,9.18,96.18,0,0,11.26,30.95,6.53,91.09-17.76,4.03-25.54-.89-25.54-.89,0,0-1.83-58.64-6.35-74.81-8.78-31.33-20.53-108.54-20.86-118.65-.82-24.96,3.68-49.1,7.77-59.74l20.29,2.48h0Z"/>
            </g>
            <path class="cls-37" d="M994.08,834.03c-.22,1.66-.93,11.38,1.64,12.48,7.09,3.02,28.93-.15,30.68-2.11-.62-4.89.69-13.16.69-13.16,0,0-8.79,5.32-21.7,5.41-6.68.04-11.31-2.62-11.31-2.62h0Z"/>
            <path class="cls-24" d="M996.69,833.13c-1.92.37-3.7,1.07-2.07,1.59,5.92,1.89,23.65,1.37,28.58-.82,4.69-2.09,4.19-2.99,3.5-2.53-.62.41-1.1.28-1.1.28,0,0-1.26,1.68-5.37,2.49-14.38,2.85-23.54-1.01-23.54-1.01Z"/>
          </g>
          <path class="cls-30" d="M993.64,537.02c.06-6.57-5.5-35.71-5.5-35.71-10.08,15.24-21.75,48.44-28.52,59.71-9.04,4.99-29.85,21.25-29.85,21.25l4.02,2.34s14.96,1.63,21.97-1.56c5.99-2.75,12.13-3.69,14.09-6.34l.06.19s23.67-33.3,23.72-39.88h.01Z"/>
          <path class="cls-16" d="M999.92,495.95c-7.64,4.77-13.74,3.48-19.2,9.94-5.45,6.47-18.72,45.54-18.72,45.54l24.33,12.73s7.35-43.51,6.21-46.24c-1.13-2.75,7.38-21.97,7.38-21.97h0Z"/>
          <polygon class="cls-34" points="965.45 542.06 982.31 552.21 980.74 555.71 963.63 547.33 965.45 542.06"/>
          <g>
            <g>
              <path class="cls-30" d="M1027.89,835.83c2.93,26.16,9.01,29.6-5.72,50.87-3.41,4.92,6.74,5.86,6.74,5.86,0,0,19.72-5.15,26.53-10.23,9.15-6.82-6.27-12.95-7.71-39.35-.55-10.08-19.84-7.16-19.84-7.16h0Z"/>
              <path class="cls-37" d="M1025.64,881.37c-1.47,2.82-1.08,6.54,2.46,7.03,9.58,1.41,20.31-6.95,28.71-16.97,7.78,11.87,1.11,16.78-2.25,18.62-15.35,8.39-11.66,13.02-31.99,13.7-9.68.33-13.99-2.94-9.96-8.32,4.92-6.55,13.02-14.06,13.02-14.06h.01Z"/>
            </g>
            <path class="cls-37" d="M1016.71,594.16c8.19,18.41,17.57,31.58,18.41,43.78.76,10.97-1.7,22.79-2.86,27-3.55,12.97-17.37,61.68-13.09,91.65.26.37,35.41,38.47,34.37,92.26-17.75,4.04-25.25,3.04-25.25,3.04,0,0-30.32-73.77-41.85-86.3-10.61-11.53-4.99-93.05-6.14-103.11-2.04-18,2.05-50.32-.41-62.19l36.82-6.14h0Z"/>
          </g>
          <path class="cls-30" d="M985.21,511.67c1.95-5.01,11.24-13.68,13.53-21.64,3.18-13.64-6.91-22.74-12.8-27.23,0,0,36.44-19.09,34.79-8.41-1.27,8.31.65,34.42,6.02,40.15,10.12,10.8,12.26,29.34,2.54,37.93-6.6,5.82-37.79-1.26-38.29-1.65-1.57-1.19-9.97-8.57-5.79-19.15h0Z"/>
          <g>
            <path class="cls-12" d="M1030.84,437.75c2.24-2.63,6.71-7.94,14.74-1.63,8.01,6.29,18.13,20.18,5.38,45.52-12.24,24.34-2.39,37.78.74,37.48-8.55,3.68-24.48-9.49-25.88-23.62-1.91-19.57,3.31-12.03,12.47-36.68,4.12-11.1-3.62-15.2-5.32-15.51-1.69-.32-2.14-5.56-2.14-5.56h.01Z"/>
            <g>
              <path class="cls-30" d="M1030.38,451.52c5.24-17.6-4.46-27.38-18.45-31.56-13.99-4.16-25.06,3.88-30.28,21.45-1.01,3.37,1.12,5.62.7,8.82-.83,1.52-3.53,5.58-5.05,7.53-.5,1.42,1.64,3.97,3.56,4.85.64,9.5,1.22,17.77,11.53,17.69,14.61-.1,32.76-11.21,37.99-28.78h0Z"/>
              <path class="cls-12" d="M991.12,440.51l-5.24-9.05c-3.33-9.97,21.28-21.18,38.68-10.2,16.19,10.21,15.37,20.44,12.26,31.22-3.07,10.78-11.63,26.03-11.63,26.03,0,0-3.51.97-10.67-2.74-5.63-2.9-12.7-12.57-10.96-13.64,2.42-1.46,4.25-9.72.79-11.42-1.68-.85-4.73,1.36-4.73,1.36l-8.51-11.56h0Z"/>
            </g>
          </g>
          <g>
            <path class="cls-18" d="M1022.5,490.26l14.91,16.9s3.4,16.86-1.17,34.31c-3.48,13.2-18.13,28.58-6.17,58.28,12.41,30.82,8.93,41.45,8.93,41.45,0,0-16.3-4.64-41.12,2.18-15.07,4.14-31.92-2.73-31.92-2.73,0,0-4.5-26.05,6.55-86.19,0,0-11.15-8.14-1.22-29.87,3.67-8.05,12.36-24.1,14.59-26.05,1.32-1.14,8.31-5.45,8.31-5.45,0,0-11.06,16.16-.29,16.24,11.22.09,28.59-19.09,28.59-19.09v.02Z"/>
            <path class="cls-7" d="M1030.71,541.57c-.24,8.38-6.26,28.16-8.66,34.9-2.41,6.74-1.1,16.24.03,17.62,1.13,1.37-8.28,2.34-6.9,4.16,1.38,1.81,9.76,3.52,9.76,3.52,0,0-15.79,7.45-9.4,5.37,6.38-2.09,9.06-2.53,10.62,1.53,1.57,4.06.11,15.81-.13,16.84-.26,1.04,12.51,1.27,12.51,1.27,0,0-10.49-31.65-10.86-42.01-.36-10.36,9.47-39.76,10.82-52.62,1.36-12.86.44-21.76-1.04-23.23-1.47-1.46-6.76,32.64-6.76,32.64h.01Z"/>
            <path class="cls-39" d="M965.17,627.11c12.15,8.49,36.04,1.22,45.28-1.84,11.81-3.9,24.27-4.76,27.08-1.8.02,1.82,1.26,5.07,1.26,5.07,0,0-5.74-4.92-24.65.16-13.37,3.59-22.4,6.34-36,4.81-13.51-1.51-12.8-3.75-12.8-3.75l-.18-2.65h.01Z"/>
          </g>
          <g>
            <path class="cls-34" d="M997.76,486.99c-3.8,2-13.02,18.3-12.17,25.1.85,6.79,2.11,6.5,2.93,8.34.83,1.84,4.67-1.27,5.55-3.61.89-2.33.69-5.83-.48-7.79-1.16-1.96,3.75-15.14,5.06-17.97,1.3-2.84-.91-4.06-.91-4.06h.02Z"/>
            <path class="cls-39" d="M998.2,514.13c1.38,10.42-16.17,8.33-17.39,29.61-2.86,1.23-2.15,2.76-2.15,2.76,0,0-3.07-28.43,6.98-32.37,6.8-2.66,12.56,0,12.56,0h0Z"/>
            <path class="cls-34" d="M1026.88,490.52c6.48,7.03-1.67,16.45-13.44,20.38-11.77,3.92-27.98,6.03-28.85,5.31-.87-.7-.09-.41,3.57-4.74,3.67-4.31,38.72-20.95,38.72-20.95h0Z"/>
            <path class="cls-39" d="M1024.96,482.18c-3.97,9.15-34.9,23.42-38.75,25.52-3.84,2.1.43,4.22.43,4.22,0,0,28.64-.15,39.07-12.95,10.43-12.8-.75-16.79-.75-16.79h0Z"/>
            <path class="cls-34" d="M996.63,513.24c1.82,3.74-4.16,9.1-5.08,9.52-.92.41,3.59-4.47,2.73-5.56-.86-1.09-6.09,4.12-11.62,12.2-.69,1-2.9,10.86-3.11,6.09-.27-6.09,7.67-19.7,7.81-21.43.15-1.71,9.28-.83,9.28-.83h-.01Z"/>
            <path class="cls-39" d="M989.63,507.32c-8.26,2.93-18.03,15.12-16.49,28.97,7.38-15.48,21.05-21.92,21.6-24.38.55-2.45-5.11-4.59-5.11-4.59h0Z"/>
          </g>
          <g>
            <path class="cls-37" d="M923.41,578.22c.16.49.57.8.96.69l21.33,7.42c.43-.11.64-.66.48-1.2l-18.17-71.33c-.5-1.66-1.52-1.97-2.55-2.13l-19.43-1.72c-1-.02-1.43,1.14-1.28,1.64l18.66,66.63h0Z"/>
            <path class="cls-37" d="M1000.28,578.74c.32.23.63.65.16.66l-55.67,5.09c-.59.02-2.79-.46-2.47-.76l-11.97-9c.17-.18-2.99-2.38-2.57-2.4l30.47-2.13c.38-.02,1.66-.04,1.86.09l40.2,8.44h-.01Z"/>
            <path class="cls-24" d="M1000.8,580.62c.04.56-.32,1.04-.81,1.07l-54.21,4.67c-.48.03-.92-.4-.95-.95l-.07-.91c-.04-.56.32-1.03.8-1.07l54.21-4.67c.49-.04.93.38.96.94l.07.92Z"/>
          </g>
          <path class="cls-24" d="M984.53,652.39c-1.09,8.73-3.82,86.74-2.73,98.2s6,16.91,9.82,21.27c3.82,4.36,36.77,66.23,36.66,80.03s6.99-3.3,6.99-3.3c0,0-25.92-69.9-32.88-78.09-6.96-8.18-12.28-15.96-12.28-25.78s-5.59-92.33-5.59-92.33h.01Z"/>
          <g>
            <path class="cls-37" d="M1024.12,848.05c.11,1.66,1.24,11.28,3.85,11.89,7.24,1.67,27.25-5.32,28.53-7.55-1.49-4.66-1.78-12.96-1.78-12.96,0,0-7.3,6.78-19.45,9.16-6.3,1.24-11.16-.54-11.16-.54h.01Z"/>
            <path class="cls-24" d="M1026.41,846.72c-1.74.71-3.3,1.7-1.67,1.92,5.94.78,22.56-2.9,26.8-5.91,4.03-2.87,3.39-3.67,2.83-3.09-.51.51-.99.47-.99.47,0,0-.88,1.87-4.6,3.39-13.04,5.35-22.38,3.22-22.38,3.22h.01Z"/>
          </g>
          <path class="cls-30" d="M958.72,576.67c1.67-.1,2.78,0,3.65.1-.84-.22-2.01-.31-3.09-.86-.94-.49-2.61-.26-2.51-1.99.06-1.1,5.42,1.13,9.72,1.13,3.02,0,6.29,4.19,9.25,5.52,8.52-.46,34.04-12.71,43.01-12.99.82-4.09-5.06-38.14.82-39.28,7.06-1.37,18.41,2.86,18.41,2.86-.41,37.64.41,47.87-2.04,49.92-12.36,6.63-49.19,8.65-58.1,8.8-7.51,3.87-13.97-2.06-15.9-1.49-2.84.14-10.14-.29-10.24-1.06-.13-.88.93-.5,3.35-.72.7-.05,5.52-.57,6-.56.14-1.34-8.42-.05-10.62-1.06-1.39-.63-1.4-1.28.46-1.56,3.04-.43,10.17-1.02,10.17-1.02,0,0-12.28.55-12.57-.67-.26-1.08,10.33-2.2,10.33-2.2l-.56-.62-9.47,1.36c-1.21-.91,2.92-3.27,9.93-3.61h0Z"/>
          <g>
            <path class="cls-18" d="M1032.42,505.58c6.5,1.11,10.15,10.03,10.66,25.7.52,15.84-1.27,30.09-1.27,30.09,0,0-3.8.82-8.72.69-8.34-.22-19.7-1.55-19.98-2.56-.44-1.62-1.73-26.26.04-41.19,1.32-11.16,19.26-12.73,19.26-12.73h.01Z"/>
            <path class="cls-39" d="M1012.27,552.39c5.29,4.34,28.2,5.37,30.32,1.85.16,3.23-.3,5.14-.3,5.14,0,0-13.36,3.74-29.35-1.5-1.03-.34-.67-5.5-.67-5.5h0Z"/>
          </g>
          <path class="cls-30" d="M936.18,581.96c-2.04-1.02-3.23-4.25-3.23-4.25,0,0-.81-4.11-1.12-4.09-1.23.05-.97,3.23-.36,4.86.61,1.64,1.43,3.07,1.43,3.07,0,0-2.56-3.32-2.56-4.14s.82-4.71-.2-4.65c-1.45.07-1.84,3.48-1.74,4.5.16,1.64,1.02,3.48,1.02,3.48l-1.69-3.83s.87-4.61-.05-4.65c-1.65-.1-1.84,2.25-1.84,4.3s1.13,3.58,1.13,3.58c0,0-1.76-3.19-1.54-4.4.72-3.83-1.18-3.73-1.18-3.73,0,0-.36,4.24-.15,5.68.2,1.43,1.02,3.48,3.07,5.32,2.04,1.84,7.57,3.07,9.82,2.45,2.25-.61,4.23-.55,3.41-1.16-.82-.62-4.23-2.32-4.23-2.32v-.02Z"/>
        </g>
        <g>
          <path class="cls-24" d="M811.1,861.36c0-4.97-4.88-11.83-2.68-37.39.28-3.11-22.88-4.13-22.88-4.13,1.04,12.55,6.31,20.34-5.86,35.45-2.66,3.29-14.53,10.73-17.23,13.4-1.9,1.91-1.43,10.35,10.01,10.2,12.21-.17,25.72-3.57,29.37-10.4.31-.58,1.22-.33,1.22-.33,0,0,8.05,1.78,8.05-6.8Z"/>
          <path class="cls-25" d="M811.1,861.36s-5.09.05-12.35,5.61c-8.1,6.2-15.5,7.51-21.63,7.63-10.68.21-14.67-5.9-14.67-5.9-3.14,2.18-3.93,7.87-.18,10.55,5.85,4.19,15.28,2.56,22.18,1.08,10.02-2.14,12.87-6.62,17.88-9.48,3.31-1.89,6.61-1.59,6.8-1.7,2.77-1.52,2.39-5.87,1.97-7.78h0Z"/>
        </g>
        <g>
          <path class="cls-24" d="M848.61,854.34c1.89,8.59,1.18,12.87,1.18,16.69s2.16,4.29,5.97,6.2c0,0,.35,2.5,4.29,6.45,6.08,6.08,31.84,7.02,31.84-2.52s-5.13-11.8-11.8-17.52c-6.68-5.73-5.73-15.26-13.36-9.53-7.63,5.71-18.11.24-18.11.24h-.01Z"/>
          <path class="cls-25" d="M855.75,877.23c4.29,3.58,13.58,5.01,20.03,5.01s13.24-1.19,15.38-6.2c0,0,1.74,5.81.12,7.76-1.79,2.14-6.91,4.88-13.6,4.88s-17.17-2.63-19.79-6.67c-2.62-4.06-2.14-4.78-2.14-4.78h0Z"/>
          <path class="cls-25" d="M857.9,851c-.25,5.24-1.2,10.25,3.09,15.5,4.3,5.25,15.5,11.74,15.5,17.7s-18.85-2.93-19.8-4.59c-.94-1.67.48-1.19-2.85-3.09-3.35-1.92-3.59-.72-3.59-8.82s-2.61-13.83-.94-15.5c1.66-1.67,8.59-1.19,8.59-1.19h0Z"/>
        </g>
        <g>
          <path class="cls-18" d="M759.41,588.45c-.01,2.34.97,19.92.99,22.11.21,23.92,1.19,33.22,1.42,39.5.25,6.88,7.73,85.4,13.27,102.41,5.53,16.99,9.94,77.52,6.85,82.79-3.09,5.28-2.26,20.04-2.26,20.04,0,0,33.38.66,34.45,7.5,0,0,3.09-4.37,2.51-19.43-1.07-27.54,3.1-55.09-6.44-94.67-2.42-10.03-.82-67.67-1.19-77.97-.27-7.68,19.17,76.57,26.59,100.39,0,0,7.74,53.32,9.18,70.34,1.69,20.07.72,25.1.72,25.1,0,0,21.91-12.23,33.62-5.79.16-6.87-1.9-7.07-3.82-19.43-1.26-8.05-2.73-35.73-5.13-50.91-2.2-13.86-7.21-33.53-8.47-43.87-3.09-25.6-6.89-66.29-9.64-97.15-2.77-30.85-11.34-53.22-14.92-59.28-3.59-6.05-77.74-1.67-77.74-1.67h.01Z"/>
          <path class="cls-7" d="M766.21,653.55c2.49,35.16,14.24,91.53,18.48,106.84,4.24,15.33,8.17,18.57,10.74,27.42,10.48,36.24,1.08,46.61,1.18,49.82.11,3.22,17.42,5.89,13.83,8.59-3.6,2.71-18.2-3.83-18.13-1.9.07,1.92,19.56,9.54,19.56,9.54,0,0-29.97-1.55-31.24-2.15-1.23-.58-1.06-7.89-.47-14.79.57-6.9.74-54.49-4.78-71.06-5.52-16.56-15.63-130.27-14.18-141.29,1.45-11.01,5.01,28.97,5.01,28.97h0Z"/>
        </g>
        <g>
          <g>
            <path class="cls-30" d="M773.66,441.26c1.67,5.19,1.46,14.64.41,20.88-.14.89-5.13,2.02-5.37,2.69-1.89,5.39,13.1,18.41,16.34,18.82,21.54,2.71,27.73-21.17,27.73-21.17,0,0-9.53.48-11.53-29.56-.32-4.8-27.59,8.34-27.59,8.34h.01Z"/>
            <path class="cls-19" d="M775.51,454.27c.1.87,1.03,7.14-4.69,10,3.1,3.67,6.07,17.09,11.24,16.52,4.28-.47,22.16-18.28,24.57-21.46-1.02-4.26-5.55-19.42-5.66-20.43l-25.46,15.38h0Z"/>
          </g>
          <g>
            <g>
              <path class="cls-37" d="M811.29,418.89c.03,4.39-2.93,20.81-4.94,23.35-.53.67-.02,5.59.84,5.31.88-.28-3.39,1.28-4.82-.15-1.4-1.45-4.27-27.01-3.53-28.13.76-1.12,12.46-.38,12.46-.38h-.01Z"/>
              <g>
                <path class="cls-30" d="M799.65,424.47c.55-12.05,5.27-25.15-13.21-26.24-4.21-.25-7.59,0-10.35.64-1.06-.45-2.13-.83-3.18-1.12-4.26.47-6.84,3.13-9.38,8.51-2.11,4.67-2.71,10.83-2.52,16.78.05,1.89,1.05,4.67,1.24,6.47.3,2.7-.23,5.24.04,7.41.92,7.23,3.5,15.6,9.19,21.02,1.64.92,3.44,1.93,5.51,1.84,6.46-.31,13.31-3.37,17.24-7.08,2.34-1.83,4.04-8.02,5.06-13.22,2.53-1.08,5.42-5.67,5.87-9.31.62-4.75-.71-8.06-5.51-5.72v.02Z"/>
                <g>
                  <path class="cls-24" d="M778,398.23l.47-1.08s4.93-2.65,4.04-2.69c-.53-.03-2.27-1.63-3.44.79l2.35-4.05-11.29,3.2s-2.48-.44-4.32.91c-1.84,1.32-3.27,2.36-3.27,2.36,0,0,.3,1.79.67-.7-2.51.69-4.26,6.4-4.32,10.68-.27,1.25-.48,2.67-.63,4.19-.7,6.33,1.35,13.65,1.35,13.65l2.45,1.02s-3.22-15.62,2.65-19.8c5.9-4.18,18.51-.11,18.51-.11l-5.24-8.37h.02Z"/>
                  <path class="cls-37" d="M810.36,406.25c-1.82-3.76-4.29-9.34-7.1-10.72-1.37-3-11.08-3.22-20.86-6.86,0,0,8.66,3.35,8.75,5.67-.03-.03-.06-.03-.09-.03-1.19-1.86-15.55-6.86-14.87-5.74,3.91,6.44,3.1,2.15,2.1,4.9-.27-.07.48.26.21.22.41-2.74-2.61-5.44-4.75-6.06.8,3.69-3.52,3.39-6.46,7.4-3.62,3.32-6.42,9.66-2.77,12.47,8.48,6.49,15.35,1.3,20.89,1.7,5,.33,7.78,3.31,8.8,5.2,1.35,2.55,2.05,14.44,2.05,14.44l3.08-1,1.33-7.45,9.45,4.48s3.85-11.02.24-18.62h0Z"/>
                </g>
              </g>
            </g>
            <path class="cls-31" d="M758.02,436.55c2.88.7,8.05,1.1,8.68-1.27.73-2.82,1.21-6.36,1.21-6.36,0,0,1.49-1.16,4,.08,0,0,.77,4.02,1.54,6.49.84,2.61,9.79,1.26,13.53.48,1.69-.36,1.89-4,1.97-7.04l11.32-4.35,1-1.54s-10.68,2.83-13.2,3.11c-2.25-.53-10.82,1.09-14.11.88-1.03.17-2.81-.02-4.19,0-1.69,0-2.6.44-3.03.35-.7-.15-9.26-1.66-10.45-.63-1.14,1.01-.23,9.35,1.71,9.81h.02ZM773.6,428.73c.92.23,13.04-1.32,13.6-.78.56.55.43,6.28-1.15,6.82-2.22.83-10.2,1.72-11.14-.54-.91-2.26-1.31-5.5-1.31-5.5h0ZM757.39,428.23c.55-.5,7.85.56,8.8.36,0,0,.26,3.23-.62,6.12-.28.9-5.44.92-6.91.15-1.33-.7-1.84-6.1-1.27-6.63h0Z"/>
          </g>
        </g>
        <path class="cls-7" d="M804.24,660.7c10.01,18.6,15.98,41.49,25.27,65.82,7.53,19.68,9.33,34.82,16.11,43.64,4.76,6.19,10,24.31,10,47.21s-1.77,30.52,6.33,29.57c8.1-.96,11.59,5.24,8.82,4.53-7.4-1.91-12.92-.3-11.21,1.43.95.95,15.97.24,16.45,2.63.47,2.38-20.74,2.15-28.37,11.2-4.18,4.96-8.11-13.83-6.69-16.69,1.44-2.86-1.29-22.87-2.5-29.44-4.29-23.25-4.29-39.12-7.15-45.79-2.87-6.69-22.9-91.7-24.33-102.66-1.43-10.97-2.74-11.45-2.74-11.45h.01Z"/>
        <g>
          <path class="cls-30" d="M752.26,469.24c-26.22-3.8-51.51-2.62-57.23-4.77-5.64-2.12-48.41-10.41-48.87-11.1-1.17-1.81-5.14-6.68-7.29-8.84-1.52-1.53-4.23-3.58-6.15-6.84-.67-1.18-2.51-1.87-2.54-.23,0,1.67,1.72,3.46,2.22,5.59.62,2.62-5.98-1.08-7.67-2.14-1.43-.91-10.86-5.07-11.36-3.92-.88,2.1,10.21,5.8,9.64,6.6-.47.61-11.04-6.41-11.31-5.01-.58,3,8.63,6.75,9.03,8.57,0,0-1.29-1.21-3.54-2.66-2.51-1.61-4.28-2.94-4.93-2.78-3.58,1,10.68,9.71,8.76,9.05-.73-.25-7.39-6.45-8.13-4.66-.62,1.52,8.95,9.78,8.95,9.78,0,0,8.67,4.88,14.89,7.17,6.8,2.5,44.71,22.53,56.16,24.56,14.6,2.59,41.61,13.84,64.5,10.98,6.12-.77-5.13-29.33-5.13-29.33v-.02Z"/>
          <g>
            <path class="cls-37" d="M754.76,466.97c-10.84-5.84-19.42.35-36.36-1.78-.97,15.8,2.47,36.13,4.77,38.15,1.91,1.67,11.92-1.92,30.52,8.8,4.84,2.8,1.08-45.17,1.08-45.17h-.01Z"/>
            <g>
              <path class="cls-37" d="M836.2,467.19l-23.02-6.56s-15.05,22.59-26.58,22.19c-13.24-.47-16.63-20.14-16.63-20.14l-23.66,2.98s-5.18,7.03-2.67,37.8c.32,3.89,6.86,33.47,7.18,37.49,3.17,39.28,7.65,78.12,7.65,86.85,0,15.02,97.65,6.04,94.91-6.2-14.79-65.81-17.17-154.41-17.17-154.41h-.01Z"/>
              <path class="cls-24" d="M814.85,461.35c-.94,2.63-13.94,22.91-28.97,22.54-10.49-1.07-17.35-17.35-16.39-21.88l1.91-.24s4.65,18.12,14.73,19.01c6.89.62,24.79-19.08,24.79-21.34,2.61.96,3.93,1.9,3.93,1.9h0Z"/>
              <path class="cls-24" d="M830.47,497.12c-9.3,22.19-4.06,49.13.24,61.29,4.29,12.16,8.7,43.52,4.4,45.65-4.29,2.15-12.39,6.2-4.52,4.77s18.42-2.32,11.98,2.69c-6.44,5-10.55,8.04-8.4,8.04s10.35-8.11,7.51-3.93c-7.16,10.49-20.01,13.59-15.02,13.13,15.26-1.44,26.22-8.83,26.22-8.83,0,0-6.19-29.33-9.76-60.09-3.58-30.76-3.34-42.93-6.92-48.65-3.58-5.72-5.72-14.08-5.72-14.08h0Z"/>
            </g>
          </g>
        </g>
        <g>
          <path class="cls-30" d="M850.5,488.3s-16.22,8.34-16.22,19.08,14.79,33.4,14.79,33.4c0,0-31.16,12.19-31.65,12.12-2.5-.41-7.08-.43-9.48-1.29-2.41-.84-8.82,1.79-13.78,1.32-1.61-.15-3.63.73-2.2,2.04,1.45,1.33,6.92-.18,9.18,1.05,2.81,1.51-5.99,3.78-8.27,4.43-1.93.55-13.04,5.57-12.4,6.91,1.15,2.43,13.16-4.4,13.4-3.28.18.9-13.97,5.83-12.93,7.18,2.17,2.88,12.33-3.44,14.27-2.35,0,0-2.72,1.2-5.64,2.42-2.68,1.15-5.61,1.66-5.83,2.41-1.57,5.16,14.7-4.64,14.87-2.25.16,1.9-9.53,4.65-8.09,6.43.71.88,11.75-3.97,11.75-3.97,0,0,10.79-.18,18.84-6.07.74-.55,48.29-10.55,50.13-18.29,1.17-4.91,1.43-24.8-20.75-61.29h.01Z"/>
          <g>
            <path class="cls-37" d="M834.29,467.45c4.34-.31,13.43,4.88,16.7,12.42,3.28,7.56,17.64,39.18,17.64,39.18,0,0-16.56,13.15-27.67,13.83-4.28.27-13.61-33.78-15.61-45.41-2.51-14.6,8.94-20.03,8.94-20.03h0Z"/>
            <path class="cls-24" d="M836.2,467.19c4.76.36,11.92,3.93,15.14,11.45,3.22,7.51,17.29,40.41,17.29,40.41,0,0-7.63,6.45-13.72,8.23-6.44-18.96-16.45-47.58-25.4-48.65-3.81-.46,6.69-11.45,6.69-11.45h0Z"/>
          </g>
        </g>
      </g>
    </g>
  </g>
</svg>