<svg id="icons" viewBox="0 0 60 60" xmlns="http://www.w3.org/2000/svg"><path d="m22.293 20.293-2.293 2.293-.293-.293a1 1 0 0 0 -1.414 1.414l1 1a1 1 0 0 0 1.414 0l3-3a1 1 0 0 0 -1.414-1.414z"/><path d="m37 22h-10a1 1 0 0 0 0 2h10a1 1 0 0 0 0-2z"/><path d="m22.293 26.293-2.293 2.293-.293-.293a1 1 0 0 0 -1.414 1.414l1 1a1 1 0 0 0 1.414 0l3-3a1 1 0 0 0 -1.414-1.414z"/><path d="m37 28h-10a1 1 0 0 0 0 2h10a1 1 0 0 0 0-2z"/><path d="m22.293 32.293-2.293 2.293-.293-.293a1 1 0 0 0 -1.414 1.414l1 1a1 1 0 0 0 1.414 0l3-3a1 1 0 0 0 -1.414-1.414z"/><path d="m37 34h-10a1 1 0 0 0 0 2h10a1 1 0 0 0 0-2z"/><path d="m22.293 38.293-2.293 2.293-.293-.293a1 1 0 0 0 -1.414 1.414l1 1a1 1 0 0 0 1.414 0l3-3a1 1 0 0 0 -1.414-1.414z"/><path d="m37 40h-10a1 1 0 0 0 0 2h10a1 1 0 0 0 0-2z"/><path d="m58.293.293-1.427 1.427-1.1-1.1a2.107 2.107 0 0 0 -3.241.321l-3.171 4.752a2.112 2.112 0 0 0 .262 2.657l.31.31-2.858 2.862a28.037 28.037 0 1 0 1.415 1.415l2.858-2.862.309.309a2.11 2.11 0 0 0 2.656.261l4.756-3.17a2.106 2.106 0 0 0 .32-3.24l-1.1-1.1 1.427-1.427a1 1 0 0 0 -1.416-1.415zm-4.293 31.707a26.039 26.039 0 1 1 -8.344-19.064l-1.283 1.285-1.742-1.742a2.122 2.122 0 0 0 -2.171-.527 2.031 2.031 0 0 0 -.615.341 23.019 23.019 0 1 0 7.862 7.862 2.053 2.053 0 0 0 .341-.615 2.12 2.12 0 0 0 -.527-2.171l-1.733-1.733 1.282-1.284a25.9 25.9 0 0 1 6.93 17.648zm-15.207-10.793a2.157 2.157 0 0 0 1.519.632h.018a16.056 16.056 0 1 1 -2.154-2.156 2.141 2.141 0 0 0 .617 1.524zm-.306-3.825a18.024 18.024 0 1 0 4.131 4.131l3.274-.5a21.016 21.016 0 1 1 -6.909-6.909zm7.6 1.583-5.764.873a.151.151 0 0 1 -.118-.045.139.139 0 0 1 -.045-.118l.922-5.822a.123.123 0 0 1 .036-.006.14.14 0 0 1 .1.047l2.429 2.428c.007.008.009.019.017.027s.018.01.026.017l2.418 2.418c.015.016.063.063-.019.181zm11.866-13.152-4.753 3.169a.107.107 0 0 1 -.134-.013l-2.035-2.032a.1.1 0 0 1 -.013-.134l3.17-4.756.162-.016 3.619 3.619z"/></svg>