<svg width="539" height="353" viewBox="0 0 539 353" fill="none" xmlns="http://www.w3.org/2000/svg">
<path d="M514.777 43.5815H439.453V166.065H514.777V43.5815Z" fill="#E0E0E0"/>
<path d="M512.277 43.5815H436.953V166.065H512.277V43.5815Z" fill="#EBEBEB"/>
<path d="M509.062 46.0669H440.156V163.581H509.062V46.0669Z" fill="#FAFAFA"/>
<path d="M495.646 61.3374H453.273V148.317H495.646V61.3374Z" fill="#EBEBEB"/>
<path d="M453.274 117.535C453.174 109.409 460.612 101.481 468.805 100.344C472.707 99.8002 476.861 100.563 480.512 99.0942C487.023 96.4679 489.1 87.9677 495.654 85.4473L495.956 148.31H453.282V117.535H453.274Z" fill="#E0E0E0"/>
<path d="M149.017 24.251H97.3594V77.1445H149.017V24.251Z" fill="#E0E0E0"/>
<path d="M145.517 24.251H93.8594V77.1445H145.517V24.251Z" fill="#FAFAFA"/>
<path d="M145.53 77.1588H93.8438V24.23H145.53V77.1588ZM93.8797 77.1306H145.502V24.2653H93.8797V77.1306Z" fill="#E0E0E0"/>
<path d="M138.578 31.3604H100.812V70.035H138.578V31.3604Z" fill="white"/>
<path d="M100.809 70.2896C100.837 70.3249 100.478 70.7273 99.8743 71.3556C99.2706 71.984 98.4226 72.8241 97.4739 73.749C96.5253 74.6668 95.6485 75.4857 95.0089 76.0717C94.3621 76.6506 93.9525 76.9966 93.9165 76.9683C93.8806 76.933 94.2399 76.5306 94.8436 75.9093C95.4473 75.281 96.2953 74.4338 97.2512 73.516C98.207 72.5911 99.0766 71.7722 99.7234 71.1933C100.363 70.6002 100.78 70.2543 100.809 70.2896Z" fill="#E0E0E0"/>
<path d="M138.573 70.1979C138.609 70.1696 139.018 70.5226 139.658 71.1157C140.298 71.7087 141.153 72.5418 142.094 73.4737C143.029 74.4056 143.862 75.2669 144.459 75.8953C145.048 76.5307 145.4 76.9331 145.364 76.9684C145.328 77.0037 144.919 76.6507 144.286 76.0577C143.647 75.4646 142.784 74.6315 141.85 73.6926C140.908 72.7536 140.075 71.8993 139.486 71.2639C138.889 70.6285 138.537 70.2261 138.573 70.1979Z" fill="#E0E0E0"/>
<path d="M138.47 31.4593C138.442 31.424 138.801 31.0216 139.405 30.3933C140.008 29.7649 140.856 28.9248 141.805 27.9999C142.754 27.0821 143.63 26.2632 144.27 25.6772C144.917 25.0983 145.326 24.7523 145.362 24.7876C145.398 24.8229 145.039 25.2253 144.435 25.8466C143.832 26.475 142.984 27.3222 142.028 28.24C141.072 29.1648 140.202 29.9838 139.556 30.5627C138.909 31.1557 138.499 31.4946 138.47 31.4593Z" fill="#E0E0E0"/>
<path d="M100.7 31.5581C100.664 31.5864 100.255 31.2334 99.615 30.6403C98.9754 30.0473 98.1201 29.2142 97.1787 28.2823C96.2444 27.3504 95.4108 26.489 94.8143 25.8607C94.225 25.2253 93.8728 24.8229 93.9088 24.7876C93.9447 24.7523 94.3543 25.1053 94.9868 25.6983C95.6264 26.2914 96.4888 27.1244 97.423 28.0634C98.3645 29.0024 99.1982 29.8567 99.7875 30.4921C100.391 31.1204 100.736 31.5299 100.7 31.5581Z" fill="#E0E0E0"/>
<path d="M138.472 70.035C138.472 70.035 138.465 69.9715 138.465 69.8444C138.465 69.7103 138.457 69.5338 138.457 69.3079C138.45 68.8207 138.45 68.1288 138.443 67.2181C138.436 65.3825 138.422 62.7209 138.407 59.3391C138.386 52.5686 138.364 42.9176 138.335 31.3604L138.479 31.5016C127.483 31.5086 114.576 31.5157 100.821 31.5227H100.814L100.979 31.3604C100.972 45.558 100.965 58.8379 100.957 70.035L100.814 69.8938C112.097 69.9221 121.497 69.9503 128.087 69.9644C131.379 69.9786 133.966 69.9927 135.748 69.9997C136.625 70.0068 137.3 70.0139 137.775 70.0139C137.998 70.0139 138.17 70.0209 138.299 70.0209C138.407 70.028 138.465 70.028 138.472 70.035C138.472 70.035 138.422 70.0421 138.307 70.0421C138.184 70.0421 138.012 70.0492 137.796 70.0492C137.329 70.0562 136.661 70.0562 135.798 70.0633C134.023 70.0703 131.45 70.0845 128.173 70.0986C121.562 70.1127 112.133 70.1409 100.814 70.1692H100.67V70.028C100.663 58.8308 100.656 45.551 100.648 31.3533V31.1909H100.814H100.821C114.576 31.198 127.483 31.205 138.479 31.2121H138.623V31.3533C138.594 42.9458 138.565 52.6251 138.551 59.4239C138.537 62.7915 138.522 65.446 138.515 67.2746C138.508 68.1712 138.501 68.856 138.501 69.3361C138.501 69.562 138.493 69.7315 138.493 69.8585C138.472 69.9786 138.472 70.035 138.472 70.035Z" fill="#E0E0E0"/>
<path d="M125.996 44.5063H113.391V56.8896H125.996V44.5063Z" fill="#EBEBEB"/>
<path d="M80.7295 62.2485H30.5234V133.738H80.7295V62.2485Z" fill="#E0E0E0"/>
<path d="M78.2139 62.2485H28.0078V133.738H78.2139V62.2485Z" fill="#F5F5F5"/>
<path d="M71.98 69.9858H34.25V125.993H71.98V69.9858Z" fill="white"/>
<path d="M71.9837 125.993C71.9837 125.993 71.9766 125.901 71.9766 125.718C71.9766 125.534 71.9694 125.266 71.9694 124.927C71.9694 124.221 71.9622 123.19 71.955 121.856C71.9478 119.173 71.9334 115.262 71.9191 110.32C71.9047 100.443 71.8831 86.4569 71.8544 69.993L71.9766 70.113C60.4491 70.113 47.6712 70.1201 34.2465 70.1272H34.2394L34.3759 69.993C34.3687 91.1236 34.3543 110.602 34.3472 126L34.2394 125.894C45.7308 125.915 55.1526 125.936 61.7068 125.951C64.9839 125.965 67.5424 125.972 69.2959 125.979C70.1655 125.986 70.8339 125.986 71.2866 125.993C71.7466 125.986 71.9837 125.993 71.9837 125.993C71.9837 125.993 71.7609 126 71.3154 126.007C70.8626 126.007 70.2014 126.014 69.3462 126.021C67.5999 126.028 65.0486 126.035 61.7859 126.049C55.2172 126.064 45.774 126.085 34.2537 126.106H34.1459V126C34.1387 110.602 34.1316 91.1236 34.1172 69.993V69.8589H34.2537H34.2609C47.6856 69.8659 60.4635 69.8659 71.9909 69.873H72.1131V69.993C72.0843 86.4922 72.07 100.506 72.0484 110.404C72.034 115.332 72.0197 119.237 72.0125 121.912C72.0053 123.24 71.9981 124.263 71.9981 124.962C71.9981 125.301 71.9909 125.562 71.9909 125.746C71.9837 125.908 71.9837 125.993 71.9837 125.993Z" fill="#E0E0E0"/>
<path d="M78.3589 62.2483C78.3876 62.2695 78.0499 62.7566 77.4605 63.5262C76.8784 64.2957 76.052 65.3335 75.1033 66.4631C74.1547 67.5927 73.2779 68.5882 72.6239 69.2942C71.9699 70.0002 71.5459 70.4238 71.5172 70.4026C71.4884 70.3744 71.8621 69.9084 72.473 69.1742C73.1485 68.3693 73.975 67.388 74.8877 66.2937C75.8004 65.1994 76.6269 64.211 77.3024 63.4132C77.9349 62.6719 78.3301 62.2201 78.3589 62.2483Z" fill="#E0E0E0"/>
<path d="M72.1797 125.816C74.0554 128.746 76.2689 131.464 78.7627 133.9L72.1797 125.816Z" fill="white"/>
<path d="M78.7569 133.9C78.7353 133.921 78.2826 133.54 77.607 132.876C76.9315 132.206 76.0403 131.245 75.1276 130.123C74.2149 129 73.4531 127.934 72.9429 127.137C72.4254 126.346 72.1451 125.83 72.1739 125.809C72.2098 125.788 72.5476 126.268 73.101 127.031C73.6543 127.793 74.4305 128.838 75.3432 129.953C76.2487 131.069 77.1183 132.043 77.7507 132.742C78.3904 133.441 78.7856 133.872 78.7569 133.9Z" fill="#E0E0E0"/>
<path d="M28 133.682C30.1919 131.027 32.3839 128.365 34.5758 125.711L28 133.682Z" fill="white"/>
<path d="M34.5775 125.711C34.635 125.76 33.212 127.582 31.3938 129.777C29.5756 131.98 28.0592 133.724 28.0017 133.681C27.9442 133.632 29.3671 131.811 31.1854 129.608C33.0036 127.412 34.52 125.668 34.5775 125.711Z" fill="#E0E0E0"/>
<path d="M28.0096 62.2481C28.0671 62.1987 29.4972 63.879 31.2005 65.997C32.9037 68.115 34.2404 69.8659 34.1758 69.9153C34.1183 69.9647 32.6881 68.2844 30.9849 66.1664C29.2888 64.0484 27.9521 62.2905 28.0096 62.2481Z" fill="#E0E0E0"/>
<path d="M60.2279 81.3599H47.5938V116.603H60.2279V81.3599Z" fill="#E0E0E0"/>
<path d="M523.091 323.765C523.091 323.863 409.549 323.948 269.509 323.948C129.427 323.948 15.9062 323.863 15.9062 323.765C15.9062 323.666 129.427 323.581 269.509 323.581C409.549 323.581 523.091 323.666 523.091 323.765Z" fill="#263238"/>
<path d="M459.31 320.813H145.885C140.1 320.813 135.414 316.21 135.414 310.527V109.077C135.414 106.055 137.908 103.605 140.984 103.605H464.937C467.611 103.605 469.781 105.738 469.781 108.364V310.534C469.781 316.21 465.095 320.813 459.31 320.813Z" fill="#263238"/>
<path d="M473.836 323.757H131.298C125.85 323.757 121.438 319.423 121.438 314.071V304.752H483.696V314.071C483.696 319.423 479.276 323.757 473.836 323.757Z" fill="#263238"/>
<path d="M459.871 112.233H144.391V295.666H459.871V112.233Z" fill="#F5F5F5"/>
<path d="M269.641 304.752L274.132 311.777H337.389L341.565 304.752H269.641Z" fill="#455A64"/>
<path d="M469.836 304.688H135.469V305.733H469.836V304.688Z" fill="#455A64"/>
<path d="M426.388 86.541H441.293V245.688C441.293 256.207 434.257 264.735 425.576 264.735H408.773V86.541H426.388Z" fill="#E0E0E0"/>
<path d="M426.388 86.5411C426.388 86.5411 426 86.5552 425.245 86.5623C424.483 86.5693 423.355 86.5693 421.875 86.5834C418.899 86.5905 414.494 86.6046 408.773 86.6187L408.845 86.5481C408.867 116.603 408.91 184.562 408.96 264.743L408.773 264.559C412.309 264.559 416.111 264.559 419.934 264.559C421.321 264.559 422.708 264.559 424.095 264.559C424.785 264.552 425.482 264.587 426.158 264.524L427.178 264.46L428.177 264.277C430.858 263.775 433.251 262.314 435.192 260.492C437.146 258.657 438.555 256.334 439.54 253.905C440.517 251.463 441.02 248.858 441.077 246.259C441.085 235.797 441.099 225.588 441.106 215.711C441.113 195.95 441.121 177.488 441.128 160.826C441.164 127.517 441.2 101.409 441.214 86.5411L441.286 86.6117C436.406 86.5976 432.676 86.5834 430.168 86.5764C428.918 86.5693 427.976 86.5623 427.337 86.5623C426.711 86.5481 426.388 86.5411 426.388 86.5411C426.388 86.5411 426.711 86.527 427.344 86.527C427.983 86.5199 428.932 86.5199 430.175 86.5128C432.683 86.5058 436.413 86.4917 441.293 86.4775H441.365V86.5481C441.379 101.416 441.415 127.517 441.451 160.833C441.458 177.495 441.466 195.957 441.473 215.718C441.466 225.602 441.458 235.804 441.458 246.274C441.394 248.907 440.883 251.554 439.892 254.04C438.893 256.511 437.455 258.876 435.458 260.754C433.481 262.617 431.023 264.121 428.264 264.637L427.236 264.827L426.187 264.898C425.482 264.961 424.8 264.926 424.103 264.933C422.716 264.933 421.329 264.933 419.942 264.933C416.118 264.933 412.316 264.933 408.781 264.933H408.594V264.75C408.644 184.569 408.687 116.61 408.709 86.5552V86.4846H408.781C414.501 86.4987 418.899 86.5128 421.882 86.5199C423.362 86.527 424.491 86.534 425.252 86.5411C426 86.527 426.388 86.5411 426.388 86.5411Z" fill="#263238"/>
<path d="M426.391 264.735H170.725C162.942 264.735 156.625 258.537 156.625 250.884V40.7217H426.391V264.735Z" fill="white"/>
<path d="M426.391 264.736C426.391 263.437 426.326 175.646 426.233 40.7289L426.391 40.8842C349.839 40.8913 258.115 40.9054 159.679 40.9125C158.637 40.9125 157.588 40.9125 156.625 40.9125L156.812 40.7289C156.805 107.517 156.805 171.099 156.797 228.913C156.797 236.143 156.797 243.273 156.79 250.319C156.776 252.07 156.991 253.807 157.595 255.438C158.177 257.068 159.076 258.579 160.225 259.871C162.511 262.469 165.795 264.157 169.23 264.503C170.941 264.644 172.694 264.566 174.412 264.587C176.137 264.587 177.862 264.587 179.579 264.587C183.007 264.587 186.414 264.587 189.791 264.587C196.547 264.587 203.195 264.594 209.734 264.594C235.88 264.602 260.235 264.616 282.456 264.623C371.398 264.686 425.363 264.736 426.391 264.736C425.363 264.736 371.427 264.785 282.55 264.856C260.307 264.863 235.937 264.877 209.77 264.884C203.231 264.884 196.576 264.891 189.813 264.891C186.435 264.891 183.022 264.891 179.594 264.891C177.876 264.891 176.151 264.891 174.426 264.891C172.694 264.87 170.97 264.955 169.202 264.806C165.687 264.453 162.324 262.724 159.981 260.069C158.81 258.749 157.883 257.196 157.286 255.529C156.675 253.863 156.452 252.07 156.467 250.305C156.467 243.266 156.467 236.129 156.46 228.899C156.453 171.092 156.452 107.502 156.445 40.7148V40.5312H156.632C157.595 40.5312 158.637 40.5312 159.686 40.5312C258.122 40.5454 349.846 40.5524 426.398 40.5595H426.556V40.7148C426.456 175.646 426.391 263.437 426.391 264.736Z" fill="#263238"/>
<path d="M426.392 60.9912C426.392 61.09 365.995 61.1747 291.519 61.1747C217.015 61.1747 156.633 61.09 156.633 60.9912C156.633 60.8923 217.015 60.8076 291.519 60.8076C366.002 60.8076 426.392 60.8853 426.392 60.9912Z" fill="#263238"/>
<path d="M341.357 50.9873C341.357 51.0861 319.941 51.1708 293.53 51.1708C267.104 51.1708 245.695 51.0861 245.695 50.9873C245.695 50.8884 267.104 50.8037 293.53 50.8037C319.934 50.8037 341.357 50.8814 341.357 50.9873Z" fill="#FF725E"/>
<path d="M165.682 53.2254C167.103 53.2254 168.255 52.0938 168.255 50.6979C168.255 49.302 167.103 48.1704 165.682 48.1704C164.261 48.1704 163.109 49.302 163.109 50.6979C163.109 52.0938 164.261 53.2254 165.682 53.2254Z" fill="#E0E0E0"/>
<path d="M174.417 53.2254C175.838 53.2254 176.989 52.0938 176.989 50.6979C176.989 49.302 175.838 48.1704 174.417 48.1704C172.996 48.1704 171.844 49.302 171.844 50.6979C171.844 52.0938 172.996 53.2254 174.417 53.2254Z" fill="#E0E0E0"/>
<path d="M183.128 53.2254C184.548 53.2254 185.7 52.0938 185.7 50.6979C185.7 49.302 184.548 48.1704 183.128 48.1704C181.707 48.1704 180.555 49.302 180.555 50.6979C180.555 52.0938 181.707 53.2254 183.128 53.2254Z" fill="#E0E0E0"/>
<path d="M262.921 90.3112H257.588L256.568 92.7257H253.844L258.961 81.4438H261.591L266.722 92.7257H263.934L262.921 90.3112ZM262.087 88.3273L260.269 84.0066L258.45 88.3273H262.087Z" fill="#455A64"/>
<path d="M275.238 92.7257L273.024 89.584H272.895H270.581V92.7257H267.922V81.4438H272.895C275.964 81.4438 277.883 83.0041 277.883 85.5387C277.883 87.2331 277.013 88.4685 275.518 89.0969L278.091 92.7257H275.238ZM272.744 83.576H270.581V87.5084H272.744C274.368 87.5084 275.188 86.7671 275.188 85.5387C275.188 84.2961 274.368 83.576 272.744 83.576Z" fill="#455A64"/>
<path d="M282.196 83.5762H278.523V81.4512H288.527V83.5762H284.855V92.7331H282.196V83.5762Z" fill="#455A64"/>
<path d="M289.953 81.4438H292.612V92.7257H289.953V81.4438Z" fill="#455A64"/>
<path d="M294.609 87.085C294.609 83.6821 297.268 81.2534 300.84 81.2534C302.824 81.2534 304.484 81.9594 305.562 83.2514L303.859 84.7975C303.09 83.9292 302.119 83.4773 300.97 83.4773C298.821 83.4773 297.297 84.9599 297.297 87.085C297.297 89.21 298.821 90.6926 300.97 90.6926C302.119 90.6926 303.082 90.2408 303.859 89.3583L305.562 90.9044C304.477 92.2105 302.824 92.9165 300.819 92.9165C297.268 92.9236 294.609 90.4879 294.609 87.085Z" fill="#455A64"/>
<path d="M307.359 81.4438H310.018V90.6007H315.775V92.7257H307.359V81.4438Z" fill="#455A64"/>
<path d="M326.148 90.6362V92.7331H317.258V81.4512H325.939V83.548H319.903V85.9978H325.235V88.0311H319.903V90.6433H326.148V90.6362Z" fill="#455A64"/>
<path d="M284.795 117.612C284.795 117.711 279.448 117.796 272.851 117.796C266.253 117.796 260.906 117.711 260.906 117.612C260.906 117.513 266.253 117.429 272.851 117.429C279.448 117.429 284.795 117.513 284.795 117.612Z" fill="#263238"/>
<path d="M317.784 117.612C317.784 117.711 311.927 117.796 304.705 117.796C297.482 117.796 291.625 117.711 291.625 117.612C291.625 117.513 297.482 117.429 304.705 117.429C311.927 117.429 317.784 117.513 317.784 117.612Z" fill="#263238"/>
<path d="M316.643 129.459C316.643 129.558 304.218 129.643 288.896 129.643C273.566 129.643 261.141 129.558 261.141 129.459C261.141 129.36 273.566 129.275 288.896 129.275C304.218 129.275 316.643 129.353 316.643 129.459Z" fill="#263238"/>
<path d="M317.779 139.957C317.779 140.056 305.202 140.141 289.686 140.141C274.17 140.141 261.594 140.056 261.594 139.957C261.594 139.858 274.17 139.773 289.686 139.773C305.202 139.773 317.779 139.858 317.779 139.957Z" fill="#263238"/>
<path d="M284.574 151.359C284.574 151.458 279.479 151.543 273.205 151.543C266.923 151.543 261.828 151.458 261.828 151.359C261.828 151.26 266.916 151.176 273.205 151.176C279.479 151.176 284.574 151.253 284.574 151.359Z" fill="#263238"/>
<path d="M314.368 151.133C314.368 151.232 308.769 151.317 301.856 151.317C294.942 151.317 289.344 151.232 289.344 151.133C289.344 151.034 294.942 150.95 301.856 150.95C308.769 150.95 314.368 151.034 314.368 151.133Z" fill="#263238"/>
<path d="M314.365 162.754C314.365 162.853 302.551 162.937 287.983 162.937C273.409 162.937 261.594 162.853 261.594 162.754C261.594 162.655 273.409 162.57 287.983 162.57C302.551 162.57 314.365 162.648 314.365 162.754Z" fill="#263238"/>
<path d="M214.282 184.428C214.282 184.527 209.345 184.612 203.25 184.612C197.156 184.612 192.219 184.527 192.219 184.428C192.219 184.329 197.156 184.245 203.25 184.245C209.345 184.245 214.282 184.329 214.282 184.428Z" fill="#263238"/>
<path d="M247.492 185.099C247.492 185.198 241.786 185.283 234.758 185.283C227.722 185.283 222.016 185.198 222.016 185.099C222.016 185 227.715 184.916 234.758 184.916C241.786 184.916 247.492 185 247.492 185.099Z" fill="#263238"/>
<path d="M248.179 195.823C248.179 195.922 235.803 196.007 220.546 196.007C205.282 196.007 192.906 195.922 192.906 195.823C192.906 195.724 205.274 195.64 220.546 195.64C235.803 195.64 248.179 195.724 248.179 195.823Z" fill="#263238"/>
<path d="M251.592 206.773C251.592 206.872 238.253 206.956 221.796 206.956C205.338 206.956 192 206.872 192 206.773C192 206.674 205.338 206.589 221.796 206.589C238.246 206.589 251.592 206.674 251.592 206.773Z" fill="#263238"/>
<path d="M299.134 172.808C299.134 172.906 290.682 172.991 280.254 172.991C269.827 172.991 261.375 172.906 261.375 172.808C261.375 172.709 269.827 172.624 280.254 172.624C290.675 172.624 299.134 172.709 299.134 172.808Z" fill="#263238"/>
<path d="M317.774 172.808C317.774 172.906 315.021 172.991 311.629 172.991C308.237 172.991 305.484 172.906 305.484 172.808C305.484 172.709 308.237 172.624 311.629 172.624C315.021 172.624 317.774 172.709 317.774 172.808Z" fill="#263238"/>
<path d="M315.046 184.873C315.046 184.972 303.433 185.057 289.117 185.057C274.794 185.057 263.188 184.972 263.188 184.873C263.188 184.774 274.794 184.689 289.117 184.689C303.44 184.689 315.046 184.774 315.046 184.873Z" fill="#263238"/>
<path d="M286.852 196.049C286.852 196.148 281.146 196.232 274.117 196.232C267.081 196.232 261.375 196.148 261.375 196.049C261.375 195.95 267.074 195.865 274.117 195.865C281.146 195.865 286.852 195.943 286.852 196.049Z" fill="#263238"/>
<path d="M318.233 207.444C318.233 207.543 305.757 207.627 290.371 207.627C274.977 207.627 262.508 207.543 262.508 207.444C262.508 207.345 274.984 207.26 290.371 207.26C305.757 207.26 318.233 207.345 318.233 207.444Z" fill="#263238"/>
<path d="M320.506 196.268C320.506 196.367 314.397 196.451 306.858 196.451C299.32 196.451 293.211 196.367 293.211 196.268C293.211 196.169 299.32 196.084 306.858 196.084C314.397 196.084 320.506 196.169 320.506 196.268Z" fill="#263238"/>
<path d="M387.379 117.838C387.379 117.937 374.392 118.022 358.38 118.022C342.361 118.022 329.375 117.937 329.375 117.838C329.375 117.74 342.354 117.655 358.38 117.655C374.392 117.655 387.379 117.74 387.379 117.838Z" fill="#263238"/>
<path d="M341.443 128.562C341.443 128.661 338.849 128.746 335.643 128.746C332.438 128.746 329.844 128.661 329.844 128.562C329.844 128.464 332.438 128.379 335.643 128.379C338.841 128.379 341.443 128.464 341.443 128.562Z" fill="#263238"/>
<path d="M387.376 128.789C387.376 128.887 378.263 128.972 367.016 128.972C355.769 128.972 346.656 128.887 346.656 128.789C346.656 128.69 355.769 128.605 367.016 128.605C378.263 128.605 387.376 128.69 387.376 128.789Z" fill="#263238"/>
<path d="M384.424 139.512C384.424 139.611 372.559 139.696 357.927 139.696C343.288 139.696 331.43 139.611 331.43 139.512C331.43 139.414 343.295 139.329 357.927 139.329C372.559 139.329 384.424 139.414 384.424 139.512Z" fill="#263238"/>
<path d="M386.246 150.237C386.246 150.335 374.022 150.42 358.951 150.42C343.874 150.42 331.656 150.335 331.656 150.237C331.656 150.138 343.874 150.053 358.951 150.053C374.022 150.053 386.246 150.138 386.246 150.237Z" fill="#263238"/>
<path d="M356.899 161.639C356.899 161.737 351.192 161.822 344.164 161.822C337.128 161.822 331.422 161.737 331.422 161.639C331.422 161.54 337.121 161.455 344.164 161.455C351.192 161.455 356.899 161.533 356.899 161.639Z" fill="#263238"/>
<path d="M386.246 161.857C386.246 161.956 381.15 162.041 374.877 162.041C368.595 162.041 363.5 161.956 363.5 161.857C363.5 161.759 368.588 161.674 374.877 161.674C381.15 161.674 386.246 161.759 386.246 161.857Z" fill="#263238"/>
<path d="M248.17 88.0947C248.17 88.1935 235.852 88.2783 220.667 88.2783C205.474 88.2783 193.156 88.1935 193.156 88.0947C193.156 87.9959 205.467 87.9111 220.667 87.9111C235.852 87.9111 248.17 87.9959 248.17 88.0947Z" fill="#263238"/>
<path d="M394.455 88.0947C394.455 88.1935 381.526 88.2783 365.579 88.2783C349.624 88.2783 336.695 88.1935 336.695 88.0947C336.695 87.9959 349.624 87.9111 365.579 87.9111C381.519 87.9111 394.455 87.9959 394.455 88.0947Z" fill="#263238"/>
<path d="M392.927 174.72C392.898 174.777 392.036 174.283 390.34 173.753C388.658 173.238 386.056 172.744 382.916 173.21C381.356 173.457 379.667 173.916 378.015 174.756C376.354 175.575 374.773 176.789 373.199 178.159C371.618 179.528 370.052 181.082 368.241 182.522C366.43 183.934 364.36 185.275 361.916 185.882C360.702 186.186 359.437 186.271 358.222 186.101C357.008 185.939 355.858 185.551 354.802 185.063C352.682 184.082 350.863 182.79 349.067 181.717C347.284 180.623 345.488 179.747 343.677 179.345C341.873 178.914 340.126 178.829 338.545 178.956C335.376 179.232 332.976 180.333 331.466 181.223C329.95 182.133 329.231 182.818 329.188 182.776C329.174 182.762 329.354 182.592 329.706 182.282C330.051 181.964 330.597 181.533 331.351 181.053C332.846 180.1 335.268 178.914 338.509 178.589C340.119 178.427 341.916 178.498 343.777 178.921C345.653 179.317 347.521 180.213 349.325 181.307C351.144 182.381 352.962 183.658 355.017 184.597C357.058 185.565 359.451 185.988 361.773 185.374C364.094 184.795 366.113 183.503 367.896 182.119C369.678 180.714 371.252 179.168 372.854 177.799C374.45 176.422 376.081 175.194 377.799 174.367C379.509 173.52 381.249 173.068 382.844 172.843C386.071 172.412 388.708 172.984 390.39 173.563C391.245 173.852 391.878 174.149 392.294 174.367C392.726 174.579 392.941 174.706 392.927 174.72Z" fill="#45B34A"/>
<path d="M348.333 186.85H341.484V205.043H348.333V186.85Z" fill="#45B34A"/>
<path d="M377.396 186.85H370.547V205.043H377.396V186.85Z" fill="#45B34A"/>
<path d="M387.068 176.168H380.219V205.043H387.068V176.168Z" fill="#45B34A"/>
<path d="M339.474 199.311H332.625V205.432H339.474V199.311Z" fill="#45B34A"/>
<path d="M358.021 195.067H351.172V205.043H358.021V195.067Z" fill="#45B34A"/>
<path d="M367.708 192.773H360.859V205.036H367.708V192.773Z" fill="#45B34A"/>
<path d="M250.906 117.612H193.125V172.532H250.906V117.612Z" fill="#455A64"/>
<g opacity="0.3">
<path d="M197.602 167.837L213.585 139.576L226.664 157.636L234.606 148.041L246.428 167.837H197.602Z" fill="black"/>
</g>
<g opacity="0.3">
<path d="M231.126 131.083C234.518 135.453 229.487 140.395 225.031 137.07C221.646 132.693 226.677 127.751 231.126 131.083Z" fill="black"/>
</g>
<g opacity="0.3">
<path d="M246.425 167.986C246.418 167.979 246.418 167.908 246.411 167.76C246.411 167.597 246.404 167.386 246.396 167.117C246.389 166.531 246.382 165.705 246.368 164.646C246.353 162.472 246.332 159.316 246.31 155.32C246.281 147.3 246.238 135.877 246.188 122.159L246.425 122.392C232.282 122.406 215.522 122.413 197.606 122.427C197.541 122.484 198.124 121.919 197.879 122.166V122.18V122.202V122.251V122.35V122.547V122.936V123.719V125.28C197.879 126.318 197.879 127.348 197.879 128.379C197.879 130.434 197.879 132.474 197.879 134.493C197.879 138.531 197.872 142.478 197.872 146.326C197.865 154.014 197.85 161.286 197.843 167.979L197.606 167.746C212.181 167.795 224.348 167.837 232.907 167.866C237.176 167.894 240.539 167.915 242.861 167.929C243.996 167.943 244.88 167.95 245.505 167.957C245.793 167.964 246.016 167.964 246.188 167.972C246.339 167.979 246.418 167.986 246.425 167.986C246.432 167.993 246.36 167.993 246.21 168C246.044 168 245.829 168.007 245.548 168.014C244.938 168.021 244.068 168.028 242.954 168.042C240.64 168.056 237.298 168.077 233.051 168.106C224.456 168.134 212.231 168.176 197.599 168.226H197.362V167.986C197.355 161.3 197.347 154.021 197.333 146.333C197.333 142.485 197.326 138.531 197.326 134.5C197.326 132.481 197.326 130.441 197.326 128.386C197.326 127.355 197.326 126.325 197.326 125.287V123.727V122.943V122.555V122.357V122.258V122.209V122.187V122.173C197.081 122.413 197.664 121.834 197.606 121.898C215.522 121.912 232.282 121.926 246.425 121.933H246.662V122.166C246.612 135.94 246.569 147.413 246.54 155.475C246.511 159.45 246.49 162.585 246.475 164.752C246.461 165.797 246.454 166.609 246.447 167.181C246.44 167.435 246.44 167.64 246.432 167.795C246.432 167.922 246.432 167.993 246.425 167.986Z" fill="black"/>
</g>
<path d="M251.685 218.309C251.685 218.408 238.404 218.493 222.026 218.493C205.64 218.493 192.359 218.408 192.359 218.309C192.359 218.21 205.64 218.125 222.026 218.125C238.397 218.125 251.685 218.203 251.685 218.309Z" fill="#E0E0E0"/>
<path d="M320.95 217.928C320.95 218.027 308.172 218.111 292.405 218.111C276.637 218.111 263.859 218.027 263.859 217.928C263.859 217.829 276.637 217.744 292.405 217.744C308.172 217.744 320.95 217.829 320.95 217.928Z" fill="#E0E0E0"/>
<path d="M391.599 216.862C391.599 216.961 378.9 217.045 363.233 217.045C347.566 217.045 334.867 216.961 334.867 216.862C334.867 216.763 347.566 216.678 363.233 216.678C378.9 216.678 391.599 216.763 391.599 216.862Z" fill="#E0E0E0"/>
<path d="M251.685 227.755C251.685 227.854 238.404 227.939 222.026 227.939C205.64 227.939 192.359 227.854 192.359 227.755C192.359 227.657 205.64 227.572 222.026 227.572C238.397 227.572 251.685 227.657 251.685 227.755Z" fill="#E0E0E0"/>
<path d="M320.95 227.381C320.95 227.48 308.172 227.565 292.405 227.565C276.637 227.565 263.859 227.48 263.859 227.381C263.859 227.282 276.637 227.198 292.405 227.198C308.172 227.198 320.95 227.275 320.95 227.381Z" fill="#E0E0E0"/>
<path d="M391.599 226.315C391.599 226.414 378.9 226.498 363.233 226.498C347.566 226.498 334.867 226.414 334.867 226.315C334.867 226.216 347.566 226.131 363.233 226.131C378.9 226.131 391.599 226.216 391.599 226.315Z" fill="#E0E0E0"/>
<path d="M342.547 278.969H249.336C238.635 278.969 229.953 270.447 229.953 259.928C229.953 249.416 238.627 240.887 249.336 240.887H342.547C353.248 240.887 361.929 249.409 361.929 259.928C361.929 270.44 353.255 278.969 342.547 278.969Z" fill="#45B34A"/>
<path d="M277.625 259.879C277.625 261.58 276.331 262.632 274.254 262.632H272.687V264.736H270.891V257.111H274.247C276.324 257.111 277.625 258.17 277.625 259.879ZM275.806 259.879C275.806 259.039 275.253 258.552 274.153 258.552H272.687V261.199H274.153C275.253 261.199 275.806 260.705 275.806 259.879Z" fill="white"/>
<path d="M278.805 261.383V257.111H280.601V261.319C280.601 262.766 281.248 263.366 282.333 263.366C283.433 263.366 284.065 262.766 284.065 261.319V257.111H285.84V261.383C285.84 263.628 284.532 264.87 282.326 264.87C280.113 264.87 278.805 263.628 278.805 261.383Z" fill="white"/>
<path d="M294.724 262.653C294.724 263.974 293.661 264.736 291.62 264.736H287.609V257.111H291.404C293.344 257.111 294.343 257.909 294.343 259.095C294.343 259.858 293.941 260.444 293.316 260.775C294.171 261.044 294.724 261.7 294.724 262.653ZM289.392 258.439V260.239H291.174C292.051 260.239 292.525 259.935 292.525 259.335C292.525 258.735 292.051 258.439 291.174 258.439H289.392ZM292.913 262.47C292.913 261.827 292.417 261.524 291.483 261.524H289.384V263.409H291.483C292.417 263.409 292.913 263.126 292.913 262.47Z" fill="white"/>
<path d="M296.094 257.111H297.89V263.296H301.786V264.736H296.101V257.111H296.094Z" fill="white"/>
<path d="M302.797 257.111H304.594V264.736H302.797V257.111Z" fill="white"/>
<path d="M305.828 263.988L306.439 262.66C307.093 263.126 308.07 263.458 308.997 263.458C310.061 263.458 310.492 263.112 310.492 262.639C310.492 261.213 305.979 262.194 305.979 259.363C305.979 258.071 307.043 256.991 309.249 256.991C310.226 256.991 311.225 257.217 311.944 257.669L311.391 259.01C310.672 258.608 309.925 258.41 309.242 258.41C308.178 258.41 307.769 258.806 307.769 259.279C307.769 260.684 312.282 259.716 312.282 262.512C312.282 263.783 311.204 264.877 308.99 264.877C307.754 264.87 306.511 264.51 305.828 263.988Z" fill="white"/>
<path d="M320.63 257.111V264.736H318.833V261.609H315.304V264.736H313.508V257.111H315.304V260.119H318.833V257.111H320.63Z" fill="white"/>
<path d="M337.139 278.701C338.203 280.6 338.397 282.499 338.397 282.499H340.718L350.456 282.33L350.384 282.499C350.384 282.499 351.973 275.164 352.26 272.975C352.497 271.175 353.633 266.868 352.253 264.969C351.757 264.284 350.837 263.988 350.025 264.235C349.558 264.376 349.083 264.708 348.911 265.435C348.911 265.435 348.796 262.886 346.935 262.851C345.073 262.816 345.009 264.242 345.009 264.242C345.009 264.242 344.498 261.333 342.429 261.361C342.429 261.361 341.157 261.418 340.718 262.773V261.884V257.281C340.718 256.158 339.841 255.184 338.706 255.142C337.527 255.099 336.55 256.017 336.536 257.168L336.37 269.96L333.208 265.979C332.382 264.948 330.413 265.456 330.161 266.346C330.161 266.346 329.593 267.511 330.765 269.233C331.641 270.525 337.139 278.701 337.139 278.701Z" fill="#EBEBEB"/>
<path d="M337.14 278.701C337.14 278.701 337.082 278.63 336.989 278.496C336.888 278.348 336.745 278.15 336.565 277.882C336.191 277.331 335.645 276.533 334.941 275.51C334.236 274.472 333.374 273.208 332.375 271.74C331.879 271.005 331.34 270.215 330.772 269.382C330.485 268.965 330.212 268.499 330.068 267.977C329.917 267.454 329.867 266.875 330.082 266.317L330.075 266.332C330.183 265.993 330.471 265.746 330.772 265.59C331.081 265.435 331.434 265.35 331.793 265.336C332.152 265.322 332.526 265.393 332.849 265.576C332.928 265.619 333 265.682 333.079 265.739C333.144 265.802 333.209 265.873 333.273 265.943C333.381 266.084 333.496 266.226 333.611 266.367C334.509 267.496 335.458 268.683 336.435 269.911L336.263 269.968C336.306 266.395 336.349 262.484 336.4 258.326C336.4 258.064 336.407 257.803 336.407 257.542C336.414 257.288 336.4 257.012 336.464 256.737C336.586 256.193 336.931 255.699 337.413 255.396C337.894 255.085 338.505 254.972 339.073 255.099C339.648 255.219 340.151 255.586 340.46 256.073C340.618 256.321 340.726 256.589 340.776 256.878C340.834 257.168 340.812 257.45 340.819 257.725C340.819 258.283 340.819 258.841 340.819 259.399C340.819 260.521 340.819 261.651 340.819 262.795L340.597 262.759C340.747 262.293 341.064 261.806 341.552 261.545C341.746 261.432 341.962 261.354 342.185 261.305C342.293 261.284 342.422 261.263 342.53 261.284C342.645 261.298 342.76 261.291 342.868 261.319C343.313 261.404 343.716 261.651 344.017 261.969C344.621 262.611 344.93 263.43 345.11 264.249L344.887 264.263C344.937 263.684 345.318 263.176 345.85 262.957C346.109 262.837 346.382 262.795 346.655 262.773C346.791 262.773 346.928 262.759 347.065 262.78L347.273 262.802L347.474 262.858C348.02 263.02 348.401 263.486 348.624 263.952C348.847 264.432 348.969 264.934 349.005 265.456L348.789 265.435C348.897 264.891 349.307 264.397 349.839 264.207C350.363 264.002 350.953 264.023 351.456 264.242C351.707 264.348 351.937 264.503 352.131 264.694C352.325 264.884 352.447 265.124 352.584 265.35C352.807 265.823 352.907 266.332 352.979 266.833C353.166 268.852 352.728 270.765 352.426 272.58C352.167 274.415 351.793 276.159 351.463 277.818C351.111 279.477 350.78 281.052 350.464 282.541L350.306 282.492C350.334 282.428 350.356 282.379 350.378 282.323L350.457 282.435C346.54 282.492 343.27 282.541 340.719 282.577L340.769 282.52V282.577H340.712C339.806 282.57 339.059 282.57 338.39 282.57H338.354L338.347 282.527C338.182 281.249 337.83 280.289 337.571 279.668C337.442 279.35 337.327 279.117 337.248 278.962C337.169 278.785 337.14 278.701 337.14 278.701C337.14 278.701 337.341 279.004 337.621 279.626C337.894 280.247 338.261 281.2 338.448 282.499L338.405 282.457C339.073 282.457 339.813 282.45 340.726 282.45L340.668 282.506V282.457H340.719C343.27 282.407 346.54 282.337 350.457 282.259H350.579L350.529 282.372C350.507 282.428 350.485 282.478 350.457 282.541L350.299 282.492C350.608 281.009 350.931 279.428 351.276 277.769C351.599 276.103 351.966 274.366 352.225 272.537C352.526 270.716 352.95 268.81 352.764 266.847C352.699 266.36 352.598 265.88 352.39 265.435C352.268 265.223 352.153 265.004 351.98 264.835C351.808 264.665 351.599 264.524 351.377 264.425C350.924 264.235 350.392 264.214 349.925 264.397C349.451 264.567 349.113 264.983 349.012 265.477L348.854 266.212L348.797 265.456C348.761 264.976 348.646 264.482 348.43 264.037C348.214 263.599 347.877 263.197 347.402 263.063C346.942 262.929 346.389 262.957 345.936 263.148C345.476 263.331 345.153 263.783 345.11 264.263L345.038 264.983L344.887 264.277C344.722 263.501 344.413 262.703 343.852 262.117C343.306 261.524 342.379 261.277 341.667 261.736C341.236 261.976 340.949 262.399 340.812 262.83L340.589 263.501V262.795C340.589 261.651 340.589 260.521 340.589 259.399C340.589 258.841 340.589 258.283 340.589 257.725C340.582 257.443 340.604 257.175 340.553 256.921C340.503 256.666 340.41 256.412 340.266 256.193C339.986 255.749 339.533 255.424 339.023 255.311C338.512 255.198 337.959 255.304 337.528 255.579C337.097 255.855 336.78 256.299 336.673 256.786C336.615 257.027 336.63 257.288 336.622 257.549C336.622 257.81 336.615 258.071 336.615 258.333C336.558 262.491 336.5 266.402 336.45 269.975L336.443 270.243L336.277 270.031C335.3 268.796 334.359 267.609 333.46 266.473C333.223 266.19 333.043 265.88 332.749 265.724C332.461 265.555 332.116 265.491 331.786 265.499C331.455 265.506 331.125 265.59 330.837 265.732C330.55 265.873 330.305 266.099 330.212 266.374L330.205 266.388C330.018 266.875 330.047 267.447 330.19 267.941C330.327 268.45 330.586 268.894 330.866 269.311C331.426 270.151 331.958 270.942 332.454 271.683C333.439 273.159 334.287 274.436 334.984 275.474C335.674 276.512 336.205 277.317 336.572 277.868C336.744 278.136 336.881 278.348 336.982 278.489C337.097 278.63 337.14 278.701 337.14 278.701Z" fill="#263238"/>
<path d="M350.581 285.775H338.385C337.458 285.775 336.711 285.034 336.711 284.13V284.017C336.711 283.106 337.466 282.372 338.385 282.372H350.581C351.508 282.372 352.256 283.113 352.256 284.017V284.13C352.256 285.034 351.508 285.775 350.581 285.775Z" fill="#EBEBEB"/>
<path d="M350.581 285.775C350.581 285.761 350.703 285.768 350.933 285.718C351.156 285.662 351.486 285.535 351.781 285.217C351.925 285.062 352.054 284.857 352.133 284.61C352.205 284.37 352.22 284.073 352.176 283.777C352.097 283.191 351.58 282.556 350.804 282.457C347.606 282.464 343.222 282.464 338.385 282.471C337.817 282.471 337.271 282.796 337.013 283.269C336.883 283.509 336.811 283.777 336.818 284.045C336.811 284.321 336.869 284.582 336.991 284.815C337.228 285.288 337.724 285.605 338.241 285.655C338.773 285.669 339.327 285.662 339.844 285.669C341.943 285.676 343.833 285.683 345.435 285.69C347.009 285.704 348.288 285.718 349.201 285.725C349.632 285.733 349.97 285.74 350.229 285.747C350.459 285.761 350.581 285.768 350.581 285.775C350.581 285.782 350.459 285.789 350.222 285.796C349.97 285.803 349.625 285.81 349.194 285.817C348.281 285.824 347.002 285.838 345.428 285.853C343.833 285.86 341.935 285.867 339.837 285.874C339.305 285.874 338.78 285.888 338.213 285.867C337.631 285.817 337.063 285.457 336.79 284.921C336.646 284.659 336.581 284.342 336.596 284.052C336.589 283.756 336.668 283.438 336.811 283.17C337.113 282.619 337.731 282.252 338.385 282.252C343.243 282.259 347.627 282.245 350.825 282.301C351.673 282.414 352.227 283.12 352.299 283.756C352.335 284.073 352.313 284.37 352.234 284.638C352.148 284.899 352.004 285.111 351.846 285.274C351.53 285.598 351.17 285.718 350.94 285.761C350.703 285.796 350.581 285.775 350.581 285.775Z" fill="#263238"/>
<path d="M340.607 267.475C340.542 267.475 340.492 266.367 340.492 264.997C340.492 263.628 340.542 262.519 340.607 262.519C340.672 262.519 340.722 263.628 340.722 264.997C340.722 266.367 340.672 267.475 340.607 267.475Z" fill="#263238"/>
<path d="M344.951 267.137C344.886 267.137 344.836 266.48 344.836 265.668C344.836 264.856 344.886 264.2 344.951 264.2C345.016 264.2 345.066 264.856 345.066 265.668C345.059 266.48 345.008 267.137 344.951 267.137Z" fill="#263238"/>
<path d="M348.904 268.372C348.839 268.372 348.789 267.715 348.789 266.904C348.789 266.092 348.839 265.435 348.904 265.435C348.969 265.435 349.019 266.092 349.019 266.904C349.019 267.715 348.969 268.372 348.904 268.372Z" fill="#263238"/>
<path d="M335.642 254.951C335.613 255.007 334.55 254.527 333.263 253.885C331.977 253.242 330.956 252.671 330.985 252.621C331.014 252.565 332.077 253.045 333.364 253.687C334.65 254.33 335.671 254.902 335.642 254.951Z" fill="#263238"/>
<path d="M337.74 253.786C337.676 253.793 337.395 252.346 337.108 250.545C336.82 248.745 336.641 247.284 336.698 247.27C336.763 247.262 337.043 248.71 337.331 250.51C337.625 252.31 337.805 253.779 337.74 253.786Z" fill="#263238"/>
<path d="M340.37 254.083C340.32 254.047 340.974 253.038 341.836 251.83C342.698 250.623 343.439 249.67 343.489 249.705C343.539 249.741 342.885 250.75 342.023 251.957C341.16 253.165 340.42 254.118 340.37 254.083Z" fill="#263238"/>
<path d="M27.6413 323.765H74.6062C77.064 323.765 79.0547 321.809 79.0547 319.394V292.743C79.0547 290.328 77.064 288.373 74.6062 288.373H27.4401C26.4196 288.373 25.5859 289.185 25.5859 290.194V321.752C25.5859 322.861 26.5058 323.765 27.6413 323.765Z" fill="#263238"/>
<g opacity="0.4">
<path d="M27.6413 323.765H74.6062C77.064 323.765 79.0547 321.809 79.0547 319.394V292.743C79.0547 290.328 77.064 288.373 74.6062 288.373H27.4401C26.4196 288.373 25.5859 289.185 25.5859 290.194V321.752C25.5859 322.861 26.5058 323.765 27.6413 323.765Z" fill="black"/>
</g>
<path d="M33.5312 323.765H84.9159C86.0658 323.765 86.9929 322.854 86.9929 321.724V291.366C86.9929 289.714 85.6346 288.38 83.9529 288.38H33.5312V323.765Z" fill="#263238"/>
<path d="M33.5006 323.941C33.4072 323.941 33.3281 316.09 33.3281 306.411C33.3281 296.725 33.4072 288.874 33.5006 288.874C33.594 288.874 33.6731 296.725 33.6731 306.411C33.6731 316.09 33.6012 323.941 33.5006 323.941Z" fill="#263238"/>
<path d="M46.4226 287.935C46.4154 287.928 46.4657 287.857 46.5663 287.73C46.6741 287.61 46.825 287.413 47.0478 287.194C47.479 286.742 48.1617 286.128 49.096 285.492C50.9358 284.222 53.9757 282.944 57.4828 283.035C60.9899 283.134 63.9508 284.582 65.7116 285.951C66.6099 286.636 67.2495 287.286 67.6592 287.766C67.8676 287.999 68.0041 288.196 68.1119 288.33C68.2125 288.465 68.2556 288.535 68.2485 288.542C68.191 288.592 67.3789 287.448 65.575 286.142C63.7999 284.843 60.8965 283.466 57.4756 283.367C54.0548 283.275 51.0795 284.483 49.2325 285.683C47.3496 286.897 46.4729 287.992 46.4226 287.935Z" fill="#263238"/>
<path d="M33.1823 293.435C33.1895 293.435 33.2038 293.498 33.2254 293.625C33.247 293.767 33.2829 293.95 33.326 294.183C33.3691 294.43 33.4051 294.734 33.4841 295.087C33.5632 295.447 33.6566 295.849 33.7644 296.308C34.2172 298.137 35.1442 300.742 36.9768 303.587C38.8166 306.404 41.6194 309.454 45.5074 311.741C49.3667 314.05 54.3398 315.377 59.5573 315.293C64.7821 315.173 69.6762 313.669 73.5282 311.339C77.409 309.03 80.2765 306.079 82.296 303.368C84.2939 300.629 85.4868 298.144 86.1839 296.393C86.5217 295.51 86.7804 294.826 86.9242 294.346C86.996 294.127 87.0607 293.95 87.1038 293.809C87.147 293.689 87.1685 293.625 87.1757 293.632C87.1829 293.632 87.1685 293.696 87.1326 293.823C87.0967 293.964 87.0463 294.141 86.9817 294.367C86.8595 294.854 86.6295 295.546 86.3061 296.442C85.6449 298.214 84.4807 300.735 82.49 303.509C80.4849 306.256 77.6031 309.256 73.6935 311.6C69.8127 313.972 64.8539 315.504 59.5717 315.624C54.2895 315.716 49.2589 314.354 45.3565 312.003C41.4254 309.673 38.6154 306.573 36.7828 303.714C34.9646 300.82 34.0662 298.179 33.6494 296.336C33.556 295.878 33.4697 295.461 33.3979 295.101C33.3332 294.741 33.3045 294.437 33.2757 294.19C33.247 293.957 33.2254 293.774 33.211 293.625C33.1823 293.505 33.1751 293.435 33.1823 293.435Z" fill="#455A64"/>
<path d="M509.416 188.925C502.243 192.575 496.738 198.866 492.778 205.785C488.819 212.71 486.274 220.3 483.745 227.847L481.531 266.741C489.882 252.79 496.58 236.383 498.391 220.293C496.537 220.13 494.69 219.968 492.836 219.806C496.559 219.248 499.692 216.593 501.675 213.452C503.666 210.31 504.687 206.681 505.686 203.109C503.429 203.441 501.165 203.765 498.909 204.097C504.227 200.617 508.072 195.053 509.416 188.925Z" fill="#455A64"/>
<g opacity="0.3">
<path d="M509.416 188.925C502.243 192.575 496.738 198.866 492.778 205.785C488.819 212.71 486.274 220.3 483.745 227.847L481.531 266.741C489.882 252.79 496.58 236.383 498.391 220.293C496.537 220.13 494.69 219.968 492.836 219.806C496.559 219.248 499.692 216.593 501.675 213.452C503.666 210.31 504.687 206.681 505.686 203.109C503.429 203.441 501.165 203.765 498.909 204.097C504.227 200.617 508.072 195.053 509.416 188.925Z" fill="black"/>
</g>
<path d="M480.303 275.848C480.303 275.848 462.178 254.541 462.387 234.194H469.71C469.71 234.194 461.761 229.054 462.387 226.181C463.019 223.308 463.227 212.414 463.227 212.414L469.918 214.059C469.918 214.059 464.895 211.595 464.27 207.691C463.644 203.787 465.736 185.706 465.736 185.706C465.736 185.706 473.892 194.129 476.401 202.763C478.909 211.39 485.499 221.465 483.566 247.763C481.632 274.062 480.303 275.848 480.303 275.848Z" fill="#455A64"/>
<path d="M489.491 277.86C489.491 277.86 509.125 265.011 513.488 248.611L507.602 247.036C507.602 247.036 515.141 244.615 515.277 242.165C515.414 239.715 517.67 230.918 517.67 230.918L511.921 230.798C511.921 230.798 516.506 229.895 517.879 226.894C519.251 223.894 521.601 208.905 521.601 208.905C521.601 208.905 513.164 213.925 509.226 220.321C505.288 226.718 497.749 233.396 493.444 254.958C489.139 276.526 489.491 277.86 489.491 277.86Z" fill="#455A64"/>
<path d="M470.68 204.281C470.687 204.281 470.708 204.352 470.744 204.5C470.788 204.669 470.838 204.881 470.902 205.156C471.039 205.757 471.233 206.604 471.477 207.684C471.729 208.778 472.024 210.127 472.34 211.694C472.663 213.261 473.037 215.04 473.411 217.024C474.187 220.978 475.006 225.701 475.854 230.954C476.673 236.213 477.485 242.01 478.211 248.109C478.923 254.209 479.476 260.041 479.9 265.343C480.295 270.652 480.597 275.432 480.755 279.456C480.856 281.468 480.906 283.282 480.949 284.885C481.007 286.481 481.028 287.857 481.043 288.987C481.05 290.095 481.064 290.964 481.064 291.578C481.064 291.86 481.064 292.079 481.064 292.249C481.064 292.404 481.057 292.482 481.05 292.482C481.043 292.482 481.036 292.404 481.029 292.256C481.021 292.086 481.007 291.86 480.993 291.585C480.971 290.971 480.935 290.102 480.899 288.994C480.87 287.871 480.82 286.495 480.741 284.899C480.669 283.304 480.604 281.482 480.49 279.477C480.295 275.46 479.972 270.68 479.555 265.378C479.11 260.076 478.549 254.259 477.838 248.159C477.112 242.066 476.307 236.277 475.509 231.017C474.683 225.765 473.892 221.041 473.145 217.081C472.793 215.097 472.433 213.318 472.131 211.743C471.837 210.176 471.564 208.821 471.334 207.719C471.118 206.632 470.946 205.785 470.823 205.178C470.773 204.902 470.73 204.683 470.701 204.514C470.687 204.359 470.68 204.281 470.68 204.281Z" fill="#263238"/>
<path d="M477.787 288.895C477.787 288.895 461.2 270.412 456.055 259.236L459.943 257.605C457.126 258.064 454.237 256.871 452.052 255.063C449.867 253.256 448.264 250.884 446.691 248.54L451.815 247.693C447.158 246.408 443.054 243.287 440.625 239.178C446.669 240.153 452.138 243.414 456.644 247.488C460.295 250.785 463.385 254.619 466.346 258.537C467.791 260.443 469.063 262.484 470.112 264.623C472.893 270.285 477.794 282.11 477.787 288.895Z" fill="#455A64"/>
<path d="M513.742 219.665C513.749 219.665 513.72 219.728 513.67 219.855C513.605 219.996 513.519 220.173 513.418 220.392C513.174 220.886 512.836 221.571 512.412 222.446C511.528 224.218 510.271 226.802 508.747 230.007C505.7 236.411 501.682 245.356 497.715 255.416C493.756 265.484 490.608 274.761 488.473 281.51C487.403 284.885 486.569 287.631 486.008 289.53C485.728 290.455 485.505 291.189 485.347 291.712C485.275 291.945 485.211 292.128 485.167 292.277C485.124 292.404 485.103 292.467 485.096 292.467C485.088 292.467 485.103 292.397 485.132 292.27C485.167 292.121 485.218 291.931 485.275 291.698C485.419 291.168 485.613 290.434 485.872 289.495C486.389 287.582 487.187 284.828 488.222 281.44C490.292 274.662 493.403 265.364 497.37 255.289C501.337 245.215 505.398 236.284 508.51 229.902C510.062 226.71 511.356 224.141 512.29 222.39C512.743 221.528 513.102 220.851 513.361 220.371C513.476 220.159 513.569 219.982 513.648 219.848C513.699 219.721 513.742 219.665 513.742 219.665Z" fill="#263238"/>
<path d="M479.202 296.816C479.187 296.816 479.159 296.703 479.115 296.477C479.072 296.209 479.015 295.884 478.95 295.496C478.821 294.642 478.605 293.413 478.296 291.903C477.994 290.392 477.57 288.605 477.024 286.636C476.464 284.673 475.774 282.541 474.933 280.338C474.085 278.143 473.165 276.095 472.267 274.26C471.354 272.431 470.47 270.814 469.679 269.487C468.889 268.153 468.228 267.094 467.753 266.366C467.538 266.028 467.365 265.752 467.214 265.526C467.092 265.329 467.035 265.223 467.049 265.216C467.056 265.209 467.135 265.3 467.279 265.484C467.437 265.703 467.638 265.971 467.876 266.289C468.393 266.988 469.09 268.033 469.909 269.353C470.736 270.673 471.641 272.283 472.576 274.111C473.495 275.947 474.43 278.001 475.285 280.211C476.126 282.421 476.809 284.574 477.355 286.544C477.879 288.521 478.289 290.321 478.555 291.846C478.828 293.371 479.008 294.606 479.094 295.468C479.13 295.863 479.166 296.188 479.187 296.456C479.209 296.696 479.209 296.816 479.202 296.816Z" fill="#263238"/>
<path d="M501.081 292.475H464.781V299.746H501.081V292.475Z" fill="#45B34A"/>
<path d="M468.234 299.746L472.158 324.209H494.092L497.757 299.746H468.234Z" fill="#45B34A"/>
<path d="M498.852 299.746C498.852 299.845 491.989 299.93 483.516 299.93C475.043 299.93 468.18 299.845 468.18 299.746C468.18 299.647 475.043 299.562 483.516 299.562C491.982 299.562 498.852 299.64 498.852 299.746Z" fill="#263238"/>
<path d="M36.3616 251.061L35.3483 200.052C35.0896 186.921 45.8409 176.133 59.2081 176.119C72.374 176.098 83.0678 186.539 83.1397 199.473L83.4128 251.061L36.3688 253.038" fill="#455A64"/>
<path d="M36.3594 259.766H109.541C109.541 254.958 106.243 251.336 101.348 251.336L36.3666 251.061V259.766H36.3594Z" fill="#455A64"/>
<path d="M96.8928 323.766H102.031L102.031 259.767H96.8928L96.8928 323.766Z" fill="#455A64"/>
<path d="M42.1662 323.766H47.3047L47.3047 259.767H42.1662L42.1662 323.766Z" fill="#455A64"/>
<path d="M42.3281 251.336C42.3281 251.244 55.9397 251.167 72.7277 251.167C89.523 251.167 103.135 251.244 103.135 251.336C103.135 251.428 89.523 251.506 72.7277 251.506C55.9397 251.506 42.3281 251.428 42.3281 251.336Z" fill="#263238"/>
<path d="M37.6016 259.794C37.6016 259.702 53.5991 259.625 73.3337 259.625C93.0683 259.625 109.066 259.702 109.066 259.794C109.066 259.886 93.0683 259.963 73.3337 259.963C53.5991 259.963 37.6016 259.886 37.6016 259.794Z" fill="#263238"/>
<path d="M41.5084 185.205C41.6018 185.205 41.6809 199.763 41.6809 217.724C41.6809 235.684 41.6018 250.242 41.5084 250.242C41.415 250.242 41.3359 235.684 41.3359 217.724C41.3359 199.763 41.4078 185.205 41.5084 185.205Z" fill="#263238"/>
<path d="M85.3646 222.432C85.3646 222.432 126.544 222.263 129.807 222.432C135.614 222.736 139.502 229.104 140.278 232.408C141.054 235.705 159.049 286.544 159.049 286.544L145.064 295.433L126.307 253.857L116.864 237.724L65.5078 246.535L85.3646 222.432Z" fill="#936760"/>
<path d="M117.134 236.228C117.134 236.228 124.737 236.228 128.841 242.2C131.255 245.709 130.407 251.986 130.458 256.723C130.522 263.169 128.819 313.203 128.819 313.203C123.968 316.585 118.556 316.973 112.649 314.707L108.466 259.321L109.544 251.061L81.4589 251.675C81.4589 251.675 76.457 242.476 83.4137 235.183C84.2977 234.244 117.134 236.228 117.134 236.228Z" fill="#936760"/>
<path d="M120.672 236.496C120.672 236.489 120.744 236.496 120.888 236.517C121.046 236.538 121.247 236.574 121.506 236.609C122.038 236.736 122.843 236.927 123.777 237.4C124.711 237.866 125.789 238.586 126.831 239.638C127.852 240.704 128.865 242.073 129.627 243.761C130.41 245.441 130.877 247.446 131.028 249.606C131.186 251.767 131.035 254.083 130.841 256.497C130.619 258.912 130.496 261.439 130.403 264.072C130.317 266.706 130.223 269.431 130.13 272.227C129.785 283.389 129.476 293.498 129.253 300.841C129.131 304.484 129.037 307.442 128.966 309.511C128.922 310.52 128.894 311.304 128.872 311.869C128.858 312.123 128.851 312.328 128.836 312.483C128.829 312.624 128.822 312.695 128.815 312.695C128.807 312.695 128.807 312.624 128.8 312.483C128.8 312.328 128.8 312.123 128.8 311.869C128.807 311.311 128.815 310.52 128.829 309.511C128.872 307.442 128.93 304.484 129.009 300.841C129.181 293.52 129.433 283.403 129.785 272.227C129.885 269.431 129.979 266.706 130.065 264.072C130.166 261.439 130.288 258.89 130.525 256.483C130.733 254.075 130.892 251.781 130.748 249.642C130.611 247.503 130.166 245.533 129.411 243.874C128.678 242.201 127.694 240.845 126.702 239.786C125.688 238.734 124.639 238.014 123.726 237.534C121.865 236.567 120.651 236.567 120.672 236.496Z" fill="#6F4C47"/>
<path d="M128.801 312.687L128.815 313.704C128.815 313.704 146.437 320.461 146.659 323.729L111.797 323.892L112.214 312.497C117.417 314.827 122.843 315.067 128.801 312.687Z" fill="#45B34A"/>
<path d="M111.805 323.892L111.905 321.153L145.28 322C145.28 322 146.832 322.656 146.667 323.729L111.805 323.892Z" fill="#E0E0E0"/>
<path d="M158.363 284.426L158.758 285.365C158.758 285.365 177.673 285.259 179.111 288.225L146.771 301.003L142.883 290.258C148.582 290.547 153.72 288.803 158.363 284.426Z" fill="#45B34A"/>
<path d="M146.77 301.003L145.836 298.419L177.177 287.116C177.177 287.116 178.866 287.166 179.117 288.225L146.77 301.003Z" fill="#E0E0E0"/>
<path d="M160.079 289.269C160.036 289.29 159.87 289.086 159.734 288.697C159.597 288.309 159.511 287.723 159.619 287.095C159.727 286.466 160 285.937 160.266 285.619C160.524 285.295 160.754 285.153 160.783 285.189C160.869 285.259 160.172 286.001 159.993 287.158C159.77 288.309 160.179 289.227 160.079 289.269Z" fill="#263238"/>
<path d="M158.222 289.58C158.136 289.629 157.69 288.641 157.913 287.384C158.129 286.121 158.883 285.337 158.948 285.407C159.042 285.471 158.474 286.283 158.287 287.441C158.071 288.599 158.33 289.552 158.222 289.58Z" fill="#263238"/>
<path d="M162.887 289.037C162.816 289.107 162.198 288.429 162.068 287.363C161.924 286.297 162.356 285.493 162.435 285.542C162.542 285.577 162.305 286.361 162.435 287.321C162.557 288.281 162.981 288.98 162.887 289.037Z" fill="#263238"/>
<path d="M160.961 285.457C160.94 285.492 160.48 285.259 159.998 284.603C159.761 284.278 159.531 283.862 159.323 283.388C159.215 283.148 159.114 282.901 159.014 282.64C158.963 282.513 158.906 282.379 158.877 282.202C158.848 282.033 158.877 281.807 159.035 281.638C159.2 281.454 159.509 281.461 159.668 281.56C159.84 281.652 159.948 281.772 160.048 281.892C160.228 282.125 160.372 282.365 160.487 282.605C160.717 283.085 160.832 283.558 160.875 283.953C160.954 284.751 160.774 285.231 160.738 285.217C160.674 285.21 160.753 284.73 160.616 283.989C160.544 283.621 160.415 283.191 160.185 282.753C160.07 282.534 159.933 282.315 159.761 282.111C159.61 281.906 159.373 281.786 159.308 281.885C159.186 281.998 159.258 282.238 159.366 282.506C159.459 282.76 159.553 283.007 159.646 283.254C159.833 283.727 160.027 284.13 160.228 284.455C160.609 285.111 160.997 285.408 160.961 285.457Z" fill="#263238"/>
<path d="M161.15 285.273C161.165 285.288 161.122 285.344 161.028 285.45L160.949 285.535L160.927 285.408C160.892 285.153 160.863 284.638 161.014 283.967C161.086 283.635 161.208 283.268 161.38 282.894C161.466 282.704 161.574 282.52 161.689 282.329C161.747 282.238 161.826 282.125 161.941 282.033C162.063 281.941 162.228 281.878 162.415 281.92C162.674 281.969 162.782 282.245 162.774 282.407C162.782 282.584 162.739 282.718 162.71 282.845C162.645 283.106 162.552 283.353 162.451 283.579C162.25 284.031 161.991 284.405 161.74 284.687C161.236 285.252 160.812 285.464 160.784 285.429C160.748 285.379 161.107 285.104 161.531 284.532C161.74 284.25 161.962 283.883 162.135 283.452C162.221 283.24 162.293 283.007 162.35 282.76C162.429 282.506 162.415 282.259 162.329 282.273C162.128 282.202 161.869 282.732 161.704 283.035C161.531 283.381 161.402 283.72 161.308 284.031C161.122 284.652 161.086 285.146 161.042 285.393L160.949 285.351C161.071 285.288 161.136 285.259 161.15 285.273Z" fill="#263238"/>
<path d="M128.505 317.601C128.462 317.601 128.426 317.34 128.52 316.938C128.606 316.535 128.85 315.992 129.274 315.512C129.705 315.032 130.216 314.721 130.611 314.587C131.006 314.446 131.272 314.439 131.279 314.488C131.315 314.594 130.331 314.862 129.555 315.759C128.75 316.627 128.613 317.623 128.505 317.601Z" fill="#263238"/>
<path d="M126.76 316.917C126.666 316.909 126.803 315.843 127.665 314.883C128.52 313.916 129.577 313.641 129.598 313.732C129.642 313.831 128.729 314.234 127.945 315.123C127.155 316.006 126.867 316.945 126.76 316.917Z" fill="#263238"/>
<path d="M131.022 318.851C130.929 318.872 130.763 317.982 131.216 317.001C131.662 316.02 132.459 315.554 132.502 315.638C132.574 315.723 131.956 316.267 131.554 317.156C131.144 318.032 131.13 318.851 131.022 318.851Z" fill="#263238"/>
<path d="M131.285 314.813C131.249 314.834 130.976 314.389 130.918 313.591C130.89 313.196 130.911 312.723 130.99 312.207C131.026 311.953 131.077 311.685 131.127 311.41C131.156 311.275 131.17 311.127 131.242 310.965C131.306 310.802 131.45 310.626 131.68 310.569C131.917 310.499 132.176 310.668 132.255 310.831C132.349 310.993 132.384 311.155 132.399 311.311C132.428 311.6 132.42 311.883 132.392 312.144C132.334 312.673 132.176 313.132 132.004 313.492C131.644 314.212 131.242 314.53 131.213 314.502C131.163 314.467 131.486 314.092 131.759 313.386C131.896 313.033 132.011 312.603 132.047 312.109C132.068 311.861 132.061 311.607 132.032 311.339C132.011 311.085 131.881 310.866 131.766 310.915C131.608 310.951 131.529 311.191 131.486 311.473C131.436 311.741 131.378 311.996 131.328 312.257C131.235 312.751 131.184 313.203 131.184 313.577C131.177 314.332 131.342 314.791 131.285 314.813Z" fill="#263238"/>
<path d="M131.552 314.749C131.552 314.77 131.487 314.798 131.35 314.841L131.243 314.869L131.293 314.756C131.393 314.523 131.652 314.064 132.134 313.577C132.371 313.33 132.673 313.083 133.018 312.85C133.19 312.737 133.384 312.631 133.578 312.525C133.679 312.476 133.801 312.419 133.952 312.405C134.103 312.391 134.283 312.426 134.412 312.553C134.606 312.73 134.556 313.019 134.462 313.153C134.376 313.309 134.261 313.4 134.168 313.492C133.974 313.683 133.765 313.845 133.557 313.986C133.14 314.269 132.723 314.452 132.364 314.565C131.638 314.791 131.156 314.749 131.156 314.707C131.149 314.65 131.609 314.594 132.27 314.325C132.601 314.191 132.982 313.994 133.355 313.718C133.542 313.577 133.729 313.422 133.909 313.245C134.11 313.069 134.225 312.85 134.146 312.822C134.009 312.659 133.514 312.977 133.205 313.153C132.867 313.358 132.579 313.584 132.335 313.796C131.846 314.226 131.544 314.636 131.386 314.827L131.329 314.742C131.473 314.721 131.544 314.728 131.552 314.749Z" fill="#263238"/>
<path d="M132.034 198.414L138.322 199.41L142.411 204.973L141.226 209.209L140.478 209.449L140.629 211.038C140.694 211.744 140.327 212.421 139.695 212.753L136.439 207.211L137.783 212.838C137.783 212.838 136.971 213.156 135.591 212.471C134.211 211.786 132.731 205.51 132.731 205.51L130.56 204.182L132.695 211.151C132.695 211.151 132.048 211.871 130.841 211.807C129.633 211.744 127.19 205.418 127.19 205.418L94.4475 209.922L94.3828 205.764L102.324 192.837L132.034 198.414Z" fill="#936760"/>
<path d="M60.9836 146.495C57.4909 145.189 54.7815 142.033 54.0628 138.433C53.761 136.908 53.7825 135.319 53.3154 133.837C52.6399 131.712 50.9654 129.876 50.8863 127.645C50.8288 126.162 51.4972 124.75 51.6337 123.275C51.7631 121.849 51.3894 120.43 51.3606 119.004C51.2888 115.368 53.6891 111.809 57.1243 110.461L66.1795 106.853L80.136 112.445C80.136 112.445 88.0773 120.013 85.792 135.595L60.9836 146.495Z" fill="#45B34A"/>
<path d="M84.2771 136.957C84.5214 136.646 84.8879 136.343 85.276 136.173H85.197C85.2688 136.145 85.3479 136.131 85.4197 136.117C85.7072 136.025 86.0019 136.011 86.2606 136.145H86.2534C86.7277 136.272 87.1589 136.561 87.4176 136.971C87.8704 137.684 87.8129 138.644 87.3601 139.357C86.9649 139.971 86.2318 140.416 85.4988 140.31C84.8232 140.211 84.2842 139.668 84.0399 139.039C83.7668 138.362 83.8243 137.536 84.2771 136.957Z" fill="#455A64"/>
<path d="M84.1108 122.71C83.1837 117.74 79.0658 111.986 74.0495 113.101L58.6556 118.883C57.1321 119.222 56.1259 120.655 56.3415 122.173L60.9051 155.504C61.5016 159.845 65.1236 163.178 69.5722 163.474C75.2712 163.856 79.9929 159.182 79.5688 153.583C79.3964 151.282 79.267 149.552 79.267 149.566C79.267 149.566 85.656 147.745 85.9937 139.237C86.1734 135.015 85.1385 128.231 84.1108 122.71Z" fill="#936760"/>
<path d="M82.5028 130.052C82.589 130.617 82.1794 131.154 81.5829 131.252C80.9864 131.351 80.433 130.984 80.3396 130.419C80.2533 129.854 80.663 129.318 81.2595 129.219C81.856 129.113 82.4093 129.487 82.5028 130.052Z" fill="#263238"/>
<path d="M83.0375 126.424C82.9225 126.579 82.0242 126.078 80.8456 126.212C79.6741 126.332 78.8836 127.031 78.7399 126.904C78.668 126.847 78.7758 126.579 79.1208 126.268C79.4585 125.958 80.055 125.626 80.7881 125.541C81.5211 125.463 82.1679 125.654 82.5488 125.88C82.9441 126.113 83.1022 126.353 83.0375 126.424Z" fill="#263238"/>
<path d="M72.0965 131.09C72.1828 131.655 71.7731 132.192 71.1766 132.29C70.5801 132.389 70.0268 132.022 69.9333 131.457C69.8471 130.893 70.2567 130.356 70.8532 130.257C71.4569 130.151 72.0103 130.525 72.0965 131.09Z" fill="#263238"/>
<path d="M71.5375 127.984C71.4153 128.139 70.517 127.638 69.3456 127.772C68.1741 127.892 67.3836 128.591 67.2399 128.464C67.168 128.407 67.2758 128.139 67.6208 127.828C67.9585 127.518 68.555 127.186 69.2881 127.101C70.0211 127.023 70.6679 127.214 71.0488 127.44C71.4369 127.673 71.595 127.913 71.5375 127.984Z" fill="#263238"/>
<path d="M76.8149 136.032C76.8006 135.969 77.5192 135.757 78.6763 135.474C78.9709 135.411 79.2512 135.319 79.2728 135.114C79.3159 134.896 79.1506 134.592 78.9709 134.267C78.6044 133.589 78.2163 132.876 77.8139 132.128C76.1969 129.078 74.9895 126.558 75.1189 126.501C75.241 126.438 76.6568 128.859 78.2666 131.902C78.6547 132.658 79.0284 133.371 79.3878 134.055C79.5387 134.373 79.783 134.733 79.6824 135.192C79.6249 135.418 79.4309 135.609 79.244 135.679C79.0572 135.757 78.8919 135.785 78.741 135.806C77.5695 136.004 76.8293 136.096 76.8149 136.032Z" fill="#263238"/>
<path d="M79.2743 149.573C79.2743 149.573 73.5968 150.604 67.5312 147.914C67.5312 147.914 70.988 153.329 79.3964 151.557L79.2743 149.573Z" fill="#6F4C47"/>
<path d="M76.9688 138.793C76.3076 138.073 75.3231 137.698 74.4463 137.833C73.8354 137.924 73.2749 138.277 73.0018 138.835C72.7287 139.4 72.8077 140.184 73.2533 140.692C73.7564 141.271 74.5972 141.377 75.2368 141.144C75.8836 140.911 76.3723 140.402 76.8394 139.894C76.9688 139.753 77.0982 139.605 77.1557 139.421C77.2132 139.23 77.1916 138.99 77.0407 138.842" fill="#6F4C47"/>
<path d="M73.4618 137.232C73.6486 137.197 73.8068 138.446 74.9997 139.209C76.1927 139.971 77.5366 139.675 77.5654 139.851C77.5941 139.929 77.2923 140.127 76.7245 140.211C76.164 140.296 75.3231 140.211 74.5901 139.746C73.8571 139.28 73.4834 138.588 73.3827 138.079C73.2749 137.557 73.3756 137.232 73.4618 137.232Z" fill="#263238"/>
<path d="M71.4769 123.176C71.3978 123.501 70.212 123.493 68.8537 123.811C67.4883 124.108 66.4318 124.63 66.209 124.376C66.1084 124.249 66.2665 123.931 66.6834 123.578C67.093 123.225 67.7685 122.851 68.5806 122.667C69.3927 122.484 70.1689 122.526 70.6935 122.667C71.2253 122.809 71.5128 123.02 71.4769 123.176Z" fill="#263238"/>
<path d="M82.1431 122.505C81.9706 122.788 81.1298 122.611 80.1524 122.717C79.175 122.781 78.3773 123.098 78.1545 122.851C78.0539 122.731 78.1545 122.449 78.4851 122.159C78.8085 121.87 79.3762 121.602 80.0518 121.545C80.7201 121.489 81.331 121.658 81.6975 121.884C82.0784 122.11 82.2221 122.371 82.1431 122.505Z" fill="#263238"/>
<path d="M67.4708 115.029C63.5756 115.254 59.7236 116.222 56.1949 117.874C55.1457 118.368 54.0677 118.975 53.5215 119.985C53.04 120.874 53.0544 121.933 53.1406 122.936C53.4137 126.07 54.9876 129.819 56.4249 132.636L58.0994 135.037C60.2842 134.373 61.8077 128.647 61.4628 126.049C63.5397 124.969 64.8692 122.639 64.7255 120.338C66.4 119.102 67.4421 117.083 67.4708 115.029Z" fill="#263238"/>
<path d="M60.4486 133.575C60.1898 131.789 57.926 131.606 56.424 132.644C55.5976 133.215 55.0226 134.267 55.2813 136.159C55.9569 141.221 60.9876 139.506 60.9804 139.365C60.9732 139.273 60.7504 135.665 60.4486 133.575Z" fill="#936760"/>
<path d="M59.1475 137.649C59.1259 137.635 59.0684 137.72 58.9247 137.811C58.7882 137.896 58.5366 137.974 58.2563 137.91C57.6886 137.783 57.1137 136.993 56.9699 136.089C56.8981 135.63 56.934 135.178 57.049 134.797C57.1568 134.409 57.3652 134.119 57.6311 134.034C57.897 133.936 58.1126 134.077 58.1917 134.211C58.2779 134.345 58.2635 134.451 58.2923 134.451C58.3067 134.465 58.3929 134.352 58.321 134.147C58.2851 134.048 58.2132 133.936 58.0767 133.858C57.9401 133.773 57.7533 133.745 57.5664 133.794C57.1712 133.872 56.8621 134.274 56.7328 134.698C56.5819 135.122 56.5244 135.63 56.6106 136.152C56.7831 137.169 57.4371 138.052 58.2132 138.172C58.5869 138.221 58.8744 138.073 59.0181 137.931C59.1547 137.769 59.1691 137.656 59.1475 137.649Z" fill="#6F4C47"/>
<path d="M56.3396 138.99C56.5839 138.68 56.9504 138.376 57.3385 138.207H57.2595C57.3313 138.179 57.4104 138.164 57.4822 138.15C57.7697 138.058 58.0644 138.044 58.3231 138.179H58.3159C58.7902 138.306 59.2214 138.595 59.4801 139.005C59.9329 139.718 59.8754 140.678 59.4226 141.391C59.0274 142.005 58.2943 142.45 57.5613 142.344C56.8857 142.245 56.3467 141.701 56.1024 141.08C55.8293 140.395 55.8868 139.569 56.3396 138.99Z" fill="#455A64"/>
<path d="M52.3971 115.975C53.4679 113.589 56.0192 112.092 58.6208 111.576C59.3826 111.428 60.1587 111.35 60.9349 111.322C60.6402 110.327 60.5181 109.282 60.6115 108.244C60.8918 105.152 63.019 102.448 65.6781 101.205C68.3372 99.9556 71.4274 100.047 74.1943 100.986C76.7887 101.869 79.2465 103.584 80.5473 106.147C81.8481 108.71 81.7475 112.184 79.8717 114.302C77.6942 116.257 75.186 117.09 72.3904 117.662C69.9541 118.156 67.3382 117.867 65.1463 116.638C58.6423 121.884 57.011 130.561 55.9258 138.411C53.1014 133.526 52.4834 127.744 51.93 122.152C51.7288 120.077 51.5347 117.888 52.3971 115.975Z" fill="#45B34A"/>
<path d="M60.0889 116.554C60.0098 116.483 60.3763 115.982 60.8938 115.438C61.4112 114.888 61.8999 114.499 61.9718 114.57C62.0508 114.64 61.6843 115.142 61.1669 115.685C60.6422 116.229 60.1607 116.617 60.0889 116.554Z" fill="#263238"/>
<path d="M75.1117 113.97C75.0686 113.927 75.622 113.419 76.2688 112.423C76.9156 111.442 77.6127 109.924 77.7636 108.138C77.9145 106.352 77.4833 104.735 77.009 103.662C76.5347 102.575 76.0747 101.989 76.1322 101.946C76.1538 101.932 76.2832 102.066 76.4988 102.328C76.7072 102.596 76.9803 103.005 77.2534 103.549C77.8067 104.622 78.2954 106.295 78.1373 108.159C77.9792 110.023 77.2102 111.59 76.4844 112.565C76.1251 113.052 75.7873 113.419 75.5358 113.645C75.2842 113.878 75.1333 113.984 75.1117 113.97Z" fill="#263238"/>
<path d="M71.862 109.586C71.8261 109.55 72.1638 109.183 72.7244 108.611C73.2778 108.04 74.0611 107.256 74.7582 106.275C75.4553 105.293 75.8793 104.284 76.0518 103.528C76.2315 102.766 76.2243 102.272 76.2818 102.272C76.3249 102.264 76.4327 102.766 76.3105 103.578C76.1955 104.383 75.7931 105.47 75.0672 106.486C74.3414 107.503 73.5149 108.273 72.9112 108.802C72.3004 109.324 71.8979 109.621 71.862 109.586Z" fill="#263238"/>
<g opacity="0.3">
<path d="M60.5691 108.851C60.5835 111.986 62.3658 115.064 65.1039 116.681L65.0105 116.822C63.1204 116.85 61.2518 115.784 60.3391 114.153C59.4336 112.522 59.527 110.397 60.5691 108.851Z" fill="black"/>
</g>
<path d="M54.3638 120.013C54.4285 119.929 55.1543 120.38 56.0958 120.846C57.03 121.319 57.8349 121.63 57.8062 121.729C57.7774 121.821 56.9007 121.658 55.9305 121.171C54.9531 120.691 54.2991 120.091 54.3638 120.013Z" fill="white"/>
<path d="M51.1806 125.238C51.2094 125.139 52.2299 125.344 53.4947 125.456C54.7596 125.576 55.8016 125.548 55.8088 125.654C55.8232 125.753 54.7668 125.944 53.4588 125.824C52.1508 125.704 51.1447 125.329 51.1806 125.238Z" fill="white"/>
<path d="M57.6003 110.355C57.7081 110.383 57.3344 111.753 57.1907 113.476C57.0398 115.198 57.1835 116.61 57.0685 116.624C56.9751 116.646 56.6589 115.22 56.817 113.447C56.9607 111.675 57.5069 110.32 57.6003 110.355Z" fill="white"/>
<path d="M59.5161 119.328C59.5377 119.222 60.1845 119.265 60.9679 119.25C61.7512 119.236 62.398 119.166 62.4196 119.272C62.4411 119.363 61.8087 119.603 60.975 119.618C60.1414 119.632 59.4946 119.42 59.5161 119.328Z" fill="white"/>
<path d="M54.6637 128.993C54.7356 128.923 55.4399 129.551 56.0867 130.497C56.7407 131.443 57.0713 132.311 56.9778 132.354C56.8844 132.396 56.4101 131.62 55.7705 130.702C55.1452 129.784 54.5847 129.064 54.6637 128.993Z" fill="white"/>
<path d="M67.9277 114.591C67.8774 114.57 68.1577 113.807 68.632 112.579C69.1422 111.245 69.7675 109.593 70.4574 107.771C71.1257 105.943 71.7366 104.291 72.2253 102.942C72.6781 101.707 72.9655 100.944 73.0158 100.958C73.0661 100.972 72.8649 101.763 72.4768 103.02C72.0888 104.276 71.5138 106.006 70.8095 107.891C70.1052 109.776 69.4081 111.463 68.8763 112.664C68.3373 113.885 67.9708 114.612 67.9277 114.591Z" fill="white"/>
<path d="M63.4387 104.827C63.41 104.785 63.8843 104.439 64.6964 103.952C65.5085 103.472 66.6727 102.865 68.0166 102.321C69.3606 101.777 70.6254 101.403 71.5453 101.184C72.4724 100.965 73.0545 100.888 73.0617 100.937C73.0904 101.043 70.8123 101.58 68.1532 102.66C65.5013 103.726 63.4962 104.919 63.4387 104.827Z" fill="white"/>
<path d="M78.2091 107.827C78.2666 107.757 79.3015 108.717 79.9196 110.291C80.552 111.866 80.4514 113.257 80.3579 113.242C80.243 113.249 80.1783 111.922 79.5746 110.418C78.9853 108.929 78.1229 107.898 78.2091 107.827Z" fill="white"/>
<path d="M68.4384 117.704C68.4456 117.598 69.4445 117.662 70.5009 117.161C71.5718 116.681 72.1539 115.883 72.2473 115.946C72.3407 115.975 71.8449 116.956 70.6591 117.493C69.4876 118.043 68.4024 117.796 68.4384 117.704Z" fill="white"/>
<path d="M61.237 112.452C61.1436 112.445 61.2154 111.499 61.8119 110.517C62.4012 109.529 63.2061 109.013 63.2636 109.091C63.3355 109.176 62.6815 109.783 62.1353 110.701C61.5748 111.612 61.3448 112.473 61.237 112.452Z" fill="white"/>
<path d="M84.1983 123.113C84.1337 123.028 84.3708 122.767 84.5864 122.421C84.8164 122.075 84.9601 121.764 85.0607 121.778C85.1613 121.792 85.1685 122.202 84.9026 122.618C84.6367 123.028 84.2486 123.197 84.1983 123.113Z" fill="white"/>
<path d="M62.6751 115.156C62.7254 115.198 61.8989 116.088 60.7203 117.641C59.5345 119.187 58.0397 121.439 56.7461 124.108C55.4597 126.777 54.6332 129.339 54.1589 131.217C53.6774 133.095 53.4977 134.289 53.433 134.281C53.4043 134.274 53.433 133.978 53.4977 133.434C53.5552 132.891 53.6917 132.114 53.9001 131.161C54.3098 129.255 55.1075 126.65 56.4083 123.953C57.7163 121.256 59.2614 119.004 60.5119 117.486C61.1299 116.723 61.6617 116.13 62.0498 115.742C62.4307 115.347 62.6535 115.142 62.6751 115.156Z" fill="#263238"/>
<path d="M51.6587 123.769C51.6228 123.748 51.975 123.006 52.6864 121.884C53.3979 120.761 54.4975 119.279 55.9061 117.803C57.3147 116.328 58.752 115.156 59.8444 114.386C60.9367 113.617 61.6698 113.221 61.6913 113.257C61.7201 113.306 61.0445 113.772 60.0025 114.591C58.9604 115.41 57.5662 116.596 56.172 118.05C54.7849 119.512 53.6638 120.952 52.902 122.025C52.1403 123.098 51.7091 123.797 51.6587 123.769Z" fill="#263238"/>
<path d="M64.7568 101.939C64.7928 101.961 64.534 102.285 64.2106 102.942C63.8801 103.591 63.5135 104.601 63.3842 105.893C63.2692 107.178 63.4273 108.766 64.146 110.327C64.8574 111.887 66.187 113.348 67.9118 114.358C69.6438 115.375 71.5698 115.819 73.309 115.812C75.0553 115.819 76.622 115.452 77.8222 114.916C79.0224 114.372 79.856 113.673 80.3303 113.122C80.819 112.572 81.0059 112.205 81.0418 112.226C81.0562 112.233 81.0131 112.325 80.9196 112.494C80.8334 112.671 80.6753 112.911 80.4453 113.214C79.9926 113.807 79.1589 114.563 77.9372 115.156C76.7083 115.735 75.1128 116.144 73.309 116.151C71.5123 116.179 69.5072 115.728 67.7177 114.676C65.9283 113.631 64.5484 112.099 63.8298 110.468C63.0967 108.837 62.9673 107.192 63.1183 105.872C63.2836 104.545 63.7004 103.521 64.0741 102.878C64.2681 102.554 64.4262 102.314 64.5484 102.165C64.6778 102.01 64.7425 101.932 64.7568 101.939Z" fill="#263238"/>
<path d="M60.886 107.128C60.9506 107.135 60.8213 107.891 60.8429 109.105C60.8644 110.305 61.08 112.014 61.9712 113.631C62.8623 115.247 64.2781 116.299 65.392 116.765C66.5203 117.252 67.3108 117.252 67.3037 117.323C67.3037 117.344 67.1096 117.365 66.7575 117.344C66.4053 117.323 65.8951 117.231 65.2986 117.012C64.1056 116.589 62.5892 115.509 61.6478 113.814C60.7135 112.12 60.541 110.334 60.5841 109.112C60.6057 108.491 60.6704 107.997 60.7422 107.658C60.7997 107.312 60.8644 107.128 60.886 107.128Z" fill="#263238"/>
<g opacity="0.3">
<path d="M57.1223 122.943C55.764 125.711 55.0885 128.175 54.1758 131.112C53.8883 132.036 53.6224 133.032 53.8955 133.957C53.953 134.14 54.1039 134.352 54.2836 134.289C54.3986 134.246 54.4489 134.112 54.4776 133.992C55.685 129.311 57.1798 124.694 58.9405 120.183L57.1223 122.943Z" fill="black"/>
</g>
<g opacity="0.3">
<path d="M76.9432 102.921C78.4165 106.656 78.2081 110.765 75.3047 113.871C76.6342 113.61 77.626 112.657 78.1219 111.414C79.2286 108.639 78.7687 105.314 76.9432 102.921Z" fill="black"/>
</g>
<path d="M130.941 222.277C117.638 221.959 104.795 221.981 92.4416 222.362L92.5709 222.277L96.8614 182.607L80.5476 155.723L79.5703 154.819C76.171 156.414 73.016 157.142 69.3005 156.52L59.8213 154.925C55.5452 158.61 47.6686 166.503 47.6686 166.778C47.6686 167.146 58.2043 217.37 58.2043 217.37L64.4711 223.414L46.7344 235.67C46.7344 235.67 47.0937 247.764 55.4231 251.068C63.7452 254.372 100.742 251.866 105.061 251.343C105.061 251.343 121.231 245.173 123.466 243.281C125.709 241.389 131.58 226.393 130.941 222.277Z" fill="#263238"/>
<path d="M86.6484 227.868C86.6484 227.854 86.785 227.868 87.0293 227.903C87.3168 227.946 87.6761 228.002 88.1217 228.073C89.0703 228.228 90.4286 228.475 92.1103 228.807C95.4737 229.471 100.08 230.523 105.154 231.779C110.192 233.064 114.755 234.222 118.112 235.076C119.736 235.493 121.065 235.839 122.036 236.086C122.467 236.199 122.819 236.298 123.099 236.368C123.344 236.439 123.466 236.481 123.466 236.488C123.466 236.496 123.329 236.481 123.085 236.432C122.805 236.376 122.445 236.298 122.007 236.206C121.073 236.008 119.721 235.698 118.054 235.302C114.727 234.512 110.142 233.361 105.075 232.104C100.008 230.848 95.409 229.76 92.0672 229.033C90.3999 228.666 89.0416 228.384 88.1073 228.193C87.6689 228.101 87.3096 228.024 87.0293 227.96C86.7778 227.918 86.6484 227.882 86.6484 227.868Z" fill="#455A64"/>
<path d="M83.0625 222.058C83.0697 221.966 84.4639 221.987 86.1744 222.107C87.8848 222.227 89.2646 222.397 89.2574 222.489C89.2502 222.58 87.856 222.559 86.1456 222.439C84.4352 222.319 83.0553 222.15 83.0625 222.058Z" fill="#455A64"/>
<path d="M82.8789 214.828C82.9651 214.772 83.9928 216.113 85.538 217.511C87.0687 218.916 88.5132 219.827 88.4557 219.912C88.4198 219.989 86.8675 219.191 85.3008 217.751C83.7341 216.325 82.807 214.871 82.8789 214.828Z" fill="#455A64"/>
<path d="M81.9867 194.002C81.9436 193.959 82.5113 193.444 83.2731 192.498C84.0349 191.552 84.9476 190.133 85.5944 188.403C86.234 186.673 86.464 185.007 86.4999 183.8C86.5358 182.593 86.4352 181.844 86.4999 181.837C86.5215 181.837 86.5646 182.021 86.6221 182.36C86.6868 182.699 86.7299 183.193 86.7443 183.807C86.773 185.036 86.5718 186.751 85.9178 188.523C85.2566 190.295 84.2864 191.736 83.4599 192.653C83.0503 193.119 82.691 193.465 82.4179 193.684C82.1592 193.903 82.001 194.016 81.9867 194.002Z" fill="#455A64"/>
<path d="M86.5714 156.534C91.1924 159.344 95.7488 166.56 96.8914 174.227L99.4499 186.116C99.4499 186.116 101.383 185.099 102.576 186.539C103.977 188.234 103.597 190.126 103.597 190.126L108.908 193.769L100.42 199.833L94.6204 206.851C94.6204 206.851 99.6008 221.225 100.42 222.637C101.239 224.049 102.885 226.492 102.885 226.492L95.2816 225.059C95.2816 225.059 90.1432 221.43 90.3516 215.372C90.56 209.322 91.1637 186.109 90.3444 183.087C89.5323 180.058 79.5859 154.805 79.5859 154.805L86.5714 156.534Z" fill="#45B34A"/>
<path d="M95.4853 206.738C95.471 206.738 95.4566 206.618 95.435 206.385C95.4135 206.117 95.3847 205.785 95.356 205.376C95.3129 204.5 95.2913 203.222 95.3416 201.648C95.4278 198.506 95.78 194.178 96.01 189.392C96.2184 184.605 96.1753 180.27 95.9453 177.143C95.8159 175.582 95.7153 174.312 95.6075 173.443C95.5644 173.034 95.5356 172.702 95.5069 172.434C95.4853 172.201 95.4853 172.081 95.4925 172.081C95.5069 172.081 95.5285 172.201 95.5716 172.426C95.6147 172.695 95.6722 173.02 95.7369 173.429C95.8878 174.297 96.0243 175.561 96.1825 177.128C96.4771 180.263 96.5562 184.619 96.3406 189.413C96.1178 194.207 95.7225 198.527 95.5716 201.662C95.4925 203.229 95.4781 204.5 95.4781 205.376C95.4853 205.785 95.4925 206.117 95.4997 206.385C95.5069 206.618 95.4997 206.738 95.4853 206.738Z" fill="#263238"/>
<path d="M79.0403 200.695L75.4469 187.217L59.8303 154.918L46.5206 161.236C46.1685 161.364 45.8307 161.526 45.5073 161.717H45.5001C44.185 162.493 43.1357 163.722 42.3236 165.063C40.412 168.205 39.7867 171.939 40.3616 175.561L45.4857 207.508C45.4857 207.508 47.6849 213.269 50.502 218.084L42.7476 241.085C42.7476 241.085 62.5684 250.814 68.9646 250.785C74.3761 250.757 79.105 250.729 80.0033 240.365C80.8944 230.001 79.0403 200.695 79.0403 200.695Z" fill="#45B34A"/>
<path d="M62.5129 206.738C62.4698 206.717 62.7069 206.096 63.0231 205.065C63.1884 204.549 63.3753 203.928 63.6699 203.265C63.9646 202.608 64.3886 201.881 65.0785 201.337C65.7684 200.794 66.6093 200.561 67.3567 200.532C68.1113 200.504 68.7797 200.659 69.2971 200.885C69.8145 201.111 70.1882 201.38 70.4038 201.598C70.6266 201.817 70.7201 201.958 70.7057 201.973C70.6626 202.022 70.217 201.478 69.2037 201.104C68.7078 200.921 68.0682 200.801 67.3711 200.843C66.674 200.885 65.9122 201.111 65.2869 201.605C64.6617 202.1 64.2521 202.77 63.9574 203.399C63.6556 204.034 63.4471 204.641 63.2531 205.143C62.8722 206.159 62.5488 206.759 62.5129 206.738Z" fill="#263238"/>
<path d="M58.219 194.235C58.2118 194.213 58.3699 194.143 58.6789 194.058C58.988 193.973 59.4479 193.903 60.0157 193.91C61.144 193.91 62.8041 194.355 64.033 195.633C65.2547 196.917 65.5997 198.577 65.535 199.678C65.5063 200.243 65.4056 200.688 65.2978 200.984C65.1972 201.281 65.111 201.429 65.0894 201.422C65.0248 201.401 65.2978 200.758 65.2907 199.671C65.2978 198.605 64.9241 197.059 63.7815 195.858C62.6316 194.665 61.0793 194.206 60.0013 194.143C58.9089 194.072 58.2334 194.298 58.219 194.235Z" fill="#263238"/>
<path d="M58.2072 168.798C58.2288 168.791 58.3366 169.137 58.5162 169.758C58.6959 170.386 58.9259 171.297 59.1918 172.427C59.7236 174.693 60.3416 177.849 60.7944 181.365C61.24 184.887 61.434 188.093 61.4915 190.415C61.5202 191.573 61.5202 192.519 61.5059 193.169C61.4915 193.818 61.4699 194.178 61.4484 194.178C61.4268 194.178 61.3981 193.818 61.3693 193.169C61.3406 192.463 61.2975 191.538 61.2472 190.422C61.1322 188.107 60.9022 184.916 60.4494 181.4C59.9967 177.891 59.4217 174.742 58.9546 172.469C58.7246 171.382 58.5306 170.471 58.3869 169.779C58.2503 169.158 58.1856 168.805 58.2072 168.798Z" fill="#263238"/>
<path d="M46.5938 162.366C46.5866 162.331 47.1616 162.204 48.0958 162.204C49.0301 162.204 50.3381 162.366 51.6892 162.853C53.0403 163.348 54.147 164.054 54.8585 164.654C55.5772 165.254 55.9221 165.713 55.9006 165.734C55.8287 165.826 54.2332 164.11 51.5742 163.171C48.9367 162.19 46.5938 162.479 46.5938 162.366Z" fill="#263238"/>
<path d="M51.0943 219.079C51.1015 219.072 51.1949 219.185 51.3602 219.411C51.5399 219.658 51.7698 219.983 52.0573 220.378C52.7472 221.141 53.7677 222.277 55.435 223.124C57.0808 223.979 59.3158 224.466 61.7737 224.268C64.2171 224.021 66.869 223.153 69.1831 221.529C69.7581 221.176 70.2396 220.71 70.7355 220.329L70.678 220.456C70.6564 215.288 70.6348 210.685 70.6205 207.324C70.6276 205.693 70.6348 204.366 70.642 203.406C70.6492 202.975 70.6564 202.622 70.6636 202.347C70.6708 202.107 70.6851 201.98 70.6923 201.98C70.7067 201.98 70.7139 202.107 70.7283 202.347C70.7354 202.622 70.7498 202.975 70.7642 203.406C70.7858 204.366 70.8145 205.693 70.8504 207.324C70.8936 210.685 70.951 215.281 71.0157 220.456V220.54L70.9582 220.583C70.4552 220.971 69.9593 221.451 69.37 221.811C66.9984 223.47 64.289 224.353 61.788 224.586C59.2727 224.769 56.9802 224.247 55.3129 223.343C53.624 222.447 52.6035 221.268 51.9423 220.463C51.6477 220.032 51.4392 219.686 51.2883 219.453C51.1518 219.206 51.0871 219.086 51.0943 219.079Z" fill="#263238"/>
<g opacity="0.3">
<path d="M79.9314 218.197C77.5886 219.171 74.6276 220.075 74.1318 222.531C73.9665 223.343 74.0743 224.205 73.794 224.988C73.1256 226.859 70.7325 227.396 68.7202 227.579C65.3209 227.89 61.821 228.017 58.5798 226.972C55.3386 225.927 52.3777 223.492 51.6016 220.23C54.5553 222.023 55.9423 224.071 59.3704 224.628C61.2892 224.939 64.8753 223.718 66.7223 223.117C68.5693 222.524 70.8546 220.068 70.8546 220.068C71.0128 219.439 70.8331 217.349 70.6965 217.978C70.6534 218.19 73.8299 216.199 75.4254 215.606C77.3155 214.907 79.9314 213.671 79.9314 213.671" fill="black"/>
</g>
<g opacity="0.3">
<path d="M64.4725 202.043C63.9622 204.317 62.489 207.882 61.7128 210.077C61.5762 210.466 61.4325 210.861 61.1666 211.179C60.9007 211.497 60.4911 211.722 60.0742 211.666C59.4634 211.581 59.0968 210.889 59.1543 210.282C59.2118 209.675 59.5712 209.146 59.9161 208.644C61.4397 206.442 62.9561 204.246 64.4725 202.043Z" fill="black"/>
</g>
<path d="M52.268 230.255C52.2393 230.241 52.4693 229.839 52.8861 229.147C53.3029 228.455 53.9138 227.473 54.654 226.294L54.7115 226.196L54.8193 226.238C56.3285 226.774 58.1539 227.396 60.1374 227.996C62.8468 228.822 65.3406 229.443 67.1516 229.874C68.0068 230.071 68.7255 230.241 69.3004 230.375C69.8107 230.495 70.0838 230.566 70.0838 230.594C70.0766 230.615 69.7891 230.587 69.2789 230.502C68.7614 230.424 68.0212 230.29 67.1085 230.107C65.2831 229.733 62.7677 229.147 60.0512 228.314C58.0605 227.713 56.2351 227.071 54.7331 226.499L54.9055 226.443C54.1366 227.608 53.497 228.561 53.037 229.231C52.5627 229.902 52.2896 230.276 52.268 230.255Z" fill="#263238"/>
<path d="M68.7278 236.291C68.6415 236.249 69.1877 235.091 69.7483 233.623C70.3088 232.154 70.661 230.933 70.7616 230.954C70.8478 230.975 70.6394 232.253 70.0717 233.743C69.4968 235.24 68.7996 236.341 68.7278 236.291Z" fill="#263238"/>
<path d="M52.2976 230.714C52.3263 230.665 53.16 231.159 54.5542 231.851C55.9484 232.543 57.9248 233.404 60.1957 234.11C62.4667 234.823 64.5868 235.24 66.1247 235.487C67.6699 235.727 68.6329 235.811 68.6329 235.868C68.6329 235.889 68.3885 235.889 67.9502 235.875C67.5118 235.861 66.8793 235.811 66.096 235.72C64.5365 235.536 62.3877 235.148 60.0951 234.428C57.8026 233.715 55.8191 232.811 54.4464 232.055C53.7565 231.681 53.2175 231.357 52.851 231.109C52.4845 230.876 52.2832 230.735 52.2976 230.714Z" fill="#263238"/>
<g opacity="0.3">
<path d="M67.506 235.832C67.7288 236.214 67.4772 236.722 67.0963 236.941C66.7155 237.16 66.2411 237.16 65.8027 237.145C61.0236 236.969 56.3092 235.282 52.5362 232.387C52.1553 232.09 51.7528 231.547 52.0834 231.201C52.3637 230.904 52.8596 231.102 53.2117 231.307C57.7034 233.891 62.7556 235.515 67.93 236.044" fill="black"/>
</g>
<path d="M70.8594 202.502L100.447 196.212L106.627 194.708L111.507 197.603C112.204 198.012 112.671 198.711 112.779 199.502L113.203 202.608L112.607 203.116L113.383 204.521C113.728 205.143 113.656 205.905 113.203 206.463L108.223 202.785L111.478 207.275C111.478 207.275 110.86 207.882 109.315 207.783C107.77 207.684 103.911 202.481 103.911 202.481L101.381 202.093L106.706 207.72C106.706 207.72 106.951 208.193 105.815 208.595C104.68 208.997 98.7724 204.528 98.7724 204.528L71.0031 217.858" fill="#936760"/>
<path d="M70.9959 217.844C70.9959 217.844 71.039 217.815 71.1181 217.773C71.2115 217.724 71.3337 217.66 71.4918 217.582C71.8368 217.413 72.3326 217.166 72.9651 216.848C74.273 216.206 76.1703 215.281 78.585 214.109C83.4504 211.758 90.3784 208.412 98.7005 204.387C98.7508 204.359 98.8083 204.373 98.8514 204.401C100.052 205.298 101.324 206.195 102.675 207.049C103.35 207.473 104.047 207.889 104.788 208.214C105.154 208.355 105.564 208.546 105.858 208.397C106.045 208.327 106.225 208.235 106.362 208.122C106.512 208.023 106.584 207.84 106.556 207.776L106.584 207.811C104.888 206.025 103.099 204.133 101.259 202.192C101.194 202.128 101.201 202.022 101.266 201.959C101.302 201.923 101.36 201.909 101.403 201.916C102.193 202.036 103.056 202.17 103.932 202.305C103.976 202.312 104.019 202.34 104.04 202.368C104.996 203.625 106.024 204.889 107.181 206.068C107.763 206.632 108.381 207.24 109.092 207.55C109.804 207.706 110.781 207.593 111.356 207.148L111.335 207.36C111.033 206.943 110.702 206.484 110.372 206.032C109.603 204.966 108.834 203.914 108.079 202.869C108.022 202.792 108.043 202.693 108.122 202.636C108.187 202.594 108.266 202.594 108.323 202.636C109.682 203.639 111.033 204.634 112.355 205.616L112.851 205.983L113.095 206.166L113.218 206.258L113.282 206.301L113.297 206.315C113.505 206.286 113.016 206.35 113.067 206.343L113.074 206.336L113.095 206.308C113.325 206.018 113.44 205.644 113.426 205.284C113.419 204.91 113.246 204.599 113.038 204.239C112.844 203.886 112.65 203.54 112.463 203.187C112.427 203.117 112.441 203.032 112.499 202.989C112.7 202.82 112.894 202.651 113.095 202.481L113.038 202.622C112.909 201.662 112.779 200.716 112.65 199.777C112.6 198.845 112.068 198.047 111.256 197.631C109.646 196.671 108.072 195.739 106.548 194.835L106.663 194.849C105.348 195.167 104.062 195.478 102.797 195.781C101.532 196.085 100.303 196.395 99.0886 196.635C96.6595 197.144 94.3526 197.631 92.175 198.09C87.8271 199.001 84.011 199.798 80.8488 200.462C77.7011 201.111 75.2073 201.627 73.4897 201.98C72.6489 202.149 71.9949 202.276 71.5349 202.368C71.3193 202.411 71.154 202.439 71.0319 202.46C70.9169 202.481 70.8594 202.488 70.8594 202.481C70.8594 202.474 70.9169 202.46 71.0247 202.432C71.1468 202.403 71.3121 202.361 71.5205 202.312C71.9733 202.206 72.6273 202.065 73.461 201.874C75.1786 201.5 77.6652 200.956 80.7985 200.271C83.9535 199.594 87.7624 198.768 92.1103 197.829C94.2879 197.363 96.5948 196.868 99.0167 196.346C100.231 196.099 101.46 195.788 102.725 195.478C103.983 195.167 105.276 194.856 106.584 194.532C106.627 194.525 106.671 194.532 106.699 194.546C108.23 195.449 109.804 196.381 111.414 197.334C111.831 197.553 112.24 197.899 112.506 198.316C112.786 198.725 112.923 199.241 112.966 199.707C113.095 200.646 113.225 201.592 113.354 202.552C113.361 202.608 113.34 202.665 113.297 202.693C113.103 202.862 112.901 203.032 112.7 203.201L112.736 203.004C112.93 203.35 113.124 203.703 113.318 204.048C113.505 204.38 113.749 204.79 113.749 205.235C113.771 205.672 113.627 206.124 113.354 206.47L113.325 206.505L113.318 206.512V206.519C113.369 206.512 112.88 206.576 113.081 206.548L113.067 206.534L113.002 206.491L112.88 206.399L112.635 206.216L112.14 205.849C110.81 204.867 109.466 203.872 108.101 202.869L108.338 202.636C109.092 203.681 109.861 204.74 110.63 205.799C110.961 206.251 111.292 206.71 111.593 207.127L111.601 207.141C111.651 207.204 111.637 207.296 111.572 207.345C111.177 207.67 110.745 207.783 110.3 207.861C110.077 207.889 109.854 207.91 109.639 207.91C109.531 207.91 109.416 207.903 109.308 207.903C109.193 207.889 109.071 207.854 108.949 207.826C108.101 207.458 107.511 206.844 106.908 206.265C105.736 205.072 104.709 203.801 103.738 202.531L103.846 202.594C102.977 202.46 102.107 202.326 101.316 202.206L101.46 201.93C103.3 203.872 105.089 205.771 106.778 207.564L106.786 207.578C106.793 207.586 106.8 207.593 106.8 207.607C106.922 207.96 106.699 208.193 106.527 208.334C106.34 208.482 106.139 208.574 105.938 208.659C105.858 208.694 105.693 208.75 105.578 208.736C105.449 208.736 105.341 208.708 105.233 208.687C105.018 208.637 104.824 208.553 104.622 208.468C103.853 208.122 103.156 207.698 102.474 207.275C101.115 206.414 99.8432 205.51 98.643 204.606L98.794 204.62C90.4502 208.595 83.5007 211.913 78.6282 214.236C76.1991 215.38 74.2946 216.283 72.9723 216.905C72.3255 217.201 71.8296 217.434 71.4774 217.597C71.3193 217.667 71.19 217.724 71.0893 217.766C71.039 217.83 70.9959 217.851 70.9959 217.844Z" fill="#6F4C47"/>
<path d="M111.473 207.268C111.437 207.296 110.977 206.731 110.273 205.792C109.569 204.853 108.613 203.54 107.571 202.086C107.125 201.344 106.507 200.758 105.789 200.547C105.063 200.342 104.344 200.229 103.776 200.088C102.619 199.826 101.908 199.65 101.922 199.6C101.929 199.558 102.655 199.657 103.827 199.855C104.416 199.968 105.099 200.052 105.882 200.25C106.694 200.462 107.406 201.125 107.865 201.909C108.9 203.363 109.82 204.691 110.474 205.658C111.128 206.625 111.516 207.239 111.473 207.268Z" fill="#6F4C47"/>
<path d="M112.468 203.194C112.425 203.223 112.022 202.714 111.318 201.924C110.599 201.147 109.658 200.039 108.451 198.98C108.149 198.711 107.854 198.45 107.574 198.196C107.43 198.069 107.294 197.949 107.157 197.829L106.956 197.652C106.927 197.631 106.877 197.582 106.862 197.575C106.855 197.582 106.87 197.582 106.855 197.575L106.798 197.568C106.137 197.49 105.475 197.504 104.951 197.49C103.887 197.476 103.226 197.455 103.219 197.412C103.219 197.37 103.873 197.299 104.944 197.257C105.483 197.243 106.101 197.2 106.848 197.271L106.92 197.285C106.956 197.292 106.999 197.313 107.042 197.335C107.107 197.37 107.114 197.391 107.157 197.426L107.365 197.603C107.509 197.723 107.646 197.843 107.789 197.97C108.077 198.224 108.372 198.485 108.673 198.754C109.895 199.827 110.829 200.978 111.498 201.797C112.159 202.608 112.504 203.166 112.468 203.194Z" fill="#6F4C47"/>
<path d="M154.239 213.827L164.603 185.714C165.609 183.299 163.805 180.645 161.139 180.645H130.516C128.914 180.645 127.491 181.647 126.973 183.137L117.178 211.49L100.138 211.546C99.2112 211.553 98.4062 212.768 98.4062 213.678H104.012L116.646 213.657L154.239 213.827Z" fill="#E0E0E0"/>
<path d="M154.241 213.826C154.241 213.826 154.154 213.834 153.982 213.834C153.795 213.834 153.536 213.841 153.206 213.841C152.502 213.841 151.488 213.848 150.166 213.848C147.485 213.848 143.59 213.848 138.682 213.848C133.744 213.841 127.787 213.826 121.002 213.812C114.211 213.777 106.629 213.855 98.4147 213.841H98.2422V213.671C98.2494 213.248 98.3787 212.845 98.58 212.485C98.7812 212.125 99.0615 211.793 99.4424 211.567C99.6292 211.454 99.852 211.377 100.089 211.37C100.305 211.363 100.492 211.363 100.7 211.363C101.102 211.363 101.505 211.363 101.915 211.355C103.539 211.348 105.192 211.341 106.866 211.334C110.222 211.32 113.672 211.313 117.193 211.299L117.021 211.419C118.444 207.289 119.939 202.968 121.455 198.57C122.447 195.689 123.431 192.844 124.402 190.034C124.883 188.629 125.365 187.239 125.846 185.855C126.083 185.163 126.32 184.478 126.558 183.793C126.68 183.447 126.78 183.115 126.931 182.755C127.082 182.409 127.291 182.085 127.542 181.802C128.038 181.23 128.706 180.807 129.439 180.602C129.806 180.496 130.187 180.447 130.561 180.447H131.639C133.069 180.447 134.492 180.447 135.893 180.447C138.703 180.447 141.456 180.454 144.136 180.454C149.505 180.461 154.6 180.468 159.372 180.468C159.968 180.468 160.558 180.468 161.147 180.468C161.758 180.475 162.362 180.609 162.893 180.877C163.971 181.407 164.733 182.424 164.956 183.532C165.071 184.083 165.064 184.662 164.92 185.198C164.762 185.735 164.561 186.215 164.381 186.709C164.015 187.69 163.662 188.651 163.31 189.589C160.522 197.073 158.258 203.138 156.691 207.338C155.908 209.414 155.304 211.031 154.887 212.139C154.679 212.676 154.528 213.085 154.413 213.382C154.298 213.692 154.241 213.826 154.241 213.826C154.241 213.826 154.284 213.671 154.384 213.382C154.492 213.085 154.643 212.662 154.837 212.111C155.24 210.988 155.829 209.357 156.591 207.261C158.121 203.053 160.335 196.988 163.066 189.505C163.411 188.566 163.756 187.613 164.115 186.631C164.288 186.144 164.489 185.643 164.633 185.156C164.769 184.662 164.769 184.125 164.661 183.617C164.453 182.593 163.741 181.647 162.75 181.167C161.765 180.63 160.558 180.828 159.365 180.793C154.593 180.8 149.49 180.807 144.129 180.807C141.448 180.807 138.696 180.814 135.886 180.814C134.485 180.814 133.062 180.814 131.631 180.814C130.906 180.828 130.187 180.75 129.533 180.955C128.872 181.146 128.268 181.527 127.815 182.042C127.593 182.304 127.398 182.593 127.262 182.911C127.133 183.221 127.018 183.581 126.903 183.92C126.665 184.605 126.428 185.297 126.191 185.982C125.717 187.366 125.235 188.756 124.747 190.161C123.776 192.964 122.792 195.816 121.8 198.697C120.277 203.102 118.789 207.423 117.359 211.546L117.316 211.666H117.186C113.665 211.673 110.215 211.687 106.859 211.694C105.185 211.701 103.532 211.701 101.907 211.708C101.505 211.708 101.095 211.708 100.693 211.708C100.499 211.708 100.283 211.708 100.096 211.716C99.931 211.723 99.7658 211.779 99.6148 211.871C99.0112 212.238 98.6087 212.986 98.5871 213.678L98.4147 213.509C106.622 213.537 114.225 213.473 120.981 213.53C127.743 213.579 133.68 213.622 138.603 213.657C143.518 213.699 147.421 213.735 150.101 213.763C151.431 213.777 152.458 213.791 153.17 213.798C153.508 213.805 153.774 213.812 153.96 213.812C154.147 213.819 154.241 213.826 154.241 213.826Z" fill="#263238"/>
<path d="M130.777 180.743C130.791 180.751 130.762 180.863 130.69 181.089C130.604 181.351 130.503 181.668 130.374 182.05C130.065 182.932 129.655 184.125 129.152 185.573C128.103 188.538 126.637 192.633 124.984 197.137C123.338 201.648 121.829 205.729 120.715 208.673C120.169 210.099 119.716 211.278 119.379 212.153C119.228 212.528 119.098 212.838 118.998 213.092C118.904 213.304 118.854 213.417 118.84 213.41C118.825 213.403 118.854 213.29 118.926 213.064C119.012 212.803 119.113 212.485 119.242 212.104C119.551 211.221 119.961 210.028 120.464 208.581C121.513 205.616 122.979 201.521 124.632 197.01C126.278 192.498 127.787 188.425 128.901 185.481C129.447 184.048 129.9 182.876 130.238 182C130.389 181.626 130.518 181.315 130.618 181.061C130.712 180.849 130.769 180.736 130.777 180.743Z" fill="#263238"/>
<path d="M92.0463 218.804H188.52C189.957 218.804 191.129 217.653 191.129 216.241C191.129 214.829 189.957 213.678 188.52 213.678H92.0463C90.6089 213.678 89.4375 214.829 89.4375 216.241C89.4375 217.66 90.6017 218.804 92.0463 218.804Z" fill="#455A64"/>
<path d="M136.928 323.767H145.344V217.845H136.928V323.767Z" fill="#455A64"/>
<path d="M169.537 323.765H112.281C112.655 323.765 136.932 317.446 136.932 317.446H145.347L169.537 323.765Z" fill="#455A64"/>
<path d="M91.7969 218.585C91.7969 218.493 113.616 218.416 140.515 218.416C167.429 218.416 189.241 218.493 189.241 218.585C189.241 218.677 167.429 218.754 140.515 218.754C113.608 218.754 91.7969 218.677 91.7969 218.585Z" fill="#263238"/>
</svg>
