<?xml version="1.0" encoding="utf-8"?>
<!-- Generator: Adobe Illustrator 26.0.1, SVG Export Plug-In . SVG Version: 6.00 Build 0)  -->
<svg version="1.1" id="Layer_1" xmlns="http://www.w3.org/2000/svg" xmlns:xlink="http://www.w3.org/1999/xlink" x="0px" y="0px"
	 viewBox="0 0 373 276" style="enable-background:new 0 0 373 276;" xml:space="preserve">
<style type="text/css">
	.st0{fill:#D4EEFC;}
	.st1{fill:#7ABDE8;}
	.st2{fill:#1585C4;}
	.st3{fill:#FFFFFF;}
	.st4{fill:#0B0E12;}
	.st5{fill:#FF9D8C;}
	.st6{fill:#5095D0;}
	.st7{fill:#E27161;}
	.st8{fill:#1A202E;}
	.st9{fill:#DEE1EB;}
	.st10{fill:#818FB3;}
	.st11{fill:#F6F7FA;}
	.st12{fill:#D9DEE8;}
	.st13{fill:#B2B2B2;}
	.st14{fill:#BDC4D7;}
	.st15{fill:#13161C;}
	.st16{fill:#9CA6C3;}
</style>
<path class="st0" d="M63.9,265.7c0,0-46.4-33.1-59.8-89.4c-13.4-56.3,7-124.6,45.7-159C88.5-17.2,158.2,6,189.2,34.8
	s31,28.9,31,28.9s29.6,16.2,68.3,14.8c38.7-1.4,73.2,51.4,82.3,92.9c9.1,41.5-12.7,96.4-12.7,96.4L63.9,265.7z"/>
<path class="st0" d="M42.8,274.1c0,0-32.4-17.6-40.8-58.4c-8.4-40.8,28.1-78.1,31.7-98.5c3.5-20.4-4.2-45.7,28.1-65.5
	C94.2,32,151.9,39,173.7,34.1c21.8-4.9,47.2-38.7,90.8-31c43.6,7.7,85.9,31,88,81.6c2.1,50.7-14.1,52.1,2.1,79.5
	c16.2,27.5,22.5,46.4,14.8,74.6c-7.7,28.1-23.9,35.9-23.9,35.9L42.8,274.1z"/>
<path class="st0" d="M110.4,265c-2-2.1-31.5-61.2,1.3-115.4c32.9-54.2,115.5-47.9,148.4-26.7c32.9,21.1,49,48.6,52.4,77.4
	c3.4,28.9-18.8,73.9-18.8,73.9L110.4,265z"/>
<path class="st1" d="M317.5,170.5H283c-2.1,0-3.9-1.7-3.9-3.9v-17.2c0-2.1,1.7-3.9,3.9-3.9h34.5c2.1,0,3.9,1.7,3.9,3.9v17.2
	C321.3,168.8,319.6,170.5,317.5,170.5z"/>
<path class="st1" d="M300.2,180.2l5.5-13h-10.9L300.2,180.2z"/>
<path class="st2" d="M300.1,153.7h9.9v1.4l4.8-2.8l-4.8-2.8v1.4h-9.9V153.7z"/>
<path class="st3" d="M314.8,159.4h-9.9V158l-4.8,2.8l4.8,2.8v-1.4h9.9V159.4z"/>
<path class="st2" d="M294,161.9l-0.5,0.2c0,0-1.5-1.7-2.2-3.5c-0.8-1.8-0.8-4-0.8-4l0.3-0.1l-2.1-5c-0.4,0.3-0.7,0.7-1,1.2
	c-1.2,2-1.1,5.1,0.1,8.1c1.2,3,2.5,5.7,4.8,7.3c1.4,1,2.5,1.2,3.5,1L294,161.9z"/>
<path class="st2" d="M295.5,161.4l-0.6,0.2l2.1,5.1c0.2-0.1,0.5-0.2,0.6-0.3c0.5-0.3,0.8-1,0.6-1.6l-1.1-2.8
	C296.9,161.4,296.2,161.1,295.5,161.4z"/>
<path class="st2" d="M290.4,148.6c-0.3,0.1-0.5,0.2-0.8,0.4l2.1,5.1l0.7-0.3c0.6-0.3,0.9-1,0.7-1.6l-1.1-2.9
	C291.8,148.7,291.1,148.3,290.4,148.6z"/>
<path class="st4" d="M96.9,252.3v-57.6c0,0-0.6-15.5,7.5-20c8.2-4.5,42.5-2.1,42.5-2.1v79.7H96.9z"/>
<path class="st5" d="M157.8,118.8c0,0-2.1,17.4-2.9,18.9c-0.8,1.4-0.8,1.4-0.8,1.4l-4,2.7c0,0,7.7,10.9,17.1,12.6
	c9.4,1.8,8.6-3.8,8.6-3.8l-1.4-3l1.9-16.6C176.3,130.9,159.2,123.1,157.8,118.8z"/>
<path class="st3" d="M145.1,143.2l6.2-2.7c0,0,4,6.6,13.3,10.4c9.3,3.8,9.4,1.6,9.9,0c0.5-1.6-0.2-3.4-0.2-3.4l0.7-5.6l3.7,1.2
	l12.9,104.2l-33.1,1.6L145.1,143.2z"/>
<path class="st6" d="M175.7,142.1c0,0,2.2,5.2,4.3,17.3c2.1,12.2,4,32.6,4.5,46.7c0.5,14.1,0.8,46.2,0.8,46.2s41.3,0,41.8,0
	c0.5,0,3.4-15.8,3.4-15.8s-18.2-15.6-19.2-18.2c-0.6-1.7-0.3-33.3-3-47.9c-2.7-14.6-6.2-17.5-13.6-21.1
	C186.9,145.6,175.7,142.1,175.7,142.1z"/>
<path class="st2" d="M197.4,234c-0.2,0-0.4-0.2-0.4-0.4c0-1.1-0.2-17.4-0.4-33.1c-0.2-15.7-0.4-32-0.4-33.1c0-0.2,0.2-0.4,0.4-0.4
	c0.2,0,0.4,0.2,0.4,0.4c0,1.1,0.2,17.4,0.4,33.1c0.2,15.7,0.4,32,0.4,33.1C197.8,233.8,197.6,234,197.4,234z"/>
<path class="st6" d="M114.2,230.1l-0.3,22.2h48.6c0,0,2.1-18.9,1.3-20.6C163,229.9,114.2,230.1,114.2,230.1z"/>
<path class="st7" d="M168.4,137.2c2,1.6,4.7,2.9,6.8,3.7l1.1-9.9c0,0-12.9-5.9-17.2-10.3C160,125.6,162.2,132.2,168.4,137.2z"/>
<path class="st5" d="M191.3,86.3c0,0,3.4,5.8,4,12.8c0.6,7,0,25.1-5.8,32.8c-5.8,7.7-17.8,5.4-23.2,0.8c-5-4.3-9.9-9-11.2-18.2
	c-1.3-9.3,2.7-26.9,14.1-30.6C180.6,80.2,191.3,86.3,191.3,86.3z"/>
<path class="st5" d="M205.8,242.3c0,0-0.6,0-1.4,0c-0.2,0-0.4,0-0.7,0c-0.8,0-1.8,0-2.8-0.1c-0.2,0-0.5,0-0.7,0
	c-1,0-1.9,0.1-2.7,0.1h0c-0.2,0-0.4,0-0.6,0c-0.1,0-0.2,0-0.3,0c-0.5-0.1-0.6-0.2-1.1-0.4c-0.6-0.3-9.4-2.3-16.6-2.2
	c-7.1,0-13.6,0.5-14.6-0.4c-1.1-0.9-1.7-9.9,4.4-10.5l7.5,2.8c0,0,17.1-2,23.4,2.6C206,238.9,205.8,242.3,205.8,242.3z"/>
<path class="st7" d="M197.5,242.2c-0.2,0-0.4,0-0.6,0c-0.2-0.2-0.5-0.7-0.7-0.9c-1.9-2-6.6-3.2-8.3-3.7c-0.2,0-0.3-0.2-0.2-0.3
	c0-0.2,0.2-0.2,0.4-0.2c2.5,0.6,7.7,2.1,9.2,4.6C197.3,241.8,197.4,242.1,197.5,242.2z"/>
<path class="st7" d="M200.8,242.2c-0.2,0-0.5,0-0.7,0c-2.1-3.8-5.6-5-9.8-6.3l-0.3-0.1c-0.1,0-0.2-0.2-0.2-0.4
	c0-0.1,0.2-0.2,0.4-0.2l0.2,0.1C195,236.7,198.7,237.9,200.8,242.2z"/>
<path class="st7" d="M204.4,242.3c-0.2,0-0.4,0-0.7,0c-1.3-2.7-5.5-7.2-11.1-8.2c-0.2,0-0.3-0.2-0.2-0.3c0-0.2,0.2-0.3,0.3-0.2
	C198.4,234.5,203.1,239.2,204.4,242.3z"/>
<path class="st4" d="M159,106.5c0,0,3.5-1.7,6-6.4c2.5-4.7,2.2-9,2.2-9s4.5-0.7,11.2,1.3c6.7,2,14.7,4.7,21.4,0.9
	c6.7-3.8,6.7-10,3.4-12.6c-3.7-2.9-11-1.1-11-1.1s2.8-2.7,1.3-4.3c-1.5-1.6-7,0.5-7,0.5s-6.7-5.4-19.4-4.7s-18.8,9.5-19.5,19.4
	c-0.7,9.9,2.9,19.8,2.9,19.8L159,106.5z"/>
<path class="st7" d="M184.8,108.9c-0.7,1.8-0.7,3.8-0.9,5.7c-0.1,1.5-0.4,3.2,0.9,4.2c0.6,0.5,3.7,1.7,2.1,2.8
	c-0.6,0.4-1.6,0.3-2.3,0.3c-0.5,0-0.9,0-1.4-0.1c-0.5,0-1-0.2-1.5-0.2c-0.3,0-0.4,0.4-0.1,0.5c0.8,0.5,2,0.7,2.9,0.7
	c0.9,0,1.6,0,2.4-0.4c0.5-0.3,1-0.6,1.1-1.2c0.1-0.7-0.4-1.3-1-1.7c-0.6-0.4-1.3-0.7-2-1.1c-0.8-0.6-0.8-1.6-0.7-2.6
	c0.1-2.3,0.7-4.5,0.9-6.8C185.4,108.7,184.9,108.7,184.8,108.9z"/>
<path class="st8" d="M191.4,114.2c-0.2,1.3-1.2,2.3-2.2,2.1c-1-0.2-1.6-1.4-1.3-2.8c0.2-1.3,1.2-2.3,2.2-2.1
	C191,111.7,191.6,112.9,191.4,114.2z"/>
<path class="st8" d="M179.1,113.2c-0.2,1.5-1.2,2.5-2.3,2.3c-1.1-0.2-1.7-1.5-1.5-2.9c0.2-1.5,1.2-2.5,2.3-2.4
	C178.7,110.4,179.4,111.7,179.1,113.2z"/>
<path class="st8" d="M188.5,108.7c0.8,0.1,1.5,0,2.3,0.1c0.2,0,0.4,0,0.5,0.1c0.1,0-0.2,0-0.1,0c0,0,0.1,0,0.1,0
	c0.1,0,0.2,0,0.3,0.1c0.2,0,0.3,0.1,0.5,0.1c0.1,0,0.3,0.1,0.5,0.1c0.1,0,0.2,0,0.2,0c-0.1,0-0.1,0-0.2,0c0,0,0.3,0,0.3,0
	c0.4-0.1,0.7-0.6,0.6-1c0-0.1-0.1-0.2-0.2-0.3c0,0-0.1-0.1-0.1-0.1c0,0,0.1,0.1,0.1,0.1c0,0-0.1-0.1-0.1-0.1c0-0.1-0.1-0.1-0.2-0.2
	c-0.1,0-0.1-0.1-0.2-0.1c-0.2-0.1-0.5-0.2-0.7-0.3c-0.4-0.1-0.9-0.2-1.4-0.2c-0.5,0-0.9,0-1.4,0.1c-0.4,0.1-0.8,0.2-1.2,0.4
	c-0.2,0.2-0.4,0.4-0.4,0.8C188,108.3,188.2,108.6,188.5,108.7z"/>
<path class="st8" d="M180,106.6c-0.1-0.1-0.2-0.1-0.3-0.2c-0.1,0-0.3-0.2-0.2-0.1c-0.1,0-0.1-0.1-0.2-0.1c-0.3-0.2-0.6-0.3-1-0.3
	c-0.7-0.2-1.5-0.2-2.2-0.2c-0.8,0.1-1.5,0.3-2.2,0.7c-0.1,0.1-0.2,0.1-0.3,0.2c-0.1,0.1-0.1,0.1-0.2,0.2c0,0,0,0,0-0.1
	c-0.2,0.1-0.3,0.4-0.3,0.6c0,0.2,0.1,0.5,0.3,0.6c0.3,0.1,0.5,0.1,0.8,0c-0.1,0-0.3,0-0.4,0c0.2,0,0.4,0,0.6,0c0,0,0.2-0.1,0.1,0
	c-0.1,0,0.2,0,0.3,0c0,0,0.3,0,0,0c0,0,0.1,0,0.1,0c0.1,0,0.2,0,0.4,0c0.5,0,1.1-0.1,1.6-0.1c0.5,0,1,0,1.5,0c0.2,0,0.4,0,0.6,0
	c0.1,0,0.1,0,0,0c0,0,0.1,0,0.1,0c0.1,0,0.2,0.1,0.3,0.1c0.3,0.1,0.8-0.1,0.9-0.4C180.4,107.1,180.3,106.7,180,106.6z"/>
<path class="st8" d="M183.8,128.8c0.7-1.5,2.1-2.6,3.6-3.3c-1.3-0.1-7.7-0.7-9.3,0.2c-1.8,1,0.3,5.1,4,5.3c0.4,0,0.7,0,1.1-0.1
	C183.3,130.2,183.4,129.5,183.8,128.8z"/>
<path class="st9" d="M154.6,120.2c0,0,0.6,2.5,4.3,5.4c3.7,2.9,9,5,9,5l0.4-1.9c0,0-5.5-2.4-8.1-5c-2.6-2.6-2.9-4.1-2.9-4.1
	L154.6,120.2z"/>
<path class="st4" d="M168.9,127.3c3-0.1,4.6,2.2,4.8,3.7c0.2,1.5-1.2,3.2-4.5,1.7C165.1,130.9,166,127.4,168.9,127.3z"/>
<path class="st9" d="M156.9,101.9c0,0,1.3-9.2,7.4-15.4c11.8-11.9,21.8-11.2,21.8-11.2s-0.1-1.7-3.8-3c-3.5-1.2-5.1-0.6-5.1-0.6
	s-9.7,0.8-17.8,9.8c-8.2,9-9,20.6-9,20.6L156.9,101.9z"/>
<path class="st3" d="M156,100.8c-7.7-1.3-12,4.7-12.3,10.8c-0.3,6.1,4.1,10.7,10,10.2C166.9,120.8,165.4,102.4,156,100.8z"/>
<path class="st10" d="M152.2,115.9c-2,0-3.8-1-4.7-2.8c-1.1-1.9-1-4.3,0.2-6c0.1-0.1,0.3-0.2,0.4-0.1c0.1,0.1,0.2,0.3,0.1,0.4
	c-1.1,1.6-1.1,3.7-0.2,5.4c0.9,1.6,2.5,2.6,4.4,2.5c1.8,0,3.3-0.9,4.2-2.3c1.1-1.6,1.3-3.8,0.6-5.7c-0.7-1.8-2.6-3.1-4.3-2.8
	c-0.2,0-0.3-0.1-0.3-0.2c0-0.2,0.1-0.3,0.2-0.3c2-0.3,4.1,1.1,4.9,3.2c0.8,2,0.5,4.4-0.7,6.2c-1.1,1.6-2.7,2.5-4.7,2.5
	C152.3,115.9,152.2,115.9,152.2,115.9z"/>
<path class="st6" d="M146.6,141c0,0-23.4,5.8-31.5,15s-12,55-12.2,63.5c-0.2,8.5,5.8,12,9.3,14.4c3.5,2.4,19,6.7,31.5,7.4
	c12.5,0.6,24.3,0,24.3,0s0-2.7,1.9-6.7c1.8-3.7,4-4.5,4-4.5l-10.7-3.8c0,0-1.9-33.6-4.8-49.9C155,157.6,146.6,141,146.6,141z"/>
<path class="st2" d="M185.3,220.9c-0.1,0-0.1,0-0.2,0c-0.2-0.1-0.3-0.3-0.2-0.5c2.2-4.9,4.5-14.6,5.7-21.4l0.1-0.5
	c0.4-2,0.9-4.5-0.1-6.2c-0.5-0.9-1.6-2.8-2.7-4.6c-1.1-1.9-2.1-3.7-2.4-4.2c-0.6-1,1.2-3.8,3.8-7.7c0.7-1,1.3-1.9,1.6-2.5
	c0.9-1.6,0.3-3-0.4-4.7l-0.2-0.6c-0.6-1.6-1.4-3.1-2.1-4.7c-0.3-0.6-0.6-1.2-0.9-1.9c-0.4-0.8-0.8-1.7-1.1-2.5
	c-2.3-5-4.6-10.3-7.6-15.3c-0.1-0.2,0-0.4,0.1-0.5c0.2-0.1,0.4,0,0.5,0.1c3,5.1,5.4,10.3,7.6,15.4c0.4,0.8,0.8,1.7,1.1,2.5
	c0.3,0.6,0.6,1.2,0.9,1.9c0.7,1.5,1.4,3.1,2.1,4.7l0.2,0.6c0.7,1.7,1.5,3.5,0.4,5.4c-0.4,0.6-1,1.5-1.7,2.6c-1.3,2-4.1,6.1-3.7,6.9
	c0.3,0.5,1.3,2.3,2.4,4.2c1.1,1.8,2.2,3.7,2.7,4.6c1.1,2,0.6,4.6,0.2,6.7l-0.1,0.5c-0.5,2.5-2.9,15.2-5.8,21.6
	C185.6,220.8,185.4,220.9,185.3,220.9z"/>
<path class="st2" d="M162.5,222.3c-0.1,0-0.2,0-0.3-0.1c-1.8-1.8-10.6-17-11.2-19.9c-0.4-1.6,0.5-5.5,1.4-9.4c0.7-3,1.4-6,1.2-6.9
	c-0.3-1.2-2.5-3.1-4.7-4.8c-2.6-2.1-5.3-4.4-5.9-6.3c-0.6-2.3-0.1-16.4,0.2-25.8c0.1-3.4,0.2-6,0.2-7c0-0.2,0.2-0.4,0.4-0.4
	c0.2,0,0.4,0.2,0.4,0.4c0,1-0.1,3.6-0.2,7c-0.3,8.8-0.8,23.4-0.3,25.6c0.5,1.7,3.2,4,5.6,5.9c2.4,1.9,4.6,3.8,5,5.3
	c0.2,1-0.4,3.9-1.2,7.2c-0.8,3.6-1.7,7.6-1.4,9c0.6,2.8,9.2,17.7,11,19.5c0.1,0.2,0.1,0.4,0,0.5
	C162.7,222.2,162.6,222.3,162.5,222.3z"/>
<path class="st2" d="M131,215.6C131,215.6,131,215.6,131,215.6c-0.3,0-0.4-0.2-0.4-0.4c0.3-2,4.7-42.1,4.9-45.1
	c0-0.2,0.2-0.4,0.4-0.4c0.2,0,0.4,0.2,0.4,0.4c-0.2,3.1-4.6,43.2-4.9,45.2C131.4,215.5,131.2,215.6,131,215.6z"/>
<path class="st2" d="M162.9,226.5c0,0-0.1,0-0.1,0c-1-0.4-5.3-1.9-10.8-3.7c-11.1-3.7-26.3-8.9-29.2-10.4c-0.2-0.1-0.3-0.3-0.2-0.5
	c0.1-0.2,0.3-0.3,0.5-0.2c2.8,1.5,18.6,6.8,29.1,10.3c5.5,1.9,9.9,3.3,10.9,3.7c0.2,0.1,0.3,0.3,0.2,0.5
	C163.2,226.4,163,226.5,162.9,226.5z"/>
<path class="st2" d="M157.5,242.4c-9.8,0-28.7-1.8-43.1-6.8c-0.2-0.1-0.3-0.3-0.2-0.5c0.1-0.2,0.3-0.3,0.5-0.2
	c18.2,6.4,43.6,7.5,48.3,6.5c0.2,0,0.4,0.1,0.5,0.3c0,0.2-0.1,0.4-0.3,0.5C162.2,242.3,160.2,242.4,157.5,242.4z"/>
<path class="st1" d="M45.7,146.4c3,2.7,6.9,4.4,9.5,7.5c1,1.2,2,2.5,3,3.8c0.7,0.9,2.6,2.5,2.9,3.6c0.1,0.5,0.1-0.2,0-0.7
	c0,0,0,0,0-0.1c-0.3-2.4-0.5-4.7-0.5-7.1c-0.1-2.4,0.1-4.7-0.1-7.1c-0.2-3.3-1.3-6.6-4-8.6c-1.3-1-3-1.6-4.3-2.8
	c-1.2-1.1-0.7-2.3,0-3.5c0.6-1.1,1.4-2.2,1.7-3.5c0.3-1.5-0.3-3-1-4.2c-1.6-2.7-5.1-5.6-8.4-5.2c-2.8,0.3-3.1,3.5-3,5.8
	c0,2.2,0.3,4.3,0.3,6.5c0,2.2-0.4,4.4-0.4,6.6C41.2,141.1,42.9,144,45.7,146.4z"/>
<path class="st1" d="M73.9,181c0.8-2,1.8-3.9,3-5.7c1.6-2.5,3.4-5,4.5-7.8c1.1-2.9,1-5.9,1.1-9c0.1-2.2,0.7-4.4,0.6-6.7
	c-0.1-1.1-0.7-2.8-2.1-2.6c-1.1,0.1-1.7,1.5-2.1,2.3c-0.7,1.5-1.2,3.1-1.8,4.6c-0.2,0.6-0.4,1.2-0.7,1.8c-0.2,0.3-0.6,1.2-1.1,1.1
	c-0.8-0.2-0.1-3.4,0-4c0.6-2.9,1.5-5.5,1.6-8.4c0.2-4.3-0.2-9.3-4.3-11.7c-1.1-0.6-2.5-1-3.5-0.1c-1,0.9-1.3,2.5-1.5,3.7
	c-0.5,3.9,0.5,7.7,1.7,11.4c1,3.1,2.3,6.2,2.4,9.5c0.1,3.1-1.5,5.9-2.3,8.9c-1.2,4.7-1,7.2-1,8.8c0,1.9,0.1,3.8,0.2,5.7
	c0.1,1.8,0.3,3.5,0.5,5.3c0,0.4,0.1,0.7,0.1,1.1c-0.7-1.6-0.9-3.5-1.5-5.1c-1-2.9-2.1-5.8-3.1-8.7c-0.8-2.4-1.5-4.8-2.6-7.2
	c-1-2.2-2.2-4.5-4-6.1c-1.1-1-2.4-1.5-3.9-1.5c-0.9,0-1.8,0.3-2.7,0.6c-1.1,0.3-2,0.2-2.9-0.5c-3-2.3-3.9-6.4-6.1-9.3
	c-1.6-2.2-5.6-5.9-8.4-3.5c-1.5,1.3-1.9,3.7-1.9,5.5c0.1,2.3,1.1,4.5,2.3,6.4c1.3,2.1,3,3.9,4.1,6.1c0.7,1.3,0.8,2.5,0.7,3.9
	c-0.1,1.3-0.2,2.6,0.2,3.9c1.4,3.9,5.6,3.3,9,3.4c2.3,0.1,4.8,0.4,7,1.2c2.6,0.9,4.2,2.5,5.1,5c0.7,1.8,1,3.9,2.3,5.5
	c0.6,0.7,1.4,1.3,2.2,1.6c1.3,0.6,5.2,0.8,5.3,0.5c0.1-1.2,0.7-2.5,1-3.6C72.2,185.2,73,183.1,73.9,181z"/>
<path class="st1" d="M92.2,180.3c-0.3-2.2-0.3-4.7-1.3-6.7c-0.1-0.1-0.3-0.2-0.4-0.1c-0.8,0.4-0.8,1.6-0.8,2.4
	c-0.1,1.2,0,2.5-0.2,3.7c-0.3,2.2-0.8,4.4-1.5,6.4c-0.9,2.3-2.5,3.6-4.8,4.3c-1.5,0.5-3,0.9-4.2,1.9c-1.1,0.9-1.9,2.1-2.5,3.4
	c-1.6,3.5-2.3,7.4-3,11.1c-0.5,2.5-0.9,5-1.5,7.5c-0.6,2.5-1.3,4.9-1.6,7.5c-0.1,0.1-0.1,0.3-0.2,0.4c-0.2,0.4,0.4,0.6,0.6,0.3
	c2.4-3.7,5.3-7,9.3-9.1c1.8-0.9,4.2-1.1,5.7-2.6c1.1-1.1,1.3-2.8,1.1-4.3c-0.2-2-1.2-3.6-2.1-5.3c-0.5-0.9-1.2-1.9-1-3
	c0.2-1.1,1.1-1.8,1.9-2.4c1.7-1,3.6-1.5,5-3c1.3-1.4,2-3.1,2.1-5C93,185.4,92.6,182.7,92.2,180.3z"/>
<path class="st1" d="M59.5,193.1c-2.1-2.7-4.7-5.1-7.6-7c-1.5-1-5.2-3-5.9,0c-0.4,1.8,1.3,3.5,2.4,4.6c1.7,1.7,3.7,3.1,5.1,5
	c-1.8,0.6-3.6,0.7-5.2,1.9c-1.8,1.5-2.7,4.3-0.8,6.1c0.9,0.9,2.1,1.4,3.2,1.9c1.4,0.7,2.9,1.3,4.4,1.9c3.2,1.3,6.4,2.7,9.1,4.8
	c2.8,2.2,5.4,6,5.6,9.6c0,0.3-0.1,0,0.1-0.1c0.1,0.1,0.5-0.1,0.5-0.3c-0.1-5.4-1-10.5-3.2-15.4C65.1,201.6,62.5,197,59.5,193.1z"/>
<path class="st2" d="M52.2,143.1c1.2,2.4,2.4,4.8,3.7,7.2c1.3,2.3,2.5,4.5,3.4,7c1.2,3,2.4,5.9,3.6,8.9c1.3,3.1,2.4,6.2,3.3,9.4
	c1.8,6.3,3.1,12.7,3.7,19.2c0.3,3.3,0.5,6.6,0.4,9.9c-0.1,2.6-0.4,5.1-0.6,7.7c-0.3,2.7-0.4,5.4-0.2,8.1c0.2,2.2,0.5,4.9,2.3,6.5
	c0.3,0.3,0.8-0.1,0.6-0.5c-2.1-4.2-2-8.9-1.6-13.5c0.2-2.5,0.5-5.1,0.6-7.6c0.1-3.2,0-6.5-0.3-9.7c-0.6-6.4-1.9-12.6-3.5-18.8
	c-0.8-3.2-1.9-6.3-3.1-9.3c-1.2-3-2.6-6-3.8-9.1c-2.1-5.5-5.3-10.5-8.2-15.6C52.4,142.6,52,142.9,52.2,143.1z"/>
<path class="st2" d="M70,188.5c0.3-4,0.7-7.9,2-11.8c0.6-1.8,1.4-3.5,2-5.3c0.5-1.5,1.3-3.5,0.9-5.1c0-0.2-0.3-0.2-0.3,0
	c-0.3,0.9-0.2,1.9-0.4,2.8c-0.2,0.9-0.4,1.8-0.7,2.7c-0.6,1.9-1.4,3.6-2,5.5c-1.3,3.5-2,7.5-1.7,11.2C69.7,188.6,70,188.6,70,188.5z
	"/>
<path class="st2" d="M46.6,165.3c1.6,3.9,6.4,4.1,9.9,5c2.5,0.6,4.4,2.3,5.7,4.5c1.5,2.4,2.4,5.2,3.2,7.8c0,0,0.1,0,0,0
	c-1-4.6-2.4-10.2-7.2-12.4c-3.8-1.7-8.9-0.9-11.3-5C46.9,164.9,46.5,165,46.6,165.3z"/>
<path class="st2" d="M67.5,187.8c0.2,0.3,0.4,0.5,0.6,0.8c0.1,0.1,0.2,0.2,0.3,0.3c0.1,0.1,0.3,0.2,0.4,0.2c0.1,0,0.1-0.1,0.1-0.1
	c-0.1-0.1-0.2-0.2-0.3-0.3c-0.1-0.1-0.2-0.2-0.3-0.3C68,188.2,67.8,188,67.5,187.8C67.5,187.7,67.4,187.8,67.5,187.8z"/>
<path class="st2" d="M57.4,200.1c2.8,2.3,5.3,4.9,7.3,7.9c1,1.4,1.9,2.9,2.7,4.4c0.9,1.6,1.5,3.4,2.2,5.1c0.1,0.1,0.3,0.1,0.3,0
	c-0.4-3.6-2.7-6.8-4.5-9.8c-1-1.6-2.1-2.8-3.4-4.2c-1.3-1.4-2.7-2.6-4.2-3.7C57.5,199.7,57.3,200,57.4,200.1z"/>
<path class="st2" d="M79.4,195.8c-1.3,0.8-1.4,2.9-1.4,4.2c0,2.6,0.6,5-0.5,7.5c-1,2.2-2.7,4.1-3.9,6.1c-1.2,1.9-2.4,4.4-2.4,6.7
	c0,0.1,0.2,0.2,0.3,0.1c0.5-1.1,0.7-2.2,1-3.4c0.4-1.2,0.9-2.4,1.6-3.5c1.2-1.9,2.8-3.7,3.8-5.7c1.1-2.2,0.9-4.3,0.8-6.7
	c0-1.5-0.2-3.9,1-5C79.9,196,79.7,195.7,79.4,195.8z"/>
<path class="st3" d="M70.5,220.6c-5.4-0.1-15.6-0.1-15.6-0.1l2.5,18.8c0.6,4.2,4.2,7.4,8.4,7.4h4.4h0.4h4.4c4.3,0,7.9-3.1,8.4-7.4
	l2.5-18.8C86.1,220.5,75.9,220.5,70.5,220.6z"/>
<path class="st11" d="M329.6,186.1l-30.6,60.6l-89.2,0.6l27.5-62.1L329.6,186.1z"/>
<path class="st12" d="M150.7,246.9l0-4.8h57.7l26.6-58.2h92.3l2.3,2.2h-90.2l-27.6,60.8C211.9,246.9,150.7,246.8,150.7,246.9z"/>
<path class="st12" d="M283.3,219.5c-1,3-6.5,5.4-12.2,5.2s-9.6-2.7-8.6-5.7c1-3,6.5-5.4,12.2-5.2
	C280.5,213.9,284.3,216.5,283.3,219.5z"/>
<path class="st3" d="M211.9,247.3c-0.1,0-0.1,0-0.2,0c-0.2-0.1-0.3-0.3-0.2-0.5l27.7-61h90.4c0.2,0,0.4,0.2,0.4,0.4
	c0,0.2-0.2,0.4-0.4,0.4h-89.9l-27.5,60.6C212.2,247.2,212,247.3,211.9,247.3z"/>
<path class="st8" d="M146.7,251.5H40.7v23.5h106.1V251.5z"/>
<path class="st13" d="M336.9,251.5H146.1v23.5h190.8V251.5z"/>
<path class="st14" d="M146.7,251.5h-0.6H40.7v4.3h105.5h0.6h190.2v-4.3H146.7z"/>
<path class="st15" d="M151.4,246.9H35.5v5.8h115.8V246.9z"/>
<path class="st16" d="M341.6,246.9H150.8v5.8h190.8V246.9z"/>
<path class="st3" d="M119.9,123.5H82.5c-2.3,0-4.2-1.9-4.2-4.2v-18.7c0-2.3,1.9-4.2,4.2-4.2h37.4c2.3,0,4.2,1.9,4.2,4.2v18.7
	C124.1,121.6,122.3,123.5,119.9,123.5z"/>
<path class="st3" d="M134.8,110l-14.1-5.9v11.9L134.8,110z"/>
<path class="st2" d="M92.3,112.6c1.4,0,2.6-1.2,2.6-2.6c0-1.4-1.2-2.6-2.6-2.6c-1.4,0-2.6,1.2-2.6,2.6
	C89.7,111.4,90.9,112.6,92.3,112.6z"/>
<path class="st2" d="M101.2,112.6c1.4,0,2.6-1.2,2.6-2.6c0-1.4-1.2-2.6-2.6-2.6c-1.4,0-2.6,1.2-2.6,2.6
	C98.6,111.4,99.8,112.6,101.2,112.6z"/>
<path class="st2" d="M110.1,112.6c1.4,0,2.6-1.2,2.6-2.6c0-1.4-1.2-2.6-2.6-2.6c-1.4,0-2.6,1.2-2.6,2.6
	C107.5,111.4,108.7,112.6,110.1,112.6z"/>
<path class="st2" d="M310.5,38.9h-86.4c-5.6,0-10.1,4.5-10.1,10.1v41c0,5.6,4.5,10.1,10.1,10.1h7.7c0.2,3.7-0.3,9.2-3.4,16.3
	c10-4.6,15.7-11.5,18.7-16.3h63.4c5.6,0,10.1-4.5,10.1-10.1V49C320.6,43.4,316.1,38.9,310.5,38.9z"/>
<path class="st3" d="M273.7,58.5h-42.9c-1.2,0-2.1-1-2.1-2.1c0-1.2,1-2.1,2.1-2.1h42.9c1.2,0,2.1,1,2.1,2.1
	C275.8,57.5,274.8,58.5,273.7,58.5z"/>
<path class="st0" d="M304.4,70.9H230c-0.7,0-1.3-0.6-1.3-1.3c0-0.7,0.6-1.3,1.3-1.3h74.4c0.7,0,1.3,0.6,1.3,1.3
	C305.7,70.3,305.1,70.9,304.4,70.9z"/>
<path class="st0" d="M304.4,78.2H230c-0.7,0-1.3-0.6-1.3-1.3c0-0.7,0.6-1.3,1.3-1.3h74.4c0.7,0,1.3,0.6,1.3,1.3
	C305.7,77.6,305.1,78.2,304.4,78.2z"/>
<path class="st0" d="M288.2,85.9H230c-0.7,0-1.3-0.6-1.3-1.3c0-0.7,0.6-1.3,1.3-1.3h58.2c0.7,0,1.3,0.6,1.3,1.3
	C289.5,85.3,288.9,85.9,288.2,85.9z"/>
<path class="st3" d="M303.8,58.5h-20.4c-1.2,0-2.1-1-2.1-2.1c0-1.2,1-2.1,2.1-2.1h20.4c1.2,0,2.1,1,2.1,2.1
	C306,57.5,305,58.5,303.8,58.5z"/>
<path class="st3" d="M252.3,152.8h-23.2c-0.9,0-1.5-0.7-1.5-1.5v-15.9c0-0.9,0.7-1.5,1.5-1.5h23.2c0.9,0,1.5,0.7,1.5,1.5v15.9
	C253.8,152.1,253.1,152.8,252.3,152.8z"/>
<path class="st1" d="M240.8,146.1c-0.1,0-0.3,0-0.4-0.1l-12.6-10.4c-0.2-0.2-0.3-0.6-0.1-0.8c0.2-0.2,0.6-0.3,0.8-0.1l12.3,10.1
	l11.9-10.4c0.2-0.2,0.6-0.2,0.8,0.1c0.2,0.2,0.2,0.6-0.1,0.8L241.2,146C241.1,146.1,241,146.1,240.8,146.1z"/>
<path class="st1" d="M228.2,152.3c-0.1,0-0.3-0.1-0.4-0.2c-0.2-0.2-0.2-0.6,0-0.8l8.8-9.3c0.2-0.2,0.6-0.2,0.8,0
	c0.2,0.2,0.2,0.6,0,0.8l-8.8,9.3C228.5,152.3,228.4,152.3,228.2,152.3z"/>
<path class="st1" d="M253.2,152c-0.1,0-0.3-0.1-0.4-0.2l-8.8-8.8c-0.2-0.2-0.2-0.6,0-0.8c0.2-0.2,0.6-0.2,0.8,0l8.8,8.8
	c0.2,0.2,0.2,0.6,0,0.8C253.4,152,253.3,152,253.2,152z"/>
<path class="st2" d="M255,141c4.3,0,7.8-3.5,7.8-7.8c0-4.3-3.5-7.8-7.8-7.8s-7.8,3.5-7.8,7.8C247.3,137.5,250.7,141,255,141z"/>
<path class="st3" d="M253.1,133l0-0.2c0.2,0.1,0.4,0.2,0.6,0.4s0.3,0.3,0.4,0.5c0.1,0.2,0.1,0.4,0.1,0.6c0,0.3-0.1,0.7-0.3,0.9
	c-0.2,0.3-0.4,0.5-0.8,0.7c-0.3,0.2-0.7,0.3-1.1,0.3s-0.7-0.1-1.1-0.3c-0.3-0.2-0.6-0.4-0.8-0.7c-0.2-0.3-0.3-0.6-0.3-0.9
	c0-0.3,0.1-0.5,0.2-0.7c0.1-0.2,0.3-0.4,0.4-0.5c0.2-0.1,0.4-0.3,0.5-0.3L251,133c-0.1-0.1-0.3-0.1-0.4-0.3
	c-0.1-0.1-0.3-0.3-0.3-0.4c-0.1-0.2-0.1-0.4-0.1-0.6c0-0.3,0.1-0.6,0.3-0.9c0.2-0.3,0.4-0.5,0.7-0.7c0.3-0.2,0.6-0.2,1-0.2
	c0.4,0,0.7,0.1,1,0.2c0.3,0.2,0.5,0.4,0.7,0.7c0.2,0.3,0.3,0.6,0.3,0.9c0,0.3-0.1,0.5-0.2,0.6c-0.1,0.2-0.2,0.3-0.4,0.4
	S253.2,133,253.1,133z M251.2,131.8c0,0.2,0,0.3,0.1,0.4c0.1,0.1,0.2,0.2,0.3,0.3c0.1,0.1,0.3,0.1,0.4,0.1s0.3,0,0.4-0.1
	c0.1-0.1,0.2-0.2,0.3-0.3c0.1-0.1,0.1-0.3,0.1-0.4c0-0.2-0.1-0.4-0.3-0.6c-0.2-0.2-0.4-0.2-0.6-0.2c-0.3,0-0.5,0.1-0.6,0.2
	C251.3,131.3,251.2,131.5,251.2,131.8z M252,135.2c0.3,0,0.5-0.1,0.7-0.3c0.2-0.2,0.3-0.4,0.3-0.6c0-0.2,0-0.3-0.1-0.5
	c-0.1-0.1-0.2-0.2-0.4-0.3c-0.2-0.1-0.3-0.1-0.5-0.1s-0.4,0-0.5,0.1c-0.2,0.1-0.3,0.2-0.4,0.3s-0.1,0.3-0.1,0.5
	c0,0.3,0.1,0.5,0.3,0.6C251.5,135.2,251.8,135.2,252,135.2z M256.7,136.3c-0.2,0-0.5,0-0.7-0.1c-0.3-0.1-0.5-0.2-0.6-0.3
	c-0.1-0.1-0.1-0.1-0.2-0.3c0-0.1-0.1-0.2-0.1-0.3c0-0.1,0-0.2,0.1-0.3c0.1-0.1,0.2-0.1,0.4-0.1c0.1,0,0.2,0.1,0.4,0.2
	c0.1,0.1,0.2,0.1,0.3,0.2c0.1,0,0.2,0.1,0.4,0.1c0.3,0,0.5-0.1,0.7-0.2c0.2-0.1,0.4-0.3,0.5-0.4c0.1-0.2,0.2-0.4,0.2-0.7
	c0-0.2-0.1-0.4-0.2-0.6c-0.1-0.2-0.2-0.3-0.4-0.4c-0.2-0.1-0.4-0.1-0.5-0.1c-0.2,0-0.3,0-0.5,0.1s-0.3,0.1-0.4,0.2
	c-0.1,0.1-0.2,0.1-0.3,0.1c-0.2,0-0.3,0-0.4-0.1c-0.1-0.1-0.2-0.2-0.2-0.3s0-0.2,0-0.3l0.3-2.2c0-0.1,0.1-0.2,0.2-0.3
	c0.1-0.1,0.2-0.1,0.4-0.1h2.6c0.1,0,0.3,0,0.4,0.1c0.1,0.1,0.1,0.2,0.1,0.4c0,0.1,0,0.3-0.1,0.4c-0.1,0.1-0.2,0.1-0.4,0.1h-2.3
	l0.1-0.1l-0.2,1.8l-0.1-0.3c0-0.1,0.1-0.1,0.2-0.2s0.3-0.1,0.4-0.1c0.2,0,0.3-0.1,0.5-0.1c0.4,0,0.8,0.1,1.1,0.3
	c0.3,0.2,0.6,0.4,0.7,0.7c0.2,0.3,0.3,0.7,0.3,1.1c0,0.4-0.1,0.8-0.3,1.2c-0.2,0.3-0.5,0.6-0.9,0.8
	C257.6,136.2,257.2,136.3,256.7,136.3z"/>
<path class="st2" d="M333,130.4h-45.3c-1.7,0-3.1-1.4-3.1-3.1v-7.1c0-1.7,1.4-3.1,3.1-3.1H333c1.7,0,3.1,1.4,3.1,3.1v7.1
	C336.1,129,334.7,130.4,333,130.4z"/>
<path class="st3" d="M290.9,127.2c-0.2,0-0.4-0.1-0.5-0.2c-0.1-0.1-0.2-0.3-0.2-0.5l0.2-1.7c0,0,0-0.1,0-0.1c0,0-0.1,0-0.1,0l-1.4,1
	c-0.2,0.1-0.4,0.2-0.5,0.1c-0.2,0-0.3-0.1-0.5-0.3c-0.1-0.2-0.2-0.4-0.1-0.6c0.1-0.2,0.2-0.3,0.4-0.4l1.6-0.7c0,0,0.1,0,0.1-0.1
	c0,0,0-0.1-0.1-0.1l-1.6-0.7c-0.2-0.1-0.3-0.2-0.4-0.4c-0.1-0.2,0-0.4,0.1-0.6c0.1-0.2,0.3-0.3,0.5-0.3c0.2,0,0.4,0,0.5,0.1l1.4,1
	c0,0,0.1,0,0.1,0c0,0,0,0,0-0.1l-0.2-1.7c0-0.2,0-0.4,0.2-0.5c0.1-0.1,0.3-0.2,0.5-0.2c0.2,0,0.4,0.1,0.5,0.2
	c0.1,0.1,0.2,0.3,0.2,0.5l-0.2,1.7c0,0,0,0.1,0,0.1c0,0,0.1,0,0.1,0l1.4-1c0.2-0.1,0.4-0.2,0.6-0.1c0.2,0,0.3,0.1,0.4,0.3
	c0.1,0.2,0.2,0.4,0.1,0.6c-0.1,0.2-0.2,0.3-0.4,0.4l-1.6,0.7c0,0-0.1,0-0.1,0.1c0,0,0,0.1,0.1,0.1l1.6,0.7c0.2,0.1,0.3,0.2,0.4,0.4
	c0.1,0.2,0,0.4-0.1,0.6c-0.1,0.2-0.2,0.3-0.4,0.3c-0.2,0-0.4,0-0.6-0.1l-1.4-1c0,0-0.1,0-0.1,0c0,0,0,0,0,0.1l0.2,1.7
	c0,0.2,0,0.4-0.2,0.5C291.3,127.2,291.1,127.2,290.9,127.2z"/>
<path class="st3" d="M300.3,127.2c-0.2,0-0.4-0.1-0.5-0.2c-0.1-0.1-0.2-0.3-0.2-0.5l0.2-1.7c0,0,0-0.1,0-0.1c0,0-0.1,0-0.1,0l-1.4,1
	c-0.2,0.1-0.4,0.2-0.5,0.1c-0.2,0-0.3-0.1-0.5-0.3c-0.1-0.2-0.2-0.4-0.1-0.6c0.1-0.2,0.2-0.3,0.4-0.4l1.6-0.7c0,0,0.1,0,0.1-0.1
	c0,0,0-0.1-0.1-0.1l-1.6-0.7c-0.2-0.1-0.3-0.2-0.4-0.4c-0.1-0.2,0-0.4,0.1-0.6c0.1-0.2,0.3-0.3,0.5-0.3c0.2,0,0.4,0,0.5,0.1l1.4,1
	c0,0,0.1,0,0.1,0c0,0,0,0,0-0.1l-0.2-1.7c0-0.2,0-0.4,0.2-0.5c0.1-0.1,0.3-0.2,0.5-0.2c0.2,0,0.4,0.1,0.5,0.2
	c0.1,0.1,0.2,0.3,0.2,0.5l-0.2,1.7c0,0,0,0.1,0,0.1c0,0,0.1,0,0.1,0l1.4-1c0.2-0.1,0.4-0.2,0.6-0.1c0.2,0,0.3,0.1,0.4,0.3
	c0.1,0.2,0.2,0.4,0.1,0.6c-0.1,0.2-0.2,0.3-0.4,0.4l-1.6,0.7c0,0-0.1,0-0.1,0.1c0,0,0,0.1,0.1,0.1l1.6,0.7c0.2,0.1,0.3,0.2,0.4,0.4
	c0.1,0.2,0,0.4-0.1,0.6c-0.1,0.2-0.2,0.3-0.4,0.3c-0.2,0-0.4,0-0.6-0.1l-1.4-1c0,0-0.1,0-0.1,0c0,0,0,0,0,0.1l0.2,1.7
	c0,0.2,0,0.4-0.2,0.5C300.7,127.2,300.5,127.2,300.3,127.2z"/>
<path class="st3" d="M309.7,127.2c-0.2,0-0.4-0.1-0.5-0.2c-0.1-0.1-0.2-0.3-0.2-0.5l0.2-1.7c0,0,0-0.1,0-0.1c0,0-0.1,0-0.1,0l-1.4,1
	c-0.2,0.1-0.4,0.2-0.5,0.1c-0.2,0-0.3-0.1-0.5-0.3c-0.1-0.2-0.2-0.4-0.1-0.6c0.1-0.2,0.2-0.3,0.4-0.4l1.6-0.7c0,0,0.1,0,0.1-0.1
	c0,0,0-0.1-0.1-0.1L307,123c-0.2-0.1-0.3-0.2-0.4-0.4c-0.1-0.2,0-0.4,0.1-0.6c0.1-0.2,0.3-0.3,0.5-0.3c0.2,0,0.4,0,0.5,0.1l1.4,1
	c0,0,0.1,0,0.1,0c0,0,0,0,0-0.1L309,121c0-0.2,0-0.4,0.2-0.5c0.1-0.1,0.3-0.2,0.5-0.2c0.2,0,0.4,0.1,0.5,0.2
	c0.1,0.1,0.2,0.3,0.2,0.5l-0.2,1.7c0,0,0,0.1,0,0.1c0,0,0.1,0,0.1,0l1.4-1c0.2-0.1,0.4-0.2,0.6-0.1c0.2,0,0.3,0.1,0.4,0.3
	c0.1,0.2,0.2,0.4,0.1,0.6c-0.1,0.2-0.2,0.3-0.4,0.4l-1.6,0.7c0,0-0.1,0-0.1,0.1c0,0,0,0.1,0.1,0.1l1.6,0.7c0.2,0.1,0.3,0.2,0.4,0.4
	c0.1,0.2,0,0.4-0.1,0.6c-0.1,0.2-0.2,0.3-0.4,0.3c-0.2,0-0.4,0-0.6-0.1l-1.4-1c0,0-0.1,0-0.1,0c0,0,0,0,0,0.1l0.2,1.7
	c0,0.2,0,0.4-0.2,0.5C310.1,127.2,309.9,127.2,309.7,127.2z"/>
<path class="st3" d="M319,127.2c-0.2,0-0.4-0.1-0.5-0.2c-0.1-0.1-0.2-0.3-0.2-0.5l0.2-1.7c0,0,0-0.1,0-0.1c0,0-0.1,0-0.1,0l-1.4,1
	c-0.2,0.1-0.4,0.2-0.5,0.1c-0.2,0-0.3-0.1-0.5-0.3c-0.1-0.2-0.2-0.4-0.1-0.6c0.1-0.2,0.2-0.3,0.4-0.4l1.6-0.7c0,0,0.1,0,0.1-0.1
	c0,0,0-0.1-0.1-0.1l-1.6-0.7c-0.2-0.1-0.3-0.2-0.4-0.4c-0.1-0.2,0-0.4,0.1-0.6c0.1-0.2,0.3-0.3,0.5-0.3c0.2,0,0.4,0,0.5,0.1l1.4,1
	c0,0,0.1,0,0.1,0c0,0,0,0,0-0.1l-0.2-1.7c0-0.2,0-0.4,0.2-0.5c0.1-0.1,0.3-0.2,0.5-0.2c0.2,0,0.4,0.1,0.5,0.2
	c0.1,0.1,0.2,0.3,0.2,0.5l-0.2,1.7c0,0,0,0.1,0,0.1c0,0,0.1,0,0.1,0l1.4-1c0.2-0.1,0.4-0.2,0.6-0.1c0.2,0,0.3,0.1,0.4,0.3
	c0.1,0.2,0.2,0.4,0.1,0.6c-0.1,0.2-0.2,0.3-0.4,0.4l-1.6,0.7c0,0-0.1,0-0.1,0.1c0,0,0,0.1,0.1,0.1l1.6,0.7c0.2,0.1,0.3,0.2,0.4,0.4
	c0.1,0.2,0,0.4-0.1,0.6c-0.1,0.2-0.2,0.3-0.4,0.3c-0.2,0-0.4,0-0.6-0.1l-1.4-1c0,0-0.1,0-0.1,0c0,0,0,0,0,0.1l0.2,1.7
	c0,0.2,0,0.4-0.2,0.5C319.4,127.2,319.2,127.2,319,127.2z"/>
<path class="st1" d="M328.4,127.2c-0.2,0-0.4-0.1-0.5-0.2c-0.1-0.1-0.2-0.3-0.2-0.5l0.2-1.7c0,0,0-0.1,0-0.1c0,0-0.1,0-0.1,0l-1.4,1
	c-0.2,0.1-0.4,0.2-0.5,0.1c-0.2,0-0.3-0.1-0.5-0.3c-0.1-0.2-0.2-0.4-0.1-0.6c0.1-0.2,0.2-0.3,0.4-0.4l1.6-0.7c0,0,0.1,0,0.1-0.1
	c0,0,0-0.1-0.1-0.1l-1.6-0.7c-0.2-0.1-0.3-0.2-0.4-0.4c-0.1-0.2,0-0.4,0.1-0.6c0.1-0.2,0.3-0.3,0.5-0.3c0.2,0,0.4,0,0.5,0.1l1.4,1
	c0,0,0.1,0,0.1,0c0,0,0,0,0-0.1l-0.2-1.7c0-0.2,0-0.4,0.2-0.5c0.1-0.1,0.3-0.2,0.5-0.2c0.2,0,0.4,0.1,0.5,0.2
	c0.1,0.1,0.2,0.3,0.2,0.5l-0.2,1.7c0,0,0,0.1,0,0.1c0,0,0.1,0,0.1,0l1.4-1c0.2-0.1,0.4-0.2,0.6-0.1c0.2,0,0.3,0.1,0.4,0.3
	c0.1,0.2,0.2,0.4,0.1,0.6c-0.1,0.2-0.2,0.3-0.4,0.4l-1.6,0.7c0,0-0.1,0-0.1,0.1c0,0,0,0.1,0.1,0.1l1.6,0.7c0.2,0.1,0.3,0.2,0.4,0.4
	c0.1,0.2,0,0.4-0.1,0.6c-0.1,0.2-0.2,0.3-0.4,0.3c-0.2,0-0.4,0-0.6-0.1l-1.4-1c0,0-0.1,0-0.1,0c0,0,0,0,0,0.1l0.2,1.7
	c0,0.2,0,0.4-0.2,0.5C328.8,127.2,328.6,127.2,328.4,127.2z"/>
</svg>
