<?xml version="1.0" encoding="UTF-8"?>
<svg xmlns="http://www.w3.org/2000/svg" viewBox="0 0 64 64" width="512" height="512"><g id="Outline"><g id="Outline-2" data-name="Outline"><path d="M23.565,40.2l-.692,4.253a1.076,1.076,0,0,0,1.345,1.161l.314,3.04H23.86a1,1,0,0,0-1,1V54.7a1,1,0,0,0,1,1h1.389l.131,1.255a4.7,4.7,0,0,0,1.849,3.621A6.64,6.64,0,0,0,31.42,62c3.314,0,6.015-2.258,6.05-5.044L37.6,55.7H38.99a1,1,0,0,0,1-1V49.65a1,1,0,0,0-1-1h-.672l.314-3.04a1.075,1.075,0,0,0,1.345-1.161L39.285,40.2A20.037,20.037,0,0,0,51.34,21.91a19.693,19.693,0,0,0-3.159-10.723L52.2,7.178A1,1,0,0,0,51.49,5.47H49.21V3.18A1,1,0,0,0,47.5,2.473L43.711,6.265A19.9,19.9,0,1,0,23.565,40.2ZM35.476,56.8a.907.907,0,0,0-.006.1c0,1.709-1.817,3.1-4.05,3.1a4.647,4.647,0,0,1-2.934-.979A2.734,2.734,0,0,1,27.38,56.9c0-.035,0-.069,0-.1l-.115-1.1h8.33Zm2.514-3.1H24.86V50.65H37.99Zm-1.682-5.05H26.542l-.313-3.04H36.622ZM48.21,7.47h.862L46.2,10.34l0,0-.867.867H43.46V9.344l3.75-3.75V6.47A1,1,0,0,0,48.21,7.47Zm-8.3,14.462a8.328,8.328,0,0,0-1.733-4.171l2.213-2.212a11.437,11.437,0,0,1,2.646,6.383Zm-3.147-5.585a8.337,8.337,0,0,0-4.17-1.733V11.488a11.437,11.437,0,0,1,6.383,2.647ZM30.6,14.614a8.4,8.4,0,0,0-7.318,7.318H20.151A11.5,11.5,0,0,1,30.6,11.488Zm-7.318,9.318A8.393,8.393,0,0,0,30.6,31.249v3.126A11.5,11.5,0,0,1,20.151,23.932ZM31.6,29.314a6.383,6.383,0,1,1,3.744-11.541L33.5,19.616a3.8,3.8,0,0,0-1.9-.524,3.84,3.84,0,1,0,3.839,3.84,3.8,3.8,0,0,0-.524-1.9l1.843-1.842A6.37,6.37,0,0,1,31.6,29.314Zm1.839-6.382a1.84,1.84,0,1,1-1.839-1.84A1.841,1.841,0,0,1,33.434,22.932ZM31.42,4A17.919,17.919,0,0,1,42.3,7.677l-.546.546a1,1,0,0,0-.293.707v2.722l-1.069,1.069a13.42,13.42,0,0,0-7.8-3.233V7.553a1,1,0,1,0-2,0V9.488A13.5,13.5,0,0,0,18.151,21.932H16.215a1,1,0,0,0,0,2h1.936A13.5,13.5,0,0,0,30.6,36.375v1.936a1,1,0,1,0,2,0V36.386a13.45,13.45,0,0,0,5.912-1.863,1,1,0,1,0-1.026-1.717A11.436,11.436,0,0,1,32.6,34.359v-3.11a8.391,8.391,0,0,0,7.317-7.317h3.125a11.355,11.355,0,0,1-.972,3.748,1,1,0,0,0,1.822.827,13.344,13.344,0,0,0,1.149-4.575h1.938a1,1,0,0,0,0-2H45.038a13.414,13.414,0,0,0-3.233-7.8l.925-.925h3.01a1,1,0,0,0,.707-.293l.293-.292a17.726,17.726,0,0,1,2.6,9.285A18.018,18.018,0,0,1,37.813,38.636a1,1,0,0,0-.63,1.094l.631,3.88H25.036l.631-3.88a1,1,0,0,0-.629-1.094A17.905,17.905,0,0,1,31.42,4Z"/><circle cx="41" cy="31" r="1"/></g></g></svg>
