<?xml version="1.0" encoding="UTF-8"?>
<svg id="Layer_1" data-name="Layer 1" xmlns="http://www.w3.org/2000/svg" viewBox="0 0 500 500">
  <defs>
    <style>
      .cls-1 {
        fill: #ebebeb;
      }

      .cls-2 {
        fill: #f0f0f0;
      }

      .cls-3 {
        fill: #e6e6e6;
      }

      .cls-4 {
        fill: #f5f5f5;
      }

      .cls-5 {
        fill: #e96959;
      }

      .cls-6, .cls-7 {
        fill: #fff;
      }

      .cls-8 {
        fill: #ffbf9d;
      }

      .cls-9 {
        fill: #fafafa;
      }

      .cls-10 {
        fill: #ff9a6c;
      }

      .cls-11 {
        fill: #e0e0e0;
      }

      .cls-12 {
        fill: #d3efd9;
      }

      .cls-13 {
        fill: #37474f;
      }

      .cls-14, .cls-15 {
        fill: #455a64;
      }

      .cls-16 {
        fill: #263238;
      }

      .cls-17 {
        fill: #5cbb61;
      }

      .cls-7, .cls-18, .cls-15, .cls-19, .cls-20, .cls-21, .cls-22, .cls-23 {
        isolation: isolate;
      }

      .cls-7, .cls-22 {
        opacity: .2;
      }

      .cls-18 {
        opacity: .1;
      }

      .cls-15, .cls-24, .cls-23 {
        opacity: .5;
      }

      .cls-19 {
        opacity: .7;
      }

      .cls-25 {
        opacity: .6;
      }

      .cls-20 {
        opacity: .15;
      }

      .cls-21 {
        opacity: .3;
      }
    </style>
  </defs>
  <g id="freepik--Floor--inject-2">
    <ellipse id="freepik--floor--inject-2" class="cls-2" cx="250" cy="342.62" rx="235.61" ry="136.03"/>
  </g>
  <g id="freepik--Shadows--inject-2">
    <path id="freepik--Shadow--inject-2" class="cls-11" d="M71.07,391.06l-40.64-23.41c-2.29-1.33-2.29-3.47,0-4.79l236.4-136.53c2.61-1.33,5.69-1.33,8.3,0l40.64,23.46c2.29,1.32,2.29,3.47,0,4.79L79.37,391.06c-2.61,1.32-5.69,1.32-8.3,0Z"/>
    <polygon id="freepik--shadow--inject-2" class="cls-11" points="245.76 400.77 148.15 344.42 270.13 274.13 367.62 330.41 245.76 400.77"/>
    <ellipse id="freepik--shadow--inject-2-2" data-name="freepik--shadow--inject-2" class="cls-11" cx="380.52" cy="399.26" rx="46.14" ry="26.64"/>
    <path id="freepik--shadow--inject-2-3" data-name="freepik--shadow--inject-2" class="cls-11" d="M442.43,367.18c5,2.89,5,7.57,0,10.46s-13.11,2.88-18.11,0-5-7.57,0-10.46,13.11-2.89,18.11,0Z"/>
  </g>
  <g id="freepik--Device--inject-2">
    <g id="freepik--device--inject-2">
      <path class="cls-17" d="M217.15,349.24l34.94-20.2c3.6-2.08,5.4-4.8,5.4-7.53v-4.86l-36.25-20.44c-2.05-1.33-3.34-3.56-3.48-6v-43.09l-61,35.26v43.07c.14,2.44,1.43,4.67,3.48,6l30.84,17.76c7.19,4.19,18.87,4.19,26.07,.03Z"/>
      <g class="cls-25">
        <path d="M217.15,349.24l34.94-20.2c3.6-2.08,5.4-4.8,5.4-7.53v-4.86l-36.25-20.44c-2.05-1.33-3.34-3.56-3.48-6v-43.09l-61,35.26v43.07c.14,2.44,1.43,4.67,3.48,6l30.84,17.76c7.19,4.19,18.87,4.19,26.07,.03Z"/>
      </g>
      <path class="cls-21" d="M171.41,333.08v4.84l-11.19-6.45c-2.05-1.33-3.33-3.56-3.47-6v-43.09l11.62-6.73c.24,3,.51,6,.75,9l-8.16,4.72v33.65c.13,2.44,1.43,4.67,3.48,6l6.97,4.06Z"/>
      <path class="cls-17" d="M160.96,323.03c.14,2.44,1.43,4.67,3.48,6l26.62,15.34c7.2,4.15,18.88,4.16,26.09,0l35-20.2c7.21-4.16,7.21-10.9,0-15.06l-26.63-15.34c-2.05-1.33-3.34-3.56-3.48-6v-33.66l-61,35.26-.08,33.66Z"/>
      <path class="cls-21" d="M160.96,323.03c.14,2.44,1.43,4.67,3.48,6l26.62,15.34c7.2,4.15,18.88,4.16,26.09,0l35-20.2c7.21-4.16,7.21-10.9,0-15.06l-26.63-15.34c-2.05-1.33-3.34-3.56-3.48-6v-33.66l-61,35.26-.08,33.66Z"/>
      <path class="cls-23" d="M232.55,297.88h0l-7.08-4.09c-2.05-1.33-3.34-3.56-3.48-6v-33.68l-61,35.26v33.66c.14,2.44,1.43,4.67,3.48,6l7,4,61.08-35.15Z"/>
      <path class="cls-17" d="M257.5,316.65v4.86c0,2.73-1.81,5.44-5.4,7.53l-35,20.19c-3.83,2.04-8.11,3.11-12.45,3.09v-4.84c4.34,.02,8.62-1.05,12.45-3.09l35-20.21c3.59-2.06,5.4-4.79,5.4-7.53Z"/>
      <path class="cls-23" d="M257.5,316.65v4.86c0,2.73-1.81,5.44-5.4,7.53l-35,20.19c-3.83,2.04-8.11,3.11-12.45,3.09v-4.84c4.34,.02,8.62-1.05,12.45-3.09l35-20.21c3.59-2.06,5.4-4.79,5.4-7.53Z"/>
      <path class="cls-17" d="M62.98,364.86c2.67,1.29,5.8,1.24,8.43-.15l236-136.25c2.57-1.67,4.18-4.47,4.35-7.53V30.01c-.11-2.96-1.63-5.7-4.09-7.36-2.67-1.29-5.8-1.23-8.42,.16L63.25,159.05c-2.56,1.67-4.18,4.46-4.34,7.52v190.92c.11,2.96,1.62,5.7,4.07,7.37Z"/>
      <path class="cls-17" d="M71.41,364.7l236-136.25c2.57-1.67,4.18-4.47,4.35-7.53V30.01c0-2.77-1.95-3.9-4.35-2.51L71.41,163.75c-2.57,1.67-4.18,4.47-4.35,7.53v190.91c0,2.77,1.95,3.9,4.35,2.51Z"/>
      <path class="cls-23" d="M71.41,364.7l236-136.25c2.57-1.67,4.18-4.47,4.35-7.53V30.01c0-2.77-1.95-3.9-4.35-2.51L71.41,163.75c-2.57,1.67-4.18,4.47-4.35,7.53v190.91c0,2.77,1.95,3.9,4.35,2.51Z"/>
      <path class="cls-17" d="M70.77,369.65c-2.5,1.08-5.34,1.03-7.79-.16-2.46-1.67-3.98-4.42-4.08-7.39v-17.37l8.15,4.72v17.38c0,2.53,1.61,3.68,3.72,2.82Z"/>
      <path class="cls-23" d="M70.77,369.65c-2.5,1.08-5.34,1.03-7.79-.16-2.46-1.67-3.98-4.42-4.08-7.39v-17.37l8.15,4.72v17.38c0,2.53,1.61,3.68,3.72,2.82Z"/>
      <path class="cls-17" d="M67.05,349.45v17.38c0,2.77,2,3.89,4.35,2.51l236-136.25c2.57-1.67,4.18-4.47,4.35-7.53v-17.42L67.05,349.45Z"/>
      <path class="cls-21" d="M67.06,349.41v17.42c0,2.77,2,3.89,4.35,2.51l236-136.25c2.57-1.67,4.18-4.47,4.35-7.53v-17.42L67.06,349.41Z"/>
      <path class="cls-5" d="M75.21,327.65V173.98c.1-1.83,1.06-3.51,2.6-4.51L300.98,40.65c1.44-.83,2.61-.16,2.61,1.5V195.79c-.1,1.84-1.07,3.52-2.61,4.52L77.83,329.15c-1.45,.83-2.62,.15-2.62-1.5Z"/>
      <path class="cls-16" d="M75.21,327.65V173.98c.1-1.83,1.06-3.51,2.6-4.51L300.98,40.65c1.44-.83,2.61-.16,2.61,1.5V195.79c-.1,1.84-1.07,3.52-2.61,4.52L77.83,329.15c-1.45,.83-2.62,.15-2.62-1.5Z"/>
      <path class="cls-19" d="M68.34,166.98c-.78,1.3-1.22,2.78-1.29,4.29v178.18l-8.15-4.72V166.57c.05-1.52,.49-2.99,1.28-4.29l8.16,4.7Z"/>
      <path class="cls-21" d="M311.71,29.29c-.31-2.24-2.12-3.05-4.31-1.8L71.41,163.75c-1.28,.8-2.34,1.91-3.07,3.23l-8.16-4.71c.74-1.32,1.8-2.43,3.08-3.23L299.26,22.8c2.62-1.39,5.76-1.45,8.43-.16,2.24,1.53,3.71,3.96,4.02,6.65Z"/>
    </g>
  </g>
  <g id="freepik--Window--inject-2">
    <g id="freepik--window--inject-2">
      <path class="cls-12" d="M321.9,54.06c-.15-1.12-1.06-1.53-2.14-.9L97.63,181.42c-.64,.41-1.16,.96-1.53,1.62l-4.06-2.39c.37-.66,.89-1.22,1.53-1.62L315.7,50.82c1.84-1.22,4.33-.71,5.54,1.14,.41,.63,.64,1.35,.66,2.1Z"/>
      <path class="cls-2" d="M97.63,340.89c-.51,.31-1.1,.49-1.7,.52-.86,.11-1.72-.04-2.49-.44-1.21-.83-1.96-2.2-2-3.67V208.47l4.07,2.35v128.83c0,1,.49,1.55,1.2,1.55,.33-.03,.64-.14,.92-.31Z"/>
      <path class="cls-12" d="M96.1,183.04c-.39,.64-.61,1.38-.63,2.13v25.65l-4.07-2.35v-25.91c.02-.18,.05-.36,.09-.53,.11-.47,.29-.92,.54-1.34l4.07,2.35Z"/>
      <path class="cls-17" d="M321.92,54.41v11.57l-159.3,92c-1.19,.69-2.16,.13-2.16-1.25v-4.38c0-1.38-1-1.94-2.17-1.25l-52.53,30.33c-1.28,.83-2.09,2.23-2.17,3.75v4.38c-.08,1.52-.89,2.91-2.16,3.75l-6,3.44v-11.58c.08-1.52,.89-2.91,2.16-3.75L319.76,53.16c1.19-.69,2.16-.13,2.16,1.25Z"/>
      <path class="cls-9" d="M321.92,208.88c-.08,1.53-.88,2.92-2.16,3.76L97.63,340.89c-1.19,.69-2.16,.13-2.16-1.25V196.74l6-3.44c1.19-.69,3.13-11.19,4.33-11.88l51.65-29.83c1.2-.69,4,7.07,5.21,6.38l159.3-92V208.87h-.04Z"/>
      <path class="cls-11" d="M320.92,67.71V208.88c-.08,1.17-.69,2.23-1.66,2.89L97.13,340.03c-.14,.09-.3,.15-.46,.16-.2,0-.2-.52-.2-.55V197.31l5.46-3.15c.87-.5,1.41-2.18,2.62-6.51,.43-1.85,1.03-3.66,1.79-5.41l51.19-29.59c.6,.83,1.14,1.7,1.63,2.6,1.39,2.45,2.17,3.73,3.3,3.73,.23,0,.46-.06,.66-.18l157.8-91.12m-163,84.75h0m-51.54,29.74h0m215.54-116.19l-159.3,92c-.05,.01-.11,.01-.16,0-1.21,0-3.67-6.46-4.89-6.46-.05-.01-.11-.01-.16,0l-51.65,29.83c-1.2,.69-3.14,11.19-4.33,11.88l-6,3.44v142.98c0,1,.49,1.55,1.2,1.55,.35,0,.7-.11,1-.3l222.13-128.25c1.28-.84,2.08-2.23,2.16-3.76V65.98Z"/>
      <path class="cls-2" d="M133.47,259.22l29.6-17.09c.8-.46,1.44-.09,1.44,.83v49.85c-.05,1.02-.59,1.94-1.44,2.5l-29.6,17.09c-.8,.46-1.44,.08-1.44-.84v-49.84c.05-1.02,.59-1.94,1.44-2.5Z"/>
      <path class="cls-11" d="M138.88,262.34l18.78-10.84c.79-.46,1.44-.13,1.44,.73-.07,.98-.61,1.87-1.44,2.4l-18.78,10.84c-.79,.46-1.44,.13-1.44-.73,.07-.98,.61-1.87,1.44-2.4Z"/>
      <path class="cls-17" d="M137.44,270.43v1.13c0,.55,.39,.77,.87,.5l1-.57c.52-.33,.84-.89,.87-1.5v-1.12c0-.56-.39-.78-.87-.5l-1,.56c-.51,.33-.84,.89-.87,1.5Z"/>
      <path class="cls-11" d="M142.83,267.87c0,.86,.65,1.19,1.45,.73l13.36-7.72c.83-.52,1.37-1.41,1.44-2.39,0-.87-.65-1.19-1.44-.73l-13.36,7.71c-.84,.52-1.38,1.41-1.45,2.4Z"/>
      <path class="cls-17" d="M137.44,276.65v1.13c0,.55,.39,.77,.87,.5l1-.57c.51-.33,.84-.89,.87-1.5v-1.12c0-.56-.39-.78-.87-.5l-1,.56c-.51,.33-.84,.89-.87,1.5Z"/>
      <path class="cls-11" d="M142.83,274.13c0,.86,.65,1.19,1.45,.73l13.36-7.72c.83-.52,1.37-1.41,1.44-2.39,0-.87-.65-1.19-1.44-.73l-13.36,7.71c-.84,.52-1.38,1.41-1.45,2.4Z"/>
      <path class="cls-17" d="M137.44,282.94v1.12c0,.56,.39,.78,.87,.5l1-.56c.51-.33,.84-.89,.87-1.5v-1.13c0-.55-.39-.77-.87-.5l-1,.57c-.51,.33-.84,.89-.87,1.5Z"/>
      <path class="cls-11" d="M142.83,280.37c0,.87,.65,1.19,1.45,.73l13.36-7.71c.83-.52,1.37-1.41,1.44-2.39,0-.87-.65-1.19-1.44-.73l-13.36,7.71c-.84,.52-1.38,1.41-1.45,2.39Z"/>
      <path class="cls-17" d="M137.44,289.18v1.13c0,.55,.39,.78,.87,.5l1-.56c.51-.33,.84-.89,.87-1.5v-1.1c0-.55-.39-.78-.87-.5l-1,.56c-.5,.33-.83,.87-.87,1.47Z"/>
      <path class="cls-11" d="M142.83,286.65c0,.86,.65,1.19,1.45,.73l13.38-7.73c.83-.53,1.37-1.42,1.44-2.4,0-.86-.65-1.19-1.44-.73l-13.36,7.71c-.85,.52-1.4,1.42-1.47,2.42Z"/>
      <path class="cls-11" d="M138.77,296.8l18.77-10.84c.8-.46,1.45-.14,1.45,.73-.07,.98-.61,1.87-1.45,2.39l-18.77,10.84c-.8,.46-1.45,.14-1.44-.73,.07-.98,.61-1.87,1.44-2.39Z"/>
      <path class="cls-17" d="M137.32,304.88v1.13c0,.55,.39,.78,.87,.5l1-.56c.51-.33,.83-.89,.86-1.5v-1.13c0-.55-.39-.78-.86-.5l-1,.56c-.51,.33-.84,.89-.87,1.5Z"/>
      <path class="cls-11" d="M142.74,302.32c0,.86,.65,1.19,1.44,.73l13.36-7.71c.84-.52,1.38-1.42,1.45-2.4,0-.86-.65-1.19-1.45-.73l-13.36,7.71c-.83,.53-1.37,1.42-1.44,2.4Z"/>
      <path class="cls-6" d="M311.77,61.65c1.51-.87,2.73-.16,2.73,1.58-.1,1.92-1.12,3.67-2.73,4.72-1.5,.86-2.72,.16-2.72-1.58,.1-1.92,1.11-3.67,2.72-4.72Z"/>
      <path class="cls-6" d="M301.96,67.32c1.51-.87,2.73-.17,2.73,1.57-.09,1.93-1.11,3.71-2.73,4.76-1.5,.87-2.72,.16-2.72-1.57,.09-1.93,1.1-3.7,2.72-4.76Z"/>
      <ellipse class="cls-6" cx="292.16" cy="76.13" rx="3.85" ry="2.22" transform="translate(80.15 291.08) rotate(-60)"/>
      <path class="cls-3" d="M321.92,65.98v14.08L95.47,210.82v-14.08l4.45-2.58c1.19-.69,1.59-1.74,2.16-3.75l1.51-5.24c.48-1.82,1-3.06,2.17-3.75l51.65-29.83c1.2-.69,2.14-.76,3,.75l1.85,3.36c.68,1.17,1,1.86,2.21,1.17l157.45-90.89Z"/>
      <polygon class="cls-11" points="95.47 196.74 95.47 210.82 91.4 208.47 91.4 194.4 95.47 196.74"/>
      <path class="cls-15" d="M105.4,197.75l-3.4,2,1.3-2.49c.1-.19,.1-.42,0-.61-.1-.12-.28,0-.39,.19l-1.84,3.54h0s0,.08-.05,.13h0c0,.06,0,.12,0,.18-.01,.05-.01,.11,0,.16h0s.03,.05,.05,.08h0l1.84,1.41c.05,.04,.13,.04,.18,0,.1-.06,.17-.15,.21-.26,.11-.18,.11-.4,0-.58l-1.3-1,3.4-2c.18-.14,.28-.35,.28-.58,0-.14-.13-.27-.28-.17Z"/>
      <path class="cls-15" d="M108.24,196.11l3.4-2-1.3-1c-.11-.08-.12-.34,0-.58s.27-.34,.38-.26l1.85,1.42h0s0,.05,0,.07h0s0,.1,0,.15c0,.06,0,.13,0,.19h0s0,.09,0,.13h0l-1.85,3.55c-.04,.09-.1,.16-.18,.21-.05,.06-.14,.06-.2,0,0,0,0,0,0,0-.11-.19-.11-.42,0-.61l1.3-2.49-3.4,2c-.15,.09-.27,0-.27-.26,.01-.2,.11-.39,.27-.52Z"/>
      <path class="cls-15" d="M119.39,186.32c0-.2-.2-.17-.29,.05l-.46,1.14c-.8-.09-1.76,.69-2.41,2.06-.84,1.78-.84,3.89,0,4.7,.42,.39,1.06,.43,1.53,.09,.68-.45,1.21-1.1,1.52-1.85,.11-.18,.11-.42,0-.6-.1-.1-.28,0-.38,.23-.63,1.33-1.65,1.92-2.28,1.31s-.63-2.18,0-3.51c.44-.94,1.09-1.5,1.65-1.54l-.35,.86c-.09,.22,0,.43,.13,.34l1.39-.91c.11-.09,.17-.24,.15-.38l-.2-1.99Z"/>
      <path class="cls-15" d="M155.92,158.02l1.24-2.62c.15-.25,.15-.57,0-.82-.15-.14-.38,0-.53,.31l-1.24,2.62-1.24-1.19c-.14-.14-.38,0-.53,.3-.14,.25-.14,.57,0,.82l1.21,1.21-1.24,2.63c-.14,.25-.14,.56,0,.81,.08,.06,.19,.06,.27,0,.11-.08,.2-.19,.26-.32l1.24-2.63,1.24,1.2c.08,.07,.19,.07,.27,0,.12-.08,.21-.19,.26-.32,.15-.25,.15-.57,0-.82l-1.21-1.18Z"/>
      <path class="cls-9" d="M123.9,189.55v-4.38c.08-1.52,.89-2.92,2.17-3.75l181.51-104.77c1.19-.69,2.16-.13,2.16,1.25v4.38c-.08,1.52-.89,2.91-2.16,3.75L126.07,190.8c-1.24,.69-2.17,.13-2.17-1.25Z"/>
      <path class="cls-11" d="M304.63,86.38c-.06,.01-.13,.01-.19,0-.25-.11-.38-.38-.33-.65l.21-1.78-.83-.6c-.15-.12-.24-.3-.23-.49,0-.29,.14-.56,.36-.75l1.27-1s.04-.06,.05-.1l.57-1.87c.07-.31,.33-.55,.64-.6,.21-.02,.41,.1,.5,.3h0l.48,1,1.07-.41c.2-.08,.43-.03,.58,.13,.17,.27,.17,.61,0,.88l-.92,1.72v.11l.21,1.56c.05,.3-.04,.6-.24,.82-.13,.14-.31,.21-.5,.2l-1-.13-1.12,1.43c-.14,.17-.36,.26-.58,.23Zm-.61-3.62l.83,.6c.18,.15,.26,.38,.22,.6l-.14,1.18,.75-.95c.13-.19,.34-.29,.57-.28l1,.13s0-.08,0-.12l-.22-1.56c-.02-.19,.02-.39,.11-.56l.81-1.51-.83,.32c-.26,.1-.55-.02-.66-.27l-.37-.79-.51,1.66c-.06,.18-.16,.35-.31,.47l-1.28,1s.02,.06,.03,.08Zm3.2-2.74h0Z"/>
      <g class="cls-24">
        <path class="cls-14" d="M312.29,76.13c-.41,0-.75-.34-.75-.75,0-.27,.14-.51,.38-.65l6.09-3.52c.36-.21,.82-.08,1.02,.28,.21,.36,.08,.82-.27,1.03l-6.09,3.52c-.12,.07-.25,.1-.38,.1Z"/>
        <path class="cls-14" d="M312.29,79.65c-.41,0-.75-.34-.75-.75,0-.27,.14-.51,.38-.65l6.09-3.52c.36-.21,.82-.08,1.02,.28,.21,.36,.08,.82-.27,1.03l-6.09,3.52c-.12,.06-.25,.1-.38,.1Z"/>
        <path class="cls-14" d="M312.29,83.17c-.41,0-.75-.34-.75-.75,0-.27,.14-.51,.38-.65l6.09-3.52c.35-.2,.8-.08,1,.27,.19,.35,.07,.79-.27,1l-6.09,3.51c-.11,.08-.23,.13-.36,.14Z"/>
      </g>
      <polygon class="cls-14" points="95.47 210.82 95.46 224.88 321.9 94.15 321.92 80.06 95.47 210.82"/>
      <path class="cls-9" d="M120.83,201.85v2.72c0,.56,.39,.78,.87,.5l34-19.65v-4.77l-34,19.65c-.52,.35-.85,.92-.87,1.55Z"/>
      <path class="cls-17" d="M160.33,178.02c.49-.28,.88-.05,.88,.51v2.72c-.03,.62-.36,1.18-.88,1.51l-4.6,2.66v-4.77l4.6-2.63Z"/>
      <path class="cls-9" d="M159.99,181.75l-.51-.16c.05-.22,.08-.44,.08-.66,.05-.42-.13-.84-.47-1.09-.23-.14-.51-.14-.74,0-.65,.51-1.02,1.3-1,2.13-.05,.42,.13,.84,.47,1.1,.1,.06,.21,.09,.33,.09,.15,0,.3-.05,.42-.13,.39-.27,.68-.66,.83-1.11l.51,.16h.06c.08,0,.15-.05,.18-.13,0-.1-.07-.18-.16-.2Zm-1.64,1c-.11,.07-.26,.07-.37,0-.21-.2-.32-.48-.28-.77-.01-.7,.3-1.36,.84-1.8,.07-.04,.15-.07,.23-.07,.04-.01,.09-.01,.13,0,.21,.19,.32,.48,.28,.77,.03,.71-.28,1.4-.83,1.85v.02Z"/>
      <path class="cls-9" d="M114.9,204.28l-2.32,1.37c-.51,.33-.84,.89-.87,1.5v2.69c0,.56,.39,.78,.87,.5l2.32-1.34c.51-.33,.84-.89,.87-1.5v-2.69c0-.58-.39-.81-.87-.53Z"/>
      <path class="cls-17" d="M195.53,156.58c-1.83,1.2-2.98,3.2-3.1,5.38,0,2,1.39,2.78,3.1,1.79,1.83-1.2,2.98-3.2,3.1-5.38,0-1.97-1.39-2.78-3.1-1.79Z"/>
      <path class="cls-6" d="M195.17,159.74c-.1,0-.19-.02-.28-.07-.21-.14-.32-.37-.3-.62,.03-.58,.33-1.11,.82-1.42h0c.21-.12,.48-.12,.69,0,.21,.14,.32,.37,.3,.62-.03,.58-.33,1.11-.82,1.42-.13,.06-.27,.08-.41,.07Z"/>
      <path class="cls-6" d="M196.76,159.95c-.35-.18-.78-.15-1.1,.08l-.45,.26c-.83,.53-1.35,1.43-1.39,2.42v.32c.56,.24,1.21,.18,1.71-.18,.71-.45,1.3-1.07,1.71-1.8v-.08c.04-.4-.15-.79-.48-1.02Z"/>
      <path class="cls-11" d="M202.63,154.18l21.25-12.28c.86-.49,1.56-.12,1.56,.85-.07,1.08-.65,2.06-1.56,2.64l-21.25,12.26c-.86,.5-1.56,.12-1.56-.84,.07-1.08,.65-2.05,1.56-2.63Z"/>
      <path class="cls-11" d="M235.07,135.47l13.19-7.68c.86-.5,1.55-.12,1.56,.84-.07,1.08-.65,2.06-1.56,2.64l-13.19,7.69c-.86,.49-1.56,.12-1.56-.85,.07-1.08,.65-2.06,1.56-2.64Z"/>
      <path class="cls-11" d="M259.47,121.45l9.1-5.28c.86-.5,1.56-.12,1.56,.84-.07,1.08-.65,2.06-1.56,2.64l-9.1,5.29c-.86,.49-1.56,.12-1.56-.84,.07-1.08,.65-2.07,1.56-2.65Z"/>
      <path class="cls-16" d="M229.51,143.18c-.21,0-.38-.17-.38-.38h0v-4.69c.03-.21,.23-.35,.44-.31,.16,.03,.29,.15,.31,.31v4.69c0,.21-.16,.37-.37,.38Z"/>
      <path class="cls-16" d="M253.88,129.11c-.21,0-.38-.17-.38-.38h0v-4.69c.03-.21,.23-.35,.44-.31,.16,.03,.29,.15,.31,.31v4.69c0,.21-.16,.37-.37,.38Z"/>
      <path class="cls-16" d="M274.19,117.38c-.21,0-.37-.16-.38-.37v-4.69c-.03-.21,.11-.4,.31-.44,.21-.03,.4,.11,.44,.31,0,.04,0,.08,0,.12v4.69c0,.2-.17,.36-.37,.37Z"/>
      <path class="cls-17" d="M282,110.15v-.86c0-1-.6-1.44-1.34-1h0c-.82,.59-1.31,1.54-1.33,2.55v.81c-.02,.53-.17,1.05-.45,1.51h0c-.07,.12-.11,.25-.11,.39h0c0,.25,.15,.36,.33,.26l3.13-1.8c.2-.15,.33-.39,.33-.65h0c0-.1-.03-.19-.1-.26h0c-.34-.19-.52-.57-.46-.95Z"/>
      <path class="cls-17" d="M281.31,112.75c-.01,.49-.25,.95-.65,1.23-.35,.2-.64,0-.64-.49l1.29-.74Z"/>
      <path class="cls-17" d="M287.71,106.37c-.11,0-.21-.03-.31-.08-.23-.15-.36-.42-.34-.7,.03-.65,.37-1.25,.92-1.6h0c.23-.16,.53-.18,.78-.06,.23,.15,.36,.42,.34,.7-.03,.65-.37,1.25-.92,1.6-.14,.08-.3,.13-.47,.14Z"/>
      <path class="cls-17" d="M289.5,106.65c-.4-.19-.87-.16-1.23,.1l-.51,.29c-.93,.6-1.52,1.62-1.57,2.73v.36c.63,.27,1.36,.2,1.93-.2,.8-.5,1.46-1.18,1.93-2v-.09c.05-.47-.16-.92-.55-1.19Z"/>
      <path class="cls-17" d="M290.19,104.05c-.11,0-.22-.02-.31-.08-.23-.15-.37-.42-.34-.7,.03-.65,.37-1.25,.92-1.6h0c.3-.24,.73-.19,.97,.11,.12,.15,.17,.35,.14,.54-.03,.65-.37,1.24-.92,1.59-.14,.09-.3,.14-.46,.14Z"/>
      <path class="cls-17" d="M291.98,104.29c-.4-.2-.87-.16-1.24,.09l-.5,.3c-.58,.36-1.03,.89-1.29,1.52,.34-.18,.75-.18,1.09,0,.38,.26,.59,.7,.55,1.16v.22c.81-.49,1.47-1.18,1.94-2v-.09c.06-.47-.16-.93-.55-1.2Z"/>
      <path class="cls-17" d="M298.16,97.89c-1.51,.98-2.45,2.62-2.55,4.42-.04,.56,.17,1.11,.57,1.51l-.32,1.51c0,.19,.09,.27,.21,.13l1.15-1.34c.33-.05,.65-.16,.94-.33,1.5-.98,2.45-2.63,2.54-4.42,0-1.63-1.14-2.29-2.54-1.48Z"/>
      <path class="cls-17" d="M310.39,90.77c.19-.12,.41-.2,.63-.22,.18-.02,.35,0,.51,.09,.15,.09,.27,.23,.34,.4,.09,.22,.14,.45,.13,.69,0,.21-.02,.42-.07,.62-.05,.19-.11,.38-.18,.56-.08,.17-.16,.34-.25,.5s-.17,.31-.25,.46-.16,.31-.22,.46c-.06,.14-.11,.29-.14,.45-.01,.07-.03,.14-.05,.21-.02,.05-.06,.1-.11,.13l-.72,.42s-.09,.03-.12,0c-.04-.04-.05-.1-.05-.15,0-.2,.03-.39,.08-.58,.06-.19,.12-.38,.2-.56,.08-.17,.17-.35,.26-.51s.18-.32,.26-.47c.08-.13,.14-.28,.2-.42,.05-.12,.08-.26,.08-.39,0-.18,0-.29-.13-.34s-.22,0-.4,.08c-.16,.08-.29,.2-.39,.35-.07,.12-.13,.24-.17,.37,0,.12-.07,.23-.09,.32-.02,.09-.08,.17-.15,.22l-.73,.42s-.07,.02-.1,0c-.01-.04-.01-.08,0-.12,0-.25,.04-.51,.11-.75,.08-.29,.19-.57,.33-.84,.15-.28,.32-.55,.52-.79,.18-.24,.41-.45,.67-.61Zm.52,6c0,.07-.02,.14-.05,.2-.02,.06-.06,.1-.11,.14l-.76,.43s-.08,.03-.11,0c-.04-.04-.05-.1-.05-.15v-.93c0-.07,.02-.14,.05-.2,.02-.06,.06-.11,.11-.14l.76-.44s.08-.03,.11,0c.04,.04,.05,.1,.05,.15v.94Z"/>
      <path class="cls-5" d="M132.02,210.97v41.9c0,1.38,1,1.94,2.17,1.25l149-86.06c1.27-.84,2.08-2.23,2.16-3.75v-41.89c0-1.38-1-1.94-2.16-1.25l-149,86.05c-1.28,.83-2.09,2.23-2.17,3.75Z"/>
      <path class="cls-12" d="M132.02,210.97v41.9c0,1.38,1,1.94,2.17,1.25l149-86.06c1.27-.84,2.08-2.23,2.16-3.75v-41.89c0-1.38-1-1.94-2.16-1.25l-149,86.05c-1.28,.83-2.09,2.23-2.17,3.75Z"/>
      <path class="cls-17" d="M144.21,217.07c-4.49,2.6-8.13,8.9-8.13,14.08s3.64,7.28,8.13,4.69,8.13-8.89,8.12-14.08-3.64-7.28-8.12-4.69Z"/>
      <path class="cls-6" d="M143.26,225.34c-.25,0-.5-.06-.72-.19-.54-.36-.84-.98-.78-1.63,.07-1.51,.86-2.88,2.13-3.7h0c.69-.56,1.69-.45,2.25,.23,.29,.35,.41,.81,.34,1.26-.07,1.51-.87,2.89-2.14,3.7-.32,.2-.7,.32-1.08,.33Z"/>
      <path class="cls-6" d="M147.42,225.88c-.92-.46-2.02-.37-2.86,.22l-1.18,.68c-2.17,1.4-3.53,3.75-3.66,6.33v.84c1.16,.64,2.74,.53,4.49-.48,1.87-1.16,3.41-2.78,4.48-4.7v-.2c.08-1.06-.4-2.08-1.27-2.69Z"/>
      <path class="cls-14" d="M157.95,215.36l17.21-9.93c.86-.5,1.56-.18,1.56,.7-.1,1.03-.67,1.96-1.56,2.5l-17.21,9.93c-.86,.5-1.56,.19-1.56-.7,.1-1.03,.67-1.96,1.56-2.5Z"/>
      <path class="cls-14" d="M157.31,222.02l10.12-5.84c.5-.3,.91-.11,.91,.41-.06,.61-.39,1.15-.91,1.47l-10.12,5.84c-.51,.29-.92,.11-.92-.41,.05-.61,.4-1.16,.92-1.47Z"/>
      <path class="cls-4" d="M134.19,254.17l149-86c1.27-.84,2.08-2.23,2.16-3.75v-6.87l-153.33,88.49v6.88c0,1.38,.97,1.94,2.17,1.25Z"/>
      <path class="cls-1" d="M172.64,229.94c-.2,0-.36-.15-.37-.35,0,0,0-.01,0-.02v-4.69c0-.2,.16-.37,.36-.38,0,0,0,0,.01,0,.21,0,.38,.17,.38,.38h0v4.69c0,.2-.17,.37-.37,.37,0,0,0,0-.01,0Z"/>
      <path class="cls-11" d="M154.47,236.12l13.18-7.69c.86-.49,1.56-.12,1.56,.85-.07,1.08-.65,2.06-1.56,2.64l-13.18,7.73c-.86,.5-1.56,.12-1.56-.84,.06-1.1,.64-2.1,1.56-2.69Z"/>
      <path class="cls-1" d="M196.45,216.11c-.2,0-.37-.17-.37-.37,0,0,0,0,0-.01v-4.69c0-.2,.17-.37,.37-.37,.21,0,.37,.16,.38,.37v4.69c0,.21-.17,.38-.38,.38h0Z"/>
      <path class="cls-11" d="M178.28,222.28l13.18-7.63c.86-.5,1.56-.12,1.56,.84-.07,1.08-.65,2.06-1.56,2.64l-13.18,7.69c-.86,.5-1.56,.12-1.56-.84,.05-1.1,.63-2.11,1.56-2.7Z"/>
      <path class="cls-1" d="M220.26,202.27c-.21,0-.37-.16-.38-.37v-4.69c0-.21,.17-.38,.38-.38h0c.2,0,.37,.17,.37,.37,0,0,0,0,0,.01v4.69c0,.2-.17,.37-.37,.37Z"/>
      <path class="cls-11" d="M202.09,208.45l13.18-7.69c.86-.49,1.56-.12,1.56,.85-.07,1.08-.65,2.06-1.56,2.64l-13.18,7.68c-.86,.5-1.56,.12-1.56-.84,.07-1.08,.65-2.06,1.56-2.64Z"/>
      <path class="cls-1" d="M244.07,188.44c-.21,0-.38-.17-.38-.38h0v-4.69c0-.2,.17-.37,.37-.37,0,0,0,0,.01,0,.2,0,.36,.15,.37,.35,0,0,0,.01,0,.02v4.69c0,.2-.16,.37-.36,.38,0,0,0,0-.01,0Z"/>
      <path class="cls-11" d="M225.9,194.65l13.18-7.68c.86-.5,1.56-.12,1.56,.84-.07,1.08-.65,2.06-1.56,2.64l-13.18,7.69c-.87,.5-1.56,.12-1.56-.84,.06-1.08,.64-2.07,1.56-2.65Z"/>
      <path class="cls-11" d="M249.7,180.78l13.19-7.69c.86-.49,1.56-.12,1.56,.85-.07,1.08-.65,2.06-1.56,2.64l-13.19,7.68c-.86,.5-1.55,.12-1.55-.84,.07-1.08,.64-2.06,1.55-2.64Z"/>
    </g>
  </g>
  <g id="freepik--Plants--inject-2">
    <g id="freepik--plants--inject-2">
      <path class="cls-5" d="M126.83,394.54l13.29-7.66s8.25-24.28,6.16-46.64c-2.63-27.78-15.75-37.59-23.45-34.45s-6.11,14.17,2.06,29c6.45,11.79,6.47,38.91,1.94,59.75Z"/>
      <path class="cls-17" d="M126.83,394.54l13.29-7.66s8.25-24.28,6.16-46.64c-2.63-27.78-15.75-37.59-23.45-34.45s-6.11,14.17,2.06,29c6.45,11.79,6.47,38.91,1.94,59.75Z"/>
      <path class="cls-6" d="M133.18,391.49c.26,0,.49-.16,.57-.41,8.56-26.21,8.92-63-7.28-79.61-.23-.24-.61-.24-.85-.01s-.24,.61-.01,.85h0c15.29,15.66,15.56,52.16,7,78.39-.1,.31,.07,.65,.38,.76,0,0,0,0,0,0,.06,.02,.12,.03,.18,.03Z"/>
      <path class="cls-17" d="M102.91,408.33c-1.38,.79-4.22-.94-5.3-1.67-1.86-1.27-3.36-2.99-4.37-5-1.12-2.29-1.51-4.88-1.1-7.4,.22-1.33,.54-2.64,.94-3.93,.37-1.27,.73-2.54,1.1-3.82,.44-1.23,.63-2.54,.56-3.84-.34-2.61-2.65-4.44-4.76-6-2.33-1.74-4.75-4.05-4.74-7.19,.17-2.44,1.14-4.76,2.77-6.58,1.5-1.9,3.28-3.58,4.64-5.59,1.07-1.4,1.63-3.12,1.58-4.88-.15-1.08-.51-2.11-1.06-3.05-1.11-2.05-2.58-3.92-3.34-6.12s-.66-4.93,1.06-6.5c1.41-1.29,3.5-1.47,5.41-1.35,1.77,.22,3.48,.83,5,1.77,5,2.78,7.84,8.68,13.13,10.82,2,.82,4.28,1,6.41,1.56s4.3,1.65,5.28,3.62c1.95,3.88-1.66,8.67-.3,12.79,1.21,3.64,4.76,5,6.75,8.32,.81,1.45,1.14,3.12,.93,4.77-.17,2.79-.85,5.52-2,8.07-1.29,2.53-2.77,4.95-4.42,7.26-.09,.06-23.96,13.82-24.17,13.94Z"/>
      <path class="cls-6" d="M117.17,400.65c.27,0,.5-.21,.53-.48,2.57-20.36-7.15-47.83-21.67-61.22-.24-.18-.58-.14-.76,.1-.16,.21-.15,.5,.03,.69,14.29,13.19,23.86,40.24,21.33,60.3-.04,.3,.17,.56,.47,.6h.07Z"/>
      <path class="cls-6" d="M114.68,374.57c.17,0,.33-.08,.43-.22,.18-.24,.13-.57-.1-.75-8-6-20.26-5-20.77-4.92-.3,.03-.52,.29-.49,.59,0,0,0,0,0,0,.03,.29,.29,.51,.58,.49,.13,0,12.35-1.06,20,4.7,.1,.07,.22,.11,.35,.11Z"/>
      <path class="cls-6" d="M113.48,369.57c.29,0,.52-.23,.53-.51,.37-9.33,7.41-15,7.48-15,.24-.18,.28-.52,.1-.76,0,0,0,0,0,0-.19-.23-.52-.27-.76-.09-4.68,3.97-7.54,9.69-7.89,15.82-.01,.29,.22,.54,.51,.56l.03-.02Z"/>
    </g>
  </g>
  <g id="freepik--Post--inject-2">
    <g id="freepik--post--inject-2">
      <path class="cls-1" d="M245.76,391.39c-17.96-10.38-30.23-28.37-33.32-48.88l-7.09-47.07c-2.73-18.13-12.65-34.4-27.52-45.12l-9.25-6.67v5.28l5,3.62c14.83,10.7,24.74,26.92,27.5,45l7.23,47.4c3.12,20.47,15.37,38.4,33.3,48.76l4.13,2.38v-4.69h.02Z"/>
      <path class="cls-9" d="M326.17,276.84l-7.09-47.07c-2.73-18.13-12.64-34.39-27.51-45.12l-9.25-6.68-113.74,65.68,9.25,6.68c14.87,10.72,24.79,26.99,27.52,45.12l7.09,47.07c3.09,20.51,15.36,38.5,33.32,48.88h0l113.74-65.67h0c-17.97-10.37-30.24-28.37-33.33-48.89Z"/>
      <path class="cls-11" d="M282.26,179.16l8.72,6.3c14.62,10.6,24.38,26.61,27.12,44.46l7.08,47.07c3,20.24,14.85,38.1,32.34,48.72l-111.76,64.52c-17.48-10.23-29.37-27.84-32.34-47.87l-7.08-47.07c-2.82-18.38-12.87-34.87-27.92-45.79l-8-5.77,111.84-64.57m.06-1.19l-113.74,65.68,9.25,6.68c14.87,10.72,24.79,26.99,27.52,45.12l7.09,47.07c3.09,20.51,15.36,38.5,33.32,48.88h0l113.74-65.67c-17.97-10.37-30.24-28.36-33.33-48.88l-7.09-47.07c-2.72-18.13-12.64-34.4-27.51-45.13l-9.25-6.68h0Z"/>
      <polygon class="cls-4" points="245.76 391.39 359.5 325.72 359.5 330.41 245.76 396.08 245.76 391.39"/>
      <path class="cls-17" d="M189.83,240.11c-4,1.69-4.39,5.15-.95,7.75,3.96,2.65,8.94,3.26,13.42,1.63,4-1.68,4.4-5.15,1-7.74-3.97-2.68-8.98-3.29-13.47-1.64Z"/>
      <path class="cls-6" d="M194.13,244.32c-.33,.04-.67,.04-1,0-.74-.06-1.46-.32-2.07-.74-.92-.69-.82-1.59,.25-2h0c.7-.26,1.46-.34,2.2-.23,.74,.07,1.45,.33,2.07,.75,.92,.69,.81,1.59-.25,2-.38,.14-.79,.22-1.2,.22Z"/>
      <path class="cls-6" d="M199.76,244.23c-1.17-.18-2.37-.05-3.48,.36l-1,.44c-1.81,.78-2,2.31-.42,3.49l.56,.42c1.89,.28,3.82,.12,5.65-.45,1.72-.66,2.77-1.42,2.92-2.51l-.77-.51c-1.03-.7-2.22-1.13-3.46-1.24Z"/>
      <path class="cls-14" d="M208.3,232.73l33.4-19.29c1.33-.7,2.94-.62,4.19,.22l.3,.24c.75,.48,.97,1.49,.49,2.24-.17,.27-.42,.48-.72,.61l-33.37,19.33c-1.32,.66-2.9,.52-4.08-.36-.12-.09-.24-.18-.35-.28-.73-.39-1-1.3-.61-2.03,.16-.31,.43-.55,.75-.68Z"/>
      <path class="cls-14" d="M215.64,240.51l16.72-9.65c.44-.22,.62-.75,.41-1.19-.06-.12-.14-.22-.24-.3l-.3-.29c-.55-.49-1.35-.59-2-.23l-16.63,9.72c-.44,.22-.63,.76-.4,1.21,.06,.11,.14,.21,.23,.29l.21,.2c.55,.49,1.35,.59,2,.24Z"/>
      <path class="cls-22" d="M204.71,258.84l90.12-52.05c1.23-.69,2.78-.35,3.61,.79l.19,.27c.72,1.07,.44,2.51-.63,3.23-.06,.04-.11,.07-.17,.11l-90.17,52.09c-1.22,.68-2.75,.31-3.52-.85l-.19-.29c-.72-1.02-.48-2.44,.54-3.16,.07-.05,.14-.09,.22-.14Z"/>
      <path class="cls-22" d="M210.18,267.72l90.22-52.07c1.1-.66,2.52-.3,3.18,.8,.04,.07,.08,.13,.11,.2l.14,.29c.56,1.3,.07,2.8-1.14,3.53l-90.24,52.14c-1.04,.63-2.4,.3-3.04-.74-.05-.08-.1-.17-.13-.26l-.16-.32c-.64-1.28-.18-2.84,1.06-3.57Z"/>
      <path class="cls-22" d="M214.24,277.37l90.3-52.13c.89-.59,2.09-.34,2.67,.55,.12,.18,.2,.37,.26,.58l.12,.45c.34,1.42-.26,2.89-1.5,3.66l-90.26,52.17c-.84,.56-1.98,.33-2.54-.51-.13-.2-.23-.43-.27-.66,0-.16-.09-.32-.14-.48-.38-1.38,.17-2.84,1.36-3.63Z"/>
      <path class="cls-22" d="M216.83,287.89l52.49-30.31c.7-.53,1.7-.38,2.23,.32,.2,.26,.31,.58,.31,.91l.11,.7c.16,1.48-.54,2.92-1.79,3.72l-52.49,30.34c-.7,.53-1.7,.38-2.23-.32-.19-.26-.3-.57-.31-.9,0-.25-.07-.49-.11-.74-.14-1.48,.55-2.91,1.79-3.72Z"/>
      <path class="cls-5" d="M325.37,316.41l-85.89,49.6c-2.46,1.42-5.59,.74-7.25-1.56-5.43-8.32-9.06-18.68-10.88-31.09l-3.43-22.79c-.3-2.96,1.08-5.84,3.58-7.45l86-49.68c2.39-1.38,4.67-.28,5.08,2.45l3.43,22.8c1.14,11.08,4.85,21.73,10.82,31.13,1.46,2.05,.97,4.89-1.07,6.34-.12,.09-.25,.17-.39,.25Z"/>
      <path class="cls-12" d="M325.37,316.41l-85.89,49.6c-2.46,1.42-5.59,.74-7.25-1.56-5.43-8.32-9.06-18.68-10.88-31.09l-3.43-22.79c-.3-2.96,1.08-5.84,3.58-7.45l86-49.68c2.39-1.38,4.67-.28,5.08,2.45l3.43,22.8c1.14,11.08,4.85,21.73,10.82,31.13,1.46,2.05,.97,4.89-1.07,6.34-.12,.09-.25,.17-.39,.25Z"/>
      <path class="cls-17" d="M239.48,366.01l85.89-49.6c2.18-1.24,2.95-4.02,1.71-6.2-.08-.13-.16-.26-.25-.39-2.81-4.35-5.1-9.02-6.82-13.91l-26.65-7.52-11.83,26.26,12.85,10.33-44.84-23.6-22.93,52.13c1.51,3.82,3.39,7.49,5.62,10.95,1.66,2.3,4.79,2.97,7.25,1.55Z"/>
      <path class="cls-17" d="M275.5,282.82c3.16-1.82,6.17-.31,6.73,3.38,.44,3.96-1.39,7.82-4.72,10-3.16,1.83-6.17,.31-6.72-3.38-.44-3.95,1.38-7.82,4.71-10Z"/>
      <path class="cls-17" d="M301.58,345.8c-.29,.02-.57,.02-.86,0-.62-.06-1.22-.28-1.74-.63-.76-.57-.67-1.32,.21-1.7h0c.58-.22,1.21-.28,1.83-.19,.62,.06,1.22,.27,1.74,.62,.76,.58,.67,1.33-.21,1.71-.31,.12-.64,.18-.97,.19Z"/>
      <path class="cls-17" d="M306.29,345.73c-.98-.15-1.98-.05-2.91,.3l-.87,.36c-1.51,.65-1.67,1.93-.35,2.92l.46,.35c1.59,.23,3.2,.1,4.73-.38,1.43-.55,2.31-1.19,2.44-2.1l-.65-.42c-.85-.58-1.83-.94-2.85-1.03Z"/>
      <path class="cls-17" d="M307.94,341.96l-3.22,.16-.87,.75c-.13,.11-.15,.3-.04,.44,.01,.02,.03,.03,.04,.04l.87,.69,3.27-.13-.05-1.95Zm-3.44,1.36c-.13,0-.23-.1-.23-.23,0,0,0,0,0-.01,0-.13,.1-.23,.23-.23h0c.13,0,.23,.09,.24,.22,0,0,0,0,0,.01,0,.13-.11,.24-.24,.24h0Z"/>
      <path class="cls-17" d="M324.61,336.26c0,.49-.63,.9-1,1.1-.7,.39-1.47,.64-2.26,.73-.76-.89,.7-2.44,3.26-1.83Z"/>
      <path class="cls-17" d="M324.73,333.11c-2.36-1.95-6.06-2.67-8.66-1.18s-3.11,4.64-.72,6.59,6.66,2,9.24,.49,2.51-3.96,.14-5.9Zm-3.9-.46c.45-.22,.98-.13,1.34,.21,.25,.21,.29,.59,.08,.85-.05,.07-.12,.12-.2,.15-.45,.25-1,.19-1.39-.15-.26-.25-.27-.66-.02-.92,.06-.06,.12-.11,.2-.14Zm-4.74,3.64c-.26-.24-.28-.65-.04-.92,.06-.06,.13-.12,.21-.15,.44-.22,.98-.13,1.33,.21,.26,.21,.29,.59,.08,.84-.05,.06-.12,.12-.19,.16-.45,.28-1.03,.24-1.44-.1l.05-.04Zm7.84,1.46c-1.11,.59-2.35,.89-3.6,.87-1.09,.02-2.17-.21-3.16-.67l6.72-3.79c.72,.47,1.19,1.24,1.26,2.1-.15,.69-.62,1.26-1.27,1.53l.05-.04Z"/>
      <path class="cls-17" d="M338.83,324.32c-.24-.38-.54-.72-.89-1-1.68-1.44-4.05-1.77-6.06-.83-1.36,.62-1.95,2.22-1.33,3.58,.19,.41,.47,.76,.83,1.03,.21,.17,.43,.31,.67,.44h0c3,1.71,8.45,1.92,8.45,1.92-.05-1.84-.63-3.62-1.67-5.14Zm-2.61,1.89c-.98,.52-2.17,.46-3.09-.16-.57-.44-.68-1.25-.24-1.82,.13-.17,.29-.3,.48-.39,.96-.45,2.1-.29,2.9,.4,.8,.65,.83,1.47-.04,1.97h0Z"/>
    </g>
  </g>
  <g id="freepik--Character--inject-2">
    <g id="freepik--character--inject-2">
      <path class="cls-14" d="M447.48,334.88l-12.86,37.53c-.22,.63-.9,.97-1.54,.75-.35-.12-.63-.4-.75-.75l-12.69-37.83,27.84,.3Z"/>
      <path class="cls-16" d="M432.33,372.4c.22,.63,.9,.97,1.54,.75,.35-.12,.63-.4,.75-.75l2.51-7.33h0c-2.21,1.18-4.89,1.03-6.95-.39l-.56-.38,2.71,8.1Z"/>
      <path class="cls-17" d="M420.12,167.23v8.1l-.46,159.24c3.08,3.25,7.27,5.22,11.73,5.52,6.73,.7,13.64-1.51,16.1-5.21l.45-159.15v-8.47c-.33,5.48-28.06,5.47-27.82-.03Z"/>
      <path class="cls-1" d="M420.04,181.2v8.2c-.08,2.38,5,3.92,10.83,4.45,7.76,.74,16.9-1.36,17-4.51v-8.21c-.12,3.15-9.26,5.26-17,4.52-5.6-.52-10.5-2-10.78-4.19h0c-.04-.08-.06-.17-.05-.26Z"/>
      <path class="cls-14" d="M420.06,183.25c-.2,5.52,27.62,5.45,27.82-.07v-8.21c-.2,5.52-28,5.59-27.82,.07v8.21Z"/>
      <path class="cls-1" d="M420.12,167.23v8.1c-.24,5.42,26.61,5.58,27.82,.4,.03-.1,.04-.21,.05-.31v-8.16c-.38,5.48-28.11,5.47-27.87-.03Z"/>
      <path class="cls-14" d="M448.06,132.51v-.35c0-3.95-6.22-7.16-13.9-7.16s-13.91,3.21-13.91,7.16v3.73l-.13,31.34c-.1,2.35,4.9,3.9,10.7,4.46,7.76,.76,16.94-1.29,17.11-4.43h0l.12-34.5c.02-.11,0-.23,0-.25Z"/>
      <ellipse class="cls-7" cx="434.16" cy="132.16" rx="13.91" ry="7.16"/>
      <path class="cls-18" d="M447.91,175.73l.15-43.22c-.18,3.38-6,6.58-12.25,6.81l-.45,200.9-.74,32.19,12.86-37.53h0l.43-159.15Z"/>
      <path class="cls-8" d="M402.92,209.21c5.29-.77,11.81,3.21,16.35,9.59s20.36,21.91,22.1,26.85c1.26,3.6,.52,10.37-6.93,7.19-7.21-3.07-30.2-25.62-30.2-25.62l-1.32-18.01Z"/>
      <path class="cls-13" d="M400.39,209.21c1.7-.36,3.44-.56,5.18-.58,1.83,.12,5.94,1.21,10.17,5.33s15.21,17.43,15.21,17.43c0,0,.49,3.74-3.19,7.91s-7.12,4.17-7.12,4.17l-16.31-13.51-3.94-20.75Z"/>
      <path class="cls-8" d="M436.23,238.32l11.6-16.84v-12.37s2.56,.86,3.58,4.85,2.29,8.63,1.78,12-8.54,23.95-12.87,26.85-4.09-14.49-4.09-14.49Z"/>
      <polygon class="cls-8" points="384.02 203.62 386.28 217.86 400.39 217.1 398.37 200.56 384.02 203.62"/>
      <path class="cls-8" d="M374.53,186.16s-3.36,5.1-3,5.6,2.86,1,2.86,1l.14-6.6Z"/>
      <path class="cls-8" d="M383.83,172.04c-6.8,1.44-8.77,4.43-9.41,15.24-.67,11.3,.48,14.85,2,16.37,1,1,6.57,1.21,9.38,.44,3.51-1,11.46-3.79,15.18-9.47,4.37-6.68,5.52-15.75,.84-19.46-6.59-5.24-15.18-3.7-17.99-3.12Z"/>
      <path class="cls-10" d="M384.15,204.4c1.21-.22,2.41-.52,3.58-.9-.89,1.02-2.09,1.72-3.41,2l-.17-1.1Z"/>
      <path class="cls-16" d="M374.03,175.47c.95,.53,1.95,.93,3,1.21,1.66,.48,1.41,1.1,1.64,2.62,.2,1.37,.86,2.64,1.87,3.59,.65,.59,1.13,.64,1.35,1.54,.11,.94,.11,1.89,0,2.83,0,1.88,1.22,3.3,1.8,.79,0,0,1.08-4.18,4.6-3.65s3.83,4.49,2.15,7.6c-1,1.9-3.76,1.4-3.76,1.4-.2,3.54,1.14,6.99,3.68,9.47,0,0,3.5,2.6,9-.1,2.34-3,4.43-6.18,6.26-9.51,2.44-4.24,4.55-9.46,3.72-14.45-.27-1.87-1.09-3.61-2.37-5-.71-.64-1.13-1.54-1.14-2.5-.21-1.13-.81-2.14-1.7-2.87-1.42-1.12-3.34-1.38-5-.67-.14-1.79-1.42-3.28-3.16-3.7-1.72-.36-3.51-.11-5.07,.7-1.51-2.7-4.92-3.67-7.62-2.16-.7,.39-1.31,.93-1.78,1.57-.52-.8-1.4-1.31-2.36-1.36-.94-.03-1.88,.12-2.77,.44-.75,.22-1.48,.53-2.16,.92-2.53,1.57-3.77,4.58-3.08,7.47,.39,1.62,1.44,3.01,2.9,3.82Z"/>
      <path class="cls-16" d="M405.9,174.34l4.07-2.4c-.66-1.12-2.11-1.5-3.23-.84-1.12,.66-1.5,2.11-.84,3.24h0Z"/>
      <path class="cls-16" d="M409.7,385.73l.09,.91c.16,1.2,.19,2.42,.09,3.63,0,.93-.41,1.82-1.12,2.43-.83,.46-1.72,.79-2.65,1-2.07,.51-4.24,.29-6.17-.61-1.6-.77-2.85-2-4.58-2.47-1.79-.44-3.61-.74-5.44-.9-.82-.07-1.62-.21-2.41-.44-.6-.21-1.18-.47-1.73-.78-1.93-.91-3.67-2.19-5.13-3.75-.92-1.04-1.55-2.3-1.84-3.66-.16-.81-.48-3.12,.85-3.06,6.55,.29,13,1.7,19.58,1.62,.43-.03,.85-.03,1.28,0,.8,.17,1.55,.51,2.2,1,.55,.48,1.29,.66,2,.49,1.12-.17,2.27-.16,3.39,.05,.49,.07,.93,.37,1.17,.8,.06,.16,.1,.32,.1,.49,.11,1.17,.22,2.17,.32,3.25Z"/>
      <path class="cls-8" d="M409.03,377.89l-.34,4.93c-.32,1.88-6.72,3-8-.29l-.63-5.6,8.97,.96Z"/>
      <path class="cls-16" d="M384.66,397.41s.78,2.56,1.19,4.8c.32,1.78,.77,4.76,.12,6.08s-3.09,2.12-6.85,2c-2.43-.08-6.25,1.49-8.88,2.88s-8.29,1.9-11.12,1.51c-3.33-.47-6.74-2.49-7.25-3.88s.24-2.82,8.18-6c.07,0,11-3.32,14.92-7.43l9.69,.04Z"/>
      <path class="cls-8" d="M384.73,394.24s-.06,2.17-.07,3.42-1.53,3.06-5.33,2.84c-2.67-.16-4.51-.92-4.36-3.11l.07-3.17,9.69,.02Z"/>
      <path class="cls-17" d="M411.61,339.98c-1.13-9.6-2-15.11-2-15.11,0,0,.2-13.38,1-25.85,.85-13.48,.66-30.45,1-33.81,0,0-43.29-9.24-43.65,6.37-.4,18.14,.8,55.67,1.06,60.56,.36,6.86,.38,14,1.54,25.13,1.15,11,4.48,36.95,4.48,36.95,3.03,1.62,6.66,1.62,9.69,0,0,0,3.77-31.11,3.62-39-.09-5.73-.64-11.45-1.64-17.1l3.41-35.22s1.34,10.89,1.7,17.75,1.3,11.05,3,23.82c1.47,11.07,5.2,34.45,5.2,34.45,2.89,1.63,6.46,1.49,9.21-.37,0,0,3.51-28.96,2.38-38.57Z"/>
      <path class="cls-21" d="M411.61,339.98c-1.13-9.6-2-15.11-2-15.11,0,0,.2-13.38,1-25.85,.85-13.48,.66-30.45,1-33.81,0,0-43.29-9.24-43.65,6.37-.4,18.14,.8,55.67,1.06,60.56,.36,6.86,.38,14,1.54,25.13,1.15,11,4.48,36.95,4.48,36.95,3.03,1.62,6.66,1.62,9.69,0,0,0,3.77-31.11,3.62-39-.09-5.73-.64-11.45-1.64-17.1l3.41-35.22s1.34,10.89,1.7,17.75,1.3,11.05,3,23.82c1.47,11.07,5.2,34.45,5.2,34.45,2.89,1.63,6.46,1.49,9.21-.37,0,0,3.51-28.96,2.38-38.57Z"/>
      <path class="cls-20" d="M406.59,286.53s-3,4.95-12.1,8.57l-2.54,8.5-.27,14.94c-.35-4.81-.88-10.07-1.56-15.64l1-8.76s10.08-3.04,15.47-7.61Z"/>
      <path class="cls-14" d="M413.28,218.42c-1.74-6.19-5.83-8.92-10.36-9.21-1.15-.07-3.49,0-3.49,0,.32,2.63-7.76,4.48-14,3-1.9,.49-5,1.2-6.61,1.73-4.51,1.5-9.93,7.14-10.63,21.87,0,0-.72,31.65-.5,40.85,11.15,4.7,21.92,5.29,28.41,4,13.53-2.63,15.75-8.43,15.75-8.43,0,0-.12-8-.63-20.87,2.26-18.2,2.81-30.26,2.06-32.94Z"/>
      <path class="cls-8" d="M360.53,270.88c2.42,1.51,3.91,4.15,3.95,7,.19,2.88,.19,6,1.54,8.61,.22,.43,1.4,1.4,1.86,1.26v-3.68c.75-.95,2.8-2.72,3.33-3.81,.88-1.82-.15-4,.38-6,.34-.77,.57-1.59,.68-2.42,.15-2.1-.68-4.14-2.25-5.54-2-1.61-3.76-3.61-5.55-5.41-2.32-2.33-5.54-5.76-7.86-8.1l15.57-14.93c1.8-1.71,3.3-3.71,4.44-5.91,2.55-4.9,6-13.49,2.15-18-5.55,0-8.7,.85-14.37,7.46-4.89,5.7-20.5,24.4-22.51,27.57-2.01,3.17-3.16,5.34,.69,8.86,3.14,2.68,6.42,5.18,9.82,7.51,2.63,1.89,5.5,3.66,8.13,5.53Z"/>
      <path class="cls-10" d="M356.62,252.84c-1.4,1.35-3.01,2.46-4.77,3.28,2.09-.29,4.08-1.03,5.85-2.18l-1.08-1.1Z"/>
      <path class="cls-13" d="M380.52,213.45c-2.25-.11-4.51,.07-6.72,.51-3.37,.73-5.64,2.44-11.48,9.05s-9.94,12-9.94,12c0,0-1.68,3.72,3,7.94s8.9,3.49,8.9,3.49l13.12-12.76s9.36-9.79,3.12-20.23Z"/>
    </g>
  </g>
</svg>