<?xml version="1.0" encoding="UTF-8"?>
<svg id="Layer_1" data-name="Layer 1" xmlns="http://www.w3.org/2000/svg" viewBox="0 0 500 500">
  <defs>
    <style>
      .cls-1 {
        fill: #007503;
      }

      .cls-2 {
        fill: #ebebeb;
      }

      .cls-3 {
        fill: #eb996e;
      }

      .cls-4 {
        fill: #f5f5f5;
      }

      .cls-5 {
        fill: #fff;
      }

      .cls-6 {
        fill: #fafafa;
      }

      .cls-7 {
        fill: #ffbe9d;
      }

      .cls-8 {
        fill: #e8505b;
      }

      .cls-9 {
        fill: #e0e0e0;
      }

      .cls-10 {
        fill: #455a64;
      }

      .cls-11 {
        fill: #263238;
      }

      .cls-12 {
        fill: #5cbb61;
      }

      .cls-13 {
        opacity: .3;
      }

      .cls-14 {
        opacity: .6;
      }
    </style>
  </defs>
  <g id="Background_Complete" data-name="Background Complete">
    <g>
      <path class="cls-4" d="M49.34,421.35v26.61h-4.44v2.89h4.44v17.81h83.05v-16.2h-6.15v-3.53h6.15v-5.3h2.73v-2.41h-3.25v-19.87H49.34Z"/>
      <polygon class="cls-9" points="110.33 421.43 110.33 468.36 132.38 468.36 132.38 452.16 126.23 452.16 126.23 448.92 132.38 449.03 132.38 443.74 135.17 443.74 135.12 441.01 131.87 440.93 131.87 421.35 110.33 421.43"/>
      <path class="cls-9" d="M111.9,450.47c0,.16-15.03,.3-33.56,.3s-33.56-.13-33.56-.3,15.02-.3,33.56-.3c18.53,0,33.56,.13,33.56,.3Z"/>
      <path class="cls-9" d="M111.9,447.76c0,.16-15.03,.3-33.56,.3s-33.56-.13-33.56-.3,15.02-.3,33.56-.3c18.53,0,33.56,.13,33.56,.3Z"/>
      <path class="cls-9" d="M116.21,440.49c0,.16-15.03,.3-33.56,.3s-33.56-.13-33.56-.3,15.02-.3,33.56-.3c18.53,0,33.56,.13,33.56,.3Z"/>
      <path class="cls-9" d="M116.63,460.31c0,.16-15.03,.3-33.56,.3s-33.56-.13-33.56-.3,15.02-.3,33.56-.3c18.53,0,33.56,.13,33.56,.3Z"/>
    </g>
    <g>
      <path class="cls-4" d="M35.18,379.51v26.61h-4.44v2.89h4.44v17.81H118.23v-16.2h-6.15v-3.53h6.15v-5.3h2.73v-2.41h-3.25v-19.87H35.18Z"/>
      <polygon class="cls-9" points="96.18 379.59 96.18 426.52 118.23 426.52 118.23 410.32 112.08 410.32 112.08 407.08 118.23 407.19 118.23 401.9 121.02 401.9 120.97 399.17 117.72 399.09 117.72 379.51 96.18 379.59"/>
      <path class="cls-9" d="M97.75,408.63c0,.16-15.03,.3-33.56,.3s-33.56-.13-33.56-.3,15.02-.3,33.56-.3,33.56,.13,33.56,.3Z"/>
      <path class="cls-9" d="M97.75,405.92c0,.16-15.03,.3-33.56,.3s-33.56-.13-33.56-.3,15.02-.3,33.56-.3c18.53,0,33.56,.13,33.56,.3Z"/>
      <path class="cls-9" d="M102.06,398.65c0,.16-15.03,.3-33.56,.3s-33.56-.13-33.56-.3,15.02-.3,33.56-.3,33.56,.13,33.56,.3Z"/>
      <path class="cls-9" d="M102.47,418.47c0,.16-15.03,.3-33.56,.3s-33.56-.13-33.56-.3,15.02-.3,33.56-.3,33.56,.13,33.56,.3Z"/>
    </g>
    <g>
      <path class="cls-4" d="M367.52,420.86v26.61h-4.44v2.89h4.44v17.81h83.05v-16.2h-6.15v-3.53h6.15v-5.3h2.73v-2.41h-3.25v-19.87h-82.53Z"/>
      <polygon class="cls-9" points="428.52 420.93 428.52 467.87 450.57 467.87 450.57 451.66 444.42 451.66 444.42 448.43 450.57 448.54 450.57 443.24 453.36 443.25 453.31 440.51 450.06 440.43 450.06 420.86 428.52 420.93"/>
      <path class="cls-9" d="M430.09,449.97c0,.16-15.03,.3-33.56,.3s-33.56-.13-33.56-.3,15.02-.3,33.56-.3,33.56,.13,33.56,.3Z"/>
      <path class="cls-9" d="M430.09,447.27c0,.16-15.03,.3-33.56,.3s-33.56-.13-33.56-.3,15.02-.3,33.56-.3,33.56,.13,33.56,.3Z"/>
      <path class="cls-9" d="M434.4,439.99c0,.16-15.03,.3-33.56,.3s-33.56-.13-33.56-.3,15.02-.3,33.56-.3,33.56,.13,33.56,.3Z"/>
      <path class="cls-9" d="M434.82,459.82c0,.16-15.03,.3-33.56,.3s-33.56-.13-33.56-.3,15.02-.3,33.56-.3c18.53,0,33.56,.13,33.56,.3Z"/>
    </g>
    <g>
      <path class="cls-4" d="M361.82,373.55v26.61h-4.44v2.89h4.44v17.81h83.05v-16.2h-6.15v-3.53h6.15v-5.3h2.73v-2.41h-3.25v-19.87h-82.53Z"/>
      <polygon class="cls-9" points="422.81 373.63 422.81 420.56 444.87 420.56 444.87 404.36 438.72 404.36 438.72 401.12 444.87 401.23 444.87 395.94 447.65 395.94 447.6 393.2 444.35 393.12 444.35 373.55 422.81 373.63"/>
      <path class="cls-9" d="M424.39,402.67c0,.16-15.03,.3-33.56,.3s-33.56-.13-33.56-.3,15.02-.3,33.56-.3c18.53,0,33.56,.13,33.56,.3Z"/>
      <path class="cls-9" d="M424.39,399.96c0,.16-15.03,.3-33.56,.3s-33.56-.13-33.56-.3,15.02-.3,33.56-.3c18.53,0,33.56,.13,33.56,.3Z"/>
      <path class="cls-9" d="M428.7,392.69c0,.16-15.03,.3-33.56,.3s-33.56-.13-33.56-.3,15.02-.3,33.56-.3c18.53,0,33.56,.13,33.56,.3Z"/>
      <path class="cls-9" d="M429.11,412.51c0,.16-15.03,.3-33.56,.3s-33.56-.13-33.56-.3,15.02-.3,33.56-.3c18.53,0,33.56,.13,33.56,.3Z"/>
    </g>
    <g>
      <g>
        <path class="cls-4" d="M474.31,168.86c1.61-15.56-9.08-29.23-23.89-30.53-2.78-.24-5.51-.03-8.12,.57,.81,1.54,1.8,3.46,2.8,5.45,.21-.03,.41-.06,.62-.08,1.12-.12,2.27-.16,3.42-.11,1.15,.07,2.28,.23,3.38,.48,1.1,.24,2.15,.6,3.16,1.01,1.01,.41,1.96,.91,2.85,1.46,.9,.54,1.72,1.16,2.49,1.82,1.54,1.3,2.79,2.79,3.8,4.29,1,1.51,1.74,3.05,2.27,4.5,1.06,2.93,1.27,5.49,1.25,7.22-.03,1.74-.25,2.69-.34,2.68,0,0,0,0-.01-.01-.02,.23-.03,.46-.05,.69-1.2,11.59-10.92,20.27-21.9,19.73l-2.93,6.48c.49,.07,.98,.13,1.48,.18,14.81,1.3,28.12-10.27,29.73-25.83Z"/>
        <path class="cls-2" d="M445.51,169.2l.64,.66,.04-.43c-.23-.08-.45-.15-.68-.23Z"/>
        <path class="cls-2" d="M446.93,161.22l-1.64,2.54c.36,.28,.81,.53,1.34,.75l.29-3.28Z"/>
        <path class="cls-2" d="M451.38,172.98c.11-1.17-.76-1.88-2.08-2.48l-.21,2.39,1.51,1.56c.48-.38,.73-.89,.78-1.47Z"/>
        <path class="cls-2" d="M467.73,164.99c-.17-1.67-.54-4.09-1.67-6.8-.57-1.35-1.32-2.76-2.3-4.15-.99-1.37-2.2-2.72-3.65-3.91-.73-.59-1.5-1.15-2.35-1.65-.84-.5-1.72-.96-2.66-1.32-.94-.37-1.91-.69-2.93-.91-1.02-.22-2.06-.37-3.13-.43-1.06-.05-2.11-.02-3.14,.09,1.03,2.05,2.05,4.08,2.87,5.74l2.22,.16-.33,3.65c2.37,.37,4.63,1.21,6.28,2.51l-1.96,4.01c-1.54-1.09-3.14-1.78-4.71-2.1l-.51,5.7c3.45,1.13,7.23,2.65,6.8,7.37-.28,3.13-2.49,5.73-6.59,6.43l-3.92,8.65c11.01,.54,20.76-8.19,21.91-19.83,0-.23-.02-.61-.03-.85-.05-.39-.08-1.2-.19-2.35Z"/>
        <path class="cls-9" d="M445.89,145.9c1.03-.11,2.08-.14,3.14-.09,1.07,.07,2.12,.21,3.13,.43,1.02,.22,1.99,.54,2.93,.91,.94,.37,1.82,.82,2.66,1.32,.84,.49,1.62,1.05,2.35,1.65,1.46,1.18,2.66,2.53,3.65,3.91,.98,1.38,1.73,2.8,2.3,4.15,1.13,2.71,1.51,5.13,1.67,6.8,.15,1.62,.15,2.56,.26,2.62,0,0,0,.01,.01,.01,.09,0,.31-.94,.34-2.68,.02-1.73-.19-4.3-1.25-7.22-.53-1.46-1.27-2.99-2.27-4.5-1.01-1.5-2.26-2.98-3.8-4.29-.77-.65-1.59-1.27-2.49-1.82-.89-.55-1.84-1.06-2.85-1.46-1.01-.41-2.06-.76-3.16-1.01-1.1-.24-2.23-.41-3.38-.48-1.37-.07-2.72,0-4.04,.18,0,0,0,0,0,0,.26,.51,.52,1.03,.78,1.55Z"/>
        <path class="cls-9" d="M456.54,172.95c.42-4.72-3.35-6.25-6.8-7.37l.51-5.7c1.57,.32,3.18,1.01,4.71,2.1l1.96-4.01c-1.64-1.3-3.91-2.14-6.28-2.51l-3.72,5.77-.3,3.29c-.53-.22-.98-.47-1.34-.75l-2.02,3.13,2.24,2.31c.23,.08,.46,.16,.68,.23l-.04,.43,2.93,3.02,.21-2.39c1.32,.6,2.19,1.3,2.08,2.48-.05,.58-.31,1.09-.78,1.47l1.08,1.11-1.73,3.82c4.11-.7,6.31-3.3,6.59-6.43Z"/>
        <path class="cls-9" d="M448.76,151.64c1.12,2.25,1.89,3.81,1.89,3.81l.33-3.65-2.22-.16Z"/>
      </g>
      <g>
        <path class="cls-4" d="M443.21,188.25c-.35,0-.7,0-1.05-.02-1.16-.05-2.3-.22-3.39-.45-1.1-.23-2.16-.56-3.16-.95-1.01-.38-1.96-.85-2.86-1.36-1.8-1.02-3.33-2.26-4.62-3.56-1.28-1.31-2.31-2.7-3.1-4.04-1.6-2.7-2.26-5.18-2.55-6.89-.28-1.72-.22-2.69-.12-2.7,0,0,0,0,.01,0-.02-.23-.05-.46-.07-.68-.82-11.76,7.78-22.08,19.27-23.24l-.33-.62-3.04-5.66c-13.66,2.81-23.52,15.62-22.5,30.08,.98,13.91,11.68,24.63,24.86,25.87,.08-.18,.17-.37,.26-.55,.72-1.57,1.56-3.38,2.41-5.24Z"/>
        <path class="cls-2" d="M422.3,167.73c.05,.23,.13,.6,.18,.83,.12,.38,.29,1.17,.61,2.29,.46,1.61,1.27,3.93,2.9,6.4,.82,1.23,1.83,2.49,3.07,3.68,1.25,1.18,2.72,2.3,4.41,3.21,.84,.46,1.74,.88,2.68,1.22,.94,.34,1.92,.64,2.95,.84,1.02,.2,2.07,.35,3.15,.39,.29,.01,.57,.02,.86,.02,.44-.29,.79-.51,1.23-.8,2.36-5.14,4.55-9.89,4.55-9.89l-.2-.2c-.91,.5-1.98,.9-3.23,1.17l.31,3.72-3.29,.32-.31-3.65c-2.48,.04-4.93-.39-6.84-1.38l1.29-4.28c1.76,.81,3.51,1.21,5.17,1.25l-.37-4.41-1.12-1.12-.16-.16,.1-.16c-3.4-.55-6.8-1.65-7.16-5.92-.29-3.48,1.95-6.74,7.05-7.89l-.32-3.75,3.29-.32,.31,3.65c.92-.03,1.82,0,2.7,.1l-4.56-8.49c-11.53,1.17-20.15,11.55-19.27,23.35Z"/>
        <path class="cls-2" d="M445.32,172.33l-.27-.27,.03,.37c.09-.03,.16-.06,.24-.09Z"/>
        <path class="cls-2" d="M438.35,160.15c.1,1.17,1.11,1.71,2.56,2.08l-.39-4.62c-1.61,.53-2.26,1.47-2.17,2.54Z"/>
        <path class="cls-2" d="M444.13,161.13l2.43-3.68c-.9-.19-1.84-.29-2.77-.29l.34,3.98Z"/>
        <path class="cls-9" d="M439.1,186.2c-1.02-.2-2.01-.5-2.95-.84-.94-.34-1.84-.76-2.68-1.22-1.69-.91-3.16-2.03-4.41-3.21-1.24-1.19-2.26-2.45-3.07-3.68-1.63-2.47-2.44-4.79-2.9-6.4-.44-1.57-.6-2.49-.73-2.54,0,0,0,0-.01,0-.1,0-.15,.98,.12,2.7,.29,1.71,.95,4.2,2.55,6.89,.8,1.34,1.82,2.73,3.1,4.04,1.29,1.3,2.83,2.54,4.62,3.56,.89,.51,1.85,.98,2.86,1.36,1.01,.39,2.06,.72,3.16,.95,1.1,.23,2.23,.4,3.39,.45,.35,.02,.7,.02,1.05,.02,.18-.39,.36-.78,.54-1.17,.08-.16,.15-.33,.23-.49-.58,.02-1.16,.02-1.73,0-1.08-.04-2.13-.19-3.15-.39Z"/>
        <path class="cls-9" d="M436.63,171.6l-1.29,4.28c1.9,.99,4.36,1.43,6.84,1.38l.31,3.65,3.29-.32-.31-3.72c1.25-.27,2.32-.67,3.23-1.17l-2.25-2.25-1.12-1.12c-.08,.03-.15,.06-.24,.09l-.03-.37-2.19-2.2-1.42-1.43,.37,4.41c-1.66-.04-3.42-.44-5.17-1.25Z"/>
        <path class="cls-9" d="M443.12,149.12l-3.29,.32,.32,3.75c-5.1,1.15-7.35,4.4-7.05,7.89,.36,4.27,3.76,5.37,7.16,5.92l2.8-4.24,1.08-1.63-.34-3.98c.93,0,1.86,.1,2.77,.29l1.12-1.69-.5-.94-.71-1.32-.34-.63c-.88-.09-1.79-.13-2.7-.1l-.31-3.65Zm-4.77,11.04c-.09-1.07,.56-2.01,2.17-2.54l.39,4.62c-1.46-.36-2.46-.91-2.56-2.08Z"/>
      </g>
    </g>
    <g>
      <g>
        <path class="cls-4" d="M110.48,236.8c-12.26-20.2-37.61-26.89-56.61-14.93-3.57,2.24-6.66,4.99-9.25,8.1,2.38,1.11,5.32,2.53,8.35,4.01,.22-.23,.44-.45,.67-.67,1.24-1.18,2.58-2.27,4.02-3.25,1.45-.97,2.96-1.8,4.5-2.51,1.54-.71,3.13-1.24,4.72-1.67,1.59-.43,3.19-.69,4.76-.84,1.58-.16,3.14-.17,4.65-.08,3.04,.17,5.9,.81,8.48,1.69,2.58,.91,4.87,2.08,6.84,3.35,3.94,2.55,6.54,5.45,8.1,7.55,1.56,2.12,2.15,3.46,2.04,3.54,0,0-.02,0-.02,0,.19,.29,.38,.58,.56,.88,9.14,15.05,5.36,34.36-8.35,43.73l2.39,10.48c.65-.36,1.3-.74,1.94-1.14,19-11.95,24.47-38.02,12.2-58.22Z"/>
        <path class="cls-2" d="M76.13,263.51l1.38,.21-.35-.55c-.34,.12-.69,.23-1.03,.34Z"/>
        <path class="cls-2" d="M70.56,252.61l.35,4.55c.69,.01,1.46-.11,2.3-.32l-2.64-4.22Z"/>
        <path class="cls-2" d="M86.65,262.7c-.94-1.51-2.63-1.56-4.77-1.08l1.92,3.07,3.25,.5c.22-.9,.07-1.74-.4-2.48Z"/>
        <path class="cls-2" d="M99.02,238.16c-1.72-1.85-4.38-4.43-8.22-6.66-1.91-1.11-4.11-2.12-6.55-2.89-2.45-.75-5.13-1.27-7.96-1.37-1.41-.05-2.86-.02-4.33,.16-1.46,.17-2.94,.42-4.41,.84-1.46,.41-2.93,.91-4.36,1.58-1.43,.66-2.82,1.44-4.17,2.34-1.32,.91-2.56,1.9-3.7,2.97,3.12,1.53,6.19,3.04,8.69,4.29l2.81-1.83,2.94,4.7c3.19-1.71,6.68-2.77,9.84-2.71l1.3,6.61c-2.84,.09-5.4,.73-7.58,1.78l4.58,7.32c5.18-1.8,11.11-3.41,14.91,2.66,2.52,4.02,2.24,9.17-2.06,13.76l3.18,13.98c13.74-9.4,17.5-28.8,8.26-43.87-.22-.27-.59-.72-.81-.99-.42-.43-1.19-1.37-2.38-2.67Z"/>
        <path class="cls-9" d="M55.33,235.12c1.14-1.07,2.38-2.07,3.7-2.97,1.35-.9,2.74-1.68,4.17-2.34,1.43-.66,2.89-1.17,4.36-1.58,1.47-.42,2.95-.67,4.41-.84,1.46-.18,2.91-.21,4.33-.16,2.83,.09,5.51,.62,7.96,1.37,2.44,.77,4.64,1.79,6.55,2.89,3.84,2.23,6.5,4.8,8.22,6.66,1.67,1.81,2.51,2.94,2.71,2.92,0,0,.02,0,.02,0,.12-.08-.48-1.41-2.04-3.54-1.56-2.1-4.15-4.99-8.1-7.55-1.97-1.27-4.26-2.44-6.84-3.35-2.58-.88-5.44-1.53-8.48-1.69-1.52-.09-3.08-.08-4.65,.08-1.58,.15-3.18,.41-4.76,.84-1.59,.43-3.18,.96-4.72,1.67-1.54,.71-3.05,1.54-4.5,2.51-1.7,1.17-3.28,2.48-4.69,3.91t0,0c.78,.38,1.57,.76,2.35,1.15Z"/>
        <path class="cls-9" d="M92.82,257.95c-3.8-6.07-9.73-4.46-14.91-2.66l-4.58-7.32c2.18-1.05,4.74-1.69,7.58-1.78l-1.3-6.61c-3.17-.06-6.65,.99-9.84,2.71l.79,10.34,2.64,4.22c-.84,.22-1.61,.34-2.3,.32l.43,5.61,4.8,.73c.35-.11,.69-.23,1.03-.34l.35,.55,6.29,.96-1.92-3.07c2.14-.48,3.83-.43,4.77,1.08,.47,.75,.62,1.59,.4,2.48l2.32,.36,1.4,6.17c4.3-4.59,4.58-9.73,2.06-13.76Z"/>
        <path class="cls-9" d="M64.02,239.41c3.4,1.69,5.75,2.87,5.75,2.87l-2.94-4.7-2.81,1.83Z"/>
      </g>
      <g>
        <path class="cls-4" d="M90.76,288.53c-.42,.32-.85,.64-1.28,.94-1.44,1-2.96,1.83-4.49,2.56-1.53,.73-3.11,1.29-4.67,1.75-1.56,.46-3.14,.77-4.68,.97-3.09,.42-6.07,.32-8.81-.06-2.74-.41-5.24-1.14-7.42-2.03-4.38-1.79-7.45-4.17-9.35-5.96-1.9-1.82-2.72-3.04-2.61-3.13,0,0,.02,0,.02,0-.24-.25-.47-.5-.7-.77-11.72-13.39-10.8-33.67,1.98-45.56l-.97-.44-8.82-4.04c-13.88,15.85-14.05,40.26,.37,56.74,13.87,15.85,36.53,18.98,53.52,8.44-.07-.29-.13-.59-.2-.9-.56-2.55-1.21-5.49-1.88-8.5Z"/>
        <path class="cls-2" d="M46.86,282.92c.27,.23,.71,.6,.97,.83,.49,.35,1.42,1.14,2.81,2.2,2.03,1.52,5.12,3.57,9.34,5.06,2.1,.74,4.48,1.33,7.06,1.63,2.58,.27,5.37,.29,8.24-.16,1.43-.22,2.89-.53,4.34-.98,1.45-.45,2.9-.98,4.31-1.68,1.41-.69,2.81-1.47,4.15-2.4,.35-.25,.7-.5,1.05-.77,.27-.75,.47-1.34,.74-2.09-1.85-8.34-3.55-16.06-3.55-16.06l-.43-.06c-.64,1.44-1.56,2.9-2.82,4.36l3.77,4.19-3.66,3.39-3.7-4.11c-2.95,2.32-6.29,4.03-9.5,4.58l-2.35-6.33c2.85-.64,5.33-1.76,7.36-3.22l-4.48-4.97-2.37-.33-.34-.05-.02-.28c-4.59,2.44-9.69,4.22-14.02-.59-3.53-3.92-3.81-9.89,1.29-15.93l-3.81-4.23,3.66-3.39,3.7,4.11c1.07-.88,2.2-1.66,3.34-2.35l-13.23-6.05c-12.81,11.93-13.71,32.29-1.87,45.68Z"/>
        <path class="cls-2" d="M78.77,267.45l-.57-.08,.37,.41c.08-.11,.14-.22,.2-.33Z"/>
        <path class="cls-2" d="M59.26,259.16c1.19,1.32,2.9,1.05,4.98,.17l-4.69-5.21c-1.46,2.11-1.38,3.83-.29,5.04Z"/>
        <path class="cls-2" d="M67.1,255.05l-.44-6.65c-1.26,.6-2.48,1.32-3.6,2.17l4.03,4.48Z"/>
        <path class="cls-9" d="M83.94,289.81c-1.41,.7-2.87,1.23-4.31,1.68-1.45,.45-2.9,.77-4.34,.98-2.87,.45-5.66,.44-8.24,.16-2.58-.3-4.96-.89-7.06-1.63-4.22-1.48-7.31-3.54-9.34-5.06-1.97-1.49-3-2.45-3.19-2.39,0,0-.02,0-.02,0-.1,.1,.71,1.32,2.61,3.13,1.9,1.79,4.97,4.18,9.35,5.96,2.18,.89,4.68,1.62,7.42,2.03,2.74,.39,5.73,.48,8.81,.06,1.54-.2,3.11-.51,4.68-.97,1.56-.45,3.14-1.02,4.67-1.75,1.53-.73,3.05-1.56,4.49-2.56,.43-.3,.86-.61,1.28-.94-.14-.63-.28-1.27-.42-1.91-.06-.27-.12-.53-.18-.8-.68,.56-1.37,1.08-2.08,1.58-1.33,.93-2.73,1.72-4.15,2.41Z"/>
        <path class="cls-9" d="M67.64,274.5l2.35,6.33c3.2-.54,6.55-2.26,9.5-4.58l3.7,4.11,3.66-3.39-3.77-4.19c1.25-1.46,2.18-2.93,2.82-4.36l-4.76-.66-2.37-.33c-.07,.11-.13,.22-.21,.33l-.37-.41-4.64-.64-3.02-.42,4.48,4.97c-2.03,1.47-4.51,2.59-7.36,3.22Z"/>
        <path class="cls-9" d="M54.92,241.52l-3.66,3.39,3.81,4.23c-5.1,6.04-4.82,12.01-1.29,15.93,4.33,4.81,9.43,3.03,14.02,.59l-.5-7.65-.19-2.95-4.03-4.48c1.12-.85,2.34-1.57,3.6-2.17l-.2-3.06-1.46-.67-2.06-.94-.99-.45c-1.14,.69-2.27,1.47-3.34,2.35l-3.7-4.11Zm4.34,17.63c-1.09-1.21-1.17-2.93,.29-5.04l4.69,5.21c-2.08,.89-3.79,1.16-4.98-.17Z"/>
      </g>
    </g>
    <g>
      <g>
        <path class="cls-4" d="M466.55,92.42c11.97-22.14,4.47-49.04-16.74-60.07-3.98-2.07-8.17-3.44-12.42-4.14,.26,2.79,.54,6.26,.81,9.83,.33,.08,.65,.16,.97,.26,1.75,.51,3.47,1.15,5.15,1.95,1.67,.81,3.25,1.75,4.73,2.79,1.48,1.04,2.83,2.21,4.07,3.44,1.25,1.23,2.35,2.56,3.34,3.93,1,1.36,1.85,2.79,2.58,4.23,1.48,2.88,2.43,5.86,3.01,8.71,.55,2.86,.71,5.6,.6,8.09-.22,5-1.49,8.94-2.58,11.51-1.11,2.57-2.02,3.84-2.16,3.78,0,0,0-.02,0-.02-.17,.33-.33,.66-.5,.99-8.92,16.49-28.7,23.41-44.69,15.86l-8.35,7.83c.68,.41,1.38,.8,2.1,1.17,21.21,11.03,48.11,2.03,60.08-20.11Z"/>
        <path class="cls-2" d="M423.52,75.22l.55,1.38,.32-.62c-.29-.25-.58-.51-.87-.77Z"/>
        <path class="cls-2" d="M430.54,64.23l-3.99,2.76c.36,.64,.89,1.28,1.54,1.94l2.46-4.7Z"/>
        <path class="cls-2" d="M429.93,84.45c.88-1.68,.02-3.26-1.57-4.97l-1.79,3.42,1.29,3.25c.95-.27,1.64-.87,2.07-1.7Z"/>
        <path class="cls-2" d="M459.14,82.62c.78-2.58,1.71-6.42,1.7-11.14-.01-2.36-.26-4.92-.87-7.58-.63-2.65-1.59-5.4-3.03-8.05-.71-1.33-1.52-2.64-2.47-3.89-.94-1.25-1.97-2.48-3.14-3.6-1.17-1.13-2.42-2.2-3.8-3.16-1.38-.95-2.84-1.82-4.39-2.57-1.55-.73-3.13-1.33-4.72-1.8,.27,3.69,.53,7.33,.74,10.3l3.2,1.6-2.73,5.23c3.29,2.01,6.14,4.65,7.79,7.59l-5.38,4.75c-1.61-2.56-3.57-4.57-5.72-6.01l-4.27,8.16c4.44,3.8,9.11,8.38,5.58,15.14-2.34,4.48-7.22,7-13.75,5.51l-11.14,10.45c16.04,7.57,35.89,.59,44.77-16.01,.13-.35,.35-.93,.48-1.28,.17-.61,.62-1.83,1.17-3.62Z"/>
        <path class="cls-9" d="M438.42,40.82c1.6,.47,3.18,1.07,4.72,1.8,1.55,.76,3.02,1.62,4.39,2.57,1.38,.95,2.63,2.03,3.8,3.16,1.17,1.12,2.2,2.35,3.14,3.6,.95,1.25,1.76,2.56,2.47,3.89,1.44,2.65,2.4,5.4,3.03,8.05,.61,2.66,.86,5.23,.87,7.58,.02,4.73-.92,8.56-1.7,11.14-.77,2.51-1.35,3.9-1.23,4.06,0,0,0,.02,0,.02,.13,.07,1.04-1.2,2.16-3.78,1.09-2.56,2.36-6.51,2.58-11.51,.11-2.49-.05-5.23-.6-8.09-.58-2.85-1.52-5.82-3.01-8.71-.74-1.44-1.58-2.87-2.58-4.23-.99-1.37-2.09-2.7-3.34-3.93-1.25-1.23-2.59-2.4-4.07-3.44-1.48-1.04-3.06-1.97-4.73-2.79-1.99-.94-4.04-1.67-6.12-2.21,0,0,0,0,0,0,.07,.92,.14,1.85,.21,2.78Z"/>
        <path class="cls-9" d="M437.62,87.57c3.54-6.76-1.13-11.34-5.58-15.14l4.27-8.16c2.14,1.44,4.1,3.45,5.72,6.01l5.38-4.75c-1.65-2.94-4.49-5.58-7.79-7.59l-9.08,6.28-2.46,4.7c-.65-.65-1.18-1.3-1.54-1.94l-4.93,3.41,1.91,4.81c.29,.26,.58,.51,.87,.77l-.32,.62,2.5,6.3,1.79-3.42c1.6,1.71,2.45,3.29,1.57,4.97-.43,.83-1.12,1.43-2.07,1.7l.92,2.32-4.92,4.61c6.53,1.49,11.41-1.03,13.76-5.51Z"/>
        <path class="cls-9" d="M439.15,51.12c.28,4.03,.46,6.83,.46,6.83l2.73-5.23-3.2-1.6Z"/>
      </g>
      <g>
        <path class="cls-4" d="M408.39,102.13c-.52-.22-1.04-.44-1.55-.68-1.7-.79-3.28-1.74-4.77-2.75-1.5-1.01-2.86-2.16-4.12-3.35-1.27-1.19-2.39-2.47-3.41-3.78-2.04-2.61-3.57-5.41-4.68-8.14-1.1-2.74-1.77-5.43-2.13-7.91-.71-4.99-.17-9.09,.45-11.81,.65-2.73,1.33-4.13,1.47-4.09,0,0,0,.02,.01,.02,.11-.35,.21-.71,.33-1.06,6-17.98,25.14-28.04,42.95-22.7l-.11-1.13-1.04-10.28c-22.04-4.23-44.56,8.75-51.95,30.87-7.1,21.28,2.21,43.79,21.04,53.74,.23-.22,.47-.44,.72-.67,2.04-1.89,4.4-4.07,6.8-6.31Z"/>
        <path class="cls-2" d="M389.93,58.76c-.07,.37-.17,.97-.24,1.35-.06,.63-.29,1.91-.51,3.77-.3,2.68-.53,6.63,.38,11.31,.45,2.33,1.19,4.83,2.3,7.37,1.14,2.52,2.63,5.09,4.58,7.49,.97,1.2,2.04,2.37,3.24,3.46,1.19,1.09,2.46,2.14,3.86,3.06,1.39,.93,2.87,1.79,4.44,2.52,.42,.19,.84,.38,1.27,.55,.84-.16,1.48-.28,2.32-.44,6.67-6.19,12.85-11.91,12.85-11.91l-.17-.42c-1.66,.18-3.51,.12-5.53-.24l-1.82,5.72-5.08-1.54,1.79-5.62c-3.71-1.46-7.1-3.62-9.32-6.26l4.56-5.57c2.12,2.28,4.48,3.96,6.92,5.03l2.16-6.79-.98-2.36-.14-.34,.25-.17c-4.71-2.91-9.09-6.63-7-13.2,1.71-5.36,7.04-8.83,15.33-7.39l1.84-5.77,5.08,1.54-1.79,5.61c1.38,.51,2.71,1.13,3.96,1.81l-1.55-15.42c-17.86-5.36-37.06,4.78-43,22.86Z"/>
        <path class="cls-2" d="M421.32,79.76l-.24-.57-.18,.56c.15,.01,.28,0,.42,.01Z"/>
        <path class="cls-2" d="M418.44,57.37c-.57,1.81,.59,3.23,2.53,4.67l2.26-7.11c-2.72-.2-4.27,.8-4.79,2.45Z"/>
        <path class="cls-2" d="M426.43,62.37l5.88-3.98c-1.22-.83-2.55-1.56-3.93-2.14l-1.95,6.12Z"/>
        <path class="cls-9" d="M403.55,96.55c-1.4-.92-2.68-1.97-3.86-3.06-1.2-1.08-2.26-2.26-3.24-3.46-1.96-2.39-3.45-4.96-4.58-7.49-1.12-2.54-1.85-5.04-2.3-7.37-.91-4.68-.68-8.62-.38-11.31,.31-2.61,.64-4.08,.48-4.22,0,0,0-.02-.01-.02-.15-.04-.83,1.36-1.47,4.09-.62,2.71-1.16,6.82-.45,11.81,.36,2.48,1.03,5.17,2.13,7.91,1.12,2.73,2.64,5.52,4.68,8.14,1.02,1.31,2.14,2.59,3.41,3.78,1.26,1.19,2.62,2.34,4.12,3.35,1.49,1.02,3.08,1.96,4.77,2.75,.51,.24,1.03,.46,1.55,.68,.51-.47,1.02-.94,1.52-1.41,.21-.2,.42-.39,.64-.59-.88-.32-1.73-.68-2.57-1.06-1.58-.72-3.05-1.59-4.44-2.52Z"/>
        <path class="cls-9" d="M408.85,73.33l-4.56,5.57c2.22,2.65,5.6,4.8,9.32,6.26l-1.79,5.62,5.08,1.54,1.82-5.72c2.02,.36,3.86,.43,5.53,.24l-1.96-4.73-.97-2.35c-.14,0-.27,0-.42-.01l.18-.56-1.91-4.61-1.24-3-2.16,6.79c-2.44-1.08-4.8-2.76-6.92-5.04Z"/>
        <path class="cls-9" d="M432.31,43.89l-5.08-1.54-1.84,5.77c-8.29-1.44-13.63,2.03-15.33,7.39-2.09,6.57,2.29,10.3,7,13.2l6.76-4.58,2.61-1.76,1.95-6.11c1.38,.57,2.71,1.3,3.93,2.14l2.7-1.83-.17-1.71-.24-2.4-.12-1.15c-1.25-.68-2.57-1.29-3.96-1.81l1.79-5.61Zm-13.87,13.48c.52-1.65,2.07-2.65,4.79-2.45l-2.26,7.11c-1.94-1.44-3.1-2.86-2.53-4.67Z"/>
      </g>
    </g>
  </g>
  <g id="Chart">
    <g>
      <g>
        <g>
          <rect class="cls-5" x="89.45" y="40.47" width="312.84" height="203.01"/>
          <path class="cls-9" d="M402.79,243.98H88.95V39.97H402.78V243.98h0Zm-312.84-1H401.78V40.97H89.95V242.98Z"/>
        </g>
        <path class="cls-9" d="M141.86,243.48c-.14,0-.26-45.64-.26-101.92s.12-101.93,.26-101.93,.26,45.63,.26,101.93c0,56.28-.12,101.92-.26,101.92Z"/>
        <path class="cls-9" d="M194.28,243.48c-.14,0-.26-45.45-.26-101.5s.12-101.51,.26-101.51,.26,45.44,.26,101.51c0,56.05-.12,101.5-.26,101.5Z"/>
        <path class="cls-9" d="M245.92,243.48c-.14,0-.26-45.45-.26-101.5s.12-101.51,.26-101.51,.26,45.44,.26,101.51c0,56.05-.12,101.5-.26,101.5Z"/>
        <path class="cls-9" d="M297.56,243.48c-.14,0-.26-45.45-.26-101.5s.12-101.51,.26-101.51,.26,45.44,.26,101.51-.12,101.5-.26,101.5Z"/>
        <path class="cls-9" d="M349.2,243.48c-.14,0-.26-45.45-.26-101.5s.12-101.51,.26-101.51,.26,45.44,.26,101.51-.12,101.5-.26,101.5Z"/>
        <path class="cls-9" d="M402.29,73c0,.14-70.01,.26-156.36,.26s-156.38-.12-156.38-.26,70-.26,156.38-.26,156.36,.12,156.36,.26Z"/>
        <path class="cls-9" d="M402.29,107.81c0,.14-70.01,.26-156.36,.26s-156.38-.12-156.38-.26,70-.26,156.38-.26c86.35,0,156.36,.12,156.36,.26Z"/>
        <path class="cls-9" d="M402.29,142.62c0,.14-70.01,.26-156.36,.26s-156.38-.12-156.38-.26,70-.26,156.38-.26,156.36,.12,156.36,.26Z"/>
        <path class="cls-9" d="M402.29,177.44c0,.14-70.01,.26-156.36,.26s-156.38-.12-156.38-.26,70-.26,156.38-.26c86.35,0,156.36,.12,156.36,.26Z"/>
        <path class="cls-9" d="M402.29,212.25c0,.14-70.01,.26-156.36,.26s-156.38-.12-156.38-.26,70-.26,156.38-.26,156.36,.12,156.36,.26Z"/>
      </g>
      <g>
        <path class="cls-12" d="M365.41,229.22c-.07,.05-.97-1.13-2.63-3.43-1.65-2.3-4.06-5.71-7.15-10.13-6.17-8.85-15.06-21.72-26.06-37.76h1.48c-6.89,9.99-14.69,21.29-23.18,33.59-.34,.49-1.02,.62-1.51,.28-.15-.1-.27-.24-.34-.39h0c-15.34-29.37-33.69-64.49-53.44-102.29l2.15,.24c-1.8,2.14-3.73,4.46-5.68,6.78-8.51,10.14-16.85,20.07-24.92,29.7-.45,.54-1.26,.62-1.8,.16-.17-.14-.29-.32-.37-.51-10.36-26-20.05-50.33-28.71-72.05l1.91,.28c-10.2,12.74-19.49,24.35-27.78,34.69h0c-.32,.4-.9,.47-1.29,.15-.1-.08-.18-.18-.24-.29-9.55-18.33-17.24-33.18-22.49-43.47-2.63-5.15-4.65-9.15-6-11.88-.67-1.37-1.18-2.41-1.5-3.12-.32-.71-.47-1.08-.43-1.1,.04-.02,.27,.31,.67,.98,.4,.67,.98,1.67,1.73,3,1.5,2.65,3.66,6.58,6.43,11.65,5.54,10.14,13.47,24.86,23.23,43.08l-1.54-.14c8.19-10.42,17.38-22.11,27.47-34.94,.38-.49,1.08-.57,1.57-.19,.16,.12,.27,.28,.34,.46h0c8.75,21.69,18.54,45.97,29.01,71.94l-2.17-.35c8.07-9.63,16.4-19.58,24.9-29.73,1.95-2.32,3.88-4.63,5.68-6.78,.46-.55,1.28-.62,1.83-.16,.13,.11,.24,.25,.32,.4,19.61,37.87,37.83,73.06,53.07,102.48l-1.86-.12c8.61-12.22,16.51-23.44,23.5-33.36h0c.28-.41,.84-.51,1.24-.22,.09,.06,.17,.15,.23,.23,10.81,16.17,19.46,29.2,25.39,38.22,2.96,4.51,5.24,8.01,6.75,10.4,1.52,2.39,2.28,3.66,2.21,3.71Z"/>
        <path class="cls-12" d="M366.77,203.94c.7,.04,.67,11.31-.06,25.36-.04,.72-.65,1.27-1.37,1.23-.09,0-.19-.02-.27-.04-.25-.07-.51-.14-.78-.21-13.94-3.76-25.08-7.37-24.89-8.06s11.63,1.79,25.57,5.55c.27,.07,.53,.14,.78,.21l-1.64,1.19c.78-14.04,1.96-25.25,2.66-25.22Z"/>
      </g>
    </g>
  </g>
  <g id="Plant">
    <g>
      <g>
        <rect class="cls-11" x="363" y="408.73" width="70.81" height="9.73"/>
        <path class="cls-11" d="M433.93,418.58h-71.05v-9.97h71.05v9.97Zm-70.81-.24h70.57v-9.49h-70.57v9.49Z"/>
      </g>
      <polygon class="cls-11" points="369.57 415.23 379.76 465.51 417.47 465.51 427.33 418.46 369.57 415.23"/>
      <polygon class="cls-10" points="369.57 460.75 375.01 468.23 420.84 468.23 427.33 460.75 369.57 460.75"/>
      <path class="cls-11" d="M395.75,416.69c-.14,0-.32-23.29-.4-52.02-.08-28.74-.03-52.03,.11-52.03s.32,23.29,.4,52.03c.08,28.73,.03,52.02-.11,52.02Z"/>
      <path class="cls-11" d="M411.52,358.4s-.05,.19-.19,.54c-.17,.4-.38,.89-.63,1.51-.14,.33-.3,.69-.46,1.09-.15,.41-.3,.85-.47,1.32-.17,.48-.35,.98-.55,1.52-.19,.54-.34,1.12-.52,1.73-.77,2.41-1.39,5.38-1.98,8.67-.52,3.31-.9,6.98-1.1,10.84-.35,7.74,.09,14.75,.56,19.8,.23,2.53,.46,4.57,.62,5.98,.07,.66,.13,1.2,.18,1.63,.04,.37,.05,.57,.03,.57-.02,0-.06-.19-.13-.56-.07-.42-.16-.96-.27-1.61-.23-1.4-.51-3.44-.79-5.97-.56-5.05-1.05-12.09-.71-19.86,.2-3.88,.6-7.57,1.14-10.89,.62-3.31,1.28-6.28,2.1-8.7,.2-.61,.36-1.19,.56-1.73,.21-.53,.4-1.04,.59-1.51,.18-.47,.35-.91,.51-1.31,.17-.4,.35-.75,.51-1.07,.29-.6,.53-1.09,.72-1.47,.17-.33,.27-.51,.28-.5Z"/>
      <path class="cls-11" d="M409.71,339.56s-.06,.27-.23,.77c-.18,.54-.43,1.26-.74,2.17-.16,.47-.35,.99-.54,1.56-.18,.58-.37,1.21-.57,1.88-.41,1.35-.89,2.88-1.32,4.6-.23,.86-.46,1.76-.71,2.69-.21,.95-.43,1.93-.66,2.95-.49,2.03-.85,4.23-1.31,6.53-.78,4.63-1.47,9.74-1.94,15.14-.45,5.4-.64,10.56-.71,15.25-.01,4.69,.05,8.92,.24,12.47,.06,1.77,.18,3.38,.27,4.79,.08,1.41,.17,2.62,.26,3.61,.07,.95,.13,1.71,.17,2.28,.03,.52,.04,.8,.03,.8-.02,0-.06-.27-.13-.79-.07-.57-.16-1.32-.27-2.27-.12-.99-.24-2.2-.35-3.61-.12-1.41-.26-3.01-.34-4.79-.24-3.55-.33-7.79-.35-12.49,.04-4.7,.22-9.88,.67-15.29,.48-5.41,1.18-10.54,1.99-15.17,.47-2.31,.84-4.51,1.36-6.54,.24-1.02,.47-2,.69-2.95,.26-.93,.51-1.83,.74-2.69,.45-1.72,.95-3.25,1.4-4.59,.22-.67,.42-1.29,.61-1.87,.21-.56,.41-1.08,.58-1.55,.35-.89,.62-1.61,.83-2.14,.2-.49,.3-.74,.32-.73Z"/>
      <path class="cls-11" d="M391.27,420.81s-.02-.09-.04-.27c-.02-.21-.04-.47-.07-.8-.05-.74-.12-1.77-.21-3.08-.17-2.72-.41-6.58-.71-11.35-.61-9.58-1.5-22.81-3.11-37.36-.82-7.28-1.78-14.19-2.77-20.45-.53-3.13-1.01-6.1-1.55-8.87-.5-2.78-1.04-5.35-1.53-7.7-.46-2.35-.98-4.46-1.4-6.32-.41-1.86-.81-3.45-1.14-4.75-.31-1.27-.56-2.28-.73-3-.07-.32-.13-.58-.18-.78-.04-.18-.05-.27-.04-.27s.04,.08,.09,.26c.06,.2,.13,.45,.23,.77,.2,.72,.48,1.71,.83,2.98,.36,1.29,.79,2.88,1.22,4.74,.44,1.86,.99,3.96,1.48,6.31,.52,2.35,1.07,4.92,1.59,7.69,.56,2.77,1.06,5.74,1.6,8.88,1.02,6.27,1.99,13.19,2.81,20.47,1.61,14.57,2.45,27.81,2.97,37.4,.26,4.79,.44,8.67,.55,11.36,.05,1.31,.09,2.35,.11,3.09,0,.33,.01,.59,.02,.8,0,.19,0,.28-.01,.28Z"/>
      <path class="cls-12" d="M395.17,323.84c-.31-3.3-3.64-5.79-6.96-5.82s-6.4,1.95-8.43,4.58c-2.03,2.62-3.14,5.82-4.06,9.01-2.23,7.77-3.45,15.94-2.5,23.98s4.21,15.94,9.98,21.62c.94,.92,2.15,1.85,3.44,1.57,.7-.15,1.28-.64,1.81-1.12,11.32-10.23,17.86-25.55,17.41-40.8-.09-3.05-.49-6.23-2.18-8.78-1.69-2.55-5.63-5.25-8.51-4.23"/>
      <g>
        <path class="cls-8" d="M370.42,297.41c-1.56,2.82-3.11,5.64-4.67,8.45-.11,.2-.25,.42-.48,.44-.24,.02-.43-.21-.56-.42-4.11-6.31-8.23-12.63-12.34-18.94l2.84-1.61,15.2,12.08Z"/>
        <path class="cls-1" d="M370.42,297.41c-1.56,2.82-3.11,5.64-4.67,8.45-.11,.2-.25,.42-.48,.44-.24,.02-.43-.21-.56-.42-4.11-6.31-8.23-12.63-12.34-18.94l2.84-1.61,15.2,12.08Z"/>
        <path class="cls-12" d="M395.46,312.64c-14.03-8.28-28.07-16.56-42.1-24.84-.43-.25-.89-.55-1.02-1.03-.17-.62,.3-1.22,.75-1.69,5.79-5.97,14.2-9.44,22.5-8.84,8.3,.6,16.28,5.39,20.34,12.65,4.06,7.26,4.2,16.86-.46,23.75"/>
        <path class="cls-11" d="M359.43,279.87s.19-.04,.55-.07c.36-.02,.9-.08,1.59-.08,1.38-.03,3.39,.06,5.84,.46,2.45,.4,5.32,1.19,8.32,2.53,3,1.33,6.1,3.26,8.93,5.79,2.8,2.56,5.03,5.46,6.66,8.31,1.63,2.85,2.7,5.63,3.34,8.03,.65,2.39,.94,4.39,1.04,5.77,.08,.69,.05,.86,.06,1.23,0,.36-.31,.92-.33,.92-.05,0,.23-.76,.07-2.12-.16-1.36-.51-3.33-1.19-5.69-1.33-4.69-4.42-11.01-10-16.06-5.58-5.04-12.17-7.49-16.97-8.34-2.41-.45-4.4-.59-5.78-.62-1.38-.03-2.14,0-2.14-.05Z"/>
        <path class="cls-11" d="M389.76,295.5c.02,.06-.79,.44-2.13,.97-1.34,.53-3.22,1.2-5.31,1.87-2.1,.67-4.02,1.2-5.42,1.54-1.4,.34-2.28,.5-2.3,.44-.02-.07,.83-.35,2.2-.78,1.55-.48,3.36-1.05,5.36-1.67,1.99-.64,3.8-1.23,5.35-1.73,1.37-.44,2.22-.7,2.25-.63Z"/>
        <path class="cls-11" d="M383.13,277.69c.14-.01,.43,2.09,.5,4.7,.07,2.61-.12,4.72-.26,4.72-.14,0-.18-2.11-.24-4.7-.06-2.59-.13-4.7,0-4.71Z"/>
        <path class="cls-11" d="M352.99,287.33c-.02-.06,1.14-.49,3.06-1.08,1.91-.59,4.58-1.34,7.55-2.05,2.97-.71,5.68-1.26,7.65-1.61,1.97-.35,3.2-.5,3.21-.43,.01,.07-1.19,.35-3.14,.78-1.95,.43-4.64,1.04-7.61,1.75-2.96,.71-5.63,1.4-7.57,1.9s-3.13,.8-3.15,.73Z"/>
      </g>
      <g>
        <path class="cls-12" d="M377.7,316.68c-3.62-2.75-7.45-3.29-11.99-3.11-4.54,.18-8.96,1.56-13.12,3.39-7.1,3.11-13.77,7.69-18.01,14.18-4.24,6.49-5.72,15.07-2.54,22.14,.32,.7,.73,1.44,1.44,1.74,.75,.32,1.6,.07,2.38-.18,8.07-2.63,16.2-5.29,23.63-9.42,7.42-4.12,14.18-9.86,18.16-17.36,.96-1.8,1.76-3.73,1.91-5.76,.16-2.03-.41-4.19-1.85-5.63"/>
        <path class="cls-11" d="M377.77,315.83s-.2,.1-.58,.24c-.44,.15-1,.34-1.69,.58-.37,.12-.78,.26-1.23,.41-.44,.16-.92,.36-1.43,.56-1.02,.41-2.21,.83-3.46,1.43-.63,.29-1.29,.59-1.98,.9-.69,.32-1.37,.71-2.1,1.08-1.46,.72-2.94,1.64-4.52,2.57-3.1,1.96-6.37,4.31-9.56,7.09-3.16,2.81-5.92,5.76-8.25,8.58-1.12,1.45-2.22,2.8-3.12,4.16-.46,.67-.93,1.3-1.33,1.94-.4,.64-.78,1.26-1.15,1.85-.76,1.16-1.32,2.29-1.86,3.24-.26,.48-.52,.93-.73,1.35-.2,.42-.39,.81-.56,1.16-.33,.66-.59,1.19-.79,1.6-.19,.36-.29,.55-.31,.55-.02,0,.06-.21,.21-.59,.18-.42,.42-.97,.71-1.65,.16-.36,.33-.76,.52-1.19,.2-.43,.45-.88,.7-1.37,.52-.98,1.06-2.12,1.8-3.3,.36-.6,.73-1.23,1.12-1.88,.4-.65,.86-1.29,1.32-1.97,.89-1.38,1.98-2.75,3.11-4.21,2.33-2.86,5.1-5.84,8.28-8.67,3.21-2.8,6.52-5.16,9.65-7.11,1.59-.93,3.09-1.84,4.57-2.54,.73-.36,1.43-.75,2.12-1.06,.7-.3,1.36-.6,2-.88,1.26-.59,2.46-.98,3.5-1.37,.52-.19,1-.37,1.45-.52,.45-.13,.86-.26,1.24-.37,.71-.2,1.28-.36,1.72-.49,.4-.11,.61-.15,.61-.14Z"/>
        <path class="cls-11" d="M349.48,331.14c.04,.13-3.9,1.4-8.81,2.84-4.9,1.43-8.91,2.49-8.95,2.35-.04-.13,3.9-1.4,8.81-2.84,4.9-1.43,8.91-2.49,8.95-2.35Z"/>
        <path class="cls-11" d="M349.12,350.58c-.07,0-.15-1.05-.19-2.74-.05-1.7-.05-4.04,.02-6.63,.07-2.59,.21-4.93,.35-6.62,.14-1.69,.28-2.73,.35-2.73,.07,0,.06,1.05,0,2.75-.06,1.86-.13,4.12-.2,6.62-.06,2.5-.12,4.76-.17,6.62-.04,1.69-.09,2.74-.16,2.74Z"/>
        <path class="cls-11" d="M365.77,342.1c-.14,.01-.58-4.76-.99-10.64-.41-5.89-.62-10.67-.48-10.68,.14-.01,.58,4.76,.99,10.64,.41,5.89,.62,10.67,.48,10.68Z"/>
        <path class="cls-11" d="M345.05,320.31c0-.07,1.08-.1,2.82-.08,1.74,.01,4.14,.06,6.8,.15,2.65,.09,5.05,.2,6.79,.3,1.74,.1,2.81,.2,2.81,.27s-1.08,.1-2.82,.08-4.14-.06-6.8-.15c-2.65-.09-5.06-.2-6.8-.3-1.74-.1-2.81-.2-2.81-.27Z"/>
      </g>
      <path class="cls-11" d="M385.01,378.3s-.04-.19-.06-.56c-.02-.42-.04-.96-.07-1.62-.06-1.41-.08-3.44-.02-5.96,.05-2.52,.22-5.51,.52-8.83,.33-3.31,.8-6.95,1.48-10.73,.7-3.78,1.53-7.36,2.4-10.58,.89-3.22,1.78-6.08,2.63-8.46,.84-2.38,1.57-4.29,2.12-5.59,.26-.61,.47-1.1,.64-1.49,.15-.34,.24-.52,.26-.51,.02,0-.04,.19-.16,.55-.14,.4-.33,.9-.55,1.53-.5,1.32-1.18,3.24-1.97,5.63-.8,2.39-1.66,5.26-2.52,8.47-.83,3.22-1.65,6.78-2.35,10.55-.68,3.77-1.16,7.39-1.52,10.69-.33,3.3-.53,6.29-.63,8.8-.1,2.51-.14,4.54-.14,5.95,0,.66-.02,1.2-.02,1.62-.01,.37-.02,.57-.04,.57Z"/>
      <path class="cls-11" d="M387.23,350.74s-.59,.76-1.68,1.84-2.64,2.54-4.4,4.09c-1.77,1.55-3.41,2.89-4.63,3.83-1.22,.94-2.01,1.48-2.05,1.42-.04-.06,.66-.69,1.82-1.7,1.29-1.12,2.83-2.46,4.53-3.93,1.68-1.49,3.2-2.84,4.49-3.97,1.15-1.02,1.87-1.63,1.92-1.58Z"/>
      <path class="cls-11" d="M400.56,361.47c-.06,.04-.73-.92-1.79-2.48-1.15-1.68-2.58-3.77-4.16-6.07-1.61-2.28-3.07-4.35-4.25-6.01-1.09-1.54-1.76-2.49-1.7-2.54,.05-.04,.82,.84,1.99,2.33,1.17,1.48,2.73,3.57,4.38,5.94,1.64,2.36,3.06,4.55,4.05,6.17,.99,1.61,1.55,2.64,1.49,2.67Z"/>
      <path class="cls-11" d="M393.58,327.71c.08,.12-4.35,3.1-9.89,6.65-5.54,3.56-10.08,6.35-10.16,6.23-.08-.12,4.35-3.1,9.89-6.66,5.53-3.56,10.08-6.35,10.16-6.23Z"/>
      <path class="cls-11" d="M406.06,341.19c-.1,.1-3.1-2.67-6.7-6.19-3.6-3.52-6.44-6.45-6.34-6.55,.1-.1,3.1,2.67,6.7,6.19,3.6,3.52,6.44,6.45,6.34,6.55Z"/>
      <g>
        <path class="cls-12" d="M409.2,340.92l3.8-.32c2.7-.22,5.32-1.02,7.67-2.35,1.17-.66,2.34-1.3,3.58-1.8,4.7-1.89,9.94-1.55,14.99-1.8,8.25-.41,16.42-2.5,23.86-6.1,.43-.21,.81-.52,1.04-.94,.78-1.42-.67-2.69-1.92-3.46-6.4-3.95-12.92-7.94-20.18-9.9-7.26-1.96-15.5-1.63-21.7,2.64-7.27,5-9.92,15.28-11.15,24.02"/>
        <path class="cls-11" d="M464.22,327.14s-.23-.09-.64-.3c-.46-.24-1.05-.55-1.8-.94-1.56-.82-3.81-2.03-6.65-3.4-2.84-1.35-6.29-2.87-10.3-3.97-3.99-1.11-8.6-1.69-13.35-1.08-4.73,.62-9.08,2.46-12.17,5.23-3.1,2.75-5,6.08-6.33,8.9-1.33,2.85-2.16,5.27-2.76,6.93-.28,.8-.51,1.43-.68,1.92-.16,.44-.25,.66-.27,.66s.04-.24,.17-.69c.15-.49,.34-1.14,.59-1.95,.54-1.68,1.32-4.12,2.62-7.02,1.31-2.86,3.19-6.26,6.35-9.1,3.14-2.85,7.6-4.74,12.41-5.38,4.83-.62,9.51-.01,13.54,1.13,4.04,1.14,7.49,2.7,10.33,4.1,2.83,1.41,5.06,2.67,6.59,3.55,.73,.43,1.31,.77,1.76,1.03,.4,.24,.6,.37,.59,.39Z"/>
        <path class="cls-11" d="M455.09,332.05c-.08,.12-5.05-3.1-11.1-7.18-6.05-4.08-10.9-7.48-10.82-7.6,.08-.11,5.05,3.1,11.1,7.18,6.05,4.08,10.89,7.48,10.82,7.6Z"/>
        <path class="cls-11" d="M449.79,317.01c.02,.11-1.58,.48-3.62,.65-2.04,.17-3.69,.07-3.69-.05,0-.12,1.64-.2,3.65-.37,2.01-.16,3.64-.35,3.66-.23Z"/>
        <path class="cls-11" d="M428.04,314.17c.12,.05-.61,1.2-1.63,2.55-1.02,1.35-1.95,2.4-2.07,2.35-.12-.05,.61-1.2,1.63-2.55,1.02-1.35,1.95-2.4,2.07-2.35Z"/>
        <path class="cls-11" d="M432.49,334.97c-.03,.06-.96-.42-2.39-1.3-1.44-.87-3.38-2.15-5.45-3.65-2.07-1.51-3.9-2.93-5.21-3.97-1.31-1.04-2.11-1.71-2.06-1.77,.04-.05,.91,.51,2.28,1.48,1.49,1.08,3.3,2.4,5.3,3.85,2.07,1.5,3.96,2.82,5.35,3.76,1.38,.94,2.24,1.53,2.2,1.6Z"/>
      </g>
      <g>
        <path class="cls-12" d="M414.79,357.06c-3.62-.96-7.94,2.57-8.69,6.24-.75,3.67,.63,7.43,2.24,10.81,3.57,7.49,8.5,14.44,14.99,19.61,6.49,5.17,14.62,8.48,22.92,8.44-1.53-7.12,.41-14.55-.45-21.78-.75-6.31-3.69-12.34-8.2-16.81-4.52-4.47-10.57-7.35-16.89-8.04-2.31-.25-4.99-.61-5.91,1.52"/>
        <path class="cls-11" d="M446.25,402.16s-.18-.07-.52-.24c-.33-.18-.8-.47-1.36-.91-1.14-.86-2.44-2.53-3.58-4.79-.58-1.12-1.22-2.34-1.86-3.69-.61-1.35-1.26-2.8-1.95-4.31-.69-1.51-1.45-3.08-2.4-4.61-.94-1.53-2.06-3.03-3.3-4.48-2.48-2.92-5.14-5.44-7.45-7.85-2.32-2.4-4.27-4.71-5.68-6.82-1.42-2.1-2.29-3.98-2.78-5.3-.23-.67-.4-1.19-.48-1.55-.09-.36-.13-.55-.11-.56,.05-.01,.25,.74,.78,2.04,.54,1.29,1.44,3.12,2.89,5.17,1.43,2.06,3.39,4.32,5.72,6.7,2.32,2.38,4.99,4.9,7.5,7.84,1.25,1.47,2.38,2.99,3.33,4.55,.95,1.56,1.71,3.15,2.4,4.67,.67,1.52,1.31,2.97,1.91,4.33,.61,1.34,1.24,2.57,1.79,3.7,1.09,2.26,2.31,3.9,3.39,4.8,1.06,.91,1.78,1.25,1.75,1.3Z"/>
        <path class="cls-11" d="M427.5,396.25c-.07-.01,.05-.95,.33-2.44,.28-1.49,.75-3.54,1.38-5.77,.63-2.23,1.3-4.22,1.84-5.64,.54-1.42,.93-2.28,.99-2.25,.07,.02-.2,.92-.65,2.37-.45,1.45-1.06,3.44-1.69,5.67-.62,2.22-1.14,4.25-1.52,5.71-.37,1.47-.61,2.38-.68,2.36Z"/>
        <path class="cls-11" d="M445.56,378.78c-.02,.07-.99-.18-2.55-.59-1.56-.41-3.72-.97-6.12-1.51-2.4-.54-4.59-.96-6.17-1.26-1.59-.3-2.57-.49-2.56-.56,0-.07,1.01,0,2.61,.21,1.61,.21,3.82,.58,6.23,1.12,2.41,.54,4.57,1.16,6.11,1.66,1.54,.5,2.47,.87,2.45,.93Z"/>
        <path class="cls-11" d="M414.06,383.85c-.07-.01,.07-1.09,.39-2.82,.32-1.73,.83-4.11,1.5-6.71,.68-2.6,1.4-4.92,1.97-6.59,.57-1.67,.97-2.68,1.04-2.65,.07,.02-.22,1.07-.7,2.76-.48,1.69-1.14,4.02-1.82,6.61-.67,2.59-1.24,4.95-1.64,6.65-.41,1.71-.67,2.76-.74,2.75Z"/>
        <path class="cls-11" d="M437.24,363.55c-.02,.14-4.54-.23-10.1-.82-5.57-.59-10.07-1.18-10.05-1.32,.02-.14,4.54,.23,10.11,.82,5.57,.59,10.07,1.18,10.05,1.32Z"/>
      </g>
      <path class="cls-10" d="M433.93,418.42c0,.14-15.9,.25-35.52,.25s-35.52-.11-35.52-.25,15.9-.25,35.52-.25,35.52,.11,35.52,.25Z"/>
      <path class="cls-10" d="M422.86,438.89c0,.14-10.72,.25-23.93,.25s-23.93-.11-23.93-.25,10.71-.25,23.93-.25c13.22,0,23.93,.11,23.93,.25Z"/>
      <path class="cls-10" d="M422.45,441.82c0,.14-10.53,.25-23.52,.25s-23.52-.11-23.52-.25,10.53-.25,23.52-.25c12.99,0,23.52,.11,23.52,.25Z"/>
      <path class="cls-10" d="M423.28,436.48c0,.14-11.08,.25-24.76,.25s-24.76-.11-24.76-.25,11.08-.25,24.76-.25,24.76,.11,24.76,.25Z"/>
    </g>
  </g>
  <g id="Floor">
    <path class="cls-11" d="M466.75,468.23c0,.14-97.25,.26-217.18,.26s-217.21-.12-217.21-.26,97.23-.26,217.21-.26c119.93,0,217.18,.12,217.18,.26Z"/>
  </g>
  <g>
    <g>
      <polygon class="cls-9" points="219.89 358.21 221.68 467.9 227.82 467.9 227.82 358.21 219.89 358.21"/>
      <polygon class="cls-9" points="296.61 356.03 296.61 467.93 302.58 467.96 302.58 356.03 296.61 356.03"/>
      <rect class="cls-9" x="221.75" y="378.89" width="75.63" height="6.66"/>
      <path class="cls-10" d="M314.36,359.23h-106.56c-2.07,0-3.75-1.68-3.75-3.75v-11.36c0-2.07,1.68-3.75,3.75-3.75h106.56c2.07,0,3.75,1.68,3.75,3.75v11.36c0,2.07-1.68,3.75-3.75,3.75Z"/>
    </g>
    <g>
      <path class="cls-7" d="M164.39,241.75l.6-30.05,9.31-20.9s1.24-2.21,2.19-1.08-.21,2.51-.21,2.51c0,0,2.14-.45,1.76,1.62s-1.02,4.71-1.02,4.71c0,0,.43,2.4-1.81,6.63-2.24,4.23-2.4,6.12-2.4,6.12,0,0,2.83,3.96,5.06,4.91s4.19,.27,5.79-1.28c1.6-1.55,5.55-3.54,5.55-3.54l2.88,3.4s-4.31,4.69-5.12,6.31-3.21,7.73-5.7,9.84c-2.49,2.11-3.09,9.34-3.09,9.34,0,0-1.26,7.56-13.8,1.46Z"/>
      <path class="cls-3" d="M167.25,213.31c-.07-.03,.33-1.16,1.01-2.98,.69-1.82,1.67-4.32,2.79-7.06,.56-1.36,1.1-2.66,1.6-3.87,.26-.6,.57-1.17,.99-1.61,.42-.45,.94-.74,1.46-.85,.52-.11,1.04,0,1.38,.25,.35,.24,.54,.57,.62,.85,.16,.58-.09,.88-.1,.86-.05,0,.1-.31-.09-.79-.18-.46-.84-1.06-1.73-.81-.43,.11-.87,.38-1.22,.78-.35,.4-.63,.93-.87,1.51-.49,1.21-1.01,2.51-1.56,3.87-1.12,2.75-2.16,5.22-2.93,7-.78,1.78-1.29,2.87-1.36,2.84Z"/>
      <path class="cls-3" d="M175.26,192.52c.07,.07-.74,.96-1.7,2.64-.98,1.66-1.99,4.15-2.99,6.94-1,2.8-2.03,5.32-3.07,7-.51,.84-.97,1.49-1.33,1.9-.36,.42-.57,.63-.59,.61-.07-.06,.69-.99,1.61-2.7,.93-1.7,1.9-4.19,2.9-6.99,1-2.8,2.08-5.31,3.16-6.96,.25-.42,.53-.77,.76-1.09,.23-.32,.45-.57,.64-.77,.37-.4,.59-.61,.62-.59Z"/>
      <path class="cls-3" d="M176.18,226.68c-.06,.02-.36-.6-.49-1.69-.14-1.08-.05-2.66,.65-4.21,.7-1.55,1.81-2.66,2.71-3.28,.91-.62,1.57-.81,1.59-.75,.04,.07-.56,.38-1.37,1.04-.81,.66-1.81,1.75-2.46,3.2s-.8,2.92-.76,3.96c.04,1.05,.21,1.7,.13,1.72Z"/>
      <path class="cls-3" d="M175.26,232.14s.09-.27,0-.78c-.07-.5-.28-1.22-.57-2.09-.57-1.76-1.49-4.14-2.34-6.85-.41-1.36-.78-2.67-.9-3.93-.07-.63,.06-1.29,.22-1.79,.16-.51,.31-.99,.45-1.45,.26-.87,.29-1.61,.21-2.1-.08-.5-.22-.75-.18-.77,.02-.02,.23,.21,.38,.73,.15,.51,.18,1.32-.05,2.24-.1,.46-.25,.95-.39,1.47-.15,.53-.24,1.05-.16,1.64,.13,1.18,.51,2.48,.92,3.82,.84,2.69,1.71,5.1,2.19,6.9,.24,.9,.4,1.65,.41,2.18,.05,.54-.16,.83-.19,.8Z"/>
    </g>
    <g>
      <g>
        <path class="cls-12" d="M158.01,427.06l1.83,27.57s-27.44,9.11-27.6,14.23l53.61,.39-1.08-43.07-26.76,.88Z"/>
        <g class="cls-14">
          <path class="cls-5" d="M176.33,451.8c1.04,.25,1.8,1.4,1.59,2.45-.21,1.05-1.37,1.83-2.42,1.6-1.05-.23-1.99-1.58-1.67-2.6,.32-1.02,1.73-1.86,2.7-1.38"/>
        </g>
        <g class="cls-14">
          <path class="cls-5" d="M185.84,469.24l-.11-4.34-51.78,1.43s-1.72,.74-1.99,2.91h53.88Z"/>
        </g>
        <path class="cls-11" d="M158.96,454.37c.02,.26,1.33,.34,2.64,1.14,1.33,.77,2.03,1.88,2.27,1.77,.24-.06-.2-1.61-1.8-2.55-1.6-.96-3.17-.6-3.11-.36Z"/>
        <path class="cls-11" d="M153.41,456.87c-.05,.26,1.09,.67,2.02,1.75,.95,1.05,1.21,2.24,1.47,2.22,.25,.03,.38-1.5-.79-2.83-1.16-1.33-2.7-1.39-2.7-1.14Z"/>
        <path class="cls-11" d="M150.42,463.69c.24,.05,.56-1.27-.15-2.68-.71-1.42-1.96-1.95-2.06-1.72-.14,.22,.68,.96,1.25,2.13,.6,1.15,.7,2.26,.96,2.27Z"/>
        <path class="cls-11" d="M159.24,448.05c.12,.23,1.31-.16,2.79-.11,1.48,.03,2.65,.49,2.78,.26,.15-.19-1.01-1.13-2.75-1.17-1.74-.05-2.95,.82-2.81,1.02Z"/>
      </g>
      <g class="cls-13">
        <polygon points="158.37 432.51 158.69 437.43 185.02 436.39 184.92 431.96 158.37 432.51"/>
      </g>
      <path class="cls-11" d="M158.97,442.48c0,.11,1.04,.24,2.68-.1,.82-.17,1.78-.47,2.78-.95,.5-.24,1.01-.53,1.52-.86,.24-.17,.53-.33,.79-.65,.28-.28,.43-.98,.08-1.4-.29-.4-.78-.57-1.16-.56-.4,0-.71,.09-1,.17-.59,.16-1.15,.38-1.65,.62-1.01,.5-1.82,1.11-2.43,1.7-1.21,1.19-1.6,2.18-1.51,2.23,.12,.08,.7-.76,1.94-1.74,.62-.49,1.41-1.01,2.35-1.42,.47-.2,.99-.39,1.53-.52,.56-.17,1.05-.18,1.2,.06,.06,.1,.06,.13-.05,.3-.12,.16-.34,.31-.58,.48-.46,.32-.93,.61-1.39,.85-.92,.49-1.8,.84-2.56,1.07-1.52,.47-2.53,.58-2.52,.72Z"/>
      <path class="cls-11" d="M159.32,442.84c.09,.04,.59-.92,.63-2.61,.02-.84-.1-1.86-.46-2.93-.18-.53-.42-1.08-.73-1.61-.33-.52-.73-1.22-1.75-1.3-.53,0-.96,.42-1.1,.78-.17,.37-.19,.68-.25,.99-.08,.63-.05,1.24,.05,1.81,.2,1.14,.7,2.07,1.23,2.74,1.09,1.36,2.19,1.64,2.21,1.55,.08-.13-.84-.61-1.68-1.92-.41-.65-.79-1.5-.93-2.5-.07-.49-.08-1.02,0-1.55,.07-.57,.27-1.04,.48-.99,.27-.01,.73,.4,.96,.85,.29,.47,.52,.96,.71,1.43,.37,.96,.54,1.88,.6,2.66,.12,1.57-.13,2.56,.02,2.59Z"/>
    </g>
    <g>
      <path class="cls-11" d="M152.38,434.87s-2.09-94.25-.24-105.05,8.88-22.36,15.55-23.43,66.1-5.27,66.1-5.27h44.24l-11.3,42.95-54.05,.49-16.79,.39-5.41,89.91h-38.09Z"/>
      <path class="cls-10" d="M194.83,330.81c.06-.02,.4,.68,.8,1.89,.39,1.2,.81,2.91,1.01,4.84,.2,1.93,.15,3.69,.02,4.94-.13,1.26-.32,2.02-.39,2.01-.16-.02,.26-3.11-.15-6.9-.39-3.79-1.45-6.73-1.29-6.78Z"/>
      <path class="cls-10" d="M178.67,338.85s.23-.17,.68-.37c.45-.2,1.12-.49,1.97-.76,.85-.26,1.92-.51,3.14-.46,1.23,.03,2.52,.57,3.66,1.32,2.27,1.5,4.27,2.9,5.72,3.93,1.44,1.03,2.32,1.7,2.28,1.76-.04,.06-.99-.5-2.48-1.45-1.5-.95-3.54-2.31-5.79-3.79-1.12-.73-2.28-1.22-3.41-1.28-1.13-.08-2.16,.12-3.01,.33-1.69,.45-2.72,.86-2.75,.77Z"/>
      <path class="cls-10" d="M163.87,433.44c-.14,0-.26-21.39-.26-47.78s.12-47.79,.26-47.79,.26,21.39,.26,47.79c0,26.39-.12,47.78-.26,47.78Z"/>
      <path class="cls-10" d="M186.85,310.9c0,.11-1.85,.11-4.7,.85-2.84,.72-6.68,2.35-10.04,5.34-3.36,2.99-5.41,6.62-6.45,9.36-1.06,2.75-1.28,4.59-1.38,4.57-.03,0,0-.46,.13-1.29,.13-.82,.41-2,.9-3.41,.97-2.81,3.02-6.56,6.45-9.62,3.43-3.06,7.39-4.67,10.29-5.3,1.46-.33,2.66-.47,3.49-.51,.83-.04,1.29-.02,1.29,.01Z"/>
      <path class="cls-10" d="M208.6,308.51c.02,.14-3.63,.71-8.15,1.28-4.52,.56-8.2,.9-8.21,.76-.02-.14,3.63-.71,8.15-1.28,4.52-.56,8.2-.9,8.21-.76Z"/>
    </g>
    <g>
      <path class="cls-12" d="M259.95,427.47l-2.6,31.52-9.24,24.34c-.67,1.75,.29,3.71,2.09,4.25h0c1.01,.3,2.09,.11,2.92-.53,5.28-4.1,24.65-19.27,24.71-21.59,.07-2.68,4.94-33.07,4.94-33.07l-22.83-4.93Z"/>
      <g class="cls-14">
        <path class="cls-5" d="M250.2,487.58l27.86-24.24-.14,1.33c-.12,1.15-.64,2.23-1.48,3.02-2.24,2.14-8.57,7.9-23.22,19.36-.85,.67-1.99,.86-3.01,.52h0Z"/>
      </g>
      <g class="cls-14">
        <path class="cls-5" d="M272.67,452.52c-.85,.46-1.23,1.63-.8,2.49,.43,.86,1.61,1.26,2.46,.82,.85-.45,1.36-1.83,.84-2.64-.52-.81-1.93-1.2-2.65-.57"/>
      </g>
      <path class="cls-11" d="M258.84,474.6c-.19,.07-.72-1.65-2.5-2.74-1.74-1.14-3.53-.88-3.55-1.07-.02-.08,.4-.28,1.15-.31,.74-.03,1.79,.18,2.77,.8,.97,.61,1.62,1.47,1.91,2.15,.3,.68,.3,1.15,.22,1.17Z"/>
      <path class="cls-11" d="M256.15,478.57c-.16,.12-1.07-1.01-2.64-1.65-1.56-.67-3-.52-3.03-.72-.07-.17,1.51-.68,3.3,.08,1.79,.74,2.55,2.22,2.38,2.29Z"/>
      <path class="cls-11" d="M263.58,469.64c-.16,.13-1.54-1.61-3.91-2.82-2.35-1.24-4.57-1.37-4.55-1.58-.03-.17,2.35-.36,4.87,.96,2.53,1.3,3.75,3.36,3.59,3.43Z"/>
      <path class="cls-11" d="M265.17,460.12c-.1,.18-1.77-.73-4.02-1.05-2.25-.35-4.1,.03-4.15-.17-.07-.16,1.83-.89,4.25-.52,2.42,.35,4.03,1.6,3.91,1.74Z"/>
      <path class="cls-11" d="M266.16,450.89c-.12,.17-1.75-1.06-4.15-1.2-2.4-.2-4.19,.79-4.28,.61-.05-.07,.34-.43,1.11-.77,.76-.34,1.93-.62,3.22-.53,1.29,.09,2.41,.53,3.11,.98,.71,.45,1.04,.86,.99,.92Z"/>
      <path class="cls-11" d="M262.25,447.93s-.07-.43,.08-1.19c.15-.75,.49-1.85,1.27-3.02,.4-.55,.83-1.26,1.76-1.58,.46-.16,1.1-.01,1.43,.44,.33,.44,.39,.97,.35,1.47-.24,1.99-2.16,3.74-4.44,3.79-2.28,.01-4.19-1.49-4.9-3.31-.15-.47-.23-1.03,.07-1.53,.3-.51,.96-.66,1.4-.53,.92,.24,1.45,.84,1.96,1.3,.99,.99,1.57,1.97,1.89,2.67,.32,.7,.41,1.12,.37,1.14-.12,.07-.63-1.63-2.6-3.45-.5-.42-1.07-.95-1.73-1.09-.32-.07-.62,.03-.77,.29-.15,.24-.12,.64,.01,1.01,.61,1.49,2.35,2.86,4.28,2.82,1.92-.02,3.6-1.56,3.81-3.17,.05-.39-.02-.79-.2-1.04-.18-.25-.48-.34-.79-.26-.64,.18-1.12,.8-1.51,1.31-1.57,2.17-1.62,3.97-1.76,3.92Z"/>
    </g>
    <g>
      <path class="cls-11" d="M292.57,317.17s-27.06,2.43-31.55,7.02c-4.48,4.59-6.25,15.44-7.42,22.47-1.18,7.04-2.85,91.02-2.85,91.02l39,1.13,5.69-90.91s18.14-1.11,21.11-13.33c2.96-12.22-4.44-33.45-4.44-33.45l-20.49,4.58,.95,11.46Z"/>
      <path class="cls-10" d="M295.74,332.5c.14,0,.09,3.9-.12,8.69-.21,4.79-.5,8.67-.64,8.67-.14,0-.09-3.89,.12-8.69,.21-4.79,.5-8.67,.64-8.66Z"/>
      <path class="cls-10" d="M302.74,332.74c.06,0,.15,.97,0,2.53-.15,1.56-.62,3.7-1.59,5.9-.98,2.2-2.26,3.98-3.32,5.13-1.06,1.16-1.84,1.74-1.88,1.7-.14-.11,2.83-2.7,4.72-7.04,1.95-4.31,1.89-8.25,2.06-8.22Z"/>
      <path class="cls-10" d="M251.94,386.96s-.03-.23-.04-.67v-1.92c.01-1.73,.03-4.12,.05-7.06,.07-5.96-.01-14.2,.61-23.29,.6-9.08,2.22-17.3,4.61-22.8,.61-1.37,1.12-2.62,1.75-3.64,.59-1.03,1.05-1.95,1.58-2.6,.47-.64,.84-1.15,1.14-1.55,.26-.35,.41-.53,.42-.52s-.1,.21-.34,.58c-.27,.41-.62,.94-1.05,1.6-.5,.67-.93,1.59-1.49,2.63-.6,1.02-1.09,2.27-1.67,3.64-2.28,5.49-3.84,13.64-4.43,22.7-.62,9.06-.6,17.3-.76,23.26-.07,2.98-.14,5.39-.22,7.06-.04,.79-.07,1.43-.1,1.92-.03,.44-.05,.67-.07,.67Z"/>
      <path class="cls-10" d="M267.94,431.72s-.02-.09-.03-.27c0-.21-.02-.48-.03-.8-.02-.75-.05-1.78-.08-3.1-.07-2.69-.1-6.59-.07-11.4,.04-9.62,.42-22.92,1.48-37.57,1.07-14.65,2.63-27.87,3.99-37.4,.67-4.77,1.27-8.61,1.72-11.27,.22-1.3,.4-2.32,.53-3.05,.06-.32,.11-.58,.15-.79,.04-.18,.06-.27,.07-.27s0,.1-.02,.27c-.03,.21-.06,.47-.1,.8-.1,.74-.25,1.77-.43,3.07-.39,2.66-.93,6.52-1.56,11.29-1.26,9.54-2.76,22.74-3.83,37.39-1.06,14.64-1.5,27.92-1.63,37.54-.07,4.81-.1,8.7-.1,11.39,0,1.32-.01,2.35-.02,3.1,0,.33-.01,.6-.02,.81,0,.18-.01,.28-.02,.28Z"/>
    </g>
    <g>
      <path class="cls-7" d="M229.13,308.97s-13.24,6.83-16.23,9.39c-2.99,2.56-9.72,9.46-12.81,13.02l-7.69,15.16s.19,8.31,.72,10.35c.51,1.96,3.55,2.46,3.55,.12s.21-7.9,.21-7.9l3.63-5.34-1.92,5.12s-.54,10.97,1.49,11.74c1.99,.75,2.92-.18,2.92-2.53s.21-8.82,.21-8.82l3.58-6.02-.74,6.9s-.85,8.54,.21,9.82c1.07,1.28,2.99-.85,2.99-.85,0,0,2.56,4.91,3.63,.21,1.07-4.7,1.71-9.61,1.71-9.61l5.76-14.57,5.55-8.92,9.4-3.42s1.92-11.96-6.19-13.88Z"/>
      <path class="cls-3" d="M212.58,342.51c.07,.03-.29,.93-.79,2.41-.51,1.47-1.13,3.54-1.59,5.86-.46,2.33-.68,4.47-.78,6.03-.1,1.55-.11,2.52-.19,2.53-.06,0-.18-.96-.18-2.54,0-1.57,.17-3.75,.63-6.11,.47-2.36,1.16-4.44,1.76-5.89,.6-1.46,1.08-2.31,1.14-2.28Z"/>
    </g>
    <g>
      <path class="cls-12" d="M238.27,203.13s21.02-1.58,29.16,1.31c8.14,2.89,21.02,7.62,23.12,18.39,0,0,11.04,33.63,12.09,39.93,1.05,6.31,5.26,26.8,5.26,26.8,0,0,6.57,5.52,6.57,11.04l-39.93,8.93s-30.48,1.05-40.72-8.41v-6.57s-2.63-2.89-3.41-6.04c-.79-3.15-1.58-6.31-1.58-6.31,0,0-20.23-16.55-22.86-21.81-2.63-5.26-18.92-31-18.92-31,0,0,.79-11.04,11.04-16.29,10.24-5.25,40.2-9.98,40.2-9.98Z"/>
      <path class="cls-12" d="M205.95,260.41s-.13,.52-.37,1.44c-1.89,7.27-10.53,39.61-15.51,41.82-5.6,2.49-17.41,5.92-25.51-4.67-8.1-10.59-4.19-58.62-4.19-58.62l19.45-.34,.6,18.18,6.61-28.8,20.79,25.07-1.87,5.93Z"/>
      <path class="cls-11" d="M245,202.7s.05,.46,.08,1.33c.02,.94,.04,2.19,.07,3.73v.04c-1.27,4.68-3.58,12.34-6.27,20.96-1.66,5.36-3.19,10.34-4.41,14.47l-.27,.9-.15-.93c-.28-1.71-1.12-3.15-2.09-4.17-.96-1.05-2.05-1.69-2.97-2.09-1.89-.79-3.12-.62-3.11-.71,0-.02,.29-.05,.85-.04,.55,.03,1.37,.14,2.35,.51,.97,.38,2.11,1.01,3.13,2.08,1.03,1.04,1.94,2.53,2.26,4.35l-.42-.03c1.17-4.15,2.66-9.14,4.33-14.5,2.65-8.57,5-16.14,6.47-20.89v.04c.02-1.55,.05-2.8,.06-3.73,.03-.86,.05-1.33,.08-1.33Z"/>
      <path class="cls-11" d="M238.04,204.63s-.13,.46-.44,1.25c-.36,.89-.81,2.01-1.35,3.35-1.14,2.83-2.67,6.75-4.29,11.11-1.58,4.32-3,8.23-4.09,11.19-.51,1.35-.93,2.49-1.27,3.38-.31,.79-.5,1.23-.53,1.22-.03-.01,.09-.47,.34-1.28,.29-.91,.67-2.06,1.11-3.44,.96-2.89,2.33-6.88,3.95-11.25,1.62-4.37,3.2-8.27,4.43-11.07,.61-1.4,1.13-2.52,1.51-3.29,.37-.77,.59-1.19,.63-1.17Z"/>
      <path class="cls-11" d="M203.81,222.32s-.29,.51-.56,1.5c-.28,.98-.41,2.5,.08,4.26,.47,1.77,1.67,3.65,3.38,5.37,1.71,1.72,3.83,3.4,6.09,5.1,3.66,2.71,7.29,4.86,10.27,6.4l-.3,.22c-.38-2.59,.26-4.72,.88-6.04,.31-.67,.63-1.15,.85-1.46,.23-.31,.37-.46,.39-.45,.05,.03-.46,.68-1.02,2.01-.54,1.31-1.09,3.4-.69,5.88l.07,.4-.37-.18c-3.03-1.49-6.71-3.62-10.4-6.35-2.27-1.71-4.39-3.4-6.12-5.18-1.73-1.77-2.95-3.76-3.39-5.61-.46-1.84-.27-3.43,.08-4.42,.17-.5,.36-.86,.5-1.1,.15-.23,.24-.35,.25-.34Z"/>
      <path class="cls-11" d="M246.18,276.82s-.16-.02-.46-.1c-.29-.08-.72-.23-1.24-.5-1.04-.52-2.43-1.57-3.65-3.27-1.25-1.68-2.25-4-2.99-6.63-.77-2.62-1.34-5.58-2.61-8.43-1.25-2.86-2.87-5.38-4.3-7.7-1.44-2.31-2.68-4.45-3.52-6.35-.85-1.89-1.32-3.52-1.52-4.66-.12-.57-.14-1.02-.18-1.32-.03-.3-.04-.46-.02-.46,.05,0,.14,.63,.39,1.74,.26,1.12,.78,2.7,1.66,4.55,.88,1.85,2.13,3.95,3.6,6.25,1.45,2.3,3.09,4.84,4.37,7.75,1.29,2.92,1.85,5.9,2.59,8.5,.7,2.62,1.65,4.88,2.83,6.55,1.16,1.68,2.46,2.74,3.45,3.3,.99,.57,1.62,.73,1.6,.78Z"/>
      <path class="cls-11" d="M273.68,277.88s-.54,.21-1.55,.51c-1.01,.3-2.47,.68-4.3,1.11-3.65,.86-8.75,1.81-14.45,2.39-5.7,.57-10.89,.66-14.64,.55-1.87-.05-3.39-.13-4.43-.22-1.04-.09-1.62-.15-1.62-.19s.58-.04,1.63-.02c1.05,.03,2.56,.05,4.43,.06,3.74,.02,8.91-.13,14.58-.7,5.67-.58,10.76-1.47,14.43-2.23,1.83-.38,3.31-.71,4.33-.94,1.02-.23,1.59-.34,1.6-.31Z"/>
      <path class="cls-11" d="M278.71,294.76s-.51,.11-1.45,.2c-.94,.1-2.29,.2-3.97,.3-3.36,.2-8.01,.34-13.14,.23-5.14-.12-9.77-.46-13.12-.82-1.67-.18-3.02-.34-3.95-.48-.93-.14-1.44-.23-1.44-.26s.52-.01,1.46,.06c1.03,.08,2.37,.19,3.96,.32,3.35,.26,7.98,.55,13.1,.66,5.12,.11,9.76,.03,13.11-.07,1.6-.05,2.94-.1,3.98-.14,.94-.03,1.46-.03,1.46,0Z"/>
      <path class="cls-11" d="M255.91,295.98s-.85-.37-1.88-1.42c-1.03-1.03-2.23-2.77-2.79-4.98-.55-2.2-.32-4.3,.1-5.7,.42-1.42,.94-2.17,.99-2.15,.08,.04-.32,.85-.63,2.24-.32,1.38-.48,3.39,.05,5.48,.53,2.1,1.62,3.79,2.55,4.85,.93,1.08,1.67,1.6,1.61,1.67Z"/>
      <path class="cls-11" d="M228.81,282.21s-.17-.09-.47-.3c-.34-.25-.76-.56-1.28-.93-.57-.43-1.24-.93-2.01-1.51-.77-.62-1.64-1.32-2.59-2.09-3.8-3.14-8.93-7.68-13.9-13.35-5.02-5.63-8.86-11.32-11.28-15.63-1.22-2.15-2.1-3.95-2.68-5.2-.25-.59-.46-1.07-.63-1.46-.14-.34-.2-.52-.19-.52,.02,0,.11,.16,.28,.48,.19,.38,.43,.84,.71,1.42,.63,1.22,1.55,2.99,2.81,5.1,2.49,4.24,6.36,9.86,11.35,15.47,4.95,5.65,10.01,10.21,13.74,13.41,.93,.79,1.78,1.51,2.54,2.14,.75,.6,1.4,1.13,1.96,1.57,.49,.41,.9,.74,1.22,1.01,.28,.24,.42,.37,.41,.38Z"/>
      <path class="cls-11" d="M184.95,297.46s.16-.8,.43-2.24c.29-1.44,.54-3.55,.58-6.17,.04-2.62-.23-5.74-.79-9.16-.57-3.42-1.44-7.14-2.42-11.03-.99-3.87-2.07-7.59-2.44-11.07-.42-3.47-.49-6.61-.55-9.24-.05-2.63-.04-4.76-.02-6.23,.02-.69,.03-1.25,.04-1.7,.01-.39,.03-.59,.05-.59s.04,.2,.06,.59c.02,.44,.04,1,.06,1.69,.05,1.54,.11,3.65,.18,6.23,.11,2.62,.22,5.76,.66,9.19,.39,3.45,1.47,7.11,2.47,11.01,.99,3.89,1.85,7.63,2.39,11.08,.54,3.45,.77,6.6,.68,9.24-.09,2.64-.4,4.77-.75,6.2-.14,.73-.34,1.27-.44,1.64-.11,.37-.18,.56-.2,.56Z"/>
      <path class="cls-11" d="M178.94,254.18s-.22,.16-.66,.35c-.44,.2-1.09,.44-1.92,.69-1.65,.49-4.03,.91-6.68,.84-2.65-.08-4.99-.65-6.61-1.24-.81-.3-1.45-.57-1.88-.8-.43-.22-.65-.36-.64-.39,.04-.08,1.01,.35,2.63,.85,1.62,.5,3.93,.99,6.51,1.07,2.59,.07,4.92-.28,6.57-.67,1.65-.39,2.65-.77,2.68-.68Z"/>
      <g>
        <g>
          <path class="cls-12" d="M264.18,248.25l5.61,45.46-52,17.44,8.72,18.68s66.27-9.14,68.5-14.01c1.85-4.03,3.42-14.01,3.42-14.01l-.77-56.7s-11.68-37.02-21.33-33.6c-9.65,3.42-14.06,21.18-12.14,36.74Z"/>
          <path class="cls-11" d="M283.08,304.17c-.11,.06-.29-1.86-2.32-4.26-1-1.18-2.43-2.45-4.33-3.49-1.87-1.06-4.22-1.93-6.86-2.14h.08c-5.09,1.51-11.13,3.27-17.41,5.66-9.44,3.36-18.15,5.88-24.38,7.91-3.12,1-5.64,1.84-7.37,2.43-.83,.28-1.49,.51-2,.68-.46,.15-.7,.22-.71,.2s.23-.12,.67-.3c.45-.18,1.11-.45,1.97-.77,1.72-.65,4.22-1.54,7.33-2.58,6.21-2.12,14.9-4.7,24.32-8.05,6.29-2.39,12.35-4.13,17.46-5.61h.04s.04,0,.04,0c2.73,.25,5.11,1.17,7.01,2.27,1.92,1.1,3.36,2.42,4.35,3.65,.99,1.24,1.54,2.37,1.81,3.17,.15,.39,.19,.72,.25,.93,.05,.21,.06,.32,.05,.32Z"/>
          <path class="cls-11" d="M263.85,237.4c.14-.01,1.55,12.66,3.13,28.3,1.59,15.65,2.76,28.34,2.62,28.35-.14,.02-1.55-12.65-3.14-28.3-1.59-15.64-2.76-28.34-2.62-28.35Z"/>
          <path class="cls-11" d="M294.9,238.16s.1,.25,.23,.75c.14,.55,.32,1.27,.55,2.18,.24,.95,.52,2.11,.79,3.47,.28,1.36,.63,2.9,.91,4.62,.64,3.43,1.24,7.55,1.74,12.14,.46,4.59,.8,9.66,.89,14.99,.06,5.33-.14,10.41-.47,15.01-.37,4.6-.85,8.74-1.39,12.18-.23,1.73-.54,3.28-.78,4.64-.23,1.37-.48,2.54-.69,3.49-.2,.91-.36,1.64-.49,2.19-.12,.5-.19,.76-.2,.76-.02,0,.02-.27,.1-.78,.1-.55,.23-1.29,.39-2.21,.18-.96,.4-2.13,.6-3.5,.21-1.37,.49-2.92,.7-4.65,.5-3.45,.94-7.57,1.28-12.17,.3-4.59,.49-9.66,.43-14.97-.09-5.31-.42-10.37-.85-14.95-.47-4.58-1.03-8.69-1.62-12.12-.26-1.72-.58-3.26-.83-4.63-.24-1.36-.49-2.53-.7-3.48-.19-.92-.34-1.65-.45-2.2-.1-.5-.14-.77-.13-.77Z"/>
        </g>
        <path class="cls-11" d="M238.73,327.82c-.1-.01,.11-1.26,.08-3.27,0-1.01-.12-2.2-.33-3.51-.24-1.3-.6-2.72-1.12-4.16-.54-1.43-1.2-2.74-1.87-3.88-.7-1.13-1.39-2.11-2.04-2.87-1.29-1.54-2.26-2.35-2.2-2.43,.02-.03,.28,.16,.73,.51,.45,.35,1.06,.92,1.75,1.67,.7,.75,1.44,1.72,2.18,2.86,.71,1.15,1.4,2.49,1.95,3.95,.54,1.47,.89,2.93,1.11,4.27,.19,1.34,.26,2.57,.23,3.59-.03,1.02-.12,1.85-.23,2.41-.1,.56-.18,.87-.21,.86Z"/>
      </g>
      <path class="cls-11" d="M279.46,215.37c0,.1-1.26,.15-3.22,.66-.98,.24-2.12,.65-3.33,1.2-1.2,.58-2.47,1.31-3.7,2.24-1.22,.94-2.27,1.97-3.14,2.98-.85,1.02-1.55,2.01-2.04,2.89-1.01,1.75-1.4,2.96-1.49,2.93-.03-.01,.04-.32,.21-.87,.08-.28,.19-.61,.36-.98,.17-.37,.33-.81,.59-1.26,.46-.92,1.14-1.95,2-3.02,.88-1.05,1.94-2.12,3.2-3.08,1.26-.95,2.58-1.69,3.82-2.26,1.26-.54,2.43-.92,3.44-1.12,.5-.13,.97-.17,1.37-.23,.4-.07,.76-.09,1.04-.09,.58-.02,.89-.01,.89,.02Z"/>
      <g>
        <path class="cls-11" d="M257.04,305.07c-.12,.04-.62-2.05-.1-4.59,.5-2.55,1.77-4.28,1.87-4.2,.14,.08-.88,1.86-1.36,4.3-.51,2.43-.26,4.47-.42,4.49Z"/>
        <path class="cls-6" d="M286.5,221.72s-.08,0-.22-.02c-.2-.03-.4-.07-.62-.1-.53-.1-1.31-.21-2.27-.3-1.92-.2-4.61-.26-7.54,.15-2.93,.42-5.49,1.22-7.29,1.95-.9,.36-1.61,.68-2.1,.93-.2,.1-.39,.18-.56,.27-.13,.06-.2,.09-.2,.08,0,0,.06-.05,.18-.12,.17-.1,.35-.2,.55-.3,.48-.26,1.18-.61,2.08-.99,1.79-.77,4.37-1.6,7.31-2.02,2.95-.41,5.66-.33,7.59-.09,.96,.12,1.74,.25,2.27,.37,.22,.05,.42,.1,.61,.14,.14,.03,.21,.05,.21,.06Z"/>
        <path class="cls-6" d="M295.2,240.9s-.11,0-.31-.03c-.26-.04-.55-.09-.88-.14-.76-.13-1.88-.29-3.25-.45-2.75-.34-6.57-.63-10.8-.56-4.23,.08-8.04,.52-10.77,.96-1.37,.22-2.47,.42-3.23,.57-.33,.06-.62,.12-.88,.17-.2,.04-.31,.05-.31,.04,0,0,.1-.04,.3-.09,.26-.06,.54-.13,.87-.21,.76-.18,1.86-.4,3.22-.64,2.73-.48,6.55-.94,10.79-1.02,4.24-.07,8.07,.24,10.82,.62,1.38,.19,2.48,.37,3.24,.52,.33,.07,.62,.12,.88,.17,.2,.04,.31,.07,.31,.08Z"/>
        <path class="cls-6" d="M298.7,258.48s-.11,0-.33-.03c-.27-.04-.58-.08-.94-.13-.81-.12-1.99-.27-3.45-.43-2.91-.32-6.96-.61-11.43-.57-4.47,.05-8.51,.43-11.41,.82-1.45,.19-2.63,.37-3.43,.51-.35,.06-.66,.11-.93,.15-.21,.03-.33,.05-.33,.04,0,0,.11-.03,.32-.08,.27-.05,.58-.12,.93-.19,.8-.16,1.98-.36,3.43-.57,2.9-.43,6.95-.83,11.43-.88,4.48-.05,8.54,.27,11.45,.63,1.46,.18,2.63,.35,3.44,.5,.35,.06,.66,.12,.93,.17,.21,.04,.33,.07,.32,.07Z"/>
        <path class="cls-6" d="M299.72,272.04s-.11,0-.33,0c-.28-.02-.59-.04-.94-.06-.82-.06-2-.12-3.47-.19-2.93-.13-6.98-.18-11.45,.04-4.47,.23-8.49,.7-11.39,1.13-1.45,.21-2.62,.4-3.43,.54-.35,.06-.66,.11-.93,.15-.21,.03-.33,.05-.33,.04,0,0,.11-.04,.32-.08,.27-.06,.58-.12,.92-.19,.8-.17,1.97-.38,3.42-.61,2.9-.47,6.93-.96,11.41-1.2,4.48-.23,8.54-.15,11.47,.02,1.47,.08,2.65,.17,3.47,.26,.36,.04,.66,.07,.94,.1,.22,.02,.33,.04,.33,.05Z"/>
        <path class="cls-6" d="M299.15,289.95s-.11-.01-.3-.06c-.26-.06-.54-.13-.85-.2-.74-.19-1.81-.43-3.14-.71-2.66-.56-6.38-1.17-10.51-1.48-4.14-.3-7.9-.23-10.62-.07-1.36,.08-2.46,.17-3.21,.24-.33,.03-.61,.05-.87,.08-.2,.02-.3,.02-.31,.01s.1-.03,.3-.05c.26-.04,.55-.07,.87-.12,.76-.1,1.85-.21,3.21-.31,2.72-.2,6.49-.29,10.64,0,4.15,.31,7.87,.95,10.53,1.54,1.33,.3,2.4,.57,3.13,.78,.31,.09,.59,.17,.84,.24,.19,.06,.29,.09,.29,.1Z"/>
        <path class="cls-6" d="M294.04,316.46s-.05-.12-.12-.34c-.09-.29-.19-.61-.3-.98-.12-.43-.28-.95-.52-1.54-.23-.59-.45-1.28-.81-1.99-.33-.73-.69-1.52-1.17-2.33-.43-.84-.99-1.67-1.55-2.56-1.2-1.73-2.67-3.54-4.41-5.23-1.77-1.68-3.63-3.07-5.4-4.2-.91-.53-1.76-1.06-2.61-1.45-.83-.44-1.64-.77-2.38-1.07-.73-.33-1.43-.52-2.02-.73-.6-.22-1.12-.36-1.56-.46-.38-.1-.71-.19-.99-.26-.23-.06-.34-.11-.34-.11,0,0,.12,.02,.35,.06,.29,.07,.62,.14,1.01,.23,.44,.09,.97,.22,1.57,.43,.6,.2,1.31,.38,2.04,.7,.75,.29,1.56,.62,2.4,1.05,.86,.39,1.72,.92,2.64,1.45,1.79,1.13,3.67,2.53,5.45,4.22,1.76,1.71,3.23,3.53,4.43,5.28,.57,.9,1.13,1.73,1.55,2.58,.47,.82,.83,1.62,1.15,2.36,.35,.72,.56,1.42,.79,2.01,.23,.59,.38,1.12,.49,1.56,.1,.38,.19,.71,.26,1,.06,.23,.08,.35,.08,.35Z"/>
        <path class="cls-6" d="M270.3,322.74s-.02-.09-.05-.27c-.03-.24-.06-.5-.09-.79-.07-.68-.2-1.67-.39-2.88-.39-2.42-1.14-5.74-2.45-9.25-1.31-3.51-2.92-6.51-4.21-8.59-.64-1.04-1.19-1.87-1.59-2.43-.16-.24-.31-.45-.45-.65-.1-.15-.15-.23-.14-.24s.07,.07,.18,.21c.15,.19,.3,.4,.48,.63,.42,.55,.99,1.36,1.65,2.4,1.33,2.07,2.96,5.08,4.28,8.6,1.31,3.52,2.05,6.86,2.4,9.3,.18,1.22,.29,2.21,.33,2.89,.02,.29,.04,.55,.05,.79,0,.18,.01,.28,0,.28Z"/>
        <path class="cls-6" d="M252.4,325.79s0-.09,0-.26c0-.22,.02-.46,.03-.73,.03-.63,.05-1.54,.01-2.67-.05-2.25-.39-5.36-1.18-8.71-.8-3.35-1.9-6.27-2.87-8.31-.47-1.02-.9-1.83-1.21-2.38-.13-.23-.25-.44-.35-.63-.08-.15-.12-.23-.11-.23s.06,.07,.15,.21c.12,.19,.25,.39,.39,.61,.34,.54,.79,1.33,1.28,2.35,1.01,2.03,2.13,4.96,2.94,8.32,.8,3.36,1.11,6.49,1.13,8.75,.02,1.13-.02,2.05-.08,2.68-.03,.26-.05,.5-.07,.73-.02,.17-.03,.25-.04,.25Z"/>
        <path class="cls-6" d="M291.41,308.55s-3.4,1.85-9.21,4.15c-5.79,2.33-13.98,5.07-23.15,7.61-9.19,2.52-17.61,4.38-23.76,5.47-6.14,1.11-9.99,1.48-9.99,1.48,0,0,.24-.05,.69-.11,.51-.07,1.17-.17,1.99-.29,1.72-.26,4.22-.65,7.28-1.23,6.13-1.13,14.55-3.01,23.73-5.52,9.17-2.54,17.36-5.25,23.15-7.55,1.45-.57,2.76-1.08,3.89-1.59,1.14-.49,2.13-.89,2.91-1.28,.75-.35,1.36-.64,1.82-.85,.42-.19,.64-.29,.64-.29Z"/>
        <path class="cls-6" d="M282.58,216.76s1.51,4.97,3.37,13.15c.96,4.08,1.91,8.99,2.88,14.45,.92,5.47,1.8,11.5,2.5,17.87,.67,6.37,1.09,12.45,1.32,18,.15,5.54,.21,10.54,.01,14.73-.04,1.05-.06,2.05-.11,2.99-.06,.94-.12,1.83-.18,2.66-.1,1.66-.21,3.09-.36,4.26-.12,1.13-.22,2.03-.29,2.68-.07,.61-.12,.93-.12,.93,0,0,.02-.32,.07-.94,.06-.66,.15-1.55,.25-2.69,.13-1.17,.23-2.6,.32-4.26,.05-.83,.11-1.72,.17-2.66,.05-.94,.06-1.94,.1-2.99,.18-4.19,.11-9.18-.06-14.72-.24-5.54-.67-11.62-1.34-17.98-.7-6.36-1.58-12.39-2.48-17.86-.97-5.46-1.9-10.36-2.84-14.45-.44-2.05-.88-3.89-1.28-5.51-.39-1.62-.73-3.01-1.04-4.14-.29-1.1-.52-1.97-.68-2.61-.15-.6-.22-.92-.22-.92Z"/>
        <path class="cls-6" d="M275.69,296.5s-.18,.1-.53,.28c-.4,.2-.91,.46-1.53,.77-1.34,.65-3.29,1.57-5.73,2.64-4.87,2.15-11.7,4.88-19.3,7.74-7.61,2.86-14.53,5.33-19.56,7.07-2.47,.85-4.49,1.54-5.96,2.04-.66,.22-1.2,.4-1.63,.54-.37,.12-.57,.17-.57,.17,0,0,.19-.08,.56-.21,.42-.15,.96-.34,1.62-.58,1.47-.52,3.48-1.23,5.94-2.1,5.02-1.78,11.93-4.27,19.54-7.12,7.6-2.87,14.43-5.57,19.32-7.68,2.45-1.05,4.4-1.94,5.75-2.57,.63-.3,1.14-.55,1.55-.74,.35-.16,.55-.24,.55-.24Z"/>
        <path class="cls-6" d="M269.14,219.19c.06,0,2.28,17.55,4.96,39.21,2.68,21.67,4.81,39.23,4.75,39.24-.06,0-2.28-17.55-4.96-39.21-2.68-21.66-4.81-39.23-4.75-39.24Z"/>
        <path class="cls-6" d="M233.03,328.9s-.03-.07-.06-.21c-.04-.2-.08-.4-.12-.62-.1-.54-.26-1.32-.48-2.27-.43-1.91-1.16-4.52-2.24-7.31-1.08-2.79-2.31-5.2-3.27-6.9-.48-.85-.89-1.53-1.18-2-.12-.19-.22-.37-.33-.54-.07-.12-.11-.19-.1-.2s.05,.06,.14,.17c.11,.16,.23,.33,.36,.52,.31,.45,.74,1.12,1.24,1.97,1,1.69,2.25,4.11,3.34,6.9,1.08,2.8,1.79,5.43,2.18,7.35,.2,.96,.34,1.74,.41,2.29,.03,.22,.06,.43,.09,.63,.02,.14,.02,.22,.02,.22Z"/>
        <path class="cls-6" d="M235.72,258.56s-.12,.02-.33,.03c-.28,.01-.6,.03-.96,.05-.83,.04-2.04,.07-3.53,.08-2.98,.03-7.11-.05-11.65-.38-4.54-.33-8.64-.86-11.59-1.32-1.47-.23-2.66-.44-3.48-.59-.36-.07-.67-.13-.94-.18-.21-.04-.33-.07-.33-.08,0,0,.12,0,.33,.04,.28,.04,.59,.09,.95,.15,.93,.14,2.1,.32,3.49,.53,2.95,.43,7.04,.92,11.58,1.26,4.54,.33,8.65,.43,11.64,.43,1.41,0,2.59-.01,3.53-.02,.36,0,.68,0,.96,0,.22,0,.33,0,.34,.01Z"/>
        <path class="cls-6" d="M265.46,254.39s-.1,.04-.28,.09c-.25,.07-.52,.14-.82,.23-.71,.2-1.75,.46-3.04,.76-2.57,.61-6.16,1.34-10.15,1.91-4,.57-7.64,.87-10.28,1.01-1.32,.07-2.39,.11-3.13,.12-.32,0-.6,0-.85,0-.2,0-.3,0-.3-.01s.1-.02,.3-.03c.26-.01,.53-.03,.85-.05,.85-.05,1.89-.11,3.12-.18,2.63-.17,6.27-.5,10.26-1.07,3.99-.57,7.57-1.27,10.15-1.85,1.2-.28,2.22-.51,3.05-.7,.31-.07,.58-.13,.83-.19,.19-.04,.29-.06,.29-.05Z"/>
        <path class="cls-6" d="M228.64,247.5s-.12,.01-.35,.02c-.29,0-.62,.02-1.01,.03-.88,.02-2.14,.01-3.71-.04-3.13-.1-7.45-.45-12.16-1.3-4.71-.86-8.88-2.04-11.85-3.05-1.48-.5-2.67-.94-3.48-1.27-.36-.14-.66-.27-.93-.38-.21-.09-.32-.14-.32-.15,0,0,.12,.03,.34,.11,.27,.1,.59,.21,.95,.34,.82,.31,2.01,.72,3.5,1.2,2.97,.97,7.14,2.13,11.84,2.98,4.7,.85,9.01,1.23,12.13,1.36,1.56,.07,2.83,.1,3.7,.1,.38,0,.71,0,1.01,.01,.23,0,.35,.01,.35,.02Z"/>
        <path class="cls-6" d="M263.43,239.2c.01,.06-7.16,1.82-16.02,3.93-8.86,2.12-16.06,3.79-16.07,3.73s7.16-1.82,16.02-3.93c8.86-2.12,16.06-3.79,16.07-3.73Z"/>
        <path class="cls-6" d="M262.97,224.52s-.08,.02-.23,.04c-.21,.02-.43,.05-.66,.08-.7,.08-1.51,.18-2.44,.29-2.05,.26-4.89,.7-7.98,1.34-3.1,.64-5.86,1.38-7.85,1.95-.9,.27-1.68,.5-2.35,.7-.23,.07-.44,.13-.64,.19-.15,.04-.23,.06-.23,.05s.07-.04,.21-.09c.2-.07,.4-.15,.63-.23,.55-.2,1.34-.46,2.34-.76,1.98-.61,4.75-1.37,7.85-2.01,3.1-.64,5.94-1.05,8-1.28,1.03-.11,1.87-.19,2.45-.23,.24-.01,.46-.03,.67-.04,.15,0,.23,0,.23,0Z"/>
        <path class="cls-6" d="M273.66,215.5s-.11-.02-.3-.07c-.25-.07-.53-.14-.84-.23-.73-.21-1.79-.49-3.1-.82-2.62-.66-6.28-1.46-10.37-2.06-4.09-.6-7.82-.88-10.53-1-1.35-.06-2.45-.09-3.21-.1-.32,0-.61-.02-.87-.02-.2,0-.3-.01-.3-.02s.1-.01,.3-.02c.26,0,.55,0,.87-.02,.76-.01,1.85,0,3.21,.04,2.71,.08,6.45,.34,10.55,.94,4.1,.6,7.76,1.42,10.38,2.12,1.31,.35,2.36,.65,3.09,.88,.31,.1,.58,.19,.83,.27,.19,.06,.29,.1,.29,.1Z"/>
        <path class="cls-6" d="M237.71,229.42s-.4-.38-1.09-.92c-.69-.54-1.73-1.19-2.99-1.63-1.26-.44-2.48-.58-3.35-.59-.88,0-1.42,.08-1.42,.04,0-.01,.13-.04,.38-.09,.24-.05,.6-.09,1.05-.1,.89-.03,2.13,.09,3.42,.54,1.29,.45,2.34,1.13,3.01,1.71,.34,.29,.6,.54,.76,.73,.16,.19,.25,.29,.24,.3Z"/>
        <path class="cls-6" d="M242.09,217.7s-.26-.46-.74-1.16c-.48-.7-1.25-1.59-2.28-2.37-1.03-.77-2.11-1.26-2.91-1.52-.8-.26-1.33-.35-1.32-.38,0-.01,.13,0,.37,.03,.24,.03,.58,.1,.99,.21,.83,.23,1.93,.71,2.99,1.5,1.05,.79,1.82,1.72,2.27,2.45,.23,.36,.39,.67,.49,.89,.1,.22,.14,.34,.13,.35Z"/>
        <path class="cls-6" d="M240.93,203.9c.05,.02-2.21,7.23-5.06,16.11-2.85,8.88-5.21,16.06-5.26,16.05-.05-.02,2.21-7.23,5.06-16.11,2.85-8.88,5.2-16.06,5.26-16.05Z"/>
        <path class="cls-6" d="M213.34,238.72s-.04-.12-.08-.33c-.04-.22-.07-.54-.06-.93,0-.79,.19-1.89,.72-2.98,.53-1.09,1.28-1.92,1.9-2.4,.31-.24,.57-.42,.77-.52,.19-.1,.3-.16,.31-.14,.02,.03-.4,.27-.98,.78-.58,.51-1.29,1.32-1.81,2.38-.51,1.06-.72,2.12-.76,2.89-.04,.77,.03,1.25,0,1.26Z"/>
        <path class="cls-6" d="M204.96,231.62s-.05-.12-.1-.36c-.06-.23-.09-.58-.1-1.01-.01-.85,.21-2.05,.84-3.21,.64-1.15,1.54-1.98,2.27-2.42,.36-.22,.68-.38,.9-.45,.22-.08,.35-.12,.35-.11,.02,.04-.48,.21-1.18,.68-.69,.46-1.54,1.28-2.16,2.4-.62,1.12-.85,2.27-.88,3.11-.03,.84,.09,1.35,.05,1.36Z"/>
        <path class="cls-6" d="M223.42,240.38s-.09-.04-.25-.14c-.21-.13-.44-.27-.69-.43-.69-.45-1.54-.99-2.53-1.63-2.13-1.39-5.08-3.29-8.3-5.46-1.6-1.1-3.06-2.26-4.21-3.51-1.16-1.24-1.98-2.55-2.48-3.72-.5-1.18-.69-2.21-.75-2.92-.05-.71,0-1.11,0-1.11,.02,0,0,.4,.08,1.1,.08,.7,.29,1.71,.8,2.87,.51,1.15,1.34,2.44,2.49,3.65,1.14,1.22,2.6,2.37,4.19,3.47,3.18,2.12,6.04,4.03,8.26,5.51,.98,.66,1.81,1.23,2.5,1.69,.25,.17,.47,.33,.67,.47,.15,.11,.23,.17,.23,.18Z"/>
        <path class="cls-6" d="M239.27,272.4s-.07,.02-.21,.02c-.19,.01-.39,.02-.61,.03-.53,.02-1.29,.04-2.23,.06-1.89,.03-4.49,.01-7.37-.11-2.88-.12-5.48-.32-7.35-.51-.94-.09-1.7-.18-2.22-.24-.21-.03-.41-.06-.6-.08-.14-.02-.21-.04-.21-.04s.07,0,.21,0c.19,.01,.39,.03,.61,.04,.65,.05,1.39,.11,2.23,.18,1.88,.15,4.48,.33,7.35,.45,2.87,.12,5.48,.16,7.36,.17,.84,0,1.58,0,2.23,0,.21,0,.41,0,.61,0,.14,0,.21,.01,.21,.02Z"/>
        <path class="cls-6" d="M266.13,272.71s-.08,.03-.24,.06c-.22,.04-.45,.08-.7,.12-.61,.1-1.5,.23-2.6,.38-2.2,.28-5.25,.58-8.63,.7-3.38,.12-6.45,.05-8.66-.07-1.11-.06-2-.13-2.62-.18-.26-.03-.49-.05-.71-.07-.16-.02-.25-.03-.25-.04,0,0,.09,0,.25,0,.22,.01,.46,.02,.71,.03,.74,.03,1.61,.07,2.62,.12,2.21,.09,5.27,.13,8.65,.01,3.37-.12,6.42-.39,8.62-.64,1-.12,1.87-.22,2.6-.31,.26-.03,.49-.06,.71-.08,.16-.02,.25-.02,.25-.01Z"/>
        <path class="cls-6" d="M251.47,290s-.07,.02-.2,.04c-.18,.03-.38,.05-.58,.08-.5,.07-1.23,.15-2.14,.23-1.81,.15-4.32,.26-7.09,.14-2.77-.12-5.26-.44-7.05-.75-.9-.15-1.62-.3-2.11-.41-.2-.05-.39-.09-.57-.13-.13-.03-.2-.05-.2-.06,0,0,.07,0,.2,.02,.18,.03,.37,.06,.58,.1,.5,.09,1.22,.21,2.12,.35,1.79,.27,4.28,.57,7.04,.69,2.76,.12,5.26,.04,7.07-.08,.9-.06,1.63-.11,2.14-.16,.21-.02,.4-.03,.58-.05,.13,0,.2,0,.2,0Z"/>
        <path class="cls-6" d="M266.08,288.56c0,.06-2.87,.31-6.42,.56-3.55,.25-6.43,.41-6.43,.35,0-.06,2.87-.31,6.42-.56,3.55-.25,6.43-.41,6.43-.35Z"/>
        <path class="cls-6" d="M247.24,301.24s-.19,0-.53-.01c-.34-.02-.83-.07-1.44-.15-1.21-.16-2.88-.47-4.67-1.01-1.79-.54-3.36-1.19-4.46-1.72-.55-.27-.99-.49-1.29-.67-.3-.17-.46-.27-.45-.28,0-.01,.18,.06,.49,.21,.42,.19,.85,.39,1.31,.6,1.11,.5,2.68,1.12,4.45,1.65,1.78,.53,3.43,.86,4.63,1.06,.5,.07,.97,.14,1.43,.21,.34,.05,.52,.08,.52,.09Z"/>
        <path class="cls-6" d="M258.54,280.69s-.31-1.1-.8-3.1c-.49-2-1.17-4.9-1.93-8.51-1.52-7.21-3.35-17.21-5.16-28.31-.4-2.78-.65-5.53-.57-8.19,.06-2.66,.5-5.21,1.19-7.55,1.4-4.69,3.68-8.52,5.79-11.53,2.11-3.02,4.09-5.26,5.45-6.8,1.37-1.54,2.18-2.34,2.18-2.34,0,0-.18,.22-.54,.62-.39,.44-.92,1.03-1.57,1.77-1.34,1.56-3.3,3.81-5.39,6.84-2.09,3.01-4.35,6.84-5.73,11.5-.68,2.33-1.12,4.86-1.17,7.5-.07,2.64,.18,5.38,.58,8.15,1.81,11.08,3.62,21.1,5.1,28.3,.74,3.61,1.39,6.51,1.86,8.52,.23,.96,.41,1.73,.54,2.31,.13,.53,.18,.81,.18,.81Z"/>
        <path class="cls-6" d="M258.53,293.68s-.14-.11-.36-.35c-.22-.23-.52-.59-.85-1.06-.67-.93-1.43-2.36-1.89-4.07-.45-1.71-.49-3.32-.37-4.47,.06-.57,.14-1.03,.21-1.34,.08-.31,.12-.48,.14-.48,.04,0-.13,.7-.21,1.84-.08,1.13-.01,2.72,.43,4.4,.45,1.68,1.18,3.09,1.81,4.04,.63,.95,1.12,1.47,1.09,1.49Z"/>
        <path class="cls-6" d="M248.53,302.1s-.25-.36-.53-1.01c-.28-.65-.59-1.58-.77-2.65-.18-1.07-.19-2.05-.14-2.76,.05-.71,.14-1.13,.17-1.13,.03,0,0,.44-.02,1.14-.01,.7,.03,1.67,.2,2.72,.18,1.05,.46,1.98,.7,2.63,.24,.66,.42,1.05,.39,1.07Z"/>
        <path class="cls-6" d="M238.1,294.36s-.1-.14-.26-.43c-.16-.28-.35-.7-.57-1.23-.43-1.06-.87-2.6-1.02-4.34-.15-1.75,.02-3.33,.27-4.45,.12-.56,.24-1.01,.35-1.31,.1-.3,.16-.47,.18-.46,.04,.01-.18,.68-.38,1.8-.21,1.11-.35,2.68-.21,4.41,.15,1.72,.56,3.24,.95,4.31,.39,1.07,.72,1.69,.68,1.71Z"/>
        <path class="cls-6" d="M238.24,304.09s-.04-.13-.09-.38c-.04-.24-.09-.6-.14-1.04-.1-.88-.2-2.1-.24-3.46-.04-1.35,0-2.58,.06-3.46,.03-.44,.06-.8,.09-1.05,.03-.25,.05-.38,.07-.38,.03,0,.01,.55,0,1.43-.02,.88-.03,2.1,0,3.45,.04,1.35,.11,2.57,.18,3.45,.07,.88,.11,1.43,.08,1.43Z"/>
        <path class="cls-6" d="M210.51,239.2s6.14,9.34,13.6,20.92c7.46,11.59,13.48,21,13.43,21.03-.05,.03-6.14-9.33-13.6-20.92-7.46-11.58-13.47-21-13.43-21.03Z"/>
        <path class="cls-6" d="M234.27,242.58s.05,.14,.13,.4c.1,.32,.21,.7,.35,1.15,.29,1.01,.74,2.46,1.3,4.24,1.13,3.57,2.83,8.46,4.99,13.74,2.18,5.28,4.41,9.95,6.12,13.29,.85,1.67,1.56,3.01,2.06,3.93,.22,.42,.41,.77,.57,1.07,.13,.24,.18,.38,.18,.38,0,0-.08-.12-.22-.36-.17-.29-.37-.64-.6-1.05-.52-.91-1.25-2.24-2.12-3.9-1.74-3.32-4-7.98-6.18-13.27-2.17-5.29-3.85-10.2-4.94-13.78-.55-1.79-.97-3.25-1.24-4.26-.12-.46-.22-.84-.31-1.17-.07-.27-.1-.41-.1-.41Z"/>
        <path class="cls-6" d="M216.11,270.44s-.15-.14-.43-.42c-.32-.32-.72-.72-1.22-1.22-.53-.53-1.17-1.18-1.87-1.98-.71-.8-1.54-1.68-2.37-2.73-.85-1.03-1.78-2.17-2.7-3.45-.97-1.25-1.89-2.66-2.88-4.13-1.91-2.98-3.85-6.37-5.6-10.07-1.72-3.71-3.08-7.37-4.15-10.75-.49-1.7-.99-3.31-1.32-4.85-.4-1.53-.67-2.97-.92-4.29-.28-1.31-.42-2.52-.58-3.57-.17-1.05-.26-1.96-.32-2.71-.06-.7-.12-1.27-.16-1.72-.03-.39-.04-.6-.04-.6,0,0,.04,.21,.08,.6,.05,.45,.12,1.01,.2,1.71,.07,.74,.18,1.65,.36,2.7,.17,1.05,.32,2.25,.61,3.56,.26,1.31,.54,2.75,.94,4.27,.35,1.54,.84,3.14,1.34,4.84,1.07,3.37,2.44,7.02,4.15,10.72,1.75,3.69,3.68,7.07,5.57,10.05,.99,1.47,1.9,2.88,2.86,4.13,.91,1.28,1.83,2.42,2.68,3.46,.82,1.06,1.65,1.94,2.34,2.74,.69,.81,1.32,1.47,1.85,2.01,.49,.51,.88,.92,1.19,1.25,.27,.29,.4,.45,.4,.45Z"/>
        <path class="cls-6" d="M204.86,232.74s-.25-.03-.7-.12c-.57-.12-1.19-.24-1.88-.38-1.59-.32-3.79-.73-6.24-1.11-2.45-.38-4.67-.65-6.28-.84-.7-.08-1.33-.15-1.91-.21-.45-.05-.7-.09-.7-.1,0-.01,.25,0,.71,.02,.45,.02,1.11,.07,1.92,.15,1.62,.14,3.85,.4,6.3,.77,2.45,.38,4.65,.82,6.24,1.17,.79,.18,1.43,.33,1.87,.45,.44,.11,.68,.18,.68,.2Z"/>
        <path class="cls-6" d="M202.73,256.7s-.05,.17-.17,.49c-.14,.37-.31,.83-.51,1.39-.44,1.2-1.03,2.96-1.68,5.16-1.33,4.39-2.64,10.6-4.26,17.41-1.62,6.82-3.65,12.87-5.72,16.98-1.01,2.06-1.96,3.67-2.67,4.74-.71,1.07-1.14,1.64-1.14,1.64,0,0,.09-.15,.27-.44,.18-.29,.47-.69,.8-1.24,.69-1.08,1.61-2.69,2.6-4.76,2.03-4.12,4.03-10.16,5.65-16.96,1.62-6.81,2.96-13.01,4.32-17.4,1.32-4.4,2.5-7,2.5-7Z"/>
        <path class="cls-6" d="M193.87,243.29c.05,.02-2.13,6.84-4.88,15.23-2.75,8.39-5.03,15.18-5.08,15.17-.05-.02,2.13-6.84,4.88-15.23,2.75-8.39,5.03-15.18,5.08-15.16Z"/>
        <path class="cls-6" d="M202.99,271.71s-.06-.09-.16-.27c-.13-.23-.26-.49-.42-.78-.36-.69-.91-1.66-1.62-2.84-1.43-2.36-3.64-5.5-6.51-8.59-2.88-3.08-5.85-5.51-8.11-7.1-1.13-.8-2.06-1.42-2.72-1.82-.28-.18-.53-.34-.75-.48-.17-.11-.26-.17-.26-.18s.1,.04,.28,.14c.23,.13,.48,.28,.77,.44,.67,.38,1.62,.99,2.76,1.77,2.28,1.57,5.29,3.98,8.18,7.08,2.88,3.1,5.08,6.27,6.48,8.66,.7,1.19,1.24,2.18,1.57,2.88,.15,.3,.27,.56,.39,.8,.09,.19,.13,.28,.12,.29Z"/>
        <path class="cls-6" d="M196.39,291.28s-.02-.09-.03-.27c-.01-.24-.03-.49-.05-.77-.01-.33-.04-.74-.1-1.22-.06-.47-.1-1.01-.23-1.6-.19-1.18-.55-2.57-1.05-4.07-.54-1.49-1.24-3.08-2.16-4.66-.94-1.57-1.99-2.96-3.04-4.15-1.07-1.17-2.11-2.15-3.05-2.89-.45-.39-.91-.69-1.29-.97-.38-.29-.73-.51-1.01-.68-.24-.15-.45-.29-.65-.41-.15-.1-.22-.15-.22-.16,0,0,1.36,.63,3.27,2.11,.96,.73,2.02,1.7,3.1,2.88,1.06,1.19,2.13,2.59,3.07,4.17,.93,1.59,1.64,3.2,2.17,4.71,.5,1.51,.85,2.91,1.02,4.11,.36,2.39,.26,3.88,.26,3.88Z"/>
        <path class="cls-6" d="M183.19,306.55s.01-.07,.06-.19c.06-.17,.13-.34,.2-.52,.18-.45,.43-1.09,.72-1.9,.58-1.61,1.3-3.87,1.87-6.42,.57-2.55,.88-4.9,1.04-6.6,.08-.85,.13-1.54,.16-2.02,.01-.19,.03-.37,.04-.55,.01-.13,.02-.19,.03-.19s.01,.07,.01,.19c0,.18,0,.36,0,.55,0,.48-.03,1.17-.09,2.03-.12,1.71-.41,4.08-.98,6.64-.57,2.56-1.32,4.82-1.94,6.42-.31,.8-.58,1.44-.78,1.88-.08,.17-.16,.34-.23,.5-.06,.11-.09,.17-.09,.17Z"/>
        <path class="cls-6" d="M170.29,255.91s.14,.73,.32,2.05c.18,1.32,.39,3.24,.56,5.62,.4,4.76,.41,11.36,1.16,18.59,.4,3.61,1.03,7.02,1.9,10.05,.86,3.03,1.93,5.67,3.05,7.77,1.12,2.1,2.21,3.69,3.05,4.73,.4,.54,.76,.91,.98,1.18,.23,.27,.34,.42,.34,.42,0,0-.52-.52-1.38-1.55-.85-1.02-1.98-2.61-3.12-4.71-1.14-2.1-2.23-4.74-3.1-7.78-.88-3.04-1.52-6.46-1.92-10.08-.75-7.25-.74-13.85-1.1-18.6-.16-2.38-.34-4.3-.5-5.62-.07-.61-.14-1.12-.19-1.52-.04-.35-.05-.53-.05-.53Z"/>
        <path class="cls-6" d="M168.96,241.41s.07,.19,.16,.53c.09,.35,.2,.85,.33,1.47,.25,1.25,.51,2.99,.65,4.94,.13,1.94,.11,3.71,.03,4.98-.04,.64-.08,1.15-.12,1.5-.04,.35-.07,.55-.08,.55-.01,0-.01-.2,0-.55,.02-.48,.04-.98,.06-1.5,.04-1.27,.04-3.02-.09-4.96-.13-1.93-.37-3.67-.59-4.92-.09-.52-.18-1.01-.26-1.48-.06-.35-.09-.55-.08-.55Z"/>
        <path class="cls-6" d="M181.32,263.02s-1.04,.78-2.98,1.6c-.96,.42-2.16,.79-3.51,1.08-1.36,.27-2.88,.43-4.48,.41-1.6-.04-3.12-.27-4.46-.58-1.34-.34-2.52-.76-3.47-1.21-1.9-.89-2.91-1.71-2.91-1.71,0,0,.08,.03,.21,.11,.18,.11,.37,.22,.58,.34,.25,.15,.55,.34,.93,.52,.37,.18,.78,.42,1.26,.61,.95,.43,2.12,.83,3.45,1.16,1.34,.3,2.84,.52,4.42,.56,1.59,.02,3.09-.14,4.44-.39,1.34-.28,2.53-.63,3.49-1.03,.49-.17,.91-.39,1.29-.56,.38-.17,.69-.34,.94-.48,.21-.11,.4-.22,.59-.32,.13-.07,.21-.11,.21-.1Z"/>
        <path class="cls-6" d="M184.46,275.77s-.19,.3-.62,.8c-.42,.5-1.1,1.16-2.04,1.84-1.87,1.38-4.95,2.65-8.5,2.94-3.55,.28-6.76-.24-9.03-.64-1.14-.21-2.06-.4-2.69-.54-.26-.06-.51-.11-.73-.16-.17-.04-.25-.06-.25-.07,0,0,.09,0,.26,.03,.23,.04,.47,.08,.74,.12,.75,.13,1.65,.29,2.7,.47,2.28,.36,5.47,.86,8.99,.58,3.52-.28,6.56-1.52,8.43-2.85,.94-.66,1.63-1.3,2.07-1.78,.44-.47,.66-.76,.68-.74Z"/>
        <path class="cls-6" d="M185.62,288.02s-.09,.34-.34,.92c-.24,.58-.69,1.39-1.39,2.28-1.38,1.79-4,3.75-7.34,4.69-3.34,.93-6.52,.85-8.76,.7-1.12-.08-2.03-.18-2.65-.27-.26-.04-.5-.07-.72-.1-.16-.03-.25-.04-.25-.05,0,0,.09,0,.25,0,.22,.02,.46,.04,.72,.06,.63,.06,1.53,.14,2.65,.2,2.23,.11,5.39,.17,8.69-.75,3.3-.93,5.89-2.84,7.29-4.58,.71-.87,1.17-1.65,1.43-2.22,.27-.57,.39-.9,.41-.89Z"/>
        <path class="cls-6" d="M310.72,293.26c.02,.05-2.68,1.18-6.03,2.52-3.35,1.34-6.08,2.38-6.1,2.33-.02-.05,2.68-1.18,6.03-2.52,3.35-1.34,6.08-2.38,6.1-2.33Z"/>
        <path class="cls-6" d="M305.27,278.68s-.23,.25-.69,.55c-.45,.3-1.12,.66-1.9,.95-.78,.28-1.52,.43-2.06,.5-.54,.06-.88,.05-.88,.02,0-.07,1.33-.15,2.87-.71,1.54-.55,2.62-1.36,2.66-1.3Z"/>
        <path class="cls-6" d="M302.84,263.85c0,.06-.68,.17-1.54,.24s-1.55,.09-1.56,.03c0-.06,.68-.17,1.54-.24,.85-.08,1.55-.09,1.56-.03Z"/>
        <path class="cls-6" d="M300.02,254.44s-.47-.2-.97-.55c-.5-.35-.89-.67-.85-.72s.47,.2,.97,.55c.5,.35,.88,.67,.85,.72Z"/>
        <path class="cls-6" d="M296.99,245.02s.06,.19,.15,.57c.1,.43,.23,.97,.39,1.64,.33,1.43,.76,3.5,1.21,6.08,.91,5.16,1.83,12.36,2.04,20.35,.11,3.99,.21,7.81,.92,11.19,.34,1.69,.83,3.26,1.44,4.67,.61,1.41,1.31,2.66,1.87,3.85,1.18,2.35,1.65,4.48,1.58,5.96-.02,.74-.14,1.3-.25,1.67-.11,.37-.2,.55-.2,.55-.01,0,.06-.19,.16-.57,.1-.37,.2-.93,.21-1.66,.05-1.46-.44-3.56-1.63-5.89-.57-1.17-1.27-2.43-1.9-3.84-.62-1.42-1.12-3-1.47-4.7-.72-3.4-.83-7.24-.94-11.23-.21-7.98-1.11-15.17-1.98-20.33-.44-2.58-.85-4.66-1.15-6.09-.14-.67-.26-1.22-.35-1.65-.08-.38-.11-.58-.11-.58Z"/>
      </g>
      <g class="cls-13">
        <path d="M181,261.24c2.48,3.55,4.9,7.17,6.73,11.1s3.04,8.21,2.98,12.54c-.04,3.47-1.12,7.24-4,9.18-.26-11.03-2.2-22.01-5.72-32.46"/>
      </g>
      <g class="cls-13">
        <path d="M204.24,230.09c0,3.42,2.63,6.2,5.08,8.59,4.82,4.69,10.03,9.59,16.62,10.91,.1-2.77,.19-5.54,.29-8.31,2.54,2.23,4.74,4.82,6.53,7.68,3.3-4.32,5.35-9.49,6.62-14.78s1.8-10.72,2.33-16.14c-2.6,8.26-5.19,16.52-7.78,24.79-.41-2.06-1.53-3.97-3.13-5.33-.97-.82-2.17-1.47-3.45-1.45-1.93,.03-3.56,1.61-4.26,3.41-.7,1.8-.67,3.79-.63,5.72-6.73-3.96-12.85-8.96-18.08-14.74"/>
      </g>
      <g class="cls-13">
        <path d="M237.96,303.95c3.23-2.25,6.86-3.93,10.67-4.94,2.84-.76,5.86-1.17,8.33-2.77,2.31-1.49,3.89-3.86,5.4-6.16,1.39-2.1,2.8-4.27,3.36-6.72,.45-1.93,.35-3.95,.15-5.93-.52-5.31-1.7-10.54-2.29-15.84-.59-5.3-.56-10.8,1.27-15.81,1.42,16.08,3.32,32.19,4.74,48.27-10.29,3.26-21.08,6.49-31.37,9.75"/>
      </g>
    </g>
    <g>
      <g>
        <g>
          <path class="cls-7" d="M215.98,174.24c.14-.19,6.18-6.46,10.18,1.08s-4.4,10-4.52,9.79c-.13-.21-5.66-10.87-5.66-10.87Z"/>
          <path class="cls-3" d="M222.43,181.03s.18,.02,.46,0c.27-.02,.68-.15,.99-.5,.64-.71,.64-2.34-.04-3.71-.35-.7-.84-1.27-1.37-1.69-.52-.43-1.08-.63-1.52-.48-.45,.12-.6,.51-.59,.77,.01,.26,.14,.39,.1,.42-.01,.03-.23-.04-.33-.38-.05-.17-.05-.39,.05-.63,.1-.24,.33-.46,.62-.58,.6-.27,1.41,0,1.99,.44,.62,.44,1.18,1.08,1.57,1.86,.76,1.54,.73,3.38-.19,4.27-.46,.42-.98,.49-1.31,.44-.33-.06-.46-.21-.44-.24Z"/>
        </g>
        <g>
          <g>
            <path class="cls-11" d="M181.98,159.32c-3.7,2.25-7.46,4.54-10.62,9.78-1.99,3.3-2.34,6.83-2.08,10.67,.2,2.94,1.29,6.29,2.96,8.73,1.67,2.43,2.75,4.19,5.16,5.89"/>
            <g>
              <g>
                <path class="cls-7" d="M236.58,207.77l-22.16-39.59c-6.05-10.82-19.6-14.88-30.61-9.18h0c-11.4,5.9-15.77,20.01-9.67,31.31,5.08,9.4,10.66,19.52,13.79,24.42,6.71,10.52,18.34,5.59,18.34,5.59,0,0,1.69,3.3,3.81,7.38l15.86,8.78,10.64-28.7Z"/>
                <path class="cls-3" d="M206.26,220.31s6.76-3.65,11.1-12.54c0,0,1.5,9.71-9.67,15.32l-1.43-2.78Z"/>
              </g>
              <g>
                <g>
                  <path class="cls-11" d="M182.72,195.19c.47,.82,1.54,1.1,2.41,.62,.86-.47,1.18-1.52,.71-2.33-.47-.82-1.55-1.1-2.41-.62-.86,.47-1.18,1.52-.72,2.33Z"/>
                  <path class="cls-11" d="M198.64,185.18c.47,.82,1.54,1.1,2.41,.62,.86-.47,1.18-1.52,.71-2.33-.47-.82-1.55-1.1-2.41-.62-.86,.47-1.18,1.52-.72,2.33Z"/>
                  <path class="cls-11" d="M196.83,198.6c-.05-.1-1.17,.36-2.94,1.16-.44,.21-.89,.38-1.13,.14-.28-.24-.39-.8-.49-1.41-.23-1.25-.48-2.56-.73-3.93-1.09-5.57-2.15-10.05-2.38-10-.22,.05,.48,4.6,1.57,10.17,.28,1.37,.54,2.67,.8,3.92,.14,.57,.2,1.27,.8,1.77,.3,.24,.75,.28,1.06,.18,.32-.08,.55-.23,.77-.34,1.71-.94,2.74-1.56,2.68-1.66Z"/>
                  <path class="cls-11" d="M201.33,204.34c.29-.12-.63-1.99,.32-4.1,.94-2.12,3.03-2.89,2.92-3.15-.03-.13-.62-.14-1.47,.25-.84,.38-1.91,1.24-2.49,2.53-.57,1.29-.46,2.58-.15,3.38,.31,.82,.75,1.18,.87,1.1Z"/>
                </g>
                <path class="cls-11" d="M199.07,173.16c-.43-.35-1.95,.85-4.01,1.77-2.05,.96-3.95,1.33-3.96,1.88,0,.26,.52,.52,1.41,.57,.88,.06,2.12-.13,3.36-.69,1.23-.57,2.19-1.39,2.72-2.09,.54-.71,.68-1.27,.49-1.44Z"/>
                <path class="cls-11" d="M180.07,183.39c-.55-.03-1.08,1.26-2.11,2.46-.99,1.24-2.15,2.01-2.02,2.54,.08,.25,.54,.38,1.24,.21,.69-.16,1.58-.67,2.28-1.51,.69-.84,1.02-1.81,1.05-2.52,.03-.72-.18-1.15-.44-1.18Z"/>
              </g>
            </g>
            <path class="cls-11" d="M216.59,171.47s1.14,2.43,1.7,3.62c.2,.43,2.63,5.33,1.67,6.23-.82,.77-3.22,1.05-5.2-.31s-6.29-4.87-7.36-7.01c-1.46-2.92-3.05-5.82-5.27-8.22-2.22-2.4-5.15-4.26-8.39-4.64-3.24-.38-6.78,.95-8.51,3.72-1.07,1.71-1.39,3.78-2.24,5.6-.77,1.64-2.03,3.12-3.7,3.82-1.67,.71-3.77,.52-5.09-.71-1.45-1.35-1.69-3.64-1.05-5.51,.65-1.87,2.03-3.39,3.48-4.73,4.04-3.71,9.02-6.5,14.42-7.46,5.4-.96,11.26-.07,15.74,3.1,5.18,3.65,7.06,6.75,9.79,12.51"/>
          </g>
          <path class="cls-11" d="M173.74,173.05c-.44-.49-.45-.91-.9-.95-.51-.04-.77,1.04-.85,1.46-.03,.13-.48-.05-.62-.06-.11,0-.57-.49-.62-.59-.19-.41,.35-.89,.48-1.32s.37-.83,.66-1.18c.25-.31,.61-.61,1-.53,.3,.06,.5,.33,.65,.59,.15,.26,.27,.54,.31,.84s0,.62-.18,.86"/>
        </g>
      </g>
      <path class="cls-3" d="M193.78,220.1s-.12-.03-.33-.12c-.21-.11-.54-.23-.9-.48-.77-.44-1.78-1.26-2.87-2.41-2.21-2.29-4.5-6.04-6.77-10.26-2.32-4.19-4.41-7.99-5.89-10.76-.7-1.32-1.28-2.42-1.74-3.29-.4-.78-.61-1.22-.57-1.24s.3,.39,.75,1.14c.49,.85,1.13,1.92,1.88,3.21,1.57,2.72,3.7,6.5,6.03,10.69,2.27,4.21,4.48,7.95,6.59,10.26,2.05,2.37,3.89,3.17,3.83,3.26Z"/>
    </g>
  </g>
  <g id="Thought_Bubble" data-name="Thought Bubble">
    <g>
      <g>
        <circle class="cls-5" cx="80.69" cy="149.07" r="40.65"/>
        <g>
          <path class="cls-11" d="M123.88,178.64s-.44,.07-1.17,.37c-.72,.29-1.72,.94-2.47,2.12-.37,.59-.67,1.3-.76,2.11-.09,.8,.03,1.69,.44,2.5,.78,1.62,2.65,3.02,4.77,2.91,2.11-.15,3.81-1.76,4.39-3.46,.32-.86,.33-1.75,.15-2.54-.19-.79-.57-1.46-1.01-2.01-.88-1.09-1.96-1.61-2.7-1.81-.76-.21-1.21-.18-1.21-.23,0-.01,.11-.02,.32-.03,.11,0,.24,0,.39,.02,.15,.01,.33,.04,.53,.09,.78,.17,1.92,.67,2.87,1.78,.47,.55,.89,1.26,1.1,2.1,.21,.84,.21,1.81-.12,2.73-.31,.92-.9,1.8-1.71,2.48-.8,.69-1.86,1.16-2.99,1.24-1.14,.05-2.24-.29-3.11-.88-.89-.58-1.58-1.38-1.99-2.26-.43-.88-.55-1.84-.44-2.69,.11-.86,.45-1.61,.85-2.22,.82-1.22,1.89-1.85,2.64-2.11,.19-.07,.36-.12,.51-.15,.15-.04,.28-.06,.39-.07,.21-.02,.32-.03,.32-.01Z"/>
          <path class="cls-11" d="M136.82,191.51s-.28,.06-.73,.26c-.44,.19-1.06,.6-1.52,1.34-.46,.71-.71,1.83-.18,2.85,.48,1,1.64,1.86,2.94,1.79,1.29-.09,2.34-1.08,2.71-2.13,.4-1.07,.02-2.15-.52-2.81-.54-.68-1.21-1.01-1.67-1.15-.47-.14-.75-.13-.75-.17,0-.02,.28-.08,.79,.02,.5,.1,1.23,.41,1.84,1.12,.3,.35,.57,.8,.71,1.34,.14,.54,.14,1.16-.07,1.75-.39,1.17-1.53,2.29-3.02,2.39-1.49,.07-2.75-.9-3.28-2.02-.28-.56-.35-1.18-.28-1.73,.08-.55,.29-1.03,.55-1.42,.53-.77,1.21-1.17,1.7-1.33,.49-.16,.78-.14,.78-.12Z"/>
          <path class="cls-11" d="M121.73,152.27s0-.23,0-.67c0-.45,.02-1.1,.04-1.96,0-.43,.02-.91,.03-1.44-.01-.53-.08-1.11-.12-1.73-.05-.63-.1-1.3-.16-2.02-.01-.36-.07-.73-.15-1.11-.07-.38-.14-.77-.21-1.17-.47-3.23-1.66-7.09-3.68-11.24-2.04-4.14-5.12-8.54-9.48-12.41-.55-.48-1.1-.96-1.66-1.45-.59-.46-1.21-.88-1.83-1.33-.31-.22-.62-.44-.93-.67-.31-.23-.62-.46-.97-.64-.67-.39-1.35-.79-2.04-1.18-.35-.2-.69-.4-1.04-.6-.36-.17-.73-.33-1.1-.5-.74-.34-1.48-.68-2.23-1.02-.76-.32-1.56-.55-2.36-.83-.4-.14-.8-.27-1.2-.41-.2-.07-.4-.14-.61-.2l-.62-.14c-1.67-.37-3.35-.85-5.11-1-.88-.1-1.76-.25-2.65-.31-.9-.02-1.8-.05-2.71-.07-.46,0-.91-.04-1.37-.02-.46,.03-.92,.07-1.38,.1-.92,.08-1.85,.11-2.78,.23-1.84,.35-3.73,.57-5.57,1.17-.46,.13-.93,.26-1.39,.39-.23,.07-.47,.13-.7,.2l-.68,.26c-.91,.35-1.82,.71-2.74,1.07-.9,.4-1.77,.88-2.66,1.32-.44,.24-.9,.43-1.32,.7l-1.27,.81c-1.75,1.01-3.31,2.32-4.94,3.57-.75,.7-1.5,1.41-2.25,2.12l-.57,.53c-.18,.19-.34,.39-.52,.58l-1.03,1.18-1.04,1.18-.93,1.28-.93,1.29-.46,.65c-.14,.22-.27,.46-.4,.69-.53,.92-1.07,1.84-1.61,2.77-.45,.98-.89,1.95-1.34,2.93-1.65,3.99-2.71,8.29-3.11,12.71-.29,4.43,.09,8.84,1.1,13.04,.29,1.04,.58,2.08,.87,3.11,.39,1,.78,1.99,1.16,2.99l.29,.74,.36,.71,.72,1.41,.72,1.41,.84,1.33,.84,1.32,.42,.66,.48,.62c.63,.82,1.27,1.63,1.9,2.45,1.41,1.49,2.75,3.03,4.32,4.3l1.13,.99c.37,.33,.8,.6,1.2,.9,.81,.57,1.6,1.18,2.42,1.72,.85,.49,1.7,.99,2.54,1.48l.63,.37c.22,.11,.44,.2,.66,.31,.44,.2,.88,.4,1.32,.6,1.72,.88,3.56,1.39,5.32,2.02,.9,.26,1.82,.44,2.71,.66,.45,.1,.9,.21,1.35,.32,.45,.1,.91,.13,1.36,.19,.9,.12,1.8,.23,2.69,.35,.89,.08,1.79,.07,2.67,.1,1.77,.13,3.5-.09,5.21-.2l.64-.05c.21-.02,.42-.07,.63-.1,.42-.07,.83-.15,1.25-.22,.82-.16,1.65-.26,2.46-.46,.79-.22,1.58-.44,2.36-.66,.39-.11,.78-.22,1.17-.32,.37-.14,.75-.29,1.12-.43,.74-.29,1.47-.57,2.2-.85,.37-.13,.71-.3,1.06-.48,.34-.17,.69-.35,1.03-.52,.68-.35,1.36-.67,2.01-1.03,.63-.4,1.25-.79,1.87-1.18,4.9-3.15,8.63-7.01,11.29-10.79,.34-.47,.68-.93,.99-1.39,.28-.48,.56-.96,.83-1.42,.27-.46,.54-.92,.8-1.37,.13-.23,.27-.44,.38-.67,.11-.23,.21-.46,.31-.68,.42-.9,.81-1.76,1.19-2.58,.36-.83,.59-1.66,.87-2.43,.13-.38,.26-.76,.39-1.12,.13-.36,.25-.72,.32-1.07,.17-.7,.32-1.36,.47-1.97,.14-.61,.29-1.17,.39-1.69,.07-.52,.14-1,.19-1.43,.12-.84,.21-1.49,.27-1.94,.06-.44,.11-.66,.11-.66,0,0-.02,.23-.07,.66-.05,.45-.13,1.1-.23,1.94-.05,.43-.11,.91-.18,1.43-.09,.52-.24,1.09-.37,1.7-.14,.61-.29,1.27-.45,1.98-.07,.36-.18,.71-.31,1.08-.12,.37-.25,.74-.38,1.13-.28,.77-.51,1.6-.86,2.44-.38,.83-.77,1.7-1.18,2.6-.1,.23-.21,.46-.31,.69-.11,.23-.25,.45-.38,.67-.26,.45-.53,.91-.8,1.38-.27,.47-.55,.95-.83,1.43-.31,.46-.66,.92-.99,1.4-2.66,3.8-6.39,7.71-11.32,10.89-.62,.39-1.24,.79-1.88,1.19-.65,.36-1.34,.69-2.02,1.04-.34,.17-.69,.35-1.03,.52-.34,.18-.69,.36-1.06,.49-.73,.29-1.47,.57-2.21,.86-.37,.14-.75,.3-1.12,.43-.39,.11-.78,.22-1.17,.33-.79,.22-1.58,.44-2.38,.67-.81,.2-1.64,.31-2.47,.47-.42,.07-.84,.15-1.26,.22-.21,.03-.42,.08-.63,.1l-.64,.05c-1.72,.11-3.47,.33-5.25,.21-.89-.04-1.79-.02-2.69-.1-.9-.12-1.8-.23-2.71-.35-.45-.07-.92-.1-1.37-.19-.45-.1-.9-.21-1.36-.32-.9-.22-1.83-.4-2.74-.66-1.78-.63-3.63-1.15-5.37-2.03-.44-.2-.88-.4-1.33-.61-.22-.1-.45-.2-.66-.31l-.64-.37c-.85-.49-1.7-.99-2.56-1.49-.83-.54-1.62-1.15-2.45-1.73-.4-.3-.83-.57-1.21-.9l-1.14-1c-1.58-1.28-2.94-2.83-4.36-4.33-.63-.82-1.27-1.64-1.92-2.47l-.48-.62-.42-.66-.85-1.34-.85-1.34-.72-1.42-.72-1.43-.36-.72-.3-.75c-.39-1-.78-2.01-1.17-3.01-.29-1.04-.59-2.09-.88-3.14-1.02-4.24-1.4-8.69-1.11-13.16,.41-4.46,1.47-8.8,3.14-12.82,.45-.99,.91-1.98,1.36-2.96,.54-.93,1.09-1.87,1.63-2.79,.14-.23,.27-.47,.41-.69l.47-.65,.94-1.3,.94-1.29,1.05-1.19,1.04-1.19c.17-.2,.34-.4,.52-.59l.57-.54c.76-.72,1.52-1.43,2.27-2.14,1.64-1.26,3.22-2.58,4.98-3.6l1.28-.81c.42-.27,.89-.47,1.34-.7,.9-.44,1.78-.93,2.68-1.33,.93-.36,1.85-.72,2.76-1.07l.68-.27c.23-.08,.47-.13,.7-.2,.47-.13,.94-.26,1.4-.39,1.85-.6,3.76-.82,5.62-1.17,.94-.12,1.88-.15,2.8-.23,.46-.03,.93-.07,1.39-.1,.46-.02,.92,.02,1.38,.02,.92,.03,1.83,.05,2.73,.08,.9,.06,1.79,.22,2.67,.32,1.78,.15,3.47,.64,5.15,1.02l.63,.15c.21,.06,.41,.14,.61,.2,.4,.14,.81,.28,1.21,.41,.8,.29,1.61,.52,2.37,.84,.76,.35,1.5,.69,2.25,1.03,.37,.17,.74,.34,1.11,.51,.35,.19,.7,.4,1.04,.6,.69,.4,1.38,.8,2.05,1.2,.35,.18,.66,.42,.97,.64,.31,.23,.63,.45,.94,.68,.62,.45,1.25,.88,1.84,1.34,.56,.5,1.12,.99,1.67,1.47,4.38,3.91,7.45,8.34,9.49,12.51,2.02,4.18,3.19,8.07,3.64,11.31,.07,.4,.14,.79,.2,1.18,.07,.38,.13,.75,.14,1.11,.05,.72,.1,1.4,.14,2.03,.04,.63,.1,1.21,.11,1.74-.02,.53-.03,1.01-.05,1.44-.03,.85-.06,1.51-.07,1.96-.02,.44-.04,.66-.04,.66Z"/>
        </g>
      </g>
      <g>
        <path class="cls-12" d="M74.86,127.31l1.48,23.41c.12,1.91,1.65,3.44,3.56,3.55h0c2.02,.12,3.78-1.36,4-3.37l2.6-23.52c.2-1.78-1.21-3.33-3-3.31l-5.71,.08c-1.7,.02-3.04,1.47-2.93,3.17Z"/>
        <path class="cls-12" d="M86.11,167.43c-.99,2.99-4.23,4.62-7.22,3.62-2.99-.99-4.62-4.23-3.62-7.22,.99-2.99,4.23-4.62,7.22-3.62,2.99,.99,4.61,4.23,3.62,7.22Z"/>
      </g>
    </g>
  </g>
</svg>