<?xml version="1.0" encoding="UTF-8"?>
<svg id="Layer_1" data-name="Layer 1" xmlns="http://www.w3.org/2000/svg" xmlns:xlink="http://www.w3.org/1999/xlink" viewBox="0 0 819.11 764.33">
  <defs>
    <style>
      .cls-1 {
        fill: none;
      }

      .cls-2 {
        clip-path: url(#clippath);
      }

      .cls-3 {
        fill: #fff;
      }

      .cls-4 {
        fill: #dceee0;
      }

      .cls-5 {
        fill: #1b2f35;
      }

      .cls-6 {
        fill: #5cbb61;
      }

      .cls-7 {
        clip-path: url(#clippath-1);
      }
    </style>
    <clipPath id="clippath">
      <path class="cls-1" d="M45.51,325.34c-6.7,29.28-15.39,110.71,14.47,142.02,29.86,31.31,52.5,35.64,103.56,36.61,51.06,.96,76.59,3.85,114.15,1.44,37.57-2.4,96.33-3.73,102.59-88.62,11.31-153.34-103.86-224.09-196.34-215.9-92.48,8.19-125.79,69.22-138.44,124.46Z"/>
    </clipPath>
    <clipPath id="clippath-1">
      <path class="cls-1" d="M544.13,126.92c-46.5,9.8-119.29,30.04-115.94,118.75,3.35,88.71,37.46,134.44,94.41,152.18,56.95,17.74,196.69,35.96,226.36-23.02,29.67-58.98,19.89-143.19,4.58-178.2-15.31-35.01-52.43-102.81-209.4-69.72Z"/>
    </clipPath>
  </defs>
  <g>
    <path d="M777.98,520.1c-.31,0-.62-.03-.94-.1-1.75-.29-3.11-1.42-3.81-3.16-.85-2.13-.55-4.82,.74-6.54,1-2.01,3.58-4.13,6.34-5.36-.56-.72-1.25-1.28-2.07-1.61-1.87-.75-5.26-.89-7.85,.31-1.35,.63-2.22,1.51-2.59,2.61-.12,.35-.49,.54-.84,.42-.35-.12-.54-.49-.42-.84,.48-1.45,1.62-2.63,3.29-3.4,2.57-1.19,6.4-1.34,8.9-.33,1.17,.47,2.12,1.29,2.86,2.34,.48-.16,.96-.29,1.43-.38,2.83-.95,5.27-.89,7.18,.19,2.05,1.16,3.48,3.51,4.25,6.97,.08,.36-.15,.71-.51,.79-.36,.08-.71-.15-.79-.51-.68-3.08-1.9-5.14-3.61-6.1-1.57-.89-3.65-.91-6.18-.06-.35,.07-.71,.16-1.07,.28,1.39,2.8,1.61,6.59,.69,9.68-.91,3.07-2.75,4.8-5.01,4.8Zm3.07-14.02c-2.58,1.11-5.01,3.06-5.94,4.92-1.07,1.45-1.31,3.65-.63,5.35,.37,.92,1.16,2.07,2.81,2.35,2.84,.56,4.04-2.45,4.44-3.78,.84-2.84,.6-6.36-.67-8.84Z"/>
    <path d="M225.36,558.55c-3.26,0-6.31-1.29-8.63-3.69-1.03-1.16-1.81-2.7-2.28-4.37-1.72-.15-3.38-.74-4.84-1.75-2.55-1.76-4.26-4.65-4.71-7.91-.51-4.05,.89-6.54,3.07-9.87,.2-.31,.61-.39,.92-.19,.31,.2,.39,.61,.19,.92-2.08,3.17-3.33,5.3-2.87,8.97,.4,2.89,1.91,5.44,4.15,6.99,1.15,.79,2.43,1.29,3.77,1.47-.28-1.61-.28-3.28,.06-4.78,.64-2.84,2.33-4.92,4.88-6.01,1.55-.66,3.18-.48,4.36,.47,1.36,1.09,1.94,3.01,1.54,5.13-.68,2.79-3.83,5.5-7.33,6.35-.61,.14-1.22,.22-1.82,.25,.42,1.32,1.06,2.52,1.87,3.44,2.18,2.24,5.11,3.39,8.21,3.24,3.28-.17,6.32-1.74,8.35-4.31,.23-.29,.65-.34,.94-.11,.29,.23,.34,.65,.11,.93-2.27,2.87-5.67,4.63-9.33,4.81-.21,.01-.42,.02-.63,.02Zm-4.4-19.29c-.43,0-.89,.1-1.35,.29-2.71,1.15-3.73,3.4-4.11,5.08-.32,1.44-.31,3.04,0,4.57,.61-.01,1.23-.09,1.85-.23,2.99-.73,5.78-3.07,6.33-5.33,.3-1.59-.1-3.03-1.07-3.81-.47-.38-1.04-.57-1.66-.57Z"/>
    <path d="M230.77,177.09c-.37,0-.66-.3-.67-.66-.02-5.68,2.17-11.37,5.72-14.84,2.51-2.46,5.64-3.76,9.08-3.8,2.69-4.23,8.32-6.83,13.26-6.01,2.9,.48,5.43,2.06,7.88,3.6,4.53,2.83,8.45,5.28,13.49-.04,.25-.27,.67-.28,.94-.03,.27,.25,.28,.67,.03,.94-5.78,6.11-10.55,3.13-15.16,.25-2.34-1.46-4.76-2.97-7.4-3.41-4.12-.68-8.91,1.4-11.47,4.77,5.32,.53,8.03,3.88,8.8,6.99,.72,2.89-.14,5.77-2.03,6.84-1.09,.62-3.44,1.15-6.83-2.26-3.03-3.04-3.83-6.76-2.25-10.28-2.82,.19-5.3,1.33-7.41,3.39-3.31,3.23-5.35,8.55-5.32,13.89,0,.37-.3,.67-.66,.67h0Zm14.89-17.96s-.05,.09-.07,.14c-1.63,3.16-1,6.44,1.77,9.22,2.02,2.03,3.93,2.77,5.23,2.04,1.36-.77,1.96-3.07,1.39-5.36-.34-1.36-1.92-5.75-8.33-6.04Z"/>
    <path class="cls-6" d="M777.92,363.68c-4.66,0-8.29-2.88-9.24-7.33-.86-4.03,.46-6.72,1.71-8.27,1.8-2.23,4.71-3.56,7.77-3.56,4.27,0,7.86,2.45,9.59,6.55,.77,1.89,.65,4.16-.34,6.4-1.13,2.56-3.26,4.66-5.56,5.5-1.29,.47-2.62,.71-3.94,.71Zm.24-17.82c-2.66,0-5.18,1.15-6.73,3.06-1.54,1.9-2.04,4.37-1.44,7.15,.81,3.81,3.93,6.27,7.93,6.27,1.16,0,2.34-.21,3.49-.63,1.97-.72,3.8-2.55,4.79-4.78,.84-1.9,.96-3.8,.32-5.35-1.52-3.58-4.64-5.73-8.36-5.73Z"/>
    <path class="cls-6" d="M111.69,545.59c-4.66,0-8.29-2.88-9.24-7.33-.86-4.03,.46-6.72,1.71-8.27,1.8-2.23,4.71-3.56,7.77-3.56,4.27,0,7.86,2.45,9.59,6.55,.78,1.9,.66,4.16-.34,6.4-1.13,2.56-3.26,4.66-5.56,5.49-1.29,.47-2.62,.71-3.94,.71Zm.24-17.82c-2.66,0-5.18,1.15-6.73,3.06-1.54,1.9-2.04,4.37-1.44,7.15,.81,3.81,3.93,6.27,7.93,6.27,1.17,0,2.34-.21,3.49-.63,1.97-.71,3.8-2.55,4.79-4.78,.84-1.9,.96-3.8,.32-5.35-1.52-3.58-4.64-5.73-8.36-5.73Z"/>
    <path class="cls-6" d="M763.31,453.64c-2.49,0-4.81-1.22-6.19-3.26l-13.34-19.64c-1.12-1.64-1.52-3.63-1.15-5.6,.37-1.96,1.49-3.66,3.13-4.78l19.64-13.34c1.23-.84,2.68-1.28,4.18-1.28,2.49,0,4.81,1.22,6.2,3.27l13.34,19.64c2.31,3.41,1.42,8.06-1.98,10.37l-19.64,13.34c-1.24,.84-2.68,1.28-4.18,1.28Zm6.27-46.57c-1.23,0-2.42,.36-3.43,1.05l-19.64,13.34c-1.35,.92-2.26,2.31-2.57,3.93-.31,1.61,.03,3.25,.94,4.6l13.34,19.64c1.14,1.68,3.04,2.68,5.09,2.68,1.23,0,2.42-.36,3.43-1.05l19.64-13.34c2.8-1.9,3.53-5.73,1.63-8.53l-13.34-19.64c-1.14-1.68-3.05-2.68-5.09-2.68Z"/>
    <path class="cls-6" d="M177.98,626.54c-2.73,0-4.73-2.17-5.22-5.66l-3.86-27.27c-.32-2.29,.1-4.19,1.23-5.49,1.5-1.73,4.11-2.1,6.98-.94l25.55,10.29c2.52,1.01,4.06,2.67,4.34,4.65,.28,1.98-.74,4-2.88,5.67l-21.69,16.98c-1.48,1.16-3.01,1.77-4.45,1.77Zm-4.06-38.7c-1.17,0-2.13,.4-2.79,1.16-.85,.98-1.18,2.56-.91,4.43l3.86,27.27c.4,2.83,1.86,4.52,3.91,4.52,1.13,0,2.39-.51,3.62-1.48l21.69-16.98c1.75-1.37,2.59-2.94,2.38-4.44-.21-1.49-1.46-2.77-3.52-3.6l-25.55-10.29c-.96-.39-1.86-.58-2.68-.58Z"/>
    <path class="cls-6" d="M384.94,170.93c-1.2,0-2.48-.37-3.8-1.1l-24.13-13.27c-2.38-1.31-3.71-3.13-3.75-5.13-.04-2,1.21-3.88,3.54-5.29l23.56-14.26c1.38-.84,2.73-1.26,3.99-1.26,3.04,0,5.06,2.47,5.14,6.28l.58,27.53c.05,2.18-.53,3.94-1.67,5.1-.89,.91-2.08,1.39-3.44,1.39Zm-.6-38.98c-1.01,0-2.15,.37-3.3,1.07l-23.56,14.26c-1.9,1.15-2.92,2.61-2.89,4.12,.03,1.51,1.12,2.93,3.06,4l24.13,13.27c2.27,1.25,4.39,1.22,5.65-.06,.88-.9,1.33-2.34,1.29-4.15l-.58-27.53c-.06-3.07-1.52-4.98-3.81-4.98Z"/>
  </g>
  <g>
    <path d="M479.68,661.12h-.02c-55.06,0-102.84-4.14-134.54-11.64-36.08-8.54-60.1-23.36-71.42-44.03-9.56-17.47-10-38.92-1.31-63.77,.33-.93,.66-1.91,1.01-2.92,6.79-19.67,19.42-56.29,79.54-129.26,43.71-53.05,99.81-82.27,157.96-82.27,21.46,0,42.78,3.95,63.39,11.75,51.38,19.43,94.34,50.66,124.24,90.33,25.17,33.38,40.85,72.41,44.17,109.89,3.58,40.51-7.94,73.87-30.07,87.08-40.33,24.07-146.06,34.84-232.96,34.84Zm31.23-332.56c-57.75,0-113.48,29.04-156.93,81.78-59.96,72.78-72.55,109.25-79.31,128.85-.35,1.02-.69,1.99-1.01,2.93-8.57,24.48-8.16,45.57,1.22,62.69,11.13,20.33,34.86,34.92,70.56,43.37,31.6,7.48,79.27,11.61,134.23,11.61h.02c86.72,0,192.17-10.71,232.28-34.65,21.69-12.94,32.96-45.83,29.43-85.82-5.73-64.78-53.05-155.79-167.56-199.1-20.46-7.74-41.63-11.66-62.92-11.66Z"/>
    <g>
      <g class="cls-2">
        <g>
          <g>
            <path class="cls-3" d="M218.2,273.73c2.65,4.34,4.81,12.04,6.02,20.47,.84,5.9,2.41,6.5,8.19,9.15,5.78,2.65,7.11,7.71,3.98,10.6-4.46,4.12-4.45,1.87-5.06,6.5-.4,3.09,.44,5.56-3.72,4.23-1.63-.52-5.01-2.53-5.49-2.16-1.44,1.11-1,5.32,4.49,8.49,2,1.15,3.66,1,1.89,10.16-1.54,7.98-11.2,9.21-20.77,7.4-9.57-1.81-7.59,5.42-11.38,15.71-3.79,10.3-4.34,16.08,.9,20.41,5.24,4.34,9.39,25.11,8.85,30.16-.54,5.06-18.6,15.53-33.96-1.45-8.31-11.56-17.7-33.78-17.7-33.78,0,0,9.75-13.55,9.57-26.73-.18-13.18-5.78-62.86,12.46-76.95,18.24-14.09,39.92-5.72,41.72-2.23Z"/>
            <path d="M190.99,423.38c-4.89,0-12.22-1.65-19.34-9.52-8.3-11.55-17.73-33.74-17.82-33.96-.09-.21-.06-.46,.07-.65,.1-.13,9.62-13.53,9.45-26.34-.02-1.82-.16-4.4-.31-7.4-.96-18.74-2.95-57.74,13.03-70.09,8.59-6.64,17.57-8.03,23.59-8.03,9.78,0,17.86,3.57,19.13,6.02,2.59,4.23,4.81,11.78,6.09,20.68,.78,5.42,2.06,6.01,7.47,8.49l.34,.16c3.35,1.53,5.51,3.95,5.94,6.64,.3,1.91-.33,3.71-1.79,5.05-1.58,1.46-2.63,2.15-3.32,2.6-1.15,.75-1.17,.77-1.52,3.5-.07,.56-.1,1.11-.13,1.61-.12,2.1-.32,4.5-4.45,3.17-.69-.22-1.64-.68-2.56-1.12-.8-.38-1.98-.95-2.44-1.05-.24,.28-.36,.76-.32,1.34,.11,1.58,1.44,3.97,4.85,5.94,.18,.1,.35,.19,.52,.28,2.17,1.14,3.32,2.19,1.69,10.58-1.08,5.59-6.11,8.67-14.17,8.67-2.3,0-4.78-.25-7.38-.74-.93-.18-1.77-.27-2.5-.27-3.93,0-4.67,2.43-5.96,7.94-.53,2.25-1.13,4.81-2.17,7.62-4.03,10.94-3.85,15.9,.7,19.67,5.46,4.52,9.66,25.41,9.09,30.75-.36,3.4-7.15,8.45-15.78,8.45Zm-35.79-43.67c1.22,2.84,9.87,22.72,17.48,33.31,6.74,7.45,13.68,9.03,18.3,9.03,8.03,0,14.18-4.71,14.45-7.26,.52-4.89-3.67-25.49-8.61-29.58-5.73-4.74-4.81-11.09-1.1-21.15,1.01-2.74,1.6-5.25,2.12-7.47,1.23-5.2,2.11-8.96,7.26-8.96,.82,0,1.71,.09,2.74,.29,2.52,.48,4.92,.72,7.13,.72,5.2,0,11.65-1.32,12.86-7.59,1.51-7.83,.51-8.36-1-9.15-.18-.1-.37-.2-.57-.31-3.29-1.89-5.35-4.51-5.52-7-.08-1.12,.27-2.06,.95-2.59,.58-.45,1.58-.01,3.71,1.01,.88,.42,1.79,.85,2.39,1.05,.7,.22,1.26,.34,1.67,.34,.79,0,.93-.32,1.05-2.32,.03-.53,.06-1.1,.14-1.7,.4-3.08,.56-3.42,2.11-4.44,.66-.43,1.65-1.08,3.15-2.47,1.12-1.04,1.61-2.41,1.38-3.87-.35-2.2-2.29-4.31-5.18-5.63l-.34-.15c-5.5-2.52-7.35-3.37-8.23-9.51-1.25-8.73-3.41-16.1-5.93-20.22-.84-1.63-7.94-5.35-17.98-5.35-5.81,0-14.48,1.35-22.77,7.75-15.43,11.92-13.46,50.45-12.52,68.97,.15,3,.29,5.6,.31,7.45,.17,12.31-7.99,24.67-9.48,26.82Z"/>
          </g>
          <path d="M163.54,503.97c3.37,1.45,35.16,3.13,35.16,3.13,0,0,13.97-44.55,8.19-95.61-11.56,10.11-24.57,7.7-37.57-2.89,8.19,25.05,4.34,76.58-5.78,95.37Z"/>
          <path d="M212.45,306.31c.7,2.25,2.32,3.76,3.6,3.36,1.28-.4,1.75-2.55,1.05-4.81-.7-2.25-2.32-3.76-3.6-3.35-1.28,.4-1.76,2.55-1.05,4.8Z"/>
          <path d="M214.61,302.58c-.06,0-.13,0-.19-.03-.35-.1-.55-.47-.45-.83l1.21-4.09c.1-.35,.47-.56,.83-.45,.35,.1,.55,.47,.45,.83l-1.21,4.09c-.09,.29-.35,.48-.64,.48Z"/>
          <path class="cls-6" d="M182.56,438.46c-3.72-27.42-15.98-45.56-26.82-62.37-1.66-2.58-3.2-2.21-3.91-2.07-5.19,1.03-10.97,3.46-9.49,6.64,.31,.67,.8,1.36,1.4,2.13-2.25,.45-4.94,1.02-8.14,1.72-12.04,2.65-19.49,7.41-26.96,14.88-7.47,7.47-45.64,53.76-56.24,65.56,13.97,26.97,37.94,30.95,37.94,30.95,0,0,21.9-22.03,35.63-38.89-.48,3.37-2.17,34.68-6.98,46.96,8.51,4.94,32.15,4.7,45.31,4.14,2.16,1.98,10.57,.2,10.57,.2,0,0,11.56-41.42,7.71-69.84Z"/>
          <path d="M141.98,281.2c-6.32,2.35-13.37,8.13-17.16,32.87-1.83,11.97-6.28,24.81-5.44,37.02,.78,11.42,10.68,14.54,20.76,16.55,8.88,1.78,43.41,10.01,45.59-4.86,2.54-17.34-24.8-26.05-20.88-42.15,.8-3.27,4.08-7.34,7.47-8.1,4.32-.97,5.6,2.72,8.96,4.99,4.09,2.76,6.54,1.15,9-2.99,2.32-3.91,1.45-10.18,1.08-14.57-.48-5.76-1.17-7.84,3.83-9.48,6.75-2.23,12.53-6.8,6.03-14.52,8.67,10.29,13,8.67,20.05,4.15,7.04-4.52,7.41-8.67,4.7-16.44-2.71-7.77-11.02-19.69-25.65-17.88-14.63,1.81-13.19,5.78-30.71,9.39-17.52,3.61-28.72,8.85-27.64,26.01Z"/>
          <path d="M207.37,294.69c-.07,0-.15-.01-.22-.04-.35-.12-.53-.5-.4-.85,.47-1.32,3.14-8,9.34-9.28,.36-.07,.71,.16,.79,.52,.07,.36-.16,.71-.52,.79-5.5,1.14-7.93,7.21-8.36,8.42-.1,.27-.35,.44-.63,.44Z"/>
          <path class="cls-3" d="M163.78,507.52s-.03,0-.04,0c-.37-.02-.65-.34-.62-.71,.04-.58,.16-2.16,.34-4.45,1.04-13.39,3.81-48.96,2.8-57.08-1.06-8.5,1.24-10.63,4.73-13.86,.44-.4,.89-.83,1.37-1.29-1.72-1.09-6.23-3.96-9.64-6.04-3.56-2.18-4.35-5.13-6.45-13.04-.63-2.36-1.34-5.03-2.28-8.3-2.86-9.93-6.94-14.88-9.63-18.16-.66-.8-1.23-1.5-1.71-2.16-.21-.3-.14-.71,.15-.93,.3-.21,.72-.14,.93,.15,.45,.63,1.01,1.31,1.65,2.09,2.77,3.36,6.95,8.44,9.88,18.63,.94,3.28,1.69,6.08,2.28,8.32,2,7.53,2.74,10.34,5.85,12.24,4.29,2.62,10.31,6.47,10.37,6.51,.17,.11,.28,.29,.3,.49,.02,.2-.05,.4-.19,.54-.7,.7-1.37,1.32-2,1.9-3.41,3.15-5.29,4.89-4.31,12.72,1.03,8.26-1.74,43.92-2.79,57.35-.18,2.29-.3,3.85-.34,4.43-.02,.35-.31,.62-.66,.62Z"/>
          <path class="cls-6" d="M256.74,420.4l-5.06,14.93s-12.04-21.91-19.75-31.55c-7.2-9-17.56-14.64-25.76-17.7-5.54-9.16-13.36-10.48-13.36-10.48,0,0-.62,2.17,.53,4.91,1.15,2.74,13.54,24.23,10.66,58.43-2.89,34.2-12.76,68.16-12.76,68.16h7.47s.06-.19,.16-.54c5.62,.72,17.05,1.87,17.42-.67,.48-3.37,6.99-30.35,10.84-38.78,11.56,21.43,22.29,25.81,37.8,19.29,11.09-4.66,20.24-41.92,21.44-56.62,.24-.24-29.62-9.39-29.62-9.39Z"/>
          <path class="cls-3" d="M198.7,507.76c-.06,0-.13,0-.19-.03-.35-.11-.55-.48-.44-.83,.15-.49,14.95-48.97,17.09-58.24,2.2-9.53,2.13-10.67,.69-13.47-1.8-3.52-3.35-6.61-3.35-6.61-.15-.31-.05-.68,.25-.86,1.62-1,5.69-4.2,5-6.92-1.54-6.03-7.39-26.02-11.68-33.61l-.14-.24c-.18-.32-.07-.73,.25-.91,.32-.18,.72-.07,.91,.25l.14,.25c4.35,7.71,10.26,27.86,11.81,33.94,.91,3.57-3.53,6.98-5.08,8.04,.52,1.03,1.72,3.43,3.08,6.07,1.67,3.27,1.61,4.88-.58,14.38-2.15,9.31-16.96,57.84-17.11,58.33-.09,.29-.35,.47-.64,.47Z"/>
          <path d="M227.11,467.78c-.09,0-.19-.02-.28-.06-.33-.15-.48-.55-.33-.88,10.83-23.7,6.79-32.23,4.38-37.32-.42-.89-.78-1.65-1.03-2.41-.12-.35,.07-.73,.42-.84,.35-.12,.73,.07,.84,.42,.23,.68,.57,1.41,.97,2.26,2.51,5.31,6.71,14.19-4.37,38.45-.11,.24-.35,.39-.61,.39Z"/>
          <path d="M255.6,445.03c-.25,0-.49-.14-.6-.38-.03-.06-2.69-5.62-5.07-11.35-.14-.34,.02-.73,.36-.87,.34-.14,.73,.02,.87,.36,2.37,5.7,5.02,11.23,5.04,11.29,.16,.33,.02,.73-.31,.89-.09,.04-.19,.06-.29,.06Z"/>
          <g>
            <path class="cls-3" d="M258.66,414.68c2.71-8.49,6.68-31.43,7.59-39.92,.9-8.49-4.15-20.41,1.81-28,5.96-7.59,9.75-11.38,11.38-15.17,1.63-3.79,5.42-4.34,7.41-.54,1.99,3.79-1.08,10.48-5.6,15.17,11.02-7.04,11.92-4.52,15.35-9.93,3.43-5.42,10.12-19.33,14.45-18.97,3.61-4.88,7.77-2.17,8.49,4.52,2.17-.18,4.15,4.88,2.71,12.46,5.24,3.07,4.7,14.27-2.71,22.76-7.41,8.49-21.49,13.55-24.56,20.41-3.07,6.86-8.13,47.14-8.13,47.14l-28.18-9.94Z"/>
            <path d="M286.84,425.28c-.07,0-.15-.01-.22-.04l-28.18-9.94c-.34-.12-.52-.49-.41-.83,2.73-8.55,6.69-31.62,7.56-39.79,.3-2.86-.09-6.12-.5-9.57-.8-6.68-1.63-13.59,2.44-18.77,1.83-2.33,3.45-4.3,4.88-6.03,3.2-3.88,5.32-6.45,6.41-8.99,.95-2.21,2.62-3.53,4.48-3.53,1.64,0,3.15,1.07,4.13,2.94,1.78,3.39-.04,8.52-3.14,12.85,2.84-1.63,4.82-2.5,6.26-3.14,2.64-1.16,3.62-1.59,5.48-4.52,.73-1.16,1.64-2.75,2.6-4.43,4.56-8,8.63-14.64,12.09-14.84,1.61-2.05,3.14-2.49,4.16-2.49,2.62,0,4.66,2.75,5.25,7.06,.43,.11,.95,.37,1.46,.99,1.33,1.61,2.47,5.64,1.39,11.76,1.68,1.16,2.79,3.13,3.21,5.71,.9,5.5-1.52,12.49-6.16,17.8-3.49,4.01-8.32,7.17-12.99,10.24-5.09,3.34-9.9,6.5-11.47,10.01-3,6.7-8.03,46.55-8.08,46.95-.03,.2-.14,.38-.31,.48-.11,.07-.23,.1-.35,.1Zm-27.35-11.02l26.8,9.45c.76-5.92,5.21-40.1,8.08-46.51,1.73-3.86,6.7-7.12,11.96-10.58,4.59-3.02,9.34-6.13,12.71-10,4.39-5.03,6.68-11.59,5.85-16.71-.39-2.38-1.41-4.12-2.97-5.03-.24-.14-.37-.42-.32-.7,1.05-5.54,.24-9.57-1.03-11.11-.21-.26-.54-.57-.91-.57-.34,0-.74-.25-.77-.59-.41-3.83-2.02-6.41-4-6.41-1.08,0-2.22,.77-3.29,2.22-.14,.19-.36,.29-.59,.27h0c-3.12,0-7.98,8.53-11.2,14.17-.97,1.7-1.88,3.31-2.63,4.49-2.07,3.27-3.32,3.82-6.06,5.03-2.03,.89-4.82,2.12-9.49,5.11-.28,.18-.66,.12-.87-.14-.21-.26-.2-.64,.04-.88,4.09-4.25,7.4-10.75,5.49-14.4-.75-1.44-1.8-2.23-2.95-2.23-1.31,0-2.52,1.02-3.25,2.73-1.16,2.72-3.33,5.34-6.6,9.31-1.43,1.73-3.04,3.69-4.86,6.01-3.73,4.75-2.94,11.38-2.17,17.79,.42,3.53,.82,6.86,.5,9.86-.85,8.02-4.68,30.37-7.42,39.43Z"/>
          </g>
          <path d="M287.74,358.63c-.3,0-.57-.21-.65-.51-.91-3.83-4.35-10.09-6.22-11.34-.31-.2-.39-.62-.18-.92,.2-.31,.62-.39,.92-.18,2.34,1.56,5.86,8.27,6.78,12.14,.09,.36-.14,.72-.49,.8-.05,.01-.1,.02-.15,.02Z"/>
          <path d="M309.78,355.02c-.24,0-.48-.13-.6-.37-.67-1.35-8.67-10.93-11.72-11.95-.35-.12-.54-.49-.42-.84,.12-.35,.49-.54,.84-.42,3.5,1.17,11.76,11.16,12.49,12.62,.16,.33,.03,.73-.3,.89-.1,.05-.2,.07-.3,.07Z"/>
          <path d="M308.15,355.92c-.25,0-.49-.14-.61-.39-.15-.33,0-.73,.33-.88,2.09-.97,6.69-6.86,7.93-13.6,.64-3.46,1.7-5.6,3.25-6.56,1.43-.89,3.02-.58,4.09-.28,.35,.1,.56,.47,.46,.82-.1,.35-.47,.55-.82,.46-1.33-.38-2.26-.34-3.02,.13-1.2,.74-2.08,2.65-2.64,5.67-1.28,6.94-6.07,13.37-8.68,14.57-.09,.04-.19,.06-.28,.06Z"/>
          <path d="M305.81,349.96c-.19,0-.37-.08-.5-.23-.24-.28-.21-.7,.07-.94,3.94-3.42,5.55-8.41,7.01-15.88,1.34-6.87,3.95-10.69,7.76-11.37,.36-.07,.71,.18,.77,.54,.06,.36-.18,.71-.54,.77-3.21,.57-5.46,4.03-6.69,10.31-1.51,7.75-3.22,12.96-7.44,16.63-.13,.11-.28,.16-.44,.16Z"/>
          <path d="M301.65,345.26c-.13,0-.27-.04-.38-.12-.3-.21-.37-.63-.16-.93,1.96-2.79,4.42-10.75,6.4-17.14,1.48-4.78,2.76-8.92,3.68-10.61,.18-.32,.58-.44,.9-.27,.32,.18,.44,.58,.27,.9-.86,1.58-2.18,5.85-3.57,10.36-2.11,6.82-4.5,14.56-6.58,17.52-.13,.18-.34,.28-.54,.28Z"/>
          <path d="M124.52,459.12c-.15,0-.31-.05-.43-.16-.28-.24-.31-.66-.08-.94,4.06-4.77,12.22-13.42,12.31-13.51,.25-.27,.67-.28,.94-.03,.27,.25,.28,.67,.03,.94-.08,.09-8.22,8.71-12.26,13.46-.13,.15-.32,.23-.51,.23Z"/>
          <path d="M257.49,412.53c-2.66,4.99-4.2,13.09-3.66,13.81,.54,.72,20.3,2.33,33.78,11.98,3.07,1.44,4.05-12.78,3.57-14.43-1.26-4.34-32.06-13.17-33.69-11.36Z"/>
          <path class="cls-3" d="M182.32,437.92c-.16,0-.31-.05-.44-.16-.06-.05-6.13-5.32-8.95-7.2-.31-.2-.39-.62-.18-.92,.2-.31,.61-.39,.92-.18,2.89,1.93,8.84,7.09,9.09,7.31,.28,.24,.31,.66,.07,.94-.13,.15-.32,.23-.5,.23Z"/>
          <path class="cls-3" d="M204.26,435.21c-.17,0-.34-.06-.47-.2-.26-.26-.26-.68,0-.94,2.54-2.54,5.79-4.49,7.94-5.78,.53-.32,.99-.59,1.34-.82,.31-.2,.72-.11,.92,.19,.2,.31,.11,.72-.2,.92-.36,.23-.83,.52-1.38,.85-2.09,1.26-5.26,3.16-7.69,5.58-.13,.13-.3,.2-.47,.2Z"/>
          <path class="cls-6" d="M184.91,340.62c-.7-6.57-5.88-13.3-12.03-9.37-5.34,3.41-6.97,12.6-2.08,16.96,2.08,1.85,5.45,2.72,8.27,2.17,4.73-.93,6.31-5.3,5.84-9.76Z"/>
        </g>
      </g>
      <path d="M248.01,507.01h0c-12.99,0-25.71-.48-40.43-1.04-12.65-.48-26.99-1.02-44.05-1.34-49.87-.94-73.24-4.53-104.03-36.81-28.81-30.21-22.3-109.14-14.64-142.63,17.47-76.31,64.24-118.35,139.03-124.97,4.79-.42,9.7-.64,14.59-.64,49.46,0,99.14,21.69,132.88,58.02,25.92,27.91,55.57,78.18,49.59,159.24-6.14,83.19-62.71,86.71-100.14,89.05l-3.07,.19c-9.97,.64-19.42,.94-29.72,.94Zm-49.54-306.1c-4.85,0-9.72,.21-14.48,.63-74.14,6.56-120.52,48.27-137.85,123.94-7.61,33.26-14.14,111.59,14.3,141.41,30.44,31.92,53.62,35.47,103.09,36.4,17.08,.32,31.43,.86,44.08,1.34,14.71,.56,27.42,1.03,40.38,1.03h0c10.27,0,19.69-.3,29.64-.93l3.07-.19c36.97-2.3,92.85-5.78,98.9-87.82,4.7-63.78-12.32-118.49-49.24-158.23-33.5-36.06-82.81-57.59-131.91-57.59Z"/>
    </g>
    <g>
      <path class="cls-6" d="M266.51,232.91c9.02-2.35,37.85-7.85,52.95-10.98,15.1-3.14,31.58-5.3,33.73-4.31,2.16,.98-21.77,31.18-32.95,43.15-3.73,2.55-8.83-2.16-8.83-2.16-10.59,10.98-22.55,15.1-24.52,15.49-1.96,.39-2.94-11.77-3.14-19.03-.2-7.26,1.09-8.67-4.9-11.57-18.63-9.02-12.36-10.59-12.36-10.59Z"/>
      <path d="M286.91,274.76c-.29,0-.56-.19-.64-.49-.1-.35,.11-.72,.47-.82,.98-.36,4.56-6.16,7.18-10.39,2.81-4.55,5.46-8.85,7.04-10.43,2.98-2.98,30.41-21.7,42.06-29.59l-57.03,22.63c-.34,.13-.73-.03-.86-.37-.14-.34,.03-.73,.37-.86l62.76-24.91c.33-.13,.71,.02,.85,.35,.15,.33,0,.71-.31,.87-1.94,1.03-43.78,29.71-46.9,32.82-1.47,1.47-4.21,5.9-6.85,10.18-4.54,7.36-6.67,10.62-7.96,10.97-.06,.02-.12,.02-.18,.02Z"/>
      <path d="M312.6,260.05c-.14,0-.27-.04-.39-.13l-.29-.21c-4.02-2.94-9.03-6.61-10.2-6.01-.33,.16-.73,.03-.89-.3-.16-.33-.03-.73,.3-.89,1.81-.9,5.4,1.61,11.58,6.13l.29,.21c.3,.22,.36,.63,.14,.93-.13,.18-.33,.27-.54,.27Z"/>
    </g>
    <g>
      <path class="cls-6" d="M363.78,367.38c-7.54,.69-11.83,5.38-11.07,18.71,.75,13.34-2.27,27.1,3.02,32.26,5.28,5.16,18.62,5.17,30.95,5.38,12.33,.21,28.3-.15,33.02-.22,11.13-.16,15.09-2.1,16.61-10.81,.89-5.13-1.25-34.05-1.32-37.1-.19-7.58-5.1-8.55-15.85-9.03-10.31-.46-48.31,.16-55.35,.81Z"/>
      <path d="M394.07,402.68c-.05,0-.1,0-.15,0-5.31-.08-9.62-4.54-12.79-8.43-5.85-7.18-19.01-21.89-22.21-24.62-.28-.24-.31-.66-.07-.94,.24-.28,.66-.31,.94-.07,3.24,2.77,16.5,17.58,22.38,24.79,2.98,3.66,7.02,7.87,11.78,7.94,3.4,.02,6.96-2.04,10.58-6.22,9.97-11.5,24.76-25.98,24.9-26.13,.27-.26,.69-.25,.94,.01,.26,.26,.25,.68-.01,.94-.15,.14-14.9,14.59-24.83,26.05-3.89,4.49-7.64,6.68-11.46,6.68Z"/>
      <path d="M355.73,419.01c-.24,0-.48-.14-.6-.37-.16-.33-.03-.73,.3-.89,1.73-.86,10.56-9.19,17-15.27,5.34-5.04,8.39-7.91,9.12-8.35,.31-.19,.72-.09,.92,.22,.19,.31,.09,.72-.22,.92-.64,.39-4.65,4.18-8.9,8.19-8.73,8.24-15.55,14.62-17.32,15.5-.09,.05-.2,.07-.3,.07Z"/>
      <path d="M430.97,421.17c-.23,0-.45-.12-.57-.33-.42-.72-5.38-6.09-10.18-11.29-6.33-6.86-12.87-13.94-13.86-15.52-.2-.31-.1-.72,.21-.92,.31-.2,.72-.1,.92,.21,.93,1.47,7.72,8.83,13.72,15.32,6.11,6.62,9.87,10.71,10.35,11.52,.19,.32,.08,.72-.24,.91-.11,.06-.22,.09-.34,.09Z"/>
    </g>
    <g>
      <g class="cls-7">
        <g>
          <path d="M669.92,199.28c-3.66-15.53-37.38-35.5-51.8-29.95-14.42,5.55,3.99,11.98,3.99,11.98-22.18-3.99-32.83-1.33-35.05,4.21-2.22,5.55,7.1,7.77,7.1,7.77-15.09,.44-31.95,12.2-29.51,20.41,2.44,8.21,12.42,5.21,12.42,5.21-14.2,11.43-11.88,23.04,2.93,21.67-15.58,11.72-17.79,33.24-11.81,41,5.99,7.77,11.8-3.99,11.8-3.99-6.26,17.3,3.06,28.61,11.93,14.19-2,19.75,15.53,22.41,21.08,12.65,5.32,18.86,17.97,15.97,20.19,6.66,6.88,8.65,20.41,5.77,23.07-3.55,7.54,8.87,14.2,.78,13.53-6.1,7.76,9.1,19.97,10.2,22.41-6.32,11.09,8.21,16.64,7.99,13.64-11.65,18.53,6.77,28.29-13.87,6.99-31.61,14.2,3.77,12.65-10.87-7.65-19.63,14.31-.33,16.08-10.09,8.99-17.3s-19.08-21.19-44.26-15.64Z"/>
          <g>
            <path class="cls-3" d="M599.41,237.18c-2.17,13,1.69,16.86,5.54,26.01,3.85,9.15-1.53,18.8,8.73,30.22,9.57,10.66,24.02,10,24.02,10l4.09,16.62,35.4-9.15-7.71-33.35s7.22-3.97,5.06-18.18c-2.17-14.21-2.41-49.37-36.85-44.07-34.44,5.3-35.16,11.56-38.29,21.92Z"/>
            <path d="M641.8,320.69c-.12,0-.24-.03-.34-.09-.15-.09-.26-.24-.31-.41l-3.97-16.1c-2.52,0-15.28-.51-24-10.22-6.6-7.34-6.89-14.13-7.15-20.13-.16-3.59-.31-6.98-1.7-10.28-.75-1.77-1.48-3.33-2.2-4.83-2.88-6.07-5.16-10.87-3.38-21.54l.33-1.12c3.01-10.08,4.83-16.17,38.52-21.35,2.36-.36,4.63-.55,6.76-.55,25.36,0,28.39,25.19,30.2,40.25,.22,1.82,.42,3.48,.64,4.93,1.93,12.64-3.36,17.44-4.96,18.59l7.6,32.9c.08,.35-.13,.7-.48,.79l-35.4,9.15c-.05,.01-.11,.02-.17,.02Zm-4.09-17.95c.3,0,.57,.21,.65,.51l3.93,15.96,34.12-8.82-7.56-32.72c-.07-.29,.07-.59,.33-.73,.07-.04,6.78-3.98,4.72-17.5-.22-1.46-.43-3.14-.65-4.97-1.76-14.61-4.71-39.07-28.88-39.07-2.06,0-4.27,.18-6.56,.53-32.86,5.05-34.59,10.84-37.45,20.41l-.31,1.04c-1.69,10.18,.4,14.58,3.29,20.67,.72,1.52,1.47,3.09,2.22,4.89,1.48,3.52,1.64,7.03,1.8,10.74,.26,6.05,.54,12.31,6.81,19.3,8.36,9.31,20.65,9.78,23.02,9.78,.64,0,.48,0,.5,0Z"/>
          </g>
          <path d="M682.73,247.2c-1.2-7.26-2.68-14.12-6.43-20.59-2.31-3.99-4.4-8.09-8.31-10.75-10.99-7.47-25.78-7.02-38.28-4.42-9.93,2.06-20.98,5.58-28.67,12.42-2.56,2.27-12.91,12.6-6.21,15.58,3.93,1.75,8.25-1.96,11.22-4.46,.13,.38,.34,.78,.65,1.24,2,3,6.99,3.33,10.32,2.66,8.65-1.33,16.97-6.99,23.29-13.31-1.33,2-3,4.66-2.33,7.32,1.33,3,4.33,3.33,6.99,3.33,5.66-.33,10.98-4.99,14.98-8.65-3.33,6.32-6.99,12.65-7.32,19.97-.33,3.33,0,6.99,1.33,9.98,1.66,3.99,5.32,3.99,8.65,1.66-1.66,5.32-2.66,10.32-.33,15.64,1.39,3.17,5.77,8.54,11.87,7.43,4.87-.89,5.78-12.32,7.54-16.31,3.3-7.45,2.39-10.65,1.05-18.75Z"/>
          <path class="cls-3" d="M592.74,241.83c-2.98,0-5.86-1.06-6.66-4.08-.47-1.76-.19-3.88,.23-5.29,.81-2.74,3.3-6.62,5.55-8.64,.27-.25,.69-.22,.94,.05,.25,.27,.22,.69-.05,.94-2.06,1.85-4.42,5.53-5.16,8.03-.37,1.23-.61,3.08-.22,4.57,1,3.76,6.3,3.1,7.36,2.93,3.16-.51,5.5-1.23,7.36-2.28,.32-.18,.73-.06,.91,.26,.18,.32,.06,.73-.26,.91-2.01,1.12-4.49,1.89-7.8,2.43-.72,.12-1.46,.18-2.19,.18Z"/>
          <path d="M627.87,280.92s-.02,0-.04,0c-4.38-.24-7.12-1.25-8.37-3.1-1.55-2.29-.56-5.27,.4-8.16,.19-.56,.37-1.12,.54-1.67,1.48-4.92-1.9-10.86-5.67-14.29-2.97-2.71-6.76-3.22-9.19-2.53-1.38,.4-2.33,1.17-2.6,2.14-.1,.35-.46,.56-.82,.46-.35-.1-.56-.47-.46-.82,.4-1.42,1.68-2.53,3.52-3.06,2.79-.8,7.11-.23,10.45,2.82,4.2,3.83,7.69,10.16,6.04,15.66-.17,.56-.36,1.14-.55,1.71-.86,2.58-1.75,5.25-.56,6.99,.99,1.45,3.46,2.3,7.34,2.52,.37,.02,.65,.33,.63,.7-.02,.35-.31,.63-.66,.63Z"/>
          <path d="M625.83,251.5c-.15,0-.29-.05-.41-.14-.29-.23-.34-.65-.11-.94,2.32-2.93,9.06-9.01,21.32-2.03,.32,.18,.43,.59,.25,.91-.18,.32-.59,.43-.91,.25-10.96-6.24-16.99-1.61-19.62,1.7-.13,.17-.32,.25-.52,.25Z"/>
          <path d="M641.47,261.79c1.11,2.08,1.06,4.28-.12,4.92-1.18,.64-3.05-.53-4.17-2.62-1.12-2.08-1.06-4.28,.12-4.91,1.19-.64,3.05,.53,4.17,2.61Z"/>
          <path d="M638.11,260.17c-.11,0-.21-.03-.31-.08l-3.77-2.01c-.32-.17-.45-.58-.27-.9,.17-.32,.58-.44,.9-.27l3.77,2.01c.32,.17,.45,.58,.27,.9-.12,.22-.35,.35-.59,.35Z"/>
          <path d="M616.36,263.95c1.11,2.08,1.06,4.28-.13,4.92-1.18,.64-3.05-.54-4.17-2.62-1.12-2.08-1.06-4.28,.12-4.91,1.19-.64,3.05,.53,4.17,2.61Z"/>
          <path d="M613.01,262.33c-.11,0-.21-.03-.31-.08l-3.77-2.01c-.32-.17-.45-.58-.27-.9,.17-.33,.58-.45,.9-.28l3.77,2.01c.32,.17,.45,.58,.27,.9-.12,.22-.35,.35-.59,.35Z"/>
          <path d="M632.34,292.24c-3.18,0-6.3-2.95-8.78-8.3-.1-.22-.08-.47,.06-.67,.14-.19,.37-.3,.61-.28,.68,.07,1.39,.14,2.08,.14,2.57,0,5.61-1.01,13.57-6.18,.21-.14,.49-.14,.71-.01,.22,.13,.34,.38,.32,.63-.83,9.05-4.11,14.66-8.56,14.66Zm-7.06-7.82c2.13,4.14,4.67,6.49,7.06,6.49,3.43,0,6.15-4.69,7.08-12.08-8.34,5.31-11.14,5.81-14.15,5.6Z"/>
          <path d="M630.48,291.73c-.06,0-.12,0-.18-.02-.35-.1-.56-.46-.47-.82,1.17-4.3,5.95-7.51,9.09-7.33,.37,.02,.65,.34,.62,.71-.02,.37-.31,.65-.71,.62-2.68-.17-6.74,2.73-7.73,6.35-.08,.3-.35,.49-.64,.49Z"/>
          <path class="cls-4" d="M550.47,404.85c6.32-6.14,36.49-46.06,48.23-60.33,11.74-14.27,25.29-14.63,43.71-14.81-4.54-18.18-3.33-18.58-2.43-18.4,.9,.18,18.11,3.93,35.27-7.99,4.55-1.22,4.36,16.99,8.7,19.34,4.33,2.35,33.23-3.61,47.5,10.66,14.27,14.27,24.2,48.04,24.2,48.04-7.77,12.46-60.51,51.66-126.8,33.6-1.26-5.6-10.3-14.27-13.01-25.29-11.2,14.63-19.15,25.47-19.15,25.47,0,0-35.58-2.35-46.24-10.3Z"/>
          <path d="M656.22,335.19c-7.26,0-12.31-2.94-14.3-5.01-.25-.27-.24-.69,.02-.94,.27-.25,.69-.24,.94,.02,3.73,3.9,19.04,10.91,39.72-7.44,.28-.24,.7-.22,.94,.06,.24,.28,.22,.7-.06,.94-10.69,9.49-20.06,12.38-27.26,12.38Z"/>
          <path d="M652.4,335.02c-.29,0-.55-.18-.64-.47-.24-.79-5.92-19.44-6.51-22.08-.08-.36,.14-.71,.5-.8,.36-.08,.71,.14,.8,.5,.59,2.59,6.43,21.8,6.49,21.99,.11,.35-.09,.72-.44,.83-.06,.02-.13,.03-.19,.03Z"/>
          <path d="M660.22,334.9c-.28,0-.55-.18-.64-.47l-6.98-22.28c-.11-.35,.09-.72,.44-.83,.35-.11,.72,.09,.83,.44l6.98,22.28c.11,.35-.09,.72-.44,.83-.07,.02-.13,.03-.2,.03Z"/>
          <path d="M668.41,332.49c-.28,0-.54-.18-.63-.46l-6.98-21.31c-.11-.35,.08-.73,.43-.84,.34-.11,.72,.08,.84,.43l6.98,21.31c.11,.35-.08,.73-.43,.84-.07,.02-.14,.03-.21,.03Z"/>
          <path d="M675.88,328.64c-.29,0-.55-.19-.64-.48l-5.9-19.99c-.1-.35,.1-.72,.45-.83,.35-.11,.72,.1,.83,.45l5.9,19.99c.1,.35-.1,.72-.45,.83-.06,.02-.13,.03-.19,.03Z"/>
          <path d="M637.9,304.2c-.07,0-.14,0-.21,0-.37,0-.66-.31-.65-.68,0-.37,.28-.65,.68-.65,4.72,.17,17.39-3.98,25.48-13.96,.23-.29,.65-.33,.94-.1,.29,.23,.33,.65,.1,.94-8.26,10.2-21.26,14.46-26.34,14.46Z"/>
          <path d="M618.38,397.03c-.26,0-.5-.15-.61-.4-4.41-10.02-4.75-20.02-4.75-22.85,0-.37,.3-.67,.67-.67s.67,.3,.67,.67c0,1.96,.22,12.27,4.64,22.31,.15,.34,0,.73-.34,.88-.09,.04-.18,.06-.27,.06Z"/>
          <path d="M715.37,409.67c-.29,0-.55-.19-.64-.48-.06-.2-5.99-20.49-8.48-28.16-.11-.35,.08-.72,.43-.84,.36-.11,.73,.08,.84,.43,2.5,7.69,8.44,27.99,8.49,28.19,.1,.35-.1,.72-.45,.83-.06,.02-.13,.03-.19,.03Z"/>
          <path class="cls-3" d="M671.73,283.42c-2.06,0-4.45-.68-7-2.02-.33-.17-.45-.57-.28-.9,.17-.33,.58-.45,.9-.28,3.04,1.59,5.76,2.19,7.86,1.72,4.95-1.13,7.01-9.8,7.01-14.2,0-.28,.18-.54,.45-.63,.27-.09,.57,0,.74,.22,2.26,2.94,4.93,4.32,8.38,4.32,3.37-.23,6.63-3.96,7.05-6.89,.05-.36,.4-.62,.75-.56,.36,.05,.62,.39,.57,.75-.5,3.49-4.24,7.76-8.32,8.04h0c-3.33,0-6.07-1.16-8.36-3.53-.46,5.45-3.02,12.66-7.97,13.79-.56,.12-1.15,.19-1.78,.19Z"/>
        </g>
      </g>
      <path d="M641.65,415.81h-.01c-46.98,0-93.59-9.33-119.24-17.32-60.67-18.9-91.71-68.88-94.87-152.79-1.47-39,11.83-69.12,39.55-89.53,22.94-16.9,51.76-24.6,76.92-29.9,27.91-5.88,53.59-8.87,76.33-8.87,41,0,73.83,9.68,97.57,28.76,19.53,15.7,29.63,35.08,36.25,50.21,8.43,19.26,14.04,50.06,14.64,80.36,.52,26.41-2.39,64.92-19.23,98.4-16.91,33.61-68.01,40.67-107.9,40.67Zm-21.33-297.08c-22.65,0-48.23,2.97-76.05,8.84-58.81,12.4-118.51,36.12-115.41,118.08,3.14,83.28,33.87,132.85,93.94,151.57,27.57,8.59,75.01,17.26,118.84,17.26h.01c39.52,0,90.1-6.93,106.71-39.94,16.72-33.23,19.61-71.51,19.09-97.78-.6-30.14-6.16-60.74-14.53-79.85-9.35-21.38-34.2-78.17-132.6-78.17Z"/>
    </g>
    <g>
      <g>
        <path class="cls-3" d="M487.05,186.35h-52.18c-9.07,0-16,7.8-15.45,17.23l1.41,23.97c.51,8.74,7.83,15.59,16.32,15.46l37.75-.57c1.97,5.86,3.41,11.56,7.19,11.28,2.7-.27,3.86-5.98,4.63-11.5,7.92-.49,14.44-7.24,14.74-15.56l.85-23.47c.33-9.23-6.48-16.86-15.26-16.86Z"/>
        <path d="M481.83,254.4c-3.7,0-5.22-4.64-6.98-10.01-.14-.42-.28-.85-.42-1.28l-37.51,.56c-8.86,0-16.22-7.07-16.75-16.09l-1.41-23.97c-.28-4.85,1.38-9.57,4.58-12.96,3.03-3.21,7.12-4.98,11.53-4.98h52.18c4.22,0,8.19,1.7,11.16,4.78,3.2,3.31,4.93,7.97,4.76,12.76l-.85,23.47c-.3,8.38-6.76,15.37-14.82,16.16-.85,5.88-2.09,11.24-5.15,11.54-.12,0-.22,.01-.33,.01Zm-6.93-12.62c.29,0,.54,.18,.63,.45,.2,.58,.39,1.17,.58,1.75,1.64,5,3.09,9.3,5.93,9.08,2.53-.25,3.61-8,4.02-10.92,.04-.31,.3-.55,.62-.57,7.63-.47,13.83-7.03,14.11-14.92l.85-23.47c.16-4.44-1.44-8.73-4.39-11.79-2.72-2.82-6.35-4.38-10.21-4.38h-52.18c-4.04,0-7.79,1.62-10.57,4.56-2.94,3.12-4.48,7.48-4.22,11.97l1.41,23.97c.48,8.18,7.39,14.84,15.42,14.84h.23s37.75-.57,37.75-.57h.01Z"/>
      </g>
      <path class="cls-5" d="M444.92,215.41c0,2.89-2.29,5.24-5.12,5.24s-5.12-2.35-5.12-5.24,2.29-5.24,5.12-5.24,5.12,2.34,5.12,5.24Z"/>
      <path class="cls-5" d="M465.15,215.41c0,2.89-2.29,5.24-5.12,5.24s-5.12-2.35-5.12-5.24,2.29-5.24,5.12-5.24,5.12,2.34,5.12,5.24Z"/>
      <path class="cls-5" d="M485.37,215.41c0,2.89-2.29,5.24-5.12,5.24s-5.12-2.35-5.12-5.24,2.29-5.24,5.12-5.24,5.12,2.34,5.12,5.24Z"/>
    </g>
    <g>
      <path d="M654.88,637.15h-51.81c-.37,0-.67-.3-.67-.67s.3-.67,.67-.67h51.81c.37,0,.67,.3,.67,.67s-.3,.67-.67,.67Z"/>
      <path d="M501.76,448.57c-15.35-7.4-18.24-24.02,4.15-30.34-15.71-19.33,.18-30.53,10.84-32.69,10.66-2.17,31.79,3.25,52.2,20.77,20.41,17.52,29.26,18.42,35.4,32.15,6.14,13.73,3.25,24.39-2.89,38.29-6.14,13.91-6.86,18.24,5.06,29.44,11.92,11.2,21.67,22.4,13.37,43.53-8.31,21.13-107.65,13.37-112.35-1.08-4.7-14.45,6.5-67.37,6.5-67.37l-12.28-32.69Z"/>
      <path d="M490.38,535.09c-2.35-10.3,.38-33.93,20.95-45.7,15.01-8.58,22.94,3.43,22.94,3.43l2.35,39.56s-41.18,2.89-46.24,2.71Z"/>
      <g>
        <path class="cls-3" d="M374.78,475.66c-1.81-2.53-4.51-5.99-7.04-4.18-2.53,1.81,1.5,16.47,12.82,14.66-2.89-4.33-5.78-10.48-5.78-10.48Z"/>
        <path d="M378.66,486.96h0c-6.35,0-10.26-5.19-11.68-9.62-.74-2.3-1.08-5.36,.37-6.4,.58-.41,1.21-.63,1.87-.63,2.25,0,4.26,2.39,6.1,4.96,.09,.17,2.96,6.25,5.79,10.49,.13,.19,.15,.43,.06,.64-.09,.21-.28,.35-.5,.39-.68,.11-1.35,.16-2,.16Zm-9.44-15.31c-.38,0-.74,.12-1.09,.38-.49,.35-.73,2.25,.12,4.91,1.35,4.21,4.79,8.7,10.41,8.7h0c.25,0,.5,0,.75-.03-2.68-4.23-5.21-9.6-5.24-9.66-.88-1.22-3.09-4.3-4.96-4.3Z"/>
      </g>
      <g>
        <path class="cls-3" d="M406.75,477.29c-6.14-1.99-10.11-6.86-8.13-10.84,1.99-3.97,8.49,1.26,13,4.88,4.52,3.61,8.85,4.34,8.85,4.34,0,0-6.68,3.43-13.73,1.63Z"/>
        <path d="M411.05,478.48c-1.55,0-3.05-.18-4.46-.55-4.12-1.33-7.41-3.96-8.63-6.86-.71-1.7-.69-3.4,.07-4.92,.59-1.17,1.58-1.79,2.87-1.79,3.09,0,7.51,3.54,11.06,6.38,4.4,3.52,8.59,4.26,8.63,4.27,.28,.05,.5,.27,.55,.56,.04,.28-.1,.56-.35,.69-.18,.09-4.39,2.23-9.73,2.23Zm-10.15-12.79c-.79,0-1.32,.34-1.68,1.05-.59,1.18-.6,2.46-.03,3.81,1.07,2.56,4.05,4.9,7.77,6.1,1.27,.32,2.66,.49,4.09,.49,3.02,0,5.71-.75,7.37-1.35-1.74-.58-4.43-1.74-7.21-3.95-3.3-2.64-7.69-6.15-10.31-6.15Z"/>
      </g>
      <g>
        <path class="cls-3" d="M413.19,532.74c-.48-10.6-1.68-31.79-3.37-38.53-1.69-6.74-12.29-4.82-13.01-5.06-.72-.24-13.91,4.76-20.41-8.43-6.5-13.19-1.26-18.06,2.35-16.8,1.26-4.34,4.88-3.07,6.86-.9,1.81-3.79,7.04,.18,8.31,5.06,1.26,4.88,2.53,9.21,12.64,7.95,10.12-1.26,22.58-4.15,27.46,10.48s8.85,37.39,8.85,37.39c0,0-1.93,14.45-29.68,8.85Z"/>
        <path d="M424.77,534.7c-3.48,0-7.42-.44-11.71-1.3-.3-.06-.52-.32-.53-.62-.33-7.17-1.53-31.11-3.35-38.4-.77-3.08-3.81-4.64-9.05-4.64-.85,0-1.6,.04-2.17,.07-.66,.03-1.02,.05-1.25,0-.14,.01-.4,.07-.75,.14-1.13,.23-3.02,.6-5.3,.6-6.64,0-11.77-3.3-14.85-9.53-4.53-9.18-3.21-13.75-2.02-15.66,1.05-1.68,2.81-2.53,4.53-2.23,.92-2.38,2.55-2.76,3.49-2.76,1.2,0,2.54,.59,3.68,1.6,.58-.73,1.36-1.12,2.27-1.12,2.65,0,5.83,3.3,6.81,7.07,1.07,4.12,1.99,7.67,8.74,7.67,.96,0,2.02-.07,3.18-.22,.74-.09,1.5-.19,2.26-.3,2.97-.4,6.04-.81,9.06-.81,5.51,0,13.26,1.25,16.85,12.04,4.84,14.51,8.84,37.26,8.87,37.49,.01,.07,.01,.14,0,.2-.01,.11-1.63,10.72-18.77,10.72Zm-10.93-2.51c4,.78,7.68,1.18,10.93,1.18,15.15,0,17.24-8.5,17.43-9.48-.31-1.75-4.18-23.29-8.81-37.18-3.29-9.86-10.06-11.13-15.59-11.13-2.92,0-5.95,.41-8.88,.8-.77,.1-1.53,.21-2.27,.3-1.21,.15-2.33,.23-3.34,.23-7.78,0-8.97-4.61-10.03-8.67-.89-3.42-3.69-6.07-5.52-6.07-.68,0-1.18,.37-1.55,1.13-.09,.2-.28,.34-.5,.37-.22,.04-.44-.04-.59-.21-1-1.09-2.27-1.77-3.32-1.77-1.14,0-1.95,.81-2.41,2.41-.05,.18-.17,.32-.33,.41-.16,.08-.35,.09-.52,.04-1.31-.45-2.77,.14-3.62,1.51-.84,1.35-2.31,5.45,2.09,14.37,2.88,5.83,7.47,8.79,13.66,8.79,2.15,0,3.96-.36,5.04-.58,.51-.1,.82-.17,1.04-.17,.07,0,.22,.02,.28,.04,.25-.01,.52-.03,.86-.04,.59-.03,1.37-.07,2.24-.07,5.92,0,9.4,1.9,10.34,5.64,1.81,7.24,3.01,30.37,3.37,38.14Z"/>
      </g>
      <path d="M381.55,487.79c-.14,0-.29-.05-.41-.14-4.09-3.16-6.8-7.88-8.07-14.04-.07-.36,.16-.71,.52-.79,.37-.07,.71,.16,.79,.52,1.2,5.83,3.75,10.29,7.58,13.25,.29,.22,.34,.64,.12,.93-.13,.17-.33,.26-.53,.26Z"/>
      <path d="M398.62,485.36h-.03c-3.72-.16-6.8-1.75-9.16-4.73-4.51-5.7-5.02-14.87-4.47-17.74,.07-.36,.41-.6,.78-.53,.36,.07,.6,.42,.53,.78-.5,2.6,.03,11.38,4.21,16.66,2.11,2.66,4.85,4.08,8.17,4.23,.37,.02,.65,.33,.64,.69-.02,.36-.31,.64-.66,.64Z"/>
      <path d="M391.58,490.24s-.04,0-.06,0c-3.48-.29-6.38-1.91-8.62-4.82-5.31-6.88-5.28-18.84-4.8-21.61,.06-.36,.41-.61,.77-.54,.36,.06,.6,.41,.54,.77-.46,2.64-.5,14.04,4.54,20.57,2.01,2.6,4.59,4.05,7.68,4.31,.37,.03,.64,.35,.61,.72-.03,.35-.32,.61-.66,.61Z"/>
      <path d="M516.75,544.66c5.96,2.71,23.3,8.85,54.73,.9-1.08,21.67-3.25,67.37-3.25,67.37,0,0-26.19,14.81-43.71,8.67-4.88-8.31-7.77-76.95-7.77-76.95Z"/>
      <g>
        <path class="cls-3" d="M522.12,527.51c5.24-.72,10.89-2.72,10.35-11.39s-1.99-20.05-1.99-20.05c-13.55-.18-26.91-7.22-33.05-21.13-6.14-13.91,1.99-21.13,6.5-35.58,4.52-14.45,13.01-26.37,31.97-25.11,18.97,1.26,29.08,10.3,29.08,10.3-3.25,16.98-6.5,41,.54,42.45,7.04,1.44,8.85-11.02,8.85-11.02,10.66-5.24,21.82,1.14,17.52,10.47-5.24,11.38-17.7,5.6-17.7,5.6-2.53,6.5-13.19,13.73-13.19,13.73,1.62,13.37,3.24,35.48,13.36,36.74-4.15,21.13-6.31,28.83-6.31,28.83,0,0-36.31,8.85-49.49-4.15,.54-4.52,3.56-19.68,3.56-19.68Z"/>
        <path d="M543.24,554.95c-11.79,0-20.25-2.45-25.15-7.29-.15-.15-.22-.35-.19-.55,.54-4.49,3.44-19.11,3.57-19.73,.05-.28,.28-.49,.56-.53,5.12-.71,10.28-2.53,9.78-10.69-.47-7.45-1.61-17.03-1.91-19.44-14.74-.4-27.37-8.61-33.07-21.52-4.52-10.23-1.56-16.86,2.19-25.25,1.48-3.31,3.01-6.74,4.28-10.8,5.72-18.32,16.38-26.66,32.65-25.57,18.98,1.26,29.06,10.09,29.48,10.46,.17,.16,.25,.39,.21,.62-4.88,25.48-4.87,40.67,.02,41.67,.33,.07,.66,.1,.98,.1,5.49,0,7.07-10.46,7.08-10.56,.03-.22,.17-.41,.37-.5,2.6-1.28,5.4-1.96,8.09-1.96,4.42,0,8.19,1.77,10.08,4.73,1.57,2.46,1.66,5.5,.25,8.57-2.84,6.16-7.73,7.46-11.33,7.46-2.94,0-5.48-.83-6.62-1.27-2.69,5.85-11.02,11.91-12.83,13.18,.12,1.02,.25,2.09,.37,3.19,1.53,13.29,3.62,31.48,12.36,32.57,.18,.02,.35,.12,.46,.27,.11,.15,.15,.34,.11,.52-4.11,20.92-6.3,28.8-6.33,28.88-.06,.23-.25,.41-.48,.47-.12,.03-12.29,2.96-24.97,2.96Zm-23.98-8.01c4.68,4.43,12.75,6.68,23.98,6.68s22.13-2.34,24.27-2.83c.47-1.77,2.54-9.87,6.07-27.73-9.18-2.01-11.27-20.23-12.81-33.62-.14-1.24-.28-2.44-.42-3.58-.03-.25,.08-.49,.29-.63,.1-.07,10.51-7.18,12.94-13.42,.07-.17,.2-.31,.37-.38,.17-.07,.36-.06,.53,.01,.03,.01,3.09,1.41,6.7,1.41,4.68,0,8.08-2.25,10.12-6.68,1.24-2.68,1.18-5.21-.16-7.3-1.65-2.58-5-4.12-8.96-4.12-2.38,0-4.86,.58-7.19,1.67-.35,1.99-2.29,11.35-8.34,11.35-.41,0-.82-.04-1.25-.13-5.93-1.22-6.32-15.63-1.13-42.84-1.76-1.42-11.62-8.77-28.4-9.89-15.76-1.05-25.7,6.74-31.29,24.64-1.29,4.14-2.91,7.76-4.34,10.95-3.62,8.09-6.47,14.48-2.19,24.16,5.56,12.6,18,20.55,32.46,20.74,.33,0,.61,.25,.65,.58,.01,.11,1.45,11.5,1.99,20.09,.57,9.11-5.55,11.27-10.45,12.02-.5,2.51-2.85,14.53-3.42,18.84Z"/>
      </g>
      <path d="M517.83,466.94c-.11,0-.22-.03-.33-.09-3.81-2.17-5.81-4.3-6.11-6.5-.37-2.74,1.85-4.97,4-7.12,.42-.42,.84-.84,1.23-1.26,3.51-3.74,3.14-10.57,1.31-15.32-.79-2.04-2.11-3.25-3.94-3.59-2.42-.44-5.03,.75-6.26,2.11-.25,.27-.67,.29-.94,.05-.27-.25-.29-.67-.05-.94,1.51-1.67,4.57-3.06,7.49-2.53,1.59,.3,3.74,1.31,4.94,4.42,2.04,5.3,2.35,12.52-1.58,16.71-.4,.43-.83,.86-1.26,1.29-1.92,1.92-3.9,3.91-3.62,6,.24,1.74,2.07,3.6,5.45,5.53,.32,.18,.43,.59,.25,.91-.12,.22-.35,.34-.58,.34Z"/>
      <path d="M550.47,444.42c-.21,0-.42-.1-.55-.3-7.02-10.47-14.49-9.03-18.31-7.23-.33,.16-.73,.01-.89-.32-.16-.33-.01-.73,.32-.89,3.39-1.59,12.13-4.02,19.98,7.7,.21,.31,.12,.72-.18,.92-.11,.08-.24,.11-.37,.11Z"/>
      <path d="M539.74,453.89c-.7,2.25-2.32,3.76-3.6,3.36-1.28-.4-1.75-2.55-1.05-4.81,.7-2.25,2.32-3.76,3.6-3.35,1.28,.4,1.76,2.55,1.05,4.8Z"/>
      <path d="M539.03,450.56c-.29,0-.55-.19-.64-.48l-1.21-4.09c-.1-.35,.1-.72,.45-.83,.36-.1,.72,.1,.83,.45l1.21,4.09c.1,.35-.1,.72-.45,.83-.06,.02-.13,.03-.19,.03Z"/>
      <path d="M513.43,448.95c-.7,2.25-2.32,3.75-3.6,3.36-1.28-.4-1.75-2.55-1.05-4.81,.7-2.25,2.32-3.76,3.6-3.35,1.28,.4,1.76,2.55,1.05,4.8Z"/>
      <path d="M512.72,445.62c-.29,0-.55-.19-.64-.48l-1.21-4.1c-.1-.35,.1-.72,.45-.83,.35-.11,.72,.1,.83,.45l1.2,4.1c.1,.35-.1,.72-.45,.83-.06,.02-.13,.03-.19,.03Z"/>
      <path d="M517.57,480.3c-1.4,0-2.58-.48-3.49-1.44-1.62-1.69-2.34-4.82-2.14-9.3,.01-.26,.17-.49,.41-.59,.24-.1,.51-.05,.7,.12,.95,.87,3.75,1.89,8.5,1.89,2.96,0,6.23-.42,9.43-1.2,.29-.07,.58,.05,.73,.3,.15,.25,.12,.57-.07,.78-5.27,6-10.4,9.43-14.07,9.43Zm-4.34-9.49c-.01,3.42,.6,5.87,1.8,7.13,2.53,2.64,8.17-.06,14.2-6.41-6.45,1.26-12.93,.89-16-.71Z"/>
      <path d="M514.76,479.1c-.11,0-.23-.03-.33-.09-.32-.18-.43-.59-.25-.91,1.57-2.72,7.92-4.42,11.72-3.14,.35,.12,.54,.5,.42,.84-.12,.35-.5,.53-.84,.42-3.44-1.17-8.98,.52-10.14,2.54-.12,.21-.35,.33-.58,.33Z"/>
      <path d="M530.19,496.8c-.39,0-.74-.27-.74-.67,0-.37,.3-.66,.67-.66,.03,0,.05,0,.08,0,6.74,0,17.61-3.89,24.89-7.75,.33-.17,.73-.05,.9,.28,.17,.33,.05,.73-.28,.9-7.43,3.94-18.56,7.9-25.52,7.9Z"/>
      <path class="cls-6" d="M412.71,529.67c3.07,1.08,18.06,1.08,30.16-5.78,1.99,11.02,9.39,43.89,9.39,43.89,10.3-11.2,24.56-24.38,31.07-29.98,6.5-5.6,16.44-11.02,26.19-10.66,9.75,.36,14.81-.18,14.81-.18,0,0-7.77,13.73-3.79,51.84,3.97,38.11,5.24,43.17,5.24,43.17l-13.37-1.26s2.71-8.49-5.42-18.24c-8.13-9.75-10.48-15.9-11.56-23.12-8.67,8.85-31.79,33.42-51.12,33.6-19.33,.18-26.19-17.16-28.9-38.83-2.71-21.67-2.71-44.43-2.71-44.43Z"/>
      <g>
        <path class="cls-3" d="M561.55,612.7c-5.42,1.62-28.72,8.55-39.38,7.82-10.66-.72-21.67-5.96-30.35-3.79-8.67,2.17-23.54,13.1-22.49,17.43,.81,3.34,4.79,1.54,4.79,1.54,1.45,3.07,4.34,1.44,4.34,1.44,1.45,3.07,8.13,1.26,12.1-2.17,3.97-3.43,8.85-5.24,14.99-3.07,6.14,2.17,15.71,5.24,26.91,5.78,11.2,.54,37.57-.69,37.57-.69,0,0,3.98-15.62-8.49-24.29Z"/>
        <path d="M481.65,639.38c-1.89,0-2.91-.67-3.46-1.4-.37,.13-.87,.26-1.44,.26-.89,0-2.07-.31-2.94-1.71-.47,.15-1.17,.33-1.91,.33-1.68,0-2.82-.9-3.22-2.53-1.26-5.18,14.65-16.15,22.97-18.23,1.46-.36,3.01-.54,4.76-.54,4.19,0,8.64,1.03,13.35,2.12,4.09,.95,8.31,1.92,12.44,2.2,9.38,.65,28.81-4.7,39.14-7.8,.19-.06,.41-.02,.57,.09,12.69,8.83,8.79,24.84,8.75,25-.07,.28-.32,.49-.61,.5-.18,0-17.87,.83-30.3,.83h0c-2.97,0-5.43-.05-7.33-.14-10.91-.53-20.21-3.39-27.1-5.82-5.23-1.84-9.89-.89-14.34,2.95-2.66,2.3-6.5,3.9-9.34,3.9Zm-3.19-2.9c.07,0,.14,.01,.2,.03,.18,.06,.32,.18,.4,.35,.46,.98,1.67,1.19,2.59,1.19,2.55,0,6.03-1.47,8.47-3.58,4.81-4.15,9.97-5.2,15.65-3.19,6.8,2.4,15.99,5.22,26.72,5.74,1.88,.09,4.32,.14,7.27,.14,11.21,0,26.73-.67,29.73-.8,.51-2.63,2.38-15.43-8.06-22.92-10.51,3.14-29.81,8.4-39.31,7.76-4.23-.29-8.51-1.28-12.65-2.23-4.64-1.07-9.01-2.08-13.05-2.08-1.63,0-3.08,.17-4.44,.5-8.72,2.18-22.91,12.9-22,16.63,.25,1.03,.86,1.52,1.92,1.52,.98,0,1.93-.42,1.94-.43,.33-.15,.72,0,.88,.32,.47,1,1.14,1.49,2.03,1.49,.74,0,1.37-.34,1.38-.35,.1-.06,.21-.08,.32-.08Z"/>
      </g>
      <path class="cls-6" d="M643.37,599.93c-7.95-21.31-14.81-44.43-21.31-54.91-6.5-10.48-14.27-20.23-28.72-21.67-10.48-.72-19.87-1.08-19.87-1.08-3.43,9.03-14.45,52.74-8.67,89.41-2.53,0-4.34,1.45-4.34,1.45,5.78,4.7,9.03,13.19,7.59,24.56,25.11,1.99,51.66-1.99,60.33-4.15,8.67-2.17,22.94-12.28,14.99-33.6Zm-50.94,6.68l1.26-15.17,4.15,14.09-5.42,1.08Z"/>
      <path d="M403.01,476.81c-.35,0-.64-.27-.66-.62-.02-.37,.26-.68,.62-.71,1.24-.08,2.73-.22,4.36-.37,5.46-.52,12.25-1.15,16.31-.11,.36,.09,.57,.45,.48,.81-.09,.35-.45,.57-.81,.48-3.84-.99-10.5-.36-15.86,.14-1.64,.15-3.15,.3-4.4,.38-.01,0-.03,0-.04,0Z"/>
      <path d="M495.98,583.08c-.31,0-.59-.22-.65-.54-1.21-6.04,.14-13.79,2.02-18.79,.13-.34,.51-.52,.86-.39,.34,.13,.52,.51,.39,.86-1.35,3.6-3.28,11.45-1.96,18.06,.07,.36-.16,.71-.52,.78-.04,0-.09,.01-.13,.01Z"/>
      <path d="M560.86,613.3c-.3,0-.56-.2-.64-.5-.09-.35,.12-.72,.47-.81,5.84-1.55,42.44-8.73,55.34-9.83,.36-.03,.69,.24,.72,.61,.03,.37-.24,.69-.61,.72-12.85,1.1-49.3,8.25-55.12,9.79-.06,.02-.11,.02-.17,.02Z"/>
      <path d="M594.6,594.46c-.28,0-.54-.18-.63-.46-1.31-4.09-4.52-16.97-6.06-23.17l-.45-1.8c-.09-.36,.13-.72,.48-.81,.35-.09,.72,.13,.81,.48l.45,1.8c1.54,6.18,4.75,19.04,6.04,23.08,.11,.35-.08,.73-.43,.84-.07,.02-.14,.03-.2,.03Z"/>
      <path d="M478.46,637.81s-.04,0-.06,0c-.37-.03-.64-.36-.6-.72,.22-2.42,9.95-10.53,18.72-13.04,.36-.11,.72,.1,.82,.46,.1,.35-.1,.72-.46,.82-8.83,2.52-17.62,10.32-17.76,11.88-.03,.35-.32,.61-.66,.61Z"/>
      <path d="M474.12,636.36c-.37,0-.67-.3-.67-.67,0-3.47,7.29-10.79,18.71-14.36,.36-.11,.72,.09,.83,.44,.11,.35-.09,.72-.44,.83-11.73,3.66-17.78,10.84-17.78,13.09,0,.37-.3,.67-.67,.67Z"/>
      <g>
        <path class="cls-4" d="M521.26,635.18h-57.04l-22.95-67.04c-2-5.85-8.7-10.63-14.88-10.63h-97.41c-6.18,0-9.59,4.78-7.59,10.63l23.65,69.06c2.59,6.71,2.89,12.22,9.61,12.22h166.62c3.93,0,7.12-3.19,7.12-7.12s-3.19-7.12-7.12-7.12Z"/>
        <path d="M459.19,637.08h-113.29c-.37,0-.67-.3-.67-.67s.3-.67,.67-.67h113.29c.37,0,.67,.3,.67,.67s-.3,.67-.67,.67Z"/>
        <path d="M391.2,613.16c-4.92,0-10.34-4.88-12.07-10.89-.99-3.44-.63-6.64,.99-8.8,1.19-1.58,2.99-2.45,5.07-2.45,4.92,0,10.34,4.89,12.07,10.89,.99,3.43,.63,6.64-.99,8.8-1.19,1.58-2.99,2.45-5.07,2.45Zm-6.01-20.81c-1.68,0-3.06,.66-4.01,1.92-1.37,1.82-1.65,4.6-.77,7.63,1.58,5.47,6.42,9.93,10.79,9.93,1.67,0,3.06-.66,4-1.92,1.37-1.82,1.65-4.6,.77-7.63-1.58-5.47-6.42-9.93-10.79-9.93Z"/>
      </g>
    </g>
  </g>
</svg>