<?xml version="1.0" encoding="UTF-8"?>
<svg id="Layer_1" data-name="Layer 1" xmlns="http://www.w3.org/2000/svg" viewBox="0 0 819.11 764.33">
  <defs>
    <style>
      .cls-1 {
        stroke: #007cff;
      }

      .cls-1, .cls-2 {
        stroke-width: 1.39px;
      }

      .cls-1, .cls-2, .cls-3 {
        fill: none;
      }

      .cls-1, .cls-3 {
        stroke-linecap: round;
        stroke-linejoin: round;
      }

      .cls-4, .cls-5, .cls-6, .cls-7 {
        opacity: .1;
      }

      .cls-4, .cls-8, .cls-9, .cls-10, .cls-11, .cls-12, .cls-13, .cls-7, .cls-14, .cls-15 {
        fill: #fff;
      }

      .cls-16 {
        fill: #007cff;
      }

      .cls-17 {
        fill: #f0f0f0;
      }

      .cls-18 {
        fill: #f5f5f5;
      }

      .cls-19 {
        fill: #e7e7e7;
      }

      .cls-20 {
        fill: #ececec;
      }

      .cls-21 {
        fill: #ffac6a;
      }

      .cls-22 {
        fill: #ff4746;
      }

      .cls-23 {
        fill: #b94d3c;
      }

      .cls-24 {
        fill: #c3705a;
      }

      .cls-25 {
        fill: #dceee0;
      }

      .cls-26 {
        fill: #d3f4d9;
      }

      .cls-27 {
        fill: #e1e1e1;
      }

      .cls-28 {
        fill: #1b2f35;
      }

      .cls-29 {
        fill: #1a2e35;
      }

      .cls-30 {
        fill: #5cbb61;
      }

      .cls-9, .cls-10, .cls-6, .cls-11, .cls-12, .cls-7, .cls-31, .cls-32 {
        isolation: isolate;
      }

      .cls-9, .cls-13, .cls-33, .cls-32, .cls-3 {
        opacity: .2;
      }

      .cls-10 {
        opacity: .15;
      }

      .cls-2 {
        stroke: #1a2e35;
        stroke-miterlimit: 10;
      }

      .cls-11 {
        opacity: .7;
      }

      .cls-12 {
        opacity: .4;
      }

      .cls-34, .cls-31, .cls-15 {
        opacity: .3;
      }

      .cls-14 {
        opacity: .5;
      }

      .cls-3 {
        stroke: #000;
        stroke-width: .69px;
      }
    </style>
  </defs>
  <g>
    <g>
      <rect class="cls-16" x="653.57" y="96.69" width="68.14" height="196.98" transform="translate(332.4 -425.1) rotate(44.35)"/>
      <rect class="cls-4" x="653.57" y="96.69" width="68.14" height="196.98" transform="translate(332.4 -425.1) rotate(44.35)"/>
      <rect class="cls-28" x="653.57" y="96.69" width="68.14" height="196.98" transform="translate(332.4 -425.1) rotate(44.35)"/>
      <g>
        <g>
          <rect class="cls-29" x="705.4" y="121.5" width="54.88" height="54.88" transform="translate(312.96 -469.88) rotate(44.35)"/>
          <rect class="cls-30" x="705.4" y="121.5" width="54.88" height="54.88" transform="translate(312.96 -469.88) rotate(44.35)"/>
        </g>
        <g>
          <rect class="cls-29" x="663.28" y="164.58" width="54.89" height="54.88" transform="translate(331.07 -428.16) rotate(44.35)"/>
          <rect class="cls-25" x="663.28" y="164.58" width="54.89" height="54.88" transform="translate(331.07 -428.16) rotate(44.35)"/>
        </g>
        <g>
          <rect class="cls-29" x="621.17" y="207.65" width="54.88" height="54.89" transform="translate(349.19 -386.44) rotate(44.35)"/>
          <rect class="cls-13" x="621.17" y="207.65" width="54.88" height="54.89" transform="translate(349.19 -386.44) rotate(44.35)"/>
        </g>
      </g>
    </g>
    <g>
      <rect class="cls-16" x="618.36" y="63.68" width="68.14" height="219.55" transform="translate(114.03 -233.83) rotate(22.22)"/>
      <rect class="cls-25" x="618.36" y="63.68" width="68.14" height="219.55" transform="translate(114.03 -233.83) rotate(22.22)"/>
      <g>
        <rect class="cls-16" x="653.72" y="75.68" width="54.88" height="54.88" transform="translate(89.57 -249.92) rotate(22.22)"/>
        <rect class="cls-30" x="653.72" y="75.68" width="54.88" height="54.88" transform="translate(89.57 -249.92) rotate(22.22)"/>
      </g>
      <g>
        <rect class="cls-16" x="630.94" y="131.45" width="54.88" height="54.88" transform="translate(108.97 -237.16) rotate(22.22)"/>
        <rect class="cls-28" x="630.94" y="131.45" width="54.88" height="54.88" transform="translate(108.97 -237.16) rotate(22.22)"/>
      </g>
      <g>
        <rect class="cls-16" x="608.16" y="187.22" width="54.88" height="54.88" transform="translate(128.37 -224.41) rotate(22.22)"/>
        <rect class="cls-8" x="608.16" y="187.22" width="54.88" height="54.88" transform="translate(128.37 -224.41) rotate(22.22)"/>
      </g>
    </g>
    <g>
      <rect class="cls-16" x="577.9" y="54.4" width="68.14" height="235"/>
      <rect class="cls-30" x="577.9" y="54.4" width="68.14" height="235"/>
    </g>
    <g>
      <rect class="cls-16" x="584.53" y="62.56" width="54.88" height="54.88"/>
      <rect class="cls-28" x="584.53" y="62.56" width="54.88" height="54.88"/>
    </g>
    <g>
      <rect class="cls-16" x="584.53" y="122.8" width="54.88" height="54.88"/>
      <rect class="cls-25" x="584.53" y="122.8" width="54.88" height="54.88"/>
    </g>
    <g>
      <rect class="cls-16" x="584.53" y="183.05" width="54.88" height="54.88"/>
      <rect class="cls-26" x="584.53" y="183.05" width="54.88" height="54.88"/>
    </g>
    <circle class="cls-29" cx="611.97" cy="264.08" r="9.17" transform="translate(219.67 802.93) rotate(-77.29)"/>
  </g>
  <g>
    <g>
      <path class="cls-27" d="M106.82,628.8c-.02-.67-2.27-66.9-13.04-77.38-10.48-10.19-22.5-.38-23.01,.04l-1.08-1.29c.14-.12,13.71-11.19,25.27,.04,11.26,10.95,13.46,75.78,13.55,78.53l-1.68,.05Z"/>
      <path class="cls-27" d="M107.74,641.82c-.08-.79-7.36-79.51,21.39-112.51l1.27,1.11c-28.27,32.45-21.05,110.45-20.98,111.24l-1.68,.16Z"/>
      <path class="cls-27" d="M106.68,633.49l-1.68-.11c.06-.89,5.63-89.5-15.46-108.89l1.14-1.24c21.68,19.94,16.25,106.57,16,110.24Z"/>
      <path class="cls-27" d="M109.43,633.44h-1.69c.02-2.45,.7-59.86,17-69.21,3.62-2.08,7.17-2.43,10.55-1.03,9.86,4.08,14.75,21.63,14.95,22.37l-1.63,.44c-.05-.18-4.87-17.5-13.97-21.26-2.87-1.18-5.92-.87-9.07,.93-15.47,8.87-16.15,67.16-16.15,67.74Z"/>
      <path class="cls-27" d="M103.08,633.49l-1.68-.1c.03-.45,2.46-45.37-9.66-61.19-2.94-3.83-6.12-5.66-9.49-5.43-7.94,.55-14.6,12.18-14.67,12.29l-1.47-.83c.29-.51,7.17-12.53,16.02-13.15,3.96-.28,7.65,1.77,10.95,6.08,12.5,16.32,10.11,60.44,10.01,62.31Z"/>
      <path class="cls-27" d="M105.73,639.59c-.33-4.36-7.92-106.91,5.44-124.98l1.36,1c-12.99,17.57-5.19,122.79-5.11,123.85l-1.68,.13Z"/>
    </g>
    <path class="cls-20" d="M138.93,573.6s-8.02,2.95-5.63,9.93c2.38,6.98,27.73,18.46,27.73,18.46,0,0,10.61-9.73,.87-25.55-9.75-15.82-22.75-7.83-22.96-2.84Z"/>
    <path class="cls-20" d="M104.08,560.32s8.54-.36,9.02,7c.48,7.36-18.49,27.71-18.49,27.71,0,0-13.54-4.9-10.63-23.25,2.91-18.36,17.98-15.98,20.1-11.45Z"/>
    <path class="cls-20" d="M96.86,525.11s5.69-.61,5.23-4.08c-.46-3.47-22.12-12.39-34.9,2.04,0,0,8.18,14.06,20.01,14.24,11.83,.18,9.66-12.2,9.66-12.2Z"/>
    <path class="cls-20" d="M107.46,516.69s-5.15,2.49-6.6-.69c-1.44-3.18,12.22-22.21,30.7-16.73,0,0,.49,16.26-9.45,22.67-9.94,6.41-14.65-5.25-14.65-5.25Z"/>
    <path class="cls-20" d="M80.52,570.8s3.93-3.17-.31-4.72c-4.24-1.55-25.03-1.11-25.25,19.49,0,0,24.22,4.03,27.22-3.82,3-7.85-1.66-10.95-1.66-10.95Z"/>
    <path class="cls-20" d="M129.91,524.6s-3.93-3.17,.31-4.72c4.24-1.55,25.03-1.11,25.25,19.49,0,0-24.22,4.03-27.22-3.82-3-7.85,1.66-10.95,1.66-10.95Z"/>
    <path class="cls-20" d="M117.1,541.19s-.35-3.85,2.77-2.34c3.11,1.51,13.95,13.21,2.72,24.31,0,0-15.13-11.2-12.4-17.04,2.73-5.83,6.92-4.92,6.92-4.92Z"/>
    <path class="cls-20" d="M77.01,546.68s2.35-3.08-1.09-3.46c-3.44-.38-18.85,3.73-15.26,19.11,0,0,18.77-1.41,19.58-7.8,.8-6.39-3.23-7.85-3.23-7.85Z"/>
    <polygon class="cls-17" points="125.21 663.16 87.34 663.16 77.27 616.7 134.32 616.7 125.21 663.16"/>
    <rect class="cls-19" x="73.84" y="616.03" width="63.77" height="13.36"/>
  </g>
  <path class="cls-18" d="M782.55,674.54c0,9.31-129.8,16.86-289.91,16.86s-289.91-7.55-289.91-16.86,129.8-16.86,289.91-16.86,289.91,7.55,289.91,16.86Z"/>
  <g>
    <polygon class="cls-19" points="111.85 216.98 92.63 185.23 116.01 149.52 153.84 155.12 190.75 216.55 182.57 228.61 111.85 216.98"/>
    <polygon class="cls-30" points="79.66 176.5 103.04 140.77 116.1 149.64 92.72 185.35 79.66 176.5"/>
    <rect class="cls-29" x="154.54" y="164.34" width="3.08" height="74.39" transform="translate(-98.32 217.47) rotate(-55.83)"/>
    <path class="cls-29" d="M125.76,189.3c-3.22-2.19-4.05-6.57-1.86-9.79,2.19-3.22,6.57-4.05,9.79-1.86,3.22,2.19,4.05,6.57,1.86,9.79,0,0,0,0,0,.01-2.19,3.21-6.57,4.04-9.78,1.85Z"/>
  </g>
  <g>
    <path class="cls-21" d="M246.23,241.88l4.62,7.7c.57,.98,1.62,1.57,2.76,1.54,2.38-.18,4.76-.14,7.13,.11,2.34,.49,2.62-9.24,2.62-9.24l-17.13-.11Z"/>
    <path class="cls-21" d="M242.75,241.99c1.86-2.68,4.92-4.28,8.18-4.28h5.55l6.89,4.28h-20.61Z"/>
    <g>
      <rect class="cls-29" x="225.77" y="175.2" width="514.45" height="371.78" rx="27.38" ry="27.38"/>
      <rect class="cls-28" x="225.77" y="175.2" width="514.45" height="371.78" rx="27.38" ry="27.38"/>
    </g>
    <g>
      <rect class="cls-16" x="246.37" y="195.59" width="473.05" height="325.76" rx="16.2" ry="16.2"/>
      <rect class="cls-25" x="246.58" y="195.59" width="473.05" height="325.76" rx="16.2" ry="16.2"/>
      <g>
        <path class="cls-30" d="M256.48,195.59h448.66c7.88,0,14.28,6.4,14.28,14.28v10.19H246.37v-14.36c0-5.58,4.53-10.12,10.12-10.12Z"/>
        <path class="cls-8" d="M701.2,207.83c0,2.87-2.33,5.2-5.2,5.2s-5.2-2.33-5.2-5.2,2.33-5.2,5.2-5.2,5.2,2.33,5.2,5.2Z"/>
        <path class="cls-8" d="M686.42,207.83c0,2.87-2.33,5.2-5.2,5.2s-5.2-2.33-5.2-5.2,2.33-5.2,5.2-5.2,5.2,2.33,5.2,5.2Z"/>
        <circle class="cls-8" cx="666.44" cy="207.83" r="5.2"/>
        <g>
          <path class="cls-1" d="M329.05,184.69h40.81"/>
          <path class="cls-1" d="M381.1,184.69h8.5"/>
        </g>
      </g>
    </g>
    <g>
      <g>
        <path class="cls-29" d="M433.02,545.67l-11.64,100.73h-28.75c-6.24,0-11.29,6.88-11.29,15.37v1.1h230.48c0-10.08-6.05-18.22-13.46-18.1-11.16,.18-25.14,.3-24.72-.27,.7-.95-15.37-100.1-14.44-98.83,.93,1.27-126.18,0-126.18,0Z"/>
        <path class="cls-28" d="M433.02,545.67l-11.64,100.73h-28.75c-6.24,0-11.29,6.88-11.29,15.37v1.1h230.48c0-10.08-6.05-18.22-13.46-18.1-11.16,.18-25.14,.3-24.72-.27,.7-.95-15.37-100.1-14.44-98.83,.93,1.27-126.18,0-126.18,0Z"/>
      </g>
      <polygon class="cls-34" points="432.78 547.75 559.35 547.75 561.49 562.63 431.06 562.63 432.78 547.75"/>
    </g>
    <g>
      <g>
        <path class="cls-30" d="M376.15,385.71c0,11.22-9.47,17.74-27.21,17.74h-36.22v-64.36h34.38c17.74,0,26.02,7.08,26.02,16.82,0,5.98-3.03,10.94-8.92,13.88,7.54,2.76,11.95,8.27,11.95,15.9Zm-42.11-31.44v9.56h10.11c4.87,0,7.08-1.66,7.08-4.78s-2.21-4.78-7.08-4.78h-10.11Zm20.23,28.96c0-3.31-2.39-5.06-7.17-5.06h-13.05v10.11h13.05c4.78,0,7.17-1.75,7.17-5.06Z"/>
        <path class="cls-30" d="M411.37,387.27h-5.88v16.18h-21.7v-64.36h30.98c17.93,0,29.33,9.38,29.33,24.27,0,9.29-4.41,16.27-12.14,20.23l13.52,19.86h-23.17l-10.94-16.18Zm2.02-31.44h-7.91v15.08h7.91c5.98,0,8.83-2.85,8.83-7.54s-2.85-7.54-8.83-7.54Z"/>
        <path class="cls-30" d="M496.14,392.24h-24.45l-4.32,11.22h-22.06l28.13-64.36h21.33l28.13,64.36h-22.43l-4.32-11.22Zm-5.98-15.63l-6.25-16.18-6.25,16.18h12.5Z"/>
        <path class="cls-30" d="M589.83,339.1v64.36h-17.84l-24.45-29.24v29.24h-21.15v-64.36h17.84l24.45,29.24v-29.24h21.15Z"/>
        <path class="cls-30" d="M600.32,339.1h31.72c21.51,0,36.31,12.23,36.31,32.18s-14.8,32.18-36.31,32.18h-31.72v-64.36Zm30.8,47.44c9.1,0,15.35-5.42,15.35-15.26s-6.25-15.26-15.35-15.26h-9.1v30.52h9.1Z"/>
      </g>
      <g>
        <rect class="cls-2" x="307.86" y="322.34" width="367.43" height="97.92"/>
        <rect class="cls-29" x="303.47" y="316.54" width="8.77" height="8.77"/>
        <rect class="cls-29" x="302.84" y="417.16" width="8.77" height="8.77"/>
        <rect class="cls-29" x="489.49" y="317.96" width="8.77" height="8.77"/>
        <rect class="cls-29" x="488.26" y="415.88" width="8.77" height="8.77"/>
        <rect class="cls-29" x="670.91" y="317.96" width="8.77" height="8.77"/>
        <rect class="cls-29" x="670.91" y="415.88" width="8.77" height="8.77"/>
      </g>
    </g>
  </g>
  <rect class="cls-5" x="456.96" y="174.7" width="131.5" height="123.09" rx="6.85" ry="6.85"/>
  <path class="cls-33" d="M241.83,266.07h53.26v231.35c0,4.58-3.72,8.3-8.3,8.3h-44.97v-239.65h0Z"/>
  <g>
    <path class="cls-16" d="M178.16,45.8h88.51c3.16,0,5.73,2.57,5.73,5.73v88.51c0,3.16-2.57,5.73-5.73,5.73h-88.5c-3.16,0-5.73-2.57-5.73-5.73V51.53c0-3.16,2.57-5.73,5.73-5.73Z"/>
    <path class="cls-25" d="M178.16,45.8h88.51c3.16,0,5.73,2.57,5.73,5.73v88.51c0,3.16-2.57,5.73-5.73,5.73h-88.5c-3.16,0-5.73-2.57-5.73-5.73V51.53c0-3.16,2.57-5.73,5.73-5.73Z"/>
    <path class="cls-29" d="M257.83,78.04h-71.75c-2.96,0-5.35-2.4-5.35-5.35h0c0-2.96,2.4-5.35,5.35-5.35h71.75c2.96,0,5.35,2.4,5.35,5.35h0c0,2.96-2.4,5.35-5.35,5.35Z"/>
    <path class="cls-30" d="M195.13,72.05c0,4.2-3.4,7.6-7.6,7.6s-7.6-3.4-7.6-7.6,3.4-7.6,7.6-7.6,7.6,3.4,7.6,7.6Z"/>
    <path class="cls-29" d="M257.83,101.14h-71.75c-2.96,0-5.35-2.4-5.35-5.35h0c0-2.96,2.4-5.35,5.35-5.35h71.75c2.96,0,5.35,2.4,5.35,5.35h0c0,2.96-2.4,5.35-5.35,5.35Z"/>
    <path class="cls-30" d="M251.37,95.15c0,4.2-3.4,7.6-7.6,7.6s-7.6-3.4-7.6-7.6,3.4-7.6,7.6-7.6,7.6,3.4,7.6,7.6Z"/>
    <path class="cls-29" d="M257.83,125.44h-71.75c-2.96,0-5.35-2.4-5.35-5.35h0c0-2.96,2.4-5.35,5.35-5.35h71.75c2.96,0,5.35,2.4,5.35,5.35h0c0,2.96-2.4,5.35-5.35,5.35Z"/>
    <path class="cls-30" d="M220.61,119.45c0,4.2-3.4,7.6-7.6,7.6s-7.6-3.4-7.6-7.6,3.4-7.6,7.6-7.6,7.6,3.4,7.6,7.6Z"/>
  </g>
  <g>
    <g>
      <g>
        <rect class="cls-16" x="447.37" y="157.21" width="131.5" height="131.28" rx="6.85" ry="6.85"/>
        <rect class="cls-30" x="447.37" y="157.21" width="131.5" height="131.28" rx="6.85" ry="6.85"/>
        <path class="cls-28" d="M453.79,157.21h118.77c3.48,0,6.31,2.83,6.31,6.31v10h-131.5v-9.88c0-3.54,2.88-6.42,6.42-6.42Z"/>
      </g>
      <g>
        <path class="cls-8" d="M565.28,165.59c0,1.91-1.55,3.45-3.45,3.45s-3.45-1.55-3.45-3.45,1.55-3.45,3.45-3.45,3.45,1.55,3.45,3.45Z"/>
        <path class="cls-8" d="M555.46,165.46c0,1.91-1.55,3.45-3.45,3.45s-3.45-1.55-3.45-3.45,1.55-3.45,3.45-3.45,3.45,1.55,3.45,3.45Z"/>
        <path class="cls-8" d="M545.65,165.46c0,1.91-1.55,3.45-3.45,3.45s-3.45-1.55-3.45-3.45,1.55-3.45,3.45-3.45,3.45,1.55,3.45,3.45Z"/>
      </g>
    </g>
    <path class="cls-29" d="M546.95,193.63v19.21h-1.88c-1.12-4.43-2.35-7.61-3.72-9.55-1.36-1.94-3.23-3.48-5.6-4.63-1.33-.63-3.65-.94-6.96-.94h-5.29v54.74c0,3.63,.2,5.9,.6,6.8,.4,.91,1.19,1.7,2.36,2.38,1.17,.68,2.76,1.02,4.79,1.02h2.35v1.94h-37.16v-1.94h2.36c2.06,0,3.72-.37,4.97-1.1,.91-.49,1.62-1.32,2.15-2.51,.38-.84,.57-3.04,.57-6.59v-54.74h-5.13c-4.78,0-8.25,1.01-10.42,3.04-3.03,2.83-4.95,6.86-5.76,12.09h-1.99v-19.21h63.74Z"/>
  </g>
  <g>
    <g>
      <g>
        <rect class="cls-16" x="323.58" y="137.1" width="97.54" height="97.38" rx="6.85" ry="6.85"/>
        <rect class="cls-30" x="323.58" y="137.1" width="97.54" height="97.38" rx="6.85" ry="6.85"/>
        <path class="cls-28" d="M330,137.1h84.81c3.48,0,6.31,2.83,6.31,6.31v5.79h-97.54v-5.67c0-3.54,2.88-6.42,6.42-6.42Z"/>
      </g>
      <g>
        <path class="cls-8" d="M411.04,143.31c0,1.41-1.15,2.56-2.56,2.56s-2.56-1.15-2.56-2.56,1.15-2.56,2.56-2.56,2.56,1.15,2.56,2.56Z"/>
        <path class="cls-8" d="M403.76,143.21c0,1.41-1.15,2.56-2.56,2.56s-2.56-1.15-2.56-2.56,1.15-2.56,2.56-2.56,2.56,1.15,2.56,2.56Z"/>
        <path class="cls-8" d="M396.48,143.21c0,1.41-1.15,2.56-2.56,2.56s-2.56-1.15-2.56-2.56,1.15-2.56,2.56-2.56,2.56,1.15,2.56,2.56Z"/>
      </g>
    </g>
    <g>
      <rect class="cls-8" x="346.26" y="164.06" width="52.18" height="52.18"/>
      <rect class="cls-28" x="347.59" y="165.46" width="48.9" height="48.9"/>
      <path class="cls-8" d="M372.35,215.06s24.99-20.95,24.99-20.58v20.58h-24.99Z"/>
    </g>
  </g>
  <g>
    <g>
      <path class="cls-29" d="M559.11,489.68s-2.58,3.76-2.78,9.76c-.09,2.78-2,37.2-2,37.2l-27-28.4-11.89,5.68s25.23,36.11,35.96,40.31c10.73,4.2,18.46,2.26,20.89-.97,2.44-3.23,5.11-47.02,5.11-47.02l-18.29-16.56Z"/>
      <path class="cls-7" d="M559.11,489.68s-2.58,3.76-2.78,9.76c-.09,2.78-2,37.2-2,37.2l-27-28.4-11.89,5.68s25.23,36.11,35.96,40.31c10.73,4.2,18.46,2.26,20.89-.97,2.44-3.23,5.11-47.02,5.11-47.02l-18.29-16.56Z"/>
    </g>
    <path class="cls-29" d="M506.82,511.8l-5.37-22.87-10.64,3.21c-2.35,.71-4.65-1.23-4.35-3.66l6.94-57.79c.34-2.87,3.88-4.02,5.86-1.91l40.61,43.44c1.72,1.84,.91,4.85-1.5,5.57l-12.23,3.69,8.66,23.16c.85,2.28-.49,4.79-2.85,5.35l-20.24,4.81c-2.18,.52-4.36-.83-4.88-3.01Z"/>
    <g>
      <polygon class="cls-24" points="583.25 681.26 570.28 684 556.43 661.23 569.39 658.49 583.25 681.26"/>
      <path class="cls-29" d="M567.67,678.51h14.51c.49,0,.91,.34,1.02,.82l2.38,10.64c.19,.95-.41,1.88-1.36,2.08h-.39c-4.69-.07-8.12-.36-14.01-.36-3.63,0-14.58,.37-19.59,.37s-5.74-4.95-3.61-5.41c9.19-2.01,16.13-4.79,19.07-7.43,.54-.48,1.25-.74,1.98-.72Z"/>
      <path class="cls-30" d="M563.72,680.6c-.81,.07-1.61-.14-2.28-.6-.45-.37-.68-.94-.6-1.52,0-.34,.19-.64,.49-.79,1.31-.69,5.18,1.68,5.61,1.95,.1,.06,.16,.17,.14,.29-.02,.11-.1,.21-.22,.24-1.03,.26-2.08,.4-3.14,.43Zm-1.82-2.39c-.12-.04-.25-.04-.37,0-.07,0-.19,.1-.19,.33-.04,.38,.1,.76,.39,1.02,1.35,.63,2.89,.7,4.3,.22-1.26-.79-2.66-1.32-4.13-1.56Z"/>
      <path class="cls-30" d="M566.78,680.18h-.13c-1.23-.67-3.61-3.3-3.37-4.56,.08-.44,.46-.75,.9-.75,.43-.06,.87,.07,1.2,.36,1.38,1.13,1.69,4.56,1.69,4.73,0,.1-.06,.2-.14,.26-.06,0-.11-.02-.16-.04Zm-1.76-4.6c-.17-.15-.38-.23-.6-.24h-.14c-.4,0-.4,.2-.4,.29-.16,.82,1.36,2.77,2.6,3.69-.09-1.36-.59-2.66-1.43-3.73h-.01Z"/>
      <polygon class="cls-32" points="569.39 658.49 556.43 661.23 563.59 672.97 576.55 670.23 569.39 658.49"/>
      <path class="cls-30" d="M618.91,622.78c-.7,0-1.43-.09-2.14-.14-14.67-1.22-30.04-5.03-41.88-8.6-12.22-3.69-20.67-7.17-20.67-7.17,6.05,11.13,23.49,59.67,23.49,59.67l-24.77,5.91s-56.74-74.46-31.16-102.09c19.12-20.44,70.96,1.89,70.96,1.89l70.9,.52s5.19,52.67-44.74,50.02Z"/>
      <path class="cls-32" d="M618.91,622.78c-.7,0-1.43-.09-2.14-.14-14.67-1.22-30.04-5.03-41.88-8.6,20.78-3.81,40.61-18.76,40.61-18.76l3.4,27.51Z"/>
      <polygon class="cls-24" points="714.24 656.98 715.36 668.87 687.91 672.44 686.79 660.54 714.24 656.98"/>
      <path class="cls-29" d="M714.14,670.65l-1.43-14.46c-.04-.48,.26-.93,.72-1.09l10.44-3.37c.93-.29,1.92,.23,2.21,1.16,0,0,0,0,0,0,.04,.12,.07,.26,.07,.39,.37,4.68,.4,8.1,.96,13.98,.33,3.61,1.74,14.48,2.21,19.47,.47,4.99-4.4,6.09-5.05,4.1-2.87-8.98-6.27-15.62-9.18-18.3-.55-.49-.88-1.16-.95-1.89Z"/>
      <path class="cls-30" d="M716.56,674.35c.14,.8,0,1.63-.39,2.34-.32,.48-.86,.76-1.43,.75-.33,.03-.65-.13-.83-.42-.8-1.22,1.2-5.29,1.43-5.74,.04-.11,.15-.17,.26-.16,.12,0,.22,.08,.26,.19,.35,.98,.58,2,.7,3.04Zm-2.27,2.08c0,.13,.04,.25,.11,.36,0,.07,.11,.14,.34,.14,.38,.02,.75-.16,.98-.47,.5-1.4,.43-2.95-.19-4.3-.68,1.33-1.11,2.78-1.25,4.27Z"/>
      <path class="cls-30" d="M715.97,671.38v.14c-.63,1.28-3.03,3.9-4.3,3.77-.44-.04-.78-.39-.82-.83-.1-.43-.01-.88,.24-1.23,.99-1.48,4.39-2.12,4.55-2.12,.1,0,.2,.04,.27,.11,.03,.05,.05,.1,.06,.16Zm-4.68,2.78v.14c.03,.37,.24,.37,.33,.37,.77,.14,2.62-1.56,3.43-2.87-1.35,.2-2.6,.81-3.59,1.75-.12,.18-.18,.39-.17,.6Z"/>
      <polygon class="cls-32" points="686.8 660.54 687.92 672.44 702.08 670.59 700.96 658.69 686.8 660.54"/>
      <path class="cls-30" d="M611.9,580.47c-4.3,6.47-19.91,93.8,.38,104.81,19.29,13.67,85.32-9.73,85.32-9.73l-1.35-19.78s-56.29,2.32-56.95,2.52c-1.24,.39,21.51-53.41,22.95-66.34,1.43-12.94-50.35-11.49-50.35-11.49Z"/>
    </g>
    <path class="cls-24" d="M530.99,490.93s-16.81-11.6-19.46-11.97c-2.65-.37-3.66,12.3-1.69,17.98,1.13,3.3,7.89,3.17,14.9,4.42l6.25-10.43Z"/>
    <g>
      <path class="cls-29" d="M663.63,572.76c-23.94,9.7-47.48,12.77-70.4,5.06,0,0-10.93-66.84-34.12-88.11,3.52-3.82,7.55-7.14,11.97-9.87,9.6-6.12,20.5-9.89,31.82-11.01,8.63-.82,17.34-.29,25.81,1.58,0,0,31.87,37.03,34.91,102.35Z"/>
      <path class="cls-9" d="M559.11,489.68c10.18,9.35,18.01,27.51,23.59,44.92,2.41,7.56,4.4,14.99,5.97,21.51,3.07,12.59,4.56,21.71,4.56,21.71,22.7,6.99,46.18,5.2,70.4-5.06-.97-22.82-5.88-45.3-14.51-66.44-1.52-3.7-3.08-7.17-4.62-10.27-2.74-5.61-5.41-10.33-7.74-14.14-1.05-1.68-2.02-3.18-2.87-4.5-1.6-2.42-3.32-4.76-5.16-7-8.47-1.87-17.18-2.4-25.81-1.58,4.3,5.15-.86,15.65-18.33,17.84-10.04,1.26-14.03-2.71-13.49-6.83-4.42,2.72-8.45,6.03-11.97,9.84Z"/>
      <path class="cls-32" d="M623.49,509.48s12.43-5.06,21.01-13.44c-2.74-5.61-5.41-10.33-7.74-14.14-1.05-1.68-2.02-3.18-2.87-4.5l-10.4,32.08Z"/>
      <path class="cls-32" d="M582.72,534.62c2.41,7.56,4.4,14.99,5.97,21.51,11.87-4.79,22.72-26.16,22.72-26.16l-28.68,4.65Z"/>
    </g>
    <g>
      <path class="cls-29" d="M626.8,470.03c-10.93-1.85-31.12,53.96-40.5,55.1-9.38,1.13-55.31-34.2-55.31-34.2l-6.25,10.43s40.15,43.02,59.6,47.32c19.45,4.3,55.93-51.63,55.08-62.33s-4.8-15.01-12.62-16.32Z"/>
      <path class="cls-10" d="M626.8,470.03c-10.93-1.85-31.12,53.96-40.5,55.1-9.38,1.13-55.31-34.2-55.31-34.2l-6.25,10.43s40.15,43.02,59.6,47.32c19.45,4.3,55.93-51.63,55.08-62.33s-4.8-15.01-12.62-16.32Z"/>
    </g>
    <g>
      <path class="cls-24" d="M600.41,470.1c2.17,7.79-20.25,18.71-28.11,10.94,4.3-3.21,5.35-6.55,4.82-9.81-.39-1.99-1.17-3.87-2.31-5.55-.6-.95-1.25-1.87-1.95-2.75l9.54-19.75c1.89,8.69,6.37,28.31,18.01,26.92Z"/>
      <g>
        <path class="cls-29" d="M549.74,426.29s-2.87,13.39,5.42,20.28,10.28-23.69,10.28-23.69l-15.7,3.41Z"/>
        <path class="cls-24" d="M585.57,436.09c.05,11.99,.32,18.75-5.48,25.27-8.73,9.81-23.9,5.54-27.64-6.19-3.36-10.56-2.88-28.4,8.85-33.9,11.55-5.42,24.23,2.84,24.27,14.83Z"/>
        <path class="cls-29" d="M586.16,421.63c-2.13-6.46-19.08-5.3-23.59-1.6-.67,.55,9.69,4.73,9.07,4.56l4.83,1.25c.72-.21,2.2,.51,3.09,2.66,0,0,.69,18.34,6.38,23.25,4.15-2.34,3.91-9.61,4.97-14.03,1.58-6.58,3.37-16.18-4.76-16.09Z"/>
        <path class="cls-29" d="M569.62,439.45c.08,1.22-.52,2.25-1.34,2.3-.82,.05-1.56-.9-1.64-2.12-.08-1.22,.52-2.25,1.34-2.3,.82-.05,1.56,.9,1.64,2.12Z"/>
        <path class="cls-29" d="M557.33,441.86c.08,1.22-.52,2.25-1.34,2.3-.82,.05-1.56-.9-1.64-2.12s.52-2.25,1.34-2.3c.82-.05,1.56,.9,1.64,2.12Z"/>
        <path class="cls-23" d="M559.89,440.96s-3.57,6.36-4.68,8.92c1.85,1.41,4.81,.48,4.81,.48l-.14-9.4Z"/>
        <path class="cls-29" d="M570.91,434.83c-.18,.09-.41,.08-.6-.04-2.18-1.42-4.2-.63-4.22-.62-.3,.12-.65-.01-.77-.3-.13-.29,.02-.63,.32-.75,.11-.04,2.63-1.04,5.34,.73,.27,.18,.34,.53,.16,.79-.06,.09-.14,.15-.23,.19Z"/>
        <path class="cls-3" d="M588.05,442.59c-.54-.68-1.57-.87-2.41-.6-.84,.27-1.52,.92-1.99,1.65-.57,.88-.91,1.9-.96,2.93"/>
        <path class="cls-29" d="M550.15,437.17c-.11-.01-.22-.06-.31-.14-.24-.21-.27-.57-.05-.81,2.16-2.38,4.84-2,4.96-2,.32,.05,.54,.34,.49,.65-.05,.31-.34,.53-.66,.48-.11-.02-2.18-.29-3.91,1.62-.14,.15-.33,.21-.52,.19Z"/>
        <path class="cls-31" d="M551.41,451.3c.32,1.5,.74,2.99,1.23,4.45,.21,.56,.43,1.09,.69,1.61,1.81,3.82,5.03,6.81,8.98,8.33,6.01,2.47,13.59,.65,17.78-4.33,1.58-4.78,2.08-14.81-1.2-20.74,0,0-3.12,8.79-4.26,9.12-1.13,.33-2.04-4.01-7.9-1.2-5.87,2.81-8.02,6.63-15.32,2.76Z"/>
        <path class="cls-29" d="M588.73,447.07c2.07-10.53,.22-21.78-2.51-24.88-2.72-3.1-16.41,4.89-16.41,4.89,3.2-.85,6.41,1.84,5.38,5.05-1.43,4.47,1.43,11.13,4.96,13.64,0,0,0-1.89,1.62-1.53,1.62,.36,2.89,10.1,.04,14.99-.01,0,4.84-1.64,6.92-12.15Z"/>
        <path class="cls-24" d="M589.62,444.99c-1.03,2.8-3.12,5.07-5.82,6.32-3.59,1.65-5.99-1.43-5.52-5.13,.46-3.3,2.87-8.22,6.7-8.26,3.83-.04,5.87,3.61,4.65,7.07Z"/>
        <path class="cls-29" d="M549.93,426.29s3.64,4.3,14.24,3.24c-2.45-.21-4.85-.72-7.17-1.53,0,0,14.21,1.96,21-.59,6.78-2.55,8.43-5.22,8.43-5.22,0,0-1.16-7.17-16.86-6.27-15.7,.9-20.69,7.7-19.63,10.37Z"/>
        <path class="cls-29" d="M587.02,452.49s.19-19.46-13.08-28.68c-10.3-7.17-20.84-4.68-23.79-.17,0,0-2.57-3.81,2.35-7.84,1.5-1.06,3.14-1.89,4.88-2.47,0,0,16.55-10.83,32.91-1.53,16.36,9.29,4.2,16.95,4.2,16.95,0,0,1.33,11.69-2.87,14.66,.03-.06-1.61,8.91-4.6,9.09Z"/>
        <path class="cls-29" d="M562.44,455.09c1.25,1.08,2.42,2.25,3.51,3.5,.25-.15,.5-.3,.74-.46,3.34-2.11,4.21-4.2,4.12-5.87-.05-.82-.3-1.61-.72-2.31-.23-.4-.51-.77-.83-1.1-1.1,2.18-4.06,4.39-5.7,5.5-.73,.45-1.13,.74-1.13,.74Z"/>
        <path class="cls-8" d="M563.52,454.34l1.06,1c3.14-1.99,5.08-3.81,5.47-5.41-.23-.4-.51-.77-.83-1.1-1.11,2.2-4.06,4.39-5.7,5.5Z"/>
        <path class="cls-22" d="M566.64,458.11c3.34-2.11,4.21-4.2,4.12-5.87-1.26,.83-2.36,1.87-3.25,3.08-.57,.82-.88,1.79-.87,2.79Z"/>
        <path class="cls-15" d="M587.02,452.49s.19-19.46-13.08-28.68c-10.3-7.17-20.84-4.68-23.79-.17,0,0-2.57-3.81,2.35-7.84,1.5-1.06,3.14-1.89,4.88-2.47,0,0,16.55-10.83,32.91-1.53,16.36,9.29,4.2,16.95,4.2,16.95,0,0,1.33,11.69-2.87,14.66,.03-.06-1.61,8.91-4.6,9.09Z"/>
      </g>
    </g>
  </g>
  <g>
    <g>
      <path class="cls-21" d="M81.27,365.18s5.45,1.11,6.12,1.99,9.89,6.49,9.89,6.49l-6.21,12.23-4.63-3.55s-4,.98-6.76-.05c-2.76-1.04-1.49-16.53-1.49-16.53l3.08-.58Z"/>
      <g>
        <path class="cls-33" d="M77.94,367.48s9.12,1.84,10.15,3.96c1.03,2.13-2.34,2.01-2.34,2.01,0,0,3.7,.36,3.76,1.95,.07,1.91-3.46,1.77-3.46,1.77,0,0,3.01,.41,2.97,1.83-.04,1.47-4.04,1.6-4.04,1.6,0,0,2.06,.69,1.48,1.66-.59,.97-9.06,1.41-11.58-.14-2.52-1.55-1.98-12.18-1.31-14.52,.78-2.75,2.75-3.74,5.1-3.37l-.72,3.23h0Z"/>
        <path class="cls-29" d="M79.3,384.59l-2.36-.72c-1.32-.42-2.14-1.73-1.96-3.1l2.58-18.91,6.44,1.99-1.05,18.2c-.07,1.55-1.39,2.75-2.94,2.67-.24-.01-.48-.05-.72-.13Z"/>
        <path class="cls-29" d="M94.79,359.96c.35-1.11,.68-2.19,.97-3.28-1.54-2.23-3.55-4.09-5.88-5.46-.73,2.1-1.46,4.29-2.17,6.55-.71,2.26-1.33,4.49-1.89,6.64,2.7,.18,5.41-.23,7.94-1.2,.35-1.07,.7-2.14,1.03-3.25Z"/>
        <path class="cls-16" d="M90.52,358.65c.86-2.65,1.43-5.38,1.72-8.15l-21.13-6.52-4.87,15.79,21.15,6.54c1.31-2.44,2.36-5,3.13-7.66Z"/>
        <path class="cls-25" d="M90.52,358.65c.86-2.65,1.43-5.38,1.72-8.15l-21.13-6.52-4.87,15.79,21.15,6.54c1.31-2.44,2.36-5,3.13-7.66Z"/>
        <path class="cls-30" d="M76.52,344.22c-.95-.3-24.55-22.2-27.1-23.06-2.55-.86-8.16,8.59-12.01,21.11-3.86,12.51-4.72,23.34-1.95,24.2,2.77,.87,34.41-4.09,35.38-3.8s3.32-3.51,4.89-8.61,2-9.49,.8-9.83Z"/>
        <path class="cls-12" d="M76.52,344.22c-.95-.3-24.55-22.2-27.1-23.06-2.55-.86-8.16,8.59-12.01,21.11-3.86,12.51-4.72,23.34-1.95,24.2,2.77,.87,34.41-4.09,35.38-3.8s3.32-3.51,4.89-8.61,2-9.49,.8-9.83Z"/>
        <path class="cls-30" d="M47.47,345.36c-3.86,12.51-9.24,21.96-12.01,21.11-2.77-.85-1.9-11.62,1.95-24.2,3.86-12.58,9.24-21.96,12.01-21.11,2.77,.85,1.91,11.7-1.95,24.2Z"/>
        <path class="cls-29" d="M40.84,343.28c-.26,.83-.5,1.7-.73,2.46,1.64,1.85,3.6,3.39,5.8,4.53,.56-1.57,1.11-3.22,1.64-4.92,.53-1.7,.98-3.4,1.42-4.99-2.46-.29-4.94-.13-7.34,.49-.38,.81-.64,1.62-.8,2.43Z"/>
        <path class="cls-11" d="M40.84,343.28c-.26,.83-.5,1.7-.73,2.46,1.64,1.85,3.6,3.39,5.8,4.53,.56-1.57,1.11-3.22,1.64-4.92,.53-1.7,.98-3.4,1.42-4.99-2.46-.29-4.94-.13-7.34,.49-.38,.81-.64,1.62-.8,2.43Z"/>
      </g>
      <g>
        <path class="cls-21" d="M76.81,367.36s9.4,1.95,10.43,4.08c1.03,2.13-2.34,2.01-2.34,2.01,0,0,3.7,.36,3.76,1.95,.07,1.91-3.46,1.77-3.46,1.77,0,0,3.01,.41,2.97,1.83-.04,1.47-4.04,1.6-4.04,1.6,0,0,2.06,.69,1.48,1.66-.59,.97-9.06,1.41-11.58-.14-2.52-1.55-1.98-12.18-1.31-14.52,.78-2.75,2.22-4.08,4.57-3.71l-.47,3.46h0Z"/>
        <path class="cls-33" d="M84.88,373.63s-.01,0-.02,0l-6.42-.93c-.09-.01-.15-.1-.13-.2,.01-.1,.09-.17,.18-.16l6.42,.93c.09,.01,.15,.1,.13,.2-.01,.09-.08,.16-.16,.16Z"/>
        <path class="cls-33" d="M85.01,377.35s0,0,0,0l-6.24-.4c-.09,0-.15-.09-.15-.19,0-.1,.07-.16,.17-.17l6.24,.4c.09,0,.15,.09,.15,.19,0,.1-.08,.17-.16,.17Z"/>
      </g>
    </g>
    <g>
      <path class="cls-21" d="M170.17,642.29s3.79,23.54,5.56,34.75c.59,3.67-13.48,1.66-14.82,1.29l-8.35-37.79,17.61,1.74Z"/>
      <g>
        <path class="cls-30" d="M150.49,670.66c-2.08,.29-4.11,.26-4.85-.59-.42-.46-.49-1.13-.18-1.66,.2-.49,.61-.87,1.11-1.05,2.57-1.03,8.63,1.43,8.89,1.54,.1,.04,.18,.12,.22,.22,.09,.2-.01,.44-.22,.52-1.62,.49-3.28,.83-4.96,1.02Zm-2.93-2.76c-.25,.05-.5,.11-.74,.18-.29,.12-.53,.34-.66,.63-.23,.52-.11,.74,0,.86,.89,.96,4.99,.43,7.92-.37-2.07-.84-4.29-1.28-6.53-1.28l.02-.03Z"/>
        <path class="cls-30" d="M155.28,669.63h-.17c-2.06-.62-6.32-3.59-6.32-5.44,.06-.45,.25-1.03,1.29-1.28,.74-.22,1.53-.12,2.2,.26,2.28,1.43,3.33,5.7,3.33,5.88,.08,.12,.08,.27,0,.39l-.34,.18Zm-3.34-5.75c-.41-.29-.91-.41-1.4-.35h-.25c-.68,.17-.68,.45-.68,.54-.12,1.09,2.96,3.5,5.1,4.44-.43-1.79-1.4-3.4-2.77-4.62h0Z"/>
        <path class="cls-29" d="M155.03,667.88c-3.36,4.21-7.41,8.7-19.33,13.45-2.65,1.05-.66,7.58,6.07,6.47,6.73-1.11,27.05-5.3,36.29-7.98,.14-.02,2.34-1.97,1.88-3.23l-5.41-12.25c-.23-.63-.88-1-1.54-.88l-15.48,2.88c-.99,.17-1.88,.73-2.48,1.54Z"/>
      </g>
      <g class="cls-33">
        <polygon points="156.17 655.97 152.57 640.55 170.17 642.31 172.04 653.94 156.17 655.97"/>
      </g>
    </g>
    <g>
      <path class="cls-21" d="M298.44,599.32s16,17.59,23.71,26c2.5,2.79-10.37,8.83-11.68,9.24l-27.73-27,15.7-8.24Z"/>
      <g class="cls-33">
        <polygon points="294.22 618.48 282.74 607.56 298.42 599.36 306.36 608.06 294.22 618.48"/>
      </g>
      <g>
        <path class="cls-30" d="M297.53,633.96c-1.57,1.39-3.28,2.48-4.36,2.17-.6-.15-1.03-.66-1.08-1.28-.11-.54,.02-1.1,.35-1.54,1.56-2.33,7.96-3.64,8.24-3.64,.16-.03,.32,.04,.42,.17,.09,.14,.09,.31,0,.45-1.07,1.34-2.27,2.56-3.57,3.67Zm-3.96-.8c-.19,.17-.37,.36-.52,.55-.19,.26-.26,.58-.2,.89,.11,.55,.32,.71,.49,.71,1.26,.32,4.39-2.34,6.39-4.62-2.2,.43-4.29,1.28-6.16,2.51v-.05Z"/>
        <path class="cls-30" d="M301.01,630.35l-.15,.08c-2.09,.62-7.3,.45-8.26-1.09-.32-.6-.16-1.34,.37-1.76,.5-.59,1.22-.95,1.99-1,2.7-.08,5.87,2.96,6.01,3.08,.12,.07,.19,.2,.17,.34l-.12,.35Zm-5.99-2.94c-.5,0-.99,.18-1.36,.52l-.23,.11c-.45,.49-.26,.72-.26,.82,.52,.99,4.37,1.31,6.69,.91-1.34-1.28-3.05-2.11-4.88-2.39l.05,.03Z"/>
        <path class="cls-29" d="M301.02,629.38c-1.55,5.15-3.62,10.84-12.91,19.69-2.07,1.96,2.22,7.28,8.05,3.74,5.83-3.54,23.11-15.01,30.69-20.95,.12-.07,1.44-2.7,.54-3.7l-9.59-9.34c-.45-.5-1.19-.6-1.76-.24l-13.29,8.45c-.86,.53-1.48,1.38-1.73,2.35Z"/>
      </g>
    </g>
    <g>
      <path class="cls-29" d="M186.22,423.81l26.03-14.02c3.5,5.14,6.27,9.41,7.72,15.46,1.86,7.73-2.2,21.13-1.15,20.56-29.11,15.9-35.03,10.65-35.03,10.65l-8.4,5.44c-12.99,8.39-35.32,4.39-30.22-10.21,4.47-12.99,4.47-29.64,4.47-29.64,17.02,4.81,36.58,1.76,36.58,1.76Z"/>
      <path class="cls-29" d="M172.65,433.97c-11.12-.66-19.98-3.4-22.97,4.73-17.81,48.48-25.68,98.48-21.46,127.13,2.56,16.87,13.34,85.86,27.2,85.21,4.34-.2,18.08-2.59,18.08-2.59,1.39-1.78,1.89-4.09,1.36-6.28-5.28-23.71-15.27-65.94-11.74-88.23,4.61-28.85,27.19-75.37,27.82-92.01,.62-16.16-16.28-27.83-18.3-27.96Z"/>
      <path class="cls-32" d="M176.81,508.31l9.84-30.38s-6.13-37.11-8.23-33.67c-16.07,26.36-1.62,64.05-1.62,64.05Z"/>
      <path class="cls-29" d="M186.24,423.82c-9.61,5.53-13.05,14.74-10.78,23.11,10.71,39.57,33.16,76.17,51.73,109.49,8.32,14.91,57.36,66.41,63.77,58.33,2.71-3.4,13.71-12.09,13.71-12.09,3.59-11.48-25.92-16.97-87.8-165.51-6.22-14.93-28.88-14.34-30.62-13.32Z"/>
    </g>
    <g>
      <path class="cls-30" d="M186.66,316.95c1.34-.99,35.63-1.73,55.45-1.73v-.2c.96-13.19,4.33-26.1,9.95-38.08l8.39-17.93c2.22-4.83,7.33-7.64,12.6-6.93,1.65,.23,3.26,.7,4.78,1.4l-3.82,1.34c.03,1.43-.09,2.85-.35,4.25l-11.61,60.69c.37,2.23-.08,5.62-2.06,10.78-2.34,6.13-36.46,13.43-54.71,14.73-5.36,.37-9.32,.25-10.78-.57-3.23-1.8-7.12-7.39-9.24-13.2-2.06-5.81-2.42-11.83,1.42-14.56Z"/>
      <path class="cls-30" d="M188.32,316.87c.53-.04,1.07-.05,1.6-.03,8.89,.28,15.86,7.72,15.57,16.6l15.07,83.43c-6.61,9.09-74.73,35.33-76.13,27.16,6.54-38.97-20.95-104.73-11.49-111.28,28.68-20.43,51.66-15.63,55.38-15.88Z"/>
      <path class="cls-30" d="M94.26,370.37l35.89,8.76s-8.25-38.54,1.97-45.97c10.21-7.43,24.66,66.05,24.66,66.05l-9.23,13.39s-59.81-24.67-59.81-23.5,6.52-18.74,6.52-18.74Z"/>
      <polygon class="cls-32" points="144.43 411.33 136.06 356.48 138.12 408.74 144.43 411.33"/>
      <path class="cls-6" d="M188.2,332.85c2.11,5.81,5.99,11.4,9.24,13.2,1.54,.82,5.78,2.57,10.15-.97,1.79,13.26,6.61,36.57,6.61,36.57,0,0-20.98-22.37-26-48.81Z"/>
    </g>
    <g>
      <path class="cls-16" d="M229.03,257.66h56.58c2.23,0,4.04,1.81,4.04,4.04v229.15c0,3.35-2.72,6.07-6.07,6.07h-53.47c-2.64,0-4.78-2.14-4.78-4.78v-230.77c0-2.05,1.66-3.71,3.71-3.71Z"/>
      <path class="cls-30" d="M229.14,257.66h54.56c3.28,0,5.94,2.66,5.94,5.94v227.46c0,3.24-2.63,5.87-5.87,5.87h-53.56c-2.7,0-4.9-2.19-4.9-4.9v-230.54c0-2.11,1.71-3.83,3.83-3.83Z"/>
      <path class="cls-28" d="M229.03,257.66h56.84c2.09,0,3.78,1.69,3.78,3.78v10.42h-64.33v-10.49c0-2.05,1.66-3.71,3.71-3.71Z"/>
      <rect class="cls-14" x="235.56" y="286.22" width="19.06" height="19.06"/>
      <rect class="cls-14" x="262.23" y="286.22" width="19.06" height="19.06"/>
      <rect class="cls-14" x="235.56" y="313.57" width="19.06" height="19.06"/>
      <rect class="cls-14" x="262.23" y="313.57" width="19.06" height="19.06"/>
      <rect class="cls-14" x="235.56" y="340.77" width="19.06" height="19.06"/>
      <rect class="cls-14" x="262.23" y="340.77" width="19.06" height="19.06"/>
      <rect class="cls-14" x="235.56" y="367.96" width="19.06" height="19.06"/>
      <rect class="cls-14" x="262.23" y="367.96" width="19.06" height="19.06"/>
      <rect class="cls-14" x="235.56" y="468.95" width="19.06" height="19.06"/>
      <rect class="cls-14" x="262.23" y="468.95" width="19.06" height="19.06"/>
      <rect class="cls-8" x="251.06" y="422.28" width="30.23" height="30.23"/>
      <rect class="cls-28" x="235.95" y="405.3" width="30.23" height="30.23"/>
    </g>
    <g>
      <path class="cls-21" d="M255.71,257.96s2.47,7.91,4.54,8.87c2.07,.96,1.91-2.29,1.91-2.29,0,0,.39,3.57,1.93,3.61,1.85,.05,1.67-3.37,1.67-3.37,0,0,.44,2.9,1.81,2.84,1.42-.06,1.49-3.92,1.49-3.92,0,0,.7,1.99,1.63,1.41,.93-.58,1.23-8.78-.3-11.19-1.53-2.41-12.08-2.48-14.37-1.95-.73,.17-5.34,3.19-6.74,5.69l6.35,.07,.08,.23Z"/>
      <path class="cls-33" d="M262.34,264.53s0,0,0-.01l-.99-6.19c-.01-.08-.1-.14-.2-.13-.09,.01-.16,.09-.15,.17l.99,6.19c.01,.08,.1,.14,.19,.13,.09-.01,.15-.08,.15-.16Z"/>
      <path class="cls-33" d="M265.93,264.6s0,0,0,0l-.47-6.02c0-.08-.09-.15-.18-.14-.1,0-.15,.07-.16,.16l.47,6.02c0,.08,.09,.15,.18,.14,.09,0,.17-.08,.16-.16Z"/>
      <path class="cls-33" d="M269.23,263.49l-.22-4.49c0-.08-.09-.15-.18-.14-.09,0-.17,.08-.17,.16l.22,4.49c0,.08,.09,.15,.18,.14,.09,0,.17-.08,.17-.16Z"/>
    </g>
    <path class="cls-31" d="M162.81,311.54l-.37-1.33-12.64,2.78c4.34,3.8,11.32,2.87,13.97,1.08l-.97-2.53Z"/>
    <g>
      <path class="cls-29" d="M144.19,315.21s17.65-.62,26.19-3.91c9.46-3.65,3.3-17.62,3.3-17.62,2.51-.9,4.63-2.65,5.99-4.94,1.93-3.39,.42-7.89-2.54-10.49-2.96-2.6-8.46-3.34-12.2-4.42,2.57-.63,3.74-3.99,2.74-6.45-1.22-2.38-3.45-4.07-6.07-4.62-2.6-.53-5.23-.9-7.87-1.11-3.67-.55-7.16-1.79-10.78-2.43-3.63-.86-7.44-.42-10.78,1.23-2.51,1.59-4.45,3.94-5.55,6.7-.96,1.94-1.28,4.12-.92,6.25,.42,2.16,2.19,3.81,4.37,4.08,0,0,6.38,32.89,14.13,37.74Z"/>
      <path class="cls-29" d="M125.66,274.79c5.38-2.23,11.94,6.19,14.62,9.66,4.93,6.02,9.07,12.66,12.32,19.73,1.22,2.9,2.03,6.59-.12,8.87-1.53,1.28-3.46,1.98-5.45,1.99-3.53,.37-7.07,.53-10.61,.48-3.36-.05-6.92-.34-9.63-2.33-2.71-1.99-4-6.22-1.83-8.78-2.66,.6-5.28-1.57-6.16-4.11-.65-2.63-.65-5.37,0-7.99,.72-4.71,1.49-15.28,6.87-17.51Z"/>
      <path class="cls-21" d="M163.81,314.08c.76,1.75,1.85,3.35,3.19,4.71,1.63,1.48,2.19,3.8,1.43,5.87-1.06,2.66-3.43,6.56-8.67,11.6-.89,.87-1.98,1.52-3.17,1.88-4.07,1.23-8.37-1.07-9.6-5.14-.19-.62-.29-1.26-.29-1.91,.03-2.21,1.09-4.29,2.87-5.61,4.71-3.57,2.23-9.2-.43-13.72l11.18-13.11c.34,4.37,1.18,8.68,2.48,12.86h0l1.02,2.57Z"/>
      <path class="cls-29" d="M135.48,295.99c-1.77-5.62-3.27-11.4-5.99-16.67-.39,1.35-.62,2.75-.69,4.16-.12,2.68,.37,5.36,1.43,7.83,.79,1.86,1.48,3.56,2.16,5.1,2.57,6.02,4.54,9.83,8.12,12.77h0l1.12,.57c-2.71-4.26-4.79-8.89-6.15-13.76Z"/>
      <path class="cls-21" d="M162.06,277.21c-.34-.51-.68-1.03-1.05-1.54-3.71-5.07-8.53-8.78-14.49-9.04-7.12-.39-13.71,3.78-16.4,10.38-.25,.57-.47,1.16-.65,1.76-.39,1.36-.62,2.75-.69,4.16-.12,2.68,.37,5.36,1.43,7.83,.79,1.86,1.48,3.56,2.16,5.1,2.57,6.02,4.54,9.83,8.12,12.77h0c1.04,.85,2.15,1.6,3.33,2.25,.37,.2,.75,.42,1.17,.6,.99,.5,2.02,.9,3.08,1.22,2.83,.89,5.85,1.01,8.75,.35h.09c7.71-1.77,12.82-9.1,11.83-16.94-.8-6.71-3.08-13.16-6.67-18.88Z"/>
      <g>
        <path class="cls-21" d="M131.38,289.14c4.01,11.36,6.04,17.85,13.74,22.06,11.58,6.33,24.5-2.84,24.06-15.21-.39-11.14-6.89-27.84-19.85-29.09-12.77-1.22-21.96,10.88-17.95,22.25Z"/>
        <path class="cls-29" d="M137.18,278.8c-.88-1.35-2.34-2.21-3.94-2.31-1.11,0-3.6,.09-4.19,0s-1.25-.12-1.54,.32c-3.91,6.02-4.24,13.69-.86,20.02,3.39,5.32,8.19,9.58,13.86,12.32-3.59-2.94-5.55-6.75-8.13-12.77,1-.27,2.04-.41,3.08-.42,.88-.02,3.34,3.27,3.71,2.46,1.14-2.45-4.5-10.83-1.99-19.64Z"/>
        <path class="cls-21" d="M129.74,300.09c1.8,2.71,4.72,4.34,7.41,4.82,4.04,.73,4.3-3.42,2.93-6.97-1.23-3.2-3.35-6.92-7.29-6.03-3.88,.87-5.1,5.08-3.05,8.18Z"/>
        <path class="cls-29" d="M147.93,286.92c.34,1.18,1.25,1.96,2.05,1.73,.8-.23,1.17-1.38,.83-2.56-.34-1.18-1.25-1.96-2.05-1.73-.8,.23-1.17,1.38-.83,2.56Z"/>
        <path class="cls-29" d="M160.38,285.04c.34,1.18,1.25,1.96,2.05,1.73,.8-.23,1.17-1.38,.83-2.56s-1.25-1.96-2.05-1.73c-.8,.23-1.17,1.38-.83,2.56Z"/>
        <path class="cls-21" d="M157.65,285.06s5.53,4.81,7.44,6.86c-1.27,1.96-4.39,2.09-4.39,2.09l-3.05-8.94Z"/>
        <path class="cls-29" d="M142.52,284.14c.2,.02,.42-.06,.55-.24,1.58-2.09,3.76-2.02,3.78-2.02,.33,.01,.61-.23,.63-.55,.02-.32-.23-.59-.55-.6-.11,0-2.84-.09-4.81,2.5-.2,.26-.14,.62,.12,.8,.08,.06,.18,.09,.28,.1Z"/>
        <path class="cls-3" d="M131.55,296.13c.28-.82,1.19-1.35,2.08-1.38,.89-.03,1.75,.35,2.44,.88,.84,.64,1.5,1.49,1.9,2.45"/>
        <path class="cls-29" d="M165.58,278.17c.1-.05,.19-.13,.24-.24,.16-.28,.06-.63-.23-.78-2.85-1.52-5.25-.25-5.37-.21-.29,.15-.4,.5-.25,.79,.15,.28,.5,.38,.79,.23,.1-.06,1.96-1.01,4.25,.21,.18,.1,.39,.09,.56,0Z"/>
        <path class="cls-29" d="M160.83,298.08c-.82,1.45-1.53,2.95-2.14,4.5-.28-.06-.58-.11-.86-.19-3.88-.87-5.4-2.55-5.89-4.16-.22-.79-.26-1.62-.1-2.43,.08-.46,.22-.9,.42-1.32,1.78,1.69,5.33,2.78,7.25,3.28,.84,.18,1.32,.32,1.32,.32Z"/>
        <path class="cls-8" d="M159.56,297.72l-.67,1.31c-3.64-.83-6.1-1.88-7-3.27,.08-.46,.22-.9,.42-1.32,1.79,1.71,5.33,2.78,7.25,3.28Z"/>
        <path class="cls-22" d="M157.88,302.36c-3.88-.87-5.4-2.55-5.89-4.16,1.47,.36,2.86,.97,4.12,1.81,.82,.58,1.44,1.4,1.77,2.34Z"/>
      </g>
      <path class="cls-29" d="M132.4,268.43c-2.56,1.26-4.79,4.24-3.64,6.85,.96,2.19,3.67,2.88,6.01,3.31,4.7,.94,9.52,1.73,14.23,.94,1.36-.23,2.9-.75,3.36-2.06,.3-1.05-.02-2.18-.82-2.93-.79-.72-1.71-1.29-2.71-1.68,2.66,1.42,5.59,2.29,8.6,2.56,1.05,.21,2.14-.03,2.99-.68,.76-.92,.82-2.23,.14-3.2-.68-.94-1.58-1.69-2.63-2.17-7.83-4.5-17.38-4.85-25.52-.94Z"/>
    </g>
  </g>
</svg>