<?xml version="1.0" encoding="UTF-8"?>
<svg xmlns="http://www.w3.org/2000/svg" xmlns:xlink="http://www.w3.org/1999/xlink" viewBox="0 0 819.11 764.33">
  <defs>
    <style>
      .cls-1 {
        fill: url(#linear-gradient);
      }

      .cls-2 {
        fill: #003db5;
      }

      .cls-3 {
        fill: #00a9ff;
      }

      .cls-4 {
        fill: #0073ff;
      }

      .cls-5 {
        fill: #fff;
      }

      .cls-6 {
        fill: #edf9ef;
      }

      .cls-7, .cls-8 {
        fill: #dceee0;
      }

      .cls-9 {
        fill: #cae8cf;
      }

      .cls-10 {
        fill: #0b1416;
      }

      .cls-11 {
        fill: #1a2e35;
      }

      .cls-12 {
        fill: #545454;
      }

      .cls-13 {
        fill: #7fcc7f;
      }

      .cls-14 {
        fill: #474747;
      }

      .cls-15 {
        fill: #3a3a3a;
      }

      .cls-16 {
        fill: #5cbb61;
      }

      .cls-17 {
        fill: #d1e6fb;
        mix-blend-mode: multiply;
      }

      .cls-18 {
        fill: none;
        stroke: #fff;
        stroke-miterlimit: 10;
        stroke-width: 2.01px;
      }

      .cls-19 {
        mix-blend-mode: screen;
      }

      .cls-20 {
        fill: url(#linear-gradient-3);
      }

      .cls-21 {
        fill: url(#linear-gradient-2);
      }

      .cls-22 {
        isolation: isolate;
      }

      .cls-8 {
        opacity: .6;
      }
    </style>
    <linearGradient id="linear-gradient" x1="299.87" y1="379.37" x2="522.54" y2="379.37" gradientUnits="userSpaceOnUse">
      <stop offset="0" stop-color="#474747"/>
      <stop offset="1" stop-color="#fff"/>
    </linearGradient>
    <linearGradient id="linear-gradient-2" x1="299.87" y1="398.82" x2="522.54" y2="398.82" gradientUnits="userSpaceOnUse">
      <stop offset="0" stop-color="#5cbb61"/>
      <stop offset="1" stop-color="#fff"/>
    </linearGradient>
    <linearGradient id="linear-gradient-3" x1="299.87" y1="418.27" x2="522.54" y2="418.27" gradientUnits="userSpaceOnUse">
      <stop offset="0" stop-color="#dceee0"/>
      <stop offset="1" stop-color="#fff"/>
    </linearGradient>
  </defs>
  <g class="cls-22">
    <g id="Layer_1" data-name="Layer 1">
      <g>
        <g>
          <path class="cls-6" d="M148.38,610.87c0,10.14-31.26,18.36-69.83,18.36s-69.83-8.22-69.83-18.36,31.26-18.35,69.83-18.35,69.83,8.22,69.83,18.35Z"/>
          <g>
            <g>
              <rect class="cls-16" x="47.41" y="376.37" width="19.45" height="138.97"/>
              <polygon class="cls-7" points="47.41 376.37 57.56 343.02 66.87 376.37 47.41 376.37"/>
              <polygon class="cls-16" points="61.15 355.87 57.56 343.02 53.65 355.87 57.78 359 61.15 355.87"/>
            </g>
            <g>
              <rect class="cls-16" x="89.8" y="380.54" width="31.96" height="138.97"/>
              <polygon class="cls-7" points="89.8 380.54 106.47 347.19 121.76 380.54 89.8 380.54"/>
              <polygon class="cls-16" points="112.37 360.04 106.47 347.19 100.05 360.04 106.82 363.17 112.37 360.04"/>
            </g>
            <g>
              <rect class="cls-11" x="65.65" y="407.29" width="31.96" height="138.96"/>
              <polygon class="cls-7" points="65.65 407.29 82.33 373.94 97.61 407.29 65.65 407.29"/>
              <polygon class="cls-11" points="88.22 386.79 82.33 373.94 75.9 386.79 82.68 389.92 88.22 386.79"/>
            </g>
            <g>
              <rect class="cls-14" x="31.26" y="419.1" width="31.96" height="138.97"/>
              <polygon class="cls-7" points="31.26 419.1 47.94 385.75 63.22 419.1 31.26 419.1"/>
              <polygon class="cls-14" points="53.83 398.61 47.94 385.75 41.51 398.61 48.28 401.74 53.83 398.61"/>
            </g>
            <g>
              <rect class="cls-13" x="106.38" y="412.85" width="19.45" height="138.96"/>
              <polygon class="cls-7" points="106.38 412.85 116.53 379.5 125.83 412.85 106.38 412.85"/>
              <polygon class="cls-13" points="120.11 392.35 116.53 379.5 112.61 392.35 116.74 395.48 120.11 392.35"/>
            </g>
          </g>
          <g>
            <path class="cls-5" d="M121.76,611.92c-.26,2.3-1.77,4.17-3.38,4.17H37.52c-1.61,0-3.11-1.87-3.35-4.17l-17.18-162.59c-.24-2.3,1.43-4.17,3.73-4.17h115.69c2.3,0,3.96,1.87,3.7,4.17l-18.34,162.59Z"/>
            <g>
              <path class="cls-8" d="M97.39,449.33v166.75h20.99c1.61,0,3.12-1.87,3.38-4.17l18.34-162.59h-42.71Z"/>
              <path class="cls-8" d="M65.08,449.33H25.58c-2.3,0-3.97,1.87-3.73,4.17l17.18,162.59h26.05v-166.75Z"/>
            </g>
            <path class="cls-7" d="M34.17,611.92c.24,2.3,1.74,4.17,3.35,4.17H118.38c1.61,0,3.12-1.87,3.38-4.17l18.34-162.59c.08-.72-.05-1.4-.3-1.99-6.18,40.4-23.08,129.55-53.53,144.78-23.2,11.6-44.25-11.85-57.71-33.26l5.61,53.06Z"/>
          </g>
        </g>
        <g>
          <path class="cls-7" d="M803.99,612.6c0,12.04-52.19,21.79-116.57,21.79s-116.56-9.76-116.56-21.79,52.18-21.8,116.56-21.8,116.57,9.76,116.57,21.8Z"/>
          <g>
            <rect class="cls-14" x="703.86" y="523.37" width="18.78" height="134.14" transform="translate(120.73 1301.95) rotate(-89.83)"/>
            <polygon class="cls-7" points="646.16 599.63 613.99 589.74 646.21 580.85 646.16 599.63"/>
            <polygon class="cls-4" points="626.41 586.31 613.99 589.74 626.39 593.55 629.42 589.58 626.41 586.31"/>
          </g>
          <g>
            <rect class="cls-16" x="657.56" y="534.24" width="30.85" height="134.14" transform="translate(69.7 1272.54) rotate(-89.83)"/>
            <polygon class="cls-7" points="605.87 616.55 573.73 600.35 605.96 585.69 605.87 616.55"/>
            <polygon class="cls-16" points="586.15 594.7 573.73 600.35 586.11 606.6 589.15 600.06 586.15 594.7"/>
          </g>
          <g>
            <rect class="cls-13" x="725.93" y="521.04" width="18.78" height="134.14" transform="translate(-77.49 1063.42) rotate(-68.97)"/>
            <polygon class="cls-7" points="669.35 572.82 642.81 552.12 676.09 555.29 669.35 572.82"/>
            <polygon class="cls-13" points="655.63 553.35 642.81 552.12 653.04 560.1 657.29 557.47 655.63 553.35"/>
          </g>
        </g>
        <g>
          <path class="cls-4" d="M590.87,196.08c-13.38,14.89-35.69,19.24-54.04,9.24-8.79-4.79-15.31-12.14-19.13-20.62h-40.4c5.07,22.4,19.35,42.59,41.1,54.44,23.25,12.67,49.91,13.01,72.47,3.26v-46.33Z"/>
          <path class="cls-2" d="M597.98,185.4c-.36,.76-.73,1.51-1.14,2.25-6.21,11.41-16.73,18.98-28.42,21.82l10.88,36.96c21.16-5.64,40.06-19.59,51.37-40.34,3.64-6.67,6.24-13.63,7.9-20.69h-40.59Z"/>
          <path class="cls-7" d="M518.84,145.95c.11-.21,.21-.43,.32-.64,11.69-21.45,38.56-29.36,60-17.67,21.45,11.69,29.36,38.56,17.67,60.01-.11,.21-.24,.41-.36,.62l33.83,18.44c.12-.21,.24-.41,.36-.62,21.87-40.13,7.07-90.4-33.06-112.27-40.14-21.87-90.4-7.07-112.27,33.06-.11,.21-.21,.42-.33,.64l33.83,18.44Z"/>
          <path class="cls-6" d="M637.29,142.81l-36.96,10.88c3.31,10.93,2.4,23.13-3.5,33.95-.11,.21-.24,.41-.36,.62l33.83,18.44c.12-.21,.24-.41,.36-.62,10.99-20.16,12.71-42.88,6.63-63.27Z"/>
          <path class="cls-11" d="M519.16,145.31c.62-1.15,1.31-2.25,2.02-3.32-9.6-5.62-19.22-11.22-28.88-16.74-1.61-.67-3.22-1.34-4.82-2.04-.73,1.2-1.46,2.41-2.14,3.65-21.76,39.92-7.21,89.86,32.45,111.91l18.43-33.83c-20.98-11.87-28.63-38.41-17.06-59.65Z"/>
          <path class="cls-3" d="M478.84,190.52c6.03,19.82,19.44,37.42,38.94,48.26l18.43-33.83c-10.17-5.75-17.19-14.95-20.43-25.32l-36.95,10.88Z"/>
          <path class="cls-13" d="M518.84,145.95c.11-.21,.21-.43,.32-.64,11.58-21.24,38.03-29.19,59.37-18l18.44-33.83c-40.03-21.38-89.88-6.53-111.64,33.39-.11,.21-.21,.42-.33,.64l33.83,18.44Z"/>
          <path class="cls-16" d="M542.45,125.09l-10.9-36.99c-19.05,6.42-35.84,19.73-46.22,38.78-.11,.21-.21,.42-.33,.64l33.83,18.44c.11-.21,.21-.43,.32-.64,5.29-9.71,13.7-16.62,23.29-20.22Z"/>
        </g>
        <g>
          <g>
            <g>
              <path class="cls-7" d="M222.07,621.77c3.34-3.64,9.03-8.42,11.2-10.38,7.47-6.89,14.73-13.77,21.77-20.65,1.81-1.8,4.36-3.28,5.7-3.29l224.63-1.2c1.33,0,4.11,1.44,6.18,3.22,5.7,4.83,11.53,9.66,17.47,14.49,4.91,3.91,9.9,7.83,14.96,11.75,1.23,.94,4.42,3.08,6.95,5.14l.03,5.17c-.45-.03-.87-.06-1.21-.05-3.72,.04-7.46,.04-11.2,.06l-286.95,1.53c-2.06,.01-6.62,.18-9.51-.29l-.03-5.51Z"/>
              <path class="cls-10" d="M232.82,616.7c3.1-3.39,8.4-7.83,10.42-9.66,6.95-6.41,13.71-12.81,20.25-19.21,1.68-1.67,4.06-3.05,5.3-3.06l208.99-1.12c1.24,0,3.82,1.34,5.75,3,5.31,4.49,10.72,8.99,16.26,13.48,4.57,3.64,9.21,7.29,13.92,10.93,1.15,.88,4.12,2.86,6.47,4.79l.02,4.81c-.42-.03-.81-.05-1.13-.05-3.46,.04-6.95,.04-10.42,.05l-266.96,1.43c-1.92,.01-6.16,.17-8.85-.28l-.03-5.13Z"/>
              <path class="cls-16" d="M232.82,616.74s.02-.02,.03-.03c2.27,.86,7.79,.63,10.04,.61l262.32-1.4c3.41-.02,6.83-.02,10.24-.06,1.22-.01,3.56,.39,4.11-.49,.21,.16,.42,.33,.62,.5l.02,4.79c-.42-.03-.81-.05-1.13-.05-3.46,.04-6.95,.04-10.42,.05l-266.96,1.43c-1.92,.01-6.16,.17-8.85-.28l-.03-5.09Z"/>
            </g>
            <g>
              <g>
                <g>
                  <rect class="cls-11" x="298.53" y="520.05" width="159.62" height="81.82"/>
                  <rect class="cls-17" x="381.03" y="520.05" width="77.13" height="81.82"/>
                  <rect class="cls-17" x="298.53" y="520.05" width="159.62" height="36.22"/>
                </g>
                <g>
                  <rect class="cls-16" x="85.92" y="158.54" width="575.45" height="366.2" rx="10.06" ry="10.06"/>
                  <path class="cls-11" d="M661.38,475.66c0,4.88-4.5,8.85-10.06,8.85H95.98c-5.55,0-10.06-3.96-10.06-8.85V171.41c0-4.88,4.51-8.84,10.06-8.84H651.32c5.56,0,10.06,3.96,10.06,8.84V475.66Z"/>
                  <path class="cls-7" d="M637.23,457.91c0,4.25-4.13,7.69-9.22,7.69H119.29c-5.09,0-9.22-3.44-9.22-7.69V193.19c0-4.25,4.13-7.7,9.22-7.7h508.73c5.09,0,9.22,3.45,9.22,7.7V457.91Z"/>
                  <path class="cls-15" d="M110.07,193.19v151.69H637.23V193.19c0-4.25-4.13-7.7-9.22-7.7H119.29c-5.09,0-9.22,3.45-9.22,7.7Z"/>
                </g>
              </g>
              <path class="cls-17" d="M383.21,500.1c0,5.28-4.28,9.56-9.56,9.56s-9.56-4.28-9.56-9.56,4.28-9.56,9.56-9.56,9.56,4.28,9.56,9.56Z"/>
            </g>
          </g>
          <g>
            <g>
              <path class="cls-14" d="M610.15,596.07c-.68,2.71-2.97,4.46-5.13,3.93l-81.98-20.51c-2.16-.54-3.36-3.17-2.68-5.88l16.76-66.98c.68-2.71,2.97-4.46,5.13-3.92l81.98,20.51c2.15,.54,3.35,3.17,2.68,5.88l-16.76,66.98Z"/>
              <path class="cls-12" d="M520.27,576.06c.28,1.69,1.29,3.05,2.77,3.42l81.98,20.51c2.15,.54,4.45-1.22,5.13-3.93l15.54-62.1c-35.49,13.19-71.03,26.32-105.42,42.09Z"/>
            </g>
            <rect class="cls-5" x="570.56" y="501.95" width="26.16" height="18.78" transform="translate(-54.07 953.41) rotate(-75.95)"/>
          </g>
          <g>
            <g>
              <path class="cls-16" d="M209.88,228.91c1.09,2.57,.32,5.35-1.72,6.22l-77.74,33.13c-2.05,.87-4.59-.5-5.68-3.07l-27.07-63.51c-1.1-2.57-.33-5.35,1.72-6.23l77.74-33.13c2.04-.87,4.59,.5,5.68,3.07l27.07,63.51Z"/>
              <path class="cls-13" d="M126.14,267.22c1.24,1.18,2.87,1.65,4.27,1.05l77.74-33.13c2.04-.87,2.81-3.66,1.72-6.22l-25.1-58.89c-20.33,31.94-40.74,63.86-58.64,97.19Z"/>
            </g>
            <rect class="cls-5" x="128.2" y="164.28" width="18.78" height="26.16" transform="translate(-58.52 68.14) rotate(-23.08)"/>
          </g>
          <g>
            <g>
              <path class="cls-16" d="M548.39,440.62c0,1.92-1.42,3.47-3.17,3.47H204.77c-1.75,0-3.17-1.56-3.17-3.47v-78.23c0-1.92,1.42-3.48,3.17-3.48h340.45c1.75,0,3.17,1.56,3.17,3.48v78.23Z"/>
              <path class="cls-7" d="M545.71,437.93c0,1.92-1.42,3.48-3.18,3.48H202.09c-1.75,0-3.17-1.56-3.17-3.48v-78.23c0-1.92,1.42-3.47,3.17-3.47h340.45c1.75,0,3.18,1.56,3.18,3.47v78.23Z"/>
              <path class="cls-7" d="M542.53,356.23l-343.62,81.7c0,1.92,1.42,3.48,3.17,3.48h340.45c1.75,0,3.18-1.56,3.18-3.48v-78.23c0-1.92-1.42-3.47-3.18-3.47Z"/>
              <g>
                <g>
                  <rect class="cls-5" x="238.17" y="390.78" width="30.85" height="30.85"/>
                  <rect class="cls-16" x="222.08" y="376.02" width="30.85" height="30.85"/>
                </g>
                <g>
                  <rect class="cls-1" x="299.87" y="374.68" width="222.67" height="9.39"/>
                  <rect class="cls-21" x="299.87" y="394.13" width="222.67" height="9.39"/>
                  <rect class="cls-20" x="299.87" y="413.58" width="222.67" height="9.39"/>
                </g>
              </g>
            </g>
            <g>
              <path class="cls-5" d="M161.32,319.56l26.24-8.5,20.6-37.13-1.07-1.72-24.25,19.53c.82,1.05,.25,1.63,.07,3.05-.35,2.85-2.95,4.86-5.79,4.51-2.84-.35-4.86-2.95-4.51-5.79,.35-2.84,2.95-4.86,5.79-4.51,1.23,.15,1.92,.19,2.72,1.02l23.67-20.96-.71-.83-40.7,11.93-14.2,23.07,12.13,16.32Z"/>
              <rect class="cls-5" x="141.2" y="303.3" width="12.97" height="27.76" transform="translate(-161.46 153.33) rotate(-37.11)"/>
            </g>
            <g>
              <path class="cls-5" d="M567.58,268.75c-10.52-1.75-14.03,14.03-17.54,15.78-3.51,1.76-11.4-.87-11.4-.87,0,0,9.64,17.54,26.31,10.52,16.66-7.02,13.15-23.68,2.63-25.43Z"/>
              <path class="cls-5" d="M608.8,228.85l-39.46,37.71,9.65,8.77,37.71-38.59c.88-10.53-7.89-7.89-7.89-7.89Z"/>
            </g>
            <g>
              <rect class="cls-18" x="236.72" y="208.43" width="280.35" height="129.61"/>
              <g>
                <rect class="cls-16" x="371.98" y="204.32" width="7.55" height="7.55"/>
                <rect class="cls-16" x="371.98" y="334.35" width="7.55" height="7.55"/>
                <rect class="cls-16" x="513.57" y="334.35" width="7.55" height="7.55"/>
                <rect class="cls-16" x="513.57" y="205.07" width="7.55" height="7.55"/>
                <rect class="cls-16" x="233.9" y="334.35" width="7.55" height="7.55"/>
                <rect class="cls-16" x="233.9" y="268.29" width="7.55" height="7.55"/>
                <rect class="cls-16" x="513.91" y="268.29" width="7.55" height="7.55"/>
                <rect class="cls-16" x="233.9" y="205.07" width="7.55" height="7.55"/>
              </g>
            </g>
            <g>
              <g>
                <path class="cls-5" d="M328.23,262.41c0,7.82-6.34,14.17-14.17,14.17s-14.17-6.34-14.17-14.17,6.34-14.17,14.17-14.17,14.17,6.34,14.17,14.17Z"/>
                <path class="cls-5" d="M447.4,262.41c0,7.82-6.34,14.17-14.16,14.17s-14.16-6.34-14.16-14.17,6.34-14.17,14.16-14.17,14.16,6.34,14.16,14.17Z"/>
              </g>
              <path class="cls-5" d="M354.51,279.43c-.02,.36-.05,.71-.05,1.07,0,10.6,8.59,19.19,19.19,19.19s19.19-8.59,19.19-19.19c0-.36-.04-.71-.06-1.07h-38.27Z"/>
            </g>
          </g>
        </g>
        <g>
          <path class="cls-7" d="M674.19,668.7s-2.75-15.51,59.16-8.16c61.91,7.34,77.05,37.54,71.55,43.66-5.5,6.12-49.53,11.02-72.92,2.45-23.39-8.57-53.66-25.71-57.79-37.95Z"/>
          <path class="cls-5" d="M682.35,663.8s12.24-36.72,67.32-29.38c55.08,7.34,53.86,58.75,48.97,64.87-4.9,6.12-44.07,11.02-64.88,2.45-20.81-8.57-47.74-25.71-51.41-37.95Z"/>
          <path class="cls-9" d="M749.67,634.43c-18.99-2.53-32.88,.17-42.94,4.81,11.36-5.23,26.34,8.31,29.41,17.9,4.93,15.37,1.54,32.32,8.16,47.63,21.35,4.05,50.18-.26,54.33-5.45,4.9-6.12,6.12-57.53-48.97-64.87Z"/>
          <path class="cls-8" d="M739.88,682.57c-38.26-5.03-47-21.24-48.1-32.92-7.12,7.23-9.43,14.15-9.43,14.15,3.67,12.24,30.6,29.38,51.41,37.95,20.81,8.57,59.98,3.67,64.88-2.45,3.28-4.1,4.88-28.5-10.94-46.38,1.3,15.2-3.2,35.52-47.82,29.65Z"/>
        </g>
        <g>
          <path class="cls-7" d="M717.22,724.26c-5.67-4.4-12.84-8.95-15.6-10.96-11.37-8.34-22.56-16.67-33.57-25.01-13.33-10.28-26.4-20.56-39.19-30.84-4.65-3.79-10.88-6.87-13.87-6.85l-42.27,.26h0s-1.51,0-1.51,0l-29.84,.18h0l-2.92,.02h0s-30.81,.19-30.81,.19h-.56s-28.79,.18-28.79,.18l-2.56,.02h0l-28.44,.17h0l-2.23,.02-29.26,.18h-.36l-29.85,.18h0l-2.52,.02h0l-23.2,.14h0l-2.46,.02h0s-34.08,.21-34.08,.21h-1.57s0,0,0,0l-67.34,.41h-1.93s0,.01,0,.01l-28.44,.17h0l-2.92,.02h0l-28.44,.17h-1.81s-29.55,.19-29.55,.19h0s-2.92,.02-2.92,.02h0l-28.44,.17h0l-2.92,.02h0l-16.32,.1c-3,.02-8.75,3.18-12.8,7.02-15.81,14.68-32.12,29.36-48.91,44.05-4.89,4.19-17.66,14.38-25.16,22.15l.05,11.74c6.5,1.02,16.73,.64,21.35,.61l644.13-3.89c8.38-.05,16.79-.06,25.14-.15,.77,0,1.71,.05,2.72,.1l-.05-11.01Z"/>
          <g>
            <path class="cls-16" d="M32.76,719.08c7.31-7.57,19.76-17.5,24.52-21.57,16.36-14.31,32.25-28.62,47.65-42.93,3.95-3.74,9.55-6.82,12.48-6.83l491.31-2.97c2.92-.02,8.99,2.99,13.52,6.68,12.46,10.02,25.19,20.03,38.19,30.05,10.73,8.13,21.63,16.25,32.71,24.36,2.69,1.95,9.67,6.39,15.2,10.68l.05,10.73c-.98-.05-1.91-.11-2.65-.1-8.14,.09-16.33,.1-24.49,.15l-627.61,3.79c-4.51,.03-14.47,.39-20.81-.59l-.05-11.44Z"/>
            <path class="cls-16" d="M653.97,701.86l33.4-.2c-1.4-1.03-2.81-2.06-4.2-3.09l-48.47,.29-16.95-14.55,19.81-.12,1.03,.87,.5-.88,24.66-.15c-1.11-.84-2.22-1.69-3.32-2.53-.25-.19-.49-.38-.74-.56l-22.74,.14-13.7-11.73,21.28-.13c-1.32-1.03-2.63-2.06-3.94-3.09l-37.34,.23-11.4-10.33,35.79-.21c-1.28-1.03-2.55-2.06-3.83-3.09l-17.51,.11,.22-.4-8.42-7.58-2.84,.02,8.82,7.98-28.79,.18,.24-.4-7.99-7.59-2.84,.02,8.36,7.99-28.79,.18,.26-.41-7.54-7.59-2.84,.02,7.9,7.99-28.79,.17,.28-.4-7.1-7.59-2.84,.02,7.44,7.99-28.79,.18,.31-.4-6.66-7.59-2.84,.02,6.97,8-28.79,.17,.33-.4-6.22-7.6-2.84,.02,6.5,8-27.79,.17,.62-.57-4.87-7.44-2.67,.02,5.2,8-30.78,.19-3.5-8.02-2.46,.02,3.46,8.02-11.55,.07-.02-.29h-2.29l.02,.3-14.2,.09,1.98-8.05h-2.4s-2.01,8.06-2.01,8.06l-34.25,.21,4.2-8.06h-2.67s-4.24,8.08-4.24,8.08l-35.49,.22,5.63-8.07-2.84,.02-5.67,8.07-28.13,.17,6.09-8.08-2.84,.02-6.14,8.08-28.13,.17,6.56-8.08-2.84,.02-6.6,8.08-28.13,.17,7.02-8.08-2.84,.02-7.06,8.08-28.13,.17,7.49-8.08-2.84,.02-7.53,8.08-28.13,.17,7.95-8.08-2.84,.02-7.99,8.08-21.75,.14c-1.11,1.04-2.23,2.09-3.35,3.13l13.19-.08-10.8,10.45-13.72,.08c-1.15,1.05-2.29,2.09-3.45,3.14l5.93-.04-12.82,11.89-6.38,.04c-1.18,1.05-2.37,2.09-3.56,3.14l25.74-.16-15.96,14.75-26.9,.17c-1.17,.98-2.41,2.03-3.71,3.14l19.21-.11-17.16,15.12c1.15-.01,2.25-.02,3.25-.04l17.06-15.1,30.71-.18-16.25,15.07c1.08,0,2.16-.02,3.23-.02l16.17-15.07,34.64-.2-14.99,14.78,.23,.28c.9,0,1.81,0,2.71-.02l15.2-15.07,30.71-.18-14.15,14.78,.25,.28c.9,0,1.81-.02,2.71-.02l14.34-15.06,30.71-.18-13.3,14.77,.26,.28c.9,0,1.81-.01,2.71-.02l13.48-15.06,30.71-.18-12.45,14.77,.28,.28c.9,0,1.81,0,2.71-.02l12.61-15.04,30.71-.19-11.6,14.76,.29,.28c.9,0,1.81,0,2.71-.02l11.75-15.04,30.71-.19-10.75,14.76,.31,.28c.9,0,1.81-.01,2.71-.02l10.88-15.04,170.39-1.02,13.92,14.89c1.07-.01,2.15-.02,3.23-.02l-14-14.89,30.71-.18,14.78,14.89c1.07,0,2.15-.02,3.23-.02l-14.86-14.88,30.71-.18,15.65,14.88c1.08,0,2.15-.01,3.23-.02l-15.73-14.88,30.72-.18,16.51,14.87c.11,0,.23,0,.35,0,.96,0,1.92,0,2.88-.02l-16.59-14.87,30.71-.18,17.37,14.87c1.08,0,2.15-.01,3.23-.02l-17.46-14.87,30.71-.18,18.24,14.86c1.08,0,2.15-.01,3.23-.02l-18.32-14.86Zm-86.63-2.59l-15.26-14.56,19.81-.12,.93,.87,.61-.88,8.44-.05,16.02,14.56-30.55,.18Zm-141.04-28.73l34.11-.2,10.22,11.75-36.2,.22-8.13-11.77Zm5.28,11.78l-32.47,.2-5.48-11.78,29.88-.18,8.07,11.77Zm31.8-12l29-.17,10.91,11.74-29.62,.18-10.28-11.75Zm31.97-.2l29-.17,11.59,11.75-29.62,.18-10.97-11.75Zm31.98-.19l29-.18,12.27,11.74-29.62,.18-11.65-11.74Zm31.97-.19l29-.17,12.95,11.73-29.62,.18-12.34-11.74Zm-25.65,29.74l-14.41-14.56,19.81-.12,.88,.87,.66-.88,8.43-.05,15.18,14.57-30.55,.18Zm-33.68,.21l-13.56-14.58,19.81-.12,.83,.87,.71-.88,8.44-.05,14.33,14.57-30.55,.19Zm-33.68,.2l-12.72-14.58,19.81-.12,.78,.87,.75-.88,8.44-.05,13.48,14.57-30.54,.18Zm-36.57,.22l-10.1-14.6,30.89-.18,12.64,14.58-33.43,.2Zm-52.75,.31l-.96-14.65,41.75-.26-.64,.54,9.67,14.06-49.82,.3Zm-52.58,.32l7.81-14.16-.72-.54,42.11-.26,.9,14.65-50.09,.3Zm-166.23-28.58l29-.18-10.78,11.88-29.62,.18,11.4-11.88Zm-14.44,11.9l-29.62,.18,12.08-11.88,29-.18-11.46,11.88Zm46.41-12.09l6.64-.04,1.06,1.27,1.12-1.29,20.17-.12-10.1,11.87-29.62,.18,10.72-11.88Zm31.98-.19l29-.17-9.42,11.86-29.62,.18,10.03-11.88Zm31.97-.19l29-.18-8.73,11.87-29.62,.18,9.35-11.87Zm31.98-.19l32.91-.2-6.62,11.85-34.96,.21,8.67-11.86Zm35.7-.22l33.29-.2-3.22,11.84-36.63,.22,6.57-11.85Zm-32.96,29.78l10.67-14.72,13.76-.09,.13,.1,.06-.1,16.2-.09-8.18,14.71-10.73,.06-.32-.29-.21,.29-21.38,.13Zm-33.68,.21l11.52-14.73,7.74-.05,.38,.37,.29-.38,21.38-.13-10.75,14.72-8.63,.05-.3-.29-.23,.29-21.38,.13Zm-33.68,.2l12.37-14.73,7.74-.05,.36,.38,.31-.38,21.38-.13-11.6,14.73-8.63,.05-.29-.29-.24,.3-21.38,.13Zm-33.68,.2l13.21-14.73,7.74-.05,.33,.38,.33-.39,21.38-.13-12.44,14.73-8.63,.05-.27-.29-.26,.3-21.38,.13Zm-33.68,.2l14.06-14.74,7.74-.05,.31,.38,.35-.38,21.38-.13-13.29,14.73-8.63,.05-.25-.29-.28,.29-21.38,.13Zm-33.68,.2l14.9-14.74,7.74-.05,.29,.38,.37-.38,21.38-.13-14.14,14.74-8.63,.05-.24-.29-.29,.29-21.38,.13Zm-22.98-14.51l12.78-.08,.27,.38,.39-.38,21.38-.13-14.98,14.75-35.72,.21,15.88-14.75Zm25.79-15.09l-12.14,11.88-29.47,.18,12.76-11.89,28.86-.17Zm22.1-13.64l-10.18,10.45-29.55,.18,10.74-10.45,28.99-.18Zm31.19-.19l-9.58,10.45-28.83,.18,10.13-10.46,28.29-.17Zm31.2-.18l-8.98,10.45-28.84,.17,9.52-10.45,28.29-.17Zm31.2-.19l-8.38,10.45-28.84,.17,8.93-10.44,28.29-.17Zm31.19-.19l-7.78,10.43-28.83,.18,8.33-10.45,28.29-.17Zm31.2-.18l-7.18,10.43-28.84,.18,7.73-10.44,28.29-.16Zm43.28-.26l-5.46,10.42-42.04,.26,7.13-10.43,40.38-.24Zm27.99-.17l.66,10.39-31.29,.19,5.41-10.43,25.23-.15Zm18.49,13.4l5.43,11.78-42.08,.26,3.17-11.84,33.48-.2Zm9.57-13.56l6.55,10.35-14.96,.09-.14-.3-.55,.3-15.95,.1-.7-10.39,25.75-.15Zm32.35-.2l8.35,10.34-17.12,.1-.23-.34-.39,.34-13.63,.08-6.61-10.35,29.63-.18Zm31.2-.19l8.95,10.34-28.84,.17-8.4-10.34,28.29-.17Zm31.2-.19l9.55,10.34-28.84,.17-9-10.34,28.29-.17Zm31.2-.19l10.15,10.33-28.84,.17-9.6-10.33,28.29-.17Zm31.2-.19l10.74,10.33-28.84,.18-10.2-10.33,28.29-.17Zm42.54,10.14l-28.84,.17-10.8-10.32,28.29-.17,11.35,10.32Zm4,14.91l-13.02-11.73,29-.17,13.63,11.73-29.62,.18Zm27.27,17.61l-30.55,.19-16.1-14.56,19.81-.12,.97,.87,.56-.88,8.44-.05,16.87,14.55Z"/>
            <path class="cls-7" d="M653.78,704.13l33.54-.2c-1.41-1.03-2.81-2.06-4.2-3.09l-48.66,.29-16.95-14.56,19.88-.12,1.03,.87,.51-.88,24.75-.15c-1.11-.84-2.22-1.68-3.32-2.53-.25-.18-.49-.38-.74-.56l-22.83,.13-13.69-11.73,21.36-.13c-1.32-1.03-2.63-2.06-3.95-3.09l-37.49,.22-11.4-10.32,35.93-.22c-1.28-1.03-2.56-2.06-3.83-3.1l-17.58,.11,.22-.4-8.42-7.58-2.86,.02,8.83,7.98-28.91,.18,.24-.4-7.98-7.59-2.86,.02,8.37,7.99-28.92,.17,.27-.4-7.55-7.59-2.85,.02,7.9,7.99-28.91,.17,.29-.4-7.1-7.59-2.85,.02,7.44,7.99-28.91,.18,.31-.4-6.67-7.6-2.86,.02,6.98,7.99-28.92,.17,.33-.4-6.22-7.59h-2.85s6.51,8.01,6.51,8.01l-27.91,.17,.63-.56-4.87-7.45-2.68,.02,5.19,8.01-30.91,.19-3.49-8.02-2.47,.02,3.45,8.01-11.6,.07-.02-.29h-2.3s.02,.31,.02,.31l-14.25,.08,2.01-8.04h-2.41s-2.04,8.06-2.04,8.06l-34.4,.21,4.24-8.06-2.68,.02-4.28,8.06-35.64,.21,5.67-8.07-2.86,.02-5.71,8.07-28.25,.17,6.14-8.08-2.86,.02-6.18,8.08-28.25,.17,6.6-8.08-2.86,.02-6.64,8.07-28.25,.18,7.06-8.08-2.86,.02-7.1,8.08-28.25,.17,7.52-8.08-2.86,.02-7.57,8.08-28.25,.17,7.99-8.08-2.86,.02-8.03,8.09-21.84,.13c-1.12,1.04-2.24,2.09-3.36,3.13l13.25-.08-10.85,10.46-13.78,.08c-1.15,1.05-2.31,2.09-3.46,3.14l5.95-.04-12.88,11.89-6.4,.04c-1.19,1.05-2.38,2.09-3.57,3.14l25.84-.16-16.03,14.75-27,.17c-1.18,.99-2.42,2.03-3.73,3.14l19.29-.12-17.24,15.12c1.16,0,2.25-.02,3.27-.04l17.14-15.11,30.83-.18-16.32,15.07c1.08,0,2.16-.01,3.25-.02l16.24-15.07,34.78-.21-15.07,14.78,.23,.29c.91,0,1.81-.01,2.72-.02l15.28-15.07,30.83-.18-14.22,14.78,.25,.28c.91,0,1.81,0,2.72-.01l14.41-15.06,30.83-.19-13.37,14.77,.26,.28c.91,0,1.81,0,2.72-.02l13.55-15.06,30.83-.18-12.52,14.77,.28,.28c.9,0,1.81,0,2.72-.01l12.69-15.05,30.83-.18-11.67,14.76,.29,.28c.91,0,1.81,0,2.72-.02l11.82-15.04,30.83-.18-10.83,14.76,.31,.28c.91,0,1.81-.01,2.72-.02l10.96-15.04,171.04-1.03,13.92,14.89c1.08,0,2.16-.02,3.24-.02l-14.01-14.89,30.83-.18,14.79,14.89c1.08,0,2.17-.02,3.24-.02l-14.87-14.89,30.83-.19,15.65,14.88c1.08,0,2.16-.01,3.24-.02l-15.73-14.88,30.83-.18,16.51,14.87h.35c.97,0,1.93-.01,2.9-.02l-16.6-14.87,30.83-.19,17.38,14.87c1.08,0,2.16-.02,3.24-.02l-17.46-14.86,30.83-.19,18.24,14.86c1.08,0,2.16-.02,3.24-.02l-18.32-14.86Zm-86.96-2.6l-15.26-14.56,19.89-.12,.93,.87,.61-.88,8.47-.05,16.03,14.56-30.67,.18Zm-141.49-28.73l34.25-.21,10.23,11.75-36.35,.22-8.13-11.77Zm5.27,11.79l-32.6,.19-5.47-11.78,30-.18,8.07,11.77Zm31.97-12.01l29.12-.17,10.91,11.74-29.74,.18-10.29-11.75Zm32.11-.19l29.12-.18,11.59,11.74-29.74,.18-10.97-11.75Zm32.1-.19l29.12-.18,12.27,11.74-29.74,.18-11.65-11.74Zm32.1-.19l29.12-.18,12.95,11.73-29.73,.18-12.34-11.73Zm-25.86,29.74l-14.41-14.57,19.88-.12,.88,.88,.66-.88,8.47-.05,15.18,14.56-30.66,.18Zm-33.81,.2l-13.57-14.57,19.88-.12,.83,.87,.71-.88,8.47-.05,14.34,14.57-30.66,.18Zm-33.81,.21l-12.72-14.58,19.88-.12,.78,.87,.77-.88,8.47-.05,13.49,14.58-30.67,.18Zm-36.71,.22l-10.09-14.6,31.01-.19,12.65,14.58-33.56,.2Zm-52.95,.32l-.93-14.65,41.92-.26-.64,.54,9.66,14.07-50,.3Zm-52.79,.32l7.87-14.17-.72-.53,42.27-.26,.87,14.65-50.29,.31Zm-166.84-28.59l29.12-.17-10.84,11.88-29.73,.18,11.46-11.89Zm-14.51,11.9l-29.73,.18,12.14-11.89,29.12-.17-11.52,11.88Zm46.61-12.09l6.67-.04,1.06,1.28,1.13-1.29,20.26-.12-10.16,11.88-29.73,.18,10.77-11.88Zm32.1-.2l29.12-.17-9.47,11.87-29.73,.18,10.09-11.88Zm32.1-.19l29.12-.18-8.79,11.87-29.73,.18,9.41-11.87Zm32.1-.19l33.05-.2-6.68,11.86-35.1,.21,8.73-11.86Zm35.85-.22l33.43-.2-3.26,11.83-36.78,.22,6.62-11.85Zm-33.15,29.78l10.75-14.72,13.81-.09,.13,.1,.06-.1,16.26-.1-8.24,14.71-10.77,.07-.32-.29-.21,.29-21.46,.13Zm-33.81,.2l11.59-14.72,7.77-.05,.38,.37,.29-.38,21.47-.13-10.83,14.73-8.67,.05-.3-.29-.23,.29-21.47,.13Zm-33.81,.21l12.44-14.73,7.77-.04,.36,.37,.31-.38,21.46-.13-11.67,14.73-8.67,.05-.29-.29-.24,.29-21.47,.13Zm-33.81,.2l13.28-14.74,7.77-.05,.34,.38,.33-.38,21.46-.13-12.51,14.73-8.67,.05-.27-.29-.26,.29-21.47,.13Zm-33.81,.2l14.13-14.74,7.77-.05,.31,.38,.35-.38,21.47-.13-13.36,14.74-8.67,.06-.25-.29-.28,.3-21.47,.13Zm-33.81,.2l14.97-14.74,7.77-.05,.29,.38,.37-.38,21.46-.13-14.21,14.74-8.67,.05-.23-.29-.3,.3-21.46,.13Zm-23.06-14.52l12.84-.07,.27,.38,.4-.39,21.46-.13-15.05,14.74-35.86,.22,15.95-14.75Zm25.91-15.08l-12.2,11.89-29.59,.17,12.82-11.89,28.97-.17Zm22.21-13.64l-10.23,10.45-29.67,.18,10.79-10.45,29.11-.18Zm31.33-.19l-9.63,10.45-28.95,.18,10.18-10.45,28.41-.17Zm31.33-.19l-9.03,10.45-28.95,.18,9.58-10.45,28.41-.17Zm31.33-.19l-8.43,10.45-28.95,.17,8.98-10.45,28.41-.17Zm31.32-.18l-7.83,10.44-28.95,.17,8.38-10.44,28.41-.17Zm31.32-.19l-7.24,10.43-28.95,.18,7.78-10.44,28.41-.17Zm43.46-.27l-5.51,10.43-42.22,.26,7.18-10.43,40.55-.25Zm28.11-.17l.63,10.39-31.42,.19,5.46-10.43,25.33-.15Zm18.53,13.4l5.42,11.78-42.25,.26,3.21-11.83,33.62-.2Zm9.64-13.57l6.56,10.35-15.03,.09-.14-.3-.55,.31-16.02,.1-.67-10.39,25.85-.16Zm32.48-.2l8.35,10.34-17.19,.11-.23-.33-.39,.34-13.69,.08-6.61-10.35,29.75-.18Zm31.33-.19l8.94,10.34-28.96,.18-8.41-10.34,28.42-.18Zm31.32-.18l9.55,10.34-28.96,.17-9-10.34,28.41-.17Zm31.32-.19l10.15,10.33-28.96,.18-9.6-10.34,28.41-.17Zm31.33-.19l10.75,10.32-28.96,.17-10.2-10.33,28.41-.17Zm42.67,10.13l-28.96,.18-10.8-10.32,28.41-.17,11.35,10.32Zm3.96,14.91l-13.02-11.73,29.12-.18,13.63,11.73-29.74,.18Zm27.3,17.61l-30.66,.18-16.1-14.56,19.89-.12,.98,.87,.56-.88,8.47-.05,16.87,14.56Z"/>
            <g class="cls-19">
              <polygon class="cls-17" points="271.43 660.22 265.36 668.39 265.27 668.39 273 657.95 301.29 657.79 299.75 660.05 271.43 660.22"/>
              <polygon class="cls-17" points="187.16 671.98 185.12 674.25 156.1 674.42 146.86 684.03 146.76 684.03 158.16 672.15 187.16 671.98"/>
              <polygon class="cls-17" points="196.78 671.92 197.83 673.19 198.96 671.91 219.13 671.79 217.23 674.06 197.06 674.18 195.93 675.47 194.87 674.19 188.21 674.23 179.52 683.84 179.42 683.84 190.14 671.96 196.78 671.92"/>
              <polygon class="cls-17" points="251.11 671.6 249.33 673.86 220.31 674.04 212.17 683.64 212.08 683.64 222.11 671.77 251.11 671.6"/>
              <polygon class="cls-17" points="422.53 672.81 394.66 672.98 393.62 670.73 423.51 670.55 431.58 682.32 429.04 682.33 422.53 672.81"/>
              <polygon class="cls-17" points="389.94 673.01 356.97 673.21 357.57 670.95 391.05 670.75 396.48 682.53 394.31 682.54 389.94 673.01"/>
              <polygon class="cls-17" points="459.58 672.59 427.83 672.79 426.3 670.53 460.4 670.33 470.63 682.08 467.82 682.1 459.58 672.59"/>
              <polygon class="cls-17" points="252.42 673.84 244.83 683.44 244.73 683.44 254.08 671.58 283.08 671.4 281.44 673.67 252.42 673.84"/>
              <polygon class="cls-17" points="351.17 682.8 353.8 673.23 320.53 673.43 321.76 671.17 355.05 670.96 351.83 682.8 351.17 682.8"/>
              <polygon class="cls-17" points="123.21 672.37 120.91 674.64 92.03 674.81 81.69 684.43 81.59 684.43 94.35 672.54 123.21 672.37"/>
              <polygon class="cls-17" points="312.18 683.04 317.57 673.45 284.52 673.65 277.48 683.25 277.39 683.25 286.06 671.38 318.97 671.18 312.35 683.03 312.18 683.04"/>
              <polygon class="cls-17" points="491.68 672.4 465.32 672.56 463.38 670.31 492.38 670.14 503.28 681.88 500.48 681.9 491.68 672.4"/>
              <polygon class="cls-17" points="145.31 658.72 143.12 661 114.1 661.17 105.67 669.36 105.58 669.36 116.32 658.9 145.31 658.72"/>
              <polygon class="cls-17" points="373.22 667.74 371.91 667.74 371.41 659.62 346.18 659.77 347.33 657.5 372.56 657.35 373.22 667.74"/>
              <polygon class="cls-17" points="407.17 667.54 404.69 667.55 399.58 659.45 375.02 659.59 374.87 657.34 400.62 657.18 407.17 667.54"/>
              <polygon class="cls-17" points="339.11 667.94 339.01 667.95 343.3 659.79 302.76 660.03 297.16 668.2 297.06 668.2 304.19 657.77 344.57 657.52 339.11 667.94"/>
              <polygon class="cls-17" points="176.51 658.53 174.45 660.8 146.13 660.98 138.19 669.16 138.09 669.16 148.22 658.71 176.51 658.53"/>
              <polygon class="cls-17" points="268.42 660.24 240.11 660.41 233.57 668.58 233.48 668.58 241.8 658.14 270.09 657.97 268.42 660.24"/>
              <polygon class="cls-17" points="205.77 660.62 177.46 660.79 169.98 668.97 169.89 668.97 179.41 658.52 207.7 658.35 205.77 660.62"/>
              <polygon class="cls-17" points="237.1 660.43 208.78 660.6 201.78 668.77 201.68 668.77 210.61 658.33 238.9 658.16 237.1 660.43"/>
              <polygon class="cls-17" points="155.18 672.17 153.02 674.44 124 674.62 114.2 684.23 114.11 684.23 126.19 672.35 155.18 672.17"/>
              <polygon class="cls-17" points="133.93 649.9 134.02 649.9 128.29 655.71 128.2 655.71 133.93 649.9"/>
              <polygon class="cls-17" points="225.98 649.34 226.07 649.34 221.34 655.15 221.25 655.15 225.98 649.34"/>
              <polygon class="cls-17" points="164.61 649.71 164.7 649.71 159.31 655.52 159.22 655.52 164.61 649.71"/>
              <polygon class="cls-17" points="287.34 648.97 287.43 648.97 283.37 654.78 283.28 654.78 287.34 648.97"/>
              <polygon class="cls-17" points="195.3 649.53 195.39 649.53 190.32 655.34 190.23 655.34 195.3 649.53"/>
              <polygon class="cls-17" points="256.66 649.16 256.75 649.16 252.35 654.96 252.26 654.96 256.66 649.16"/>
              <path class="cls-17" d="M591.84,656.03l32.92-.19c.92,.75,1.85,1.49,2.78,2.24l-33.24,.2-2.46-2.25Z"/>
              <path class="cls-17" d="M638.41,687.32l-1.03-.87-17.06,.1-2.58-2.24,19.81-.12,1.03,.87,.5-.88,21.64-.13c.98,.75,1.96,1.5,2.94,2.24l-24.75,.15-.51,.88Z"/>
              <path class="cls-17" d="M47.98,705.52l19.04-.11-2.55,2.27-19.19,.12c.94-.8,1.82-1.54,2.7-2.28Z"/>
              <path class="cls-17" d="M623.25,669.35l18.34-.11c.95,.75,1.9,1.5,2.86,2.24l-18.6,.11-2.59-2.24Z"/>
              <polygon class="cls-17" points="208.71 686.78 209.05 687.16 209.37 686.77 230.75 686.65 228.87 688.91 207.5 689.04 207.17 689.42 206.83 689.04 199.07 689.09 187.86 701.56 187.77 701.56 200.98 686.83 208.71 686.78"/>
              <polygon class="cls-17" points="620.1 671.62 593.74 671.79 591.27 669.54 620.27 669.37 633.91 681.1 631.1 681.11 620.1 671.62"/>
              <polygon class="cls-17" points="587.99 671.82 561.63 671.98 559.3 669.73 588.3 669.56 601.25 681.29 598.45 681.31 587.99 671.82"/>
              <polygon class="cls-17" points="274.38 686.38 274.76 686.76 275.05 686.38 296.42 686.25 294.8 688.51 273.43 688.65 273.15 689.02 272.77 688.65 265 688.7 255.23 701.15 255.13 701.16 266.65 686.43 274.38 686.38"/>
              <polygon class="cls-17" points="555.89 672.01 529.53 672.17 527.33 669.93 556.33 669.75 568.6 681.49 565.79 681.51 555.89 672.01"/>
              <polygon class="cls-17" points="523.78 672.2 497.43 672.37 495.35 670.12 524.35 669.94 535.94 681.69 533.13 681.7 523.78 672.2"/>
              <polygon class="cls-17" points="143.04 687.17 143.33 687.55 143.7 687.17 165.08 687.04 162.94 689.31 141.57 689.44 141.2 689.82 140.9 689.44 133.14 689.49 120.5 701.96 120.4 701.96 135.3 687.22 143.04 687.17"/>
              <polygon class="cls-17" points="175.88 686.98 176.19 687.35 176.54 686.97 197.92 686.85 195.9 689.11 174.53 689.24 174.18 689.62 173.87 689.24 166.1 689.3 154.18 701.76 154.08 701.76 168.14 687.02 175.88 686.98"/>
              <polygon class="cls-17" points="241.55 686.58 241.9 686.96 242.21 686.58 263.59 686.45 261.84 688.71 240.47 688.85 240.16 689.22 239.8 688.85 232.04 688.89 221.55 701.36 221.45 701.36 233.81 686.63 241.55 686.58"/>
              <polygon class="cls-17" points="110.2 687.37 110.47 687.75 110.87 687.37 132.25 687.24 129.97 689.51 108.6 689.64 108.21 690.02 107.94 689.64 95.1 689.72 81.64 702.2 81.54 702.2 97.42 687.45 110.2 687.37"/>
              <path class="cls-17" d="M113.42,658.92l-2.32,2.27-13.16,.08c.81-.75,1.63-1.52,2.44-2.27l13.04-.08Z"/>
              <path class="cls-17" d="M620.11,702.07l30.71-.18,18.24,14.86c.08,0,.16,0,.25,0l2.79,2.24c-1.08,0-2.16,.01-3.24,.02l-18.24-14.86-27.91,.17-2.6-2.24Z"/>
              <path class="cls-17" d="M653.97,701.86l30.3-.18c1.01,.74,2.03,1.49,3.05,2.24l-30.62,.18-2.73-2.24Z"/>
              <path class="cls-17" d="M552.38,702.48l30.72-.18,16.51,14.87c.08,0,.16,0,.25,0l2.53,2.24c-.97,0-1.93,.01-2.9,.02h-.35l-16.51-14.87-27.91,.17-2.34-2.25Z"/>
              <polygon class="cls-17" points="604.06 652.84 601.4 652.85 595.07 647.12 597.7 647.1 604.06 652.84"/>
              <polygon class="cls-17" points="448.99 653.78 446.32 653.79 441.66 648.04 444.3 648.02 448.99 653.78"/>
              <polygon class="cls-17" points="542.03 653.22 539.37 653.23 533.7 647.49 536.34 647.47 542.03 653.22"/>
              <polygon class="cls-17" points="573.05 653.03 570.38 653.04 564.38 647.3 567.02 647.29 573.05 653.03"/>
              <polygon class="cls-17" points="480.01 653.59 477.34 653.6 472.34 647.85 474.98 647.84 480.01 653.59"/>
              <polygon class="cls-17" points="511.02 653.4 508.35 653.42 503.02 647.67 505.66 647.65 511.02 653.4"/>
              <path class="cls-17" d="M518.52,702.68l30.71-.18,15.65,14.88h.25l2.4,2.24c-1.08,0-2.16,.01-3.24,.02l-15.65-14.88-27.91,.17-2.21-2.24Z"/>
              <polygon class="cls-17" points="441.31 667.33 438.58 667.34 432.07 659.25 404.75 659.42 403.34 657.17 432.97 656.99 441.31 667.33"/>
              <path class="cls-17" d="M123.9,720.03c.9,0,1.81,0,2.71-.02l15.2-15.07,30.71-.18-2.14,2.28-30.73,.18-15.28,15.07c-.91,0-1.81,0-2.72,.02l-.23-.29,2.29-2.22,.18,.23Z"/>
              <path class="cls-17" d="M87.85,720.25l16.17-15.07,34.64-.2-2.27,2.28-34.68,.2-16.24,15.07c-1.08,0-2.16,.02-3.25,.02l2.49-2.27c1.04,0,2.09-.02,3.13-.02Z"/>
              <path class="cls-17" d="M158.63,719.83c.9,0,1.81-.02,2.71-.02l14.34-15.06,30.71-.18-2.01,2.27-30.73,.19-14.41,15.06c-.91,0-1.82,0-2.72,.01l-.25-.28,2.16-2.22,.2,.23Z"/>
              <path class="cls-17" d="M53.1,720.49l17.06-15.1,30.71-.18-2.42,2.27-30.73,.18-17.14,15.11c-1.01,.02-2.11,.03-3.27,.04l2.62-2.28c1.12,0,2.18-.02,3.15-.04Z"/>
              <path class="cls-17" d="M484.66,702.88l30.71-.18,14.78,14.89c.08,0,.17,0,.24,0l2.28,2.25c-1.08,0-2.16,.01-3.24,.02l-14.79-14.89-27.91,.16-2.08-2.24Z"/>
              <path class="cls-17" d="M262.8,719.2c.9,0,1.81,0,2.71-.02l11.75-15.04,30.71-.19-1.62,2.27-30.73,.18-11.82,15.04c-.91,0-1.81,.01-2.72,.02l-.29-.28,1.78-2.21,.23,.22Z"/>
              <path class="cls-17" d="M297.53,718.99c.9,0,1.81-.01,2.71-.02l10.88-15.04,170.39-1.02,13.92,14.89c.08,0,.16,0,.24,0l2.15,2.24c-1.08,0-2.16,.02-3.24,.02l-13.92-14.89-171.04,1.04-10.96,15.04c-.91,0-1.82,.01-2.72,.02l-.31-.28,1.65-2.22,.25,.23Z"/>
              <path class="cls-17" d="M193.35,719.62c.9,0,1.81-.01,2.71-.02l13.48-15.06,30.71-.18-1.88,2.27-30.73,.18-13.55,15.06c-.91,0-1.81,.01-2.72,.02l-.26-.28,2.03-2.22,.21,.23Z"/>
              <path class="cls-17" d="M228.08,719.41c.9,0,1.81,0,2.71-.02l12.61-15.04,30.71-.19-1.75,2.27-30.73,.18-12.69,15.05c-.91,0-1.81,0-2.72,.01l-.28-.28,1.91-2.22,.22,.22Z"/>
              <path class="cls-17" d="M586.25,702.27l30.71-.18,17.37,14.87h.25l2.66,2.24c-1.08,0-2.16,.02-3.24,.02l-17.38-14.87-27.91,.17-2.47-2.25Z"/>
              <polygon class="cls-17" points="419.49 653.95 417.07 653.97 413.35 648.21 415.74 648.2 419.49 653.95"/>
              <polygon class="cls-17" points="581.46 686.78 572.99 686.84 572.38 687.72 571.45 686.85 554.39 686.95 552.08 684.71 571.88 684.59 572.81 685.46 573.42 684.58 581.86 684.53 597.88 699.08 594.99 699.1 581.46 686.78"/>
              <polygon class="cls-17" points="614.43 686.59 605.96 686.64 605.4 687.52 604.42 686.65 587.36 686.75 584.91 684.51 604.72 684.39 605.7 685.26 606.26 684.38 614.69 684.33 631.56 698.88 628.67 698.9 614.43 686.59"/>
              <polygon class="cls-17" points="482.56 687.38 474.09 687.43 473.33 688.32 472.55 687.44 455.5 687.55 453.57 685.3 473.38 685.18 474.15 686.05 474.91 685.17 483.35 685.12 496.83 699.69 493.95 699.71 482.56 687.38"/>
              <polygon class="cls-17" points="515.53 687.18 507.06 687.24 506.35 688.12 505.52 687.24 488.46 687.35 486.41 685.1 506.21 684.98 507.04 685.86 507.75 684.97 516.19 684.92 530.52 699.49 527.63 699.51 515.53 687.18"/>
              <polygon class="cls-17" points="548.5 686.98 540.03 687.04 539.36 687.92 538.48 687.04 521.43 687.15 519.24 684.91 539.05 684.78 539.93 685.66 540.58 684.78 549.02 684.72 564.2 699.29 561.31 699.31 548.5 686.98"/>
              <polygon class="cls-17" points="473.11 667.13 470.38 667.15 463.39 659.06 437.67 659.22 435.87 656.97 464.16 656.8 473.11 667.13"/>
              <polygon class="cls-17" points="504.9 666.95 502.17 666.96 494.72 658.87 469 659.03 467.06 656.78 495.36 656.61 504.9 666.95"/>
              <polygon class="cls-17" points="536.7 666.75 533.96 666.77 526.04 658.69 500.32 658.84 498.26 656.6 526.55 656.42 536.7 666.75"/>
              <polygon class="cls-17" points="568.49 666.56 565.76 666.58 557.37 658.5 531.65 658.65 529.46 656.41 557.75 656.23 568.49 666.56"/>
              <polygon class="cls-17" points="600.29 666.37 597.56 666.38 588.69 658.31 562.97 658.46 560.65 656.22 588.94 656.05 600.29 666.37"/>
              <polygon class="cls-17" points="355.73 654.34 355.1 654.34 356.56 648.55 357.19 648.55 355.73 654.34"/>
              <polygon class="cls-17" points="449.6 687.58 421.15 687.75 419.62 685.51 450.52 685.32 463.15 699.9 460.26 699.92 449.6 687.58"/>
              <polygon class="cls-17" points="318.77 654.56 318.62 654.56 321.68 648.77 321.83 648.76 318.77 654.56"/>
              <polygon class="cls-17" points="386.21 654.15 384.15 654.17 381.67 648.41 383.72 648.39 386.21 654.15"/>
              <path class="cls-17" d="M91.38,672.55l-2.43,2.27-5.86,.04c.84-.76,1.68-1.51,2.51-2.28l5.77-.04Z"/>
              <polygon class="cls-17" points="373.09 700.44 372.36 688.05 331.27 688.3 332.2 686.58 331.47 686.04 373.58 685.78 374.48 700.44 373.09 700.44"/>
              <path class="cls-17" d="M94.36,687.47l-2.43,2.27-25.75,.16c.86-.76,1.73-1.52,2.59-2.27l25.58-.16Z"/>
              <polygon class="cls-17" points="416.07 688.32 416.71 687.78 376.16 688.03 376.01 685.77 417.76 685.51 417.12 686.05 426.78 700.12 424.16 700.13 416.07 688.32"/>
              <polygon class="cls-17" points="321.28 700.76 328.23 688.31 311.96 688.41 311.91 688.51 311.78 688.41 297.97 688.5 288.91 700.95 288.81 700.95 299.48 686.23 313.24 686.14 313.37 686.25 313.42 686.14 329.62 686.05 321.45 700.75 321.28 700.76"/>
            </g>
            <path class="cls-5" d="M32.76,719.16s.04-.04,.06-.07c5.33,1.91,18.3,1.39,23.61,1.35l616.7-3.72c8.02-.05,16.08-.06,24.07-.15,2.88-.03,8.38,.85,9.67-1.11,.5,.37,.98,.74,1.46,1.11l.05,10.69c-.98-.05-1.91-.11-2.65-.1-8.14,.09-16.33,.1-24.49,.15l-627.61,3.79c-4.51,.03-14.47,.39-20.81-.59l-.05-11.36Z"/>
          </g>
        </g>
      </g>
    </g>
  </g>
</svg>