<?xml version="1.0" encoding="UTF-8"?>
<svg id="Layer_1" data-name="Layer 1" xmlns="http://www.w3.org/2000/svg" viewBox="0 0 819.11 764.33">
  <defs>
    <style>
      .cls-1 {
        fill: #f5f5f5;
      }

      .cls-2 {
        fill: #fff;
      }

      .cls-3 {
        fill: #ececec;
      }

      .cls-4 {
        fill: #ffbf9d;
      }

      .cls-5 {
        fill: #fafafa;
      }

      .cls-6 {
        fill: #ff735d;
      }

      .cls-7 {
        fill: #e1e1e1;
      }

      .cls-8 {
        fill: #375a64;
      }

      .cls-9 {
        fill: #1a2e35;
      }

      .cls-10 {
        fill: #5cbb61;
      }

      .cls-11 {
        fill: #7a4a45;
      }
    </style>
  </defs>
  <g>
    <path class="cls-1" d="M95.27,699.24c-2.15-1.84-6.94-7.68-3.25-14.47,1.36-2.49,4.23-3.72,6.84-4.82s5.34-2.05,7.5-3.88c4.07-3.46,5.19-9.21,7.89-13.82,3.1-5.3,8.88-9.27,14.99-8.99,7,.32,12.83,6.03,15.48,12.55,2.65,6.52,2.74,13.75,2.79,20.79,.03,3.89-.14,8.28-3,10.9-2.63,2.42-6.6,2.45-10.17,2.34-12.74-.39-25.49-.78-38.24-1.17"/>
    <path class="cls-7" d="M168.4,594.1H67.85l18.11,108c.79,4.72,4.2,8.35,8.58,9.62,.12,.04,.24,.06,.35,.1,.3,.08,.59,.18,.9,.23,.66,.14,1.35,.21,2.04,.24,0,.03,.01,.07,.02,.1l.49-.08h44.82c.84,0,1.67-.09,2.46-.25,5.29-.82,9.53-5.07,10.17-10.56l8.73-74.42,.39-2.96h-.05l3.46-29.47,.07-.56Zm-18.97,68.89h-10.32l1.04-31.35h11.96l-2.68,31.35Zm3.68-31.35h9.88l-3.68,31.35h-8.88l2.68-31.35Zm-29.48,66.09l-.63-27.23h14.86l-.9,27.23h-13.33Zm-16.07-27.23h14.44l.63,27.23h-12.95l-2.12-27.23Zm1.12,27.23h-12.11c-1.15-7.35-2.65-16.91-4.27-27.23h14.26l2.12,27.23Zm-1.7-34.75l-2.44-31.35h16.56l.72,31.35h-14.85Zm15.85,0l-.72-31.35h17.05l-1.04,31.35h-15.28Zm-.9-38.86l-.67-29.03h19.1l-.96,29.03h-17.47Zm-1,0h-16.98l-2.26-29.03h18.56l.67,29.03Zm-17.98,0h-17.96c-.64-4.01-1.24-7.8-1.78-11.22-1.87-11.74-2.58-16.15-2.97-17.81h20.46l2.26,29.03Zm.58,7.52l2.44,31.35h-14.85c-.5-3.18-1.01-6.4-1.51-9.62-1.16-7.4-2.33-14.8-3.43-21.73h17.36Zm-13.43,31.35h-9.7l-5.26-31.35h10.02c1.53,9.69,3.23,20.47,4.94,31.35Zm1.18,7.52c1.48,9.42,2.93,18.71,4.27,27.23h-9.32l-4.57-27.23h9.62Zm46.66,27.23l.9-27.23h9.93l-2.33,27.23h-8.5Zm2.45-73.61l.96-29.03h13.86l-2.48,29.03h-12.35Zm-61.11-29.03c.4,2.1,2.23,13.52,4.69,29.03h-10.09l-4.87-29.03h10.27Zm75.94,102.64h-7.77l2.33-27.23h8.64l-3.2,27.23Zm8.64-73.61h-10.12l2.48-29.03h11.04l-3.41,29.03Z"/>
  </g>
  <g>
    <g>
      <path class="cls-7" d="M613.98,568.7c-6.61-4.15-14.18-6.75-21.94-7.55-3.58-.37-7.5-.26-10.38,1.91-.61,.46-1.21,1.14-1.07,1.89,.1,.55,.57,.96,1.01,1.3,8.93,6.81,22.43,7.67,32.37,2.45"/>
      <path class="cls-7" d="M613.41,568.08c-4.97-3.88-9.96-7.78-14.17-12.47-4.21-4.69-7.63-10.26-8.88-16.43-.38-1.87-.5-4.01,.7-5.5,11.3,8.82,20.17,20.23,22.35,34.4"/>
      <path class="cls-7" d="M613.86,568.61c-.85-6.18-1.16-12.53,.26-18.6,1.42-6.07,4.72-11.89,9.91-15.35,1.95,4.56,1.11,9.82-.26,14.59-2.13,7.37-5.46,14.39-9.83,20.69"/>
      <path class="cls-7" d="M624.93,588.45c-6.72,.82-12.58,4.36-17.59,8.9-5.02,4.54-8.59,10.67-10.06,17.28,6.59-.41,12.19-5.06,16.24-10.27,4.06-5.21,6.87-10.93,11.32-15.81"/>
      <path class="cls-7" d="M627.34,591.63c-5.41-13.34-3.45-29.41,5.01-41.05,3.83,13.62,2.42,29.01-5.01,41.05"/>
      <path class="cls-7" d="M641.97,609.05c-6.1-.38-12.3,1.07-17.6,4.12-5.3,3.05-9.67,7.68-12.4,13.15-.37,.74-.7,1.69-.2,2.35,.43,.58,1.27,.63,1.99,.59,5.91-.38,11.15-3.94,15.48-7.99,4.32-4.05,8.09-8.73,12.87-12.23"/>
      <path class="cls-7" d="M641.5,608.1c-3.15-10.07-3.34-21.04-.56-31.21,1.1-4.02,2.95-8.25,6.66-10.13,.32-.16,.69-.3,1.02-.18,.32,.12,.5,.44,.64,.75,1.32,2.76,1.71,5.9,1.57,8.96-.14,3.06-.77,6.07-1.4,9.07-1.17,5.54-1.79,11.5-4.83,16.27-.72,1.13-1.36,2.36-1.93,3.57-.58,1.21-.58,1.64-1.11,2.61"/>
      <path class="cls-7" d="M680.23,613.87c-2.87-10.91,.18-24.14,7.05-33.09,.51-.66,1.18-1.37,2.01-1.29,1.27,.12,1.59,1.8,1.54,3.08-.5,11.15-4.22,22.14-10.6,31.3"/>
      <path class="cls-7" d="M683.72,616.26c13.26,3.45,28.47,.1,39.5-8.03-6.54-3.31-14.24-4.26-21.38-2.62-7.14,1.63-13.67,4.83-18.12,10.66"/>
      <path class="cls-7" d="M686.66,608.99c7.43-12.11,21.66-20.01,35.85-20.73-1.63,5.77-6.38,10.25-11.73,12.96-5.35,2.71-11.32,3.89-17.21,5.03-2.29,.44-5.43,.93-6.92,2.73"/>
      <path class="cls-7" d="M680.96,573.73c2.01-6.89,4.03-13.84,4.58-20.99,.55-7.16-.47-14.63-4.18-20.77-6.94,13.42-7.64,29.11-.61,42.48"/>
      <path class="cls-7" d="M704.32,561.92c8.11-14.74,24.66-26.52,41.41-28.17-6.46,16.09-24.08,28.52-41.41,28.17"/>
      <path class="cls-7" d="M699.21,564.81c12.1,1.84,22.41,9.57,33.71,14.25,2.42,1,5.03,1.8,7.62,1.46,2.59-.34,5.16-2.08,5.74-4.63,.48-2.12-.48-4.37-2-5.92-1.52-1.55-3.53-2.52-5.54-3.36-12.31-5.13-25.52-5.25-38.49-2.15"/>
      <path class="cls-7" d="M692.21,573.3c2.74,.78,3.67,2.2,5.84,4.05,7.36,6.27,16.18,10.8,25.56,13.13,.98,.24,2.26,.34,2.74-.54,.42-.77-.11-1.7-.66-2.39-3.93-4.92-9.54-8.28-15.44-10.48-5.9-2.2-11.01-4.84-18.05-4.28"/>
      <path class="cls-7" d="M684.31,522.05c9.84,9.18,23.69,13.9,37.09,12.62,.61-.06,1.27-.16,1.69-.61,.93-1.02-.19-2.58-1.27-3.43-10.9-8.5-24.11-12.03-37.51-8.58"/>
      <path class="cls-7" d="M693.68,518.62c13-9.75,30.84-12.69,46.28-7.64-5.83,5.74-13.92,8.83-22.05,9.68-8.14,.85-16.29-.06-24.23-2.05"/>
      <path class="cls-7" d="M689.96,495.07c-1.07-10.88-.38-19.48-1.13-30.41-.06-.87-.25-1.92-1.07-2.24-1.14-.44-2.09,.96-2.46,2.12-3.24,10.08-1.47,21.64,4.64,30.29"/>
      <path class="cls-7" d="M689.17,496.27c7.38-4.56,12.91-10.52,18.03-17.52,3.56-4.87,6.56-10.71,5.75-16.69-5-.1-9.75,2.66-13.01,6.46-3.25,3.8-5.19,8.55-6.63,13.34-1.44,4.79-2.45,9.71-4.15,14.42"/>
      <path class="cls-7" d="M706.89,491.35c16.19-5.99,31.3-14.89,44.37-26.16-5.3-2.13-11.37-.86-16.67,1.28-12.11,4.89-22,13.14-27.94,24.76"/>
      <path class="cls-7" d="M694.16,502.23c8.19,.9,16.51,1.48,24.64,.12,7.99-1.33,15.54-4.5,23-7.64,.62-.26,1.29-.57,1.56-1.19,.29-.67-.02-1.48-.56-1.97-.54-.49-1.26-.72-1.96-.92-8.11-2.27-16.87-1.21-24.86,1.49-7.98,2.69-14.53,5.89-21.82,10.11"/>
      <path class="cls-7" d="M647.38,522.42c-5.59-11.28-5.23-24.44-.4-36.07,3.4,5.18,3.81,11.77,3.19,17.93-.62,6.16-2.5,12.5-2.62,18.7"/>
      <path class="cls-7" d="M625.06,511.16c-13.95-.27-27.91,5.68-37.38,15.93,6.96,1.09,14.14-.7,20.47-3.8,6.33-3.09,11.96-7.43,17.54-11.74"/>
      <path class="cls-7" d="M610.05,506.14c-6.83-.55-13.39-1.4-19.96,.61-6.56,2.01-12.54,6.58-15.21,12.9,6.38,.72,12.86-.88,18.71-3.53,5.85-2.65,11.17-6.32,16.46-9.98"/>
      <path class="cls-7" d="M632.27,506.37c-6.14-4.02-12.45-8.12-19.6-9.79-7.15-1.67-15.44-.44-20.42,4.95,5.79,3.4,12.81,3.8,19.52,3.79s14.94-.08,21.26,2.16"/>
      <path class="cls-7" d="M632.31,506.7c-10.5-10.31-14.48-28.83-10.25-42.92,8.25,12.54,11.95,28.01,10.25,42.92"/>
      <path class="cls-7" d="M661.18,477.49c1.98-4.6,3.37-9.43,5.15-14.12,1.78-4.68,3.98-9.3,7.34-13.02,3.36-3.72,8-6.49,13-6.74-3.13,14.18-12.55,26.86-25.23,33.95"/>
      <path class="cls-7" d="M655.95,483.57c-3.28-4.51-7.06-10.63-11.5-14-4.44-3.37-10.23-5.4-15.65-4.11,5.51,9.86,15.93,16.81,27.16,18.11"/>
      <path class="cls-7" d="M657,477.86c-2.15-5.46-4.31-10.97-5.18-16.77-.87-5.8-.34-11.99,2.63-17.05,5.76,10.89,7.62,22.59,2.85,33.95"/>
      <path class="cls-7" d="M661.23,444.04c3.26-10.8,13.15-18.75,23.83-22.4,1.35-.46,2.77-.84,4.18-.63,1.41,.22,2.78,1.18,3.08,2.57,.39,1.84-1.13,3.48-2.56,4.7-8.31,7.11-18.08,12.5-28.53,15.75"/>
      <path class="cls-7" d="M661.35,435.21c.42-6.96,.85-14.03,3.11-20.62,2.26-6.6,6.63-12.79,12.98-15.67,1.08,7.03-2.02,14.03-5.76,20.08-3.74,6.05-8.25,11.76-10.5,18.51"/>
      <path class="cls-7" d="M661.18,440c-2.7-7.87-2.98-17.87-7.69-24.72-3.29-4.79-8.57-8.06-11.41-13.13-1.89,4.74-1.31,10.2,.66,14.91,1.97,4.71,5.23,8.76,8.72,12.48,3.49,3.72,6.47,6.53,9.72,10.47"/>
      <path class="cls-7" d="M661.23,671.76c-.21,0-.39-52.5-.41-117.24-.01-64.77,.14-117.25,.35-117.25s.39,52.49,.41,117.25c.01,64.75-.14,117.24-.35,117.24Z"/>
      <path class="cls-7" d="M707.11,514.5c.01,.05-.69,.31-1.97,.74-1.42,.48-3.24,1.09-5.43,1.83-4.58,1.56-10.87,3.82-17.7,6.62-6.76,2.9-13.14,5.26-16.77,8.4-1.81,1.55-2.86,3.23-3.37,4.46-.52,1.23-.61,1.99-.68,1.97-.03,0-.02-.19,.02-.55,.06-.35,.15-.88,.39-1.53,.44-1.29,1.46-3.09,3.29-4.75,1.83-1.66,4.37-3.16,7.28-4.52,2.91-1.36,6.14-2.78,9.56-4.18,6.85-2.81,13.19-4.99,17.82-6.43,2.31-.72,4.2-1.25,5.51-1.61,1.31-.34,2.04-.51,2.06-.46Z"/>
      <path class="cls-7" d="M722.14,477.56s-.17,.22-.55,.59c-.45,.42-1,.94-1.68,1.58-1.56,1.42-3.69,3.36-6.29,5.71-5.43,4.84-12.79,11.39-20.93,18.64-8.17,7.27-15.23,14.22-20.13,19.46-2.45,2.61-4.38,4.78-5.7,6.29-.61,.7-1.12,1.28-1.52,1.74-.35,.39-.55,.59-.57,.58-.02-.02,.13-.25,.45-.67,.32-.42,.78-1.05,1.41-1.83,1.25-1.57,3.12-3.8,5.53-6.46,4.81-5.34,11.83-12.37,20.01-19.66,8.2-7.26,15.66-13.77,21.08-18.47,2.66-2.28,4.84-4.16,6.45-5.53,.72-.6,1.31-1.08,1.78-1.48,.41-.33,.64-.5,.65-.48Z"/>
      <path class="cls-7" d="M683.86,511.48c-.21-.1,1.49-4.04,3.19-9.02,1.72-4.98,2.52-9.19,2.74-9.15,.2,.02-.29,4.35-2.02,9.4-.86,2.52-1.8,4.74-2.54,6.31-.74,1.57-1.28,2.51-1.37,2.47Z"/>
      <path class="cls-7" d="M661.28,543.26s-.49-.49-1.26-1.46c-.85-1.1-1.94-2.48-3.23-4.14-2.71-3.5-6.46-8.34-10.65-13.63-4.2-5.29-8.06-10.04-10.86-13.47-1.32-1.63-2.42-3-3.3-4.08-.77-.97-1.18-1.52-1.14-1.56,.04-.03,.52,.45,1.36,1.37,.84,.91,2.03,2.25,3.48,3.93,2.9,3.35,6.83,8.05,11.04,13.34,4.2,5.3,7.89,10.19,10.49,13.78,1.3,1.79,2.34,3.26,3.03,4.28,.7,1.02,1.06,1.61,1.02,1.64Z"/>
      <path class="cls-7" d="M651.22,530.34c-.12,.13-2.81-3.05-4.21-7.89-1.04-3.41-1.08-6.53-.96-7.95l.34,.03c-.15,.61-.26,.93-.32,.92-.06,0-.06-.35-.01-.97l.34,.03c.12,1.41,.34,4.43,1.35,7.74,1.36,4.69,3.69,7.98,3.49,8.11Z"/>
      <path class="cls-7" d="M638.23,514.01c-.1,.11-.96-.98-2.94-1.71-1.97-.76-4.92-.93-8.17-.65-3.25,.24-6.15,.82-8.23,1.33-2.08,.51-3.35,.92-3.39,.81-.03-.09,1.17-.67,3.24-1.33,2.06-.65,5.01-1.32,8.31-1.57,3.28-.28,6.4-.03,8.43,.91,2.06,.91,2.81,2.19,2.74,2.21Z"/>
      <path class="cls-7" d="M635.15,510.05c-.06,.12-1.71-.69-4.51-1.64-2.79-.96-6.76-1.97-11.25-2.32-4.49-.33-8.57,.06-11.47,.58-2.91,.52-4.66,1.06-4.7,.94-.02-.05,.41-.23,1.2-.51,.78-.29,1.95-.63,3.4-.96,2.91-.67,7.06-1.16,11.63-.81,4.57,.36,8.6,1.47,11.37,2.57,1.39,.55,2.49,1.05,3.22,1.46,.73,.4,1.13,.64,1.1,.68Z"/>
      <path class="cls-7" d="M661.18,493.31c-.2,.05-1.68-5.06-3.29-11.42-1.61-6.36-2.76-11.55-2.55-11.61,.2-.05,1.67,5.06,3.29,11.42,1.61,6.36,2.76,11.55,2.55,11.61Z"/>
      <path class="cls-7" d="M661.38,493.31c-.23,.07-1.17-3.34-3.64-6.84-2.41-3.57-5.48-5.36-5.36-5.53,.04-.08,.89,.23,2.07,1.07,1.19,.82,2.65,2.22,3.91,4.03,2.57,3.64,3.21,7.26,3.02,7.27Z"/>
      <path class="cls-7" d="M661.23,643.77c-.08,.01-.24-1.26-.83-3.49-.58-2.23-1.69-5.39-3.51-9.09-3.63-7.41-10.23-16.81-18.61-26.22-4.16-4.75-8.19-9.23-11.61-13.52-3.43-4.28-6.24-8.36-8.3-11.97-2.06-3.61-3.41-6.7-4.19-8.88-.39-1.1-.67-1.95-.82-2.54-.17-.59-.24-.9-.22-.91,.07-.02,.45,1.2,1.31,3.34,.86,2.14,2.27,5.18,4.38,8.72,2.1,3.55,4.94,7.57,8.38,11.81,3.44,4.24,7.47,8.7,11.64,13.45,8.41,9.44,14.99,18.95,18.53,26.49,1.78,3.76,2.81,6.98,3.31,9.25,.24,1.14,.41,2.02,.46,2.63,.08,.61,.1,.93,.08,.93Z"/>
      <path class="cls-7" d="M702.68,596.95c.02,.06-.77,.46-2.17,1.22-1.39,.78-3.37,1.99-5.64,3.73-2.27,1.73-4.8,4.01-7.4,6.75-2.6,2.74-5.27,5.93-8,9.35-5.46,6.85-10.57,12.91-13.63,17.75-1.55,2.4-2.68,4.42-3.42,5.84-.75,1.42-1.14,2.21-1.2,2.19-.02-.01,.05-.22,.2-.62,.16-.39,.38-.98,.73-1.7,.66-1.47,1.73-3.54,3.23-6,2.97-4.96,8.04-11.1,13.49-17.94,2.74-3.42,5.44-6.61,8.09-9.35,2.65-2.74,5.25-5,7.58-6.7,2.33-1.7,4.37-2.85,5.82-3.56,.72-.36,1.31-.58,1.7-.75,.39-.16,.6-.23,.61-.21Z"/>
      <path class="cls-7" d="M703.5,612.14c0,.11-1.75,.32-4.59,.67-2.83,.37-6.77,.84-10.89,2.15-4.11,1.34-7.53,3.38-9.75,5.12-2.25,1.74-3.31,3.17-3.41,3.09-.04-.03,.18-.42,.68-1.06,.49-.64,1.3-1.5,2.39-2.45,2.19-1.89,5.64-4.05,9.86-5.42,4.23-1.34,8.22-1.73,11.07-1.96,2.86-.21,4.64-.23,4.65-.13Z"/>
      <path class="cls-7" d="M676.19,621.49c-.24-.14,1.83-3.3,3.44-7.55,1.51-4.29,1.86-8.05,2.13-8.01,.1,.01,.09,.95-.08,2.46-.18,1.51-.54,3.6-1.34,5.8-.8,2.2-1.85,4.04-2.66,5.32-.82,1.28-1.4,2.02-1.49,1.97Z"/>
      <path class="cls-7" d="M716.11,556.16s-.24,.16-.73,.39c-.57,.26-1.28,.58-2.16,.98-.95,.41-2.09,.92-3.39,1.6-1.3,.67-2.81,1.36-4.39,2.31-.8,.45-1.64,.93-2.51,1.42-.87,.5-1.73,1.09-2.64,1.67-1.85,1.12-3.7,2.5-5.67,3.91-3.86,2.93-7.93,6.4-11.84,10.41-3.87,4.05-7.21,8.23-10,12.19-1.34,2.02-2.66,3.92-3.71,5.8-.54,.93-1.1,1.81-1.57,2.7-.46,.89-.91,1.74-1.34,2.55-.89,1.61-1.53,3.14-2.15,4.46-.64,1.32-1.11,2.48-1.48,3.44-.37,.89-.67,1.61-.91,2.19-.22,.5-.34,.76-.37,.75s.05-.28,.22-.8c.2-.59,.46-1.34,.78-2.25,.33-.98,.77-2.16,1.37-3.5,.59-1.34,1.2-2.9,2.06-4.54,.42-.83,.85-1.69,1.3-2.59,.46-.9,1.01-1.79,1.55-2.74,1.04-1.91,2.35-3.83,3.68-5.88,2.79-4.01,6.13-8.24,10.03-12.32,3.94-4.04,8.05-7.52,11.97-10.45,2-1.4,3.88-2.77,5.75-3.88,.93-.56,1.8-1.15,2.68-1.64,.88-.48,1.73-.95,2.54-1.39,1.6-.92,3.14-1.58,4.46-2.22,1.32-.65,2.49-1.12,3.45-1.49,.9-.35,1.63-.63,2.22-.85,.51-.19,.78-.27,.79-.25Z"/>
      <path class="cls-7" d="M683.3,578.15c-.07-.01,.3-1.29,1.8-2.69,1.47-1.4,4.15-2.7,7.27-2.79,3.11-.08,5.81,.79,7.65,1.49,1.85,.73,2.93,1.32,2.89,1.41-.04,.11-1.2-.31-3.07-.9-1.86-.57-4.5-1.32-7.45-1.24-2.94,.09-5.47,1.22-6.94,2.44-1.5,1.21-2.03,2.35-2.15,2.28Z"/>
      <path class="cls-7" d="M678.4,583.21c-.21-.12,1.64-2.83,2.06-6.72,.48-3.88-.69-6.95-.46-7.01,.08-.03,.5,.68,.85,1.96,.36,1.27,.6,3.12,.36,5.14-.24,2.02-.9,3.77-1.54,4.92-.64,1.16-1.21,1.76-1.28,1.71Z"/>
    </g>
    <path class="cls-7" d="M624.97,651.29c1.13,20.06,7.18,40.47,16.48,61.1h40.44c8.87-20.42,14.5-40.8,15.5-61.1h-72.41Z"/>
    <path class="cls-5" d="M690.83,683.76c0,.21-13.31,.38-29.73,.38s-29.74-.17-29.74-.38,13.31-.38,29.74-.38,29.73,.17,29.73,.38Z"/>
    <path class="cls-5" d="M689.92,691.03c0,.21-12.48,.38-27.88,.38s-27.88-.17-27.88-.38,12.48-.38,27.88-.38,27.88,.17,27.88,.38Z"/>
    <path class="cls-5" d="M642.1,664.47c.21,0,.38,4.17,.38,9.31s-.17,9.31-.38,9.31-.38-4.17-.38-9.31,.17-9.31,.38-9.31Z"/>
    <path class="cls-5" d="M663.76,664.47c.21,0,.38,4.32,.38,9.65s-.17,9.65-.38,9.65-.38-4.32-.38-9.65,.17-9.65,.38-9.65Z"/>
    <path class="cls-5" d="M684.1,664.3c.21,0,.38,4.41,.38,9.84s-.17,9.84-.38,9.84-.38-4.4-.38-9.84,.17-9.84,.38-9.84Z"/>
    <path class="cls-5" d="M696.1,664.47c0,.21-15.62,.38-34.88,.38s-34.88-.17-34.88-.38,15.61-.38,34.88-.38,34.88,.17,34.88,.38Z"/>
  </g>
  <g>
    <g>
      <rect class="cls-5" x="591.62" y="55.36" width="146.86" height="131.39"/>
      <path class="cls-7" d="M738.48,186.75s-.02-.84-.04-2.44c0-1.61-.02-3.97-.04-7.04-.02-6.17-.05-15.19-.09-26.67-.04-22.96-.1-55.76-.17-95.24l.33,.33c-42.29,.02-92.77,.04-146.85,.06h-.01l.39-.39c-.02,47.8-.03,92.78-.05,131.39l-.35-.35c43.81,.07,80.48,.13,106.22,.17,12.88,.04,23.02,.07,29.96,.09,3.46,.02,6.12,.03,7.93,.04,.89,0,1.57,.02,2.05,.02,.46,0,.71,.02,.71,.02,0,0-.22,.01-.67,.02-.47,0-1.14,.01-2.01,.02-1.8,0-4.43,.02-7.86,.04-6.92,.02-17.04,.05-29.88,.09-25.79,.04-62.54,.1-106.44,.17h-.35s0-.35,0-.35c-.01-38.61-.03-83.59-.05-131.39v-.39h.41c54.08,.02,104.55,.04,146.85,.06h.33v.33c-.07,39.57-.13,72.44-.17,95.45-.04,11.45-.07,20.44-.09,26.6-.02,3.04-.03,5.38-.04,6.98-.01,1.57-.04,2.37-.04,2.37Z"/>
    </g>
    <path class="cls-7" d="M647.94,78.71c0,.22-7.73,.39-17.26,.39s-17.27-.18-17.27-.39,7.73-.39,17.27-.39,17.26,.18,17.26,.39Z"/>
    <path class="cls-7" d="M710.16,88.57c0,.22-21.24,.39-47.43,.39s-47.43-.18-47.43-.39,21.23-.39,47.43-.39,47.43,.18,47.43,.39Z"/>
    <rect class="cls-7" x="613.66" y="105.28" width="6.19" height="6.19"/>
    <rect class="cls-7" x="628.89" y="105.28" width="6.19" height="6.19"/>
    <rect class="cls-7" x="644.4" y="105" width="6.19" height="6.19"/>
    <rect class="cls-7" x="659.35" y="105.28" width="6.19" height="6.19"/>
    <rect class="cls-7" x="674.58" y="105.28" width="6.19" height="6.19"/>
    <rect class="cls-7" x="689.81" y="105.28" width="6.19" height="6.19"/>
    <rect class="cls-3" x="705.04" y="105.28" width="6.19" height="6.19"/>
    <rect class="cls-3" x="613.66" y="118.44" width="6.19" height="6.19"/>
    <rect class="cls-7" x="628.89" y="118.44" width="6.19" height="6.19"/>
    <rect class="cls-3" x="644.12" y="118.44" width="6.19" height="6.19"/>
    <rect class="cls-7" x="659.35" y="118.44" width="6.19" height="6.19"/>
    <rect class="cls-7" x="674.58" y="118.44" width="6.19" height="6.19"/>
    <rect class="cls-7" x="690.09" y="118.16" width="6.19" height="6.19"/>
    <rect class="cls-7" x="705.04" y="118.44" width="6.19" height="6.19"/>
    <rect class="cls-7" x="613.66" y="131.59" width="6.19" height="6.19"/>
    <rect class="cls-7" x="629.17" y="131.31" width="6.19" height="6.19"/>
    <rect class="cls-7" x="644.12" y="131.59" width="6.19" height="6.19"/>
    <rect class="cls-3" x="659.35" y="131.59" width="6.19" height="6.19"/>
    <rect class="cls-7" x="674.58" y="131.59" width="6.19" height="6.19"/>
    <rect class="cls-7" x="689.81" y="131.59" width="6.19" height="6.19"/>
    <rect class="cls-7" x="705.04" y="131.59" width="6.19" height="6.19"/>
    <rect class="cls-7" x="613.66" y="144.75" width="6.19" height="6.19"/>
    <rect class="cls-7" x="628.89" y="144.75" width="6.19" height="6.19"/>
    <rect class="cls-7" x="644.12" y="144.75" width="6.19" height="6.19"/>
    <rect class="cls-7" x="659.63" y="144.46" width="6.19" height="6.19"/>
    <rect class="cls-7" x="674.58" y="144.75" width="6.19" height="6.19"/>
    <rect class="cls-3" x="689.81" y="144.75" width="6.19" height="6.19"/>
    <rect class="cls-7" x="705.04" y="144.75" width="6.19" height="6.19"/>
    <rect class="cls-7" x="613.66" y="157.9" width="6.19" height="6.19"/>
    <rect class="cls-3" x="628.89" y="157.9" width="6.19" height="6.19"/>
    <rect class="cls-7" x="644.12" y="157.9" width="6.19" height="6.19"/>
    <rect class="cls-7" x="659.35" y="157.9" width="6.19" height="6.19"/>
    <rect class="cls-7" x="674.58" y="157.9" width="6.19" height="6.19"/>
    <rect class="cls-7" x="690.09" y="157.62" width="6.19" height="6.19"/>
    <rect class="cls-7" x="705.04" y="157.9" width="6.19" height="6.19"/>
  </g>
  <g>
    <g>
      <polygon class="cls-7" points="89.8 51.55 186.15 51.55 186.15 191.25 90.45 191.25 89.8 51.55"/>
      <g>
        <rect class="cls-2" x="82.57" y="52.21" width="95.48" height="138.39" transform="translate(260.62 242.81) rotate(180)"/>
        <path class="cls-7" d="M178.7,51.55V191.25H81.91V51.55h96.79Zm-1.31,138.39V52.86H83.23V189.94h94.16Z"/>
      </g>
      <g>
        <rect class="cls-2" x="94.43" y="67.2" width="71.75" height="108.41"/>
        <path class="cls-7" d="M94.43,67.2s.01,.19,.02,.53c0,.37,.01,.88,.02,1.54,0,1.37,.02,3.37,.04,5.95,.02,5.21,.05,12.78,.08,22.34,.04,19.12,.09,46.18,.15,78.04l-.31-.31c21.92,0,46.21-.02,71.74-.03h0l-.34,.34c.03-40.9,.05-78.6,.07-108.41l.27,.27c-21.84-.06-39.74-.11-52.21-.14-6.23-.03-11.1-.05-14.44-.07-1.65-.01-2.91-.02-3.79-.03-.86,0-1.32-.03-1.32-.03,0,0,.42-.02,1.26-.03,.87,0,2.12-.02,3.74-.03,3.32-.02,8.17-.04,14.38-.07,12.51-.03,30.47-.08,52.38-.14h.27s0,.27,0,.27c.02,29.81,.04,67.52,.07,108.41v.34s-.34,0-.34,0h0c-25.53-.01-49.82-.02-71.74-.03h-.31s0-.31,0-.31c.06-31.95,.12-59.08,.15-78.25,.04-9.53,.06-17.08,.08-22.27,.02-2.56,.03-4.53,.04-5.89,0-.65,.01-1.15,.02-1.51,0-.34,.02-.5,.02-.5Z"/>
      </g>
      <path class="cls-7" d="M82.3,190.6c-.07-.06,.52-.96,1.54-2.38,1.02-1.42,2.47-3.34,4.14-5.43,1.67-2.08,3.24-3.91,4.42-5.2,1.18-1.29,1.96-2.04,2.03-1.98,.15,.13-2.6,3.46-5.92,7.61-3.31,4.16-6.06,7.5-6.21,7.38Z"/>
      <path class="cls-7" d="M82.57,52.21c.15-.12,2.92,3.14,6.2,7.28,3.28,4.14,5.81,7.59,5.66,7.71-.15,.12-2.92-3.14-6.2-7.28-3.28-4.14-5.81-7.59-5.66-7.71Z"/>
      <g>
        <path class="cls-2" d="M178.06,52.32c-4.17,5.14-8.34,10.29-12.51,15.43"/>
        <path class="cls-7" d="M165.55,67.75c-.15-.12,2.53-3.67,5.99-7.93,3.45-4.26,6.37-7.62,6.52-7.5,.15,.12-2.53,3.67-5.99,7.93-3.45,4.26-6.37,7.62-6.52,7.5Z"/>
      </g>
      <path class="cls-7" d="M178.05,190.6c-.15,.12-2.9-3.11-6.13-7.21-3.24-4.1-5.75-7.51-5.6-7.63,.15-.12,2.89,3.11,6.13,7.21,3.24,4.1,5.75,7.51,5.6,7.63Z"/>
    </g>
    <path class="cls-7" d="M134.93,122.99h-12.63l-1.5,3.48c-.49,1.16-.74,2.12-.74,2.87,0,1,.4,1.74,1.21,2.21,.47,.28,1.64,.49,3.51,.63v.97h-11.89v-.97c1.28-.19,2.34-.73,3.16-1.6,.83-.87,1.85-2.67,3.06-5.39l12.78-28.52h.5l12.89,29.31c1.23,2.78,2.24,4.53,3.03,5.25,.6,.54,1.44,.86,2.53,.95v.97h-17.29v-.97h.71c1.39,0,2.36-.19,2.93-.58,.39-.28,.58-.69,.58-1.21,0-.32-.05-.64-.16-.97-.04-.16-.3-.82-.79-1.98l-1.9-4.45Zm-.9-1.95l-5.32-12.31-5.48,12.31h10.81Z"/>
  </g>
  <path class="cls-9" d="M738.41,712.39c0,.22-149.3,.39-333.42,.39s-333.45-.18-333.45-.39,149.26-.39,333.45-.39,333.42,.18,333.42,.39Z"/>
  <g>
    <rect class="cls-2" x="221.81" y="64.79" width="328.7" height="301.7"/>
    <g>
      <path class="cls-7" d="M312.05,285.63c.14-.01-.05,2.5,1.02,6.79,.5,2.15,1.52,4.69,3.12,7.38,1.61,2.68,3.93,5.47,7.07,7.84,3.14,2.35,7.09,4.34,11.65,5.14,4.53,.77,9.64,.63,14.51-1.22,2.45-.85,4.81-2.14,6.98-3.76,1.12-.77,2.1-1.73,3.13-2.66,.93-1.03,1.9-2.03,2.7-3.2,3.39-4.52,5.31-10.32,5.36-16.3-.05-5.98-1.97-11.79-5.36-16.31-.8-1.17-1.77-2.17-2.7-3.2-1.03-.93-2.01-1.89-3.13-2.66-2.17-1.62-4.53-2.91-6.98-3.76-4.87-1.85-9.98-2-14.51-1.22-4.56,.8-8.52,2.8-11.65,5.14-3.15,2.37-5.46,5.16-7.07,7.84-1.6,2.69-2.62,5.23-3.12,7.38-1.08,4.3-.88,6.81-1.02,6.79-.01,0-.02-.15-.02-.45,0-.34,.02-.78,.03-1.33,0-.59,.04-1.31,.18-2.16,.12-.85,.23-1.84,.53-2.92,.46-2.19,1.45-4.78,3.04-7.53,1.6-2.74,3.93-5.61,7.11-8.06,3.18-2.42,7.21-4.49,11.87-5.34,4.63-.82,9.87-.7,14.88,1.18,2.52,.87,4.95,2.18,7.18,3.84,1.15,.79,2.16,1.78,3.22,2.73,.96,1.05,1.96,2.09,2.78,3.28,3.5,4.64,5.47,10.61,5.53,16.76-.05,6.15-2.03,12.12-5.53,16.76-.82,1.2-1.83,2.23-2.78,3.28-1.06,.95-2.07,1.94-3.22,2.73-2.23,1.66-4.66,2.97-7.18,3.84-5,1.88-10.24,2.01-14.87,1.18-4.66-.85-8.69-2.92-11.87-5.34-3.19-2.45-5.51-5.32-7.11-8.06-1.59-2.75-2.58-5.34-3.04-7.53-.31-1.08-.42-2.07-.53-2.92-.15-.85-.18-1.57-.18-2.16-.01-.55-.02-.99-.03-1.33,0-.3,0-.45,.02-.45Z"/>
      <path class="cls-7" d="M459.26,220.75s-.04-.32-.09-.95c-.04-.66-.1-1.58-.18-2.79-.04-.62-.08-1.3-.12-2.06-.08-.75-.24-1.57-.37-2.46-.14-.89-.29-1.84-.46-2.86-.12-1.03-.5-2.07-.77-3.21-1.04-4.54-3.16-9.91-6.52-15.6-3.38-5.67-8.26-11.59-14.9-16.61-.83-.62-1.68-1.25-2.53-1.89-.89-.58-1.83-1.12-2.75-1.69-.95-.54-1.84-1.19-2.85-1.65-1-.48-2.02-.97-3.04-1.46-.51-.24-1.03-.49-1.55-.73-.54-.2-1.08-.39-1.62-.59-1.09-.4-2.18-.8-3.29-1.2-1.12-.37-2.29-.61-3.45-.92-1.17-.26-2.32-.68-3.54-.8-2.42-.34-4.86-.84-7.4-.85-1.26-.04-2.53-.17-3.81-.15-1.28,.07-2.57,.13-3.87,.2-.65,.05-1.3,.04-1.95,.13l-1.95,.3c-1.3,.22-2.63,.37-3.93,.64-2.58,.7-5.25,1.23-7.8,2.29-2.62,.84-5.09,2.14-7.62,3.35-1.23,.67-2.42,1.45-3.64,2.17-.6,.38-1.24,.71-1.81,1.14l-1.72,1.29c-2.38,1.63-4.45,3.67-6.63,5.64-1.97,2.18-4.03,4.3-5.73,6.77l-1.34,1.8-1.18,1.92-1.18,1.94c-.41,.64-.78,1.3-1.09,1.99-.66,1.37-1.32,2.74-1.98,4.12-.53,1.44-1.06,2.88-1.59,4.33-1.91,5.87-2.93,12.1-3.02,18.44,.08,6.34,1.11,12.58,3.01,18.44,.53,1.45,1.06,2.89,1.59,4.33,.66,1.38,1.33,2.75,1.98,4.12l.5,1.02,.59,.97,1.18,1.94,1.18,1.92,1.34,1.8c1.7,2.47,3.76,4.6,5.73,6.78,2.18,1.97,4.25,4.01,6.63,5.64l1.72,1.29c.57,.43,1.21,.76,1.81,1.14,1.22,.73,2.41,1.51,3.64,2.17,2.54,1.22,5,2.51,7.63,3.35,2.54,1.06,5.22,1.59,7.8,2.29,1.31,.27,2.63,.42,3.93,.64l1.95,.3c.65,.09,1.31,.08,1.95,.13,1.3,.07,2.59,.13,3.87,.2,1.28,.02,2.55-.1,3.81-.15,2.53-.01,4.98-.51,7.4-.86,1.22-.12,2.37-.54,3.54-.8,1.16-.31,2.33-.55,3.45-.92,1.11-.4,2.21-.8,3.29-1.2,.54-.2,1.08-.39,1.62-.59,.52-.25,1.03-.49,1.55-.73,1.02-.49,2.04-.98,3.04-1.46,1.01-.46,1.91-1.11,2.85-1.65,.93-.57,1.86-1.1,2.75-1.69,.85-.64,1.7-1.26,2.53-1.89,6.64-5.03,11.52-10.95,14.9-16.61,3.35-5.69,5.48-11.06,6.51-15.6,.26-1.13,.65-2.18,.77-3.21,.16-1.02,.31-1.97,.46-2.86,.13-.89,.29-1.7,.37-2.46,.05-.75,.09-1.44,.12-2.06,.08-1.21,.14-2.13,.18-2.79,.05-.63,.09-.95,.09-.95,0,0,.01,.32,0,.95-.02,.66-.06,1.59-.1,2.8-.03,.62-.05,1.31-.09,2.06-.07,.76-.22,1.58-.34,2.47-.13,.89-.27,1.85-.42,2.88-.11,1.04-.48,2.09-.74,3.23-1,4.58-3.09,10-6.43,15.75-3.37,5.73-8.26,11.73-14.94,16.83-.84,.63-1.69,1.27-2.55,1.91-.89,.59-1.84,1.14-2.77,1.72-.95,.55-1.86,1.21-2.88,1.68-1.01,.49-2.03,.98-3.06,1.48-.52,.25-1.04,.5-1.56,.75-.54,.2-1.09,.4-1.64,.6-1.1,.4-2.21,.81-3.32,1.22-1.13,.38-2.31,.62-3.48,.94-1.18,.27-2.35,.69-3.58,.82-2.44,.35-4.92,.86-7.48,.89-1.28,.05-2.56,.17-3.86,.16-1.3-.06-2.6-.13-3.92-.19-.66-.04-1.32-.04-1.98-.12l-1.97-.3c-1.32-.22-2.66-.37-3.98-.64-2.61-.7-5.32-1.23-7.9-2.3-2.66-.85-5.16-2.15-7.73-3.38-1.25-.68-2.45-1.46-3.69-2.2-.61-.39-1.25-.72-1.83-1.15l-1.75-1.3c-2.41-1.65-4.52-3.71-6.72-5.7-2-2.2-4.09-4.36-5.81-6.86l-1.36-1.82-1.19-1.95-1.19-1.96-.6-.98-.51-1.04c-.67-1.39-1.34-2.78-2.01-4.18-.53-1.46-1.07-2.92-1.61-4.39-1.93-5.95-2.97-12.26-3.06-18.69,.08-6.42,1.13-12.74,3.06-18.68,.54-1.47,1.08-2.93,1.61-4.39,.67-1.4,1.34-2.79,2.01-4.18,.31-.71,.69-1.37,1.1-2.02l1.19-1.96,1.19-1.95,1.36-1.82c1.72-2.5,3.81-4.66,5.81-6.86,2.21-1.99,4.31-4.05,6.72-5.7l1.74-1.3c.58-.44,1.22-.77,1.83-1.15,1.24-.73,2.44-1.52,3.69-2.2,2.57-1.23,5.07-2.53,7.73-3.38,2.58-1.07,5.28-1.6,7.9-2.3,1.32-.27,2.67-.42,3.98-.64l1.97-.3c.66-.09,1.32-.08,1.98-.12,1.31-.06,2.62-.13,3.92-.19,1.3-.02,2.58,.11,3.86,.16,2.56,.02,5.03,.53,7.48,.89,1.23,.13,2.4,.55,3.58,.82,1.17,.32,2.35,.57,3.48,.94,1.12,.41,2.23,.82,3.32,1.22,.55,.2,1.09,.4,1.64,.6,.52,.25,1.04,.5,1.56,.75,1.03,.5,2.05,.99,3.06,1.48,1.02,.47,1.93,1.13,2.88,1.68,.93,.58,1.88,1.12,2.77,1.71,.86,.65,1.71,1.28,2.55,1.91,6.68,5.1,11.57,11.1,14.94,16.83,3.34,5.75,5.44,11.17,6.44,15.75,.25,1.14,.63,2.19,.74,3.23,.15,1.03,.29,1.99,.42,2.88,.12,.89,.27,1.71,.34,2.47,.03,.76,.06,1.45,.09,2.07,.04,1.21,.08,2.14,.1,2.8,.02,.63,0,.95,0,.95Z"/>
      <g>
        <path class="cls-7" d="M535.48,220.62s-.05-.74-.1-2.19c-.09-1.44-.03-3.6-.29-6.41-.34-5.63-1.28-13.94-3.84-24.34-1.38-5.17-3.05-10.9-5.54-16.93-2.44-6.04-5.44-12.48-9.39-18.98-7.8-13.02-18.99-26.65-34.24-38.28-7.59-5.83-16.22-11.05-25.73-15.37-9.5-4.31-19.89-7.78-30.97-9.77-11.06-2.04-22.76-2.84-34.71-1.91-5.98,.35-12,1.33-18.04,2.52-6.03,1.29-12.04,3.02-17.99,5.13-23.75,8.6-46.31,24.66-62.56,46.93-4.12,5.52-7.72,11.47-10.97,17.66-1.66,3.08-3.07,6.3-4.52,9.51-1.3,3.28-2.64,6.55-3.71,9.94-2.21,6.75-4.03,13.69-5.12,20.82-1.12,7.12-1.71,14.36-1.76,21.65,.05,7.3,.63,14.54,1.76,21.66,1.09,7.13,2.92,14.07,5.12,20.82,1.07,3.39,2.41,6.67,3.71,9.95,1.45,3.22,2.86,6.43,4.52,9.52,3.25,6.19,6.85,12.15,10.97,17.67,16.26,22.28,38.82,38.34,62.57,46.94,5.96,2.12,11.97,3.84,18,5.13,6.04,1.2,12.06,2.17,18.04,2.52,11.95,.93,23.66,.13,34.71-1.91,11.08-1.99,21.46-5.46,30.97-9.77,9.51-4.32,18.14-9.55,25.73-15.38,15.25-11.62,26.43-25.25,34.23-38.28,3.95-6.51,6.95-12.94,9.39-18.98,2.49-6.03,4.16-11.76,5.53-16.93,2.57-10.4,3.5-18.71,3.84-24.34,.25-2.81,.2-4.97,.29-6.41,.05-1.45,.1-2.19,.1-2.19,0,0,0,.74-.02,2.19-.06,1.45,.02,3.61-.21,6.42-.29,5.64-1.18,13.97-3.71,24.41-1.36,5.19-3.01,10.94-5.48,16.99-2.42,6.06-5.41,12.53-9.36,19.07-7.79,13.09-18.99,26.79-34.27,38.49-7.61,5.86-16.27,11.13-25.81,15.49-9.54,4.35-19.97,7.85-31.1,9.86-11.11,2.06-22.87,2.89-34.88,1.96-6.02-.35-12.06-1.32-18.14-2.52-6.06-1.29-12.1-3.02-18.1-5.15-23.88-8.63-46.59-24.77-62.95-47.16-4.14-5.55-7.77-11.54-11.04-17.76-1.67-3.1-3.09-6.34-4.55-9.57-1.31-3.3-2.66-6.59-3.73-10-2.22-6.79-4.05-13.78-5.16-20.94-1.13-7.16-1.72-14.45-1.77-21.79,.05-7.34,.64-14.62,1.77-21.78,1.1-7.17,2.94-14.15,5.16-20.94,1.08-3.41,2.43-6.7,3.74-10,1.46-3.23,2.88-6.47,4.55-9.57,3.27-6.22,6.9-12.21,11.04-17.76,16.36-22.39,39.06-38.53,62.94-47.15,5.99-2.12,12.04-3.85,18.1-5.14,6.07-1.2,12.12-2.17,18.13-2.52,12.01-.92,23.77-.11,34.88,1.96,11.13,2.02,21.56,5.51,31.1,9.86,9.55,4.35,18.2,9.62,25.81,15.48,15.29,11.7,26.49,25.4,34.28,38.49,3.94,6.54,6.94,13.01,9.36,19.07,2.47,6.05,4.13,11.81,5.49,17,2.53,10.44,3.42,18.77,3.71,24.41,.23,2.82,.15,4.98,.21,6.42,.02,1.45,.02,2.19,.02,2.19Z"/>
        <path class="cls-7" d="M496.85,315.12c-.15,.15-43-42.44-95.68-95.12-52.7-52.7-95.29-95.53-95.13-95.68,.15-.15,42.99,42.43,95.69,95.13,52.68,52.68,95.28,95.52,95.12,95.67Z"/>
        <path class="cls-7" d="M495.94,125.22c.15,.15-42.44,43-95.12,95.68-52.7,52.7-95.53,95.29-95.68,95.13-.15-.15,42.43-42.99,95.13-95.69,52.68-52.68,95.52-95.28,95.67-95.12Z"/>
        <path class="cls-7" d="M401.44,84.8c.22,0,.39,60.41,.4,134.91,0,74.53-.17,134.93-.39,134.93s-.39-60.4-.4-134.93c0-74.5,.17-134.91,.39-134.91Z"/>
        <path class="cls-7" d="M266.52,220.63c0-.22,60.41-.39,134.91-.4,74.53,0,134.93,.17,134.93,.39s-60.4,.39-134.93,.4c-74.5,0-134.91-.17-134.91-.39Z"/>
      </g>
      <path class="cls-10" d="M397.68,86.82v38.4c0,4.85,7.54,4.86,7.54,0v-38.4c0-4.85-7.54-4.86-7.54,0h0Z"/>
      <path class="cls-7" d="M443.79,221.1s-.04-.24-.08-.7c-.03-.5-.08-1.18-.14-2.06-.03-.46-.06-.96-.1-1.51-.06-.55-.18-1.16-.28-1.81-.21-1.31-.41-2.82-.91-4.47-.77-3.34-2.34-7.29-4.81-11.48-2.49-4.17-6.09-8.52-10.98-12.22-4.87-3.66-11.02-6.77-18.12-8.03-7.05-1.21-15.01-.99-22.59,1.89-1.93,.62-3.74,1.57-5.61,2.47-.91,.49-1.78,1.07-2.68,1.6-.92,.51-1.75,1.15-2.59,1.79-1.75,1.2-3.27,2.7-4.87,4.15-1.45,1.6-2.96,3.17-4.21,4.98-2.56,3.55-4.79,7.5-6.14,11.84-1.4,4.31-2.16,8.89-2.22,13.56,.06,4.66,.81,9.25,2.21,13.56,1.35,4.34,3.58,8.29,6.14,11.84,1.25,1.82,2.77,3.38,4.21,4.98,1.6,1.45,3.13,2.95,4.88,4.15,.84,.64,1.68,1.28,2.59,1.79,.9,.53,1.77,1.11,2.68,1.6,1.86,.89,3.68,1.85,5.61,2.47,7.58,2.88,15.54,3.1,22.59,1.89,7.1-1.26,13.25-4.37,18.12-8.03,4.89-3.69,8.48-8.05,10.98-12.22,2.47-4.19,4.04-8.14,4.81-11.48,.5-1.65,.7-3.16,.91-4.47,.1-.65,.22-1.25,.28-1.81,.03-.55,.07-1.06,.1-1.51,.06-.88,.11-1.56,.14-2.06,.04-.46,.08-.7,.08-.7,0,0,.01,.24,0,.7-.02,.5-.04,1.18-.07,2.07-.02,.46-.04,.97-.06,1.52-.05,.56-.16,1.16-.24,1.82-.19,1.32-.36,2.85-.85,4.51-.73,3.38-2.27,7.38-4.73,11.63-2.48,4.23-6.09,8.66-11.02,12.43-4.91,3.74-11.14,6.92-18.34,8.23-1.81,.26-3.63,.64-5.52,.66-.94,.04-1.89,.13-2.85,.12-.96-.05-1.92-.09-2.89-.14-.98-.01-1.94-.15-2.92-.31-.97-.16-1.96-.27-2.94-.47-1.93-.52-3.93-.91-5.83-1.7-1.96-.62-3.81-1.59-5.71-2.5-.92-.5-1.81-1.08-2.73-1.62-.93-.52-1.79-1.16-2.64-1.81-1.78-1.22-3.34-2.74-4.97-4.21-1.48-1.63-3.02-3.22-4.29-5.07-2.61-3.61-4.88-7.63-6.26-12.05-1.43-4.39-2.2-9.06-2.26-13.81,.06-4.75,.83-9.41,2.26-13.8,1.38-4.42,3.66-8.44,6.26-12.05,1.27-1.85,2.82-3.44,4.29-5.06,1.63-1.47,3.19-2.99,4.97-4.21,.86-.65,1.71-1.3,2.64-1.81,.91-.54,1.8-1.12,2.73-1.62,1.9-.91,3.74-1.87,5.71-2.5,1.9-.79,3.9-1.18,5.83-1.7,.98-.2,1.97-.31,2.94-.47,.97-.16,1.94-.3,2.92-.31,.97-.05,1.94-.09,2.89-.14,.96-.01,1.91,.08,2.85,.12,1.89,.02,3.72,.39,5.52,.66,7.2,1.3,13.43,4.49,18.34,8.23,4.93,3.77,8.53,8.2,11.02,12.43,2.46,4.25,4,8.25,4.73,11.63,.48,1.66,.66,3.19,.85,4.51,.09,.66,.2,1.26,.24,1.82,.02,.56,.04,1.07,.06,1.52,.03,.88,.05,1.57,.07,2.07,.01,.47,0,.7,0,.7Z"/>
      <path class="cls-7" d="M370.11,358.48s-.05-.37-.08-1.08c-.02-.79-.04-1.82-.07-3.1-.03-2.78-.07-6.65-.12-11.4-.03-9.7-.07-22.96-.12-37.61,.04-14.65,.09-27.91,.12-37.62,.05-4.75,.09-8.62,.12-11.4,.03-1.28,.06-2.31,.07-3.1,.03-.71,.05-1.08,.08-1.08s.05,.37,.08,1.08c.02,.79,.04,1.82,.07,3.1,.03,2.78,.07,6.65,.12,11.4,.03,9.7,.07,22.96,.12,37.62-.04,14.65-.09,27.91-.12,37.61-.05,4.75-.09,8.62-.12,11.4-.03,1.28-.05,2.31-.07,3.1-.03,.71-.05,1.08-.08,1.08Z"/>
      <path class="cls-7" d="M385.48,358.47s-.05-.34-.08-.98c-.02-.73-.04-1.66-.07-2.82-.03-2.54-.07-6.06-.12-10.36-.03-8.83-.07-20.87-.12-34.17,.04-13.31,.09-25.35,.12-34.18,.05-4.3,.09-7.81,.12-10.36,.03-1.16,.05-2.09,.07-2.82,.03-.64,.05-.98,.08-.98s.05,.34,.08,.98c.02,.73,.04,1.66,.07,2.82,.03,2.54,.07,6.06,.12,10.36,.03,8.83,.07,20.87,.12,34.18-.04,13.3-.09,25.34-.12,34.17-.05,4.3-.09,7.81-.12,10.36-.03,1.16-.05,2.09-.07,2.82-.03,.64-.05,.98-.08,.98Z"/>
      <path class="cls-7" d="M430.58,358.48s-.05-.37-.08-1.08c-.02-.79-.04-1.81-.07-3.1-.03-2.78-.07-6.64-.12-11.38-.03-9.69-.07-22.93-.11-37.56,.04-14.63,.09-27.87,.11-37.57,.05-4.74,.09-8.61,.12-11.38,.03-1.28,.06-2.31,.07-3.09,.03-.71,.05-1.08,.08-1.08s.05,.37,.08,1.08c.02,.79,.04,1.81,.07,3.09,.03,2.78,.07,6.64,.12,11.38,.03,9.69,.07,22.93,.12,37.57-.04,14.63-.09,27.87-.12,37.56-.05,4.74-.09,8.61-.12,11.38-.03,1.28-.05,2.31-.07,3.1-.03,.71-.05,1.08-.08,1.08Z"/>
      <path class="cls-7" d="M416.47,358.48s-.05-.34-.08-.99c-.02-.73-.04-1.67-.07-2.83-.03-2.55-.07-6.08-.12-10.4-.03-8.87-.07-20.96-.11-34.32,.04-13.36,.09-25.46,.11-34.33,.05-4.32,.09-7.85,.12-10.4,.03-1.16,.05-2.1,.07-2.83,.03-.65,.05-.99,.08-.99s.05,.34,.08,.99c.02,.73,.04,1.67,.07,2.83,.03,2.55,.07,6.08,.12,10.4,.03,8.87,.07,20.96,.11,34.33-.04,13.36-.09,25.45-.11,34.32-.05,4.32-.09,7.85-.12,10.4-.03,1.16-.05,2.1-.07,2.83-.03,.65-.05,.99-.08,.99Z"/>
      <path class="cls-10" d="M363.96,205.49c2.47-5.6,5.76-9.82,10.23-13.88,.54-.49,1.09-.97,1.65-1.43,.25-.21,.51-.41,.76-.62,.98-.79-.54,.38,.47-.36,1.13-.82,2.27-1.62,3.46-2.34,1.13-.69,2.3-1.32,3.5-1.89,.31-.15,.63-.29,.95-.43-.72,.31,.3-.11,.36-.13,.61-.23,1.23-.44,1.86-.64,1.95-.6,3.18-2.63,2.63-4.64-.53-1.92-2.68-3.23-4.64-2.63-6,1.85-11.39,5.36-16.04,9.52-4.86,4.34-9.07,9.69-11.7,15.67-.82,1.86-.54,4.05,1.35,5.16,1.6,.94,4.33,.52,5.16-1.35h0Z"/>
      <path class="cls-10" d="M400.43,158.16c-26.5,.11-51.16,16.67-59.74,41.99-4.56,13.47-4.93,29.17,.54,42.42,2.35,5.69,5.59,10.78,9.36,15.63,1.94,2.5,3.96,4.96,6.19,7.21,2.76,2.77,5.49,5.46,7.5,8.85,1.53,2.59,2.3,5.36,2.42,8.04,.16,3.4-.22,6.79-.27,10.19-.06,3.64,0,7.29,0,10.94,0,2.04,1.73,3.77,3.77,3.77h60.38c2.04,0,3.77-1.73,3.77-3.77v-1.03c0-4.85-7.54-4.86-7.54,0v1.03c1.26-1.26,2.51-2.51,3.77-3.77h-60.38c1.26,1.26,2.51,2.51,3.77,3.77,0-3.4-.02-6.81,0-10.21,.03-5.14,.74-10.26-.26-15.36-1.42-7.23-6.59-12.75-11.6-17.78-4.05-4.07-7.42-8.46-10.37-13.34-13.26-21.93-6.81-51.97,12.6-68.17,10.05-8.38,23.16-12.81,36.09-12.86,4.85-.02,4.86-7.56,0-7.54h0Z"/>
      <path class="cls-10" d="M454.25,212.29c1.18,8.3,1.11,16.89-1.14,25.01-1.77,6.37-4.86,12.15-8.89,17.5-3.34,4.42-8.28,8.73-12.02,13.29-4.25,5.18-5.17,11.13-5.34,17.66-.14,5.55-.05,11.1-.05,16.65,0,4.85,7.54,4.86,7.54,0,0-4.52-.02-9.03,0-13.55,.01-1.87,.04-3.73,.14-5.6,.11-1.92,.16-2.74,.51-4.32,.14-.63,.31-1.26,.51-1.88,.09-.27,.19-.54,.29-.8-.3,.76,.13-.25,.17-.34,.76-1.43,1.26-2.18,2.05-3.08,4.19-4.82,8.84-9.1,12.7-14.22,4.16-5.52,7.41-11.72,9.39-18.36,2.9-9.75,2.83-19.96,1.41-29.95-.29-2.02-2.85-3.12-4.64-2.63-2.17,.6-2.92,2.61-2.63,4.64h0Z"/>
      <g>
        <polygon class="cls-9" points="488.71 230.63 480.46 236.08 478.11 232.6 486.32 227.19 488.71 230.63"/>
        <path class="cls-9" d="M469.39,210.71l7.33,10.06c.82-.23,1.73,.08,2.23,.83,.62,.93,.36,2.19-.58,2.81-.93,.62-2.19,.36-2.81-.58-.47-.72-.43-1.62,.04-2.28l-6.39-10.39h0l1.11,15.52,7.05,5.04,8-5.24-1.61-8.11-14.36-7.65Z"/>
        <path class="cls-9" d="M499.26,228.53l-2.28,3.23v.05s3.78-.64,3.78-.64l.06,1.71-3.81-.32v.05s2.52,2.93,2.52,2.93l-1.55,.96-1.63-3.47h-.05s-1.51,3.61-1.51,3.61l-1.47-.86,2.28-3.15v-.05s-3.71,.61-3.71,.61l-.06-1.71,3.71,.35v-.05s-2.48-2.99-2.48-2.99l1.5-.93,1.68,3.44h.05s1.41-3.58,1.41-3.58l1.54,.8Z"/>
      </g>
      <g>
        <path class="cls-9" d="M462.01,306.68s-.01-.25-.02-.71c0-.48-.01-1.17-.02-2.07,0-1.84-.02-4.52-.04-8.02-.02-7.02-.05-17.26-.09-30.26-.04-25.97-.1-62.93-.18-106.96l.35,.35c-36.74,.01-79.17,.03-124.14,.04h-.01l.39-.39c-.02,54.68-.05,105.59-.06,148.02l-.33-.33c37.36,.07,68.36,.13,90.04,.17,10.84,.04,19.35,.07,25.18,.09,2.9,.02,5.12,.03,6.64,.04,1.51,.01,2.3,.04,2.3,.04,0,0-.75,.02-2.23,.04-1.51,0-3.71,.02-6.58,.04-5.8,.02-14.29,.05-25.1,.09-21.73,.04-52.8,.1-90.24,.17h-.33s0-.33,0-.33c-.02-42.43-.04-93.34-.06-148.02v-.39s.39,0,.39,0h.01c44.97,.02,87.4,.03,124.14,.04h.35s0,.35,0,.35c-.07,44.12-.13,81.16-.18,107.19-.04,12.96-.07,23.18-.09,30.18-.02,3.47-.03,6.13-.04,7.95,0,.88-.02,1.56-.02,2.03,0,.45-.02,.67-.02,.67Z"/>
        <g>
          <rect class="cls-2" x="335.54" y="155.88" width="4.75" height="4.75"/>
          <path class="cls-9" d="M340.3,160.64c-.08-.11-.26-2.07-.34-4.75l.34,.34c-1.38,.03-3.01,.05-4.75,.05-.09,.09,.74-.74,.39-.39h0v.08s0,.08,0,.08v.16s0,.32,0,.32v.64c0,.42,0,.83-.01,1.23-.01,.77-.03,1.52-.04,2.24l-.34-.34c2.68,.08,4.64,.26,4.75,.34,.11,.08-1.73,.25-4.75,.34h-.33s0-.34,0-.34c-.01-.72-.03-1.47-.04-2.24,0-.4,0-.81-.01-1.23v-.64s0-.32,0-.32v-.16s0-.08,0-.08v-.06h0v-.02h0c-.35,.35,.48-.48,.39-.4,1.74,0,3.37,.02,4.75,.05h.35s0,.34,0,.34c-.08,3.02-.26,4.87-.34,4.75Z"/>
        </g>
        <g>
          <rect class="cls-2" x="335.54" y="225.57" width="4.75" height="4.75"/>
          <path class="cls-9" d="M340.3,230.32c-.08-.11-.26-2.07-.34-4.75l.34,.34c-1.38,.03-3.01,.05-4.75,.05-.09,.09,.74-.74,.39-.39h0v.08s0,.08,0,.08v.16s0,.32,0,.32v.64c0,.42,0,.83-.01,1.23-.01,.77-.03,1.52-.04,2.24l-.34-.34c2.68,.08,4.64,.26,4.75,.34,.11,.08-1.73,.25-4.75,.34h-.33s0-.34,0-.34c-.01-.72-.03-1.47-.04-2.24,0-.4,0-.81-.01-1.23v-.64s0-.32,0-.32v-.16s0-.08,0-.08v-.06h0v-.02h0c-.35,.35,.48-.48,.39-.4,1.74,0,3.37,.02,4.75,.05h.35s0,.34,0,.34c-.08,3.02-.26,4.87-.34,4.75Z"/>
        </g>
        <g>
          <rect class="cls-2" x="335.54" y="304.03" width="4.75" height="4.75"/>
          <path class="cls-9" d="M340.3,308.78c-.08-.11-.26-2.07-.34-4.75l.34,.34c-1.38,.03-3.01,.05-4.75,.05-.09,.09,.74-.74,.39-.39h0v.08s0,.08,0,.08v.16s0,.32,0,.32v.64c0,.42,0,.83-.01,1.23-.01,.77-.03,1.52-.04,2.24l-.34-.34c2.68,.08,4.64,.26,4.75,.34,.11,.08-1.73,.25-4.75,.34h-.33s0-.34,0-.34c-.01-.72-.03-1.47-.04-2.24,0-.4,0-.81-.01-1.23v-.64s0-.32,0-.32v-.16s0-.08,0-.08v-.06h0v-.02h0c-.35,.35,.48-.48,.39-.4,1.74,0,3.37,.02,4.75,.05h.35s0,.34,0,.34c-.08,3.02-.26,4.87-.34,4.75Z"/>
        </g>
        <g>
          <rect class="cls-2" x="398.16" y="305.39" width="4.75" height="4.75"/>
          <path class="cls-9" d="M402.92,310.14c-.08-.11-.26-2.07-.34-4.75l.34,.34c-1.38,.03-3.01,.05-4.75,.05-.09,.09,.74-.74,.39-.39h0v.32s0,.32,0,.32v.64c0,.42,0,.83-.01,1.23-.01,.77-.03,1.52-.04,2.24l-.34-.34c2.68,.08,4.64,.26,4.75,.34,.11,.08-1.73,.25-4.75,.34h-.33s0-.34,0-.34c-.01-.72-.03-1.47-.04-2.24,0-.4,0-.81-.01-1.23v-.64s0-.32,0-.32v-.16s0-.08,0-.08v-.06h0v-.02h0c-.35,.35,.48-.48,.39-.4,1.74,0,3.37,.02,4.75,.05h.35s0,.34,0,.34c-.08,3.02-.26,4.87-.34,4.75Z"/>
        </g>
        <g>
          <rect class="cls-2" x="459.64" y="304.03" width="4.75" height="4.75"/>
          <path class="cls-9" d="M464.39,308.78c-.08-.11-.25-2.07-.34-4.75l.34,.34c-1.38,.03-3.01,.05-4.75,.05-.09,.09,.74-.74,.39-.39h0v.32s0,.32,0,.32v.64c0,.42,0,.83-.01,1.23-.01,.77-.03,1.52-.04,2.24l-.34-.34c2.68,.08,4.64,.26,4.75,.34,.11,.08-1.73,.25-4.75,.34h-.33s0-.34,0-.34c-.01-.72-.03-1.47-.04-2.24,0-.4,0-.81-.01-1.23v-.64s0-.32,0-.32v-.16s0-.08,0-.08v-.04s0-.02,0-.02h0v-.02h0c-.35,.35,.48-.48,.39-.4,1.74,0,3.37,.02,4.75,.05h.35s0,.34,0,.34c-.08,3.02-.26,4.87-.34,4.75Z"/>
        </g>
        <g>
          <rect class="cls-2" x="398.49" y="155.88" width="4.75" height="4.75"/>
          <path class="cls-9" d="M403.25,160.64c-.08-.11-.26-2.07-.34-4.75l.34,.34c-1.38,.03-3.01,.05-4.75,.05-.09,.09,.74-.74,.39-.39h0v.32s0,.32,0,.32v.64c0,.42,0,.83-.01,1.23-.01,.77-.03,1.52-.04,2.24l-.34-.34c2.68,.08,4.64,.26,4.75,.34,.11,.08-1.73,.25-4.75,.34h-.33s0-.34,0-.34c-.01-.72-.03-1.47-.04-2.24,0-.4,0-.81-.01-1.23v-.64s0-.32,0-.32v-.16s0-.08,0-.08v-.06s0-.01,0-.01h0c-.35,.34,.48-.49,.39-.4,1.74,0,3.37,.02,4.75,.05h.35s0,.34,0,.34c-.08,3.02-.26,4.87-.34,4.75Z"/>
        </g>
        <g>
          <rect class="cls-2" x="460.07" y="156.28" width="4.75" height="4.75"/>
          <path class="cls-9" d="M464.82,161.04c-.08-.11-.26-2.07-.34-4.75l.34,.34c-1.38,.03-3.01,.05-4.75,.05-.09,.09,.74-.74,.39-.39h0v.32s0,.32,0,.32v.64c0,.42,0,.83-.01,1.23-.01,.77-.03,1.52-.04,2.24l-.34-.34c2.68,.08,4.64,.26,4.75,.34,.11,.08-1.73,.25-4.75,.34h-.33s0-.34,0-.34c-.01-.72-.03-1.47-.04-2.24,0-.4,0-.81-.01-1.23v-.64s0-.32,0-.32v-.16s0-.08,0-.08v-.06h0v-.02h0c-.35,.35,.48-.48,.39-.4,1.74,0,3.37,.02,4.75,.05h.35s0,.34,0,.34c-.08,3.02-.26,4.87-.34,4.75Z"/>
        </g>
      </g>
      <path class="cls-10" d="M267.75,224.4h36.6c4.85,0,4.86-7.54,0-7.54h-36.6c-4.85,0-4.86,7.54,0,7.54h0Z"/>
      <path class="cls-10" d="M309.26,317.23c8.64-8.61,17.28-17.23,25.92-25.85,3.44-3.43-1.89-8.76-5.33-5.33-8.64,8.61-17.28,17.23-25.92,25.85-3.44,3.43,1.89,8.76,5.33,5.33h0Z"/>
      <path class="cls-10" d="M371.29,324.82h57.91c4.85,0,4.86-7.54,0-7.54h-57.91c-4.85,0-4.86,7.54,0,7.54h0Z"/>
      <path class="cls-10" d="M385.99,338.79h29.96c4.85,0,4.86-7.54,0-7.54h-29.96c-4.85,0-4.86,7.54,0,7.54h0Z"/>
      <path class="cls-10" d="M304.1,127.88c8.68,8.58,17.36,17.15,26.03,25.73,3.45,3.41,8.79-1.91,5.33-5.33-8.68-8.58-17.36-17.15-26.03-25.73-3.45-3.41-8.79,1.91-5.33,5.33h0Z"/>
      <path class="cls-9" d="M458.09,237.65c-.22,0-.39-13.13-.39-29.33s.18-29.33,.39-29.33,.39,13.13,.39,29.33-.18,29.33-.39,29.33Z"/>
      <rect class="cls-2" x="457.42" y="210.95" width="1.34" height="1.34"/>
      <path class="cls-9" d="M459.26,237.93c0,.72-.59,1.31-1.31,1.31s-1.31-.59-1.31-1.31,.59-1.31,1.31-1.31,1.31,.59,1.31,1.31Z"/>
      <path class="cls-9" d="M459.26,180.13c0,.73-.59,1.31-1.31,1.31s-1.31-.59-1.31-1.31,.59-1.31,1.31-1.31,1.31,.59,1.31,1.31Z"/>
    </g>
    <rect class="cls-8" x="221.81" y="63.16" width="14.27" height="304.39"/>
    <rect class="cls-9" x="221.81" y="52.84" width="328.7" height="12.86"/>
    <rect class="cls-8" x="221.81" y="65.7" width="328.7" height="12.32"/>
    <path class="cls-8" d="M231.49,58.79c0,1.21-.98,2.2-2.2,2.2s-2.2-.98-2.2-2.2,.98-2.2,2.2-2.2,2.2,.98,2.2,2.2Z"/>
    <path class="cls-8" d="M238.45,58.79c0,1.21-.98,2.2-2.2,2.2s-2.2-.98-2.2-2.2,.98-2.2,2.2-2.2,2.2,.98,2.2,2.2Z"/>
    <path class="cls-8" d="M245.42,58.79c0,1.21-.98,2.2-2.2,2.2s-2.2-.98-2.2-2.2,.98-2.2,2.2-2.2,2.2,.98,2.2,2.2Z"/>
    <path class="cls-9" d="M245.01,77.92c0,.22-4.4,.39-9.82,.39s-9.82-.18-9.82-.39,4.4-.39,9.82-.39,9.82,.18,9.82,.39Z"/>
    <path class="cls-9" d="M236.08,88.47c-.22,0-.39-4.24-.39-9.46s.18-9.46,.39-9.46,.39,4.23,.39,9.46-.18,9.46-.39,9.46Z"/>
    <g>
      <path class="cls-9" d="M248.15,77.73c-.22,0-.39-1.15-.39-2.57s.18-2.57,.39-2.57,.39,1.15,.39,2.57-.18,2.57-.39,2.57Z"/>
      <path class="cls-9" d="M262.03,78c-.22,0-.39-1.96-.39-4.37s.18-4.37,.39-4.37,.39,1.96,.39,4.37-.18,4.37-.39,4.37Z"/>
      <path class="cls-9" d="M275.22,77.73c-.22,0-.39-1.15-.39-2.57s.18-2.57,.39-2.57,.39,1.15,.39,2.57-.18,2.57-.39,2.57Z"/>
      <path class="cls-9" d="M289.1,78c-.22,0-.39-1.96-.39-4.37s.18-4.37,.39-4.37,.39,1.96,.39,4.37-.18,4.37-.39,4.37Z"/>
      <path class="cls-9" d="M302.29,77.73c-.22,0-.39-1.15-.39-2.57s.18-2.57,.39-2.57,.39,1.15,.39,2.57-.18,2.57-.39,2.57Z"/>
      <path class="cls-9" d="M316.17,78c-.22,0-.39-1.96-.39-4.37s.18-4.37,.39-4.37,.39,1.96,.39,4.37-.18,4.37-.39,4.37Z"/>
      <path class="cls-9" d="M329.36,77.73c-.22,0-.39-1.15-.39-2.57s.18-2.57,.39-2.57,.39,1.15,.39,2.57-.18,2.57-.39,2.57Z"/>
      <path class="cls-9" d="M343.24,78c-.22,0-.39-1.96-.39-4.37s.18-4.37,.39-4.37,.39,1.96,.39,4.37-.18,4.37-.39,4.37Z"/>
      <path class="cls-9" d="M356.42,77.73c-.22,0-.39-1.15-.39-2.57s.18-2.57,.39-2.57,.39,1.15,.39,2.57-.18,2.57-.39,2.57Z"/>
      <path class="cls-9" d="M370.3,78c-.22,0-.39-1.96-.39-4.37s.18-4.37,.39-4.37,.39,1.96,.39,4.37-.18,4.37-.39,4.37Z"/>
      <path class="cls-9" d="M383.49,77.73c-.22,0-.39-1.15-.39-2.57s.18-2.57,.39-2.57,.39,1.15,.39,2.57-.18,2.57-.39,2.57Z"/>
      <path class="cls-9" d="M397.37,78c-.22,0-.39-1.96-.39-4.37s.18-4.37,.39-4.37,.39,1.96,.39,4.37-.18,4.37-.39,4.37Z"/>
      <path class="cls-9" d="M410.56,77.73c-.22,0-.39-1.15-.39-2.57s.18-2.57,.39-2.57,.39,1.15,.39,2.57-.18,2.57-.39,2.57Z"/>
      <path class="cls-9" d="M424.44,78c-.22,0-.39-1.96-.39-4.37s.18-4.37,.39-4.37,.39,1.96,.39,4.37-.18,4.37-.39,4.37Z"/>
      <path class="cls-9" d="M437.63,77.73c-.22,0-.39-1.15-.39-2.57s.18-2.57,.39-2.57,.39,1.15,.39,2.57-.18,2.57-.39,2.57Z"/>
      <path class="cls-9" d="M451.51,78c-.22,0-.39-1.96-.39-4.37s.18-4.37,.39-4.37,.39,1.96,.39,4.37-.18,4.37-.39,4.37Z"/>
      <path class="cls-9" d="M464.69,77.73c-.22,0-.39-1.15-.39-2.57s.18-2.57,.39-2.57,.39,1.15,.39,2.57-.18,2.57-.39,2.57Z"/>
      <path class="cls-9" d="M478.57,78c-.22,0-.39-1.96-.39-4.37s.18-4.37,.39-4.37,.39,1.96,.39,4.37-.18,4.37-.39,4.37Z"/>
      <path class="cls-9" d="M491.76,77.73c-.22,0-.39-1.15-.39-2.57s.18-2.57,.39-2.57,.39,1.15,.39,2.57-.18,2.57-.39,2.57Z"/>
      <path class="cls-9" d="M505.64,78c-.22,0-.39-1.96-.39-4.37s.18-4.37,.39-4.37,.39,1.96,.39,4.37-.18,4.37-.39,4.37Z"/>
      <path class="cls-9" d="M518.83,77.73c-.22,0-.39-1.15-.39-2.57s.18-2.57,.39-2.57,.39,1.15,.39,2.57-.18,2.57-.39,2.57Z"/>
    </g>
    <g>
      <path class="cls-9" d="M235.52,360.52c0,.22-1.15,.39-2.57,.39s-2.57-.18-2.57-.39,1.15-.39,2.57-.39,2.57,.18,2.57,.39Z"/>
      <path class="cls-9" d="M235.8,346.64c0,.22-1.96,.39-4.37,.39s-4.37-.18-4.37-.39,1.96-.39,4.37-.39,4.37,.18,4.37,.39Z"/>
      <path class="cls-9" d="M235.52,333.45c0,.22-1.15,.39-2.57,.39s-2.57-.18-2.57-.39,1.15-.39,2.57-.39,2.57,.18,2.57,.39Z"/>
      <path class="cls-9" d="M235.8,319.57c0,.22-1.96,.39-4.37,.39s-4.37-.18-4.37-.39,1.96-.39,4.37-.39,4.37,.18,4.37,.39Z"/>
      <path class="cls-9" d="M235.52,306.38c0,.22-1.15,.39-2.57,.39s-2.57-.18-2.57-.39,1.15-.39,2.57-.39,2.57,.18,2.57,.39Z"/>
      <path class="cls-9" d="M235.8,292.5c0,.22-1.96,.39-4.37,.39s-4.37-.18-4.37-.39,1.96-.39,4.37-.39,4.37,.18,4.37,.39Z"/>
      <path class="cls-9" d="M235.52,279.31c0,.22-1.15,.39-2.57,.39s-2.57-.18-2.57-.39,1.15-.39,2.57-.39,2.57,.18,2.57,.39Z"/>
      <path class="cls-9" d="M235.8,265.43c0,.22-1.96,.39-4.37,.39s-4.37-.18-4.37-.39,1.96-.39,4.37-.39,4.37,.18,4.37,.39Z"/>
      <path class="cls-9" d="M235.52,252.25c0,.22-1.15,.39-2.57,.39s-2.57-.18-2.57-.39,1.15-.39,2.57-.39,2.57,.18,2.57,.39Z"/>
      <path class="cls-9" d="M235.8,238.37c0,.22-1.96,.39-4.37,.39s-4.37-.18-4.37-.39,1.96-.39,4.37-.39,4.37,.18,4.37,.39Z"/>
      <path class="cls-9" d="M235.52,225.18c0,.22-1.15,.39-2.57,.39s-2.57-.18-2.57-.39,1.15-.39,2.57-.39,2.57,.18,2.57,.39Z"/>
      <path class="cls-9" d="M235.8,211.3c0,.22-1.96,.39-4.37,.39s-4.37-.18-4.37-.39,1.96-.39,4.37-.39,4.37,.18,4.37,.39Z"/>
      <path class="cls-9" d="M235.52,198.11c0,.22-1.15,.39-2.57,.39s-2.57-.18-2.57-.39,1.15-.39,2.57-.39,2.57,.18,2.57,.39Z"/>
      <path class="cls-9" d="M235.8,184.23c0,.22-1.96,.39-4.37,.39s-4.37-.18-4.37-.39,1.96-.39,4.37-.39,4.37,.18,4.37,.39Z"/>
      <path class="cls-9" d="M235.52,171.04c0,.22-1.15,.39-2.57,.39s-2.57-.18-2.57-.39,1.15-.39,2.57-.39,2.57,.18,2.57,.39Z"/>
      <path class="cls-9" d="M235.8,157.16c0,.22-1.96,.39-4.37,.39s-4.37-.18-4.37-.39,1.96-.39,4.37-.39,4.37,.18,4.37,.39Z"/>
      <path class="cls-9" d="M235.52,143.98c0,.22-1.15,.39-2.57,.39s-2.57-.18-2.57-.39,1.15-.39,2.57-.39,2.57,.18,2.57,.39Z"/>
      <path class="cls-9" d="M235.8,130.1c0,.22-1.96,.39-4.37,.39s-4.37-.18-4.37-.39,1.96-.39,4.37-.39,4.37,.18,4.37,.39Z"/>
      <path class="cls-9" d="M235.52,116.91c0,.22-1.15,.39-2.57,.39s-2.57-.18-2.57-.39,1.15-.39,2.57-.39,2.57,.18,2.57,.39Z"/>
      <path class="cls-9" d="M235.8,103.03c0,.22-1.96,.39-4.37,.39s-4.37-.18-4.37-.39,1.96-.39,4.37-.39,4.37,.18,4.37,.39Z"/>
      <path class="cls-9" d="M235.52,89.84c0,.22-1.15,.39-2.57,.39s-2.57-.18-2.57-.39,1.15-.39,2.57-.39,2.57,.18,2.57,.39Z"/>
    </g>
    <path class="cls-9" d="M550.51,367.55s-.02-.14-.03-.39c0-.26-.02-.63-.03-1.12-.01-.99-.03-2.45-.06-4.37-.03-3.84-.07-9.51-.12-16.92-.06-14.77-.15-36.42-.26-63.99-.12-54.98-.3-133.54-.52-227.92l1.01,1.01c-95.17,.05-208.05,.11-328.67,.17h-.03l1.18-1.18c-.06,114.96-.11,222.87-.15,314.7l-1.03-1.03c98.3,.22,180.36,.4,237.86,.52,28.83,.12,51.49,.21,66.96,.27,7.75,.05,13.7,.09,17.72,.12,2.01,.03,3.54,.05,4.58,.06,.51,.01,.9,.02,1.17,.03,.27,0,.4,.02,.41,.03s-.11,.02-.36,.03c-.26,0-.63,.02-1.12,.03-1.01,.01-2.5,.03-4.46,.06-3.98,.03-9.86,.07-17.52,.12-15.42,.06-38,.15-66.73,.27-57.65,.13-139.94,.31-238.51,.52h-1.03s0-1.03,0-1.03c-.04-91.84-.1-199.74-.15-314.7v-1.18s1.18,0,1.18,0h.03c120.62,.06,233.5,.12,328.67,.17h1.01s0,1.01,0,1.01c-.21,94.64-.39,173.43-.52,228.56-.11,27.47-.2,49.04-.26,63.76-.05,7.32-.09,12.93-.12,16.72-.03,1.87-.04,3.29-.06,4.26-.01,.47-.02,.82-.03,1.06,0,.23-.02,.35-.03,.34Z"/>
  </g>
  <g>
    <g>
      <g>
        <g>
          <path class="cls-2" d="M696.84,233.77c1.48,1.2,2.33,3.1,2.11,5.13-.36,3.17-3.21,5.45-6.38,5.09-3.17-.36-5.45-3.21-5.09-6.38,.23-2.03,1.49-3.69,3.19-4.53l-11.36-1.28c1.48,1.2,2.33,3.1,2.11,5.13-.36,3.17-3.21,5.45-6.38,5.09-3.17-.36-5.45-3.21-5.09-6.38,.23-2.03,1.49-3.69,3.19-4.53l-11.36-1.28c1.48,1.2,2.33,3.1,2.11,5.13-.36,3.17-3.21,5.45-6.38,5.09-3.17-.36-5.45-3.21-5.09-6.38,.23-2.03,1.49-3.69,3.19-4.53l-11.36-1.28c1.48,1.2,2.33,3.1,2.11,5.13-.36,3.17-3.21,5.45-6.38,5.09-3.17-.36-5.45-3.21-5.09-6.38,.23-2.03,1.49-3.69,3.19-4.53l-11.36-1.28c1.48,1.2,2.33,3.1,2.11,5.13-.36,3.17-3.21,5.45-6.38,5.09-3.17-.36-5.45-3.21-5.09-6.38,.23-2.03,1.49-3.69,3.19-4.53l-11.36-1.28c1.48,1.2,2.33,3.1,2.11,5.13-.36,3.17-3.21,5.45-6.38,5.09-3.17-.36-5.45-3.21-5.09-6.38,.23-2.03,1.49-3.69,3.19-4.53l-7.79-.87-16.51,147.06,113.11,12.7,16.51-147.06-11.45-1.29Z"/>
          <path class="cls-9" d="M696.84,233.77c.69,.07,4.16,.43,11.46,1.18h.1s-.01,.11-.01,.11c-2.48,22.36-8.39,75.76-16.28,147.08l-.04,.33-.33-.04c-33.9-3.79-72.19-8.07-113.12-12.65l-.38-.04,.04-.38c2.11-18.85,4.32-38.48,6.56-58.52,3.45-30.72,6.8-60.47,9.95-88.54l.04-.38,.38,.04c2.63,.3,5.22,.59,7.79,.88l1.31,.15-1.19,.56c-2.17,1.03-3.41,3.58-2.92,5.89,.44,2.32,2.53,4.19,4.86,4.33,2.33,.23,4.66-1.25,5.46-3.41,.88-2.14,.16-4.76-1.63-6.17l-1-.79,1.27,.14c3.86,.44,7.63,.86,11.36,1.28l1.25,.14-1.13,.53c-2.21,1.04-3.45,3.65-2.91,5.98,.46,2.35,2.61,4.18,4.95,4.28,2.34,.19,4.64-1.33,5.42-3.49,.86-2.14,.12-4.74-1.66-6.13l-.93-.73,1.18,.13c3.92,.44,7.67,.87,11.36,1.28l1.15,.13-1.04,.49c-2.26,1.07-3.5,3.74-2.91,6.09,.5,2.37,2.72,4.17,5.07,4.23,2.36,.15,4.62-1.43,5.37-3.59,.82-2.15,.07-4.71-1.7-6.1l-.84-.66,1.06,.12c4.01,.45,7.73,.88,11.36,1.29l.99,.11-.9,.44c-1.14,.56-2.07,1.52-2.58,2.66-.51,1.13-.63,2.44-.32,3.62,.57,2.41,2.89,4.15,5.26,4.14,2.38,.05,4.58-1.59,5.28-3.76,.75-2.17-.03-4.66-1.76-6.02l-.71-.56,.9,.1c4.17,.47,7.83,.89,11.36,1.29l.82,.09-.74,.36c-1.23,.6-2.2,1.65-2.69,2.87-.5,1.22-.53,2.6-.14,3.8,.76,2.48,3.31,4.04,5.69,3.82,2.4-.15,4.43-1.97,4.96-4.12,.61-2.16-.26-4.48-1.87-5.76l-.51-.41,.65,.07c4.52,.52,8.07,.92,11.36,1.3l.56,.06-.5,.24c-2.15,1.03-3.31,3.34-3.14,5.41,.13,2.09,1.44,3.86,3.05,4.65,1.61,.84,3.44,.78,4.83,.16,1.4-.61,2.39-1.7,2.9-2.82,1.04-2.31,.34-4.36-.31-5.39-.67-1.07-1.27-1.45-1.23-1.46,0,.01,.14,.09,.38,.31,.24,.22,.58,.57,.93,1.11,.68,1.03,1.43,3.11,.39,5.5-.51,1.16-1.52,2.3-2.97,2.94-1.43,.65-3.33,.73-5.02-.13-1.69-.82-3.08-2.66-3.22-4.85-.19-2.17,1.02-4.62,3.28-5.71l.05,.3c-3.29-.36-6.84-.75-11.37-1.25l.14-.33c1.72,1.36,2.66,3.84,2.02,6.15-.56,2.31-2.73,4.28-5.32,4.44-2.56,.25-5.32-1.43-6.15-4.11-.43-1.31-.4-2.8,.14-4.12,.53-1.33,1.58-2.47,2.91-3.13l.08,.45c-3.53-.39-7.19-.8-11.36-1.26l.19-.45c1.89,1.48,2.75,4.21,1.94,6.58-.75,2.38-3.17,4.19-5.79,4.14-2.6,.02-5.17-1.89-5.81-4.55-.35-1.31-.22-2.74,.34-4,.57-1.26,1.58-2.32,2.85-2.94l.1,.55c-3.64-.4-7.35-.82-11.36-1.26l.23-.54c1.96,1.53,2.8,4.38,1.9,6.78-.83,2.41-3.35,4.18-5.98,4.02-2.63-.06-5.11-2.06-5.67-4.72-.3-1.31-.16-2.72,.42-3.95,.58-1.23,1.59-2.26,2.83-2.88l.11,.62c-3.69-.41-7.44-.83-11.36-1.27l.25-.6c2,1.56,2.84,4.49,1.87,6.9-.87,2.44-3.46,4.16-6.11,3.94-1.31-.07-2.59-.6-3.6-1.46-1-.87-1.73-2.06-2-3.37-.62-2.63,.79-5.59,3.29-6.77l.12,.67c-3.73-.42-7.5-.84-11.36-1.27l.27-.64c2.03,1.59,2.85,4.57,1.85,7-.91,2.46-3.56,4.14-6.2,3.88-2.66-.15-5.04-2.27-5.54-4.92-.57-2.63,.85-5.54,3.32-6.71l.12,.71c-2.58-.29-5.17-.58-7.79-.87l.42-.33c-3.15,28.07-6.48,57.81-9.93,88.54-2.25,20.05-4.46,39.67-6.58,58.52l-.34-.43c40.92,4.61,79.21,8.93,113.1,12.75l-.37,.3c8.12-71.3,14.2-124.68,16.74-147.03l.09,.11c-7.29-.88-10.75-1.3-11.44-1.39Z"/>
        </g>
        <path class="cls-7" d="M594.41,371.18c-.22-.02,3.05-30.71,7.3-68.53,4.25-37.83,7.86-68.47,8.08-68.45,.22,.02-3.05,30.7-7.3,68.54-4.25,37.82-7.86,68.47-8.08,68.44Z"/>
        <path class="cls-7" d="M706.62,249.92c-.02,.22-25.37-2.45-56.6-5.96-31.24-3.51-56.54-6.52-56.51-6.74s25.36,2.45,56.6,5.96c31.23,3.51,56.53,6.52,56.51,6.74Z"/>
        <path class="cls-7" d="M610.93,373.04c-.22-.02,3.08-30.95,7.36-69.06,4.28-38.13,7.92-69,8.14-68.98,.22,.02-3.08,30.94-7.36,69.07-4.28,38.11-7.92,69-8.14,68.97Z"/>
        <path class="cls-7" d="M627.45,374.89c-.22-.02,3.05-30.71,7.3-68.53,4.25-37.83,7.86-68.47,8.08-68.45,.22,.02-3.05,30.7-7.3,68.54-4.25,37.82-7.86,68.47-8.08,68.44Z"/>
        <path class="cls-7" d="M643.98,376.75c-.22-.02,3.05-30.71,7.3-68.53,4.25-37.83,7.86-68.47,8.08-68.45,.22,.02-3.05,30.7-7.3,68.54-4.25,37.82-7.86,68.47-8.08,68.44Z"/>
        <path class="cls-7" d="M660.5,378.6c-.22-.02,3.04-30.61,7.27-68.32,4.23-37.72,7.84-68.26,8.06-68.24,.22,.02-3.04,30.61-7.28,68.32-4.23,37.7-7.84,68.25-8.06,68.23Z"/>
        <path class="cls-7" d="M677.02,380.46c-.22-.02,3.09-30.6,7.38-68.28,4.29-37.69,7.95-68.22,8.16-68.19,.22,.02-3.09,30.59-7.38,68.28-4.29,37.68-7.95,68.21-8.16,68.19Z"/>
        <path class="cls-7" d="M695.66,347.55c-.02,.22-25.38-2.45-56.63-5.96-31.26-3.51-56.57-6.53-56.54-6.74,.02-.22,25.37,2.45,56.63,5.96,31.25,3.51,56.56,6.53,56.54,6.74Z"/>
        <path class="cls-7" d="M693.82,363.94c-.02,.22-25.38-2.45-56.63-5.96-31.26-3.51-56.57-6.53-56.54-6.74,.02-.22,25.37,2.45,56.63,5.96,31.25,3.51,56.56,6.53,56.54,6.74Z"/>
        <path class="cls-7" d="M697.51,331.03c-.02,.22-25.58-2.48-57.07-6.01-31.5-3.54-57.01-6.58-56.98-6.79,.02-.22,25.57,2.48,57.07,6.01,31.49,3.54,57,6.58,56.98,6.79Z"/>
        <path class="cls-7" d="M699.37,314.51c-.02,.22-25.38-2.45-56.63-5.96-31.26-3.51-56.57-6.53-56.54-6.74,.02-.22,25.37,2.45,56.63,5.96,31.25,3.51,56.56,6.53,56.54,6.74Z"/>
        <path class="cls-7" d="M701.22,297.99c-.02,.22-25.38-2.45-56.63-5.96-31.26-3.51-56.57-6.53-56.54-6.74s25.37,2.45,56.63,5.96c31.25,3.51,56.56,6.53,56.54,6.74Z"/>
        <path class="cls-7" d="M703.08,281.46c-.02,.22-25.3-2.45-56.45-5.94-31.16-3.5-56.39-6.51-56.37-6.72,.02-.22,25.3,2.44,56.46,5.94,31.15,3.5,56.39,6.51,56.36,6.72Z"/>
        <path class="cls-7" d="M704.93,264.94c-.02,.22-25.29-2.49-56.41-6.05-31.14-3.56-56.35-6.61-56.33-6.83,.02-.22,25.28,2.49,56.42,6.05,31.13,3.56,56.35,6.61,56.32,6.83Z"/>
      </g>
      <path class="cls-9" d="M633.22,335.15s-.26,.04-.75-.02c-.48-.07-1.2-.31-1.95-.9-1.48-1.17-2.86-3.81-2.81-7.18,0-1.66,.22-3.45,.2-5.35,0-1.89-.38-3.91-1.65-5.61-1.2-1.73-2.99-3.21-4.34-5.24-1.35-2-2.29-4.37-2.75-6.88-.89-5.05,.15-10.05,2.22-13.93,2.08-3.9,4.95-6.75,7.57-8.75,2.64-2.01,5.05-3.2,6.73-3.95,.85-.36,1.51-.62,1.98-.77,.46-.16,.7-.22,.71-.2,.02,.06-.92,.44-2.56,1.24-1.63,.82-3.97,2.08-6.52,4.11-2.53,2.01-5.3,4.84-7.27,8.64-1.96,3.77-2.94,8.61-2.08,13.46,.44,2.41,1.33,4.68,2.61,6.59,1.26,1.93,3.03,3.41,4.29,5.26,1.35,1.83,1.75,4.08,1.71,6.02-.01,1.96-.26,3.74-.3,5.36-.12,3.22,1.12,5.77,2.45,6.93,1.38,1.19,2.54,1.05,2.5,1.16Z"/>
      <path class="cls-9" d="M652.66,336.77s.09-.29,.26-.83c.17-.54,.37-1.36,.59-2.42,.45-2.12,.81-5.25,1.74-9.06,.26-.95,.53-1.95,.99-2.94,.47-1.01,1.14-1.91,1.85-2.82,1.42-1.83,3.15-3.58,4.8-5.52,1.67-1.93,3.13-4.17,4.11-6.74,1.01-2.56,1.47-5.43,1.46-8.34-.04-5.85-2.34-11.34-5.88-14.94-3.54-3.65-7.92-5.57-11.66-6.35-3.78-.77-6.95-.54-9.07-.13-2.12,.41-3.24,.89-3.27,.8,0-.03,.27-.15,.8-.36,.53-.23,1.34-.48,2.41-.75,2.12-.51,5.36-.84,9.24-.11,3.84,.74,8.37,2.64,12.07,6.4,3.7,3.71,6.1,9.4,6.14,15.44,.01,3.01-.47,5.97-1.53,8.62-1.02,2.66-2.57,5-4.28,6.94-3.38,3.88-6.98,7.02-7.65,10.95-.98,3.74-1.44,6.87-1.98,8.99-.26,1.06-.51,1.88-.74,2.41-.23,.53-.4,.79-.41,.78Z"/>
      <path class="cls-9" d="M651.59,336.65c.02,.1-1.03,.4-2.78,.67-1.75,.27-4.2,.46-6.9,.34-2.7-.12-5.13-.53-6.84-.95-1.72-.42-2.74-.82-2.71-.91,.06-.23,4.27,.86,9.59,1.08,5.32,.25,9.61-.46,9.65-.22Z"/>
      <path class="cls-9" d="M650.42,343.1c.02,.2-4.22,.74-9.45,.27-5.23-.45-9.32-1.72-9.26-1.91,.06-.23,4.17,.69,9.33,1.13,5.15,.47,9.37,.28,9.38,.51Z"/>
      <path class="cls-9" d="M648.01,349.32c.06,.19-3.04,1.08-6.95,.69-3.91-.36-6.78-1.84-6.69-2.01,.09-.22,3,.88,6.76,1.22,3.76,.38,6.83-.14,6.87,.09Z"/>
      <path class="cls-9" d="M624.89,307.47s-.2-.38-.38-1.1c-.18-.73-.37-1.8-.45-3.14-.17-2.67,.25-6.5,2.07-10.23,1.83-3.73,4.59-6.41,6.81-7.91,1.11-.76,2.07-1.27,2.76-1.57,.69-.3,1.08-.42,1.1-.37,.06,.12-1.45,.8-3.54,2.39-2.08,1.58-4.67,4.22-6.43,7.81-1.76,3.58-2.25,7.26-2.22,9.86,.01,2.63,.41,4.23,.28,4.26Z"/>
      <path class="cls-9" d="M645.3,281.77c0,.22-.56,.39-1.25,.38-.69,0-1.25-.19-1.24-.41,0-.22,.56-.39,1.25-.38,.69,0,1.25,.19,1.24,.41Z"/>
      <path class="cls-9" d="M621.74,322.29c.1,.19-3.38,2.12-7.77,4.31-4.39,2.19-8.03,3.8-8.13,3.61-.1-.19,3.38-2.12,7.78-4.31,4.39-2.19,8.03-3.8,8.13-3.61Z"/>
      <path class="cls-9" d="M611.78,296.54c0,.22-3.19,.4-7.13,.41-3.94,.01-7.13-.16-7.13-.37,0-.22,3.19-.4,7.13-.41,3.94-.01,7.13,.16,7.13,.37Z"/>
      <path class="cls-9" d="M626.04,275.15c-.12,.17-3.37-1.88-7.05-4.87-3.68-2.99-6.35-5.76-6.2-5.91,.15-.16,3.04,2.33,6.7,5.3,3.64,2.97,6.68,5.3,6.55,5.48Z"/>
      <path class="cls-9" d="M648.46,269.13c-.22,0-.54-3.58-.72-8.02-.18-4.44-.15-8.04,.07-8.05,.22,0,.54,3.58,.72,8.02,.18,4.44,.15,8.04-.07,8.05Z"/>
      <path class="cls-9" d="M683.61,267.86c.14,.15-2.53,2.97-6.35,5.86-3.81,2.9-7.25,4.73-7.35,4.55-.12-.2,3.11-2.3,6.87-5.18,3.77-2.86,6.67-5.4,6.82-5.24Z"/>
      <path class="cls-9" d="M686.33,306.08c.03,.2-3.11,.77-7.02,.52-3.91-.23-6.96-1.18-6.91-1.38,.05-.22,3.12,.36,6.96,.59,3.83,.25,6.95,.04,6.97,.27Z"/>
      <path class="cls-9" d="M675.14,336.55c-.17,.15-2.34-2.11-5.15-4.75-2.8-2.65-5.18-4.68-5.04-4.86,.13-.17,2.75,1.61,5.58,4.29,2.84,2.67,4.77,5.18,4.61,5.32Z"/>
      <path class="cls-9" d="M646.17,349.55c.08,.02-.06,.94-1,2.06-.89,1.1-2.74,2.33-5.03,2.26-2.29-.09-4.05-1.44-4.87-2.6-.86-1.18-.94-2.11-.86-2.12,.12-.05,.4,.78,1.29,1.77,.86,.98,2.47,2.09,4.46,2.16,1.99,.06,3.68-.94,4.6-1.86,.95-.93,1.28-1.73,1.4-1.68Z"/>
    </g>
    <path class="cls-10" d="M607.88,244.92c-.37,3.32-3.37,5.71-6.68,5.34-3.32-.37-5.71-3.37-5.33-6.68,.37-3.32,3.37-5.71,6.68-5.33,3.32,.37,5.71,3.37,5.33,6.68Z"/>
    <path class="cls-10" d="M711.14,249.33c-.37,3.32-3.37,5.71-6.68,5.33-3.32-.37-5.71-3.37-5.33-6.68,.37-3.32,3.37-5.71,6.68-5.34,3.32,.37,5.71,3.37,5.33,6.68Z"/>
    <path class="cls-10" d="M640.79,333.11s-.23-.63-.17-1.88c.06-1.23,.55-3.09,1.94-4.99,1.35-1.92,3.56-3.82,6.35-5.51,2.71-1.75,6.1-3.48,8.46-6.71l.32,.49c-5.3,1.18-11.27,2.5-17.71,3.93-.81,.18-1.63,.36-2.45,.54-.43,.08-.92,.15-1.43,0-.51-.14-.97-.55-1.14-1.1-.33-2.19,1.43-3.55,2.62-4.68,2.58-2.4,5.24-4.86,7.94-7.37,4.42-4.09,8.7-8.05,12.75-11.8l.3,.65c-11.08,1.17-20.61,4.4-27.75,7.77l-.67,.31,.29-.67c2.41-5.57,5.77-9.29,8.25-11.52,1.25-1.12,2.31-1.89,3.04-2.4,.37-.25,.65-.42,.85-.54,.19-.12,.3-.17,.3-.16,.02,.02-.35,.3-1.06,.83-.69,.54-1.71,1.35-2.92,2.49-2.4,2.28-5.65,6-7.95,11.51l-.38-.36c7.15-3.48,16.74-6.81,27.91-8.02l1.14-.12-.84,.78c-4.04,3.75-8.32,7.72-12.73,11.82-2.71,2.51-5.36,4.96-7.95,7.36-.65,.62-1.33,1.15-1.77,1.81-.45,.64-.83,1.47-.65,2.07,.17,.6,.93,.78,1.7,.59,.82-.18,1.63-.35,2.43-.52,6.45-1.39,12.43-2.67,17.73-3.81l.82-.18-.5,.67c-2.52,3.38-5.99,5.07-8.7,6.78-2.8,1.64-4.97,3.44-6.33,5.29-1.4,1.82-1.92,3.59-2.04,4.79-.11,1.21,.05,1.86-.01,1.86Z"/>
  </g>
  <g>
    <g>
      <path class="cls-2" d="M164.81,309.72l-8.99-15.84c3.98-6.46,6.28-14.06,6.28-22.2,0-23.41-18.97-42.38-42.38-42.38s-42.38,18.97-42.38,42.38,18.97,42.38,42.38,42.38c9.77,0,18.77-3.32,25.94-8.88v.02s19.16,4.51,19.16,4.51Z"/>
      <path class="cls-9" d="M164.81,309.72c-1.1-.25-7.06-1.6-19.21-4.36-.09-.02-.14-.1-.12-.19,0-.02,.02-.04,.03-.06v-.02s.24,.22,.24,.22c-4.79,3.76-11.69,7.41-20.36,8.59-2.15,.28-4.41,.45-6.72,.34-1.16-.06-2.33-.09-3.52-.19-1.18-.18-2.37-.36-3.59-.54-4.81-.95-9.72-2.77-14.3-5.61-4.58-2.83-8.82-6.68-12.22-11.41-3.39-4.72-5.97-10.32-7.18-16.4-1.19-6.07-1.1-12.58,.5-18.88,1.61-6.28,4.61-12.41,9.1-17.46,4.55-5.16,10.16-9.28,16.36-11.68,6.17-2.45,12.74-3.38,19.03-2.92,6.29,.45,12.3,2.26,17.46,5.16,5.18,2.88,9.54,6.73,12.91,11.03,3.38,4.3,5.76,9.04,7.23,13.77,1.46,4.74,1.86,9.45,1.84,13.8-.25,8.77-3.19,15.97-6.34,21.04v-.16c5.62,10.1,8.34,14.98,8.86,15.92-.54-.93-3.33-5.76-9.12-15.77-.03-.05-.03-.11,0-.16,3.09-5.06,5.96-12.21,6.16-20.89,0-4.31-.41-8.96-1.87-13.64-1.47-4.66-3.84-9.34-7.18-13.57-3.34-4.23-7.65-8.02-12.76-10.86-5.1-2.86-11.03-4.63-17.23-5.06-6.2-.44-12.68,.48-18.75,2.9-6.1,2.36-11.63,6.43-16.11,11.51-4.43,4.97-7.38,11.01-8.97,17.2-1.57,6.21-1.68,12.62-.51,18.61,1.18,6,3.71,11.52,7.05,16.18,3.35,4.67,7.52,8.48,12.04,11.28,4.52,2.82,9.36,4.63,14.11,5.59,1.2,.18,2.38,.37,3.54,.55,1.17,.1,2.34,.13,3.48,.2,2.29,.12,4.52-.05,6.65-.31,8.57-1.13,15.43-4.71,20.22-8.4,.07-.05,.17-.04,.22,.03,.05,.06,.04,.14,0,.19v.02s-.1-.25-.1-.25c12.11,2.95,18.04,4.4,19.14,4.67Z"/>
    </g>
    <polygon class="cls-10" points="102.05 272.39 107.03 267.41 116.63 275.94 135.48 257.81 140.1 262.78 115.92 285.55 102.05 272.39"/>
  </g>
  <g>
    <g>
      <g>
        <path class="cls-4" d="M209.52,314.21l13.7,21.23,18.35,16.7,9.64-14.62-.61-14.25-.51-11.95s15.77-2.92,15.5-18.76c-.13-7.65-1.67-23.38-3.24-37.59-1.68-15.29-14.82-26.73-30.2-26.28l-1.53,.04c-16.45,1.44-24.41,16.21-22.51,32.61l1.4,52.87"/>
        <path class="cls-11" d="M250.11,311.31s-9.98,1.1-20.81-5.27c0,0,5.21,11.25,20.97,9.37l-.16-4.1Z"/>
        <path class="cls-9" d="M258.21,269.05c.08,1.19-.87,2.24-2.11,2.34-1.24,.1-2.31-.78-2.39-1.97-.08-1.19,.87-2.24,2.11-2.35,1.24-.1,2.32,.78,2.39,1.97Z"/>
        <path class="cls-9" d="M259.39,261.96c-.27,.3-2.02-.92-4.45-.84-2.43,.04-4.18,1.35-4.45,1.06-.13-.13,.14-.67,.9-1.26,.75-.59,2.04-1.17,3.55-1.21,1.52-.04,2.81,.48,3.56,1.04,.76,.55,1.03,1.08,.9,1.21Z"/>
        <path class="cls-9" d="M236.71,269.05c.08,1.19-.87,2.24-2.11,2.34-1.24,.1-2.31-.78-2.39-1.97-.08-1.19,.87-2.24,2.11-2.35,1.24-.1,2.32,.78,2.39,1.97Z"/>
        <path class="cls-9" d="M235.12,261.98c-.24,.33-2.11-.69-4.52-.35-2.41,.31-4.01,1.79-4.31,1.53-.15-.11,.06-.68,.76-1.35,.68-.66,1.9-1.39,3.4-1.59,1.5-.2,2.84,.18,3.65,.64,.82,.47,1.14,.96,1.03,1.11Z"/>
        <path class="cls-9" d="M244.63,281.74c-.02-.14,1.49-.44,3.93-.83,.62-.08,1.2-.22,1.3-.65,.13-.45-.15-1.12-.47-1.83-.63-1.49-1.29-3.04-1.97-4.68-2.75-6.66-4.76-12.15-4.49-12.26,.27-.11,2.72,5.2,5.46,11.87,.66,1.64,1.3,3.21,1.9,4.71,.26,.7,.68,1.49,.39,2.43-.15,.47-.6,.82-1,.94-.39,.13-.74,.15-1.05,.18-2.46,.2-3.99,.26-4.01,.12Z"/>
        <path class="cls-9" d="M235.15,251.48c-.22,.67-2.66,.43-5.5,.85-2.85,.37-5.13,1.27-5.53,.69-.18-.28,.21-.91,1.12-1.58,.9-.67,2.36-1.32,4.07-1.56,1.71-.24,3.29-.01,4.34,.38,1.06,.39,1.6,.9,1.51,1.21Z"/>
        <path class="cls-9" d="M258.72,252.56c-.41,.57-2.1,.04-4.12,.07-2.02-.04-3.71,.48-4.12-.09-.18-.28,.07-.84,.8-1.38,.72-.54,1.94-1,3.32-1,1.39,0,2.6,.47,3.32,1.02,.73,.55,.98,1.11,.8,1.38Z"/>
        <g>
          <path class="cls-4" d="M209.75,273.02c-.27-.11-10.97-2.9-10.31,7.91,.66,10.81,11.38,7.92,11.38,7.61,0-.31-1.07-15.52-1.07-15.52Z"/>
          <path class="cls-11" d="M207.26,284.65s-.18,.14-.49,.31c-.3,.16-.83,.29-1.41,.11-1.17-.35-2.24-2.1-2.41-4.05-.09-.98,.06-1.93,.36-2.73,.28-.81,.76-1.4,1.33-1.53,.56-.17,.99,.15,1.14,.45,.16,.29,.11,.51,.17,.53,.03,.03,.22-.2,.11-.64-.06-.21-.2-.46-.47-.65-.27-.2-.66-.28-1.06-.21-.83,.11-1.53,.92-1.87,1.8-.38,.88-.57,1.95-.47,3.05,.2,2.18,1.44,4.15,3.03,4.5,.77,.15,1.39-.12,1.71-.39,.32-.29,.36-.53,.32-.55Z"/>
        </g>
        <path class="cls-9" d="M263.58,236.44c-.54-2.08-2.15-4.04-4.28-4.3,.83-2.05,.07-4.63-1.74-5.89-1.81-1.27-4.49-1.1-6.13,.38,.04-3.3-4.09-5.85-7.03-4.32,.06-1.92-1.33-3.78-3.19-4.27-1.86-.48-3.99,.47-4.87,2.17-2.38-3.82-8.73-4.15-11.49-.6-4.36-1.42-9.62,1.09-11.27,5.37-3.53,.29-6.74,2.95-7.69,6.36-2.26,.25-4.34,1.78-5.26,3.87-.91,2.09-.63,4.65,.72,6.49-2.7,1.4-3.14,5.75-.78,7.66-1.58,.83-2.61,2.62-2.53,4.41,.08,1.79,1.26,3.48,2.91,4.17-1.59,.24-2.16,2.37-1.65,3.89,.52,1.52,1.71,2.72,2.38,4.18,.55,1.2,.74,2.54,1.22,3.77,.9,2.32,2.89,4.18,5.25,4.95-.09,.11-.18,.22-.27,.33-.24,1.4,1.72,2.29,3.01,1.71,1.29-.59,1.99-1.96,2.71-3.18,.82-1.4,1.8-2.76,2.15-4.34,.35-1.59-.15-3.51-1.61-4.21,1.85-.67,3-2.61,3.3-4.56,.3-1.95-.11-3.93-.51-5.86-.59-2.85-1.19-5.69-1.78-8.54,3.92-.21,7.62-2.79,9.17-6.4,2.87,2.08,7.53,.8,8.92-2.46,1.37,3.84,6.12,6.09,9.95,4.7-.36,2.25,3.72,4.22,5.94,4.75,2.22,.53,4.94-1.11,4.94-1.11,0,0,3.85,2.13,5.91,1.25,2.01-.87,4.68-3.56,3.28-5.66,0,0,.85-2.63,.31-4.71Z"/>
        <path class="cls-8" d="M200.02,249.35c.1-.04,.19,.74,1.11,1.37,.45,.29,1.11,.49,1.78,.27,.66-.21,1.33-.84,1.46-1.64l.11-.65,.51,.43c.74,.62,1.97,.85,2.99,.38,1.14-.52,1.76-1.85,1.6-2.92l-.09-.64,.59,.23c.75,.29,1.58,.21,2.19-.08,.62-.28,1.04-.76,1.3-1.21,.5-.92,.4-1.6,.51-1.6,.05-.03,.35,.68-.1,1.8-.23,.54-.68,1.17-1.42,1.57-.73,.4-1.74,.56-2.73,.22l.5-.41c.24,1.38-.48,3.06-2,3.77-1.34,.6-2.87,.29-3.82-.55l.62-.22c-.24,1.15-1.15,1.9-2.04,2.13-.92,.24-1.76-.1-2.24-.51-1.01-.88-.89-1.78-.83-1.75Z"/>
        <path class="cls-8" d="M198.69,259.76c.05-.07,.4,.29,1.17,.42,.72,.13,2.07-.07,2.69-1.23l.2-.38,.31,.31c.62,.63,1.73,1,2.78,.69,1.03-.28,1.93-1.37,1.95-2.59v-.71s.62,.37,.62,.37c.15,.09,.32,.16,.5,.21,.83,.22,1.77-.13,2.17-.79,.43-.67,.4-1.57,.03-2.16l-.42-.66,.77,.1c.94,.12,1.85-.2,2.48-.68,.63-.48,.99-1.13,1.17-1.69,.35-1.15,.09-1.88,.19-1.9,.04-.04,.48,.68,.23,2.01-.13,.64-.49,1.43-1.21,2.05-.71,.61-1.76,1.04-2.94,.94l.35-.56c.56,.83,.62,2.02,.04,2.98-.59,.99-1.89,1.47-3.05,1.16-.26-.07-.51-.18-.73-.31l.62-.34c-.04,1.61-1.2,2.95-2.56,3.31-1.37,.36-2.7-.17-3.44-.99l.51-.07c-.42,.74-1.12,1.14-1.73,1.3-.62,.17-1.18,.11-1.6,0-.87-.27-1.13-.75-1.09-.77Z"/>
        <path class="cls-8" d="M242.97,222.03c-.05,.06-.36-.42-1.24-.67-.43-.11-1.01-.14-1.58,.14-.56,.26-1.11,.84-1.27,1.6l-.13,.62-.34-.55c-.61-.97-1.89-1.82-3.39-1.78-1.46,.02-3.06,1.15-3.5,2.82l-.19,.72-.47-.58c-.86-1.06-2.31-1.73-3.79-1.69-1.49,.01-2.96,.9-3.78,2.26-.34,.55-.55,1.16-.63,1.77l-.06,.44-.43-.09c-2.11-.46-4.36,.78-5.09,2.56-.78,1.8-.24,3.88,.91,5.04l.43,.43-.59,.12c-1.42,.29-2.55,1.19-3.19,2.17-.66,.98-.84,2.05-.82,2.9,.06,1.73,.74,2.57,.64,2.61-.02,.02-.2-.17-.43-.59-.23-.42-.51-1.09-.58-2-.08-.9,.06-2.08,.75-3.2,.67-1.11,1.88-2.15,3.5-2.52l-.16,.55c-1.36-1.32-2.03-3.66-1.15-5.8,.88-2.13,3.44-3.59,5.97-3.06l-.49,.35c.1-.73,.35-1.45,.74-2.09,.95-1.58,2.69-2.63,4.46-2.64,1.75-.03,3.4,.76,4.4,2.02l-.66,.14c.57-2.03,2.46-3.29,4.21-3.28,1.76,0,3.18,1.02,3.84,2.16l-.47,.08c.24-.95,.93-1.58,1.61-1.86,.69-.29,1.36-.2,1.82-.03,.47,.17,.77,.42,.95,.61,.17,.19,.23,.31,.21,.32Z"/>
      </g>
      <path class="cls-2" d="M237.51,283.63c.39-.03,.48,2.61,2.79,4.42,2.31,1.82,5.12,1.44,5.15,1.81,.04,.16-.61,.53-1.8,.6-1.16,.07-2.88-.25-4.29-1.36-1.41-1.11-2.05-2.63-2.17-3.71-.13-1.1,.14-1.76,.32-1.75Z"/>
    </g>
    <g>
      <g>
        <path class="cls-4" d="M296.88,412.94l31.58,4.8,21.26-3.72,12.87-1.2,8.9,7.38c1.27,1.05,1.99,2.62,1.96,4.27l-.11,6.47-1.35,.85,1.12,3.1c.5,1.38,.12,2.92-.96,3.91h0l-8.87-9.03,5.15,10.16s-1.43,1.05-4.5,.38c-3.07-.67-9.22-12.47-9.22-12.47l-4.95-1.56,8.95,13.1s.34,1.04-2.06,1.52c-2.4,.48-12.88-10.44-12.88-10.44,0,0-4.42,4.35-9.62,5.38-5.2,1.03-55.05,4.09-55.05,4.09l-2.23-41.33,17.38-1.86,2.61,16.2Z"/>
        <path class="cls-11" d="M368.45,439.93c-.08,.04-.74-1.2-1.75-3.25-1.01-2.05-2.37-4.9-3.83-8.06-.59-1.59-1.55-2.92-2.8-3.52-1.27-.6-2.54-1.03-3.54-1.46-2.03-.83-3.28-1.38-3.25-1.47,.03-.09,1.33,.31,3.4,1.03,1.04,.38,2.26,.74,3.64,1.35,1.42,.64,2.52,2.15,3.13,3.82,1.46,3.15,2.74,6.02,3.65,8.11,.9,2.09,1.42,3.41,1.35,3.45Z"/>
        <path class="cls-11" d="M371.7,431.91c-.09,.05-.75-1.12-1.91-2.94-1.2-1.8-2.75-4.35-4.85-6.88-.52-.64-1.03-1.26-1.52-1.87-.25-.3-.49-.59-.73-.88l-.35-.43c-.05-.05-.13-.17-.16-.18-.01,0,0,.01-.01,0l-.11-.04c-1.3-.36-2.63-.53-3.68-.72-2.13-.36-3.46-.59-3.45-.68,.01-.09,1.35-.03,3.51,.2,1.09,.14,2.34,.24,3.81,.6l.15,.05c.06,.03,.16,.08,.23,.13,.12,.1,.13,.14,.21,.22l.36,.42c.24,.29,.49,.58,.75,.88,.5,.61,1.01,1.23,1.54,1.87,2.13,2.57,3.64,5.19,4.73,7.06,1.07,1.9,1.58,3.15,1.49,3.19Z"/>
      </g>
      <path class="cls-11" d="M330.3,428.06c.03-.06,.6,.28,1.72,.63,1.11,.32,2.83,.62,4.85,.18,1-.23,2.07-.64,3.06-1.32,1-.68,1.95-1.61,3.07-2.5,1.1-.92,2.56-1.6,4.06-1.95,1.5-.37,2.98-.74,4.4-1.46,.71-.35,1.38-.74,2.01-1.18,.31-.22,.63-.46,.91-.68,.12-.11,.23-.23,.27-.32,.04-.09,.02-.1,0-.14-.06-.09-.42-.15-.8-.14-.37-.01-.74-.02-1.11-.03-.73-.02-1.45-.05-2.15-.07-2.76-.1-5.27-.19-7.44-.27-2-.1-3.68-.18-5.01-.25-1.18-.08-1.84-.14-1.84-.19,0-.05,.66-.09,1.84-.1,1.34,0,3.02,0,5.02,0,2.17,.03,4.68,.07,7.44,.11,.7,.01,1.42,.03,2.15,.04,.37,0,.74,.02,1.11,.02,.35,.04,.84-.08,1.34,.39,.24,.25,.25,.68,.12,.93-.12,.26-.29,.43-.46,.57-.32,.26-.63,.5-.96,.73-.66,.46-1.37,.88-2.11,1.24-1.48,.75-3.09,1.14-4.54,1.49-1.48,.34-2.74,.92-3.82,1.78-1.09,.84-2.07,1.77-3.14,2.47-1.08,.71-2.24,1.11-3.3,1.32-2.16,.4-3.94,0-5.05-.42-.56-.22-.97-.44-1.24-.61-.26-.17-.4-.27-.38-.3Z"/>
    </g>
    <g>
      <path class="cls-7" d="M290.83,558.62s-34.04,15.54-67.15,15.54c-30.67,0-64.96-15.44-64.96-15.44l132.12-.1Z"/>
      <rect class="cls-7" x="220.21" y="560.1" width="13.13" height="137.55" transform="translate(453.55 1257.75) rotate(180)"/>
      <rect class="cls-7" x="167.9" y="691.95" width="116.55" height="8.06" transform="translate(452.36 1391.97) rotate(180)"/>
      <path class="cls-9" d="M270.79,703.49c0,4.91,3.98,8.89,8.89,8.89s8.89-3.98,8.89-8.89-3.98-8.89-8.89-8.89-8.89,3.98-8.89,8.89Z"/>
      <path class="cls-9" d="M219,703.49c0,4.91,3.98,8.89,8.89,8.89s8.9-3.98,8.9-8.89-3.98-8.89-8.9-8.89-8.89,3.98-8.89,8.89Z"/>
      <path class="cls-9" d="M159.01,703.49c0,4.91,3.98,8.89,8.89,8.89s8.89-3.98,8.89-8.89-3.98-8.89-8.89-8.89-8.89,3.98-8.89,8.89Z"/>
      <rect class="cls-7" x="223.68" y="609.61" width="17.86" height="7.39" transform="translate(465.22 1226.61) rotate(180)"/>
      <rect class="cls-7" x="238.29" y="604.43" width="6.5" height="17.74" transform="translate(483.08 1226.61) rotate(180)"/>
      <path class="cls-8" d="M155.78,558.62h145.82c5.45,0,9.87-4.42,9.87-9.87h0c0-5.45-4.42-9.87-9.87-9.87H142.98v6.95c0,7.07,5.73,12.8,12.8,12.8Z"/>
      <path class="cls-8" d="M256.56,346.68l-102.91,1.27c-5.08,.06-9.18,4.18-9.22,9.26l-1.45,181.67,138.65,1.89-15.65-185.54c-.41-4.88-4.52-8.61-9.42-8.55Z"/>
    </g>
    <g>
      <g>
        <path class="cls-10" d="M374.63,656.89l-.57,35.08s35.47,12.36,36,18.85l-68.06,1.34-1.36-54.7,33.99-.58Z"/>
        <path class="cls-7" d="M352.96,689.44c-1.31,.39-2.19,1.89-1.86,3.21,.33,1.33,1.85,2.23,3.17,1.87,1.32-.36,2.43-2.13,1.95-3.41-.48-1.28-2.32-2.25-3.51-1.58"/>
        <path class="cls-7" d="M342,712.17l-.23-5.52,65.53,.78s3.06,1.26,2.76,3.4l-68.06,1.34Z"/>
        <path class="cls-9" d="M375.16,691.6c0,.33-1.66,.52-3.28,1.62-1.64,1.06-2.46,2.52-2.77,2.39-.31-.06,.15-2.06,2.13-3.35,1.97-1.32,3.98-.96,3.92-.65Z"/>
        <path class="cls-9" d="M382.36,694.42c.08,.32-1.35,.91-2.45,2.34-1.14,1.4-1.4,2.92-1.73,2.91-.31,.06-.58-1.88,.82-3.63,1.39-1.76,3.34-1.94,3.35-1.62Z"/>
        <path class="cls-9" d="M386.58,702.88c-.3,.08-.8-1.57,.02-3.41,.8-1.84,2.36-2.59,2.5-2.32,.19,.27-.8,1.27-1.44,2.78-.68,1.5-.75,2.91-1.08,2.95Z"/>
        <path class="cls-9" d="M374.41,683.59c-.13,.31-1.67-.12-3.54,.04-1.88,.13-3.33,.79-3.51,.5-.2-.24,1.21-1.5,3.42-1.66,2.21-.18,3.79,.85,3.63,1.11Z"/>
      </g>
      <path class="cls-9" d="M272.38,476.54s20.16,3.03,40.92,6.89c24.89,4.62,51.39,10.4,54.94,13.19,6.51,5.12,7.91,19.08,10.7,36.3,2.79,17.22,3.42,145.31,3.42,145.31l-46.23,1.35-9.14-134.39s-67.5,0-81.39-.11c-11.21-.08-41.34,1.17-52.78-4.86-18-9.48-14.63-45.6-14.63-45.6,4.49-3.86,81.47-26.67,81.47-26.67l12.73,8.58Z"/>
      <g>
        <path class="cls-10" d="M386.22,572.63l6.65,35.36s38.18,5.12,40.05,11.53l-68.11,15.36-12.63-54.68,34.03-7.58Z"/>
        <path class="cls-7" d="M371.14,609.79c-1.24,.66-1.81,2.35-1.21,3.61,.61,1.26,2.32,1.86,3.57,1.23,1.25-.64,2-2.64,1.26-3.83-.74-1.19-2.79-1.78-3.85-.87"/>
        <path class="cls-7" d="M365.08,636.33l-1.23-5.3,65.59-14.36s3.33,.64,3.47,2.85l-67.83,16.81Z"/>
        <path class="cls-9" d="M393.89,607.4c.06,.34-1.56,.86-2.96,2.3-1.43,1.4-1.95,3.03-2.29,2.97-.32,0-.27-2.1,1.45-3.81,1.7-1.73,3.8-1.78,3.8-1.46Z"/>
        <path class="cls-9" d="M401.7,608.74c.15,.3-1.16,1.2-1.98,2.86-.86,1.64-.8,3.22-1.14,3.28-.3,.12-.97-1.77,.08-3.82,1.03-2.06,2.96-2.64,3.03-2.32Z"/>
        <path class="cls-9" d="M407.69,616.37c-.29,.14-1.12-1.42-.68-3.43,.43-2.02,1.84-3.09,2.04-2.84,.25,.23-.54,1.44-.88,3.1-.38,1.65-.16,3.07-.48,3.18Z"/>
        <path class="cls-9" d="M391.48,599.5c-.07,.33-1.7,.22-3.55,.77-1.86,.51-3.18,1.47-3.42,1.23-.25-.2,.9-1.75,3.09-2.37,2.18-.64,3.98,.07,3.88,.37Z"/>
      </g>
      <path class="cls-9" d="M353.12,450.33s15.92-1.13,19.35,12.5c4.74,18.89,25.64,131.82,25.64,131.82l-47.07,9.1-24.82-110.21-44.59-7.26-18.38-7.35s10.38-11.07,31.9-17.92c14.64-4.66,57.97-10.69,57.97-10.69Z"/>
      <path class="cls-8" d="M326.37,496.39c.21,.12,1.86-3.63,5.6-6.83,3.69-3.25,7.63-4.37,7.54-4.6,0-.18-4.19,.66-8.03,4.03-1.9,1.66-3.28,3.51-4.08,4.94-.81,1.44-1.1,2.42-1.02,2.45Z"/>
      <path class="cls-8" d="M336.63,474.03s-.34,.17-.88,.58c-.54,.4-1.27,1.06-2.11,1.92-1.69,1.73-3.72,4.45-5.21,7.85-1.48,3.4-2.09,6.75-2.21,9.16-.06,1.21-.05,2.19,.03,2.86,.06,.67,.12,1.04,.18,1.04,.13,0,.07-1.49,.33-3.85,.25-2.36,.93-5.59,2.37-8.9,1.45-3.31,3.36-6.01,4.91-7.79,1.55-1.79,2.68-2.76,2.6-2.86Z"/>
      <path class="cls-8" d="M374.6,474.03s.06,.19,.14,.58c.09,.41,.21,.98,.37,1.72,.32,1.54,.77,3.78,1.36,6.68,1.17,5.86,2.86,14.36,4.98,25.03,4.21,21.42,10.13,51.56,17,86.55l.07,.35-.36,.07c-14.69,2.85-30.59,5.93-47.07,9.12l-.36,.07-.08-.36c-.25-1.1-.51-2.28-.78-3.47-9.12-40.66-17.5-77.98-23.95-106.76l.24,.23c-19.64-3.25-35.67-5.9-46.81-7.75-5.53-.94-9.85-1.67-12.82-2.17-1.45-.25-2.56-.45-3.34-.59-.75-.14-1.14-.23-1.14-.23,0,0,.39,.03,1.15,.14,.78,.12,1.9,.29,3.35,.5,2.97,.47,7.3,1.14,12.84,2.01,11.15,1.78,27.19,4.35,46.85,7.49l.2,.03,.04,.19c6.5,28.77,14.93,66.08,24.12,106.72,.27,1.19,.53,2.37,.78,3.47l-.44-.29c16.48-3.18,32.38-6.25,47.07-9.08l-.29,.42c-6.77-35.01-12.6-65.17-16.74-86.6-2.04-10.69-3.66-19.2-4.78-25.07-.54-2.9-.96-5.15-1.25-6.7-.13-.74-.23-1.32-.31-1.73-.07-.39-.08-.59-.08-.59Z"/>
    </g>
    <line class="cls-6" x1="278.97" y1="437.8" x2="281" y2="466.04"/>
    <g>
      <path class="cls-10" d="M272.68,334.32l-18.27-8.94-3.53-4.6-6.58,11.41-35.76-20.41v7.75s-29.65,11.97-33.9,15.84c-5.21,4.74,5.06,86.42,5.06,86.42,0,0-5.16,63.51-3.27,76.15,0,0,22.87-6.58,41.87-9.18,19-2.6,42.96-9.51,42.96-9.51l19.79-12.33-8.37-132.6Z"/>
      <path class="cls-9" d="M244.3,332.19s-.43-.08-1.19-.33c-.88-.31-1.95-.69-3.24-1.14l.29-.14c-.76,2.72-1.77,6.29-2.92,10.41l-.13,.46-.4-.27c-2.5-1.69-5.22-3.58-8.05-5.6-5.69-4.05-10.74-7.87-14.33-10.7-1.8-1.41-3.24-2.58-4.22-3.4-.98-.82-1.51-1.3-1.48-1.34,.03-.04,.62,.35,1.66,1.1,1.15,.84,2.61,1.92,4.37,3.21,3.68,2.72,8.77,6.46,14.45,10.51,2.83,2,5.53,3.9,8.01,5.64l-.53,.19c1.25-4.09,2.34-7.63,3.17-10.34l.07-.23,.21,.09c1.26,.53,2.32,.97,3.17,1.33,.73,.32,1.12,.51,1.1,.55Z"/>
      <path class="cls-9" d="M254.41,325.38c.09,.04-.48,1.52-1.5,3.87-1.01,2.35-2.46,5.59-4.1,9.13-.21,.44-.41,.88-.61,1.31l-.57,1.23-.14-1.36c-.42-4-.79-7.51-1.14-9.74l.39,.11c-1.26,1.31-2.03,2.04-2.09,1.98-.06-.06,.58-.89,1.75-2.29l.29-.34,.11,.45c.53,2.24,1.01,5.74,1.45,9.75l-.71-.13c.2-.43,.4-.87,.6-1.31,1.64-3.54,3.16-6.74,4.29-9.03,1.14-2.29,1.89-3.69,1.98-3.65Z"/>
      <path class="cls-9" d="M246.94,427.6c-.21,0-1.05-20.43-1.88-45.64-.83-25.22-1.33-45.66-1.12-45.67,.21,0,1.05,20.43,1.88,45.65,.83,25.21,1.33,45.66,1.12,45.67Z"/>
      <path class="cls-9" d="M277.51,415.29s-.17,.12-.53,.27c-.36,.15-.88,.39-1.6,.57-1.41,.41-3.57,.79-6.22,.54-2.64-.23-5.78-1.14-8.72-3.12-2.94-1.95-5.49-5.17-6.78-9.03-1.34-3.85-1.62-7.75-1.66-11.22-.02-3.48,.18-6.6,.22-9.21,.06-2.61-.02-4.72-.14-6.18-.11-1.46-.23-2.26-.17-2.27,.03,0,.08,.19,.17,.57,.09,.38,.19,.94,.29,1.67,.2,1.46,.37,3.59,.38,6.21,.03,2.63-.11,5.75-.06,9.2,.07,3.43,.38,7.25,1.68,10.98,1.25,3.74,3.65,6.79,6.46,8.71,2.8,1.93,5.83,2.87,8.38,3.17,2.57,.31,4.68,.03,6.09-.29,1.42-.31,2.17-.63,2.2-.56Z"/>
      <path class="cls-9" d="M275.49,375.87c0,.21-5.22,.38-11.66,.38s-11.66-.17-11.66-.38,5.22-.38,11.66-.38,11.66,.17,11.66,.38Z"/>
      <path class="cls-9" d="M274.76,384.37c0,.21-4.95,.38-11.05,.38s-11.05-.17-11.05-.38,4.95-.38,11.05-.38,11.05,.17,11.05,.38Z"/>
      <path class="cls-10" d="M288.58,355.68c-1.59-12.25-15.9-21.36-15.9-21.36l2.08,66.53,20.4,.39s-4.99-33.32-6.58-45.57Z"/>
      <path class="cls-9" d="M275.36,367.63s.06,.36,.1,1.06c.04,.77,.09,1.78,.15,3.05,.12,2.73,.29,6.54,.51,11.2,.43,9.46,1.1,22.53,1.93,36.95,.84,14.43,1.69,27.49,2.41,36.93,.37,4.66,.67,8.46,.88,11.18,.1,1.26,.18,2.27,.25,3.04,.05,.7,.06,1.06,.04,1.07-.03,0-.09-.36-.19-1.05-.1-.77-.23-1.77-.39-3.03-.31-2.63-.7-6.45-1.12-11.16-.85-9.44-1.78-22.49-2.63-36.93-.83-14.43-1.42-27.51-1.71-36.98-.15-4.73-.23-8.57-.27-11.22,0-1.27,0-2.28,0-3.05,0-.7,.02-1.06,.05-1.06Z"/>
    </g>
    <g>
      <path class="cls-9" d="M306.58,543.62c0,.21-31.79,.38-70.99,.38s-71-.17-71-.38,31.78-.38,71-.38,70.99,.17,70.99,.38Z"/>
      <path class="cls-9" d="M164.1,466.26c.21,0,.38,17.15,.38,38.3s-.17,38.3-.38,38.3-.38-17.15-.38-38.3,.17-38.3,.38-38.3Z"/>
      <path class="cls-8" d="M145.33,466.04l71.74,.86c1.1,.04,1.93,1.03,1.77,2.12l-10.76,89.63h16.84l8.69-98.67c.41-3.37-2.15-6.37-5.54-6.49l-83.83-.49,1.07,13.03Z"/>
      <path class="cls-9" d="M207.4,466.56c0,.21-12.06,.38-26.93,.38s-26.94-.17-26.94-.38,12.06-.38,26.94-.38,26.93,.17,26.93,.38Z"/>
      <path class="cls-9" d="M184.22,452.65c0,.21-7.19,.38-16.05,.38s-16.05-.17-16.05-.38,7.19-.38,16.05-.38,16.05,.17,16.05,.38Z"/>
    </g>
  </g>
  <g>
    <g>
      <g>
        <path class="cls-7" d="M275.4,451.99c-2.65,0-3.81-3.37-1.72-4.99,4.29-3.32,11.26-7.13,20.81-7.46,11.98-.42,18.56,4.2,21.9,7.96,1.6,1.8,.29,4.64-2.12,4.63l-38.88-.14Z"/>
        <path class="cls-9" d="M275.4,451.99s.35-.05,1-.08c.74-.02,1.69-.04,2.88-.06,2.6-.02,6.19-.05,10.59-.09,4.5,0,9.81-.02,15.7-.03,1.48,0,2.99,0,4.54,0,.77,0,1.55,0,2.34,0h1.19c.41,0,.8,.02,1.12-.05,1.4-.21,2.36-1.9,1.78-3.24-.25-.63-.91-1.21-1.49-1.79-.59-.58-1.23-1.11-1.89-1.63-2.66-2.04-5.73-3.37-8.8-4.16-3.08-.78-6.17-1.03-9.09-.99-5.87,.04-11.06,1.52-15.06,3.41-2.01,.94-3.73,1.98-5.19,2.98-.71,.52-1.45,.94-1.84,1.52-.39,.6-.48,1.28-.39,1.86,.21,1.2,1.07,1.84,1.64,2.07,.6,.23,.96,.2,.96,.25,0,0-.36,.09-1.01-.1-.62-.19-1.6-.84-1.89-2.16-.13-.64-.06-1.43,.37-2.13,.46-.71,1.2-1.14,1.9-1.68,1.45-1.05,3.17-2.14,5.2-3.12,4.02-1.99,9.31-3.56,15.29-3.63,2.97-.06,6.13,.18,9.29,.97,3.15,.8,6.32,2.16,9.09,4.28,.68,.53,1.35,1.09,1.96,1.69,.31,.29,.61,.6,.89,.92,.29,.28,.6,.71,.77,1.14,.77,1.81-.5,4-2.36,4.29-.47,.08-.88,.06-1.27,.06h-1.19c-.79-.01-1.57-.02-2.34-.02-1.55-.01-3.06-.02-4.54-.03-5.89-.05-11.2-.1-15.7-.14-4.4-.07-7.99-.12-10.59-.16-1.18-.03-2.14-.06-2.88-.08-.66-.03-1-.06-1-.08Z"/>
      </g>
      <path class="cls-9" d="M317.21,450.08c0,.22-9.91,.39-22.14,.39s-22.14-.18-22.14-.39,9.91-.39,22.14-.39,22.14,.18,22.14,.39Z"/>
      <path class="cls-9" d="M300.29,439.51c.18,.15-1.44,1.99-2.14,4.81-.74,2.81-.19,5.2-.42,5.25-.18,.1-1.13-2.39-.34-5.44,.76-3.06,2.79-4.79,2.9-4.62Z"/>
      <path class="cls-9" d="M312.45,450.54c-.24,.03-.33-2.96-2.37-5.82-1.98-2.9-4.75-4.02-4.64-4.23,.03-.09,.77,.06,1.83,.63,1.06,.57,2.39,1.63,3.46,3.15,1.06,1.52,1.6,3.14,1.76,4.33,.17,1.19,.05,1.94-.04,1.94Z"/>
    </g>
    <g>
      <g>
        <path class="cls-4" d="M162.89,393.19s-7.16,37.64-7.58,42.85c-.78,9.56,4.93,19.02,14.41,19.72,6.42,.47,81.45-10.09,81.45-10.09l-2.21-18.24-59.7-4.77,3.06-24.84-29.43-4.64Z"/>
        <g>
          <path class="cls-4" d="M213.59,424.61l35.37,2.82,25.53-2.34,12.51-.14,8,7.82c1.14,1.11,1.71,2.68,1.55,4.27l-.61,6.23-1.37,.72,.84,3.08c.37,1.37-.11,2.82-1.23,3.69h0l-7.84-9.41,4.17,10.2s-1.46,.9-4.37,.01c-2.91-.89-7.91-12.75-7.91-12.75l-4.65-1.89,7.6,13.34s.25,1.03-2.11,1.3c-2.35,.28-11.6-11.09-11.6-11.09,0,0-4.61,3.84-9.7,4.43-5.1,.59-15.81,1.81-15.81,1.81l-28.38-22.11Z"/>
          <path class="cls-11" d="M290.51,451.56c-.09,.03-.7-1.27-1.61-3.42-.92-2.14-2.15-5.13-3.46-8.43-.51-1.65-1.43-3.07-2.71-3.79-1.3-.72-2.61-1.27-3.64-1.8-2.09-1.02-3.37-1.7-3.33-1.78,.04-.08,1.38,.44,3.52,1.35,1.07,.48,2.34,.95,3.75,1.7,1.46,.78,2.51,2.39,3.03,4.12,1.31,3.29,2.46,6.29,3.27,8.47,.8,2.18,1.26,3.55,1.17,3.58Z"/>
          <path class="cls-11" d="M294.28,444.08c-.09,.04-.63-1.14-1.61-2.99-1.01-1.83-2.31-4.41-4.14-7.02-.45-.66-.89-1.3-1.32-1.92-.21-.31-.43-.61-.63-.91l-.31-.44c-.04-.06-.11-.18-.14-.19-.01,0,0,.01-.01,0l-.1-.04c-1.23-.45-2.49-.72-3.49-.99-2.03-.51-3.29-.84-3.27-.93,.02-.09,1.31,.08,3.37,.47,1.04,.22,2.24,.41,3.63,.88l.14,.06c.06,.03,.14,.09,.21,.15,.11,.1,.12,.15,.18,.23l.32,.44c.21,.3,.43,.6,.65,.9,.43,.62,.88,1.26,1.34,1.92,1.85,2.64,3.1,5.3,4.01,7.19,.88,1.92,1.27,3.16,1.19,3.2Z"/>
        </g>
      </g>
      <path class="cls-11" d="M239.69,447.27s.17-.05,.5-.1c.37-.06,.85-.13,1.47-.23,1.34-.19,3.24-.46,5.69-.81,2.49-.34,5.52-.76,9.05-1.24,3.55-.23,7.42-1.83,10.93-4.6l.2-.16,.16,.19c1.79,2.16,3.76,4.42,5.94,6.69,1.1,1.12,2.25,2.27,3.54,3.28,.32,.25,.66,.48,1,.68,.36,.2,.68,.35,1.01,.28,.4-.05,.81-.14,1.15-.3,.35-.14,.6-.46,.57-.62l.03,.08c-2.38-4.16-4.94-8.64-7.62-13.33l-.48-.83,.89,.36c1.45,.59,3.04,1.23,4.66,1.89l.13,.05,.06,.13c1.24,2.84,2.62,5.75,4.28,8.55,.84,1.37,1.75,2.82,2.97,3.77,1.26,.63,3.23,.86,4.52,.26l-.14,.44c-1.33-3.24-2.74-6.7-4.17-10.2l-.89-2.18,1.51,1.81c1.82,2.18,3.75,4.5,5.71,6.85,.71,.86,1.43,1.71,2.13,2.56l-.51-.05c.88-.68,1.34-1.83,1.18-2.91-.24-1.1-.61-2.32-.91-3.47l-.07-.28,.26-.13c.46-.24,.91-.48,1.37-.72l-.19,.29c.19-1.91,.38-3.8,.56-5.68,.32-1.82-.29-3.59-1.64-4.77-2.64-2.59-5.23-5.12-7.75-7.59l.25,.1c-4.31,.04-8.49,.09-12.51,.13h.03c-9.4,.84-17.99,1.61-25.54,2.28h-.02s-.02,0-.02,0c-10.88-.92-19.71-1.67-25.86-2.19-3.02-.27-5.39-.49-7.04-.63-.78-.08-1.38-.14-1.83-.18-.41-.05-.62-.08-.62-.09s.21,0,.63,.01c.45,.03,1.06,.06,1.84,.11,1.65,.12,4.02,.28,7.05,.49,6.16,.46,14.99,1.13,25.88,1.95h-.05c7.55-.71,16.13-1.52,25.53-2.4h.01s.01,0,.01,0c4.02-.05,8.2-.11,12.51-.16h.14s.1,.1,.1,.1c2.53,2.47,5.12,5,7.76,7.58,.7,.63,1.32,1.48,1.63,2.42,.34,.93,.36,2.01,.23,2.93-.18,1.88-.37,3.77-.55,5.68l-.02,.2-.17,.09c-.45,.24-.91,.48-1.37,.72l.18-.42c.31,1.19,.65,2.28,.93,3.56,.2,1.34-.37,2.76-1.45,3.59l-.28,.22-.23-.27c-.71-.85-1.42-1.7-2.13-2.56-1.95-2.35-3.89-4.67-5.7-6.85l.62-.37c1.43,3.51,2.84,6.96,4.16,10.21l.13,.31-.27,.14c-.92,.46-1.81,.48-2.71,.43-.44-.04-.88-.11-1.3-.21-.21-.05-.42-.11-.63-.17-.22-.1-.44-.21-.66-.33-1.44-1.13-2.3-2.59-3.18-3.99-1.69-2.85-3.06-5.77-4.31-8.65l.19,.18c-1.61-.66-3.21-1.31-4.65-1.9l.41-.47c2.66,4.7,5.21,9.19,7.57,13.36l.04,.06v.02c-.76,2.52-3.62,1.68-4.68,.56-1.33-1.05-2.48-2.21-3.58-3.35-2.19-2.3-4.14-4.58-5.93-6.76l.35,.03c-3.6,2.82-7.6,4.41-11.2,4.61-3.53,.44-6.57,.81-9.06,1.12-2.45,.29-4.36,.52-5.7,.68-.62,.07-1.11,.12-1.48,.16-.33,.03-.5,.04-.51,.03Z"/>
      <path class="cls-10" d="M152.44,402.63l26.47,1.69,21.32-1.34-.89-36.02-8.56-41.23s-20.96,5.03-26.07,22.99c-3.79,13.32-12.27,53.9-12.27,53.9Z"/>
      <path class="cls-9" d="M194.25,346.99s.31,.64,.65,1.86c.35,1.22,.77,3,1.12,5.24,.74,4.48,.94,10.73,1.21,17.6,.27,6.88,.47,13.11,.58,17.61,.04,2.15,.07,3.94,.09,5.34,0,1.26-.02,1.96-.07,1.96s-.13-.69-.22-1.95c-.09-1.4-.19-3.19-.32-5.33-.24-4.5-.53-10.73-.8-17.61-.27-6.88-.39-13.1-.99-17.56-.28-2.23-.62-4.02-.89-5.24-.26-1.23-.43-1.91-.38-1.92Z"/>
    </g>
  </g>
  <g>
    <g>
      <rect class="cls-7" x="330.57" y="446.98" width="96.32" height="5.28" transform="translate(757.47 899.24) rotate(180)"/>
      <path class="cls-9" d="M382.04,451.96c-.21,0-.38-1.07-.38-2.39s.17-2.39,.38-2.39,.38,1.07,.38,2.39-.17,2.39-.38,2.39Z"/>
    </g>
    <g>
      <polygon class="cls-8" points="314.46 459.81 326.17 459.81 326.17 462.38 300.53 710.57 286.86 710.57 314.46 459.81"/>
      <path class="cls-9" d="M314.46,459.81s-.03,.45-.11,1.31c-.09,.87-.22,2.14-.39,3.79-.35,3.34-.87,8.23-1.54,14.54-1.36,12.63-3.33,30.88-5.77,53.51-4.94,45.21-11.77,107.85-19.39,177.65l-.39-.44c3.99,0,8.27,0,12.58,0h1.09l-.39,.35c12.07-116.82,22.39-215.65,25.91-248.16h0c0-1.18,0-1.88,.01-2.56l.11,.11c-3.99-.03-6.9-.05-8.84-.06-.95-.01-1.66-.02-2.16-.03-.48,0-.72-.02-.72-.02,0,0,.22-.01,.68-.02,.49,0,1.19-.01,2.13-.03,1.95-.01,4.88-.03,8.9-.06h.11s0,.11,0,.11c0,.67,0,1.38,.01,2.57h0s0,.01,0,.01c-3.2,32.54-13.3,131.39-25.37,248.21l-.04,.35h-1.44c-4.31,0-8.6,0-12.58,0h-.44l.05-.44c7.75-69.9,14.71-132.62,19.74-177.89,2.54-22.58,4.58-40.8,6-53.4,.71-6.26,1.27-11.12,1.65-14.44,.19-1.63,.34-2.87,.44-3.74,.1-.84,.17-1.25,.17-1.25Z"/>
    </g>
    <g>
      <polygon class="cls-9" points="521.39 459.81 533.11 459.81 533.11 462.46 508.7 712.39 496.67 712.39 521.39 459.81"/>
      <polygon class="cls-8" points="265.53 462.4 682.99 462.84 683.14 451.83 265.53 451.83 265.53 462.4"/>
      <g>
        <polygon class="cls-8" points="624.27 459.81 612.55 459.81 612.55 462.46 636.96 712.39 648.99 712.39 624.27 459.81"/>
        <path class="cls-9" d="M624.79,463.09s.03,.45,.1,1.3c.08,.86,.19,2.12,.34,3.76,.31,3.31,.77,8.17,1.36,14.43,1.2,12.53,2.94,30.66,5.1,53.13,4.36,44.9,10.4,107.1,17.12,176.39l.32-.36c-3.75,0-7.79,0-11.85,0h-.18l.33,.29c-11.4-115.72-21.06-213.74-24.27-246.3h0c0-1.22,0-1.95,0-2.64l-.09,.09c3.99-.02,6.91-.04,8.84-.05,.96,0,1.67-.02,2.16-.02,.48,0,.72-.02,.72-.02,0,0-.22-.01-.69-.02-.48,0-1.19-.01-2.14-.02-1.95-.01-4.88-.03-8.89-.05h-.09s0,.09,0,.09c0,.69,0,1.42,0,2.65h0s0,.01,0,.01c3.15,32.56,12.63,130.61,23.82,246.35l.03,.3h.48c4.06,0,8.1,0,11.85,0h.36l-.04-.36c-6.84-69.37-12.98-131.64-17.41-176.59-2.24-22.43-4.04-40.53-5.29-53.04-.63-6.23-1.12-11.06-1.45-14.35-.17-1.62-.3-2.86-.39-3.72-.09-.83-.15-1.25-.15-1.25Z"/>
      </g>
      <g>
        <polygon class="cls-8" points="455.1 460.77 466.81 460.77 466.81 463.41 442.41 712.39 430.38 712.39 455.1 460.77"/>
        <path class="cls-9" d="M454.57,464.03s-.03,.45-.1,1.29c-.08,.86-.19,2.11-.34,3.75-.31,3.3-.77,8.14-1.36,14.38-1.2,12.48-2.94,30.55-5.1,52.93-4.36,44.73-10.4,106.69-17.12,175.72l-.32-.36c3.75,0,7.79,0,11.85,0h.18l-.33,.29c11.4-115.28,21.06-212.93,24.27-245.37h0c0-1.21,0-1.94,0-2.63l.09,.09c-3.99-.02-6.91-.04-8.84-.05-.96,0-1.67-.02-2.16-.02-.48,0-.72-.02-.72-.02,0,0,.22-.01,.69-.02,.48,0,1.19-.01,2.14-.02,1.95-.01,4.88-.03,8.89-.05h.09s0,.09,0,.09c0,.69,0,1.42,0,2.64h0s0,0,0,0c-3.15,32.44-12.63,130.11-23.82,245.41l-.03,.29h-.48c-4.06,0-8.1,0-11.85,0h-.36l.04-.36c6.84-69.1,12.98-131.14,17.41-175.92,2.24-22.34,4.04-40.37,5.29-52.84,.63-6.2,1.12-11.02,1.45-14.3,.17-1.62,.3-2.85,.39-3.7,.09-.83,.15-1.24,.15-1.24Z"/>
      </g>
    </g>
    <g>
      <g>
        <path class="cls-7" d="M455.92,421.6l137.12-2.37c2.44-.04,4.4-1.88,4.4-4.13v-118.09c0-2.28-2.01-4.13-4.49-4.13h-137.12c-2.48,0-4.49,1.85-4.49,4.13v120.46c0,2.31,2.06,4.17,4.57,4.13Z"/>
        <path class="cls-7" d="M547.02,388.49v63.34h-69.25c0-2.18,1.92-3.95,4.29-3.95h30.33v-59.38h34.62Z"/>
        <path class="cls-9" d="M477.77,451.83s-.08-.57,.35-1.56c.4-.97,1.71-2.29,3.93-2.58h0s.01,0,.01,0c6.45-.09,17.33-.15,30.33-.18l-.39,.36c0-3.75,0-7.77-.01-11.92,.05-12.64,.09-24.08,.12-32.48,.05-4.09,.1-7.42,.13-9.84,.03-1.1,.06-1.99,.08-2.68,.03-.61,.05-.93,.08-.93s.06,.32,.08,.93c.02,.69,.05,1.58,.08,2.68,.03,2.42,.08,5.76,.13,9.84,.03,8.39,.07,19.84,.12,32.48,0,4.15,0,8.17-.01,11.92v.36s-.4,0-.4,0c-13-.03-23.88-.09-30.33-.18h.02c-2.04,.22-3.34,1.39-3.77,2.29-.47,.92-.47,1.49-.54,1.48Z"/>
        <path class="cls-9" d="M520.5,451.83c-.23,0-.41-13.84-.41-30.9s.18-30.91,.41-30.91,.41,13.83,.41,30.91-.18,30.9-.41,30.9Z"/>
        <path class="cls-9" d="M461.94,420.44c-.23,0-.41-28.58-.41-63.83s.18-63.84,.41-63.84,.41,28.58,.41,63.84-.18,63.83-.41,63.83Z"/>
      </g>
      <path class="cls-9" d="M547.02,390.02c.21,0,.38,13.84,.38,30.9s-.17,30.91-.38,30.91-.38-13.83-.38-30.91,.17-30.9,.38-30.9Z"/>
      <path class="cls-2" d="M526.57,353.64c0,4.16,3.38,7.53,7.56,7.53s7.56-3.37,7.56-7.53-3.38-7.53-7.56-7.53-7.56,3.37-7.56,7.53Z"/>
      <path class="cls-9" d="M492.42,462.53c-.22,0-.39-2.4-.39-5.35s.18-5.35,.39-5.35,.39,2.4,.39,5.35-.18,5.35-.39,5.35Z"/>
    </g>
    <path class="cls-9" d="M267.09,462.47c0-.21,84.17-.38,187.97-.38s187.99,.17,187.99,.38-84.15,.38-187.99,.38-187.97-.17-187.97-.38Z"/>
  </g>
</svg>