<?xml version="1.0" encoding="UTF-8"?>
<svg id="Layer_1" data-name="Layer 1" xmlns="http://www.w3.org/2000/svg" viewBox="0 0 500 500">
  <defs>
    <style>
      .cls-1 {
        fill: #ebebeb;
      }

      .cls-2 {
        fill: #eb996e;
      }

      .cls-3 {
        fill: #f5f5f5;
      }

      .cls-4 {
        fill: #fff;
      }

      .cls-5 {
        fill: #fafafa;
      }

      .cls-6 {
        fill: #ffbe9d;
      }

      .cls-7 {
        fill: #e0e0e0;
      }

      .cls-8 {
        fill: #455a64;
      }

      .cls-9 {
        fill: #263238;
      }

      .cls-10 {
        fill: #5cbb61;
      }

      .cls-11 {
        opacity: .3;
      }
    </style>
  </defs>
  <g id="Background_Complete" data-name="Background Complete">
    <g>
      <g>
        <rect class="cls-5" x="41.15" y="88.84" width="173.59" height="155.3"/>
        <path class="cls-7" d="M214.74,244.15s-.03-1-.04-2.88c0-1.91-.02-4.69-.04-8.32-.02-7.29-.06-17.95-.1-31.52-.05-27.13-.12-65.91-.2-112.57l.39,.39c-49.99,.02-109.65,.04-173.57,.07h-.02l.46-.46c-.02,56.5-.04,109.67-.06,155.3l-.41-.41c51.79,.09,95.13,.16,125.55,.21,15.22,.05,27.21,.08,35.41,.11,4.09,.02,7.23,.04,9.38,.05,1.05,0,1.85,.02,2.42,.02,.54,0,.83,.03,.83,.03,0,0-.26,.01-.79,.02-.55,0-1.34,.01-2.37,.02-2.13,.01-5.24,.03-9.29,.05-8.18,.02-20.14,.06-35.32,.11-30.49,.05-73.92,.12-125.82,.21h-.41s0-.41,0-.41c-.02-45.63-.03-98.8-.06-155.3v-.46h.48c63.92,.03,123.58,.05,173.57,.07h.4v.39c-.09,46.77-.16,85.63-.2,112.82-.04,13.54-.08,24.17-.1,31.44-.02,3.6-.04,6.36-.04,8.25-.02,1.86-.04,2.8-.04,2.8Z"/>
      </g>
      <path class="cls-7" d="M107.71,116.43c0,.26-9.14,.46-20.4,.46s-20.41-.21-20.41-.46,9.14-.46,20.41-.46,20.4,.21,20.4,.46Z"/>
      <path class="cls-7" d="M181.26,128.1c0,.26-25.1,.46-56.06,.46s-56.06-.21-56.06-.46,25.1-.46,56.07-.46c30.96,0,56.06,.21,56.06,.46Z"/>
      <rect class="cls-7" x="67.2" y="147.85" width="7.31" height="7.31"/>
      <rect class="cls-7" x="85.2" y="147.85" width="7.31" height="7.31"/>
      <rect class="cls-7" x="103.53" y="147.52" width="7.31" height="7.31"/>
      <rect class="cls-7" x="121.2" y="147.85" width="7.31" height="7.31"/>
      <rect class="cls-7" x="139.21" y="147.85" width="7.31" height="7.31"/>
      <rect class="cls-7" x="157.21" y="147.85" width="7.31" height="7.31"/>
      <rect class="cls-1" x="175.21" y="147.85" width="7.31" height="7.31"/>
      <rect class="cls-1" x="67.2" y="163.4" width="7.31" height="7.31"/>
      <rect class="cls-7" x="85.2" y="163.4" width="7.31" height="7.31"/>
      <rect class="cls-1" x="103.2" y="163.4" width="7.31" height="7.31"/>
      <rect class="cls-7" x="121.2" y="163.4" width="7.31" height="7.31"/>
      <rect class="cls-7" x="139.21" y="163.4" width="7.31" height="7.31"/>
      <rect class="cls-7" x="157.54" y="163.06" width="7.31" height="7.31"/>
      <rect class="cls-7" x="175.21" y="163.4" width="7.31" height="7.31"/>
      <rect class="cls-7" x="67.2" y="178.94" width="7.31" height="7.31"/>
      <rect class="cls-7" x="85.53" y="178.61" width="7.31" height="7.31"/>
      <rect class="cls-7" x="103.2" y="178.94" width="7.31" height="7.31"/>
      <rect class="cls-1" x="121.2" y="178.94" width="7.31" height="7.31"/>
      <rect class="cls-7" x="139.21" y="178.94" width="7.31" height="7.31"/>
      <rect class="cls-7" x="157.21" y="178.94" width="7.31" height="7.31"/>
      <rect class="cls-7" x="175.21" y="178.94" width="7.31" height="7.31"/>
      <rect class="cls-7" x="67.2" y="194.49" width="7.31" height="7.31"/>
      <rect class="cls-7" x="85.2" y="194.49" width="7.31" height="7.31"/>
      <rect class="cls-7" x="103.2" y="194.49" width="7.31" height="7.31"/>
      <rect class="cls-7" x="121.54" y="194.16" width="7.31" height="7.31"/>
      <rect class="cls-7" x="139.21" y="194.49" width="7.31" height="7.31"/>
      <rect class="cls-1" x="157.21" y="194.49" width="7.31" height="7.31"/>
      <rect class="cls-7" x="175.21" y="194.49" width="7.31" height="7.31"/>
      <rect class="cls-7" x="67.2" y="210.04" width="7.31" height="7.31"/>
      <rect class="cls-1" x="85.2" y="210.04" width="7.31" height="7.31"/>
      <rect class="cls-7" x="103.2" y="210.04" width="7.31" height="7.31"/>
      <rect class="cls-7" x="121.2" y="210.04" width="7.31" height="7.31"/>
      <rect class="cls-7" x="139.21" y="210.04" width="7.31" height="7.31"/>
      <rect class="cls-7" x="157.54" y="209.71" width="7.31" height="7.31"/>
      <rect class="cls-7" x="175.21" y="210.04" width="7.31" height="7.31"/>
    </g>
    <g>
      <rect class="cls-7" x="399.76" y="51.9" width="11.16" height="55.51" transform="translate(-.42 2.19) rotate(-.31)"/>
      <g>
        <rect class="cls-1" x="303.05" y="52.12" width="28.89" height="30.65" transform="translate(-.35 1.68) rotate(-.3)"/>
        <rect class="cls-3" x="331.8" y="51.94" width="28.89" height="30.65" transform="translate(-.36 1.87) rotate(-.31)"/>
        <path class="cls-7" d="M303.01,60.65c19.2,.16,38.44,.05,57.64-.26,.39,0,.39-.61,0-.61-19.2-.11-38.44-.01-57.64,.35-.34,0-.34,.52,0,.53h0Z"/>
      </g>
      <g>
        <rect class="cls-1" x="285.03" y="82.29" width="52.49" height="24.97" transform="translate(-.51 1.68) rotate(-.31)"/>
        <rect class="cls-3" x="337.26" y="82.01" width="52.49" height="24.97" transform="translate(-.5 1.96) rotate(-.31)"/>
        <path class="cls-7" d="M284.99,89.39c34.87,.39,69.86,.04,104.72-.52,.39,0,.39-.61,0-.61-34.87-.18-69.86-.16-104.72,.61-.34,0-.34,.52,0,.53h0Z"/>
      </g>
      <g>
        <rect class="cls-7" x="265.36" y="107.42" width="203.35" height="8.95"/>
        <rect class="cls-7" x="298.65" y="111.72" width="8.26" height="30.53"/>
        <rect class="cls-7" x="421.88" y="111.72" width="8.26" height="30.53"/>
      </g>
      <rect class="cls-1" x="410.7" y="31.2" width="11.16" height="76.35" transform="translate(-.37 2.25) rotate(-.31)"/>
      <g>
        <rect class="cls-3" x="421.92" y="45.43" width="17.33" height="61.87" transform="translate(-.41 2.33) rotate(-.31)"/>
        <path class="cls-7" d="M438.96,57.32c0,.17-3.88,.3-8.67,.3s-8.67-.13-8.67-.3,3.88-.3,8.67-.3c4.79,0,8.67,.13,8.67,.3Z"/>
        <path class="cls-7" d="M438.96,54.72c0,.17-3.88,.3-8.67,.3s-8.67-.13-8.67-.3,3.88-.3,8.67-.3,8.67,.13,8.67,.3Z"/>
        <path class="cls-7" d="M438.96,97.96c0,.17-3.88,.3-8.67,.3s-8.67-.13-8.67-.3,3.88-.3,8.67-.3,8.67,.13,8.67,.3Z"/>
        <path class="cls-7" d="M438.96,95.36c0,.17-3.88,.3-8.67,.3s-8.67-.13-8.67-.3,3.88-.3,8.67-.3,8.67,.13,8.67,.3Z"/>
        <path class="cls-7" d="M430.57,89.69c-.17,0-.3-6.24-.3-13.94s.13-13.94,.3-13.94,.3,6.24,.3,13.94c0,7.7-.13,13.94-.3,13.94Z"/>
      </g>
      <rect class="cls-1" x="439.15" y="60.59" width="18.87" height="46.7"/>
      <path class="cls-7" d="M419.11,44.22c0,1.77-1.43,3.21-3.21,3.21s-3.21-1.44-3.21-3.21,1.43-3.21,3.21-3.21,3.21,1.44,3.21,3.21Z"/>
      <rect class="cls-7" x="414.92" y="53.04" width="1.98" height="45.42"/>
    </g>
  </g>
  <g id="Background_Simple" data-name="Background Simple">
    <path class="cls-1" d="M444.21,115l-2.55-4.15c-21.49-34.97-60.35-56.06-101.32-53.5-5.27,.33-10.51,1.03-15.68,2.13-37.25,7.87-69.66,35.69-83.1,71.31-7.9,20.95-10.11,45.07-25.1,61.7-19.51,21.64-52.64,22.32-81.77,21.43-29.13-.9-62.28-.13-81.7,21.6-12.16,13.61-16.03,32.96-15.05,51.18,2.6,48.25,20.52,90.76,63.82,112.2s110.41,24,157.8,14.57c66.39-13.21,129.52-49.51,167.47-105.56s47.55-132.42,17.19-192.91Z"/>
  </g>
  <g id="Plant">
    <g>
      <g>
        <path class="cls-10" d="M74.26,342.83c5.23-2.7,11.4-3.05,17.21-2.09,3.12,.52,6.38,1.45,8.5,3.79,2.12,2.35,2.53,6.47,.09,8.48-1.45,1.2-3.48,1.38-5.36,1.36-4.55-.05-9.6-.85-13.23,1.88-2.07,1.56-3.45,4.16-5.93,4.92-2.43,.75-5.16-.68-6.45-2.87-1.29-2.19-1.33-4.92-.73-7.39,0,0,.63-5.38,5.9-8.1Z"/>
        <path class="cls-10" d="M62.27,319.69c3.2,4.57,9.42,3.06,12.3,.27,2.88-2.79,4.1-6.83,5.21-10.69,2.54-8.81,5.09-18.05,3.21-27.02-.56-2.68-1.57-5.36-3.45-7.35-1.89-1.99-4.78-3.17-7.43-2.47-3.14,.83-5.08,3.9-6.49,6.82-4.14,8.59-6.33,18.11-6.36,27.64-.02,4.45,.51,9.12,3.02,12.8"/>
        <path class="cls-10" d="M53.49,326.25c3.47-4.12,4.13-10.14,2.59-15.3-1.55-5.17-5.04-9.56-9.06-13.15-4.72-4.21-10.27-7.48-16.23-9.58-2.35-.83-4.82-1.48-7.3-1.24-2.48,.24-4.97,1.5-6.13,3.71-1.71,3.26-.07,7.21,1.7,10.43,3.12,5.68,6.69,11.11,10.66,16.23,3.19,4.12,6.86,8.18,11.73,10.05,4.87,1.86,9.93,1.64,12.51-1.73"/>
        <path class="cls-9" d="M62.06,388.63c.06,0,.16-.74,.29-2.08,.15-1.51,.33-3.41,.55-5.67,.26-2.39,.61-5.22,1.27-8.31,.66-3.08,1.69-6.42,3.02-9.81,1.38-3.37,3.05-6.43,5.01-8.88,1.94-2.46,4.21-4.24,6.33-5.27,2.12-1.05,4.02-1.47,5.33-1.66,1.32-.14,2.07-.24,2.07-.3,0-.06-.74-.07-2.1-.03-1.35,.09-3.33,.43-5.56,1.45-2.24,.99-4.64,2.8-6.68,5.31-2.06,2.5-3.79,5.63-5.19,9.06-1.35,3.45-2.37,6.82-3,9.97-.63,3.14-.92,6.01-1.1,8.42-.18,2.41-.25,4.36-.28,5.7-.03,1.35-.02,2.09,.04,2.1Z"/>
        <path class="cls-9" d="M62.45,384.27s.05-.33,.06-.96c0-.72,0-1.64,0-2.76,0-2.39,0-5.85,.12-10.13,.21-8.55,.95-17.75,2.37-30.71,1.35-12.2,3.15-26.39,5.06-35.61,.41-2.1,.82-3.99,1.21-5.64,.37-1.66,.68-3.09,.99-4.24,.26-1.09,.47-1.98,.64-2.68,.14-.61,.2-.94,.17-.95s-.14,.3-.33,.9c-.21,.69-.47,1.57-.8,2.64-.36,1.14-.72,2.57-1.13,4.22-.43,1.65-.89,3.53-1.33,5.63-1.89,8.36-3.88,20.05-5.32,33.05-1.42,13-2.07,24.83-2.12,33.4-.05,4.28,.04,7.75,.15,10.15,.07,1.12,.12,2.03,.17,2.75,.05,.63,.09,.96,.12,.96Z"/>
        <path class="cls-9" d="M62.5,361.45c.06,0,.05-1.02-.02-2.88-.11-1.85-.36-4.52-.88-7.8-.55-3.27-1.32-7.15-2.54-11.36-.53-1.93-1.76-6.55-4.75-13.45-3.94-9.35-9.3-16.99-13.95-21.73-1.09-1.26-2.31-2.16-3.28-3.05-.5-.43-.95-.85-1.4-1.19-.46-.31-.88-.61-1.27-.88-1.53-1.05-2.39-1.6-2.42-1.55-.14,.19,3.43,2.29,7.94,7.09,4.49,4.79,9.7,12.38,13.61,21.65,2.18,5.03,3.7,9.51,4.78,13.32,1.25,4.17,2.07,8.02,2.7,11.25,.59,3.24,.94,5.89,1.15,7.72,.17,1.84,.29,2.85,.35,2.85Z"/>
      </g>
      <polygon class="cls-9" points="40.44 401.71 42.73 433.04 82.98 433.04 85.27 401.71 40.44 401.71"/>
      <rect class="cls-9" x="36.56" y="389.36" width="53.51" height="12.35"/>
      <polygon class="cls-8" points="36.56 431.84 36.56 435.26 39.07 435.26 89.19 435.26 89.19 431.84 36.56 431.84"/>
      <polygon class="cls-8" points="41.54 441.29 39.07 435.26 87.27 435.26 84.39 441.29 41.54 441.29"/>
      <path class="cls-7" d="M84.52,411.95s-.06,.11-.19,.29c-.16,.21-.36,.47-.6,.8-.57,.73-1.36,1.74-2.35,3l-.1,.13-.1-.14c-1.47-2.04-3.44-4.76-5.76-7.97h.33c-1.71,2.43-3.62,5.13-5.67,8.03l-.18,.25-.2-.24c-2.09-2.49-4.37-5.2-6.73-8h.39c-.12,.14-.24,.3-.37,.46-2.09,2.61-4.1,5.15-6.01,7.54l-.2,.25-.19-.26c-2.04-2.89-3.95-5.59-5.67-8.03l.33,.02c-2.8,3.19-5.17,5.89-6.99,7.96l-.12,.14-.1-.16c-.92-1.55-1.66-2.78-2.19-3.68-.23-.4-.41-.72-.56-.98-.12-.22-.18-.34-.17-.35,.01,0,.09,.1,.23,.31,.16,.25,.37,.56,.62,.94,.56,.88,1.33,2.09,2.3,3.61l-.22-.02c1.79-2.1,4.12-4.83,6.88-8.06l.17-.2,.16,.22c1.74,2.43,3.67,5.12,5.72,7.99h-.38c1.9-2.41,3.92-4.94,6-7.56,.13-.16,.25-.32,.37-.46l.19-.24,.2,.23c2.35,2.81,4.62,5.52,6.71,8.02l-.38,.02c2.07-2.89,4-5.58,5.73-7.99l.17-.23,.16,.23c2.27,3.24,4.2,5.99,5.64,8.05h-.21c1.03-1.24,1.84-2.22,2.44-2.93,.26-.31,.48-.55,.65-.76,.15-.17,.23-.25,.24-.24Z"/>
      <path class="cls-8" d="M85.83,401.5c0,.14-10.08,.25-22.52,.25s-22.53-.11-22.53-.25,10.08-.25,22.53-.25c12.44,0,22.52,.11,22.52,.25Z"/>
      <path class="cls-9" d="M87.86,435.6c0,.14-10.96,.25-24.48,.25s-24.48-.11-24.48-.25,10.96-.25,24.48-.25c13.52,0,24.48,.11,24.48,.25Z"/>
    </g>
  </g>
  <g id="Chair">
    <g>
      <path class="cls-8" d="M471.75,441.86h-123.78v-117.62c0-8.35,6.77-15.13,15.13-15.13h93.53c8.35,0,15.13,6.77,15.13,15.13v117.62h0Z"/>
      <path class="cls-9" d="M461.34,309.79c.14,0,.26,29.55,.26,66s-.12,66-.26,66-.26-29.55-.26-66c0-36.45,.12-66,.26-66Z"/>
    </g>
  </g>
  <g id="Character">
    <g>
      <g>
        <path class="cls-9" d="M400.36,165c11.34,16.17,17.95,35.61,18.81,55.34,.58,13.3-1.21,27.47,5.1,39.2,9.05,16.82,28.65,16.24,34.65,34.38,2.61,7.89-2.2,25.24-3.5,33.45-1.47,9.33,4.23,17.16,2.76,26.48-1.35,8.55-7.75,14.65-15.43,18.63-6.84,3.54-13.16,3.64-20.27,.69-13.55-5.61-24.83-11.53-34.49-22.57-13.56-15.5-17.65-36.96-19.97-57.43-5.11-45.11-4.07-90.92,3.07-135.75"/>
        <path class="cls-8" d="M429.35,375.07s.15-.05,.44-.11c.29-.07,.73-.14,1.28-.3,1.11-.3,2.75-.83,4.68-1.87,1.92-1.04,4.19-2.57,6.18-4.96,.98-1.19,1.89-2.62,2.42-4.29,.51-1.67,.74-3.55,.85-5.49,.19-3.92-.4-8.21-1.3-12.74-.87-4.54-2.05-9.38-2.34-14.62-.14-2.61-.02-5.33,.57-8.02,.56-2.7,1.53-5.33,2.54-7.98,1.02-2.65,2.09-5.32,2.86-8.12,.73-2.8,1.18-5.77,.69-8.7-.43-2.94-1.63-5.68-3.24-8.08-1.61-2.41-3.61-4.5-5.67-6.42-4.13-3.86-8.6-7.04-12.42-10.62-7.71-7.1-12.9-15.18-16.18-22.34-1.64-3.59-2.89-6.95-3.73-9.97-.48-1.49-.75-2.93-1.1-4.23-.26-1.32-.49-2.52-.7-3.6-.32-2.18-.55-3.88-.61-5.04-.04-.56-.08-1-.1-1.32-.02-.3-.02-.45-.02-.45,0,0,.03,.15,.07,.45,.04,.32,.09,.75,.15,1.31,.1,1.16,.36,2.84,.71,5.02,.23,1.08,.47,2.27,.75,3.58,.36,1.29,.64,2.72,1.14,4.2,.86,3,2.13,6.34,3.78,9.9,3.31,7.1,8.5,15.11,16.17,22.14,3.8,3.54,8.28,6.72,12.45,10.6,2.07,1.94,4.11,4.05,5.75,6.51,1.65,2.45,2.89,5.27,3.33,8.3,.51,3.02,.04,6.07-.71,8.91-.79,2.84-1.87,5.53-2.89,8.17-1.01,2.64-1.98,5.25-2.53,7.9-.58,2.64-.7,5.31-.57,7.89,.27,5.18,1.43,10.01,2.28,14.57,.88,4.55,1.46,8.88,1.24,12.84-.12,1.98-.36,3.86-.9,5.58-.56,1.72-1.5,3.17-2.51,4.37-2.05,2.42-4.36,3.93-6.32,4.95-1.96,1.03-3.62,1.53-4.75,1.79-1.13,.27-1.75,.31-1.75,.31Z"/>
      </g>
      <g>
        <g>
          <g>
            <path class="cls-10" d="M243.16,410.8l47.99-22.79s18.69-90.74,22.22-97.56c3.53-6.82,18.31-12.7,18.31-12.7l-2.48,122.88-4.38,28.35-67.68,6.41-13.98-24.58Z"/>
            <g>
              <path class="cls-6" d="M202.21,432.3c-.26-.01-1.6,.83-.48,2.93,1.12,2.11,9.24,9.08,11.63,6.65,2.39-2.43-1.26-5.39-1.26-5.39l-9.89-4.19Z"/>
              <path class="cls-6" d="M212.44,436.58s9.81,1.24,13.59,2.67c4.1,1.56,9.1,.5,12.46-1.78,3.36-2.28,5.32-4.34,5.32-4.34l12.52-.2s6.01-6.23,2.44-15.51c-.62-1.62-1.29-2.9-2.87-4.89-1.49-1.61-3.84-2.91-7.89-3.61l-14.87,3.21s-23.04-1.65-27.14,.29c0,0-5.15,3.05-6.74,4.33-.6,.48-2.43,6.35,1.32,9.39,0,0-3.26,2.6-1.49,4.92l.85,1.03s-2.19,2.84-1.07,4.08,10.99,7.02,14.51,5.64c3.53-1.38,.61-4.65-.94-5.24"/>
              <path class="cls-2" d="M203.06,421.09s.44,.14,1.22,.43,1.9,.72,3.32,1.17c.71,.23,1.49,.45,2.33,.68,.84,.23,1.76,.41,2.71,.72,.94,.31,1.96,.76,2.7,1.63,.71,.84,1.19,2.1,.72,3.29-.23,.58-.7,1.03-1.22,1.31-.53,.27-1.09,.4-1.64,.46-1.1,.11-2.14-.04-3.13-.17-1.97-.3-3.68-.83-5.09-1.33-1.41-.5-2.52-.97-3.29-1.3-.76-.33-1.18-.53-1.17-.55,.01-.03,.45,.12,1.23,.41,.78,.28,1.91,.71,3.32,1.17,1.41,.46,3.11,.95,5.05,1.23,.96,.12,2,.24,3.03,.14,.51-.05,1.03-.18,1.49-.42,.45-.24,.84-.62,1.03-1.1,.39-.98,0-2.11-.65-2.88-.65-.78-1.61-1.22-2.51-1.53-.92-.31-1.84-.5-2.68-.75-.85-.24-1.63-.49-2.33-.73-1.41-.49-2.53-.95-3.29-1.29-.76-.34-1.17-.56-1.16-.58Z"/>
              <path class="cls-2" d="M203.94,414s.44,.14,1.21,.44c.77,.3,1.89,.73,3.3,1.2,1.4,.47,3.09,.98,4.99,1.43,.94,.24,2.02,.43,2.91,1.18,.44,.37,.77,.91,.85,1.51,.09,.59-.01,1.2-.25,1.75-.49,1.12-1.53,1.84-2.57,2.19-1.05,.36-2.14,.38-3.13,.25-1.99-.3-3.62-1.01-5.03-1.46-1.35-.47-2.47-.86-3.32-1.16-.78-.28-1.21-.45-1.2-.48s.45,.09,1.25,.33c.86,.27,1.99,.61,3.36,1.04,1.42,.41,3.08,1.09,4.99,1.36,.95,.12,1.97,.09,2.95-.25,.96-.33,1.89-.99,2.32-1.97,.45-.97,.3-2.16-.49-2.79-.76-.65-1.8-.87-2.74-1.11-1.91-.48-3.6-1.02-5-1.52-1.4-.51-2.51-.98-3.26-1.32-.76-.34-1.16-.56-1.15-.59Z"/>
              <path class="cls-2" d="M208.67,416.02c-.12,0-.18-.9-.45-1.97-.25-1.07-.6-1.9-.5-1.96,.09-.05,.63,.73,.9,1.86,.27,1.13,.15,2.08,.05,2.07Z"/>
              <g>
                <path class="cls-6" d="M243.3,416.32l-8.75-3.37s-24.29-11.34-24.7-10.72c-.41,.61-1.73,.55-1.44,3.51,.29,2.96,14.44,8.93,14.89,9.96,.45,1.03-.3,6.21,4.93,9.93,5.23,3.72,9,3.8,9,3.8"/>
                <path class="cls-2" d="M237.23,429.42s-.07,.01-.21,0c-.14,0-.34-.02-.6-.06-.53-.07-1.3-.23-2.27-.55-.97-.31-2.12-.79-3.39-1.48-1.26-.7-2.68-1.54-4.03-2.79-1.35-1.24-2.45-3.02-2.98-5.11-.28-1.04-.38-2.17-.52-3.27-.02-.14-.05-.26-.09-.38-.03-.08-.12-.15-.23-.23-.22-.16-.46-.31-.71-.46-.5-.29-1.01-.57-1.54-.86-2.11-1.12-4.35-2.26-6.61-3.56-1.13-.65-2.27-1.34-3.37-2.13-.55-.4-1.09-.82-1.58-1.32-.25-.25-.48-.53-.67-.84-.08-.17-.17-.34-.2-.55-.04-.2-.03-.36-.05-.54-.03-.7,0-1.45,.38-2.11,.19-.33,.5-.58,.77-.77,.14-.1,.26-.19,.34-.29,.03-.02-.02,0,.08-.08,.11-.07,.13-.05,.17-.05,.09,0,.11,0,.17,.01,.09,.02,.18,.04,.26,.06,1.32,.4,2.52,.93,3.73,1.43,2.4,1.01,4.69,2.04,6.88,3.02,4.36,1.96,8.27,3.78,11.54,5.31,.82,.38,1.6,.77,2.34,1.08,.76,.3,1.47,.58,2.14,.84,1.33,.53,2.47,.98,3.42,1.36,.91,.37,1.63,.66,2.16,.87,.23,.1,.41,.17,.56,.24,.12,.06,.19,.09,.18,.09s-.07-.01-.2-.05c-.15-.05-.34-.12-.57-.2-.53-.19-1.26-.46-2.19-.8-.96-.36-2.12-.79-3.45-1.29-.67-.25-1.39-.53-2.15-.81-.76-.31-1.53-.69-2.36-1.06-3.3-1.49-7.23-3.27-11.58-5.23-2.18-.97-4.48-1.98-6.88-2.99-1.2-.49-2.43-1.02-3.68-1.41-.08-.02-.15-.04-.23-.05-.02,0-.08-.01-.08,0,0-.01,0,.03-.01-.03-.03-.08,0-.07-.02-.1,0-.01-.02-.02-.03-.03,.27,.19,.07,.06,.13,.11l-.02,.03c-.13,.17-.29,.28-.42,.38-.27,.2-.51,.39-.66,.65-.31,.53-.35,1.22-.32,1.88,.02,.36,.04,.63,.2,.9,.16,.27,.37,.53,.6,.76,.46,.47,.99,.88,1.53,1.28,1.08,.77,2.21,1.46,3.33,2.11,2.25,1.3,4.48,2.44,6.59,3.57,.53,.29,1.05,.57,1.55,.87,.25,.15,.5,.3,.74,.49,.11,.09,.26,.2,.34,.39,.05,.16,.09,.31,.1,.45,.14,1.15,.22,2.22,.49,3.24,.51,2.04,1.55,3.77,2.85,4.99,1.29,1.23,2.71,2.09,3.94,2.8,1.25,.7,2.38,1.19,3.33,1.53,.95,.33,1.71,.52,2.23,.61,.26,.05,.46,.08,.6,.1,.14,.02,.21,.03,.21,.04Z"/>
              </g>
              <path class="cls-2" d="M210.44,430.56s.35,.04,.93,.27c.58,.23,1.4,.63,2.29,1.32,.44,.35,.9,.76,1.32,1.28,.4,.52,.81,1.22,.71,2.05-.1,.83-.82,1.49-1.62,1.75-.83,.28-1.72,.15-2.54-.08-3.26-.99-6.09-2.19-8.05-3.23-.98-.52-1.75-.99-2.26-1.34-.52-.35-.79-.56-.77-.58,.02-.03,.32,.14,.85,.45,.54,.3,1.32,.73,2.31,1.22,1.98,.97,4.82,2.12,8.03,3.1,.79,.22,1.61,.33,2.31,.09,.7-.22,1.28-.77,1.37-1.42,.1-.65-.23-1.29-.6-1.78-.38-.5-.83-.91-1.24-1.27-1.69-1.4-3.08-1.74-3.04-1.82Z"/>
            </g>
            <g class="cls-11">
              <path d="M324.48,429c-7.86-26.51-14.79-60.65-22.65-87.16-2.87,24.48,.72,56.78,5.23,81.01,.53,2.84,.77,5.62,2.97,7.49l14.45-1.34"/>
            </g>
          </g>
          <path class="cls-9" d="M311.61,410.8c-.11,.02-.44-1.73-1.5-4.38-.52-1.33-1.29-2.85-2.26-4.46-1-1.59-2.23-3.27-3.69-4.87-1.49-1.58-3.07-2.93-4.58-4.05-1.54-1.09-3-1.96-4.28-2.58-2.56-1.26-4.29-1.72-4.25-1.82,.01-.03,.44,.07,1.22,.29,.39,.1,.86,.25,1.39,.46,.53,.21,1.16,.42,1.8,.74,1.32,.58,2.82,1.44,4.4,2.52,1.55,1.11,3.17,2.47,4.68,4.08,1.49,1.63,2.73,3.34,3.72,4.97,.96,1.65,1.7,3.21,2.19,4.58,.28,.67,.44,1.3,.61,1.85,.17,.55,.28,1.03,.36,1.42,.16,.79,.24,1.23,.2,1.24Z"/>
        </g>
        <path class="cls-10" d="M326.6,276.51s-25.14,56.15-25.14,66.46,18.83,81.94,18.83,81.94c-.18,2.84-.91,17.12-.91,17.12l105.59,.36h0l1.61-22.7-8.24-21.63,8.23-61.14s5.54-35.5,6.04-45.43c.62-12.42-41.46-26.82-40.32-28.54l-7.27-9.73-41.63,33.8-8.23-23.76-9.86,9.32,1.29,3.93Z"/>
        <path class="cls-10" d="M395.74,291.45c-11.43,19.34-32.34,54.58-32.34,54.58l-37.48,42.73s-2.45,21.72,2.45,28.37,13.31,11.21,13.31,11.21c0,0,9.89,0,22.46-10.51,12.57-10.51,47.24-53.94,47.24-53.94l11.91-14.36s14.2-34.88,11.55-52.64c-1.02-6.85-3.93-9.69-7.83-12.83-9.77-7.88-24.89-3.42-31.27,7.39Z"/>
        <path class="cls-9" d="M427.7,337.4s-.05,.14-.17,.4c-.14,.28-.32,.66-.55,1.14-.5,1-1.26,2.45-2.3,4.29-2.07,3.69-5.28,8.9-9.49,15.19-2.11,3.14-4.46,6.55-7.04,10.17-2.56,3.64-5.53,7.35-7.95,11.71-2.48,4.32-4.62,9.12-7.27,13.89-2.65,4.76-5.78,9.49-9.52,13.91-3.75,4.41-7.99,8.25-12.63,11.16-4.62,2.93-9.66,4.83-14.62,5.66-4.96,.86-9.85,.58-14.16-.6-2.17-.57-4.17-1.44-5.99-2.43-1.83-.98-3.49-2.1-4.93-3.34-1.46-1.22-2.71-2.55-3.72-3.94-1.05-1.36-1.82-2.79-2.46-4.16-1.23-2.77-1.75-5.34-2.02-7.44-.21-2.11-.23-3.76-.17-4.87,.03-.54,.05-.96,.07-1.27,.02-.29,.03-.43,.04-.43,0,0,.01,.15,.01,.43,0,.31-.01,.73-.02,1.27-.02,1.11,.02,2.75,.27,4.84,.3,2.08,.84,4.63,2.08,7.35,.65,1.34,1.42,2.75,2.46,4.08,1,1.36,2.25,2.66,3.69,3.85,1.43,1.21,3.08,2.31,4.89,3.27,1.8,.97,3.77,1.81,5.91,2.37,4.26,1.14,9.08,1.4,13.97,.54,4.89-.83,9.86-2.71,14.42-5.62,4.58-2.88,8.78-6.69,12.5-11.07,3.71-4.39,6.83-9.09,9.48-13.82,2.65-4.73,4.79-9.54,7.3-13.88,2.45-4.39,5.46-8.11,8.02-11.72,2.6-3.61,4.97-7,7.09-10.12,4.24-6.25,7.5-11.43,9.62-15.08,1.07-1.82,1.86-3.26,2.39-4.24,.26-.47,.45-.84,.6-1.11,.14-.25,.21-.38,.22-.37Z"/>
        <path class="cls-9" d="M324.04,386.83c.05,.08-.53,.4-1.22,1.17-.69,.75-1.45,2.02-1.6,3.57-.14,1.55,.38,2.94,.92,3.8,.54,.88,1.04,1.31,.99,1.37-.03,.05-.64-.29-1.29-1.17-.65-.86-1.28-2.35-1.13-4.05,.16-1.7,1.05-3.05,1.85-3.78,.8-.75,1.46-.96,1.48-.91Z"/>
        <path class="cls-9" d="M330.93,398.17s.21,.03,.59,.14c.19,.05,.42,.13,.7,.19,.29,.05,.61,.11,.97,.18,1.46,.24,3.65,.21,6.18-.58,2.52-.81,5.33-2.36,7.96-4.68,2.63-2.32,4.99-5.42,7.46-8.65,2.46-3.25,4.94-6.3,7.68-8.59,1.36-1.14,2.7-2.15,3.81-3.24,1.11-1.08,2-2.25,2.5-3.45,.94-2.46,.31-4.78-.58-5.9-.92-1.16-1.85-1.28-1.81-1.35,0-.02,.2,.04,.58,.17,.36,.17,.89,.46,1.38,1.06,.98,1.15,1.71,3.54,.76,6.16-.51,1.28-1.42,2.5-2.54,3.62-1.12,1.13-2.46,2.16-3.8,3.3-2.68,2.27-5.12,5.29-7.58,8.54-2.47,3.24-4.86,6.35-7.55,8.7-2.69,2.34-5.58,3.89-8.17,4.67-2.6,.76-4.85,.73-6.32,.42-.36-.08-.68-.16-.98-.23-.28-.08-.51-.18-.69-.24-.37-.14-.56-.22-.55-.23Z"/>
        <path class="cls-9" d="M400.83,285.51s-.13,.22-.42,.6c-.32,.42-.75,.98-1.28,1.67-1.14,1.42-2.71,3.54-4.62,6.18-3.79,5.3-8.65,12.89-13.34,21.67-4.71,8.76-8.62,16.89-11.61,22.69-1.48,2.91-2.71,5.25-3.59,6.85-.42,.76-.76,1.37-1.02,1.84-.24,.42-.37,.63-.39,.62-.02,0,.09-.24,.29-.67,.24-.48,.55-1.1,.93-1.88,.84-1.69,2.01-4.04,3.44-6.92,2.9-5.84,6.75-14,11.48-22.78,4.7-8.79,9.62-16.38,13.5-21.64,1.95-2.62,3.57-4.71,4.76-6.09,.56-.67,1.01-1.2,1.36-1.61,.32-.36,.49-.55,.5-.54Z"/>
        <g class="cls-11">
          <path d="M322.8,396.44c4.88,2.64,10.23,2.36,15.67,1.29,5.44-1.07,10.48-4.08,13.99-8.37-.95,4.75-2.98,9.39-6.45,12.78-3.47,3.38-8.48,5.35-13.25,4.48-4.76-.87-9.57-5.35-9.97-10.18"/>
        </g>
        <g class="cls-11">
          <path d="M368.9,367.58c3.07,4.7,4.16,10.64,2.97,16.12,4.13-6.32,5.1-14.33,3.99-21.8s-4.14-14.51-7.53-21.27c0,0-3.73,6.3-3.76,6.99-.18,3.63,1.16,10.48,1.86,14.05,1.88,1.77,2.77,4.53,2.27,7.06"/>
        </g>
        <g class="cls-11">
          <path d="M339.32,422.6c9.94,7.75,24.68,8.11,35.56,1.75,10.47-6.13,16.92-17.17,22.9-27.72,9.26-16.34,20.57-36.55,27.19-54.13,0,0-18.55,25.31-24.14,36.22-4.22,8.23-7.46,13.66-12.65,21.31-10.44,15.38-29.35,24.58-47.89,23.33"/>
        </g>
        <path class="cls-9" d="M319.38,442.02s-.02-.11-.02-.31c0-.24,.01-.54,.02-.91,.03-.85,.07-2.01,.13-3.46,.14-3.04,.33-7.31,.57-12.44v.07c-1.79-6-3.89-13.27-6.06-21.14-2.88-10.42-5.31-19.9-6.95-26.79-.82-3.45-1.45-6.24-1.85-8.18-.19-.93-.34-1.68-.45-2.23-.1-.51-.14-.78-.12-.79,.02,0,.1,.26,.23,.76,.14,.55,.32,1.29,.55,2.21,.49,1.97,1.17,4.74,2.01,8.14,1.73,6.86,4.21,16.33,7.09,26.74,2.17,7.86,4.24,15.14,5.98,21.15v.04s0,.03,0,.03c-.31,5.13-.57,9.39-.75,12.43-.1,1.45-.18,2.61-.24,3.46-.03,.37-.06,.67-.08,.91-.02,.21-.04,.31-.05,.31Z"/>
        <path class="cls-9" d="M425.02,283.46c-.03,.08-1.08-.29-2.82-.72-1.73-.43-4.17-.87-6.89-.95-2.72-.08-5.18,.21-6.94,.54-1.76,.33-2.83,.63-2.85,.55-.01-.03,.25-.14,.72-.32,.47-.18,1.18-.39,2.06-.6,1.76-.42,4.26-.78,7.03-.7,2.77,.09,5.24,.59,6.97,1.12,.87,.26,1.55,.51,2.02,.72,.46,.2,.71,.33,.7,.36Z"/>
        <path class="cls-9" d="M391.57,265.02s-.08,.19-.27,.52c-.22,.38-.51,.85-.85,1.43-.75,1.24-1.86,3.01-3.27,5.18-2.83,4.33-6.88,10.24-11.66,16.53-3.85,5.07-7.58,9.61-10.64,13.18l-.21,.25-.14-.3c-1.45-3.18-2.65-5.82-3.53-7.73-.39-.88-.7-1.6-.95-2.15-.21-.5-.31-.76-.29-.77,.02,0,.16,.24,.41,.72,.27,.54,.62,1.24,1.05,2.1,.91,1.89,2.17,4.5,3.69,7.66l-.35-.05c3-3.6,6.7-8.16,10.54-13.22,4.78-6.28,8.87-12.14,11.77-16.42,1.41-2.1,2.57-3.83,3.41-5.09,.38-.56,.69-1.02,.93-1.38,.22-.31,.34-.47,.35-.46Z"/>
        <path class="cls-9" d="M415.88,426.27c-.14-.02,.32-5.21,1.02-11.59,.71-6.39,1.4-11.55,1.54-11.54,.14,.02-.32,5.2-1.02,11.59-.71,6.39-1.4,11.55-1.54,11.54Z"/>
        <path class="cls-9" d="M343.5,424.9c.14-.02,.68,3.89,1.19,8.71,.52,4.83,.82,8.75,.67,8.77-.14,.02-.68-3.89-1.19-8.71-.52-4.83-.82-8.75-.67-8.77Z"/>
        <path class="cls-4" d="M396.91,310.69c-.13-.83-1.28-1.28-1.94-.77l-.07,.06c-.62,.56-.39,1.77,.4,2.05,.79,.28,1.74-.51,1.6-1.33Z"/>
        <path class="cls-4" d="M386.48,285.27c-.13-.83-1.28-1.28-1.94-.77l-.07,.06c-.62,.56-.39,1.77,.4,2.05,.79,.28,1.74-.51,1.6-1.33Z"/>
        <path class="cls-4" d="M362.55,305.74c-.13-.83-1.28-1.28-1.94-.77l-.07,.06c-.62,.56-.39,1.77,.4,2.05,.79,.28,1.74-.51,1.6-1.33Z"/>
        <path class="cls-4" d="M336.68,295.46c-.13-.83-1.28-1.28-1.94-.77l-.07,.06c-.62,.56-.39,1.77,.4,2.05,.79,.28,1.74-.51,1.6-1.33Z"/>
        <path class="cls-4" d="M332.11,285.33c-.13-.83-1.28-1.28-1.94-.77l-.07,.06c-.62,.56-.39,1.77,.4,2.05,.79,.28,1.74-.51,1.6-1.33Z"/>
        <path class="cls-4" d="M334.1,273.63c-.13-.83-1.28-1.28-1.94-.77l-.07,.06c-.62,.56-.39,1.77,.4,2.05,.79,.28,1.74-.51,1.6-1.33Z"/>
        <path class="cls-4" d="M319.77,289.73c-.13-.83-1.28-1.28-1.94-.77l-.07,.06c-.62,.56-.39,1.77,.4,2.05,.79,.28,1.74-.51,1.6-1.33Z"/>
        <path class="cls-4" d="M352.95,294.37c-.13-.83-1.28-1.28-1.94-.77l-.07,.06c-.62,.56-.39,1.77,.4,2.05,.79,.28,1.74-.51,1.6-1.33Z"/>
        <path class="cls-4" d="M324.86,315.24c-.13-.83-1.28-1.28-1.94-.77l-.07,.06c-.62,.56-.39,1.77,.4,2.05,.79,.28,1.74-.51,1.6-1.33Z"/>
        <path class="cls-4" d="M299.14,375.26c-.13-.83-1.28-1.28-1.94-.77l-.07,.06c-.62,.56-.39,1.77,.4,2.05,.79,.28,1.74-.51,1.6-1.33Z"/>
        <path class="cls-4" d="M308.32,340.64c-.13-.83-1.28-1.28-1.94-.77l-.07,.06c-.62,.56-.39,1.77,.4,2.05,.79,.28,1.74-.51,1.6-1.33Z"/>
        <path class="cls-4" d="M375.95,279.86c-.13-.83-1.28-1.28-1.94-.77l-.07,.06c-.62,.56-.39,1.77,.4,2.05,.79,.28,1.74-.51,1.6-1.33Z"/>
        <path class="cls-4" d="M408.24,348.79c-.13-.83-1.28-1.28-1.94-.77l-.07,.06c-.62,.56-.39,1.77,.4,2.05,.79,.28,1.74-.51,1.6-1.33Z"/>
        <path class="cls-4" d="M420.81,289.47c-.13-.83-1.28-1.28-1.94-.77l-.07,.06c-.62,.56-.39,1.77,.4,2.05,.79,.28,1.74-.51,1.6-1.33Z"/>
        <path class="cls-4" d="M415.88,328.31c-.13-.83-1.28-1.28-1.94-.77l-.07,.06c-.62,.56-.39,1.77,.4,2.05,.79,.28,1.74-.51,1.6-1.33Z"/>
        <path class="cls-4" d="M387.67,356.36c-.13-.83-1.28-1.28-1.94-.77l-.07,.06c-.62,.56-.39,1.77,.4,2.05,.79,.28,1.74-.51,1.6-1.33Z"/>
        <path class="cls-4" d="M388.86,333.01c-.13-.83-1.28-1.28-1.94-.77l-.07,.06c-.62,.56-.39,1.77,.4,2.05,.79,.28,1.74-.51,1.6-1.33Z"/>
        <path class="cls-4" d="M405.87,289.67c-.13-.83-1.28-1.28-1.94-.77l-.07,.06c-.62,.56-.39,1.77,.4,2.05,.79,.28,1.74-.51,1.6-1.33Z"/>
        <path class="cls-4" d="M382.96,267.05c-.13-.83-1.28-1.28-1.94-.77l-.07,.06c-.62,.56-.39,1.77,.4,2.05,.79,.28,1.74-.51,1.6-1.33Z"/>
        <path class="cls-4" d="M382.13,303.52c-.13-.83-1.28-1.28-1.94-.77l-.07,.06c-.62,.56-.39,1.77,.4,2.05,.79,.28,1.74-.51,1.6-1.33Z"/>
        <path class="cls-4" d="M352.89,414.77c-.13-.83-1.28-1.28-1.94-.77l-.07,.06c-.62,.56-.39,1.77,.4,2.05,.79,.28,1.74-.51,1.6-1.33Z"/>
        <path class="cls-4" d="M319.34,396.47c-.13-.83-1.28-1.28-1.94-.77l-.07,.06c-.62,.56-.39,1.77,.4,2.05,.79,.28,1.74-.51,1.6-1.33Z"/>
        <path class="cls-4" d="M292.21,405.44c-.13-.83-1.28-1.28-1.94-.77l-.07,.06c-.62,.56-.39,1.77,.4,2.05,.79,.28,1.74-.51,1.6-1.33Z"/>
        <path class="cls-4" d="M289.31,420.89c-.13-.83-1.28-1.28-1.94-.77l-.07,.06c-.62,.56-.39,1.77,.4,2.05,.79,.28,1.74-.51,1.6-1.33Z"/>
        <path class="cls-4" d="M314.74,426.06c-.13-.83-1.28-1.28-1.94-.77l-.07,.06c-.62,.56-.39,1.77,.4,2.05,.79,.28,1.74-.51,1.6-1.33Z"/>
        <path class="cls-4" d="M306.24,391.46c-.13-.83-1.28-1.28-1.94-.77l-.07,.06c-.62,.56-.39,1.77,.4,2.05,.79,.28,1.74-.51,1.6-1.33Z"/>
        <path class="cls-4" d="M337.44,400.26c-.13-.83-1.28-1.28-1.94-.77l-.07,.06c-.62,.56-.39,1.77,.4,2.05s1.74-.51,1.6-1.33Z"/>
        <path class="cls-4" d="M411.61,391.41c-.13-.83-1.28-1.28-1.94-.77l-.07,.06c-.62,.56-.39,1.77,.4,2.05,.79,.28,1.74-.51,1.6-1.33Z"/>
        <path class="cls-4" d="M365.72,435.38c-.13-.83-1.28-1.28-1.94-.77l-.07,.06c-.62,.56-.39,1.77,.4,2.05,.79,.28,1.74-.51,1.6-1.33Z"/>
        <path class="cls-4" d="M385.3,410.9c-.13-.83-1.28-1.28-1.94-.77l-.07,.06c-.62,.56-.39,1.77,.4,2.05,.79,.28,1.74-.51,1.6-1.33Z"/>
        <path class="cls-4" d="M396.92,430.81c-.13-.83-1.28-1.28-1.94-.77l-.07,.06c-.62,.56-.39,1.77,.4,2.05,.79,.28,1.74-.51,1.6-1.33Z"/>
        <path class="cls-4" d="M364.57,326.55c-.13-.83-1.28-1.28-1.94-.77l-.07,.06c-.62,.56-.39,1.77,.4,2.05,.79,.28,1.74-.51,1.6-1.33Z"/>
        <path class="cls-4" d="M390.89,377.38c-.13-.83-1.28-1.28-1.94-.77l-.07,.06c-.62,.56-.39,1.77,.4,2.05,.79,.28,1.74-.51,1.6-1.33Z"/>
        <path class="cls-4" d="M382.36,396.63c-.13-.83-1.28-1.28-1.94-.77l-.07,.06c-.62,.56-.39,1.77,.4,2.05,.79,.28,1.74-.51,1.6-1.33Z"/>
        <path class="cls-4" d="M410.43,412.09c-.13-.83-1.28-1.28-1.94-.77l-.07,.06c-.62,.56-.39,1.77,.4,2.05,.79,.28,1.74-.51,1.6-1.33Z"/>
        <path class="cls-4" d="M333.62,434.42c-.13-.83-1.28-1.28-1.94-.77l-.07,.06c-.62,.56-.39,1.77,.4,2.05,.79,.28,1.74-.51,1.6-1.33Z"/>
        <path class="cls-4" d="M269.62,428.58c-.13-.83-1.28-1.28-1.94-.77l-.07,.06c-.62,.56-.39,1.77,.4,2.05,.79,.28,1.74-.51,1.6-1.33Z"/>
        <path class="cls-4" d="M325.98,418.06c-.13-.83-1.28-1.28-1.94-.77l-.07,.06c-.62,.56-.39,1.77,.4,2.05,.79,.28,1.74-.51,1.6-1.33Z"/>
        <path class="cls-4" d="M271.99,406.63c-.13-.83-1.28-1.28-1.94-.77l-.07,.06c-.62,.56-.39,1.77,.4,2.05,.79,.28,1.74-.51,1.6-1.33Z"/>
        <path class="cls-4" d="M362.2,370.33c-.13-.83-1.28-1.28-1.94-.77l-.07,.06c-.62,.56-.39,1.77,.4,2.05,.79,.28,1.74-.51,1.6-1.33Z"/>
        <path class="cls-4" d="M343.32,315.24c-.13-.83-1.28-1.28-1.94-.77l-.07,.06c-.62,.56-.39,1.77,.4,2.05,.79,.28,1.74-.51,1.6-1.33Z"/>
        <path class="cls-4" d="M338.6,363.01c-.13-.83-1.28-1.28-1.94-.77l-.07,.06c-.62,.56-.39,1.77,.4,2.05,.79,.28,1.74-.51,1.6-1.33Z"/>
        <path class="cls-4" d="M330.92,347.43c-.13-.83-1.28-1.28-1.94-.77l-.07,.06c-.62,.56-.39,1.77,.4,2.05,.79,.28,1.74-.51,1.6-1.33Z"/>
        <path class="cls-4" d="M364.89,396.41c-.13-.83-1.28-1.28-1.94-.77l-.07,.06c-.62,.56-.39,1.77,.4,2.05,.79,.28,1.74-.51,1.6-1.33Z"/>
        <path class="cls-4" d="M340.95,386.8c-.13-.83-1.28-1.28-1.94-.77l-.07,.06c-.62,.56-.39,1.77,.4,2.05,.79,.28,1.74-.51,1.6-1.33Z"/>
        <path class="cls-4" d="M351.19,334.05c-.13-.83-1.28-1.28-1.94-.77l-.07,.06c-.62,.56-.39,1.77,.4,2.05,.79,.28,1.74-.51,1.6-1.33Z"/>
        <path class="cls-4" d="M314.74,371.4c-.13-.83-1.28-1.28-1.94-.77l-.07,.06c-.62,.56-.39,1.77,.4,2.05,.79,.28,1.74-.51,1.6-1.33Z"/>
        <path class="cls-4" d="M371.01,354.26c-.13-.83-1.28-1.28-1.94-.77l-.07,.06c-.62,.56-.39,1.77,.4,2.05s1.74-.51,1.6-1.33Z"/>
        <path class="cls-4" d="M423.19,309.5c-.13-.83-1.28-1.28-1.94-.77l-.07,.06c-.62,.56-.39,1.77,.4,2.05,.79,.28,1.74-.51,1.6-1.33Z"/>
        <path class="cls-4" d="M402,275.61c-.13-.83-1.28-1.28-1.94-.77l-.07,.06c-.62,.56-.39,1.77,.4,2.05,.79,.28,1.74-.51,1.6-1.33Z"/>
        <path class="cls-4" d="M360.94,279.86c-.13-.83-1.28-1.28-1.94-.77l-.07,.06c-.62,.56-.39,1.77,.4,2.05,.79,.28,1.74-.51,1.6-1.33Z"/>
      </g>
      <g>
        <g>
          <path class="cls-9" d="M319.05,158.21c-7.88,5.01-11.02,15.51-9.52,21.72,.76,3.13,2.18,6.28,1.56,9.43-.54,2.73-2.5,4.91-3.97,7.27-4.9,7.88-4.03,18.9,2.04,25.92s16.85,9.46,25.35,5.74"/>
          <g>
            <path class="cls-9" d="M314.39,199.2c-19.16-42.14,26.42-63.31,51.28-56.29,23.37,6.6,33.34,18.23,37.18,33.86,3.85,15.64,3.66,32.57-2.46,47.47-3.02,7.34-8.46,14.81-16.35,15.72"/>
            <g>
              <g>
                <path class="cls-6" d="M336.84,302.11c-.33-20.13-.57-47.79-.57-47.68,0,0-17.31-2.87-20.89-25.45-1.78-11.23-1.22-29.64-.27-44.69,.85-13.55,9.83-30.17,23.33-28.74l42.15,10.65c4.1,.43,7.19,3.93,7.11,8.05h0l-2.75,87.18"/>
                <path class="cls-9" d="M322.64,198.08c-.07,1.52,1.16,2.83,2.74,2.94,1.58,.1,2.93-1.04,3-2.56s-1.16-2.83-2.74-2.94c-1.59-.1-2.93,1.04-3,2.56Z"/>
                <path class="cls-9" d="M352.56,198.08c-.07,1.52,1.16,2.83,2.74,2.94,1.58,.1,2.93-1.04,3-2.56,.07-1.52-1.16-2.83-2.74-2.94-1.59-.1-2.93,1.04-3,2.56Z"/>
                <path class="cls-9" d="M319.52,192.82c.35,.39,2.59-1.16,5.71-1.05,3.11,.07,5.35,1.74,5.7,1.38,.17-.16-.17-.86-1.14-1.62-.95-.75-2.6-1.51-4.54-1.57-1.94-.05-3.6,.61-4.56,1.31-.98,.7-1.33,1.38-1.16,1.55Z"/>
                <path class="cls-9" d="M349.1,193.56c.36,.38,2.55-1.26,5.67-1.26,3.11-.05,5.41,1.54,5.74,1.16,.17-.17-.2-.85-1.2-1.57-.98-.72-2.66-1.41-4.6-1.4-1.94,.02-3.57,.74-4.51,1.48-.95,.74-1.28,1.42-1.1,1.59Z"/>
                <path class="cls-9" d="M338.42,217.56c.01-.18-1.92-.51-5.06-.91-.8-.08-1.55-.24-1.68-.78-.19-.57,.14-1.43,.53-2.36,.75-1.93,1.53-3.94,2.35-6.06,3.27-8.63,5.63-15.72,5.29-15.85s-3.28,6.76-6.55,15.39c-.79,2.13-1.54,4.15-2.25,6.1-.3,.9-.82,1.93-.41,3.12,.21,.6,.8,1.03,1.31,1.16,.51,.15,.96,.16,1.35,.19,3.16,.17,5.12,.18,5.13,0Z"/>
                <path class="cls-2" d="M336.27,254.43s15.19,.98,30.24-8.07c0,0-7.64,15.71-30.24,13.6v-5.53Z"/>
              </g>
              <path class="cls-9" d="M348.33,189.13c.31,.85,3.42,.45,7.07,.89,3.67,.37,6.61,1.44,7.1,.68,.22-.36-.3-1.16-1.49-1.98-1.18-.82-3.07-1.6-5.26-1.84-2.2-.24-4.2,.11-5.54,.65-1.34,.54-2.02,1.21-1.88,1.61Z"/>
              <path class="cls-9" d="M320.24,184.99c.55,.71,2.7-.03,5.28-.06,2.58-.12,4.77,.48,5.27-.26,.22-.36-.12-1.07-1.08-1.74-.94-.67-2.52-1.21-4.29-1.16-1.77,.06-3.31,.7-4.21,1.42-.91,.73-1.21,1.46-.97,1.8Z"/>
            </g>
          </g>
          <g>
            <path class="cls-6" d="M383.81,203.98c.33-.16,12.09-5.36,12.22,8.16s-13.46,10.87-13.49,10.48c-.03-.39,1.27-18.64,1.27-18.64Z"/>
            <path class="cls-2" d="M386.62,217.46c.06-.04,.24,.16,.64,.34,.39,.17,1.06,.29,1.76,.02,1.42-.54,2.6-2.82,2.64-5.26,.02-1.23-.25-2.4-.69-3.37-.42-.99-1.07-1.67-1.79-1.79-.72-.16-1.22,.28-1.38,.66-.18,.38-.09,.65-.16,.67-.04,.03-.29-.22-.19-.78,.05-.27,.21-.59,.52-.85,.32-.27,.8-.41,1.3-.36,1.04,.06,1.99,1.01,2.48,2.07,.55,1.06,.88,2.38,.86,3.76-.06,2.73-1.43,5.29-3.38,5.87-.95,.26-1.74-.02-2.16-.34-.42-.33-.5-.63-.45-.66Z"/>
          </g>
          <path class="cls-9" d="M333.93,148.88c-7.52,3.89-10.62,19.27-7.51,27.15s11.5,11.72,19.77,13.53c8.27,1.81,16.38,2.03,24.53-.24,.57,5.49,3.86,11.12,9.18,12.56,7.05,1.92,14.15-4.54,15.71-11.67,1.57-7.13-.78-14.48-3.1-21.4"/>
          <path class="cls-9" d="M393.58,197.93s-.34,.39-1.04,.99c-.71,.59-1.74,1.43-3.12,2.35-1.38,.91-3.11,1.92-5.26,2.54-2.11,.61-4.71,.83-7.17-.1-2.46-.94-4.28-2.8-5.43-4.69-1.17-1.91-1.69-3.88-1.95-5.52-.25-1.65-.25-2.99-.21-3.91,.04-.92,.13-1.43,.18-1.43,.15,0-.01,2.05,.58,5.24,.32,1.58,.88,3.45,2.01,5.24,1.12,1.77,2.84,3.49,5.1,4.34,2.26,.86,4.67,.69,6.7,.14,2.05-.55,3.76-1.48,5.15-2.32,2.76-1.73,4.38-2.98,4.46-2.87Z"/>
        </g>
        <g>
          <path class="cls-2" d="M339.34,226.24c.45,1.15,.92,2.32,1.68,3.29,.76,.97,1.87,1.75,3.11,1.8,1.32,.06,2.58-.72,3.32-1.81s.98-2.46,.92-3.77c-.05-1.19-.6-2.61-1.78-2.75-.49-.06-.98,.13-1.44,.32-2.07,.84-4.14,1.68-6.22,2.52"/>
          <path class="cls-9" d="M341.82,231.35c.03-.2,1.4,.36,3.32-.41,.93-.37,1.95-1.11,2.51-2.28,.56-1.15,.67-2.71,.08-4.07-.14-.34-.34-.65-.54-.93-.25-.26-.2-.25-.47-.21-.25,.07-.66,.26-1,.39-.35,.14-.69,.28-1.02,.42-1.33,.54-2.54,1.01-3.55,1.39-2.04,.76-3.33,1.16-3.39,1.02-.06-.14,1.12-.8,3.08-1.74,.98-.47,2.15-1.02,3.46-1.61,.33-.15,.67-.3,1.01-.45,.36-.15,.64-.31,1.14-.47,.24-.07,.59-.11,.92,.03,.33,.13,.53,.36,.69,.54,.28,.37,.52,.75,.7,1.18,.73,1.7,.55,3.58-.19,4.97-.76,1.42-2.06,2.22-3.15,2.55-1.12,.35-2.08,.26-2.69,.1-.62-.16-.91-.37-.89-.44Z"/>
        </g>
        <path class="cls-8" d="M398.97,194.73c-1.39-.1-12.55,1.35-11.67,22.1,.82,19.38,14.42,15.12,18.76,7.82,4.11-6.91,6.49-28.97-7.09-29.92Z"/>
        <path class="cls-8" d="M405.87,197.18s-.03-.19-.05-.55c-.02-.4-.04-.93-.07-1.58-.04-1.43-.1-3.43-.17-5.91-.1-5.1-.24-12.18-.41-20.35l.25,.25c-1.84,0-3.78,0-5.76,0l.26-.26c.04,1.54,.09,3.18,.13,4.83,.19,7.79,.37,15.04,.52,21.11v.18s-.17,.04-.17,.04c-2.59,.61-4.64,2.11-5.93,3.82-1.32,1.71-1.97,3.52-2.37,5.01-.4,1.5-.53,2.72-.61,3.54-.04,.41-.06,.73-.07,.95-.01,.21-.02,.33-.03,.33-.01,0-.03-.11-.04-.33-.01-.22-.01-.54,0-.96,.04-.84,.13-2.07,.5-3.6,.37-1.52,1-3.38,2.33-5.16,1.3-1.78,3.43-3.38,6.11-4.03l-.17,.22c-.17-6.07-.38-13.32-.61-21.11-.04-1.65-.09-3.28-.13-4.83v-.27s.26,0,.26,0c1.98,0,3.92,0,5.76,0h.25v.25c.09,8.18,.17,15.26,.23,20.36,0,2.48,.01,4.48,.02,5.91,0,.65-.01,1.18-.02,1.58,0,.36-.02,.55-.03,.55Z"/>
        <path class="cls-8" d="M398.97,168.78s-5.84-13.67-19.75-20.41c-6.74-3.27-11.78-4.95-16.67-6.18,0,0,8.12-1.93,21.25,3.92,5.97,2.65,11.98,6.11,15.96,11.3,2.53,3.29,5.68,9.73,5.67,11.38h-6.46Z"/>
        <path class="cls-4" d="M362.95,334.25s.08-.1,.25-.27c.17-.18,.43-.43,.76-.78,.66-.69,1.6-1.75,2.7-3.2,1.11-1.45,2.35-3.33,3.65-5.6,1.3-2.27,2.66-4.94,4.13-7.93,2.95-5.98,6.36-13.22,9.89-21.52,1.77-4.15,3.57-8.56,5.36-13.2,.44-1.16,.89-2.34,1.35-3.52,.45-1.19,.91-2.41,1.61-3.55,.68-1.14,1.68-2.14,2.9-2.76,.61-.31,1.29-.55,2.03-.52,.37,.03,.75,.15,1.06,.39,.32,.23,.51,.57,.67,.9l.03,.07-.02,.08c-.1,.46-.24,.92-.54,1.33-.29,.41-.76,.71-1.25,.82-1,.2-1.95-.11-2.79-.51-1.81-.75-2.88-2.89-2.47-4.85,.19-.98,.8-1.88,1.62-2.44,.82-.57,1.83-.87,2.84-.81,.99,.06,2.07,.47,2.62,1.45,.28,.48,.25,1.19-.1,1.63-.33,.45-.79,.73-1.27,.93-1.69,.67-3.72,.08-4.79-1.36-.54-.72-.76-1.65-.65-2.52,.09-.87,.47-1.7,1.04-2.36,.57-.66,1.36-1.14,2.25-1.24,.87-.09,1.8,.16,2.43,.84,.32,.33,.49,.81,.48,1.28,0,.48-.24,.93-.58,1.23-.67,.61-1.59,.83-2.45,.66-.89-.19-1.53-.86-1.95-1.57-.41-.72-.62-1.52-.73-2.31-.2-1.56-.18-3.2,.53-4.66,.38-.7,.91-1.36,1.7-1.68,.78-.31,1.64-.23,2.38,.08,.71,.31,1.43,.96,1.46,1.85,.06,.87-.55,1.64-1.27,1.95-.72,.34-1.6,.36-2.3-.03-.7-.38-1.18-1.05-1.42-1.76-.27-.7-.25-1.51-.14-2.19,.09-.7,.22-1.4,.46-2.08,.23-.67,.64-1.33,1.21-1.77,.56-.44,1.19-.77,1.88-.94,.33-.07,.72-.14,1.1-.01,.36,.12,.66,.33,.92,.58,.25,.25,.45,.55,.59,.89,.14,.33,.19,.74,.03,1.1-.3,.76-1.14,1.01-1.79,.99-.69,0-1.34-.26-1.88-.63-1.07-.76-1.76-1.93-2.01-3.15-.27-1.21-.13-2.49,.42-3.56,.29-.52,.64-1.02,1.12-1.38,.48-.36,1.03-.59,1.6-.69,.57-.09,1.18-.05,1.7,.24,.51,.29,.89,.83,.92,1.42,.04,1.19-.88,2.12-1.89,2.4-1.08,.28-2.11-.3-2.72-1.02-.64-.74-.96-1.66-1.03-2.56-.08-1.82,.63-3.35,.98-4.79,.41-1.44,.78-2.75,1.11-3.94,.67-2.35,1.2-4.18,1.56-5.44,.18-.6,.32-1.07,.42-1.41,.1-.32,.16-.48,.16-.48,0,0-.03,.17-.11,.49-.09,.34-.21,.82-.37,1.43-.34,1.27-.83,3.11-1.46,5.47-.32,1.19-.68,2.51-1.07,3.95-.34,1.45-1.03,2.99-.93,4.7,.06,.84,.38,1.7,.97,2.38,.56,.66,1.51,1.16,2.4,.91,.87-.23,1.68-1.11,1.62-2.05-.02-.46-.33-.9-.74-1.13-.42-.24-.95-.27-1.46-.19-.51,.1-1.01,.3-1.43,.63-.42,.31-.75,.77-1.01,1.25-.5,.98-.63,2.17-.37,3.3,.23,1.13,.88,2.21,1.85,2.89,.49,.33,1.05,.56,1.64,.55,.58,.01,1.2-.21,1.38-.72,.2-.48-.12-1.11-.53-1.52-.21-.21-.47-.38-.74-.47-.26-.09-.56-.04-.87,.02-1.22,.32-2.38,1.15-2.77,2.43-.22,.62-.35,1.3-.43,1.98-.11,.7-.11,1.34,.12,1.98,.22,.62,.63,1.19,1.2,1.49,.56,.31,1.28,.3,1.87,.02,.6-.27,1.04-.86,.99-1.49-.02-.64-.56-1.16-1.17-1.43-.63-.26-1.37-.32-2-.07-.62,.24-1.12,.83-1.44,1.45-.64,1.3-.67,2.88-.48,4.37,.11,.74,.3,1.49,.67,2.12,.36,.62,.93,1.18,1.61,1.32,.68,.14,1.48-.06,1.99-.53,.54-.45,.55-1.29,.07-1.79-.47-.52-1.27-.75-1.99-.67-.73,.09-1.42,.5-1.92,1.07-1.01,1.13-1.3,2.99-.36,4.23,.9,1.24,2.74,1.77,4.18,1.18,.4-.17,.8-.42,1.04-.75,.24-.33,.26-.73,.07-1.08-.4-.74-1.32-1.12-2.2-1.17-1.77-.12-3.62,1.1-3.93,2.84-.35,1.72,.57,3.61,2.19,4.28,.78,.38,1.67,.64,2.45,.48,.81-.15,1.25-.93,1.4-1.75l.02,.14c-.23-.57-.71-.95-1.3-.98-.59-.03-1.21,.17-1.77,.46-1.14,.58-2.06,1.5-2.71,2.57-.67,1.08-1.12,2.27-1.57,3.46-.46,1.19-.91,2.36-1.35,3.53-1.8,4.64-3.62,9.06-5.4,13.2-3.56,8.3-7.02,15.54-10.01,21.5-1.49,2.98-2.87,5.65-4.2,7.92-1.33,2.27-2.6,4.13-3.73,5.58-2.26,2.9-3.84,4.15-3.84,4.15Z"/>
        <path class="cls-8" d="M411.09,185c-.09,.02,.04-1.42-.91-3.7-.92-2.24-3.2-5.28-7.18-7.19-1.98-.93-4.35-1.52-6.92-1.69-2.58-.17-5.35,.08-8.21,.63-5.73,1.05-11.75,3.53-18.49,4.54-3.38,.44-6.72,.42-9.9-.01-3.18-.45-6.16-1.35-8.9-2.41-5.45-2.25-9.85-5.39-12.96-8.56-3.13-3.16-5.15-6.19-6.28-8.4-.32-.53-.55-1.03-.74-1.47-.19-.43-.35-.79-.48-1.11-.12-.28-.21-.5-.29-.68-.06-.15-.09-.24-.08-.24,0,0,.05,.07,.13,.22,.09,.18,.2,.39,.33,.66,.15,.3,.32,.66,.53,1.08,.2,.43,.44,.92,.77,1.45,1.17,2.17,3.23,5.14,6.36,8.23,3.12,3.11,7.49,6.18,12.88,8.38,2.71,1.04,5.65,1.92,8.79,2.35,3.14,.42,6.43,.43,9.76,0,6.65-1,12.68-3.46,18.48-4.5,2.89-.54,5.7-.78,8.33-.59,2.62,.19,5.03,.81,7.05,1.79,4.05,2,6.32,5.14,7.2,7.45,.48,1.16,.6,2.13,.7,2.78,.01,.3,.02,.55,.03,.74,0,.17,0,.25,0,.25Z"/>
        <path class="cls-8" d="M396,163.45s-.25,.06-.72,.13c-.47,.06-1.17,.17-2.06,.32-1.78,.3-4.34,.86-7.48,1.65-3.14,.78-6.9,1.72-11.18,2.17-4.27,.45-9.04,.41-13.95-.3-4.91-.71-9.49-2.02-13.47-3.62-3.99-1.61-7.4-3.46-10.11-5.25-1.34-.91-2.55-1.75-3.56-2.55-.99-.82-1.88-1.49-2.54-2.11-.63-.59-1.14-1.07-1.52-1.43-.34-.33-.52-.51-.51-.52,.01-.01,.21,.14,.58,.45,.4,.34,.93,.79,1.58,1.35,.68,.6,1.58,1.24,2.59,2.04,1.02,.77,2.24,1.59,3.58,2.47,5.42,3.46,13.68,7.28,23.46,8.67,4.87,.71,9.58,.76,13.82,.34,4.24-.41,7.99-1.31,11.15-2.05,3.15-.74,5.73-1.25,7.53-1.49,.9-.12,1.6-.2,2.08-.23,.47-.03,.72-.04,.73-.02Z"/>
        <path class="cls-9" d="M397.48,230.45s-.14-.02-.39-.11c-.25-.1-.61-.26-1.04-.54-.86-.54-2-1.54-2.93-3.12-.94-1.57-1.56-3.71-1.8-6.09-.23-2.38-.23-5.01,0-7.76,.23-2.74,.7-5.34,1.29-7.65,.58-2.31,1.28-4.38,2.23-5.94,.94-1.57,2.08-2.58,2.94-3.1,.43-.27,.79-.43,1.04-.53,.25-.09,.39-.12,.39-.11,.02,.04-.51,.23-1.32,.8-.81,.57-1.87,1.58-2.74,3.12-.89,1.54-1.53,3.57-2.08,5.87-.56,2.29-1,4.86-1.23,7.57-.22,2.71-.23,5.32-.03,7.67,.21,2.34,.77,4.41,1.64,5.95,.85,1.55,1.92,2.56,2.72,3.14,.8,.58,1.33,.77,1.31,.82Z"/>
        <g>
          <path class="cls-8" d="M353.69,233.32l-10.26,2.01c-1.55,.3-3.05-.7-3.35-2.25l-.07-.38c-.3-1.55,.7-3.04,2.25-3.35l10.26-2.01c1.55-.3,3.05,.7,3.35,2.25l.07,.38c.3,1.55-.7,3.04-2.25,3.35Z"/>
          <path class="cls-8" d="M354.47,228.88l47.45-14.88c1.17-.37,2.42,.28,2.8,1.45h0c.39,1.21-.32,2.51-1.55,2.84l-48.52,13.11-.18-2.52Z"/>
          <path class="cls-9" d="M389.54,222.34s.55-.23,1.57-.55c1.11-.34,2.57-.78,4.34-1.32,1.82-.56,4.05-1.15,6.42-1.93,.57-.22,1.12-.52,1.55-.96,.41-.43,.68-1.04,.67-1.65,0-.61-.39-1.16-.98-1.36-.59-.2-1.3-.11-1.98,.06-5.52,1.77-10.5,3.38-14.23,4.58-1.76,.54-3.22,1-4.33,1.34-1.03,.3-1.6,.46-1.61,.42s.54-.25,1.55-.62c1.1-.38,2.54-.89,4.28-1.5,3.63-1.23,8.61-2.94,14.21-4.73,.72-.18,1.51-.3,2.28-.04,.78,.25,1.33,1.05,1.32,1.84,0,.77-.32,1.49-.82,2.01-.51,.51-1.13,.83-1.74,1.06-2.45,.78-4.64,1.31-6.49,1.84-1.79,.47-3.26,.87-4.38,1.16-1.04,.26-1.62,.39-1.63,.36Z"/>
        </g>
        <path class="cls-9" d="M311.96,186c1.62,5.7-4.17,10.59-6.21,16.16-1.97,5.38-.29,11.41,2.14,16.61,2.43,5.19,5.63,10.12,6.87,15.72,3.07,13.8-9.41,28.67-7.03,42.6,.87,5.08,2.91,10.37,4.68,15.21s1.65,9.26,0,14.13c-2.7,7.98-7.27,11.74-10.5,19.53-1.65,3.98-1.52,8.44-1.44,12.74s.05,8.8-1.86,12.66c-1.92,3.86-6.3,6.84-10.46,5.72,4.35,5.12,12.39,6.65,18.32,3.49,5.47-2.92,8.53-8.84,11.15-14.46,12.68-27.21,19.39-29.51,19.04-59.53-.02-1.93-.38-32-.38-32,0,0-4.75-1.27-7.49-3.15-14.17-9.78-14.68-27.2-14.57-40.7"/>
      </g>
      <g>
        <path class="cls-6" d="M340.3,277.08v11.33s-8.71,44.45-11.33,69.14-3.06,31.21-3.06,31.21c0,0,6.25,9.75,19.32-6.8,13.07-16.56,15.4-19.17,20.62-19.46,0,0-6.39-69.43-6.1-72.04,.29-2.61,2.32-4.94,2.32-4.94l-21.79-8.42Z"/>
        <g>
          <path class="cls-6" d="M357.44,251.52s-14.23,18.88-15.4,21.5c-1.16,2.61-1.74,4.07-1.74,4.07l21.79,8.42,21.21-23.24,7.84-20.62-2.32-24.4s-4.65-.29-5.52,3.78c-.87,4.07-.58,7.84-.58,7.84l-6.51-5.23-10.48-3.2s-2.47,4.07,1.6,6.1c4.07,2.03,5.23,2.03,5.23,2.03l3.66,6.39-1.6,7.16-7.42-6.95c-1.49-1.4-3.76-1.54-5.41-.34l-4.79,3.48-4.49-2.01-8.71,7.66-3.49,3.2s2.32,4.36,6.97,2.32l4.65-2.03,5.52,4.07Z"/>
          <path class="cls-2" d="M340.3,280.91s-.02-.2,0-.61c.01-.4,.05-1,.14-1.77,.1-.78,.25-1.74,.55-2.85,.32-1.1,.69-2.4,1.53-3.66,3.26-5.01,8.39-11.96,14.78-20.61l.04,.26c-1.73-1.26-3.59-2.63-5.53-4.06l.2,.02c-.94,.41-1.9,.83-2.87,1.26-.98,.41-1.94,.93-3.06,1.19-1.11,.25-2.35,.17-3.4-.39-1.07-.53-1.93-1.39-2.56-2.44l-.08-.14,.13-.12c3.75-3.52,7.91-7.07,12.19-10.87l.13-.11,.15,.09c1.2,.71,2.53,1.49,3.87,2.29h-.26c1.49-.97,3-1.97,4.53-2.97,.78-.5,1.5-1.01,2.35-1.52,.91-.46,2.08-.37,2.91,.26,2.88,2.43,5.82,4.92,8.82,7.45l-.42,.14c.48-2.15,1-4.48,1.52-6.84l.03,.18c-1.16-2.02-2.4-4.2-3.66-6.39l.23,.13c-.69-.07-1.21-.28-1.8-.49-.57-.21-1.14-.45-1.71-.71-.57-.25-1.13-.53-1.7-.8-.28-.14-.57-.32-.85-.49-.25-.22-.54-.39-.75-.66-.67-.71-1.06-1.71-1.01-2.67,.02-.97,.31-1.88,.77-2.72l.1-.18,.2,.06c3.54,1.08,7.04,2.15,10.48,3.2h.05s.04,.05,.04,.05c2.2,1.77,4.37,3.51,6.51,5.23l-.41,.22c-.14-2.63,.05-5.22,.55-7.73,.22-1.28,.98-2.55,2.12-3.22,1.12-.7,2.41-.96,3.7-.93h.21s.02,.22,.02,.22c.82,8.67,1.59,16.85,2.3,24.4v.05s-.01,.05-.01,.05c-2.91,7.6-5.54,14.5-7.88,20.61v.03s-.04,.02-.04,.02c-6.97,7.59-12.58,13.7-16.47,17.92-1.93,2.09-3.43,3.71-4.47,4.82-.5,.54-.89,.95-1.17,1.24-.27,.28-.41,.41-.41,.41,0,0,.12-.16,.37-.45,.27-.3,.64-.73,1.13-1.28,1.02-1.13,2.49-2.77,4.4-4.89,3.85-4.25,9.42-10.4,16.35-18.03l-.04,.06c2.32-6.12,4.93-13.02,7.81-20.64v.1c-.74-7.55-1.53-15.73-2.36-24.4l.23,.22c-1.16-.02-2.4,.24-3.4,.86-1.02,.61-1.68,1.7-1.89,2.9-.49,2.45-.67,5.03-.54,7.59l.03,.57-.44-.36c-2.14-1.72-4.31-3.46-6.51-5.23l.09,.04c-3.45-1.05-6.94-2.12-10.49-3.19l.3-.11c-.41,.74-.68,1.61-.7,2.46-.04,.86,.29,1.69,.87,2.31,.18,.24,.45,.39,.67,.58,.26,.15,.51,.31,.79,.45,.56,.28,1.12,.55,1.68,.79,1.1,.48,2.28,.99,3.3,1.15l.17,.02,.06,.11c1.26,2.2,2.5,4.37,3.66,6.39l.05,.09-.02,.1c-.53,2.35-1.05,4.68-1.53,6.84l-.09,.41-.32-.27c-2.98-2.53-5.92-5.01-8.78-7.44-.68-.51-1.65-.6-2.4-.21-.74,.44-1.54,1-2.3,1.48-1.53,1.01-3.04,2-4.53,2.97l-.13,.08-.13-.08c-1.34-.79-2.67-1.58-3.86-2.29l.28-.03c-4.28,3.79-8.46,7.33-12.21,10.84l.05-.26c.57,.94,1.39,1.79,2.36,2.26,.96,.51,2.09,.59,3.12,.36,1.03-.23,2.01-.75,2.99-1.16,.98-.43,1.94-.84,2.88-1.25l.1-.04,.09,.07c1.93,1.43,3.79,2.81,5.51,4.08l.15,.11-.11,.15c-6.43,8.62-11.61,15.55-14.9,20.5-.83,1.22-1.22,2.51-1.55,3.59-.31,1.1-.48,2.05-.59,2.82-.11,.77-.16,1.36-.19,1.76-.03,.4-.05,.61-.05,.61Z"/>
          <path class="cls-2" d="M367.26,255.89c-.1-.02,.28-1.54,.44-4.02,.05-1.23-.02-2.73-.69-4.2-.66-1.47-1.98-2.74-3.47-3.9-3.02-2.33-5.92-4.2-8.06-5.49-1-.59-1.85-1.09-2.55-1.5-.61-.35-.94-.56-.92-.59,.02-.03,.38,.11,1.01,.41,.64,.3,1.54,.76,2.64,1.36,2.2,1.21,5.16,3.05,8.2,5.4,1.52,1.17,2.89,2.52,3.59,4.11,.69,1.59,.72,3.17,.62,4.42-.11,1.26-.33,2.26-.49,2.95-.17,.68-.28,1.05-.32,1.05Z"/>
          <path class="cls-2" d="M382.51,246.83c-.08-.02,.13-1.01,.37-2.61,.24-1.6,.47-3.84,.45-6.31-.02-2.47-.29-4.7-.55-6.3-.27-1.6-.49-2.59-.41-2.61,.06-.02,.41,.94,.77,2.54,.36,1.6,.69,3.86,.71,6.37,.02,2.51-.27,4.77-.61,6.38-.33,1.61-.67,2.57-.73,2.55Z"/>
        </g>
      </g>
    </g>
  </g>
  <g id="Speech_Bubble" data-name="Speech Bubble">
    <g>
      <g>
        <path class="cls-4" d="M285.4,172.73l-10.42-18.37c4.61-7.49,7.28-16.3,7.28-25.73,0-27.14-22-49.14-49.14-49.14s-49.14,22-49.14,49.14,22,49.14,49.14,49.14c11.33,0,21.76-3.85,30.07-10.29l-.02,.02,22.23,5.23Z"/>
        <path class="cls-9" d="M285.4,172.73c-.91-.21-8.04-1.85-22.26-5.11l-.2-.04,.12-.16,.02-.02,.18,.18c-2.8,2.17-6.16,4.31-10.11,6.09-3.95,1.75-8.48,3.18-13.47,3.84-2.49,.32-5.1,.52-7.78,.39-1.34-.08-2.7-.11-4.07-.22-1.37-.21-2.75-.42-4.15-.63-5.56-1.1-11.25-3.21-16.55-6.5-5.3-3.28-10.21-7.73-14.14-13.21-3.93-5.46-6.9-11.94-8.3-18.98-1.38-7.03-1.26-14.56,.58-21.85,1.86-7.26,5.33-14.36,10.53-20.2l2.01-2.21c.66-.74,1.45-1.35,2.16-2.04,.75-.64,1.42-1.37,2.23-1.94,.79-.59,1.57-1.18,2.36-1.76,.76-.62,1.6-1.11,2.44-1.61,.83-.51,1.66-1.01,2.49-1.51,.87-.42,1.74-.85,2.61-1.27,.88-.4,1.72-.88,2.63-1.17,7.13-2.83,14.74-3.91,22.01-3.38,7.27,.52,14.24,2.61,20.21,5.97,5.99,3.33,11.04,7.79,14.94,12.76,3.91,4.97,6.67,10.46,8.38,15.93,1.7,5.49,2.16,10.94,2.14,15.98-.14,5.05-1.06,9.71-2.4,13.8-1.34,4.09-3.1,7.61-4.92,10.57v-.13c6.62,11.82,9.88,17.65,10.32,18.43-.45-.77-3.78-6.57-10.53-18.31l-.04-.06,.04-.06c1.79-2.96,3.53-6.47,4.84-10.54,1.31-4.07,2.21-8.69,2.33-13.71,0-5-.47-10.41-2.17-15.85-1.71-5.42-4.45-10.85-8.34-15.77-3.87-4.92-8.89-9.32-14.82-12.62-5.92-3.32-12.81-5.38-20.01-5.89-7.2-.51-14.73,.56-21.79,3.36-.91,.29-1.74,.76-2.6,1.16-.86,.42-1.72,.83-2.58,1.25-.82,.5-1.64,1-2.46,1.5-.83,.5-1.66,.99-2.41,1.6-.78,.58-1.55,1.16-2.33,1.74-.8,.56-1.46,1.29-2.2,1.92-.71,.67-1.49,1.28-2.14,2.01l-1.98,2.18c-5.14,5.78-8.58,12.8-10.42,19.98-1.83,7.21-1.95,14.67-.59,21.62,1.37,6.97,4.32,13.38,8.2,18.79,3.89,5.42,8.74,9.84,13.99,13.1,5.25,3.27,10.88,5.38,16.39,6.48,1.39,.21,2.76,.43,4.12,.63,1.36,.12,2.71,.15,4.04,.23,2.66,.14,5.24-.06,7.72-.37,4.96-.64,9.46-2.04,13.39-3.77,3.93-1.75,7.27-3.86,10.08-6l.79-.6-.6,.78-.02,.02-.07-.21c14.18,3.43,21.29,5.14,22.2,5.36Z"/>
      </g>
      <g>
        <path class="cls-9" d="M222.47,128.63c0,2.2-1.79,3.99-3.99,3.99s-3.99-1.79-3.99-3.99,1.79-3.99,3.99-3.99,3.99,1.79,3.99,3.99Z"/>
        <path class="cls-9" d="M238.43,128.63c0,2.2-1.79,3.99-3.99,3.99s-3.99-1.79-3.99-3.99,1.79-3.99,3.99-3.99,3.99,1.79,3.99,3.99Z"/>
        <path class="cls-9" d="M254.36,126.63c1.1,1.91,.45,4.35-1.46,5.45-1.91,1.1-4.35,.45-5.45-1.46-1.1-1.91-.45-4.35,1.46-5.45,1.91-1.1,4.35-.45,5.45,1.46Z"/>
      </g>
    </g>
  </g>
  <g id="Table">
    <path class="cls-9" d="M482.04,442.14c0,.14-101.66,.26-227.03,.26s-227.05-.12-227.05-.26,101.64-.26,227.05-.26,227.03,.12,227.03,.26Z"/>
  </g>
  <g id="Device">
    <g>
      <path class="cls-8" d="M353.55,442.39s6.78-11.58,21.39-12.08,21.91,12.08,21.91,12.08h-43.3Z"/>
      <path class="cls-9" d="M381.55,442.02c-.11,0-.13-.86-.43-2.18-.29-1.32-.93-3.1-2.08-4.81-1.16-1.7-2.58-2.95-3.7-3.71-1.12-.76-1.91-1.1-1.87-1.2,.02-.07,.88,.13,2.11,.82,1.23,.68,2.77,1.95,3.99,3.73,1.21,1.79,1.82,3.7,2,5.09,.19,1.4,.05,2.27-.02,2.26Z"/>
    </g>
    <path class="cls-8" d="M344.51,441.86v-.09c-.05-3.06-2.55-5.52-5.61-5.52h-124.35c-3.1,0-5.61,2.51-5.61,5.61h135.56Z"/>
    <g>
      <path class="cls-9" d="M106.47,224.04c0,2.62,1.96,158.78,1.96,158.78l115.98,27.91h9.59l-6.1-218.02h-8.72l-112.71,31.33Z"/>
      <path class="cls-9" d="M131,376.29l-35.95,65.89h32.86c-5.88-.59,52.03,0,52.03,0l-52.03-13.8,16.27-36.95-1.39-15.14h-11.79Z"/>
      <polygon class="cls-9" points="131.8 388.45 127.91 265.65 163.23 262.27 167.58 393.38 154.97 394.02 131.8 388.45"/>
      <path class="cls-8" d="M172.52,398.24s-.01-.19-.02-.57c0-.39-.01-.95-.02-1.68,0-1.5-.02-3.69-.04-6.52-.02-5.71-.04-14-.07-24.42-.02-20.87-.05-50.24-.09-84.3l.25,.25c-13.07,0-27.13,0-41.67,.01l.26-.26v5.67c-.02,33.21-.03,64.13-.04,89.88v.06l-.03,.05c-10.82,19.83-19.79,36.28-26.07,47.79-3.14,5.73-5.61,10.23-7.3,13.31-.84,1.52-1.49,2.69-1.93,3.49-.44,.79-.68,1.19-.68,1.19,0,0,.2-.42,.62-1.22,.43-.81,1.06-1.99,1.88-3.52,1.67-3.09,4.1-7.61,7.19-13.37,6.24-11.53,15.15-28.01,25.91-47.88l-.03,.1c-.01-25.76-.03-56.67-.04-89.88v-5.93h.26c14.54,0,28.6,0,41.67,.01h.25v.25c-.04,34.06-.07,63.43-.09,84.3-.03,10.42-.06,18.72-.07,24.42-.02,2.84-.03,5.03-.04,6.52,0,.73-.02,1.29-.02,1.68,0,.38-.02,.57-.02,.57Z"/>
      <path class="cls-8" d="M144.18,391.42c.13,.06-4.87,11.62-11.17,25.83-6.3,14.21-11.52,25.68-11.65,25.62-.13-.06,4.87-11.62,11.17-25.83,6.3-14.2,11.52-25.67,11.65-25.62Z"/>
      <path class="cls-8" d="M224.42,410.73s-.02-.19-.03-.56c0-.39-.02-.94-.03-1.65-.02-1.47-.04-3.6-.08-6.34-.04-5.5-.16-13.47-.36-23.3-.37-19.68-1.26-46.85-2.35-76.86-1.09-30.02-1.92-57.2-2.2-76.89-.15-9.84-.21-17.8-.19-23.31,0-2.74,.02-4.87,.02-6.34,0-.71,.01-1.26,.02-1.65,0-.37,.02-.56,.02-.56,0,0,.02,.19,.03,.56,0,.39,.02,.94,.03,1.65,.02,1.47,.04,3.6,.08,6.34,.04,5.5,.16,13.46,.36,23.3,.37,19.68,1.26,46.85,2.35,76.88,1.09,30.01,1.92,57.19,2.2,76.87,.15,9.84,.21,17.81,.19,23.31,0,2.74-.02,4.87-.02,6.34,0,.71-.01,1.26-.02,1.65,0,.37-.02,.56-.02,.56Z"/>
      <path class="cls-8" d="M166.19,279.83c.14,0,.26,26.12,.26,58.33s-.12,58.33-.26,58.33-.26-26.11-.26-58.33,.12-58.33,.26-58.33Z"/>
      <path class="cls-8" d="M103.7,431.89s-.19-.23-.5-.7c-.16-.25-.35-.54-.57-.87-.24-.34-.48-.74-.72-1.22-1.08-1.84-2.31-4.72-3.17-8.45-.85-3.73-1.14-8.34-.62-13.37,.57-5.02,1.92-10.48,4.33-15.8,1.21-2.67,2.78-5.08,4.53-7.21,.42-.55,.86-1.07,1.32-1.56,.46-.5,.9-1,1.36-1.48,.96-.91,1.87-1.84,2.86-2.63,1.9-1.67,3.92-3,5.81-4.21,.99-.54,1.92-1.11,2.85-1.57,.95-.43,1.83-.92,2.73-1.25,3.54-1.44,6.59-2.14,8.72-2.32,1.05-.18,1.89-.11,2.45-.15,.56-.01,.85,0,.85,.01s-.29,.05-.85,.1c-.56,.07-1.39,.04-2.43,.25-2.11,.24-5.11,.99-8.6,2.46-.89,.33-1.75,.83-2.69,1.26-.92,.46-1.84,1.03-2.81,1.58-1.87,1.21-3.85,2.54-5.72,4.21-.98,.79-1.87,1.71-2.82,2.62-.46,.47-.89,.97-1.34,1.46-.46,.48-.89,1.01-1.3,1.55-1.72,2.1-3.26,4.49-4.46,7.11-2.38,5.26-3.74,10.67-4.33,15.64-.54,4.98-.3,9.54,.5,13.24,.8,3.7,1.97,6.58,2.99,8.43,.22,.48,.45,.89,.67,1.24,.2,.34,.38,.64,.53,.89,.28,.48,.43,.74,.41,.75Z"/>
    </g>
  </g>
</svg>