<?xml version="1.0" encoding="UTF-8"?>
<svg id="Layer_1" data-name="Layer 1" xmlns="http://www.w3.org/2000/svg" viewBox="0 0 500 500">
  <defs>
    <style>
      .cls-1 {
        opacity: .1;
      }

      .cls-2 {
        fill: #050400;
      }

      .cls-3 {
        fill: #ebebeb;
      }

      .cls-4 {
        fill: #fff;
      }

      .cls-5 {
        fill: #eb9481;
      }

      .cls-6 {
        fill: #ffc727;
      }

      .cls-7 {
        fill: #ffbe9d;
      }

      .cls-8 {
        fill: #ceefd5;
      }

      .cls-9 {
        fill: #c7c7c7;
      }

      .cls-10 {
        fill: #d3766a;
      }

      .cls-11 {
        fill: #dbdbdb;
      }

      .cls-12 {
        fill: #37474f;
      }

      .cls-13 {
        fill: #375a64;
      }

      .cls-14 {
        fill: #3c993e;
      }

      .cls-15 {
        fill: #1a2e35;
      }

      .cls-16 {
        fill: #263238;
      }

      .cls-17 {
        fill: #5cbb61;
      }

      .cls-18 {
        opacity: .2;
      }

      .cls-19 {
        opacity: .4;
      }

      .cls-20 {
        opacity: .5;
      }
    </style>
  </defs>
  <g>
    <g>
      <g>
        <ellipse class="cls-3" cx="139.29" cy="141.04" rx="85.63" ry="86.96" transform="translate(-38.61 53.59) rotate(-19.18)"/>
        <ellipse class="cls-4" cx="139.29" cy="141.04" rx="66.79" ry="67.83" transform="translate(-38.61 53.61) rotate(-19.18)"/>
        <path class="cls-3" d="M91.05,140.25c-.18,26.96,21.28,49.17,47.92,49.61,26.64,.44,48.38-21.07,48.55-48.03,.18-26.96-21.28-49.17-47.92-49.61-26.64-.44-48.38,21.07-48.55,48.03Z"/>
        <path class="cls-4" d="M109.92,140.56c-.11,16.41,12.95,29.94,29.17,30.2,16.22,.27,29.45-12.83,29.56-29.24,.11-16.41-12.95-29.94-29.17-30.2-16.22-.27-29.45,12.83-29.56,29.24Z"/>
        <path class="cls-3" d="M126.22,140.82c-.05,7.31,5.77,13.33,12.99,13.44,7.22,.12,13.11-5.71,13.16-13.02,.05-7.31-5.77-13.33-12.99-13.45-7.22-.12-13.11,5.71-13.16,13.02Z"/>
      </g>
      <g>
        <rect class="cls-9" x="133.2" y="107.06" width="141.89" height="1.48" transform="translate(-26.71 106.84) rotate(-27.6)"/>
        <g>
          <polygon class="cls-9" points="272.67 77.88 272.34 77.75 266.58 75.98 277.93 70.04 284.08 71.92 272.67 77.88"/>
          <path class="cls-9" d="M279.3,62.77l-2.04,5.98-11.35,5.93c.9-1.88,1.56-3.89,2.01-5.97l11.38-5.95Z"/>
        </g>
        <polygon class="cls-9" points="138.18 139.58 140.55 143.83 146.86 143.29 142.72 139.9 142.3 134.58 138.18 139.58"/>
      </g>
      <g>
        <polygon class="cls-9" points="122.22 112.66 67.27 65.4 66.28 66.49 121.23 113.75 122.22 112.66"/>
        <g>
          <polygon class="cls-9" points="67.6 59.62 67.59 59.97 67.91 65.99 58.43 57.38 58.06 50.96 67.6 59.62"/>
          <path class="cls-9" d="M51.13,58.6l6.32-.14,9.48,8.61c-2.07-.2-4.19-.12-6.29,.17l-9.51-8.63Z"/>
        </g>
        <polygon class="cls-9" points="121.77 116.48 124.95 112.79 122.27 107.05 120.51 112.11 115.66 114.34 121.77 116.48"/>
      </g>
    </g>
    <g>
      <path class="cls-3" d="M159.42,347.05c0,7.68-4.03,14.43-10.09,18.21h-22.86c-6.06-3.79-10.09-10.53-10.09-18.21,0-11.91,9.64-21.52,21.52-21.52,11.88,0,21.52,9.6,21.52,21.52Z"/>
      <rect class="cls-3" x="115.11" y="365.26" width="45.62" height="6.58"/>
      <rect class="cls-11" x="91.71" y="455.81" width="92.4" height="6.58"/>
      <rect class="cls-11" x="91.71" y="474.25" width="92.4" height="6.58"/>
      <rect class="cls-3" x="95.15" y="462.39" width="85.52" height="11.86"/>
      <rect class="cls-11" x="119.31" y="371.84" width="37.22" height="6.58"/>
      <path class="cls-3" d="M175.7,455.81H100.1s17.24-17.24,20.85-37.88c3-17.41,4.48-39.5,4.48-39.5h24.95s1.47,22.09,4.5,39.5c3.58,20.65,20.82,37.88,20.82,37.88Z"/>
    </g>
    <g>
      <path class="cls-3" d="M429.94,347.05c0,7.68-4.03,14.43-10.09,18.21h-22.86c-6.06-3.79-10.09-10.53-10.09-18.21,0-11.91,9.64-21.52,21.52-21.52,11.88,0,21.52,9.6,21.52,21.52Z"/>
      <rect class="cls-3" x="385.64" y="365.26" width="45.62" height="6.58"/>
      <rect class="cls-11" x="362.23" y="455.81" width="92.4" height="6.58"/>
      <rect class="cls-11" x="362.23" y="474.25" width="92.4" height="6.58"/>
      <rect class="cls-3" x="365.67" y="462.39" width="85.52" height="11.86"/>
      <rect class="cls-11" x="389.84" y="371.84" width="37.22" height="6.58"/>
      <path class="cls-3" d="M446.22,455.81h-75.59s17.24-17.24,20.85-37.88c3-17.41,4.48-39.5,4.48-39.5h24.95s1.47,22.09,4.5,39.5c3.58,20.65,20.82,37.88,20.82,37.88Z"/>
    </g>
  </g>
  <g>
    <path class="cls-11" d="M54.24,301.44c.8-.5,1.8-.47,2.61,.02,.22,.13,.44,.26,.67,.38,.23,.12,.46,.24,.69,.35,.85,.4,1.42,1.22,1.45,2.15l.1,3.2,10.44-.32-.1-3.2c-.03-.94,.49-1.8,1.31-2.25,.45-.25,.9-.52,1.32-.82,.77-.53,1.77-.61,2.59-.17l2.82,1.51,4.94-9.21-2.82-1.51c-.83-.44-1.31-1.31-1.3-2.25,.01-.52,0-1.04-.05-1.55-.08-.94,.35-1.84,1.15-2.34l2.72-1.69-5.5-8.87-2.74,1.7c-.8,.49-1.79,.46-2.59-.02-.22-.13-.44-.26-.67-.38-.23-.12-.46-.24-.69-.35-.85-.4-1.43-1.22-1.46-2.16l-.1-3.21-10.44,.32,.1,3.2c.03,.94-.48,1.8-1.31,2.25-.46,.25-.9,.52-1.33,.82-.77,.54-1.77,.61-2.59,.17l-2.82-1.51-4.94,9.21,2.82,1.51c.83,.44,1.32,1.32,1.3,2.25-.01,.52,0,1.04,.05,1.56,.08,.94-.35,1.84-1.15,2.34l-2.72,1.68,5.5,8.87,2.72-1.69Zm2.62-16.48c2.23-4.16,7.42-5.73,11.59-3.5,4.16,2.23,5.72,7.42,3.49,11.58s-7.41,5.73-11.58,3.49-5.73-7.42-3.5-11.58Z"/>
    <path class="cls-11" d="M389.34,262.04c.57,.33,.89,.96,.85,1.61,0,.18-.01,.36-.01,.54s0,.36,.01,.54c.03,.66-.28,1.28-.85,1.61l-1.95,1.12,3.66,6.34,1.94-1.12c.57-.33,1.27-.3,1.82,.06,.3,.2,.62,.38,.94,.55,.58,.3,.96,.89,.96,1.55v2.24h7.32v-2.24c0-.66,.38-1.25,.96-1.55,.32-.17,.64-.35,.94-.55,.55-.36,1.25-.39,1.82-.06l1.94,1.12,3.66-6.34-1.95-1.13c-.57-.33-.88-.95-.85-1.61,0-.18,.01-.36,.01-.54s0-.36-.01-.54c-.03-.66,.28-1.29,.85-1.61l1.95-1.12-3.66-6.34-1.94,1.12c-.57,.33-1.27,.3-1.82-.06-.3-.2-.62-.38-.95-.55-.59-.3-.96-.89-.96-1.55v-2.24h-7.32v2.24c0,.66-.38,1.25-.96,1.55-.33,.17-.64,.35-.95,.55-.55,.36-1.25,.39-1.82,.06l-1.94-1.12-3.66,6.34,1.94,1.12Zm11.04-3.84c3.31,0,6,2.69,6,6s-2.69,5.99-6,5.99-5.99-2.68-5.99-5.99,2.68-6,5.99-6Z"/>
    <g>
      <path class="cls-3" d="M392.33,190.11c0,18.1,14.68,32.78,32.78,32.78s32.78-14.68,32.78-32.78-14.67-32.78-32.78-32.78-32.78,14.67-32.78,32.78Zm17.47,0c0-8.46,6.86-15.31,15.31-15.31s15.31,6.86,15.31,15.31-6.86,15.3-15.31,15.3-15.31-6.85-15.31-15.3Z"/>
      <polygon class="cls-3" points="418.81 158.69 431.41 158.69 430.72 149.76 419.5 149.76 418.81 158.69"/>
      <polygon class="cls-3" points="442.8 162.93 451.72 171.85 457.53 165.05 449.6 157.12 442.8 162.93"/>
      <polygon class="cls-3" points="456.76 182.9 456.76 195.51 465.69 194.81 465.69 183.6 456.76 182.9"/>
      <polygon class="cls-3" points="452.52 206.9 443.6 215.81 450.41 221.63 458.33 213.7 452.52 206.9"/>
      <polygon class="cls-3" points="432.55 220.86 419.94 220.86 420.64 229.78 431.85 229.78 432.55 220.86"/>
      <polygon class="cls-3" points="408.55 216.61 399.64 207.7 393.82 214.5 401.75 222.43 408.55 216.61"/>
      <polygon class="cls-3" points="394.59 196.64 394.59 184.04 385.67 184.73 385.67 195.95 394.59 196.64"/>
      <polygon class="cls-3" points="398.84 172.65 407.75 163.74 400.95 157.92 393.02 165.85 398.84 172.65"/>
    </g>
  </g>
  <path class="cls-16" d="M37.47,480.83c135.59-.61,287.68-.62,423.27,0-135.59,.62-287.68,.61-423.27,0h0Z"/>
  <g>
    <g>
      <rect class="cls-6" x="141.15" y="422.34" width="180.05" height="6.48"/>
      <rect class="cls-17" x="141.15" y="422.34" width="180.05" height="6.48"/>
      <rect class="cls-6" x="141.15" y="463.92" width="180.05" height="6.48"/>
      <rect class="cls-17" x="141.15" y="463.92" width="180.05" height="6.48"/>
      <rect class="cls-1" x="141.15" y="468.14" width="180.05" height="2.26"/>
      <rect class="cls-6" x="135.18" y="470.4" width="191.99" height="10.42"/>
      <rect class="cls-17" x="135.18" y="470.4" width="191.99" height="10.42"/>
      <rect class="cls-6" x="150.04" y="428.82" width="162.26" height="35.09"/>
      <rect class="cls-17" x="150.04" y="428.82" width="162.26" height="35.09"/>
      <rect class="cls-1" x="150.04" y="428.82" width="162.26" height="8.4"/>
      <rect class="cls-1" x="150.04" y="455.52" width="162.26" height="8.4"/>
    </g>
    <g>
      <g>
        <path class="cls-6" d="M194.34,251.23s-11.01-14.11-10.58-15.57c.43-1.46,28.32-14.19,45.49-10.33,17.17,3.86,65.8,28.04,75.39,66.66,9.58,38.62-18.31,93.98-19.03,106.86-.72,12.87,4.01,23.48,4.01,23.48h-14.16s-7.58-14.47-2.86-36.07c4.72-21.6,17.02-62.51,11.59-84.83-5.44-22.32-42.34-52.07-53.36-56.08-11.01-4.01-36.48,5.87-36.48,5.87Z"/>
        <path class="cls-14" d="M194.34,251.23s-11.01-14.11-10.58-15.57c.43-1.46,28.32-14.19,45.49-10.33,17.17,3.86,65.8,28.04,75.39,66.66,9.58,38.62-18.31,93.98-19.03,106.86-.72,12.87,4.01,23.48,4.01,23.48h-14.16s-7.58-14.47-2.86-36.07c4.72-21.6,17.02-62.51,11.59-84.83-5.44-22.32-42.34-52.07-53.36-56.08-11.01-4.01-36.48,5.87-36.48,5.87Z"/>
      </g>
      <path class="cls-6" d="M283.17,422.34h-115.57s0-29.94,11.44-48.83c11.44-18.88,38.89-38.34,44.42-47.3,5.53-8.96,4.24-17.92,4.24-17.92,0,0-6.43,10.18-21.21,14.04-12.99,3.39-24.55-.86-24.55-.86,0,0-19.32,6.29-20.66,7.62-1.33,1.33-5.72,5.13-9.15,5.32-3.43,.19-14.23-11.49-14.23-21.79,0-5.09,36.74-40.58,36.74-40.58,0,0,4.96-11.83,6.29-14.5,1.33-2.67,35.29-18.88,44.25-18.31,8.96,.57,48.32,22.37,61.42,50.73,12.59,27.27-1.01,70.7-5.72,89.55-6.87,27.47,2.29,42.82,2.29,42.82Z"/>
      <path class="cls-17" d="M283.17,422.34h-115.57s0-29.94,11.44-48.83c11.44-18.88,38.89-38.34,44.42-47.3,5.53-8.96,4.24-17.92,4.24-17.92,0,0-6.43,10.18-21.21,14.04-12.99,3.39-24.55-.86-24.55-.86,0,0-19.32,6.29-20.66,7.62-1.33,1.33-5.72,5.13-9.15,5.32-3.43,.19-14.23-11.49-14.23-21.79,0-5.09,36.74-40.58,36.74-40.58,0,0,4.96-11.83,6.29-14.5,1.33-2.67,35.29-18.88,44.25-18.31,8.96,.57,48.32,22.37,61.42,50.73,12.59,27.27-1.01,70.7-5.72,89.55-6.87,27.47,2.29,42.82,2.29,42.82Z"/>
      <path class="cls-1" d="M180.26,289l19.48-10.67s-7.14-1.67-11.5,.28c-4.36,1.95-7.98,10.39-7.98,10.39Z"/>
      <g>
        <path class="cls-6" d="M210.5,253.35s-15.94-25.99-16.16-28.9c-.14-1.86,22.17,3,28.18,7.15,6.01,4.15,17.6,16.91,17.6,16.91l-29.61,4.84Z"/>
        <path class="cls-17" d="M210.5,253.35s-15.94-25.99-16.16-28.9c-.14-1.86,22.17,3,28.18,7.15,6.01,4.15,17.6,16.91,17.6,16.91l-29.61,4.84Z"/>
        <path class="cls-1" d="M201.43,229.82s11.1,3.3,13.28,5.84c2.18,2.55,6.57,10.18,6.57,10.18"/>
      </g>
      <path class="cls-1" d="M227.71,308.29s-6.44,10.18-21.22,14.04c-12.99,3.39-24.54-.86-24.54-.86,0,0-19.33,6.29-20.66,7.63-1.34,1.33-5.72,5.12-9.16,5.31-2.53,.14-9.09-6.2-12.34-13.67,3.78,6.46,10.31,9.89,12.51,9.33,2.2-.55,5.2-4.65,6.08-5.43,.89-.77,20.9-11.13,21.87-11.68,.96-.56,12.38,4.03,27.45-1.29,15.08-5.32,19.51-14.87,19.51-14.87,0,0,.62,8.81,.62,13.83,0-1.47-.13-2.34-.13-2.34Z"/>
      <path class="cls-1" d="M283.17,422.34h-115.57s0-2.02,.2-5.34c0,0,81.52-.68,90.12-9.8,7.98-8.47,6.62-17.42,18.11-42.31,11.49-24.9,18.45-67.25-1.08-92.3,4.73,5.39,8.81,11.23,11.65,17.38,12.59,27.28-1.01,70.7-5.72,89.55-6.87,27.47,2.29,42.82,2.29,42.82Z"/>
      <g class="cls-20">
        <path class="cls-4" d="M205.97,246.55c-6.98,4.54-14.33,8.49-21.33,12.92,0,0,0,0,0,0,0,0,0,0,0,0,0,0,0-.07-.03-.01l-.19,.41c-.15,.31-.99,2.39-1.14,2.76-.45,1.05-3.92,9.73-4.36,10.51-1.71,2.38-3.97,4.2-5.98,6.28-7.03,6.79-14.27,13.29-21.6,19.76,7.53-9.75,16.48-18.35,24.88-27.29,.33-.68,4.05-9.43,4.46-10.36,.18-.39,1.13-2.47,1.31-2.82,.08-.18,.27-.51,.37-.68,.17-.26,.63-.64,.83-.77,7.32-4.17,14.99-7.51,22.77-10.7h0Z"/>
        <path class="cls-4" d="M171.55,406.83c2.85-23.72,8.5-36.5,26.27-52.83,3.35-2.97,7.17-6.13,10.78-8.74-4.65,5.16-9.5,10.01-13.94,15.27-1.92,2.18-3.96,4.76-5.75,7.04-1.18,1.63-2.82,3.84-3.86,5.57-6.91,10.14-9.65,22.14-13.5,33.68h0Z"/>
      </g>
    </g>
  </g>
  <g>
    <g class="cls-20">
      <path class="cls-8" d="M435.36,69.68c-1.84,22.71-20.77,29.53-20.77,29.53-1.4,3.45-3.22,12.23-3.22,12.23l-25.25-.03s-1.8-8.78-3.19-12.24c0,0-18.91-6.87-20.69-29.58-1.24-15.78,10.03-39.09,36.47-39.06h.27c26.45,.04,37.66,23.38,36.38,39.15Z"/>
    </g>
    <path class="cls-17" d="M432.23,69.79c-1.68,20.77-19,27.01-19,27.01-1.28,3.16-2.95,14.64-2.95,14.64l-23.1-.03s-1.64-11.49-2.91-14.64c0,0-17.3-6.28-18.93-27.05-1.13-14.43,9.17-35.75,33.36-35.73h.25c24.19,.04,34.44,21.38,33.27,35.81Z"/>
    <g>
      <rect class="cls-4" x="387.86" y="73.44" width="2.11" height="40.45" transform="translate(-10.56 72.47) rotate(-10.5)"/>
      <rect class="cls-4" x="388.39" y="92.63" width="40.45" height="2.11" transform="translate(241.17 478.02) rotate(-79.37)"/>
      <path class="cls-4" d="M398.78,87.05h0c-2.25,0-4.32-2.07-5.79-4.74-.64,.7-1.37,1.13-2.14,1.13h0c-3.78,0-5.27-7.75-5.33-8.08l.69-.13c.01,.08,1.45,7.5,4.64,7.5h0c.6,0,1.21-.42,1.78-1.11-1.15-2.31-1.84-4.96-1.84-7.06,0-2.18,.83-3.44,2.27-3.44h0c1.67,0,2.63,1.33,2.62,3.65,0,2.18-.89,5.11-2.22,6.94,1.35,2.58,3.26,4.62,5.31,4.62h0c1.86,0,3.49-1.69,4.67-3.95-.32-.35-.61-.76-.88-1.23-1.55-2.7-1.87-6.7-.69-8.73,.49-.84,1.2-1.29,2.05-1.29h0c1.38,0,2.17,1.37,2.16,3.75,0,2.05-.64,4.92-1.8,7.36,.63,.58,1.44,1.02,2.47,1.02h0c2.27,0,4.29-5.44,4.87-7.54l.68,.19c-.23,.82-2.34,8.06-5.55,8.06h0c-1.03,0-1.98-.37-2.8-1.07-1.25,2.35-3.02,4.14-5.19,4.14Zm5.15-15.2c-.6,0-1.08,.31-1.44,.93-1.05,1.82-.73,5.57,.69,8.03,.17,.29,.37,.6,.61,.89,1-2.18,1.6-4.75,1.6-6.81,0-.91-.14-3.04-1.46-3.04h0Zm-10.87-.01c-1.29,0-1.56,1.49-1.57,2.73,0,1.88,.61,4.27,1.6,6.41,1.08-1.66,1.88-4.19,1.88-6.2,0-1.34-.33-2.95-1.92-2.95h0Z"/>
    </g>
    <g>
      <rect class="cls-13" x="382.91" y="111.45" width="31.64" height="17.41" transform="translate(.15 -.5) rotate(.07)"/>
      <g>
        <path class="cls-13" d="M410.95,128.87c-1.86,3.3-5.44,6.24-12.24,6.23-6.8,0-10.37-2.96-12.22-6.27l24.46,.03Z"/>
        <path class="cls-12" d="M410.95,128.87c-.53,.94-1.2,1.85-2.05,2.67l-21.78-1.7c-.23-.33-.44-.66-.63-1.01l24.46,.03Z"/>
      </g>
      <g>
        <polygon class="cls-12" points="415.48 114.79 381.99 117.84 381.99 116.32 415.48 113.27 415.48 114.79"/>
        <polygon class="cls-12" points="415.47 119.38 381.98 122.44 381.98 120.92 415.48 117.87 415.47 119.38"/>
        <polygon class="cls-12" points="415.47 123.98 381.98 127.04 381.98 125.52 415.47 122.46 415.47 123.98"/>
      </g>
    </g>
    <g class="cls-20">
      <path class="cls-4" d="M370.21,64.29c1.16,.2,2.67-5.79,9.11-12.71,2.86-3.07,13.72-6.91,12.94-10.46-.78-3.55-10.46,.09-15.33,5.72-7.84,9.07-7.79,17.27-6.72,17.45Z"/>
      <path class="cls-4" d="M427.28,65.61c2.13,0,2.14-3.31,0-3.32-2.13,0-2.14,3.31,0,3.32Z"/>
      <path class="cls-4" d="M416.81,90.53c1.17,.89,6.83-4.33,9.39-10.56,2.12-5.17,2.5-11.71,1.07-12.09-1.42-.38-2.36,8.59-4.08,11.9-2.17,4.17-7.64,9.8-6.39,10.75Z"/>
    </g>
  </g>
  <g>
    <g>
      <g>
        <g>
          <path class="cls-5" d="M301.68,358.35s-39.38,29.2-39.41,29.22c-7.04,6.29-13.1,11.93-15.96,15.14-.02,.01-.04,.03-.05,.05-1.08,1.21-1.7,2.06-1.71,2.46,0,.03-.01,.06,0,.08,.45,3.36,49.09,61.07,51.46,62.51,2.37,1.46,6.67-5.21,6.57-8.96-.12-3.76-8.85-34.18-8.85-34.18l39.05-29.53-31.11-36.81Z"/>
          <path class="cls-3" d="M295.12,467.16c-2.37-1.44-50.11-58.49-50.57-61.84,0-.03,0-.06,0-.08,0-.4,.64-1.26,1.7-2.46,.02-.03,.03-.04,.05-.05,2.86-3.21,8.92-8.85,15.95-15.15,0,0,6.75-5.17,9.28-6.87l30.39,37.92-8.2,6.07s7.84,29.75,7.95,33.5c.11,3.75-4.19,10.41-6.57,8.96Z"/>
          <g>
            <path class="cls-15" d="M296.63,466.82c-2.36-1.51-50.02-60.81-50.39-64.22-.17-1.29,8.07-8.74,18.28-17.45,.11-.09,.22-.18,.32-.27l31.17,37.91-.66,.51s8.09,30.86,8.11,34.65c.01,3.77-4.47,10.39-6.83,8.87Z"/>
            <g>
              <path class="cls-4" d="M298.39,464.3c-7.79-10.19-40.16-50.57-48.63-60.06-.07-.08-.12-.03-.06,.05,7.5,10.27,40.2,50.39,48.53,60.14,.17,.21,.33,.08,.16-.13Z"/>
              <path class="cls-3" d="M297.81,426.61c-2.43-4.52-6.9-8.85-12.11-9.6-.2-.03-.24,.26-.1,.35,4.34,2.9,8.04,5.89,11.7,9.63,.26,.26,.68-.06,.51-.38Z"/>
              <path class="cls-3" d="M298.38,430.82c-2.43-4.52-6.9-8.85-12.11-9.6-.2-.03-.24,.26-.1,.35,4.34,2.9,8.04,5.89,11.7,9.63,.26,.26,.68-.06,.51-.38Z"/>
              <path class="cls-3" d="M298.95,435.03c-2.43-4.52-6.9-8.85-12.12-9.6-.2-.03-.24,.26-.1,.35,4.34,2.9,8.04,5.89,11.7,9.63,.26,.26,.68-.06,.51-.38Z"/>
            </g>
            <path class="cls-4" d="M266.06,400c-1.3-6.03-10.67-4.01-9.37,2.03,1.31,6.03,10.67,4.01,9.37-2.03Z"/>
            <path class="cls-6" d="M299.48,466.02c.44,1.39-3.3,4.03-4.21,3.49-.9-.54-52.57-65.42-53.21-66.72-.64-1.3,3.63-4.06,4.86-2.95,1.23,1.11,52.56,66.18,52.56,66.18Z"/>
            <path class="cls-19" d="M299.48,466.02c.44,1.39-3.3,4.03-4.21,3.49-.9-.54-52.57-65.42-53.21-66.72-.64-1.3,3.63-4.06,4.86-2.95,1.23,1.11,52.56,66.18,52.56,66.18Z"/>
          </g>
        </g>
        <g>
          <path class="cls-15" d="M325.94,314.17c-2.72,13.42-58.38,66.95-58.38,66.95l38.81,44.8s79.03-78.89,74.91-108.54c-3.59-25.79-42.19-126.48-42.19-126.48h-44.54s34.07,110.07,31.4,123.27Z"/>
          <g>
            <path class="cls-12" d="M310.78,415.27c-5.16-6.42-3.59-4.65-8.81-11.01-2.56-3.11-19.39-23.55-22.29-26.04-.06-.05-.17,.04-.13,.11,1.94,3.29,19.13,23.43,21.74,26.49,5.35,6.26,3.88,4.4,9.3,10.6,.1,.12,.28-.03,.18-.15Z"/>
            <path class="cls-12" d="M331.47,307.63c-.64-3.35-1.36-6.69-2.07-10.02-1.45-6.81-2.98-10.61-4.6-17.38-3.21-13.43-6.68-26.8-10.46-40.08-3.8-13.33-7.81-26.63-12.43-39.7-.57-1.62-1.16-3.22-1.75-4.83-.04-.12-.23-.07-.19,.06,4,13.09,8.13,26.15,11.88,39.31,3.74,13.11,7.2,26.3,10.46,39.54,1.64,6.65,3.16,10.32,4.65,17,.73,3.28,1.45,6.57,2.14,9.86,.71,3.34,1.66,6.75,1.87,10.16,.2,3.35-.89,6.33-2.62,9.15-1.67,2.73-3.63,5.3-5.53,7.88-3.8,5.16-40.06,45.56-41.22,46.65-.09,.09,.05,.22,.14,.13,4.87-4.37,35.62-37.66,39.53-42.81,1.93-2.55,3.82-5.13,5.66-7.74,1.73-2.44,3.47-4.93,4.42-7.8,1.03-3.08,.72-6.25,.12-9.38Z"/>
          </g>
          <g class="cls-18">
            <path class="cls-2" d="M294.55,190.9s24.06,76.86,30.15,110.19l6.43-110.19h-36.58Z"/>
          </g>
        </g>
      </g>
      <g>
        <g>
          <path class="cls-5" d="M315.19,405.96s7.97,48.99,7.97,49.02c.48,9.43,1.07,17.68,1.78,21.93,0,.02,0,.05,.01,.07,.26,1.6,.54,2.62,.84,2.88,.02,.02,.04,.05,.06,.06,2.9,1.76,78.35,.11,80.96-.84,2.62-.93,.13-8.46-2.85-10.73-3-2.27-32.16-14.56-32.16-14.56l-8.49-48.11-48.12,.29Z"/>
          <path class="cls-3" d="M405.73,479.35c-2.61,.94-76.99,2.32-79.88,.56-.03-.02-.05-.04-.06-.06-.31-.26-.58-1.28-.85-2.87,0-.03-.01-.05,0-.07-.7-4.24-1.29-12.5-1.79-21.93,0-.01-1.85-8.33-2.22-11.54l49.06,.14,1.8,10.2s28.09,12.56,31.08,14.83c2.99,2.27,5.47,9.8,2.85,10.74Z"/>
          <g>
            <path class="cls-15" d="M406.41,477.96c-2.66,.89-78.73,.78-81.62-1.06-1.11-.68-2.5-25.47-2.5-25.61l49.45-.48-.02,.83s29.1,13.07,32.07,15.43c2.94,2.35,5.28,10,2.62,10.88Z"/>
            <g>
              <path class="cls-4" d="M405.56,475.01c-12.82-.33-64.58-.47-77.28,.18-.1,0-.1,.08,0,.08,12.7,.61,64.46,.32,77.28-.05,.27,0,.27-.2,0-.21Z"/>
              <path class="cls-3" d="M375.85,451.8c-5.04-.95-11.22-.18-15.08,3.41-.15,.14,.05,.35,.21,.3,4.98-1.56,9.63-2.56,14.84-3.07,.37-.04,.38-.57,.02-.64Z"/>
              <path class="cls-3" d="M379.49,454c-5.05-.95-11.22-.18-15.08,3.41-.15,.14,.05,.35,.21,.3,4.98-1.56,9.63-2.56,14.84-3.07,.37-.04,.38-.57,.02-.64Z"/>
              <path class="cls-3" d="M383.13,456.2c-5.04-.95-11.22-.18-15.08,3.41-.15,.14,.05,.35,.21,.3,4.98-1.56,9.63-2.56,14.84-3.07,.37-.04,.38-.57,.02-.64Z"/>
            </g>
            <path class="cls-4" d="M335.21,459.83c-5.51-2.77-9.82,5.79-4.3,8.56,5.51,2.77,9.82-5.79,4.3-8.56Z"/>
            <path class="cls-6" d="M407.58,475.23c1.36,.53,1.06,5.1,.08,5.46-.98,.37-83.93-.12-85.34-.44-1.41-.32-.88-5.38,.75-5.63s84.51,.61,84.51,.61Z"/>
            <path class="cls-19" d="M407.58,475.23c1.36,.53,1.06,5.1,.08,5.46-.98,.37-83.93-.12-85.34-.44-1.41-.32-.88-5.38,.75-5.63s84.51,.61,84.51,.61Z"/>
          </g>
        </g>
        <g>
          <path class="cls-15" d="M330.05,190.9c-.05,.93,2.2,9.46,.91,22.22-.93,9.32-2.09,17.57-3.34,18.59-1.41,1.16-8.45,5.68-10.82,7.12,0,0,21.95,63.52,27.61,85.7,8.21,32.15,27.87,121.19,27.87,121.19h-52.39s-15.93-84.42-22.89-115.02c-5.97-26.24-21.27-76.86-21.27-76.86-2.36-2.74-8.86-14.51-9.44-19.15-1.36-11.01,3.71-43.79,3.71-43.79,0,0,60.04-.04,60.04,0Z"/>
          <g>
            <path class="cls-12" d="M365.85,435.61c-7.46-.06-5.32-.16-12.78-.12-3.65,.02-27.64,.16-31.04,.84-.07,.01-.07,.15,0,.17,3.42,.57,27.4-.03,31.05-.13,7.46-.2,5.31-.23,12.77-.52,.14,0,.14-.24,0-.24Z"/>
            <g>
              <path class="cls-12" d="M331.34,229.09c-5.11,2.69-9.9,6.14-14.45,9.67-.18,.14,0,.42,.19,.3,4.9-3.07,9.92-6.06,14.64-9.39,.37-.26,.01-.79-.38-.58Z"/>
              <path class="cls-12" d="M327.34,192.9c-.04-.18-.37-.17-.34,.03,1.01,6.22,1.46,11.77,1.84,17.67,.18,2.74,.32,18.02-4.54,17.66-.81-.06-1.33-.77-1.64-1.93-.37-1.4-.1-3.23-.09-4.68,.03-3.21-.03-6.41-.26-9.61-.41-5.98-1.31-11.88-2.93-17.64-.05-.19-.33-.13-.3,.06,1.27,8.16,2.33,16.34,2.36,24.62,.02,3.98-1.03,10.13,3.12,10.1,4.23-.03,5.39-10.25,5.48-13.01,.25-7.7-.95-15.78-2.72-23.26Z"/>
              <path class="cls-12" d="M324.5,228.64c-.27,1.07-.45,2.17-.57,3.26-.1,.85-.27,1.78-.04,2.61,.04,.16,.26,.14,.34,.02,.44-.78,.53-1.77,.7-2.65,.21-1.01,.44-2.02,.62-3.04,.12-.68-.88-.86-1.04-.21Z"/>
            </g>
            <path class="cls-12" d="M304.38,361.9c-1.13-5.19-2.45-10.32-3.83-15.44-.1-.36-.6-.18-.54,.16,.84,4.69,1.65,9.39,2.61,14.06,.96,4.66,1.91,9.31,2.84,13.98,1.83,9.22,3.53,18.46,5.36,27.68,.51,2.6,.98,5.21,1.49,7.82,.25,1.3,.52,2.6,.79,3.89,.28,1.29,.68,2.56,.89,3.86,.02,.12,.21,.07,.19-.06-.2-1.24-.22-2.51-.37-3.76-.14-1.21-.3-2.42-.47-3.63-.33-2.32-.72-4.63-1.08-6.95-.72-4.66-1.52-9.3-2.34-13.94"/>
            <path class="cls-12" d="M349.93,344.47c-1.74-8.69-16.83-56.95-22.42-73.88-1.61-4.88-3.22-9.76-4.83-14.64-.81-2.44-4.76-15.59-5.25-16.84-.05-.13-.24-.07-.2,.06,1.13,4.48,2.69,11.02,3.99,15.45,1.29,4.38,2.7,8.74,4.07,13.1,2.68,8.58,18.23,56.74,22.4,74.01,1.17,4.84,2.33,9.67,3.4,14.53,1.06,4.85,1.97,9.73,2.99,14.6,.03,.13,.25,.1,.24-.04-.88-8.86-2.63-17.62-4.38-26.34Z"/>
            <path class="cls-12" d="M275.46,200.17c-.46,4.87-.87,9.74-1.23,14.62-.35,4.87-.69,9.76-.75,14.63-.18,2.52,.4,4.73,1.58,6.93,2.13,4.4,4.33,8.8,7.13,12.79,4.08,11.57,7.12,23.42,10.58,35.17,4,14.05,11.91,42.43,15.74,56.53,4.23,16.63,8.32,40.51,11.72,57.52,0,0,5.31,28.85,5.31,28.85-4.3-20.37-13.02-66.67-17.92-86.13,0,0-7.85-28.27-7.85-28.27-6.01-21.13-11.47-42.49-18.2-63.38-3.34-5.06-6.25-10.59-8.39-16.31-.57-6.14,.41-12.26,.8-18.37,.44-4.87,.93-9.74,1.47-14.6h0Z"/>
            <path class="cls-12" d="M277.24,221.55c1.25-.48,2.65-.59,3.94-.95,1.36-.38,2.7-.81,4-1.37,2.45-1.05,4.84-2.41,6.93-4.08,2.15-1.72,3.45-3.96,4.53-6.46,.58-1.33,3.07-8.38,3.1-8.43,.08-.17,.41-.1,.39,.07-.06,.95-1.49,6.97-1.97,8.49-.91,2.85-2.24,5.47-4.55,7.44-2.26,1.92-4.93,3.34-7.72,4.33-1.44,.51-2.92,.92-4.42,1.16-1.36,.22-2.87,.51-4.24,.21-.24-.05-.16-.36,.01-.43Z"/>
            <path class="cls-12" d="M347.21,216.94c-.69-.39-1.42-.44-2.12-.72-.74-.3-1.46-.65-2.18-1.11-1.35-.88-2.7-2.03-3.91-3.49-1.25-1.5-2.1-3.52-2.85-5.78-.4-1.2-1.48-7.69-1.5-7.73-.05-.15-.22-.08-.2,.08,.11,.87,.28,5.52,.92,7.83,.72,2.59,1.59,4.96,2.94,6.68,1.32,1.69,2.82,2.89,4.34,3.7,.78,.41,1.59,.74,2.38,.91,.72,.15,1.53,.36,2.21,.04,.12-.06,.06-.34-.04-.39Z"/>
          </g>
        </g>
      </g>
    </g>
    <g>
      <path class="cls-17" d="M265.14,206.33c.19,.2,79.39-.37,80.1-1.19,1-1.16-16.91-83.21-25.48-93.46-6.15-7.35-16-6.85-21.22-1.04-18.82,20.91-34.06,94.95-33.4,95.69Z"/>
      <g>
        <path class="cls-10" d="M338.56,165.78s-13.34-6.75-18.49-6.37c-7.93,.6-19.36,18.14-16.08,19.97,5.16,2.88,19.3,13.35,38.24,15.38,10.3,1.11,28.42-13.28,26.11-23.41-3.24-14.23-30.61-7.65-29.78-5.58Z"/>
        <g>
          <path class="cls-17" d="M307.91,187.77h.01c.11,.04,.86,.28,2.1,.65,.07,.03,.12,.04,.19,.06,4.52,1.36,14.97,4.35,24.78,6.01,.07,.02,.14,.02,.21,.03,5.79,.98,11.34,1.49,15.31,.95,1.09-.15,2.3-.49,3.54-1t.02,0c7.26-2.92,16.17-11.31,15.89-20.18-.53-17.16-31.52-47.8-39.32-54.82-4.5-4.05-7.93-6.43-10.89-7.78,2.13,4.69,7,16.05,11.05,30.44,.91,3.16,1.76,6.47,2.54,9.88,2.46,6.33,4.7,12.4,5.14,13.58,.03,.08,.05,.15,.06,.18h0s-.16-.05-.34-.13c-2.54-1.11-17.43-8.18-17.43-8.18l-12.86,30.32Z"/>
          <path class="cls-15" d="M317.5,180.68c.92-2.15,1.86-4.29,2.78-6.43,.91-2.1,1.83-4.19,2.75-6.28,.96-2.16,1.98-4.32,2.71-6.58,.01-.04-.05-.07-.07-.03-1.22,1.9-2.19,3.97-3.16,6.01-1,2.11-1.97,4.24-2.93,6.37-.94,2.09-1.84,4.19-2.72,6.3-.91,2.17-1.82,4.42-2.42,6.7-.02,.09,.11,.17,.16,.08,1.11-1.95,2.02-4.07,2.9-6.13Z"/>
          <path class="cls-15" d="M354.05,194.47c-1.93,.78-4.33,1.16-6.5,1.11-21.17-.55-38.97-8.54-39.58-8.43-.11,.02-.07,.23,.04,.24,.95,.05,20.98,8.61,36.61,8.9,5.22,.1,7.76-.63,9.48-1.76,.03-.02-.01-.07-.05-.06Z"/>
          <path class="cls-1" d="M328.78,134.64c.91,3.16,3.79,13.96,4.57,17.37,2.46,6.33,4.7,12.4,5.14,13.58,.03,.08,.05,.15,.06,.18h0s.01,.02,.01,.02l8.42,3.66-.61-1.03-17.6-33.78Z"/>
          <path class="cls-15" d="M353.95,172.48c-2.38-1.5-4.91-2.82-7.46-4.01-1.27-.6-2.56-1.13-3.89-1.61-1.41-.5-2.88-.83-4.28-1.34-.11-.04-.17,.13-.06,.16,1.31,.47,2.57,1.18,3.84,1.74,1.32,.59,2.65,1.17,3.98,1.73,2.62,1.1,5.2,2.28,7.81,3.41,.06,.03,.12-.07,.06-.11Z"/>
        </g>
      </g>
      <g>
        <g>
          <path class="cls-7" d="M353.38,171.5c-1.45-.49-9.22-4.06-10.35-2.8-3.64,4.09-6.72,6.86-9.59,7.87-4.99,1.76-7.84,1.63-9.24,2.59-17.12,11.7-40.55,23.08-49.08,23.82-12.95,1.11-18.95-9.36-17.59-19.8,2.68-20.64,24.96-57.64,36.53-69.13,6.14-6.08,6.27,2.36,4.26,11.7-1.18,5.48-1.31,8.95-3.55,16.98-1.98,7.15-7.27,25.46-7.36,25.88h0s-.02,.05-.02,.06c0,.05,.04,.05,.14,.02,.56-.15,15.33-8.56,30.43-13.72,5.32-1.82,16.48-4.69,20.67-3.19,2.49,.89,2.53,2.04,2.53,2.04,0,0,2.04-.04,4.21,1.48,1.44,1.01,1.64,2.2,1.64,2.2,0,0,2.48,.48,3.67,1.62,1.43,1.36,1.7,3.52,1.7,3.52,5.52,4.59,.98,8.85,.98,8.85Z"/>
          <g>
            <path class="cls-15" d="M352.31,162.48c-3.41-.94-5.76-.88-8.9,0-.11,.03-.07,.28,.06,.27,3.15-.42,5.57-.39,8.86-.07,.08,0,.06-.18-.02-.2Z"/>
            <path class="cls-15" d="M346.91,157.37c-3.44-.82-5.79-.67-8.89,.31-.11,.03-.06,.29,.06,.27,3.13-.53,5.55-.58,8.86-.38,.08,0,.06-.18-.03-.2Z"/>
            <path class="cls-15" d="M341.06,153.69c-3.47-.67-5.82-.42-8.87,.7-.11,.04-.04,.29,.08,.26,3.11-.66,5.52-.82,8.83-.77,.08,0,.05-.18-.04-.2Z"/>
            <path class="cls-15" d="M317.24,155.21c-1.33,.28-2.64,.78-3.94,1.21-1.38,.45-2.75,.94-4.08,1.5-2.68,1.12-5.27,2.42-7.81,3.82-.1,.05-.03,.21,.07,.16,2.61-1.15,5.25-2.24,7.9-3.3,1.3-.52,2.59-1.07,3.89-1.61,1.33-.55,2.72-1,4.02-1.61,.09-.04,.05-.19-.05-.17Z"/>
          </g>
        </g>
        <g>
          <path class="cls-17" d="M306.75,158.95c2.76-1.18,4.04-1.29,4.04-1.29l18.73,27.42s-43.66,17.99-52.71,19.63c-9.05,1.64-19.98-4.73-21.04-16.17-1.49-16.07,21.59-53.42,33.62-69.39,5.52-7.32,15.12-14.82,10.22,7.01-2.73,12.17-12.07,42.52-12.07,42.52,0,0,15.91-8.34,19.2-9.75Z"/>
          <path class="cls-15" d="M310.64,157.65c-2.49,.34-13.01,4.95-18.14,7.63-5.11,2.68-9.99,5.77-14.51,9.36-2.56,2.03-4.97,4.21-7.34,6.46-.08,.08,.02,.21,.11,.14,4.4-3.7,9.16-7.06,13.99-10.17,4.81-3.1,9.71-6.07,14.87-8.55,2.94-1.42,8-3.59,10.9-4.59,.82-.28,.19-.27,.11-.26Z"/>
          <path class="cls-15" d="M297.7,139.21c-.59,1.14-1.19,2.28-1.68,3.48-.02,.06-.04,.11-.07,.17,.66-2.68,1.27-5.36,1.84-8.06,.04-.17-.24-.23-.29-.07-3.07,9.96-9.45,31.2-10.11,34.03-.02,.1,.14,.13,.17,.04,.86-2.46,6.66-19.13,7.78-23.55,.39-.79,.79-1.58,1.16-2.38,.54-1.17,.96-2.38,1.39-3.59,.05-.13-.14-.19-.2-.08Z"/>
          <path class="cls-15" d="M305.73,161.35s-.08,0-.06,.04c.85,1.85,9.54,15.92,15.73,23.36,.05,.06,.17,0,.13-.08-.95-1.78-14.47-21.67-15.8-23.31Z"/>
          <path class="cls-15" d="M325.23,178.8c1.56,2.11,3.07,4.24,4.61,6.36-4.99,2.26-10.01,4.46-15.08,6.54-9.94,4.18-20.12,7.84-30.41,11.06-5.07,1.74-10.61,3.34-15.87,1.33,5.33,1.63,10.62-.13,15.64-2.01,5.06-1.87,10.21-3.47,15.23-5.39,8.78-3.25,21.27-8.29,30.08-11.82,0,0-.09,.31-.09,.31-1.37-2.13-2.76-4.25-4.12-6.39h0Z"/>
        </g>
      </g>
      <g>
        <path class="cls-7" d="M317.11,155.17c-8.12,2.6-17.41,6.63-21.56,8.55-.11,.05-.21,.09-.31,.13-3.66,1.69-5.6,3.17-6.15,3.3-.05-.02-.54-.52-1.63-.9-1.06-.37-11.3-.98-11.23-4.14,.06-3.12,4.21-3.17,4.82-3.17-.67-.11-6.25-1.07-4.62-3.93,1.15-2.03,6.62-2.06,7.17-2.07-.57-.15-5.72-1.5-4.15-4.41,1.13-2.08,7.23-2.18,7.94-2.1-.58-.18-5.14-.67-3.17-3.22,1.36-1.77,12.93-.73,18.17,1.51,7.8,3.33,14.71,10.45,14.71,10.45Z"/>
        <g>
          <path class="cls-15" d="M295.55,163.72c-.11,.05-.21,.09-.31,.13-1.84-1.26-8.71-4.4-13.98-4.76-.33-.02-.36-.21-.01-.21,6.48-.09,12.51,3.37,14.3,4.84Z"/>
          <path class="cls-15" d="M283.87,153.14c7.31,1.01,10.66,2.41,17.11,5.99,.09,.05,.18-.08,.09-.14-6.04-3.99-9.77-5.92-17.15-6.03-.33,0-.38,.14-.05,.19Z"/>
          <path class="cls-15" d="M287.63,146.57c7.04,1.43,10.78,2.81,16.63,7,.14,.1,.29-.07,.16-.18-5.56-4.79-10.22-6.54-16.74-7.01-.44-.03-.5,.1-.05,.19Z"/>
        </g>
      </g>
      <g>
        <g>
          <g>
            <path class="cls-7" d="M315,121.67c-4.18,.79-11.87-6.42-14.44-11.67-.17-.36,.53-4.04,1.18-8.54,.38-2.74,.75-5.79,.87-8.6l17.44,5.1s-2,5.81-2.2,10.72c-.01,.41,.01,.79,.07,1.16,0,.05,.02,.12,.02,.19,.26,2.21,1.09,10.88-2.95,11.65Z"/>
            <path class="cls-15" d="M317.93,109.83s.01,.11,.02,.18c-.55,.06-1.16,.06-1.81,.02-10.2-.7-12.02-13.3-12.33-16.84l4.36,1.27,11.9,3.48s-2.01,5.82-2.19,10.72c-.02,.41,0,.79,.06,1.16Z"/>
          </g>
          <g>
            <path class="cls-7" d="M299.14,74.25c-1.3,6.56,3.93,24.59,8.86,28.22,7.16,5.27,17.95,4.75,22.2-3.64,4.12-8.14-3.1-31.51-8.53-34.72-8-4.73-20.61,.46-22.53,10.14Z"/>
            <g>
              <g>
                <path class="cls-15" d="M315.72,84.21s-.08,.08-.06,.13c.38,1.2,.62,2.65-.36,3.37-.03,.02,0,.08,.03,.06,1.29-.57,.95-2.49,.4-3.57Z"/>
                <path class="cls-15" d="M314.27,83.25c-2,.41-1.04,4.37,.82,4,1.82-.37,.86-4.34-.82-4Z"/>
              </g>
              <g>
                <path class="cls-15" d="M323.01,82.43s.11,.03,.12,.09c.26,1.24,.76,2.61,1.97,2.75,.04,0,.05,.07,0,.07-1.4,.14-2.06-1.69-2.1-2.91Z"/>
                <path class="cls-15" d="M323.8,80.88c1.94-.63,3.06,3.3,1.26,3.88-1.77,.57-2.88-3.35-1.26-3.88Z"/>
              </g>
              <path class="cls-15" d="M311.93,81.36c.57-.09,1.08-.26,1.63-.4,.62-.16,1.13-.22,1.58-.73,.24-.27,.2-.8-.04-1.05-.56-.6-1.37-.59-2.13-.43-.82,.18-1.41,.52-1.93,1.18-.51,.63,.14,1.54,.89,1.43Z"/>
              <path class="cls-15" d="M325.27,79.4c-.47,.33-.95,.56-1.45,.84-.56,.32-.97,.62-1.64,.57-.36-.03-.7-.43-.7-.79-.01-.82,.58-1.37,1.24-1.78,.72-.44,1.38-.6,2.21-.49,.81,.11,.97,1.21,.35,1.65Z"/>
              <path class="cls-15" d="M317.28,95.82c.36,.22,.75,.54,1.21,.47,.44-.07,.89-.38,1.25-.63,.04-.02,.08,0,.07,.05-.2,.55-.8,1.01-1.4,1.05-.58,.04-.97-.38-1.23-.85-.04-.07,.05-.12,.1-.08Z"/>
              <path class="cls-15" d="M317.68,91.82c.95,.9,2.1,1.24,3.24,1.18,.51-.02,1.03-.13,1.52-.3,.1-.03,.19-.06,.28-.1,.09-.03,.17-.06,.26-.11,.14-.06,.19-.19,.18-.33h0c-.01-.05-.02-.09-.04-.13h0s-.03-.12-.03-.12c-.2-.95-.64-2.37-.64-2.37,.39,.09,2.34,.45,2.19-.03-1.24-4.03-2.61-8.52-4.69-12.27-.06-.13-.26-.05-.22,.09,1.04,3.92,2.75,7.64,3.86,11.56-.61-.08-1.63-.25-2.12-.12-.12,.07,.9,2.72,.96,3.16,0,0,0,.02,0,.05-1.54,.59-2.85,.4-4.66-.29-.11-.05-.19,.06-.09,.14Z"/>
            </g>
            <path class="cls-15" d="M301.34,90.29c2.84,.19,3.88-2.41,4.22-4.23,.34-1.82-2.35-11.93-1.56-14.72,.79-2.79,3.3-4.76,5.65-4.56,2.35,.2,5.81,2.52,7.42,2.03s1.27-4.11,2.41-4.34c2.5-.52,6.42,5.12,7.44,7.77,0,0-2.35-11.78-14.57-10.38-11.92,1.36-14.03,10.17-14.33,13.91-.56,7.16,3.32,14.52,3.32,14.52Z"/>
            <g>
              <path class="cls-7" d="M305.55,88.49s-4.67-5.6-7.24-3.88c-2.57,1.71,1.29,10.07,4.56,10.98,3.27,.91,4.17-2.1,4.17-2.1l-1.49-5Z"/>
              <path class="cls-15" d="M299.48,86.97c-.05,0-.06,.07,0,.09,2.3,.71,3.64,2.67,4.64,4.74-.73-.77-1.67-1.14-2.7-.26-.05,.05,0,.13,.07,.11,.89-.27,1.56-.17,2.24,.51,.48,.48,.83,1.11,1.19,1.68,.12,.19,.47,.05,.38-.17,0-.02-.01-.03-.02-.05-.18-2.84-2.72-6.62-5.79-6.64Z"/>
            </g>
          </g>
        </g>
        <g>
          <path class="cls-3" d="M318.03,109.92l-1.75,9.84-15.53-12.97-3.52,5.2s15.21,19.5,15.18,18.54l4.17-9.74,6.03,5.75-1.86-13.28-2.72-3.32Z"/>
          <path class="cls-15" d="M321.87,118.71c-.48-2.58-.37-2.79-.97-5.34-.02-.09-.17-.11-.18,0-.22,2.57,1.14,10.01,1.42,12.39,0,0-.02-.02-.03-.02-.29-.24-5.49-5.05-5.53-4.96-.76,1.54-4.08,8.7-4.22,9.32-2.41-3.1-11.55-14.32-14.31-17.19-.08-.08-.21,0-.14,.11,2.19,3.31,14.33,18.44,14.48,18.38,.12,.07,3.74-8.56,4.31-10.28,1.07,1.03,6.39,6.51,6.37,6.12-.18-2.62-.71-5.95-1.19-8.52Z"/>
        </g>
      </g>
    </g>
  </g>
  <g>
    <g>
      <g>
        <path class="cls-6" d="M82.1,284.83s-25.59-3.58-19.61-34.48c0,0,28.59,6.42,19.61,34.48Z"/>
        <path class="cls-17" d="M82.1,284.83s-25.59-3.58-19.61-34.48c0,0,28.59,6.42,19.61,34.48Z"/>
        <path class="cls-15" d="M80.8,278.38c-.5-1.56-1.09-3.1-1.74-4.6-.02-.2-.05-.39-.07-.58-.04-.42-.07-.85-.11-1.28-.07-.92-.13-1.84-.18-2.77-.11-1.84-.23-3.69-.25-5.54,0-.1-.16-.1-.16,0-.02,1.85-.04,3.7,.03,5.55,.04,.92,.09,1.85,.15,2.77,.01,.2,.03,.41,.04,.61-1.43-3.08-3.16-6.02-5.13-8.77-.88-1.23-1.8-2.41-2.8-3.55-1.02-1.17-2.1-2.28-3.13-3.43-.07-.07-.18,.04-.11,.11,1.88,1.96,3.44,4.29,4.93,6.56,.78,1.18,1.51,2.39,2.21,3.61-.08-.03-.16-.06-.24-.09-.3-.13-.61-.25-.91-.37-.7-.27-1.39-.53-2.09-.79-1.37-.51-2.75-1.01-4.12-1.53-.08-.03-.14,.11-.06,.14,1.36,.54,2.71,1.12,4.05,1.7,.66,.29,1.32,.57,1.98,.85,.33,.14,.67,.28,1,.41,.22,.09,.44,.2,.68,.24,.52,.93,1.03,1.86,1.5,2.8,1.18,2.39,2.24,4.86,3.13,7.37,.06,.18,.12,.35,.18,.53-.63-.43-1.44-.71-2.1-1.01-.88-.41-1.77-.8-2.65-1.21-1.79-.82-3.58-1.66-5.3-2.63-.09-.05-.16,.09-.08,.14,1.76,.96,3.48,1.98,5.24,2.94,.88,.48,1.77,.94,2.67,1.38,.74,.36,1.57,.86,2.4,.96,.8,2.36,1.47,4.75,1.68,7.26,.29,3.49,.25,7.02,.33,10.52,0,.06,.09,.06,.09,0,.25-3.18,.4-6.38,.41-9.57,.01-3.03-.59-5.85-1.51-8.73Z"/>
        <path class="cls-15" d="M76.86,260.22c-.2,1.8-.38,3.64-.26,5.45,0,.05,.08,.05,.08,0,.1-1.81,.12-3.61,.33-5.41,.01-.1-.14-.14-.15-.04Z"/>
        <path class="cls-15" d="M69.55,261.76c-1.13-.48-2.26-.93-3.29-1.62-.08-.06-.16,.08-.08,.14,1.03,.64,2.14,1.27,3.32,1.59,.06,.02,.1-.08,.04-.11Z"/>
      </g>
      <path class="cls-15" d="M82.91,333.88c-.02-2.83-.07-5.66-.11-8.48-.05-9.39-.13-18.78-.3-28.17-.13-7.46-.31-14.91-.52-22.36,0-.04-.03-.07-.06-.1-.01-2.04-.02-4.07-.03-6.11,0-.05-.06-.08-.12-.08-.06,0-.12,.03-.12,.08-.01,2.04-.03,4.08-.04,6.12-.03,.02-.06,.05-.06,.09-.38,13.27-.71,26.54-.79,39.81-.02,2.7-.01,5.4-.03,8.1-.09,8.65-.13,17.31-.1,25.96,0,1.38-.03,2.76-.03,4.13-.03,7.92,.08,15.83,.08,23.75,0,.43,.47,.64,.98,.66,.57,.02,1.19-.21,1.19-.69,0-8.73,.06-17.46,.06-26.19,.03-5.5,.05-11.01,0-16.51Z"/>
      <g>
        <path class="cls-6" d="M72.23,325.29s-12.31-9.12-23.99-2.96c-11.68,6.16-13.51,29.92-13.51,29.92,0,0,17.15,2.45,27.96-7.83,10.41-9.91,9.55-19.13,9.55-19.13Z"/>
        <path class="cls-17" d="M72.23,325.29s-12.31-9.12-23.99-2.96c-11.68,6.16-13.51,29.92-13.51,29.92,0,0,17.15,2.45,27.96-7.83,10.41-9.91,9.55-19.13,9.55-19.13Z"/>
        <path class="cls-15" d="M75.58,325.85c-2.23-.94-4.71-1.17-7.13-.93-.49-.11-1.01-.11-1.51-.15-.58-.04-1.16-.08-1.73-.13-1.2-.09-2.39-.16-3.59-.25-2.43-.18-4.86-.33-7.29-.57-.09,0-.1,.14-.02,.15,2.4,.31,4.79,.65,7.19,.89,1.24,.12,2.47,.25,3.71,.34,.29,.02,.59,.05,.9,.09-.37,.08-.73,.17-1.09,.27-1.93,.55-3.79,1.33-5.58,2.27-.97,.17-1.93,.45-2.88,.67-1.52,.36-3.04,.75-4.55,1.15-2.99,.78-5.95,1.66-8.91,2.53-.1,.03-.05,.17,.05,.15,2.96-.73,5.94-1.39,8.91-2.1,1.44-.34,2.89-.68,4.33-1.04,.37-.09,.75-.18,1.13-.26-3.31,2.04-6.3,4.66-8.75,7.61-2.45,2.94-4.4,6.16-6.08,9.59-.04,.09,.08,.17,.13,.08,1.99-3.49,4.49-6.77,7.36-9.66-.05,.16-.11,.33-.16,.49-.23,.72-.46,1.45-.68,2.17-.46,1.45-.92,2.9-1.35,4.35-.03,.1,.12,.13,.15,.04,.52-1.4,1.01-2.82,1.51-4.23,.24-.69,.49-1.39,.73-2.08,.13-.36,.25-.72,.37-1.08,.04-.11,.08-.22,.12-.33,1.38-1.34,2.84-2.59,4.37-3.72,2.02-1.49,4.22-2.75,6.53-3.75-.04,.21-.08,.43-.12,.63-.12,.56-.25,1.12-.36,1.68-.24,1.17-.47,2.33-.69,3.5-.46,2.38-.75,4.79-1.2,7.18-.02,.1,.13,.14,.15,.04,.55-2.4,1.26-4.75,1.8-7.15,.27-1.2,.54-2.4,.79-3.61,.12-.56,.23-1.13,.34-1.69,.06-.31,.14-.63,.17-.94,.22-.09,.44-.19,.67-.28,3.23-1.2,6.8-2.06,10.24-1.4,3.29,.63,6.12,2.84,7.41,5.94,.11,.27,.53,.1,.47-.17-.67-2.96-3.14-5.15-5.84-6.29Z"/>
        <path class="cls-15" d="M56.74,335.99c-.35,1.56-.69,3.12-1.04,4.68-.33,1.49-.74,3.03-.86,4.55,0,.06,.08,.06,.1,.01,.5-1.47,.75-3.07,1.05-4.58,.3-1.54,.61-3.08,.9-4.62,.02-.1-.13-.14-.15-.04Z"/>
        <path class="cls-15" d="M44.83,339.96c-1.57,.79-3.09,1.7-4.72,2.35-.1,.04-.04,.19,.06,.14,1.58-.79,3.21-1.48,4.7-2.43,.04-.02,0-.08-.04-.06Z"/>
      </g>
      <g>
        <path class="cls-17" d="M74.99,308.54s-15.04,.96-22.04-8.96c-7-9.92-5.43-24.09-5.43-24.09,0,0,15.8,1.92,22.08,9.04,6.28,7.12,5.39,24,5.39,24Z"/>
        <path class="cls-15" d="M82.06,323.38c-.52-1.61-1.17-3.2-1.77-4.78-.58-1.52-1.21-3.02-1.87-4.51-1.35-3.03-2.84-5.99-4.51-8.86-1.06-1.83-2.2-3.6-3.37-5.35-.02-.27-.08-.53-.12-.8-.07-.47-.14-.93-.21-1.4-.15-.95-.32-1.9-.47-2.85-.35-2.08-.77-4.14-1.11-6.22-.02-.1-.17-.1-.16,0,.3,2.05,.51,4.12,.8,6.17,.14,1.01,.27,2.02,.43,3.03,.06,.36,.11,.73,.17,1.09-2.3-3.35-4.77-6.57-7.44-9.65-.36-.42-.73-.82-1.1-1.23-.04-.11-.09-.23-.14-.34-.11-.29-.22-.57-.33-.86-.22-.6-.44-1.2-.65-1.79-.42-1.18-.8-2.37-1.12-3.58-.03-.1-.17-.05-.15,.05,.3,1.23,.62,2.47,.99,3.69,.17,.59,.37,1.17,.58,1.75,.03,.1,.07,.19,.11,.29-1.92-2.1-3.93-4.12-5.95-6.11-.07-.07-.18,.04-.11,.11,3.93,4.03,7.41,8.47,10.66,13.06-.37-.12-.74-.21-1.11-.28-1.16-.22-2.33-.39-3.5-.54-2.45-.31-4.9-.62-7.34-1.01-.1-.02-.14,.13-.04,.15,2.33,.46,4.64,.98,6.96,1.52,1.09,.25,2.19,.46,3.29,.68,.92,.18,1.77,.46,2.64,.75,.24,.35,.49,.69,.74,1.04,1.1,1.61,2.16,3.25,3.2,4.9-.51-.1-1.02-.2-1.54-.3-1.16-.23-2.33-.44-3.5-.63-2.29-.38-4.59-.78-6.86-1.29-.1-.02-.14,.13-.04,.15,2.3,.54,4.58,1.17,6.86,1.78,1.1,.29,2.21,.56,3.32,.81,.56,.12,1.11,.25,1.67,.36,.24,.05,.46,.11,.68,.12,2.2,3.56,4.26,7.21,6.17,10.93,.84,1.64,1.65,3.29,2.43,4.95,.8,1.71,1.49,3.45,2.23,5.19,.15,.35,.7,.2,.58-.17Z"/>
        <path class="cls-15" d="M66.66,288.81c-.29-1.44-.59-2.87-.91-4.29-.02-.1-.17-.05-.15,.05,.29,1.41,.56,2.82,.81,4.24,.25,1.4,.46,2.84,.85,4.22,0,.02,.05,.02,.05,0-.08-1.41-.38-2.82-.65-4.2Z"/>
        <path class="cls-15" d="M57.88,288.39c-.7-.35-1.44-.63-2.16-.91-.38-.15-.76-.3-1.14-.45-.19-.08-.39-.15-.58-.23-.21-.08-.46-.15-.64-.28-.11-.09-.19,.11-.07,.13,.22,.04,.44,.17,.64,.26,.19,.09,.38,.17,.57,.25,.37,.16,.73,.33,1.1,.49,.73,.32,1.46,.64,2.22,.88,.09,.03,.14-.11,.06-.15Z"/>
      </g>
      <g>
        <path class="cls-17" d="M90.39,296.71s9.11-17.01,22.96-19.64c13.85-2.63,22.33,11.62,22.33,11.62,0,0-10.1,12.9-22.81,15.15-12.71,2.25-22.47-7.13-22.47-7.13Z"/>
        <path class="cls-15" d="M122.63,284.69c-3.59-.49-7.26-.43-10.86,.13,.21-.11,.41-.23,.62-.33,1.03-.52,2.05-1.05,3.07-1.58,2.13-1.11,4.28-2.28,6.5-3.18,.1-.04,.04-.19-.06-.14-2.17,1.01-4.41,1.85-6.59,2.85-1.09,.5-2.16,1.02-3.21,1.58-.68,.36-1.44,.7-2.11,1.14-3.04,.62-6.01,1.59-8.8,2.92,.58-.63,1.16-1.26,1.73-1.89,1.29-1.41,2.56-2.9,3.98-4.18,.07-.07-.04-.18-.11-.11-1.45,1.32-2.98,2.53-4.39,3.9-.68,.66-1.33,1.35-1.97,2.06-.32,.35-.63,.72-.94,1.1-6.02,3.27-11.15,8.22-14.53,14.19-1.92,3.4-3.26,7.07-4.04,10.89-.02,.1,.12,.15,.15,.05,1.9-6.42,5.49-12.45,10.18-17.23,5.09-5.18,11.52-8.93,18.56-10.74,4.18-1.07,8.5-1.45,12.81-1.16,.18,.01,.19-.25,.02-.27Z"/>
        <path class="cls-1" d="M135.68,288.69s-10.11,12.9-22.82,15.15c-9.7,1.72-17.67-3.34-20.91-5.83l-.7-1.15s6.56-5.53,18.96-8.72c12.4-3.19,25.47,.54,25.47,.54Z"/>
        <path class="cls-15" d="M114.59,278.63c-1.05,.64-2.1,1.28-3.08,2.03-.96,.74-1.86,1.54-2.67,2.44-.07,.08,.04,.18,.12,.11,.92-.8,1.84-1.6,2.8-2.35,.94-.74,1.89-1.48,2.91-2.1,.09-.05,0-.19-.08-.13Z"/>
        <path class="cls-15" d="M122.19,281.51c-.51,.21-1.04,.4-1.55,.61-.51,.21-1.03,.43-1.54,.64-.11,.05-.06,.22,.05,.18,.52-.21,1.03-.42,1.55-.63,.52-.21,1.02-.45,1.54-.66,.09-.04,.05-.19-.05-.15Z"/>
      </g>
      <g>
        <path class="cls-6" d="M88.58,318.11s2.43,16.87,15.12,22.77c12.69,5.9,28.15,0,28.15,0,0,0-6.08-36.5-43.27-22.77Z"/>
        <path class="cls-17" d="M88.58,318.11s2.43,16.87,15.12,22.77c12.69,5.9,28.15,0,28.15,0,0,0-6.08-36.5-43.27-22.77Z"/>
        <path class="cls-15" d="M123.11,329.91c-1.17-.13-2.33-.33-3.49-.54-.57-.1-1.14-.21-1.7-.32-.29-.06-.59-.13-.89-.18-.34-.32-.68-.64-1.03-.95-2.4-2.12-5.01-3.99-7.76-5.62-1.5-.89-3.05-1.68-4.65-2.39,.08,0,.16,0,.24,.01,1.39,.06,2.78,.12,4.18,.18,2.79,.13,5.57,.19,8.35,.37,.1,0,.1-.15,0-.16-2.79-.19-5.57-.5-8.36-.74-1.35-.12-2.7-.24-4.06-.36-.7-.06-1.39-.12-2.09-.18-.18-.02-.36-.04-.54-.06-.72-.27-1.45-.53-2.19-.75-3.47-1.08-7.19-1.5-10.75-.59-3.19,.82-6.38,2.91-7.2,6.27-.03,.12,.15,.2,.2,.08,1.19-2.81,4.31-4.23,7.13-4.81,1.89-.39,3.83-.37,5.74-.11,.08,.86,.4,1.75,.64,2.55,.35,1.19,.7,2.38,1.06,3.56,.72,2.37,1.51,4.72,2.21,7.09,.03,.1,.17,.05,.15-.05-.59-2.37-1.09-4.76-1.66-7.13-.28-1.16-.57-2.33-.86-3.49-.18-.75-.34-1.63-.64-2.4,1.12,.2,2.22,.46,3.29,.78,1.95,.57,3.87,1.28,5.75,2.11,.19,1.2,.45,2.4,.73,3.58,.35,1.49,.73,2.97,1.2,4.42,.03,.09,.16,.05,.14-.04-.02-.09-.04-.18-.06-.28,0,0,0,0,0,0-.28-1.38-.59-2.75-.88-4.13-.23-1.11-.45-2.23-.69-3.34,1.58,.71,3.13,1.48,4.62,2.34,.03,.34,.11,.7,.16,1.01,.09,.58,.2,1.15,.3,1.73,.24,1.3,.5,2.6,.81,3.88,.6,2.48,1.27,4.95,2.18,7.34-.02,.03-.03,.07,0,.1,.02,.03,.05,.06,.07,.08,.05,.06,.14-.01,.13-.08-.59-2.5-1.26-4.98-1.81-7.49-.27-1.25-.55-2.51-.8-3.76-.13-.63-.24-1.26-.36-1.89-.03-.18-.06-.37-.09-.56,1.71,1.01,3.37,2.11,4.94,3.29,2.71,2.04,5.3,4.38,7.56,6.9,.09,.1,.27-.04,.19-.15-.97-1.27-1.93-2.51-3.02-3.69-.64-.68-1.3-1.34-1.98-1.99,.07,.01,.14,.03,.21,.04,.59,.1,1.19,.19,1.79,.27,1.17,.16,2.35,.27,3.53,.41,.1,.01,.14-.14,.04-.15Z"/>
        <path class="cls-15" d="M114.19,335.63h0s0,0,0,0c-.02-.15-.04-.29-.07-.44-.04-.19-.13-.37-.15-.55,0,0,0,0,0,0-.26-1.13-.48-2.26-.69-3.4-.01-.08-.14-.06-.14,.02,.05,1.51,.43,3,.96,4.4,.02,.04,.1,.04,.09-.01,0,0,0,0,0-.01Z"/>
        <path class="cls-15" d="M103.57,335.36s-.04-.07-.08-.07c-.36-1.49-.7-2.99-1.01-4.49-.16-.79-.33-1.58-.48-2.37-.08-.43-.16-.85-.24-1.28-.07-.37-.1-.76-.27-1.1-.03-.06-.13-.04-.14,.02-.11,.71,.19,1.57,.32,2.26,.16,.82,.32,1.65,.5,2.46,.37,1.66,.79,3.32,1.25,4.96,.03,.09,.18,.07,.17-.03,0-.12-.02-.24-.03-.37Z"/>
        <path class="cls-15" d="M121.95,325.05c-2.32-.32-4.63-.65-6.95-.93-.1-.01-.14,.14-.04,.15,2.31,.34,4.64,.63,6.95,.93,.1,.01,.14-.14,.04-.15Z"/>
      </g>
      <g>
        <path class="cls-17" d="M82.08,278.55s-7.76-34.06,28.83-47.84c0,0,10.14,44.83-28.83,47.84Z"/>
        <path class="cls-15" d="M89.98,259.23c.14-.09,.27-.17,.39-.24,.69-.38,1.38-.77,2.07-1.16l4.24-2.37c2.79-1.56,5.55-3.19,8.36-4.72,.09-.05,0-.18-.08-.13-2.82,1.53-5.68,2.97-8.52,4.46l-4.19,2.22c-.57,.3-1.14,.6-1.71,.91,1.22-2.31,2.52-4.58,3.96-6.77,1.91-2.92,4.01-5.7,6.19-8.41,.1-.12-.06-.28-.18-.17-3.23,3.09-6.02,6.62-8.46,10.37,0-.12,0-.24,.01-.35,.04-.85,.06-1.69,.08-2.54,.02-1.66-.06-3.33,0-4.99,0-.1-.15-.1-.16,0-.07,1.64-.27,3.27-.36,4.9-.05,.82-.08,1.63-.11,2.45-.01,.44-.05,.94-.04,1.43-.75,1.2-1.48,2.42-2.16,3.65-1.22,2.2-2.31,4.5-3.27,6.86-.04-.85-.09-1.7-.14-2.54-.11-1.86-.34-3.72-.42-5.59,0-.1-.16-.1-.16,0,.04,1.87-.05,3.73,0,5.6,.03,.93,.06,1.86,.12,2.79,.02,.34,.04,.69,.06,1.04-1.17,3.06-2.1,6.2-2.76,9.36-.71,3.41-1,6.83-1.36,10.28,0,.02,.04,.02,.04,0,.32-3.08,1.1-6.19,1.94-9.17,.45-1.61,.93-3.21,1.45-4.79,1.52-.72,2.98-1.61,4.45-2.43,1.53-.85,3.06-1.67,4.59-2.51,3.05-1.67,6.1-3.38,9.25-4.86,.09-.04,0-.17-.08-.13-3.19,1.44-6.41,2.82-9.54,4.39-1.56,.78-3.09,1.62-4.61,2.48-1.27,.72-2.58,1.43-3.79,2.26,.36-1.06,.72-2.12,1.13-3.16,1.11-2.86,2.36-5.67,3.76-8.41Z"/>
        <path class="cls-15" d="M86.89,251.45c0-.1-.16-.1-.16,0,.13,1.94,.2,3.88,.4,5.82,.01,.11,.18,.11,.17,0-.07-1.95-.28-3.88-.42-5.82Z"/>
        <path class="cls-15" d="M104.43,257.95c-2.29,.92-4.6,1.8-6.88,2.75-.06,.03-.04,.13,.03,.1,2.31-.87,4.59-1.81,6.89-2.71,.09-.04,.05-.19-.05-.15Z"/>
        <path class="cls-15" d="M107.91,242.24c-2.24,1.04-4.41,2.19-6.51,3.49-.11,.07,0,.23,.1,.17,2.12-1.24,4.28-2.43,6.49-3.52,.09-.05,0-.17-.08-.13Z"/>
      </g>
    </g>
    <g>
      <rect class="cls-13" x="55.24" y="358.3" width="51.66" height="54.45"/>
      <rect class="cls-15" x="51.68" y="377.57" width="2.64" height="103.26"/>
      <rect class="cls-15" x="107.53" y="377.57" width="2.64" height="103.26"/>
      <rect class="cls-15" x="81.01" y="377.57" width="2.64" height="103.26"/>
      <rect class="cls-15" x="53" y="409.26" width="55.84" height="7.54"/>
    </g>
  </g>
</svg>