<?xml version="1.0" encoding="UTF-8"?>
<svg id="Layer_1" data-name="Layer 1" xmlns="http://www.w3.org/2000/svg" viewBox="0 0 500 500">
  <defs>
    <style>
      .cls-1 {
        fill: #ebebeb;
      }

      .cls-2 {
        fill: #eb996e;
      }

      .cls-3 {
        fill: #f5f5f5;
      }

      .cls-4 {
        fill: #fff;
      }

      .cls-5 {
        fill: #ffbe9d;
      }

      .cls-6 {
        fill: #937263;
      }

      .cls-7 {
        fill: #e0e0e0;
      }

      .cls-8 {
        fill: #455a64;
      }

      .cls-9 {
        fill: #263238;
      }

      .cls-10 {
        fill: #5cbb61;
      }

      .cls-11 {
        fill: #5e483f;
      }

      .cls-12 {
        opacity: .3;
      }
    </style>
  </defs>
  <g id="freepik--background-complete--inject-6">
    <path class="cls-3" d="M129.93,158.98l-9.88-16.05c11.93-21.12,4.48-47.92-16.64-59.86-21.12-11.93-47.92-4.48-59.86,16.64-11.93,21.12-4.48,47.92,16.64,59.86,15.91,8.99,35.73,7.19,49.76-4.52h0l19.98,3.93Z"/>
    <path class="cls-9" d="M103.26,137.85c-.26,.02-.51,.02-.77,0l-2.2,.05-8.1,.08-26.69,.12h-2.18v-.25c0-10,0-18.93,.07-25.44,0-3.2,.06-5.79,.08-7.65v-2.07c-.03-.24-.03-.48,0-.72,.01,.24,.01,.48,0,.72v2.07c0,1.86,0,4.45,.08,7.65,0,6.51,0,15.46,.08,25.44l-.25-.25h2.12l26.71,.07,8.1,.08h2.2c.25,0,.5,.04,.75,.1Z"/>
    <path class="cls-7" d="M65.5,138.35h-2.18c-.06,0-.12-.03-.17-.07-.05-.05-.08-.11-.08-.18l.08-25.69,.13-9.72c0-.84,0-1,.3-1s.27,.13,.3,1l.06,4.21,.06,5.52,.08,24.94h1.42l26.71,.07,10.31,.13c.89,0,1,0,1,.3s-.12,.27-1,.3l-2.2,.05-8.1,.08-26.72,.06Zm-1.4-.5h0Zm-.5-.64v.14h0v-.14Z"/>
    <path class="cls-9" d="M98.85,110.68c-.37,.4-.76,.78-1.18,1.13l-3.35,2.94c-2.85,2.46-6.8,5.85-11.18,9.56l-.66,.56-.17,.14-.17-.15-5-4.62h.36l-7.3,6-2.12,1.69c-.24,.22-.51,.41-.79,.57,.21-.25,.45-.48,.7-.68l2-1.8,7.18-6.16,.16-.13,.15,.14,5,4.59h-.33l.66-.56c4.39-3.71,8.37-7.05,11.28-9.44l3.41-2.8c.42-.37,.87-.69,1.35-.98Z"/>
    <path class="cls-7" d="M67.25,128.8c-.06,0-.11,0-.17-.11s-.08-.31,.72-1l2-1.8,7.34-6.29c.1-.08,.24-.08,.34,0l4.85,4.45,.32-.28c4.25-3.59,8.25-7,11.28-9.45l3.45-2.82c1.44-1.15,1.47-1.16,1.66-1h0c.19,.22,.16,.24-1.21,1.47l-3.35,3c-3,2.56-6.93,6-11.18,9.56l-.83,.7c-.09,.08-.24,.08-.33,0l-4.83-4.48-9.09,7.45c-.58,.41-.82,.6-.97,.6Zm15.44-4.45h0l.28-.24,2.16-1.84-2.16,1.83-.28,.25Zm-.92-.18l.18,.17h0l-.18-.17Z"/>
    <path class="cls-9" d="M98.85,118.99c-.14-.82-.2-1.65-.17-2.48-.05-1.53-.08-3.66-.08-6l.25,.25h-.43c-2.47,0-4.7,0-6.32-.07-.87,.01-1.74-.06-2.6-.21,.87-.14,1.74-.2,2.62-.18,1.62,0,3.85-.07,6.32-.07h.68v.25c0,2.37,0,4.5-.08,6,.02,.84-.04,1.68-.19,2.51Z"/>
    <path class="cls-7" d="M98.85,119.24c-.28,0-.34,0-.42-2.72-.05-1.48-.07-3.43-.08-5.54-2.36,0-4.58,0-6.26-.07-2.86-.08-2.86-.14-2.86-.43s0-.35,2.86-.43c1.7,0,4-.07,6.33-.07h.68c.07,0,.13,.03,.18,.07,.05,.05,.07,.11,.07,.18v.25c0,2.3,0,4.44-.08,6-.07,2.76-.13,2.76-.42,2.76Zm0-8.26h0Zm-1.62-.5h0Z"/>
    <path class="cls-1" d="M252.18,91.72l54.78-8.37c4.62,30.26-16.16,58.54-46.42,63.17-30.26,4.62-58.54-16.16-63.17-46.42-4.62-30.26,16.16-58.54,46.42-63.17,4.79-.73,9.65-.83,14.47-.3l-6.08,55.09Z"/>
    <path class="cls-7" d="M269.95,36.81l-6.65,42.47,41.69-7.83s-6.13-23.8-35.04-34.64Z"/>
    <path class="cls-3" d="M378.35,115.83c-.26-21.25,16.75-38.69,38-38.95,21.25-.26,38.69,16.75,38.95,38,.26,21.2-16.67,38.61-37.86,38.95-21.27,.27-38.76-16.73-39.09-38Zm56.87-.92c-.21-10.16-8.62-18.22-18.78-18.01-10.16,.21-18.22,8.62-18.01,18.78,.21,10.13,8.57,18.18,18.69,18.02,10.18-.2,18.27-8.6,18.1-18.78Z"/>
    <path class="cls-7" d="M378.35,115.83c-.37-21.29,16.56-38.86,37.85-39.28l.3,20.17c-10.22,.16-18.37,8.58-18.2,18.79,.16,10.22,8.58,18.37,18.79,18.21h0l.32,20.17c-21.29,.26-38.76-16.77-39.06-38.06Z"/>
    <path class="cls-1" d="M412.75,73.45c24.82-.4,44.62,18.86,45,43.8l-23.49,.38c-.19-11.93-9.26-19.43-21.13-19.24l-.38-24.94Z"/>
  </g>
  <g id="freepik--Chart--inject-6">
    <rect class="cls-1" x="37.14" y="322.25" width="26.56" height="61.22"/>
    <rect class="cls-3" x="75.41" y="266.53" width="26.56" height="116.94"/>
    <rect class="cls-1" x="210.05" y="269.88" width="26.56" height="113.59"/>
    <rect class="cls-3" x="249.84" y="228.43" width="26.56" height="153.83"/>
    <rect class="cls-3" x="392.73" y="227.21" width="26.56" height="156.25"/>
    <rect class="cls-1" x="442.72" y="251.15" width="26.56" height="132.31"/>
    <path class="cls-9" d="M472.97,262.97s-.24-.4-.68-1.21-1.06-2-1.94-3.6c-1.77-3.12-4.43-7.71-8.34-13.3-1.95-2.79-4.26-5.81-6.95-9-2.9-3.44-6.04-6.67-9.4-9.66-3.83-3.47-8.02-6.53-12.48-9.14-1.19-.68-2.4-1.36-3.67-2s-2.58-1.2-3.9-1.77c-2.75-1.12-5.59-2.01-8.49-2.65-3.04-.65-6.14-1.01-9.25-1.08-3.25-.02-6.49,.32-9.66,1-3.31,.71-6.53,1.8-9.58,3.26-3.1,1.48-6.13,3.32-9.33,5-6.51,3.58-13.39,6.45-20.51,8.58-7.63,2.05-15.52,2.95-23.41,2.65-1,0-2-.08-3-.12-1.02-.02-2.04-.1-3.06-.23-.51-.07-1-.1-1.53-.2l-1.52-.31c-1-.18-2-.52-3-.8-3.99-1.29-7.86-2.89-11.6-4.79l-11.44-5.74c-3.87-1.98-7.92-3.59-12.09-4.81-8.46-2.12-17.41-3.59-26.4-2.64-4.53,.48-8.95,1.71-13.07,3.64-4.12,2.03-7.89,4.69-11.17,7.9-6.7,6.44-11.74,14.23-16.75,21.75s-9.82,15.1-15,22.2c-5,7.05-10.67,13.59-16.93,19.55-3.07,2.85-6.35,5.47-9.81,7.83-3.4,2.29-6.98,4.29-10.71,6-3.63,1.68-7.42,2.99-11.31,3.91-1.91,.51-3.86,.78-5.78,1.1-1.92,.22-3.85,.34-5.78,.36-7.48,.05-14.87-1.71-21.52-5.13-6.47-3.15-12.3-6.93-18.27-9.86-23.68-12.25-52.74-5.79-69,15.35-3.22,4.13-5.84,8.69-7.8,13.55l-.84,2.22c-.23,.64-.39,1.19-.53,1.62l-.44,1.33s.12-.46,.39-1.34c.13-.44,.28-1,.5-1.64s.51-1.39,.82-2.23c5.01-12.74,14.49-23.21,26.66-29.47,9.94-4.91,21.11-6.77,32.1-5.36,6.37,.8,12.56,2.7,18.28,5.61,6,2.93,11.83,6.71,18.28,9.83,6.6,3.38,13.91,5.12,21.32,5.06,1.91-.02,3.83-.14,5.73-.36,1.91-.32,3.83-.59,5.73-1.09,3.86-.92,7.62-2.23,11.22-3.9,3.7-1.71,7.25-3.72,10.63-6,3.44-2.35,6.7-4.95,9.75-7.79,6.23-5.94,11.88-12.47,16.86-19.49,5.16-7.09,10-14.61,15-22.18s10.04-15.33,16.8-21.81c3.33-3.25,7.17-5.95,11.35-8,4.18-1.93,8.65-3.15,13.23-3.6,9.1-1,18.09,.52,26.59,2.66,4.19,1.23,8.26,2.85,12.15,4.85l11.43,5.74c3.71,1.89,7.57,3.49,11.53,4.78,1,.27,2,.61,3,.78l1.5,.31c.5,.1,1,.13,1.5,.2,1,.14,2,.18,3,.23s2,.13,3,.12c7.85,.31,15.69-.56,23.28-2.59,7.1-2.11,13.95-4.97,20.44-8.52,3.19-1.64,6.21-3.46,9.35-5,6.07-2.87,12.72-4.32,19.43-4.26,3.13,.07,6.26,.44,9.32,1.1,2.92,.65,5.77,1.55,8.54,2.68,1.33,.59,2.67,1.13,3.92,1.79s2.49,1.3,3.69,2c4.48,2.63,8.67,5.71,12.51,9.2,3.35,3.02,6.49,6.26,9.39,9.72,2.69,3.17,5,6.2,6.92,9,2.99,4.31,5.75,8.77,8.27,13.36,.86,1.58,1.47,2.81,1.9,3.62l.63,1.23Z"/>
    <circle class="cls-10" cx="262.09" cy="210.01" r="6.83"/>
    <path class="cls-10" d="M262.09,222.67c-6.85,0-12.41-5.56-12.41-12.41,0-6.85,5.56-12.41,12.41-12.41,6.85,0,12.41,5.56,12.41,12.41h0c-.01,6.86-5.56,12.4-12.41,12.41Zm0-23.81c-6.3,0-11.41,5.11-11.41,11.41,0,6.3,5.11,11.41,11.41,11.41,6.3,0,11.41-5.11,11.41-11.41,0-6.3-5.11-11.4-11.41-11.41Z"/>
    <polygon class="cls-1" points="265.37 186.45 265.01 172.46 268.5 172.52 261.98 164.55 255.46 172.59 259.07 172.61 259.43 186.41 265.37 186.45"/>
    <path class="cls-7" d="M252.18,193.94v2.57h-2.3v-2.46c-2.03-.07-4.01-.7-5.7-1.83l1.26-2.8c1.31,.92,2.84,1.48,4.44,1.63v-3.83c-2.54-.62-5.38-1.47-5.38-4.74,0-2.43,1.76-4.52,5.38-4.93v-2.55h2.3v2.5c1.64,.1,3.23,.57,4.65,1.4l-1.15,2.82c-1.08-.62-2.27-1.03-3.5-1.19v3.89c2.54,.6,5.34,1.45,5.34,4.68-.02,2.34-1.75,4.41-5.34,4.84Zm-2.3-10.13v-3.25c-1.21,.27-1.69,.94-1.69,1.69s.69,1.24,1.69,1.56h0Zm4,5.52c0-.8-.67-1.23-1.65-1.58v3.17c1.09-.26,1.6-.87,1.6-1.59h.05Z"/>
    <path class="cls-10" d="M282.12,150.11c0,1.77-1.3,3.3-4.15,3.3-1.34,.02-2.66-.34-3.8-1.06l.91-1.77c.83,.59,1.82,.91,2.84,.9,1.15,0,1.86-.49,1.86-1.3s-.51-1.29-2.32-1.29h-2.55l.52-5.61h6.07v1.85h-4.16l-.16,1.89h.81c2.96,.03,4.13,1.33,4.13,3.09Z"/>
    <path class="cls-10" d="M283.06,148.26c0-3.29,1.82-5.15,4.27-5.15s4.27,1.86,4.27,5.15-1.81,5.15-4.27,5.15-4.27-1.86-4.27-5.15Zm6.22,0c0-2.26-.8-3.2-1.95-3.2s-1.93,.94-1.93,3.2,.79,3.2,1.93,3.2,1.95-.94,1.95-3.2Z"/>
    <path class="cls-10" d="M292.56,145.91c-.12-1.36,.88-2.57,2.25-2.69s2.57,.88,2.69,2.25c.01,.15,.01,.3,0,.44,.16,1.35-.8,2.57-2.15,2.73-.1,.01-.2,.02-.31,.02-1.37,0-2.49-1.1-2.49-2.47,0-.1,0-.19,.01-.28Zm3.52,0c0-1.07-.42-1.58-1-1.58s-1,.53-1,1.58,.43,1.58,1,1.58,1-.51,1-1.58Zm4.89-2.63h1.7l-6.81,10h-1.69l6.8-10Zm-1.63,7.33c.15-1.36,1.37-2.34,2.74-2.2,1.36,.15,2.34,1.37,2.2,2.74-.14,1.26-1.2,2.21-2.47,2.21-1.37,0-2.48-1.12-2.47-2.49,0-.09,0-.18,.01-.26Zm3.5,0c0-1.05-.41-1.58-1-1.58s-1,.51-1,1.58,.43,1.58,1,1.58,1-.53,1-1.58Z"/>
    <circle class="cls-10" cx="51.15" cy="294.28" r="6.83"/>
    <path class="cls-10" d="M51.15,306.94c-6.85,0-12.41-5.56-12.41-12.41s5.56-12.41,12.41-12.41,12.41,5.56,12.41,12.41h0c0,6.85-5.56,12.4-12.41,12.41Zm0-23.81c-6.3,0-11.41,5.11-11.41,11.41s5.11,11.41,11.41,11.41,11.41-5.11,11.41-11.41c0,0,0,0,0-.01-.01-6.3-5.11-11.39-11.41-11.4h0Z"/>
    <polygon class="cls-1" points="47.75 254.55 48.12 268.53 44.63 268.47 51.15 276.44 57.67 268.4 54.05 268.38 53.69 254.58 47.75 254.55"/>
    <path class="cls-7" d="M39.7,279.97v2.57h-2.29v-2.49c-2.03-.06-4.01-.7-5.7-1.83l1.26-2.8c1.31,.92,2.84,1.48,4.44,1.63v-3.83c-2.54-.61-5.38-1.46-5.38-4.74,0-2.43,1.76-4.52,5.38-4.93v-2.5h2.29v2.5c1.64,.09,3.24,.56,4.66,1.39l-1.15,2.82c-1.08-.62-2.27-1.03-3.51-1.19v3.9c2.55,.59,5.34,1.44,5.34,4.67,0,2.34-1.74,4.4-5.34,4.83Zm-2.29-10.13v-3.25c-1.21,.27-1.69,.94-1.69,1.7s.68,1.23,1.69,1.55Zm3.94,5.53c0-.8-.66-1.24-1.65-1.58v3.16c1.15-.25,1.65-.85,1.65-1.58Z"/>
    <path class="cls-7" d="M441.65,205.82v2.57h-2.29v-2.5c-2.04-.06-4.02-.7-5.71-1.84l1.26-2.79c1.32,.92,2.85,1.48,4.45,1.63v-3.84c-2.54-.62-5.39-1.47-5.39-4.75,0-2.42,1.77-4.51,5.39-4.92v-2.55h2.29v2.5c1.64,.09,3.23,.57,4.65,1.4l-1.14,2.82c-1.08-.63-2.27-1.04-3.51-1.19v3.89c2.54,.6,5.34,1.45,5.34,4.68,0,2.39-1.74,4.45-5.34,4.89Zm-2.29-10.13v-3.25c-1.22,.27-1.7,.93-1.7,1.69s.69,1.24,1.7,1.56Zm3.94,5.52c0-.8-.66-1.23-1.65-1.58v3.16c1.15-.25,1.65-.84,1.65-1.58Z"/>
    <path class="cls-1" d="M455.87,207.9c2.13-.94,3.5-3.06,3.48-5.39,.2-3.02-2.09-5.63-5.11-5.83s-5.63,2.09-5.83,5.11c-.01,.22-.02,.44,0,.66-.05,2.35,1.32,4.5,3.48,5.45-8.42,1.27-8,10.42-8,10.42l19.92,.1s.41-9.26-7.94-10.52Z"/>
    <path class="cls-10" d="M293.81,121.31c-.59,0-1.1-.42-1.22-1l-2.81-11.84h-7.83l-2.71,11.29c-.17,.67-.84,1.09-1.52,.93-.67-.16-1.09-.83-.93-1.5,0,0,0-.01,0-.02l2.71-11.12c.06-1.08,.92-1.94,2-2h8.7c1.08,.06,1.94,.92,2,2l2.79,11.74c.16,.68-.25,1.36-.93,1.52h0c-.08,0-.17,0-.25,0Z"/>
    <rect class="cls-10" x="282.02" y="106.13" width="7.63" height="13.92"/>
    <path class="cls-10" d="M283.55,136.6c-.84,0-1.51-.68-1.51-1.52v-16.45c-.1-.83,.5-1.58,1.33-1.67s1.58,.5,1.67,1.33c.01,.12,.01,.23,0,.35v16.42c.02,.83-.64,1.53-1.47,1.55,0,0-.01,0-.02,0Z"/>
    <path class="cls-10" d="M288.12,136.6c-.84,0-1.51-.68-1.51-1.52v-16.45c.14-.83,.92-1.39,1.75-1.25,.64,.11,1.15,.61,1.25,1.25v16.42c.02,.84-.65,1.53-1.49,1.55,0,0,0,0,0,0Z"/>
    <path class="cls-10" d="M289.5,101.51c0,2.04-1.65,3.69-3.69,3.69-2.04,0-3.69-1.65-3.69-3.69s1.65-3.69,3.69-3.69,3.69,1.65,3.69,3.69h0Z"/>
    <polygon class="cls-10" points="279.25 124.21 282.15 113.09 289.53 113.09 292.36 124.21 279.25 124.21"/>
    <path class="cls-8" d="M219.25,164.18c0,1.49-1.1,2.8-3.51,2.8-1.15,.02-2.28-.31-3.24-.93l.78-1.49c.7,.5,1.54,.77,2.4,.76,1,0,1.57-.41,1.57-1.1s-.43-1.1-2-1.1h-2.16l.44-4.75h5.14v1.57h-3.52l-.13,1.6h.69c2.55,.02,3.54,1.14,3.54,2.64Z"/>
    <path class="cls-8" d="M220.05,162.61c0-2.78,1.54-4.36,3.61-4.36s3.62,1.58,3.62,4.36-1.53,4.37-3.62,4.37-3.61-1.58-3.61-4.37Zm5.26,0c0-1.91-.67-2.71-1.65-2.71s-1.64,.8-1.64,2.71,.68,2.71,1.64,2.71,1.65-.79,1.65-2.71Z"/>
    <path class="cls-8" d="M228.09,160.62c.13-1.15,1.16-1.98,2.32-1.86s1.98,1.16,1.86,2.32c-.12,1.06-1.01,1.87-2.08,1.87-1.15,0-2.1-.92-2.1-2.08,0-.08,0-.17,.01-.25Zm3,0c0-.9-.35-1.33-.88-1.33s-.88,.44-.88,1.33,.37,1.34,.88,1.34,.85-.43,.85-1.34h.03Zm4.15-2.23h1.44l-5.77,8.44h-1.41l5.74-8.44Zm-1.39,6.21c.12-1.16,1.16-2,2.32-1.88,1.16,.12,2,1.16,1.88,2.32-.11,1.08-1.02,1.89-2.11,1.89-1.16,.02-2.11-.91-2.13-2.07,0-.09,0-.18,.01-.26h.03Zm3,0c0-.89-.35-1.34-.88-1.34s-.88,.44-.88,1.34,.36,1.34,.88,1.34,.82-.45,.82-1.34h.06Z"/>
    <path class="cls-8" d="M227.56,140.16c-.68,0-1.23-.55-1.23-1.23v-11.28h-9.09v11.28c0,.68-.55,1.23-1.23,1.23s-1.23-.55-1.23-1.23v-11.59c-.01-1.18,.93-2.14,2.11-2.15h9.79c1.17,.02,2.12,.98,2.11,2.15v11.59c0,.68-.55,1.23-1.23,1.23Z"/>
    <rect class="cls-8" x="218.06" y="125.33" width="7.46" height="13.6"/>
    <path class="cls-8" d="M219.56,152.42c-.76,.06-1.42-.5-1.48-1.26v-13.83c.12-.81,.87-1.38,1.69-1.26,.66,.09,1.17,.61,1.26,1.26v13.83c-.06,.75-.72,1.31-1.47,1.26Z"/>
    <path class="cls-8" d="M224.02,152.42c-.75,.05-1.41-.51-1.47-1.26v-13.83c.12-.81,.87-1.38,1.69-1.26,.66,.09,1.17,.61,1.26,1.26v13.83c-.06,.76-.72,1.32-1.48,1.26Z"/>
    <path class="cls-8" d="M225.39,120.81c0,1.99-1.61,3.6-3.6,3.6s-3.6-1.61-3.6-3.6,1.61-3.6,3.6-3.6,3.6,1.61,3.6,3.6h0Z"/>
    <path class="cls-10" d="M460.64,233.99c0,3.77-3.06,6.83-6.83,6.83s-6.83-3.06-6.83-6.83,3.06-6.83,6.83-6.83h0c3.77,0,6.83,3.06,6.83,6.83Z"/>
    <path class="cls-10" d="M453.81,246.65c-6.85,0-12.41-5.56-12.41-12.41,0-6.85,5.56-12.41,12.41-12.41,6.85,0,12.41,5.56,12.41,12.41h0c-.01,6.86-5.56,12.4-12.41,12.41Zm0-23.81c-6.3,0-11.41,5.11-11.41,11.41s5.11,11.41,11.41,11.41c6.3,0,11.41-5.11,11.41-11.41,0-6.3-5.11-11.4-11.41-11.41h0Z"/>
  </g>
  <g id="freepik--character-2--inject-6">
    <path class="cls-9" d="M297.82,415.7h0s-.63,34.83-.63,47.75h109.88v-36.74l-3.48-9.66-1.25-7.84-104.52,6.49Z"/>
    <path class="cls-8" d="M326.79,462.05c-.38-3.07-.58-6.15-.61-9.24-.2-3.09-.23-6.18-.09-9.27,.38,3.07,.58,6.16,.61,9.25,.2,3.08,.23,6.17,.09,9.26Z"/>
    <path class="cls-8" d="M330.55,427.89s.2-.15,.64-.21c.63-.08,1.26,.03,1.83,.31,.89,.41,1.52,1.24,1.67,2.21,.17,1.2-.4,2.38-1.44,3-1.12,.55-2.47,.28-3.3-.65-.36-.4-.56-.91-.56-1.45,0-.46,.13-.9,.39-1.28,.34-.55,.89-.94,1.53-1.07,.45-.06,.69,.05,.68,.07s-.25,0-.63,.13c-.54,.18-.99,.56-1.27,1.06-.43,.71-.34,1.61,.22,2.22,.69,.73,1.78,.94,2.69,.51,1.21-.74,1.59-2.32,.85-3.53-.24-.4-.59-.72-1-.94-.72-.34-1.51-.47-2.3-.38Z"/>
    <path class="cls-8" d="M391.05,430.25c-.75-.32-1.47-.74-2.12-1.23-1.26-.83-3-2.05-4.76-3.49s-3.35-2.85-4.43-3.9c-.63-.53-1.18-1.13-1.66-1.8,.68,.45,1.32,.96,1.91,1.53,1.14,1,2.72,2.33,4.5,3.76s3.45,2.69,4.65,3.6c.68,.45,1.32,.96,1.91,1.53Z"/>
    <path class="cls-8" d="M402.32,441.69c-.15,.11-.31,.2-.48,.27l-1.44,.69-1,.49c-.38,.17-.82,.32-1.28,.49-.92,.33-2,.77-3.16,1.08l-1.88,.53c-.65,.18-1.35,.29-2.06,.45-1.42,.34-3,.51-4.6,.73-7.13,.74-14.33-.07-21.12-2.37-1.47-.5-2.92-1.07-4.33-1.72-.66-.3-1.32-.57-1.92-.88l-1.71-.93c-.98-.53-1.93-1.12-2.85-1.75-.41-.27-.8-.51-1.15-.75s-.63-.49-.91-.71l-1.25-1c-.28-.23-.42-.35-.41-.37,.17,.08,.32,.18,.47,.29l1.31,.91,.93,.66c.35,.23,.75,.46,1.17,.72,.84,.5,1.76,1.13,2.87,1.66l1.71,.9c.6,.3,1.25,.55,1.91,.85,1.31,.62,2.78,1.1,4.31,1.65,6.72,2.22,13.83,3.01,20.87,2.31,1.62-.2,3.16-.35,4.57-.67,.71-.15,1.4-.25,2.05-.42l1.87-.5c1.2-.28,2.23-.69,3.16-1,.46-.16,.9-.3,1.29-.45l1.06-.44,1.47-.6c.17-.06,.35-.1,.53-.12Z"/>
    <path class="cls-9" d="M317.63,181.49c-3.86,.2-7.16-2.76-7.36-6.62-.17-3.27,1.95-6.22,5.1-7.11-2.66-3.01-2.38-7.6,.63-10.26,1.72-1.53,4.07-2.14,6.32-1.67,.44-4.79,4.69-8.31,9.48-7.87,1.43,.13,2.81,.62,4,1.41,3.62-2.66,8.6-2.51,12.05,.37,3.84-.45,7.31,2.31,7.76,6.15,.26,2.23-.57,4.45-2.22,5.96"/>
    <path class="cls-6" d="M316.57,182.41c2.01-15.34,15.47-26.57,30.93-25.78l1.54,.08c16.5,1.78,24.2,16.8,21.95,33.24l-5.13,55-.28,2.67-38.56,5.76,.75-14s-15.83-3.33-15.27-19.24c.32-7.69,2.2-23.47,4.07-37.73Z"/>
    <path class="cls-11" d="M327.6,239.29c7.39,.37,14.72-1.38,21.14-5.06,0,0-5.47,11.2-21.27,9l.13-3.94Z"/>
    <path class="cls-9" d="M319.21,194.91c-.07,1.23,.85,2.29,2.07,2.4,1.19,.16,2.29-.69,2.44-1.88,0-.02,0-.03,0-.05,.07-1.23-.85-2.3-2.08-2.41-1.2-.15-2.29,.71-2.44,1.91,0,0,0,.02,0,.03Z"/>
    <path class="cls-9" d="M319.6,190.37c.27,.31,2-.88,4.5-.75s4.17,1.43,4.45,1.15c.14-.13-.12-.68-.88-1.28-1.02-.79-2.25-1.24-3.54-1.29-1.28-.06-2.54,.29-3.6,1-.78,.5-1.03,1.03-.93,1.17Z"/>
    <path class="cls-9" d="M342.29,197.11c-.08,1.23,.84,2.3,2.07,2.4,1.2,.15,2.3-.7,2.45-1.9,0-.01,0-.02,0-.03,.07-1.23-.85-2.3-2.08-2.4-1.19-.16-2.28,.68-2.43,1.87,0,.02,0,.04,0,.06Z"/>
    <path class="cls-9" d="M343.6,192.05c.27,.31,2.06-.87,4.5-.74s4.17,1.43,4.45,1.15c.14-.13-.12-.68-.87-1.28-1.02-.79-2.26-1.24-3.55-1.29-1.28-.05-2.54,.3-3.6,1-.77,.46-1.03,.99-.93,1.16Z"/>
    <path class="cls-9" d="M333.83,209.7c0-.14-1.49-.48-3.93-.91-.62-.1-1.21-.25-1.29-.68-.02-.65,.15-1.29,.51-1.83,.66-1.48,1.35-3,2.08-4.66,2.9-6.64,5-12.11,4.76-12.23s-2.83,5.18-5.73,11.81l-2,4.7c-.43,.73-.59,1.59-.44,2.43,.15,.48,.52,.85,1,1,.34,.12,.69,.18,1.05,.2,2.44,.22,3.98,.31,3.99,.17Z"/>
    <path class="cls-9" d="M340.94,211.75c-.39,0-.53,2.61-2.9,4.38s-5.17,1.34-5.21,1.71c0,.16,.61,.54,1.8,.63,1.55,.1,3.09-.35,4.34-1.27,1.2-.89,2.01-2.21,2.26-3.68,.16-1.11-.11-1.78-.29-1.77Z"/>
    <path class="cls-9" d="M343.5,182.41c.21,.67,2.66,.48,5.51,1s5.13,1.38,5.54,.8c.19-.27-.18-.92-1.09-1.61-2.45-1.73-5.56-2.23-8.42-1.35-1.12,.34-1.68,.8-1.54,1.16Z"/>
    <path class="cls-9" d="M320.85,183.34c.4,.57,2.12,.08,4.14,.15s3.72,.56,4.15,0c.18-.27-.06-.84-.78-1.4-1.99-1.39-4.63-1.45-6.68-.13-.74,.54-1,1.09-.83,1.38Z"/>
    <path class="cls-9" d="M318.5,175.2s4.69-9.76,9.61-11.84c5.95-2.53,8.14,4,13.76,2.71s11.3-3.7,16.75,.86c6,5,2.9,8.14,2.93,15.22,.13,28.69,4.95,37,7.11,23.64,.24-1.47,4.39-2.44,5.31-8.65,1.19-8.05,2-17.86,.47-23.69-1.28-4.91-3.88-8.39-8.64-12.32-7.52-6.21-18.24-6.87-25.56-6.49s-21.82,8.05-21.74,20.56Z"/>
    <path class="cls-6" d="M367.63,205.3c.19-2.38,2.28-4.15,4.66-3.95,.07,0,.14,.01,.21,.02,2.95,.43,6.17,2.28,5.67,8.4-.89,10.86-11.61,7.73-11.6,7.42s.65-7.35,1.06-11.89Z"/>
    <path class="cls-11" d="M369.26,213.29s.18,.15,.49,.32c.43,.23,.94,.28,1.41,.15,1.18-.33,2.3-2.07,2.51-4,.11-.93,0-1.87-.31-2.75-.15-.71-.63-1.29-1.3-1.57-.44-.14-.92,.04-1.16,.43-.17,.29-.12,.51-.18,.52s-.22-.2-.09-.64c.08-.26,.25-.49,.48-.64,.32-.2,.7-.27,1.07-.19,.89,.25,1.59,.95,1.84,1.84,.39,.98,.52,2.04,.4,3.08-.24,2.18-1.53,4.14-3.14,4.46-.6,.13-1.23-.03-1.7-.43-.32-.31-.36-.56-.32-.58Z"/>
    <path class="cls-9" d="M368.5,184.23c-1.39,1.01-3.01,1.66-4.71,1.89-1.71,.09-3.61-1-3.81-2.69-.09-.76,.14-1.63-.33-2.24s-1.67-.56-2.58-.51c-3.3,.09-6.22-2.13-7-5.34-.87,1.17-2.74,1-3.93,.18-1.08-.97-2.03-2.09-2.8-3.32-.9-1.14-2.19-2.18-3.64-2.05-.78,.23-1.58,.37-2.39,.41-1.42-.2-2-1.91-2.18-3.34s-.23-3.09-1.4-3.92-2.56-.43-3.89-.3-3-.26-3.27-1.57c-.08-.7,.13-1.4,.58-1.94,1.95-2.62,5.45-3.55,8.45-2.26,1.74-4.98,7.18-7.61,12.16-5.87,2.39,.84,4.36,2.59,5.46,4.87,4.17-3.38,10.28-2.74,13.66,1.43,.7,.87,1.25,1.85,1.62,2.9,3.78-.83,7.51,1.55,8.34,5.33,.4,1.81,.06,3.71-.93,5.27,1.9,1.22,3.48,3.24,3.41,5.5s-2.38,4.38-4.52,3.68c.83,1.99-.1,4.27-2.08,5.11-1.78,.75-3.83,.09-4.84-1.56"/>
    <path class="cls-8" d="M334.63,160.39c-.01,.07-.01,.13,0,.2v.59c.11,.74,.35,1.46,.69,2.13,.54,1.06,1.32,1.98,2.28,2.69,1.26,.96,2.8,1.48,4.39,1.49l-.17-.25c-.37,.97-.34,2.05,.07,3,.44,1,1.02,1.93,1.73,2.76,.33,.48,.72,.92,1.15,1.31,.51,.38,1.1,.64,1.73,.74,1.29,.25,2.62-.16,3.56-1.08l-.4-.14c.19,2.3,1.35,4.41,3.18,5.81,1,.82,2.23,1.29,3.52,1.35,1.21,0,2.41-.2,3.55-.6l-.28-.14c.5,1.35,1.33,2.54,2.41,3.49,1,.95,2.37,1.4,3.73,1.22,2.36-.39,4.27-2.14,4.85-4.46l-.25,.1c1.11,.67,2.42,.93,3.7,.73,.96-.11,1.87-.46,2.67-1,.5-.34,.93-.77,1.28-1.27,.12-.17,.23-.35,.3-.55-.45,.66-1.02,1.22-1.68,1.67-.78,.5-1.67,.82-2.6,.92-1.22,.16-2.45-.11-3.5-.75l-.19-.13-.06,.23c-.57,2.16-2.37,3.78-4.58,4.13-1.25,.15-2.49-.28-3.39-1.15-1.01-.9-1.79-2.03-2.26-3.3l-.07-.21-.21,.06c-1.09,.38-2.24,.57-3.4,.57-1.19-.05-2.33-.49-3.25-1.25-1.73-1.32-2.82-3.31-3-5.48l-.05-.52-.36,.38c-1.26,1.22-3.22,1.36-4.64,.33-.4-.37-.77-.78-1.09-1.23-.69-.8-1.26-1.69-1.69-2.65-.4-.86-.44-1.84-.1-2.73l.1-.25h-.28c-1.51,.01-2.99-.46-4.21-1.36-.94-.67-1.71-1.54-2.27-2.55-.47-.89-.78-1.85-.91-2.85Z"/>
    <path class="cls-7" d="M387.58,324.12l14.44,13.93-4.67-26.61,29.3-9.26s7.78,36.51,9.14,45.15c2.42,15.5-.56,37.53-15,39.08-15.62,1.67-27.42-13.74-34.93-23.85-5.77-7.77-15.08-21.36-15.08-21.36l16.8-17.06"/>
    <path class="cls-7" d="M275.96,300.46c-4.7,14.8-11.27,17-13.87,59.45-.51,8.27,5.7,18.87,13.09,22.61s20.28-.85,24.46-8l4.15-31.37-27.83-42.69Z"/>
    <path class="cls-9" d="M295.38,362.4c-.85-2.13-1.81-4.21-2.88-6.23-1.23-1.94-2.57-3.81-4-5.6,.57,.38,1.08,.84,1.51,1.37,2.23,2.43,3.91,5.32,4.92,8.47,.25,.64,.41,1.31,.45,1.99Z"/>
    <path class="cls-7" d="M268.88,317.52c.25-.87,14.71-40.23,19.32-48.85,5.52-10.31,17.12-14.86,24.32-15.31s84.28,5.69,84.28,5.69c0,0,21.59,5.42,25.95,25,5.48,24.49,9.89,48.65,9.89,48.65l-38.63,8.35-4.51-11.49-72.59,16.2-17.72-26.22-30.31-2.02Z"/>
    <path class="cls-7" d="M402.34,409.16l-1.84-65.61,1.43-82.25-30.14-13.25-3.38-13-35.14,16.61-7.36-8.13-3.08,9.16-7.7,2.52-15.15,29.84-.66,52.4s-3.67,61.76-1.5,78.21c0,0,5.68,9.42,23.14,9.84,35.4,.85,81.38-16.38,81.38-16.38"/>
    <path class="cls-4" d="M371.76,319.39c0,.14-1.78,0-4.62-.2l-11.07-.93-11.08-.82c-2.84-.22-4.59-.39-4.59-.53,1.53-.23,3.08-.29,4.62-.18,2.85,0,6.79,.19,11.13,.54s8.25,.8,11.07,1.21,4.55,.77,4.54,.91Z"/>
    <path class="cls-4" d="M371.27,324.78c0,.14-1.78,0-4.62-.2l-11.07-.92-11.08-.83c-2.84-.22-4.59-.38-4.59-.53,1.53-.23,3.08-.29,4.62-.18,2.85,0,6.79,.2,11.13,.54s8.25,.8,11.07,1.21c1.54,.13,3.07,.44,4.54,.91Z"/>
    <path class="cls-4" d="M370.78,330.17c0,.14-1.78,0-4.62-.2l-11.07-.92-11.08-.83c-2.84-.21-4.59-.38-4.59-.52s1.77-.22,4.62-.19,6.79,.2,11.13,.54,8.25,.8,11.07,1.22c1.54,.13,3.07,.43,4.54,.9Z"/>
    <path class="cls-4" d="M370.29,335.56c0,.14-1.78,0-4.62-.2l-11.07-.92-11.1-.83c-2.84-.21-4.59-.38-4.59-.52s1.77-.22,4.62-.18,6.79,.19,11.13,.53,8.25,.8,11.07,1.22c1.55,.12,3.08,.43,4.56,.9Z"/>
    <path class="cls-9" d="M320.93,427.22c-.04-.14-.06-.28-.06-.42,0-.34-.06-.75-.1-1.25-.06-1.19-.15-2.79-.27-4.82-.19-4.27-.45-10.3-.78-17.71-.56-15-1.27-35.65-1-58.52,.14-11.44,.52-22.35,1.62-32.23s2.83-18.63,4.36-26,3-13.21,4-17.28c.49-2,.89-3.52,1.17-4.67,.14-.49,.24-.88,.33-1.21,.03-.14,.08-.28,.15-.41,.01,.14,.01,.29,0,.43-.07,.34-.15,.74-.24,1.23-.25,1.16-.59,2.73-1,4.72-.88,4.09-2.2,10-3.67,17.33s-3.07,16.11-4.15,25.93-1.4,20.72-1.54,32.13c-.24,22.84,.37,43.52,.76,58.49,.2,7.42,.37,13.45,.48,17.72,.05,2,.08,3.64,.1,4.83v1.25c-.02,.16-.08,.32-.16,.46Z"/>
    <path class="cls-9" d="M343.58,298.55c.67-.02,1.34,0,2,.06l5.94,.36,21.67,1.48h.41v.41c-.75,9.93-1.64,21.81-2.61,34.65v.23l-.18,.13c-1,.74-2.11,1.48-3.24,2.21-1.96,1.29-4,2.47-6.09,3.53-2.04,1.13-4.29,1.86-6.61,2.13-2.28,.07-4.53-.46-6.55-1.52-1.89-.98-3.67-2.17-5.3-3.54-.79-.66-1.56-1.33-2.29-2-.41-.35-.75-.77-1-1.24-.25-.46-.45-.95-.58-1.46-.42-1.87-.6-3.79-.53-5.71,.1-3.39,.4-6.77,.91-10.12,.9-6.14,2-11,2.73-14.41,.38-1.69,.71-3,.94-3.87,.1-.46,.24-.9,.42-1.33-.04,.46-.11,.92-.22,1.37-.19,1-.45,2.29-.76,3.91-.65,3.39-1.6,8.31-2.4,14.43-.46,3.31-.73,6.65-.79,10-.05,1.84,.14,3.68,.55,5.47,.2,.89,.68,1.68,1.37,2.27,.72,.67,1.48,1.32,2.27,2,1.58,1.32,3.3,2.46,5.13,3.4,1.87,.98,3.96,1.47,6.07,1.4,2.18-.26,4.29-.94,6.22-2,2.06-1.05,4.07-2.21,6-3.48,1.11-.72,2.21-1.46,3.2-2.18l-.21,.37c1-12.83,2-24.71,2.79-34.63l.38,.44-21.4-1.88-6-.57-1.6-.18c-.22-.02-.43-.06-.64-.13Z"/>
    <path class="cls-7" d="M368.41,235.05s-3.93,1.14-14,6.52c-9.88,5.27-21.12,10.09-21.12,10.09l.86,15.87,37.35-18.77"/>
    <polyline class="cls-7" points="325.91 243.53 333.27 251.66 329.34 268.67 322.78 253.3"/>
    <path class="cls-9" d="M372.97,309.84c0,.28-7.05-.05-15.7-.72s-15.65-1.45-15.63-1.72,7.05,0,15.7,.72,15.65,1.45,15.63,1.72Z"/>
    <g class="cls-12">
      <path d="M340.14,335.36c1.69,2.79,3.27,6.61,5.58,8.91,2.25,2.41,5.29,3.92,8.56,4.27,2.89,.05,5.73-.79,8.12-2.42,3.93-2.46,6.35-6.33,8.1-10.62,.25-.32-5.62,3.6-8.81,5.3-2.71,1.61-5.87,2.29-9,1.93-4.72-.38-8.95-4.27-12.53-7.37"/>
    </g>
    <g class="cls-12">
      <path d="M333.14,253.42c-.33,.24-2.37,19.63-2.37,19.63l37.48-22.65-34.12,17.13-.99-14.11Z"/>
    </g>
    <path class="cls-10" d="M326.73,272.33c-6.22,26.92-10.41,54.28-12.54,81.83-1.44,19.12-2.52,44.46-2.52,44.46l8.53,10.56,13.07-11.57s-.56-53.82,.12-71.84c.56-14.83-1.78-52.66-1.78-52.66l-4.88-.78Z"/>
    <path class="cls-9" d="M392.99,296.26c.16,.5,.27,1.01,.35,1.53,.19,1.09,.45,2.51,.76,4.21,.63,3.65,1.46,8.52,2.39,13.9s1.75,10.36,2.28,13.93c.27,1.78,.47,3.23,.6,4.23,.09,.52,.14,1.04,.15,1.57-.16-.5-.28-1.02-.35-1.54-.2-1.08-.45-2.5-.76-4.2-.64-3.65-1.49-8.52-2.44-13.9s-1.7-10.36-2.23-13.93c-.25-1.72-.45-3.14-.6-4.23-.1-.52-.15-1.04-.15-1.57Z"/>
    <path class="cls-9" d="M404.13,263.6c.06,.07-1,.91-2.53,2.47-3.98,4.09-6.75,9.21-8,14.78-.46,2.13-.57,3.48-.66,3.48-.05-.33-.05-.67,0-1,.05-.87,.15-1.73,.31-2.59,.52-2.84,1.48-5.58,2.85-8.12,1.36-2.54,3.12-4.85,5.2-6.85,.63-.61,1.3-1.17,2-1.69,.25-.2,.53-.36,.83-.48Z"/>
    <polygon class="cls-10" points="333.39 259.25 330.04 257.94 326.87 263.39 326.3 272.33 330.77 273.05 334.13 267.53 333.39 259.25"/>
    <path class="cls-9" d="M297.19,285.85c.14,0,.26,22,.26,49.2s-.12,49.21-.26,49.21-.26-22-.26-49.21,.11-49.2,.26-49.2Z"/>
    <path class="cls-9" d="M333.63,251.52c.06,.05-.73,1.25-1.91,3.24-1.55,2.59-2.98,5.26-4.26,8l-.35,.76-.24,.51-.24-.5c-1.22-2.57-2.26-5.22-3.12-7.93-.33-1-.56-1.87-.7-2.45-.11-.29-.17-.61-.17-.92,.07,0,.47,1.24,1.2,3.26s1.82,4.8,3.26,7.81h-.47l.36-.77c1.29-2.76,2.76-5.44,4.41-8,.64-1,1.18-1.74,1.57-2.26,.18-.28,.41-.53,.66-.75Z"/>
    <path class="cls-9" d="M371.79,248.05c-.16,.12-.34,.23-.52,.31l-1.51,.79-5.59,2.9c-4.71,2.45-11.17,5.94-18.32,9.76-4.36,2.32-8.48,4.47-12.07,6.27l-.33,.17v-.37c0-4.66-.08-8.58-.11-11.42v-3.21c-.02-.38,0-.77,.05-1.15,.06,.38,.09,.76,.09,1.14,0,.81,.07,1.89,.12,3.22,.08,2.84,.18,6.76,.3,11.41l-.33-.2c3.57-1.83,7.68-4,12-6.32,7.15-3.82,13.64-7.26,18.4-9.63,2.38-1.19,4.32-2.12,5.67-2.75l1.56-.7c.19-.09,.39-.17,.59-.22Z"/>
    <path class="cls-9" d="M301.71,260.26c.07,0-.51,1-1.27,2.74-.98,2.21-1.7,4.52-2.15,6.9-.42,2.38-.57,4.8-.45,7.21,.11,1.85,.3,3,.22,3-.12-.25-.2-.52-.24-.79-.16-.73-.27-1.46-.34-2.2-.25-2.45-.15-4.91,.3-7.33,.44-2.43,1.23-4.79,2.33-7,.32-.67,.69-1.31,1.1-1.93,.29-.39,.47-.62,.5-.6Z"/>
    <path class="cls-9" d="M329.95,273.62c-.08,.13-.93-.27-1.9-.89s-1.7-1.21-1.62-1.33,.93,.28,1.9,.89,1.7,1.21,1.62,1.33Z"/>
    <path class="cls-9" d="M331.56,271.44c-.92-1.43-1.68-2.94-2.28-4.53-.76-1.51-1.36-3.1-1.79-4.73,.91,1.43,1.67,2.95,2.27,4.53,.76,1.51,1.36,3.1,1.8,4.73Z"/>
    <path class="cls-9" d="M425.36,361.65c-.06-.07-.11-.15-.14-.23-.09-.17-.2-.4-.35-.68s-.34-.68-.56-1.11-.59-.9-.95-1.43c-2.2-2.98-4.72-5.71-7.5-8.15-3.5-3.21-7.93-6.83-12.92-11-2.48-2.09-5.12-4.27-7.76-6.71-2.8-2.5-5.41-5.2-7.8-8.1h.38l-15.05,15.81c-.69,.72-1.38,1.43-2,2.1v-.33c5.69,8.32,10.87,16.37,16.31,23.12,2.56,3.2,5.29,6.26,8.19,9.15,2.47,2.57,5.15,4.94,8,7.09,5.2,3.93,10.42,5.61,14.05,5.52h1.29l1.11-.12,1-.1,.78-.18,1.06-.23,.36-.06c-.11,.05-.23,.09-.35,.11l-1.05,.28-.78,.2-1,.13-1.12,.14h-1.3c-3.67,.16-9-1.51-14.27-5.43-2.85-2.14-5.52-4.51-8-7.08-2.92-2.89-5.67-5.95-8.25-9.15-5.48-6.76-10.68-14.82-16.37-23.13l-.12-.17,.15-.15,2-2.1,15-15.71,.2-.21,.18,.23c2.37,2.88,4.95,5.58,7.72,8.08,2.63,2.43,5.26,4.63,7.73,6.72,5,4.15,9.38,7.81,12.85,11.06,2.78,2.47,5.28,5.25,7.43,8.29,.35,.54,.65,1,.92,1.45l.53,1.15,.31,.7c.03,.08,.06,.15,.09,.23Z"/>
    <g class="cls-12">
      <path d="M352.73,350.61c-.1-.85-.51-1.63-1.16-2.19-1.24-.81-2.8,.26-4.07,1-3.35,2-7.49,1.93-11.39,1.76-11.75-.39-23.47-1.5-35.08-3.33-5.67-.95-11.4-2.19-16.47-4.91s-9.5-7.09-11.13-12.61l-2.72-1.47c2.11,4.49,1.89,17.19,2.64,22.08s2.93,8.39,7.64,9.91c1.93,.5,3.94,.64,5.92,.42,19.33-1,38.83-.09,58.16-1,2.77-.14,6-.52,7.45-2.85,1.25-1.99,.75-4.55,.21-6.81Z"/>
    </g>
    <path class="cls-6" d="M364.93,306.73s-9.16-10.48-10.8-9.32-4,1.79-1.73,6,6.1,6.63,6.82,10.24-.09,12.31,3.94,15.26,9.64,10.61,9.64,10.61l14-14.6-5.54-4.17s3.35-8.36,3.32-12.73-3-9.83-3-9.83c-.36-2.17-1.41-4.17-3-5.7-.25-1.88-.62-3.74-1.11-5.57-.75-2.77-10.79-12.45-10.79-12.45-1.89,1.33-2.39,3.91-1.13,5.85,1.38,2.23,2.91,4.37,4.59,6.38l-9.17-1.1c-.64,2.58,.93,5.19,3.51,5.83,.12,.03,.24,.05,.36,.07,5.05,1.29,6.24,3.14,6.24,3.14l-6.25,2.07s.29,3.69,3,3.78l2.73,.08-5.63,6.16Z"/>
    <path class="cls-11" d="M367.31,300.46l6.06-.2h.13l.06,.07c1.2,1.38,2.03,3.04,2.4,4.83,.33,2.19-.11,4.43-1.24,6.34-1.33,1.93-2.94,3.64-4.79,5.07-1.45,1.17-2.67,2.61-3.59,4.23-.58,1.11-.86,2.35-.8,3.6,.06,.89,.28,1.35,.23,1.37s-.07-.11-.17-.33c-.13-.32-.22-.66-.26-1-.14-1.3,.09-2.61,.67-3.78,.9-1.69,2.12-3.2,3.6-4.42,1.79-1.43,3.36-3.12,4.66-5,1.07-1.81,1.49-3.92,1.21-6-.34-1.72-1.1-3.32-2.22-4.66l.16,.07c-3.78,.03-6.12-.05-6.11-.19Z"/>
    <path class="cls-11" d="M380.09,298.05c-.08,0-.34-.49-.93-1.2-.79-.91-1.84-1.55-3-1.86-1.17-.29-2.38-.41-3.58-.34-.51,.07-1.03,.07-1.54,0,.47-.22,.99-.35,1.51-.37,1.25-.18,2.53-.11,3.75,.21,.68,.19,1.33,.5,1.91,.91,.47,.34,.87,.76,1.2,1.23,.35,.4,.59,.89,.68,1.42Z"/>
    <path class="cls-11" d="M377.59,291.18c-.11,.11-1.47-1.26-3.49-2.44s-3.88-1.72-3.84-1.87c2.92,.4,5.56,1.95,7.33,4.31Z"/>
    <path class="cls-9" d="M265.63,305.05l12.05,45.52c.67,2.52,2.97,4.26,5.58,4.21l62.39-1.23c3.13-.06,5.61-2.64,5.55-5.77,0-.35-.05-.71-.12-1.05l-9.19-43.6c-.55-2.62-2.86-4.49-5.54-4.49h-65.78c-2.82,0-5.11,2.29-5.11,5.11,0,.44,.06,.87,.17,1.3Z"/>
    <path class="cls-6" d="M260.39,315.32c-1.31-1.66-1.31-3.99,0-5.65,1.32-1.59,3.28-2.52,5.35-2.53,2.06,0,4.1,.43,6,1.24,2.35,.9,4.61,2.03,6.75,3.37,1.51,.95,3.07,2.18,3.36,3.93s-1.61,3.76-3.16,2.88c2.2,.93,3.82,2.86,4.36,5.19,.33,2.23-.86,3.42-3,4.06,1.65,.69,2.46,2.56,1.85,4.24-.79,1.67-3.09,2.13-4.81,1.47-1.67-.81-3.11-2.02-4.2-3.52,1.23,2.13,1.66,4.63,1.2,7.05-4.83-1.73-8.3-6-9-11.08-2.36-1.87-3.08-5.14-1.74-7.84-1.91-.59-4.08-3.52-3.93-5.52"/>
    <path class="cls-11" d="M279.93,327.83c-.73-.47-1.41-.99-2.06-1.57-1.57-1.31-3.42-2.26-5.41-2.77-1.09-.24-2.21-.24-3.3,0-.88,.22-1.7,.63-2.4,1.21-.63,.57-1.16,1.25-1.57,2,.01-.24,.08-.48,.19-.69,.27-.59,.66-1.13,1.14-1.56,.72-.66,1.58-1.14,2.52-1.39,1.16-.3,2.37-.32,3.53-.05,2.07,.52,3.97,1.55,5.53,3,.69,.53,1.3,1.14,1.83,1.82Z"/>
    <path class="cls-11" d="M279.4,318.78c-.87-.24-1.7-.57-2.49-1-.86-.44-1.75-.82-2.66-1.16-1.11-.39-2.26-.69-3.42-.89-1.14-.21-2.32-.21-3.46,0-.93,.17-1.81,.55-2.57,1.11-.69,.55-1.26,1.23-1.68,2,0,0,0-.28,.2-.71,.29-.62,.72-1.16,1.25-1.59,.78-.64,1.71-1.08,2.7-1.29,1.21-.24,2.44-.24,3.65,0,1.19,.21,2.36,.53,3.5,.95,.91,.37,1.8,.79,2.65,1.28,.81,.37,1.59,.81,2.33,1.3Z"/>
    <g class="cls-12">
      <path d="M401.33,381.73c-.5-1.8,.15-1.81-1.28-3-5.28-4.61-10.12-9.7-14.45-15.21-4.44-5.56-11.37-16.84-11.37-16.84l-1.64-.5c1.42,8.13,5.51,15.5,9.54,22.71,2.05,4,4.52,7.77,7.37,11.25,3,3.37,6.86,6.14,11.28,7,.9-1.66,1.1-3.61,.55-5.41Z"/>
    </g>
  </g>
  <g id="freepik--character-1--inject-6">
    <path class="cls-9" d="M92.11,275.86c.05,.33,.08,.67,.07,1,0,.73,.02,1.69,.06,2.88v2.08c0,.75,.12,1.58,.18,2.47,.15,1.76,.23,3.78,.57,6,.15,1.11,.3,2.27,.46,3.48s.42,2.45,.64,3.74c.42,2.6,1.06,5.33,1.68,8.22,1.34,5.75,3,12,4.81,18.63s3.41,12.9,4.66,18.69c.57,2.92,1.17,5.67,1.52,8.29,.19,1.3,.41,2.56,.55,3.77s.24,2.39,.35,3.51c.27,2.22,.27,4.26,.34,6,0,.89,.07,1.72,.06,2.48s-.06,1.45-.09,2.09c-.06,1.19-.11,2.15-.15,2.88,0,.34-.04,.67-.1,1-.03-.33-.03-.67,0-1v-4.96c0-.76-.08-1.58-.12-2.47-.11-1.77-.14-3.79-.45-6-.12-1.11-.25-2.27-.39-3.48-.15-1.21-.39-2.45-.59-3.75-.37-2.6-1-5.34-1.57-8.24-1.29-5.76-2.92-12.06-4.71-18.65s-3.39-12.87-4.74-18.65c-.6-2.9-1.23-5.65-1.62-8.26-.21-1.3-.45-2.55-.61-3.76s-.28-2.38-.41-3.5c-.32-2.22-.36-4.25-.47-6,0-.89-.11-1.72-.12-2.48v-2.09c0-1.2,.05-2.15,.07-2.88,0-.35,.04-.7,.12-1.04Z"/>
    <path class="cls-5" d="M229.62,323.78l14.15-50.33,17.41,3.17s-4.17,4.75-4.17,9.12-2.9,45.56-2.9,45.56c0,0-17.31,5.08-24.31-6.64"/>
    <path class="cls-5" d="M243.77,273.45s-1.94-5.25-.41-9.79,6.76-8.06,6.43-10.79,2.45-9.26,5-8.75,4.34,3,2.23,7.18c-1.35,2.75-2.47,5.6-3.34,8.54,0,0,26-13.55,28.13-13.84s4.25-.59,4.8,1.11-4.64,3.86-4.64,3.86l-7,9.09c-1.16,3.47-2.79,6.76-4.85,9.78-3,4.06-8.91,6.78-8.91,6.78l-7.58,9.12s-11.53-3.92-9.86-12.29Z"/>
    <path class="cls-2" d="M281.5,251.33s-.23-.15-.64-.35c-.58-.26-1.23-.34-1.85-.22-2.07,.61-3.9,1.85-5.23,3.55-1.39,1.7-2.57,3.56-3.51,5.54-.35,.86-.81,1.66-1.36,2.41,.18-.91,.48-1.8,.9-2.63,.84-2.1,1.99-4.05,3.43-5.79,1.74-2,3.88-3.38,5.71-3.58,.72-.09,1.45,.08,2.05,.48,.4,.31,.5,.57,.5,.59Z"/>
    <path class="cls-2" d="M271.95,254.74c.1,.17-1.58,1.31-3.74,2.55s-4,2.11-4.1,1.94,1.57-1.32,3.74-2.56,4-2.11,4.1-1.93Z"/>
    <path class="cls-2" d="M258.17,260.58c-.09-.17,2-.86,4.37,0s3.63,2.59,3.46,2.67-1.49-1.28-3.69-2-4.11-.46-4.14-.67Z"/>
    <path class="cls-10" d="M203.84,326.69c-.13,.75,19.7,27.51,26.13,32.53,15.78,12.31,27.38-4.34,26.22-18.43s-42.15-80.31-42.15-80.31l-13.27,31.27,3.07,34.94Z"/>
    <polygon class="cls-9" points="100.06 253.39 136.12 244.92 139.52 239.17 175.69 239.75 184.09 248.74 208.19 260.58 187.96 345.51 120.08 349 100.06 253.39"/>
    <path class="cls-10" d="M141.32,238.05l-13.49,8.37-28.33,6.17,9,113.82s-26.58,51.73-30.64,96.64h71.54s6.77-57.13,6.06-80-.27-63-.27-63l-18.46-69,4.59-13Z"/>
    <path class="cls-10" d="M178.21,246.48l-2.52-7.77,9.42,9.48s5.58,1.94,6.78,2.38c9.37,3.5,22.15,9.91,22.15,9.91l-16,101.17s21.46,57.12,19.71,101.4c0,0-49,.81-68.35,0l5.23-145.25s17-20.07,19.83-40.27,3.75-31.05,3.75-31.05Z"/>
    <path class="cls-9" d="M153.76,333.8c-.23-.19-.44-.4-.63-.62l-1.71-1.85-6.31-7-21.31-24-.14-.15,.06-.19c1.08-3.91,2.22-8,3.39-12.21,.5-1.82,1-3.62,1.5-5.4l.34,.47-14.14-.54h-.48l.17-.45c3.83-10.33,7.12-19.17,9.47-25.51,1.17-3.08,2.11-5.54,2.79-7.31,.31-.8,.57-1.44,.76-1.94,.08-.23,.18-.45,.31-.66-.05,.24-.11,.47-.2,.7l-.66,2-2.59,7.38c-2.3,6.37-5.5,15.25-9.23,25.61l-.31-.47,14.14,.5h.47l-.13,.45c-.49,1.77-1,3.58-1.5,5.4-1.17,4.2-2.31,8.3-3.4,12.2l-.08-.33,21.16,24.17c2.57,3,4.65,5.41,6.14,7.13l1.62,1.94c.19,.21,.36,.44,.5,.68Z"/>
    <path class="cls-9" d="M149.5,463.05c-.2,0,.74-32.79,2.11-73.21s2.64-73.2,2.84-73.19-.74,32.78-2.1,73.21-2.64,73.19-2.85,73.19Z"/>
    <path class="cls-9" d="M185.02,247.81c.08,.27,.13,.54,.16,.81,.09,.6,.2,1.38,.34,2.36,.28,2.13,.67,5.1,1.16,8.78,.93,7.56,2.22,18,3.7,30l.06,.48-.48-.08-7.84-1.35,.41-.52,1.49,3.34,2.94,6.58,.09,.21-.15,.18-21.73,25.2-6.51,7.42c-.73,.82-1.32,1.48-1.78,2s-3.1,2.47-3.12,2.46,2.64-2.07,3-2.55l1.74-2.08,6.34-7.57,21.54-25.36-.06,.39-2.94-6.57-1.49-3.35-.29-.63,.69,.12,7.84,1.36-.43,.4c-1.38-12-2.58-22.48-3.45-30-.39-3.7-.71-6.68-.94-8.82-.09-1-.16-1.76-.22-2.36-.06-.28-.08-.56-.07-.85Z"/>
    <path class="cls-9" d="M145,416.8c-1.44-1.91-4.35-3.09-5.84-1.22h.05c-1.51,1.18-2.13,3.17-1.55,5,.92,2.27,3.51,3.36,5.77,2.44,.04-.01,.07-.03,.11-.05,2.07-1.13,2.83-3.71,1.7-5.78-.07-.13-.15-.26-.24-.39Z"/>
    <path class="cls-9" d="M147.23,378.33c-1.44-1.9-4.36-3.08-5.85-1.21h.06c-1.52,1.17-2.14,3.17-1.55,5,.92,2.26,3.49,3.35,5.76,2.44,.04-.02,.08-.03,.11-.05,2.07-1.13,2.84-3.72,1.71-5.79-.07-.13-.15-.26-.24-.39Z"/>
    <g class="cls-12">
      <path d="M114.82,281.97c.24,.77,5.32,1.55,6.21,3.69s.45,4.59-.18,6.83-1.45,4.48-1.29,6.8c.28,4.15,3.55,7.39,6.62,10.21,8.56,7.87,19,16.42,27.58,24.3-7.59-9.68-17.48-19.7-25.87-28.69-1.33-1.24-2.35-2.76-3-4.46-.66-2.19,0-4.53,.64-6.71l2.58-8.69c.22-.75,.7-2,.81-2.41-1.05-.22-2.11-.35-3.18-.39,0,0-7.55-.8-10.87-.48"/>
    </g>
    <path class="cls-9" d="M212.7,277.61c.01,.29-.02,.58-.08,.86-.1,.64-.23,1.45-.38,2.46-.38,2.22-.89,5.28-1.51,9-1.29,7.7-3,18.17-5,29.75s-3.79,22.12-5.2,29.71c-.71,3.8-1.3,6.86-1.74,9-.21,.99-.38,1.8-.51,2.43-.04,.29-.12,.57-.23,.84,0-.29,.03-.58,.09-.87,.1-.63,.22-1.45,.38-2.45,.37-2.22,.88-5.28,1.51-9l5-29.74c1.95-11.62,3.79-22.12,5.2-29.71,.71-3.8,1.3-6.87,1.73-9,.21-1,.38-1.8,.52-2.43,.04-.29,.12-.58,.22-.85Z"/>
    <path class="cls-10" d="M100,252.48c-5.32,1.8-9.9,5.31-13,10-6,8.86-16.36,94.81-16,100.77s5.6,21.08,19.5,19.09,50.88-27.82,50.88-27.82l-12.72-24.64-27,12.72,3.67-42.55-5.33-47.57Z"/>
    <g class="cls-12">
      <path d="M181.96,374.05c-.88-3.87-5.67-5.11-9.6-5.61l-64.1-8.18-5.56,18c.57,4.13,1.15,8.34,2.91,12.12s4.89,7.15,8.94,8.14c3.58,.87,7.32-.18,10.85-1.23l47.14-14c2.39-.55,4.66-1.54,6.68-2.93,1.92-1.39,3.28-3.89,2.74-6.31Z"/>
    </g>
    <g class="cls-12">
      <path d="M103.04,299.71c-.77-3-1.94-6.5-4.87-7.65-3.12-1.22-6.74,1.05-8.13,4.1s-1.09,6.58-.6,9.89c1.7,11.52,5.76,24.3,9.52,35.32l13.15-4.83c-1.74-12.2-6.04-24.88-9.07-36.83Z"/>
    </g>
    <path class="cls-10" d="M238.87,289.22l-12.94,39,16.8,12.2,13.54,5.44c0-.07,2.53-19.48,1.89-12.7l3-40.05-22.29-3.89Z"/>
    <path class="cls-9" d="M238.87,289.22c-.05,.58-.15,1.16-.31,1.73-.22,1.11-.6,2.7-1.11,4.65-1,3.92-2.72,9.24-4.8,15s-3.84,11.08-4.94,15c-.55,1.94-1,3.51-1.27,4.61-.12,.57-.29,1.14-.51,1.68,.06-.58,.17-1.16,.31-1.73,.23-1.11,.61-2.7,1.12-4.66,1-3.91,2.72-9.23,4.8-15s3.83-11.08,4.94-15c.55-1.94,1-3.52,1.27-4.61,.13-.57,.29-1.13,.5-1.67Z"/>
    <path class="cls-9" d="M234.65,347.96c-.62-.62-1.16-1.32-1.61-2.07-1.19-1.74-2.28-3.55-3.27-5.41-.98-1.86-1.87-3.77-2.65-5.73-.36-.8-.63-1.63-.81-2.49,.45,.75,.83,1.53,1.15,2.34,.67,1.46,1.62,3.47,2.77,5.64s2.28,4.08,3.12,5.45c.49,.72,.93,1.48,1.3,2.27Z"/>
    <path class="cls-9" d="M100,340.05c-1.4-.33-2.77-.78-4.09-1.34-1.38-.39-2.72-.91-4-1.54,1.45,.14,2.86,.49,4.2,1.05,1.38,.41,2.69,1.03,3.89,1.83Z"/>
    <path class="cls-9" d="M104.07,284.75c-.18-.26-.31-.55-.4-.86-.23-.57-.53-1.4-.86-2.45-1.71-5.46-2.58-11.15-2.58-16.87,0-1.09,0-2,.08-2.59,0-.32,.04-.63,.13-.94,.08,0,.07,1.35,.16,3.53,.21,5.67,1.07,11.3,2.57,16.77,.56,2.1,.98,3.39,.9,3.41Z"/>
    <g class="cls-12">
      <path d="M186.67,292.69l4.73,.32c-2.08-2.73-5.54-4.03-8.9-3.34,.11,2.85,3.08,5.07,2.9,7.92-.27,1.51-.99,2.91-2.07,4l-8.83,10.87,.62,5.44c3.61-5.15,7.25-10,10.86-15.1,1.21-1.5,2.09-3.23,2.59-5.09,.4-1.89-.22-4.1-1.9-5.02Z"/>
    </g>
    <g class="cls-12">
      <path d="M233.61,307.14l1.43-4.21c-2.41,7.23-10.59,12.78-13.28,19.91-2.22,6.15-1.08,13.01,3,18.11,.93,1.14,2.53,2.24,3.75,1.41,.94-.55,1.41-1.66,1.16-2.72-.38-1-3.19-6.83-3.69-7.75-.37-.7,.47-2.71,1.59-6.47,1.93-6.64,4.06-11.65,6.04-18.28Z"/>
    </g>
    <path class="cls-9" d="M129.5,192.8c-.3,12.99,4.99,25.49,14.51,34.33l6.49-18.79"/>
    <path class="cls-9" d="M178.36,155.43c-5.57-3-12.29-3.48-18.51-2.24s-12,4.07-17.51,7.24c-3.09,1.79-6.16,3.75-8.37,6.53-4.05,5.09-8,13.44-8.43,19.93-.32,5.24,1.69,18.37,3.91,23.13,2,4.37,11.55,7.7,16.25,8.78l43.12-50.14c-1.58-5.63-5.34-10.4-10.46-13.23Z"/>
    <path class="cls-9" d="M185.79,162.19l-10.29-1.85c5.65,13.46,7.18,44.23,10.41,58.46,3.81-5.53,12.66-22.37,12.19-29.06s-.03-28.69-12.31-27.55Z"/>
    <path class="cls-5" d="M191.7,184.13c-.67-10.33-7.54-23-17.83-21.87l-23.8,6.07c-7.52,1.92-12.9,8.51-13.28,16.26,0,.39-.07-.09-.06,.21l5.31,61.63,17.87,35.46h0l15.77-37.19v-9s13.19-2.22,15.88-19.44c1.35-8.56,.94-20.66,.14-32.13Z"/>
    <path class="cls-9" d="M187.55,197.13c.02,1.2-.93,2.19-2.13,2.23-1.17,.09-2.19-.78-2.28-1.95,0-.02,0-.03,0-.05-.02-1.2,.92-2.19,2.12-2.23,1.17-.1,2.19,.77,2.29,1.94,0,.02,0,.04,0,.06Z"/>
    <path class="cls-9" d="M189.12,190.87c-.27,.29-2-.94-4.32-.93s-4.12,1.2-4.38,.91c-.12-.13,.15-.65,.91-1.2,1.03-.71,2.25-1.09,3.5-1.09,1.23,0,2.44,.38,3.44,1.1,.73,.56,.98,1.08,.85,1.21Z"/>
    <path class="cls-9" d="M166.94,197.13c.02,1.2-.93,2.19-2.13,2.23-1.17,.09-2.19-.78-2.28-1.95,0-.02,0-.03,0-.05-.02-1.2,.92-2.19,2.12-2.23,1.17-.1,2.19,.77,2.29,1.94,0,.02,0,.04,0,.06Z"/>
    <path class="cls-9" d="M166.56,190.87c-.27,.29-1.95-.94-4.32-.93s-4.12,1.2-4.38,.91c-.12-.13,.15-.65,.91-1.2,1.03-.71,2.25-1.09,3.5-1.09,1.23,0,2.44,.38,3.44,1.1,.73,.56,.98,1.08,.85,1.21Z"/>
    <path class="cls-9" d="M173.99,209.53c0-.14,1.46-.4,3.85-.71,.61-.06,1.18-.18,1.28-.6,.06-.62-.08-1.25-.4-1.79-.58-1.47-1.18-3.01-1.81-4.62-2.5-6.57-4.32-12-4-12.07s2.51,5.15,5,11.72c.61,1.62,1.18,3.16,1.73,4.64,.38,.73,.5,1.57,.32,2.38-.18,.43-.55,.76-1,.89-.33,.09-.66,.13-1,.14-1.32,.18-2.65,.18-3.97,.02Z"/>
    <path class="cls-2" d="M152.86,229.58s5.6,11.82,22.82,10.17v-4c-8.03,.1-15.93-2.04-22.82-6.17Z"/>
    <path class="cls-9" d="M165.81,182.29c-.23,.64-2.6,.34-5.39,.69s-5,1.1-5.41,.52c-.16-.27,.23-.88,1.14-1.51,2.46-1.56,5.49-1.9,8.23-.93,1.02,.41,1.53,.92,1.43,1.23Z"/>
    <path class="cls-9" d="M188.34,183.61c-.41,.54-2.05,0-4,0s-3.63,.37-4-.2c-.16-.27,.1-.81,.82-1.32,2-1.25,4.55-1.18,6.48,.18,.66,.52,.86,1.07,.7,1.34Z"/>
    <path class="cls-9" d="M187.03,168.41c-1.24-2.58-3.83-4.24-6.69-4.29-2.81,0-5.57,.8-7.94,2.32-10.25,5.92-15.52,20.23-25.65,26.36-2.49,1.51-5.73,.13-7.85,2.13s-3.49,5.18-2.32,7.85c-1.45-1.8-2.63-3.8-3.51-5.94-.88-2.17-.78-4.62,.28-6.71,.88-1.52,2.42-2.68,2.85-4.38,.37-1.5-.22-3.06-.15-4.6,.17-1.57,.71-3.07,1.57-4.39,4-7,9.43-13.37,16.46-17.31,4.58-2.65,9.8-4.01,15.1-3.91,5.32,.12,10.41,2.14,14.37,5.7,2.27,2.12,4.65,4.3,3.48,7.17"/>
    <path class="cls-5" d="M139.15,197.05c-.18-.49-9.16-3.73-9.28,5.81-.12,9.27,9.24,7.44,9.26,7.18s.02-12.99,.02-12.99Z"/>
    <path class="cls-2" d="M136.3,206.51s-.16,.11-.44,.23c-.39,.15-.81,.15-1.2,0-1-.37-1.79-1.93-1.82-3.61-.02-.79,.14-1.58,.47-2.3,.18-.59,.64-1.05,1.23-1.23,.4-.13,.83,.07,1,.45,.12,.26,.06,.44,.11,.46s.2-.15,.13-.54c-.05-.23-.18-.43-.36-.58-.25-.19-.57-.28-.89-.24-.78,.14-1.42,.68-1.7,1.42-.4,.8-.61,1.68-.59,2.58,.05,1.86,1,3.62,2.32,4,.5,.16,1.05,.07,1.48-.23,.24-.19,.29-.39,.26-.41Z"/>
    <path class="cls-8" d="M135.5,192.29c.2-.08,.39-.18,.56-.31,.35-.22,.9-.52,1.55-1,1.83-1.33,3.5-2.86,5-4.55,2.19-2.53,4.23-5.19,6.12-7.95,2.28-3.38,4.84-6.57,7.65-9.53,1.5-1.48,3.16-2.78,4.94-3.9,1.67-1.02,3.46-1.84,5.33-2.42,3.17-1.02,6.5-1.43,9.82-1.21,2.24,.14,4.45,.57,6.58,1.29,.76,.23,1.33,.49,1.72,.64,.19,.09,.39,.16,.6,.21-.18-.11-.37-.21-.57-.29-.55-.27-1.11-.51-1.69-.71-2.13-.79-4.36-1.27-6.62-1.44-3.38-.27-6.77,.12-10,1.14-1.9,.58-3.73,1.4-5.43,2.43-1.81,1.15-3.48,2.49-5,4-2.83,2.97-5.4,6.18-7.67,9.6-1.86,2.77-3.86,5.44-6,8-1.47,1.7-3.11,3.24-4.88,4.62-.64,.48-1.17,.8-1.51,1.05-.17,.1-.34,.21-.5,.33Z"/>
    <path class="cls-4" d="M135.25,208.15c-1-.19-1.96,.46-2.16,1.46s.46,1.96,1.46,2.16c1,.19,1.96-.46,2.16-1.46,.16-.83-.26-1.66-1.03-2.02"/>
    <path class="cls-9" d="M135.68,208.29c.4,.32,.69,.75,.83,1.24,.13,.52,0,1.07-.36,1.46-.58,.68-1.6,.77-2.28,.19-.33-.28-.53-.67-.57-1.1-.07-.53,.14-1.06,.55-1.4,.4-.32,.89-.51,1.4-.53,0,0-.15-.1-.44-.1-1.07,.01-1.92,.89-1.9,1.95,0,.04,0,.08,0,.12,.08,1.1,1.04,1.93,2.15,1.84,.54-.04,1.04-.3,1.38-.71,.43-.49,.57-1.18,.36-1.8-.12-.4-.37-.75-.71-1-.24-.16-.4-.19-.41-.16Z"/>
    <path class="cls-9" d="M137.79,194.92c-.14,2.53-.26,5.2,.91,7.45s4.12,3.79,6.32,2.53c1.8-1,2.34-3.33,2.64-5.38,.88-5.9,1.28-11.87,2.21-17.77l-12.08,13.17Z"/>
    <path class="cls-2" d="M168.15,214.05c-1.54,2.01-1.16,4.88,.84,6.42,.43,.33,.93,.59,1.45,.75,.56,.19,1.17,.19,1.73,0,.91-.51,1.58-1.38,1.84-2.39l1-2.4c.27-.36,.2-.86-.15-1.14-.15-.12-.34-.18-.54-.16l-5.95-1.43"/>
    <path class="cls-9" d="M172.04,220.95c-.91,.12-1.84,0-2.7-.34-1-.33-1.85-1.01-2.37-1.93-.3-.56-.43-1.2-.37-1.84,.04-.66,.21-1.3,.48-1.9,.26-.58,.64-1.11,1.11-1.55l.16-.14,.2,.07c3.94,1.39,7,2.09,7,2.26s-3.2-.26-7.22-1.6l.35-.08c-.4,.38-.72,.84-.95,1.34-.5,.97-.57,2.12-.17,3.14,.44,.8,1.15,1.43,2,1.76,1.44,.6,2.51,.68,2.48,.81Z"/>
    <path class="cls-8" d="M184.74,164.05c0,.05-.81-.16-2.3-.2-2.1-.04-4.19,.34-6.14,1.12-1.35,.52-2.64,1.2-3.84,2-1.39,.92-2.73,1.92-4,3-2.91,2.47-5.51,5.28-7.76,8.37-1.18,1.66-2.22,3.36-3.35,4.93-1.07,1.54-2.32,2.94-3.72,4.18-2.4,2.04-5.03,3.8-7.83,5.24-2.37,1.26-4.36,2.13-5.72,2.74l-1.58,.62c-.18,.09-.37,.15-.57,.2,.17-.12,.34-.22,.53-.3l1.54-.76c1.34-.67,3.3-1.59,5.63-2.88,2.75-1.47,5.33-3.24,7.7-5.28,1.36-1.23,2.58-2.61,3.62-4.12,1.11-1.55,2.15-3.26,3.34-4.93,2.27-3.12,4.91-5.96,7.87-8.43,1.27-1.08,2.61-2.08,4-3,1.25-.81,2.6-1.48,4-2,2-.77,4.13-1.11,6.27-1,.58,.03,1.15,.11,1.71,.24,.21,.05,.42,.14,.6,.26Z"/>
    <path class="cls-8" d="M137.5,189.19c-.25,.21-.53,.4-.82,.55l-2.35,1.38-.79,.46c-.31,.18-.65,.29-1,.33-.22,.02-.44-.03-.63-.15-.2-.14-.33-.36-.34-.61,.02-.43,.18-.83,.44-1.17l2.72-4.36,.37,.34c-.91,.67-1.92,1.17-3,1.49-1.08,.32-2.2,.45-3.32,.39-.29,0-.57-.06-.84-.15-.32-.09-.59-.32-.72-.63-.11-.32-.05-.67,.16-.93,.15-.21,.33-.41,.52-.58,1.23-1.19,2.29-2.53,3.16-4,.76-1.38,1.43-2.8,2-4.27-.04,.42-.14,.84-.29,1.24-.36,1.11-.83,2.19-1.4,3.21-.85,1.52-1.91,2.91-3.14,4.14-.35,.33-.69,.71-.55,1s.63,.43,1.12,.44c2.14,.11,4.26-.52,6-1.78l1.1-.81-.74,1.15-2.78,4.33c-.21,.26-.35,.57-.39,.9,0,.27,.23,.42,.53,.4,.6-.12,1.16-.35,1.67-.69l2.42-1.24c.28-.16,.58-.29,.89-.38Z"/>
    <path class="cls-7" d="M91.31,297.05l16.86,88.65c.67,3.54,4.08,5.86,7.62,5.2,.01,0,.02,0,.03,0l64.75-12.46c3.55-.68,5.87-4.11,5.18-7.66,0,0,0-.01,0-.02l-17.84-90.2c-.71-3.55-4.16-5.85-7.7-5.14-.04,0-.07,.01-.11,.02l-63.77,14c-3.46,.76-5.69,4.14-5.02,7.62Z"/>
    <path class="cls-5" d="M134.5,329.77l5.39-2.67s1.75-9.24,4.59-12.5,7-7,7-7.89,1.32-7,1.32-7c0,0,2.51-2.19,3,2.19,.31,2.54,.31,5.12,0,7.66l16.86-4.2c1.75-.44,3.94-.27,3.72,1.48s-1.16,2.66-2.5,3.75c-.48,.4-1.02,.72-1.61,.94,0,0,2.81,2.59,2.81,5.13s2.88,8.44,.26,11.28-14.66,11.38-21,12.47-7.9,3-10.84,6.74l-9-17.38Z"/>
    <path class="cls-2" d="M157.19,309.26c.07,.14-1.93,1.31-4.19,3.05s-3.92,3.34-4,3.24c2.18-2.75,5.01-4.91,8.23-6.29h-.04Z"/>
    <path class="cls-2" d="M173.25,311.05c-1.26,.76-2.62,1.32-4.05,1.66-1.36,.5-2.77,.89-4.2,1.15,1.26-.75,2.62-1.31,4.05-1.65,1.37-.5,2.77-.89,4.2-1.16Z"/>
    <polygon class="cls-10" points="96.91 342.42 134.04 326.68 147.97 354.45 96.91 380.49 96.91 342.42"/>
    <path class="cls-9" d="M133.33,327.54c.06,.14-10,4.27-22.41,9.24s-22.55,8.88-22.6,8.75,10-4.27,22.41-9.24,22.55-8.88,22.6-8.75Z"/>
    <g class="cls-12">
      <path d="M99.36,340.71c-4.52,.9-8.93,2.24-13.19,4-1.77,.64-3.42,1.56-4.89,2.72-1.48,1.18-2.43,2.91-2.63,4.8,1.22-.52,2.37-1.19,3.42-2,4.22-4.23,11.49-6.69,17.65-9l-.36-.52Z"/>
    </g>
  </g>
  <g id="freepik--Desk--inject-6">
    <path class="cls-9" d="M465.16,463.45c0,.14-97,.26-216.65,.26s-216.67-.12-216.67-.26,97-.26,216.67-.26,216.65,.11,216.65,.26Z"/>
  </g>
</svg>