<?xml version="1.0" encoding="utf-8"?>
<!-- Generator: Adobe Illustrator 26.0.1, SVG Export Plug-In . SVG Version: 6.00 Build 0)  -->
<svg version="1.1" id="Layer_1" xmlns="http://www.w3.org/2000/svg" xmlns:xlink="http://www.w3.org/1999/xlink" x="0px" y="0px"
	 viewBox="0 0 694 694" style="enable-background:new 0 0 694 694;" xml:space="preserve">
<style type="text/css">
	.st0{fill:#D3EAD8;}
	.st1{fill:#EBEBEB;}
	.st2{fill:#D5E6EF;}
	.st3{fill:#DFF0F7;}
	.st4{fill:#DAEAF7;}
	.st5{fill:#DDE7ED;}
	.st6{fill:#D4E3E8;}
	.st7{fill:none;stroke:#D9F2FF;stroke-width:1.45;stroke-miterlimit:10;}
	.st8{fill:none;stroke:#DBEEFC;stroke-width:1.45;stroke-miterlimit:10;}
	.st9{fill:#C0E9FF;}
	.st10{fill:#F1F0F0;}
	.st11{fill:#E0E0E0;}
	.st12{fill:#C3DCF4;}
	.st13{opacity:0.8;fill:#C9DFF2;enable-background:new    ;}
	.st14{fill:#C9DFF2;}
	.st15{fill:#D4EFFC;}
	.st16{fill:#CAEBFC;}
	.st17{fill:#D3E8F4;}
	.st18{fill:#F5F5F5;}
	.st19{fill:#DDEFE1;}
	.st20{fill:#FAFBFB;}
	.st21{fill:#263238;}
	.st22{opacity:0.2;fill:#FFFFFF;enable-background:new    ;}
	.st23{opacity:0.4;fill:#FFFFFF;enable-background:new    ;}
	.st24{fill:#5095D0;}
	.st25{fill:#5274B8;}
	.st26{fill:#1585C4;}
	.st27{fill:#443D3E;}
	.st28{fill:#FFFFFF;}
	.st29{opacity:0.1;enable-background:new    ;}
	.st30{fill:#455B64;}
	.st31{opacity:0.2;enable-background:new    ;}
	.st32{fill:none;stroke:#FFFFFF;stroke-width:1.45;stroke-miterlimit:10;}
	.st33{fill:none;stroke:#FFFFFF;stroke-width:1.45;stroke-miterlimit:10;stroke-dasharray:0,0,7.68,7.68;}
	.st34{fill:none;stroke:#FFFFFF;stroke-width:1.45;stroke-miterlimit:10;stroke-dasharray:0,0,6.58,6.58;}
	.st35{fill:#5DBC62;stroke:#FFFFFF;stroke-width:1.45;stroke-miterlimit:10;}
	.st36{fill:#5274B8;stroke:#FFFFFF;stroke-width:1.45;stroke-miterlimit:10;}
	.st37{fill:none;stroke:#FFFFFF;stroke-width:2.18;stroke-linecap:round;stroke-linejoin:round;}
	.st38{opacity:0.5;fill:#FFFFFF;enable-background:new    ;}
	.st39{fill:none;stroke:#81BBEF;stroke-width:1.45;stroke-miterlimit:10;}
	.st40{fill:#FFFFFF;stroke:#81BBEF;stroke-width:1.45;stroke-miterlimit:10;}
	.st41{opacity:0.4;enable-background:new    ;}
	.st42{opacity:0.9;fill:#FFFFFF;enable-background:new    ;}
	.st43{opacity:0.6;fill:#FFFFFF;enable-background:new    ;}
	.st44{opacity:0.4;fill:#5DBC62;enable-background:new    ;}
	.st45{opacity:0.1;}
	.st46{opacity:0.2;}
	.st47{opacity:0.7;fill:#FFFFFF;enable-background:new    ;}
	.st48{opacity:0.3;enable-background:new    ;}
	.st49{fill:#FBBF9E;}
	.st50{fill:none;stroke:#263238;stroke-width:0.73;stroke-linecap:round;stroke-linejoin:round;}
	.st51{fill:#FBB474;}
	.st52{opacity:0.3;fill:#FFFFFF;enable-background:new    ;}
	.st53{fill:#CE7A63;}
	.st54{fill:#F7996E;}
	.st55{fill:none;stroke:#FFFFFF;stroke-width:2.91;stroke-linecap:round;stroke-linejoin:round;}
</style>
<g>
	<rect x="-9.6" y="568.5" class="st0" width="726.5" height="0.4"/>
	<rect x="596" y="591.9" class="st0" width="48.1" height="0.4"/>
	<rect x="459.1" y="595.8" class="st1" width="12.6" height="0.4"/>
	<rect x="566.7" y="578.4" class="st0" width="27.9" height="0.4"/>
	<rect x="66.7" y="580.8" class="st1" width="62.8" height="0.4"/>
	<rect x="142.4" y="580.8" class="st1" width="9.2" height="0.4"/>
	<rect x="181.5" y="586.9" class="st1" width="136.1" height="0.4"/>
	<path class="st2" d="M334.8,503.7H54.3c-4.6,0-8.3-3.7-8.3-8.3V101c0-4.6,3.7-8.3,8.3-8.3h280.6c4.6,0,8.3,3.7,8.3,8.3v394.4
		C343.1,499.9,339.4,503.7,334.8,503.7L334.8,503.7z M54.3,93.1c-4.4,0-7.9,3.6-7.9,7.9v394.4c0,4.4,3.6,7.9,7.9,7.9h280.6
		c4.4,0,7.9-3.6,7.9-7.9V101c0-4.4-3.6-7.9-7.9-7.9H54.3z"/>
	<path class="st2" d="M649.1,503.7H368.5c-4.6,0-8.3-3.7-8.3-8.3V101c0-4.6,3.7-8.3,8.3-8.3h280.6c4.6,0,8.3,3.7,8.3,8.3v394.4
		C657.4,499.9,653.7,503.7,649.1,503.7L649.1,503.7z M368.5,93.1c-4.4,0-7.9,3.6-7.9,7.9v394.4c0,4.4,3.6,7.9,7.9,7.9h280.6
		c4.4,0,7.9-3.6,7.9-7.9V101c0-4.4-3.6-7.9-7.9-7.9H368.5z"/>
</g>
<g>
	<g>
		<path class="st3" d="M504.7,155.4c0-3.9-3.2-7.1-7.1-7.1c-0.7,0-1.4,0.1-2,0.3c0.1-0.7,0.2-1.4,0.2-2.2c0-8.3-6.7-15.1-15-15.1
			c-1,0-1.9,0.1-2.8,0.3c-2.3-3.8-6.5-6.3-11.2-6.3c-7.2,0-13,5.8-13.2,13c-0.1,0-0.1,0-0.2,0c-6.7,0-12.1,5.4-12.1,12.1
			s5.4,12.1,12.1,12.1h44.5C501.6,162.4,504.7,159.3,504.7,155.4L504.7,155.4z"/>
		<polygon class="st4" points="478.6,166.1 478.6,152.2 467.3,152.2 467.3,166.1 458.1,166.1 472.9,178.6 487.8,166.1 		"/>
	</g>
	<g>
		<path class="st5" d="M282,176.4c0-8.3-6.8-15.1-15.1-15.1c-1.5,0-3,0.2-4.3,0.6c0.2-1.5,0.3-3.1,0.3-4.6
			c0-17.6-14.3-31.9-31.9-31.9c-2,0-4,0.2-5.9,0.6c-4.9-8-13.7-13.4-23.9-13.4c-15.3,0-27.7,12.3-27.9,27.5c-0.2,0-0.3,0-0.5,0
			c-14.2,0-25.7,11.5-25.7,25.7s11.5,25.7,25.7,25.7h94.5l0,0C275.5,191.2,282,184.6,282,176.4L282,176.4z"/>
		<polygon class="st6" points="202.6,177.6 202.6,207 226.6,207 226.6,177.6 246.1,177.6 214.6,150.9 183,177.6 		"/>
	</g>
	<g>
		<polyline class="st7" points="294.1,249.9 294.1,210.3 415.2,210.3 415.2,249.5 		"/>
		<line class="st8" x1="356.5" y1="173" x2="356.5" y2="249.8"/>
		<g>
			<path class="st9" d="M335.8,157.9h41.2c0.9,0,1.7,0.8,1.7,1.7v24.5c0,0.9-0.8,1.7-1.7,1.7h-41.2c-0.9,0-1.7-0.8-1.7-1.7v-24.5
				C334.1,158.7,334.9,157.9,335.8,157.9z"/>
			<path class="st9" d="M336.3,161.2h40.4c0.3,0,0.6,0.3,0.6,0.6v22.3c0,0.3-0.3,0.6-0.6,0.6h-40.4c-0.3,0-0.6-0.3-0.6-0.6v-22.3
				C335.7,161.5,335.9,161.2,336.3,161.2z"/>
		</g>
		<g>
			<path class="st10" d="M273.5,246.3h41.2c1,0,1.7,0.8,1.7,1.7v24.5c0,1-0.8,1.7-1.7,1.7h-41.2c-1,0-1.7-0.8-1.7-1.7V248
				C271.8,247.1,272.5,246.3,273.5,246.3L273.5,246.3z"/>
			<path class="st11" d="M273.9,249.6h40.4c0.3,0,0.6,0.3,0.6,0.6v22.4c0,0.3-0.3,0.6-0.6,0.6h-40.4c-0.3,0-0.6-0.3-0.6-0.6v-22.4
				C273.3,249.8,273.6,249.6,273.9,249.6z"/>
		</g>
		<g>
			<path class="st10" d="M335.8,246.3h41.2c0.9,0,1.7,0.8,1.7,1.7v24.5c0,0.9-0.8,1.7-1.7,1.7h-41.2c-0.9,0-1.7-0.8-1.7-1.7V248
				C334.1,247.1,334.9,246.3,335.8,246.3z"/>
			<path class="st11" d="M336.3,249.6h40.4c0.3,0,0.6,0.3,0.6,0.6v22.4c0,0.3-0.3,0.6-0.6,0.6h-40.4c-0.3,0-0.6-0.3-0.6-0.6v-22.4
				C335.7,249.8,335.9,249.6,336.3,249.6z"/>
		</g>
		<g>
			<path class="st10" d="M394.7,246.3h41.2c0.9,0,1.7,0.8,1.7,1.7v24.5c0,0.9-0.8,1.7-1.7,1.7h-41.2c-0.9,0-1.7-0.8-1.7-1.7V248
				C393,247.1,393.8,246.3,394.7,246.3z"/>
			<path class="st11" d="M395.2,249.6h40.4c0.3,0,0.6,0.3,0.6,0.6v22.4c0,0.3-0.3,0.6-0.6,0.6h-40.4c-0.3,0-0.6-0.3-0.6-0.6v-22.4
				C394.5,249.8,394.8,249.6,395.2,249.6z"/>
		</g>
		<path class="st12" d="M344.5,209.5l11.2-11.2c0.5-0.5,1.2-0.5,1.7,0l11.2,11.2c0.5,0.5,0.5,1.2,0,1.7l-11.2,11.2
			c-0.5,0.5-1.2,0.5-1.7,0l-11.2-11.2C344,210.7,344,209.9,344.5,209.5z"/>
	</g>
	<g>
		<path class="st13" d="M90.8,191.1h29.1c0.7,0,1.3,0.6,1.3,1.3v16.4c0,0.7-0.6,1.3-1.3,1.3H90.8c-0.7,0-1.3-0.6-1.3-1.3v-16.4
			C89.6,191.6,90.1,191.1,90.8,191.1z"/>
		<path class="st14" d="M74.7,231.8h23c0.7,0,1.3,0.6,1.3,1.3V245c0,0.7-0.6,1.3-1.3,1.3h-23c-0.7,0-1.3-0.6-1.3-1.3v-11.9
			C73.4,232.4,74,231.8,74.7,231.8z"/>
		<path class="st14" d="M113.5,231.8h23c0.7,0,1.3,0.6,1.3,1.3V245c0,0.7-0.6,1.3-1.3,1.3h-23c-0.7,0-1.3-0.6-1.3-1.3v-11.9
			C112.2,232.4,112.8,231.8,113.5,231.8z"/>
		<g>
			<path class="st14" d="M101.8,262.4h10.9c0.7,0,1.3,0.6,1.3,1.3v9.8c0,0.7-0.6,1.3-1.3,1.3h-10.9c-0.7,0-1.3-0.6-1.3-1.3v-9.8
				C100.5,262.9,101.1,262.4,101.8,262.4z"/>
			<path class="st14" d="M118.8,262.4h10.9c0.7,0,1.3,0.6,1.3,1.3v9.8c0,0.7-0.6,1.3-1.3,1.3h-10.9c-0.7,0-1.3-0.6-1.3-1.3v-9.8
				C117.5,262.9,118.1,262.4,118.8,262.4z"/>
			<path class="st14" d="M135.8,262.4h10.9c0.7,0,1.3,0.6,1.3,1.3v9.8c0,0.7-0.6,1.3-1.3,1.3h-10.9c-0.7,0-1.3-0.6-1.3-1.3v-9.8
				C134.6,262.9,135.1,262.4,135.8,262.4z"/>
		</g>
		<path class="st14" d="M62.3,262.4h10.9c0.7,0,1.3,0.6,1.3,1.3v9.8c0,0.7-0.6,1.3-1.3,1.3H62.3c-0.7,0-1.3-0.6-1.3-1.3v-9.8
			C61.1,262.9,61.6,262.4,62.3,262.4z"/>
		<path class="st14" d="M80.8,262.4h10.9c0.7,0,1.3,0.6,1.3,1.3v9.8c0,0.7-0.6,1.3-1.3,1.3H80.8c-0.7,0-1.3-0.6-1.3-1.3v-9.8
			C79.6,262.9,80.1,262.4,80.8,262.4z"/>
		<g>
			<polygon class="st14" points="123.5,231.8 125,231.8 125,221.6 106.1,221.6 106.1,210 104.6,210 104.6,221.6 85.7,221.6 
				85.7,231.8 87.2,231.8 87.2,223.1 123.5,223.1 			"/>
			<polygon class="st14" points="85.7,255 66.8,255 66.8,262.3 68.3,262.3 68.3,256.5 85.7,256.5 85.7,262.3 87.2,262.3 87.2,246.3 
				85.7,246.3 			"/>
			<polygon class="st14" points="125,256.5 125,246.3 123.5,246.3 123.5,256.5 106.1,256.5 106.1,262.3 107.5,262.3 107.5,257.9 
				123.5,257.9 123.5,262.3 125,262.3 125,257.9 140.9,257.9 140.9,262.3 142.4,262.3 142.4,256.5 			"/>
		</g>
	</g>
	<g>
		<path class="st15" d="M544,195.6V206l5.4,0.5c0.7,3.5,2.1,6.8,4,9.6l-3.5,4.2l7.4,7.4l4.2-3.4c2.9,1.9,6.1,3.3,9.6,4l0.5,5.4h10.4
			l0.5-5.4c3.5-0.7,6.8-2.1,9.6-4l4.2,3.4l7.4-7.4l-3.5-4.2c1.9-2.9,3.3-6.1,4-9.6l5.4-0.5v-10.4l-5.4-0.5c-0.7-3.5-2.1-6.8-4-9.6
			l3.5-4.2l-7.4-7.4l-4.2,3.4c-2.9-1.9-6.1-3.3-9.6-4l-0.5-5.4h-10.4l-0.5,5.4c-3.5,0.7-6.8,2.1-9.6,4l-4.2-3.4l-7.4,7.4l3.5,4.2
			c-1.9,2.9-3.3,6.1-4,9.6L544,195.6L544,195.6z M576.9,186.7c7.8,0,14.1,6.3,14.1,14.1s-6.3,14.1-14.1,14.1s-14.1-6.3-14.1-14.1
			S569.1,186.7,576.9,186.7z"/>
		<path class="st16" d="M550.8,271.8c2.7-0.6,5.3-1.7,7.6-3.1l3.3,2.7l5.8-5.8l-2.7-3.3c1.5-2.3,2.6-4.8,3.1-7.6l4.2-0.4v-8.2
			l-4.2-0.4c-0.6-2.7-1.7-5.3-3.1-7.6l2.7-3.3l-5.8-5.8l-3.3,2.7c-2.3-1.5-4.8-2.6-7.6-3.1l-0.4-4.2h-8.2l-0.4,4.2
			c-2.7,0.6-5.3,1.7-7.5,3.1l-3.3-2.7l-5.8,5.8l2.7,3.3c-1.5,2.3-2.6,4.8-3.1,7.6l-4.2,0.4v8.2l4.2,0.4c0.6,2.7,1.7,5.3,3.1,7.6
			l-2.7,3.3l5.8,5.8l3.3-2.7c2.3,1.5,4.8,2.6,7.5,3.1l0.4,4.2h8.2L550.8,271.8L550.8,271.8z M535.2,250.2c0-6.1,5-11.1,11.1-11.1
			s11.1,5,11.1,11.1c0,6.1-5,11.1-11.1,11.1S535.2,256.3,535.2,250.2z"/>
		<path class="st17" d="M532.5,227.5l2.7,2.3l4.9-4.9l-2.3-2.7c1.2-1.9,2.2-4,2.6-6.4l3.5-0.3v-6.9l-3.5-0.3
			c-0.5-2.3-1.4-4.4-2.6-6.4l2.3-2.7l-4.9-4.9l-2.7,2.3c-1.9-1.2-4-2.2-6.3-2.6l-0.3-3.5H519l-0.3,3.5c-2.3,0.5-4.4,1.4-6.3,2.6
			l-2.7-2.3l-4.9,4.9l2.3,2.7c-1.2,1.9-2.2,4-2.6,6.4l-3.5,0.3v6.9l3.5,0.3c0.5,2.3,1.4,4.4,2.6,6.4l-2.3,2.7l4.9,4.9l2.7-2.3
			c1.9,1.2,4,2.2,6.3,2.6l0.3,3.5h6.9l0.3-3.5C528.5,229.7,530.6,228.7,532.5,227.5z M513.1,212.1c0-5.1,4.2-9.3,9.3-9.3
			s9.3,4.2,9.3,9.3s-4.2,9.3-9.3,9.3S513.1,217.2,513.1,212.1z"/>
	</g>
	<g>
		<rect x="531.3" y="483.7" class="st18" width="97.6" height="63.5"/>
		<rect x="534.9" y="495.6" class="st19" width="90.4" height="48.4"/>
		<g>
			<rect x="542.2" y="502.8" class="st18" width="66.9" height="2.1"/>
			<rect x="542.2" y="509.2" class="st18" width="32.1" height="2.1"/>
			<rect x="542.2" y="515.5" class="st18" width="40.4" height="2.1"/>
			<rect x="542.2" y="521.9" class="st18" width="14.2" height="2.1"/>
			<rect x="542.2" y="528.3" class="st18" width="9.2" height="2.1"/>
		</g>
	</g>
	<g>
		
			<rect x="60" y="483.5" transform="matrix(1 -4.537840e-03 4.537840e-03 1 -2.2901 0.435)" class="st19" width="69.4" height="42.8"/>
		<g>
			<path class="st20" d="M86.6,515.7c-0.3,0-0.6-0.1-0.9-0.3L73,506.1c-0.4-0.3-0.6-0.7-0.6-1.2c0-0.5,0.2-0.9,0.6-1.2l12.6-9.4
				c0.6-0.5,1.6-0.3,2,0.3c0.5,0.6,0.3,1.6-0.3,2l-11,8.2l11.1,8.1c0.7,0.5,0.8,1.4,0.3,2C87.4,515.5,87,515.7,86.6,515.7
				L86.6,515.7z"/>
			<path class="st20" d="M103,515.6c-0.4,0-0.9-0.2-1.2-0.6c-0.5-0.6-0.3-1.6,0.3-2l11-8.2l-11.1-8.1c-0.7-0.5-0.8-1.4-0.3-2
				s1.4-0.8,2-0.3l12.7,9.2c0.4,0.3,0.6,0.7,0.6,1.2s-0.2,0.9-0.6,1.2l-12.6,9.4C103.6,515.5,103.3,515.6,103,515.6L103,515.6z"/>
			<path class="st20" d="M91.5,515.7c-0.2,0-0.3,0-0.5-0.1c-0.8-0.3-1.2-1.1-0.9-1.8l6.5-18.6c0.3-0.8,1.1-1.2,1.8-0.9
				s1.2,1.1,0.9,1.9l-6.5,18.7C92.6,515.3,92.1,515.7,91.5,515.7z"/>
		</g>
	</g>
</g>
<ellipse id="_Path_" class="st18" cx="353.7" cy="617.6" rx="281.7" ry="16.5"/>
<g>
	<g>
		<polygon class="st21" points="476.3,617.6 487,617.6 501.5,537.4 490.8,537.4 		"/>
		<polygon class="st22" points="476.3,617.6 487,617.6 501.5,537.4 490.8,537.4 		"/>
		<polygon class="st22" points="476.3,617.6 484.1,617.6 498.6,537.4 490.8,537.4 		"/>
	</g>
	<path class="st21" d="M446.2,561.2h42.7c1.3,0,2.4-1.1,2.4-2.4l0,0c0-1.3-1.1-2.4-2.4-2.4h-42.7c-1.3,0-2.4,1.1-2.4,2.4l0,0
		C443.9,560.2,444.9,561.2,446.2,561.2z"/>
	<path class="st21" d="M441.5,588.1h42.7c1.3,0,2.4-1.1,2.4-2.4l0,0c0-1.3-1.1-2.4-2.4-2.4h-42.7c-1.3,0-2.4,1.1-2.4,2.4l0,0
		C439.1,587.1,440.2,588.1,441.5,588.1z"/>
	<g>
		<polygon class="st21" points="432.7,617.6 443.4,617.6 457.9,537.4 447.2,537.4 		"/>
		<polygon class="st22" points="432.7,617.6 443.4,617.6 457.9,537.4 447.2,537.4 		"/>
		<polygon class="st22" points="432.7,617.6 440.5,617.6 455,537.4 447.2,537.4 		"/>
	</g>
	<g>
		<polygon class="st21" points="532,617.6 521.3,617.6 506.8,537.4 517.5,537.4 		"/>
		<polygon class="st23" points="532,617.6 521.3,617.6 506.8,537.4 517.5,537.4 		"/>
		<polygon class="st22" points="529.1,617.6 521.3,617.6 506.8,537.4 514.6,537.4 		"/>
	</g>
	<path class="st21" d="M513.3,561.2h-42.7c-1.3,0-2.4-1.1-2.4-2.4l0,0c0-1.3,1.1-2.4,2.4-2.4h42.7c1.3,0,2.4,1.1,2.4,2.4l0,0
		C515.6,560.2,514.6,561.2,513.3,561.2z"/>
	<path class="st21" d="M518,588.1h-42.7c-1.3,0-2.4-1.1-2.4-2.4l0,0c0-1.3,1.1-2.4,2.4-2.4H518c1.3,0,2.4,1.1,2.4,2.4l0,0
		C520.4,587.1,519.3,588.1,518,588.1z"/>
	<path class="st22" d="M513.3,561.2h-42.7c-1.3,0-2.4-1.1-2.4-2.4l0,0c0-1.3,1.1-2.4,2.4-2.4h42.7c1.3,0,2.4,1.1,2.4,2.4l0,0
		C515.6,560.2,514.6,561.2,513.3,561.2z"/>
	<path class="st22" d="M518,588.1h-42.7c-1.3,0-2.4-1.1-2.4-2.4l0,0c0-1.3,1.1-2.4,2.4-2.4H518c1.3,0,2.4,1.1,2.4,2.4l0,0
		C520.4,587.1,519.3,588.1,518,588.1z"/>
	<g>
		<polygon class="st21" points="488.4,617.6 477.8,617.6 463.2,537.4 473.9,537.4 		"/>
		<polygon class="st23" points="488.4,617.6 477.8,617.6 463.2,537.4 473.9,537.4 		"/>
		<polygon class="st22" points="485.5,617.6 477.8,617.6 463.2,537.4 471,537.4 		"/>
	</g>
	<g>
		<path class="st24" d="M444.5,533.5h77.2c1,0,1.7,0.8,1.7,1.7v4.2c0,1-0.8,1.7-1.7,1.7h-77.1c-1,0-1.7-0.8-1.7-1.7v-4.2
			C442.8,534.3,443.6,533.5,444.5,533.5L444.5,533.5z"/>
		<path class="st22" d="M444.5,533.5h29.3c1,0,1.7,0.8,1.7,1.7v4.2c0,1-0.8,1.7-1.7,1.7h-29.3c-1,0-1.7-0.8-1.7-1.7v-4.2
			C442.8,534.3,443.5,533.5,444.5,533.5z"/>
	</g>
</g>
<g>
	<g>
		<rect x="175.3" y="553.1" class="st25" width="97.6" height="63.5"/>
		<rect x="175.3" y="553.1" class="st26" width="97.6" height="63.5"/>
	</g>
	<rect x="178.8" y="565" class="st27" width="90.4" height="48.4"/>
	<g>
		<rect x="186.2" y="572.3" class="st28" width="66.9" height="2.1"/>
		<rect x="186.2" y="578.6" class="st28" width="32.1" height="2.1"/>
		<rect x="186.2" y="585" class="st28" width="40.4" height="2.1"/>
		<rect x="186.2" y="591.4" class="st28" width="14.2" height="2.1"/>
		<rect x="186.2" y="597.8" class="st28" width="9.2" height="2.1"/>
	</g>
</g>
<g>
	<g>
		<polygon class="st27" points="393.4,617.6 314,617.6 327.4,512 380,512 		"/>
		<polygon class="st29" points="386.2,561.2 323.2,545.4 327.4,512 380,512 		"/>
	</g>
	<g>
		<path class="st25" d="M540.9,251.7H166.4c-5.3,0-9.6,4.3-9.6,9.6v253.5c0,5.3,4.3,9.6,9.6,9.6h374.5c5.3,0,9.6-4.3,9.6-9.6V261.3
			C550.5,256,546.2,251.7,540.9,251.7L540.9,251.7z"/>
		<path class="st27" d="M540.9,251.7H166.4c-5.3,0-9.6,4.3-9.6,9.6v253.5c0,5.3,4.3,9.6,9.6,9.6h374.5c5.3,0,9.6-4.3,9.6-9.6V261.3
			C550.5,256,546.2,251.7,540.9,251.7L540.9,251.7z"/>
	</g>
	<rect x="169.5" y="261.1" class="st30" width="368.4" height="244.5"/>
	<g>
		<path class="st25" d="M287,609.7h133.4c0.8,0,1.5,0.7,1.5,1.5v4.8c0,0.8-0.7,1.5-1.5,1.5H287c-0.8,0-1.5-0.7-1.5-1.5v-4.8
			C285.5,610.4,286.2,609.7,287,609.7z"/>
		<path class="st24" d="M287,609.7h133.4c0.8,0,1.5,0.7,1.5,1.5v4.8c0,0.8-0.7,1.5-1.5,1.5H287c-0.8,0-1.5-0.7-1.5-1.5v-4.8
			C285.5,610.4,286.2,609.7,287,609.7z"/>
	</g>
	<g>
		<rect x="169.5" y="261.3" class="st31" width="368.4" height="36.4"/>
		<rect x="169.5" y="298.2" class="st23" width="157.9" height="207.4"/>
		<g>
			<g>
				<polyline class="st32" points="481.2,351.1 481.2,354.7 477.6,354.7 				"/>
				<line class="st33" x1="469.9" y1="354.7" x2="350.9" y2="354.7"/>
				<polyline class="st32" points="347.1,354.7 343.4,354.7 343.4,351.1 				"/>
				<line class="st34" x1="343.4" y1="344.5" x2="343.4" y2="282"/>
				<polyline class="st32" points="343.4,278.7 343.4,275 347.1,275 				"/>
				<line class="st33" x1="354.8" y1="275" x2="473.8" y2="275"/>
				<polyline class="st32" points="477.6,275 481.2,275 481.2,278.7 				"/>
				<line class="st34" x1="481.2" y1="285.3" x2="481.2" y2="347.8"/>
			</g>
			<g>
				<rect x="478.9" y="272.8" class="st35" width="4.6" height="4.6"/>
				<rect x="478.9" y="352.4" class="st35" width="4.6" height="4.6"/>
				<rect x="341.1" y="272.8" class="st36" width="4.6" height="4.6"/>
				<rect x="341.1" y="352.4" class="st35" width="4.6" height="4.6"/>
			</g>
			<g>
				<rect x="410" y="272.8" class="st35" width="4.6" height="4.6"/>
				<rect x="410" y="352.4" class="st35" width="4.6" height="4.6"/>
			</g>
			<g>
				<rect x="478.9" y="312.6" class="st35" width="4.6" height="4.6"/>
				<rect x="341.1" y="312.6" class="st35" width="4.6" height="4.6"/>
			</g>
		</g>
		<path class="st26" d="M435,301.8h33.7c1.5,0,2.8,1.2,2.8,2.8v9c0,1.5-1.2,2.8-2.8,2.8H435c-1.5,0-2.8-1.2-2.8-2.8v-9
			C432.2,303,433.5,301.8,435,301.8z"/>
		<path class="st26" d="M376.9,301.8h33.7c1.5,0,2.8,1.2,2.8,2.8v9c0,1.5-1.2,2.8-2.8,2.8h-33.7c-1.5,0-2.8-1.2-2.8-2.8v-9
			C374.1,303,375.4,301.8,376.9,301.8z"/>
		<path class="st26" d="M302,478.5h33.7c1.5,0,2.8,1.2,2.8,2.8v9c0,1.5-1.2,2.8-2.8,2.8H302c-1.5,0-2.8-1.2-2.8-2.8v-9
			C299.3,479.7,300.5,478.5,302,478.5z"/>
		<g>
			<line class="st37" x1="513.6" y1="274.3" x2="525.9" y2="274.3"/>
			<line class="st37" x1="513.6" y1="280.1" x2="525.9" y2="280.1"/>
			<line class="st37" x1="513.6" y1="285.9" x2="525.9" y2="285.9"/>
		</g>
		<rect x="194.5" y="330.3" class="st38" width="123.6" height="123.6"/>
		<g>
			<line class="st39" x1="246.2" y1="340.4" x2="246.2" y2="447"/>
			<path class="st39" d="M299.5,447L299.5,447c-29.4,0-53.3-23.9-53.3-53.3l0,0c0-29.4,23.9-53.3,53.3-53.3l0,0"/>
			<rect x="297.2" y="338.1" class="st40" width="4.6" height="4.6"/>
			<rect x="297.2" y="444.7" class="st40" width="4.6" height="4.6"/>
			<rect x="243.9" y="391.4" class="st40" width="4.6" height="4.6"/>
			<path class="st40" d="M247.4,340.4c0,0.7-0.5,1.2-1.2,1.2s-1.2-0.5-1.2-1.2s0.5-1.2,1.2-1.2S247.4,339.8,247.4,340.4z"/>
			<path class="st40" d="M247.4,447c0,0.7-0.5,1.2-1.2,1.2s-1.2-0.5-1.2-1.2s0.5-1.2,1.2-1.2S247.4,446.4,247.4,447z"/>
		</g>
		<path class="st26" d="M451,480.2h-37.4c-6,0-10.8-4.8-10.8-10.8l0,0c0-6,4.8-10.8,10.8-10.8H451c6,0,10.8,4.8,10.8,10.8l0,0
			C461.8,475.4,456.9,480.2,451,480.2z"/>
		<path class="st26" d="M483.8,388H368.2c-1.3,0-2.4-1.1-2.4-2.4l0,0c0-1.3,1.1-2.4,2.4-2.4h115.6c1.3,0,2.4,1.1,2.4,2.4l0,0
			C486.2,387,485.1,388,483.8,388z"/>
		<path class="st26" d="M483.8,405.3H368.2c-1.3,0-2.4-1.1-2.4-2.4l0,0c0-1.3,1.1-2.4,2.4-2.4h115.6c1.3,0,2.4,1.1,2.4,2.4l0,0
			C486.2,404.2,485.1,405.3,483.8,405.3z"/>
		<path class="st26" d="M483.8,422.5h-72c-1.3,0-2.4-1.1-2.4-2.4l0,0c0-1.3,1.1-2.4,2.4-2.4h72c1.3,0,2.4,1.1,2.4,2.4l0,0
			C486.2,421.5,485.1,422.5,483.8,422.5z"/>
		<g>
			<rect x="181.1" y="271.4" class="st41" width="8.2" height="8.2"/>
			<path class="st41" d="M199.1,271.4h4c1.2,0,2.1,0.9,2.1,2.1v4c0,1.2-0.9,2.1-2.1,2.1h-4c-1.2,0-2.1-0.9-2.1-2.1v-4
				C197,272.3,197.9,271.4,199.1,271.4z"/>
			<path class="st41" d="M216.6,271.4h0.7c2.1,0,3.7,1.7,3.7,3.7v0.7c0,2.1-1.7,3.7-3.7,3.7h-0.7c-2.1,0-3.7-1.7-3.7-3.7v-0.7
				C212.9,273.1,214.5,271.4,216.6,271.4z"/>
		</g>
		<g>
			<path class="st42" d="M206.1,472.7v-3.2l-1.6-0.1c-0.2-1.1-0.6-2.1-1.2-2.9l1.1-1.3l-2.2-2.2l-1.3,1c-0.9-0.6-1.9-1-2.9-1.2
				l-0.1-1.6h-3.2l-0.1,1.6c-1.1,0.2-2.1,0.6-2.9,1.2l-1.3-1l-2.2,2.2l1.1,1.3c-0.6,0.9-1,1.9-1.2,2.9l-1.6,0.1v3.2l1.6,0.1
				c0.2,1.1,0.6,2.1,1.2,2.9l-1.1,1.3l2.2,2.2l1.3-1c0.9,0.6,1.9,1,2.9,1.2l0.1,1.6h3.2l0.1-1.6c1.1-0.2,2.1-0.6,2.9-1.2l1.3,1
				l2.2-2.2l-1.1-1.3c0.6-0.9,1-1.9,1.2-2.9L206.1,472.7z M196.1,475.4c-2.4,0-4.3-1.9-4.3-4.3s1.9-4.3,4.3-4.3s4.3,1.9,4.3,4.3
				S198.5,475.4,196.1,475.4z"/>
			<path class="st43" d="M219.1,481.7v-2.5l-1.3-0.1c-0.2-0.8-0.5-1.6-1-2.3l0.8-1l-1.8-1.8l-1,0.8c-0.7-0.5-1.5-0.8-2.3-1l-0.1-1.3
				H210l-0.1,1.3c-0.8,0.2-1.6,0.5-2.3,1l-1-0.8l-1.8,1.8l0.8,1c-0.4,0.7-0.8,1.5-1,2.3l-1.3,0.1v2.5l1.3,0.1c0.2,0.8,0.5,1.6,1,2.3
				l-0.8,1l1.8,1.8l1-0.8c0.7,0.5,1.5,0.8,2.3,1l0.1,1.3h2.5l0.1-1.3c0.8-0.2,1.6-0.5,2.3-1l1,0.8l1.8-1.8l-0.8-1
				c0.4-0.7,0.8-1.5,1-2.3L219.1,481.7z M211.2,483.8c-1.9,0-3.4-1.5-3.4-3.4s1.5-3.4,3.4-3.4s3.4,1.5,3.4,3.4
				S213.1,483.8,211.2,483.8z"/>
			<path class="st23" d="M206.1,488.8v-2.1l-1.1-0.1c-0.1-0.7-0.4-1.4-0.8-1.9l0.7-0.8l-1.5-1.5l-0.8,0.7c-0.6-0.4-1.2-0.7-1.9-0.8
				l-0.1-1.1h-2.1l-0.1,1.1c-0.7,0.1-1.4,0.4-1.9,0.8l-0.8-0.7l-1.5,1.5l0.7,0.8c-0.4,0.6-0.7,1.2-0.8,1.9l-1.1,0.1v2.1l1.1,0.1
				c0.1,0.7,0.4,1.4,0.8,1.9l-0.7,0.8l1.5,1.5l0.8-0.7c0.6,0.4,1.2,0.7,1.9,0.8l0.1,1.1h2.1l0.1-1.1c0.7-0.1,1.4-0.4,1.9-0.8
				l0.8,0.7l1.5-1.5l-0.7-0.8c0.4-0.6,0.7-1.2,0.8-1.9L206.1,488.8z M199.6,490.6c-1.6,0-2.8-1.3-2.8-2.8s1.3-2.8,2.8-2.8
				s2.8,1.3,2.8,2.8S201.1,490.6,199.6,490.6z"/>
		</g>
	</g>
	<g>
		<g>
			<polygon class="st25" points="480.4,274.2 486.5,290.7 496.8,280.4 			"/>
			
				<rect x="490.1" y="281.9" transform="matrix(0.7071 -0.7071 0.7071 0.7071 -57.9026 431.3118)" class="st25" width="3.2" height="7.2"/>
		</g>
		<polygon class="st44" points="496.8,280.4 480.4,274.2 486.5,290.7 490.5,286.7 493.1,289.2 495.4,287 492.8,284.4 		"/>
	</g>
	<g class="st45">
		<polygon class="st28" points="223.4,261.1 168.8,465.1 168.8,261.1 		"/>
		<polygon class="st28" points="285,261.1 219.6,505.5 174.5,505.5 239.9,261.1 		"/>
		<polygon class="st28" points="350.5,261.1 285.1,505.5 264.7,505.5 330.1,261.1 		"/>
		<polygon class="st28" points="410.9,261.1 345.4,505.5 338.1,505.5 403.6,261.1 		"/>
	</g>
</g>
<g>
	<g>
		<path class="st21" d="M632.5,315c5.2,6,31.4,56.5,26.3,68.3c-5.1,11.8-47.1-1.8-47.1-1.8l2.5-16.6c0,0,16.3,0.6,17.9-1
			c1.6-1.5-22.1-25.2-22.1-25.2L632.5,315L632.5,315z"/>
		<g class="st46">
			<path class="st28" d="M658.9,383.3c-0.6,1.4-1.6,2.4-3.1,3.1c0,0,0,0,0,0c-0.3,0.1-0.5,0.3-0.8,0.4c0,0-0.1,0-0.1,0
				c-0.2,0.1-0.5,0.2-0.8,0.3c-1.1,0.4-2.3,0.6-3.6,0.8c-0.3,0-0.7,0.1-1.1,0.1c-0.5,0-1,0.1-1.6,0.1c-0.5,0-0.9,0-1.4,0
				c-14.1,0-34.6-6.6-34.6-6.6l2.5-16.7c0,0,16.3,0.6,17.9-1c0.4-0.4-0.7-2.1-2.6-4.4c-1.3-1.6-1.3-1.6,0,0
				c-4.6-5.7-13.9-15.1-17.7-19c-1.1-1.1-1.7-1.7-1.7-1.7l22.5-23.7C637.7,321,663.9,371.5,658.9,383.3L658.9,383.3z"/>
		</g>
	</g>
	<path class="st31" d="M655.8,386.4C655.8,386.4,655.8,386.4,655.8,386.4c-0.3,0.2-0.6,0.3-0.9,0.4c0,0-0.1,0-0.1,0
		c-0.2,0.1-0.5,0.2-0.8,0.3c-1.1,0.4-2.3,0.6-3.6,0.8c-0.3,0-0.7,0.1-1.1,0.1c-0.5,0-1,0.1-1.6,0.1c-0.5,0-0.9,0-1.4,0
		c-14.1,0-34.6-6.6-34.6-6.6l2.5-16.7c0,0,18.4,1.5,20,0c0,0,0,0,0-0.1c0.3-0.6-1.7-2.7-4.8-5.3c-2-1.8-2-1.8,0,0
		c-4.6-5.7-13.9-15.1-17.7-19l10.6-11.4l8.1-0.9C630.5,328.2,648.4,357.1,655.8,386.4L655.8,386.4z"/>
	<g>
		<path class="st21" d="M579.5,313.4c-2.9,2.1-4.3,5.1-3.2,6.7l76.8,105.9c1.2,1.6,4.4,1.1,7.3-1c2.9-2.1,4.3-5.1,3.2-6.7
			l-76.8-105.9C585.7,310.8,582.4,311.2,579.5,313.4z"/>
		<path class="st47" d="M586.9,312.4l76.8,105.9c1.1,1.6-0.3,4.6-3.2,6.7c-2.9,2.1-6.2,2.5-7.3,1L576.3,320
			c-0.6-0.9-0.5-2.2,0.3-3.5c0.3-0.6,0.8-1.3,1.5-1.9c0.4-0.4,0.9-0.9,1.5-1.3C582.4,311.2,585.7,310.8,586.9,312.4L586.9,312.4z"/>
		<path class="st48" d="M663.6,418.2c1.1,1.6-0.3,4.6-3.2,6.7c-2.9,2.1-6.2,2.5-7.3,1c-0.6-0.9,1-2.2,1.9-4.1l-78.4-105.3
			c0.3-0.6,0.8-1.3,1.5-1.9l76.8,105.9c0.4-0.4,0.9-0.9,1.5-1.3C659.2,417.1,662.5,416.7,663.6,418.2z"/>
	</g>
	<g>
		<path class="st25" d="M570,310.4c-2.5,2.6-3.3,5.8-1.9,7.2l95.5,89.4c1.4,1.3,4.6,0.3,7-2.3s3.3-5.8,1.9-7.2L577,308.1
			C575.6,306.7,572.5,307.8,570,310.4z"/>
		<path class="st47" d="M577,308.1l95.5,89.4c1.4,1.3,0.6,4.5-1.9,7.2c-2.5,2.6-5.6,3.7-7,2.3l-95.5-89.4c-0.8-0.7-0.9-2-0.4-3.5
			c0.2-0.7,0.6-1.4,1.1-2.1c0.3-0.5,0.7-1,1.2-1.5C572.5,307.8,575.6,306.7,577,308.1L577,308.1z"/>
		<path class="st48" d="M672.5,397.5c1.4,1.3,0.6,4.5-1.9,7.2c-2.5,2.6-5.6,3.7-7,2.3c-0.8-0.7,0.5-2.3,1.1-4.4l-96.9-88.5
			c0.2-0.7,0.6-1.4,1.1-2.1l95.5,89.4c0.3-0.5,0.7-1,1.2-1.5C667.9,397.2,671.1,396.1,672.5,397.5L672.5,397.5z"/>
	</g>
	<path class="st49" d="M593,595.6l-7.3,0.1C578.3,561,573,518,569.8,485.6c-0.5-5.1-1-9.9-1.4-14.4c-0.2-2.1-0.4-4.2-0.5-6.2
		c-0.9-9.8-1.5-17.5-1.8-22.3c-0.3-3.5-0.4-5.4-0.4-5.4h26.3l-0.2,6.7l-0.8,22.1l-0.1,2.5l-0.5,14.6l-0.9,24.9
		C598.3,543.2,592.9,595.6,593,595.6L593,595.6z"/>
	<path class="st49" d="M651.9,593.8l-7.2,1.3c-14.3-35.8-27.8-81.8-36.6-113.8c-1.3-5-2.6-9.6-3.7-13.8c-0.1-0.2-0.1-0.4-0.2-0.6
		c-2.2-8.4-3.9-15-5-19.3c-0.8-3.3-1.3-5.1-1.3-5.1L624,438l1.5,10.9l2.2,16l0.4,3.1l1.5,10.9l3.9,29.3
		C648.3,541.2,651.9,593.8,651.9,593.8L651.9,593.8z"/>
	<path class="st31" d="M627.7,464.9l-23.2,2.6c-0.1-0.2-0.1-0.4-0.2-0.6c-2.2-8.4-3.9-15-5-19.3l26.1,1.3L627.7,464.9L627.7,464.9z"
		/>
	<path class="st31" d="M591.7,444.1l-0.8,22.1l-0.1,2.5l-22.4,2.5c-0.2-2.1-0.4-4.2-0.5-6.2c-0.9-9.8-1.5-17.5-1.8-22.3L591.7,444.1
		L591.7,444.1z"/>
	<path class="st21" d="M571.5,619.8c1.3-1.1,2.9-1.9,4.6-2.5l0,0c0,0,5-4.9,7.3-19.7l6.5-1.7c2.3-0.5,4.6,0.4,5.9,2.3
		c0.2,0.3,0.3,0.5,0.4,0.8c0.3,1.6,0.6,3.2,0.7,4.8c0.7,5,0.1,16.2,0.1,16.2h-1.2l-0.5-10.2c-0.2-3.5-2.8,0.6-3.6,4.3
		c-0.8,3.7-2.4,7.7-10,7.9C572.9,622.3,569.2,622,571.5,619.8L571.5,619.8z"/>
	<path class="st21" d="M596,598.3c0.4-3.5,0.6-9.5,0.6-9.5l-14.4,1.6c0,0,1.7,6.8,0.3,12C589.7,600.5,596,598.3,596,598.3L596,598.3
		z"/>
	<path class="st21" d="M630.1,619.8c1.3-1.1,2.9-1.9,4.6-2.5l0,0c0,0,5-4.9,7.3-19.7l6.5-1.7c2.3-0.5,4.6,0.4,5.9,2.3
		c0.2,0.3,0.3,0.5,0.4,0.8c0.3,1.6,0.6,3.2,0.7,4.8c0.7,5,0.1,16.2,0.1,16.2h-1.2l-0.5-10.2c-0.2-3.5-2.8,0.6-3.6,4.3
		c-0.8,3.7-2.4,7.7-10,7.9C631.5,622.3,627.9,622,630.1,619.8L630.1,619.8z"/>
	<path class="st21" d="M654.6,598.3c0.4-3.5,0.6-9.5,0.6-9.5l-14.4,1.6c0,0,1.7,6.8,0.3,12C648.3,600.5,654.6,598.3,654.6,598.3
		L654.6,598.3z"/>
	<path class="st24" d="M630.2,457.8l-27.4,3.5l-1.1,0.1l-5.6-20.7l-1.5,22.1l-29.4-1.5c-13.1-76.8,9.3-95,9.3-95l39.9,8
		c18,30.7,13.8,66.4,13.8,66.4L630.2,457.8L630.2,457.8z"/>
	<g>
		<path class="st50" d="M592.4,270.7c0,3-1.3,5.5-3,5.5s-3-2.4-3-5.5s1.3-5.5,3-5.5S592.4,267.6,592.4,270.7z"/>
		<path class="st49" d="M612.1,289c-0.1,0.1-0.2,0.2-0.3,0.2c-1.6,1.1-3.5,2.2-5.6,2.7c-5.9,1.4-9.9,0.5-12.5-2.1h0
			c-3.7-4-4.6-11.1-4.1-19.6c0.2-3.9,0.8-7.3,1.9-10c0,0,0-0.1,0-0.1c0-0.1,0.1-0.3,0.2-0.4c1.6-3.7,4.3-6.1,8.6-7.1
			c1.5-0.4,3.2-0.5,5-0.6C621.9,251.9,624.9,279.5,612.1,289L612.1,289z"/>
		<path class="st31" d="M611.7,289.2c-1.6,1.1-3.5,2-5.6,2.5c-5.9,1.4-9.9,0.4-12.5-2.3c2.9,0.6,6.8,0.9,10.6-0.9
			C606.6,287.4,609.2,288,611.7,289.2L611.7,289.2z"/>
		<path class="st49" d="M613.4,304.2c1,4.7-5.1,6.7-5.1,6.7c-10-4.3-11.9-9.6-11.9-9.6c8.4-4.4,6-16.7,6-16.7l1.7,0.8l12,2.3
			c0,0-3.3,6.4-3.8,7.8c0,0,0,0,0,0C610,303.2,613.4,304.2,613.4,304.2L613.4,304.2z"/>
		<path class="st21" d="M591.4,260.1c0,0-0.9,11.7,10.2,16.7c0,0,4.8,12.1,11.8,12.3c9.5,0.2,17.9-13.3,14.6-27.1
			C623.7,244.1,596.5,242.6,591.4,260.1L591.4,260.1z"/>
		<path class="st51" d="M596,273.5c0-1.8,1.5-4.9,4.3-4.5c2.9,0.4,4.5,7.6-2.7,9.3C596.6,278.5,595.9,277.3,596,273.5L596,273.5z"/>
		<path class="st21" d="M611.7,247.7c0,0-11.1-2.8-17.3,1.7c-7.2,5.2-9.9,10.6-1.4,19c0,0,18.7-6.1,24.9-4.8s10.7,3.1,10.7,3.1
			C629.9,254.4,618,245.2,611.7,247.7L611.7,247.7z"/>
		<path class="st21" d="M596,270.7c0,0,3,13.5-1.7,24.9c0,0,26.4,9.2,35.6,4.2s0.8-21.7,0.4-31.4c-0.4-9.6-4.6-23.9-18.6-20.7
			C597.7,250.9,596,270.7,596,270.7L596,270.7z"/>
		<line class="st50" x1="586.4" y1="269.8" x2="597.6" y2="269.8"/>
	</g>
	<path class="st31" d="M602.7,461.3l-1.1,0.1l-5.6-20.7c0,0,12.1-20.6,8.3-31.4C604.9,410.1,617.9,429.4,602.7,461.3z"/>
	<g>
		<path class="st21" d="M580.1,303.2c0,0,13.3-4.7,33.3,1c20,5.8,20.8,14.3,20.8,14.3s-12.7,28.8-14.7,61.4l-52.2-2
			C567.3,378,561.1,332,580.1,303.2z"/>
		<path class="st22" d="M634.2,318.6c0,0-12.7,28.8-14.7,61.4l-52.2-2c0,0-0.9-6.4-1-15.9c-0.1-6.6,0.2-14.8,1.5-23.4
			c1.7-12.1,5.3-24.9,12.3-35.5c0,0,13.3-4.7,33.3,1C633.5,310,634.2,318.6,634.2,318.6L634.2,318.6z"/>
	</g>
	<path class="st31" d="M579.4,340.6c0,0-2.2,13.2-13,21.4c-0.1-6.6,0.2-14.8,1.5-23.4L579.4,340.6z"/>
	<path class="st49" d="M521.7,302.3l-6.6-9.8c0,0-1-4.2-2.3-5.2c-1.3-1-13.9-6.3-15.5-6.3c-1.5,0-1.5,9.9,0,11.5
		c1.5,1.7,9.5,5.2,11.6,5.6s1.1,0,1.1,0l5.8,11.6L521.7,302.3L521.7,302.3z"/>
	<g>
		<path class="st21" d="M580.1,303.2c0,0-18.3,7.2-40.7,21l-21.2-29c0,0-5.7,1.8-7.9,11.7c0,0,10.9,41.6,25.1,45.7
			c14.2,4.1,44-12,44-12S588,319,580.1,303.2L580.1,303.2z"/>
		<path class="st22" d="M580.1,303.2c0,0-18.3,7.2-40.7,21l-21.2-29c0,0-5.7,1.8-7.9,11.7c0,0,10.9,41.6,25.1,45.7
			c14.2,4.1,44-12,44-12S588,319,580.1,303.2L580.1,303.2z"/>
	</g>
	<g>
		<path class="st21" d="M593.5,301.4c0,0,4.6,33.2,19.3,34.5s21.3-23.2,18.8-26.1C629.2,306.8,610.2,301.1,593.5,301.4L593.5,301.4z
			"/>
		<path class="st52" d="M593.5,301.4c0,0,4.6,33.2,19.3,34.5s21.3-23.2,18.8-26.1C629.2,306.8,610.2,301.1,593.5,301.4L593.5,301.4z
			"/>
	</g>
</g>
<g id="_Group_">
	<polygon class="st49" points="70.9,606.6 81.7,606.6 82.5,581.7 71.8,581.7 	"/>
	<path class="st21" d="M83.1,605.4H70.1c-0.4,0-0.8,0.3-0.9,0.7l-2.1,9.6c-0.2,0.9,0.4,1.7,1.2,1.9c0.1,0,0.2,0,0.3,0
		c4.2-0.1,7.3-0.3,12.6-0.3c3.3,0,13.1,0.3,17.7,0.3s5.1-4.5,3.3-4.9c-8.3-1.8-14.5-4.3-17.2-6.7C84.5,605.6,83.8,605.4,83.1,605.4
		L83.1,605.4z"/>
	<path class="st24" d="M83.9,606.9c-0.1,0-0.2-0.1-0.2-0.2c0-0.1,0-0.2,0.1-0.2c0.4-0.2,3.9-2.4,5.1-1.8c0.3,0.1,0.4,0.4,0.4,0.7
		c0.1,0.5-0.1,1-0.5,1.4c-0.6,0.4-1.3,0.6-2.1,0.5C85.8,607.2,84.8,607.1,83.9,606.9L83.9,606.9z M84.6,606.5
		c1.3,0.4,2.6,0.4,3.8-0.2c0.3-0.2,0.4-0.6,0.3-0.9c0-0.2-0.1-0.3-0.2-0.3c-0.1,0-0.2-0.1-0.3-0.1C87,605.3,85.7,605.8,84.6,606.5z"
		/>
	<path class="st24" d="M83.8,606.9c-0.1,0-0.1-0.1-0.1-0.2c0-0.2,0.3-3.2,1.5-4.3c0.3-0.3,0.7-0.4,1.1-0.3c0.4,0,0.7,0.3,0.8,0.7
		c0.2,1.1-1.9,3.5-3,4.1h-0.1C83.9,606.9,83.9,606.9,83.8,606.9L83.8,606.9z M85.5,602.8c-0.8,1-1.2,2.1-1.3,3.4
		c1.1-0.8,2.5-2.6,2.3-3.3c0-0.1,0-0.3-0.4-0.3h-0.1C85.9,602.5,85.7,602.6,85.5,602.8L85.5,602.8z"/>
	<polygon class="st31" points="71.8,581.7 82.5,581.7 82.1,594.6 71.3,594.6 	"/>
	<polygon class="st49" points="126.3,607.5 137.4,608.6 139.5,584.7 128.4,583.5 	"/>
	<path class="st21" d="M138.6,605h-13.1c-0.4,0-0.8,0.3-0.9,0.7l-2.1,9.6c-0.2,0.9,0.4,1.7,1.2,1.9c0.1,0,0.2,0,0.3,0
		c4.2-0.1,7.3-0.3,12.6-0.3c3.3,0,13.1,0.3,17.7,0.3s5.1-4.5,3.3-4.9c-8.3-1.8-14.5-4.3-17.2-6.7C139.9,605.3,139.2,605,138.6,605
		L138.6,605z"/>
	<path class="st24" d="M139.3,606.5c-0.1,0-0.2-0.1-0.2-0.2c0-0.1,0-0.2,0.1-0.2c0.4-0.2,3.9-2.4,5.1-1.8c0.3,0.1,0.4,0.4,0.4,0.7
		c0.1,0.5-0.1,1-0.5,1.4c-0.6,0.4-1.3,0.6-2.1,0.5C141.2,606.9,140.2,606.8,139.3,606.5L139.3,606.5z M140.1,606.2
		c1.3,0.4,2.6,0.4,3.8-0.2c0.3-0.2,0.4-0.6,0.3-0.9c0-0.2-0.1-0.3-0.2-0.3c-0.1,0-0.2-0.1-0.3-0.1
		C142.4,605,141.2,605.5,140.1,606.2z"/>
	<path class="st24" d="M139.2,606.6c-0.1,0-0.1-0.1-0.1-0.2c0-0.2,0.3-3.2,1.5-4.3c0.3-0.3,0.7-0.4,1.1-0.3c0.4,0,0.7,0.3,0.8,0.7
		c0.2,1.1-1.9,3.5-3,4.1h-0.1C139.4,606.6,139.3,606.6,139.2,606.6L139.2,606.6z M141,602.4c-0.8,1-1.2,2.1-1.3,3.4
		c1.1-0.8,2.5-2.6,2.3-3.3c0-0.1,0-0.3-0.4-0.3h-0.1C141.3,602.2,141.1,602.3,141,602.4L141,602.4z"/>
	<polygon class="st31" points="128.4,583.5 139.5,584.7 138.4,597 127.3,595.8 	"/>
	<path class="st21" d="M76.2,428.1h57.1c5.4,29.6,22.4,69.5,10.2,163l-19.3-2.4c0,0,1.8-59.1-15.3-104.9c-7.6,27-10.1,55-12.1,68.9
		c-5,34.2-9.8,39.7-9.8,39.7H67.3c0,0,4-1.5,5.9-35.2C75.3,520.7,76.1,435.6,76.2,428.1L76.2,428.1z"/>
	<polygon class="st24" points="145.8,595.7 121.8,592.1 122.6,585.5 147.5,588.7 	"/>
	<polygon class="st24" points="89.4,592.5 66.2,592.5 66.2,585.6 90.3,585.1 	"/>
	<path class="st31" d="M108.9,483.8c2.5,6.8,4.6,15.2,6.4,24.7c1.6-21.9-4.8-45-4.8-45L108.9,483.8z"/>
	<path class="st26" d="M74.6,438.1l-1.3,6.9c0,0,40,5.2,64.8,5l-0.9-4.7L74.6,438.1L74.6,438.1z"/>
	<path class="st49" d="M155.7,378.3c0,0,13.8,43.6,23.3,46.4c9.4,2.9,33.5-33.1,33.5-33.1s21.5-0.2,22.5-1.7
		c1-1.5-5.6-16.6-7.2-16.7c-1.6,0-20.3,7.1-21.1,8.2s-22.2,21.8-23.3,21.2s-9.2-26.5-9.2-26.5L155.7,378.3L155.7,378.3z"/>
	<path class="st53" d="M215.2,389.4c0.2,0,0.4-0.1,0.5-0.1c-0.1,0-0.2-0.1-0.2-0.2C215.4,389.2,215.3,389.3,215.2,389.4z"/>
	<path class="st24" d="M147.9,373.3l1.7,3.1l7.9,14.5l1.6,3l22.1-7.7c0,0-9.2-34.3-12.4-37.8L147.9,373.3L147.9,373.3z"/>
	<path class="st31" d="M149.6,376.4l7.9,14.5c4.9-9.5,3.4-22.6,3.4-22.6L149.6,376.4L149.6,376.4z"/>
	<g>
		<path class="st24" d="M168.8,348.5c0,0-11.6-15.1-33.2-16.1c-21.6-1-28.4,1.1-36.3,8.2c-11.6,10.3-25.9,99.2-25.9,99.2
			s30.2,9.3,64.8,7c0,0,0.3-24.7,8.1-41.3C161.4,373.1,168.8,348.5,168.8,348.5L168.8,348.5z"/>
		<polygon class="st23" points="146,369.4 150.3,369.8 147.2,372.3 		"/>
	</g>
	<path class="st49" d="M129.2,335.4c2.3,6.7,11,9.7,15.6,10.1c6.4,0.5,8.3-4.5,8.3-4.5s-5.2-2.6-4.7-5.5c0.3-1.7,1.1-3.4,2.1-5
		c0.5-0.9,1.1-1.7,1.8-2.5l-8.4-17.9C142.1,318,136.4,332.9,129.2,335.4L129.2,335.4z"/>
	<path class="st31" d="M143.6,318.5c-4,8.7,1.6,14.7,4.8,17c0.3-1.7,1.1-3.4,2.1-5L143.6,318.5L143.6,318.5z"/>
	<g>
		<g>
			<path class="st53" d="M171.6,295.2c0,0,2.7,14.8-5,20.7c-7.7,5.9-8.5-21.7-8.5-21.7L171.6,295.2L171.6,295.2z"/>
			<path class="st41" d="M171.6,295.2c0,0,2.7,14.8-5,20.7c-7.7,5.9-8.5-21.7-8.5-21.7L171.6,295.2L171.6,295.2z"/>
		</g>
		<path class="st49" d="M144.1,328.3c4,5.4,10.2,6.6,15.6,4.8c3.4-1.2,6.5-3.7,8.4-7.2c0.2-0.5,0.5-0.9,0.7-1.4
			c3.6-9.2,4.4-31.5-5.4-30.7c-8,0.7-15.9-1.8-20,5.1c-1.2,2-1.9,4.2-2,6.5C140.5,316,139.5,322.2,144.1,328.3L144.1,328.3z"/>
		<path class="st21" d="M157,310.6c-0.2,0.8,0.2,1.6,0.8,1.7c0.6,0.1,1.1-0.6,1.2-1.4s-0.2-1.6-0.8-1.7
			C157.7,309.1,157.1,309.7,157,310.6z"/>
		<path class="st21" d="M166.7,311.9c-0.2,0.8,0.2,1.6,0.8,1.7c0.6,0.1,1.1-0.6,1.2-1.4s-0.2-1.6-0.8-1.7
			C167.4,310.5,166.8,311.1,166.7,311.9z"/>
		<path class="st54" d="M163.6,311.9c0.6,2.8,1.7,5.4,3.1,7.9c-1.3,0.7-2.9,0.8-4.2,0.2L163.6,311.9L163.6,311.9z"/>
		<path class="st21" d="M154.4,307c0.2,0,0.4,0,0.5-0.1c0.9-0.9,2.2-1.4,3.5-1.2c0.3,0.1,0.5-0.1,0.6-0.4c0.1-0.3-0.1-0.5-0.4-0.6
			l0,0c-1.6-0.2-3.3,0.3-4.4,1.5c-0.2,0.2-0.2,0.5,0,0.7l0,0C154.3,306.9,154.3,307,154.4,307L154.4,307z"/>
		<path class="st21" d="M171.4,309.2c0.1,0,0.2,0.1,0.3,0.1c0.3-0.1,0.4-0.4,0.3-0.6c0,0,0,0,0,0c-0.5-1.6-1.7-2.8-3.2-3.4
			c-0.3-0.1-0.6,0.1-0.6,0.4l0,0c-0.1,0.3,0.1,0.5,0.4,0.6l0,0c1.2,0.5,2.1,1.5,2.5,2.7C171.1,309,171.2,309.1,171.4,309.2
			L171.4,309.2z"/>
		<path class="st50" d="M155.6,320.4c0,0,1.8,3.8,5.4,3.7"/>
		<g>
			<path class="st53" d="M151,293.3l0.1,4.7c-1.6,0.7-2.7,2.3-2.2,4.2c1.1,4.1-1.7,10-4.9,12.1c0,0,0.1-1.7-1.4-1.4
				c-1.5,0.3-1.9,9.2,0.5,13.7c0,0-5.1-4.7-6.7-14.3c-1.4-8.8-1.2-14.4,0.1-18.6L151,293.3L151,293.3z"/>
			<path class="st41" d="M151,293.3l0.1,4.7c-1.6,0.7-2.7,2.3-2.2,4.2c1.1,4.1-1.7,10-4.9,12.1c0,0,0.1-1.7-1.4-1.4
				c-1.5,0.3-1.9,9.2,0.5,13.7c0,0-5.1-4.7-6.7-14.3c-1.4-8.8-1.2-14.4,0.1-18.6L151,293.3L151,293.3z"/>
		</g>
		<path class="st21" d="M135.6,299c0,0,6.1,0.9,15.5-1c14.6-2.9,20.9,2.5,20.9,2.5s3.5-3,3-7.2c-0.4-4.2-6.3-4.9-6.3-4.9
			s-1.8-4.7-5.6-6.2c-3.9-1.4-7.8,2.2-7.8,2.2s-4.8-4.7-10.5-3.3c-6.9,1.6-6.8,8.2-6.8,8.2s-6.6,0.7-6.5,4.1S135.6,299,135.6,299
			L135.6,299z"/>
		<ellipse class="st50" cx="158.1" cy="311.3" rx="4.8" ry="5.5"/>
		<path class="st50" d="M174.8,312.1c0,3-2.1,5.5-4.8,5.5s-4.8-2.5-4.8-5.5s2.1-5.5,4.8-5.5S174.8,309.1,174.8,312.1z"/>
		<path class="st50" d="M162.9,311.9c0,0,1.5-1,2.4,0.2"/>
		<path class="st50" d="M153.4,311.3l-8.3-1.1c-1.1-0.1-2.2,0.1-3.1,0.8l-0.4,0.3"/>
		<path class="st54" d="M135.6,313.3c0.8,2.5,2.6,4.7,5,5.9c3.2,1.6,5.4-1.1,5.1-4.5c-0.3-3-2.3-7.5-5.8-7.7
			C136.5,307,134.6,310.2,135.6,313.3L135.6,313.3z"/>
	</g>
	<path class="st31" d="M82.4,391.4c13.7-5.7,24.6-29.2,24.6-29.2l-7.8-4.7L88.6,366c-0.3,1.1-0.6,2.3-1,3.5
		c-1.4,5.4-2.8,11.1-4.1,17C83.2,388.2,82.8,389.8,82.4,391.4L82.4,391.4z"/>
	<polygon class="st26" points="158,393.9 181.6,385.2 182.3,387.3 158.7,395.7 	"/>
	<g>
		
			<rect x="37.7" y="434.7" transform="matrix(0.1566 -0.9877 0.9877 0.1566 -413.8336 454.2663)" class="st26" width="42.8" height="69.4"/>
		<g>
			<polyline class="st55" points="52.4,459 38.5,466.2 49.5,477.4 			"/>
			<polyline class="st55" points="65.7,479.9 79.6,472.7 68.6,461.5 			"/>
			<line class="st55" x1="54.3" y1="478.1" x2="63.8" y2="460.8"/>
		</g>
	</g>
	<path class="st49" d="M91,344.3c0,0-25.8,25.9-29.4,31c-3.5,5-10.3,60.9-10.3,60.9s-1.4,0.5-1.5,1.7s-0.2,16.9,0,17.6
		s12.1,8.1,13.9,6.3c1.7-1.7,4.2-19.5,4.2-19.5l-6.3-6.1c0,0,7.3-41.2,11.9-47.8c4.6-6.7,23.4-20.9,23.4-20.9L91,344.3L91,344.3z"/>
	<path class="st24" d="M110.9,333.9c3.8,8,0.9,24.8-6,30.7c-10.5,9-23.2,16.7-23.2,16.7l-12.7-16.6c0,0,13.5-13.2,21.7-20.8
		C100.5,334.7,110.9,333.9,110.9,333.9L110.9,333.9z"/>
	<polygon class="st26" points="68.9,363.6 67.3,365.7 80.6,383 82.4,381.7 	"/>
	<g>
		<path class="st21" d="M229.9,399.1l15.5,5.8l-8.1-8.1c-0.6,0.3-1.4,0.3-1.9-0.2c-0.6-0.6-0.6-1.6,0-2.3c0.6-0.6,1.6-0.6,2.3,0
			c0.5,0.5,0.6,1.3,0.2,1.9l8.1,8.1l-5.8-15.5l-5.1,1.1l-0.2-1.9l-1-1l-5.7,5.7l1,1l1.9,0.2L229.9,399.1L229.9,399.1z"/>
		<path class="st22" d="M229.9,399.1l15.5,5.8l-8.1-8.1c-0.6,0.3-1.4,0.3-1.9-0.2c-0.6-0.6-0.6-1.6,0-2.3c0.6-0.6,1.6-0.6,2.3,0
			c0.5,0.5,0.6,1.3,0.2,1.9l8.1,8.1l-5.8-15.5l-5.1,1.1l-0.2-1.9l-1-1l-5.7,5.7l1,1l1.9,0.2L229.9,399.1L229.9,399.1z"/>
	</g>
</g>
</svg>
