<?xml version="1.0" encoding="UTF-8"?>
<svg id="Layer_1" data-name="Layer 1" xmlns="http://www.w3.org/2000/svg" viewBox="0 0 819.11 764.33">
  <defs>
    <style>
      .cls-1 {
        fill: #007cff;
      }

      .cls-2 {
        fill: #f5f5f5;
      }

      .cls-3 {
        fill: #ff5551;
      }

      .cls-4, .cls-5, .cls-6, .cls-7, .cls-8, .cls-9 {
        fill: #fff;
      }

      .cls-10 {
        fill: #ececec;
      }

      .cls-11 {
        fill: #ff8b7b;
      }

      .cls-12 {
        fill: #dceee0;
      }

      .cls-13 {
        fill: #1a2e35;
      }

      .cls-14 {
        fill: #545454;
      }

      .cls-15 {
        fill: #7fcc7f;
      }

      .cls-16 {
        fill: #474747;
      }

      .cls-17 {
        fill: #5cbb61;
      }

      .cls-18 {
        opacity: .2;
      }

      .cls-19, .cls-8 {
        opacity: .3;
      }

      .cls-20 {
        opacity: .6;
      }

      .cls-21, .cls-5 {
        opacity: .5;
      }

      .cls-22, .cls-6 {
        opacity: .9;
      }

      .cls-7 {
        opacity: .7;
      }

      .cls-9 {
        opacity: .4;
      }
    </style>
  </defs>
  <rect class="cls-10" x="763.61" y="661.72" width="66.31" height=".5"/>
  <rect class="cls-10" x="574.91" y="667.15" width="17.4" height=".5"/>
  <rect class="cls-10" x="723.18" y="643.13" width="38.42" height=".5"/>
  <rect class="cls-10" x="34.23" y="646.49" width="86.48" height=".5"/>
  <rect class="cls-10" x="138.53" y="646.49" width="12.68" height=".5"/>
  <rect class="cls-10" x="192.41" y="654.95" width="187.54" height=".5"/>
  <rect class="cls-10" x="-70.8" y="629.5" width="1001.02" height=".5"/>
  <ellipse id="_Path_" data-name="&amp;lt;Path&amp;gt;" class="cls-2" cx="429.71" cy="689.54" rx="388.17" ry="22.67"/>
  <g>
    <g>
      <g>
        <path class="cls-13" d="M428.02,604.72c-.93-.36-1.9-.32-2.76,0h-68.66l-28.87,84.59h72.44l1.51-4.59h4.35l24.25-75.22c.63-1.94-.37-4.04-2.27-4.78Zm-31.48,39.87l-2.49,7.73c-1.55,4.81-6.02,8.07-11.07,8.07h-3.48c-6.06,0-10.36-5.9-8.5-11.67l2.49-7.73c1.55-4.81,6.02-8.06,11.07-8.06h3.48c6.06,0,10.36,5.9,8.5,11.67Z"/>
        <path class="cls-8" d="M428.02,604.72c-.93-.36-1.9-.32-2.76,0h-68.66l-28.87,84.59h72.44l1.51-4.59h4.35l24.25-75.22c.63-1.94-.37-4.04-2.27-4.78Zm-31.48,39.87l-2.49,7.73c-1.55,4.81-6.02,8.07-11.07,8.07h-3.48c-6.06,0-10.36-5.9-8.5-11.67l2.49-7.73c1.55-4.81,6.02-8.06,11.07-8.06h3.48c6.06,0,10.36,5.9,8.5,11.67Z"/>
        <path class="cls-13" d="M484.74,684.73h-71.42c2.13,0,3.86,1.73,3.86,3.86v1.46c0,2.13-1.73,3.86-3.86,3.86h71.42c2.13,0,3.86-1.73,3.86-3.86v-1.46c0-2.13-1.73-3.86-3.86-3.86Z"/>
        <path class="cls-8" d="M484.74,684.73h-71.42c2.13,0,3.86,1.73,3.86,3.86v1.46c0,2.13-1.73,3.86-3.86,3.86h71.42c2.13,0,3.86-1.73,3.86-3.86v-1.46c0-2.13-1.73-3.86-3.86-3.86Z"/>
        <g>
          <path class="cls-13" d="M413.32,693.91h-89.78l27.98-86.77c.68-2.12,3.01-3.22,5.08-2.41h0c1.9,.74,2.9,2.84,2.27,4.78l-24.25,75.22h78.7c2.13,0,3.86,1.73,3.86,3.86v1.46c0,2.13-1.73,3.86-3.86,3.86Z"/>
          <g class="cls-20">
            <path class="cls-4" d="M413.32,693.91h-89.78l27.98-86.77c.68-2.12,3.01-3.22,5.08-2.41h0c1.9,.74,2.9,2.84,2.27,4.78l-24.25,75.22h78.7c2.13,0,3.86,1.73,3.86,3.86v1.46c0,2.13-1.73,3.86-3.86,3.86Z"/>
          </g>
        </g>
        <path class="cls-13" d="M388.04,632.93h-3.48c-.26,0-.5,.04-.75,.06,5.52,.6,9.26,6.17,7.51,11.61l-2.49,7.73c-1.47,4.56-5.59,7.7-10.32,8,.33,.04,.66,.06,.99,.06h3.48c5.05,0,9.52-3.26,11.07-8.07l2.49-7.73c1.86-5.77-2.44-11.67-8.5-11.67Z"/>
      </g>
      <path class="cls-1" d="M232.32,358.25h-35.48c-7.45,0-12.96,6.04-12.31,13.49l20.13,230.12c.65,7.45,7.22,13.49,14.67,13.49h35.48l-22.49-257.1Z"/>
      <path class="cls-17" d="M232.32,358.25h-35.48c-7.45,0-12.96,6.04-12.31,13.49l20.13,230.12c.65,7.45,7.22,13.49,14.67,13.49h35.48l-22.49-257.1Z"/>
      <path class="cls-1" d="M546.38,615.35H228.51c-7.45,0-14.01-6.04-14.67-13.49l-20.13-230.12c-.65-7.45,4.86-13.49,12.31-13.49h317.86c7.45,0,14.01,6.04,14.67,13.49l20.13,230.12c.65,7.45-4.86,13.49-12.31,13.49Z"/>
      <path class="cls-15" d="M546.38,615.35H228.51c-7.45,0-14.01-6.04-14.67-13.49l-20.13-230.12c-.65-7.45,4.86-13.49,12.31-13.49h317.86c7.45,0,14.01,6.04,14.67,13.49l20.13,230.12c.65,7.45-4.86,13.49-12.31,13.49Z"/>
      <path class="cls-13" d="M211.82,578.62l2.03,23.24c.65,7.45,7.22,13.49,14.67,13.49h317.86c7.45,0,12.96-6.04,12.31-13.49l-2.03-23.24H211.82Z"/>
      <polygon class="cls-4" points="205.02 369.73 222.29 567.15 544.17 567.15 526.9 369.73 205.02 369.73"/>
    </g>
    <g>
      <polygon class="cls-13" points="280.83 400.59 220.64 400.59 218.75 378.93 278.94 378.93 280.83 400.59"/>
      <polygon class="cls-13" points="382.01 389.76 345.43 389.76 344.49 378.93 381.06 378.93 382.01 389.76"/>
      <polygon class="cls-13" points="312.59 558.22 252.65 558.22 250.11 529.21 310.05 529.21 312.59 558.22"/>
      <polygon class="cls-13" points="385.02 558.22 325.08 558.22 322.54 529.21 382.48 529.21 385.02 558.22"/>
      <polygon class="cls-13" points="457.45 558.22 397.51 558.22 394.98 529.21 454.92 529.21 457.45 558.22"/>
      <polygon class="cls-13" points="529.89 558.22 469.95 558.22 467.41 529.21 527.35 529.21 529.89 558.22"/>
      <polygon class="cls-13" points="426.39 389.76 389.81 389.76 388.87 378.93 425.44 378.93 426.39 389.76"/>
      <polygon class="cls-13" points="470.77 389.76 434.19 389.76 433.25 378.93 469.82 378.93 470.77 389.76"/>
      <polygon class="cls-13" points="515.15 389.76 478.57 389.76 477.63 378.93 514.2 378.93 515.15 389.76"/>
      <polygon class="cls-13" points="539.91 519.45 218.03 519.45 208.95 415.71 530.83 415.71 539.91 519.45"/>
    </g>
    <g class="cls-22">
      <polygon class="cls-4" points="280.83 400.59 220.64 400.59 218.75 378.93 278.94 378.93 280.83 400.59"/>
      <polygon class="cls-4" points="382.01 389.76 345.43 389.76 344.49 378.93 381.06 378.93 382.01 389.76"/>
      <polygon class="cls-4" points="312.59 558.22 252.65 558.22 250.11 529.21 310.05 529.21 312.59 558.22"/>
      <polygon class="cls-4" points="385.02 558.22 325.08 558.22 322.54 529.21 382.48 529.21 385.02 558.22"/>
      <polygon class="cls-4" points="457.45 558.22 397.51 558.22 394.98 529.21 454.92 529.21 457.45 558.22"/>
      <polygon class="cls-4" points="529.89 558.22 469.95 558.22 467.41 529.21 527.35 529.21 529.89 558.22"/>
      <polygon class="cls-4" points="426.39 389.76 389.81 389.76 388.87 378.93 425.44 378.93 426.39 389.76"/>
      <polygon class="cls-4" points="470.77 389.76 434.19 389.76 433.25 378.93 469.82 378.93 470.77 389.76"/>
      <polygon class="cls-4" points="515.15 389.76 478.57 389.76 477.63 378.93 514.2 378.93 515.15 389.76"/>
      <polygon class="cls-4" points="539.91 519.45 218.03 519.45 208.95 415.71 530.83 415.71 539.91 519.45"/>
    </g>
  </g>
  <g>
    <path class="cls-17" d="M311.96,98.8h20.36l20.54,234.74h-20.36c-9.44,0-17.76-7.65-18.59-17.09l-17.55-200.55c-.83-9.44,6.16-17.09,15.6-17.09Z"/>
    <g>
      <path class="cls-1" d="M299.35,122.34c-.08-.9-.88-1.64-1.78-1.64s-1.57,.73-1.49,1.64l1.38,15.73c.08,.9,.88,1.64,1.78,1.64s1.57-.73,1.49-1.64l-1.38-15.73Z"/>
      <path class="cls-12" d="M299.35,122.34c-.08-.9-.88-1.64-1.78-1.64s-1.57,.73-1.49,1.64l1.38,15.73c.08,.9,.88,1.64,1.78,1.64s1.57-.73,1.49-1.64l-1.38-15.73Z"/>
    </g>
    <path class="cls-1" d="M336.67,333.54h83.91c9.44,0,16.42-7.65,15.6-17.09l-17.55-200.55c-.83-9.44-9.15-17.09-18.59-17.09h-83.91c-9.44,0-16.42,7.65-15.6,17.09l17.55,200.55c.83,9.44,9.15,17.09,18.59,17.09Z"/>
    <path class="cls-15" d="M336.67,333.54h83.91c9.44,0,16.42-7.65,15.6-17.09l-17.55-200.55c-.83-9.44-9.15-17.09-18.59-17.09h-83.91c-9.44,0-16.42,7.65-15.6,17.09l17.55,200.55c.83,9.44,9.15,17.09,18.59,17.09Z"/>
    <path class="cls-4" d="M316.47,102.72h21.81c1.43,0,2.73,1.06,3.03,2.48l.15,.68c.74,3.46,3.92,6.05,7.4,6.05h20.73c3.49,0,6.21-2.59,6.35-6.05l.03-.68c.06-1.42,1.17-2.48,2.6-2.48h21.81c7.27,0,13.69,5.9,14.32,13.17l17.55,200.55c.64,7.27-4.74,13.17-12.02,13.17h-83.91c-7.27,0-13.69-5.9-14.32-13.17l-17.55-200.55c-.64-7.27,4.74-13.17,12.02-13.17Z"/>
    <g>
      <path class="cls-13" d="M363.7,104.94c.08,.92,.89,1.67,1.81,1.67s1.6-.75,1.52-1.67-.89-1.67-1.81-1.67-1.6,.75-1.52,1.67Z"/>
      <path class="cls-13" d="M351.73,103.28h5.71c.92,0,1.73,.75,1.81,1.67,.08,.92-.6,1.67-1.52,1.67h-5.71c-.92,0-1.73-.75-1.81-1.67s.6-1.67,1.52-1.67Z"/>
    </g>
    <g>
      <polygon class="cls-13" points="426.29 248.98 316.04 248.98 306.4 138.73 416.65 138.73 426.29 248.98"/>
      <path class="cls-13" d="M329.31,125.65c.43,4.95-3.23,8.97-8.18,8.97s-9.32-4.02-9.75-8.97c-.43-4.95,3.23-8.97,8.18-8.97s9.32,4.02,9.75,8.97Z"/>
      <path class="cls-13" d="M403.34,129.78h-17.22c-2.28,0-4.29-1.85-4.49-4.13h0c-.2-2.28,1.49-4.13,3.77-4.13h17.22c2.28,0,4.29,1.85,4.49,4.13h0c.2,2.28-1.49,4.13-3.77,4.13Z"/>
      <path class="cls-13" d="M365.71,264.41h-36.84c-2.19,0-4.11-1.77-4.31-3.96h0c-.19-2.19,1.43-3.96,3.61-3.96h36.84c2.19,0,4.11,1.77,4.31,3.96h0c.19,2.19-1.43,3.96-3.61,3.96Z"/>
      <path class="cls-13" d="M413.72,279.84h-83.5c-2.19,0-4.11-1.77-4.31-3.96h0c-.19-2.19,1.43-3.96,3.61-3.96h83.5c2.19,0,4.11,1.77,4.31,3.96h0c.19,2.19-1.43,3.96-3.61,3.96Z"/>
      <path class="cls-13" d="M393.88,291.89h-62.61c-2.19,0-4.11-1.77-4.31-3.96h0c-.19-2.19,1.43-3.96,3.61-3.96h62.61c2.19,0,4.11,1.77,4.31,3.96h0c.19,2.19-1.43,3.96-3.61,3.96Z"/>
      <path class="cls-13" d="M406.01,303.94h-73.69c-2.19,0-4.11-1.77-4.31-3.96h0c-.19-2.19,1.43-3.96,3.61-3.96h73.69c2.19,0,4.12,1.77,4.31,3.96h0c.19,2.19-1.43,3.96-3.61,3.96Z"/>
      <path class="cls-13" d="M355.93,315.99h-22.55c-2.19,0-4.11-1.77-4.31-3.96h0c-.19-2.19,1.43-3.96,3.61-3.96h22.55c2.19,0,4.12,1.77,4.31,3.96h0c.19,2.19-1.43,3.96-3.61,3.96Z"/>
      <polygon class="cls-6" points="426.29 248.98 316.04 248.98 306.4 138.73 416.65 138.73 426.29 248.98"/>
      <path class="cls-6" d="M329.31,125.65c.43,4.95-3.23,8.97-8.18,8.97s-9.32-4.02-9.75-8.97c-.43-4.95,3.23-8.97,8.18-8.97s9.32,4.02,9.75,8.97Z"/>
      <path class="cls-6" d="M403.34,129.78h-17.22c-2.28,0-4.29-1.85-4.49-4.13h0c-.2-2.28,1.49-4.13,3.77-4.13h17.22c2.28,0,4.29,1.85,4.49,4.13h0c.2,2.28-1.49,4.13-3.77,4.13Z"/>
      <path class="cls-6" d="M365.71,264.41h-36.84c-2.19,0-4.11-1.77-4.31-3.96h0c-.19-2.19,1.43-3.96,3.61-3.96h36.84c2.19,0,4.11,1.77,4.31,3.96h0c.19,2.19-1.43,3.96-3.61,3.96Z"/>
      <path class="cls-6" d="M413.72,279.84h-83.5c-2.19,0-4.11-1.77-4.31-3.96h0c-.19-2.19,1.43-3.96,3.61-3.96h83.5c2.19,0,4.11,1.77,4.31,3.96h0c.19,2.19-1.43,3.96-3.61,3.96Z"/>
      <path class="cls-6" d="M393.88,291.89h-62.61c-2.19,0-4.11-1.77-4.31-3.96h0c-.19-2.19,1.43-3.96,3.61-3.96h62.61c2.19,0,4.11,1.77,4.31,3.96h0c.19,2.19-1.43,3.96-3.61,3.96Z"/>
      <path class="cls-6" d="M406.01,303.94h-73.69c-2.19,0-4.11-1.77-4.31-3.96h0c-.19-2.19,1.43-3.96,3.61-3.96h73.69c2.19,0,4.12,1.77,4.31,3.96h0c.19,2.19-1.43,3.96-3.61,3.96Z"/>
      <path class="cls-6" d="M355.93,315.99h-22.55c-2.19,0-4.11-1.77-4.31-3.96h0c-.19-2.19,1.43-3.96,3.61-3.96h22.55c2.19,0,4.12,1.77,4.31,3.96h0c.19,2.19-1.43,3.96-3.61,3.96Z"/>
    </g>
  </g>
  <g>
    <path class="cls-1" d="M92.56,512.16h-12.57c-5.11,0-8.88,4.14-8.44,9.24l14,160.05c.45,5.11,4.95,9.24,10.05,9.24h12.57l-15.62-178.54Z"/>
    <path class="cls-17" d="M92.56,512.16h-12.57c-5.11,0-8.88,4.14-8.44,9.24l14,160.05c.45,5.11,4.95,9.24,10.05,9.24h12.57l-15.62-178.54Z"/>
    <path class="cls-1" d="M296.84,690.7H101.08c-5.11,0-9.61-4.14-10.05-9.24l-14-160.05c-.45-5.11,3.33-9.24,8.44-9.24h195.76c5.11,0,9.61,4.14,10.05,9.24l14,160.05c.45,5.11-3.33,9.24-8.44,9.24Z"/>
    <path class="cls-15" d="M296.84,690.7H101.08c-5.11,0-9.61-4.14-10.05-9.24l-14-160.05c-.45-5.11,3.33-9.24,8.44-9.24h195.76c5.11,0,9.61,4.14,10.05,9.24l14,160.05c.45,5.11-3.33,9.24-8.44,9.24Z"/>
    <g>
      <path class="cls-1" d="M211.55,677.43h214.25v4.32c0,6.63-5.38,12.01-12.01,12.01H211.55v-16.32h0Z"/>
      <path class="cls-14" d="M211.55,677.43h214.25v4.32c0,6.63-5.38,12.01-12.01,12.01H211.55v-16.32h0Z"/>
      <path class="cls-9" d="M336.3,685.59h-17.12c-4.51,0-8.16-3.65-8.16-8.16h33.44c0,4.51-3.65,8.16-8.16,8.16Z"/>
    </g>
    <polygon class="cls-4" points="292.96 663.66 280.64 522.87 87.9 522.87 100.22 663.66 292.96 663.66"/>
    <path class="cls-13" d="M192.82,517.6c.12,1.32-.86,2.39-2.18,2.39s-2.48-1.07-2.6-2.39c-.12-1.32,.86-2.39,2.18-2.39s2.48,1.07,2.6,2.39Z"/>
    <path class="cls-16" d="M91.67,677.43H225.98v4.32c0,6.63-5.38,12.01-12.01,12.01H103.68c-6.63,0-12.01-5.38-12.01-12.01v-4.32h0Z"/>
    <g>
      <path class="cls-9" d="M112.64,687.12h-9.31c-1.13,0-2.04-.91-2.04-2.04h0c0-1.13,.91-2.04,2.04-2.04h9.31c1.13,0,2.04,.91,2.04,2.04h0c0,1.13-.91,2.04-2.04,2.04Z"/>
      <path class="cls-9" d="M132.66,687.12h-9.31c-1.13,0-2.04-.91-2.04-2.04h0c0-1.13,.91-2.04,2.04-2.04h9.31c1.13,0,2.04,.91,2.04,2.04h0c0,1.13-.91,2.04-2.04,2.04Z"/>
    </g>
    <g>
      <g>
        <polygon class="cls-13" points="131.1 545.15 98.58 545.15 97.47 532.53 129.99 532.53 131.1 545.15"/>
        <polygon class="cls-13" points="201.17 537.12 180.82 537.12 180.42 532.53 200.77 532.53 201.17 537.12"/>
        <polygon class="cls-13" points="225.66 537.12 205.31 537.12 204.9 532.53 225.26 532.53 225.66 537.12"/>
        <polygon class="cls-13" points="250.14 537.12 229.79 537.12 229.39 532.53 249.74 532.53 250.14 537.12"/>
        <polygon class="cls-13" points="274.63 537.12 254.28 537.12 253.88 532.53 274.23 532.53 274.63 537.12"/>
        <polygon class="cls-13" points="278.34 579.58 101.59 579.58 99.18 552.04 275.93 552.04 278.34 579.58"/>
        <polygon class="cls-13" points="216.1 637.74 106.68 637.74 102.03 584.56 211.44 584.56 216.1 637.74"/>
        <path class="cls-13" d="M185.85,648.45H110.1c-1.37,0-2.58-1.11-2.7-2.49h0c-.12-1.37,.9-2.49,2.27-2.49h75.75c1.37,0,2.58,1.11,2.7,2.49h0c.12,1.37-.9,2.49-2.27,2.49Z"/>
        <path class="cls-13" d="M178.52,656.48H110.8c-1.37,0-2.58-1.11-2.7-2.49h0c-.12-1.37,.9-2.49,2.27-2.49h67.72c1.37,0,2.58,1.11,2.7,2.49h0c.12,1.37-.9,2.49-2.27,2.49Z"/>
        <path class="cls-13" d="M274.36,618.61h-44.44c-1.37,0-2.58-1.11-2.7-2.49h0c-.12-1.37,.9-2.49,2.27-2.49h44.44c1.37,0,2.58,1.11,2.7,2.49h0c.12,1.37-.9,2.49-2.27,2.49Z"/>
        <path class="cls-13" d="M267.02,626.64h-36.4c-1.37,0-2.58-1.11-2.7-2.49h0c-.12-1.37,.9-2.49,2.27-2.49h36.4c1.37,0,2.58,1.11,2.7,2.49h0c.12,1.37-.9,2.49-2.27,2.49Z"/>
        <polygon class="cls-13" points="277.83 608.66 225.8 608.66 223.69 584.56 275.72 584.56 277.83 608.66"/>
        <polygon class="cls-13" points="282.06 657.06 230.03 657.06 227.92 632.95 279.95 632.95 282.06 657.06"/>
      </g>
      <g class="cls-22">
        <polygon class="cls-4" points="131.1 545.15 98.58 545.15 97.47 532.53 129.99 532.53 131.1 545.15"/>
        <polygon class="cls-4" points="201.17 537.12 180.82 537.12 180.42 532.53 200.77 532.53 201.17 537.12"/>
        <polygon class="cls-4" points="225.66 537.12 205.31 537.12 204.9 532.53 225.26 532.53 225.66 537.12"/>
        <polygon class="cls-4" points="250.14 537.12 229.79 537.12 229.39 532.53 249.74 532.53 250.14 537.12"/>
        <polygon class="cls-4" points="274.63 537.12 254.28 537.12 253.88 532.53 274.23 532.53 274.63 537.12"/>
        <polygon class="cls-4" points="278.34 579.58 101.59 579.58 99.18 552.04 275.93 552.04 278.34 579.58"/>
        <polygon class="cls-4" points="216.1 637.74 106.68 637.74 102.03 584.56 211.44 584.56 216.1 637.74"/>
        <path class="cls-4" d="M185.85,648.45H110.1c-1.37,0-2.58-1.11-2.7-2.49h0c-.12-1.37,.9-2.49,2.27-2.49h75.75c1.37,0,2.58,1.11,2.7,2.49h0c.12,1.37-.9,2.49-2.27,2.49Z"/>
        <path class="cls-4" d="M178.52,656.48H110.8c-1.37,0-2.58-1.11-2.7-2.49h0c-.12-1.37,.9-2.49,2.27-2.49h67.72c1.37,0,2.58,1.11,2.7,2.49h0c.12,1.37-.9,2.49-2.27,2.49Z"/>
        <path class="cls-4" d="M274.36,618.61h-44.44c-1.37,0-2.58-1.11-2.7-2.49h0c-.12-1.37,.9-2.49,2.27-2.49h44.44c1.37,0,2.58,1.11,2.7,2.49h0c.12,1.37-.9,2.49-2.27,2.49Z"/>
        <path class="cls-4" d="M267.02,626.64h-36.4c-1.37,0-2.58-1.11-2.7-2.49h0c-.12-1.37,.9-2.49,2.27-2.49h36.4c1.37,0,2.58,1.11,2.7,2.49h0c.12,1.37-.9,2.49-2.27,2.49Z"/>
        <polygon class="cls-4" points="277.83 608.66 225.8 608.66 223.69 584.56 275.72 584.56 277.83 608.66"/>
        <polygon class="cls-4" points="282.06 657.06 230.03 657.06 227.92 632.95 279.95 632.95 282.06 657.06"/>
      </g>
    </g>
  </g>
  <g>
    <g>
      <path class="cls-1" d="M102.82,141.7h-17.27c-9.81,0-17.07,7.95-16.21,17.76l19.28,220.35c.86,9.81,9.51,17.76,19.32,17.76h17.27l-22.39-255.88Z"/>
      <path class="cls-17" d="M102.82,141.7h-17.27c-9.81,0-17.07,7.95-16.21,17.76l19.28,220.35c.86,9.81,9.51,17.76,19.32,17.76h17.27l-22.39-255.88Z"/>
      <path class="cls-1" d="M114.81,397.58h151.39c9.81,0,17.07-7.95,16.21-17.76l-19.28-220.35c-.86-9.81-9.51-17.76-19.32-17.76H92.43c-9.81,0-17.07,7.95-16.21,17.76l19.28,220.35c.86,9.81,9.51,17.76,19.32,17.76Z"/>
      <path class="cls-15" d="M114.81,397.58h151.39c9.81,0,17.07-7.95,16.21-17.76l-19.28-220.35c-.86-9.81-9.51-17.76-19.32-17.76H92.43c-9.81,0-17.07,7.95-16.21,17.76l19.28,220.35c.86,9.81,9.51,17.76,19.32,17.76Z"/>
      <polygon class="cls-4" points="276.21 379.82 256.93 159.46 82.42 159.46 101.69 379.82 276.21 379.82"/>
      <path class="cls-12" d="M190.17,393.77c-3.08,0-5.81-2.51-6.08-5.59-.27-3.08,2.02-5.59,5.1-5.59s5.81,2.51,6.08,5.59c.27,3.08-2.02,5.59-5.1,5.59Zm-.86-9.81c-2.32,0-4.05,1.89-3.85,4.22,.2,2.32,2.26,4.21,4.58,4.21s4.05-1.89,3.85-4.21c-.2-2.32-2.26-4.22-4.58-4.22Z"/>
    </g>
    <g>
      <polygon class="cls-13" points="249.37 180.88 236.52 180.88 235.39 168.03 248.25 168.03 249.37 180.88"/>
      <polygon class="cls-13" points="130.93 180.88 94.2 180.88 93.07 168.03 129.8 168.03 130.93 180.88"/>
      <polygon class="cls-13" points="257.81 277.3 102.63 277.3 95.56 196.49 250.74 196.49 257.81 277.3"/>
      <polygon class="cls-13" points="200.36 365.86 110.38 365.86 103.6 288.31 193.58 288.31 200.36 365.86"/>
      <polygon class="cls-13" points="224.97 305.99 204.31 305.99 202.76 288.31 223.42 288.31 224.97 305.99"/>
      <path class="cls-13" d="M253.79,294.28h-22.61c-1.65,0-3.1-1.34-3.25-2.98h0c-.14-1.65,1.08-2.98,2.72-2.98h22.61c1.65,0,3.1,1.34,3.25,2.98h0c.14,1.65-1.07,2.98-2.72,2.98Z"/>
      <path class="cls-13" d="M257.33,305.99h-25.14c-1.65,0-3.1-1.34-3.25-2.98h0c-.14-1.65,1.08-2.98,2.72-2.98h25.14c1.65,0,3.1,1.34,3.25,2.98h0c.14,1.65-1.07,2.98-2.72,2.98Z"/>
      <path class="cls-13" d="M255.83,317.7h-47.52c-1.65,0-3.1-1.34-3.25-2.98h0c-.14-1.65,1.07-2.98,2.72-2.98h47.52c1.65,0,3.1,1.34,3.25,2.98h0c.14,1.65-1.08,2.98-2.72,2.98Z"/>
      <path class="cls-13" d="M259.38,329.4h-50.04c-1.65,0-3.1-1.34-3.25-2.98h0c-.14-1.65,1.07-2.98,2.72-2.98h50.04c1.65,0,3.1,1.34,3.25,2.98h0c.14,1.65-1.07,2.98-2.72,2.98Z"/>
      <path class="cls-13" d="M253.98,341.11h-43.61c-1.65,0-3.1-1.34-3.25-2.98h0c-.14-1.65,1.07-2.98,2.72-2.98h43.61c1.65,0,3.1,1.34,3.25,2.98h0c.14,1.65-1.08,2.98-2.72,2.98Z"/>
      <path class="cls-13" d="M261.43,352.82h-50.04c-1.65,0-3.1-1.34-3.25-2.98h0c-.14-1.65,1.07-2.98,2.72-2.98h50.04c1.65,0,3.1,1.34,3.25,2.98h0c.14,1.65-1.07,2.98-2.72,2.98Z"/>
      <path class="cls-13" d="M246.9,364.52h-34.49c-1.65,0-3.1-1.34-3.25-2.98h0c-.14-1.65,1.07-2.98,2.72-2.98h34.49c1.65,0,3.1,1.34,3.25,2.98h0c.14,1.65-1.07,2.98-2.72,2.98Z"/>
      <polygon class="cls-6" points="249.37 180.88 236.52 180.88 235.39 168.03 248.25 168.03 249.37 180.88"/>
      <polygon class="cls-6" points="130.93 180.88 94.2 180.88 93.07 168.03 129.8 168.03 130.93 180.88"/>
      <polygon class="cls-6" points="257.81 277.3 102.63 277.3 95.56 196.49 250.74 196.49 257.81 277.3"/>
      <polygon class="cls-6" points="200.36 365.86 110.38 365.86 103.6 288.31 193.58 288.31 200.36 365.86"/>
      <polygon class="cls-6" points="224.97 305.99 204.31 305.99 202.76 288.31 223.42 288.31 224.97 305.99"/>
      <path class="cls-6" d="M253.79,294.28h-22.61c-1.65,0-3.1-1.34-3.25-2.98h0c-.14-1.65,1.08-2.98,2.72-2.98h22.61c1.65,0,3.1,1.34,3.25,2.98h0c.14,1.65-1.07,2.98-2.72,2.98Z"/>
      <path class="cls-6" d="M257.33,305.99h-25.14c-1.65,0-3.1-1.34-3.25-2.98h0c-.14-1.65,1.08-2.98,2.72-2.98h25.14c1.65,0,3.1,1.34,3.25,2.98h0c.14,1.65-1.07,2.98-2.72,2.98Z"/>
      <path class="cls-6" d="M255.83,317.7h-47.52c-1.65,0-3.1-1.34-3.25-2.98h0c-.14-1.65,1.07-2.98,2.72-2.98h47.52c1.65,0,3.1,1.34,3.25,2.98h0c.14,1.65-1.08,2.98-2.72,2.98Z"/>
      <path class="cls-6" d="M259.38,329.4h-50.04c-1.65,0-3.1-1.34-3.25-2.98h0c-.14-1.65,1.07-2.98,2.72-2.98h50.04c1.65,0,3.1,1.34,3.25,2.98h0c.14,1.65-1.07,2.98-2.72,2.98Z"/>
      <path class="cls-6" d="M253.98,341.11h-43.61c-1.65,0-3.1-1.34-3.25-2.98h0c-.14-1.65,1.07-2.98,2.72-2.98h43.61c1.65,0,3.1,1.34,3.25,2.98h0c.14,1.65-1.08,2.98-2.72,2.98Z"/>
      <path class="cls-6" d="M261.43,352.82h-50.04c-1.65,0-3.1-1.34-3.25-2.98h0c-.14-1.65,1.07-2.98,2.72-2.98h50.04c1.65,0,3.1,1.34,3.25,2.98h0c.14,1.65-1.07,2.98-2.72,2.98Z"/>
      <path class="cls-6" d="M246.9,364.52h-34.49c-1.65,0-3.1-1.34-3.25-2.98h0c-.14-1.65,1.07-2.98,2.72-2.98h34.49c1.65,0,3.1,1.34,3.25,2.98h0c.14,1.65-1.07,2.98-2.72,2.98Z"/>
    </g>
  </g>
  <g>
    <path class="cls-13" d="M412,492.9h-37.64c-5.31,0-10.02-4.32-10.48-9.63l-3.29-37.64c-.23-2.67,.6-5.18,2.34-7.09,1.74-1.89,4.16-2.94,6.81-2.94h37.64c5.32,0,10.02,4.32,10.48,9.63l3.29,37.64c.23,2.67-.6,5.18-2.34,7.08-1.74,1.9-4.16,2.94-6.81,2.94Zm-42.26-52.79c-1.38,0-2.62,.52-3.49,1.48-.88,.96-1.3,2.26-1.18,3.65l3.29,37.64c.27,3.04,2.96,5.52,5.99,5.52h37.64c1.38,0,2.62-.52,3.49-1.48,.88-.96,1.3-2.26,1.18-3.65l-3.29-37.64c-.27-3.04-2.96-5.52-6-5.52h-37.64Z"/>
    <g class="cls-21">
      <path class="cls-4" d="M412,492.9h-37.64c-5.31,0-10.02-4.32-10.48-9.63l-3.29-37.64c-.23-2.67,.6-5.18,2.34-7.09,1.74-1.89,4.16-2.94,6.81-2.94h37.64c5.32,0,10.02,4.32,10.48,9.63l3.29,37.64c.23,2.67-.6,5.18-2.34,7.08-1.74,1.9-4.16,2.94-6.81,2.94Zm-42.26-52.79c-1.38,0-2.62,.52-3.49,1.48-.88,.96-1.3,2.26-1.18,3.65l3.29,37.64c.27,3.04,2.96,5.52,5.99,5.52h37.64c1.38,0,2.62-.52,3.49-1.48,.88-.96,1.3-2.26,1.18-3.65l-3.29-37.64c-.27-3.04-2.96-5.52-6-5.52h-37.64Z"/>
    </g>
    <path class="cls-1" d="M383.07,479.93l-28.73-26.42c-2.01-1.85-2.15-4.99-.29-7h0c1.85-2.02,4.99-2.15,7-.29l21.41,19.69,41.5-45.48c1.84-2.02,4.98-2.16,7-.32h0c2.02,1.84,2.16,4.98,.32,7l-48.2,52.83Z"/>
    <path class="cls-17" d="M383.07,479.93l-28.73-26.42c-2.01-1.85-2.15-4.99-.29-7h0c1.85-2.02,4.99-2.15,7-.29l21.41,19.69,41.5-45.48c1.84-2.02,4.98-2.16,7-.32h0c2.02,1.84,2.16,4.98,.32,7l-48.2,52.83Z"/>
  </g>
  <g>
    <path class="cls-13" d="M208.81,277.9h-33.87c-4.78,0-9.02-3.89-9.43-8.67l-2.96-33.87c-.21-2.4,.54-4.66,2.11-6.38,1.56-1.71,3.74-2.64,6.13-2.64h33.87c4.78,0,9.02,3.89,9.43,8.67l2.96,33.87c.21,2.4-.54,4.66-2.11,6.38-1.56,1.71-3.74,2.65-6.13,2.65Zm-38.03-47.51c-1.24,0-2.36,.47-3.14,1.33-.79,.86-1.17,2.03-1.06,3.28l2.96,33.87c.24,2.74,2.66,4.97,5.4,4.97h33.87c1.24,0,2.36-.47,3.14-1.33,.79-.86,1.17-2.03,1.06-3.28l-2.96-33.87c-.24-2.74-2.66-4.97-5.4-4.97h-33.87Z"/>
    <g class="cls-21">
      <path class="cls-4" d="M208.81,277.9h-33.87c-4.78,0-9.02-3.89-9.43-8.67l-2.96-33.87c-.21-2.4,.54-4.66,2.11-6.38,1.56-1.71,3.74-2.64,6.13-2.64h33.87c4.78,0,9.02,3.89,9.43,8.67l2.96,33.87c.21,2.4-.54,4.66-2.11,6.38-1.56,1.71-3.74,2.65-6.13,2.65Zm-38.03-47.51c-1.24,0-2.36,.47-3.14,1.33-.79,.86-1.17,2.03-1.06,3.28l2.96,33.87c.24,2.74,2.66,4.97,5.4,4.97h33.87c1.24,0,2.36-.47,3.14-1.33,.79-.86,1.17-2.03,1.06-3.28l-2.96-33.87c-.24-2.74-2.66-4.97-5.4-4.97h-33.87Z"/>
    </g>
    <path class="cls-1" d="M182.77,266.22l-25.86-23.78c-1.81-1.67-1.93-4.49-.26-6.3h0c1.67-1.81,4.49-1.93,6.3-.26l19.27,17.72,37.35-40.93c1.66-1.82,4.48-1.95,6.3-.29h0c1.82,1.66,1.95,4.48,.29,6.3l-43.38,47.54Z"/>
    <path class="cls-17" d="M182.77,266.22l-25.86-23.78c-1.81-1.67-1.93-4.49-.26-6.3h0c1.67-1.81,4.49-1.93,6.3-.26l19.27,17.72,37.35-40.93c1.66-1.82,4.48-1.95,6.3-.29h0c1.82,1.66,1.95,4.48,.29,6.3l-43.38,47.54Z"/>
  </g>
  <g>
    <path class="cls-13" d="M220.51,616.87h-37.64c-5.31,0-10.02-4.32-10.48-9.63l-3.29-37.64c-.23-2.67,.6-5.18,2.34-7.09,1.74-1.9,4.16-2.94,6.82-2.94h37.64c5.32,0,10.02,4.32,10.48,9.63l3.29,37.64c.23,2.67-.6,5.18-2.34,7.08-1.74,1.9-4.16,2.94-6.81,2.94Zm-42.26-52.79c-1.38,0-2.62,.52-3.49,1.48-.88,.96-1.3,2.26-1.18,3.65l3.29,37.64c.27,3.04,2.96,5.52,5.99,5.52h37.64c1.38,0,2.62-.52,3.49-1.48,.88-.96,1.3-2.26,1.18-3.65l-3.29-37.64c-.27-3.04-2.96-5.52-5.99-5.52h-37.64Z"/>
    <g class="cls-21">
      <path class="cls-4" d="M220.51,616.87h-37.64c-5.31,0-10.02-4.32-10.48-9.63l-3.29-37.64c-.23-2.67,.6-5.18,2.34-7.09,1.74-1.9,4.16-2.94,6.82-2.94h37.64c5.32,0,10.02,4.32,10.48,9.63l3.29,37.64c.23,2.67-.6,5.18-2.34,7.08-1.74,1.9-4.16,2.94-6.81,2.94Zm-42.26-52.79c-1.38,0-2.62,.52-3.49,1.48-.88,.96-1.3,2.26-1.18,3.65l3.29,37.64c.27,3.04,2.96,5.52,5.99,5.52h37.64c1.38,0,2.62-.52,3.49-1.48,.88-.96,1.3-2.26,1.18-3.65l-3.29-37.64c-.27-3.04-2.96-5.52-5.99-5.52h-37.64Z"/>
    </g>
    <path class="cls-1" d="M191.57,603.9l-28.73-26.42c-2.01-1.85-2.15-4.99-.29-7h0c1.85-2.02,4.99-2.15,7-.29l21.41,19.69,41.5-45.48c1.84-2.02,4.98-2.16,7-.32h0c2.02,1.84,2.16,4.98,.32,7l-48.2,52.83Z"/>
    <path class="cls-17" d="M191.57,603.9l-28.73-26.42c-2.01-1.85-2.15-4.99-.29-7h0c1.85-2.02,4.99-2.15,7-.29l21.41,19.69,41.5-45.48c1.84-2.02,4.98-2.16,7-.32h0c2.02,1.84,2.16,4.98,.32,7l-48.2,52.83Z"/>
  </g>
  <g>
    <path class="cls-13" d="M389.04,228.09h-33.87c-4.78,0-9.02-3.89-9.43-8.67l-2.96-33.87c-.21-2.4,.54-4.66,2.11-6.38,1.56-1.71,3.74-2.64,6.13-2.64h33.87c4.78,0,9.02,3.89,9.43,8.67l2.96,33.87c.21,2.4-.54,4.66-2.11,6.38-1.56,1.71-3.74,2.65-6.13,2.65Zm-38.03-47.51c-1.24,0-2.36,.47-3.14,1.33-.79,.86-1.17,2.03-1.06,3.28l2.96,33.87c.24,2.74,2.66,4.97,5.4,4.97h33.87c1.24,0,2.36-.47,3.14-1.33,.79-.86,1.17-2.03,1.06-3.28l-2.96-33.87c-.24-2.74-2.66-4.97-5.4-4.97h-33.87Z"/>
    <g class="cls-21">
      <path class="cls-4" d="M389.04,228.09h-33.87c-4.78,0-9.02-3.89-9.43-8.67l-2.96-33.87c-.21-2.4,.54-4.66,2.11-6.38,1.56-1.71,3.74-2.64,6.13-2.64h33.87c4.78,0,9.02,3.89,9.43,8.67l2.96,33.87c.21,2.4-.54,4.66-2.11,6.38-1.56,1.71-3.74,2.65-6.13,2.65Zm-38.03-47.51c-1.24,0-2.36,.47-3.14,1.33-.79,.86-1.17,2.03-1.06,3.28l2.96,33.87c.24,2.74,2.66,4.97,5.4,4.97h33.87c1.24,0,2.36-.47,3.14-1.33,.79-.86,1.17-2.03,1.06-3.28l-2.96-33.87c-.24-2.74-2.66-4.97-5.4-4.97h-33.87Z"/>
    </g>
    <path class="cls-1" d="M363,216.41l-25.86-23.78c-1.81-1.67-1.93-4.49-.26-6.3h0c1.67-1.81,4.49-1.93,6.3-.26l19.27,17.72,37.35-40.93c1.66-1.82,4.48-1.95,6.3-.29h0c1.82,1.66,1.95,4.48,.29,6.3l-43.38,47.54Z"/>
    <path class="cls-17" d="M363,216.41l-25.86-23.78c-1.81-1.67-1.93-4.49-.26-6.3h0c1.67-1.81,4.49-1.93,6.3-.26l19.27,17.72,37.35-40.93c1.66-1.82,4.48-1.95,6.3-.29h0c1.82,1.66,1.95,4.48,.29,6.3l-43.38,47.54Z"/>
  </g>
  <g>
    <path class="cls-13" d="M677.25,536.8h23.75c12.42,0,22.91-9.7,23.89-22.08l4.32-54.78-9.01-.71-4.32,54.78c-.61,7.71-7.15,13.76-14.88,13.76h-23.75v9.04Z"/>
    <path class="cls-8" d="M677.25,536.8h23.75c12.42,0,22.91-9.7,23.89-22.08l4.32-54.78-9.01-.71-4.32,54.78c-.61,7.71-7.15,13.76-14.88,13.76h-23.75v9.04Z"/>
    <path class="cls-18" d="M710.25,524.51l-1.42,6.44c-.43,1.96-1.31,3.7-2.47,5.21-1.73,.4-3.52,.64-5.36,.64h-23.75v-9.04h23.75c3.47,0,6.69-1.22,9.25-3.25Z"/>
    <g>
      <path class="cls-1" d="M689.24,465.79c-5.7-.58-9.85-5.68-9.26-11.38l7.18-70.11c.58-5.7,5.68-9.85,11.38-9.26h68.66c3.8,.39,6.57,3.79,6.18,7.59l-7.88,76.98c-.39,3.8-3.79,6.57-7.59,6.18h-68.66Z"/>
      <path class="cls-19" d="M689.24,465.79c-5.7-.58-9.85-5.68-9.26-11.38l7.18-70.11c.58-5.7,5.68-9.85,11.38-9.26h68.66c3.8,.39,6.57,3.79,6.18,7.59l-7.88,76.98c-.39,3.8-3.79,6.57-7.59,6.18h-68.66Z"/>
      <path class="cls-1" d="M765.49,459.61l7.88-76.98c.39-3.8-2.38-7.2-6.18-7.59h0c-5.7-.58-10.79,3.56-11.38,9.26l-7.18,70.11c-.58,5.7,3.56,10.79,9.26,11.38h0c3.8,.39,7.2-2.38,7.59-6.18Z"/>
    </g>
    <path class="cls-13" d="M687.84,669.55l-.62-1.87c-.79-2.39-3.02-4-5.53-4h-64.2c-2.73,0-5.1,1.9-5.69,4.57l-.16,.74c-.57,2.59-2.86,4.43-5.52,4.43h0c-3.61,0-6.29-3.34-5.52-6.86l.16-.74c1.73-7.85,8.68-13.44,16.72-13.44h64.2c7.39,0,13.94,4.74,16.25,11.75l.62,1.87c1.21,3.65-1.51,7.42-5.36,7.42h0c-2.44,0-4.6-1.56-5.36-3.88Z"/>
    <path class="cls-8" d="M687.84,669.55l-.62-1.87c-.79-2.39-3.02-4-5.53-4h-64.2c-2.73,0-5.1,1.9-5.69,4.57l-.16,.74c-.57,2.59-2.86,4.43-5.52,4.43h0c-3.61,0-6.29-3.34-5.52-6.86l.16-.74c1.73-7.85,8.68-13.44,16.72-13.44h64.2c7.39,0,13.94,4.74,16.25,11.75l.62,1.87c1.21,3.65-1.51,7.42-5.36,7.42h0c-2.44,0-4.6-1.56-5.36-3.88Z"/>
    <rect class="cls-18" x="640.17" y="652.39" width="19.86" height="11.29"/>
    <path class="cls-13" d="M650.1,672.14h0c3.12,0,5.65-2.53,5.65-5.65v-150.08h-11.29v150.08c0,3.12,2.53,5.65,5.65,5.65Z"/>
    <path class="cls-8" d="M650.1,672.14h0c3.12,0,5.65-2.53,5.65-5.65v-150.08h-11.29v150.08c0,3.12,2.53,5.65,5.65,5.65Z"/>
    <path class="cls-13" d="M642.19,682.39c0,4.37,3.54,7.91,7.91,7.91s7.91-3.54,7.91-7.91-3.54-7.91-7.91-7.91-7.91,3.54-7.91,7.91Z"/>
    <path class="cls-13" d="M690.94,682.39c0,4.37,3.54,7.91,7.91,7.91s7.91-3.54,7.91-7.91-3.54-7.91-7.91-7.91-7.91,3.54-7.91,7.91Z"/>
    <path class="cls-13" d="M592.57,682.39c0,4.37,3.54,7.91,7.91,7.91s7.91-3.54,7.91-7.91-3.54-7.91-7.91-7.91-7.91,3.54-7.91,7.91Z"/>
    <rect class="cls-18" x="644.45" y="525.15" width="11.29" height="26.71"/>
    <path class="cls-13" d="M613.45,538h74.48c6.25,0,11.65-4.35,12.99-10.45l2.22-10.08h-106.09l3.76,11.39c1.8,5.45,6.89,9.13,12.64,9.13Z"/>
    <path class="cls-8" d="M613.45,538h74.48c6.25,0,11.65-4.35,12.99-10.45l2.22-10.08h-106.09l3.76,11.39c1.8,5.45,6.89,9.13,12.64,9.13Z"/>
    <path class="cls-1" d="M585.36,507.27h115.92c3.66,0,6.64,2.97,6.64,6.64v1.53c0,5.49-4.46,9.94-9.94,9.94h-109.31c-5.49,0-9.94-4.46-9.94-9.94v-1.53c0-3.66,2.97-6.64,6.64-6.64Z" transform="translate(1286.64 1032.66) rotate(180)"/>
    <path class="cls-19" d="M585.36,507.27h115.92c3.66,0,6.64,2.97,6.64,6.64v1.53c0,5.49-4.46,9.94-9.94,9.94h-109.31c-5.49,0-9.94-4.46-9.94-9.94v-1.53c0-3.66,2.97-6.64,6.64-6.64Z" transform="translate(1286.64 1032.66) rotate(180)"/>
    <path class="cls-1" d="M653.13,507.27h70.75c3.66,0,6.64,2.97,6.64,6.64v1.53c0,5.49-4.46,9.94-9.94,9.94h-64.13c-5.49,0-9.94-4.46-9.94-9.94v-1.53c0-3.66,2.97-6.64,6.64-6.64Z" transform="translate(1377 1032.66) rotate(180)"/>
  </g>
  <g>
    <polygon class="cls-11" points="539.78 637.56 533.12 669.69 518.92 667.77 521.85 634.46 539.78 637.56"/>
    <g>
      <path class="cls-13" d="M517.93,666.15l17.24,1.21c.6,.02,1.08,.53,1.06,1.14h0l-.11,13.87c-.1,1.51-1.38,2.65-2.87,2.57-6-.52-8.85-1.08-16.43-1.66-6.76-.23-13.49-.95-20.15-2.16-6.38-1.49-4.68-7.75-1.87-7.68,7.26-.4,14.29-2.69,20.41-6.67,.82-.5,1.77-.72,2.72-.63Z"/>
      <path class="cls-13" d="M509.49,667.44c-.49-.57-.6-1.37-.3-2.05,.11-.46,.45-.83,.89-.97,1.94-.6,6.09,2.7,6.55,3.09,.09,.11,.13,.25,.11,.39-.04,.14-.16,.24-.3,.26-1.36,.24-2.75,.32-4.13,.26-1.03,.03-2.03-.31-2.83-.97Zm.81-2.27c-.21,.08-.38,.26-.45,.47-.17,.44-.11,.94,.17,1.32,.68,.78,2.68,.99,5.47,.65-1.7-1.27-4.17-2.76-5.19-2.44h0Z"/>
      <path class="cls-13" d="M516.17,668.11c-1.45-1.01-3.51-4.42-3.06-6.11,.19-.61,.75-1.01,1.38-.99,.56-.03,1.11,.19,1.49,.6,1.43,1.64,.77,6.13,.77,6.28-.03,.11-.11,.21-.21,.26-.05,.02-.1,.02-.15,0-.07,.02-.15,0-.21-.04Zm-1.66-6.3c-.51,.02-.7,.26-.7,.47,.14,1.86,.95,3.61,2.28,4.9,.32-1.69,.09-3.44-.66-4.98-.18-.23-.45-.38-.74-.39h-.17Z"/>
    </g>
    <polygon class="cls-18" points="521.85 634.46 539.78 637.56 536.41 653.79 520.29 652.13 521.85 634.46"/>
    <path class="cls-13" d="M659.31,426.99s-1.84,30.01-9.86,31.41c-8.02,1.4-109.93,22.18-117.27,46.21-7.34,24.02-13.39,143.83-13.39,143.83l20.39,1.84s28.03-101.62,26.69-128.65c0,0,89.09,0,118.79-16.35,29.7-16.35,15.42-74.71,15.42-74.71l-40.78-3.58Z"/>
    <path class="cls-5" d="M659.31,426.99s-1.84,30.01-9.86,31.41c-8.02,1.4-109.93,22.18-117.27,46.21-7.34,24.02-13.39,143.83-13.39,143.83l20.39,1.84s28.03-101.62,26.69-128.65c0,0,89.09,0,118.79-16.35,29.7-16.35,15.42-74.71,15.42-74.71l-40.78-3.58Z"/>
    <path class="cls-18" d="M568.4,521.61c3.73-.04,11.36-.16,21.12-.57l12.8-9.89,75.08-15.14,2.85-24.17s-73.92,5.15-93.74,16.16c-14.85,8.25-17.64,25.48-18.11,33.61Z"/>
    <polygon class="cls-11" points="587.56 643.88 580.95 676.5 566.69 675.08 569.54 641.39 587.56 643.88"/>
    <g>
      <path class="cls-13" d="M565.45,670.88l17.17,1.88c.6,.04,1.05,.55,1.02,1.16h0l-.63,13.88c-.1,1.51-1.39,2.65-2.88,2.54-.02,0-.03,0-.05,0-5.99-.75-8.75-1.43-16.36-2.3-6.75-.44-13.45-1.38-20.07-2.8-6.23-1.72-4.39-7.91-1.6-7.73,6.61,.37,16.02-2.98,20.72-5.94,.79-.52,1.74-.76,2.68-.68Z"/>
      <path class="cls-13" d="M557.06,671.92c-.51-.59-.61-1.44-.26-2.14,.13-.45,.47-.8,.91-.94,1.98-.44,5.98,2.95,6.43,3.35,.08,.11,.1,.26,.05,.39-.04,.14-.17,.24-.31,.24-1.37,.19-2.76,.24-4.14,.13-.98-.02-1.92-.37-2.67-1.01Zm.73-2.29c-.22,.05-.39,.23-.44,.45-.19,.44-.13,.95,.16,1.33,.63,.79,2.64,1.08,5.44,.84-1.66-1.34-4.07-2.93-5.12-2.62h-.04Z"/>
      <path class="cls-13" d="M563.65,672.69c-1.47-1.01-3.4-4.51-2.89-6.16,.2-.62,.79-1.01,1.43-.96,.56,0,1.09,.24,1.45,.67,1.38,1.68,.51,6.17,.53,6.3-.03,.12-.11,.22-.22,.27-.04,.02-.08,.03-.13,.02-.08,0-.14-.06-.17-.13Zm-1.46-6.21c-.51,0-.76,.25-.74,.46,.09,1.86,.85,3.63,2.13,4.97,.37-1.68,.2-3.45-.48-5.03-.19-.23-.45-.37-.74-.41h-.17Z"/>
    </g>
    <polygon class="cls-18" points="587.3 645.16 584.7 658 568.39 655 569.53 641.43 587.3 645.16"/>
    <path class="cls-11" d="M690.23,331.88c-16.27-2.15-3.61-7.58-3.61-7.58,11.04-2.07,11.71-10.02,10.73-17.55l20.23-14.8c-3.04,9.51-7.03,26.99-1.06,33.69,0,0,4.11,8.64-21.25,6.73l-5.04-.5Z"/>
    <path class="cls-18" d="M709.34,297.99l-11.97,8.75c.24,1.78,.37,3.59,.29,5.33,4.17-.41,10.34-4.64,11.29-8.9,.47-2.12,.63-4.18,.4-5.19Z"/>
    <path class="cls-11" d="M726.67,273.01c-3.62,15.41-4.82,21.99-14.02,29.04-13.84,10.61-31.9,3.86-32.93-12.06-.94-14.33,5.14-37.11,21.38-41.53,16-4.34,29.2,9.14,25.58,24.55Z"/>
    <path class="cls-13" d="M701.94,274.49c-.25,1.31-1.13,2.28-1.97,2.18-.84-.1-1.32-1.24-1.07-2.55,.25-1.31,1.13-2.28,1.97-2.18,.84,.1,1.32,1.24,1.07,2.55Z"/>
    <path class="cls-13" d="M686.11,272.84c-.25,1.31-1.13,2.28-1.97,2.18-.84-.1-1.32-1.24-1.07-2.55,.25-1.31,1.13-2.28,1.97-2.18,.84,.1,1.32,1.24,1.07,2.55Z"/>
    <path class="cls-13" d="M685.4,270.41l-2.91-1.27s1.12,2.64,2.91,1.27Z"/>
    <path class="cls-3" d="M690.11,275.51s-3.24,5.36-6.16,7.79c1.39,1.81,4.41,1.42,4.41,1.42l1.75-9.21Z"/>
    <path class="cls-13" d="M694.83,290.42c-.69,.04-1.42,.02-2.19-.07-.21-.02-.34-.22-.3-.43,.04-.21,.24-.36,.45-.34,5.63,.67,9.02-3.02,9.06-3.06,.15-.17,.39-.19,.54-.05,.15,.14,.16,.38,.01,.54-.13,.14-2.86,3.12-7.57,3.4Z"/>
    <path class="cls-13" d="M706.69,267.62c-.2,0-.4-.09-.53-.26-2.09-2.56-4.91-2.16-4.94-2.16-.42,.06-.79-.22-.83-.65-.03-.42,.28-.82,.71-.88,.15-.02,3.68-.53,6.28,2.65,.26,.32,.2,.81-.14,1.09-.16,.14-.36,.2-.55,.2Z"/>
    <path class="cls-13" d="M682.89,265.13c-.19,0-.38-.06-.52-.2-.29-.28-.28-.77,.02-1.09,3.08-3.16,6.56-2.66,6.71-2.63,.42,.07,.67,.46,.58,.88-.1,.42-.51,.71-.92,.64-.14-.02-2.84-.37-5.29,2.14-.16,.16-.36,.25-.57,.25Z"/>
    <path class="cls-13" d="M701.23,272.06l-2.91-1.27s1.12,2.64,2.91,1.27Z"/>
    <g>
      <path class="cls-11" d="M593.47,402.11l.89-.06c1.71-.12,3.92-.17,5.85-.4,1.99-.23,3.94-.48,5.82-.84,3.75-.7,7.2-1.75,10-3.15,1.4-.69,2.65-1.45,3.71-2.29,.54-.42,1.02-.86,1.48-1.31,.24-.22,.46-.44,.66-.69l.78-.85,4.04-4.37,3.94-4.44c5.19-5.97,10.1-12.13,14.77-18.42,2.34-3.14,4.6-6.32,6.82-9.5,1.11-1.59,2.18-3.2,3.22-4.8,1.01-1.57,2.14-3.28,2.97-4.64l.15-.24c2.9-4.77,9.66-6.69,15.25-4.28,5.69,2.45,8.02,8.46,5.2,13.41-1.2,2.11-2.2,3.82-3.39,5.64-1.15,1.79-2.33,3.55-3.53,5.29-2.38,3.5-4.91,6.9-7.54,10.24-5.26,6.68-10.92,13.1-16.99,19.24-3.02,3.08-6.2,6.04-9.41,8.98-.33,.33-.92,.82-1.5,1.29-.56,.47-1.15,.92-1.75,1.34-1.18,.87-2.46,1.64-3.76,2.33-2.6,1.39-5.33,2.47-8.07,3.24-5.51,1.53-10.96,1.94-16.14,1.69-2.59-.15-5.12-.41-7.6-.89-2.53-.48-4.77-.98-7.45-1.86-2-.66-3.49-2.28-3.67-4.27-.25-2.74,2.11-5.14,5.26-5.35Z"/>
      <path class="cls-17" d="M665.92,333.07s-4.61-.08-22.07,29.84c0,0,7.15,17.46,25.75,18.35,0,0,36.39-50.2-3.68-48.19Z"/>
      <path class="cls-21" d="M660.84,342.46l9.65-2.31,11.33,5.97,2.25,5.64c-2.92,13.56-14.47,29.49-14.47,29.49-8.69-.42-14.85-4.45-18.98-8.63,5.8-12.24,10.22-30.17,10.22-30.17Z"/>
      <path class="cls-11" d="M576,399.07l5.29-2.58c1.99-.97,4.4-1.04,6.46-.2l9.64,3.96c3.85,1.58,6.59,4.69,7.34,8.35l.46,2.26c-8.44,4.8-21.63,4.58-21.63,4.58l-3.77,.3c-3.36,.26-6.2-1.7-6.54-4.52l-.78-6.49c-.27-2.24,1.13-4.49,3.52-5.66Z"/>
    </g>
    <path class="cls-13" d="M677.48,426.99s2.16,46.03-5.86,47.43c-8.02,1.4-81.9,8.17-89.24,32.19-7.34,24.02-15.39,143.83-15.39,143.83l20.39,3.84s32.03-105.63,30.7-132.66c0,0,81.31,2.41,98.77-14.35,17.57-16.86,13.42-76.71,13.42-76.71l-52.8-3.58Z"/>
    <path class="cls-5" d="M677.48,426.99s2.16,46.03-5.86,47.43c-8.02,1.4-81.9,8.17-89.24,32.19-7.34,24.02-15.39,143.83-15.39,143.83l20.39,3.84s32.03-105.63,30.7-132.66c0,0,81.31,2.41,98.77-14.35,17.57-16.86,13.42-76.71,13.42-76.71l-52.8-3.58Z"/>
    <path class="cls-17" d="M690.42,324.03c-.54,.35-13.44,8.73,3.38,8.73s22.16-7.3,22.29-7.48c6.07,.89,12.77,2.18,20.24,4.03l-5.48,112.79s-47.27,4.27-73.69-7.65c0,0-3.37-83,4.48-96.12,0,0,3.9-12.35,28.79-14.29Z"/>
    <path class="cls-21" d="M735.24,350.12l-2.29,43.86c-9.41-31.21-9.12-47.33-9.12-47.33l2.51-5.88,8.9,9.35Z"/>
    <g>
      <path class="cls-11" d="M790.12,357.42c-1.92-.41-3.88,.51-4.98,2.13l-.07,.11c-2.34,3.43-4.71,7.02-7.17,10.41-2.43,3.43-4.88,6.81-7.42,9.98-1.63,2.07-3.34,4.07-5.03,5.83-1.13,1.17-3.1,.84-3.81-.62-2.61-5.43-5.03-11.02-7.33-16.7-1.65-4.17-3.28-8.37-4.83-12.59-1.58-4.17-3.05-8.57-4.44-12.59l-.08-.22c-1.85-5.34-7.85-8.18-13.28-5.96-4.78,1.95-7.14,7.43-5.69,12.39,1.38,4.71,2.95,9,4.57,13.43,1.7,4.49,3.52,8.93,5.5,13.32,1.94,4.4,4.1,8.74,6.38,13.03,2.26,4.3,4.79,8.52,7.46,12.68l.34,.53c.23,.36,.51,.69,.82,1,.96,.95,2.04,1.89,3.53,2.67,1.43,.77,3.16,1.32,4.81,1.47,3.41,.34,5.94-.61,7.81-1.49,3.63-1.89,5.57-3.95,7.43-5.9,3.54-3.93,5.98-7.88,8.33-11.84,2.27-3.98,4.28-7.99,6.1-12.06,1.78-4.11,3.47-8.13,4.93-12.44,.9-2.67-.57-5.85-3.87-6.55Z"/>
      <path class="cls-17" d="M763.87,369.08s-11.32,12.61-30.93,12.67c0,0-20.21-47.82-2.6-52.79,16.68-4.71,33.53,40.12,33.53,40.12Z"/>
      <path class="cls-11" d="M786.9,342.79l-3.88,3.58c-1.46,1.35-2.18,3.31-1.93,5.29l1.16,9.21c.46,3.68,2.68,6.91,5.95,8.67l2.02,1.09c6.85-5.5,10.2-16.48,10.2-16.48l1.3-3.03c1.16-2.69,.06-5.66-2.53-6.82l-5.96-2.66c-2.06-.92-4.58-.46-6.33,1.15Z"/>
    </g>
    <g>
      <path class="cls-1" d="M692.81,460.58l-113.25,10.63c-1.7,.16-2.95,1.67-2.79,3.36,.16,1.7,1.67,2.95,3.36,2.79l113.25-10.63c1.7-.16,2.95-1.67,2.79-3.36-.16-1.7-1.67-2.95-3.36-2.79Z"/>
      <path class="cls-1" d="M581.64,475.32l52.36-4.91c1-.09,1.61-1.15,1.19-2.07l-26.76-58.31c-.74-1.61-2.41-2.57-4.17-2.41l-52.36,4.91c-1,.09-1.61,1.15-1.19,2.07l26.76,58.31c.74,1.61,2.41,2.57,4.17,2.41Z"/>
      <path class="cls-1" d="M579.78,475.49l52.36-4.91c1-.09,1.61-1.15,1.19-2.07l-26.76-58.31c-.74-1.61-2.41-2.57-4.17-2.41l-52.36,4.91c-1,.09-1.61,1.15-1.19,2.07l26.76,58.31c.74,1.61,2.41,2.57,4.17,2.41Z"/>
      <path class="cls-7" d="M579.78,475.49l52.36-4.91c1-.09,1.61-1.15,1.19-2.07l-26.76-58.31c-.74-1.61-2.41-2.57-4.17-2.41l-52.36,4.91c-1,.09-1.61,1.15-1.19,2.07l26.76,58.31c.74,1.61,2.41,2.57,4.17,2.41Z"/>
      <path class="cls-7" d="M639.12,471.82c-1.7,.16-3.2-1.09-3.36-2.79-.16-1.7,1.09-3.2,2.79-3.36l54.27-5.09c1.7-.16,3.2,1.09,3.36,2.79,.16,1.7-1.09,3.2-2.79,3.36l-54.27,5.09Z"/>
      <g>
        <rect class="cls-21" x="648.02" y="466.96" width="4.41" height="1.44" transform="translate(1341.3 872.57) rotate(174.64)"/>
        <rect class="cls-21" x="641.28" y="467.59" width="4.41" height="1.44" transform="translate(1327.9 874.46) rotate(174.64)"/>
      </g>
    </g>
    <path class="cls-13" d="M721.87,284.75s-11.1-8.54-5.41-23.58c0,0-6.15-2.98-13.05-2.99-9.95-.01-21.46,2.13-18.39-5.52,0,0-10.64-13.52,7.46-15.44,0,0-.92-17.03,13.7-6,0,0,12.14-14.45,18.2,5.13,0,0,18.28-9.55,13.51,13.98,0,0,12.93,.23,4.78,15.3,0,0,6.76,9.18-6.68,17.26,0,0,1.09,13.12-8.71,10.76,0,0-11.24,15.74-12.76,8.4-1.42-6.81,7.35-17.29,7.35-17.29Z"/>
    <path class="cls-11" d="M727.51,288.06c-1.74,3.11-4.43,4.96-6.87,5.49-3.66,.8-5.04-3.42-3.65-7.51,1.25-3.68,4.66-8.52,8.16-7.46,3.44,1.04,4.35,5.92,2.36,9.48Z"/>
    <g>
      <polygon class="cls-1" points="719.69 291.95 715.87 298.9 724.55 298.9 720.74 291.95 719.69 291.95"/>
      <polygon class="cls-18" points="719.69 291.95 715.87 298.9 724.55 298.9 720.74 291.95 719.69 291.95"/>
      <polygon class="cls-1" points="715.87 298.9 719.69 291.95 723.51 298.9 715.87 298.9"/>
    </g>
    <polygon class="cls-13" points="517.44 649.33 539.75 651.66 541.5 645.32 517.44 642.65 517.44 649.33"/>
    <polygon class="cls-13" points="565.87 651.67 587.99 655.43 590.14 649.21 566.3 645.01 565.87 651.67"/>
  </g>
  <g>
    <g>
      <path class="cls-13" d="M542.48,316.83c-38.37,0-72.33-31.22-75.68-69.59-3.36-38.38,25.13-69.6,63.51-69.6s72.33,31.22,75.68,69.6c3.36,38.37-25.13,69.59-63.51,69.59Z"/>
      <path class="cls-12" d="M545.83,315.16c-38.37,0-72.33-31.22-75.68-69.6-3.36-38.38,25.13-69.6,63.51-69.6s72.33,31.22,75.68,69.6c3.36,38.37-25.13,69.6-63.51,69.6Z"/>
      <path class="cls-17" d="M545.83,315.16c-38.37,0-72.33-31.22-75.68-69.6-3.36-38.38,25.13-69.6,63.51-69.6s72.33,31.22,75.68,69.6c3.36,38.37-25.13,69.6-63.51,69.6Zm-11.01-125.8c-30.99,0-54,25.21-51.29,56.21,2.71,30.99,30.13,56.21,61.12,56.21s54-25.21,51.29-56.21c-2.71-30.99-30.13-56.21-61.12-56.21Z"/>
      <path class="cls-17" d="M543.59,289.66c-24.31,0-45.82-19.78-47.95-44.09-2.13-24.31,15.92-44.09,40.23-44.09s45.82,19.78,47.95,44.09c2.13,24.31-15.92,44.09-40.23,44.09Zm-6.54-74.79c-16.93,0-29.49,13.77-28.01,30.7,1.48,16.93,16.46,30.7,33.39,30.7s29.5-13.77,28.02-30.7c-1.48-16.93-16.46-30.7-33.39-30.7Z"/>
      <path class="cls-17" d="M557.15,245.57c.84,9.62-6.27,17.41-15.89,17.41s-18.1-7.8-18.94-17.41c-.84-9.62,6.27-17.41,15.89-17.41s18.1,7.8,18.94,17.41Z"/>
    </g>
    <g>
      <polygon class="cls-13" points="588.57 196.91 585.18 183.67 598.97 169.87 602.36 183.11 588.57 196.91"/>
      <polygon class="cls-13" points="588.57 196.91 601.81 200.29 615.6 186.5 602.36 183.11 588.57 196.91"/>
      <rect class="cls-13" x="564.27" y="179.26" width="3.76" height="80.13" transform="translate(320.91 -336.09) rotate(45)"/>
    </g>
  </g>
</svg>