<?xml version="1.0" encoding="UTF-8"?>
<svg id="Layer_1" data-name="Layer 1" xmlns="http://www.w3.org/2000/svg" viewBox="0 0 500 500">
  <defs>
    <style>
      .cls-1 {
        fill: #fff;
      }

      .cls-2 {
        fill: #ffbf9d;
      }

      .cls-3 {
        fill: #ff9a6c;
      }

      .cls-4 {
        fill: #e0e0e0;
      }

      .cls-5 {
        fill: #455a64;
      }

      .cls-6 {
        fill: #263238;
      }

      .cls-7 {
        fill: #5cbb61;
      }

      .cls-8, .cls-9 {
        opacity: .3;
      }

      .cls-9 {
        isolation: isolate;
      }
    </style>
  </defs>
  <g id="Background_Complete" data-name="Background Complete">
    <rect class="cls-4" x="153.33" y="167.05" width="50.58" height="309.69"/>
    <rect class="cls-4" x="223.06" y="187.88" width="50.58" height="288.86"/>
    <rect class="cls-4" x="83.6" y="352.75" width="50.58" height="124"/>
    <rect class="cls-4" x="13.87" y="409.37" width="50.58" height="67.37"/>
    <rect class="cls-4" x="292.79" y="273.21" width="50.58" height="203.54"/>
    <rect class="cls-4" x="362.52" y="340.32" width="50.58" height="136.43"/>
    <rect class="cls-4" x="432.25" y="408.53" width="50.58" height="68.21"/>
    <path class="cls-4" d="M13.87,481.65c-.14,0-.26-97.78-.26-218.38s.12-218.4,.26-218.4,.26,97.76,.26,218.4c0,120.59-.12,218.38-.26,218.38Z"/>
    <path class="cls-4" d="M476.11,134.25c0,.14-103.61,.26-231.39,.26s-231.41-.12-231.41-.26,103.59-.26,231.41-.26,231.39,.12,231.39,.26Z"/>
    <path class="cls-4" d="M476.11,189.11c0,.14-103.61,.26-231.39,.26s-231.41-.12-231.41-.26,103.59-.26,231.41-.26c127.78,0,231.39,.12,231.39,.26Z"/>
    <path class="cls-4" d="M476.11,243.97c0,.14-103.61,.26-231.39,.26s-231.41-.12-231.41-.26,103.59-.26,231.41-.26c127.78,0,231.39,.12,231.39,.26Z"/>
    <path class="cls-4" d="M476.11,298.83c0,.14-103.61,.26-231.39,.26s-231.41-.12-231.41-.26,103.59-.26,231.41-.26c127.78,0,231.39,.12,231.39,.26Z"/>
    <path class="cls-4" d="M476.11,353.69c0,.14-103.61,.26-231.39,.26s-231.41-.12-231.41-.26,103.59-.26,231.41-.26c127.78,0,231.39,.12,231.39,.26Z"/>
    <path class="cls-4" d="M476.11,408.55c0,.14-103.61,.26-231.39,.26s-231.41-.12-231.41-.26,103.59-.26,231.41-.26c127.78,0,231.39,.12,231.39,.26Z"/>
    <path class="cls-4" d="M476.11,79.39c0,.14-103.61,.26-231.39,.26s-231.41-.12-231.41-.26,103.59-.26,231.41-.26,231.39,.12,231.39,.26Z"/>
  </g>
  <g id="Floor">
    <path class="cls-6" d="M17.06,476.79c0-.14,104.53-.26,233.44-.26s233.46,.12,233.46,.26-104.51,.26-233.46,.26-233.44-.12-233.44-.26Z"/>
  </g>
  <g id="Plant">
    <g>
      <g>
        <path class="cls-6" d="M243.06,450.39s-3.86-26.51-3.54-41.94-.02-32.78-.02-32.78h1.78s-1.2,30.62,.11,49.09c1.31,18.45,4.76,25.63,4.76,25.63h-3.09"/>
        <path class="cls-5" d="M254.55,345.83c-.36-.91-.8-1.85-1.62-2.37-1.13-.71-2.6-.42-3.86,.03-5.37,1.9-10.13,11.91-12.3,17.18l7.13,24.02c12.87-11.94,15.1-27.6,10.65-38.85Z"/>
        <path class="cls-6" d="M252.51,344.43s-.03,.11-.1,.31c-.09,.23-.21,.52-.35,.88-.31,.76-.75,1.86-1.27,3.22-1.05,2.73-2.39,6.54-3.58,10.84-1.19,4.3-2.01,8.26-2.52,11.14-.25,1.44-.45,2.61-.57,3.42-.06,.38-.11,.68-.15,.93-.04,.21-.06,.32-.07,.32s0-.11,.01-.33c.03-.25,.06-.56,.1-.94,.09-.81,.25-1.99,.48-3.43,.45-2.89,1.24-6.87,2.44-11.18,1.2-4.31,2.57-8.12,3.67-10.83,.55-1.36,1.02-2.45,1.36-3.19,.16-.35,.29-.63,.4-.85,.1-.19,.15-.29,.16-.29Z"/>
        <path class="cls-5" d="M240.73,390.44c-6.68-3.69-10.62-10.64-10.99-18.26-.26-5.33,1.38-10.56,3.24-15.56,.16-.43,.35-.9,.76-1.13,.56-.32,1.26-.04,1.82,.28,4.85,2.77,7.8,8.04,9.36,13.4,1.04,3.57,1.58,7.33,1.1,11.02-.48,3.69-2.59,7.7-5.29,10.25"/>
        <path class="cls-6" d="M240.73,390.44s-.02-.11-.03-.32c0-.24,0-.55-.02-.92,0-.8-.04-1.96-.1-3.39-.13-2.86-.5-6.79-1.24-11.1-.74-4.3-1.64-8.15-2.3-10.94-.33-1.36-.6-2.48-.79-3.3-.08-.36-.15-.66-.21-.9-.04-.21-.06-.32-.05-.32s.05,.1,.11,.3c.07,.23,.15,.53,.26,.89,.22,.77,.52,1.89,.88,3.28,.71,2.77,1.65,6.62,2.39,10.94,.74,4.31,1.08,8.27,1.16,11.14,.04,1.43,.04,2.59,0,3.39-.01,.37-.03,.68-.04,.92-.01,.21-.02,.32-.03,.32Z"/>
        <g class="cls-8">
          <path d="M240.73,390.44c-6.68-3.69-10.62-10.64-10.99-18.26-.26-5.33,1.38-10.56,3.24-15.56,.16-.43,.35-.9,.76-1.13,.56-.32,1.26-.04,1.82,.28,4.85,2.77,7.8,8.04,9.36,13.4,1.04,3.57,1.58,7.33,1.1,11.02-.48,3.69-2.59,7.7-5.29,10.25"/>
        </g>
        <path class="cls-5" d="M248.27,431.01c6.58,1.45,11.99,6.08,18.33,8.34,4.2,1.49,8.94,2.02,12.3,4.95-.8-2.03-2.71-3.38-4.56-4.54-5.22-3.26-10.8-5.93-16.62-7.93-2.99-1.03-6.22-1.89-9.26-1.04"/>
        <path class="cls-5" d="M238.76,436.87c-8.24-.13-16.91-7.14-25.1-7.56,8.58-2.77,20.86-.51,25.1,7.56"/>
        <path class="cls-5" d="M241.98,417.11c4.18-1.51,8.77-1.58,13.17-.9s8.64,2.09,12.85,3.49c-.42-2.86-2.74-5.01-4.91-6.91-1.64-1.43-3.28-2.87-5.16-3.97s-4.02-1.84-6.19-1.75c-2.62,.11-5.11,1.46-6.83,3.44-1.72,1.98-2.64,3.97-2.93,6.58"/>
        <path class="cls-5" d="M225.07,408.02c-5.18-4.43-13.04-3.99-19.85-3.84,10.48,5.01,21.76,11.88,30.79,19.19,.28-4.82-4.39-9.76-10.94-15.35Z"/>
        <g class="cls-8">
          <path d="M225.07,408.02c-5.18-4.43-13.04-3.99-19.85-3.84,10.48,5.01,21.76,11.88,30.79,19.19,.28-4.82-4.39-9.76-10.94-15.35Z"/>
        </g>
        <path class="cls-5" d="M244.31,401.91c2.61-1.74,5.24-3.39,7.97-4.63s5.27-3.21,7.91-4.64c3.42-1.85,6.38-4.42,9.52-6.72,3.14-2.29,6.58-4.36,10.42-4.97-3.13-.65-6.4-.29-9.48,.55-3.08,.84-6.01,2.16-8.93,3.47-4.04,1.82-8.16,3.69-11.46,6.65-3.31,2.96-6.3,5.88-5.95,10.3"/>
        <path class="cls-6" d="M266.45,436.87s-.1-.03-.26-.11c-.19-.1-.43-.22-.72-.37-.62-.33-1.51-.82-2.63-1.38-.55-.29-1.17-.6-1.84-.91-.66-.33-1.38-.65-2.14-.98-1.52-.65-3.22-1.33-5.07-1.77-1.85-.45-3.69-.55-5.28-.13-.8,.2-1.56,.39-2.24,.67-.68,.27-1.28,.6-1.81,.93-1.05,.66-1.79,1.37-2.27,1.88-.48,.51-.71,.82-.73,.81,0,0,.04-.09,.15-.24,.1-.15,.27-.37,.5-.64,.46-.54,1.18-1.27,2.24-1.97,.53-.35,1.14-.69,1.83-.98,.69-.3,1.46-.5,2.27-.71,1.63-.45,3.54-.35,5.41,.11,1.88,.45,3.59,1.14,5.11,1.8,.76,.34,1.48,.67,2.14,1.01,.67,.32,1.28,.64,1.83,.95,1.11,.59,1.99,1.11,2.59,1.47,.28,.17,.51,.31,.69,.42,.16,.1,.24,.15,.23,.16Z"/>
        <path class="cls-6" d="M232.62,432.79s.19,.04,.52,.15c.33,.11,.79,.31,1.34,.58,1.11,.55,2.57,1.48,3.93,2.79,1.37,1.32,2.35,2.73,2.95,3.82,.3,.54,.51,.99,.64,1.32,.13,.32,.19,.5,.17,.51-.05,.02-.35-.68-.99-1.72-.63-1.05-1.63-2.42-2.97-3.71-1.35-1.29-2.76-2.23-3.83-2.82-1.07-.59-1.78-.87-1.76-.92Z"/>
        <path class="cls-6" d="M214.39,407.61s.12,.03,.35,.1c.26,.09,.58,.21,.99,.35,.44,.16,.96,.35,1.56,.58,.61,.23,1.27,.56,2.01,.89,2.96,1.35,6.91,3.61,10.72,6.83,1.88,1.64,3.58,3.3,5,4.92,1.42,1.63,2.62,3.16,3.55,4.5,.94,1.33,1.65,2.44,2.14,3.21,.23,.36,.42,.65,.56,.88,.13,.2,.19,.31,.18,.32,0,0-.09-.09-.23-.28-.14-.19-.35-.48-.61-.85-.52-.75-1.26-1.84-2.21-3.15-.95-1.32-2.16-2.83-3.58-4.44-1.43-1.61-3.12-3.25-4.99-4.88-3.79-3.2-7.69-5.48-10.62-6.87-.74-.34-1.39-.68-1.99-.92-.59-.24-1.1-.45-1.54-.62-.4-.17-.72-.3-.97-.4-.22-.1-.33-.15-.33-.16Z"/>
        <path class="cls-6" d="M254.33,412.48s-.24-.01-.66-.08c-.23-.04-.48-.09-.76-.14-.29-.06-.64-.06-1.01-.1-1.48-.11-3.64,.02-5.66,1.12-1.02,.52-1.88,1.21-2.58,1.91-.71,.69-1.25,1.42-1.66,2.05-.83,1.27-1.08,2.18-1.13,2.16-.02,0,.03-.24,.17-.64,.15-.4,.38-.98,.79-1.63,.39-.66,.92-1.41,1.64-2.13,.71-.73,1.58-1.45,2.63-1.98,2.09-1.14,4.32-1.23,5.82-1.06,.38,.05,.73,.07,1.02,.14,.28,.07,.53,.13,.75,.19,.42,.11,.64,.18,.63,.2Z"/>
        <path class="cls-6" d="M262.61,386.81s-.1,.08-.31,.19c-.24,.13-.54,.29-.92,.5-.8,.43-1.95,1.07-3.35,1.89-1.39,.83-3.03,1.86-4.77,3.1-1.74,1.25-3.6,2.7-5.33,4.46-.85,.89-1.63,1.81-2.18,2.82-.54,1.04-1.05,2.04-1.53,3-.95,1.92-1.73,3.69-2.29,5.21-.56,1.52-.91,2.79-1.11,3.67-.21,.88-.29,1.38-.32,1.37,0,0,0-.13,.03-.36,.03-.24,.08-.59,.17-1.03,.17-.89,.49-2.18,1.03-3.71,.54-1.54,1.3-3.32,2.24-5.26,.47-.97,.98-1.97,1.52-3.01,.57-1.05,1.36-1.99,2.22-2.89,1.74-1.78,3.63-3.24,5.38-4.48,1.76-1.24,3.41-2.25,4.82-3.06,1.41-.8,2.58-1.41,3.4-1.81,.39-.18,.7-.33,.95-.45,.22-.1,.33-.15,.34-.14Z"/>
        <path class="cls-6" d="M239.52,411.74s-.08-.24-.16-.69c-.1-.51-.22-1.14-.36-1.9-.31-1.6-.79-3.81-1.56-6.18-.76-2.37-1.68-4.44-2.35-5.92-.32-.7-.59-1.29-.8-1.76-.19-.42-.28-.65-.26-.66,.02,0,.15,.21,.37,.61,.22,.4,.53,.99,.89,1.73,.72,1.47,1.68,3.53,2.44,5.92,.77,2.39,1.22,4.62,1.48,6.23,.13,.81,.22,1.47,.27,1.92,.05,.45,.07,.71,.05,.71Z"/>
        <path class="cls-5" d="M238.92,393.01c-.21-3.11-1.22-6.14-2.68-8.89-4-7.56-11.51-13.16-19.89-14.83,6.14,9.15,12.28,18.3,18.42,27.45l2.38,4.9c1.62-2.66,1.98-5.51,1.78-8.62Z"/>
      </g>
      <g>
        <rect class="cls-7" x="222.51" y="447.11" width="42.83" height="7.59"/>
        <polygon class="cls-7" points="225.71 453.19 229.36 476.74 257.79 476.74 262.14 453.19 225.71 453.19"/>
        <path class="cls-6" d="M265.32,454.71c0,.08-9.66,.15-21.57,.15s-21.58-.07-21.58-.15,9.66-.15,21.58-.15c11.91,0,21.57,.07,21.57,.15Z"/>
      </g>
    </g>
  </g>
  <g id="Arrow">
    <g>
      <g>
        <g>
          <path class="cls-7" d="M479.24,476.44C332.8,396.9,174.33,106.12,174.33,106.12l-35.42,4.7c57.6,120.44,120.69,224.11,201.88,310.67,32.75,34.92,55.7,55.39,55.7,55.39l70.63-.55,12.12,.11Z"/>
          <g class="cls-8">
            <path d="M480.09,476.44C333.76,396.67,175.3,106.79,175.3,106.79l-35.42,4.7c57.6,120.44,119.71,223.44,201.88,310.67,32.83,34.85,54.73,54.72,54.73,54.72l70.63-.55,12.97,.11Z"/>
          </g>
        </g>
        <g>
          <polygon class="cls-7" points="231.77 101.45 114.18 117.47 131.98 45.02 154.11 42.99 231.77 101.45"/>
          <polygon class="cls-9" points="231.77 101.45 114.18 117.47 131.98 45.02 154.11 42.99 231.77 101.45"/>
          <polygon class="cls-7" points="233.65 101.12 136.7 114.35 154.11 42.99 233.65 101.12"/>
        </g>
      </g>
      <path class="cls-7" d="M200.21,105.19l-37.04,5.26c56.65,122.92,98.51,182.28,175.16,272.89,35.4,41.85,83.52,93.1,83.52,93.1l62.11,.44C307.19,332.32,200.21,105.19,200.21,105.19Z"/>
    </g>
  </g>
  <g id="Character">
    <g>
      <g>
        <path class="cls-6" d="M71.33,187.18c-2.95-3.48-5.9-7-8.21-10.93-2.31-3.94-3.97-8.35-4.12-12.91-.02-.69,.23-5.5,.89-5.7,.47-.14,.84,4.09,1.24,4.4,3.75,2.87,6.2,7.17,7.64,11.66,1.43,4.5,2.13,8.78,2.57,13.48"/>
        <path class="cls-2" d="M72.36,144.97l1-.35c10.07-3.51,21.15,1.29,25.46,11.04,4.01,9.07,8.33,19.15,10.01,24.18,3.49,10.42-5.8,15.34-5.8,15.34-.02,0,3.69,5.51,3.69,5.51l-3.06,12.69-22.17-6-17.19-36.15c-4.69-10.44-2.51-21.88,8.06-26.27Z"/>
        <path class="cls-3" d="M103.03,195.18s-6.92,2.97-15.41,1.03c0,0,5.53,7.13,17,1.35l-1.59-2.38Z"/>
        <path class="cls-6" d="M99.2,164.98c.3,.77-.11,1.66-.91,1.99-.8,.33-1.69-.03-1.99-.8-.3-.77,.11-1.66,.9-1.99,.8-.33,1.69,.03,1.99,.8Z"/>
        <path class="cls-6" d="M97.96,161.01c-.12,.26-1.53-.18-3.12,.38-1.6,.54-2.48,1.76-2.72,1.63-.11-.06-.05-.47,.33-1.02,.37-.54,1.1-1.2,2.1-1.54,1-.34,1.96-.27,2.57-.06,.62,.2,.91,.5,.85,.61Z"/>
        <path class="cls-6" d="M85.32,170.81c.3,.77-.11,1.66-.91,1.99-.8,.33-1.69-.03-1.99-.8-.3-.77,.11-1.66,.9-1.99,.8-.33,1.69,.03,1.99,.8Z"/>
        <path class="cls-6" d="M82.72,166.83c-.12,.26-1.53-.18-3.12,.38-1.6,.54-2.48,1.76-2.72,1.63-.11-.06-.05-.47,.33-1.02,.37-.54,1.1-1.2,2.1-1.54,1-.34,1.96-.27,2.57-.06,.62,.21,.91,.5,.85,.61Z"/>
        <path class="cls-6" d="M92.71,177.08c-.04-.09,.89-.6,2.43-1.37,.39-.18,.75-.4,.72-.7,0-.33-.33-.71-.69-1.11-.73-.85-1.49-1.74-2.29-2.68-3.21-3.83-5.69-7.04-5.53-7.16,.16-.13,2.88,2.87,6.09,6.7,.78,.95,1.53,1.85,2.24,2.71,.32,.41,.76,.84,.77,1.52,0,.34-.22,.67-.46,.83-.23,.17-.46,.26-.66,.34-1.58,.65-2.58,1.01-2.62,.92Z"/>
        <path class="cls-6" d="M81.28,162.75c.01,.48-1.48,.78-3.06,1.59-1.6,.78-2.75,1.8-3.11,1.49-.16-.15-.07-.64,.32-1.25,.39-.61,1.11-1.31,2.07-1.79,.96-.48,1.93-.62,2.64-.56,.71,.06,1.14,.29,1.15,.52Z"/>
        <path class="cls-6" d="M94.85,155.79c-.09,.49-1.38,.78-2.7,1.52-1.35,.7-2.3,1.63-2.75,1.43-.21-.1-.23-.54,.08-1.13,.3-.59,.95-1.31,1.87-1.81,.92-.5,1.88-.65,2.53-.57,.66,.07,1.01,.33,.98,.56Z"/>
        <path class="cls-2" d="M67.83,178.62c-.2-.01-7.86,.38-5.16,7.39s9.94,2.83,9.88,2.63c-.07-.21-4.72-10.02-4.72-10.02Z"/>
        <path class="cls-3" d="M68.62,186.83s-.09,.13-.26,.31c-.17,.17-.49,.37-.91,.37-.85,.01-1.92-.92-2.44-2.17-.26-.63-.36-1.29-.33-1.88,.02-.6,.21-1.08,.56-1.29,.34-.23,.69-.11,.85,.06,.17,.16,.18,.32,.22,.32,.03,0,.11-.18-.06-.44-.08-.13-.23-.26-.44-.33-.22-.07-.5-.05-.74,.08-.53,.25-.82,.93-.86,1.58-.07,.66,.03,1.41,.33,2.12,.59,1.4,1.82,2.44,2.95,2.34,.54-.06,.9-.37,1.05-.62,.15-.26,.13-.43,.1-.43Z"/>
        <path class="cls-6" d="M89.73,145.87c.88-1.07-3.96-3.39-7.23-3.55-4.95-.24-11.83,1.12-15.27,3.74-4.14,3.16-7.1,7.02-7.76,12.18-.66,5.17,.41,10.46,2.46,15.25,.63,1.46,1.39,2.94,2.67,3.88,1.59,1.16,3.84,1.39,4.6,3.55,.28,.79,.81,1.49,1.57,1.85,1.82,.85,2.88-1.04,3.09-2.61,.45-3.34-.67-6.68-1.77-9.87-.79-2.27-1.59-4.58-3.07-6.47-.8-1.03-1.79-1.91-2.53-2.99-.74-1.07-1.24-2.43-.88-3.68,.06-.2,.18-.48,.34-.8,1.29-2.52,3.86-4.13,6.68-4.23,4.49-.16,12.03-.74,13.25-2.77,1.76-2.92,1.87-4.41,1.87-4.41l1.97,.92Z"/>
        <path class="cls-6" d="M88.17,180c.23-.11,.88,1.49,2.71,2.08,1.83,.59,3.46-.27,3.56-.05,.06,.09-.25,.46-.97,.77-.7,.31-1.82,.49-2.94,.14-1.12-.36-1.85-1.15-2.17-1.78-.33-.65-.31-1.11-.2-1.15Z"/>
      </g>
      <g>
        <path class="cls-2" d="M170.75,148.97c.4-.22,.96-8.74-1.17-13.19-2.13-4.44-10.61-12.56-10.61-12.56,0,0-3.03-5.09-5.34-7.33-.78-.76-1.98-.86-2.87-.24h0s-.72-1.9-2.22-1.12c-.61,.32,.25,7.83,1.68,10.21s5.72,9.13,5.72,9.13l3.29,8.56-.99,1.86,12.5,4.67Z"/>
        <path class="cls-3" d="M159.1,129.99s-.8-.49-1.88-1.55c-1.08-1.06-2.44-2.67-3.62-4.65-1.18-1.99-1.95-3.95-2.36-5.41-.41-1.45-.52-2.39-.46-2.4,.17-.05,.92,3.63,3.27,7.54,2.31,3.93,5.19,6.35,5.06,6.47Z"/>
      </g>
      <g>
        <path class="cls-6" d="M180.38,445.09l-8.44,17-.09,1.71s22.46,8.81,22.64,12.99l-43.73-.82,.15-10.99,7.63-20.36,21.84,.47Z"/>
        <path class="cls-4" d="M158.36,461.65c-.85,.21-1.45,1.16-1.27,2.01,.18,.86,1.13,1.48,1.99,1.28,.85-.2,1.61-1.31,1.34-2.14s-1.43-1.5-2.21-1.1"/>
        <path class="cls-5" d="M150.76,475.97l.19-3.54,41.85,2.11s1.93,.88,1.68,2.25l-43.72-.82Z"/>
        <path class="cls-1" d="M172.56,463.59c-.01,.21-1.08,.29-2.14,.96-1.08,.64-1.64,1.55-1.84,1.46-.2-.05,.15-1.32,1.45-2.1,1.3-.8,2.58-.52,2.53-.32Z"/>
        <path class="cls-1" d="M177.11,465.57c.04,.21-.89,.55-1.63,1.44-.77,.87-.97,1.84-1.18,1.83-.2,.03-.32-1.22,.62-2.31,.94-1.1,2.19-1.16,2.19-.96Z"/>
        <path class="cls-1" d="M179.61,471.11c-.2,.04-.47-1.03,.1-2.19,.56-1.16,1.58-1.61,1.66-1.43,.12,.18-.54,.79-1,1.75-.48,.95-.55,1.85-.77,1.86Z"/>
      </g>
      <g>
        <path class="cls-6" d="M95.06,449.55l-8.44,17-.09,1.71s22.46,8.81,22.64,12.99l-43.72-.82,.15-10.99,7.63-20.36,21.84,.47Z"/>
        <path class="cls-4" d="M73.04,466.11c-.85,.21-1.45,1.16-1.27,2.01,.18,.86,1.13,1.48,1.99,1.28,.85-.2,1.61-1.31,1.34-2.14s-1.43-1.5-2.21-1.1"/>
        <path class="cls-5" d="M65.44,480.43l.19-3.54,41.85,2.11s1.93,.88,1.68,2.25l-43.72-.82Z"/>
        <path class="cls-1" d="M87.24,468.05c-.01,.21-1.08,.29-2.14,.96-1.08,.64-1.64,1.55-1.83,1.46-.2-.05,.15-1.32,1.45-2.1,1.29-.8,2.58-.52,2.53-.32Z"/>
        <path class="cls-1" d="M91.79,470.03c.04,.21-.89,.55-1.63,1.44-.77,.87-.97,1.84-1.18,1.83-.2,.03-.32-1.22,.62-2.31,.93-1.1,2.19-1.16,2.19-.96Z"/>
        <path class="cls-1" d="M94.29,475.57c-.19,.04-.47-1.03,.1-2.19,.56-1.16,1.58-1.61,1.66-1.43,.12,.18-.54,.79-1,1.75-.48,.95-.55,1.85-.77,1.86Z"/>
      </g>
      <g>
        <g>
          <path class="cls-6" d="M104.05,303.79c0,1.82,3.93,41.89,3.93,41.89l-11.37,39.85s-11.2,26.25-15.92,35.05c-4.71,8.8-15.53,42-15.53,42l25.52,5.05s30.74-58.91,36.39-68.01c5.66-9.1,27.38-40.96,31.75-65.23,1.56-8.68,2.18-30.61,2.18-30.61h-56.96Z"/>
          <path class="cls-6" d="M146.28,354.56l27.95,31.16-23.47,67.94,28.35,5.54c0-.91,25.77-67.21,29.05-78.61,1.85-6.42-14.34-29.86-21.94-38.54-5.94-6.78-18.21-20.27-19.15-21.18-.94-.91-6.34-9.06-6.34-9.06l-14.45,42.76"/>
          <path class="cls-5" d="M161.29,315.33s.03,.64,0,1.79c-.03,1.15-.14,2.81-.33,4.86-.38,4.1-1.21,9.74-2.74,15.84-1.54,6.1-3.48,11.46-5.06,15.26-.79,1.9-1.47,3.42-1.97,4.45-.5,1.04-.79,1.6-.82,1.59-.03-.02,.2-.61,.63-1.67,.45-1.06,1.07-2.6,1.81-4.51,1.49-3.82,3.36-9.18,4.9-15.25,1.53-6.07,2.41-11.67,2.88-15.75,.24-2.04,.4-3.69,.49-4.83,.1-1.14,.17-1.78,.21-1.77Z"/>
          <polygon class="cls-9" points="106.97 336.41 154.4 336.41 154.4 333.69 106.78 331.87 106.97 336.41"/>
          <path class="cls-5" d="M185.46,383.35c0,.16-2.61,.34-5.71,1.2-3.1,.84-5.45,2.01-5.52,1.87-.07-.11,2.22-1.52,5.39-2.37,3.16-.87,5.85-.82,5.85-.69Z"/>
          <path class="cls-9" d="M153.9,363.06s5.17-18.59,4.48-26.66c0,0-3.57,16.47-8.03,22.7h0l3.55,3.95Z"/>
        </g>
        <path class="cls-5" d="M90.95,467.68s-.36-.04-1.01-.15c-.77-.13-1.69-.3-2.77-.48-2.47-.46-5.64-1.05-9.14-1.7-3.57-.68-6.79-1.32-9.12-1.81-1.16-.24-2.11-.45-2.75-.6-.65-.15-1-.26-1-.29,0-.04,.37,0,1.03,.09,.66,.09,1.61,.24,2.78,.44,2.35,.39,5.58,.98,9.15,1.66,3.57,.68,6.79,1.34,9.11,1.85,2.32,.51,3.77,.88,3.71,1Z"/>
        <path class="cls-5" d="M176.55,458.69s-.35-.04-1.01-.15c-.77-.13-1.69-.3-2.77-.48-2.47-.46-5.63-1.05-9.14-1.7-3.57-.68-6.79-1.32-9.12-1.81-1.16-.24-2.1-.45-2.75-.6-.65-.15-1-.26-1-.29s.37,0,1.03,.09c.66,.09,1.61,.24,2.78,.44,2.35,.39,5.58,.98,9.15,1.66,3.57,.68,6.79,1.34,9.11,1.85,2.32,.51,3.77,.88,3.71,1Z"/>
      </g>
      <g>
        <path class="cls-4" d="M135.25,222.74s17.47,28.9,24.19,53.1,2.69,27.96,2.69,27.96l-29.03-2.15-7.05-31.99,9.2-46.91Z"/>
        <polygon class="cls-4" points="79.13 204.17 78.63 201.36 106.24 198.45 108.93 200.57 79.13 204.17"/>
        <path class="cls-6" d="M130.76,209.83c1.89,1.24,17.21,33.24,21.15,53.37,2.55,13,4.46,34.11,5.2,40.35,.87,7.27,.06,30.27-.75,30.14l-61.96-2.28,7.99-55.06s-18.98-26.6-23.3-40.27c-4.32-13.66-.05-26.43-.05-26.43l-.3-5.43,28.31-4.05,23.7,9.64Z"/>
        <path class="cls-5" d="M106.24,260.81c-.14-.05,2.23-7.19,5.28-15.95,3.05-8.77,5.64-15.83,5.77-15.78s-2.23,7.19-5.28,15.96c-3.05,8.76-5.64,15.83-5.77,15.78Z"/>
        <g>
          <path class="cls-6" d="M80.29,226.31c2.59,4.69,8.74,11.38,18.91,11.04,10.17-.34,49.2-37.27,54.73-42.77,5.53-5.5,19.04-45.41,19.04-45.41l-16.48-6.16-25.06,39.33-27.78,19.89c-1.48-.12-15.14,1.54-19.57,8.03"/>
          <path class="cls-5" d="M84.09,210.26s.07-.1,.21-.3c.16-.21,.38-.49,.67-.86,.35-.33,.76-.77,1.3-1.23,.56-.43,1.21-.94,2.02-1.4,1.6-.96,3.7-1.9,6.28-2.7,1.29-.39,2.69-.76,4.2-1.06,1.52-.29,3.12-.6,4.89-.63l-.1,.03c7.29-5.25,16.74-12.04,27.74-19.95l-.05,.06c7.31-11.5,15.82-24.88,25.03-39.35l.11-.17,.19,.07c5.26,1.97,10.82,4.04,16.48,6.16l.24,.09-.08,.24c-1.14,3.36-2.4,6.92-3.69,10.5-3.09,8.52-6.21,16.82-9.67,24.65-.87,1.95-1.77,3.88-2.75,5.74-.5,.93-1,1.85-1.57,2.73-.27,.45-.59,.87-.91,1.29-.35,.41-.71,.79-1.08,1.14-2.95,2.87-5.89,5.62-8.78,8.28-11.57,10.62-22.3,19.89-31.96,26.84-2.42,1.73-4.78,3.3-7.12,4.62-1.18,.64-2.33,1.26-3.52,1.71-.58,.26-1.19,.41-1.79,.58-.61,.11-1.23,.2-1.82,.16-4.77,.03-8.75-1.6-11.45-3.52-2.74-1.92-4.41-3.96-5.42-5.38-1.01-1.43-1.39-2.27-1.39-2.27,0,0,.13,.19,.36,.57,.23,.38,.6,.94,1.11,1.64,1.03,1.4,2.71,3.4,5.45,5.28,2.69,1.88,6.63,3.45,11.34,3.4,1.17,.05,2.34-.25,3.5-.74,1.17-.45,2.31-1.06,3.47-1.71,2.32-1.32,4.66-2.9,7.07-4.63,9.61-6.97,20.3-16.26,31.85-26.89,2.88-2.67,5.82-5.42,8.76-8.29,.77-.7,1.36-1.47,1.92-2.35,.56-.86,1.06-1.77,1.55-2.7,.97-1.85,1.86-3.77,2.73-5.72,3.45-7.81,6.56-16.1,9.65-24.62,1.29-3.58,2.54-7.14,3.69-10.49l.15,.33c-5.66-2.12-11.22-4.2-16.48-6.17l.3-.1c-9.23,14.45-17.76,27.82-25.1,39.31l-.02,.04-.03,.02c-11.03,7.86-20.5,14.62-27.82,19.84l-.04,.03h-.06c-1.68,.02-3.32,.32-4.82,.6-1.51,.29-2.9,.64-4.19,1.02-2.57,.77-4.67,1.68-6.26,2.61-.81,.45-1.46,.94-2.03,1.36-.55,.44-.96,.87-1.32,1.19-.3,.36-.53,.63-.69,.83-.16,.18-.25,.27-.25,.27Z"/>
        </g>
        <path class="cls-5" d="M102.98,222.74s-.12-.27-.25-.78c-.14-.51-.29-1.25-.43-2.18-.29-1.86-.5-4.46-.32-7.33,.19-2.87,.72-5.43,1.24-7.24,.26-.9,.5-1.62,.7-2.11,.19-.49,.32-.75,.35-.74,.08,.03-.27,1.13-.7,2.94-.43,1.81-.9,4.34-1.08,7.18-.18,2.83-.04,5.4,.16,7.25,.2,1.85,.4,2.99,.32,3.01Z"/>
        <path class="cls-5" d="M101.16,258.13c-.09,.01-.34-1.62-1.07-4.17-.72-2.55-2.02-5.99-4.06-9.48-2.06-3.48-4.44-6.29-6.32-8.15-1.88-1.87-3.18-2.88-3.12-2.96,.02-.03,.36,.2,.96,.65,.61,.44,1.44,1.13,2.42,2.04,1.96,1.82,4.43,4.63,6.51,8.15,2.07,3.53,3.33,7.05,3.97,9.65,.32,1.3,.53,2.36,.61,3.1,.1,.74,.13,1.15,.1,1.16Z"/>
        <path class="cls-5" d="M108.74,267.39c.13,.05-.96,2.83-2.73,6.06-1.76,3.23-3.5,5.65-3.61,5.58-.13-.08,1.41-2.62,3.15-5.83,1.75-3.2,3.05-5.87,3.18-5.81Z"/>
        <path class="cls-5" d="M157.12,303.55s.03,.2,.05,.57c.02,.42,.04,.97,.08,1.66,.04,1.45,.09,3.57,.07,6.24-.02,5.34-.22,12.88-.7,21.69v.23h-.24c-4.95,0-10.36-.11-16.01-.28-12.75-.39-24.28-.97-32.62-1.43-4.14-.25-7.5-.45-9.88-.59-1.13-.08-2.03-.15-2.68-.2-.28-.03-.51-.05-.7-.07-.16-.02-.24-.03-.24-.04s.08-.01,.24-.01c.19,0,.42,0,.7,.01,.66,.02,1.56,.06,2.69,.1,2.38,.1,5.75,.25,9.89,.43,8.35,.36,19.88,.88,32.62,1.28,5.65,.17,11.06,.3,16,.32l-.24,.23c.51-8.8,.78-16.33,.89-21.67,.06-2.67,.06-4.78,.07-6.23,0-.69,0-1.24,0-1.66,0-.38,.01-.57,.03-.57Z"/>
        <polygon class="cls-9" points="113.09 297.01 113.09 300.89 141.01 300.89 142.38 290.11 140.1 297.01 113.09 297.01"/>
        <path class="cls-5" d="M109.73,297.01s.23-.02,.63-.02c.44,0,1.02-.02,1.74-.03,1.55-.02,3.72-.04,6.41-.07,5.43-.05,12.97-.12,21.58-.13l-.25,.19c.68-2.55,1.38-5.21,2.1-7.95,.06-.22,.12-.44,.17-.65l.25,.33c-11.29-.04-21.38-.07-28.26-.09l.15-.09c-1.39,2.62-2.5,4.72-3.29,6.22-.38,.71-.68,1.27-.91,1.7-.21,.39-.33,.6-.34,.61s.07-.18,.26-.56c.21-.43,.48-.98,.82-1.69,.76-1.55,1.83-3.72,3.16-6.43l.05-.09h.11c6.88-.02,16.97-.05,28.26-.09h.34s-.09,.33-.09,.33c-.06,.21-.12,.43-.17,.65-.73,2.73-1.44,5.4-2.11,7.95l-.05,.19h-.2c-8.75-.01-16.4-.08-21.81-.13-2.65-.03-4.79-.05-6.33-.07-.69-.01-1.25-.02-1.68-.03-.38-.01-.57-.02-.55-.03Z"/>
      </g>
    </g>
  </g>
</svg>