<?xml version="1.0" encoding="UTF-8"?>
<svg id="Layer_1" data-name="Layer 1" xmlns="http://www.w3.org/2000/svg" viewBox="0 0 500 500">
  <defs>
    <style>
      .cls-1, .cls-2, .cls-3 {
        opacity: .1;
      }

      .cls-4 {
        fill: #f28f8f;
      }

      .cls-5 {
        fill: #f5f5f5;
      }

      .cls-6, .cls-7, .cls-8, .cls-9, .cls-10, .cls-11, .cls-3 {
        fill: #fff;
      }

      .cls-12 {
        fill: #ffbf9d;
      }

      .cls-13 {
        fill: #ffa8a7;
      }

      .cls-14 {
        fill: #ff725e;
      }

      .cls-15 {
        fill: #e0e0e0;
      }

      .cls-16 {
        fill: #d3efd9;
      }

      .cls-17 {
        fill: #37474f;
      }

      .cls-18 {
        fill: #a36957;
      }

      .cls-19 {
        fill: #455a64;
      }

      .cls-20 {
        fill: #263238;
      }

      .cls-21 {
        fill: #5cbb61;
      }

      .cls-7, .cls-8, .cls-2, .cls-9, .cls-10, .cls-11, .cls-3, .cls-22, .cls-23, .cls-24, .cls-25 {
        isolation: isolate;
      }

      .cls-7, .cls-26, .cls-23 {
        opacity: .2;
      }

      .cls-8, .cls-27, .cls-22 {
        opacity: .3;
      }

      .cls-9, .cls-25 {
        opacity: .5;
      }

      .cls-10, .cls-28 {
        opacity: .6;
      }

      .cls-11, .cls-24 {
        opacity: .4;
      }

      .cls-29 {
        opacity: .35;
      }
    </style>
  </defs>
  <g id="freepik--Floor--inject-5">
    <path class="cls-5" d="M414.07,245.89c-91.21-52.66-238.6-52.66-329.21,0-90.61,52.66-90.14,138,1.06,190.7s238.61,52.66,329.23,0,90.13-138-1.08-190.7Z"/>
  </g>
  <g id="freepik--Shadows--inject-5">
    <path class="cls-15" d="M206.62,411.59l56.71,32.74c6.2,3.6,13.86,3.6,20.06,0l45.28-26.34c2.39-1.38,3.21-4.44,1.83-6.83-.44-.76-1.07-1.39-1.83-1.83l-59.07-34.11-62.98,36.37Z"/>
    <path class="cls-15" d="M59.07,349.44l119.47,68.94c5.06,2.92,11.29,2.92,16.35,0l190.84-110.24c2.54-1.46,3.41-4.7,1.95-7.24-.47-.81-1.14-1.49-1.95-1.95l-123-71.11L59.07,345.42c-1.11,.64-1.49,2.06-.85,3.17,.2,.35,.5,.65,.85,.85Z"/>
    <path class="cls-15" d="M425.53,361.18c-21.84-12.61-57.13-12.61-78.82,0s-21.58,33,.25,45.65,57.13,12.61,78.82,0,21.58-33.05-.25-45.65Z"/>
    <path class="cls-15" d="M140.4,380.66l9,5.2-41.08,23.73c-1.24,.71-2.76,.71-4,0l-4-2.31c-.96-.55-1.29-1.77-.74-2.73,.18-.31,.43-.56,.74-.74l40.08-23.15Z"/>
  </g>
  <g id="freepik--device-2--inject-5">
    <path class="cls-19" d="M58,331.64c-.14-1.43,.73-2.89,2.63-4l187.74-108.4c3.99-2.03,8.7-2.03,12.69,0l119.19,69.26c1.41,.65,2.39,1.98,2.59,3.52v11.38c.06,1.38-.81,2.77-2.64,3.82l-187.77,108.37c-3.99,2.03-8.7,2.03-12.69,0l-119.18-69.22c-1.41-.65-2.39-1.97-2.6-3.51h0v-11.21h.04Z"/>
    <path class="cls-8" d="M380.17,295.87l-187.74,108.4c-3.99,2.03-8.7,2.03-12.69,0l-119.18-69.26c-1.35-.64-2.3-1.9-2.56-3.37-.14-1.43,.73-2.89,2.63-4l187.74-108.4c3.99-2.03,8.7-2.03,12.69,0l119.19,69.26c1.41,.65,2.39,1.98,2.59,3.52v.25c-.07,1.32-.95,2.61-2.67,3.6Z"/>
    <path class="cls-17" d="M252.83,252.9c-.43,.16-.65,.63-.5,1.06,.08,.23,.27,.41,.5,.5l7.78,4.52c.84,.42,1.84,.42,2.68,0l23.49-13.56c.74-.43,.75-1.12,0-1.55l-7.78-4.53c-.84-.43-1.83-.43-2.67,0l-23.5,13.56Z"/>
    <path class="cls-17" d="M255.81,237.19c-.43,.14-.66,.6-.52,1.02,.08,.25,.27,.44,.52,.52l7.78,4.52c.84,.43,1.83,.43,2.67,0l8.44-4.86c.43-.15,.66-.61,.51-1.04-.08-.24-.27-.42-.51-.51l-7.78-4.52c-.84-.42-1.84-.42-2.68,0l-8.43,4.87Z"/>
    <path class="cls-17" d="M242.72,244.74c-.74,.43-.75,1.12,0,1.55l7.78,4.52c.84,.43,1.83,.43,2.67,0l8.44-4.87c.43-.15,.66-.61,.51-1.04-.08-.24-.27-.42-.51-.51l-7.78-4.52c-.84-.42-1.84-.42-2.68,0l-8.43,4.87Z"/>
    <path class="cls-17" d="M190.36,274.97c-.43,.15-.66,.61-.51,1.04,.08,.24,.27,.42,.51,.51l7.77,4.52c.84,.42,1.84,.42,2.68,0l8.43-4.87c.74-.43,.75-1.12,0-1.55l-7.78-4.52c-.84-.43-1.83-.43-2.67,0l-8.43,4.87Z"/>
    <path class="cls-17" d="M177.28,282.53c-.43,.14-.66,.6-.52,1.02,.08,.25,.27,.44,.52,.52l7.78,4.52c.84,.43,1.83,.43,2.67,0l8.44-4.86c.43-.15,.66-.61,.51-1.04-.08-.24-.27-.42-.51-.51l-7.77-4.52c-.84-.42-1.84-.42-2.68,0l-8.44,4.87Z"/>
    <path class="cls-17" d="M168.47,277.41c-.43,.14-.66,.6-.52,1.02,.08,.25,.27,.44,.52,.52l4.53,2.64c.84,.42,1.84,.42,2.68,0l8.43-4.87c.43-.15,.66-.61,.51-1.04-.08-.24-.27-.42-.51-.51l-4.5-2.61c-.84-.42-1.84-.42-2.68,0l-8.46,4.85Z"/>
    <path class="cls-17" d="M181.55,269.85c-.43,.15-.66,.61-.51,1.04,.08,.24,.27,.42,.51,.51l4.5,2.62c.84,.42,1.83,.42,2.67,0l8.43-4.87c.43-.15,.66-.61,.51-1.04-.08-.24-.27-.42-.51-.51l-4.5-2.62c-.84-.43-1.83-.43-2.67,0l-8.43,4.87Z"/>
    <path class="cls-17" d="M194.65,262.29c-.43,.15-.66,.61-.51,1.04,.08,.24,.27,.42,.51,.51l4.5,2.62c.84,.43,1.83,.43,2.67,0l8.43-4.87c.43-.15,.66-.61,.51-1.04-.08-.24-.27-.42-.51-.51l-4.5-2.62c-.84-.42-1.83-.42-2.67,0l-8.43,4.87Z"/>
    <path class="cls-17" d="M219.44,286.18c-.43,.15-.66,.61-.51,1.04,.08,.24,.27,.42,.51,.51l7.78,4.52c.84,.43,1.83,.43,2.67,0l8.44-4.87c.43-.14,.66-.6,.52-1.02-.08-.25-.27-.44-.52-.52l-7.77-4.52c-.84-.42-1.84-.42-2.68,0l-8.44,4.86Z"/>
    <path class="cls-17" d="M201.11,282.77c-.43,.15-.66,.61-.51,1.04,.08,.24,.27,.42,.51,.51l7.78,4.52c.84,.43,1.83,.43,2.67,0l8.44-4.87c.43-.15,.66-.61,.51-1.04-.08-.24-.27-.42-.51-.51l-7.78-4.52c-.84-.42-1.84-.42-2.68,0l-8.43,4.87Z"/>
    <path class="cls-17" d="M76.85,330.3c-.74,.43-.75,1.12,0,1.55l4.5,2.62c.84,.43,1.83,.43,2.67,0l8.43-4.88c.43-.15,.66-.61,.51-1.04-.08-.24-.27-.42-.51-.51l-4.45-2.61c-.84-.42-1.84-.42-2.68,0l-8.47,4.87Z"/>
    <path class="cls-17" d="M266.06,288.59c-.74,.43-.75,1.12,0,1.55l7.78,4.52c.84,.43,1.83,.43,2.67,0l8.43-4.87c.74-.43,.75-1.12,0-1.55l-7.77-4.52c-.84-.42-1.84-.42-2.68,0l-8.43,4.87Z"/>
    <path class="cls-17" d="M187.53,333.97c-.43,.15-.66,.61-.51,1.04,.08,.24,.27,.42,.51,.51l7.78,4.52c.84,.43,1.83,.43,2.67,0l8.43-4.87c.74-.43,.75-1.12,0-1.55l-7.78-4.52c-.84-.43-1.83-.43-2.67,0l-8.43,4.87Z"/>
    <path class="cls-17" d="M155.38,284.96c-.74,.43-.75,1.12,0,1.55l4.5,2.62c.84,.42,1.84,.42,2.68,0l8.43-4.87c.74-.43,.75-1.12,0-1.55l-4.5-2.62c-.84-.42-1.84-.42-2.68,0l-8.43,4.87Z"/>
    <path class="cls-17" d="M89.94,322.75c-.43,.14-.66,.6-.52,1.02,.08,.25,.27,.44,.52,.52l4.5,2.62c.84,.42,1.84,.42,2.68,0l8.43-4.87c.43-.15,.66-.61,.51-1.04-.08-.24-.27-.42-.51-.51l-4.5-2.61c-.84-.42-1.84-.42-2.68,0l-8.43,4.87Z"/>
    <path class="cls-17" d="M227,267.85c-.43,.15-.66,.61-.51,1.04,.08,.24,.27,.42,.51,.51l7.78,4.52c.84,.42,1.84,.42,2.68,0l8.43-4.87c.74-.43,.75-1.12,0-1.55l-7.78-4.52c-.84-.42-1.84-.42-2.68,0l-8.43,4.87Z"/>
    <path class="cls-17" d="M214,275.31c-.43,.15-.66,.61-.51,1.04,.08,.24,.27,.42,.51,.51l7.78,4.52c.84,.42,1.84,.42,2.68,0l8.43-4.87c.43-.15,.66-.61,.51-1.04-.08-.24-.27-.42-.51-.51l-7.78-4.52c-.84-.42-1.84-.42-2.68,0l-8.43,4.87Z"/>
    <path class="cls-17" d="M232.14,278.85c-.43,.14-.67,.6-.53,1.03,.08,.25,.28,.45,.53,.53l7.78,4.52c.84,.42,1.83,.42,2.67,0l8.43-4.87c.74-.43,.75-1.12,0-1.55l-7.78-4.52c-.85-.42-1.84-.42-2.69,0l-8.41,4.86Z"/>
    <path class="cls-17" d="M305.32,265.96c-.43,.15-.66,.61-.51,1.04,.08,.24,.27,.42,.51,.51l7.77,4.52c.84,.42,1.84,.42,2.68,0l8.43-4.87c.74-.43,.75-1.12,0-1.55l-7.78-4.52c-.84-.42-1.83-.42-2.67,0l-8.43,4.87Z"/>
    <path class="cls-17" d="M292.23,273.52c-.43,.15-.66,.61-.51,1.04,.08,.24,.27,.42,.51,.51l7.77,4.52c.84,.42,1.84,.42,2.68,0l8.43-4.87c.74-.43,.75-1.12,0-1.55l-7.78-4.52c-.84-.43-1.83-.43-2.67,0l-8.43,4.87Z"/>
    <path class="cls-17" d="M270.62,256.59c-.43,.16-.65,.63-.5,1.06,.08,.23,.27,.41,.5,.5l7.78,4.52c.84,.42,1.83,.42,2.67,0l17.79-10.28c.43-.14,.66-.6,.52-1.02-.08-.25-.27-.44-.52-.52l-7.78-4.52c-.84-.42-1.84-.42-2.68,0l-17.78,10.26Z"/>
    <path class="cls-17" d="M239.87,260.39c-.43,.15-.66,.61-.51,1.04,.08,.24,.27,.42,.51,.51l7.77,4.52c.84,.42,1.84,.42,2.68,0l8.43-4.87c.74-.43,.75-1.12,0-1.55l-7.75-4.52c-.84-.42-1.84-.42-2.68,0l-8.45,4.87Z"/>
    <path class="cls-17" d="M174.44,341.53c-.43,.15-.66,.61-.51,1.04,.08,.24,.27,.42,.51,.51l7.78,4.52c.84,.42,1.83,.42,2.67,0l8.43-4.87c.43-.15,.66-.61,.51-1.04-.08-.24-.27-.42-.51-.51l-7.78-4.52c-.84-.43-1.83-.43-2.67,0l-8.43,4.87Z"/>
    <path class="cls-17" d="M166.48,352.72c-.74,.43-.75,1.12,0,1.55l2.08,1.21c.84,.42,1.84,.42,2.68,0l9.16-5.29c.43-.15,.66-.61,.51-1.04-.08-.24-.27-.42-.51-.51l-2.08-1.21c-.84-.42-1.84-.42-2.68,0l-9.16,5.29Z"/>
    <path class="cls-17" d="M149.68,341.14c-.43,.15-.66,.61-.51,1.04,.08,.24,.27,.42,.51,.51l7.78,4.52c.84,.43,1.83,.43,2.67,0l8.43-4.87c.43-.15,.66-.61,.51-1.04-.08-.24-.27-.42-.51-.51l-7.78-4.52c-.84-.42-1.84-.42-2.68,0l-8.42,4.87Z"/>
    <path class="cls-17" d="M109.83,349.47c-.43,.15-.66,.61-.51,1.04,.08,.24,.27,.42,.51,.51l7.77,4.57c.84,.42,1.84,.42,2.68,0l16.52-9.54c.43-.15,.66-.61,.51-1.04-.08-.24-.27-.42-.51-.51l-7.8-4.57c-.84-.43-1.83-.43-2.67,0l-16.5,9.54Z"/>
    <path class="cls-17" d="M122.5,356.83c-.43,.15-.66,.61-.51,1.04,.08,.24,.27,.42,.51,.51l7.78,4.52c.84,.42,1.84,.42,2.68,0l22.92-13.23c.74-.43,.75-1.12,0-1.55l-7.78-4.53c-.84-.42-1.84-.42-2.68,0l-22.92,13.24Z"/>
    <path class="cls-17" d="M130.61,337.47c-.43,.15-.66,.61-.51,1.04,.08,.24,.27,.42,.51,.51l7.78,4.52c.84,.43,1.83,.43,2.67,0l8.44-4.87c.43-.15,.66-.61,.51-1.04-.08-.24-.27-.42-.51-.51l-7.77-4.53c-.84-.42-1.84-.42-2.68,0l-8.44,4.88Z"/>
    <path class="cls-17" d="M162.37,333.81c-.43,.15-.66,.61-.51,1.04,.08,.24,.27,.42,.51,.51l7.78,4.52c.84,.43,1.83,.43,2.67,0l8.43-4.87c.43-.15,.66-.61,.51-1.04-.08-.24-.27-.42-.51-.51l-7.78-4.52c-.84-.43-1.83-.43-2.67,0l-8.43,4.87Z"/>
    <path class="cls-17" d="M143.31,330.14c-.43,.15-.66,.61-.51,1.04,.08,.24,.27,.42,.51,.51l7.78,4.52c.84,.43,1.83,.43,2.67,0l8.44-4.87c.43-.15,.66-.61,.51-1.04-.08-.24-.27-.42-.51-.51l-7.78-4.52c-.84-.42-1.84-.42-2.68,0l-8.43,4.87Z"/>
    <path class="cls-17" d="M175.06,326.48c-.43,.16-.65,.63-.5,1.06,.08,.23,.27,.41,.5,.5l7.77,4.52c.84,.42,1.84,.42,2.68,0l8.43-4.87c.74-.43,.75-1.13,0-1.55l-7.76-4.55c-.85-.42-1.84-.42-2.69,0l-8.43,4.89Z"/>
    <path class="cls-17" d="M156,322.82c-.43,.15-.66,.61-.51,1.04,.08,.24,.27,.42,.51,.51l7.78,4.52c.84,.42,1.83,.42,2.67,0l8.43-4.87c.75-.43,.76-1.12,0-1.55l-7.78-4.52c-.85-.42-1.84-.42-2.69,0l-8.41,4.87Z"/>
    <path class="cls-17" d="M238.51,289.85c-.43,.15-.66,.61-.51,1.04,.08,.24,.27,.42,.51,.51l7.78,4.52c.84,.43,1.83,.43,2.67,0l8.43-4.87c.43-.15,.66-.61,.51-1.04-.08-.24-.27-.42-.51-.51l-7.78-4.52c-.84-.42-1.84-.42-2.68,0l-8.42,4.87Z"/>
    <path class="cls-17" d="M203.46,267.41c-.43,.15-.66,.61-.51,1.04,.08,.24,.27,.42,.51,.51l7.77,4.52c.84,.42,1.84,.42,2.68,0l8.43-4.87c.74-.43,.75-1.12,0-1.55l-7.78-4.47c-.84-.42-1.83-.42-2.67,0l-8.43,4.82Z"/>
    <path class="cls-17" d="M279.14,281.08c-.43,.16-.64,.63-.49,1.05,.08,.23,.26,.41,.49,.49l7.78,4.52c.84,.42,1.84,.42,2.68,0l8.43-4.87c.43-.14,.66-.6,.52-1.02-.08-.25-.27-.44-.52-.52l-7.78-4.52c-.84-.43-1.83-.43-2.67,0l-8.44,4.87Z"/>
    <path class="cls-17" d="M153.67,360.11c-.43,.15-.66,.61-.51,1.04,.08,.24,.27,.42,.51,.51l2.08,1.21c.84,.43,1.83,.43,2.67,0l9.17-5.29c.43-.15,.66-.61,.51-1.04-.08-.24-.27-.42-.51-.51l-2.08-1.21c-.84-.43-1.83-.43-2.67,0l-9.17,5.29Z"/>
    <path class="cls-17" d="M140.87,367.51c-.43,.15-.66,.61-.51,1.04,.08,.24,.27,.42,.51,.51l2.08,1.21c.84,.42,1.83,.42,2.67,0l9.17-5.3c.43-.15,.66-.61,.51-1.04-.08-.24-.27-.42-.51-.51l-2.08-1.21c-.84-.42-1.84-.42-2.68,0l-9.16,5.3Z"/>
    <path class="cls-17" d="M148,356.8c-.74,.43-.75,1.12,0,1.55l2.08,1.21c.84,.42,1.84,.42,2.68,0l9.16-5.29c.74-.43,.75-1.12,0-1.55l-2.08-1.21c-.84-.42-1.84-.42-2.68,0l-9.16,5.29Z"/>
    <path class="cls-17" d="M273.87,305.46l33.32,19.36c.81,.47,1.08,1.5,.61,2.31-.15,.25-.36,.46-.61,.61l-55.87,32.25c-1.31,.76-2.91,.76-4.22,0l-33.32-19.4c-.8-.46-1.08-1.49-.62-2.29,.15-.26,.36-.47,.62-.62l55.86-32.26c1.31-.75,2.93-.73,4.23,.04Z"/>
    <path class="cls-3" d="M192.43,404.27l187.74-108.4c1.72-1,2.6-2.28,2.65-3.58v11.13c.06,1.38-.81,2.77-2.64,3.82l-187.75,108.35c-1.8,.96-3.8,1.47-5.84,1.5v-11.33c2.04-.02,4.04-.53,5.84-1.49Z"/>
    <path class="cls-23" d="M58,331.64c.27,1.48,1.23,2.73,2.59,3.37l119.18,69.26c2.11,1.11,4.47,1.62,6.85,1.49v11.37c-2.38,.13-4.74-.39-6.85-1.5l-119.21-69.26c-1.41-.65-2.39-1.97-2.6-3.51h0v-11.21h.04Z"/>
    <path class="cls-17" d="M267.66,361.13v1.46c0,2,1.42,2.81,3.17,1.8l29.22-16.8c1.86-1.2,3.03-3.23,3.14-5.44v-1.56l-35.53,20.54Z"/>
    <path class="cls-17" d="M56.33,163.94L244.41,55.31c1.78-1.05,4-1.03,5.76,.05h0l4,2.62h0c1.61,1.04,2.58,2.82,2.57,4.74V206.37c0,5.28-2.82,10.15-7.39,12.79L61.24,327.79c-1.82,1.07-4.09,1.02-5.87-.12h0l-3.94-2.6h0c-1.54-1.06-2.45-2.82-2.43-4.69V176.73c0-5.26,2.78-10.14,7.33-12.79Z"/>
    <path class="cls-21" d="M244.2,210.31c1.4-.82,2.27-2.32,2.27-3.94V70.59L65.21,175.29c-1.4,.81-2.27,2.31-2.27,3.93v135.78l181.26-104.69Z"/>
    <path class="cls-22" d="M244.2,210.31c1.4-.82,2.27-2.32,2.27-3.94V70.59L65.21,175.29c-1.4,.81-2.27,2.31-2.27,3.93v135.78l181.26-104.69Z"/>
    <path class="cls-3" d="M244.2,210.31c1.4-.82,2.27-2.32,2.27-3.94V70.59L65.21,175.29c-1.4,.81-2.27,2.31-2.27,3.93v135.78l181.26-104.69Z"/>
    <path class="cls-8" d="M56.33,163.94L244.41,55.31c1.78-1.05,4-1.03,5.76,.05h0l4,2.62h0c-1.8-1.21-4.13-1.28-6-.18L60.1,166.43c-2.74,1.59-4.9,4.01-6.16,6.92l-3.88-2.24c1.24-3.02,3.45-5.54,6.27-7.17Z"/>
    <path class="cls-3" d="M53.94,173.35c-.8,1.85-1.22,3.85-1.22,5.87v143.65c-.01,1.95,.99,3.77,2.65,4.8h0l-3.94-2.6h0c-1.54-1.06-2.45-2.82-2.43-4.69V176.73c0-1.93,.38-3.84,1.11-5.62l3.83,2.24Z"/>
    <path class="cls-17" d="M220.82,247.18c-.74,.43-.75,1.12,0,1.55l4.5,2.62c.84,.42,1.84,.42,2.68,0l8.43-4.87c.74-.43,.75-1.12,0-1.55l-4.5-2.62c-.84-.42-1.84-.42-2.68,0l-8.43,4.87Z"/>
    <path class="cls-17" d="M229.63,252.3c-.74,.43-.75,1.12,0,1.55l7.78,4.52c.84,.43,1.83,.43,2.67,0l8.44-4.87c.43-.15,.66-.61,.51-1.04-.08-.24-.27-.42-.51-.51l-7.77-4.52c-.84-.42-1.84-.42-2.68,0l-8.44,4.87Z"/>
    <path class="cls-17" d="M207.74,254.74c-.43,.14-.66,.6-.52,1.02,.08,.25,.27,.44,.52,.52l4.5,2.62c.84,.43,1.83,.43,2.67,0l8.43-4.87c.43-.15,.66-.61,.51-1.04-.08-.24-.27-.42-.51-.51l-4.5-2.61c-.84-.43-1.83-.43-2.67,0l-8.43,4.87Z"/>
    <path class="cls-17" d="M216.55,259.86c-.43,.14-.66,.6-.52,1.02,.08,.25,.27,.44,.52,.52l7.78,4.52c.84,.43,1.83,.43,2.67,0l8.43-4.86c.74-.43,.75-1.12,0-1.55l-7.78-4.52c-.84-.43-1.83-.43-2.67,0l-8.43,4.87Z"/>
    <path class="cls-17" d="M247,232.07c-.43,.14-.66,.6-.52,1.02,.08,.25,.27,.44,.52,.52l4.5,2.62c.84,.42,1.84,.42,2.68,0l8.43-4.87c.43-.15,.66-.61,.51-1.04-.08-.24-.27-.42-.51-.51l-4.5-2.61c-.84-.42-1.84-.42-2.68,0l-8.43,4.87Z"/>
    <path class="cls-17" d="M233.91,239.59c-.74,.43-.75,1.12,0,1.55l4.5,2.62c.84,.42,1.84,.42,2.68,0l8.43-4.87c.74-.43,.75-1.12,0-1.55l-4.5-2.62c-.84-.42-1.84-.42-2.68,0l-8.43,4.87Z"/>
    <path class="cls-17" d="M164.19,290.08c-.74,.43-.75,1.12,0,1.55l7.78,4.52c.84,.43,1.83,.43,2.67,0l8.44-4.87c.43-.15,.66-.61,.51-1.04-.08-.24-.27-.42-.51-.51l-7.77-4.52c-.84-.42-1.84-.42-2.68,0l-8.44,4.87Z"/>
    <path class="cls-17" d="M188.18,290.23c-.43,.15-.66,.61-.51,1.04,.08,.24,.27,.42,.51,.51l7.78,4.52c.84,.42,1.83,.42,2.67,0l8.44-4.87c.43-.15,.66-.61,.51-1.04-.08-.24-.27-.42-.51-.51l-7.77-4.52c-.84-.42-1.84-.42-2.68,0l-8.44,4.87Z"/>
    <path class="cls-17" d="M142.29,292.52c-.74,.43-.75,1.12,0,1.55l4.5,2.62c.84,.42,1.84,.42,2.68,0l8.43-4.87c.74-.43,.75-1.12,0-1.55l-4.5-2.62c-.84-.42-1.84-.42-2.68,0l-8.43,4.87Z"/>
    <path class="cls-17" d="M206.75,293.51c-.43,.15-.66,.61-.51,1.04,.08,.24,.27,.42,.51,.51l7.78,4.52c.84,.43,1.83,.43,2.67,0l8.43-4.87c.43-.15,.66-.61,.51-1.04-.08-.24-.27-.42-.51-.51l-7.78-4.52c-.84-.43-1.83-.43-2.67,0l-8.43,4.87Z"/>
    <path class="cls-17" d="M225.82,297.18c-.43,.15-.66,.61-.51,1.04,.08,.24,.27,.42,.51,.51l7.77,4.52c.84,.42,1.84,.42,2.68,0l8.43-4.87c.74-.43,.75-1.12,0-1.55l-7.78-4.52c-.84-.42-1.84-.42-2.68,0l-8.42,4.87Z"/>
    <path class="cls-17" d="M151.1,297.64c-.74,.43-.75,1.12,0,1.55l7.78,4.52c.84,.43,1.83,.43,2.67,0l8.44-4.87c.43-.15,.66-.61,.51-1.04-.08-.24-.27-.42-.51-.51l-7.77-4.52c-.84-.42-1.84-.42-2.68,0l-8.44,4.87Z"/>
    <path class="cls-17" d="M175.26,297.69c-.43,.15-.66,.61-.51,1.04,.08,.24,.27,.42,.51,.51l7.78,4.52c.84,.42,1.83,.42,2.67,0l8.43-4.87c.43-.15,.66-.61,.51-1.04-.08-.24-.27-.42-.51-.51l-7.78-4.52c-.84-.43-1.83-.43-2.67,0l-8.43,4.87Z"/>
    <path class="cls-17" d="M129.2,300.08c-.74,.42-.74,1.11,0,1.54l4.5,2.62c.84,.43,1.83,.43,2.67,0l8.43-4.87c.43-.15,.66-.61,.51-1.04-.08-.24-.27-.42-.51-.51l-4.5-2.61c-.84-.43-1.83-.43-2.67,0l-8.43,4.87Z"/>
    <path class="cls-17" d="M194.07,300.83c-.43,.14-.67,.6-.53,1.03,.08,.25,.28,.45,.53,.53l7.78,4.52c.84,.42,1.84,.42,2.68,0l8.42-4.86c.75-.43,.76-1.12,0-1.55l-7.78-4.52c-.85-.42-1.84-.42-2.69,0l-8.41,4.85Z"/>
    <path class="cls-17" d="M213.13,304.5c-.43,.16-.65,.63-.5,1.06,.08,.23,.27,.41,.5,.5l7.77,4.53c.84,.42,1.84,.42,2.68,0l8.43-4.86c.74-.43,.75-1.12,0-1.55l-7.77-4.52c-.85-.42-1.84-.42-2.69,0l-8.42,4.84Z"/>
    <path class="cls-17" d="M138,305.2c-.43,.14-.66,.6-.52,1.02,.08,.25,.27,.44,.52,.52l7.77,4.52c.84,.42,1.84,.42,2.68,0l8.43-4.86c.74-.43,.75-1.12,0-1.55l-7.78-4.52c-.84-.43-1.83-.43-2.67,0l-8.43,4.87Z"/>
    <path class="cls-17" d="M162.35,305.14c-.43,.14-.67,.6-.53,1.03,.08,.25,.28,.45,.53,.53l7.78,4.52c.84,.42,1.84,.42,2.68,0l8.42-4.87c.75-.43,.76-1.12,0-1.55l-7.78-4.52c-.85-.42-1.84-.42-2.69,0l-8.41,4.86Z"/>
    <path class="cls-17" d="M181.38,308.16c-.43,.15-.66,.61-.51,1.04,.08,.24,.27,.42,.51,.51l7.78,4.52c.84,.43,1.83,.43,2.67,0l8.44-4.87c.43-.15,.66-.61,.51-1.04-.08-.24-.27-.42-.51-.51l-7.78-4.52c-.84-.42-1.84-.42-2.68,0l-8.43,4.87Z"/>
    <path class="cls-17" d="M200.44,311.83c-.43,.15-.66,.61-.51,1.04,.08,.24,.27,.42,.51,.51l7.78,4.52c.84,.43,1.83,.43,2.67,0l8.43-4.87c.43-.15,.66-.61,.51-1.04-.08-.24-.27-.42-.51-.51l-7.78-4.52c-.84-.42-1.84-.42-2.68,0l-8.42,4.87Z"/>
    <path class="cls-17" d="M149.43,312.59c-.43,.14-.67,.6-.53,1.03,.08,.25,.28,.45,.53,.53l7.77,4.52c.84,.42,1.84,.42,2.68,0l8.43-4.87c.74-.43,.75-1.12,0-1.55l-7.78-4.52c-.85-.42-1.84-.42-2.69,0l-8.41,4.86Z"/>
    <path class="cls-17" d="M124.92,312.75c-.43,.15-.66,.61-.51,1.04,.08,.24,.27,.42,.51,.51l7.77,4.52c.84,.42,1.84,.42,2.68,0l8.43-4.87c.74-.43,.75-1.12,0-1.55l-7.8-4.52c-.84-.42-1.83-.42-2.67,0l-8.41,4.87Z"/>
    <path class="cls-17" d="M168.68,315.49c-.43,.15-.66,.61-.51,1.04,.08,.24,.27,.42,.51,.51l7.78,4.52c.84,.43,1.83,.43,2.67,0l8.44-4.87c.43-.15,.66-.61,.51-1.04-.08-.24-.27-.42-.51-.51l-7.77-4.55c-.84-.42-1.84-.42-2.68,0l-8.44,4.9Z"/>
    <path class="cls-17" d="M187.75,319.16c-.43,.15-.66,.61-.51,1.04,.08,.24,.27,.42,.51,.51l7.78,4.52c.84,.43,1.83,.43,2.67,0l8.43-4.87c.74-.43,.75-1.12,0-1.55l-7.78-4.52c-.84-.42-1.84-.42-2.68,0l-8.42,4.87Z"/>
    <path class="cls-17" d="M136.5,320.06c-.43,.16-.65,.63-.5,1.06,.08,.23,.27,.41,.5,.5l7.78,4.52c.84,.42,1.83,.42,2.67,0l8.44-4.87c.43-.15,.66-.61,.51-1.04-.08-.24-.27-.42-.51-.51l-7.77-4.52c-.84-.42-1.84-.42-2.68,0l-8.44,4.86Z"/>
    <path class="cls-17" d="M111.83,320.31c-.43,.15-.66,.61-.51,1.04,.08,.24,.27,.42,.51,.51l7.77,4.52c.84,.42,1.84,.42,2.68,0l8.43-4.87c.74-.43,.75-1.12,0-1.55l-7.78-4.52c-.84-.43-1.83-.43-2.67,0l-8.43,4.87Z"/>
    <path class="cls-17" d="M200.61,326.41c-.43,.15-.66,.61-.51,1.04,.08,.24,.27,.42,.51,.51l7.78,4.52c.84,.42,1.84,.42,2.68,0l60.78-35.09c.43-.15,.66-.61,.51-1.04-.08-.24-.27-.42-.51-.51l-7.78-4.52c-.84-.43-1.83-.43-2.67,0l-60.79,35.09Z"/>
    <path class="cls-17" d="M123.58,327.52c-.43,.16-.65,.63-.5,1.06,.08,.23,.27,.41,.5,.5l7.78,4.52c.84,.42,1.83,.42,2.67,0l8.43-4.87c.74-.43,.75-1.12,0-1.55l-7.77-4.52c-.84-.42-1.84-.42-2.68,0l-8.43,4.86Z"/>
    <path class="cls-17" d="M110.66,334.98c-.43,.16-.65,.63-.5,1.06,.08,.23,.27,.41,.5,.5l7.78,4.52c.84,.42,1.83,.42,2.67,0l8.43-4.87c.43-.15,.66-.61,.51-1.04-.08-.24-.27-.42-.51-.51l-7.78-4.52c-.84-.42-1.84-.42-2.68,0l-8.42,4.86Z"/>
    <path class="cls-17" d="M85.66,335.42c-.74,.43-.75,1.12,0,1.55l7.78,4.52c.84,.43,1.83,.43,2.67,0l21.53-12.42c.43-.15,.66-.61,.51-1.04-.08-.24-.27-.42-.51-.51l-7.77-4.52c-.84-.42-1.84-.42-2.68,0l-21.53,12.42Z"/>
    <path class="cls-17" d="M97.74,342.44c-.43,.16-.65,.63-.5,1.06,.08,.23,.27,.41,.5,.5l7.78,4.52c.84,.42,1.83,.42,2.67,0l8.43-4.87c.43-.15,.66-.61,.51-1.04-.08-.24-.27-.42-.51-.51l-7.77-4.51c-.84-.42-1.84-.42-2.68,0l-8.43,4.85Z"/>
    <path class="cls-17" d="M116.11,307.59c-.43,.15-.66,.61-.51,1.04,.08,.24,.27,.42,.51,.51l4.5,2.62c.84,.43,1.83,.43,2.67,0l8.43-4.87c.43-.15,.66-.61,.51-1.04-.08-.24-.27-.42-.51-.51l-4.5-2.62c-.84-.42-1.83-.42-2.67,0l-8.43,4.87Z"/>
    <path class="cls-17" d="M103,315.19c-.43,.15-.66,.61-.51,1.04,.08,.24,.27,.42,.51,.51l4.5,2.62c.84,.42,1.83,.42,2.67,0l8.43-4.87c.43-.15,.66-.61,.51-1.04-.08-.24-.27-.42-.51-.51l-4.5-2.62c-.84-.43-1.83-.43-2.67,0l-8.43,4.87Z"/>
    <path class="cls-17" d="M257.51,264.2c-.43,.15-.66,.61-.51,1.04,.08,.24,.27,.42,.51,.51l7.78,4.52c.84,.43,1.83,.43,2.67,0l8.44-4.87c.74-.42,.74-1.11,0-1.54l-7.77-4.52c-.84-.42-1.84-.42-2.68,0l-8.44,4.86Z"/>
    <path class="cls-17" d="M276.92,267.68c-.43,.15-.66,.61-.51,1.04,.08,.24,.27,.42,.51,.51l7.78,4.52c.84,.42,1.84,.42,2.68,0l24.16-14c.74-.43,.75-1.12,0-1.55l-7.78-4.52c-.84-.42-1.84-.42-2.68,0l-24.16,14Z"/>
    <path class="cls-17" d="M244.82,271.53c-.43,.15-.66,.61-.51,1.04,.08,.24,.27,.42,.51,.51l7.78,4.51c.84,.43,1.83,.43,2.67,0l8.43-4.87c.43-.15,.66-.61,.51-1.04-.08-.24-.27-.42-.51-.51l-7.78-4.52c-.84-.42-1.84-.42-2.68,0l-8.42,4.88Z"/>
    <path class="cls-17" d="M263.89,275.2c-.43,.15-.66,.61-.51,1.04,.08,.24,.27,.42,.51,.51l7.77,4.52c.84,.42,1.84,.42,2.68,0l8.43-4.87c.74-.43,.75-1.12,0-1.55l-7.77-4.52c-.84-.42-1.84-.42-2.68,0l-8.43,4.87Z"/>
    <path class="cls-17" d="M251.2,282.52c-.43,.16-.65,.63-.5,1.06,.08,.23,.27,.41,.5,.5l7.8,4.51c.84,.42,1.84,.42,2.68,0l8.43-4.86c.74-.43,.75-1.12,0-1.55l-7.77-4.52c-.85-.42-1.84-.42-2.69,0l-8.45,4.86Z"/>
  </g>
  <g id="freepik--Screen--inject-5">
    <path class="cls-5" d="M287.25,71.38l.39,137.39c-.15,2.74-1.59,5.24-3.89,6.73l-193.17,111.53v4.42l-4.73-3h0l-.14-.08h0c-.71-.59-1.08-1.48-1-2.4l-.4-143.27,4.87,3.08,198.07-114.4Z"/>
    <path class="cls-14" d="M88.15,169.98L283.3,57.31c.88-.67,2.08-.7,3-.09h0l4.62,2.9-3.7,2.11v9.17L89.16,185.75l-4.87-3.08v-6c.15-2.72,1.58-5.2,3.86-6.69Z"/>
    <path class="cls-5" d="M89.16,185.75l.4,143.27c0,2.48,1.76,3.47,3.91,2.23l195.15-112.66c2.3-1.49,3.74-3.99,3.89-6.73l-.4-143.27L89.16,185.75Z"/>
    <path class="cls-5" d="M286.5,64.59c-1.02,.66-1.65,1.78-1.7,3,0,1.08,.77,1.52,1.71,1,1.02-.66,1.66-1.78,1.7-3,0-1.08-.77-1.51-1.71-1Z"/>
    <path class="cls-5" d="M281.54,67.48c-1.02,.67-1.65,1.78-1.7,3,0,1.07,.77,1.52,1.71,1,1.01-.65,1.64-1.74,1.7-2.94,0-1.17-.76-1.6-1.71-1.06Z"/>
    <path class="cls-5" d="M276.58,70.34c-1.02,.67-1.65,1.78-1.7,3,0,1.08,.77,1.52,1.71,1,1.01-.65,1.64-1.74,1.7-2.94,0-1.17-.76-1.6-1.71-1.06Z"/>
    <path class="cls-14" d="M288.17,60.39c2.16-1.25,3.91-.25,3.92,2.22v6L89.09,185.78v-6c.15-2.74,1.6-5.24,3.91-6.72L288.17,60.39Zm-6.62,11c1.01-.65,1.64-1.74,1.7-2.94,0-1.09-.76-1.52-1.71-1-1.02,.67-1.65,1.78-1.7,3,0,1.07,.77,1.52,1.71,1m-5,2.86c1.01-.65,1.64-1.74,1.7-2.94,0-1.09-.76-1.52-1.71-1-1.02,.67-1.65,1.78-1.7,3,0,1.08,.77,1.52,1.71,1m9.96-5.78c1.02-.66,1.66-1.78,1.7-3,0-1.08-.77-1.51-1.71-1-1.02,.66-1.65,1.78-1.7,3,0,1.08,.77,1.52,1.71,1"/>
    <path class="cls-21" d="M288.17,60.39c2.16-1.25,3.91-.25,3.92,2.22v6L89.09,185.78v-6c.15-2.74,1.6-5.24,3.91-6.72L288.17,60.39Zm-6.62,11c1.01-.65,1.64-1.74,1.7-2.94,0-1.09-.76-1.52-1.71-1-1.02,.67-1.65,1.78-1.7,3,0,1.07,.77,1.52,1.71,1m-5,2.86c1.01-.65,1.64-1.74,1.7-2.94,0-1.09-.76-1.52-1.71-1-1.02,.67-1.65,1.78-1.7,3,0,1.08,.77,1.52,1.71,1m9.96-5.78c1.02-.66,1.66-1.78,1.7-3,0-1.08-.77-1.51-1.71-1-1.02,.66-1.65,1.78-1.7,3,0,1.08,.77,1.52,1.71,1"/>
    <path class="cls-2" d="M89.56,329.02c-.09,.92,.29,1.82,1,2.4h0l-4.73-3h0l-.14-.08h0c-.71-.59-1.08-1.48-1-2.4l-.4-143.27,4.87,3.08,.4,143.27Z"/>
    <path class="cls-16" d="M88.15,169.98L283.3,57.31c.88-.67,2.08-.7,3-.09h0l4.6,2.9c-.9-.4-1.94-.29-2.74,.29L93,173.06c-2.3,1.49-3.74,3.99-3.88,6.72v6l-4.87-3.08v-6c.15-2.74,1.6-5.24,3.9-6.72Z"/>
    <g>
      <path class="cls-21" d="M243,133.22l7.24,14.74-5.73,3.3-1.14-2.67-6.24,3.61-1.1,3.92-5.63,3.25,7.13-23,5.47-3.15Zm-4.34,13.53l3.2-1.85-1.61-3.83-1.59,5.68"/>
      <path class="cls-21" d="M223.57,143.99c1.86-1.2,4-1.87,6.21-1.94l-1.66,5.54c-1.61,0-3.19,.44-4.58,1.25-1.63,.94-2.14,1.78-2.13,2.41,0,2.26,9.09-4.87,9.11,2.1,0,3.46-2.54,7.83-7.65,10.78-2.73,1.58-5.51,2.42-7.16,2.21l1.77-5.69c1.91,.09,3.8-.4,5.43-1.39,1.57-.9,2.13-1.61,2.13-2.26,0-2.37-9.08,4.77-9.1-2.28,0-3.46,2.54-7.79,7.63-10.73Z"/>
      <polygon class="cls-21" points="256.61 125.34 256.65 139.29 264.07 135.01 264.09 139.95 251.12 147.44 251.06 128.55 256.61 125.34"/>
      <polygon class="cls-21" points="278.92 112.46 278.94 117.26 271.02 121.83 271.03 124.06 277.99 120.04 278 124.61 271.04 128.63 271.05 131.12 279.28 126.37 279.29 131.17 265.62 139.06 265.56 120.17 278.92 112.46"/>
      <path class="cls-21" d="M229.4,190.09c1.9-.29,3,.67,3,2.9,0,3.25-2.38,6.54-6.89,9.14l-9.17,5.3-.05-18.73,8.72-5c4.49-2.59,6.59-1.73,6.6,1.1-.08,1.97-.87,3.85-2.21,5.29Zm-4.32,7.89c1.02-.44,1.72-1.41,1.81-2.52,0-1-.62-1.11-1.82-.42l-3.3,1.91v2.93l3.3-1.9m-3.33-8v2.8l2.55-1.48c1.01-.41,1.7-1.35,1.79-2.44,0-.91-.56-1.06-1.8-.35l-2.55,1.47"/>
      <polygon class="cls-21" points="247.57 170.65 247.59 175.41 239.74 179.94 239.75 182.15 246.65 178.16 246.66 182.7 239.76 186.68 239.77 189.15 247.93 184.44 247.94 189.2 234.38 197.03 234.33 178.3 247.57 170.65"/>
      <path class="cls-21" d="M256.83,164.88c1.84-1.19,3.97-1.85,6.16-1.92l-1.65,5.53c-1.6,0-3.17,.42-4.54,1.24-1.61,.93-2.12,1.76-2.12,2.38,0,2.25,9-4.82,9,2.09,0,3.41-2.53,7.77-7.58,10.69-2.73,1.57-5.47,2.39-7.1,2.17l1.75-5.62c1.89,.09,3.77-.4,5.39-1.38,1.55-.9,2.11-1.6,2.11-2.24,0-2.35-9,4.74-9-2.25,0-3.47,2.53-7.77,7.58-10.69Z"/>
      <polygon class="cls-21" points="278.88 152.57 278.9 157.47 274.13 160.22 274.17 174.06 268.68 177.22 268.64 163.39 263.86 166.16 263.84 161.26 278.88 152.57"/>
      <path class="cls-21" d="M221,209.89c2.28-1.32,3.75-.79,3.75,1.4-.15,2.43-1.57,4.6-3.73,5.72l-1.19,.69v2.32l-2.83,1.57v-9.44l4-2.26Zm-.17,4.77c.67-.33,1.1-1,1.12-1.75,0-.69-.36-.9-1.12-.46l-1,.58v2.21l1-.58"/>
      <path class="cls-21" d="M231.78,210.18l1.73,1.92-3,1.71-1.4-1.56-.75,.43v2.37l-2.76,1.6v-9.45l4-2.28c2.29-1.33,3.75-.79,3.75,1.4-.05,1.43-.6,2.8-1.57,3.86Zm-2.38-.49c.68-.33,1.11-1.01,1.13-1.76,0-.69-.37-.89-1.13-.45l-1,.58v2.21l1-.58"/>
      <path class="cls-21" d="M238.67,199.45c2.68-1.55,4.65-.61,4.66,2.26-.18,3.15-1.92,6.01-4.63,7.62-2.68,1.55-4.64,.59-4.65-2.26,.16-3.15,1.9-6.02,4.62-7.62Zm0,7.3c1.16-.75,1.85-2.04,1.83-3.42,0-1.47-.82-1.89-1.84-1.3-1.16,.75-1.86,2.04-1.84,3.42,0,1.47,.83,1.89,1.85,1.3"/>
      <path class="cls-21" d="M248.37,194.06c2.75-1.59,4.65-.88,4.66,2.05-.15,3.11-1.9,5.91-4.63,7.4l-4.05,2.33v-9.45l4.02-2.33Zm-.09,7c1.22-.68,1.99-1.97,2-3.37,0-1.45-.81-1.78-2-1.1l-1.16,.67v4.47l1.17-.67"/>
      <path class="cls-21" d="M262,186.21v5.19c0,2.82-1.52,5.43-4,6.79-2.52,1.46-4,.67-4-2.16v-5.2l2.77-1.6v5.1c0,1.45,.48,1.71,1.26,1.27,.9-.59,1.39-1.65,1.25-2.72v-5.1l2.72-1.57Z"/>
      <path class="cls-21" d="M267.49,182.81c1.61-.93,2.88-1,3.69-.24l-1.74,2.8c-.51-.45-1.26-.48-1.8-.06-1.21,.74-1.94,2.06-1.92,3.47,0,1.44,.78,1.91,1.93,1.25,.8-.52,1.43-1.27,1.8-2.15l1.75,.79c-.8,1.67-2.08,3.06-3.68,4-2.64,1.53-4.59,.6-4.6-2.3,.16-3.13,1.88-5.97,4.57-7.56Z"/>
      <polygon class="cls-21" points="278.89 176.44 278.89 178.91 276.49 180.3 276.51 187.28 273.73 188.88 273.71 181.9 271.31 183.29 271.3 180.82 278.89 176.44"/>
    </g>
  </g>
  <g id="freepik--Target--inject-5">
    <path class="cls-21" d="M123.53,32.01l1.08-1.85-6.89-4.08h0c-5.78-3.38-13.79-2.94-22.62,2.16-17.5,10.11-31.69,34.7-31.64,54.81,0,9.72,3.39,16.63,8.82,20.05h0l.43,.26,.19,.11,6.72,4,1.13-1.95c4.37,.08,9.32-1.3,14.56-4.32,17.5-10.11,31.69-34.7,31.69-54.8-.06-5.88-1.3-10.72-3.47-14.39Z"/>
    <path class="cls-22" d="M123.53,32.01l1.08-1.85-6.89-4.08h0c-5.78-3.38-13.79-2.94-22.62,2.16-17.5,10.11-31.69,34.7-31.64,54.81,0,9.72,3.39,16.63,8.82,20.05h0l.43,.26,.19,.11,6.72,4,1.13-1.95c4.37,.08,9.32-1.3,14.56-4.32,17.5-10.11,31.69-34.7,31.69-54.8-.06-5.88-1.3-10.72-3.47-14.39Z"/>
    <ellipse class="cls-21" cx="101.4" cy="69.04" rx="9.53" ry="5.52" transform="translate(-9.25 122) rotate(-59.83)"/>
    <path class="cls-6" d="M101.92,39.44c14.08-8.13,25.54-1.6,25.59,14.59s-11.34,35.9-25.43,44-25.54,1.64-25.58-14.55,11.33-35.89,25.42-44.04Zm.14,51.45c10.63-6.13,19.25-21.06,19.21-33.26s-8.7-17.16-19.33-11-19.24,21-19.21,33.27,8.71,17.15,19.33,11"/>
    <path class="cls-21" d="M101.9,32.27c17.5-10.1,31.79-2,31.85,18.15s-14.14,44.7-31.65,54.81-31.78,2-31.84-18.15,14.14-44.7,31.64-54.81Zm.18,65.79c14.09-8.13,25.48-27.85,25.43-44s-11.51-22.75-25.59-14.62-25.47,27.85-25.42,44.04,11.5,22.71,25.58,14.58"/>
    <path class="cls-6" d="M102,53.77c7.15-4.18,13-.81,13,7.46s-5.77,18.36-13,22.5-13,.8-13-7.45,5.77-18.36,13-22.51Zm0,22.82c4-2.61,6.52-6.97,6.78-11.74,0-4.31-3.08-6-6.82-3.89-3.99,2.61-6.5,6.96-6.76,11.72,0,4.3,3.07,6,6.82,3.89"/>
    <path class="cls-21" d="M101.94,46.59c10.63-6.14,19.3-1.2,19.33,11,.03,12.2-8.58,27.13-19.21,33.26s-19.29,1.19-19.33-11,8.58-27.11,19.21-33.26Zm.1,37.12c7.19-4.16,13-14.25,13-22.5s-5.89-11.62-13.04-7.44-13,14.24-13,22.51,5.86,11.59,13,7.45"/>
    <polygon class="cls-21" points="136.41 87.01 145.93 92.54 156.75 93.18 147.23 87.65 136.41 87.01"/>
    <polygon class="cls-14" points="136.41 87.01 136.41 88.25 145.93 93.78 145.93 92.54 136.41 87.01"/>
    <polygon class="cls-21" points="156.75 93.18 156.75 94.41 145.93 93.78 145.93 92.54 156.75 93.18"/>
    <g class="cls-26">
      <polygon points="136.41 87.01 145.93 92.54 156.75 93.18 147.23 87.65 136.41 87.01"/>
    </g>
    <polygon class="cls-24" points="136.41 87.01 136.41 88.25 145.93 93.78 145.93 92.54 136.41 87.01"/>
    <polygon class="cls-22" points="156.75 93.18 156.75 94.41 145.93 93.78 145.93 92.54 156.75 93.18"/>
    <path class="cls-19" d="M149.71,98.48l1.62-2.79-48.27-28h0c-.25-.17-.59-.17-.84,0-.68,.44-1.1,1.19-1.14,2-.03,.28,.1,.56,.33,.73h0l48.3,28.06Z"/>
    <path class="cls-19" d="M150.53,95.78c.62-.36,1.14-.07,1.14,.65-.04,.81-.46,1.56-1.14,2-.63,.37-1.14,.07-1.14-.65,.03-.81,.46-1.56,1.14-2Z"/>
    <g class="cls-27">
      <path class="cls-6" d="M150.53,95.78c.62-.36,1.14-.07,1.14,.65-.04,.81-.46,1.56-1.14,2-.63,.37-1.14,.07-1.14-.65,.03-.81,.46-1.56,1.14-2Z"/>
    </g>
    <polygon class="cls-21" points="134.42 88.16 135.48 94.43 145 99.96 143.94 93.69 134.42 88.16"/>
    <g class="cls-26">
      <polygon points="134.42 88.16 135.48 94.43 145 99.96 143.94 93.69 134.42 88.16"/>
    </g>
    <polygon class="cls-21" points="134.42 88.16 135.48 94.43 135.48 95.67 134.42 89.4 134.42 88.16"/>
    <polygon class="cls-21" points="145 99.96 145 101.2 135.48 95.67 135.48 94.43 145 99.96"/>
    <polygon class="cls-24" points="134.42 88.16 135.48 94.43 135.48 95.67 134.42 89.4 134.42 88.16"/>
    <polygon class="cls-22" points="145 99.96 145 101.2 135.48 95.67 135.48 94.43 145 99.96"/>
  </g>
  <g id="freepik--device-1--inject-5">
    <path class="cls-21" d="M186.38,186.08h0c-.51-1.78-4.13-5.18-7.74-5.11-.34,.01-.68,.08-1,.2l-70,39.85c-2.08,1.21-3.37,3.42-3.39,5.82v151.5c0,3.86,4.45,7.54,8.63,5.77h0c.09-.03,.18-.06,.27-.11l70-39.91c2.09-1.19,3.38-3.41,3.38-5.82V186.81c0-.25-.04-.5-.15-.73Z"/>
    <path class="cls-8" d="M186.38,186.08h0c-.51-1.78-4.13-5.18-7.74-5.11-.34,.01-.68,.08-1,.2l-70,39.85c-2.08,1.21-3.37,3.42-3.39,5.82v151.5c0,3.86,4.45,7.54,8.63,5.77h0c.09-.03,.18-.06,.27-.11l70-39.91c2.09-1.19,3.38-3.41,3.38-5.82V186.81c0-.25-.04-.5-.15-.73Z"/>
    <path class="cls-19" d="M114,242.86c0-1.21,.65-2.32,1.7-2.92l65-37c.8-.46,1.82-.18,2.28,.62,.14,.25,.22,.54,.22,.83v122.2c0,1.21-.64,2.32-1.69,2.92l-65,37.05c-.81,.46-1.83,.18-2.29-.63-.14-.25-.22-.53-.22-.82v-122.25Z"/>
    <path class="cls-22" d="M104.21,226.84v151.5c0,3.86,4.45,7.54,8.63,5.77h0c-.87,.31-1.82-.13-2.14-1-.07-.18-.1-.37-.1-.56V231.03c0-1.32,.4-2.61,1.14-3.7l-6.86-3.43c-.44,.92-.67,1.92-.67,2.94Z"/>
    <path class="cls-3" d="M178.65,180.97c-.34,.01-.68,.08-1,.2l-70,39.85c-1.17,.67-2.1,1.67-2.69,2.88l6.86,3.43c.57-.88,1.34-1.6,2.25-2.12l70-39.85c.8-.46,1.81-.18,2.27,.62,.02,.03,.04,.07,.05,.1h0c-.51-1.78-4.13-5.18-7.74-5.11Z"/>
    <path class="cls-20" d="M157.23,210.38c.49-.29,.9-.07,.9,.5-.04,.63-.37,1.2-.89,1.55l-13.74,7.93c-.5,.29-.89,0-.89-.52,.03-.62,.36-1.19,.88-1.53l13.74-7.93Z"/>
    <path class="cls-20" d="M140,220.35c.49-.29,.89-.06,.89,.5-.03,.63-.36,1.2-.88,1.55-.5,.28-.9,.05-.9-.51,.03-.63,.36-1.2,.89-1.54Z"/>
    <path class="cls-20" d="M148.76,209.22c1-.56,1.77-.11,1.78,1-.07,1.25-.72,2.39-1.77,3.08-1,.57-1.8,.11-1.8-1,.07-1.25,.73-2.4,1.79-3.08Z"/>
    <path class="cls-20" d="M148.76,351.85c2-1.16,3.62-.24,3.63,2.06-.13,2.55-1.46,4.89-3.6,6.29-2,1.15-3.67,.21-3.67-2.09,.15-2.55,1.5-4.87,3.64-6.26Z"/>
  </g>
  <g id="freepik--Icons--inject-5">
    <path class="cls-21" d="M197.89,174.65h0l-2.14-1.14h0c-.3-.2-.68-.23-1-.07l-36.87,21c-.61,.33-.99,.96-1,1.65v43.77c.02,.39,.25,.73,.61,.88h0l2.16,1.16h0c.29,.15,.62,.15,.91,0l36.87-21c.61-.33,.99-.96,1-1.65v-43.75c0-.36-.21-.7-.54-.85Z"/>
    <path class="cls-10" d="M197.89,174.65h0l-2.14-1.14h0c-.3-.2-.68-.23-1-.07l-36.87,21c-.61,.33-.99,.96-1,1.65v43.77c.02,.39,.25,.73,.61,.88h0l2.16,1.16h0c.29,.15,.62,.15,.91,0l36.87-21c.61-.33,.99-.96,1-1.65v-43.75c0-.36-.21-.7-.54-.85Z"/>
    <path class="cls-16" d="M156.88,196.08v43.77c.02,.39,.25,.73,.61,.88h0l2.16,1.16c-.29-.16-.47-.47-.47-.81v-43.78c0-.25,.05-.51,.15-.74l-2.26-1.3c-.12,.26-.19,.54-.19,.82Z"/>
    <path class="cls-11" d="M195.75,173.51h0c-.3-.2-.68-.23-1-.07l-36.87,21c-.33,.19-.6,.48-.77,.83l2.26,1.3c.16-.38,.45-.7,.81-.91l36.87-21c.27-.15,.61-.15,.88,0h0l-2.18-1.15Z"/>
    <path class="cls-6" d="M182.28,189.97c.52-.3,1.09-.61,1.68-.9s1.18-.57,1.73-.79v5.16c-.18,.04-.36,.1-.53,.19l-.67,.36c-.47,.28-.87,.66-1.19,1.1-.34,.47-.52,1.05-.51,1.63v1.5l2.9-1.67v5.53l-2.9,1.67v19.2l-7.15,4.13-.06-19.19-2.46,1.42v-5.53l2.47-1.43v-1.76c-.01-1.13,.1-2.26,.33-3.36,.21-.96,.59-1.88,1.11-2.72,.55-.88,1.22-1.67,2-2.34,1.01-.83,2.1-1.57,3.25-2.2Z"/>
    <path class="cls-21" d="M147,224.59h0l-2.15-1.14h0c-.29-.21-.68-.24-1-.07l-36.87,21c-.61,.33-.99,.97-1,1.66v43.77c.02,.39,.25,.73,.61,.88h0l2.16,1.16h0c.28,.15,.62,.15,.9,0l36.87-21c.61-.33,.99-.96,1-1.65v-43.74c.01-.37-.19-.71-.52-.87Z"/>
    <path class="cls-10" d="M147,224.59h0l-2.15-1.14h0c-.29-.21-.68-.24-1-.07l-36.87,21c-.61,.33-.99,.97-1,1.66v43.77c.02,.39,.25,.73,.61,.88h0l2.16,1.16h0c.28,.15,.62,.15,.9,0l36.87-21c.61-.33,.99-.96,1-1.65v-43.74c.01-.37-.19-.71-.52-.87Z"/>
    <path class="cls-16" d="M106,246.04v43.77c.02,.39,.25,.73,.61,.88h0l2.16,1.16c-.29-.17-.47-.48-.47-.82v-43.77c0-.26,.06-.51,.16-.74l-2.26-1.3c-.13,.25-.2,.54-.2,.82Z"/>
    <path class="cls-11" d="M144.82,223.47h0c-.29-.21-.68-.24-1-.07l-36.87,21c-.34,.19-.61,.49-.77,.84l2.26,1.3c.16-.38,.44-.7,.8-.91l36.87-21c.28-.14,.6-.14,.88,0h0l-2.17-1.16Z"/>
    <polygon class="cls-6" points="120.72 251.29 139.93 252.94 120.8 276.72 120.72 251.29"/>
    <path class="cls-21" d="M210.14,233.44h0l-2.14-1.14h0c-.29-.21-.68-.24-1-.07l-36.87,21c-.61,.33-.99,.96-1,1.65v43.77c0,.39,.24,.74,.61,.88h0l2.16,1.16h0c.28,.16,.62,.16,.9,0l36.87-21c.61-.33,.99-.96,1-1.65v-43.75c0-.36-.2-.69-.53-.85Z"/>
    <path class="cls-10" d="M210.14,233.44h0l-2.14-1.14h0c-.29-.21-.68-.24-1-.07l-36.87,21c-.61,.33-.99,.96-1,1.65v43.77c0,.39,.24,.74,.61,.88h0l2.16,1.16h0c.28,.16,.62,.16,.9,0l36.87-21c.61-.33,.99-.96,1-1.65v-43.75c0-.36-.2-.69-.53-.85Z"/>
    <path class="cls-16" d="M169.14,254.87v43.77c0,.39,.24,.74,.61,.88h0l2.16,1.16c-.29-.17-.47-.48-.47-.81v-43.78c0-.25,.06-.51,.16-.74l-2.26-1.3c-.13,.25-.2,.54-.2,.82Z"/>
    <path class="cls-11" d="M208,232.3h0c-.29-.21-.68-.24-1-.07l-36.87,21c-.34,.19-.61,.48-.77,.83l2.26,1.3c.17-.38,.45-.7,.8-.91l36.87-21c.28-.14,.6-.14,.88,0h0l-2.17-1.15Z"/>
    <path class="cls-6" d="M199.19,253.81h0c.92-.5,1.66-.06,1.65,1-.08,1.17-.69,2.23-1.67,2.87h0c-.41,.37-1.04,.34-1.41-.06-.23-.25-.32-.61-.23-.94,.07-1.16,.69-2.23,1.66-2.87Z"/>
    <path class="cls-6" d="M204.93,251.69c.06,.36,.13,.71,.23,1.06v14.93c-.09,.37-.16,.75-.2,1.13-.68,3.48-2.48,6.64-5.12,9-.36,.32-.73,.53-1.09,.88l-12.94,7.47c-.31,.06-.61,.16-.89,.29-2.7,.7-4.44-.26-5.23-2.9-.04-.34-.12-.68-.23-1v-15c.09-.1,.06-.18,.07-.26,.12-1.13,.4-2.23,.81-3.29,1.14-3.26,3.36-6.03,6.29-7.85,1.58-.93,3.15-1.84,4.73-2.75l6.58-3.79c.55-.34,1.15-.6,1.77-.79,2.69-.73,4.43,.23,5.22,2.87Zm-2,16.26v-12.89c.02-.6-.07-1.21-.26-1.78-.73-1.93-2.5-2.34-4.7-1.07l-4.75,2.74-6.49,3.75c-.61,.35-1.18,.77-1.68,1.27-1.98,1.9-3.15,4.49-3.26,7.23,0,4.34,0,8.67,0,13,0,1.93,.68,3.09,2,3.45,1.03,.17,2.08-.07,2.93-.66l1.88-1.09,3.73-2.15c1.86-1.07,3.72-2.15,5.57-3.22,.63-.35,1.21-.79,1.73-1.29,1.99-1.91,3.16-4.53,3.26-7.29"/>
    <path class="cls-6" d="M192.31,259.99c3.64-2.09,6.63-.38,6.64,3.79-.26,4.64-2.71,8.89-6.6,11.43-3.64,2.1-6.63,.39-6.64-3.79,.26-4.64,2.71-8.88,6.6-11.43Zm4.36,5.14c0-2.74-1.9-3.87-4.32-2.53l-.08,.05c-2.52,1.67-4.1,4.43-4.27,7.44,0,2.75,1.93,3.86,4.34,2.51h0c2.52-1.66,4.11-4.42,4.29-7.44"/>
    <path class="cls-21" d="M160.19,284.22h0l-2.15-1.14h0c-.29-.21-.68-.24-1-.07l-36.87,21c-.61,.33-.99,.96-1,1.65v43.78c0,.39,.24,.74,.6,.87h0l2.16,1.16h0c.29,.15,.62,.15,.91,0l36.87-21c.61-.33,.99-.96,1-1.65v-43.75c0-.36-.2-.69-.52-.85Z"/>
    <path class="cls-10" d="M160.19,284.22h0l-2.15-1.14h0c-.29-.21-.68-.24-1-.07l-36.87,21c-.61,.33-.99,.96-1,1.65v43.78c0,.39,.24,.74,.6,.87h0l2.16,1.16h0c.29,.15,.62,.15,.91,0l36.87-21c.61-.33,.99-.96,1-1.65v-43.75c0-.36-.2-.69-.52-.85Z"/>
    <path class="cls-16" d="M119.19,305.64v43.78c0,.39,.24,.74,.6,.87h0l2.16,1.16c-.28-.18-.46-.49-.47-.82v-43.76c0-.25,.05-.51,.15-.74l-2.25-1.3c-.12,.25-.19,.53-.19,.81Z"/>
    <path class="cls-11" d="M158.05,283.08h0c-.29-.21-.68-.24-1-.07l-36.87,21c-.34,.19-.61,.49-.77,.84l2.25,1.3c.16-.38,.45-.7,.81-.91l36.87-21c.28-.14,.6-.14,.88,0h0l-2.17-1.16Z"/>
    <path class="cls-6" d="M147.89,302.12c1.13-.81,2.6-1,3.9-.49,.14,.09,.33,.09,.47,0l.21-.16c1.18-1.02,2.26-2.14,3.23-3.36-.45,1.8-1.24,3.5-2.33,5,.34-.27,.67-.52,1-.8s.7-.61,1-.93,.66-.66,1-1h.06c-.45,.88-.89,1.77-1.37,2.63-.39,.69-.84,1.34-1.25,2-.1,.15-.16,.33-.17,.51-.05,5.36-1.42,10.63-4,15.33-2.01,4.02-4.8,7.59-8.21,10.51-1.25,1.06-2.59,2.02-4,2.85-2.54,1.62-5.55,2.37-8.55,2.11l-.14-.05c.43-.21,.85-.43,1.26-.68,1.13-.65,2.18-1.42,3.14-2.3,1.49-1.36,2.81-2.89,3.94-4.56-2.61,1.25-4.36,.76-5.33-1.5,.38-.16,.75-.34,1.11-.55,.48-.29,.93-.62,1.35-1-.46,.09-.92,.13-1.38,.14-.44-.01-.87-.12-1.26-.31-.39-.19-.74-.48-1-.83-.28-.38-.48-.81-.61-1.27-.13-.54-.22-1.09-.28-1.65,.48-.07,.88-.09,1.29-.19,.43-.12,.85-.29,1.25-.5-1.37-.41-2.21-1.48-2.41-3.32-.12-1.51,.13-3.03,.73-4.43,3.09,2.38,7,2.42,11.77,.05,0-.37-.09-.69-.11-1-.02-2.82,.98-5.54,2.8-7.69,.79-1.03,1.77-1.9,2.89-2.56Z"/>
  </g>
  <g id="freepik--Megaphone--inject-5">
    <path class="cls-21" d="M233.11,402.17l3.43-2c1.33-.77,2.15-2.19,2.15-3.72v-41.16l-7.69,4.6-7.73-4.46v41c0,1.53,.82,2.95,2.15,3.72l3.43,2c1.32,.76,2.94,.77,4.26,.02Z"/>
    <path class="cls-3" d="M238.69,355.29v41.18c0,1.53-.82,2.95-2.15,3.72l-3.43,2c-.66,.37-1.4,.57-2.15,.57v-42.87l7.73-4.6Z"/>
    <path class="cls-8" d="M231,359.89v42.85c-.75,0-1.49-.2-2.15-.57l-3.43-2c-1.33-.77-2.15-2.19-2.15-3.72v-41l7.73,4.44Z"/>
    <path class="cls-21" d="M224.72,308.51l-.16-.1h0c-2.63-1.49-6.26-1.26-10.26,1-8,4.63-14.49,15.85-14.47,25.06,0,4.52,1.6,7.72,4.15,9.25l20.02,11.41,19.53-35.54-18.81-11.08Zm-23.31,25c0-.78,.05-1.56,.14-2.34-.09,.78-.14,1.56-.14,2.34,0,.73,.05,1.45,.16,2.17-.1-.69-.16-1.39-.16-2.09v-.08Z"/>
    <path class="cls-8" d="M224.72,308.51l-.16-.1h0c-2.63-1.49-6.26-1.26-10.26,1-8,4.63-14.49,15.85-14.47,25.06,0,4.52,1.6,7.72,4.15,9.25l20.02,11.41,19.53-35.54-18.81-11.08Zm-23.31,25c0-.78,.05-1.56,.14-2.34-.09,.78-.14,1.56-.14,2.34,0,.73,.05,1.45,.16,2.17-.1-.69-.16-1.39-.16-2.09v-.08Z"/>
    <path class="cls-21" d="M245.47,314.93l-.2-.13h-.05c-3.33-1.9-7.93-1.6-13,1.32-10.15,5.87-18.36,20.08-18.33,31.75,0,5.73,2,9.78,5.26,11.72,32.41,23.29,52,58.77,52,58.77l46.49-89c-16.87,3.75-48.64-.36-72.17-14.43Z"/>
    <path class="cls-9" d="M245.47,314.93l-.2-.13h-.05c-3.33-1.9-7.93-1.6-13,1.32-10.15,5.87-18.36,20.08-18.33,31.75,0,5.73,2,9.78,5.26,11.72,32.41,23.29,52,58.77,52,58.77l46.49-89c-16.87,3.75-48.64-.36-72.17-14.43Z"/>
    <path class="cls-19" d="M273.34,391.84c-.24,1.93-.36,3.88-.36,5.83,0,1.81,.13,3.62,.39,5.41-.26-1.79-.39-3.6-.39-5.41,0-1.95,.12-3.9,.36-5.83Z"/>
    <path class="cls-21" d="M332.59,344.08c-.53-.69-1.11-1.34-1.74-1.95l-.12-.1c-.58-.55-1.2-1.05-1.86-1.5-.34-.24-.7-.46-1.07-.67-1.48-.84-3.1-1.44-4.77-1.76-1.32-.26-2.66-.37-4-.34-.96,.02-1.93,.11-2.88,.26-1.01,.16-2.01,.38-3,.66-.51,.15-1,.31-1.55,.49-1.08,.37-2.15,.8-3.19,1.28-1.08,.5-2.18,1.06-3.29,1.7-2.85,1.67-5.53,3.61-8,5.8-1,.9-2,1.84-3,2.83s-1.95,2-2.88,3.07c-.47,.53-.93,1.07-1.39,1.61-2.3,2.78-4.39,5.71-6.28,8.78-.76,1.24-1.48,2.5-2.17,3.77s-1.35,2.57-2,3.88-1.19,2.62-1.73,3.95c-1.32,3.25-2.39,6.59-3.19,10-.31,1.34-.57,2.67-.78,4-.11,.66-.2,1.32-.28,2-.24,1.93-.36,3.88-.36,5.83,0,1.81,.13,3.62,.39,5.41,.17,1.13,.39,2.2,.65,3.23,.28,.99,.61,1.97,1,2.93,.36,.89,.77,1.77,1.23,2.61,.45,.79,.95,1.55,1.5,2.28,2.61,3.48,6.55,5.72,10.87,6.19,.91,.11,1.82,.15,2.74,.13,.97-.02,1.93-.11,2.89-.26,1.01-.16,2.01-.38,3-.66,.51-.15,1-.31,1.55-.49,2.25-.78,4.42-1.79,6.48-3,5.84-3.51,11.02-8.01,15.31-13.31,.45-.55,.9-1.11,1.34-1.67,.88-1.13,1.74-2.29,2.56-3.48s1.62-2.4,2.38-3.63c6.46-10.51,10.5-22.61,10.47-33.44,.04-3.44-.46-6.86-1.48-10.14-.75-2.27-1.88-4.4-3.35-6.29Z"/>
    <path class="cls-25" d="M332.59,344.08c-.53-.69-1.11-1.34-1.74-1.95l-.12-.1c-.58-.55-1.2-1.05-1.86-1.5-.34-.24-.7-.46-1.07-.67-1.48-.84-3.1-1.44-4.77-1.76-1.32-.26-2.66-.37-4-.34-.96,.02-1.93,.11-2.88,.26-1.01,.16-2.01,.38-3,.66-.51,.15-1,.31-1.55,.49-1.08,.37-2.15,.8-3.19,1.28-1.08,.5-2.18,1.06-3.29,1.7-2.85,1.67-5.53,3.61-8,5.8-1,.9-2,1.84-3,2.83s-1.95,2-2.88,3.07c-.47,.53-.93,1.07-1.39,1.61-2.3,2.78-4.39,5.71-6.28,8.78-.76,1.24-1.48,2.5-2.17,3.77s-1.35,2.57-2,3.88-1.19,2.62-1.73,3.95c-1.32,3.25-2.39,6.59-3.19,10-.31,1.34-.57,2.67-.78,4-.11,.66-.2,1.32-.28,2-.24,1.93-.36,3.88-.36,5.83,0,1.81,.13,3.62,.39,5.41,.17,1.13,.39,2.2,.65,3.23,.28,.99,.61,1.97,1,2.93,.36,.89,.77,1.77,1.23,2.61,.45,.79,.95,1.55,1.5,2.28,2.61,3.48,6.55,5.72,10.87,6.19,.91,.11,1.82,.15,2.74,.13,.97-.02,1.93-.11,2.89-.26,1.01-.16,2.01-.38,3-.66,.51-.15,1-.31,1.55-.49,2.25-.78,4.42-1.79,6.48-3,5.84-3.51,11.02-8.01,15.31-13.31,.45-.55,.9-1.11,1.34-1.67,.88-1.13,1.74-2.29,2.56-3.48s1.62-2.4,2.38-3.63c6.46-10.51,10.5-22.61,10.47-33.44,.04-3.44-.46-6.86-1.48-10.14-.75-2.27-1.88-4.4-3.35-6.29Z"/>
    <polygon class="cls-21" points="286.09 350.55 302.88 360.56 287.41 386.87 268.94 376.92 286.09 350.55"/>
    <polygon class="cls-22" points="286.09 350.55 302.88 360.56 287.41 386.87 268.94 376.92 286.09 350.55"/>
    <path class="cls-21" d="M304.13,361.76c-.18-.24-.38-.46-.59-.66h0c-.19-.19-.4-.36-.62-.51l-.36-.23c-.5-.28-1.04-.48-1.61-.59-.45-.09-.91-.13-1.37-.12-.33,0-.67,.04-1,.09-.34,.06-.67,.13-1,.23l-.52,.16c-.37,.12-.73,.27-1.08,.43-.36,.17-.73,.36-1.11,.58-.96,.58-1.87,1.25-2.7,2-.35,.3-.69,.62-1,.95s-.65,.68-1,1l-.47,.54c-.77,.95-1.47,1.95-2.11,3-.26,.42-.5,.84-.74,1.27s-.45,.87-.66,1.31-.4,.88-.58,1.33c-.44,1.1-.8,2.23-1.07,3.38-.11,.45-.2,.9-.27,1.34l-.09,.67c-.08,.66-.12,1.33-.12,2,0,.61,.04,1.22,.13,1.82,.06,.38,.13,.74,.22,1.09,.09,.34,.19,.67,.32,1,.12,.3,.26,.6,.41,.88,.16,.27,.33,.52,.51,.77,.88,1.17,2.21,1.92,3.66,2.08,.31,.04,.61,.05,.92,.05,.33,0,.67-.04,1-.09,.34-.06,.67-.13,1-.22l.52-.17c.76-.26,1.49-.59,2.18-1,1.97-1.18,3.72-2.7,5.16-4.49l.46-.56c.29-.38,.58-.77,.86-1.17s.54-.81,.8-1.23c2.17-3.37,3.39-7.26,3.53-11.27,.01-1.16-.16-2.31-.5-3.42-.23-.81-.61-1.57-1.11-2.24Z"/>
    <path class="cls-14" d="M331.12,335.18l-.4-.23c.14,.07,.26,.16,.4,.24h0Z"/>
    <path class="cls-21" d="M268.94,400c-.06-23,16.1-51,36.09-62.5,10-5.76,19-6.33,25.6-2.61l-7.63-4.5h0c-6.58-3.77-15.66-3.21-25.67,2.57-20,11.54-36.15,39.53-36.08,62.5,0,11.09,3.84,19,10,22.88h0l.43,.25,.39,.23,7.26,4.27h0c-6.41-3.83-10.33-11.8-10.39-23.09Z"/>
    <path class="cls-8" d="M268.94,400c-.06-23,16.1-51,36.09-62.5,10-5.76,19-6.33,25.6-2.61l-7.63-4.5h0c-6.58-3.77-15.66-3.21-25.67,2.57-20,11.54-36.15,39.53-36.08,62.5,0,11.09,3.84,19,10,22.88h0l.43,.25,.39,.23,7.26,4.27h0c-6.41-3.83-10.33-11.8-10.39-23.09Z"/>
    <path class="cls-21" d="M331.12,335.19c-.14-.08-.26-.17-.4-.24l-.09-.06c-6.57-3.72-15.62-3.15-25.6,2.61-20,11.55-36.15,39.53-36.09,62.5,0,11.29,4,19.26,10.35,23.09,6.59,4,15.8,3.49,26-2.38,20-11.54,36.15-39.53,36.09-62.51-.06-11.21-3.96-19.15-10.26-23.01Zm-4.28,58.78c-.76,1.23-1.55,2.45-2.38,3.63s-1.68,2.35-2.56,3.48c-.44,.56-.89,1.12-1.34,1.67-4.29,5.3-9.47,9.8-15.31,13.31-2.06,1.21-4.23,2.22-6.48,3-.52,.18-1,.34-1.55,.49-.99,.28-1.99,.5-3,.66-.96,.15-1.92,.24-2.89,.26-.92,.02-1.83-.02-2.74-.13-4.32-.47-8.26-2.71-10.87-6.19-.55-.73-1.05-1.49-1.5-2.28-.46-.84-.87-1.72-1.23-2.61-.39-.96-.72-1.94-1-2.93-.26-1-.48-2.1-.65-3.23-.26-1.79-.39-3.6-.39-5.41,0-1.95,.12-3.9,.36-5.83,.08-.66,.17-1.32,.28-2,.21-1.33,.47-2.66,.78-4,.8-3.41,1.87-6.75,3.19-10,.54-1.33,1.11-2.65,1.73-3.95s1.27-2.6,2-3.88,1.41-2.53,2.17-3.77c1.89-3.07,3.98-6,6.28-8.78,.46-.54,.92-1.08,1.39-1.61,.93-1.06,1.9-2.09,2.88-3.07s2-1.93,3-2.83c2.47-2.19,5.15-4.13,8-5.8,1.11-.64,2.21-1.2,3.29-1.7,1.04-.48,2.11-.91,3.19-1.28,.52-.18,1-.34,1.55-.49,.99-.28,1.99-.5,3-.66,.95-.15,1.92-.24,2.88-.26,1.34-.03,2.68,.08,4,.34,1.67,.32,3.29,.92,4.77,1.76,.37,.21,.73,.43,1.07,.67,.66,.45,1.28,.95,1.86,1.5l.12,.1c.63,.61,1.21,1.26,1.74,1.95,1.43,1.9,2.53,4.04,3.24,6.31,1.02,3.28,1.52,6.7,1.48,10.14h0c.14,10.81-3.9,22.91-10.36,33.42Z"/>
  </g>
  <g id="freepik--Character--inject-5">
    <path class="cls-19" d="M393.37,183.23l1.42,.22c6.9,1.03,12.65,5.81,14.91,12.41l9.92,28.92-11.72,5.38-9.85-21.74-4.68-25.19Z"/>
    <path class="cls-3" d="M393.37,183.23l1.42,.22c6.9,1.03,12.65,5.81,14.91,12.41l9.92,28.92-11.72,5.38-9.85-21.74-4.68-25.19Z"/>
    <path class="cls-19" d="M413.24,378.99c-1.95,1.86-4.59,2.83-7.28,2.67-2.66-.18-5.27-.83-7.7-1.94-2.46-1-5.55-3.85-8.21-3.79-2.6-.02-5.21-.2-7.79-.53-.1-3.55,.28-7.1,1.11-10.55l12.42-.33c3.36,4.6,9.88,8.42,14.82,9.85,1.55,.44,2.73,1.7,3.07,3.27v.08c-.09,.44-.24,.87-.44,1.27Z"/>
    <path class="cls-20" d="M390.05,375.93c2.66-.06,5.75,2.78,8.21,3.79,2.43,1.11,5.04,1.76,7.7,1.94,2.69,.16,5.33-.81,7.28-2.67,.19-.4,.34-.83,.43-1.27v-.08c.12,.55,.12,1.11,0,1.66-.09,.44-.24,.86-.43,1.26-1.95,1.87-4.59,2.84-7.28,2.68-2.66-.18-5.27-.83-7.7-1.94-2.46-1-5.55-3.85-8.21-3.79-2.56,.02-5.13-.13-7.67-.45-.06-.55-.1-1.11-.12-1.66,2.58,.33,5.19,.51,7.79,.53Z"/>
    <path class="cls-20" d="M355,380.15c0,1.27,.12,2.53,.37,3.77,.4,2.21,1.64,4.18,3.45,5.5,1.67,.95,3.55,1.45,5.47,1.46,1.68,.18,3.39,0,5-.52,1.23-.44,2.26-1.29,2.94-2.4,0,.02,0,.05,0,.07-.48,1.65-1.75,2.97-3.38,3.51-1.61,.52-3.32,.7-5,.52-1.92,0-3.81-.51-5.48-1.46-1.81-1.32-3.04-3.29-3.44-5.5-.26-1.24-.39-2.5-.38-3.77,0-1.74-.73-3.41-2-4.6-.31-.3-.61-.6-.88-.91-.39-.46-.58-1.05-.54-1.65,0-.23,.05-.46,.08-.68,.45,.53,1.53,1.8,1.8,2.05,1.26,1.2,1.98,2.87,1.99,4.61Z"/>
    <path class="cls-19" d="M364.47,367.02c-.4,2.59-.06,5.24,1,7.64,1.05,2.39,2.41,4.62,4.05,6.65,.8,.96,1.51,1.99,2.12,3.09,.59,1.09,.8,2.34,.6,3.56-.68,1.11-1.71,1.96-2.94,2.4-1.61,.52-3.32,.7-5,.52-1.92,0-3.8-.51-5.47-1.46-1.81-1.32-3.05-3.29-3.45-5.5-.25-1.24-.38-2.5-.37-3.77-.01-1.75-.73-3.41-2-4.61-.27-.25-1.35-1.52-1.8-2.05,.24-1.89,.88-3.71,1.86-5.34l11.4-1.13Z"/>
    <path class="cls-21" d="M401.18,244.26l-1,70.89-3.34,49.62c-8.47,5.35-14.6,1-14.6,1-3.21-23.5-3.65-38-1.9-47.74l-1.61-38.26-4.82,39.72-8.1,48.68c-8.69,5.63-14.82,0-14.82,0,0-18-1.6-38.17,3.36-51.16-2.13-24.01-1.34-48.18,2.34-72l44.49-.75Z"/>
    <path class="cls-22" d="M401.18,244.26l-1,70.89-3.34,49.62c-8.47,5.35-14.6,1-14.6,1-3.21-23.5-3.65-38-1.9-47.74l-1.61-38.26-4.82,39.72-8.1,48.68c-8.69,5.63-14.82,0-14.82,0,0-18-1.6-38.17,3.36-51.16-2.13-24.01-1.34-48.18,2.34-72l44.49-.75Z"/>
    <path class="cls-3" d="M401.18,244.26l-1,70.89-3.34,49.62c-8.47,5.35-14.6,1-14.6,1-3.21-23.5-3.65-38-1.9-47.74l-1.61-38.26-4.82,39.72-8.1,48.68c-8.69,5.63-14.82,0-14.82,0,0-18-1.6-38.17,3.36-51.16-2.13-24.01-1.34-48.18,2.34-72l44.49-.75Z"/>
    <path class="cls-22" d="M380.47,265.14l-1.78,14.6,.76,17.92,3.26-29.45c7.55-3,8.54-7.12,8.54-7.12-3.2,2.23-6.9,3.63-10.78,4.05Z"/>
    <path class="cls-19" d="M385.08,182.36l8.29,.87c6.79,6,10.29,18.55,8.83,32.42-.89,9.51-1.22,19.06-1,28.61-18.4,13.44-41.61,3.65-44.53,.73l1.36-17c.16-1.91-.16-3.84-.93-5.6-1.74-4-4.84-12-5.25-18.13-.25-5.48,.9-10.93,3.36-15.84l12-5.26,17.87-.8Z"/>
    <g class="cls-1">
      <path d="M385.08,182.36l8.29,.87c6.79,6,10.29,18.55,8.83,32.42-.89,9.51-1.22,19.06-1,28.61-18.4,13.44-41.61,3.65-44.53,.73l1.36-17c.16-1.91-.16-3.84-.93-5.6-1.74-4-4.84-12-5.25-18.13-.25-5.48,.9-10.93,3.36-15.84l12-5.26,17.87-.8Z"/>
    </g>
    <path class="cls-19" d="M387.38,194.44c4.27,10.28,6.58,21.26,6.83,32.38l-3.42,7.33-5.34-7c.41-10.75,.19-21.51-.65-32.23l2.58-.48Z"/>
    <path class="cls-19" d="M387.67,188.42c.15,2,.05,4.02-.29,6-.8,.39-1.69,.56-2.58,.47-1.63-1.44-3.03-3.13-4.14-5l4.14-1.49,2.87,.02Z"/>
    <g class="cls-28">
      <path class="cls-6" d="M387.38,194.44c4.27,10.28,6.58,21.26,6.83,32.38l-3.42,7.33-5.34-7c.41-10.75,.19-21.51-.65-32.23l2.58-.48Z"/>
      <path class="cls-6" d="M387.67,188.42c.15,2,.05,4.02-.29,6-.8,.39-1.69,.56-2.58,.47-1.63-1.44-3.03-3.13-4.14-5l4.14-1.49,2.87,.02Z"/>
    </g>
    <path class="cls-19" d="M384.8,188.42c-3.56,1.31-6.74,7.66-6.74,7.66-9.37-8-10.83-12.92-10.83-12.92,1.22-1.85,2.76-3.48,4.54-4.8l13.03,10.06Z"/>
    <path class="cls-19" d="M384.8,188.42c2.73,.07,5.14,3.87,5.14,3.87,.43-6.65-5.14-11.76-5.14-11.76v7.89Z"/>
    <g class="cls-29">
      <path class="cls-3" d="M384.8,188.42c-3.56,1.31-6.74,7.66-6.74,7.66-9.37-8-10.83-12.92-10.83-12.92,1.22-1.85,2.76-3.48,4.54-4.8l13.03,10.06Z"/>
      <path class="cls-3" d="M384.8,188.42c2.73,.07,5.14,3.87,5.14,3.87,.43-6.65-5.14-11.76-5.14-11.76v7.89Z"/>
    </g>
    <path class="cls-17" d="M367.23,151.59c1.2-1.41,2.88-2.32,4.72-2.55l24.66,2.33c2.85,6.11,.58,10.16,.58,10.16,.38,9.32,.7,15.25-3.34,17.22-2.85,1.16-5.94,1.6-9,1.27-2.88-.18-5.69-.94-8.26-2.23l-.13-.07c-1.81-.98-3.1-2.7-3.54-4.71-.41-1.82-.7-3.66-.85-5.52-.04-1.06-.15-2.11-.34-3.15-.19-1.04-.67-2.01-1.38-2.79-.72-.79-1.79-1.17-2.85-1-.17,.05-.34,.11-.5,.2-.72-4.16-.92-7.72,.23-9.16Z"/>
    <path class="cls-12" d="M376.26,152.29c.43,1.74,.32,3.57-.33,5.24-.64,1.66-1.16,3.36-1.56,5.09-.33,1.74-.09,3.54,.68,5.14,.78,1.59,2.21,2.76,3.93,3.19,2.64,.57,5.23-1,7.89-1.52,2.56-.45,5.19,.02,7.43,1.33,.6,.37,1.39,.17,1.76-.43,.1-.17,.17-.37,.18-.57,.31-5.37,.31-13.78-.48-17.74l-19.5,.27Z"/>
    <polygon class="cls-13" points="373.74 176.28 373.74 176.27 373.75 176.28 373.74 176.28"/>
    <path class="cls-17" d="M371.59,170.16l.11,4.78c-1.1-.95-1.9-2.21-2.3-3.61,.85-.09,1.64-.51,2.19-1.17Z"/>
    <path class="cls-17" d="M395.35,147.43l3.06-2.16c.65,2.11,.21,4.4-1.17,6.12-1.39,1.65-3.3,2.78-5.41,3.23-2.09,.43-4.23,.53-6.35,.29-3.11-.25-6.19-.82-9.18-1.7-1.36-.28-2.61-.95-3.6-1.92-1.28-1.66-1.36-3.96-.19-5.7,1.18-1.69,3.03-2.78,5.07-3,2.05-.17,4.11,0,6.1,.49,1.99,.49,4.06,.64,6.1,.44,2.08-.22,3.93-1.45,4.92-3.3,1.73,2.86,.65,7.21,.65,7.21Z"/>
    <polygon class="cls-18" points="387.61 161.81 392.11 167.34 387.98 168.82 387.61 161.81"/>
    <path class="cls-4" d="M384.2,171.59l3.48,1.09c-.44,.85-1.4,1.3-2.34,1.09-.83-.38-1.3-1.28-1.14-2.18Z"/>
    <path class="cls-22" d="M384.2,171.59l3.48,1.09c-.44,.85-1.4,1.3-2.34,1.09-.83-.38-1.3-1.28-1.14-2.18Z"/>
    <path class="cls-4" d="M386.47,173.67c-.36,.14-.75,.16-1.13,.07-.66-.25-1.11-.88-1.13-1.59,.46-.08,.94,.01,1.34,.25,.46,.29,.79,.74,.92,1.27Z"/>
    <path class="cls-20" d="M381.49,163.02c.05,.68,.64,1.2,1.32,1.16,.68-.05,1.2-.64,1.16-1.32-.04-.68-.63-1.19-1.3-1.16-.68,.05-1.2,.63-1.17,1.32Z"/>
    <path class="cls-20" d="M391.83,162.05c.05,.68,.64,1.19,1.32,1.13,.68-.05,1.19-.64,1.13-1.32-.05-.67-.62-1.17-1.29-1.14-.68,.04-1.2,.63-1.16,1.31,0,0,0,0,0,0Z"/>
    <path class="cls-20" d="M392.76,157l2.84,1.77c.21-.71-.05-1.48-.64-1.93-.7-.37-1.56-.31-2.2,.16Z"/>
    <path class="cls-20" d="M382.19,157.43l-2.63,2.07c-.28-.69-.11-1.49,.43-2,.66-.45,1.52-.48,2.2-.07Z"/>
    <path class="cls-12" d="M365.28,162.59c.32-.8,.93-1.44,1.71-1.81,.16-.09,.33-.15,.5-.2,1.06-.17,2.13,.21,2.85,1,.71,.78,1.19,1.75,1.38,2.79,.19,1.04,.3,2.09,.34,3.15,.16,1.9,.45,3.79,.88,5.65,.46,1.96,1.74,3.63,3.52,4.58l.12,.07c2.57,1.29,5.38,2.05,8.26,2.23v8.41l-11.66-6.9c-.84-.5-1.36-1.4-1.38-2.38,0-1.35-.06-2.83-.09-4.2l-.11-4.78c-.55,.66-1.34,1.08-2.19,1.17-.38,.06-.77,.04-1.15-.06-1.12-.36-2.05-1.17-2.57-2.23-.51-1.06-.79-2.21-.82-3.39-.1-1.05,.04-2.11,.41-3.1Z"/>
    <path class="cls-23" d="M374.92,177.59c-.69-.89-1.18-1.91-1.44-3,.64,1.33,1.69,2.43,3,3.13l.12,.07c2.57,1.29,5.38,2.05,8.26,2.23v2.14c-1.66-.14-3.3-.47-4.88-1-2-.68-3.75-1.92-5.06-3.57Z"/>
    <path class="cls-12" d="M327,218.35l-4.4-2.18c-1.37-.67-2.51-1.74-3.28-3.06l-1.32-2.36c-.94-1.61-2.33-2.91-4-3.75-2.52-1.24-4.87-2.8-7-4.64h0c-.92,1.47-.68,3.38,.57,4.57,.9,.83,1.85,1.6,2.86,2.29l-2.11,.54c-1.52,.39-3.13,.29-4.59-.28l-6-2.35c-.54-.21-1.15,.06-1.36,.61-.07,.18-.09,.37-.05,.55,.56,2.67,1.58,5.23,3,7.56,1.32,2.25,3.55,3.82,6.12,4.3,3.08,.58,6.06,1,7.75,1.28,.97,.14,1.91,.43,2.79,.86l6.46,3.21,4.56-7.15Z"/>
    <path class="cls-19" d="M331.2,225.12c.76-1.81,1.03-3.79,.77-5.73l8.25,3.92c1.5-6.02,2.67-12.13,3.5-18.28,1-8.32,.77-13.91,11.47-16.61,0,0,7.21,11.89,2.08,22.41,0,7.75-2.27,26.17-9.93,29.13-6.35,2.45-10.83-3.59-20.51-9.84,1.94-1.18,3.46-2.92,4.37-5Z"/>
    <path class="cls-3" d="M331.2,225.12c.76-1.81,1.03-3.79,.77-5.73l8.25,3.92c1.5-6.02,2.67-12.13,3.5-18.28,1-8.32,.77-13.91,11.47-16.61,0,0,7.21,11.89,2.08,22.41,0,7.75-2.27,26.17-9.93,29.13-6.35,2.45-10.83-3.59-20.51-9.84,1.94-1.18,3.46-2.92,4.37-5Z"/>
    <path class="cls-23" d="M345.77,228.79c-.29-1.24-2.34-4.09-5.55-5.48,0,0,.24-1,.61-2.54,1.66,.82,5.76,3.34,4.94,8.02Z"/>
    <path class="cls-19" d="M324.37,216.7l7.6,2.69c.59,4.28-1.43,8.51-5.14,10.73-2.22-1.51-4.32-3.19-6.3-5,0,0,3.29-1.19,3.84-8.42Z"/>
    <path class="cls-23" d="M413.9,208.11l-5.73,15.55,.41-4.16c.43-4.29,2.31-8.31,5.32-11.39Z"/>
    <path class="cls-19" d="M421.8,215.29l-.19-6-3-4.52c-.56-.95-1.79-1.27-2.74-.7-.43,.25-.74,.65-.89,1.12l-1.38,3.73c.19,1.77,1.02,3.41,2.34,4.61,1.61,1.4,3.74,2.04,5.86,1.76Z"/>
    <path class="cls-19" d="M415.94,213.59c-1.32-1.2-2.15-2.84-2.34-4.61l-5.81,15.61c-.73,1.8-.69,3.81,.11,5.58h0c1.62,3.55,5.8,5.12,9.35,3.5,.1-.05,.21-.1,.31-.15l.77-.4c2.42-1.25,3.91-3.77,3.82-6.49l-.35-11.33c-2.11,.3-4.24-.33-5.86-1.71Z"/>
    <path class="cls-3" d="M415.94,213.59c-1.32-1.2-2.15-2.84-2.34-4.61l-5.81,15.61c-.73,1.8-.69,3.81,.11,5.58h0c1.62,3.55,5.8,5.12,9.35,3.5,.1-.05,.21-.1,.31-.15l.77-.4c2.42-1.25,3.91-3.77,3.82-6.49l-.35-11.33c-2.11,.3-4.24-.33-5.86-1.71Z"/>
    <path class="cls-14" d="M422.66,219.45l-1.06-.61c-.4-.24-.65-.68-.66-1.15v-4.78l2.39,1.42,2.38-1.38v4.74c0,.47-.25,.91-.66,1.15l-1.06,.61c-.41,.24-.92,.24-1.33,0Z"/>
    <path class="cls-8" d="M422.66,219.45l-1.06-.61c-.4-.24-.65-.68-.66-1.15v-4.78l2.39,1.42,2.38-1.38v4.74c0,.47-.25,.91-.66,1.15l-1.06,.61c-.41,.24-.92,.24-1.33,0Z"/>
    <path class="cls-12" d="M421.62,198.49l2.6-.46,4.79,3.42c.49,.34,.77,.9,.77,1.49v10c0,.72-.43,1.38-1.09,1.67l-3.35,1.48c-.68,.29-1.46,.16-2-.34l-2.83-2.65c-.38-.35-.6-.84-.6-1.36v-.91c-1.11-.7-2.02-1.69-2.62-2.86-.63-1.05-.93-2.26-.89-3.48h0c.12-2.97,2.29-5.47,5.22-6Z"/>
    <path class="cls-4" d="M421.78,202.84v5.55c0,.92,.75,1.67,1.67,1.67h0c.92,0,1.66-.74,1.66-1.66,0,0,0,0,0-.01v-5.93l.69,1.66v4.55c0,1.3-1.05,2.35-2.35,2.35h0c-1.3,0-2.35-1.05-2.36-2.35v-2.29c-.42,1.11-1.35,1.94-2.5,2.23,2.5-1.92,3.19-5.77,3.19-5.77Z"/>
    <g id="freepik--Megaphone--inject-5-2" data-name="freepik--Megaphone--inject-5">
      <path class="cls-21" d="M424.73,219.84l1.5-.87c.58-.34,.94-.95,.94-1.63v-17.98l-3.36,2.01-3.38-1.95v17.91c0,.67,.36,1.29,.94,1.63l1.5,.87c.57,.33,1.28,.34,1.86,0Z"/>
      <path class="cls-3" d="M427.16,199.37v17.99c0,.67-.36,1.29-.94,1.63l-1.5,.87c-.29,.16-.61,.25-.94,.25v-18.73l3.38-2.01Z"/>
      <path class="cls-8" d="M423.81,201.38v18.72c-.33,0-.65-.09-.94-.25l-1.5-.87c-.58-.34-.94-.95-.94-1.63v-17.91l3.38,1.94Z"/>
      <path class="cls-21" d="M421.06,178.93l-.07-.04h0c-1.15-.65-2.73-.55-4.48,.44-3.49,2.02-6.33,6.92-6.32,10.95,0,1.97,.7,3.37,1.81,4.04l8.75,4.98,8.53-15.53-8.22-4.84Zm-10.18,10.92c0-.34,.02-.68,.06-1.02-.04,.34-.06,.68-.06,1.02,0,.32,.02,.63,.07,.95-.04-.3-.07-.61-.07-.91v-.03Z"/>
      <path class="cls-8" d="M421.06,178.93l-.07-.04h0c-1.15-.65-2.73-.55-4.48,.44-3.49,2.02-6.33,6.92-6.32,10.95,0,1.97,.7,3.37,1.81,4.04l8.75,4.98,8.53-15.53-8.22-4.84Zm-10.18,10.92c0-.34,.02-.68,.06-1.02-.04,.34-.06,.68-.06,1.02,0,.32,.02,.63,.07,.95-.04-.3-.07-.61-.07-.91v-.03Z"/>
      <path class="cls-21" d="M430.13,181.74l-.09-.06h-.02c-1.45-.83-3.46-.7-5.68,.58-4.43,2.56-8.02,8.77-8.01,13.87,0,2.5,.87,4.27,2.3,5.12,14.16,10.17,22.72,25.67,22.72,25.67l20.31-38.88c-7.37,1.64-21.25-.16-31.53-6.3Z"/>
      <path class="cls-9" d="M430.13,181.74l-.09-.06h-.02c-1.45-.83-3.46-.7-5.68,.58-4.43,2.56-8.02,8.77-8.01,13.87,0,2.5,.87,4.27,2.3,5.12,14.16,10.17,22.72,25.67,22.72,25.67l20.31-38.88c-7.37,1.64-21.25-.16-31.53-6.3Z"/>
      <path class="cls-19" d="M442.3,215.33c-.1,.84-.16,1.7-.16,2.55,0,.79,.06,1.58,.17,2.36-.11-.78-.17-1.57-.17-2.36,0-.85,.05-1.7,.16-2.55Z"/>
      <path class="cls-21" d="M468.18,194.47c-.23-.3-.49-.59-.76-.85l-.05-.04c-.25-.24-.52-.46-.81-.66-.15-.1-.31-.2-.47-.29-.65-.37-1.35-.63-2.08-.77-.58-.11-1.16-.16-1.75-.15-.42,.01-.84,.05-1.26,.11-.44,.07-.88,.17-1.31,.29-.22,.07-.44,.14-.68,.21-.47,.16-.94,.35-1.39,.56-.47,.22-.95,.46-1.44,.74-1.24,.73-2.41,1.58-3.49,2.53-.44,.39-.87,.8-1.31,1.24s-.85,.87-1.26,1.34c-.21,.23-.41,.47-.61,.7-1,1.21-1.92,2.49-2.74,3.84-.33,.54-.65,1.09-.95,1.65s-.59,1.12-.87,1.69-.52,1.14-.76,1.73c-.58,1.42-1.04,2.88-1.39,4.37-.14,.59-.25,1.17-.34,1.75-.05,.29-.09,.58-.12,.87-.1,.84-.16,1.7-.16,2.55,0,.79,.06,1.58,.17,2.36,.07,.49,.17,.96,.28,1.41,.12,.43,.27,.86,.44,1.28,.16,.39,.34,.77,.54,1.14,.2,.35,.41,.68,.66,1,1.14,1.52,2.86,2.5,4.75,2.7,.4,.05,.8,.07,1.2,.06,.42-.01,.84-.05,1.26-.11,.44-.07,.88-.17,1.31-.29,.22-.07,.44-.14,.68-.21,.98-.34,1.93-.78,2.83-1.31,2.55-1.53,4.82-3.5,6.69-5.81,.2-.24,.39-.48,.59-.73,.38-.49,.76-1,1.12-1.52s.71-1.05,1.04-1.59c2.82-4.59,4.59-9.88,4.57-14.61,.02-1.5-.2-3-.65-4.43-.33-.99-.82-1.92-1.46-2.75Z"/>
      <path class="cls-25" d="M468.18,194.47c-.23-.3-.49-.59-.76-.85l-.05-.04c-.25-.24-.52-.46-.81-.66-.15-.1-.31-.2-.47-.29-.65-.37-1.35-.63-2.08-.77-.58-.11-1.16-.16-1.75-.15-.42,.01-.84,.05-1.26,.11-.44,.07-.88,.17-1.31,.29-.22,.07-.44,.14-.68,.21-.47,.16-.94,.35-1.39,.56-.47,.22-.95,.46-1.44,.74-1.24,.73-2.41,1.58-3.49,2.53-.44,.39-.87,.8-1.31,1.24s-.85,.87-1.26,1.34c-.21,.23-.41,.47-.61,.7-1,1.21-1.92,2.49-2.74,3.84-.33,.54-.65,1.09-.95,1.65s-.59,1.12-.87,1.69-.52,1.14-.76,1.73c-.58,1.42-1.04,2.88-1.39,4.37-.14,.59-.25,1.17-.34,1.75-.05,.29-.09,.58-.12,.87-.1,.84-.16,1.7-.16,2.55,0,.79,.06,1.58,.17,2.36,.07,.49,.17,.96,.28,1.41,.12,.43,.27,.86,.44,1.28,.16,.39,.34,.77,.54,1.14,.2,.35,.41,.68,.66,1,1.14,1.52,2.86,2.5,4.75,2.7,.4,.05,.8,.07,1.2,.06,.42-.01,.84-.05,1.26-.11,.44-.07,.88-.17,1.31-.29,.22-.07,.44-.14,.68-.21,.98-.34,1.93-.78,2.83-1.31,2.55-1.53,4.82-3.5,6.69-5.81,.2-.24,.39-.48,.59-.73,.38-.49,.76-1,1.12-1.52s.71-1.05,1.04-1.59c2.82-4.59,4.59-9.88,4.57-14.61,.02-1.5-.2-3-.65-4.43-.33-.99-.82-1.92-1.46-2.75Z"/>
      <polygon class="cls-21" points="447.87 197.3 455.21 201.67 448.45 213.16 440.38 208.81 447.87 197.3"/>
      <polygon class="cls-22" points="447.87 197.3 455.21 201.67 448.45 213.16 440.38 208.81 447.87 197.3"/>
      <path class="cls-21" d="M455.75,202.19c-.08-.1-.16-.2-.26-.29h0c-.08-.08-.17-.16-.27-.22l-.16-.1c-.22-.12-.46-.21-.7-.26-.2-.04-.4-.06-.6-.05-.15,0-.29,.02-.44,.04-.15,.02-.29,.06-.44,.1l-.23,.07c-.16,.05-.32,.12-.47,.19-.16,.07-.32,.16-.48,.25-.42,.25-.82,.55-1.18,.87-.15,.13-.3,.27-.44,.41s-.28,.3-.44,.44l-.21,.24c-.34,.42-.64,.85-.92,1.31-.11,.18-.22,.37-.32,.55s-.2,.38-.29,.57-.17,.38-.25,.58c-.19,.48-.35,.97-.47,1.48-.05,.2-.09,.39-.12,.59l-.04,.29c-.04,.29-.05,.58-.05,.87,0,.27,.02,.53,.06,.8,.03,.17,.06,.32,.1,.48,.04,.15,.08,.29,.14,.44,.05,.13,.11,.26,.18,.38,.07,.12,.14,.23,.22,.34,.39,.51,.96,.84,1.6,.91,.13,.02,.27,.02,.4,.02,.15,0,.29-.02,.44-.04,.15-.02,.29-.06,.44-.1l.23-.07c.33-.11,.65-.26,.95-.44,.86-.52,1.62-1.18,2.25-1.96l.2-.24c.13-.17,.25-.34,.38-.51s.24-.35,.35-.54c.95-1.47,1.48-3.17,1.54-4.92,0-.51-.07-1.01-.22-1.49-.1-.35-.27-.68-.48-.98Z"/>
      <path class="cls-14" d="M467.54,190.58l-.17-.1c.06,.03,.11,.07,.17,.1h0Z"/>
      <path class="cls-21" d="M440.38,218.9c-.03-10.05,7.03-22.28,15.77-27.3,4.37-2.52,8.3-2.77,11.18-1.14l-3.33-1.97h0c-2.87-1.65-6.84-1.4-11.21,1.12-8.74,5.04-15.79,17.27-15.76,27.3,0,4.84,1.68,8.3,4.37,9.99h0l.19,.11,.17,.1,3.17,1.87h0c-2.8-1.67-4.51-5.15-4.54-10.09Z"/>
      <path class="cls-8" d="M440.38,218.9c-.03-10.05,7.03-22.28,15.77-27.3,4.37-2.52,8.3-2.77,11.18-1.14l-3.33-1.97h0c-2.87-1.65-6.84-1.4-11.21,1.12-8.74,5.04-15.79,17.27-15.76,27.3,0,4.84,1.68,8.3,4.37,9.99h0l.19,.11,.17,.1,3.17,1.87h0c-2.8-1.67-4.51-5.15-4.54-10.09Z"/>
      <path class="cls-21" d="M467.54,190.59c-.06-.03-.11-.07-.17-.1l-.04-.03c-2.87-1.63-6.82-1.38-11.18,1.14-8.74,5.05-15.79,17.27-15.77,27.3,0,4.93,1.75,8.41,4.52,10.09,2.88,1.75,6.9,1.52,11.36-1.04,8.74-5.04,15.79-17.27,15.77-27.31-.03-4.9-1.73-8.37-4.48-10.05Zm-1.87,25.68c-.33,.54-.68,1.07-1.04,1.59s-.73,1.03-1.12,1.52c-.19,.24-.39,.49-.59,.73-1.87,2.31-4.14,4.28-6.69,5.81-.9,.53-1.85,.97-2.83,1.31-.23,.08-.44,.15-.68,.21-.43,.12-.87,.22-1.31,.29-.42,.07-.84,.1-1.26,.11-.4,0-.8,0-1.2-.06-1.89-.21-3.61-1.18-4.75-2.7-.24-.32-.46-.65-.66-1-.2-.37-.38-.75-.54-1.14-.17-.42-.32-.85-.44-1.28-.11-.44-.21-.92-.28-1.41-.11-.78-.17-1.57-.17-2.36,0-.85,.05-1.7,.16-2.55,.03-.29,.07-.58,.12-.87,.09-.58,.21-1.16,.34-1.75,.35-1.49,.82-2.95,1.39-4.37,.24-.58,.48-1.16,.76-1.73s.55-1.14,.87-1.69,.62-1.11,.95-1.65c.82-1.34,1.74-2.62,2.74-3.84,.2-.24,.4-.47,.61-.7,.41-.46,.83-.91,1.26-1.34s.87-.84,1.31-1.24c1.08-.96,2.25-1.8,3.49-2.53,.48-.28,.97-.52,1.44-.74,.45-.21,.92-.4,1.39-.56,.23-.08,.44-.15,.68-.21,.43-.12,.87-.22,1.31-.29,.42-.07,.84-.1,1.26-.11,.59-.01,1.17,.04,1.75,.15,.73,.14,1.44,.4,2.08,.77,.16,.09,.32,.19,.47,.29,.29,.2,.56,.42,.81,.66l.05,.04c.27,.27,.53,.55,.76,.85,.62,.83,1.1,1.76,1.42,2.76,.44,1.43,.66,2.93,.65,4.43h0c.06,4.72-1.7,10.01-4.53,14.6Z"/>
    </g>
  </g>
  <g id="freepik--speech-bubbles--inject-5">
    <path class="cls-21" d="M304.86,265.51l-26.74,15.34c-.82,.48-1.49,1.17-1.95,2-.44,.78-.67,1.66-.67,2.55v19.46c.07,2.84,2.43,5.09,5.27,5.02,.92-.02,1.82-.29,2.61-.78l4.64-2.66,.42,.69,.07,.06h.05c.77,.5,2.11,1.23,2.42,1.38h0c.14,.05,.3-.03,.35-.17l1.67-4.81h0l17.07-9.76c1.63-.93,2.63-2.66,2.63-4.53v-19.54c.04-3.77-5.5-5.59-7.84-4.25Z"/>
    <path class="cls-7" d="M288.44,307.11l.07,.06h.05c.77,.5,2.11,1.23,2.42,1.38h0c-.07-.01-.13-.06-.17-.12l-1.66-2.68,.33-.19h0l-1.46,.83,.42,.72Z"/>
    <path class="cls-11" d="M281.36,285.77c.34-.67,.82-1.27,1.4-1.75h0c.2-.16,.42-.3,.64-.43l26.74-15.34c.83-.48,1.88-.2,2.37,.63,.16,.27,.24,.57,.23,.88,0-3.77-5.54-5.59-7.88-4.25l-26.74,15.34c-.82,.48-1.49,1.17-1.95,2l5.19,2.92Z"/>
    <path class="cls-7" d="M280.78,307.59v-19.48c-.01-.2-.01-.41,0-.61,.08-.6,.26-1.19,.54-1.73l-5.19-2.94c-.44,.78-.67,1.66-.67,2.55v19.46c.07,2.84,2.43,5.09,5.27,5.02,.92-.02,1.82-.29,2.61-.78-.85,.45-1.9,.13-2.35-.71-.13-.24-.2-.5-.21-.78Z"/>
    <path class="cls-14" d="M294.5,288.14c.4-.24,.73-.05,.73,.42v7.21c-.03,.51-.29,.98-.72,1.27l-3.64,2.09c-.4,.24-.73,.05-.73-.42v-7.26c.03-.52,.3-.98,.74-1.26l3.62-2.05Zm-1.36,8.75c.45-.29,.73-.78,.76-1.32,0-.49-.34-.69-.77-.44-.45,.29-.74,.78-.76,1.32,0,.49,.34,.69,.77,.44"/>
    <path class="cls-16" d="M294.5,288.14c.4-.24,.73-.05,.73,.42v7.21c-.03,.51-.29,.98-.72,1.27l-3.64,2.09c-.4,.24-.73,.05-.73-.42v-7.26c.03-.52,.3-.98,.74-1.26l3.62-2.05Zm-1.36,8.75c.45-.29,.73-.78,.76-1.32,0-.49-.34-.69-.77-.44-.45,.29-.74,.78-.76,1.32,0,.49,.34,.69,.77,.44"/>
    <path class="cls-6" d="M298.2,277.98c1.59-.92,2.86-.1,2.76,1.78l-.15,3,4.19-2.47c1.45-.83,1.76,1.1,.78,2.46,1,.28,.7,2-.19,3,.82,.37,.09,2.26-.91,3.05,.66,.27,.09,2.31-1.06,3l-4.16,2.4-2.62,1.52c-.9,.51-1.63,.1-1.63-.93v-6l1.66-4c.83-1.92,1.28-3.99,1.31-6.09l.02-.72Z"/>
    <path class="cls-21" d="M396.67,76.69l-26.74,15.34c-1.61,.94-2.61,2.66-2.62,4.52v19.46c.07,2.84,2.43,5.09,5.27,5.02,.92-.02,1.82-.29,2.61-.78l4.65-2.65,.42,.68s.04,.05,.07,.06h.05c.76,.51,2.11,1.23,2.41,1.39h0c.15,.05,.31-.03,.36-.18l1.71-4.85h0l17.06-9.75c1.63-.93,2.63-2.66,2.63-4.53v-19.49c0-3.76-5.55-5.58-7.88-4.24Z"/>
    <path class="cls-7" d="M380.26,118.28s.04,.05,.07,.06h.05c.76,.51,2.11,1.23,2.41,1.39h0c-.07-.02-.13-.06-.17-.12l-1.62-2.66,.33-.18h0l-1.46,.83,.39,.68Z"/>
    <path class="cls-11" d="M373.18,96.95c.34-.67,.81-1.27,1.39-1.75h0c.2-.15,.41-.3,.63-.43l26.8-15.35c.84-.47,1.9-.18,2.37,.65,.15,.26,.23,.56,.23,.86,0-3.76-5.54-5.58-7.88-4.24l-26.79,15.34c-.82,.47-1.49,1.17-1.94,2l5.19,2.92Z"/>
    <path class="cls-7" d="M372.59,118.74v-19.45c-.02-.21-.02-.41,0-.62,.09-.6,.27-1.18,.55-1.72l-5.19-3c-.45,.78-.68,1.66-.68,2.55v19.46c.07,2.84,2.43,5.09,5.27,5.02,.92-.02,1.82-.29,2.61-.78-.84,.46-1.89,.15-2.35-.69-.13-.24-.2-.5-.21-.77Z"/>
    <path class="cls-14" d="M386.31,99.31c.41-.23,.73,0,.74,.42v7.27c-.03,.51-.3,.98-.73,1.26l-3.64,2.1c-.4,.23-.73,0-.73-.42v-7.27c.03-.51,.3-.98,.73-1.26l3.63-2.1Zm-1.31,8.76c.45-.3,.74-.79,.76-1.33,0-.48-.34-.68-.76-.44-.46,.29-.74,.79-.77,1.33,0,.49,.35,.68,.77,.44"/>
    <path class="cls-16" d="M386.31,99.31c.41-.23,.73,0,.74,.42v7.27c-.03,.51-.3,.98-.73,1.26l-3.64,2.1c-.4,.23-.73,0-.73-.42v-7.27c.03-.51,.3-.98,.73-1.26l3.63-2.1Zm-1.31,8.76c.45-.3,.74-.79,.76-1.33,0-.48-.34-.68-.76-.44-.46,.29-.74,.79-.77,1.33,0,.49,.35,.68,.77,.44"/>
    <path class="cls-6" d="M390,89.16c1.59-.92,2.85-.11,2.76,1.77l-.15,3,4.22-2.44c1.45-.83,1.76,1.09,.79,2.45,1,.29,.69,2-.2,3,.82,.37,.1,2.27-.91,3.06,.66,.27,.1,2.3-1.06,3l-4.15,2.4-2.63,1.51c-.89,.52-1.62,.1-1.63-.92v-6l1.66-4c.83-1.95,1.27-4.05,1.3-6.17v-.66Z"/>
    <path class="cls-21" d="M158.39,152.77l-26.74,15.34c-1.62,.92-2.63,2.62-2.65,4.48v19.5c.07,2.84,2.43,5.09,5.27,5.02,.92-.02,1.82-.29,2.61-.78l4.65-2.65,.42,.68,.06,.06h.05c.77,.51,2.11,1.23,2.42,1.38h0c.15,.04,.3-.04,.36-.18l1.71-4.85h0l17.06-9.75c1.63-.93,2.63-2.66,2.63-4.53v-19.48c.03-3.76-5.51-5.59-7.85-4.24Z"/>
    <path class="cls-7" d="M142,194.36l.06,.06h.05c.77,.51,2.11,1.23,2.42,1.38h0c-.07-.02-.13-.06-.17-.12l-1.66-2.69,.33-.18h0l-1.45,.83,.42,.72Z"/>
    <path class="cls-11" d="M134.89,173.03c.34-.68,.81-1.27,1.4-1.75h0c.2-.16,.41-.31,.63-.43l26.74-15.34c.84-.47,1.9-.18,2.37,.65,.15,.26,.23,.56,.23,.86,0-3.76-5.54-5.59-7.88-4.24l-26.74,15.34c-.84,.47-1.53,1.16-2,2l5.25,2.91Z"/>
    <path class="cls-7" d="M134.31,194.82v-19.45c-.02-.21-.02-.41,0-.62,.08-.6,.26-1.18,.54-1.72l-5.19-2.95c-.43,.77-.65,1.63-.66,2.51v19.5c.07,2.84,2.43,5.09,5.27,5.02,.92-.02,1.82-.29,2.61-.78-.84,.46-1.89,.16-2.35-.67-.14-.26-.22-.54-.22-.84Z"/>
    <path class="cls-14" d="M148,175.39c.41-.23,.73-.05,.73,.42v7.21c-.02,.52-.29,.99-.72,1.27l-3.64,2.1c-.4,.23-.73,0-.73-.42v-7.27c.02-.51,.29-.99,.73-1.26l3.63-2.05Zm-1.36,8.76c.45-.3,.73-.79,.76-1.33,0-.49-.34-.68-.77-.44-.45,.3-.73,.79-.76,1.33,0,.48,.34,.68,.77,.44"/>
    <path class="cls-16" d="M148,175.39c.41-.23,.73-.05,.73,.42v7.21c-.02,.52-.29,.99-.72,1.27l-3.64,2.1c-.4,.23-.73,0-.73-.42v-7.27c.02-.51,.29-.99,.73-1.26l3.63-2.05Zm-1.36,8.76c.45-.3,.73-.79,.76-1.33,0-.49-.34-.68-.77-.44-.45,.3-.73,.79-.76,1.33,0,.48,.34,.68,.77,.44"/>
    <path class="cls-6" d="M151.73,165.24c1.59-.92,2.86-.11,2.76,1.77l-.14,3,4.22-2.44c1.45-.84,1.76,1.09,.78,2.45,1,.29,.7,2-.19,3,.82,.37,.09,2.27-.91,3.06,.66,.27,.09,2.3-1.06,3l-4.16,2.4-2.62,1.51c-.9,.52-1.63,.1-1.63-.93v-6l1.66-4c.83-1.93,1.28-3.99,1.32-6.09l-.03-.73Z"/>
  </g>
</svg>