<?xml version="1.0" encoding="UTF-8"?>
<svg id="Layer_1" data-name="Layer 1" xmlns="http://www.w3.org/2000/svg" viewBox="0 0 500 500">
  <defs>
    <style>
      .cls-1 {
        fill: none;
      }

      .cls-2 {
        fill: #ebebeb;
      }

      .cls-3 {
        fill: #f5f5f5;
      }

      .cls-4 {
        fill: #fff;
      }

      .cls-5 {
        fill: #fafafa;
      }

      .cls-6 {
        fill: #ffbe9d;
      }

      .cls-7 {
        fill: #e8505b;
      }

      .cls-8 {
        fill: #b78876;
      }

      .cls-9 {
        fill: #dceee0;
      }

      .cls-10 {
        fill: #e0e0e0;
      }

      .cls-11 {
        fill: #a36957;
      }

      .cls-12 {
        fill: #455a64;
      }

      .cls-13 {
        fill: #263238;
      }

      .cls-14 {
        fill: #5cbb61;
      }
    </style>
  </defs>
  <g id="Background_Complete" data-name="Background Complete">
    <path class="cls-2" d="M183.08,40.88c-3.44-5.17-10.64-5.78-15.64-2.48-5,3.3-7.47,7.39-8.74,13.73-.72-6.43-3.2-10.74-7.92-14.46-4.73-3.72-12.01-3.75-15.91,1.1-2.29,2.84-3.13,6.89-2.8,10.67,.33,3.78,1.22,7.74,3.41,10.64,7.77,10.34,12.16,12.3,22.38,19.85,10.76-6.63,14.19-8.25,22.77-17.87,2.41-2.7,3.64-6.56,4.29-10.3,.65-3.74,.18-7.84-1.84-10.88Z"/>
    <path class="cls-3" d="M63.2,82.27c1.67-1.77,2.19-4.52,1.1-7.02-1.43-3.27-5.07-4.83-8.14-3.49-3.06,1.34-4.39,5.07-2.96,8.34,1.1,2.52,3.51,4.01,5.97,3.95-7.95,5.05-3.47,14.14-3.47,14.14l20.19-8.82s-3.68-9.57-12.69-7.11Z"/>
    <path class="cls-10" d="M420.96,236.07c4.74-.54,9.01-4.02,10.53-9.15,1.99-6.72-1.51-13.67-7.8-15.54-6.29-1.87-13.01,2.07-14.99,8.78-1.53,5.17,.21,10.46,3.96,13.48-18.34-2.47-23.1,16.85-23.1,16.85l41.48,12.29s6.57-19.02-10.08-26.73Z"/>
    <g>
      <path class="cls-2" d="M263.3,374.8c0-4.21-3.42-7.61-7.63-7.61l-163.45,.25c-4.21,0-7.61,3.42-7.61,7.63l.08,50.26c0,4.21,3.42,7.61,7.63,7.61l142.02-.21,18.82,19.07-.03-19.1h2.63c4.21-.01,7.61-3.43,7.61-7.64l-.08-50.26Z"/>
      <g>
        <path class="cls-3" d="M112.79,426.56c.06,.02,.12,.03,.17,.05l-.33-5.35,.16,5.3Z"/>
        <path class="cls-3" d="M119.82,372.79c-15.1,.02-27.33,12.28-27.3,27.39,.01,9.32,4.69,17.54,11.82,22.47-1.86-9.32-2.15-19.84-2.14-22.8l-.14,.02c.06-.45,.12-1.12,.18-1.83h0c.09-.98,.2-2.01,.33-2.57,3.1-13.21,14.31-15.87,16.54-15.91,2.39-.04,6.54-1.47,12.75,4.91,6.21,6.38,3.01,13.43,3.01,13.43l-.02-.02c.12,4.24,.2,9.04,.08,12.01-.26,6.31-6.44,7.1-6.44,7.1,0,0-.31,5.42-.39,9.23,11.09-3.5,19.13-13.88,19.11-26.12-.02-15.1-12.28-27.33-27.39-27.31Z"/>
        <path class="cls-2" d="M128.38,418.54c-6.15,.38-8.09-4.22-8.09-4.22,4.05,2.79,8.19,2.67,8.19,2.67,0,0,6.18-.79,6.44-7.1,.12-2.97,.04-7.77-.08-12.01l-1.02-.93-9.03-2.21c.66-2.5-.44-5.57-1.06-6.99l-.06-.05c-1.61,9.47-11.72,10.64-11.72,10.64l.68,22.92,.33,5.35c2.22,.58,4.54,.88,6.94,.88,2.86,0,5.61-.45,8.2-1.26,.08-3.81,.39-9.23,.39-9.23l-.11,1.55Zm-4.76-17.87c-.43,0-.79-.35-.8-.79,0-.45,.34-.81,.77-.82s.79,.35,.8,.79c0,.45-.34,.81-.77,.82Zm9.11-.17c-.43,0-.79-.35-.8-.79,0-.45,.34-.81,.77-.82s.79,.35,.8,.79c0,.45-.34,.81-.77,.82Zm-1.25-2.3c.27-.2,.73-.39,1.25-.36,.53,.02,.97,.25,1.22,.47,.26,.22,.34,.43,.29,.47-.1,.11-.69-.39-1.54-.42-.85-.04-1.47,.4-1.57,.28-.04-.05,.06-.24,.33-.44Zm-3.7,.46c.1-.03,.86,2,1.72,4.55,.2,.63,.4,1.23,.59,1.8,.08,.27,.22,.57,.1,.91-.06,.17-.22,.29-.36,.32-.14,.04-.26,.04-.37,.04-.86,.02-1.39,0-1.4-.05,0-.05,.53-.13,1.38-.21,.22-.02,.42-.05,.46-.21,.05-.16-.03-.42-.14-.69-.2-.57-.4-1.16-.62-1.79-.85-2.55-1.47-4.64-1.37-4.67Zm1.62,9.82s-1.04,1.59-2.79,.87c-1.82-.75-1.33-2.24-1.33-2.24-.87-.57,2.39,1.4,4.12,1.37Zm-7.3-10.1c.27-.2,.73-.39,1.25-.36,.53,.02,.97,.25,1.22,.47,.26,.22,.34,.43,.29,.47-.1,.11-.69-.39-1.54-.42-.85-.04-1.47,.4-1.57,.28-.04-.05,.06-.25,.33-.45Z"/>
        <path class="cls-10" d="M132.7,398.88c-.43,0-.78,.38-.77,.82,0,.45,.37,.8,.8,.79,.43,0,.78-.38,.77-.82,0-.45-.37-.8-.8-.79Z"/>
        <path class="cls-10" d="M132.71,398.36c.85,.03,1.44,.53,1.54,.42,.05-.05-.04-.25-.29-.47-.25-.22-.69-.45-1.22-.47-.53-.02-.99,.16-1.25,.36-.27,.2-.38,.4-.33,.45,.09,.11,.72-.33,1.56-.28Z"/>
        <path class="cls-10" d="M123.59,399.05c-.43,0-.78,.38-.77,.82,0,.45,.37,.8,.8,.79,.43,0,.78-.38,.77-.82,0-.45-.37-.8-.8-.79Z"/>
        <path class="cls-10" d="M123.33,398.54c.85,.03,1.44,.53,1.54,.42,.05-.05-.04-.25-.29-.47-.25-.22-.69-.45-1.22-.47-.53-.02-.98,.16-1.25,.36-.28,.2-.38,.4-.33,.45,.09,.11,.72-.33,1.57-.28Z"/>
        <path class="cls-10" d="M129.76,405.12c.1,.27,.19,.53,.14,.69-.04,.16-.24,.2-.46,.21-.86,.08-1.38,.16-1.38,.21s.54,.07,1.4,.05c.11,0,.23,0,.37-.04,.14-.03,.3-.15,.36-.32,.12-.34-.02-.65-.1-.91-.19-.57-.38-1.17-.59-1.8-.85-2.55-1.62-4.58-1.72-4.55-.1,.03,.52,2.12,1.37,4.67,.21,.62,.42,1.22,.61,1.79Z"/>
        <path class="cls-4" d="M126.6,409.35c1.75,.72,2.79-.87,2.79-.87-1.73,.03-4.99-1.94-4.12-1.37,0,0-.49,1.49,1.33,2.24Z"/>
        <path class="cls-10" d="M120.3,414.33s1.93,4.59,8.09,4.22l.11-1.55s-4.14,.12-8.19-2.67Z"/>
        <path class="cls-10" d="M111.95,398.33s10.11-1.17,11.72-10.64l.06,.05c.62,1.43,1.72,4.49,1.06,6.99l9.03,2.21,1.02,.93,.02,.02s3.2-7.05-3.01-13.43c-6.21-6.38-10.37-4.95-12.75-4.91-2.23,.04-13.44,2.7-16.54,15.91-.13,.56-.24,1.59-.33,2.56h0c-.07,.71-.13,1.38-.18,1.83l.14-.02c0,2.96,.29,13.47,2.14,22.8,2.54,1.76,5.39,3.09,8.45,3.91l-.16-5.3-.68-22.92Z"/>
      </g>
      <g>
        <rect class="cls-3" x="157.14" y="386.55" width="85.94" height="4.74" transform="translate(-.58 .3) rotate(-.09)"/>
        <rect class="cls-3" x="157.16" y="398.73" width="85.94" height="4.74" transform="translate(-.6 .3) rotate(-.09)"/>
        <rect class="cls-3" x="200.52" y="410.54" width="42.6" height="4.74" transform="translate(-.62 .33) rotate(-.09)"/>
      </g>
    </g>
    <path class="cls-3" d="M391.04,184.13c-1.46-1.41-3.8-1.1-5.17,.31-1.37,1.4-1.87,2.89-1.83,5-.68-2-1.78-3.2-3.55-4.06s-4.1-.35-5,1.47c-.53,1.07-.51,2.42-.14,3.61,.37,1.19,.94,2.39,1.84,3.16,3.21,2.75,4.75,3.07,8.55,4.77,2.97-2.88,3.95-3.64,6.02-7.31,.58-1.03,.7-2.35,.65-3.59-.05-1.24-.49-2.52-1.35-3.34Z"/>
    <polygon class="cls-10" points="134.14 89.08 135.55 91.94 138.71 92.4 136.42 94.63 136.96 97.77 134.14 96.29 131.31 97.77 131.85 94.63 129.57 92.4 132.72 91.94 134.14 89.08"/>
    <polygon class="cls-10" points="81.72 156.77 84.27 161.95 89.99 162.78 85.85 166.81 86.83 172.5 81.72 169.81 76.61 172.5 77.58 166.81 73.45 162.78 79.16 161.95 81.72 156.77"/>
    <polygon class="cls-10" points="118.14 160.29 118.84 161.72 120.42 161.95 119.28 163.06 119.55 164.64 118.14 163.89 116.72 164.64 116.99 163.06 115.85 161.95 117.43 161.72 118.14 160.29"/>
  </g>
  <g id="Plant">
    <g>
      <path class="cls-14" d="M355.46,426.63c-22.07-15.42-27.08-44.04-26.2-69.77,.14-4.29-.33-8.82,1.72-12.59,2.04-3.77,6.81-6.34,10.65-4.53,3.19,1.5,4.58,5.21,6.36,8.28,2.37,4.08,5.91,7.46,10.07,9.62,2.73,1.42,6.12,2.29,8.82,.8,3.7-2.04,4.14-7.16,4.11-11.43-.05-7.96-.1-15.92-.15-23.88-.03-4.27-.04-8.63,1.29-12.69,1.33-4.05,4.26-7.82,8.33-8.96,4.06-1.14,9.09,1.2,9.95,5.39,.36,1.74,0,3.55,.12,5.32,.12,1.77,.95,3.74,2.63,4.23,1.7,.5,3.41-.71,4.69-1.96,4.41-4.31,7.4-9.87,10.2-15.39,2.8-5.52,5.51-11.18,9.51-15.88s9.53-8.43,15.65-8.78c6.12-.35,12.63,3.43,14.18,9.43,1.55,6.02-1.96,12.13-5.79,17-5.67,7.23-12.38,13.63-19.85,18.92-1.35,.96-2.81,1.99-3.32,3.57-.93,2.85,1.77,5.68,4.58,6.61,3.18,1.06,6.64,.73,9.97,1.12,3.33,.39,6.94,1.86,8.2,5.01,1.75,4.37-1.9,8.94-5.49,11.94-7.19,6-15.41,10.74-24.17,13.95-3.14,1.15-6.45,2.16-8.98,4.37-2.53,2.21-4.06,6.05-2.53,9.05,1.53,3.01,5.46,3.98,8.75,3.36,3.29-.61,6.24-2.4,9.37-3.58,5.87-2.22,13.45-1.81,17.21,3.26,2.47,3.33,2.69,7.98,1.44,11.95-1.25,3.98-3.78,7.4-6.47,10.56-9.41,11.04-21.45,19.92-35.07,24.64-13.61,4.72-26.23,6-39.76,1.05"/>
      <path class="cls-13" d="M355.12,445.7c.93-10.19,3.17-22.23,6.98-35.2,3.79-12.98,9.12-26.87,15.19-41.2,1.53-3.58,3.05-7.11,4.54-10.6,1.5-3.47,2.98-6.92,4.64-10.2,3.29-6.58,6.96-12.65,10.62-18.3,3.66-5.66,7.34-10.89,10.81-15.77,3.49-4.87,6.82-9.34,10.04-13.29,6.41-7.92,12.32-13.69,16.54-17.48,2.11-1.9,3.79-3.33,4.94-4.28,.56-.45,.99-.8,1.32-1.07,.3-.24,.46-.35,.47-.34,0,.01-.13,.15-.41,.41-.32,.28-.74,.65-1.27,1.13-1.12,.99-2.77,2.45-4.84,4.38-4.15,3.86-9.98,9.66-16.31,17.61-3.18,3.96-6.48,8.44-9.94,13.32-3.45,4.88-7.1,10.13-10.74,15.78-3.63,5.65-7.27,11.71-10.54,18.25-1.65,3.26-3.11,6.68-4.61,10.16-1.49,3.48-3,7.02-4.53,10.59-6.07,14.32-11.41,28.17-15.22,41.1-3.84,12.92-6.12,24.9-7.12,35.05"/>
      <path class="cls-13" d="M386.69,348.47c-.05,0-.2-.64-.42-1.82-.22-1.18-.49-2.9-.79-5.03-.6-4.25-1.24-10.15-1.91-16.66-.67-6.51-1.39-12.39-2.06-16.62-.33-2.12-.61-3.83-.82-5.01-.2-1.18-.29-1.84-.24-1.85,.05-.01,.24,.62,.54,1.79,.3,1.16,.67,2.86,1.07,4.97,.81,4.22,1.62,10.11,2.29,16.63,.65,6.42,1.23,12.24,1.68,16.68,.22,2,.4,3.69,.54,5.05,.13,1.19,.17,1.86,.12,1.87Z"/>
      <path class="cls-13" d="M441.61,338.2c0,.05-.78,.14-2.19,.26-1.41,.13-3.45,.3-5.96,.59-5.03,.54-11.95,1.54-19.54,2.97-7.59,1.44-14.4,3.04-19.29,4.34-2.45,.63-4.42,1.2-5.79,1.58-1.36,.39-2.12,.58-2.14,.53-.02-.05,.71-.34,2.05-.82,1.34-.47,3.29-1.12,5.73-1.83,4.87-1.44,11.68-3.13,19.29-4.58,7.61-1.43,14.57-2.34,19.63-2.74,2.53-.22,4.58-.31,6-.34,1.42-.02,2.2,0,2.21,.05Z"/>
      <path class="cls-13" d="M362.77,409.49s-.15-.22-.38-.67c-.25-.54-.56-1.19-.94-1.99-.81-1.73-1.91-4.26-3.23-7.41-2.65-6.29-6.04-15.1-9.64-24.86-3.61-9.77-6.91-18.6-9.42-24.93-1.23-3.08-2.25-5.61-3-7.5-.32-.82-.59-1.49-.8-2.05-.18-.47-.26-.72-.23-.74,.02,0,.15,.22,.38,.67,.25,.54,.56,1.19,.94,1.99,.81,1.73,1.91,4.26,3.23,7.41,2.65,6.29,6.04,15.1,9.64,24.87,3.61,9.77,6.91,18.59,9.42,24.93,1.23,3.08,2.25,5.61,3,7.5,.32,.82,.59,1.49,.8,2.05,.17,.47,.26,.73,.23,.74Z"/>
      <path class="cls-13" d="M435.74,385.97s-.24,.13-.72,.3c-.57,.19-1.27,.43-2.12,.71-1.96,.63-4.6,1.49-7.81,2.53-6.6,2.14-15.68,5.2-25.7,8.59-10.03,3.4-19.15,6.38-25.79,8.38-3.32,1-6.02,1.79-7.89,2.29-.87,.23-1.58,.41-2.16,.57-.5,.12-.76,.17-.77,.14,0-.03,.24-.13,.72-.3,.57-.19,1.27-.42,2.12-.71,1.96-.64,4.6-1.49,7.81-2.53,6.6-2.14,15.68-5.2,25.71-8.6,10.03-3.4,19.14-6.37,25.79-8.38,3.32-1,6.02-1.79,7.89-2.29,.87-.23,1.58-.42,2.16-.57,.5-.12,.76-.17,.77-.15Z"/>
    </g>
  </g>
  <g id="Icons">
    <g>
      <path class="cls-12" d="M448.19,63.13v13.8c0,3.13-2.54,5.67-5.67,5.67h-23.89v7.9l-4.29-7.55h0c-2.63-.2-4.67-2.39-4.67-5.03v-14.79c0-3.13,2.54-5.67,5.67-5.67h27.18c3.13,0,5.67,2.54,5.67,5.67Z"/>
      <circle class="cls-13" cx="437.5" cy="70.77" r="2.33"/>
      <circle class="cls-13" cx="428.63" cy="70.77" r="2.33"/>
      <path class="cls-13" d="M417.43,70.77c0,1.29,1.05,2.33,2.33,2.33s2.33-1.05,2.33-2.33-1.05-2.33-2.33-2.33c-1.29,0-2.33,1.04-2.33,2.33Z"/>
    </g>
    <g>
      <path class="cls-13" d="M124.92,115.61s-.02,.15-.08,.45c-.07,.33-.16,.78-.28,1.35-.26,1.23-.63,2.98-1.1,5.21-.99,4.58-2.4,11.14-4.12,19.17l-.04,.2-.21-.05c-2.28-.5-4.69-1.02-7.2-1.57h.04c-3.15-.18-6.48-.39-9.94-.65-3.47-.27-7.08-.5-10.81-1.02-1.93-.22-3.76-1.36-4.91-2.99-1.17-1.63-1.71-3.69-1.58-5.73,.05-1.03,.36-2.01,.58-2.98,.24-.98,.48-1.95,.72-2.94,.5-1.97,1.01-3.95,1.52-5.96,.61-2.31,1.22-4.59,1.89-6.82,.34-1.12,.68-2.23,1.11-3.31,.1-.27,.24-.54,.37-.82,.09-.14,.22-.32,.37-.43,.19-.1,.35-.13,.51-.16,.62-.08,1.19-.04,1.76,0,4.55,.42,8.85,1.34,12.98,2.2l.19,.04,.02,.2s.01,.11,.02,.15v.05s.05-.03-.14-.09c-.17,0-.15,.07-.15,.04,0,0,.02-.02,.02-.04,.02-.04,.05-.09,.07-.15,.08-.23,.15-.47,.21-.72,.12-.5,.23-1,.33-1.5,.2-1.01,.37-2.01,.53-3,.34-1.97,.54-3.94,1.1-5.81,.53-1.85,1.35-3.62,2.67-4.94,1.34-1.29,3.24-1.93,4.99-1.53l.2,.05-.05,.21c-.68,3.02-1.3,5.78-1.87,8.31v-.11c2.78,6.63,4.89,11.63,6.19,14.72l-.06-.05c1.39,.33,2.43,.58,3.16,.75,.32,.08,.57,.14,.76,.19,.17,.04,.25,.06,.24,.07s-.1-.01-.27-.04c-.2-.04-.46-.09-.79-.15-.72-.15-1.75-.36-3.13-.64h-.04s-.02-.05-.02-.05c-1.34-3.08-3.51-8.05-6.38-14.64l-.02-.05v-.06c.56-2.54,1.17-5.3,1.82-8.32l.15,.25c-1.55-.34-3.32,.23-4.55,1.44-1.23,1.24-2.01,2.94-2.52,4.75-.53,1.8-.73,3.76-1.06,5.75-.16,.99-.33,2-.53,3.02-.1,.51-.2,1.02-.33,1.53-.07,.26-.13,.51-.23,.78-.02,.07-.05,.14-.09,.21-.02,.04-.04,.07-.08,.12-.04,.03-.07,.15-.31,.15-.25-.07-.23-.17-.28-.23-.02-.05-.03-.1-.04-.14-.02-.08-.03-.15-.04-.24l.21,.24c-4.11-.84-8.43-1.76-12.91-2.16-.55-.03-1.12-.06-1.64,0-.12,.02-.25,.05-.31,.09-.06,.07-.1,.13-.17,.23-.12,.24-.24,.48-.34,.75-.42,1.05-.76,2.15-1.09,3.27-.67,2.23-1.28,4.5-1.88,6.8-.51,2-1.02,3.99-1.52,5.95-.24,.98-.48,1.96-.72,2.94-.23,.98-.52,1.93-.57,2.88-.13,1.92,.38,3.86,1.47,5.37,1.08,1.51,2.75,2.57,4.56,2.78,3.68,.52,7.31,.76,10.76,1.04,3.46,.24,6.78,.47,9.93,.69h.02s.02,0,.02,0c2.51,.56,4.91,1.1,7.19,1.61l-.25,.16c1.81-7.96,3.28-14.45,4.31-19,.52-2.25,.93-4.01,1.21-5.24,.14-.58,.25-1.04,.33-1.38,.08-.31,.12-.47,.13-.48Z"/>
      <path class="cls-13" d="M137.35,115.97s-.26-.02-.72-.08c-.5-.07-1.16-.16-1.97-.27-1.74-.25-4.17-.6-7.17-1.04l.21-.15c-1.46,6.69-3.55,16.31-5.88,27l-.21,.95-.21-.33c2.45,.54,4.84,1.08,7.13,1.58l-.32,.18c2.57-7.91,4.81-14.82,6.43-19.83,.81-2.45,1.47-4.43,1.94-5.86,.22-.65,.4-1.18,.54-1.59,.13-.37,.2-.56,.21-.57s-.03,.17-.13,.52c-.12,.4-.27,.92-.46,1.55-.43,1.43-1.03,3.4-1.77,5.84-1.58,5.07-3.75,12.08-6.24,20.1l-.07,.24-.24-.05c-2.29-.5-4.68-1.03-7.14-1.57l-.27-.06,.06-.27,.21-.95c2.4-10.67,4.55-20.28,6.05-26.96l.04-.18,.17,.03c3.04,.53,5.49,.96,7.26,1.27,.79,.14,1.42,.26,1.91,.35,.43,.08,.64,.13,.63,.14Z"/>
    </g>
  </g>
  <g id="Stars">
    <polygon class="cls-14" points="376.63 77.83 380.29 85.24 388.46 86.42 382.54 92.19 383.94 100.33 376.63 96.48 369.32 100.33 370.72 92.19 364.8 86.42 372.98 85.24 376.63 77.83"/>
    <polygon class="cls-14" points="437.47 192.76 439.3 196.46 443.38 197.05 440.42 199.94 441.12 204 437.47 202.08 433.81 204 434.51 199.94 431.56 197.05 435.64 196.46 437.47 192.76"/>
    <polygon class="cls-14" points="92.94 279.92 94.76 283.63 98.85 284.22 95.89 287.1 96.59 291.17 92.94 289.25 89.28 291.17 89.98 287.1 87.02 284.22 91.11 283.63 92.94 279.92"/>
  </g>
  <g id="Character">
    <g>
      <g>
        <path class="cls-13" d="M328.96,466.84l-135.16,.89c-16.25,.11-29.52-12.98-29.64-29.24l-2.36-338.84c-.11-16.26,12.98-29.54,29.25-29.65l135.16-.89c16.25-.11,29.52,12.98,29.63,29.24l2.36,338.84c.11,16.26-12.98,29.54-29.25,29.65Z"/>
        <path class="cls-5" d="M326.15,80.81l-26.2,.17c-3.51,.02-6.34,3.02-6.32,6.69l.03,4.75c.03,3.67-2.8,6.67-6.32,6.69l-51.08,.34c-3.51,.02-6.38-2.94-6.41-6.61l-.03-4.75c-.03-3.67-2.9-6.63-6.41-6.61l-9.22,.06-22.94,.15c-11.39,.08-20.56,9.37-20.48,20.76l2.3,330.73c.08,11.39,9.37,20.55,20.75,20.48l134.89-.89c11.39-.08,20.56-9.37,20.48-20.76l-2.3-330.73c-.08-11.38-9.37-20.55-20.75-20.48Z"/>
      </g>
      <g>
        <path class="cls-1" d="M286.45,212.36c-3.83,.45-6.49-1.64-7.13-4.08-.03,0-.05,.02-.08,.02l-.24,6.33c.43,.02,.68,.04,.68,.07,0,0,0,0,0,0,.73,.06,2.88,.28,5.77,.86,.16-1.1,.49-2.19,1.01-3.21Z"/>
        <path class="cls-1" d="M297.72,218.1c.16-1.14-.05-2.27-.46-3.19-.01-.03-.03-.05-.04-.08,.29,1.48,.29,3.02-.03,4.5l.15,.04c.17-.4,.3-.83,.38-1.28Z"/>
        <path class="cls-1" d="M293.88,176.96l.02,.64c.09,2.89,.08,7.27-.65,11.85,.72-2.1,1.28-4.68,1.26-7.5-.01-1.78-.26-3.46-.63-4.99Z"/>
        <path class="cls-8" d="M287.86,446.37c.67,.1,1.3,.2,1.9,.29,0-.04,0-.07,0-.11l-2.7-.29c.26,.04,.54,.08,.8,.12Z"/>
        <path class="cls-8" d="M257.13,453.26c-.03-.26-.07-.54-.09-.8-.26-2.9-.21-5.27-.08-6.89,.06-.81,.15-1.44,.22-1.86,.05-.32,.09-.52,.12-.6-4.01-.43-7.63-.8-10.59-1.09-2.43-.25-4.43-.45-5.95-.6l.94,11.94,15.44-.1Z"/>
        <path class="cls-8" d="M267.28,444.22c-3.5-.4-6.83-.77-9.94-1.1,.02,.2-.06,1.06-.1,2.47-.04,1.61,0,3.95,.31,6.82,.03,.27,.08,.57,.11,.85l33.82-.22c-1.01-3.21-1.63-5.24-1.72-5.68-.02-.07-.02-.2-.02-.34-.62-.08-1.26-.16-1.94-.25-5.25-.69-12.5-1.62-20.53-2.54Z"/>
        <path class="cls-11" d="M257.24,445.59c.03-1.41,.12-2.27,.1-2.47-.01,0-.03,0-.04,0-.03,.08-.07,.28-.12,.6-.07,.42-.16,1.05-.22,1.86-.13,1.62-.18,3.99,.08,6.89,.02,.25,.06,.53,.09,.8h.54c-.04-.28-.08-.58-.11-.85-.32-2.87-.36-5.21-.32-6.82Z"/>
        <path class="cls-6" d="M214.81,251.48l-5.44-6.18s.19-.19,.53-.53c-3.95,3.04-6.88,4.9-7.15,3.92-4.74-17.32-4.16-39.61-3.71-48.16,.45-.75,.98-1.57,1.6-2.47,.72-1.05,1.61-1.96,2.64-2.72,1.24-.92,2.94-2.07,4.06-2.42,1.38-.43,1.56-2.3,.33-2.72-1.23-.41-5.07,.69-8.58,3.8-3.51,3.11-2.24-4.07-1.83-6.69s1.31-10.79,.6-11.53c-1.04-1.09-2.44-.16-2.79,2.47-.36,2.66-1.96,10.45-3.34,10.2-1.36-.25,.93-13.58,.93-13.58,0,0,.95-2.78-.63-3.12-2.85-.62-4.24,13.71-4.34,15.07-.07,.95-1.58,.73-1.45-.28,.13-1.05,2.59-13.25-.31-13.91-2.22-.5-1.25,11.77-3.17,14.06-1.92,2.28,.22-9.41-1.93-9.8-.8-.15-1.42-.14-1.67,6.72-.14,3.69,.46,10.7,1.06,16.53-1.37,18.87-3.44,76.58,22.52,73.87,10.64-1.11,18.35-4.78,23.89-9.09l-11.56-13.13-.26-.3Z"/>
        <path class="cls-12" d="M275.01,319.33c8,.22,15.35,.44,21.65,.63,.1-6.6,.2-13.03,.29-19.22-.11-.28-.22-.57-.31-.89v-.96c-6.22-.14-13.38-.32-21.13-.52-.18,6.75-.35,13.76-.5,20.97Z"/>
        <path class="cls-12" d="M263.58,298.05c-4.27-.11-8.43-.23-12.44-.34-.25,6.76-.51,13.77-.77,20.96,3.7,.1,7.53,.2,11.45,.3,4.34,.12,8.57,.23,12.63,.34,.15-7.21,.32-14.21,.52-20.97-3.68-.09-7.49-.19-11.39-.3Z"/>
        <path class="cls-12" d="M295.74,406.45c-5.88-.13-13.09-.3-21.17-.5,.02,1.84,.04,3.64,.05,5.37,.08,5.94,.16,11.21,.22,15.74,8.03,.23,15.22,.44,21.12,.63-.06-4.03-.16-8.61-.17-13.66-.02-2.42-.04-4.96-.05-7.59Z"/>
        <path class="cls-12" d="M296.41,438.36c.04,2.85,.07,5.08,.1,6.61,0,.74,0,1.31,.01,1.72,0,.39-.02,.59-.02,.59,0,0,1.8-7.56,4.1-19.09-1.35-.03-2.79-.06-4.32-.09,.02,3.99,.08,7.44,.13,10.26Z"/>
        <path class="cls-12" d="M296.18,414.03c0,5.06,.06,9.64,.09,13.67,1.56,.05,3.03,.1,4.39,.14,1.22-6.15,2.59-13.4,3.9-21.22-2.32-.04-5.15-.1-8.39-.17,0,2.62,0,5.16,.01,7.57Z"/>
        <path class="cls-12" d="M296.39,444.97c-.05-1.53-.11-3.76-.2-6.61-.09-2.82-.17-6.28-.23-10.27-5.9-.13-13.09-.3-21.11-.5,.04,3.12,.08,5.88,.12,8.21,.04,2.87,.08,5.11,.1,6.65,0,.74,0,1.32,.01,1.73,0,.18,0,.32,0,.42,4.55,.58,8.64,1.15,11.99,1.65l2.7,.29,6.74,.73s-.02-.2-.04-.59c-.02-.41-.04-.98-.07-1.72Z"/>
        <path class="cls-12" d="M306.35,320.27c-4.15-13.57-7.19-15.59-8.85-18.44-.07,5.87-.16,11.93-.26,18.15,3.37,.1,6.42,.2,9.11,.29Z"/>
        <path class="cls-12" d="M274.1,341.38c-4.5-.11-9.21-.24-14.06-.37-3.59-.1-7.1-.19-10.51-.28-.28,7.22-.55,14.23-.81,20.95,3.11,.08,6.3,.16,9.56,.25,5.43,.14,10.68,.29,15.66,.43,.03-6.76,.08-13.77,.16-20.98Z"/>
        <path class="cls-12" d="M297.01,333.78c-.04,2.6-.08,5.17-.12,7.72,5.41,.17,9.96,.32,13.36,.44-.28-5.64-.92-10.73-2.03-14.99-.61-2.35-1.2-4.44-1.77-6.33-2.72-.06-5.81-.12-9.23-.2-.07,4.38-.14,8.84-.22,13.36Z"/>
        <path class="cls-12" d="M274.44,319.86c-4.07-.1-8.29-.21-12.64-.33-3.92-.1-7.76-.21-11.46-.31-.08,2.3-.17,4.62-.26,6.95-.18,4.75-.36,9.41-.54,14,3.41,.09,6.91,.18,10.5,.28,4.85,.13,9.56,.26,14.05,.38,.04-3.38,.09-6.8,.14-10.26,.06-3.61,.13-7.18,.2-10.71Z"/>
        <path class="cls-12" d="M296.31,341.91c-6.25-.14-13.61-.32-21.66-.52-.09,7.21-.14,14.22-.18,20.98,8.06,.23,15.38,.44,21.53,.63,.09-6.8,.2-13.85,.31-21.09Z"/>
        <path class="cls-12" d="M296.65,320.4c-6.31-.14-13.65-.32-21.66-.53-.07,3.53-.14,7.09-.19,10.7-.05,3.46-.1,6.89-.14,10.27,8.06,.22,15.42,.44,21.66,.63,.04-2.55,.08-5.12,.13-7.71,.07-4.53,.14-8.98,.2-13.37Z"/>
        <path class="cls-12" d="M297.07,222.56c.05,1.53,.11,3.76,.2,6.61,.03,.98,.06,2.07,.09,3.2,.04,.36,.05,.72,.05,1.07,5.11,.15,9.8,.29,13.93,.42-2.4-6.91-7.75-11.37-13.52-14.21-.22,.5-.5,.96-.81,1.36,.02,.39,.04,.9,.06,1.55Z"/>
        <path class="cls-12" d="M296.96,222.56c0-.6,0-1.09,0-1.47-.07,.08-.13,.18-.2,.26-.1,.11-.21,.21-.31,.31-.61,1.32-1.48,2.54-2.62,3.56,1.68,1.52,2.76,3.46,3.27,5.53,0-.54-.02-1.08-.03-1.58-.04-2.85-.07-5.08-.09-6.61Z"/>
        <path class="cls-12" d="M252.38,252.9c-6.71-.19-13-.37-18.64-.53-.25,2.1-.49,4.25-.74,6.43-.22,1.95-.43,3.86-.64,5.74,.2,2.94,.77,7.29,2.34,10.71,5.11,.12,10.76,.26,16.8,.41,.32-8.21,.61-15.84,.88-22.76Z"/>
        <path class="cls-12" d="M277.07,253.02c2.57,.07,5.07,.14,7.5,.21,.37-.09,.75-.14,1.13-.17-.17-.25-.25-.46-.18-.52,.03-.03,.09-.02,.15,0-.88-.88-1.44-2.08-1.43-3.26,.02-2.54,1.75-4.79,3.42-6.85-1.6-2.67-2.27-5.74-2.04-8.77-2.5-.06-5.05-.13-7.66-.2-.22,4.67-.47,10.16-.76,16.39-.05,1.03-.09,2.09-.14,3.16Z"/>
        <path class="cls-12" d="M265.35,276.58c-4.62-.12-9.11-.25-13.42-.37-.24,6.64-.5,13.65-.77,20.96,4,.1,8.16,.21,12.43,.32,3.9,.1,7.71,.21,11.39,.31,.21-7.32,.44-14.34,.68-20.96-3.35-.08-6.8-.17-10.32-.27Z"/>
        <path class="cls-12" d="M297.2,219.34c-.05,.24-.12,.48-.18,.72,.12-.22,.23-.44,.33-.68l-.15-.04Z"/>
        <path class="cls-12" d="M270.38,273.26c-2.84-.38-5.19-1.62-6.64-2.75-.73-.57-1.27-1.09-1.61-1.48-.34-.39-.5-.62-.48-.65,.07-.07,.83,.78,2.32,1.81,1.47,1.02,3.76,2.16,6.48,2.52,1.99,.26,3.85,.07,5.38-.28,.26-6.77,.53-13.1,.8-18.87-4.19-.11-8.55-.22-13.03-.34-3.7-.1-7.31-.2-10.82-.29-.25,6.91-.53,14.55-.84,22.76,4.3,.11,8.79,.23,13.41,.35,3.53,.09,6.98,.19,10.33,.28,.04-1.15,.09-2.27,.13-3.39-1.53,.4-3.42,.62-5.43,.35Z"/>
        <path class="cls-12" d="M297.4,234.16c.04,1.69,.07,3.52,.1,5.48,.06,4.08,.16,8.73,.17,13.86,0,.04,0,.08,0,.11,7.27,.22,13.2,.41,17.22,.56-.53-3.91-1.35-9.25-2.59-16.57-.2-1.17-.47-2.27-.82-3.32-4.17-.09-8.9-.2-14.07-.33,0,.07-.01,.14-.02,.21Z"/>
        <path class="cls-12" d="M297.29,262.8c0-3.05,0-5.97,0-8.75-2.57-.06-5.3-.12-8.17-.19-.37,.05-.73,.04-1.09-.03-.27,0-.54-.01-.81-.02,.07,.09,.11,.17,.09,.22-.04,.08-.28,.04-.58-.1,.02,.07,.04,.13,.05,.2,.09,.11,.19,.23,.29,.37,.42,.6,.82,1.58,.87,2.72,.05,1.14-.26,2.15-.63,2.78-.18,.32-.36,.56-.51,.7-.14,.15-.24,.21-.27,.19-.03-.02,0-.14,.09-.31,.09-.17,.2-.43,.33-.75,.25-.63,.47-1.56,.43-2.59-.03-.68-.18-1.3-.35-1.82,.17,1.52-.04,3.09-.64,4.5-.84,1.98-2.41,3.65-4.35,4.59,.18-.83,.36-1.67,.54-2.5-.72,.82-1.79,1.31-2.87,1.32,.12-1.13,.45-2.25,.95-3.27-.65,.26-1.29,.52-1.94,.78-.06-1.99,.7-4,2.07-5.45,.67-.71,1.49-1.28,2.38-1.69-1.99-.05-4.03-.1-6.11-.15-.24,5.74-.49,12.02-.73,18.74,.38-.1,.73-.21,1.05-.32,1.71-.6,2.66-1.22,2.71-1.13,.02,.03-.2,.22-.63,.5-.43,.28-1.09,.65-1.94,1-.36,.15-.77,.3-1.21,.43-.04,1.17-.08,2.34-.12,3.54,7.55,.21,14.58,.41,20.76,.6l.18-13.58h.03c-6.08-.54-10.55-1.02-10.53-1.15,0-.13,4.54,.14,10.68,.62Z"/>
        <path class="cls-12" d="M297.73,262.84c1.04,.08,2.11,.17,3.22,.26,7.9,.66,14.3,1.32,14.29,1.48,0,.03-.3,.04-.81,.02l1.35,.1s.44-.76-.85-10.28c-4.02-.07-9.96-.19-17.25-.36,.03,2.78,.04,5.72,.05,8.78Z"/>
        <path class="cls-12" d="M252.8,252.36c3.5,.09,7.11,.19,10.81,.28,4.49,.12,8.85,.24,13.04,.36,.05-1.07,.1-2.14,.15-3.17,.3-6.23,.58-11.72,.84-16.38-1.61-.04-3.24-.09-4.88-.13-6.77-.18-13.25-.36-19.28-.53-.14,4.04-.29,8.64-.47,13.72-.07,1.88-.14,3.85-.21,5.85Z"/>
        <path class="cls-12" d="M236.24,231.86c5.01,.11,10.73,.25,16.97,.41,.16-3.83,.3-7.16,.41-9.9,.13-2.83,.23-5.04,.3-6.56,.02-.34,.03-.64,.05-.91-2.95-.04-9.4,.26-15.95,3.11-.29,2.24-.66,5.12-1.1,8.54-.21,1.65-.44,3.43-.68,5.32Z"/>
        <path class="cls-12" d="M251.47,276.2c-5.94-.17-11.51-.33-16.55-.48,.16,.31,.32,.62,.49,.91,3.39,5.6,8.01,13.24,8.01,13.24l-1.31,7.07c2.74,.07,5.59,.14,8.53,.21,.28-7.31,.56-14.31,.81-20.96Z"/>
        <path class="cls-12" d="M275.52,297.82c7.75,.22,14.9,.42,21.14,.61l.28-21.06c-6.18-.14-13.21-.32-20.77-.51-.22,6.62-.44,13.64-.64,20.96Z"/>
        <path class="cls-12" d="M249.54,326.15c.09-2.33,.18-4.65,.27-6.95-4.3-.12-8.42-.24-12.3-.35-1.41,5.03-3.21,12.28-4.66,20.9,4.99,.12,10.43,.26,16.17,.4,.17-4.59,.34-9.26,.51-14.01Z"/>
        <path class="cls-12" d="M285.44,215.57c-2.89-.58-5.04-.8-5.77-.86-.01,.04-.36,.08-1,.13-.65,.05-1.59,.1-2.75,.14-2.32,.08-5.54,.11-9.08,.1-3.47-.02-6.6-.05-9.07-.06-2.09-.02-3.46-.04-3.71-.1,0,.27-.01,.56-.02,.9-.05,1.52-.11,3.73-.2,6.57-.09,2.74-.21,6.07-.34,9.9,6.02,.15,12.51,.32,19.27,.5,1.65,.04,3.28,.09,4.9,.13,.16-2.84,.3-5.35,.44-7.51,.18-2.87,.32-5.1,.42-6.64,.05-.74,.09-1.32,.12-1.73,.03-.39,.06-.59,.06-.59,0,0,0,.2,0,.59-.02,.41-.04,.99-.07,1.73-.07,1.54-.18,3.78-.31,6.65-.1,2.16-.22,4.67-.35,7.5,2.62,.07,5.19,.14,7.7,.21,.32-2.79,1.39-5.52,3.22-7.82-2.73-2.54-3.97-6.24-3.46-9.73Z"/>
        <path class="cls-12" d="M297.28,253.5c0-5.14-.06-9.78-.09-13.86,0-1.28-.02-2.48-.03-3.65-.52,2.46-1.83,4.77-3.92,6.47,1.1,2.74,.92,5.89-.51,8.52-.51,.95-1.25,1.87-2.23,2.41,2.37,.07,4.63,.14,6.79,.2v-.1Z"/>
        <path class="cls-12" d="M246.74,441.63c5.28,.43,12.57,1.11,20.6,2.04,2.67,.31,5.25,.62,7.7,.94,0-.1-.02-.23-.03-.41-.02-.41-.04-.99-.07-1.73-.05-1.54-.12-3.78-.2-6.65-.07-2.33-.14-5.09-.21-8.22-5.96-.15-12.37-.31-19.06-.49-3.18-.08-6.3-.17-9.34-.25-.05,1.1-.09,2.15-.13,3.11-.13,2.83-.23,5.04-.3,6.56-.04,.73-.07,1.3-.09,1.71-.02,.38-.05,.58-.05,.58,0,0-.01-.2,0-.58,0-.41,.02-.97,.04-1.71,.05-1.52,.11-3.73,.2-6.57,.03-.96,.07-2.01,.11-3.11-3-.08-5.91-.16-8.73-.24,1.43,10.64,1.8,14.44,1.8,14.44l1.13,.12c.13,0,.24,.01,.38,.02,1.48,.09,3.62,.24,6.26,.45Z"/>
        <path class="cls-12" d="M250.64,297.7c-2.96-.08-5.84-.16-8.61-.24l-3.01,16.29c-.37,1.16-.84,2.72-1.38,4.61,3.85,.09,7.92,.2,12.18,.31,.28-7.19,.55-14.2,.81-20.96Z"/>
        <path class="cls-12" d="M296.28,384.95c-.07,7.56-.11,14.66-.11,21.13,3.26,.1,6.11,.2,8.44,.28,1.13-6.76,2.22-13.93,3.14-21.18-2.9-.05-6.8-.13-11.46-.23Z"/>
        <path class="cls-12" d="M245.92,426.28c.18-5.38,.42-12.29,.7-20.48,0-.19,.01-.39,.02-.58-4.36-.12-8.56-.24-12.55-.35,1.31,8.94,2.29,15.89,3.01,21.19,2.85,.07,5.79,.15,8.82,.22Z"/>
        <path class="cls-12" d="M295.78,384.94c-6.02-.13-13.28-.31-21.34-.51,.02,7.55,.06,14.58,.12,21,8.08,.23,15.29,.45,21.18,.63-.02-6.47,0-13.56,.04-21.13Z"/>
        <path class="cls-12" d="M247.44,383.17c.24-6.59,.5-13.6,.77-20.95-6.35-.17-12.34-.34-17.77-.51-.32,6.8-.23,13.9,.48,21.04,5.12,.12,10.67,.26,16.52,.41Z"/>
        <path class="cls-12" d="M246.66,404.67c.23-6.32,.49-13.34,.77-20.95-5.83-.16-11.35-.32-16.45-.46,.19,1.85,.42,3.71,.71,5.56,.88,5.75,1.65,10.9,2.33,15.54,4.02,.1,8.25,.21,12.65,.32Z"/>
        <path class="cls-12" d="M256.5,383.96c-2.93-.08-5.82-.16-8.63-.23-.29,7.61-.57,14.63-.81,20.95,2.52,.07,5.08,.13,7.69,.2,6.81,.18,13.34,.36,19.4,.53-.09-6.42-.15-13.45-.19-21-5.5-.14-11.36-.29-17.45-.45Z"/>
        <path class="cls-12" d="M274.14,405.94c-6.06-.15-12.6-.32-19.42-.5-2.61-.07-5.18-.14-7.7-.21,0,.19-.02,.39-.02,.58-.34,8.19-.62,15.1-.85,20.48,3.04,.08,6.15,.16,9.33,.25,6.67,.18,13.08,.35,19.03,.52-.1-4.52-.2-9.79-.3-15.73-.03-1.74-.05-3.55-.08-5.39Z"/>
        <path class="cls-12" d="M296.89,341.93c-.11,7.24-.22,14.29-.32,21.1,5.54,.17,10.09,.32,13.33,.44,.5-7.53,.67-14.76,.37-21.26-3.4-.06-7.96-.15-13.38-.28Z"/>
        <path class="cls-12" d="M296.56,363.44c-.08,4.98-.15,9.83-.22,14.52-.02,2.24-.04,4.43-.06,6.59,4.68,.15,8.59,.28,11.49,.38,.9-7.12,1.64-14.3,2.11-21.23-3.24-.05-7.78-.14-13.32-.27Z"/>
        <path class="cls-12" d="M273.94,362.89c-4.98-.13-10.23-.26-15.67-.41-3.26-.09-6.46-.17-9.57-.26-.29,7.35-.56,14.37-.81,20.95,2.81,.07,5.69,.15,8.63,.23,6.08,.16,11.94,.32,17.44,.48-.03-6.64-.04-13.66-.01-20.99Z"/>
        <path class="cls-12" d="M248.23,361.66c.25-6.73,.5-13.73,.77-20.96-5.77-.16-11.23-.32-16.24-.46-1.06,6.38-1.93,13.49-2.3,20.97,5.44,.13,11.42,.28,17.77,.44Z"/>
        <path class="cls-12" d="M296,363.42c-6.14-.14-13.46-.31-21.52-.52-.04,7.33-.04,14.35-.03,20.99,8.06,.23,15.32,.44,21.34,.63,.01-2.16,.03-4.34,.05-6.58,.05-4.69,.1-9.54,.17-14.53Z"/>
        <path class="cls-12" d="M235.79,231.84c.26-1.9,.51-3.7,.74-5.36,.48-3.37,.89-6.19,1.22-8.37-3.6,1.6-7.22,3.98-10.29,7.52-1.86,2.14-3.61,4.11-5.24,5.94,3.41,.06,8.03,.16,13.57,.28Z"/>
        <path class="cls-12" d="M232.44,258.73c.25-2.17,.49-4.3,.74-6.38-7.33-.22-13.53-.41-18.11-.57l11.56,13.13,1.01,1.15,4.5-4.71c.1-.86,.19-1.73,.29-2.61Z"/>
        <path class="cls-12" d="M214.81,251.48c4.61,.09,10.93,.22,18.43,.4,.86-7.24,1.72-13.92,2.49-19.61-5.63-.17-10.32-.33-13.74-.45-6.24,6.96-10.65,11.49-12.09,12.95-.33,.34-.53,.53-.53,.53l5.44,6.18Z"/>
        <path class="cls-12" d="M233.79,251.89c5.63,.13,11.91,.29,18.6,.46,.08-2.01,.15-3.98,.23-5.86,.21-5.08,.4-9.67,.57-13.71-6.26-.18-11.99-.35-17.01-.5-.72,5.7-1.54,12.37-2.39,19.61Z"/>
        <path class="cls-13" d="M274.65,341.39c-.19,0-.37,0-.56-.01-.08,7.21-.13,14.22-.16,20.98,.18,0,.36,0,.54,.02,.03-6.76,.09-13.77,.18-20.98Z"/>
        <path class="cls-13" d="M275.82,272.91c-.04,1.12-.09,2.25-.13,3.39,.16,0,.33,0,.49,.01,.04-1.2,.08-2.37,.12-3.54-.16,.05-.32,.09-.49,.14Z"/>
        <path class="cls-13" d="M275.67,276.85c-.24,6.62-.47,13.64-.68,20.96,.18,0,.36,0,.53,.02,.2-7.32,.42-14.34,.64-20.96-.16,0-.33,0-.49-.01Z"/>
        <path class="cls-13" d="M274.97,298.35c-.19,6.75-.37,13.76-.52,20.97,.19,0,.37,.01,.56,.02,.14-7.21,.31-14.21,.5-20.97-.18,0-.36,0-.54-.01Z"/>
        <path class="cls-13" d="M278.64,218.76c.03-.74,.05-1.32,.07-1.73,.01-.39,0-.59,0-.59,0,0-.03,.2-.06,.59-.03,.41-.07,.98-.12,1.73-.1,1.54-.24,3.78-.42,6.64-.13,2.15-.28,4.67-.44,7.51,.1,0,.21,0,.31,0,.13-2.83,.25-5.35,.35-7.5,.13-2.87,.24-5.11,.31-6.65Z"/>
        <path class="cls-13" d="M276.66,253c.14,0,.27,0,.41,.01,.04-1.07,.09-2.13,.14-3.16,.29-6.23,.54-11.73,.76-16.39-.1,0-.21,0-.31,0-.26,4.66-.54,10.15-.84,16.38-.05,1.03-.1,2.1-.15,3.17Z"/>
        <path class="cls-13" d="M275,319.88c-.18,0-.37,0-.56-.01-.07,3.53-.14,7.1-.2,10.71-.05,3.46-.1,6.88-.14,10.26,.19,0,.37,.01,.56,.02,.04-3.39,.09-6.81,.14-10.27,.06-3.61,.13-7.18,.2-10.7Z"/>
        <path class="cls-13" d="M275.83,272.42c.17-.04,.33-.08,.49-.12,.24-6.72,.48-13,.73-18.74-.14,0-.27,0-.41-.01-.27,5.77-.54,12.1-.8,18.87Z"/>
        <path class="cls-13" d="M274.47,362.91c-.18,0-.36,0-.53-.01-.03,7.33-.02,14.35,0,20.99,.17,0,.33,0,.49,.01-.01-6.64,0-13.66,.03-20.99Z"/>
        <path class="cls-13" d="M273.95,384.42c.04,7.55,.1,14.58,.19,21,.14,0,.28,0,.42,.01-.06-6.42-.1-13.45-.12-21-.16,0-.33,0-.49-.01Z"/>
        <path class="cls-13" d="M275.06,442.46c-.02-1.54-.06-3.78-.1-6.65-.03-2.33-.07-5.09-.12-8.21-.1,0-.21,0-.31,0,.07,3.13,.14,5.89,.21,8.22,.09,2.87,.16,5.11,.2,6.65,.03,.74,.05,1.32,.07,1.73,0,.18,.02,.32,.03,.41,0,0,.02,0,.02,0,0-.1,0-.24,0-.42,0-.41,0-.99-.01-1.73Z"/>
        <path class="cls-13" d="M274.56,405.95c-.14,0-.28,0-.42-.01,.02,1.84,.05,3.65,.08,5.39,.1,5.94,.2,11.21,.3,15.73,.1,0,.21,0,.32,0-.06-4.53-.14-9.8-.22-15.74-.02-1.73-.04-3.54-.05-5.37Z"/>
        <path class="cls-13" d="M297.24,319.98c.1-6.22,.18-12.28,.26-18.15-.2-.34-.38-.7-.55-1.09-.09,6.2-.19,12.63-.29,19.22,.19,0,.38,.01,.58,.02Z"/>
        <path class="cls-13" d="M297.23,320.42c-.19,0-.38,0-.58-.01-.07,4.39-.13,8.84-.2,13.37-.04,2.6-.09,5.16-.13,7.71,.19,0,.38,.01,.57,.02,.04-2.55,.08-5.12,.12-7.72,.08-4.52,.15-8.98,.22-13.36Z"/>
        <path class="cls-13" d="M297.28,253.5v.1c.13,0,.27,0,.4,.01,0-.04,0-.08,0-.11-.02-5.14-.11-9.78-.17-13.86-.03-1.96-.06-3.79-.1-5.48-.03,.62-.12,1.23-.25,1.84,.01,1.16,.02,2.37,.03,3.65,.03,4.08,.1,8.72,.09,13.86Z"/>
        <path class="cls-13" d="M297.29,262.8c.14,.01,.29,.02,.44,.03,0-3.06-.02-5.99-.05-8.78-.13,0-.27,0-.4,0,.01,2.78,.02,5.7,0,8.75Z"/>
        <path class="cls-13" d="M297.07,222.56c-.02-.65-.04-1.16-.06-1.55-.02,.03-.04,.05-.06,.08,0,.38,0,.87,0,1.47,.02,1.54,.05,3.76,.1,6.61,0,.5,.02,1.04,.03,1.58,.13,.53,.22,1.07,.28,1.62-.03-1.13-.06-2.22-.09-3.2-.09-2.85-.15-5.08-.2-6.61Z"/>
        <path class="cls-13" d="M296.89,341.93c-.19,0-.38,0-.57-.01-.12,7.24-.22,14.29-.31,21.09,.19,0,.38,.01,.57,.02,.1-6.8,.21-13.86,.32-21.1Z"/>
        <path class="cls-13" d="M296.5,444.97c-.02-1.54-.05-3.76-.1-6.61-.05-2.82-.11-6.27-.13-10.26-.1,0-.2,0-.31,0,.05,4,.14,7.45,.23,10.27,.09,2.85,.15,5.08,.2,6.61,.03,.74,.05,1.31,.07,1.72,.02,.39,.04,.59,.04,.59,0,0,.02-.2,.02-.59,0-.41,0-.98-.01-1.72Z"/>
        <path class="cls-13" d="M296.28,384.95c-.16,0-.33,0-.5-.01-.05,7.56-.07,14.65-.04,21.13,.14,0,.29,0,.43,.01,0-6.47,.04-13.57,.11-21.13Z"/>
        <path class="cls-13" d="M296.16,406.46c-.14,0-.28,0-.43,0,0,2.63,.02,5.17,.05,7.58,.02,5.06,.11,9.63,.17,13.66,.11,0,.21,0,.31,0-.03-4.04-.1-8.61-.09-13.67,0-2.41-.01-4.95-.01-7.57Z"/>
        <path class="cls-13" d="M296.56,363.44c-.19,0-.38,0-.57-.01-.07,4.98-.12,9.84-.17,14.53-.02,2.24-.03,4.42-.05,6.58,.17,0,.33,.01,.5,.02,.02-2.16,.04-4.35,.06-6.59,.07-4.68,.14-9.54,.22-14.52Z"/>
        <path class="cls-13" d="M249.53,340.72c-.18,0-.35,0-.53-.02-.26,7.22-.52,14.23-.77,20.96,.16,0,.32,0,.49,.01,.26-6.73,.53-13.73,.81-20.95Z"/>
        <path class="cls-13" d="M252.4,252.35c.14,0,.27,0,.41,.01,.07-2.01,.15-3.97,.22-5.85,.17-5.08,.33-9.68,.47-13.72-.1,0-.2,0-.29,0-.17,4.04-.36,8.63-.57,13.71-.07,1.88-.15,3.85-.23,5.86Z"/>
        <path class="cls-13" d="M250.64,297.7c-.26,6.76-.53,13.77-.81,20.96,.18,0,.36,0,.54,.01,.26-7.19,.52-14.2,.77-20.96-.17,0-.33,0-.5-.01Z"/>
        <path class="cls-13" d="M251.47,276.2c-.26,6.64-.53,13.65-.81,20.96h.5c.27-7.29,.53-14.3,.77-20.95-.15,0-.3,0-.46-.01Z"/>
        <path class="cls-13" d="M253.62,222.36c-.11,2.74-.25,6.07-.41,9.9,.1,0,.19,0,.29,0,.13-3.83,.24-7.16,.34-9.9,.08-2.83,.15-5.04,.2-6.57,0-.33,.01-.63,.02-.9-.03,0-.05-.01-.05-.02-.01,0-.02,0-.03,0-.02,.27-.03,.57-.05,.91-.07,1.52-.17,3.73-.3,6.56Z"/>
        <path class="cls-13" d="M252.38,252.9c-.27,6.91-.56,14.55-.88,22.76,.15,0,.3,0,.45,.01,.3-8.21,.58-15.84,.84-22.76-.14,0-.27,0-.41-.01Z"/>
        <path class="cls-13" d="M250.35,319.22c-.18,0-.36,0-.54-.02-.09,2.3-.18,4.61-.27,6.95-.17,4.75-.35,9.42-.51,14.01,.18,0,.35,0,.53,.01,.18-4.59,.36-9.26,.54-14,.08-2.34,.17-4.65,.25-6.95Z"/>
        <path class="cls-13" d="M247.03,405.23c-.13,0-.26,0-.4-.01,0,.19-.01,.39-.02,.58-.28,8.19-.51,15.1-.7,20.48,.08,0,.16,0,.24,0,.22-5.38,.51-12.29,.85-20.48,0-.19,.02-.39,.02-.58Z"/>
        <path class="cls-13" d="M247.42,383.72c-.28,7.61-.54,14.63-.77,20.95,.13,0,.26,0,.4,.01,.25-6.32,.52-13.34,.81-20.95-.15,0-.29,0-.44-.01Z"/>
        <path class="cls-13" d="M248.21,362.21c-.27,7.35-.53,14.37-.77,20.95,.15,0,.29,0,.44,.01,.26-6.59,.53-13.6,.81-20.95-.16,0-.32,0-.48-.01Z"/>
        <path class="cls-13" d="M245.79,429.95c-.08,2.83-.15,5.04-.2,6.57-.02,.73-.03,1.3-.04,1.71,0,.38,0,.58,0,.58,0,0,.03-.2,.05-.58,.02-.41,.05-.97,.09-1.71,.07-1.52,.17-3.73,.3-6.56,.04-.96,.08-2.01,.13-3.11-.08,0-.16,0-.24,0-.04,1.1-.07,2.15-.11,3.11Z"/>
        <path class="cls-13" d="M235.79,231.84c.15,0,.3,0,.45,.01,.24-1.89,.47-3.67,.68-5.32,.44-3.43,.81-6.31,1.1-8.54-.09,.04-.18,.08-.27,.12-.33,2.18-.75,5.01-1.22,8.37-.24,1.66-.49,3.46-.74,5.36Z"/>
        <path class="cls-13" d="M233.74,252.37c-.19,0-.37-.01-.55-.02-.25,2.09-.5,4.22-.74,6.38-.1,.88-.2,1.75-.29,2.61l.1-.11s-.03,1.34,.1,3.3c.21-1.88,.42-3.8,.64-5.74,.25-2.18,.5-4.33,.74-6.43Z"/>
        <path class="cls-13" d="M236.19,232.28c-.15,0-.3,0-.46-.01-.77,5.7-1.63,12.37-2.49,19.61,.19,0,.37,0,.55,.01,.85-7.24,1.67-13.91,2.39-19.61Z"/>
        <path class="cls-13" d="M297.42,233.95c5.17,.13,9.91,.24,14.07,.33-.05-.14-.1-.28-.15-.41-4.13-.13-8.82-.27-13.93-.42,0,.17,.01,.34,0,.5Z"/>
        <path class="cls-13" d="M235.73,232.27c.15,0,.3,0,.46,.01,5.01,.15,10.75,.32,17.01,.5,.1,0,.2,0,.29,0,6.02,.17,12.51,.35,19.28,.53,1.65,.04,3.27,.09,4.88,.13,.1,0,.21,0,.31,0,2.61,.07,5.17,.14,7.66,.2,.01-.18,.04-.36,.06-.54-2.51-.07-5.08-.14-7.7-.21-.1,0-.21,0-.31,0-1.62-.04-3.25-.09-4.9-.13-6.77-.18-13.25-.35-19.27-.5-.1,0-.19,0-.29,0-6.24-.16-11.97-.29-16.97-.41-.15,0-.3,0-.45-.01-5.54-.12-10.16-.22-13.57-.28-.07,.08-.15,.17-.22,.25,3.42,.12,8.1,.28,13.74,.45Z"/>
        <path class="cls-13" d="M263.6,253.21c4.49,.12,8.84,.23,13.03,.34,.14,0,.28,0,.41,.01,2.08,.05,4.12,.11,6.11,.15,.45-.21,.93-.37,1.41-.48-2.42-.07-4.92-.14-7.5-.21-.14,0-.27,0-.41-.01-4.19-.12-8.55-.24-13.04-.36-3.7-.1-7.31-.19-10.81-.28-.14,0-.27,0-.41-.01-6.7-.17-12.97-.33-18.6-.46-.19,0-.37,0-.55-.01-7.49-.18-13.82-.32-18.43-.4l.26,.3c4.57,.16,10.78,.35,18.11,.57,.19,0,.37,.01,.55,.02,5.64,.17,11.93,.35,18.64,.53,.14,0,.27,0,.41,.01,3.5,.1,7.12,.2,10.82,.29Z"/>
        <path class="cls-13" d="M287.22,253.81c.27,0,.54,.01,.81,.02-.42-.07-.82-.22-1.19-.42,.17,.16,.3,.29,.39,.4Z"/>
        <path class="cls-13" d="M297.28,253.6c-2.15-.07-4.42-.13-6.79-.2-.29,.16-.59,.29-.92,.38-.15,.04-.31,.06-.46,.08,2.87,.07,5.6,.13,8.17,.19,.13,0,.27,0,.4,0,7.29,.17,13.23,.29,17.25,.36-.01-.08-.02-.16-.03-.25-4.02-.15-9.95-.34-17.22-.56-.13,0-.26,0-.4-.01Z"/>
        <path class="cls-13" d="M251.93,276.21c4.31,.12,8.79,.24,13.42,.37,3.53,.09,6.97,.18,10.32,.27,.16,0,.33,0,.49,.01,7.56,.2,14.59,.37,20.77,.51v-.46c-6.17-.19-13.2-.39-20.75-.6-.16,0-.33,0-.49-.01-3.35-.09-6.8-.19-10.33-.28-4.62-.12-9.11-.24-13.41-.35-.15,0-.3,0-.45-.01-6.04-.15-11.69-.29-16.8-.41,.08,.16,.15,.32,.23,.48,5.04,.15,10.61,.31,16.55,.48,.15,0,.3,0,.46,.01Z"/>
        <path class="cls-13" d="M251.14,297.72c4.01,.11,8.16,.22,12.44,.34,3.9,.1,7.71,.2,11.39,.3,.18,0,.36,0,.53,.01,7.75,.2,14.91,.37,21.15,.52v-.45c-6.23-.19-13.39-.4-21.13-.61-.18,0-.35,0-.53-.02-3.68-.1-7.49-.21-11.39-.31-4.27-.11-8.43-.22-12.43-.32h-.5c-2.94-.09-5.79-.16-8.53-.23l-.1,.51c2.77,.08,5.64,.16,8.61,.24,.17,0,.34,0,.5,.01Z"/>
        <path class="cls-13" d="M250.35,319.22c3.7,.1,7.53,.21,11.46,.31,4.34,.12,8.57,.23,12.64,.33,.19,0,.37,0,.56,.01,8,.2,15.35,.38,21.66,.53,.19,0,.38,0,.58,.01,3.41,.08,6.51,.15,9.23,.2-.04-.12-.07-.23-.11-.35-2.69-.09-5.75-.18-9.11-.29-.19,0-.38-.01-.58-.02-6.3-.19-13.65-.41-21.65-.63-.18,0-.37-.01-.56-.02-4.07-.11-8.29-.23-12.63-.34-3.92-.1-7.75-.2-11.45-.3-.18,0-.36,0-.54-.01-4.25-.11-8.33-.21-12.18-.31-.05,.16-.09,.34-.14,.5,3.88,.11,8,.23,12.3,.35,.18,0,.36,.01,.54,.02Z"/>
        <path class="cls-13" d="M249.53,340.72c3.41,.09,6.92,.19,10.51,.28,4.85,.13,9.56,.25,14.06,.37,.19,0,.37,0,.56,.01,8.06,.2,15.42,.38,21.66,.52,.19,0,.38,0,.57,.01,5.42,.12,9.97,.22,13.38,.28,0-.09,0-.18-.01-.27-3.4-.12-7.95-.27-13.36-.44-.19,0-.38-.01-.57-.02-6.25-.19-13.61-.41-21.66-.63-.19,0-.37-.01-.56-.02-4.5-.13-9.2-.25-14.05-.38-3.59-.1-7.09-.19-10.5-.28-.18,0-.35,0-.53-.01-5.75-.15-11.19-.28-16.17-.4-.03,.16-.05,.33-.08,.49,5,.15,10.47,.3,16.24,.46,.17,0,.35,0,.53,.01Z"/>
        <path class="cls-13" d="M248.21,362.21c.16,0,.32,0,.48,.01,3.11,.09,6.31,.17,9.57,.26,5.44,.14,10.69,.28,15.67,.41,.18,0,.36,0,.53,.01,8.06,.2,15.38,.38,21.52,.52,.19,0,.38,0,.57,.01,5.54,.12,10.08,.22,13.32,.27,0-.08,.01-.16,.02-.24-3.24-.12-7.78-.27-13.33-.44-.19,0-.38-.01-.57-.02-6.15-.19-13.46-.41-21.53-.63-.18,0-.36,0-.54-.02-4.98-.14-10.22-.28-15.66-.43-3.26-.09-6.45-.17-9.56-.25h-.49c-6.35-.18-12.33-.33-17.77-.46,0,.16-.02,.32-.03,.49,5.44,.16,11.42,.33,17.77,.51Z"/>
        <path class="cls-13" d="M247.42,383.72c.15,0,.29,0,.44,.01,2.82,.08,5.7,.16,8.63,.23,6.09,.16,11.95,.31,17.45,.45,.16,0,.33,0,.49,.01,8.06,.2,15.32,.37,21.34,.51,.17,0,.33,0,.5,.01,4.67,.1,8.56,.18,11.46,.23,.01-.08,.02-.16,.03-.25-2.91-.11-6.81-.24-11.49-.38-.16,0-.33-.01-.5-.02-6.02-.19-13.28-.4-21.34-.63-.16,0-.33,0-.49-.01-5.5-.16-11.35-.32-17.44-.48-2.93-.08-5.81-.15-8.63-.23-.15,0-.29,0-.44-.01-5.85-.15-11.41-.29-16.52-.41,.02,.17,.04,.33,.06,.5,5.1,.15,10.62,.31,16.45,.47Z"/>
        <path class="cls-13" d="M246.64,405.22c.13,0,.26,0,.4,.01,2.52,.07,5.08,.14,7.7,.21,6.82,.18,13.36,.35,19.42,.5,.14,0,.28,0,.42,.01,8.08,.2,15.29,.37,21.17,.5,.14,0,.29,0,.43,0,3.24,.07,6.07,.13,8.39,.17,.02-.09,.03-.18,.04-.27-2.33-.08-5.17-.18-8.44-.28-.14,0-.29,0-.43-.01-5.88-.19-13.09-.4-21.18-.63-.14,0-.28,0-.42-.01-6.06-.17-12.59-.35-19.4-.53-2.61-.07-5.17-.14-7.69-.2-.13,0-.26,0-.4-.01-4.4-.11-8.63-.22-12.65-.32,.03,.17,.05,.35,.08,.52,3.99,.12,8.18,.23,12.55,.35Z"/>
        <path class="cls-13" d="M245.9,426.83c.08,0,.16,0,.24,0,3.04,.08,6.16,.17,9.34,.25,6.68,.18,13.09,.34,19.06,.49,.1,0,.21,0,.31,0,8.03,.2,15.22,.37,21.11,.5,.11,0,.21,0,.31,0,1.53,.03,2.98,.06,4.32,.09,.02-.11,.04-.23,.07-.34-1.37-.04-2.83-.09-4.39-.14-.11,0-.21,0-.31,0-5.9-.19-13.09-.4-21.12-.63-.1,0-.21,0-.32,0-5.95-.17-12.35-.35-19.03-.52-3.18-.08-6.29-.17-9.33-.25-.08,0-.16,0-.24,0-3.03-.08-5.98-.15-8.82-.22,.02,.18,.05,.36,.07,.53,2.82,.08,5.74,.16,8.73,.25Z"/>
        <path class="cls-13" d="M257.77,215.01c2.48,.02,5.61,.04,9.07,.06,3.54,.01,6.76-.02,9.08-.1,1.16-.04,2.1-.09,2.75-.14,.64-.05,.99-.09,1-.13,0,0,0,0,0,0,0-.03-.25-.05-.68-.07v.06s-20.77-.09-20.77-.09c-.15,0-.31,0-.46,.01-1.16,.04-2.1,.09-2.75,.14-.65,.05-1.01,.09-1.01,.13h0s.02,.02,.05,.02c.25,.06,1.61,.08,3.71,.1Z"/>
        <path class="cls-13" d="M270.46,272.71c-2.72-.36-5.01-1.5-6.48-2.52-1.49-1.02-2.25-1.87-2.32-1.81-.03,.02,.13,.26,.48,.65,.34,.39,.88,.91,1.61,1.48,1.45,1.13,3.8,2.37,6.64,2.75,2.01,.27,3.9,.05,5.43-.35,.17-.04,.33-.09,.49-.14,.44-.13,.85-.28,1.21-.43,.86-.35,1.51-.72,1.94-1,.43-.28,.65-.47,.63-.5-.05-.08-1.01,.54-2.71,1.13-.32,.11-.68,.22-1.05,.32-.16,.04-.32,.08-.49,.12-1.52,.35-3.39,.55-5.38,.28Z"/>
        <path class="cls-13" d="M315.23,264.58c.01-.15-6.38-.82-14.29-1.48-1.11-.09-2.18-.18-3.22-.26-.15-.01-.29-.02-.44-.03-6.13-.48-10.67-.75-10.68-.62-.01,.13,4.46,.61,10.53,1.15,1.2,.11,2.45,.22,3.75,.32,6.26,.53,11.57,.89,13.52,.95,.52,.01,.81,0,.81-.02Z"/>
        <path class="cls-13" d="M279.32,208.28c.64,2.44,3.3,4.53,7.13,4.08-.52,1.02-.85,2.1-1.01,3.21-.5,3.49,.73,7.19,3.46,9.73-1.83,2.3-2.91,5.02-3.22,7.82-.02,.18-.05,.36-.06,.54-.23,3.02,.43,6.1,2.04,8.77-1.67,2.07-3.4,4.32-3.42,6.85,0,1.18,.55,2.38,1.43,3.26,.19,.07,.51,.31,.86,.6,.11,.09,.21,.18,.31,.27,.38,.2,.77,.35,1.19,.42,.35,.06,.72,.07,1.09,.03,.15-.02,.3-.04,.46-.08,.33-.09,.64-.22,.92-.38,.98-.54,1.72-1.46,2.23-2.41,1.43-2.64,1.62-5.78,.51-8.52,2.09-1.7,3.4-4.01,3.92-6.47,.13-.61,.21-1.22,.25-1.84,0-.07,.02-.14,.02-.2,0-.17,0-.34,0-.5,0-.36-.02-.72-.05-1.07-.05-.55-.15-1.08-.28-1.62-.51-2.07-1.59-4.02-3.27-5.53,1.15-1.02,2.02-2.24,2.62-3.56-.65,.64-1.36,1.1-2.01,1.37-.76,.32-1.42,.43-1.87,.45-.22,.02-.4,0-.52-.02-.12-.01-.18-.03-.18-.05s.06-.04,.18-.06c.11-.03,.28-.04,.5-.09,.43-.08,1.04-.25,1.73-.59,.69-.34,1.45-.88,2.1-1.65,.24-.29,.46-.61,.66-.96,.07-.24,.13-.48,.18-.72,.31-1.48,.32-3.02,.03-4.5-.4-.89-.95-1.61-1.49-2.12-1.13-1.07-2.13-1.31-2.09-1.41,0-.02,.07-.02,.19,0,.11,.03,.29,.05,.5,.14,.43,.14,1.03,.45,1.66,.97,.26,.22,.52,.48,.78,.78-.53-1.45-1.37-2.79-2.53-3.92,2.41-5.3,1.6-11.54-1.69-16.39-1.7,6.9-5.4,13.5-13.23,15.38Zm12.29,17.26c-.04,.15-.61,.13-1.29,.19-.68,.05-1.24,.16-1.3,.01-.07-.14,.47-.51,1.26-.57,.78-.06,1.37,.22,1.33,.37Zm-1.96,16.95c-1.12-.17-2.05-.18-2.06-.34-.02-.15,.95-.39,2.15-.21,1.2,.17,2.06,.69,1.99,.82-.06,.15-.96-.11-2.07-.27Zm-.61-32.51c1.21-.35,2.24-.28,2.24-.13,0,.16-.95,.33-2.08,.66-1.14,.33-2.04,.7-2.11,.56-.08-.13,.75-.74,1.96-1.09Z"/>
        <path class="cls-6" d="M262.53,163.88c.33,1.45,.93,3.14,1.88,4.85,.49,.85,1.04,1.73,1.71,2.55,.67,.83,1.43,1.63,2.29,2.37,.86,.73,1.78,1.36,2.7,1.89,.92,.54,1.87,.94,2.79,1.29,1.85,.67,3.6,1,5.09,1.1,.16,.01,.31,.01,.47,.02l.04-3.6s-14.46-1.26-17.5-14.55c0,.17,0,.36,.03,.57,.04,.84,.16,2.04,.5,3.5Z"/>
        <path class="cls-6" d="M278.99,214.63l.24-6.33s-.05,.02-.08,.02l.22-21.63-.04-.05c-.07-1.04-.11-2.11,.07-3.13l.05-5.18c-.16,0-.32,0-.49,0-1.52-.05-3.33-.34-5.24-1.01-.95-.34-1.93-.75-2.89-1.3-.96-.54-1.9-1.19-2.8-1.94-.88-.76-1.67-1.6-2.35-2.46-.69-.86-1.25-1.76-1.74-2.65-.96-1.78-1.53-3.52-1.82-5.02-.3-1.49-.36-2.73-.33-3.58,0-.42,.05-.75,.07-.97,0-.04,0-.05,.01-.09,0-.02,0-.03-.01-.05l-.08,.08c-.85,2.12-2.33,6.66-1.25,10.29l-13.13,3.62-1.46,1.41c0,6.22,.1,13.24,.4,17.59,.65,9.23,9.73,10.12,9.73,10.12,0,0,6.06,0,11.88-4.26,0,0-2.63,6.81-11.66,6.52l-.22-2.26s.73,9.74,.66,12.2h1.46s20.77,.09,20.77,.09v-.06Zm-29.82-36.22c-.64,0-1.16-.52-1.16-1.17,0-.65,.5-1.19,1.14-1.19,.64,0,1.16,.52,1.16,1.17,0,.65-.5,1.19-1.14,1.19Zm2.24-2.78c-.13,.17-1.07-.45-2.3-.35-1.24,.08-2.08,.83-2.23,.68-.07-.07,.04-.37,.41-.71,.36-.34,1-.69,1.77-.74,.77-.06,1.45,.2,1.85,.48,.41,.28,.57,.56,.5,.64Zm2.27,11.08c-.21-.05-.45-.21-.54-.46-.18-.5,0-.95,.11-1.34,.25-.85,.51-1.73,.78-2.66,1.14-3.77,2.18-6.78,2.32-6.74,.14,.05-.67,3.13-1.81,6.9-.29,.92-.56,1.81-.82,2.65-.14,.41-.25,.78-.17,1.02,.06,.23,.37,.27,.68,.29,1.26,.09,2.03,.18,2.03,.25,0,.08-.78,.12-2.04,.14-.16,0-.33,0-.54-.04Zm4.84,4.4c-2.54,1.13-4.12-1.15-4.12-1.15,2.53-.03,7.22-3.05,5.97-2.18,0,0,.79,2.16-1.85,3.33Zm4-12.84c-.64,0-1.16-.52-1.16-1.17,0-.65,.5-1.19,1.14-1.19,.64,0,1.16,.52,1.16,1.17,0,.65-.5,1.19-1.14,1.19Zm2.64-2.78c-.13,.17-1.07-.45-2.3-.35-1.24,.08-2.08,.83-2.23,.68-.07-.07,.04-.37,.41-.71,.36-.34,1-.69,1.77-.74,.77-.06,1.45,.2,1.85,.48,.41,.28,.57,.56,.51,.64Z"/>
        <path class="cls-13" d="M249.15,176.05c-.64,0-1.15,.54-1.14,1.19,0,.65,.53,1.18,1.16,1.17,.64,0,1.15-.54,1.14-1.19,0-.65-.53-1.18-1.16-1.17Z"/>
        <path class="cls-13" d="M250.92,175c-.4-.28-1.08-.53-1.85-.48-.77,.06-1.41,.41-1.77,.74-.37,.34-.48,.64-.41,.71,.15,.15,.99-.6,2.23-.68,1.24-.1,2.18,.52,2.3,.35,.06-.08-.1-.36-.5-.64Z"/>
        <path class="cls-13" d="M262.5,175.91c-.64,0-1.15,.54-1.14,1.19,0,.65,.53,1.18,1.16,1.17,.64,0,1.15-.54,1.14-1.19,0-.65-.53-1.18-1.16-1.17Z"/>
        <path class="cls-13" d="M264.66,174.86c-.4-.28-1.08-.53-1.85-.48-.77,.06-1.41,.41-1.77,.74-.37,.34-.48,.64-.41,.71,.15,.15,.99-.6,2.23-.68,1.24-.1,2.18,.52,2.3,.35,.06-.07-.09-.36-.51-.64Z"/>
        <path class="cls-13" d="M254.24,186.37c-.32-.01-.62-.06-.68-.29-.08-.24,.03-.62,.17-1.02,.26-.84,.54-1.72,.82-2.65,1.14-3.77,1.95-6.85,1.81-6.9-.14-.05-1.18,2.97-2.32,6.74-.27,.93-.53,1.81-.78,2.66-.1,.39-.29,.84-.11,1.34,.1,.25,.34,.42,.54,.46,.21,.05,.38,.04,.54,.04,1.26-.01,2.04-.06,2.04-.14,0-.07-.77-.16-2.03-.25Z"/>
        <path class="cls-4" d="M254.4,189.96s1.59,2.29,4.12,1.15c2.64-1.17,1.85-3.33,1.85-3.33,1.25-.87-3.44,2.15-5.97,2.18Z"/>
        <path class="cls-11" d="M267.97,198.14c-5.82,4.26-11.88,4.26-11.88,4.26l.22,2.26c9.03,.29,11.66-6.52,11.66-6.52Z"/>
        <path class="cls-13" d="M260.55,169.65c-1.08-3.63,.4-8.17,1.25-10.29l.08-.08s0,.03,.01,.05c.02-.15,.04-.25,.05-.25,.02,0,.03,.12,.05,.34,0,.11,0,.24,.01,.39,3.04,13.29,17.5,14.55,17.5,14.55l-.04,3.6c1.27,.06,2.32,0,3.06-.08,.42-.03,.74-.1,.96-.11,.22-.02,.34-.03,.34,0,0,.02-.11,.06-.32,.12-.22,.05-.53,.15-.95,.22-.74,.14-1.8,.25-3.09,.24l-.05,5.18c.06-.34,.14-.67,.26-.99,.46-1.31,1.54-2.48,2.92-2.67,1.58-.21,3.16,1.07,3.45,2.64,.3,1.57-.58,3.24-1.95,4.06-.94,.57-2.08,.75-3.17,.62-.01,.06-.04,.1-.05,.17-.07,.45-.02,1.01,.3,1.5,.31,.49,.87,.91,1.53,1,.66,.09,1.31-.17,1.74-.56,.44-.39,.64-.91,.69-1.36,.1-.93-.3-1.46-.22-1.5,.03-.05,.6,.43,.61,1.53,0,.53-.2,1.2-.73,1.71-.51,.51-1.32,.85-2.17,.74-.85-.12-1.54-.66-1.9-1.29-.38-.63-.39-1.34-.25-1.85,.02-.05,.03-.09,.05-.14-.36-.07-.72-.17-1.06-.3l-.1-.12-.22,21.63s.05-.02,.08-.02c.03,0,.05-.02,.08-.02,7.83-1.88,11.53-8.48,13.24-15.39,.11-.46,.22-.92,.32-1.38-.07,.14-.13,.28-.2,.41-.61,1.17-1.21,2.07-1.66,2.65-.45,.59-.73,.88-.76,.86-.09-.06,.94-1.34,2.06-3.69,.32-.67,.64-1.46,.94-2.31,.73-4.57,.74-8.96,.65-11.85l-.02-.64c-.45-1.87-1.08-3.51-1.72-4.79-1.15-2.34-2.2-3.59-2.12-3.66,.03-.02,.31,.27,.77,.85,.46,.58,1.07,1.46,1.7,2.63,.45,.83,.9,1.82,1.3,2.93l-.04-1.03s0,.02,0-.04v-.02s0-.01,0-.02c0-.06-.02-.15-.04-.29h0c-.18-1.43-.38-2.93-.6-3.74-5.11-19.21-21.64-22.63-24.91-22.59-3.5,.04-9.64-1.87-18.47,7.73-8.82,9.61-3.83,19.79-3.83,19.79l.03-.03,1.46-1.41,13.13-3.62Z"/>
        <path class="cls-13" d="M286.17,253.57c-.21-.17-.36-.35-.48-.52-.38,.03-.76,.08-1.13,.17-.49,.12-.96,.28-1.41,.48-.89,.41-1.7,.98-2.38,1.69-1.37,1.45-2.13,3.46-2.07,5.45,.65-.26,1.29-.52,1.94-.78-.5,1.03-.82,2.14-.95,3.27,1.09-.01,2.16-.5,2.87-1.32-.18,.83-.36,1.67-.54,2.5,1.94-.94,3.51-2.6,4.35-4.59,.6-1.41,.81-2.98,.64-4.5-.09-.27-.19-.52-.3-.73-.3-.61-.57-.96-.51-1.02,.03-.04,.27,.11,.56,.45-.02-.07-.04-.13-.05-.2-.18-.08-.37-.19-.56-.35Z"/>
        <path class="cls-14" d="M285.51,252.54c-.07,.06,0,.27,.18,.52,.12,.17,.27,.35,.48,.52,.2,.16,.38,.27,.56,.36,.29,.14,.53,.18,.58,.1,.03-.05-.02-.13-.09-.22-.08-.11-.21-.24-.39-.4-.1-.09-.2-.17-.31-.27-.35-.29-.67-.53-.86-.6-.07-.02-.12-.03-.15,0Z"/>
        <path class="cls-14" d="M289.73,241.94c-1.2-.18-2.17,.07-2.15,.21,.02,.16,.95,.17,2.06,.34,1.12,.16,2.01,.41,2.07,.27,.06-.14-.79-.65-1.99-.82Z"/>
        <path class="cls-14" d="M289.01,225.75c.06,.15,.62,.04,1.3-.01,.68-.06,1.25-.04,1.29-.19,.04-.14-.55-.43-1.33-.37-.78,.06-1.32,.44-1.26,.57Z"/>
        <path class="cls-14" d="M289.19,210.52c1.13-.33,2.09-.5,2.08-.66,0-.15-1.03-.23-2.24,.13-1.21,.35-2.03,.97-1.96,1.09,.08,.14,.98-.23,2.11-.56Z"/>
        <path class="cls-13" d="M282.56,178.1c.42-.06,.74-.17,.95-.22,.22-.06,.33-.1,.32-.12,0-.02-.12-.02-.34,0-.22,.02-.54,.08-.96,.11-.74,.08-1.79,.14-3.06,.08-.16,0-.31-.01-.47-.02-1.49-.1-3.24-.43-5.09-1.1-.92-.35-1.87-.75-2.79-1.29-.92-.53-1.84-1.16-2.7-1.89-.86-.74-1.62-1.54-2.29-2.37-.68-.83-1.23-1.7-1.71-2.55-.95-1.72-1.55-3.4-1.88-4.85-.34-1.45-.46-2.66-.5-3.5-.02-.22-.02-.41-.03-.57,0-.15,0-.29-.01-.39-.01-.22-.03-.34-.05-.34-.02,0-.03,.1-.05,.25,0,.03,0,.05-.01,.09-.02,.22-.07,.55-.07,.97-.03,.85,.04,2.08,.33,3.58,.29,1.49,.86,3.24,1.82,5.02,.49,.88,1.04,1.79,1.74,2.65,.68,.86,1.47,1.69,2.35,2.46,.89,.75,1.84,1.4,2.8,1.94,.95,.55,1.94,.96,2.89,1.3,1.91,.67,3.72,.95,5.24,1.01,.17,0,.33,0,.49,0,1.29,.02,2.35-.09,3.09-.24Z"/>
        <path class="cls-13" d="M290.81,169.36c-.46-.58-.74-.87-.77-.85-.08,.06,.96,1.32,2.12,3.66,.64,1.28,1.27,2.92,1.72,4.79,.37,1.53,.61,3.2,.63,4.98,.02,2.82-.53,5.4-1.26,7.5-.29,.85-.61,1.64-.94,2.31-1.12,2.35-2.14,3.63-2.06,3.69,.03,.02,.31-.28,.76-.86,.45-.59,1.04-1.48,1.66-2.65,.07-.13,.13-.27,.2-.41,1.16-2.33,2.23-5.73,2.2-9.58-.02-2.03-.33-3.95-.81-5.64-.14-.48-.29-.94-.44-1.38-.4-1.11-.84-2.1-1.3-2.93-.63-1.16-1.24-2.05-1.7-2.62Z"/>
        <path class="cls-13" d="M295.99,212.42c-.63-.52-1.23-.83-1.66-.97-.21-.09-.39-.11-.5-.14-.12-.02-.18-.02-.19,0-.04,.1,.96,.34,2.09,1.41,.55,.51,1.09,1.23,1.49,2.12,.01,.03,.03,.05,.04,.08,.4,.92,.62,2.05,.46,3.19-.07,.45-.21,.87-.38,1.28-.1,.24-.21,.46-.33,.68-.2,.35-.41,.68-.66,.96-.65,.77-1.41,1.32-2.1,1.65-.69,.34-1.3,.51-1.73,.59-.21,.05-.38,.06-.5,.09-.11,.02-.18,.05-.18,.06s.06,.04,.18,.05c.12,0,.3,.04,.52,.02,.45-.01,1.11-.13,1.87-.45,.65-.27,1.36-.73,2.01-1.37,.1-.1,.21-.2,.31-.31,.07-.08,.14-.17,.2-.26,.02-.03,.04-.05,.06-.08,.32-.4,.59-.86,.81-1.36,.2-.46,.37-.95,.45-1.48,.18-1.27-.08-2.5-.54-3.48-.27-.58-.61-1.07-.96-1.5-.25-.3-.51-.56-.78-.78Z"/>
        <path class="cls-13" d="M286.22,253.68c-.07,.06,.2,.41,.51,1.02,.1,.21,.2,.46,.3,.73,.18,.52,.32,1.13,.35,1.82,.04,1.03-.18,1.96-.43,2.59-.12,.32-.24,.57-.33,.75-.08,.18-.12,.29-.09,.31,.03,.02,.12-.04,.27-.19,.15-.14,.33-.38,.51-.7,.37-.64,.68-1.65,.63-2.78-.05-1.14-.45-2.12-.87-2.72-.1-.14-.2-.27-.29-.37-.29-.34-.53-.49-.56-.45Z"/>
        <path class="cls-6" d="M280.54,187.11c.32-.94,.93-1.22,.95-1.17,.07,.06-.37,.44-.56,1.22,1.1,.13,2.23-.05,3.17-.62,1.37-.82,2.24-2.49,1.95-4.06-.3-1.57-1.87-2.85-3.45-2.64-1.37,.18-2.46,1.36-2.92,2.67-.11,.32-.2,.66-.26,.99-.18,1.02-.14,2.09-.07,3.13l.04,.05,.1,.12c.34,.13,.7,.23,1.06,.3Zm2.09-5.47c.37-.09,.9-.13,1.4,.23,.5,.39,.64,1.05,.62,1.62-.02,.59-.23,1.16-.58,1.57-.34,.42-.82,.63-1.21,.68-.82,.1-1.21-.33-1.14-.38,.05-.09,.45,.1,1.04-.1,.59-.16,1.17-.85,1.2-1.8,.02-.47-.09-.9-.33-1.1-.24-.22-.62-.27-.92-.25-.62,.07-1.06,.25-1.1,.14-.03-.07,.27-.4,1.01-.63Z"/>
        <path class="cls-11" d="M282.72,182.12c.3-.02,.68,.03,.92,.25,.23,.2,.35,.63,.33,1.1-.02,.95-.61,1.64-1.2,1.8-.58,.2-.99,0-1.04,.1-.07,.05,.32,.49,1.14,.38,.39-.05,.86-.27,1.21-.68,.35-.41,.56-.98,.58-1.57,.02-.58-.12-1.24-.62-1.62-.5-.36-1.04-.32-1.4-.23-.74,.23-1.04,.56-1.01,.63,.04,.1,.47-.07,1.09-.14Z"/>
        <path class="cls-14" d="M280.54,187.11s-.04,.09-.05,.14c-.14,.51-.13,1.21,.25,1.85,.36,.62,1.04,1.17,1.9,1.29,.85,.11,1.66-.23,2.17-.74,.53-.51,.73-1.19,.73-1.71,0-1.1-.58-1.58-.61-1.53-.08,.04,.31,.58,.22,1.5-.05,.45-.25,.98-.69,1.36-.43,.39-1.09,.64-1.74,.56-.66-.09-1.22-.51-1.53-1-.32-.49-.37-1.05-.3-1.5,.01-.07,.03-.11,.05-.17,.19-.79,.63-1.17,.56-1.22-.01-.06-.63,.23-.95,1.17Z"/>
        <path class="cls-13" d="M257.29,443.11s.03,0,.04,0c3.11,.33,6.44,.7,9.94,1.1,8.02,.93,15.28,1.85,20.53,2.54,.68,.09,1.33,.17,1.94,.25,1.7,.22,3.14,.41,4.28,.55,.68,.08,1.25,.15,1.69,.2,.39,.04,.59,.05,.6,.03,0-.02-.2-.07-.58-.14-.45-.08-1-.18-1.68-.3-1.09-.19-2.54-.42-4.3-.69-.6-.09-1.23-.19-1.9-.29-.25-.04-.53-.08-.8-.12-3.35-.5-7.44-1.07-11.99-1.65,0,0-.02,0-.02,0-2.46-.31-5.03-.63-7.7-.94-8.03-.93-15.32-1.61-20.6-2.04-2.64-.21-4.78-.37-6.26-.45-.14,0-.25-.01-.38-.02-.51-.03-.96-.05-1.32-.07-.39-.01-.6-.01-.6,0,0,.02,.2,.05,.59,.1,.45,.05,1.01,.11,1.7,.19,.09,0,.19,.02,.29,.03,1.52,.15,3.52,.36,5.95,.6,2.97,.3,6.58,.67,10.59,1.09Z"/>
      </g>
      <g>
        <g>
          <g>
            <path class="cls-7" d="M225.72,213.51s-14.58-2.79-35.54-21.83-31.27-44.81-33.77-44.61-13.54-4.55-32.99,41.13c-19.45,45.69-10.99,55.93-6.87,55.73,4.12-.2,31.91-8.8,49.47-7.31,17.55,1.49,40.3,9.97,40.3,9.97l19.39-33.08Z"/>
            <path class="cls-9" d="M225.72,213.51s-14.58-2.79-35.54-21.83-31.27-44.81-33.77-44.61-13.54-4.55-32.99,41.13c-19.45,45.69-10.99,55.93-6.87,55.73,4.12-.2,31.91-8.8,49.47-7.31,17.55,1.49,40.3,9.97,40.3,9.97l19.39-33.08Z"/>
          </g>
          <path class="cls-14" d="M257.2,239.3l-4.68,9.54-2.1,4.27c-2.87,5.86-9.83,8.45-15.84,5.89l-31.37-9.94,16.92-41.81,31.5,15.66c6.05,3.01,8.53,10.33,5.56,16.4Z"/>
          <path class="cls-14" d="M239.72,254.86l-9.35,19.68-4.99-1.23-31.58,27.21-9.54-17.43s18.87-8.77,22.21-15.68c3.34-6.91-.79-8.34-.79-8.34l8.7-10.47,25.33,6.27Z"/>
          <path class="cls-13" d="M125.13,191.06c-10.34,24.74-14.32,46.64-8.88,48.91s18.23-15.94,28.57-40.69c10.34-24.74,14.32-46.64,8.88-48.91-5.44-2.27-18.23,15.94-28.57,40.69Z"/>
        </g>
        <polygon class="cls-12" points="260.26 252.81 251.76 250.4 256.69 240.35 263.12 244.09 260.26 252.81"/>
        <polygon class="cls-13" points="211.41 252.18 234.44 265.97 237.11 260.36 211.41 252.18"/>
        <polygon class="cls-13" points="256.69 240.35 251.76 250.4 253.51 250.9 257.46 240.8 256.69 240.35"/>
        <path class="cls-13" d="M204.48,245.93s-5.95-1.99-5.76-1.93c.19,.06,18.43-33.62,18.43-33.62l1.45,.65-13.53,33.78"/>
        <path class="cls-13" d="M250.95,242.8c-.12,.28-4.36-1.24-9.49-3.38-5.13-2.14-9.19-4.1-9.07-4.38,.11-.28,4.36,1.24,9.49,3.38,5.12,2.14,9.19,4.1,9.07,4.38Z"/>
        <path class="cls-13" d="M253.38,236.82c-.13,.27-3.97-1.22-8.6-3.34-4.62-2.12-8.27-4.05-8.15-4.32,.12-.27,3.97,1.22,8.6,3.34,4.62,2.12,8.27,4.05,8.15,4.32Z"/>
        <path class="cls-13" d="M247.86,249.08c-.04,.14-1.05-.06-2.66-.51-.8-.22-1.76-.51-2.81-.84-1.05-.35-2.14-.86-3.31-1.35-4.67-2.01-8.24-4-8.14-4.25,.13-.3,3.94,1.27,8.56,3.26,1.16,.49,2.24,1.03,3.25,1.42,1.02,.38,1.93,.73,2.69,1.04,1.52,.63,2.46,1.09,2.42,1.23Z"/>
        <path class="cls-14" d="M147.46,184.99s-12.82-7.45-19.23,9.76c-6.41,17.21,6.92,19.64,6.92,19.64,5.19-8.56,9.32-18.33,12.3-29.4Z"/>
        <path class="cls-13" d="M160.29,164.33c.07,.01-.07,1.17-.4,3.27-.34,2.09-.82,5.13-1.52,8.86-.48,1.84-1.01,3.85-1.57,6.01-.29,1.08-.58,2.2-.89,3.35-.15,.58-.31,1.16-.47,1.75-.17,.59-.4,1.16-.6,1.76-.84,2.37-1.72,4.85-2.64,7.42-.23,.64-.46,1.29-.7,1.95-.23,.66-.56,1.28-.83,1.93-.58,1.29-1.17,2.59-1.76,3.91-.6,1.32-1.19,2.63-1.77,3.91-.3,.64-.55,1.29-.89,1.9-.34,.61-.67,1.21-1,1.81-1.32,2.39-2.6,4.69-3.82,6.89-.31,.54-.59,1.1-.92,1.62-.34,.51-.68,1.01-1.01,1.51-.66,.99-1.3,1.95-1.93,2.88-1.24,1.85-2.41,3.58-3.47,5.16-2.33,2.99-4.28,5.35-5.62,6.98-1.35,1.63-2.13,2.51-2.18,2.46-.06-.05,.6-1.01,1.85-2.72,1.3-1.74,3.11-4.19,5.35-7.19,1.02-1.59,2.14-3.33,3.33-5.19,.6-.93,1.22-1.89,1.86-2.88,.32-.5,.65-1,.98-1.51,.32-.52,.59-1.07,.89-1.62,1.19-2.19,2.44-4.49,3.74-6.88,.33-.6,.65-1.2,.98-1.8,.34-.6,.58-1.26,.88-1.89,.58-1.28,1.16-2.57,1.75-3.89,.59-1.31,1.18-2.61,1.76-3.88,.28-.64,.61-1.26,.83-1.91,.23-.65,.47-1.29,.7-1.93,.93-2.55,1.82-5.01,2.68-7.35,.21-.59,.44-1.16,.62-1.74,.16-.59,.32-1.16,.48-1.73,.32-1.14,.63-2.24,.93-3.31,.61-2.13,1.17-4.12,1.69-5.94,.77-3.66,1.4-6.63,1.85-8.75,.45-2.07,.74-3.21,.82-3.2Z"/>
      </g>
      <path class="cls-6" d="M286.87,262.17s-12.37,22.9-15.68,23.25c-18.35,1.91-38-4.11-44.89-6.5-.7-.8-1.5-1.75-2.39-2.93-.77-1.01-1.34-2.15-1.73-3.36-.47-1.47-1.02-3.45-.99-4.64,.04-1.46-1.68-2.2-2.48-1.14-.79,1.06-.99,5.09,.83,9.41,1.82,4.31-4.6,.94-6.96-.25-2.36-1.19-9.84-4.51-10.77-4.05-1.37,.67-.94,2.3,1.45,3.43,2.41,1.14,9.3,5.04,8.62,6.29-.67,1.23-12.61-4.98-12.61-4.98,0,0-2.34-1.75-3.17-.33-1.51,2.56,11.66,8.21,12.93,8.72,.88,.35,.19,1.74-.74,1.31-.95-.44-11.76-6.49-13.32-3.89-1.2,1.99,10.79,4.75,12.34,7.29,1.55,2.54-8.88-3.04-9.94-1.09-.4,.73-.6,1.32,5.85,3.64,3.13,1.12,9.03,2.48,14.37,3.6l-.02,.07s61.93,28.94,78.24,.22c10.64-18.74,11.65-21.12,15.42-31.7"/>
    </g>
  </g>
  <g id="Speech_Bubbles" data-name="Speech Bubbles">
    <g>
      <path class="cls-12" d="M36.31,301.31h120.65c1.69,0,3.07,1.37,3.07,3.07v24.45c.8,10.39,0,12.95-11.84,13.8v11.04l-10.85-10.86H36.31c-1.69,0-3.07-1.37-3.07-3.07v-35.37c0-1.69,1.37-3.07,3.07-3.07Z"/>
      <rect class="cls-14" x="73.12" y="314.3" width="63.8" height="2.73"/>
      <rect class="cls-14" x="73.12" y="320.03" width="63.8" height="2.73"/>
      <rect class="cls-14" x="73.12" y="326.21" width="32.33" height="2.73"/>
      <rect class="cls-14" x="49.65" y="313.08" width="17.82" height="17.82"/>
    </g>
    <g>
      <path class="cls-14" d="M460.48,121.07c-.02-2.97-2.43-5.36-5.4-5.35l-133.5,.66c-2.97,.02-5.36,2.43-5.35,5.4l.21,42.12c.02,2.97,2.43,5.36,5.4,5.35h2.9s.08,15.4,.08,15.4l15.1-15.49,115.43-.57c2.97-.02,5.36-2.43,5.35-5.4l-.21-42.12Z"/>
      <g>
        <path class="cls-10" d="M420.02,149.69c-.09-2.41-.05-5.99,.02-9.17h-.02s-2.62-5.66,2.36-10.84c4.98-5.18,8.34-4.05,10.27-4.03,1.8,.02,10.86,2.11,13.43,12.76,.11,.45,.2,1.28,.28,2.07h0c.05,.53,.1,1.04,.15,1.4h0c.21,4.01,2.59,7.41,5.86,9.19,1.19-2.73,1.85-5.74,1.84-8.91-.06-12.19-9.99-22.03-22.19-21.97-12.19,.06-22.03,9.99-21.97,22.19,.04,8.08,4.43,15.1,10.92,18.92-.95-3.41-1.4-7.31-.98-11.6Z"/>
        <path class="cls-13" d="M446.53,141.87h0s0,.06,0,.08l-.12-.02c.04,4.24-.49,18.78-7.64,21.39,6.13-1.92,11.09-6.45,13.62-12.27-3.27-1.78-5.65-5.17-5.86-9.19Z"/>
        <path class="cls-13" d="M420.05,150.22c0-.17-.02-.34-.02-.53-.43,4.29,.03,8.18,.98,11.6,1.45,.85,3,1.56,4.64,2.07-.08-3.08-.36-7.45-.36-7.45,0,0-4.99-.61-5.23-5.7Z"/>
        <path class="cls-6" d="M438.53,140.77s-8.17-.89-9.52-8.53l-.05,.04c-.49,1.16-1.37,3.64-.82,5.65l-7.28,1.83-.82,.76c-.07,3.19-.11,6.76-.02,9.17,0,.18,.01,.36,.02,.53,.24,5.09,5.23,5.7,5.23,5.7,0,0,3.34,.08,6.6-2.2,0,0-1.54,3.72-6.5,3.45l-.09-1.25s.28,4.37,.36,7.45c2.09,.65,4.32,.99,6.62,.98,1.94,0,3.81-.29,5.6-.77l.66-22.8Zm-10.03,1.29c0-.36,.29-.65,.64-.64s.63,.3,.63,.66c0,.36-.29,.65-.64,.64-.35,0-.63-.3-.63-.66Zm-.15-1.1c.2-.18,.56-.37,.98-.39,.43-.02,.8,.13,1.01,.29,.22,.16,.31,.32,.27,.36-.07,.09-.58-.26-1.27-.22-.68,.03-1.16,.43-1.24,.35-.04-.04,.03-.2,.24-.38Zm-7.57-.09c.2-.18,.56-.37,.98-.39,.43-.02,.8,.13,1.01,.29,.22,.16,.31,.32,.27,.36-.07,.09-.58-.26-1.27-.22-.68,.03-1.16,.43-1.24,.35-.04-.04,.03-.2,.24-.38Zm.37,1.1c0-.36,.29-.65,.64-.64s.63,.3,.63,.66c0,.36-.29,.65-.64,.64-.35,0-.63-.3-.63-.66Zm3.01,5.29c-.11-.03-.24-.12-.29-.26-.1-.28,.01-.52,.08-.74,.15-.46,.3-.95,.46-1.46,.68-2.06,1.29-3.71,1.36-3.68,.08,.03-.41,1.72-1.08,3.78-.17,.5-.33,.99-.49,1.45-.08,.22-.15,.43-.1,.56,.03,.13,.2,.16,.37,.17,.69,.06,1.12,.12,1.12,.16s-.43,.06-1.13,.05c-.09,0-.18,0-.3-.03Zm2.61,2.49c-1.41,.59-2.26-.69-2.26-.69,1.39,.02,4.02-1.59,3.32-1.13,0,0,.4,1.2-1.06,1.81Z"/>
        <path class="cls-13" d="M422.41,141.98c0-.36-.28-.65-.63-.66-.35,0-.64,.28-.64,.64s.28,.65,.63,.66c.35,0,.64-.28,.64-.64Z"/>
        <path class="cls-13" d="M423.04,141.12s-.05-.2-.27-.36c-.22-.16-.59-.31-1.01-.29-.43,.02-.78,.21-.98,.39-.21,.18-.27,.35-.23,.38,.08,.08,.55-.32,1.24-.35,.68-.04,1.19,.32,1.26,.22Z"/>
        <path class="cls-13" d="M429.77,142.07c0-.36-.28-.65-.63-.66-.35,0-.64,.28-.64,.64s.28,.65,.63,.66c.35,0,.64-.28,.64-.64Z"/>
        <path class="cls-13" d="M430.61,141.21s-.05-.2-.27-.36c-.22-.16-.59-.31-1.01-.29-.43,.02-.78,.21-.98,.39-.21,.18-.27,.35-.23,.38,.08,.08,.56-.32,1.24-.35,.68-.04,1.19,.32,1.26,.22Z"/>
        <path class="cls-13" d="M425.57,147.23s-.42-.1-1.12-.16c-.17-.01-.34-.04-.37-.17-.04-.13,.02-.34,.1-.56,.16-.46,.32-.94,.49-1.45,.68-2.06,1.16-3.75,1.08-3.78-.08-.03-.69,1.62-1.36,3.68-.16,.51-.32,.99-.46,1.46-.06,.22-.17,.46-.08,.74,.05,.14,.18,.23,.29,.26,.11,.03,.21,.03,.3,.03,.69,0,1.12,0,1.13-.05Z"/>
        <path class="cls-4" d="M424.5,149.05s.84,1.28,2.26,.69c1.47-.61,1.06-1.81,1.06-1.81,.7-.46-1.92,1.14-3.32,1.13Z"/>
        <path class="cls-13" d="M431.88,153.72c-3.26,2.27-6.6,2.2-6.6,2.2l.09,1.25c4.97,.27,6.5-3.44,6.5-3.44Z"/>
        <path class="cls-13" d="M446.42,141.94l.12,.02s0-.06,0-.08c-.04-.36-.09-.86-.15-1.39h0c-.08-.79-.17-1.62-.28-2.07-2.57-10.65-11.64-12.74-13.43-12.76-1.93-.02-5.29-1.15-10.27,4.03-4.98,5.18-2.36,10.86-2.36,10.86h.02s.82-.77,.82-.77l7.28-1.83c-.55-2.01,.33-4.5,.82-5.65l.05-.04c1.35,7.64,9.52,8.53,9.52,8.53l-.67,22.8c.3-.08,.61-.15,.91-.24,7.16-2.61,7.68-17.16,7.64-21.39Z"/>
      </g>
      <g>
        <rect class="cls-13" x="332.62" y="131.72" width="69.38" height="3.82" transform="translate(-.65 1.8) rotate(-.28)"/>
        <rect class="cls-13" x="332.67" y="141.55" width="69.38" height="3.82" transform="translate(-.7 1.8) rotate(-.28)"/>
        <rect class="cls-13" x="332.72" y="151.2" width="34.39" height="3.82" transform="translate(-.75 1.72) rotate(-.28)"/>
      </g>
    </g>
  </g>
</svg>