<?xml version="1.0" encoding="UTF-8"?>
<svg id="Layer_1" data-name="Layer 1" xmlns="http://www.w3.org/2000/svg" viewBox="0 0 500 500">
  <defs>
    <style>
      .cls-1 {
        fill: #ebebeb;
      }

      .cls-2 {
        fill: #f5f5f5;
      }

      .cls-3 {
        fill: #fff;
      }

      .cls-4 {
        fill: #ffbf9d;
      }

      .cls-5 {
        fill: #fafafa;
      }

      .cls-6 {
        fill: #ff9a6c;
      }

      .cls-7 {
        fill: #ff725e;
      }

      .cls-8 {
        fill: #e0e0e0;
      }

      .cls-9 {
        fill: #455a64;
      }

      .cls-10 {
        fill: #263238;
      }

      .cls-11 {
        fill: #5cbb61;
      }

      .cls-12 {
        opacity: .3;
      }
    </style>
  </defs>
  <g id="Background_Complete" data-name="Background Complete">
    <g>
      <g>
        <path class="cls-2" d="M250.97,400.45v32.9h-4.73v3.57h4.73v22.02h88.45v-20.04h-6.55v-4.36h6.55v-6.55h2.91v-2.98h-3.46v-24.57h-87.9Z"/>
        <polygon class="cls-1" points="315.93 400.55 315.93 458.95 339.42 459.04 339.42 438.55 332.87 438.55 332.87 434.55 339.42 434.68 339.42 428.14 342.39 428.14 342.33 424.76 338.88 424.66 338.88 400.45 315.93 400.55"/>
      </g>
      <path class="cls-8" d="M338.76,433.2c0,.14-20.55,.26-45.89,.26s-45.89-.12-45.89-.26,20.54-.26,45.89-.26,45.89,.12,45.89,.26Z"/>
      <path class="cls-8" d="M332.87,436.87c0,.14-19.23,.26-42.94,.26s-42.95-.12-42.95-.26,19.22-.26,42.95-.26c23.71,0,42.94,.12,42.94,.26Z"/>
      <path class="cls-8" d="M338.76,444.76c0,.14-19.58,.26-43.73,.26s-43.73-.12-43.73-.26,19.58-.26,43.73-.26,43.73,.12,43.73,.26Z"/>
      <path class="cls-8" d="M342.33,424.61c0,.14-20.38,.26-45.51,.26s-45.52-.12-45.52-.26,20.38-.26,45.52-.26,45.51,.12,45.51,.26Z"/>
      <path class="cls-8" d="M338.76,404.46c0,.14-19.58,.26-43.73,.26s-43.73-.12-43.73-.26,19.58-.26,43.73-.26,43.73,.12,43.73,.26Z"/>
      <path class="cls-8" d="M338.88,414.72c0,.14-19.53,.26-43.62,.26s-43.62-.12-43.62-.26,19.53-.26,43.62-.26c24.09,0,43.62,.12,43.62,.26Z"/>
      <path class="cls-8" d="M339.42,452.66c0,.14-19.73,.26-44.06,.26s-44.06-.12-44.06-.26,19.72-.26,44.06-.26,44.06,.12,44.06,.26Z"/>
    </g>
    <g>
      <path class="cls-8" d="M480.96,109.48s0-.08-.01-.21c0-.16,0-.36-.01-.6,0-.55-.02-1.32-.03-2.31-.02-2.03-.04-4.95-.08-8.63l.14,.14c-10.15,.02-26.29,.05-44.44,.09,.1-.1-.23,.23,.22-.23h0v3.01c0,1,0,1.99,0,2.97,0,1.96,0,3.89,0,5.78l-.22-.22c12.66,.04,23.73,.08,31.67,.1,3.96,.03,7.13,.05,9.35,.06,1.08,.01,1.92,.02,2.53,.03,.27,0,.49,.01,.66,.01,.15,0,.23,0,.23,.01,0,0-.07,.01-.21,.01-.16,0-.37,0-.63,.01-.59,0-1.42,.02-2.48,.03-2.21,.01-5.36,.04-9.3,.06-7.98,.03-19.11,.06-31.83,.1h-.22s0-.22,0-.22c0-1.89,0-3.82,0-5.78,0-.98,0-1.97,0-2.97v-2.99h0v-.02h0c.45-.46,.13-.13,.23-.23,18.16,.04,34.3,.07,44.44,.09h.14v.14c-.03,3.71-.06,6.66-.08,8.71-.01,.98-.02,1.74-.03,2.28,0,.24-.01,.43-.01,.58,0,.13-.01,.19-.02,.19Z"/>
      <path class="cls-8" d="M486.99,97.72s-.01-.08-.02-.22c0-.17-.01-.37-.02-.62-.01-.58-.02-1.36-.04-2.36-.02-2.06-.05-4.97-.09-8.55l.16,.16c-6.92,.02-16.33,.04-26.7,.06-.2,.2,.27-.28,.23-.22h0v1.54c0,.51,0,1.02,0,1.53,0,1.01,0,2.01,0,2.99,0,1.97,0,3.87,0,5.7l-.21-.21c7.71,.04,14.35,.08,19.1,.1,2.35,.03,4.23,.04,5.57,.06,.62,.01,1.12,.02,1.5,.03,.34,0,.53,.02,.54,.03,0,0-.16,.02-.48,.03-.37,0-.85,.02-1.46,.03-1.33,.01-3.19,.03-5.52,.06-4.79,.03-11.48,.06-19.25,.1h-.21s0-.22,0-.22c0-1.83,0-3.73,0-5.7,0-.98,0-1.98,0-2.99,0-.5,0-1.01,0-1.53v-1.52h0v-.02h0s.43-.43,.23-.23c10.37,.03,19.79,.05,26.7,.06h.17s0,.16,0,.16c-.04,3.62-.07,6.57-.09,8.65-.02,.98-.03,1.75-.04,2.32-.01,.53-.02,.8-.03,.78Z"/>
    </g>
    <g>
      <path class="cls-8" d="M360.31,300.93s0-.08-.01-.21c0-.16,0-.36-.01-.6,0-.55-.02-1.33-.03-2.31-.02-2.03-.04-4.95-.08-8.63l.14,.14c-10.15,.02-26.29,.05-44.44,.09,.1-.1-.23,.23,.22-.23h0v3.01c0,1,0,1.99,0,2.97,0,1.96,0,3.89,0,5.78l-.22-.22c12.66,.04,23.73,.08,31.67,.1,3.96,.03,7.13,.05,9.35,.06,1.08,.01,1.92,.02,2.53,.03,.27,0,.49,.01,.66,.01,.15,0,.23,0,.23,.01s-.07,.01-.21,.01c-.16,0-.37,0-.63,.01-.59,0-1.42,.02-2.48,.03-2.2,.02-5.36,.04-9.3,.06-7.98,.02-19.11,.06-31.83,.1h-.22s0-.22,0-.22c0-1.89,0-3.82,0-5.78,0-.98,0-1.97,0-2.97v-2.99h0v-.02h0c.45-.46,.13-.13,.23-.23,18.16,.04,34.29,.07,44.44,.09h.14v.14c-.03,3.71-.06,6.66-.08,8.71-.01,.98-.02,1.74-.03,2.28,0,.24-.01,.43-.01,.58,0,.13-.01,.19-.02,.19Z"/>
      <path class="cls-8" d="M366.34,289.17s-.01-.08-.02-.22c0-.17-.01-.37-.02-.62-.01-.58-.02-1.36-.04-2.36-.02-2.06-.05-4.97-.09-8.55l.16,.16c-6.92,.02-16.33,.04-26.7,.06-.2,.2,.27-.28,.23-.23h0v1.54c0,.51,0,1.02,0,1.52,0,1.01,0,2.01,0,2.99,0,1.97,0,3.87,0,5.7l-.21-.21c7.71,.04,14.35,.08,19.1,.1,2.35,.02,4.23,.05,5.57,.06,.62,.01,1.12,.02,1.5,.03,.34,0,.53,.02,.54,.03s-.16,.02-.48,.03c-.37,0-.85,.02-1.46,.03-1.33,.01-3.19,.03-5.52,.06-4.79,.03-11.48,.06-19.25,.1h-.22s0-.22,0-.22c0-1.83,0-3.73,0-5.7,0-.98,0-1.98,0-2.99v-3.04h0v-.02h0s.43-.43,.23-.23c10.37,.02,19.79,.05,26.7,.06h.16s0,.16,0,.16c-.04,3.62-.07,6.57-.09,8.65-.02,.98-.03,1.75-.04,2.32,0,.52-.02,.79-.03,.78Z"/>
    </g>
    <g>
      <path class="cls-8" d="M333.31,70.1s0-.08-.01-.21c0-.16,0-.36-.01-.6,0-.55-.02-1.32-.03-2.31-.02-2.03-.04-4.95-.08-8.63l.14,.14c-10.15,.02-26.29,.05-44.44,.09,.1-.1-.23,.23,.22-.23h0v3.01c0,1,0,1.99,0,2.97,0,1.96,0,3.89,0,5.78l-.22-.22c12.66,.04,23.73,.07,31.67,.1,3.96,.03,7.13,.05,9.35,.06,1.08,.01,1.92,.02,2.53,.03,.27,0,.49,.01,.66,.01,.15,0,.23,0,.23,.01s-.07,.01-.21,.01c-.16,0-.37,0-.63,.01-.59,0-1.42,.02-2.48,.03-2.21,.01-5.36,.04-9.3,.06-7.98,.03-19.11,.06-31.83,.1h-.22s0-.22,0-.22c0-1.89,0-3.82,0-5.78,0-.98,0-1.97,0-2.97v-2.99h0v-.02h0c.45-.46,.13-.13,.23-.23,18.16,.04,34.29,.07,44.44,.09h.14v.14c-.03,3.71-.06,6.66-.08,8.71-.01,.98-.02,1.74-.03,2.28,0,.24-.01,.43-.01,.58,0,.13,0,.19-.01,.19Z"/>
      <path class="cls-8" d="M339.34,58.34s-.01-.08-.02-.22c0-.17-.01-.37-.02-.62-.01-.58-.02-1.37-.04-2.36-.02-2.06-.05-4.97-.09-8.55l.16,.16c-6.92,.02-16.33,.04-26.7,.06-.2,.2,.27-.28,.23-.22h0v1.54c0,.51,0,1.02,0,1.53,0,1.01,0,2.01,0,2.99,0,1.97,0,3.87,0,5.7l-.21-.22c7.71,.04,14.35,.08,19.1,.1,2.35,.03,4.23,.04,5.57,.06,.62,.01,1.12,.02,1.5,.03,.34,0,.53,.02,.54,.03s-.16,.02-.48,.03c-.37,0-.85,.02-1.46,.03-1.33,.01-3.19,.03-5.52,.06-4.79,.03-11.48,.06-19.25,.1h-.21s0-.22,0-.22c0-1.83,0-3.73,0-5.7,0-.98,0-1.98,0-2.99v-3.04h0v-.02h0s.43-.43,.23-.23c10.37,.03,19.79,.05,26.7,.06h.17v.16c-.04,3.62-.07,6.57-.09,8.65-.02,.98-.03,1.75-.04,2.32-.01,.53-.02,.8-.03,.79Z"/>
    </g>
    <g>
      <path class="cls-8" d="M80.79,49.95s0-.08-.01-.21c0-.16,0-.36-.01-.6,0-.55-.02-1.33-.03-2.31-.02-2.03-.04-4.95-.08-8.63l.14,.14c-10.15,.02-26.29,.05-44.44,.09,.1-.1-.23,.23,.22-.23h0v3.01c0,1,0,1.99,0,2.97,0,1.96,0,3.89,0,5.78l-.22-.22c12.66,.04,23.73,.08,31.67,.1,3.96,.03,7.13,.05,9.35,.06,1.08,.01,1.92,.02,2.53,.03,.27,0,.49,0,.66,.01,.15,0,.23,0,.23,.01,0,0-.07,0-.21,.01-.16,0-.37,0-.63,.01-.59,0-1.42,.02-2.48,.03-2.21,.01-5.36,.04-9.3,.06-7.98,.03-19.11,.06-31.83,.1h-.22s0-.22,0-.22c0-1.89,0-3.82,0-5.78,0-.98,0-1.97,0-2.97v-2.99h0v-.02h0c.45-.45,.13-.13,.23-.23,18.16,.04,34.3,.07,44.44,.09h.14v.14c-.03,3.71-.06,6.66-.08,8.71-.01,.98-.03,1.74-.03,2.28,0,.24-.01,.43-.01,.58,0,.13-.01,.19-.01,.19Z"/>
      <path class="cls-8" d="M86.82,38.19s-.01-.08-.02-.22c0-.17-.01-.37-.02-.62-.01-.58-.02-1.37-.04-2.36-.02-2.06-.05-4.97-.09-8.55l.16,.16c-6.92,.02-16.33,.04-26.7,.06-.2,.2,.27-.28,.22-.23h0v3.06c0,1.01,0,2.01,0,2.99,0,1.97,0,3.87,0,5.7l-.22-.22c7.71,.04,14.35,.08,19.1,.1,2.35,.03,4.23,.04,5.57,.06,.62,.01,1.12,.02,1.5,.03,.34,0,.53,.02,.53,.02,0,0-.16,.02-.49,.03-.37,0-.85,.02-1.46,.03-1.33,.01-3.19,.03-5.51,.06-4.79,.03-11.48,.06-19.25,.1h-.22s0-.22,0-.22c0-1.83,0-3.73,0-5.7,0-.98,0-1.98,0-2.99,0-.51,0-1.01,0-1.53v-1.52h0v-.02h0s.43-.43,.23-.23c10.37,.02,19.78,.05,26.7,.06h.16v.16c-.04,3.62-.07,6.57-.09,8.65-.02,.98-.03,1.75-.04,2.32-.01,.53-.02,.8-.03,.79Z"/>
    </g>
    <g>
      <path class="cls-8" d="M174.58,113.83s0-.08-.01-.21c0-.16,0-.36-.01-.6,0-.55-.02-1.32-.03-2.31-.02-2.03-.04-4.95-.08-8.63l.14,.14c-10.15,.02-26.29,.05-44.44,.09,.1-.1-.23,.23,.22-.23h0v3.01c0,1,0,1.99,0,2.97,0,1.96,0,3.89,0,5.78l-.22-.22c12.66,.04,23.73,.08,31.67,.1,3.96,.03,7.13,.05,9.35,.06,1.08,.01,1.92,.02,2.53,.03,.27,0,.49,.01,.66,.01,.15,0,.23,0,.23,.01,0,0-.07,.01-.21,.01-.16,0-.37,0-.63,.01-.59,0-1.42,.02-2.48,.03-2.21,.01-5.36,.04-9.3,.06-7.98,.03-19.11,.06-31.83,.1h-.22s0-.22,0-.22c0-1.89,0-3.82,0-5.78,0-.98,0-1.97,0-2.97v-2.99h0v-.02h0c.45-.46,.13-.13,.23-.23,18.16,.04,34.29,.07,44.44,.09h.14v.14c-.03,3.71-.06,6.66-.08,8.71-.01,.98-.02,1.74-.03,2.28,0,.24-.01,.43-.01,.58,0,.13-.01,.19-.01,.19Z"/>
      <path class="cls-8" d="M180.6,102.07s-.01-.08-.02-.22c0-.17-.01-.37-.02-.62,0-.58-.02-1.36-.04-2.36-.02-2.06-.05-4.97-.09-8.55l.16,.16c-6.92,.02-16.33,.04-26.7,.06-.2,.2,.27-.28,.23-.22h0v1.54c0,.51,0,1.02,0,1.53,0,1.01,0,2.01,0,2.99,0,1.97,0,3.87,0,5.7l-.21-.21c7.71,.04,14.35,.08,19.1,.1,2.35,.03,4.23,.04,5.57,.06,.62,.01,1.12,.02,1.5,.03,.34,0,.53,.02,.54,.03,0,0-.16,.02-.49,.03-.37,0-.85,.02-1.46,.03-1.33,.01-3.19,.03-5.51,.06-4.79,.03-11.48,.06-19.25,.1h-.21s0-.22,0-.22c0-1.83,0-3.73,0-5.7,0-.98,0-1.98,0-2.99v-3.04h0v-.02h0c-.05,.04,.43-.43,.23-.23,10.37,.03,19.79,.05,26.7,.06h.16v.16c-.04,3.62-.07,6.57-.09,8.65-.02,.98-.03,1.75-.04,2.32-.01,.53-.02,.8-.04,.78Z"/>
    </g>
    <g>
      <rect class="cls-1" x="310.03" y="145.31" width="35.06" height="9.28"/>
      <path class="cls-8" d="M330.27,164.36s0-.06-.01-.17c0-.12,0-.28-.01-.48,0-.44-.02-1.04-.03-1.82-.01-1.6-.04-3.9-.06-6.81l.11,.11c-8.01,.02-20.74,.04-35.06,.07,.08-.08-.18,.18,.18-.18h0v2.37c0,.79,0,1.57,0,2.34,0,1.55,0,3.07,0,4.56l-.17-.18c9.98,.03,18.72,.06,24.99,.08,3.12,.02,5.63,.04,7.38,.05,.85,0,1.52,.02,1.99,.02,.21,0,.39,0,.52,.01,.12,0,.18,0,.18,.01,0,0-.05,0-.16,.01-.13,0-.29,0-.5,.01-.47,0-1.12,.01-1.96,.02-1.74,.01-4.23,.03-7.33,.05-6.3,.02-15.08,.05-25.11,.08h-.17v-.18c0-1.49,0-3.01,0-4.56,0-.77,0-1.55,0-2.34v-2.36h0v-.02c.36-.36,.1-.1,.18-.18,14.32,.03,27.05,.05,35.06,.07h.11v.11c-.03,2.93-.05,5.25-.06,6.87-.01,.77-.02,1.37-.03,1.8,0,.19,0,.34-.01,.46,0,.1,0,.15-.01,.15Z"/>
    </g>
    <g>
      <rect class="cls-1" x="445.11" y="215.79" width="35.06" height="9.28"/>
      <path class="cls-8" d="M465.35,234.84s0-.06-.01-.17c0-.12,0-.28-.01-.48,0-.44-.02-1.04-.03-1.83-.01-1.6-.04-3.9-.06-6.81l.11,.11c-8.01,.02-20.74,.04-35.06,.07,.08-.08-.18,.18,.18-.18h0v2.37c0,.79,0,1.57,0,2.34,0,1.55,0,3.07,0,4.56l-.17-.18c9.98,.03,18.72,.06,24.99,.08,3.12,.02,5.63,.04,7.38,.05,.85,0,1.52,.02,1.99,.02,.21,0,.39,0,.52,.01,.12,0,.18,0,.18,.01,0,0-.05,0-.16,.01-.13,0-.29,0-.5,.01-.47,0-1.12,.01-1.96,.02-1.74,.01-4.23,.03-7.33,.05-6.3,.02-15.08,.05-25.11,.08h-.17s0-.17,0-.17c0-1.49,0-3.01,0-4.56,0-.77,0-1.55,0-2.34v-2.36h0v-.02c.36-.36,.1-.1,.18-.18,14.32,.03,27.05,.05,35.06,.07h.11v.11c-.03,2.93-.05,5.25-.06,6.87-.01,.77-.02,1.37-.03,1.8,0,.19,0,.34-.01,.46,0,.1,0,.15-.01,.15Z"/>
    </g>
    <g>
      <rect class="cls-1" x="164.69" y="318.38" width="35.06" height="9.28"/>
      <path class="cls-8" d="M184.92,337.43s0-.06-.01-.17c0-.12,0-.28-.01-.48,0-.44-.01-1.05-.03-1.83-.01-1.6-.04-3.9-.06-6.81l.11,.11c-8.01,.02-20.74,.04-35.06,.07,.08-.08-.18,.18,.18-.18h0v2.37c0,.79,0,1.57,0,2.34,0,1.55,0,3.07,0,4.56l-.18-.17c9.98,.03,18.72,.06,24.99,.08,3.12,.02,5.63,.04,7.38,.05,.85,.01,1.52,.02,1.99,.02,.21,0,.39,0,.52,.01,.12,0,.18,0,.18,.01s-.05,0-.16,.01c-.13,0-.29,0-.5,.01-.47,0-1.12,.01-1.96,.02-1.74,.01-4.23,.03-7.34,.05-6.3,.02-15.07,.05-25.11,.08h-.18s0-.17,0-.17c0-1.49,0-3.01,0-4.56,0-.77,0-1.55,0-2.34v-2.36h0v-.02c.36-.36,.1-.1,.18-.18,14.32,.03,27.05,.05,35.06,.07h.11v.11c-.03,2.93-.05,5.25-.06,6.87-.01,.77-.02,1.37-.03,1.8,0,.19,0,.34-.01,.46,0,.1,0,.15-.01,.15Z"/>
    </g>
    <g>
      <rect class="cls-8" x="360.25" y="17.31" width="82.58" height="119.7"/>
      <rect class="cls-2" x="356.11" y="17.31" width="82.58" height="119.7"/>
      <g>
        <rect class="cls-3" x="366.37" y="30.27" width="62.06" height="93.77"/>
        <path class="cls-8" d="M428.43,124.04s0-.16-.01-.46c0-.31,0-.75-.01-1.33,0-1.18-.01-2.9-.02-5.14-.01-4.49-.03-11.04-.06-19.32-.02-16.54-.06-39.95-.1-67.52l.21,.21c-18.96,0-39.97,.01-62.05,.02h0l.22-.22c-.02,35.37-.03,67.99-.05,93.77l-.18-.18c18.9,.04,34.39,.07,45.17,.09,5.39,.02,9.6,.04,12.48,.05,1.43,0,2.52,.01,3.28,.02,.74,0,1.13,.02,1.13,.02,0,0-.36,.01-1.1,.02-.74,0-1.83,.01-3.24,.02-2.87,0-7.07,.03-12.44,.04-10.81,.02-26.34,.05-45.28,.09h-.18v-.18c-.01-25.78-.03-58.4-.05-93.77v-.22h.23c22.08,0,43.09,.01,62.05,.02h.21v.21c-.04,27.63-.08,51.09-.1,67.66-.02,8.25-.04,14.79-.06,19.27-.01,2.22-.02,3.93-.02,5.1,0,.57,0,1-.01,1.31,0,.29-.01,.44-.01,.44Z"/>
      </g>
      <path class="cls-8" d="M438.92,17.31s-.51,.86-1.47,2.14c-.96,1.28-2.32,3.03-3.88,4.92-1.55,1.89-3.01,3.56-4.08,4.74-1.08,1.19-1.77,1.9-1.82,1.85-.05-.04,.56-.82,1.58-2.06,1.11-1.34,2.47-3,3.98-4.82,1.51-1.83,2.87-3.48,3.97-4.83,1.02-1.23,1.67-1.98,1.72-1.94Z"/>
      <g>
        <path class="cls-3" d="M428.75,123.74c3.08,4.9,6.72,9.45,10.82,13.54"/>
        <path class="cls-8" d="M439.57,137.28s-.78-.6-1.89-1.72c-1.11-1.12-2.58-2.73-4.08-4.6-1.5-1.88-2.75-3.67-3.6-5-.85-1.33-1.31-2.19-1.26-2.22,.06-.04,.61,.76,1.52,2.04,.91,1.28,2.19,3.03,3.68,4.9,1.49,1.87,2.92,3.5,3.96,4.67,1.05,1.17,1.7,1.89,1.66,1.93Z"/>
      </g>
      <g>
        <path class="cls-3" d="M356.1,136.91c3.61-4.45,7.21-8.9,10.82-13.35"/>
        <path class="cls-8" d="M366.92,123.57c.1,.08-2.25,3.13-5.23,6.81-2.99,3.69-5.49,6.61-5.58,6.53s2.25-3.13,5.23-6.81c2.99-3.68,5.49-6.61,5.58-6.53Z"/>
      </g>
      <path class="cls-8" d="M356.11,17.31c.1-.08,2.45,2.73,5.25,6.28,2.8,3.54,4.99,6.48,4.9,6.56-.1,.08-2.45-2.73-5.25-6.28-2.8-3.54-4.99-6.48-4.9-6.55Z"/>
      <rect class="cls-8" x="388.32" y="49.31" width="20.78" height="59"/>
    </g>
    <g>
      <path class="cls-8" d="M75.84,240.44s0-.08-.01-.21c0-.16,0-.36-.01-.6,0-.55-.02-1.32-.03-2.31-.02-2.03-.04-4.95-.08-8.63l.14,.14c-10.15,.02-26.29,.05-44.44,.09,.1-.1-.23,.23,.22-.23h0v3.01c0,1,0,1.99,0,2.97,0,1.96,0,3.89,0,5.78l-.22-.22c12.66,.04,23.73,.07,31.67,.1,3.96,.03,7.13,.05,9.35,.06,1.08,.01,1.92,.02,2.53,.03,.27,0,.49,.01,.66,.01,.15,0,.23,0,.23,.01,0,0-.07,0-.21,.01-.16,0-.37,0-.63,.01-.59,0-1.42,.02-2.48,.03-2.21,.01-5.36,.04-9.3,.06-7.98,.02-19.11,.06-31.83,.1h-.22s0-.22,0-.22c0-1.89,0-3.82,0-5.78,0-.98,0-1.97,0-2.97v-2.99h0v-.02h0c.45-.46,.13-.13,.23-.23,18.16,.04,34.3,.07,44.44,.09h.14v.14c-.03,3.71-.06,6.66-.08,8.71-.01,.98-.03,1.74-.03,2.28,0,.24-.01,.43-.01,.58,0,.13-.01,.19-.02,.19Z"/>
      <path class="cls-8" d="M81.87,228.69s-.01-.08-.02-.22c0-.17-.01-.37-.02-.62-.01-.58-.02-1.37-.04-2.36-.02-2.06-.05-4.97-.09-8.55l.16,.16c-6.92,.02-16.33,.04-26.7,.06-.2,.2,.27-.28,.22-.23h0v1.54c0,.51,0,1.02,0,1.52,0,1.01,0,2.01,0,2.99,0,1.97,0,3.87,0,5.7l-.22-.21c7.71,.04,14.35,.08,19.1,.1,2.35,.02,4.23,.04,5.57,.06,.62,.01,1.12,.02,1.5,.03,.34,0,.53,.02,.54,.03s-.16,.02-.49,.03c-.37,0-.85,.02-1.46,.03-1.33,.01-3.19,.03-5.52,.06-4.79,.02-11.48,.06-19.25,.1h-.22s0-.22,0-.22c0-1.83,0-3.73,0-5.7,0-.98,0-1.98,0-2.99,0-.51,0-1.01,0-1.52v-1.52h0v-.02h0s.43-.43,.23-.23c10.37,.02,19.78,.05,26.7,.06h.16s0,.16,0,.16c-.04,3.62-.07,6.57-.09,8.65-.02,.98-.03,1.75-.04,2.32-.01,.53-.02,.79-.03,.78Z"/>
    </g>
  </g>
  <g id="Floor">
    <path class="cls-10" d="M483.82,459.04c0,.14-105.44,.26-235.48,.26s-235.5-.12-235.5-.26,105.42-.26,235.5-.26c130.04,0,235.48,.12,235.48,.26Z"/>
  </g>
  <g id="Documents_2" data-name="Documents 2">
    <g>
      <g>
        <g>
          <polygon class="cls-2" points="459.98 378.09 459.98 374.42 378.09 374.58 373.36 374.58 373.36 378.15 378.09 378.15 378.09 400.17 466.53 400.17 466.53 378.09 459.98 378.09"/>
          <polygon class="cls-1" points="439.9 400.59 439.9 374.42 459.98 374.42 459.98 377.19 466.53 377.19 466.53 400.17 439.9 400.59"/>
          <path class="cls-8" d="M459.98,374.42c0,.14-19.23,.26-42.94,.26s-42.95-.12-42.95-.26,19.22-.26,42.95-.26,42.94,.12,42.94,.26Z"/>
          <path class="cls-8" d="M465.88,385.98c0,.14-19.58,.26-43.73,.26s-43.73-.12-43.73-.26,19.58-.26,43.73-.26,43.73,.12,43.73,.26Z"/>
          <path class="cls-8" d="M466.53,393.88c0,.14-19.73,.26-44.06,.26s-44.06-.12-44.06-.26,19.72-.26,44.06-.26,44.06,.12,44.06,.26Z"/>
        </g>
        <path class="cls-8" d="M374.1,378.09c0-.14,19.23-.26,42.94-.26s42.95,.12,42.95,.26-19.22,.26-42.95,.26-42.94-.12-42.94-.26Z"/>
      </g>
      <g>
        <g>
          <path class="cls-2" d="M374.1,400.45v32.9h-4.73v3.57h4.73v22.02h88.45v-20.04h-6.55v-4.36h6.55v-6.55h2.91v-2.98h-3.46v-24.57h-87.9Z"/>
          <polygon class="cls-1" points="439.06 400.55 439.06 458.95 462.55 459.04 462.55 438.55 456 438.55 456 434.55 462.55 434.68 462.55 428.14 465.52 428.14 465.46 424.76 462 424.66 462 400.45 439.06 400.55"/>
        </g>
        <path class="cls-8" d="M461.89,433.2c0,.14-20.55,.26-45.89,.26s-45.89-.12-45.89-.26,20.54-.26,45.89-.26,45.89,.12,45.89,.26Z"/>
        <path class="cls-8" d="M456,436.87c0,.14-19.23,.26-42.94,.26s-42.95-.12-42.95-.26,19.22-.26,42.95-.26c23.71,0,42.94,.12,42.94,.26Z"/>
        <path class="cls-8" d="M461.89,444.76c0,.14-19.58,.26-43.73,.26s-43.73-.12-43.73-.26,19.58-.26,43.73-.26,43.73,.12,43.73,.26Z"/>
        <path class="cls-8" d="M465.46,424.61c0,.14-20.38,.26-45.51,.26s-45.52-.12-45.52-.26,20.38-.26,45.52-.26,45.51,.12,45.51,.26Z"/>
        <path class="cls-8" d="M461.89,404.46c0,.14-19.58,.26-43.73,.26s-43.73-.12-43.73-.26,19.58-.26,43.73-.26,43.73,.12,43.73,.26Z"/>
        <path class="cls-8" d="M462,414.72c0,.14-19.53,.26-43.62,.26s-43.62-.12-43.62-.26,19.53-.26,43.62-.26c24.09,0,43.62,.12,43.62,.26Z"/>
        <path class="cls-8" d="M462.55,452.66c0,.14-19.73,.26-44.06,.26s-44.06-.12-44.06-.26,19.72-.26,44.06-.26,44.06,.12,44.06,.26Z"/>
        <rect class="cls-7" x="385.06" y="414.72" width="3.79" height="4.79"/>
        <rect class="cls-11" x="413.97" y="424.68" width="7.23" height="4.79"/>
      </g>
      <path class="cls-10" d="M462,400.35c0,.14-19.68,.26-43.95,.26s-43.95-.12-43.95-.26,19.67-.26,43.95-.26,43.95,.12,43.95,.26Z"/>
      <g>
        <g>
          <g>
            <g>
              <g>
                <path class="cls-2" d="M377.56,299.35v30.31h-4.36v3.29h4.36v20.29h81.48v-18.46h-6.04v-4.02h6.04v-6.03h2.68v-2.74h-3.18v-22.64h-80.98Z"/>
                <polygon class="cls-1" points="419.12 299.44 419.12 353.24 459.04 353.32 459.04 334.44 453 334.44 453 330.76 459.04 330.88 459.04 324.85 461.77 324.86 461.72 321.74 458.54 321.65 458.54 299.35 419.12 299.44"/>
              </g>
              <path class="cls-8" d="M458.43,329.51c0,.14-18.93,.26-42.27,.26s-42.28-.12-42.28-.26,18.92-.26,42.28-.26c23.34,0,42.27,.12,42.27,.26Z"/>
              <path class="cls-8" d="M453,332.9c0,.14-17.71,.26-39.56,.26s-39.56-.12-39.56-.26,17.71-.26,39.56-.26c21.85,0,39.56,.12,39.56,.26Z"/>
              <path class="cls-8" d="M458.43,340.17c0,.14-18.04,.26-40.28,.26s-40.29-.12-40.29-.26,18.03-.26,40.29-.26,40.28,.12,40.28,.26Z"/>
              <path class="cls-8" d="M461.72,321.61c0,.14-18.77,.26-41.93,.26s-41.93-.12-41.93-.26,18.77-.26,41.93-.26c23.15,0,41.93,.12,41.93,.26Z"/>
              <path class="cls-8" d="M458.43,303.04c0,.14-18.04,.26-40.28,.26s-40.29-.12-40.29-.26,18.03-.26,40.29-.26c22.25,0,40.28,.12,40.28,.26Z"/>
              <path class="cls-8" d="M458.65,309c0,.14-18.04,.26-40.28,.26s-40.29-.12-40.29-.26,18.03-.26,40.29-.26c22.25,0,40.28,.12,40.28,.26Z"/>
              <path class="cls-8" d="M458.54,312.49c0,.14-17.99,.26-40.18,.26s-40.18-.12-40.18-.26,17.99-.26,40.18-.26c22.19,0,40.18,.12,40.18,.26Z"/>
              <path class="cls-8" d="M459.04,347.44c0,.14-18.17,.26-40.59,.26s-40.59-.12-40.59-.26,18.17-.26,40.59-.26,40.59,.12,40.59,.26Z"/>
              <rect class="cls-11" x="394.16" y="308.86" width="5.31" height="5.09"/>
              <rect class="cls-7" x="414.29" y="321.67" width="6.66" height="4.41"/>
            </g>
            <g>
              <path class="cls-9" d="M415.23,317.42v41.68h48.46v-41.68h-48.46Zm15.82,7.5c0-1.7,1.11-3.08,2.48-3.08h11.86c1.37,0,2.48,1.38,2.48,3.08s-1.11,3.08-2.48,3.08h-11.86c-1.37,0-2.48-1.38-2.48-3.08Z"/>
              <path class="cls-10" d="M371.14,317.42v41.68h45.02v-41.68h-45.02Z"/>
            </g>
            <path class="cls-10" d="M418.89,318.02c-.14,0-.26-4.1-.26-9.16s.12-9.16,.26-9.16,.26,4.1,.26,9.16c0,5.06-.12,9.16-.26,9.16Z"/>
          </g>
          <path class="cls-10" d="M458.43,317.42s-.02-.11-.03-.32c0-.24-.02-.55-.03-.93-.01-.86-.03-2.06-.05-3.6-.02-3.16-.05-7.67-.08-13.22l.19,.19c-10.47,.02-24.73,.04-40.43,.07-15.71-.03-29.97-.05-40.44-.07l.19-.19c-.04,5.55-.06,10.06-.08,13.22-.02,1.53-.04,2.74-.05,3.6-.01,.39-.02,.7-.03,.93,0,.21-.02,.32-.03,.32s-.02-.11-.03-.32c0-.24-.02-.55-.03-.93-.01-.86-.03-2.06-.05-3.6-.02-3.16-.05-7.67-.08-13.22v-.19s.19,0,.19,0c10.47-.02,24.73-.04,40.44-.07,15.7,.03,29.96,.05,40.43,.07h.19v.19c-.04,5.55-.07,10.06-.09,13.22-.02,1.53-.04,2.74-.05,3.6-.01,.39-.02,.7-.03,.93-.01,.21-.02,.32-.03,.32Z"/>
        </g>
        <rect class="cls-1" x="373.9" y="361.03" width="28.47" height="11.22"/>
        <rect class="cls-11" x="372.71" y="359.1" width="89.4" height="2.35"/>
        <rect class="cls-11" x="373.13" y="371.74" width="88.99" height="2.35"/>
        <polygon class="cls-11" points="402.37 359.66 402.5 373.64 462.12 373.64 462.12 359.66 402.37 359.66"/>
        <g>
          <ellipse class="cls-10" cx="413.63" cy="366.64" rx="3.22" ry="3.48"/>
          <path class="cls-8" d="M413.63,370.62c-2.05,0-3.72-1.79-3.72-3.98s1.67-3.98,3.72-3.98,3.72,1.79,3.72,3.98-1.67,3.98-3.72,3.98Zm0-6.96c-1.5,0-2.72,1.34-2.72,2.98s1.22,2.98,2.72,2.98,2.72-1.34,2.72-2.98-1.22-2.98-2.72-2.98Z"/>
        </g>
        <path class="cls-10" d="M400.23,369.49c0,.14-5.85,.26-13.06,.26s-13.06-.12-13.06-.26,5.85-.26,13.06-.26c7.21,0,13.06,.12,13.06,.26Z"/>
        <path class="cls-10" d="M400.23,367.54c0,.14-5.85,.26-13.06,.26s-13.06-.12-13.06-.26,5.85-.26,13.06-.26,13.06,.12,13.06,.26Z"/>
        <path class="cls-10" d="M400.23,365.59c0,.14-5.85,.26-13.06,.26s-13.06-.12-13.06-.26,5.85-.26,13.06-.26c7.21,0,13.06,.12,13.06,.26Z"/>
        <path class="cls-10" d="M400.23,363.63c0,.14-5.85,.26-13.06,.26s-13.06-.12-13.06-.26,5.85-.26,13.06-.26,13.06,.12,13.06,.26Z"/>
        <g>
          <rect class="cls-3" x="428.64" y="362.63" width="26.86" height="7.48"/>
          <path class="cls-8" d="M432.82,369.36c-.14,0-.26-1.33-.26-2.98s.12-2.98,.26-2.98,.26,1.33,.26,2.98-.12,2.98-.26,2.98Z"/>
          <path class="cls-8" d="M436.38,369.36c-.14,0-.26-1.33-.26-2.98s.12-2.98,.26-2.98,.26,1.33,.26,2.98-.12,2.98-.26,2.98Z"/>
          <path class="cls-8" d="M439.93,369.36c-.14,0-.26-1.33-.26-2.98s.12-2.98,.26-2.98,.26,1.33,.26,2.98c0,1.65-.12,2.98-.26,2.98Z"/>
          <path class="cls-8" d="M443.48,369.36c-.14,0-.26-1.33-.26-2.98s.12-2.98,.26-2.98,.26,1.33,.26,2.98c0,1.65-.12,2.98-.26,2.98Z"/>
          <path class="cls-8" d="M447.03,369.36c-.14,0-.26-1.33-.26-2.98s.12-2.98,.26-2.98,.26,1.33,.26,2.98-.12,2.98-.26,2.98Z"/>
          <path class="cls-8" d="M450.59,369.36c-.14,0-.26-1.33-.26-2.98s.12-2.98,.26-2.98,.26,1.33,.26,2.98c0,1.65-.12,2.98-.26,2.98Z"/>
        </g>
        <path class="cls-10" d="M402.77,374.06c-.14,0-.26-3.33-.26-7.42s.12-7.43,.26-7.43,.26,3.32,.26,7.43c0,4.1-.12,7.42-.26,7.42Z"/>
      </g>
    </g>
  </g>
  <g id="Chart">
    <g>
      <g>
        <rect class="cls-3" x="162.36" y="24.35" width="100.52" height="71.9"/>
        <path class="cls-10" d="M262.88,24.35s-.17,0-.49,.01c-.33,0-.8,0-1.42,.01-1.26,0-3.1,.02-5.49,.03-4.8,.01-11.8,.04-20.65,.06-17.7,.03-42.79,.07-72.47,.12l.24-.24c0,21.72,.01,46.14,.02,71.89h0s-.26-.25-.26-.25c37.63,.02,72.45,.04,100.52,.05l-.21,.21c.05-21.8,.08-39.74,.11-52.26,.02-6.26,.04-11.16,.05-14.51,.01-1.66,.02-2.94,.02-3.82,0-.86,.02-1.32,.02-1.32,0,0,.02,.43,.02,1.28,0,.87,.01,2.13,.02,3.78,.01,3.34,.03,8.22,.05,14.46,.03,12.55,.06,30.54,.11,52.39v.21h-.21c-28.08,.01-62.89,.03-100.52,.05h-.26v-.26h0c0-25.76,.02-50.18,.02-71.9v-.24h.24c29.74,.05,54.89,.09,72.63,.12,8.83,.03,15.81,.05,20.6,.06,2.37,.01,4.2,.02,5.44,.03,.61,0,1.07,.01,1.39,.01,.31,0,.46,.02,.46,.02Z"/>
      </g>
      <path class="cls-8" d="M191.94,35.44h-17.99c-.88,0-1.6,.72-1.6,1.6h0c0,.88,.72,1.6,1.6,1.6h17.99c.88,0,1.6-.72,1.6-1.6h0c0-.88-.72-1.6-1.6-1.6Z"/>
      <path class="cls-8" d="M182.04,85.65h-8.1c-.88,0-1.6,.72-1.6,1.6h0c0,.89,.72,1.6,1.6,1.6h8.1c.88,0,1.6-.72,1.6-1.6h0c0-.88-.72-1.6-1.6-1.6Z"/>
      <path class="cls-8" d="M199.36,85.65h-8.1c-.88,0-1.6,.72-1.6,1.6h0c0,.89,.72,1.6,1.6,1.6h8.1c.88,0,1.6-.72,1.6-1.6h0c0-.88-.72-1.6-1.6-1.6Z"/>
      <path class="cls-8" d="M216.67,85.65h-8.1c-.88,0-1.6,.72-1.6,1.6h0c0,.89,.72,1.6,1.6,1.6h8.1c.88,0,1.6-.72,1.6-1.6h0c0-.88-.72-1.6-1.6-1.6Z"/>
      <path class="cls-8" d="M233.98,85.65h-8.1c-.88,0-1.6,.72-1.6,1.6h0c0,.89,.72,1.6,1.6,1.6h8.1c.88,0,1.6-.72,1.6-1.6h0c0-.88-.72-1.6-1.6-1.6Z"/>
      <path class="cls-8" d="M251.29,85.65h-8.1c-.88,0-1.6,.72-1.6,1.6h0c0,.89,.72,1.6,1.6,1.6h8.1c.88,0,1.6-.72,1.6-1.6h0c0-.88-.72-1.6-1.6-1.6Z"/>
      <path class="cls-8" d="M233.98,85.65h-8.1c-.88,0-1.6,.72-1.6,1.6h0c0,.89,.72,1.6,1.6,1.6h8.1c.88,0,1.6-.72,1.6-1.6h0c0-.88-.72-1.6-1.6-1.6Z"/>
      <g>
        <g>
          <rect class="cls-11" x="174.8" y="45.37" width="4.22" height="35.96"/>
          <rect class="cls-7" x="182.94" y="57.58" width="4.22" height="23.75"/>
          <rect class="cls-11" x="191.09" y="49.84" width="4.22" height="31.67"/>
          <rect class="cls-7" x="199.23" y="46.76" width="4.22" height="34.57"/>
          <rect class="cls-11" x="207.38" y="58.31" width="4.22" height="23.01"/>
          <rect class="cls-7" x="215.52" y="62.83" width="4.22" height="18.5"/>
          <rect class="cls-11" x="223.67" y="49.06" width="4.22" height="32.27"/>
          <rect class="cls-7" x="231.81" y="54.88" width="4.22" height="26.45"/>
          <rect class="cls-11" x="239.96" y="50.23" width="4.22" height="31.1"/>
          <rect class="cls-7" x="248.11" y="60.14" width="4.22" height="21.19"/>
          <rect class="cls-10" x="182.94" y="57.58" width="4.22" height="23.75"/>
          <rect class="cls-10" x="199.23" y="46.76" width="4.22" height="34.57"/>
          <rect class="cls-10" x="215.52" y="62.83" width="4.22" height="18.5"/>
          <rect class="cls-10" x="231.81" y="54.88" width="4.22" height="26.45"/>
          <rect class="cls-10" x="248.11" y="60.14" width="4.22" height="21.19"/>
        </g>
        <path class="cls-10" d="M170.44,46.76s0,.06,0,.16c0,.12,0,.27,0,.48,0,.43,0,1.06,.02,1.87,0,1.64,.02,4.03,.03,7.07,0,6.1,.02,14.78,.04,25.17l-.1-.12c8.19,0,17.78-.01,27.99-.02,15.97,.02,30.42,.03,40.89,.04,5.23,.02,9.46,.03,12.39,.04,1.46,.01,2.59,.02,3.37,.03,.38,0,.67,.01,.88,.01,.2,0,.3,.01,.3,.01,0,0-.1,0-.3,.01-.2,0-.5,0-.88,.01-.78,0-1.91,.01-3.37,.03-2.93,.01-7.16,.03-12.39,.04-10.47,.01-24.92,.02-40.89,.04-10.21,0-19.8-.01-27.99-.02h-.1v-.12c.02-10.39,.03-19.08,.04-25.17,.01-3.04,.02-5.43,.03-7.07,0-.81,.01-1.43,.01-1.87,0-.21,0-.36,0-.48,0-.11,0-.16,0-.16Z"/>
      </g>
    </g>
  </g>
  <g id="Article">
    <g>
      <g>
        <g>
          <rect class="cls-5" x="36.57" y="60.3" width="94.35" height="122.27"/>
          <path class="cls-10" d="M130.91,182.57s0-.2-.01-.59c0-.4,0-.97-.01-1.71,0-1.52-.02-3.75-.03-6.65-.01-5.81-.04-14.3-.06-25.05-.03-21.49-.07-52.03-.12-88.27l.23,.23c-28.21,0-60.36,.02-94.34,.03h0l.26-.26c-.02,45.41-.03,87.54-.04,122.28l-.22-.21c28.47,.05,52.03,.09,68.49,.11,8.23,.02,14.69,.04,19.09,.05,2.2,.01,3.88,.02,5.03,.02,1.14,0,1.74,.02,1.74,.02,0,0-.57,.02-1.69,.02-1.14,0-2.81,.01-4.99,.02-4.4,.01-10.83,.03-19.05,.05-16.49,.03-40.09,.07-68.62,.11h-.22v-.21c-.01-34.73-.03-76.87-.04-122.28v-.26h.27c33.98,0,66.13,.02,94.34,.03h.24v.23c-.05,36.31-.09,66.9-.12,88.42-.03,10.73-.05,19.2-.06,25-.01,2.88-.02,5.09-.03,6.6,0,.74,0,1.3-.01,1.69,0,.38-.01,.56-.01,.56Z"/>
        </g>
        <path class="cls-8" d="M47.05,84.17l32.15,.06c1.05,0,1.9-.85,1.9-1.89h0c0-1.05-.85-1.9-1.89-1.9l-32.15-.06c-1.05,0-1.9,.85-1.9,1.89h0c0,1.05,.84,1.9,1.89,1.9Z"/>
        <path class="cls-8" d="M47.1,91.5l32.15,.06c1.05,0,1.9-.85,1.9-1.89h0c0-1.05-.85-1.9-1.89-1.9l-32.15-.06c-1.05,0-1.9,.85-1.9,1.89h0c0,1.05,.84,1.9,1.89,1.9Z"/>
        <path class="cls-8" d="M47.14,98.83l32.15,.06c1.05,0,1.9-.85,1.9-1.89h0c0-1.05-.85-1.9-1.89-1.9l-32.15-.06c-1.05,0-1.9,.85-1.9,1.89h0c0,1.05,.85,1.9,1.89,1.9Z"/>
        <path class="cls-8" d="M47.19,106.17l32.15,.06c1.05,0,1.9-.85,1.9-1.89h0c0-1.05-.85-1.9-1.89-1.9l-32.15-.06c-1.05,0-1.9,.85-1.9,1.89h0c0,1.05,.84,1.9,1.89,1.9Z"/>
        <path class="cls-8" d="M47.23,113.5l32.15,.06c1.05,0,1.9-.85,1.9-1.89h0c0-1.05-.85-1.9-1.89-1.9l-32.15-.06c-1.05,0-1.9,.85-1.9,1.89h0c0,1.05,.84,1.9,1.89,1.9Z"/>
        <path class="cls-8" d="M47.28,120.83l32.15,.06c1.05,0,1.9-.85,1.9-1.89h0c0-1.05-.85-1.9-1.89-1.9l-32.15-.06c-1.05,0-1.9,.85-1.9,1.89h0c0,1.05,.85,1.9,1.89,1.9Z"/>
        <path class="cls-8" d="M47.33,128.16l32.15,.06c1.05,0,1.9-.85,1.9-1.89h0c0-1.05-.85-1.9-1.89-1.9l-32.15-.06c-1.05,0-1.9,.85-1.9,1.89h0c0,1.05,.84,1.9,1.89,1.9Z"/>
        <path class="cls-8" d="M88,120.83l32.15,.06c1.05,0,1.9-.85,1.9-1.89h0c0-1.05-.85-1.9-1.89-1.9l-32.15-.06c-1.05,0-1.9,.85-1.9,1.89h0c0,1.05,.85,1.9,1.89,1.9Z"/>
        <path class="cls-8" d="M88.05,128.16l32.15,.06c1.05,0,1.9-.85,1.9-1.89h0c0-1.05-.85-1.9-1.89-1.9l-32.15-.06c-1.05,0-1.9,.85-1.9,1.89h0c0,1.05,.85,1.9,1.89,1.9Z"/>
        <path class="cls-8" d="M88.1,135.9l32.15,.06c1.05,0,1.9-.85,1.9-1.89h0c0-1.05-.85-1.9-1.89-1.9l-32.15-.06c-1.05,0-1.9,.85-1.9,1.89h0c0,1.05,.84,1.9,1.89,1.9Z"/>
        <path class="cls-8" d="M88.14,143.63l32.15,.06c1.05,0,1.9-.85,1.9-1.89h0c0-1.05-.85-1.9-1.89-1.9l-32.15-.06c-1.05,0-1.9,.85-1.9,1.89h0c0,1.05,.85,1.9,1.89,1.9Z"/>
        <path class="cls-8" d="M88.19,151.36l32.15,.06c1.05,0,1.9-.85,1.9-1.89h0c0-1.05-.85-1.9-1.89-1.9l-32.15-.06c-1.05,0-1.9,.85-1.9,1.89h0c0,1.05,.85,1.9,1.89,1.9Z"/>
        <path class="cls-8" d="M88.24,159.1l32.15,.06c1.05,0,1.9-.85,1.9-1.89h0c0-1.05-.85-1.9-1.89-1.9l-32.15-.06c-1.05,0-1.9,.85-1.9,1.89h0c0,1.05,.84,1.9,1.89,1.9Z"/>
        <path class="cls-8" d="M88.29,166.83l32.15,.06c1.05,0,1.9-.85,1.9-1.89h0c0-1.05-.85-1.9-1.89-1.9l-32.15-.06c-1.05,0-1.9,.85-1.9,1.89h0c0,1.05,.85,1.9,1.89,1.9Z"/>
        <path class="cls-8" d="M46.88,174.77l73.09,.13c1.05,0,1.9-.85,1.9-1.89h0c0-1.05-.85-1.9-1.89-1.9l-73.09-.13c-.7,0-1.27,.57-1.27,1.27v1.25c0,.7,.56,1.27,1.26,1.27Z"/>
        <path class="cls-8" d="M46.99,74.62l21.27,.04c1.05,0,1.9-.85,1.9-1.89h0c0-1.05-.85-1.9-1.89-1.9l-21.27-.04c-1.05,0-1.9,.85-1.9,1.89h0c0,1.05,.84,1.9,1.89,1.9Z"/>
        <g>
          <path class="cls-11" d="M70.93,162.76l-15.88-.03c-3.81,0-6.88-3.1-6.88-6.9l.02-13.21c0-3.8,3.1-6.88,6.9-6.88l15.88,.03c3.8,0,6.88,3.1,6.88,6.9l-.02,13.21c0,3.8-3.1,6.88-6.9,6.88Z"/>
          <g class="cls-12">
            <path d="M48.17,156.43c0-.23,.12-.45,.3-.58l8.37-6.93c.74-.63,1.75-1.1,3.72,.13,.04,.03-.13-.09,0,0l4.59,2.22c.28,.13,.62,.07,.83-.15l6.48-6.7c.86-.82,2.24-.74,3,.17l2.21,2.62c.11,.13,.17,.29,.17,.45l-.03,10.84c.03,1.57-1.45,4.25-4.32,4.25l-20.87-.04c-2.69,.04-4.49-2.32-4.47-4.59l.02-1.71Z"/>
          </g>
          <g class="cls-12">
            <path d="M62.13,142.73c.12,1.63-1.11,3.05-2.74,3.17-1.63,.12-3.05-1.11-3.17-2.74-.12-1.63,1.11-3.05,2.74-3.17,1.63-.12,3.05,1.11,3.17,2.74Z"/>
          </g>
        </g>
      </g>
      <g>
        <path class="cls-8" d="M119.99,94.73c.14,8.61-6.72,15.73-15.3,15.87s-15.66-6.76-15.8-15.37c-.14-8.61,6.72-15.73,15.3-15.87,8.57-.14,15.66,6.76,15.8,15.37Zm-22.98,.37c.07,4.12,3.45,7.41,7.55,7.35s7.38-3.47,7.31-7.59c-.07-4.12-3.45-7.41-7.55-7.35-4.1,.07-7.38,3.47-7.31,7.59Z"/>
        <path class="cls-9" d="M119.99,94.73c.14,8.61-6.72,15.73-15.3,15.87l-.13-8.15c4.1-.07,7.38-3.47,7.31-7.59-.07-4.12-3.45-7.41-7.55-7.35l-.13-8.15c8.57-.14,15.66,6.76,15.8,15.37Z"/>
        <path class="cls-11" d="M106.08,111.85c-10.03,.16-18.03-7.62-18.19-17.7l9.49-.15c.08,4.82,3.74,7.85,8.54,7.77l.16,10.08Z"/>
      </g>
    </g>
  </g>
  <g id="Speech_Bubble" data-name="Speech Bubble">
    <g>
      <g>
        <path class="cls-3" d="M203.78,166.62l-7.47,1.33c-2.68,3.03-6.21,5.38-10.36,6.63-11.95,3.61-24.57-3.16-28.19-15.13-3.62-11.97,3.14-24.6,15.09-28.21,11.95-3.61,24.57,3.16,28.19,15.13,1.51,5,1.21,10.11-.52,14.63h0s3.26,5.62,3.26,5.62Z"/>
        <path class="cls-10" d="M203.78,166.62s-.06-.12-.2-.36c-.14-.25-.34-.61-.61-1.08-.55-.97-1.35-2.38-2.4-4.22-.01-.03-.05-.04-.08-.02,0,0-.01,0-.02,.02h0s.1,.06,.1,.06c1.02-2.65,1.91-6.46,1.35-10.98-.14-1.12-.38-2.28-.71-3.46-.17-.59-.4-1.17-.61-1.76-.19-.61-.48-1.18-.76-1.77-1.13-2.36-2.74-4.68-4.88-6.7-2.13-2.01-4.78-3.71-7.79-4.81-3.01-1.1-6.38-1.61-9.82-1.32-3.43,.33-6.89,1.46-9.98,3.38-.8,.44-1.5,1.04-2.24,1.58-.38,.26-.69,.61-1.04,.91-.33,.32-.7,.61-1.01,.96-.61,.7-1.28,1.36-1.81,2.14-.28,.38-.56,.75-.83,1.14-.24,.4-.49,.81-.73,1.22-1.88,3.18-2.83,6.79-3,10.32-.17,3.54,.51,7.03,1.87,10.11,1.35,3.08,3.34,5.76,5.68,7.85,2.34,2.1,5.02,3.62,7.74,4.55,2.73,.94,5.49,1.31,8.07,1.23,1.3,0,2.54-.22,3.73-.4,1.17-.3,2.32-.54,3.38-.95,4.25-1.55,7.26-4.08,9.19-6.28l-.03,.02c2.43-.45,4.3-.79,5.57-1.03,.62-.12,1.09-.2,1.42-.27,.31-.06,.47-.09,.47-.09,0,0-.17,.02-.5,.08-.33,.06-.81,.14-1.44,.24-1.26,.22-3.12,.54-5.54,.95-.01,0-.03,0-.03,.02-1.94,2.17-4.94,4.67-9.16,6.19-1.04,.4-2.19,.63-3.35,.93-1.19,.18-2.42,.39-3.7,.39-2.56,.07-5.29-.3-7.99-1.24-2.69-.94-5.34-2.44-7.65-4.52-2.31-2.07-4.28-4.72-5.61-7.76-1.34-3.04-2.01-6.49-1.84-9.99,.17-3.49,1.11-7.06,2.97-10.2,.24-.4,.48-.8,.72-1.2,.26-.38,.55-.75,.82-1.13,.52-.77,1.19-1.42,1.79-2.11,.3-.34,.67-.63,.99-.95,.35-.3,.65-.64,1.03-.9,.74-.53,1.42-1.13,2.21-1.56,3.05-1.9,6.47-3.01,9.86-3.35,3.4-.3,6.73,.2,9.71,1.29,2.98,1.08,5.61,2.75,7.72,4.74,2.12,1.99,3.73,4.28,4.85,6.62,.28,.59,.57,1.15,.76,1.76,.21,.59,.44,1.17,.61,1.75,.34,1.16,.58,2.31,.72,3.43,.58,4.48-.28,8.26-1.28,10.91-.01,.03,0,.06,.03,.07,.02,0,.05,0,.07-.02h0s-.09-.01-.09-.01c1.06,1.8,1.88,3.2,2.44,4.15,.28,.47,.49,.83,.64,1.08,.15,.24,.23,.37,.23,.37Z"/>
      </g>
      <g>
        <path class="cls-10" d="M179.03,159.27c-4.17,0-7.57-3.4-7.57-7.57s3.4-7.57,7.57-7.57,7.57,3.4,7.57,7.57c0,2.29-1.02,4.43-2.79,5.87-1.34,1.1-3.04,1.7-4.78,1.7Zm0-13.14c-3.07,0-5.57,2.5-5.57,5.57s2.5,5.57,5.57,5.57c1.3,0,2.51-.43,3.51-1.25,1.31-1.06,2.05-2.64,2.05-4.32,0-3.07-2.5-5.57-5.57-5.57Z"/>
        <path class="cls-10" d="M188.01,161.7c-.25,0-.5-.09-.7-.28l-4.4-4.29c-.4-.38-.4-1.02-.02-1.41,.38-.4,1.02-.4,1.41-.02l4.4,4.29c.4,.38,.4,1.02,.02,1.41-.19,.2-.45,.3-.71,.3Z"/>
      </g>
    </g>
  </g>
  <g id="Character">
    <g>
      <g>
        <g>
          <path class="cls-10" d="M218.45,145.99c-2.25-1.37-3.65-3.98-3.55-6.57,.11-2.6,1.73-5.08,4.08-6.26l9-1.71c-.24,11.09-.4,22.18-.49,33.28-2.3-.42-4.64-1.12-6.37-2.67-1.73-1.55-2.65-4.15-1.65-6.23-1.79-.87-3.07-2.68-3.28-4.64-.21-1.95,.67-3.98,2.25-5.19Z"/>
          <g>
            <g>
              <path class="cls-4" d="M260.47,146.1l-1.26-5.04-21.65-4.74c-7.17-.97-15.18,5.89-15.86,12.97-.75,7.87-1.36,17.52-.6,23.43,1.54,11.9,10.72,13.68,10.72,13.68l-.74,11.69c-.29,6.83,5.51,8.51,12.45,8.81h0c6.79,.29,11.7-5.08,12.22-11.74l4.73-49.07Z"/>
              <g>
                <path class="cls-10" d="M224.57,159.01c-.05,.8,.59,1.51,1.44,1.58,.85,.07,1.58-.52,1.63-1.32,.05-.8-.59-1.51-1.44-1.58-.85-.07-1.58,.52-1.64,1.32Z"/>
                <path class="cls-10" d="M224.08,154.4c.18,.2,1.38-.61,3.04-.56,1.66,.03,2.85,.91,3.04,.71,.09-.09-.09-.45-.61-.85-.51-.4-1.39-.79-2.43-.82-1.04-.03-1.92,.32-2.43,.69-.52,.37-.71,.72-.62,.82Z"/>
              </g>
              <g>
                <path class="cls-10" d="M240.05,159.56c-.05,.8,.59,1.51,1.44,1.58,.85,.07,1.58-.52,1.63-1.32,.05-.8-.59-1.51-1.44-1.58-.85-.07-1.58,.52-1.64,1.32Z"/>
                <path class="cls-10" d="M240.4,155.2c.19,.2,1.38-.61,3.04-.56,1.66,.03,2.85,.91,3.04,.71,.09-.09-.09-.45-.61-.85-.51-.4-1.39-.79-2.43-.82-1.04-.03-1.92,.32-2.43,.69-.52,.37-.71,.72-.62,.81Z"/>
              </g>
              <path class="cls-10" d="M233.99,167.13c.01-.09-1.02-.3-2.68-.56-.42-.06-.82-.15-.88-.44-.09-.3,.1-.75,.32-1.23,.43-1,.88-2.04,1.35-3.14,1.88-4.47,3.26-8.15,3.08-8.22-.18-.07-1.86,3.49-3.74,7.96-.45,1.1-.89,2.15-1.3,3.16-.18,.47-.47,1-.27,1.63,.1,.32,.41,.55,.68,.63,.27,.09,.51,.1,.72,.12,1.68,.14,2.72,.18,2.73,.09Z"/>
              <path class="cls-6" d="M231.82,186.44s8.49,.75,16.67-3.75c0,0-4.45,8.34-16.87,6.88l.2-3.13Z"/>
              <path class="cls-6" d="M234.57,171.09c.62-.76,1.68-1.15,2.72-1.01,.72,.1,1.44,.46,1.86,1.05,.42,.59,.49,1.41,.07,1.95-.47,.61-1.41,.72-2.2,.48-.79-.25-1.45-.78-2.08-1.31-.18-.15-.35-.3-.46-.5-.11-.2-.12-.45,.02-.61"/>
              <path class="cls-10" d="M238.84,168.41c-.27-.02-.33,1.75-1.91,2.96-1.58,1.22-3.5,.96-3.52,1.21-.03,.11,.42,.36,1.23,.4,.79,.05,1.96-.16,2.93-.91,.97-.74,1.4-1.76,1.49-2.49,.09-.74-.1-1.18-.22-1.18Z"/>
            </g>
            <path class="cls-10" d="M240.44,149.6c.19,.43,1.54,.06,3.18,.11,1.64,0,3.01,.42,3.18,0,.07-.2-.2-.59-.77-.96-.57-.37-1.45-.68-2.44-.7-.99-.01-1.85,.27-2.41,.62-.56,.35-.82,.73-.74,.93Z"/>
            <path class="cls-10" d="M224.31,148.8c.28,.38,1.44,.03,2.81,.05,1.38-.02,2.53,.33,2.81-.05,.12-.18-.05-.56-.55-.93-.49-.37-1.32-.68-2.27-.68-.95,0-1.78,.31-2.27,.68-.5,.37-.67,.74-.55,.93Z"/>
          </g>
          <path class="cls-10" d="M216.45,138.48c-2.43-1.73-3.51-5.03-2.74-7.88,.77-2.85,3.25-5.15,6.14-5.91,.59-.16,1.19-.24,1.8-.27,1.18-.63,2.52-.98,3.87-.96,.24-1.56,1.7-2.73,3.26-3.09s3.2-.07,4.75,.33c1.64-1.88,4.21-2.93,6.73-2.75s4.9,1.6,6.23,3.71c1.79-.97,4.05-1.06,5.91-.23,1.86,.83,3.29,2.56,3.72,4.52,1.78,.1,3.51,.96,4.64,2.32,.43,.51,.77,1.09,1.01,1.7,.54,.73,.92,1.55,1.1,2.44,2.98,.41,5.58,2.79,6.22,5.69,.64,2.9-.73,6.12-3.28,7.71,1.45,1.5,2.13,3.68,1.78,5.72s-1.73,3.88-3.6,4.83c.65,2.21,.33,4.69-.88,6.66-.52,.85-1.3,1.65-2.24,1.92-.05,.16-.11,.31-.2,.45-.77,1.12-2.58,.57-3.62-.31-2.55-2.12-3.85-5.37-4.49-8.59-.64-3.22-.72-6.53-1.33-9.75-.01-.07-.03-.15-.04-.23-.26-1.35-.83-2.61-1.66-3.69-.99,.63-1.95,1.3-3.02,1.78-3.8,1.71-8.72,.6-11.37-2.58-2.61,2.02-5.96,3.11-9.28,3.02s-6.59-.81-9.08-2.98c-.47-.41-1.11-1.13-1.38-2.09-.17-.59,.43-1.31,1.04-1.47Z"/>
          <path class="cls-4" d="M258.12,160.61c.16-.08,6.54-2.04,6.64,4.46,.1,6.5-6.55,5.26-6.57,5.07-.01-.19-.07-9.53-.07-9.53Z"/>
          <path class="cls-6" d="M260.17,167.65s.12,.08,.31,.16c.19,.08,.52,.14,.86,0,.69-.26,1.27-1.36,1.28-2.53,0-.59-.13-1.15-.35-1.62-.21-.47-.53-.8-.88-.86-.35-.07-.6,.14-.67,.32-.09,.18-.04,.31-.08,.32-.02,.02-.14-.11-.1-.38,.02-.13,.1-.28,.25-.41,.16-.13,.39-.2,.63-.18,.51,.03,.98,.48,1.22,.99,.27,.51,.44,1.14,.43,1.8-.02,1.31-.68,2.55-1.64,2.83-.46,.13-.85,0-1.06-.16-.21-.16-.24-.3-.22-.31Z"/>
        </g>
        <g>
          <path class="cls-9" d="M232.38,158.57c-.06,0-.03-.6-.31-1.63-.27-1-.96-2.47-2.47-3.6-1.46-1.13-3.87-1.76-6.2-.9-1.15,.41-2.24,1.2-3.02,2.28-.8,1.07-1.25,2.43-1.26,3.84,.01,1.41,.46,2.78,1.26,3.85,.78,1.08,1.87,1.86,3.02,2.28,2.33,.87,4.74,.24,6.2-.9,1.51-1.13,2.2-2.6,2.47-3.6,.28-1.02,.25-1.63,.31-1.62,.02,0,.03,.15,.03,.43,0,.29-.03,.71-.14,1.24-.22,1.05-.88,2.61-2.45,3.84-.78,.6-1.77,1.12-2.91,1.33-1.14,.21-2.43,.18-3.67-.28-1.24-.43-2.42-1.27-3.26-2.43-.87-1.15-1.36-2.62-1.37-4.15,.01-1.52,.5-3,1.37-4.15,.84-1.16,2.03-1.99,3.26-2.43,1.24-.46,2.53-.49,3.67-.28,1.15,.21,2.14,.73,2.91,1.33,1.57,1.23,2.22,2.8,2.45,3.84,.12,.53,.15,.96,.14,1.24,0,.29-.01,.44-.03,.44Z"/>
          <path class="cls-9" d="M248.86,158.57c-.06,0-.03-.6-.31-1.63-.27-1-.96-2.47-2.47-3.6-1.46-1.13-3.87-1.76-6.2-.9-1.15,.41-2.24,1.2-3.02,2.28-.8,1.07-1.25,2.43-1.26,3.84,.01,1.41,.46,2.78,1.26,3.85,.78,1.08,1.87,1.86,3.02,2.28,2.33,.87,4.74,.24,6.2-.9,1.51-1.13,2.2-2.6,2.47-3.6,.28-1.02,.25-1.63,.31-1.62,.02,0,.03,.15,.03,.43,0,.29-.03,.71-.14,1.24-.22,1.05-.88,2.61-2.45,3.84-.78,.6-1.77,1.12-2.91,1.33-1.14,.21-2.43,.18-3.67-.28-1.24-.43-2.42-1.27-3.26-2.43-.87-1.15-1.36-2.62-1.37-4.15,.01-1.52,.51-3,1.37-4.15,.84-1.16,2.03-1.99,3.26-2.43,1.24-.46,2.53-.49,3.67-.28,1.15,.21,2.14,.73,2.91,1.33,1.57,1.23,2.22,2.8,2.45,3.84,.12,.53,.15,.96,.14,1.24,0,.29-.01,.44-.03,.44Z"/>
          <path class="cls-9" d="M235.46,157.06c-.09,.12-.78-.28-1.71-.23-.93,.02-1.59,.47-1.68,.36-.12-.08,.53-.84,1.66-.88,1.14-.05,1.84,.65,1.73,.75Z"/>
          <path class="cls-9" d="M258.23,160.5c-.04,.14-2.22-.36-4.87-1.11-2.65-.75-4.77-1.47-4.73-1.61s2.22,.36,4.87,1.11c2.65,.75,4.77,1.47,4.73,1.61Z"/>
        </g>
      </g>
      <g>
        <path class="cls-11" d="M277.59,209.76c0-.15-7.11-14.12-7.11-14.12,6.96,.73,13.18,3.19,17.23,8.49,1.88,2.46,3.28,5.35,4.34,7.97,2.82,6.98,7.85,23.21,7.85,23.21l-20.24,10.55-2.07-36.11Z"/>
        <g>
          <path class="cls-11" d="M212.06,197.96l19.38-6.49h0c2.6,4.65,5.86,8.46,11.69,8.42,6.18-.05,10.28-3.5,13.29-8.42l2.87,.72,18.12,4.84,2.29,34-3.04,30.97,8.54,30.29c-25.05,2.92-55.03,7.62-80.28,4.45l10.8-31.02-4.29-32.88-2.68-33.81,3.3-1.07Z"/>
          <path class="cls-11" d="M210.33,198.52h0c-2.99,.97-5.7,2.69-7.8,5.04-2.66,2.97-6.43,8-10.81,16.17-7.18,13.39-8.93,17.69-8.93,17.69l21.77,12.14,8.05-17.28-2.28-33.76Z"/>
        </g>
        <path class="cls-10" d="M276.7,225.39s.21,.37,.5,1.06c.3,.69,.67,1.73,1.05,3.03,.77,2.59,1.48,6.31,1.49,10.46,0,4.15-.69,7.87-1.45,10.46-.38,1.3-.74,2.34-1.04,3.03-.29,.7-.47,1.08-.5,1.06-.09-.03,.52-1.59,1.19-4.19,.67-2.6,1.29-6.27,1.29-10.37-.01-4.09-.65-7.77-1.33-10.36-.67-2.6-1.29-4.15-1.2-4.18Z"/>
        <path class="cls-10" d="M277.54,228.65c-.13-.05,.66-2.17,2.11-4.54,1.44-2.37,2.97-4.04,3.07-3.95,.12,.1-1.21,1.88-2.63,4.22-1.43,2.33-2.41,4.33-2.55,4.27Z"/>
        <path class="cls-10" d="M211.8,234.85c-.07,.03-.45-.79-1.03-2.11-.66-1.51-1.43-3.25-2.28-5.18-.87-1.92-1.65-3.66-2.33-5.15-.6-1.32-.95-2.15-.88-2.18,.06-.03,.53,.74,1.21,2.02,.68,1.28,1.57,3.08,2.47,5.1,.9,2.02,1.65,3.89,2.14,5.25,.5,1.36,.76,2.23,.69,2.25Z"/>
      </g>
      <g>
        <rect class="cls-9" x="286.26" y="356.82" width="5.88" height="102.22"/>
        <path class="cls-9" d="M293.03,357.58h-90.98c-3.75,0-6.8-3.04-6.8-6.8h0c0-3.75,3.04-6.8,6.8-6.8h90.98c3.75,0,6.8,3.04,6.8,6.8h0c0,3.75-3.04,6.8-6.8,6.8Z"/>
        <g>
          <g>
            <path class="cls-10" d="M292.07,355.88l14.56,28.15,17.94,18.95c1.29,1.37,1.16,3.54-.29,4.74h0c-.81,.67-1.89,.91-2.9,.63-6.47-1.75-29.94-8.75-30.85-10.18-1.44-2.27-17.66-28.93-17.66-28.93l19.21-13.36Z"/>
            <path class="cls-9" d="M324.27,407.72l-35.12-11.68,.64,1.18c.76,1.14,1.45,1.81,2.54,2.23,2.9,1.11,10.98,4,28.95,8.95,1.05,.29,2.17,.03,2.99-.68h0Z"/>
            <path class="cls-3" d="M311.28,399.04c.2,0,.03-1.81,1.26-3.5,1.17-1.72,2.93-2.17,2.87-2.36-.01-.08-.48-.11-1.18,.16-.7,.26-1.59,.86-2.25,1.8-.66,.94-.93,1.98-.94,2.73-.01,.75,.17,1.18,.25,1.17Z"/>
            <path class="cls-3" d="M315.29,401.68c.2,.05,.6-1.34,1.81-2.54,1.19-1.23,2.58-1.64,2.52-1.83,0-.19-1.66-.04-3.02,1.35-1.38,1.37-1.5,3.04-1.32,3.03Z"/>
            <path class="cls-3" d="M304.98,396.28c.2,.06,.8-2.08,2.53-4.11,1.69-2.06,3.7-3.03,3.6-3.22-.04-.17-2.31,.57-4.13,2.77-1.84,2.18-2.17,4.55-1.99,4.56Z"/>
            <path class="cls-3" d="M299.84,388.09c.17,.13,1.35-1.36,3.31-2.52,1.94-1.19,3.81-1.55,3.77-1.76,0-.18-2.04-.12-4.13,1.16-2.1,1.26-3.11,3.04-2.95,3.12Z"/>
          </g>
          <path class="cls-10" d="M243.53,327.79s-4.31,14.75-3.42,30.18,2.11,86.93,1.65,88.11c-.46,1.19,22.97,4.75,22.97,4.75,0,0,5.93-35.9,7.12-45.1,1.19-9.2,3.86-11.27,3.56-36.2s6.24-19.71,10.98-27.95c4.74-8.24,6.52-15.96,3.85-30.2s-8.45-18.69-8.45-18.69l-31.01,2.37-9.24,28.05,1.99,4.67Z"/>
          <g>
            <path class="cls-10" d="M208.67,294.55s29.53-14.53,37.97-14.53,14.53,3.28,20.63,14.53c6.09,11.25,33.28,76.88,33.28,76.88l-20.63,12.19s-26.25-38.91-31.88-48.29l-5.62-9.38s.94,13.13-5.16,17.81c-6.09,4.69-22.03-.47-28.6-7.5s-12.19-13.6-9.85-25.32c2.34-11.72,9.85-16.41,9.85-16.41Z"/>
            <path class="cls-9" d="M208.67,294.55s-.13,.09-.37,.28c-.24,.19-.61,.47-1.06,.88-.9,.81-2.2,2.08-3.54,3.99-1.34,1.91-2.79,4.43-3.81,7.66-.99,3.2-1.81,7.09-1.31,11.39,.27,2.14,.9,4.35,1.93,6.49,1.03,2.15,2.46,4.2,4.1,6.21,.81,1.01,1.7,2,2.61,3,.92,.99,1.82,2.04,2.87,2.95,2.09,1.84,4.58,3.37,7.27,4.64,2.7,1.26,5.63,2.28,8.73,2.87,1.55,.3,3.15,.47,4.76,.45,1.61-.02,3.26-.23,4.76-.88,.74-.33,1.46-.74,2.04-1.34,.31-.27,.62-.55,.86-.89,.25-.33,.55-.63,.74-1.01,.93-1.4,1.54-3.03,1.98-4.7,.88-3.36,1.14-6.96,.98-10.57l-.04-.88,.46,.75c2.7,4.45,5.39,9.1,8.35,13.72,2.96,4.63,6.07,9.34,9.25,14.14,6.36,9.6,13.03,19.56,19.91,29.77l-.33-.07c1.07-.63,2.23-1.32,3.4-2.01,5.9-3.49,11.72-6.93,17.23-10.18l-.1,.3c-8.19-19.71-15.99-38.27-23.23-54.96-1.82-4.17-3.59-8.23-5.36-12.14-1.77-3.91-3.48-7.71-5.44-11.2-1-1.73-2.06-3.39-3.26-4.9-1.18-1.51-2.46-2.92-3.9-4.07-1.43-1.16-3-2.09-4.64-2.73-1.64-.65-3.34-1.02-5.01-1.2-.42-.04-.84-.07-1.25-.11-.42-.01-.83-.02-1.24-.04-.41-.03-.81,.04-1.22,.07-.4,.05-.8,.04-1.2,.14-.78,.17-1.57,.29-2.32,.5-.76,.21-1.5,.41-2.23,.62-2.91,.91-5.61,1.88-8.11,2.86-5,1.95-9.22,3.8-12.66,5.32-3.43,1.53-6.07,2.76-7.86,3.59-.88,.41-1.56,.73-2.03,.95-.45,.21-.69,.32-.69,.32,0,0,.22-.13,.68-.36,.46-.23,1.13-.56,2.01-.99,1.77-.86,4.4-2.11,7.83-3.67,3.43-1.55,7.64-3.43,12.64-5.4,2.5-.99,5.2-1.98,8.12-2.9,.74-.21,1.49-.42,2.24-.63,.76-.21,1.55-.34,2.34-.51,.39-.1,.81-.09,1.22-.14,.41-.03,.83-.11,1.24-.07,.42,.01,.84,.02,1.26,.03,.42,.03,.84,.07,1.27,.1,1.7,.18,3.43,.55,5.11,1.21,1.68,.65,3.28,1.6,4.74,2.77,1.47,1.17,2.77,2.59,3.97,4.12,1.21,1.52,2.29,3.2,3.3,4.94,1.99,3.51,3.7,7.32,5.48,11.22,1.78,3.91,3.56,7.97,5.38,12.13,7.26,16.68,15.08,35.24,23.28,54.95l.08,.2-.18,.11c-5.51,3.25-11.33,6.69-17.23,10.18-1.16,.69-2.33,1.37-3.4,2.01l-.2,.12-.13-.19c-6.88-10.21-13.55-20.18-19.9-29.79-3.17-4.81-6.28-9.52-9.24-14.15-2.97-4.64-5.65-9.29-8.35-13.74l.41-.13c.16,3.67-.11,7.29-1.01,10.71-.46,1.7-1.08,3.37-2.04,4.82-.2,.39-.52,.7-.78,1.05-.25,.36-.57,.65-.9,.93-.6,.63-1.38,1.07-2.15,1.41-1.58,.67-3.28,.89-4.92,.9-1.65,.01-3.27-.17-4.84-.47-3.14-.61-6.09-1.64-8.81-2.92-2.72-1.29-5.23-2.84-7.35-4.71-1.06-.94-1.96-1.99-2.88-2.99-.91-1.01-1.79-2-2.61-3.02-1.64-2.03-3.08-4.11-4.12-6.29-1.04-2.17-1.67-4.42-1.93-6.58-.48-4.36,.36-8.27,1.38-11.49,1.04-3.24,2.53-5.77,3.89-7.68,1.37-1.91,2.7-3.16,3.61-3.96,.93-.79,1.48-1.1,1.48-1.1Z"/>
          </g>
          <path class="cls-9" d="M239.34,301.13c.09,.06-1.28,.93-2.04,3.21-.38,1.12-.55,2.54-.41,4.11,.13,1.57,.56,3.26,1.07,5.02,1.01,3.53,2.24,6.62,3.2,8.83,.46,1.02,.85,1.89,1.18,2.6,.28,.61,.43,.96,.4,.97-.03,.02-.23-.3-.57-.88-.34-.59-.8-1.45-1.32-2.54-1.05-2.18-2.34-5.28-3.36-8.84-.51-1.77-.94-3.5-1.05-5.12-.13-1.62,.09-3.11,.53-4.26,.43-1.16,1.04-1.98,1.53-2.46,.49-.48,.83-.67,.84-.64Z"/>
          <g>
            <path class="cls-10" d="M265.91,421.93l-1.4,31.51,6.08,25.24c.44,1.82-.76,3.63-2.6,3.94h0c-1.03,.17-2.08-.15-2.82-.89-4.71-4.72-21.49-22.4-21.57-24.09-.11-2.67-.89-33.72-.89-33.72l23.21-2Z"/>
            <path class="cls-9" d="M267.98,482.63l-24.5-27.49-.03,1.34c.09,1.36,.35,2.28,1.09,3.18,1.95,2.4,7.49,8.9,20.53,22.08,.76,.77,1.86,1.11,2.92,.9h0Z"/>
            <path class="cls-3" d="M261.07,468.69c.18,.09,.92-1.55,2.82-2.39,1.87-.9,3.6-.42,3.65-.62,.03-.08-.36-.33-1.1-.45-.73-.12-1.8-.04-2.84,.44-1.04,.48-1.79,1.25-2.16,1.89-.38,.64-.44,1.11-.36,1.13Z"/>
            <path class="cls-3" d="M263.22,472.97c.15,.14,1.18-.86,2.82-1.3,1.63-.47,3.03-.14,3.09-.33,.1-.16-1.41-.86-3.27-.34-1.87,.5-2.8,1.88-2.64,1.96Z"/>
            <path class="cls-3" d="M257,463.19c.14,.15,1.73-1.4,4.22-2.29,2.48-.93,4.69-.78,4.7-.99,.05-.17-2.28-.66-4.94,.34-2.67,.97-4.13,2.85-3.98,2.94Z"/>
            <path class="cls-3" d="M256.63,453.58c.08,.19,1.84-.5,4.11-.53,2.27-.06,4.05,.55,4.13,.36,.09-.15-1.7-1.11-4.14-1.05-2.44,.04-4.19,1.08-4.09,1.23Z"/>
          </g>
        </g>
        <rect class="cls-9" x="202.67" y="356.82" width="5.88" height="102.22"/>
      </g>
      <g>
        <path class="cls-6" d="M253.24,259.49c-.08-.19-.25-.33-.41-.47-.81-.68-1.63-1.35-2.44-2.03l-1.23,4.13c.59,.42,1.35,.6,2.07,.47s1.38-.54,1.79-1.13c.2-.29,.35-.66,.22-.98Z"/>
        <g>
          <path class="cls-9" d="M222.91,239.23l29.11,25.24,2.71,1.17,1.5,.7-.73-1.25-1.48-2.53-29.46-25.25c-.5-.43-1.24-.4-1.71,.07h0c-.51,.52-.48,1.36,.07,1.84Z"/>
          <path class="cls-4" d="M223.94,253.95l2.23,.32s11.31-4.62,12.94-4.89c1.26-.21,7.34,1,10.03,1.56,1.09,.23,1.91,1.17,1.9,2.28,0,.02,0,.03,0,.05-.02,.89-.59,1.68-1.41,2.05h0s2.27,.62,1.34,3.04c-.69,1.79-3.08,1.6-3.08,1.6l-3.96,.21s1.02,.27,2.56,.57c1.65,.33,2.1,.61,2.1,.61,0,0,2.47,2.22,.19,3.26-1.39,.64-2.4,.51-2.4,.51,0,0,.78,2.45-1.06,2.94s-14.09-.02-14.09-.02c0,0-.66-.34-2.51-.51l-3.46-.12-1.32-13.44Z"/>
          <path class="cls-6" d="M249.44,255.32c0,.06-1.41,.02-3.15-.08-1.74-.1-3.14-.23-3.14-.29s1.41-.02,3.15,.08c1.74,.1,3.14,.23,3.14,.29Z"/>
          <path class="cls-6" d="M237.45,266.99s-.18-.03-.38-.23c-.2-.19-.42-.55-.45-.98-.03-.44,.14-.82,.31-1.04,.17-.22,.33-.3,.35-.28,.02,.02-.1,.14-.22,.36-.13,.22-.25,.56-.22,.94,.03,.38,.2,.7,.35,.9,.15,.2,.29,.3,.27,.33Z"/>
          <path class="cls-6" d="M237.13,262.85s-.21,.02-.49-.16c-.27-.17-.61-.54-.68-1.05-.07-.52,.14-.96,.36-1.2,.22-.25,.42-.31,.43-.29,.02,.03-.14,.14-.31,.38-.17,.24-.33,.64-.27,1.08,.07,.44,.34,.78,.56,.96,.23,.19,.42,.25,.41,.28Z"/>
          <path class="cls-6" d="M236.89,258.02s-.21-.09-.43-.38c-.21-.29-.4-.79-.33-1.35,.08-.56,.4-.99,.68-1.21,.28-.23,.51-.28,.51-.25,.01,.03-.18,.13-.41,.36-.24,.23-.51,.63-.57,1.13-.07,.5,.08,.95,.25,1.24,.16,.29,.32,.44,.3,.46Z"/>
          <path class="cls-6" d="M238.13,251.77s-.11-.05-.19-.2c-.08-.16-.13-.41-.06-.67,.07-.26,.22-.47,.37-.57,.15-.1,.26-.11,.27-.09,.03,.05-.33,.25-.43,.71-.12,.45,.1,.79,.05,.83Z"/>
          <path class="cls-6" d="M244.23,260.07c0,.06-.76,.12-1.71,.13-.94,.02-1.71-.02-1.71-.08,0-.06,.76-.12,1.71-.13,.94-.01,1.71,.02,1.71,.08Z"/>
          <path class="cls-6" d="M246.26,265.11c0,.06-1.4-.14-3.11-.45-1.71-.3-3.09-.6-3.07-.65,0-.06,1.4,.14,3.11,.45,1.71,.3,3.08,.6,3.07,.65Z"/>
          <path class="cls-6" d="M228.71,267.51s.06,0,.16,0c.11,0,.27,.02,.49,.04,.43,.06,1.07,.11,1.88,.42h-.02c1.61,.04,3.99,.12,6.98,.16,1.5,.02,3.15,.04,4.92-.02,.44-.02,.9-.03,1.35-.08,.46-.03,.92-.09,1.29-.33,.38-.24,.58-.69,.63-1.15,.05-.47,0-.96-.14-1.43l-.05-.16h.17c.48,.05,1-.04,1.49-.18,.49-.15,1.01-.34,1.39-.67,.4-.33,.43-.91,.2-1.39-.21-.49-.58-.93-.97-1.31h.02c-.65-.29-1.45-.45-2.22-.61-.79-.18-1.59-.36-2.4-.54l-.9-.2,.93-.05c1.26-.07,2.6-.14,3.96-.21h.02c.62,.02,1.34-.07,1.93-.39,.8-.39,1.21-1.3,1.23-2.16,.04-.88-.68-1.59-1.46-1.83l-.34-.1,.32-.14c.76-.33,1.31-1.1,1.33-1.91,.04-.81-.43-1.59-1.12-1.97-.34-.21-.73-.27-1.14-.35-.4-.08-.8-.16-1.19-.24-.79-.15-1.57-.3-2.33-.45-1.53-.28-3.01-.54-4.42-.71-.35-.04-.71-.07-1.05-.09-.17,0-.34,0-.5,.01-.16,.04-.33,.07-.49,.12-.65,.19-1.28,.41-1.88,.63-4.85,1.77-8.53,3.28-10.59,4.08h-.01s-.01,0-.01,0c-.73-.11-1.29-.2-1.67-.26-.17-.03-.31-.05-.41-.07-.09-.02-.14-.03-.14-.03,0,0,.05,0,.14,0,.1,.01,.24,.03,.42,.05,.38,.05,.94,.12,1.68,.22h-.02c2.04-.84,5.71-2.38,10.55-4.19,.61-.22,1.24-.45,1.89-.64,.17-.05,.34-.09,.51-.13,.18-.02,.36-.03,.54-.02,.36,0,.71,.04,1.07,.08,1.43,.16,2.91,.42,4.44,.7,.76,.15,1.54,.3,2.34,.45,.4,.08,.79,.16,1.2,.24,.39,.08,.83,.15,1.21,.38,.77,.42,1.3,1.29,1.25,2.2-.02,.91-.64,1.76-1.48,2.14l-.02-.24c.45,.15,.86,.39,1.17,.75,.32,.35,.49,.85,.48,1.32,0,.48-.13,.94-.35,1.37-.22,.43-.59,.79-1.02,1.01-.66,.35-1.4,.45-2.08,.42h.02c-1.36,.07-2.7,.14-3.96,.21l.03-.25c.81,.18,1.6,.36,2.38,.54,.79,.18,1.56,.31,2.3,.66h0s0,.01,0,.01c.42,.41,.8,.86,1.03,1.4,.12,.27,.19,.57,.15,.87,0,.15-.08,.29-.13,.44-.09,.12-.16,.26-.28,.35-.45,.39-.98,.57-1.49,.72-.52,.14-1.04,.23-1.59,.19l.12-.15c.14,.51,.2,1.02,.14,1.53-.06,.5-.29,1.03-.73,1.3-.43,.28-.94,.33-1.4,.36-.46,.04-.92,.05-1.36,.07-1.78,.04-3.43,.01-4.93-.02-2.99-.07-5.38-.17-6.98-.24h-.02c-.77-.32-1.42-.39-1.84-.46-.2-.03-.36-.05-.48-.07-.11-.01-.16-.02-.16-.03Z"/>
        </g>
        <path class="cls-4" d="M227.17,267.35s-40,2.35-43.59,.5c-3.59-1.85-7.87-7.47-4.99-15.27,2.88-7.8,6.06-14.13,6.06-14.13l9.15,4.91,9.51,5.49-1.67,2.75,26.06,2.61-.52,13.14Z"/>
        <path class="cls-6" d="M201.64,251.6s-.74-.24-1.93-.58c-1.19-.35-2.87-.74-4.74-1.03-1.88-.28-3.59-.41-4.83-.46-1.24-.05-2.01-.02-2.01-.06,0-.02,.19-.04,.54-.07,.35-.03,.85-.05,1.48-.05,1.25,0,2.98,.1,4.87,.38,1.89,.29,3.57,.71,4.76,1.11,.6,.19,1.07,.38,1.39,.52,.32,.14,.49,.23,.49,.24Z"/>
      </g>
      <g>
        <g>
          <path class="cls-4" d="M295.15,227.89l4.46,17.84,10-9.69,10.46,5.84-16.71,21.02c-3.38,4.82-8.14,6.72-11.88,5.77-.71-.18-1.45-.47-2.17-.82-5-2.43-8.3-7.37-9-12.88l-2.93-23.14,17.79-3.94Z"/>
          <path class="cls-6" d="M289.65,258.12s.1-.24,.24-.69c.14-.45,.35-1.09,.64-1.87,.28-.78,.66-1.7,1.12-2.7,.47-.99,1.03-2.07,1.67-3.16,.65-1.09,1.34-2.09,1.99-2.98,.66-.88,1.29-1.65,1.85-2.27,.55-.62,1.01-1.12,1.34-1.45,.33-.33,.5-.52,.49-.54-.01-.01-.2,.16-.55,.48-.35,.31-.83,.79-1.39,1.41-.57,.61-1.21,1.38-1.89,2.25-.67,.88-1.36,1.89-2.02,2.98-.65,1.1-1.21,2.18-1.67,3.19-.45,1.01-.82,1.94-1.09,2.73-.27,.79-.47,1.44-.58,1.89-.12,.45-.18,.7-.16,.71Z"/>
        </g>
        <g>
          <g>
            <path class="cls-8" d="M298.71,211.66s-26.05,23.03-31.24,27.23c-2.48,2-7.55,4.52-7.55,4.52l7.13,1.49,31.66-33.24Z"/>
            <g>
              <polygon class="cls-8" points="301.46 208.58 340.31 209.98 340.87 214.12 300.29 251.01 265.43 248.72 262.61 245.49 301.46 208.58"/>
              <path class="cls-10" d="M341.18,214.12s-.26,.03-.74,.04c-.53,0-1.24,0-2.14,.01-1.91-.01-4.61-.03-7.95-.05-6.8-.09-16.21-.2-26.88-.34l.18-.07c-1.63,1.52-3.33,3.11-5.07,4.73-9.02,8.38-17.19,15.96-23.14,21.49-2.95,2.71-5.35,4.91-7.05,6.47-.81,.73-1.46,1.31-1.94,1.74-.2,.18-.37,.32-.51,.44-.12,.1-.18,.14-.19,.14,0,0,.05-.07,.15-.18,.13-.13,.29-.29,.48-.48,.46-.45,1.08-1.05,1.87-1.81,1.67-1.59,4.04-3.83,6.94-6.59,5.92-5.56,14.05-13.18,23.04-21.6,1.74-1.62,3.44-3.21,5.07-4.73l.08-.07h.1c10.67,.21,20.08,.38,26.88,.51,3.34,.09,6.04,.15,7.95,.2,.9,.03,1.61,.06,2.14,.08,.49,.02,.75,.04,.75,.06Z"/>
              <path class="cls-10" d="M340.34,210.97s-.26,.02-.75,.02c-.54,0-1.26-.02-2.17-.03-1.93-.05-4.67-.12-8.05-.21-6.88-.22-16.42-.53-27.24-.88l.19-.07c-1.71,1.64-3.49,3.36-5.31,5.12-9.11,8.7-17.55,16.37-23.74,21.84-3.09,2.73-5.62,4.92-7.37,6.42-.86,.72-1.53,1.29-2.03,1.71-.22,.18-.39,.32-.54,.43-.12,.1-.19,.14-.2,.13s.05-.07,.16-.18c.14-.13,.3-.28,.5-.47,.48-.44,1.14-1.03,1.97-1.79,1.75-1.58,4.22-3.8,7.26-6.54,6.12-5.54,14.52-13.24,23.62-21.94,1.82-1.75,3.61-3.46,5.32-5.11l.08-.08h.11c10.82,.42,20.35,.79,27.23,1.05,3.38,.15,6.11,.27,8.05,.36,.91,.05,1.63,.09,2.17,.12,.49,.03,.75,.06,.75,.07Z"/>
              <path class="cls-10" d="M264.11,246.85s.05-.07,.15-.18c.13-.13,.29-.29,.49-.48,.47-.44,1.1-1.04,1.9-1.8,1.7-1.58,4.11-3.82,7.06-6.56,6.03-5.53,14.3-13.12,23.43-21.51,1.89-1.72,3.74-3.41,5.51-5.03l.08-.07h.1c10.63,.34,19.99,.64,26.74,.86,3.32,.13,6,.23,7.9,.3,.89,.04,1.6,.08,2.12,.1,.48,.03,.74,.05,.74,.07,0,.02-.25,.02-.74,.03-.53,0-1.24,0-2.13-.02-1.9-.04-4.58-.09-7.9-.15-6.76-.17-16.12-.41-26.75-.68l.18-.07c-1.77,1.62-3.62,3.31-5.51,5.04-9.17,8.34-17.48,15.89-23.54,21.4-3,2.7-5.45,4.89-7.17,6.44-.83,.73-1.48,1.31-1.97,1.73-.21,.18-.38,.32-.52,.44-.12,.1-.18,.14-.19,.14Z"/>
            </g>
          </g>
          <g>
            <g>
              <path class="cls-4" d="M315.01,225.04c.05-1.04,1.06-1.78,2.1-1.61,.56,.09,1.3,.23,2.19,.43,2.32,.53,8.85,4.82,8.87,6.22,.02,2.06-1.1,2.71-1.1,2.71,0,0,1.13,1.97,.45,3.4-.59,1.22-2.68,1.41-2.68,1.41,0,0,1.29,1.95-.43,3.01-.6,.37-1.79,1.07-2.08,1.32,0,0-.31,.76-.56,1.03-.82,.89-1.99,1.38-3.2,1.34h-.4c-.76-.04-1.48-.35-2.03-.88-2.46-2.42-9.4-9.4-9.34-11.09,0,0-1.32-1.32-.6-2.45,.73-1.13,2.85-.33,2.85-.33,0,0-.96-.94-.3-2.13s4.53-.6,6.26-.15c1.38,.36,5.22,1.48,5.22,1.48,0,0-4.99-2.44-5.19-3.36-.02-.11-.03-.24-.02-.36Z"/>
              <path class="cls-6" d="M306.78,232.34s.17,.15,.49,.38c.32,.24,.79,.57,1.39,.96,1.19,.79,2.88,1.8,4.79,2.82,1.92,1.02,3.69,1.88,4.98,2.48,.65,.3,1.17,.53,1.54,.69,.37,.16,.57,.24,.58,.23,0-.01-.19-.12-.54-.29-.39-.19-.9-.44-1.51-.74-1.28-.63-3.03-1.5-4.95-2.52-1.91-1.02-3.61-2.01-4.81-2.77-.6-.38-1.09-.69-1.42-.9-.33-.22-.52-.33-.53-.32Z"/>
              <path class="cls-6" d="M308.8,229.48s.2,.08,.55,.19c.36,.12,.88,.28,1.51,.51,1.27,.45,2.99,1.17,4.87,2.02,.94,.43,1.84,.82,2.64,1.22,.8,.4,1.5,.79,2.08,1.13,.58,.34,1.04,.63,1.36,.84s.49,.32,.5,.31c0,0-.04-.04-.11-.1-.08-.06-.19-.15-.35-.26-.31-.22-.76-.53-1.33-.89-.58-.36-1.27-.76-2.07-1.17-.8-.41-1.7-.8-2.64-1.23-1.88-.86-3.61-1.56-4.9-1.97-.64-.21-1.17-.36-1.54-.45-.37-.09-.57-.14-.57-.12Z"/>
              <path class="cls-6" d="M320.22,228.76s.28,.24,.78,.55c.5,.32,1.21,.72,1.99,1.16s1.48,.86,1.97,1.18c.5,.31,.8,.51,.82,.49,.02-.02-.26-.26-.74-.6s-1.17-.79-1.95-1.23c-.78-.45-1.5-.83-2.02-1.11-.52-.28-.84-.46-.85-.43Z"/>
            </g>
            <path class="cls-6" d="M308.85,235.69s.1,.17,.31,.45c.21,.28,.53,.68,.94,1.16,.81,.96,2.03,2.22,3.32,3.64,.32,.35,.62,.72,.95,1.04,.32,.33,.65,.62,.97,.89,.65,.53,1.32,.91,1.92,1.14,.6,.23,1.11,.31,1.47,.32,.18,.01,.32,0,.41,0,.09,0,.14-.01,.14-.02,0-.02-.2-.01-.54-.05-.35-.03-.85-.13-1.42-.37-.58-.24-1.22-.62-1.86-1.15-.32-.26-.64-.56-.95-.88-.31-.32-.61-.68-.94-1.04-1.3-1.42-2.52-2.66-3.36-3.6-.42-.47-.76-.85-.99-1.12-.23-.27-.36-.41-.37-.4Z"/>
          </g>
        </g>
      </g>
    </g>
  </g>
  <g id="Table">
    <g>
      <g>
        <g>
          <path class="cls-8" d="M379.35,151.21h23.38l-1.75,12.86s-1.53,6.33-5.08,6.33h-10.13s-4.1-2.31-4.92-6.93l-1.49-12.26Z"/>
          <path class="cls-10" d="M379.35,151.21s.03,.15,.07,.41c.04,.29,.09,.67,.16,1.15,.14,1.02,.33,2.47,.58,4.28,.24,1.83,.53,4.04,.87,6.55,.48,2.47,2.22,5.02,4.83,6.64l-.09-.02c2.53,0,5.25,0,8.1-.02,.71,0,1.45,.01,2.15-.02,.69,0,1.34-.34,1.88-.8,1.09-.94,1.8-2.31,2.35-3.71,.21-.54,.39-1.1,.54-1.65v.02c.62-4.54,1.21-8.87,1.76-12.85l.18,.21c-6.82-.04-12.63-.07-16.77-.09-2.05-.02-3.68-.04-4.84-.05-.54,0-.98-.02-1.3-.02-.3,0-.46-.01-.46-.02s.14-.01,.42-.02c.32,0,.73-.01,1.26-.02,1.15-.01,2.77-.03,4.79-.05,4.18-.02,10.03-.06,16.9-.09h.21s-.03,.21-.03,.21c-.54,3.99-1.12,8.32-1.73,12.86h0s0,.02,0,.02c-.15,.58-.34,1.14-.55,1.7-.56,1.44-1.29,2.86-2.47,3.88-.58,.5-1.33,.88-2.12,.89-.75,.03-1.46,0-2.17,.01-2.85,0-5.57-.01-8.1-.02h-.05l-.04-.02c-2.71-1.71-4.46-4.33-4.95-6.91-.33-2.57-.57-4.82-.78-6.67-.2-1.81-.35-3.26-.46-4.28-.05-.47-.08-.84-.11-1.12-.02-.25-.03-.38-.02-.37Z"/>
        </g>
        <g>
          <path class="cls-8" d="M400.97,157.85c.11-.03,.23-.06,.34-.08,.03,0,.22-.04,.04-.01-.19,.03,.06,0,.1,0,.26-.02,.51,0,.76,.01-.25,0-.04,0,.09,.02,.13,.03,.27,.06,.4,.1,.11,.03,.22,.08,.33,.11,.15,.04-.05-.02-.07-.03,.07,.03,.14,.07,.21,.1,.23,.12,.44,.26,.65,.4,.13,.09-.04-.03-.05-.04,.04,.04,.09,.08,.13,.12,.1,.09,.2,.19,.29,.29,.07,.08,.22,.27,.08,.08,.08,.11,.16,.23,.23,.34,.06,.1,.11,.21,.17,.32,.08,.13-.01-.04-.02-.06,.03,.07,.06,.15,.08,.23,.04,.13,.08,.27,.11,.4,.01,.05,.07,.39,.05,.23-.02-.16,.01,.17,.01,.23,0,.14,0,.28,0,.42,0,.08-.01,.16-.02,.24,0,.03-.03,.22,0,.05,.03-.16-.04,.17-.05,.23-.03,.12-.06,.23-.09,.35-.03,.09-.16,.41-.05,.17-.11,.24-.23,.46-.38,.68-.03,.05-.07,.1-.1,.15,.02-.02,.14-.16,.03-.05-.11,.11-.21,.23-.33,.34-.04,.04-.29,.24-.17,.15,.12-.09-.15,.09-.2,.12-.1,.06-.2,.12-.31,.17-.05,.03-.11,.05-.16,.08,.17-.09,.09-.03-.04,.01-.26,.1-.53,.14-.79,.21-.16,.04,.06,0,.08,0-.08,0-.16,.02-.23,.02-.16,0-.31,.01-.47,0-.06,0-.12,0-.18,0-.03,0-.29-.03-.1,0,.18,.02-.02,0-.04,0-.08-.02-.15-.03-.23-.05-.15-.04-.3-.09-.45-.13-.02,0-.2-.08-.05-.02,.18,.08-.15-.08-.15-.08-.65-.34-1.56-.19-1.93,.51-.34,.64-.2,1.57,.51,1.93,2.74,1.4,6.32,.55,7.9-2.16,.78-1.33,.99-2.94,.66-4.44-.32-1.49-1.3-2.76-2.57-3.57-1.41-.9-3.2-1.16-4.8-.73-.71,.19-1.22,1.01-.98,1.73,.24,.72,.97,1.19,1.73,.98h0Z"/>
          <path class="cls-10" d="M400.97,157.85s-.15,.09-.48,.08c-.32,0-.84-.17-1.18-.72-.39-.51-.28-1.54,.53-2.03,.42-.23,.87-.28,1.37-.35,.49-.05,1.02-.05,1.56,.04,1.08,.16,2.25,.65,3.21,1.52,.96,.86,1.73,2.14,1.89,3.6,.18,1.44-.11,3.06-1.04,4.38-.91,1.33-2.45,2.25-4.13,2.47-.74,.1-1.48,.08-2.19-.07-.36-.07-.7-.18-1.04-.31l-.49-.22c-.17-.08-.34-.2-.47-.35-.52-.62-.48-1.53,0-2.12,.52-.6,1.39-.66,2.02-.33l-.27,.16s.03-.17,.17-.18c.11,0,.11,.03,.11,.02h0s0,0,0,0h.02s.04,.03,.04,.03l.07,.04,.04,.02h.03s.03,.04,.03,.04c.02-.11,.15,.29-.08,.33-.07,0-.07,0-.07,0h0s-.01,0-.01,0h-.03s-.08-.04-.08-.04h-.02s0-.01,0-.01h0s0,0,0,0c0,0,0,.01-.06-.05-.1-.41,.29-.29,.17-.31,.05,.01,.04,.01,.05,.01l.04,.02,.06,.02,.15,.04c.19,.06,.4,.12,.58,.15h.02s-.04-.03,.11,.05c0,.02,.06,.03,.05,.17-.05,.15-.15,.14-.16,.15-.05,0-.04,0-.04,0h-.01s-.04,0-.04,0h-.08s-.01-.01-.01-.01c0,0-.04,0-.05-.02,0,0,0,0-.04-.02,0,0-.11-.05-.05-.23,.09-.12,.13-.09,.15-.1h.03s.03,0,.03,0h.04s.08,.01,.08,.01c.09,0,.19,.01,.29,.01,.2,0,.39,0,.58-.02l.03,.36h-.07s-.04,.02-.04,.02h-.02s-.02,0-.02,0h-.02s-.05,0-.12-.05c-.07-.06-.07-.17-.05-.2,.04-.07,.03-.04,.04-.06,.1-.07,.07-.04,.08-.05h.01s.16-.05,.16-.05l.3-.08,.3-.08c.05-.01,.09-.03,.14-.05h.03s.03-.03-.03,.01c-.08-.08-.05,.35,.1,.3,.05,0,.05,0,.06,0h0s0,0,0,0h.01s0,0,0,0h-.01s-.07,.04-.07,.04l-.16-.31c.14-.07,.27-.14,.4-.21,.07-.03,.12-.07,.19-.12l.05-.03,.02-.02h.02s.01-.01,.01-.01c.03-.02,.07-.02,.11-.02,.01,0,.04,0,.1,.05,.08,.07,.03,.23,0,.23l-.03,.02-.06,.04h-.01s0,.01,0,.01c0,0-.04,.03-.11,.02-.07,0-.13-.07-.14-.1-.05-.1,.07-.23,.04-.19h.01s.03-.03,.03-.03c.13-.1,.22-.18,.32-.29l.15-.16,.04-.04,.02-.02s0,0,.04-.03h0s.02-.01,.02-.01c0-.02,.18-.03,.21,.11,0,.16-.01,.09,0,.11h0s-.02,.04-.02,.04h0s-.07,.09-.07,.09l-.26-.2c.19-.26,.32-.54,.47-.79l.29,.13-.02,.05-.02,.03s0,0-.02,.04l-.02,.02s0,.03-.12,.04c-.17-.04-.14-.18-.14-.17v-.02s0-.02,0-.02l.04-.11c.03-.07,.05-.12,.07-.2,.04-.14,.08-.26,.1-.4l.02-.1v-.03s0,0,0,0h0s0-.04,.06-.09c.04-.03,.11-.04,.15-.01,.04,.02,.05,.04,.06,.04,.04,.04,.03,.11,.03,.12h0s-.01,.06-.01,.06v.03s0,.01,0,.01h0s0,.01,0,.01v.02c.1,.12-.44,.06-.3-.03v-.02s0-.07,0-.07c0-.04,0-.05,.01-.09,.01-.13,.02-.27,.02-.4,0-.13,0-.25-.01-.38v-.11s-.01-.07,.06-.12c.08-.04,.13,0,.15,0,.02,.01,.03,.03,.05,.05,.03,.06,.02,.05,.02,.05v.02s0,.03,0,.03v.03s0,.02,0,.02c0,0,0-.01,0,.04,0,.02-.01,.04-.02,.06,0,0-.01,.03-.08,.06-.08,.03-.17-.05-.17-.07-.04-.13-.03-.15-.05-.22-.05-.23-.11-.47-.2-.69l.25-.09,.02,.05,.02,.03v.02s.01,.02,.01,.02h0s0,.01,0,.01v.02s.02,.1-.11,.14c-.1,0-.09-.03-.11-.03-.02-.01-.01-.01-.02-.02-.04-.06-.05-.08-.07-.12-.04-.07-.08-.15-.11-.21-.08-.14-.16-.26-.24-.38l.2-.14,.04,.05,.02,.03h0s0,0,0,0c0,0,.04,.05,0,.12-.13,.16-.22-.02-.2,.02v-.02s-.09-.09-.09-.09c-.04-.06-.1-.11-.15-.16-.1-.1-.2-.2-.3-.29l.15-.16,.05,.04,.04,.02h0s-.01-.01,.02,.03c-.25,.33-.1,.08-.15,.16h0s0,0,0,0h0s0,0,0,0h-.02s-.13-.1-.13-.1c-.09-.05-.17-.11-.25-.16-.16-.11-.32-.2-.47-.27l.08-.17,.08,.03h.02s.02,.02,.02,.02l.02,.02s.05,.12-.01,.14c-.04,.02-.04,.01-.05,.02h-.02s-.01,0-.01,0h-.05s-.17-.07-.17-.07c-.11-.04-.21-.07-.31-.1-.1-.02-.2-.06-.29-.07l-.14-.02h-.02s0,0,0,0h0c.07-.02-.12,.07,0-.15h.02s.03,0,.03,0h.07s0,.14,0,.14c-.25,0-.47-.02-.67-.03-.05,0-.09,0-.14,0h-.07s-.03,0-.03,0h-.02s0,0,0,0h0s-.04,.03-.04-.07c.04-.03,.02-.01,.02-.02h0s.01,0,.01,0h.12s.01-.02,.01-.02h0s.02-.04,.05,.05c-.03,.05-.03,.02-.04,.03h-.03s-.05,.01-.05,.01c-.24,.05-.37,.07-.38,.06,0-.01,.12-.06,.37-.13h.05s.02-.02,.02-.02c0,0,0-.01-.01,.03,0,.08,.05,.04,.03,.05h0s-.01,0-.01,0l-.11,.02h0s0,.01,0-.02c0-.02-.01-.02,0-.02,0-.04-.01-.02,0-.04,0-.01,0,0,0,0h.01s.03,0,.03,0h.07s.1-.02,.14-.02c.2,0,.43,0,.68,0v.14s-.07,0-.07,0h-.03s0,0,0,0h0s0-.01,0,0c.12-.22-.07-.12,0-.15h.02s.15,.01,.15,.01c.1,.02,.2,.04,.3,.07,.11,.02,.21,.05,.32,.09l.17,.05h.04c-.06,.26-.07,.16-.08,.17l-.1-.03,.08-.17c.17,.07,.33,.16,.5,.26,.09,.05,.17,.1,.27,.16l.14,.08h.02s0,.02,0,.02h0s-.05,.08-.05,.08c-.01,.02,.05-.07-.04,.04,0,.02,0,.01-.01,.04-.05,.06-.01,.02-.02,.03l-.03-.02-.08-.06,.15-.16c.1,.08,.21,.18,.32,.29,.05,.05,.11,.1,.17,.17l.08,.09h0s-.05,.06-.07,.05c-.01,0-.02,.02-.02,.03,0,.01,0-.02-.02,0-.02,0-.02,.03-.03,.04-.03,.01-.06,.03-.05,.03h0s-.01-.02-.01-.02l-.04-.05,.2-.14c.08,.13,.18,.25,.26,.39,.04,.07,.08,.14,.12,.21,0,.04,.07,.06,.03,.12-.03,.01-.05,.04-.07,.06-.02,0-.06,.02-.08,.03-.08,.04-.02,0-.04,.02h0s-.01-.04-.01-.04l-.03-.07,.25-.09c.09,.23,.16,.47,.22,.73l.02,.09v.05s.01,.02,.01,.02h0s.02,.02-.08,.03c-.01,0-.05-.02-.06,0-.01,.01,.01,.03,0,.02-.02-.01-.05-.02-.08-.01-.07,.03-.06,.02-.06,.02h0s0-.03,0-.03v-.02s0,0,0,0h0s.06,0,.08,0c.02,0,.05-.03,.05-.03-.02,.03,.05,.03,.06,0,.12,0,.07,0,.08,0h0s0,.01,0,.01v.02s0,.05,0,.05c.02,.13,.02,.27,.02,.41,0,.14,0,.28-.01,.41,0,.03,0,.09-.01,.11v.03s0,.01,0,.01h0s-.05-.01-.12,0c.03,0-.18-.03-.17-.03h0s0,0,0,0h0s0-.04,0-.04v-.05s0,0,0,0c0,0,0,0,0,0,.02,.01,.04,.02,.06,.02,.03,.01,.1-.02,.08,0,.23,.05,.13,.04,.15,.04v.02s-.02,.1-.02,.1c-.02,.14-.07,.29-.11,.43-.02,.07-.05,.15-.07,.22l-.03,.09c-.4-.16-.26-.12-.27-.14l.02-.05,.29,.13c-.16,.27-.29,.57-.49,.85l-.26-.2,.08-.09s-.02-.02,.06,.04c.04,.05,.07,.03,.09,.07,.01,.02,.02,.04,.04,.05,0,0,.06,.07,.05,.05h0s-.02,.02-.02,.02l-.04,.04-.15,.16c-.09,.1-.22,.22-.33,.31h-.02s.02,.03-.02,0c-.07-.06-.07-.11-.1-.1,.02-.02-.02-.04-.03-.05l-.05-.09h0l.04-.02h0s.05,.06,.03,.07c0,.02,0,.09,.04,.09,.03,.01,.04-.05,.03-.01,0,.04,.02,.08,.06,.1,.05,.06,.01,.02,.02,.03h0s-.02,.02-.02,.02l-.05,.03c-.06,.04-.13,.09-.2,.12-.14,.08-.28,.16-.42,.23l-.16-.31,.07-.04h.02s0-.01,0-.01h.02s.01-.01,.01-.01h0s0,0,.06,0c.14-.05,.18,.37,.1,.3-.07,.05-.04,.02-.05,.04l-.04,.02c-.05,.02-.11,.05-.16,.06l-.31,.09-.32,.09-.15,.04s.02,.08-.06-.16c-.01,.01-.02-.21-.03-.19h0s.04,0,.04,0l.1-.02,.03,.36c-.2,.02-.41,.03-.62,.03-.11,0-.21,0-.32,0h-.08s-.04-.01-.04-.01c0-.01-.02,.03,0-.03,0-.09,0-.18,.01-.18,.03-.05,.01-.11,.03-.16h0s.07,.01,.07,.01h.04s0,0,0,0c0,0,0-.02,0,.02,0,.04,0,.09-.02,.09,0,0-.03,.02-.03,.06,0,.03,.02,.02,.03,.02,.02-.03-.03,.05-.02,.08,0,.02,0,.04,0,.09h0s0,0,0,0h-.02c-.22-.04-.42-.09-.63-.16l-.16-.05-.09-.03h-.04s0-.02,0-.02h0l.03-.06s.03-.09,.03-.11c.14-.27,.07-.14,.09-.17h.02s.07,.04,.07,.04h0s0-.02-.03,.05c-.02,.04-.02,.12-.05,.14l-.09,.14s0,0,0,0l-.03-.02-.07-.03-.04-.02h-.02s0-.01,0-.01h0s0,.02,.11,.01c.05,0,.12-.05,.14-.09,.01-.02,.02-.04,.02-.05,.02-.01,.02-.03-.14-.04l-.13,.17c-.49-.26-1.19-.19-1.55,.25-.35,.43-.38,1.18,0,1.61,.17,.22,.5,.31,.81,.46,.32,.12,.64,.22,.97,.29,.67,.14,1.37,.16,2.05,.06,1.58-.21,3.01-1.07,3.86-2.3,.87-1.22,1.15-2.74,.99-4.11-.14-1.38-.84-2.58-1.75-3.4-.9-.84-2-1.32-3.03-1.49-1.02-.16-2.05-.09-2.77,.23-.34,.2-.57,.53-.65,.86-.09,.33,0,.65,.14,.9,.29,.51,.76,.69,1.05,.72,.31,.04,.47-.02,.47,0Z"/>
        </g>
      </g>
      <g>
        <g>
          <rect class="cls-1" x="343.45" y="213.66" width="28.47" height="11.22"/>
          <rect class="cls-9" x="342.26" y="211.73" width="89.4" height="2.35"/>
          <rect class="cls-9" x="342.67" y="224.37" width="88.99" height="2.35"/>
          <polygon class="cls-9" points="371.91 212.29 372.05 226.28 431.66 226.28 431.66 212.29 371.91 212.29"/>
          <g>
            <path class="cls-10" d="M386.4,219.27c0,1.92-1.44,3.48-3.22,3.48s-3.22-1.56-3.22-3.48,1.44-3.48,3.22-3.48c1.78,0,3.22,1.56,3.22,3.48Z"/>
            <path class="cls-8" d="M383.18,223.25c-2.05,0-3.72-1.79-3.72-3.98s1.67-3.98,3.72-3.98,3.72,1.79,3.72,3.98c0,2.19-1.67,3.98-3.72,3.98Zm0-6.96c-1.5,0-2.72,1.34-2.72,2.98s1.22,2.98,2.72,2.98,2.72-1.34,2.72-2.98c0-1.64-1.22-2.98-2.72-2.98Z"/>
          </g>
          <path class="cls-10" d="M369.77,222.12c0,.14-5.85,.26-13.06,.26s-13.06-.12-13.06-.26,5.85-.26,13.06-.26c7.21,0,13.06,.12,13.06,.26Z"/>
          <path class="cls-10" d="M369.77,220.17c0,.14-5.85,.26-13.06,.26s-13.06-.12-13.06-.26,5.85-.26,13.06-.26c7.21,0,13.06,.12,13.06,.26Z"/>
          <path class="cls-10" d="M369.77,218.22c0,.14-5.85,.26-13.06,.26s-13.06-.12-13.06-.26,5.85-.26,13.06-.26,13.06,.12,13.06,.26Z"/>
          <path class="cls-10" d="M369.77,216.26c0,.14-5.85,.26-13.06,.26s-13.06-.12-13.06-.26,5.85-.26,13.06-.26,13.06,.12,13.06,.26Z"/>
          <g>
            <rect class="cls-3" x="398.19" y="215.27" width="26.86" height="7.48"/>
            <path class="cls-8" d="M402.37,221.99c-.14,0-.26-1.34-.26-2.98s.12-2.98,.26-2.98,.26,1.34,.26,2.98c0,1.65-.12,2.98-.26,2.98Z"/>
            <path class="cls-8" d="M405.92,221.99c-.14,0-.26-1.34-.26-2.98s.12-2.98,.26-2.98,.26,1.34,.26,2.98c0,1.65-.12,2.98-.26,2.98Z"/>
            <path class="cls-8" d="M409.47,221.99c-.14,0-.26-1.34-.26-2.98s.12-2.98,.26-2.98,.26,1.34,.26,2.98c0,1.65-.12,2.98-.26,2.98Z"/>
            <path class="cls-8" d="M413.03,221.99c-.14,0-.26-1.34-.26-2.98s.12-2.98,.26-2.98,.26,1.34,.26,2.98c0,1.65-.12,2.98-.26,2.98Z"/>
            <path class="cls-8" d="M416.58,221.99c-.14,0-.26-1.34-.26-2.98s.12-2.98,.26-2.98,.26,1.34,.26,2.98c0,1.65-.12,2.98-.26,2.98Z"/>
            <path class="cls-8" d="M420.13,221.99c-.14,0-.26-1.34-.26-2.98s.12-2.98,.26-2.98,.26,1.34,.26,2.98-.12,2.98-.26,2.98Z"/>
          </g>
          <path class="cls-10" d="M372.32,226.69c-.14,0-.26-3.32-.26-7.43s.12-7.43,.26-7.43,.26,3.32,.26,7.43-.12,7.43-.26,7.43Z"/>
        </g>
        <g>
          <g>
            <polygon class="cls-2" points="426.29 245.22 426.29 241.54 349.34 241.7 344.9 241.7 344.9 245.27 349.34 245.27 349.34 267.3 432.45 267.3 432.45 245.22 426.29 245.22"/>
            <polygon class="cls-1" points="407.43 267.3 407.43 241.54 426.29 241.54 426.29 245.22 432.45 245.22 432.45 267.3 407.43 267.3"/>
            <path class="cls-8" d="M426.29,241.54c0,.14-18.07,.26-40.35,.26s-40.35-.12-40.35-.26,18.06-.26,40.35-.26,40.35,.12,40.35,.26Z"/>
            <path class="cls-8" d="M431.83,253.11c0,.14-18.4,.26-41.09,.26s-41.09-.12-41.09-.26,18.39-.26,41.09-.26,41.09,.12,41.09,.26Z"/>
            <path class="cls-8" d="M432.45,261c0,.14-18.54,.26-41.4,.26s-41.4-.12-41.4-.26,18.53-.26,41.4-.26c22.86,0,41.4,.12,41.4,.26Z"/>
          </g>
          <path class="cls-8" d="M345.59,245.22c0-.14,18.07-.26,40.35-.26s40.35,.12,40.35,.26-18.06,.26-40.35,.26c-22.28,0-40.35-.12-40.35-.26Z"/>
        </g>
        <g>
          <g>
            <polygon class="cls-2" points="428.63 174.4 428.63 170.75 352.22 170.91 347.81 170.91 347.81 174.46 352.22 174.46 352.22 196.33 434.74 196.33 434.74 174.4 428.63 174.4"/>
            <polygon class="cls-1" points="409.9 196.33 409.9 170.75 428.63 170.75 428.63 174.4 434.74 174.4 434.74 196.33 409.9 196.33"/>
            <path class="cls-8" d="M428.63,170.75c0,.14-17.94,.26-40.06,.26s-40.07-.12-40.07-.26,17.94-.26,40.07-.26,40.06,.12,40.06,.26Z"/>
            <path class="cls-8" d="M434.13,182.24c0,.14-18.27,.26-40.8,.26s-40.8-.12-40.8-.26,18.27-.26,40.8-.26c22.53,0,40.8,.12,40.8,.26Z"/>
            <path class="cls-8" d="M434.74,190.07c0,.14-18.41,.26-41.11,.26s-41.11-.12-41.11-.26,18.4-.26,41.11-.26,41.11,.12,41.11,.26Z"/>
          </g>
          <path class="cls-8" d="M348.5,174.4c0-.14,17.94-.26,40.06-.26s40.07,.12,40.07,.26-17.94,.26-40.07,.26-40.06-.12-40.06-.26Z"/>
        </g>
        <g>
          <rect class="cls-1" x="347.23" y="228.24" width="28.47" height="11.22"/>
          <rect class="cls-11" x="346.04" y="226.31" width="89.4" height="2.35"/>
          <rect class="cls-11" x="346.46" y="238.95" width="88.99" height="2.35"/>
          <polygon class="cls-11" points="375.69 226.87 375.83 240.85 435.44 240.85 435.44 226.87 375.69 226.87"/>
          <g>
            <path class="cls-10" d="M390.18,233.85c0,1.92-1.44,3.48-3.22,3.48s-3.22-1.56-3.22-3.48,1.44-3.48,3.22-3.48,3.22,1.56,3.22,3.48Z"/>
            <path class="cls-8" d="M386.96,237.83c-2.05,0-3.72-1.79-3.72-3.98s1.67-3.98,3.72-3.98,3.72,1.79,3.72,3.98c0,2.19-1.67,3.98-3.72,3.98Zm0-6.96c-1.5,0-2.72,1.34-2.72,2.98s1.22,2.98,2.72,2.98,2.72-1.34,2.72-2.98c0-1.64-1.22-2.98-2.72-2.98Z"/>
          </g>
          <path class="cls-10" d="M373.55,236.7c0,.14-5.85,.26-13.06,.26s-13.06-.12-13.06-.26,5.85-.26,13.06-.26c7.21,0,13.06,.12,13.06,.26Z"/>
          <path class="cls-10" d="M373.55,234.75c0,.14-5.85,.26-13.06,.26s-13.06-.12-13.06-.26,5.85-.26,13.06-.26,13.06,.12,13.06,.26Z"/>
          <path class="cls-10" d="M373.55,232.79c0,.14-5.85,.26-13.06,.26s-13.06-.12-13.06-.26,5.85-.26,13.06-.26c7.21,0,13.06,.12,13.06,.26Z"/>
          <path class="cls-10" d="M373.55,230.84c0,.14-5.85,.26-13.06,.26s-13.06-.12-13.06-.26,5.85-.26,13.06-.26,13.06,.12,13.06,.26Z"/>
          <g>
            <rect class="cls-3" x="401.97" y="229.84" width="26.86" height="7.48"/>
            <path class="cls-8" d="M406.15,236.57c-.14,0-.26-1.34-.26-2.98s.12-2.98,.26-2.98,.26,1.34,.26,2.98-.12,2.98-.26,2.98Z"/>
            <path class="cls-8" d="M409.7,236.57c-.14,0-.26-1.34-.26-2.98s.12-2.98,.26-2.98,.26,1.34,.26,2.98-.12,2.98-.26,2.98Z"/>
            <path class="cls-8" d="M413.26,236.57c-.14,0-.26-1.34-.26-2.98s.12-2.98,.26-2.98,.26,1.34,.26,2.98-.12,2.98-.26,2.98Z"/>
            <path class="cls-8" d="M416.81,236.57c-.14,0-.26-1.34-.26-2.98s.12-2.98,.26-2.98,.26,1.34,.26,2.98c0,1.65-.12,2.98-.26,2.98Z"/>
            <path class="cls-8" d="M420.36,236.57c-.14,0-.26-1.34-.26-2.98s.12-2.98,.26-2.98,.26,1.34,.26,2.98c0,1.65-.12,2.98-.26,2.98Z"/>
            <path class="cls-8" d="M423.91,236.57c-.14,0-.26-1.34-.26-2.98s.12-2.98,.26-2.98,.26,1.34,.26,2.98c0,1.65-.12,2.98-.26,2.98Z"/>
          </g>
          <path class="cls-10" d="M376.1,241.27c-.14,0-.26-3.32-.26-7.43s.12-7.43,.26-7.43,.26,3.32,.26,7.43c0,4.1-.12,7.43-.26,7.43Z"/>
        </g>
        <g>
          <rect class="cls-1" x="347.23" y="198.66" width="28.47" height="11.22"/>
          <rect class="cls-11" x="346.04" y="196.74" width="89.4" height="2.35"/>
          <rect class="cls-11" x="346.46" y="209.38" width="88.99" height="2.35"/>
          <polygon class="cls-11" points="375.69 197.3 375.83 211.28 435.44 211.28 435.44 197.3 375.69 197.3"/>
          <g>
            <path class="cls-10" d="M390.18,204.28c0,1.92-1.44,3.48-3.22,3.48s-3.22-1.56-3.22-3.48,1.44-3.48,3.22-3.48,3.22,1.56,3.22,3.48Z"/>
            <path class="cls-8" d="M386.96,208.26c-2.05,0-3.72-1.79-3.72-3.98s1.67-3.98,3.72-3.98,3.72,1.79,3.72,3.98c0,2.19-1.67,3.98-3.72,3.98Zm0-6.96c-1.5,0-2.72,1.34-2.72,2.98s1.22,2.98,2.72,2.98,2.72-1.34,2.72-2.98c0-1.64-1.22-2.98-2.72-2.98Z"/>
          </g>
          <path class="cls-10" d="M373.55,207.13c0,.14-5.85,.26-13.06,.26s-13.06-.12-13.06-.26,5.85-.26,13.06-.26c7.21,0,13.06,.12,13.06,.26Z"/>
          <path class="cls-10" d="M373.55,205.18c0,.14-5.85,.26-13.06,.26s-13.06-.12-13.06-.26,5.85-.26,13.06-.26,13.06,.12,13.06,.26Z"/>
          <path class="cls-10" d="M373.55,203.22c0,.14-5.85,.26-13.06,.26s-13.06-.12-13.06-.26,5.85-.26,13.06-.26c7.21,0,13.06,.12,13.06,.26Z"/>
          <path class="cls-10" d="M373.55,201.27c0,.14-5.85,.26-13.06,.26s-13.06-.12-13.06-.26,5.85-.26,13.06-.26c7.21,0,13.06,.12,13.06,.26Z"/>
          <g>
            <rect class="cls-3" x="401.97" y="200.27" width="26.86" height="7.48"/>
            <path class="cls-8" d="M406.15,206.99c-.14,0-.26-1.34-.26-2.98s.12-2.98,.26-2.98,.26,1.34,.26,2.98-.12,2.98-.26,2.98Z"/>
            <path class="cls-8" d="M409.7,206.99c-.14,0-.26-1.34-.26-2.98s.12-2.98,.26-2.98,.26,1.34,.26,2.98-.12,2.98-.26,2.98Z"/>
            <path class="cls-8" d="M413.26,206.99c-.14,0-.26-1.34-.26-2.98s.12-2.98,.26-2.98,.26,1.34,.26,2.98-.12,2.98-.26,2.98Z"/>
            <path class="cls-8" d="M416.81,206.99c-.14,0-.26-1.34-.26-2.98s.12-2.98,.26-2.98,.26,1.34,.26,2.98c0,1.65-.12,2.98-.26,2.98Z"/>
            <path class="cls-8" d="M420.36,206.99c-.14,0-.26-1.34-.26-2.98s.12-2.98,.26-2.98,.26,1.34,.26,2.98c0,1.65-.12,2.98-.26,2.98Z"/>
            <path class="cls-8" d="M423.91,206.99c-.14,0-.26-1.34-.26-2.98s.12-2.98,.26-2.98,.26,1.34,.26,2.98c0,1.65-.12,2.98-.26,2.98Z"/>
          </g>
          <path class="cls-10" d="M376.1,211.7c-.14,0-.26-3.32-.26-7.43s.12-7.43,.26-7.43,.26,3.32,.26,7.43c0,4.1-.12,7.43-.26,7.43Z"/>
        </g>
      </g>
      <g>
        <rect class="cls-9" x="97.32" y="278.56" width="10.99" height="179.55"/>
        <rect class="cls-9" x="382.57" y="278.56" width="10.98" height="180.39"/>
        <rect class="cls-9" x="57.55" y="268.18" width="381.56" height="11.84"/>
      </g>
      <g>
        <g>
          <path class="cls-8" d="M98.73,211.5h60.9c2.02,0,3.95,1.05,4.25,3.22l8.11,49.74h32.04c1.03,0,1.87,.91,1.87,2.03s-.84,2.03-1.87,2.03H101.69l-6.99-51.92c-.38-2.68,1.54-5.09,4.04-5.09Z"/>
          <path class="cls-10" d="M98.73,211.5s-.37-.02-1.05,.17c-.66,.19-1.67,.7-2.36,1.89-.34,.59-.61,1.32-.63,2.16-.02,.42,.04,.85,.1,1.31,.06,.46,.13,.93,.2,1.43,.27,1.98,.58,4.26,.93,6.83,1.39,10.27,3.4,25.06,5.86,43.2l-.1-.09c26.74,0,61.32-.02,98.95-.03h3.38c.21,0,.42-.04,.61-.12,.39-.15,.71-.46,.9-.83,.4-.74,.27-1.74-.32-2.33-.29-.3-.69-.49-1.1-.5h-1.33c-3.55,0-7.07,0-10.55,0-6.95,0-13.72,0-20.25,0h-.11l-.02-.11c-2.71-16.69-5.25-32.26-7.52-46.23-.14-.87-.28-1.74-.42-2.6-.07-.43-.13-.87-.22-1.27-.1-.41-.27-.8-.51-1.14-.47-.69-1.21-1.16-2-1.4-.4-.12-.8-.2-1.21-.22-.41-.02-.83,0-1.25-.01-3.33,0-6.55,0-9.65,0-6.2,0-11.94-.01-17.15-.02-10.41-.02-18.71-.03-24.42-.04-2.85,0-5.04-.02-6.53-.02-.74,0-1.3,0-1.69-.01-.38,0-.57-.01-.57-.01,0,0,.19,0,.57-.01,.38,0,.95,0,1.69-.01,1.49,0,3.69-.01,6.53-.02,5.7,0,14-.02,24.42-.04,5.21,0,10.94,0,17.15-.02,3.1,0,6.32,0,9.65,0,.42,0,.83,0,1.26,.01,.43,.03,.85,.1,1.26,.23,.82,.25,1.6,.74,2.11,1.48,.25,.36,.44,.78,.54,1.21,.09,.44,.15,.86,.22,1.29,.14,.86,.28,1.73,.43,2.6,2.28,13.97,4.83,29.53,7.56,46.22l-.13-.11c6.53,0,13.3,0,20.25,0,3.47,0,6.99,0,10.55,0h1.34c.48,.02,.95,.24,1.28,.59,.68,.68,.82,1.8,.37,2.64-.22,.42-.59,.77-1.04,.95-.22,.09-.47,.14-.71,.14h-3.38c-37.63-.01-72.21-.02-98.95-.03h-.09v-.09c-2.44-18.14-4.42-32.94-5.79-43.21-.34-2.57-.64-4.85-.91-6.83-.07-.49-.13-.97-.19-1.43-.06-.46-.12-.9-.1-1.33,.03-.85,.3-1.6,.65-2.19,.71-1.2,1.74-1.71,2.41-1.89,.34-.09,.61-.13,.79-.13,.18-.01,.27-.01,.27-.01Z"/>
        </g>
        <path class="cls-3" d="M135.68,241.33c0,2.33-1.89,4.23-4.23,4.23s-4.23-1.89-4.23-4.23,1.89-4.23,4.23-4.23,4.23,1.89,4.23,4.23Z"/>
        <path class="cls-10" d="M168.89,268c-.1,.02-2.24-12.51-4.8-27.97-2.55-15.47-4.55-28.02-4.45-28.03,.1-.02,2.24,12.51,4.8,27.98,2.55,15.46,4.55,28.01,4.45,28.03Z"/>
      </g>
      <rect class="cls-8" x="254.62" y="265.12" width="54.02" height="3.06"/>
    </g>
  </g>
  <g id="Documents_1" data-name="Documents 1">
    <g>
      <g>
        <g>
          <rect class="cls-1" x="20.09" y="301.7" width="28.47" height="11.22"/>
          <rect class="cls-9" x="18.9" y="299.77" width="89.4" height="2.35"/>
          <rect class="cls-9" x="19.32" y="312.41" width="88.99" height="2.35"/>
          <polygon class="cls-9" points="48.56 300.33 48.69 314.32 108.31 314.32 108.31 300.33 48.56 300.33"/>
          <g>
            <ellipse class="cls-10" cx="59.82" cy="307.31" rx="3.22" ry="3.48"/>
            <path class="cls-8" d="M59.82,311.29c-2.05,0-3.72-1.79-3.72-3.98s1.67-3.98,3.72-3.98,3.72,1.79,3.72,3.98-1.67,3.98-3.72,3.98Zm0-6.96c-1.5,0-2.72,1.34-2.72,2.98s1.22,2.98,2.72,2.98,2.72-1.34,2.72-2.98-1.22-2.98-2.72-2.98Z"/>
          </g>
          <path class="cls-10" d="M46.42,310.17c0,.14-5.85,.26-13.06,.26s-13.06-.12-13.06-.26,5.85-.26,13.06-.26c7.21,0,13.06,.12,13.06,.26Z"/>
          <path class="cls-10" d="M46.42,308.21c0,.14-5.85,.26-13.06,.26s-13.06-.12-13.06-.26,5.85-.26,13.06-.26,13.06,.12,13.06,.26Z"/>
          <path class="cls-10" d="M46.42,306.26c0,.14-5.85,.26-13.06,.26s-13.06-.12-13.06-.26,5.85-.26,13.06-.26c7.21,0,13.06,.12,13.06,.26Z"/>
          <path class="cls-10" d="M46.42,304.3c0,.14-5.85,.26-13.06,.26s-13.06-.12-13.06-.26,5.85-.26,13.06-.26,13.06,.12,13.06,.26Z"/>
          <g>
            <rect class="cls-3" x="74.83" y="303.31" width="26.86" height="7.48"/>
            <path class="cls-8" d="M79.01,310.03c-.14,0-.26-1.33-.26-2.98s.12-2.98,.26-2.98,.26,1.33,.26,2.98-.12,2.98-.26,2.98Z"/>
            <path class="cls-8" d="M82.57,310.03c-.14,0-.26-1.33-.26-2.98s.12-2.98,.26-2.98,.26,1.33,.26,2.98c0,1.65-.12,2.98-.26,2.98Z"/>
            <path class="cls-8" d="M86.12,310.03c-.14,0-.26-1.33-.26-2.98s.12-2.98,.26-2.98,.26,1.33,.26,2.98c0,1.65-.12,2.98-.26,2.98Z"/>
            <path class="cls-8" d="M89.67,310.03c-.14,0-.26-1.33-.26-2.98s.12-2.98,.26-2.98,.26,1.33,.26,2.98c0,1.65-.12,2.98-.26,2.98Z"/>
            <path class="cls-8" d="M93.22,310.03c-.14,0-.26-1.33-.26-2.98s.12-2.98,.26-2.98,.26,1.33,.26,2.98-.12,2.98-.26,2.98Z"/>
            <path class="cls-8" d="M96.78,310.03c-.14,0-.26-1.33-.26-2.98s.12-2.98,.26-2.98,.26,1.33,.26,2.98c0,1.65-.12,2.98-.26,2.98Z"/>
          </g>
          <path class="cls-10" d="M48.96,314.73c-.14,0-.26-3.33-.26-7.42s.12-7.43,.26-7.43,.26,3.32,.26,7.43c0,4.1-.12,7.42-.26,7.42Z"/>
        </g>
        <g>
          <g>
            <polygon class="cls-2" points="106.13 318.73 106.13 315.06 20.92 315.22 15.99 315.22 15.99 318.79 20.92 318.79 20.92 340.81 112.95 340.81 112.95 318.73 106.13 318.73"/>
            <polygon class="cls-1" points="85.24 340.81 85.24 315.06 106.13 315.06 106.13 317.83 112.95 317.83 112.95 340.81 85.24 340.81"/>
            <path class="cls-8" d="M106.13,315.06c0,.14-20.01,.26-44.68,.26s-44.69-.12-44.69-.26,20-.26,44.69-.26c24.68,0,44.68,.12,44.68,.26Z"/>
            <path class="cls-8" d="M112.27,326.62c0,.14-20.37,.26-45.5,.26s-45.51-.12-45.51-.26,20.37-.26,45.51-.26c25.13,0,45.5,.12,45.5,.26Z"/>
            <path class="cls-8" d="M112.95,334.51c0,.14-20.53,.26-45.84,.26s-45.85-.12-45.85-.26,20.52-.26,45.85-.26,45.84,.12,45.84,.26Z"/>
          </g>
          <path class="cls-8" d="M16.76,318.73c0-.14,20.01-.26,44.68-.26s44.69,.12,44.69,.26-20,.26-44.69,.26-44.68-.12-44.68-.26Z"/>
        </g>
        <g>
          <g>
            <path class="cls-2" d="M23.29,399.58v32.9h-4.92v3.57h4.92v22.02H115.32v-20.04h-6.82v-4.36h6.82v-6.55h3.03v-2.98h-3.6v-24.57H23.29Z"/>
            <polygon class="cls-1" points="90.88 399.68 90.88 458.08 115.32 458.17 115.32 437.68 108.51 437.68 108.51 433.68 115.32 433.81 115.32 427.27 118.41 427.27 118.35 423.89 114.75 423.79 114.75 399.58 90.88 399.68"/>
          </g>
          <path class="cls-8" d="M114.64,432.33c0,.14-21.38,.26-47.75,.26s-47.75-.12-47.75-.26,21.38-.26,47.75-.26,47.75,.12,47.75,.26Z"/>
          <path class="cls-8" d="M108.51,436.01c0,.14-20.01,.26-44.68,.26s-44.69-.12-44.69-.26,20-.26,44.69-.26,44.68,.12,44.68,.26Z"/>
          <path class="cls-8" d="M114.64,443.9c0,.14-20.37,.26-45.5,.26s-45.51-.12-45.51-.26,20.37-.26,45.51-.26c25.13,0,45.5,.12,45.5,.26Z"/>
          <path class="cls-8" d="M118.35,423.75c0,.14-21.21,.26-47.36,.26s-47.36-.12-47.36-.26,21.2-.26,47.36-.26c26.15,0,47.36,.12,47.36,.26Z"/>
          <path class="cls-8" d="M114.64,403.59c0,.14-20.37,.26-45.5,.26s-45.51-.12-45.51-.26,20.37-.26,45.51-.26c25.13,0,45.5,.12,45.5,.26Z"/>
          <path class="cls-8" d="M114.75,413.85c0,.14-20.32,.26-45.39,.26s-45.39-.12-45.39-.26,20.32-.26,45.39-.26c25.06,0,45.39,.12,45.39,.26Z"/>
          <path class="cls-8" d="M115.32,451.79c0,.14-20.53,.26-45.84,.26s-45.85-.12-45.85-.26,20.52-.26,45.85-.26c25.32,0,45.84,.12,45.84,.26Z"/>
          <rect class="cls-11" x="34.69" y="413.85" width="3.95" height="4.79"/>
          <rect class="cls-11" x="64.78" y="423.81" width="7.52" height="4.79"/>
        </g>
        <g>
          <g>
            <path class="cls-2" d="M19.8,340.8v32.9h-4.92v3.57h4.92v22.02H111.83v-20.04h-6.82v-4.36h6.82v-6.55h3.03v-2.98h-3.6v-24.57H19.8Z"/>
            <polygon class="cls-1" points="87.39 340.89 87.39 399.3 111.83 399.38 111.83 378.89 105.01 378.89 105.01 374.89 111.83 375.03 111.83 368.48 114.92 368.48 114.86 365.1 111.26 365 111.26 340.8 87.39 340.89"/>
          </g>
          <path class="cls-8" d="M111.15,373.54c0,.14-21.38,.26-47.75,.26s-47.75-.12-47.75-.26,21.38-.26,47.75-.26,47.75,.12,47.75,.26Z"/>
          <path class="cls-8" d="M105.01,377.22c0,.14-20.01,.26-44.68,.26s-44.69-.12-44.69-.26,20-.26,44.69-.26c24.67,0,44.68,.12,44.68,.26Z"/>
          <path class="cls-8" d="M111.15,385.11c0,.14-20.37,.26-45.5,.26s-45.51-.12-45.51-.26,20.37-.26,45.51-.26,45.5,.12,45.5,.26Z"/>
          <path class="cls-8" d="M114.86,364.96c0,.14-21.21,.26-47.36,.26s-47.36-.12-47.36-.26,21.2-.26,47.36-.26c26.15,0,47.36,.12,47.36,.26Z"/>
          <path class="cls-8" d="M111.15,344.81c0,.14-20.37,.26-45.5,.26s-45.51-.12-45.51-.26,20.37-.26,45.51-.26,45.5,.12,45.5,.26Z"/>
          <polygon class="cls-11" points="92.63 355.07 94.58 359.86 102.34 359.86 99.99 355.07 92.63 355.07"/>
          <path class="cls-8" d="M111.26,355.07c0,.14-20.32,.26-45.39,.26s-45.39-.12-45.39-.26,20.32-.26,45.39-.26,45.39,.12,45.39,.26Z"/>
          <path class="cls-8" d="M111.83,393c0,.14-20.53,.26-45.84,.26s-45.85-.12-45.85-.26,20.52-.26,45.85-.26c25.32,0,45.84,.12,45.84,.26Z"/>
          <rect class="cls-11" x="48.18" y="355.07" width="3.95" height="4.79"/>
        </g>
        <path class="cls-10" d="M114.75,399.48c0,.14-21.43,.26-47.85,.26s-47.86-.12-47.86-.26,21.42-.26,47.86-.26c26.43,0,47.85,.12,47.85,.26Z"/>
        <path class="cls-10" d="M111.43,340.8c0,.14-20.68,.26-46.19,.26s-46.19-.12-46.19-.26,20.68-.26,46.19-.26c25.51,0,46.19,.12,46.19,.26Z"/>
      </g>
      <g>
        <g>
          <path class="cls-7" d="M133.28,408.14l-1.35,24.84c-.05,.89-.78,1.58-1.66,1.59l-44.69,.33c-.93,0-1.68-.74-1.69-1.67l-.14-19.33c0-.93,.75-1.69,1.68-1.69l27.49-.02c.44,0,.87-.18,1.18-.49l4.74-4.74c.31-.31,.73-.49,1.17-.49l11.59-.08c.97,0,1.74,.8,1.69,1.77Z"/>
          <rect class="cls-2" x="83.82" y="409.09" width="48.84" height="29.18" transform="translate(-3.09 .8) rotate(-.42)"/>
          <path class="cls-11" d="M136.44,411.52l-3.51,30.46c-.06,.54-.52,.95-1.06,.95l-47.59,.35c-.56,0-1.03-.42-1.08-.99l-2.62-30.41c-.05-.63,.44-1.17,1.07-1.17l53.72-.39c.65,0,1.15,.56,1.08,1.2Z"/>
        </g>
        <g>
          <path class="cls-11" d="M146.43,403.46l-1.35,24.84c-.05,.89-.78,1.58-1.66,1.59l-44.69,.33c-.93,0-1.68-.74-1.69-1.67l-.14-19.33c0-.93,.75-1.69,1.68-1.69l27.49-.02c.44,0,.87-.18,1.18-.49l4.74-4.74c.31-.31,.73-.49,1.17-.49l11.59-.08c.97,0,1.74,.8,1.69,1.77Z"/>
          <g class="cls-12">
            <path d="M146.43,403.46l-1.35,24.84c-.05,.89-.78,1.58-1.66,1.59l-44.69,.33c-.93,0-1.68-.74-1.69-1.67l-.14-19.33c0-.93,.75-1.69,1.68-1.69l27.49-.02c.44,0,.87-.18,1.18-.49l4.74-4.74c.31-.31,.73-.49,1.17-.49l11.59-.08c.97,0,1.74,.8,1.69,1.77Z"/>
          </g>
          <rect class="cls-2" x="96.97" y="404.4" width="48.84" height="29.18" transform="translate(-3.06 .9) rotate(-.42)"/>
          <path class="cls-11" d="M149.59,406.83l-3.51,30.46c-.06,.54-.52,.95-1.06,.95l-47.59,.35c-.56,0-1.03-.42-1.08-.99l-2.62-30.41c-.05-.63,.44-1.17,1.07-1.17l53.71-.39c.65,0,1.15,.56,1.08,1.2Z"/>
          <g class="cls-12">
            <path d="M149.59,406.83l-3.51,30.46c-.06,.54-.52,.95-1.06,.95l-47.59,.35c-.56,0-1.03-.42-1.08-.99l-2.62-30.41c-.05-.63,.44-1.17,1.07-1.17l53.71-.39c.65,0,1.15,.56,1.08,1.2Z"/>
          </g>
        </g>
        <g>
          <path class="cls-11" d="M161.24,409.27l-1.35,24.84c-.05,.89-.78,1.58-1.66,1.59l-44.69,.33c-.93,0-1.68-.74-1.69-1.66l-.14-19.33c0-.93,.75-1.69,1.68-1.69l27.49-.02c.44,0,.87-.18,1.18-.49l4.74-4.74c.31-.31,.73-.49,1.17-.49l11.59-.08c.97,0,1.74,.8,1.69,1.77Z"/>
          <rect class="cls-2" x="111.79" y="410.22" width="48.84" height="29.18" transform="translate(-3.1 1.01) rotate(-.42)"/>
          <path class="cls-11" d="M164.41,412.65l-3.51,30.46c-.06,.54-.52,.95-1.06,.95l-47.59,.35c-.56,0-1.03-.42-1.08-.99l-2.62-30.41c-.05-.63,.44-1.17,1.07-1.17l53.72-.39c.65,0,1.15,.56,1.08,1.2Z"/>
        </g>
        <path class="cls-9" d="M108.55,416.79v42.25h60.95v-42.25h-60.95Zm19.9,7.6c0-1.72,1.4-3.12,3.12-3.12h14.92c1.72,0,3.12,1.4,3.12,3.12s-1.4,3.12-3.12,3.12h-14.92c-1.72,0-3.12-1.4-3.12-3.12Z"/>
        <path class="cls-10" d="M75.69,416.79v42.25h32.86v-42.25h-32.86Z"/>
      </g>
    </g>
  </g>
</svg>