<?xml version="1.0" encoding="UTF-8"?>
<svg id="Layer_1" data-name="Layer 1" xmlns="http://www.w3.org/2000/svg" viewBox="0 0 500 500">
  <defs>
    <style>
      .cls-1 {
        fill: #ebebeb;
      }

      .cls-2 {
        fill: #f5f5f5;
      }

      .cls-3 {
        fill: #fff;
      }

      .cls-4 {
        fill: #ffbf9d;
      }

      .cls-5 {
        fill: #fafafa;
      }

      .cls-6 {
        fill: #ff9a6c;
      }

      .cls-7 {
        fill: #e0e0e0;
      }

      .cls-8 {
        fill: #6f4439;
      }

      .cls-9 {
        fill: #455a64;
      }

      .cls-10 {
        fill: #263238;
      }

      .cls-11 {
        fill: #5cbb61;
      }

      .cls-12 {
        opacity: .3;
      }

      .cls-13 {
        opacity: .6;
      }
    </style>
  </defs>
  <g id="Book">
    <g>
      <g>
        <path class="cls-5" d="M111.24,88.98H61.67c-2.4,0-4.31-2.01-4.2-4.4l1.01-21c.11-2.24,1.95-4,4.2-4h49.57c2.4,0,4.31,2.01,4.2,4.4l-1.01,21c-.11,2.24-1.95,4-4.2,4Z"/>
        <path class="cls-10" d="M111.24,88.98s.61,.04,1.63-.39c.5-.23,1.09-.6,1.59-1.24,.51-.62,.87-1.52,.89-2.56,.18-4.26,.45-10.38,.78-17.94-.02-1.86,.61-4.02-.78-5.59-.62-.77-1.55-1.31-2.57-1.43-1.02-.08-2.15-.02-3.26-.03-4.46,0-9.22,.01-14.23,.02-10.03,0-21.04,.01-32.61,.02-1.36,0-2.69,.74-3.38,1.9-.35,.57-.54,1.23-.57,1.9-.03,.71-.07,1.41-.1,2.12-.14,2.81-.27,5.59-.4,8.31-.13,2.72-.26,5.4-.39,8.02-.03,.65-.06,1.31-.1,1.96-.05,.66-.06,1.25,.13,1.84,.34,1.16,1.22,2.14,2.33,2.57,.56,.23,1.13,.3,1.74,.29,.62,0,1.23,0,1.84,0,1.22,0,2.43,0,3.61,0,2.37,0,4.68,0,6.91,.01,4.46,.01,8.61,.02,12.4,.03,7.56,.03,13.69,.06,17.96,.08,2.1,.02,3.74,.04,4.88,.05,.54,.01,.96,.02,1.27,.03,.29,0,.43,.02,.43,.03s-.15,.02-.43,.03c-.31,0-.73,.01-1.27,.03-1.14,.01-2.78,.03-4.88,.05-4.26,.02-10.39,.05-17.96,.08-3.79,0-7.95,.02-12.4,.03-2.23,0-4.53,0-6.91,.01-1.19,0-2.39,0-3.61,0-.61,0-1.23,0-1.84,0-.62,.01-1.31-.07-1.92-.32-1.24-.48-2.23-1.57-2.61-2.87-.21-.64-.19-1.37-.15-2,.03-.65,.06-1.3,.09-1.96,.12-2.62,.25-5.3,.38-8.02,.13-2.72,.26-5.5,.39-8.31,.03-.7,.07-1.41,.1-2.12,.03-.74,.25-1.5,.64-2.14,.77-1.31,2.27-2.15,3.81-2.15,11.57,0,22.58,.01,32.61,.02,5.01,0,9.77,.02,14.23,.02,1.13,.02,2.19-.04,3.31,.05,1.12,.14,2.15,.74,2.82,1.59,.68,.84,1.02,1.92,.98,2.95-.05,.99-.1,1.96-.15,2.91-.4,7.55-.72,13.67-.94,17.93-.03,1.08-.43,2.02-.97,2.65-.52,.65-1.15,1.02-1.66,1.24-.52,.22-.96,.27-1.24,.3-.29,0-.44,0-.44,0Z"/>
      </g>
      <polygon class="cls-11" points="265.45 89.15 267.58 75.88 276.62 70.62 284.04 78.58 281.8 92.19 265.45 89.15"/>
      <g>
        <polygon class="cls-7" points="307.25 103.17 296.28 343.98 119.35 338.96 108.82 320.57 127.85 96.76 292.51 85.86 307.25 103.17"/>
        <g class="cls-12">
          <polygon points="296.28 343.98 281.54 326.67 292.51 85.86 307.25 103.17 296.28 343.98"/>
        </g>
        <g>
          <polygon class="cls-5" points="292.51 85.86 281.54 326.67 108.82 320.57 121.89 83.42 292.51 85.86"/>
          <path class="cls-10" d="M292.51,85.86c-1.7-.02-67.06-.88-170.63-2.23l.21-.19c-3.64,66.27-8.14,148.36-13.02,237.15l-.25-.27c.9,.03,1.87,.07,2.85,.1,60.77,2.16,118.46,4.2,169.87,6.03l-.24,.22c6.62-142.22,11.11-238.75,11.2-240.81-.09,2.05-4.4,98.6-10.74,240.83v.23s-.24,0-.24,0c-51.41-1.81-109.1-3.84-169.87-5.98-.98-.03-1.95-.07-2.85-.1h-.26s.01-.27,.01-.27c4.91-88.79,9.45-170.88,13.11-237.14v-.2s.21,0,.21,0c103.56,1.6,168.93,2.61,170.62,2.64Z"/>
        </g>
        <path class="cls-7" d="M141.76,141.49l60.32,1.77c1.27,.04,2.32-.96,2.36-2.23l.07-2.26c.04-1.27-.96-2.32-2.23-2.36l-60.32-1.77c-1.27-.04-2.32,.96-2.36,2.23l-.07,2.26c-.04,1.27,.96,2.32,2.22,2.36Z"/>
        <path class="cls-7" d="M141.18,154.73l60.32,1.77c1.27,.04,2.32-.96,2.36-2.23l.07-2.26c.04-1.27-.96-2.32-2.23-2.36l-60.32-1.77c-1.27-.04-2.32,.96-2.36,2.23l-.07,2.26c-.04,1.27,.96,2.32,2.23,2.36Z"/>
        <path class="cls-7" d="M140.6,167.96l60.32,1.77c1.27,.04,2.32-.96,2.36-2.23l.07-2.26c.04-1.27-.96-2.32-2.23-2.36l-60.32-1.77c-1.27-.04-2.32,.96-2.36,2.23l-.07,2.26c-.04,1.27,.96,2.32,2.22,2.36Z"/>
        <path class="cls-7" d="M140.02,181.2l60.32,1.77c1.27,.04,2.32-.96,2.36-2.23l.07-2.26c.04-1.27-.96-2.32-2.23-2.36l-60.32-1.77c-1.27-.04-2.32,.96-2.36,2.23l-.07,2.26c-.04,1.27,.96,2.32,2.23,2.36Z"/>
        <path class="cls-7" d="M139.44,194.44l60.32,1.77c1.27,.04,2.32-.96,2.36-2.23l.07-2.26c.04-1.27-.96-2.32-2.23-2.36l-60.32-1.77c-1.27-.04-2.32,.96-2.36,2.23l-.07,2.26c-.04,1.27,.96,2.32,2.23,2.36Z"/>
        <path class="cls-7" d="M138.86,207.68l60.32,1.77c1.27,.04,2.32-.96,2.36-2.23l.07-2.26c.04-1.27-.96-2.32-2.23-2.36l-60.32-1.77c-1.27-.04-2.32,.96-2.36,2.23l-.07,2.26c-.04,1.27,.96,2.32,2.23,2.36Z"/>
        <path class="cls-7" d="M138.28,220.92l60.32,1.77c1.27,.04,2.32-.96,2.36-2.23l.07-2.26c.04-1.27-.96-2.32-2.23-2.36l-60.32-1.77c-1.27-.04-2.32,.96-2.36,2.23l-.07,2.26c-.04,1.26,.96,2.32,2.23,2.36Z"/>
        <path class="cls-7" d="M210.4,209.66l60.32,1.77c1.27,.04,2.32-.96,2.36-2.23l.07-2.26c.04-1.27-.96-2.32-2.23-2.36l-60.32-1.77c-1.27-.04-2.32,.96-2.36,2.23l-.07,2.26c-.04,1.27,.96,2.32,2.23,2.36Z"/>
        <path class="cls-7" d="M209.81,222.9l60.32,1.77c1.27,.04,2.32-.96,2.36-2.23l.07-2.26c.04-1.27-.96-2.32-2.23-2.36l-60.32-1.77c-1.27-.04-2.32,.96-2.36,2.23l-.07,2.26c-.04,1.27,.96,2.32,2.23,2.36Z"/>
        <path class="cls-7" d="M209.11,236.86l60.32,1.77c1.27,.04,2.32-.96,2.36-2.23l.07-2.26c.04-1.27-.96-2.32-2.23-2.36l-60.32-1.77c-1.27-.04-2.32,.96-2.36,2.23l-.07,2.26c-.04,1.27,.96,2.32,2.23,2.36Z"/>
        <path class="cls-7" d="M208.41,250.82l60.32,1.77c1.27,.04,2.32-.96,2.36-2.23l.07-2.26c.04-1.27-.96-2.32-2.23-2.36l-60.32-1.77c-1.27-.04-2.32,.96-2.36,2.23l-.07,2.26c-.04,1.27,.96,2.32,2.23,2.36Z"/>
        <path class="cls-7" d="M207.71,264.78l60.32,1.77c1.27,.04,2.32-.96,2.36-2.23l.07-2.26c.04-1.27-.96-2.32-2.23-2.36l-60.32-1.77c-1.27-.04-2.32,.96-2.36,2.23l-.07,2.26c-.04,1.27,.96,2.32,2.23,2.36Z"/>
        <path class="cls-7" d="M207.01,278.73l60.32,1.77c1.27,.04,2.32-.96,2.36-2.23l.07-2.26c.04-1.27-.96-2.32-2.23-2.36l-60.32-1.77c-1.27-.04-2.32,.96-2.36,2.23l-.07,2.26c-.04,1.27,.96,2.32,2.23,2.36Z"/>
        <path class="cls-7" d="M206.31,292.7l60.32,1.77c1.27,.04,2.32-.96,2.36-2.23l.07-2.26c.04-1.27-.96-2.32-2.23-2.36l-60.32-1.77c-1.27-.04-2.32,.96-2.36,2.23l-.07,2.26c-.04,1.27,.96,2.32,2.23,2.36Z"/>
        <path class="cls-7" d="M132.35,303.1l133.12,3.9c1.27,.04,2.32-.96,2.36-2.23l.07-2.26c.04-1.27-.96-2.32-2.23-2.36l-133.12-3.9c-1.27-.04-2.32,.96-2.36,2.23l-.07,2.26c-.04,1.27,.96,2.32,2.23,2.36Z"/>
        <path class="cls-7" d="M142.81,124.25l40.68,1.19c1.27,.04,2.32-.96,2.36-2.23l.07-2.26c.04-1.27-.96-2.32-2.23-2.36l-40.68-1.19c-1.27-.04-2.32,.96-2.36,2.23l-.07,2.26c-.04,1.27,.96,2.32,2.23,2.36Z"/>
        <path class="cls-10" d="M118.36,326s.28,.03,.84,.05c.57,.02,1.39,.06,2.48,.11,2.19,.08,5.41,.2,9.56,.36,8.33,.29,20.41,.72,35.47,1.25,30.14,1.02,72.18,2.44,119.82,4.05h.26s.01-.25,.01-.25c.45-9.52,.93-19.51,1.41-29.67,2.56-54.62,4.87-104.06,6.55-139.85,.81-17.89,1.47-32.36,1.92-42.38,.21-5,.38-8.88,.5-11.52,.05-1.31,.09-2.31,.12-3,.02-.68,.02-1.02,.02-1.02,0,0-.03,.34-.08,1.02-.04,.69-.09,1.69-.17,3-.14,2.65-.34,6.53-.6,11.52-.49,10.02-1.21,24.49-2.09,42.38-1.72,35.8-4.08,85.23-6.7,139.85-.48,10.16-.95,20.15-1.4,29.67l.27-.25c-47.65-1.54-89.69-2.9-119.83-3.87-15.06-.46-27.14-.84-35.48-1.09-4.15-.12-7.37-.21-9.56-.27-1.08-.03-1.91-.04-2.48-.06-.56,0-.84,0-.84,0Z"/>
        <path class="cls-10" d="M132.4,333.21s.27,.03,.79,.05c.54,.02,1.32,.06,2.34,.11,2.07,.08,5.1,.21,9.03,.37,7.87,.3,19.3,.74,33.56,1.28,28.55,1.05,68.44,2.51,113.86,4.18h.25s.01-.24,.01-.24c.61-11.49,1.24-23.44,1.88-35.65,2.81-53.89,5.35-102.67,7.19-137.99,.89-17.65,1.62-31.93,2.12-41.82,.24-4.93,.42-8.76,.55-11.37,.06-1.29,.1-2.28,.13-2.96,.03-.67,.03-1.01,.03-1.01,0,0-.04,.34-.08,1.01-.04,.68-.1,1.67-.18,2.96-.15,2.61-.37,6.44-.65,11.37-.54,9.88-1.32,24.17-2.29,41.81-1.88,35.32-4.48,84.1-7.35,137.99-.64,12.21-1.27,24.16-1.87,35.65l.27-.25c-45.42-1.59-85.31-3-113.86-4-14.26-.48-25.69-.86-33.57-1.13-3.92-.12-6.96-.22-9.03-.28-1.02-.03-1.8-.05-2.34-.06-.53-.01-.8,0-.8,0Z"/>
        <g>
          <polygon class="cls-10" points="189.59 82.78 192.2 80.23 223.3 80.38 224.81 83.22 189.59 82.78"/>
          <rect class="cls-10" x="199.7" y="72.79" width="14.82" height="35.22" transform="translate(114.1 296.35) rotate(-89.28)"/>
          <path class="cls-10" d="M225.81,98.54v-.51c.02-.68-.53-1.23-1.2-1.24l-35.22-.44c-.68,0-1.23,.53-1.24,1.21v.51c-.02,.68,.53,1.23,1.2,1.24l35.22,.44c.68,0,1.23-.53,1.24-1.21Z"/>
          <path class="cls-9" d="M214.82,94.31h-.02l-15.49-.2c-.44,0-.86-.23-1.11-.59s-.31-.83-.15-1.25l4.56-12.27c-2.01-1.5-3.23-3.85-3.26-6.37-.06-4.41,3.47-8.1,7.88-8.21,2.21-.06,4.32,.77,5.9,2.33,1.58,1.56,2.43,3.64,2.41,5.86-.03,2.63-1.33,5.05-3.48,6.54l4.07,12.36c.14,.42,.06,.88-.2,1.24-.26,.35-.67,.56-1.1,.56Zm-7.38-27.91c-.06,0-.13,0-.19,0-3.81,.1-6.98,3.4-6.92,7.22,.03,2.32,1.21,4.49,3.15,5.8l.32,.22-4.83,12.98c-.04,.12-.03,.25,.04,.36,.07,.11,.19,.17,.32,.17l15.49,.2c.14,0,.24-.06,.32-.16s.1-.23,.06-.35l-4.31-13.08,.32-.2c2.06-1.29,3.32-3.51,3.35-5.94,.02-1.95-.73-3.78-2.12-5.15-1.35-1.33-3.11-2.05-5-2.05Z"/>
          <path class="cls-9" d="M224.38,96.78s-.13-.02-.35-.02c-.26,0-.6-.02-1.01-.03-.92-.02-2.18-.04-3.72-.08-3.18-.05-7.5-.12-12.29-.2-4.78-.05-9.11-.1-12.29-.14-1.55,0-2.81,0-3.72-.01-.42,0-.75,0-1.01,.01-.23,0-.35,.01-.35,.02s.12,.02,.35,.03c.26,.01,.6,.03,1.01,.04,.92,.03,2.18,.06,3.72,.1,3.14,.07,7.49,.16,12.29,.22,4.8,.07,9.14,.11,12.29,.12,1.57,0,2.85,0,3.73-.01,.44,0,.78-.01,1.01-.03,.23-.02,.35-.03,.35-.04Z"/>
          <path class="cls-9" d="M224.88,82.92s-.13-.02-.35-.02c-.26,0-.6-.01-1.01-.03-.92-.02-2.18-.04-3.72-.08-3.18-.05-7.5-.12-12.29-.2-4.78-.05-9.11-.1-12.29-.14-1.55,0-2.81,0-3.72-.01-.42,0-.75,0-1.01,.01-.23,0-.35,.01-.35,.02s.12,.02,.35,.03c.26,.01,.6,.03,1.01,.04,.92,.03,2.18,.06,3.72,.1,3.14,.07,7.49,.16,12.29,.22,4.8,.07,9.14,.11,12.29,.12,1.57,0,2.85,0,3.73-.01,.44,0,.78-.01,1.01-.03,.23-.02,.35-.03,.35-.04Z"/>
        </g>
        <g>
          <path class="cls-1" d="M185.93,286.84l-42.55-1.25c-4.82-.14-8.6-4.16-8.46-8.97l1.09-37.15c.14-4.82,4.16-8.6,8.97-8.46l42.55,1.25c4.82,.14,8.6,4.16,8.46,8.97l-1.09,37.15c-.14,4.81-4.16,8.6-8.98,8.46Z"/>
          <path class="cls-7" d="M135.03,272.62c.02-.47,.26-.9,.65-1.16l19.64-13.18c1.53-1.23,3.72-1.18,5.19,.09,.08,.07,.17,.13,.26,.18l8.9,4.57c.56,.29,1.24,.18,1.69-.26l13.49-13.19c1.79-1.6,4.56-1.36,6.06,.52l4.33,5.43c.21,.26,.32,.59,.32,.93l-.21,21.94c-.04,4.65-3.9,8.35-8.55,8.2l-43.9-1.39c-4.59-.15-8.19-4-8.02-8.59l.15-4.1Z"/>
          <path class="cls-7" d="M164.03,245.69c.15,3.31-2.41,6.11-5.72,6.27-3.31,.15-6.11-2.41-6.27-5.72-.15-3.31,2.41-6.11,5.72-6.27,3.31-.15,6.11,2.41,6.27,5.72Z"/>
        </g>
        <g>
          <path class="cls-1" d="M263.45,194.41l-42.55-1.25c-4.82-.14-8.6-4.16-8.46-8.97l1.09-37.15c.14-4.82,4.16-8.6,8.97-8.46l42.55,1.25c4.82,.14,8.6,4.16,8.46,8.97l-1.09,37.15c-.14,4.82-4.16,8.6-8.97,8.46Z"/>
          <path class="cls-7" d="M212.57,179.44l20.26-13.59c1.57-1.26,3.83-1.17,5.31,.2l9.98,5.12,14.24-13.92c1.79-1.6,4.56-1.36,6.06,.52l4.65,5.84-.2,21c-.05,5.45-4.57,9.79-10.02,9.62l-41.02-1.3c-5.38-.17-9.59-4.68-9.4-10.06l.12-3.42Z"/>
          <path class="cls-7" d="M241.55,153.26c.15,3.31-2.41,6.11-5.72,6.27-3.31,.15-6.11-2.41-6.27-5.72s2.41-6.11,5.72-6.27c3.31-.15,6.11,2.41,6.27,5.72Z"/>
        </g>
      </g>
      <path class="cls-10" d="M144.14,170.41s-.29-.01-.79-.22c-.49-.21-1.19-.66-1.79-1.51-.58-.83-1.08-2.11-.87-3.59,.18-1.46,1-3.04,2.37-4.28,1.37-1.25,3.27-2.1,5.34-2.63,2.08-.52,4.36-.85,6.77-.88,4.81-.06,10.18,1.05,15.04,3.82,1.2,.71,2.34,1.57,3.19,2.68,.85,1.1,1.39,2.43,1.43,3.8,.06,1.38-.53,2.71-1.43,3.65-.9,.95-2.04,1.56-3.18,1.99-2.3,.86-4.63,.99-6.75,1.09-2.14,.07-4.13-.04-5.94-.26-3.61-.44-6.45-1.31-8.34-2.01-.95-.35-1.68-.66-2.16-.89-.48-.23-.73-.35-.73-.37,0-.02,.27,.08,.77,.27,.49,.2,1.23,.47,2.19,.8,1.91,.64,4.74,1.45,8.32,1.84,1.79,.2,3.77,.28,5.88,.19,2.11-.11,4.4-.27,6.6-1.11,1.09-.42,2.17-1.01,2.99-1.89,.82-.87,1.34-2.06,1.28-3.31-.04-1.24-.54-2.48-1.33-3.51-.8-1.03-1.87-1.86-3.04-2.55-4.76-2.71-10.05-3.82-14.78-3.78-2.37,.01-4.62,.32-6.68,.82-2.04,.5-3.88,1.3-5.21,2.49-1.33,1.17-2.13,2.67-2.33,4.05-.22,1.4,.22,2.62,.75,3.44,.55,.83,1.21,1.29,1.67,1.53,.47,.23,.75,.29,.74,.31Z"/>
      <path class="cls-10" d="M169.39,306.93s-.29-.01-.79-.22c-.49-.21-1.19-.66-1.79-1.51-.58-.83-1.08-2.11-.87-3.59,.18-1.46,1-3.04,2.37-4.28,1.37-1.25,3.27-2.1,5.34-2.63,2.08-.52,4.36-.85,6.77-.88,4.81-.06,10.18,1.05,15.04,3.82,1.2,.71,2.34,1.57,3.19,2.68,.85,1.1,1.39,2.43,1.43,3.8,.06,1.38-.53,2.71-1.43,3.65-.9,.95-2.04,1.56-3.18,1.99-2.3,.86-4.63,.99-6.75,1.09-2.14,.07-4.13-.04-5.94-.26-3.61-.44-6.45-1.31-8.34-2.01-.95-.35-1.68-.66-2.16-.89-.48-.23-.73-.35-.73-.37,0-.02,.27,.08,.77,.27,.49,.2,1.23,.47,2.19,.8,1.91,.64,4.74,1.45,8.32,1.84,1.79,.2,3.77,.28,5.88,.19,2.11-.11,4.4-.27,6.6-1.11,1.09-.42,2.17-1.01,2.99-1.89,.82-.87,1.34-2.06,1.28-3.31-.04-1.24-.54-2.48-1.33-3.51-.8-1.03-1.87-1.86-3.04-2.55-4.76-2.71-10.05-3.82-14.78-3.78-2.37,.01-4.62,.32-6.68,.82-2.04,.5-3.88,1.3-5.21,2.49-1.33,1.17-2.13,2.67-2.33,4.05-.22,1.4,.22,2.62,.76,3.44,.55,.83,1.21,1.29,1.67,1.53,.47,.23,.75,.29,.74,.31Z"/>
      <path class="cls-10" d="M140.07,125.7s-.29-.01-.79-.22c-.49-.21-1.19-.66-1.79-1.51-.58-.83-1.08-2.11-.87-3.59,.18-1.46,1-3.04,2.37-4.28,1.37-1.25,3.27-2.1,5.34-2.63,2.08-.52,4.36-.85,6.77-.88,4.81-.06,10.18,1.05,15.04,3.82,1.2,.71,2.34,1.57,3.19,2.68,.85,1.1,1.39,2.43,1.43,3.8,.06,1.38-.53,2.71-1.43,3.65-.9,.95-2.04,1.56-3.18,1.99-2.3,.86-4.63,.99-6.75,1.09-2.14,.07-4.13-.04-5.94-.26-3.61-.44-6.45-1.31-8.34-2.01-.95-.35-1.68-.66-2.16-.89-.48-.23-.73-.35-.73-.37,0-.02,.27,.08,.77,.27,.49,.2,1.23,.47,2.19,.8,1.91,.64,4.74,1.45,8.32,1.84,1.79,.2,3.77,.28,5.88,.19,2.11-.11,4.4-.27,6.6-1.11,1.09-.42,2.17-1.01,2.99-1.89,.82-.87,1.34-2.06,1.28-3.31-.04-1.24-.54-2.48-1.33-3.51-.8-1.03-1.87-1.86-3.04-2.55-4.76-2.71-10.05-3.82-14.78-3.78-2.37,.01-4.63,.32-6.68,.82-2.04,.5-3.88,1.3-5.21,2.49-1.33,1.17-2.13,2.67-2.33,4.05-.22,1.4,.22,2.62,.76,3.44,.55,.83,1.21,1.29,1.67,1.53,.47,.23,.75,.28,.75,.31Z"/>
      <polygon class="cls-11" points="290.03 262.83 303.47 263.16 309.88 271.42 302.98 279.84 289.19 279.44 290.03 262.83"/>
      <polygon class="cls-9" points="291.3 239.26 304.74 239.59 311.15 247.85 304.25 256.27 290.46 255.87 291.3 239.26"/>
      <path class="cls-7" d="M108.21,69.79h-42.5c-.28,0-.51,.23-.51,.51v.21c0,.28,.23,.51,.51,.51h42.5c.28,0,.51-.23,.51-.51v-.21c0-.28-.23-.51-.51-.51Z"/>
      <path class="cls-7" d="M108.21,73.67h-42.5c-.28,0-.51,.23-.51,.5v.21c0,.28,.23,.5,.51,.5h42.5c.28,0,.51-.23,.51-.5v-.21c0-.28-.23-.5-.51-.5Z"/>
      <path class="cls-7" d="M108.21,77.54h-42.5c-.28,0-.51,.23-.51,.51v.21c0,.28,.23,.51,.51,.51h42.5c.28,0,.51-.23,.51-.51v-.21c0-.28-.23-.51-.51-.51Z"/>
      <path class="cls-10" d="M116.56,73.41c.11-.09,6.88,8.67,15.1,19.56,8.23,10.89,14.81,19.78,14.7,19.87-.11,.09-6.87-8.67-15.1-19.56-8.23-10.88-14.81-19.78-14.7-19.86Z"/>
      <circle class="cls-10" cx="116.31" cy="72.62" r="1.66"/>
      <g>
        <path class="cls-5" d="M162.35,408.04h-49.57c-2.4,0-4.31-2.01-4.2-4.4l1.01-21c.11-2.24,1.95-4,4.2-4h49.57c2.4,0,4.31,2.01,4.2,4.4l-1.01,21c-.11,2.24-1.95,4-4.19,4Z"/>
        <path class="cls-10" d="M162.35,408.04s.61,.04,1.63-.39c.5-.23,1.09-.6,1.59-1.24,.51-.62,.87-1.52,.89-2.56,.18-4.26,.45-10.38,.78-17.94-.02-1.86,.61-4.02-.78-5.59-.62-.77-1.55-1.31-2.57-1.43-1.02-.08-2.15-.02-3.26-.03-4.46,0-9.22,.02-14.23,.02-10.03,0-21.04,.01-32.61,.02-1.36,0-2.69,.74-3.38,1.9-.35,.57-.54,1.23-.57,1.9-.03,.71-.07,1.42-.1,2.12-.14,2.81-.27,5.59-.4,8.31-.13,2.72-.26,5.4-.39,8.02-.03,.66-.06,1.31-.1,1.96-.05,.66-.06,1.25,.13,1.84,.34,1.16,1.22,2.14,2.33,2.57,.56,.23,1.13,.3,1.74,.29,.62,0,1.23,0,1.84,0,1.22,0,2.43,0,3.61,0,2.37,0,4.68,0,6.91,.01,4.46,.01,8.61,.02,12.4,.03,7.56,.03,13.69,.06,17.96,.08,2.1,.02,3.74,.04,4.88,.05,.54,.01,.96,.02,1.27,.03,.29,0,.44,.02,.44,.02s-.15,.02-.43,.03c-.31,0-.73,.01-1.27,.03-1.14,.01-2.78,.03-4.88,.05-4.26,.02-10.39,.05-17.96,.08-3.79,0-7.95,.02-12.4,.03-2.23,0-4.53,0-6.91,.01-1.19,0-2.39,0-3.61,0-.61,0-1.23,0-1.84,0-.62,.01-1.31-.07-1.92-.32-1.24-.48-2.23-1.57-2.61-2.87-.21-.64-.19-1.37-.15-2,.03-.65,.06-1.3,.09-1.96,.12-2.62,.25-5.3,.38-8.02,.13-2.72,.26-5.5,.39-8.31,.03-.7,.07-1.41,.1-2.12,.03-.74,.25-1.5,.64-2.14,.77-1.31,2.27-2.15,3.81-2.15,11.57,0,22.58,.01,32.61,.02,5.01,0,9.77,.02,14.23,.02,1.13,.02,2.19-.04,3.31,.05,1.12,.14,2.15,.74,2.82,1.59,.68,.84,1.02,1.92,.98,2.95-.05,.99-.1,1.96-.15,2.91-.4,7.55-.72,13.67-.94,17.93-.03,1.08-.43,2.02-.97,2.65-.52,.65-1.15,1.02-1.66,1.24-.52,.22-.96,.27-1.24,.3-.29,0-.44,0-.44,0Z"/>
      </g>
      <path class="cls-7" d="M159.31,388.86h-42.5c-.28,0-.51,.23-.51,.51v.21c0,.28,.23,.5,.51,.5h42.5c.28,0,.5-.23,.5-.5v-.21c0-.28-.23-.51-.5-.51Z"/>
      <path class="cls-7" d="M159.31,392.73h-42.5c-.28,0-.51,.23-.51,.5v.21c0,.28,.23,.5,.51,.5h42.5c.28,0,.5-.23,.5-.5v-.21c0-.28-.23-.5-.5-.5Z"/>
      <path class="cls-7" d="M159.31,396.61h-42.5c-.28,0-.51,.23-.51,.51v.21c0,.28,.23,.51,.51,.51h42.5c.28,0,.5-.23,.5-.51v-.21c0-.28-.23-.51-.5-.51Z"/>
      <path class="cls-10" d="M181.11,309.82c.13,.06-7.8,15.52-17.7,34.53-9.9,19.01-18.03,34.36-18.15,34.29-.13-.06,7.8-15.52,17.7-34.53,9.9-19,18.03-34.36,18.15-34.29Z"/>
      <path class="cls-10" d="M146.91,378.64c0,.91-.74,1.66-1.66,1.66s-1.66-.74-1.66-1.66,.74-1.66,1.66-1.66c.91,0,1.66,.74,1.66,1.66Z"/>
    </g>
  </g>
  <g id="Books">
    <g>
      <g>
        <path class="cls-11" d="M453.3,395.28h-143.63v-5.94h143.63c1.36,0,2.46,1.1,2.46,2.46v1.03c0,1.36-1.1,2.45-2.46,2.45Z"/>
        <path class="cls-10" d="M307.73,392.77c0,.12-12.05,.21-26.91,.21s-26.92-.1-26.92-.21,12.05-.21,26.92-.21c14.86,0,26.91,.1,26.91,.21Z"/>
        <g>
          <path class="cls-11" d="M327.49,395.28h-67.47c-8.17,0-14.79-6.62-14.79-14.79v-6.18c0-8.17,6.62-14.79,14.79-14.79h67.47v35.76Z"/>
          <path class="cls-11" d="M453.3,365.45h-142.51c-.62,0-1.12-.5-1.12-1.12v-3.7c0-.62,.5-1.12,1.12-1.12h142.51c1.36,0,2.46,1.1,2.46,2.46v1.03c0,1.36-1.1,2.46-2.46,2.46Z"/>
          <path class="cls-2" d="M451.4,389.34h-125.43c-6.6,0-11.94-5.35-11.94-11.95h0c0-6.6,5.35-11.94,11.94-11.94h125.43c-3.36,7.96-3.36,15.93,0,23.89Z"/>
          <g class="cls-12">
            <path d="M314.03,395.28h-55.25c-7.48,0-13.55-6.07-13.55-13.55v-8.77c0-7.42,6.02-13.44,13.44-13.44h56.72c-12.95,7.84-11.98,26.63-1.36,35.76Z"/>
          </g>
          <path class="cls-10" d="M436.16,378.51c0,.12-25.74,.21-57.49,.21s-57.5-.1-57.5-.21,25.74-.21,57.5-.21,57.49,.1,57.49,.21Z"/>
          <path class="cls-10" d="M448,383.82c0,.12-25.74,.21-57.49,.21s-57.5-.1-57.5-.21,25.74-.21,57.5-.21,57.49,.1,57.49,.21Z"/>
          <path class="cls-10" d="M444.51,370.98c0,.12-25.74,.21-57.49,.21s-57.5-.1-57.5-.21,25.74-.21,57.5-.21,57.49,.1,57.49,.21Z"/>
          <path class="cls-10" d="M307.73,362.48c0,.12-12.05,.21-26.91,.21s-26.92-.1-26.92-.21,12.05-.21,26.92-.21,26.91,.1,26.91,.21Z"/>
        </g>
      </g>
      <g>
        <path class="cls-11" d="M313.69,466.44h-79.5c-10.52,0-19.05-8.53-19.05-19.05v-7.96c0-10.52,8.53-19.05,19.05-19.05h79.5c4.08,0,7.39,3.31,7.39,7.39v31.29c0,4.08-3.31,7.39-7.39,7.39Z"/>
        <path class="cls-11" d="M483.11,428.03h-183.15c-1.01,0-1.83-.82-1.83-1.83v-4c0-1.01,.82-1.83,1.83-1.83h183.15c1.75,0,3.16,1.42,3.16,3.16v1.32c0,1.75-1.42,3.16-3.16,3.16Z"/>
        <path class="cls-11" d="M483.11,466.44h-183.15c-1.01,0-1.83-.82-1.83-1.83v-4c0-1.01,.82-1.83,1.83-1.83h183.15c1.75,0,3.16,1.42,3.16,3.16v1.32c0,1.75-1.42,3.16-3.16,3.16Z"/>
        <path class="cls-2" d="M480.66,458.8h-161.53c-8.5,0-15.38-6.89-15.38-15.38h0c0-8.5,6.89-15.38,15.38-15.38h161.53c-4.33,10.26-4.33,20.51,0,30.77Z"/>
        <g class="cls-12">
          <path d="M303.75,466.44h-65.82c-12.58,0-22.78-10.2-22.78-22.78h0c0-12.86,10.42-23.28,23.28-23.28h67.08c-16.68,10.1-15.43,34.29-1.75,46.06Z"/>
        </g>
        <path class="cls-10" d="M461.03,444.84c0,.12-33.16,.21-74.04,.21s-74.05-.1-74.05-.21,33.15-.21,74.05-.21,74.04,.1,74.04,.21Z"/>
        <path class="cls-10" d="M476.27,451.68c0,.12-33.16,.21-74.04,.21s-74.05-.1-74.05-.21,33.15-.21,74.05-.21c40.89,0,74.04,.1,74.04,.21Z"/>
        <path class="cls-10" d="M471.78,438.5c0,.12-33.16,.21-74.04,.21s-74.05-.1-74.05-.21,33.15-.21,74.05-.21,74.04,.1,74.04,.21Z"/>
        <path class="cls-10" d="M295.64,463.21c0,.12-15.52,.21-34.66,.21s-34.66-.1-34.66-.21,15.52-.21,34.66-.21,34.66,.1,34.66,.21Z"/>
        <path class="cls-10" d="M295.64,424.21c0,.12-15.52,.21-34.66,.21s-34.66-.1-34.66-.21,15.52-.21,34.66-.21,34.66,.1,34.66,.21Z"/>
      </g>
      <g>
        <path class="cls-9" d="M348.08,420.55h-74.66c-6.02,0-10.91-4.88-10.91-10.91v-4.56c0-6.02,4.88-10.91,10.91-10.91h74.66c.28,0,.51,.23,.51,.51v25.36c0,.28-.23,.51-.51,.51Z"/>
        <path class="cls-9" d="M480.23,400.39h-149.12c-.65,0-1.17-.52-1.17-1.17v-3.87c0-.65,.52-1.17,1.17-1.17h149.12c1.42,0,2.57,1.15,2.57,2.57v1.07c0,1.42-1.15,2.57-2.57,2.57Z"/>
        <path class="cls-9" d="M480.23,420.55h-149.12c-.65,0-1.17-.52-1.17-1.17v-3.87c0-.65,.52-1.17,1.17-1.17h149.12c1.42,0,2.57,1.15,2.57,2.57v1.07c0,1.42-1.15,2.57-2.57,2.57Z"/>
        <path class="cls-2" d="M478.24,414.34h-136.76c-3.85,0-6.97-3.12-6.97-6.97h0c0-3.85,3.12-6.97,6.97-6.97h136.76c-3.52,4.65-3.52,9.3,0,13.95Z"/>
        <g class="cls-12">
          <path d="M334.51,420.55h-58.91c-7.22,0-13.08-5.86-13.08-13.08h0c0-7.34,5.95-13.29,13.29-13.29h60.12c-13.55,5.78-12.54,19.64-1.42,26.37Z"/>
        </g>
        <path class="cls-10" d="M462.3,406.27c0,.12-26.94,.21-60.16,.21s-60.16-.1-60.16-.21,26.93-.21,60.16-.21,60.16,.1,60.16,.21Z"/>
        <path class="cls-10" d="M474.68,410.02c0,.12-26.94,.21-60.16,.21s-60.16-.1-60.16-.21,26.93-.21,60.16-.21,60.16,.1,60.16,.21Z"/>
        <path class="cls-10" d="M327.92,417.93c0,.12-12.61,.21-28.16,.21s-28.16-.1-28.16-.21,12.61-.21,28.16-.21,28.16,.1,28.16,.21Z"/>
        <path class="cls-10" d="M327.92,397.29c0,.12-12.61,.21-28.16,.21s-28.16-.1-28.16-.21,12.61-.21,28.16-.21,28.16,.1,28.16,.21Z"/>
        <path class="cls-10" d="M481.01,394.18c0,.12-46.25,.21-103.3,.21s-103.31-.1-103.31-.21,46.24-.21,103.31-.21,103.3,.1,103.3,.21Z"/>
      </g>
      <polygon class="cls-11" points="398.06 370.58 398.06 384.91 403.02 381.72 408.56 384.91 408.56 370.58 398.06 370.58"/>
    </g>
  </g>
  <g id="Speech_Bubble_3" data-name="Speech Bubble 3">
    <g>
      <g>
        <path class="cls-3" d="M463.76,125.63h-44.32c-9.38,0-16.99,7.61-16.99,16.99h0c0,9.05,7.08,16.43,16.01,16.94,1.34,2.31,2.67,4.63,4.01,6.94,1.67-2.3,3.34-4.6,5.01-6.89h36.27c9.38,0,16.99-7.61,16.99-16.99h0c0-9.38-7.61-16.99-16.99-16.99Z"/>
        <path class="cls-10" d="M463.76,125.63s.15,0,.45,0c.32,.01,.76,.03,1.33,.05,1.15,.15,2.89,.37,4.97,1.25,2.06,.87,4.43,2.4,6.5,4.85,1.01,1.25,1.92,2.71,2.63,4.39,.71,1.68,1.13,3.59,1.24,5.62,.24,4.03-1.07,8.66-4.3,12.26-1.6,1.8-3.64,3.32-6,4.36-2.35,1.06-5.05,1.47-7.75,1.42-10.78,0-22.7,.02-35.34,.03l.2-.1c-1.59,2.19-3.29,4.53-5.01,6.89l-.23,.32-.2-.34c-.52-.89-1.07-1.86-1.63-2.83-.82-1.41-1.63-2.81-2.38-4.12l.21,.13c-1.71-.12-3.38-.47-4.97-1.04-1.58-.59-3.05-1.42-4.39-2.4-2.65-2-4.68-4.73-5.79-7.74-1.14-3.01-1.33-6.26-.77-9.29,.6-3.02,1.98-5.82,3.92-8.01,1.93-2.21,4.36-3.88,6.97-4.82,.33-.12,.65-.25,.98-.35l1-.26c.66-.2,1.34-.25,2-.36,.67-.09,1.34-.08,2-.13,.65,0,1.3,0,1.94,0,5.14,.01,9.92,.02,14.28,.03,8.7,.03,15.73,.06,20.61,.08,2.41,.02,4.29,.04,5.59,.05,.62,.01,1.1,.02,1.45,.02,.33,0,.49,.03,.49,.03,0,0-.17,.02-.49,.03-.35,0-.83,.01-1.45,.02-1.3,.01-3.17,.03-5.59,.05-4.88,.02-11.9,.05-20.61,.08-4.36,0-9.14,.02-14.28,.03-.64,0-1.29,0-1.94,0-.64,.05-1.3,.04-1.95,.13-.64,.12-1.31,.16-1.95,.36l-.97,.25c-.32,.1-.63,.23-.95,.34-2.55,.92-4.9,2.56-6.78,4.71-1.89,2.14-3.22,4.87-3.8,7.8-.54,2.94-.35,6.11,.76,9.02,1.08,2.92,3.05,5.57,5.63,7.51,1.3,.95,2.73,1.76,4.26,2.33,1.54,.55,3.17,.88,4.82,1h.14s.07,.13,.07,.13c.75,1.3,1.56,2.71,2.38,4.12,.56,.97,1.12,1.93,1.63,2.83l-.43-.02c1.72-2.36,3.42-4.7,5.01-6.89l.08-.1h.13c12.64,0,24.56,.02,35.34,.03,2.68,.05,5.28-.34,7.58-1.36,2.3-1,4.3-2.49,5.87-4.24,3.18-3.51,4.48-8.02,4.26-11.98-.1-1.98-.49-3.87-1.18-5.52-.68-1.66-1.57-3.1-2.55-4.34-2.02-2.43-4.35-3.96-6.37-4.85-4.13-1.71-6.71-1.33-6.67-1.46Z"/>
      </g>
      <polygon class="cls-11" points="422.13 137.31 423.72 140.53 427.27 141.05 424.7 143.56 425.31 147.09 422.13 145.42 418.95 147.09 419.56 143.56 416.99 141.05 420.54 140.53 422.13 137.31"/>
      <polygon class="cls-11" points="435.61 137.31 437.2 140.53 440.76 141.05 438.18 143.56 438.79 147.09 435.61 145.42 432.44 147.09 433.04 143.56 430.47 141.05 434.02 140.53 435.61 137.31"/>
      <polygon class="cls-11" points="449.09 137.31 450.68 140.53 454.24 141.05 451.67 143.56 452.27 147.09 449.09 145.42 445.92 147.09 446.52 143.56 443.95 141.05 447.51 140.53 449.09 137.31"/>
      <polygon class="cls-11" points="462.58 137.31 464.17 140.53 467.72 141.05 465.15 143.56 465.75 147.09 462.58 145.42 459.4 147.09 460.01 143.56 457.43 141.05 460.99 140.53 462.58 137.31"/>
    </g>
  </g>
  <g id="Character_3" data-name="Character 3">
    <g>
      <g>
        <g>
          <path class="cls-10" d="M345.21,138.35s-4.44,16.6-4.82,28.34l-.13,3.91s9.8,8.13,18.01,8.64l6.89-16.93-19.95-23.96Z"/>
          <g>
            <g>
              <g>
                <path class="cls-10" d="M388.73,148.53c-1.87-8.1-2.59-17.52-9.32-22.8-5-3.92-10.69-5.01-17.03-4.74-3.12,.13-6.65,1.57-9.37,3.11-3.73,2.11-5.31,6.39-7.11,10.28-3.61,7.79-3.15,18.35-.71,21.28l32.57,17.2c6.5-3.38,10.58-4.73,11.62-13.4,.44-3.65,.19-7.35-.64-10.93Z"/>
                <g>
                  <path class="cls-4" d="M379.05,132.17l-20.49-6.05c-6.6-.96-11.33,7.03-12.01,13.66-.76,7.37-1.39,16.41-.73,21.95,1.32,11.16,9.77,12.9,9.77,12.9,0-.04,.02,.17-.05,3.46l-.03,6.79c-.09,2.16,.29,2.89,1.61,4.6,3.02,3.92,8.53,4.44,15.03,2.04,3.77-1.39,6.38-4.19,6.67-8.01l3.56-47.26c.12-2.02-1.33-3.8-3.33-4.09Z"/>
                  <path class="cls-10" d="M348.5,149.89c-.06,.75,.53,1.42,1.32,1.49,.78,.07,1.46-.47,1.52-1.22,.06-.75-.53-1.42-1.31-1.49-.78-.07-1.46,.48-1.52,1.23Z"/>
                  <path class="cls-10" d="M347.9,146.48c.17,.19,1.28-.56,2.81-.5,1.53,.04,2.62,.87,2.79,.69,.08-.08-.08-.42-.56-.8-.47-.37-1.28-.75-2.23-.78-.95-.03-1.77,.29-2.24,.63-.48,.34-.66,.67-.57,.76Z"/>
                  <path class="cls-10" d="M361.95,150.11c-.06,.75,.53,1.42,1.32,1.49,.78,.07,1.46-.47,1.52-1.22,.06-.75-.53-1.42-1.31-1.49-.78-.07-1.46,.47-1.52,1.23Z"/>
                  <path class="cls-10" d="M362.96,146.66c.17,.19,1.28-.56,2.81-.5,1.53,.04,2.62,.87,2.79,.69,.08-.08-.08-.42-.56-.8-.47-.37-1.27-.75-2.23-.78-.95-.03-1.77,.29-2.24,.63-.48,.34-.66,.67-.57,.76Z"/>
                  <path class="cls-10" d="M357,156.58c0-.09-.93-.29-2.47-.55-.39-.06-.76-.15-.81-.42-.08-.29,.1-.7,.31-1.15,.4-.93,.83-1.91,1.27-2.93,1.77-4.17,3.07-7.61,2.9-7.68-.17-.07-1.74,3.26-3.51,7.43-.43,1.03-.84,2.01-1.22,2.95-.17,.44-.44,.93-.26,1.53,.09,.3,.37,.52,.62,.6,.25,.09,.47,.1,.66,.12,1.55,.15,2.51,.19,2.52,.1Z"/>
                  <path class="cls-8" d="M355.54,174.65s7.44,.77,15.01-3.38c0,0-3.98,7.62-15.04,6.14l.03-2.76Z"/>
                  <path class="cls-8" d="M361.96,159.98c-.37-.66-1.07-1.03-1.81-1.08-1.06-.08-1.96,.25-2.68,1.2-.25,.27-.26,1.07-.17,1.29,.09,.22,.02,.11,.18,.27,.6,.57,1.23,1.14,2.01,1.36s1.77,0,2.32-.75c.49-.67,.51-1.63,.14-2.29Z"/>
                  <path class="cls-10" d="M361.73,157.88c-.25-.03-.33,1.63-1.8,2.75-1.47,1.12-3.23,.85-3.26,1.08-.03,.1,.38,.34,1.13,.39,.73,.06,1.81-.13,2.71-.81,.9-.68,1.32-1.63,1.4-2.31,.1-.69-.07-1.11-.18-1.11Z"/>
                  <path class="cls-10" d="M362.38,141.05c.11,.43,1.65,.38,3.42,.77,1.78,.35,3.17,1.02,3.44,.67,.12-.17-.09-.58-.63-1.04-.54-.46-1.42-.93-2.49-1.15-1.06-.22-2.06-.15-2.74,.05-.68,.2-1.05,.49-1,.7Z"/>
                  <path class="cls-10" d="M348.03,142.36c.35,.3,1.46-.22,2.86-.44,1.39-.26,2.62-.14,2.85-.54,.09-.19-.14-.51-.71-.76-.56-.25-1.45-.39-2.41-.23-.96,.17-1.75,.6-2.19,1.02-.44,.43-.56,.8-.4,.95Z"/>
                </g>
              </g>
              <path class="cls-10" d="M358.49,124.93c-.02,.08-.03,.16-.05,.24l.04,.02c0-.09,0-.17,.01-.26Z"/>
            </g>
            <path class="cls-10" d="M372.82,179.13c.31-2.91-.86-5.83-.52-8.73,.36-3.08,2.36-5.72,3.17-8.71,1.31-4.79-.49-9.88-1.15-14.83-2.78-.34-5.36-2.01-7.21-4.16-2.22-2.59-3.57-5.81-4.88-8.96,.08,3.09,1.15,6.15,3.02,8.62-1.23,.26-2.53-.27-3.46-1.12-.93-.85-1.53-1.99-2.03-3.15-1.21-2.8-1.86-5.83-1.97-8.87-.41,4.36,.07,8.8,1.45,12.96-.78-.24-1.61-.02-2.41,.09s-1.73,.09-2.29-.49c-.38-.39-.52-.95-.63-1.48-.77-3.7-.89-7.54-.37-11.29-.99,2.03-1.97,4.08-2.54,6.26-.57,2.18-.72,4.52-.05,6.67-.32,.41-1,.34-1.38,0s-.52-.88-.6-1.39c-.29-1.86,.04-3.76,.37-5.62-1.11,1.97-1.48,4.25-2.09,6.42-.61,2.17-1.59,4.4-3.48,5.64-.33-3.25-.21-5.47,.28-8.51,.37-2.33,1.48-4.63,2.49-6.76,1.14-2.38,2.73-4.71,4.5-6.26,3.27-2.86,4.63-1.63,6.72-.54l.25,.1c0-.05,0-.1,.02-.15l.09-.44c5.43-1.22,11.19-.95,16.49,.77,3.93,1.28,4.3,9.75,5.25,5.73,.58-2.44,3.74-.21,3.78-.14,4.64,8.37,9.56,21.65,9.78,42.62h0l-20.61,5.75Z"/>
          </g>
        </g>
        <path class="cls-10" d="M386.25,115.2c-1.85-2.03-4.47-3.43-7.21-3.51-2.75-.09-5.57,1.26-6.97,3.63-1.4,2.37-1.12,5.69,.86,7.59l3.43,2.74c2.36,1.3,5.28,1.73,7.79,.76,2.51-.97,4.46-3.48,4.4-6.18-.05-1.88-1.02-3.64-2.29-5.03Z"/>
        <path class="cls-9" d="M383.6,130.41c-.66,.31-2.54-2.56-5.89-4.82-3.3-2.34-6.65-3.07-6.6-3.8,.03-.33,.97-.6,2.5-.44,1.52,.15,3.6,.81,5.54,2.15,1.94,1.34,3.29,3.05,3.97,4.42,.69,1.38,.77,2.35,.47,2.5Z"/>
      </g>
      <g>
        <path class="cls-11" d="M335.93,221.59l12.84-12.03,8.7,13.82c-.17,1.24-11.26,25.13-16.06,30.09-5.48,5.65-12.94,5.21-16.24-2.59-2.6-6.15-6.91-25.08-6.91-25.08l17.67-4.2Z"/>
        <path class="cls-11" d="M349.93,185.41c-3.07,1.11-10.12,4.96-12.18,7.49-.99,1.23-1.96,2.62-2.59,4.01-1.61,3.53-4.66,29.74-4.66,29.74l13.68,9.9,11.91-45.84-.76-7.27-5.39,1.96Z"/>
        <path class="cls-11" d="M345.4,261.08l.86-6.77s-2.64-12.08-3.6-22.57c-1.54-16.67,2.81-27.03,3.4-28.79,.34-.99,9.27-19.49,9.27-19.49,0,0,1.88,5.7,9.41,4.35,10.51-1.88,14.34-7.58,14.34-7.58l13.58,2.94s5.29,21.25,6.07,28.29c.42,3.77-4.56,25.11-4.56,25.11l8.01,11.98c.24,.59-3.48,16.96-4.21,17.64s-13.75,3.7-13.92,4.26c-.16,.56-24.83,10.89-24.82,10.46,.02-.42-11.87-14.54-11.87-14.54l-1.97-5.29Z"/>
        <path class="cls-10" d="M342.32,205.49s0,.17-.03,.5c-.04,.38-.1,.84-.17,1.41-.15,1.22-.35,2.99-.53,5.17-.34,4.37-.69,10.46,.32,17.09,.88,6.64,2.16,12.58,2.99,16.9,.42,2.16,.74,3.91,.95,5.12,.09,.56,.16,1.02,.22,1.4,.04,.32,.06,.49,.04,.49-.02,0-.07-.16-.14-.48-.08-.37-.19-.83-.31-1.38-.28-1.28-.65-3-1.1-5.09-.92-4.3-2.26-10.24-3.14-16.91-1.01-6.67-.6-12.82-.17-17.19,.23-2.19,.49-3.96,.69-5.17,.1-.61,.19-1.08,.26-1.39,.07-.32,.12-.48,.13-.48Z"/>
      </g>
      <g>
        <path class="cls-10" d="M404.55,258.19c2.43,4.13,7.99,19.95,10.15,28.02,9.86,36.86,18.21,86.43,20.98,96.53,3.69,13.46,11.96,43.91,16.17,64.19l-20.21,8.81s-26.47-71.33-33.69-88.85c-7.48-18.16-19.97-52.42-19.97-52.42l-7.21,135.87-19.36,.6s-6.62-38.29-9.25-61.17c-2.63-22.88-2.93-69.99-2.95-81.94-.03-14.56,6.28-47.31,6.28-47.31,0,0,7.55,5.67,21.71,3.5,11.28-1.73,34.66-10.4,34.66-10.4l2.69,4.57Z"/>
        <path class="cls-9" d="M365.2,268.74s0,.56,.11,1.56c.1,1,.28,2.45,.52,4.23,.47,3.57,1.21,8.48,2.18,13.88,.97,5.4,1.98,10.27,2.77,13.78,.4,1.75,.73,3.17,.98,4.14,.25,.97,.4,1.51,.43,1.5,.03,0-.05-.56-.24-1.55-.21-1.07-.49-2.48-.82-4.18-.7-3.53-1.65-8.4-2.62-13.79-.96-5.4-1.76-10.3-2.32-13.85-.27-1.71-.5-3.12-.68-4.2-.17-.99-.27-1.54-.31-1.53Z"/>
        <path class="cls-9" d="M372.1,268.45s-.03-.24-.38-.39c-.34-.14-.86-.19-1.47-.05-.31,.07-.64,.18-.97,.39-.35,.23-.59,.64-.66,1.07-.16,.87,.25,1.91,1.11,2.46,.84,.55,1.93,.61,2.7,.12,.38-.23,.64-.64,.74-1,.11-.37,.11-.73,.07-1.05-.08-.64-.38-1.1-.65-1.33-.28-.23-.49-.25-.49-.22-.02,.04,.15,.12,.35,.36,.2,.24,.4,.66,.44,1.23,.04,.54-.11,1.28-.7,1.62-.59,.36-1.49,.31-2.18-.15-.69-.44-1.03-1.28-.93-1.96,.05-.34,.21-.64,.45-.81,.25-.18,.54-.31,.81-.39,.55-.17,1.02-.18,1.32-.11,.3,.07,.4,.23,.44,.21Z"/>
        <path class="cls-9" d="M359.72,303c-.04,.06,.88,.65,2.34,1.61s3.47,2.31,5.62,3.89c2.15,1.58,4.03,3.1,5.37,4.22s2.18,1.82,2.23,1.76c.04-.05-.7-.84-1.99-2.03s-3.15-2.76-5.31-4.35c-2.16-1.59-4.21-2.9-5.73-3.78-1.52-.89-2.5-1.36-2.53-1.3Z"/>
        <path class="cls-9" d="M408.74,376.5s.3,.04,.84,.03c.54-.01,1.31-.07,2.27-.18,1.91-.21,4.54-.7,7.34-1.57,2.81-.88,5.24-1.99,6.93-2.9,.85-.46,1.52-.85,1.96-1.15,.45-.29,.69-.47,.67-.5-.04-.07-1.08,.51-2.8,1.33-1.72,.83-4.14,1.86-6.92,2.74-2.78,.87-5.36,1.4-7.24,1.7-1.88,.3-3.06,.42-3.06,.5Z"/>
        <path class="cls-9" d="M412.02,374.43c.02,.06,.78-.13,1.98-.53,1.2-.4,2.84-1.02,4.6-1.82,1.76-.79,3.31-1.6,4.41-2.24,1.1-.63,1.74-1.08,1.71-1.13-.07-.13-2.82,1.34-6.32,2.91-3.5,1.58-6.42,2.66-6.37,2.8Z"/>
      </g>
      <g>
        <path class="cls-10" d="M351.29,436.86l-.1,20.17s-20.54,6.67-20.92,10.4l39.1,1.6,1.45-31.42-19.53-.75Z"/>
        <path class="cls-7" d="M363.35,455.83c.75,.24,1.24,1.11,1.03,1.87-.21,.76-1.09,1.26-1.84,1.04-.75-.22-1.37-1.25-1.08-1.98,.29-.73,1.36-1.26,2.04-.87"/>
        <path class="cls-9" d="M369.37,469.03l.02-3.17-37.5-.35s-1.77,.69-1.63,1.92l39.1,1.6Z"/>
        <path class="cls-3" d="M350.56,456.8c0,.19,.95,.32,1.86,.97,.93,.63,1.38,1.48,1.56,1.41,.18-.03-.06-1.18-1.18-1.95-1.11-.78-2.28-.6-2.24-.42Z"/>
        <path class="cls-3" d="M346.39,458.33c-.05,.18,.76,.54,1.38,1.38,.64,.82,.77,1.7,.96,1.69,.18,.04,.36-1.08-.43-2.1-.78-1.03-1.9-1.16-1.91-.97Z"/>
        <path class="cls-3" d="M343.86,463.15c.17,.05,.48-.9,.03-1.96-.44-1.07-1.32-1.52-1.41-1.36-.11,.15,.44,.74,.8,1.62,.37,.87,.4,1.68,.58,1.71Z"/>
        <path class="cls-3" d="M351.1,452.21c.07,.18,.96-.05,2.04,.07,1.08,.1,1.9,.49,2.01,.33,.12-.13-.68-.87-1.94-.99-1.27-.13-2.19,.44-2.1,.6Z"/>
      </g>
      <g>
        <path class="cls-10" d="M443.64,434.74l7.49,23.23,11.22,16.66c.81,1.2,.43,2.84-.82,3.56h0c-.7,.41-1.55,.45-2.29,.11-4.69-2.15-21.91-10.14-22.36-11.87-.52-2-9.53-23.98-9.53-23.98l16.29-7.71Z"/>
        <path class="cls-9" d="M461.53,478.19l-25.19-13.32,.34,.98c.29,.84,.87,1.56,1.64,2.01,2.06,1.21,7.83,4.43,20.85,10.47,.76,.35,1.64,.3,2.36-.14h0Z"/>
        <g class="cls-13">
          <path class="cls-3" d="M438.49,455.79c.72,.2,1.21,1.01,1.04,1.73-.17,.72-.99,1.23-1.71,1.05-.72-.19-1.34-1.14-1.09-1.84,.25-.7,1.24-1.25,1.89-.89"/>
        </g>
        <path class="cls-3" d="M452.76,469.95c.15,.02,.25-1.37,1.4-2.5,1.11-1.16,2.5-1.28,2.48-1.43,0-.06-.35-.14-.92-.03-.56,.11-1.32,.45-1.94,1.08-.62,.63-.96,1.39-1.06,1.95-.1,.57-.02,.92,.04,.92Z"/>
        <path class="cls-3" d="M455.48,472.47c.14,.06,.62-.95,1.7-1.7,1.06-.78,2.16-.92,2.15-1.07,.03-.14-1.25-.24-2.46,.64-1.22,.87-1.52,2.12-1.38,2.14Z"/>
        <path class="cls-3" d="M448.33,467.06c.15,.07,.88-1.48,2.44-2.8,1.55-1.35,3.19-1.83,3.14-1.99,0-.14-1.83,.14-3.49,1.58-1.68,1.42-2.23,3.18-2.09,3.21Z"/>
        <path class="cls-3" d="M445.46,460.19c.11,.12,1.2-.86,2.83-1.49,1.63-.66,3.09-.69,3.09-.86,.02-.13-1.53-.35-3.29,.36-1.76,.69-2.75,1.91-2.64,1.99Z"/>
        <path class="cls-3" d="M443.09,453.43c.12,.11,1.13-1.11,2.91-1.63,1.77-.57,3.29-.14,3.32-.3,.02-.06-.33-.26-.97-.39-.63-.12-1.56-.13-2.51,.17-.95,.3-1.72,.82-2.17,1.28-.46,.46-.63,.83-.58,.87Z"/>
        <path class="cls-3" d="M445.51,450.52s-.03-.34-.27-.88c-.25-.54-.69-1.31-1.49-2.04-.4-.34-.85-.8-1.6-.88-.37-.04-.83,.18-1,.58-.17,.39-.12,.8,0,1.17,.53,1.45,2.28,2.43,4,2.07,1.72-.39,2.88-1.86,3.1-3.35,.03-.38-.01-.81-.33-1.14-.31-.33-.84-.32-1.15-.15-.65,.34-.94,.89-1.24,1.32-.57,.91-.83,1.76-.95,2.34-.12,.58-.11,.92-.08,.92,.1,.03,.19-1.33,1.34-3.05,.3-.41,.64-.9,1.11-1.12,.23-.11,.47-.08,.62,.08,.15,.16,.21,.46,.17,.76-.19,1.23-1.26,2.56-2.72,2.87-1.45,.32-2.98-.54-3.42-1.71-.1-.28-.13-.59-.03-.82,.09-.22,.3-.34,.55-.33,.51,.02,.98,.4,1.37,.72,1.56,1.35,1.92,2.7,2.01,2.64Z"/>
      </g>
      <g>
        <polygon class="cls-4" points="320.88 205.49 330.2 215.12 330.58 223.51 319.76 226 319.21 226 318.51 220.59 312.27 212.29 320.88 205.49"/>
        <g>
          <path class="cls-9" d="M310.9,198.52c-10.37,11.07-24.43,17.44-39.59,17.94-15.16,.5-29.6-4.94-40.68-15.31h0c-22.85-21.41-24.03-57.41-2.62-80.26,10.37-11.07,24.43-17.44,39.59-17.94,15.16-.5,29.6,4.94,40.67,15.31,8.99,8.42,14.62,19.09,16.85,30.34,3.44,17.35-1.24,36.06-14.22,49.92Zm-77.66-.15c10.33,9.68,23.81,14.75,37.95,14.28,14.14-.46,27.26-6.41,36.94-16.73,9.68-10.33,14.75-23.81,14.28-37.95-.46-14.15-6.41-27.26-16.73-36.94-10.33-9.68-23.81-14.75-37.95-14.28-14.14,.46-27.26,6.41-36.94,16.73-12.12,12.94-16.48,30.39-13.27,46.58,2.08,10.49,7.34,20.46,15.72,28.31Z"/>
          <path class="cls-10" d="M310.9,198.52c-10.37,11.07-24.43,17.44-39.59,17.94-15.16,.5-29.6-4.94-40.68-15.31h0c-22.85-21.41-24.03-57.41-2.62-80.26,10.37-11.07,24.43-17.44,39.59-17.94,15.16-.5,29.6,4.94,40.67,15.31,8.99,8.42,14.62,19.09,16.85,30.34,3.44,17.35-1.24,36.06-14.22,49.92Zm-77.66-.15c10.33,9.68,23.81,14.75,37.95,14.28,14.14-.46,27.26-6.41,36.94-16.73,9.68-10.33,14.75-23.81,14.28-37.95-.46-14.15-6.41-27.26-16.73-36.94-10.33-9.68-23.81-14.75-37.95-14.28-14.14,.46-27.26,6.41-36.94,16.73-12.12,12.94-16.48,30.39-13.27,46.58,2.08,10.49,7.34,20.46,15.72,28.31Z"/>
          <path class="cls-9" d="M312.29,195.79c-10.37,11.07-24.43,17.44-39.59,17.94-15.16,.5-29.6-4.94-40.68-15.31h0c-22.85-21.41-24.03-57.41-2.63-80.26,10.37-11.07,24.43-17.44,39.59-17.94,15.16-.5,29.6,4.94,40.67,15.31,8.99,8.42,14.62,19.09,16.85,30.34,3.44,17.35-1.24,36.06-14.22,49.92Zm-77.66-.15c10.33,9.68,23.81,14.75,37.95,14.28,14.14-.46,27.26-6.41,36.94-16.73,9.68-10.33,14.75-23.81,14.28-37.95-.46-14.15-6.41-27.26-16.73-36.94-10.33-9.68-23.81-14.75-37.95-14.28-14.14,.46-27.26,6.41-36.94,16.73-12.12,12.94-16.48,30.39-13.27,46.58,2.08,10.49,7.34,20.46,15.72,28.31Z"/>
        </g>
        <path class="cls-9" d="M375.33,267.47l1.81-1.75c1.61-1.56,.71-5.12-.98-6.86l-63.44-65.57-8.48,8.21,63.34,65.47c2.14,2.1,5.68,2.5,7.75,.49Z"/>
        <g>
          <path class="cls-4" d="M316.87,201.2c-.3-.28-.89-.46-1.28-.34-.4,.12-.72,.41-1.01,.7-2.06,2.1-3.26,5.02-3.27,7.96,0,1.26,.33,2.71,1.45,3.28l1.27-.74c.4-.51,1.58-1.36,1.73-1.99,.66-2.63-.29-2.52,1.37-7.09,.16-.45,.34-1.2-.27-1.77Z"/>
          <path class="cls-4" d="M316.57,204.94c.36-.62,.76-1.23,1.26-1.66,.5-.43,1.13-.67,1.68-.5,.88,.28,1.31,1.54,1.21,2.72-.1,1.18-.6,2.29-1.09,3.35-1.04,2.26-2.09,4.53-3.13,6.79l-.61-.45c-.43,.42-1.06,.21-1.35-.3-.29-.5-.32-1.19-.3-1.85,.09-2.83,.96-5.69,2.34-8.1Z"/>
          <path class="cls-4" d="M318.1,211.71c.72-1.59,1.93-2.92,3.14-4.2,.42-.45,.87-.9,1.46-1.11,.59-.2,1.35-.06,1.64,.48,.28,.52,.03,1.14-.22,1.67-1.57,3.27-3.38,6.44-5.4,9.47l-1.87-1.89c-.85-1.53,.54-2.83,1.26-4.42Z"/>
        </g>
        <g>
          <g>
            <g>
              <path class="cls-4" d="M368.71,232.66l-1.72-.36-9-7.67-4.93-4.14c-.41-.35-.91-.58-1.44-.66l-4.88-.81s-.76,2.12,1.46,3.34l2.67,1.38,2.45,2.89-.31,.63s-16.02,2.49-17.02,3.71c-1,1.22,0,2.33,.44,2.56s1.22,.11,1.22,.11c0,0-.78,1.89,1.56,3.44,0,0-1.78,2.33,1.33,3.44,0,0,.89,1.78,2.67,2.33,1.78,.56,11.33,1.67,12.34,1.67s11.49,.02,11.49,.02l2.31,.38-.63-12.25Z"/>
              <path class="cls-8" d="M337.29,233.65c-.01,.13,1.97,.41,4.43,.24,2.45-.18,4.39-.52,4.38-.65-.01-.15-2-.03-4.42,.15-2.42,.16-4.39,.12-4.4,.26Z"/>
              <path class="cls-8" d="M339.21,237.07c0,.07,.42,.13,1.08,.22,.67,.08,1.59,.21,2.63,.28,1.05,.07,1.99-.03,2.66-.06,.67-.04,1.08-.04,1.09-.1,.02-.07-.41-.21-1.09-.26-.69-.06-1.62-.02-2.63-.09-1.02-.06-1.96-.14-2.64-.13-.68,0-1.11,.07-1.11,.14Z"/>
              <path class="cls-8" d="M340.22,240.44c-.01,.14,1.92,.4,4.32,.58,1.2,.08,2.26,.17,2.96,.46,.71,.27,1.03,.65,1.09,.59,.05-.02-.2-.52-.94-.91-.73-.41-1.88-.56-3.07-.64-2.4-.18-4.35-.22-4.36-.08Z"/>
            </g>
            <g>
              <path class="cls-11" d="M392.65,183.16s6.77,1.17,11.91,11.26c2.84,5.58,16.1,39.12,16.89,42.06,3.37,12.58-3.15,20.7-9.42,21.25-6.9,.61-42.6-10.91-42.6-10.91l-.79-15.25,32.56,4.94-15.64-30.36s-.6-20.22,7.09-22.99Z"/>
              <path class="cls-10" d="M412.15,244.85s-.17-.85-.88-2.03c-.7-1.18-1.95-2.66-3.66-3.89-1.72-1.22-3.53-1.92-4.87-2.2-1.35-.29-2.21-.22-2.21-.17,0,.09,.83,.15,2.12,.51,1.29,.35,3,1.08,4.67,2.26,1.66,1.19,2.9,2.57,3.66,3.68,.76,1.1,1.1,1.87,1.18,1.84Z"/>
            </g>
          </g>
          <path class="cls-10" d="M403.09,256.43s-.06,0-.17-.02c-.13-.03-.29-.06-.49-.1-.43-.09-1.06-.28-1.87-.5-1.63-.47-4-1.2-6.98-2.15-5.96-1.9-14.39-4.69-24.29-8.04l-.15-.05v-.16c-.24-4.39-.49-9.17-.75-14.16l-.02-.31,.31,.05c2.57,.42,5.27,.85,8.01,1.3,8.83,1.44,17.19,2.8,24.55,4.01l-.24,.33c-4.43-8.67-8.17-15.99-10.81-21.17-1.29-2.56-2.31-4.59-3.03-6.02-.33-.68-.59-1.21-.79-1.6-.17-.36-.26-.56-.25-.56,.01,0,.12,.17,.31,.53,.21,.39,.49,.91,.85,1.57,.75,1.41,1.81,3.43,3.15,5.96,2.69,5.16,6.48,12.45,10.98,21.08l.21,.4-.45-.07c-7.37-1.19-15.73-2.53-24.56-3.96-2.74-.45-5.44-.88-8.01-1.3l.29-.26c.25,4.99,.49,9.77,.71,14.16l-.16-.21c9.88,3.35,18.27,6.19,24.23,8.21,2.95,.97,5.29,1.73,6.93,2.27,.81,.25,1.43,.46,1.85,.57,.19,.06,.35,.1,.48,.14,.11,.04,.16,.06,.16,.06Z"/>
          <path class="cls-10" d="M394.11,183.78c.05,.08-.92,.64-2.27,1.8-1.35,1.16-3.02,3-4.33,5.38-1.29,2.39-1.93,4.79-2.16,6.56-.24,1.76-.18,2.88-.27,2.88-.04,0-.07-.27-.11-.78-.05-.5-.04-1.24,.03-2.15,.07-.91,.27-1.98,.59-3.14,.34-1.15,.82-2.39,1.48-3.62,.67-1.22,1.45-2.3,2.23-3.21,.8-.9,1.59-1.65,2.31-2.2,.72-.56,1.33-.96,1.78-1.2,.45-.24,.7-.36,.72-.33Z"/>
        </g>
      </g>
    </g>
  </g>
  <g id="Character_2" data-name="Character 2">
    <g>
      <path class="cls-4" d="M18.6,204.32s-7.2,40.03-6.85,43.77c.35,3.74,2.26,9.7,6.6,10.72,4.34,1.02,8.34,0,8.34,0l-5.21-49.16-2.88-5.32Z"/>
      <g>
        <g>
          <path class="cls-4" d="M39.61,170.13l-.5-41.36c-.46-10.28,5.14-19.13,15.44-19.3l.95,.04c9.58,.4,17.26,8.08,17.63,17.66,.35,8.92,.62,18.77,.37,23.54-.53,9.86-10.46,10.99-10.46,10.99-.02,0-.06,6.01-.06,8.9l-7.94,11.02v.59s-15.42-12.09-15.42-12.09Z"/>
          <path class="cls-6" d="M63.02,161.7s-6.24,.11-12.69-4.33c0,0,2.79,7.55,12.67,7.07l.02-2.74Z"/>
          <path class="cls-10" d="M69.98,135.69c0,.75-.64,1.36-1.42,1.37-.78,0-1.4-.59-1.4-1.33s.64-1.36,1.42-1.37c.78,0,1.41,.59,1.4,1.33Z"/>
          <path class="cls-10" d="M70.85,131.45c-.18,.18-1.22-.66-2.73-.72-1.51-.08-2.66,.65-2.82,.46-.08-.09,.11-.41,.61-.74,.49-.33,1.32-.64,2.26-.6,.94,.04,1.72,.43,2.17,.8,.45,.38,.6,.72,.51,.79Z"/>
          <path class="cls-10" d="M56.43,135.69c0,.75-.64,1.36-1.42,1.37-.78,0-1.41-.59-1.4-1.33,0-.75,.64-1.36,1.42-1.37,.78,0,1.41,.59,1.4,1.33Z"/>
          <path class="cls-10" d="M55.96,131.18c-.18,.18-1.22-.66-2.74-.72-1.51-.08-2.66,.65-2.82,.46-.08-.09,.11-.41,.61-.74,.49-.33,1.32-.64,2.26-.6,.95,.04,1.72,.43,2.17,.8,.45,.38,.6,.72,.51,.8Z"/>
          <path class="cls-10" d="M60.92,143.06c0-.09,.95-.21,2.48-.34,.39-.02,.76-.09,.83-.35,.1-.28-.04-.7-.21-1.16-.33-.95-.67-1.95-1.02-3-1.42-4.26-2.43-7.76-2.25-7.82,.17-.06,1.46,3.36,2.88,7.62,.34,1.05,.67,2.05,.97,3.01,.13,.45,.36,.96,.14,1.53-.12,.29-.41,.48-.66,.54-.25,.07-.47,.06-.66,.06-1.54,.02-2.5-.01-2.5-.1Z"/>
          <path class="cls-10" d="M56.65,126.46c-.22,.38-1.68-.09-3.47-.2-1.79-.15-3.3,.1-3.46-.3-.07-.19,.25-.53,.89-.82,.64-.29,1.61-.49,2.68-.42,1.07,.08,2,.42,2.59,.8,.6,.38,.86,.76,.76,.94Z"/>
          <path class="cls-10" d="M71.1,126.99c-.32,.34-1.55-.05-3.04-.11-1.48-.1-2.75,.16-3.03-.21-.12-.18,.09-.52,.64-.83,.55-.31,1.46-.55,2.48-.5,1.02,.05,1.9,.39,2.4,.76,.52,.37,.68,.73,.53,.89Z"/>
          <path class="cls-4" d="M39.61,136.11c-.17-.08-6.7-2.29-6.76,4.47-.06,6.76,6.73,5.43,6.75,5.23,.01-.19,.01-9.7,.01-9.7Z"/>
          <path class="cls-6" d="M37.55,143.24s-.12,.08-.32,.17c-.19,.09-.53,.14-.88,0-.71-.27-1.3-1.41-1.32-2.63-.01-.61,.12-1.2,.34-1.68,.21-.49,.53-.83,.89-.9,.36-.08,.61,.14,.69,.33,.09,.19,.04,.32,.08,.34,.02,.02,.15-.11,.09-.39-.03-.13-.1-.3-.26-.43-.16-.13-.4-.2-.65-.18-.52,.03-.99,.51-1.24,1.04-.27,.53-.44,1.19-.43,1.88,.03,1.36,.72,2.64,1.69,2.93,.47,.13,.87-.01,1.08-.17,.21-.17,.25-.32,.23-.33Z"/>
          <path class="cls-10" d="M56.16,144c.23-.01,.24,1.54,1.58,2.63,1.33,1.1,2.98,.92,3,1.13,.02,.1-.37,.3-1.07,.33-.69,.03-1.69-.19-2.5-.86-.81-.67-1.17-1.57-1.22-2.21-.06-.65,.11-1.03,.22-1.03Z"/>
        </g>
        <g>
          <path class="cls-10" d="M86.76,118.28c-.1-.4-.39-.73-.74-.94-.77-.47-1.66-.42-2.52-.44-2.14-.06-4.26-.63-6.16-1.62,.67-.33,1.3-.73,1.83-1.26,1.1-1.08,1.75-2.74,1.27-4.2-.09-.27-.25-.56-.52-.65-.44-.14-.83,.29-1.14,.63-1.02,1.11-1.95,1.59-3.45,1.42-.93-.1-1.83-.32-2.56-.79-.03-.03-.05-.06-.08-.09-.35-.37-.69-.72-1.02-1.06,0,0,0,0,0,0h0c-2.51-2.55-4.68-4.32-6.92-5.25-3.28-1.37-8.79-1.97-12.24-1.1-3.45,.86-6.57,3.62-7.09,7.14-1.91-1.65-4.81-1.67-7.17-.75l-.06-.03c-2.63,.9-4.14,3.65-4.95,6.31-.04,.15-.08,.29-.12,.44-.9,1.39-2.12,2.58-3.56,3.4-.25,.14-.55,.32-.58,.61-.03,.29,.21,.53,.44,.7,.62,.46,1.35,.76,2.11,.9-.25,.63-.53,1.24-.89,1.83-.3,.5-.66,1.09-.41,1.62,.2,.4,.7,.58,1.15,.52s.84-.3,1.22-.54c-.3,.69-.6,1.39-.9,2.09,.95,.18,1.93,.11,2.85-.16,.53,2.5,.89,7.13,1.52,8.82,1.79,.05,2.23-.14,3.13,.17,1.16,.4,.7,2.47,2.23,1.9,.78-.29,2-3.22,2.27-4,1.78-5.22,2.42-10.83,1.86-16.31,1.1-1.14,2.42-2.07,3.86-2.72l-.12,.1c2.77-.93,5.91-1.84,8.52-.51,2.02,1.03,3.19,3.15,4.69,4.85,2.84,3.22,6.09,4.96,10.38,5.2,.35,2.99,.41,7.87,.53,10.65l2.44-5.54v.02c.2-.32,.36-.65,.52-.98l.05-.1h0c.25-.54,.49-1.07,.8-1.59,0,0,.02,.02,.03,.02,1.49,1.35,3.74-.66,2.57-2.3-.23-.32-.51-.61-.83-.85,.68,.65,1.71,.98,2.61,.71s1.62-1.17,1.55-2.12c-.05-.64-.5-1.22-1.08-1.48,1.22,.11,2.47-.14,3.53-.74,.7-.39,1.39-1.03,1.17-1.91Z"/>
          <path class="cls-9" d="M48.5,111.22s-.42,.26-1,.9c-.58,.64-1.23,1.75-1.55,3.27-.16,.75-.27,1.6-.28,2.51-.01,.91,.05,1.89,.11,2.92,.05,1.03,.12,2.11,.04,3.24-.04,.56-.11,1.14-.24,1.71-.13,.56-.29,1.17-.72,1.65-.34,.39-.91,.56-1.4,.45-.49-.09-.93-.36-1.25-.72-.63-.75-.78-1.69-.92-2.53l.21,.03c-.35,.74-.7,1.47-1.23,2.06-.51,.59-1.22,.97-1.94,1.03-.36,.03-.71-.03-1.02-.19-.31-.16-.53-.42-.69-.69-.14-.28-.22-.59-.2-.88,.02-.29,.14-.57,.33-.77l.1,.09c-.77,.86-1.58,1.32-2.14,1.57-.28,.13-.51,.2-.66,.25-.15,.04-.23,.06-.24,.06,0,0,.08-.04,.22-.09,.15-.06,.37-.14,.64-.28,.54-.27,1.33-.74,2.07-1.59l.1,.09c-.34,.35-.36,.97-.08,1.47,.14,.25,.35,.48,.62,.61,.27,.14,.6,.19,.92,.16,.66-.06,1.32-.42,1.8-.98,.49-.56,.84-1.27,1.18-2.01l.15-.32,.06,.34c.15,.83,.31,1.74,.88,2.41,.28,.32,.69,.57,1.12,.65,.43,.09,.89-.05,1.19-.38,.38-.41,.53-.99,.66-1.55,.13-.56,.2-1.12,.24-1.67,.08-1.11,.02-2.19-.02-3.22-.05-1.03-.11-2.01-.09-2.93,.02-.92,.14-1.78,.31-2.54,.35-1.54,1.04-2.66,1.65-3.29,.62-.63,1.07-.83,1.07-.83Z"/>
          <path class="cls-9" d="M78.98,121.19s-.02,.03-.08,.07c-.07,.05-.15,.11-.25,.18-.11,.08-.25,.17-.42,.26-.17,.1-.37,.21-.6,.31-.92,.43-2.4,.84-4.24,.71-1.82-.12-4-.79-5.94-2.27-1.96-1.44-3.67-3.56-5.06-5.97-.71-1.21-1.28-2.44-1.91-3.58-.63-1.14-1.33-2.2-2.18-3.04-.84-.84-1.82-1.47-2.83-1.76-.5-.16-1.01-.2-1.5-.19-.49,.02-.95,.11-1.38,.25-.86,.28-1.55,.74-2.08,1.22-.53,.48-.89,.99-1.13,1.43-.46,.9-.49,1.49-.53,1.48,0,0,0-.04,0-.1,.01-.08,.03-.18,.05-.3,.05-.26,.17-.65,.39-1.11,.24-.45,.59-.99,1.12-1.49,.53-.5,1.23-.98,2.11-1.28,.44-.14,.92-.25,1.42-.27,.5-.01,1.04,.03,1.56,.18,1.05,.3,2.06,.94,2.93,1.79,.87,.85,1.59,1.93,2.22,3.08,.64,1.15,1.21,2.38,1.91,3.57,1.38,2.39,3.06,4.48,4.99,5.91,1.9,1.46,4.03,2.14,5.83,2.28,1.81,.15,3.27-.24,4.19-.63,.93-.4,1.38-.76,1.39-.73Z"/>
          <path class="cls-9" d="M79.93,116.85s-.12,.1-.36,.24c-.24,.15-.6,.33-1.06,.52-.46,.2-1.03,.38-1.67,.53-.65,.14-1.37,.24-2.13,.26-.76,.01-1.49-.06-2.14-.17-.65-.12-1.22-.28-1.69-.46-.47-.17-.84-.34-1.08-.48-.24-.13-.37-.21-.37-.23,.02-.04,.56,.25,1.5,.55,.47,.16,1.03,.29,1.67,.4,.64,.1,1.35,.16,2.1,.15,.75-.02,1.45-.11,2.09-.23,.63-.14,1.2-.3,1.65-.47,.92-.34,1.45-.65,1.47-.61Z"/>
        </g>
      </g>
      <g>
        <g>
          <g>
            <g>
              <path class="cls-9" d="M54.07,430.81l-.98,22.34s22.38,8.49,22.6,12.64l-43.38-.34,.09-34.87,21.66,.23Z"/>
              <path class="cls-7" d="M39.69,451.16c-.84,.22-1.43,1.16-1.24,2.01,.19,.85,1.14,1.46,1.98,1.25s1.59-1.31,1.3-2.14-1.44-1.47-2.21-1.07"/>
              <g class="cls-13">
                <path class="cls-3" d="M32.31,465.45l.15-3.51,41.53,1.64s1.93,.86,1.7,2.21l-43.38-.34Z"/>
              </g>
              <path class="cls-10" d="M53.8,452.93c0,.21-1.07,.3-2.12,.97-1.07,.65-1.61,1.56-1.8,1.47-.2-.04,.13-1.31,1.41-2.1,1.28-.8,2.55-.54,2.51-.35Z"/>
              <path class="cls-10" d="M58.33,454.85c.05,.21-.87,.56-1.6,1.45-.75,.87-.94,1.84-1.15,1.83-.2,.03-.34-1.21,.59-2.3,.91-1.1,2.16-1.18,2.16-.98Z"/>
              <path class="cls-10" d="M60.87,460.31c-.19,.04-.48-1.02,.07-2.17,.54-1.16,1.55-1.61,1.63-1.43,.12,.17-.53,.79-.97,1.75-.46,.95-.53,1.84-.74,1.86Z"/>
              <path class="cls-10" d="M53.45,447.81c-.09,.19-1.06-.11-2.26-.04-1.2,.05-2.13,.44-2.24,.26-.12-.15,.79-.93,2.21-1,1.41-.08,2.4,.6,2.29,.77Z"/>
            </g>
            <path class="cls-10" d="M54.01,447.56c.11,0,.12,2.07,.06,5.38l-.17-.26c2.53,.96,5.9,2.26,9.48,3.95,3.92,1.83,7.37,3.75,9.61,5.54,1.12,.88,1.95,1.72,2.38,2.42,.45,.7,.39,1.23,.32,1.2-.03,0-.06-.44-.55-1.04-.47-.61-1.32-1.36-2.45-2.17-2.26-1.64-5.72-3.47-9.61-5.29-3.56-1.68-6.89-3.03-9.37-4.1l-.18-.08v-.19c.21-3.3,.39-5.36,.5-5.36Z"/>
          </g>
          <g>
            <path class="cls-10" d="M26.02,275.05v20.24l7.99,64.64s-2.53,30.32-4.09,47.43c-1.35,14.86,.86,40.74,.86,40.74h23.68l8.47-86.32,5.26-53.83,9.54-31.89-51.7-1.03Z"/>
            <g>
              <path class="cls-9" d="M67.99,426.93l-6.2,21.48s19.75,13.52,18.99,17.6l-42.08-10.53,8.29-33.87,21,5.32Z"/>
              <path class="cls-7" d="M49.23,443.33c-.87,.02-1.66,.79-1.68,1.66-.02,.87,.76,1.68,1.63,1.68,.87,0,1.85-.9,1.77-1.77-.08-.87-1.05-1.77-1.89-1.56"/>
              <g class="cls-13">
                <path class="cls-3" d="M38.7,455.48l.97-3.38,39.99,11.36s1.67,1.28,1.13,2.55l-42.08-10.53Z"/>
              </g>
              <path class="cls-10" d="M62.52,448.37c-.06,.2-1.11,.04-2.28,.45-1.19,.38-1.93,1.14-2.1,1.01-.18-.09,.43-1.24,1.87-1.71,1.43-.48,2.61,.08,2.52,.25Z"/>
              <path class="cls-10" d="M66.48,451.3c0,.21-.98,.34-1.9,1.03-.94,.67-1.35,1.56-1.55,1.5-.2-.02-.04-1.25,1.11-2.1,1.15-.85,2.38-.63,2.33-.44Z"/>
              <path class="cls-10" d="M67.67,457.21c-.2,0-.23-1.1,.58-2.09,.8-1,1.88-1.2,1.93-1.01,.07,.2-.7,.65-1.35,1.47-.67,.81-.95,1.66-1.16,1.63Z"/>
              <path class="cls-10" d="M63.39,443.32c-.13,.17-1-.35-2.19-.56-1.18-.24-2.18-.07-2.24-.27-.08-.18,.99-.72,2.38-.45,1.39,.26,2.19,1.15,2.05,1.29Z"/>
            </g>
            <polygon class="cls-10" points="86.86 276.43 87.95 287.44 86.63 367.39 67.9 431.61 63.36 447.19 39.17 442.63 57.81 276.46 86.86 276.43"/>
          </g>
        </g>
        <path class="cls-9" d="M86.13,369.07s-.03,.13-.09,.38c-.07,.26-.17,.63-.3,1.11-.28,.99-.69,2.43-1.22,4.3-1.08,3.77-2.66,9.24-4.64,16.15-4.01,13.83-9.67,33.36-16.31,56.25l-.05,.18-.19-.04c-7.65-1.44-15.77-2.96-24.19-4.54l-.22-.04,.04-.22c1.23-6.52,2.52-13.33,3.84-20.27,3.91-20.56,7.59-39.96,10.81-56.91v.07c-4.01-25.14-7.2-45.19-9.03-56.7v.03c-1.75-3.2-3.1-5.67-4.03-7.35-.45-.83-.79-1.46-1.03-1.9-.23-.43-.34-.65-.34-.65,0,0,.13,.21,.38,.63,.25,.43,.6,1.06,1.07,1.88,.94,1.67,2.32,4.12,4.12,7.31h0s0,.03,0,.03c1.88,11.5,5.15,31.54,9.25,56.67v.04s0,.04,0,.04c-3.2,16.95-6.87,36.35-10.76,56.92-1.32,6.94-2.61,13.75-3.84,20.27l-.18-.26c8.41,1.59,16.54,3.12,24.18,4.57l-.24,.15c6.7-22.87,12.42-42.38,16.47-56.2,2.04-6.89,3.65-12.35,4.76-16.11,.56-1.86,.99-3.3,1.28-4.28,.15-.48,.26-.84,.34-1.1,.08-.25,.13-.37,.13-.37Z"/>
        <path class="cls-9" d="M82.51,282.99s-.39,.82-1.32,1.93c-.92,1.11-2.4,2.51-4.3,3.67-1.9,1.15-3.82,1.83-5.23,2.14-1.42,.32-2.32,.33-2.32,.28-.04-.15,3.59-.51,7.31-2.81,3.75-2.25,5.73-5.32,5.85-5.21Z"/>
      </g>
      <g>
        <g>
          <path class="cls-4" d="M134.05,162.36c.31-.45,.23-1.09-.23-1.41-.12-.08-.24-.13-.36-.11-.48,.08-1.76,1.01-2.74,1.03-.98,.02-2.65-.28-3.63,.63s-3.37,5.91-3.68,6.99c-.3,1.08-1.37,10.61-1.37,10.61l12-17.74Z"/>
          <path class="cls-10" d="M138.19,161.11c-.05,.06-11.74,5.22-16.87,7.48-1.14,.5-1.4,1.99-.5,2.86h0c.56,.54,1.4,.67,2.09,.33l16.77-8.17,1.38-2.1-2.87-.4Z"/>
          <path class="cls-4" d="M125.82,171.62l3.73-2.74,4.92-7.14s2.01-1.2,3.06-.44c1.04,.75,1.38,1.63,.9,2.6,0,0,2.78,.66,2.98,1.59s-.4,3.19-.4,3.19c0,0,.41,1.74,.02,2.66-.39,.92-.35,1.72-.35,1.72,0,0,1.8,2.2,1.03,4.46s-4.02,7.28-5.76,8.58c-1.74,1.3-5.03,2.86-5.03,2.86l-2.15,4.5-8.91-8.07,5.96-13.76Z"/>
          <path class="cls-6" d="M134.31,162.05s-.07,.14-.22,.39c-.18,.27-.4,.61-.66,1.01-.57,.85-1.36,2.01-2.25,3.3-.44,.64-.87,1.25-1.26,1.8-.2,.28-.41,.53-.64,.73s-.48,.35-.71,.46c-.47,.22-.88,.32-1.15,.39-.28,.07-.43,.09-.44,.08,0-.01,.15-.06,.42-.15,.27-.09,.67-.21,1.12-.43,.96-.4,1.6-1.74,2.52-2.99,.89-1.28,1.7-2.44,2.29-3.27,.28-.39,.52-.72,.71-.98,.17-.23,.27-.35,.28-.34Z"/>
          <path class="cls-6" d="M135.45,169.47s.6-1.28,1.44-2.81,1.55-2.74,1.59-2.72-.6,1.28-1.44,2.81c-.84,1.53-1.55,2.74-1.59,2.72Z"/>
          <path class="cls-6" d="M136.62,173.93s-.04-.16-.13-.39c-.09-.23-.27-.53-.58-.75-.31-.21-.65-.28-.9-.29-.25,0-.41,.03-.41,0,0-.02,.14-.11,.41-.13,.27-.03,.66,.03,1.01,.27,.35,.24,.54,.6,.6,.86,.07,.26,.03,.43,0,.43Z"/>
          <path class="cls-6" d="M140.76,175.27s-.16-.08-.37-.25c-.21-.17-.51-.4-.87-.57-.36-.17-.74-.22-.98-.16-.26,.05-.35,.2-.37,.19-.03,0,.04-.22,.33-.31,.28-.1,.7-.06,1.09,.12,.4,.18,.69,.45,.88,.64,.19,.2,.3,.33,.28,.35Z"/>
          <path class="cls-6" d="M139.16,171.51s.32-.68,.82-1.46c.49-.78,.93-1.39,.97-1.36,.04,.03-.32,.68-.82,1.46s-.93,1.39-.97,1.36Z"/>
          <path class="cls-6" d="M132.02,171.84s-.02-.15-.09-.38c-.07-.22-.22-.52-.5-.72-.28-.2-.61-.26-.84-.26-.23,0-.38,.05-.39,.02,0-.02,.12-.11,.38-.15,.25-.04,.63,0,.96,.24,.33,.24,.48,.59,.52,.84,.04,.26-.01,.41-.03,.41Z"/>
          <path class="cls-9" d="M122.28,171.82s.16-.16,.32-.47c.16-.3,.28-.81,.09-1.29-.19-.49-.61-.79-.93-.92-.32-.13-.55-.13-.55-.16,0-.02,.23-.07,.59,.04,.35,.1,.83,.42,1.05,.97,.22,.56,.06,1.12-.15,1.42-.21,.32-.43,.43-.43,.41Z"/>
        </g>
        <g>
          <path class="cls-4" d="M90.95,194.36l14.13,12.09,17.35-25.92,11.28,6.65s-16.91,38.92-21.49,42.36c-4.58,3.44-8.45,2.55-14.34-.18s-26.89-23.86-26.89-23.86l19.96-11.15Z"/>
          <path class="cls-6" d="M105.58,217.21c-.14-.02,.25-2.46,.08-5.48-.15-3.02-.79-5.41-.66-5.44,.1-.04,.96,2.34,1.11,5.42,.17,3.08-.42,5.54-.53,5.51Z"/>
        </g>
      </g>
      <g>
        <path class="cls-11" d="M33.27,174.57s12.01,.17,12.19,15.15c.17,14.97-3.06,35-3.06,35l-30.66-5.4s3.8-27.88,7.05-35.91c3.27-8.08,9.51-10.2,14.48-8.84Z"/>
        <path class="cls-11" d="M38.97,163.79l-.38,2.44s-16.39,10.83-17.32,13.62c-1.44,4.33,1.7,40.94,3.08,51.32,1.38,10.37,1.66,33.24,1.66,33.24-1.01,2.69-2.15,5.12-2.53,8.88-.38,3.73,2.53,7.13,2.53,7.13,17.58,5.74,39.07,1.33,62.31-3.96l-.22-6.59-7.6-71.57s2.21-18.6-6.86-23.99c-1-.59-8.91-5.09-8.91-5.09l-25.76-5.43Z"/>
        <g class="cls-12">
          <path d="M65.33,194.82s-.14,10.3,5.4,22.08c5.54,11.78,13.79,19.13,13.79,19.13l-2.46-21.41-16.73-19.79Z"/>
        </g>
        <g>
          <path class="cls-11" d="M79.09,176.75c-2.87-2.32-8.22-3.59-11.27-1.5-1.36,.93-2.94,2.33-3.7,4.55-2.6,7.61-1.05,15.79,1.04,21.86,2.08,6.07,12.15,17.77,12.15,17.77l24.86-15.09s-16.64-20.17-18.38-22.25c-.9-1.09-3.11-4.05-4.7-5.34Z"/>
          <path class="cls-10" d="M79.09,176.75s.2,.12,.53,.42c.33,.29,.8,.76,1.37,1.39,1.15,1.27,2.67,3.25,4.72,5.66,4.06,4.89,9.81,11.8,16.62,20l.15,.18-.2,.12c-7.04,4.28-15.04,9.14-23.49,14.29-.47,.28-.93,.56-1.36,.83l-.17,.1-.12-.15c-2.78-3.29-5.36-6.59-7.68-9.91-1.16-1.66-2.24-3.33-3.17-5.05-.46-.86-.89-1.73-1.22-2.64-.33-.9-.6-1.8-.86-2.69-2.08-7.14-2.13-14.15-.24-19.48,.45-1.36,1.26-2.49,2.18-3.38,.93-.86,1.9-1.62,3-1.97,1.08-.35,2.14-.42,3.09-.37,.96,.05,1.82,.22,2.58,.44,1.52,.42,2.59,1.02,3.29,1.45,.7,.44,1,.75,1,.75-.02,.03-.34-.26-1.05-.68-.7-.41-1.78-.98-3.29-1.36-.75-.2-1.6-.36-2.54-.39-.94-.04-1.97,.04-3,.39-1.03,.34-1.98,1.09-2.88,1.93-.88,.87-1.65,1.97-2.08,3.27-1.83,5.27-1.75,12.18,.33,19.26,.26,.88,.53,1.78,.86,2.66,.33,.87,.74,1.73,1.2,2.58,.92,1.7,2,3.35,3.16,5.01,2.31,3.3,4.9,6.6,7.66,9.87l-.29-.05c.43-.26,.89-.54,1.36-.83,8.46-5.13,16.47-9.98,23.52-14.25l-.05,.31c-6.76-8.24-12.46-15.19-16.49-20.1-2.02-2.43-3.52-4.44-4.63-5.73-.55-.65-1-1.12-1.32-1.43-.31-.31-.49-.46-.48-.47Z"/>
        </g>
        <path class="cls-10" d="M20.95,188.15s.04,.15,.07,.43c.03,.34,.07,.75,.12,1.25,.08,1.16,.2,2.71,.33,4.6,.25,3.95,.59,9.28,.96,15.17,.39,5.93,.79,11.28,1.15,15.16,.17,1.88,.32,3.43,.43,4.59,.04,.5,.08,.91,.11,1.25,.02,.29,.02,.44,0,.44-.02,0-.05-.15-.1-.43-.05-.34-.12-.74-.19-1.24-.16-1.08-.36-2.64-.57-4.58-.43-3.87-.89-9.23-1.28-15.16-.39-5.93-.65-11.3-.83-15.18-.08-1.89-.14-3.45-.19-4.6-.01-.5-.02-.91-.03-1.25,0-.29,0-.44,.02-.44Z"/>
        <path class="cls-10" d="M75.93,275.05s-.16,.06-.46,.14c-.36,.09-.8,.19-1.34,.33-.58,.14-1.3,.29-2.14,.45-.84,.17-1.79,.35-2.85,.51-2.11,.36-4.65,.66-7.48,.93-2.83,.24-5.94,.41-9.21,.45-3.27,.02-6.39-.09-9.22-.28-2.83-.23-5.37-.48-7.49-.83-1.06-.15-2.02-.32-2.85-.48-.84-.15-1.56-.3-2.14-.44-.54-.13-.99-.24-1.34-.32-.31-.08-.46-.13-.46-.14,0-.02,.17,0,.48,.05,.36,.06,.81,.14,1.36,.24,.59,.12,1.31,.24,2.15,.36,.84,.14,1.79,.29,2.85,.41,2.12,.3,4.65,.52,7.47,.73,2.82,.16,5.93,.26,9.19,.24,3.26-.04,6.36-.2,9.18-.41,2.81-.25,5.35-.51,7.46-.83,1.06-.14,2.01-.3,2.85-.44,.84-.13,1.56-.26,2.15-.37,.55-.1,1-.18,1.36-.24,.31-.05,.48-.07,.48-.05Z"/>
      </g>
    </g>
  </g>
</svg>