<?xml version="1.0" encoding="UTF-8"?>
<svg id="Layer_1" data-name="Layer 1" xmlns="http://www.w3.org/2000/svg" viewBox="0 0 819.11 764.33">
  <defs>
    <style>
      .cls-1 {
        fill: #f7a18a;
      }

      .cls-2 {
        fill: #008454;
      }

      .cls-3 {
        fill: #008960;
      }

      .cls-4 {
        fill: #fff;
      }

      .cls-5 {
        fill: #f3888a;
      }

      .cls-6 {
        fill: #ef4623;
      }

      .cls-7 {
        fill: #fbc5a9;
      }

      .cls-8 {
        fill: #8f3215;
      }

      .cls-9 {
        fill: #d8dee8;
      }

      .cls-10 {
        fill: #dceee0;
      }

      .cls-11 {
        fill: #253a3f;
      }

      .cls-12 {
        fill: #141ea4;
      }

      .cls-13 {
        fill: #1b2f35;
      }

      .cls-14 {
        fill: #17b883;
      }

      .cls-15 {
        fill: #0f1e21;
      }

      .cls-16 {
        fill: #3e2312;
      }

      .cls-17 {
        fill: #5b1e13;
      }

      .cls-18 {
        fill: #5cbb61;
      }

      .cls-19 {
        fill: #62200d;
      }

      .cls-20 {
        opacity: .5;
      }
    </style>
  </defs>
  <path class="cls-13" d="M660.73,335.18c-15.84-17.52-16.44-30.93-8.02-37.51,8.88-6.94,22.26-3.13,27.41-1.26,3.98-3.24,7.39-3.96,7.39-3.96,0,0,25.38-4.27,30.95,22.67,5.59,26.95,2.14,28.15,20.53,31.6,29.28,5.51,62.34,18.01,63.33,50.28l-8.43,5.2c-2.11-5.36-5.93-12.23-12.54-16.29,0,0,2.98,10.73,3.62,21.8l-31.99,10.07s-7.9-33.09-36.75-29.17c-14.7,2-25.97-3.39-33.92-12.56-40.63-13.99-15.6-34.23-21.6-40.87Z"/>
  <g>
    <path class="cls-18" d="M576.67,150.48c-17.73,0-32.24,14.51-32.24,32.24v360.44c0,17.73,14.51,32.24,32.24,32.24s32.24-14.51,32.24-32.24V182.72c0-17.73-14.51-32.24-32.24-32.24Z"/>
    <g>
      <path class="cls-15" d="M141.4,213.95h494.34c7.24,0,13.11,5.88,13.11,13.11v337.22c0,7.24-5.88,13.11-13.11,13.11H141.4c-7.24,0-13.11-5.88-13.11-13.11V227.07c0-7.24,5.88-13.11,13.11-13.11Z"/>
      <path class="cls-13" d="M130.7,213.95h494.34c7.24,0,13.11,5.88,13.11,13.11v337.22c0,7.24-5.88,13.11-13.11,13.11H130.7c-7.24,0-13.11-5.88-13.11-13.11V227.07c0-7.24,5.88-13.11,13.11-13.11Z"/>
      <rect class="cls-13" x="290.89" y="577.4" width="173.96" height="58.97"/>
      <path class="cls-15" d="M477.88,636.38h-200.02c-9.53,0-18.39,4.88-23.48,12.94l-7.64,12.1H509l-7.64-12.1c-5.09-8.06-13.95-12.94-23.48-12.94Z"/>
      <rect class="cls-4" x="136.74" y="231.6" width="481.95" height="264.76"/>
      <polygon class="cls-13" points="290.89 616.65 464.85 596.76 464.85 577.4 290.89 577.4 290.89 616.65"/>
      <rect class="cls-4" x="117.58" y="517.41" width="520.48" height="6.79"/>
    </g>
    <path class="cls-10" d="M204.91,184.47V496.35h339.52V184.47c0-18.7,14.51-33.99,32.24-33.99H237.15c-17.73,0-32.24,15.3-32.24,33.99Z"/>
    <g>
      <rect class="cls-18" x="233.34" y="193.3" width="282.41" height="17.65"/>
      <rect class="cls-18" x="233.34" y="433.54" width="282.41" height="46.09"/>
      <g>
        <rect class="cls-4" x="411.81" y="239.38" width="103.94" height="5.88"/>
        <rect class="cls-4" x="411.81" y="256.05" width="103.94" height="5.88"/>
        <rect class="cls-4" x="411.81" y="272.72" width="103.94" height="5.88"/>
        <rect class="cls-4" x="411.81" y="289.39" width="103.94" height="5.88"/>
        <rect class="cls-4" x="411.81" y="306.07" width="103.94" height="5.88"/>
        <rect class="cls-4" x="411.81" y="322.73" width="103.94" height="5.88"/>
        <rect class="cls-4" x="411.81" y="339.41" width="103.94" height="5.88"/>
        <rect class="cls-4" x="411.81" y="356.08" width="103.94" height="5.88"/>
        <rect class="cls-4" x="411.81" y="372.75" width="103.94" height="5.88"/>
        <rect class="cls-4" x="411.81" y="389.42" width="103.94" height="5.88"/>
        <rect class="cls-4" x="411.81" y="406.09" width="103.94" height="5.88"/>
      </g>
      <g>
        <circle class="cls-18" cx="309.76" cy="319.3" r="87.34" transform="translate(-120.5 432.37) rotate(-60.59)"/>
        <g>
          <polygon class="cls-10" points="284.26 350.44 284.26 368.25 291.69 368.25 288.58 350.44 284.26 350.44"/>
          <path class="cls-4" d="M259.37,291.14c-11.98,0-21.79,9.8-21.79,21.79v6.37c0,11.98,9.8,21.79,21.79,21.79s21.79-9.8,21.79-21.79v-6.37c0-11.98-9.8-21.79-21.79-21.79Z"/>
          <path class="cls-4" d="M269.19,388.11c.36,1.7,1.86,2.92,3.6,2.92h9.79c2.03,0,3.67-1.64,3.67-3.67v-47h-27.06l10,47.75Z"/>
          <path class="cls-10" d="M353.65,292.57h-14.03c-12.94,0-23.53,10.59-23.53,23.53s10.59,23.53,23.53,23.53h14.03c12.94,0,23.53-10.59,23.53-23.53s-10.59-23.53-23.53-23.53Z"/>
          <rect class="cls-13" x="258.44" y="290.96" width="47.31" height="50.3"/>
          <polygon class="cls-4" points="305.75 341.25 359.17 366.64 359.17 265.57 305.75 290.96 305.75 341.25"/>
          <path class="cls-10" d="M362.69,262.49c-1.94,0-3.53,1.59-3.53,3.53v100.18c0,1.94,1.59,3.53,3.53,3.53s3.53-1.59,3.53-3.53v-100.18c0-1.94-1.59-3.53-3.53-3.53Z"/>
          <path class="cls-10" d="M269.11,303.47h24.06c1.26,0,2.29,1.02,2.29,2.29v.59c0,1.26-1.02,2.29-2.29,2.29h-24.06c-1.26,0-2.29-1.02-2.29-2.29v-.59c0-1.26,1.02-2.29,2.29-2.29Z"/>
          <path class="cls-10" d="M269.11,312.73h24.06c1.26,0,2.29,1.02,2.29,2.29v.59c0,1.26-1.02,2.29-2.29,2.29h-24.06c-1.26,0-2.29-1.02-2.29-2.29v-.59c0-1.26,1.02-2.29,2.29-2.29Z"/>
          <path class="cls-10" d="M269.11,321.99h24.06c1.26,0,2.29,1.02,2.29,2.29v.59c0,1.26-1.02,2.29-2.29,2.29h-24.06c-1.26,0-2.29-1.02-2.29-2.29v-.59c0-1.26,1.02-2.29,2.29-2.29Z"/>
          <path class="cls-10" d="M237.59,304.71c-1.23,0-2.24,1.01-2.24,2.24v18.68c0,1.23,1.01,2.24,2.24,2.24s2.24-1.01,2.24-2.24v-18.68c0-1.23-1.01-2.24-2.24-2.24Z"/>
          <path class="cls-13" d="M377.18,307.12c-1.22,0-2.22,1-2.22,2.22v13.51c0,1.22,1,2.22,2.22,2.22s2.22-1,2.22-2.22v-13.51c0-1.22-1-2.22-2.22-2.22Z"/>
        </g>
      </g>
    </g>
  </g>
  <g>
    <g>
      <path class="cls-15" d="M719.8,637.12h-101.95c-2.38,0-4.32-1.99-4.32-4.43s1.93-4.43,4.32-4.43h101.95c2.38,0,4.32,1.98,4.32,4.43s-1.93,4.43-4.32,4.43Z"/>
      <path class="cls-15" d="M608.34,701.27c-.2,0-.39-.01-.59-.04-2.43-.3-4.13-2.39-3.81-4.67l19.07-133.32c.3-2.06,2.17-3.6,4.39-3.6h85.4c2.22,0,4.11,1.54,4.4,3.61l18.77,133.32c.32,2.27-1.39,4.36-3.82,4.66-2.43,.3-4.66-1.3-4.98-3.57l-18.26-129.71h-77.63l-18.55,129.72c-.3,2.09-2.2,3.6-4.39,3.6Z"/>
      <path class="cls-15" d="M623.1,561.92h85.75c17.57,0,35.13-13.5,37.83-30.87,3.61-23.22,4.5-45.7,3.49-66.34-1.14-23.34-13.11-45.05-31.46-59.52h0s10.2,115.22,3.68,114.92c-6.52-.3-129.65,31.89-99.3,41.8Z"/>
    </g>
    <g>
      <g>
        <path class="cls-7" d="M662.72,385.96s-21.48,58.28-28.95,67.73c-7.47,9.45-47.39,23.07-47.39,23.07l-19.93-3.84s39.56-36.05,47.56-37.9l29.76-58.11,18.94,9.05Z"/>
        <path class="cls-1" d="M622.1,435.91c-1.47-.26-2.97-.39-4.46-.38-.69,0-.66,1.08,.03,1.08,1.41-.01,2.8,.1,4.19,.35,.68,.12,.92-.93,.24-1.05h0Z"/>
        <path class="cls-1" d="M614.75,434.78c3.29,.73,6.08,2.57,8.03,5.32,.4,.56-.49,1.15-.88,.59-1.79-2.53-4.33-4.2-7.35-4.87-.67-.15-.46-1.19,.21-1.04h0Z"/>
      </g>
      <g>
        <g>
          <g>
            <path class="cls-7" d="M641.61,501.24c1.56,.43,3.11,.82,4.64,1.2,.64,.16,1.28,.31,1.92,.46,25.1,5.82,46.9,5.01,60.68,3.33,.67-.08,1.33-.16,1.96-.25,8.07-1.09,12.96-2.4,13.55-2.57,.02,0,.04-.01,.06-.02-1.34-6.01-1.94-8.71-2.29-14.74-.09-1.68-.16-3.31-.21-4.86h0c-.09-2.9-.11-5.52-.09-7.7v-.12s0,0,0,0c.01-1.46,.03-2.71,.06-3.69-9.61-1.82-27.34-5.01-43.78-7.04-11.92-1.47-23.16-2.34-30.13-1.64l-.4,2.59-.59,3.82-.5,2.86-1.08,6.26-3.75,21.6-.08,.48Z"/>
            <path class="cls-10" d="M722.32,491.12s-54.61,6.49-77.83-7.53c0,0-5.04,23.15-4.6,29.29,1.06,14.72,83.49,11.46,85.57-2.93,.92-6.35-3.14-18.83-3.14-18.83Z"/>
            <path class="cls-12" d="M722.46,489.56s2.52,4.12,1.82,8.78c0,0-54.52,7.5-81.37-7.03,0,0-1.41-4.47,2-9.13,0,0,21.09,14.35,77.55,7.38Z"/>
            <path class="cls-8" d="M673.21,479.18c.02,2.06,.73,3.73,1.58,3.72,.85,0,1.53-1.69,1.51-3.75-.02-2.06-.73-3.73-1.58-3.72-.85,0-1.53,1.69-1.51,3.75Z"/>
            <path class="cls-1" d="M647.01,470.03c5.76,.41,13.4,1.16,21.97,2.49,16.52,2.57,36.51,7.33,53.16,16.13-.09-1.68-.16-3.31-.21-4.86h0c-.09-2.9-.11-5.52-.09-7.7v-.12s0,0,0,0c.01-1.46,.03-2.71,.06-3.69-9.61-1.82-27.34-5.01-43.78-7.04-11.92-1.47-23.16-2.34-30.13-1.64l-.4,2.59-.59,3.82Z"/>
          </g>
          <g>
            <path class="cls-14" d="M642.98,467.29s-.87,3.92,3.6,5.63l1.03-6.71s-3.36,.28-4.63,1.08Z"/>
            <path class="cls-14" d="M721.93,483.79h0c9.4-.41,7.55-5.69,7.55-5.69l-.07-.02-7.57-2.1h0s0,.12,0,.12l.09,7.69Z"/>
            <path class="cls-13" d="M631.69,432.26c.04,.61,.11,1.24,.22,1.87,.04,.25,.1,.51,.16,.77,1.49,6.4,7.75,14.2,10.56,17.19,.35,.36,.64,.66,.86,.87,.12,.12,.23,.22,.33,.3,.29,.26,.45,.4,.45,.4,0,.04,0,.07,0,.12-.01,.29-.03,.6-.05,.93-.03,.55-.07,1.13-.12,1.77-.06,.82-.13,1.7-.23,2.66v.14c-.14,1.32-.29,2.76-.46,4.3-.13,1.18-.28,2.42-.44,3.71,0,0,0,0,.01,0,1.46-.43,3-.79,4.61-1.07,0,0,0,0,0,0,8.47-1.52,18.9-1.16,29.6,.18,16.15,2.01,32.94,6.25,44.63,9.6,2.86,.82,5.42,1.59,7.58,2.26v-.15c-.13-1.58-.23-3.13-.31-4.64-.19-3.73-.25-7.25-.21-10.57,.05-3.09,.19-6.01,.42-8.76,0-.06,0-.12,.02-.18,.62-7.51,2.59-18.18,5.47-29.38,.37-1.45,.75-2.9,1.16-4.36,.11-.42,.23-.83,.35-1.25,.07-.23,.13-.47,.2-.7,.05-.18,.1-.36,.15-.54,.15-.55,.31-1.08,.47-1.63,.15-.53,.31-1.05,.46-1.58,.29-.98,.59-1.97,.9-2.94,.18-.59,.37-1.18,.56-1.76,.61-1.9,1.25-3.79,1.9-5.65,.39-1.11,.75-2.22,1.08-3.33,.27-.89,.51-1.78,.74-2.67h0c.23-.89,.43-1.78,.62-2.67h0c.09-.45,.18-.89,.26-1.33h0c.24-1.33,.44-2.65,.58-3.96t0,0c.28-2.6,.34-5.14,.13-7.55-.03-.37-.07-.73-.11-1.09,0-.02,0-.03,0-.05-.05-.38-.1-.75-.16-1.13-.03-.19-.06-.37-.1-.56l-.11-.55c-.04-.18-.08-.36-.12-.54h0c-.03-.13-.06-.25-.09-.37-.02-.06-.03-.11-.04-.17-.04-.16-.08-.32-.13-.49-.06-.21-.12-.42-.18-.63-.14-.48-.3-.95-.48-1.4,0-.02-.02-.05-.03-.07-.07-.17-.13-.33-.2-.5-.07-.16-.14-.33-.21-.49-.08-.17-.15-.34-.24-.51-.15-.3-.3-.61-.46-.9-.1-.17-.19-.34-.29-.52-.08-.14-.16-.27-.25-.41-.18-.3-.38-.59-.58-.88-.1-.14-.21-.28-.31-.43-.09-.11-.17-.23-.26-.34-.03-.04-.06-.08-.1-.12-.09-.11-.18-.22-.28-.33-.25-.3-.52-.59-.8-.88-.1-.11-.21-.21-.32-.32-.13-.13-.26-.25-.39-.37-.14-.12-.27-.24-.41-.36-.14-.12-.28-.23-.42-.35-.09-.08-.19-.15-.29-.23-.82-.63-1.72-1.21-2.69-1.72-.12-.07-.25-.13-.37-.19-.27-.14-.56-.27-.85-.4-.13-.06-.26-.12-.4-.17-.6-.25-1.22-.48-1.88-.7-.04-.01-.08-.03-.12-.04-.17-.05-.35-.11-.53-.16-.25-.07-.5-.14-.76-.21-.63-.16-1.26-.32-1.88-.48-.62-.16-1.24-.31-1.84-.45-7.66-1.87-14.11-3.05-16.47-3.46-.17-.03-.32-.06-.44-.08-.08-.01-.15-.03-.2-.04-.02,0-.03,0-.04,0-.05-.01-.09-.02-.13-.02-.01,0-.02,0-.03,0-.03,0-.06,0-.08-.01-.03,0-.04,0-.04,0l-3.12,.47-28.9,4.38-.96,.15-1.78,.27-.72,.11-3.37,.51c-4.95,.89-8.98,1.79-12.26,2.74-2.9,.85-5.22,1.73-7.09,2.73-1.41,.74-2.57,1.54-3.52,2.41-.08,.07-.16,.15-.24,.22-.29,.28-.56,.56-.81,.85-.06,.07-.12,.14-.18,.21-.61,.74-1.11,1.53-1.52,2.38-.09,.19-.18,.38-.27,.57-.17,.39-.33,.79-.47,1.21-.06,.16-.11,.32-.16,.49-.08,.26-.16,.53-.23,.8-.08,.29-.15,.6-.22,.9-.08,.34-.15,.7-.23,1.06-.05,.29-.1,.58-.15,.88-.04,.25-.08,.49-.12,.75-.13,.87-.25,1.78-.36,2.75-.03,.26-.06,.52-.09,.79-.02,.22-.05,.44-.07,.66-.03,.25-.06,.5-.08,.76-.1,.98-.21,2.01-.33,3.08,0,.04,0,.08-.01,.13-.02,.22-.05,.45-.08,.67-.01,.12-.03,.25-.04,.38-.02,.14-.03,.29-.05,.44-.02,.2-.05,.41-.07,.62,0,.07-.02,.14-.03,.2-.25,2.02-.57,4.03-.96,6.02h0c-.03,.13-.05,.26-.08,.39-.41,2.09-.87,4.16-1.38,6.19-2.99,12.14-7.1,18.41-6.63,25.63Z"/>
            <path class="cls-14" d="M672.79,364.85c-.49,5.91-1.14,14.63,10.22,14.42,19.91-.38,24.11-16.06,25.78-19.7-.34-.06-.52-.09-.52-.09l-35.48,5.37Z"/>
            <path class="cls-14" d="M696.35,455.1c-.13,.27-.4,.44-.69,.46-.14,0-.28-.01-.41-.08-.14-.07-14.05-6.71-30.18-2.41-8.2,2.18-15.27,2.5-20.84,1.64,.02-.33,.03-.64,.04-.93,0-.04,0-.08,0-.12,0,0-.29-.25-.78-.7,5.45,1,12.65,.78,21.14-1.48,16.75-4.46,30.75,2.24,31.33,2.53,.41,.2,.58,.69,.38,1.1Z"/>
          </g>
        </g>
        <g>
          <g>
            <polygon class="cls-7" points="656.81 642.82 663.27 668.84 644.34 670.1 632.18 642.82 656.81 642.82"/>
            <g>
              <path class="cls-18" d="M596.46,701.37l71.16-.83c.52-.97,.79-2.34,.89-3.96,.37-6.02-1.66-15.61-2.67-21.65-.12-.71-.23-1.37-.31-1.96-.14-1.01-.23-1.85-.24-2.47-.06-4.94-4.42-4.04-4.42-4.04-7.12,7.15-15.4-3.35-20.12,.18,0,0-2.03,1.49-7.62,6.64-5.59,5.15-15.16,8.62-23.3,12.14-10.51,4.54-13.45,8.98-14,12.03-.43,2.41,.63,3.94,.63,3.94Z"/>
              <path class="cls-4" d="M596.46,701.37l71.16-.83c.52-.97,.79-2.34,.89-3.96l-72.68,.85c-.43,2.41,.63,3.94,.63,3.94Z"/>
              <path class="cls-4" d="M660.37,700.62l2.11-.03c-2.14-2.39-4.16-6.06-3.96-11.35,.26-7.04,4.42-11.82,7.33-14.33-.12-.71-.23-1.37-.31-1.96-3.13,2.45-8.39,7.8-8.71,16.23-.19,5.05,1.51,8.8,3.54,11.44Z"/>
              <path class="cls-4" d="M634.39,677.45c.53,0,1-.37,1.13-.9,.15-.63-.24-1.26-.87-1.41l-4.46-1.05c-.63-.15-1.26,.24-1.41,.87-.15,.63,.24,1.26,.87,1.41l4.46,1.05c.09,.02,.19,.03,.28,.03Z"/>
              <path class="cls-4" d="M638.4,673.96c.53,0,1-.37,1.13-.9,.15-.63-.24-1.26-.87-1.41l-4.46-1.05c-.63-.15-1.26,.24-1.41,.87-.15,.63,.24,1.26,.87,1.41l4.46,1.05c.1,.02,.19,.03,.28,.03Z"/>
              <path class="cls-4" d="M629.97,680.09c.53,0,1-.37,1.13-.9,.15-.63-.24-1.26-.87-1.41l-4.46-1.05c-.63-.15-1.26,.24-1.41,.87-.15,.63,.24,1.26,.87,1.41l4.46,1.05c.1,.02,.19,.03,.28,.03Z"/>
              <path class="cls-4" d="M625.56,682.62c.53,0,1-.37,1.13-.9,.15-.63-.24-1.26-.87-1.41l-4.46-1.05c-.63-.15-1.26,.24-1.41,.87-.15,.63,.24,1.26,.87,1.41l4.46,1.05c.1,.02,.19,.03,.28,.03Z"/>
              <path class="cls-4" d="M620.74,684.98c.53,0,1-.37,1.13-.9,.15-.63-.24-1.26-.87-1.41l-4.46-1.05c-.63-.15-1.26,.24-1.41,.87-.15,.63,.24,1.26,.87,1.41l4.46,1.05c.1,.02,.19,.03,.28,.03Z"/>
              <path class="cls-4" d="M615.5,687c.53,0,1-.37,1.13-.9,.15-.63-.24-1.26-.87-1.41l-4.46-1.05c-.63-.15-1.26,.24-1.41,.87-.15,.63,.24,1.26,.87,1.41l4.46,1.05c.09,.02,.19,.03,.28,.03Z"/>
            </g>
          </g>
          <path class="cls-10" d="M630.37,494.43s-61.64,21.19-58.23,48.72c3.41,27.53,63.36,109.38,63.36,109.38l24.16-4.29-11.92-44.82c-6.95-24.95-9.91-38.87-19.12-49.86l50.65-7.76s-11.68-50.7-48.89-51.38Z"/>
          <path class="cls-18" d="M652.39,642.19c.08,0,.17-.02,.25-.05,.48-.18,.74-.71,.56-1.19-.12-.32-11.76-32.67-17.57-56.07-4.78-19.24-16.89-31.98-21.4-36.19,5.7-.53,15.11-2.52,15.57-2.61,.5-.11,.83-.6,.72-1.11-.11-.5-.6-.83-1.11-.72-.13,.03-12.76,2.69-17.5,2.7-.39,0-.75,.25-.88,.63-.13,.37-.01,.79,.3,1.04,.17,.13,16.74,13.59,22.48,36.71,5.83,23.49,17.51,55.93,17.63,56.25,.14,.4,.54,.64,.94,.61Z"/>
          <path class="cls-18" d="M631.55,647.23s.08,0,.13-.02l25.71-5.38c.5-.11,.83-.6,.72-1.1-.11-.5-.6-.83-1.1-.72l-25.71,5.38c-.5,.11-.83,.6-.72,1.1,.1,.46,.52,.77,.98,.74Z"/>
        </g>
        <g>
          <g>
            <polygon class="cls-7" points="532.12 616.12 515.97 635.96 499.66 624.48 514.65 599.69 532.12 616.12"/>
            <g>
              <path class="cls-18" d="M444.88,618.27l55.24,44.87c1.02-.41,2.1-1.29,3.22-2.48,4.14-4.39,8.71-13.06,11.8-18.35,.36-.62,.7-1.2,1.02-1.71,.54-.87,1.01-1.57,1.4-2.05,3.12-3.84-.81-5.94-.81-5.94-10.04,.94-9.69-12.42-15.58-12.73,0,0-2.52-.15-10.11,.23-7.59,.39-17.16-3.07-25.67-5.57-10.98-3.23-16.09-1.7-18.45,.29-1.88,1.58-2.04,3.44-2.04,3.44Z"/>
              <path class="cls-4" d="M444.88,618.27l55.24,44.87c1.02-.41,2.1-1.29,3.22-2.48l-56.42-45.83c-1.88,1.58-2.04,3.44-2.04,3.44Z"/>
              <path class="cls-4" d="M494.48,658.56l1.64,1.33c-.12-3.2,.68-7.32,4.22-11.26,4.7-5.24,10.96-6.26,14.8-6.33,.36-.62,.7-1.2,1.02-1.71-3.98-.12-11.44,.63-17.07,6.9-3.38,3.76-4.46,7.73-4.6,11.06Z"/>
              <path class="cls-4" d="M489.33,624.13c.41,.33,1.01,.36,1.44,.03,.52-.39,.62-1.12,.23-1.64l-2.75-3.66c-.39-.52-1.12-.62-1.64-.23-.52,.39-.62,1.12-.23,1.64l2.75,3.66c.06,.08,.13,.15,.2,.21Z"/>
              <path class="cls-4" d="M494.65,624.02c.41,.33,1.01,.36,1.44,.03,.52-.39,.62-1.12,.23-1.64l-2.75-3.66c-.39-.52-1.12-.62-1.64-.23-.52,.39-.62,1.12-.23,1.64l2.75,3.66c.06,.08,.13,.15,.2,.21Z"/>
              <path class="cls-4" d="M484.25,623.34c.41,.33,1,.36,1.44,.03,.52-.39,.62-1.12,.23-1.64l-2.75-3.66c-.39-.52-1.12-.62-1.64-.23-.52,.39-.62,1.12-.23,1.64l2.75,3.66c.06,.08,.13,.15,.2,.21Z"/>
              <path class="cls-4" d="M479.24,622.46c.41,.33,1,.36,1.44,.03,.52-.39,.62-1.12,.23-1.64l-2.75-3.66c-.39-.52-1.12-.62-1.64-.23-.52,.39-.62,1.12-.23,1.64l2.75,3.66c.06,.08,.12,.15,.2,.21Z"/>
              <path class="cls-4" d="M474.03,621.19c.41,.33,1.01,.36,1.44,.03,.52-.39,.62-1.12,.23-1.64l-2.75-3.66c-.39-.52-1.12-.62-1.64-.23-.52,.39-.62,1.12-.23,1.64l2.75,3.66c.06,.08,.13,.15,.2,.21Z"/>
              <path class="cls-4" d="M468.71,619.4c.41,.33,1.01,.36,1.44,.03,.52-.39,.62-1.12,.23-1.64l-2.75-3.66c-.39-.52-1.12-.62-1.64-.23-.52,.39-.62,1.12-.23,1.64l2.75,3.66c.06,.08,.13,.15,.2,.21Z"/>
            </g>
          </g>
          <path class="cls-10" d="M503.97,613.11l21.15,13.52s16.61-15.38,37.12-33.56c20.51-18.17,39.63-39.6,47.63-55.81,0,0,60.51,26.12,93.31,19.6,13.65-2.71,19.81-12.07,22.34-22.06,.38-1.49,.67-3,.9-4.5,1.92-12.59-.93-24.77-.93-24.77,0,0-76.93-14.16-116.67-12.78-2.77,.1-5.36,.27-7.73,.52-3.75,.41-6.96,1.03-9.46,1.9-5.05,1.77-11.33,7.09-18.19,14.55-.25,.27-.49,.53-.74,.81-29.33,32.36-68.72,102.58-68.72,102.58Z"/>
          <path class="cls-18" d="M585.32,571.52c.18-.01,.35-.08,.51-.19,14.91-11.56,22.93-28.4,24.81-32.71,7.81,4.52,31.71,11.56,32.77,11.87,.49,.14,1.01-.14,1.16-.63,.14-.49-.14-1.01-.63-1.16-.27-.08-26.89-7.91-33.2-12.22-.23-.16-.53-.21-.8-.12-.27,.08-.49,.29-.59,.55-.08,.2-7.94,19.99-24.65,32.95-.41,.32-.48,.9-.17,1.31,.2,.26,.5,.38,.8,.36Z"/>
          <path class="cls-18" d="M529.7,622.03c.28-.02,.55-.17,.72-.42,.28-.43,.16-1.01-.27-1.29l-21.53-14.15c-.43-.28-1.01-.16-1.29,.27-.28,.43-.16,1.01,.27,1.29l21.53,14.15c.18,.12,.38,.16,.58,.15Z"/>
          <path class="cls-18" d="M524.5,618.49c.2,.2,.47,.29,.73,.27,.22-.01,.42-.1,.59-.26,.36-.36,35.56-35.22,52.55-50.25,15.33-13.57,24.61-34.63,26.48-39.16,6.29,2.48,45.52,17.41,81.99,19.41,16.5,.91,26.87-3.91,32.65-8.11,2.68-1.94,4.64-3.93,6.03-5.58,.38-1.49,.68-3,.9-4.5-.26,.46-.82,1.38-1.74,2.56-1.32,1.69-3.39,3.91-6.39,6.08-5.53,3.99-15.47,8.56-31.36,7.69-39.26-2.16-81.83-19.45-82.25-19.62-.23-.1-.49-.1-.72,0-.23,.1-.41,.29-.5,.52-.09,.24-9.5,24.42-26.33,39.31-17.02,15.06-52.27,49.97-52.62,50.32-.37,.37-.37,.96,0,1.32Z"/>
        </g>
      </g>
      <g>
        <path class="cls-7" d="M706.94,360.31s-3.71,11.03-14.97,14.6c-14.3,4.53-17.01-1.51-17.01-1.51,.29-2.09,.34-4.12,.16-6.26-.07-.81-.16-1.64-.29-2.49-.35-2.33-.93-4.83-1.71-7.71-.18-.67-.38-1.37-.59-2.09l-.02-.09c9.75-4.08,17.3-9.95,21.75-18.37l1.37-1.16,.92-.78,.29,.56,.12,1.92c.53,9.02,3.74,16.03,9.98,23.39Z"/>
        <path class="cls-1" d="M688.52,345.34c-1.34,5.2-4.9,14.58-13.69,19.3-.35-2.33-.93-4.83-1.71-7.71-.18-.67-.38-1.37-.59-2.09,.2,0,.41-.03,.62-.05,5.59-.55,11.12-4.39,15.37-9.45Z"/>
      </g>
      <g>
        <path class="cls-7" d="M627.74,477.17l-4.26,3.34,8,7.63,.15,.52s33.96-1.74,44.18-2.66c.85-.19,1.71-.38,2.58-.57l10.13-2.2c3.44-.77,6.97-1.54,10.58-2.47,3.62-.94,7.33-2,11.19-3.45,1.94-.73,3.91-1.56,5.93-2.56,2.02-1,4.09-2.17,6.17-3.64,2.08-1.48,4.18-3.25,6.12-5.46l.72-.85,.17-.21c.06-.07,.15-.19,.22-.28l.45-.6c.14-.2,.31-.42,.42-.59l.36-.55,.35-.55c.11-.19,.2-.34,.3-.51,.8-1.38,1.33-2.55,1.84-3.71,.95-2.27,1.64-4.3,2.24-6.28,.59-1.97,1.09-3.86,1.53-5.73,.89-3.73,1.58-7.35,2.22-10.95,.64-3.59,1.19-7.14,1.69-10.68,1.01-7.08,1.85-14.1,2.58-21.12,.35-3.51,.72-7.01,1.04-10.52l.47-5.27,.23-2.64,.22-2.71c.62-7.66-5.08-14.38-12.75-15-7.66-.62-14.38,5.08-15,12.75-.02,.22-.03,.45-.04,.67v.17s-.07,2.47-.07,2.47l-.09,2.52-.24,5.06c-.18,3.38-.36,6.76-.61,10.13-.5,6.73-1.08,13.45-1.85,20.06-.4,3.3-.83,6.58-1.33,9.8-.5,3.22-1.08,6.38-1.74,9.38-.33,1.5-.69,2.94-1.07,4.29-.38,1.34-.8,2.58-1.18,3.5-.18,.43-.37,.83-.44,.94,0,0,0,.02-.01,.03,0,0-.02,.02-.02,.03-.33,.39-.87,.88-1.59,1.41-1.48,1.07-3.72,2.2-6.31,3.19-2.59,1-5.51,1.88-8.57,2.7-6.14,1.65-12.82,2.97-19.69,4.47-6.88,1.5-13.99,3.17-21.28,5.5-3.65,1.18-7.34,2.53-11.05,4.22-3.7,1.69-7.45,3.69-11.09,6.22l-.06,.04c-.44,.3-1.33,.38-1.72,.72Z"/>
        <path class="cls-1" d="M708.94,478.95c-9.84,2.8-19.87,4.91-29.98,6.49-.73,.11-1.04-1-.31-1.12,10.11-1.58,20.14-3.69,29.98-6.49,.72-.2,1.03,.91,.31,1.12h0Z"/>
        <path class="cls-1" d="M708.89,449.73c2.53,.31,4.85,1.2,6.91,2.7,.58,.42,1.3-.43,.71-.86-2.21-1.61-4.71-2.61-7.43-2.94-.71-.09-.91,1.01-.2,1.1h0Z"/>
        <path class="cls-1" d="M710.26,449.7c1.84-.3,3.67-.6,5.51-.9,.7-.11,.61-1.23-.1-1.11-1.84,.3-3.67,.6-5.51,.9-.7,.11-.61,1.23,.1,1.11h0Z"/>
      </g>
      <g>
        <rect class="cls-14" x="624.71" y="438.53" width="12.74" height="97.72" rx=".34" ry=".34" transform="translate(109.49 1090.51) rotate(-86.83)"/>
        <path class="cls-14" d="M571.75,490.48c-3.67-.2-6.75-2.85-7.5-6.45l-14.46-69.35c-.88-4.24,2.49-8.16,6.81-7.92l43.69,2.42c2.95,.16,5.43,2.27,6.07,5.15l17.55,79.04-52.16-2.89Z"/>
        <g>
          <path class="cls-3" d="M606.36,414.33l17.4,78.39,4.99,.28-17.4-78.39c-.65-2.88-3.12-4.99-6.07-5.15l-4.99-.28c2.95,.16,5.42,2.27,6.07,5.15Z"/>
          <path class="cls-2" d="M623.29,492.22s.09,0,.13-.02c.4-.09,.65-.48,.56-.87l-17.24-78.22c-.09-.4-.48-.65-.87-.56-.4,.09-.65,.48-.56,.87l17.24,78.22c.08,.35,.4,.59,.74,.58Z"/>
        </g>
        <path class="cls-2" d="M591.94,451.27c.76,4.35-2.11,7.68-6.4,7.44-4.29-.24-8.38-3.95-9.14-8.3-.76-4.35,2.11-7.68,6.4-7.44,4.29,.24,8.38,3.95,9.14,8.3Z"/>
      </g>
    </g>
  </g>
  <g>
    <path class="cls-18" d="M164.88,615.17c0,15.19,12.43,27.62,27.62,27.62s27.62-12.43,27.62-27.62v-38.22h-55.25v38.22Z"/>
    <path class="cls-10" d="M30.19,469.59v141.44c0,17.47,12.43,31.77,27.62,31.77H192.51c-15.19,0-27.62-14.29-27.62-31.77v-141.44h-.37"/>
    <g>
      <g>
        <rect class="cls-4" x="41.28" y="545.94" width="41.15" height="2.61"/>
        <rect class="cls-4" x="41.28" y="553.35" width="41.15" height="2.61"/>
        <rect class="cls-4" x="41.28" y="560.76" width="41.15" height="2.61"/>
        <rect class="cls-4" x="41.28" y="568.16" width="41.15" height="2.61"/>
        <rect class="cls-4" x="41.28" y="575.57" width="41.15" height="2.61"/>
        <rect class="cls-4" x="41.28" y="582.98" width="41.15" height="2.61"/>
        <rect class="cls-4" x="41.28" y="590.39" width="41.15" height="2.61"/>
        <rect class="cls-4" x="41.28" y="597.79" width="41.15" height="2.61"/>
        <rect class="cls-4" x="41.28" y="605.2" width="41.15" height="2.61"/>
        <rect class="cls-4" x="41.28" y="612.61" width="41.15" height="2.61"/>
        <rect class="cls-4" x="41.28" y="620.01" width="41.15" height="2.61"/>
      </g>
      <rect class="cls-18" x="39.4" y="487.87" width="115.78" height="6.99"/>
      <rect class="cls-4" x="39.4" y="501.58" width="115.78" height="37.05"/>
      <g>
        <rect class="cls-18" x="94.32" y="545.61" width="15.53" height="14.53"/>
        <rect class="cls-18" x="94.32" y="566.44" width="15.53" height="14.53"/>
        <rect class="cls-18" x="94.32" y="587.27" width="15.53" height="14.53"/>
        <rect class="cls-18" x="94.32" y="608.1" width="15.53" height="14.53"/>
        <g>
          <rect class="cls-4" x="113.57" y="545.79" width="41.15" height="2.61"/>
          <rect class="cls-4" x="113.57" y="553.2" width="41.15" height="2.61"/>
        </g>
        <g>
          <rect class="cls-4" x="114.09" y="566.4" width="41.15" height="2.61"/>
          <rect class="cls-4" x="114.09" y="573.81" width="41.15" height="2.61"/>
        </g>
        <g>
          <rect class="cls-4" x="114.61" y="587.02" width="41.15" height="2.61"/>
          <rect class="cls-4" x="114.61" y="594.42" width="41.15" height="2.61"/>
        </g>
        <g>
          <rect class="cls-4" x="115.13" y="607.63" width="41.15" height="2.61"/>
          <rect class="cls-4" x="115.13" y="615.03" width="41.15" height="2.61"/>
        </g>
      </g>
    </g>
  </g>
  <g>
    <g>
      <path class="cls-10" d="M134.37,126.76c-25.28,.07-57.23,3.35-57.23,3.35l-8.18,13.68s8.67,43.84,38.31,75.39c27.58-27.25,61.15-24.25,61.15-24.25,0,0-29.99-31.74-34.04-68.16Z"/>
      <polygon class="cls-9" points="77.14 130.1 68.96 143.78 79.17 141.03 77.14 130.1"/>
      <g>
        <path class="cls-18" d="M147.61,185.18c-.86,1.25-2.67,1.72-4.03,2.24l-5.27,2.02c-3.51,1.35-7.02,2.7-10.53,4.05-3.51,1.35-7.03,2.68-10.54,4.01-1.68,.64-3.37,1.28-5.05,1.91-1.7,.65-3.49,1.43-5.3,1.69-.71,.1-.9-.91-.38-1.25,1.45-.97,3.28-1.56,4.91-2.19,1.75-.68,3.51-1.35,5.26-2.03,3.44-1.33,6.87-2.65,10.31-3.96,3.44-1.31,6.88-2.62,10.32-3.93,1.76-.67,3.51-1.34,5.27-2,1.41-.54,3.23-1.53,4.76-1.15,.23,.06,.43,.36,.27,.59Z"/>
        <path class="cls-18" d="M139.62,174.71c-1.19,1.09-2.51,1.62-4,2.18-1.55,.58-3.1,1.16-4.65,1.74-3.17,1.19-6.35,2.36-9.53,3.53-6.36,2.34-12.67,4.78-19.2,6.6-.41,.11-.73-.51-.32-.7,6.03-2.89,12.28-5.18,18.52-7.57,3.09-1.18,6.18-2.38,9.28-3.54,1.62-.61,3.25-1.22,4.87-1.83,1.57-.59,3-1.15,4.71-1.12,.34,0,.62,.45,.33,.72Z"/>
        <path class="cls-18" d="M131.73,163.94c-5.75,1.99-11.71,3.53-17.55,5.26-2.85,.85-5.73,1.61-8.6,2.4-2.94,.81-5.78,1.61-8.82,1.88-.25,.02-.36-.34-.14-.46,2.62-1.42,5.34-2.3,8.17-3.22,2.9-.95,5.8-1.92,8.72-2.81,5.82-1.78,11.64-3.78,17.54-5.29,1.47-.38,2.12,1.75,.69,2.25Z"/>
        <path class="cls-18" d="M129.35,151.64c1.29,1.98-3.8,2.32-4.74,2.5-5.57,1.06-11.13,2.15-16.72,3.15-3.04,.54-6.07,1.09-9.12,1.57-3.25,.52-6.48,1.14-9.77,1.18-.39,0-.46-.52-.11-.65,2.66-1.01,5.4-1.59,8.17-2.2,2.76-.61,5.53-1.2,8.3-1.76,5.56-1.12,11.13-2.16,16.69-3.22,1.39-.27,2.78-.53,4.18-.8,.88-.17,2.48-.74,3.12,.23Z"/>
        <path class="cls-18" d="M122.06,142.65c-6.29,.86,2.44-.31-3.85,.54-3.1,.42-6.21,.78-9.32,1.18-3.18,.41-6.35,.95-9.57,.83-.59-.02-.78-.86-.18-1.05,2.99-.97,6.1-1.32,9.2-1.78,3.18-.48,6.36-.99,9.54-1.45,6.36-.92-2.29,.21,4.08-.7,1.55-.22,1.64,2.22,.1,2.43Z"/>
      </g>
    </g>
    <path class="cls-18" d="M94.43,151.58l-5.36-8.11,1.1-.21-1.45,9.42-2.9,.56,2.09-11.01,2.74-.53,6.61,9.34-2.84,.55Zm-6.22-.88l.25-2.25,4.81-.93,1.19,1.97-6.24,1.2Z"/>
  </g>
  <g>
    <g>
      <path class="cls-18" d="M760.77,228.91c-9.35,18.71-23.19,17.76-27.18,22.21-2.14,2.41-6.22,9.05-6.22,9.05l-20.41-7.38s1.12-7.7,1-10.93c-.21-5.97-11.47-14.1-6.68-34.45,3.14-13.38,20.11-30.16,41.71-22.35,21.6,7.81,23.91,31.56,17.78,43.86Z"/>
      <g>
        <rect class="cls-4" x="696.95" y="237.96" width="35.12" height="1.42" transform="translate(363.42 905.18) rotate(-80.69)"/>
        <rect class="cls-4" x="713.04" y="243.78" width="35.12" height="1.42" transform="translate(149.57 750.41) rotate(-59.55)"/>
        <path class="cls-4" d="M724.5,236.22s0,0,0,0c-1.91-.69-2.95-3-3.35-5.56-.77,.39-1.48,.49-2.07,.28,0,0,0,0,0,0-3.12-1.13-2.06-7.93-2.01-8.22l.7,.11c-.29,1.81-.58,6.67,1.55,7.44,0,0,0,0,0,0,.44,.16,1.05,.03,1.73-.37-.24-2.31,0-4.72,.57-6.29,.66-1.81,1.72-2.6,2.93-2.17,0,0,0,0,0,0,.77,.28,1.25,.84,1.39,1.63,.36,2.02-1.54,5.06-3.51,6.72-.21,.18-.43,.34-.63,.48,.34,2.48,1.3,4.68,2.95,5.28,0,0,0,0,0,0,1.5,.54,3.31-.35,4.92-1.82-.71-1.76-.62-4.13,.11-6.16,.84-2.31,2.23-3.43,3.65-2.92,0,0,0,0,0,0,1.15,.42,1.41,1.79,.69,3.76-.6,1.67-1.97,3.83-3.63,5.48,.36,.68,.91,1.22,1.68,1.5h0c1.82,.66,5.05-3.18,6.14-4.71l.58,.41c-.43,.61-4.31,5.92-6.96,4.97,0,0,0,0,0,0-.86-.31-1.5-.91-1.95-1.68-1.72,1.54-3.7,2.48-5.47,1.84Zm8.68-10.9c-1.2-.43-2.23,1.07-2.74,2.49-.56,1.55-.8,3.73-.24,5.39,1.44-1.48,2.66-3.37,3.25-5.03,.26-.73,.77-2.48-.27-2.85,0,0,0,0,0,0Zm-8.88-3.21c-1.02-.37-1.66,.74-2.02,1.74-.54,1.51-.76,3.6-.59,5.61,.09-.07,.18-.14,.27-.21,1.79-1.51,3.57-4.36,3.27-6.05-.1-.54-.4-.89-.93-1.08,0,0,0,0,0,0Z"/>
      </g>
      <g>
        <rect class="cls-13" x="703.21" y="255.45" width="26.78" height="5.23" transform="translate(130.4 -228.23) rotate(19.87)"/>
        <rect class="cls-13" x="701.14" y="261.17" width="26.78" height="5.23" transform="translate(132.22 -227.18) rotate(19.87)"/>
        <rect class="cls-13" x="699.07" y="266.89" width="26.78" height="5.23" transform="translate(134.04 -226.14) rotate(19.87)"/>
      </g>
    </g>
    <g>
      <path class="cls-13" d="M729.16,170.81h0c-2.01,.42-3.98-.86-4.4-2.87l-3.81-18.08c-.42-2.01,.86-3.98,2.87-4.4h0c2.01-.42,3.98,.86,4.4,2.87l3.81,18.08c.42,2.01-.86,3.98-2.87,4.4Z"/>
      <path class="cls-13" d="M754.38,181.14h0c1.74,1.08,4.03,.53,5.11-1.21l9.7-15.73c1.08-1.74,.53-4.03-1.21-5.11h0c-1.74-1.08-4.03-.53-5.11,1.21l-9.7,15.73c-1.08,1.74-.53,4.03,1.21,5.11Z"/>
      <path class="cls-13" d="M768.48,199h0c.58,1.97,2.64,3.09,4.61,2.52l17.73-5.2c1.97-.58,3.09-2.64,2.52-4.61h0c-.58-1.97-2.64-3.09-4.61-2.52l-17.73,5.2c-1.97,.58-3.09,2.64-2.52,4.61Z"/>
      <path class="cls-13" d="M704.55,183.28h0c-1.59,1.3-3.93,1.06-5.22-.52l-11.7-14.31c-1.3-1.59-1.06-3.93,.52-5.22h0c1.59-1.3,3.93-1.06,5.22,.52l11.7,14.31c1.3,1.59,1.06,3.93-.52,5.22Z"/>
    </g>
  </g>
  <g>
    <g>
      <g>
        <g>
          <g>
            <path class="cls-7" d="M669.22,297.19s-21.86,46.36-2.81,57.67c12.77,7.58,35.89-15.59,35.89-15.59,0,0,5.08-2.93,1.65-9.1-3.55-6.38-6.85,1.97-6.85,1.97,1.09-1.88,20.27-37.78-27.88-34.96Z"/>
            <g class="cls-20">
              <path class="cls-5" d="M675.07,337.83c.07,1.33,2.44,2.3,5.3,2.16,2.86-.14,5.13-1.34,5.07-2.67-.07-1.33-2.44-2.3-5.3-2.16-2.86,.14-5.13,1.34-5.07,2.67Z"/>
            </g>
            <g>
              <path class="cls-7" d="M699.85,340.51s-4.14-5.18-.24-15.14c0,0,6.21-3.97,10.16,3.09,3.95,7.06-3.73,14.21-9.92,12.05Z"/>
              <path class="cls-1" d="M704.75,327c.06-.02,.1,.06,.05,.1-2.5,1.94-3.25,4.97-3.53,7.98,.55-1.28,1.53-2.18,3.21-1.57,.09,.03,.05,.17-.03,.17-1.23,.08-2.01,.51-2.53,1.66-.37,.81-.51,1.75-.7,2.62-.06,.29-.56,.28-.54-.03,0-.02,0-.05,0-.07-1.09-3.58,.29-9.4,4.06-10.85Z"/>
            </g>
            <path class="cls-13" d="M669.21,296.52c-.41,1.12-.72,2.2-.96,3.25-.13,.32-.23,.66-.31,.99-.17,.71-.32,1.43-.42,2.15-.21,1.41-.28,2.84-.26,4.26,.03,1.46,.18,2.91,.47,4.34,.27,1.34,.62,2.82,1.26,4.04,.07,.14,.31,.09,.28-.08-.13-.67-.35-1.34-.5-2.01-.15-.68-.29-1.36-.4-2.04-.13-.8-.22-1.61-.28-2.42,3.74,17.04,29.86,25.23,29.86,25.23,0,0-.77-7.1,2.2-9.25,3.11-2.26,9.37-33.27-30.94-28.46Z"/>
            <path class="cls-19" d="M671.65,295.05c-.17,.05-.3,.18-.36,.34-.02,.05,.06,.09,.08,.03,.04-.12,.14-.2,.25-.25-.02,.15-.13,.29-.28,.32-.02,0-.04,.03-.04,.05,0,.02,.03,.04,.05,.04,.22-.04,.39-.27,.37-.49,0-.03-.04-.04-.06-.03Z"/>
          </g>
          <g>
            <path class="cls-1" d="M667.75,342.78s-.03,0-.05,0c-.06,0-1.5-.25-4.11-1.53-.57-.28-.9-.68-.98-1.18-.24-1.43,1.59-3.29,3.07-4.79,.49-.5,.92-.93,1.14-1.23,.98-1.32,.96-3.51,.96-3.53,0-.16,.12-.29,.28-.29,.16-.02,.29,.12,.29,.28,0,.1,.02,2.41-1.07,3.89-.24,.33-.68,.77-1.19,1.29-1.24,1.25-3.1,3.15-2.91,4.29,.05,.32,.27,.56,.67,.76,2.52,1.24,3.93,1.47,3.94,1.48,.16,.03,.26,.17,.24,.33-.02,.14-.14,.24-.28,.24Z"/>
            <path class="cls-17" d="M673.84,332.37c-.11,.68,.22,1.3,.75,1.39,.52,.09,1.04-.4,1.15-1.07,.11-.68-.22-1.3-.75-1.39-.52-.09-1.04,.4-1.15,1.07Z"/>
            <path class="cls-17" d="M664.21,331.64c-.01,.69,.41,1.25,.94,1.26,.53,0,.97-.54,.98-1.23,.01-.69-.41-1.25-.94-1.26-.53,0-.97,.54-.98,1.23Z"/>
            <path class="cls-17" d="M677.47,328.62c-.14,0-.27-.05-.38-.15-.08-.07-1.85-1.59-3.97-.65-.29,.13-.63,0-.76-.3-.13-.29,0-.63,.29-.76,2.82-1.24,5.11,.76,5.2,.85,.24,.21,.26,.58,.05,.81-.11,.13-.27,.19-.43,.19Z"/>
            <path class="cls-17" d="M663.16,328.06c-.17,0-.33-.07-.45-.21-.2-.25-.16-.61,.08-.81,2.01-1.64,4.13-.74,4.97-.03,.24,.2,.28,.57,.07,.81-.2,.24-.57,.28-.81,.07-.08-.06-1.75-1.4-3.51,.04-.11,.09-.24,.13-.36,.13Z"/>
          </g>
        </g>
        <path class="cls-11" d="M673.14,301.86s18.05,.96,20.62,14.91c0,0-6.97-1.25-11.32-4.22,0,0,6.29,9.17,16.68,10.36,0,0-14.99,2.74-24.34-14.18l8.5,.28s-3.9-5.02-10.13-7.16Z"/>
      </g>
      <path class="cls-13" d="M667.31,308.36s-5.42,9.36-6.65,13.48c-1.2,4.01-1.94-7.92,.64-13.96,2.58-6.04,5.81-9.72,7.56-9.75,1.75-.03-1.55,10.23-1.55,10.23Z"/>
      <path class="cls-13" d="M688.24,330.51c-6.42-1.79-14.9-5.57-18.85-13.41-2.37-4.71-1.98-8.6-1.96-8.76l.73,.08s-.39,3.87,1.91,8.39c2.12,4.18,7.02,9.82,18.36,12.99l-.2,.71Z"/>
    </g>
    <g>
      <path class="cls-16" d="M664.39,344.08s.11,3.59,1.91,6.12c.66,.93,1.53,1.72,2.71,2.15,2.43,.89,3.79-.96,4.54-2.83,.62-1.54,.8-3.11,.8-3.11,0,0-4.95,.72-9.96-2.33Z"/>
      <path class="cls-6" d="M666.31,350.2c.66,.93,1.53,1.72,2.71,2.15,2.43,.89,3.79-.96,4.54-2.83-2.36-1.31-5.58-1.33-7.25,.68Z"/>
    </g>
  </g>
</svg>