<?xml version="1.0" encoding="utf-8"?>
<!-- Generator: Adobe Illustrator 26.0.1, SVG Export Plug-In . SVG Version: 6.00 Build 0)  -->
<svg version="1.1" id="Layer_1" xmlns="http://www.w3.org/2000/svg" xmlns:xlink="http://www.w3.org/1999/xlink" x="0px" y="0px"
	 viewBox="0 0 500 500" style="enable-background:new 0 0 500 500;" xml:space="preserve">
<style type="text/css">
	.st0{fill:#F5F5F5;}
	.st1{fill:#E6E6E6;}
	.st2{fill:#1585C4;}
	.st3{opacity:0.2;enable-background:new    ;}
	.st4{opacity:0.1;enable-background:new    ;}
	.st5{opacity:0.4;fill:#FFFFFF;enable-background:new    ;}
	.st6{fill:#7ABDE8;}
	.st7{fill:#FAFAFA;}
	.st8{fill:#5095D0;}
	.st9{fill:#37474F;}
	.st10{fill:#455A64;}
	.st11{fill:#263238;}
	.st12{fill:#FFFFFF;}
	.st13{fill-rule:evenodd;clip-rule:evenodd;fill:#FFFFFF;}
	.st14{opacity:0.55;enable-background:new    ;}
	.st15{opacity:0.45;enable-background:new    ;}
	.st16{opacity:0.35;enable-background:new    ;}
	.st17{fill:#FFA8A7;}
	.st18{fill:#E0E0E0;}
	.st19{opacity:0.3;enable-background:new    ;}
	.st20{fill:#EBEBEB;}
	.st21{fill:#F28F8F;}
	.st22{fill:#45B34A;}
	.st23{opacity:0.1;}
	.st24{opacity:0.5;enable-background:new    ;}
</style>
<g id="freepik--Floor--inject-4">
	<ellipse id="freepik--floor--inject-4" class="st0" cx="250" cy="346.5" rx="225" ry="129.9"/>
</g>
<g id="freepik--Shadow--inject-4">
	<ellipse id="freepik--shadow--inject-4" class="st1" cx="366" cy="379" rx="54.6" ry="31.5"/>
</g>
<g id="freepik--Target--inject-4">
	<path class="st2" d="M157.1,35.8c-9.1-5.2-21.6-4.5-35.5,3.5c-27.7,16-50.2,54.9-50.1,86.9c0,16.1,5.7,27.3,14.8,32.5
		c2.4,1.4,11.8,6.8,14.2,8.2c9.1,5.2,21.6,4.5,35.5-3.5c27.7-16,50.1-54.9,50.1-86.9c0-16-5.6-27.2-14.7-32.4"/>
	<path class="st3" d="M71.4,126.2L71.4,126.2c0,16.1,5.7,27.3,14.8,32.5c2.4,1.4,11.8,6.8,14.2,8.2c9.1,5.2,21.6,4.5,35.4-3.5
		L71.4,126.2z"/>
	<path class="st4" d="M78.7,91.8c-4.6,11.5-7.3,23.3-7.3,34.4l64.5,37.2l0,0c9.6-5.5,18.5-13.8,26.1-23.5L78.7,91.8z"/>
	<path class="st5" d="M162,139.9c14.4-18.5,24.1-42.4,24.1-63.4c0-16-5.6-27.2-14.7-32.4l-14.3-8.3c-9.1-5.2-21.6-4.5-35.5,3.5
		c-18.1,10.5-34,30.8-42.8,52.5L162,139.9z"/>
	<path class="st6" d="M135.9,47.6c-27.7,16-50.2,54.9-50.2,86.9s22.5,45,50.2,29s50.2-54.9,50.2-86.9S163.6,31.6,135.9,47.6z"/>
	<path class="st7" d="M135.9,55.8c-23.8,13.7-43,47.1-43,74.5s19.3,38.6,43,24.9s43-47.1,43-74.5S159.7,42.1,135.9,55.8z"/>
	<path class="st6" d="M135.9,64c-19.8,11.5-35.9,39.3-35.9,62.2s16.1,32.2,35.9,20.7s35.9-39.3,35.9-62.2S155.7,52.6,135.9,64z"/>
	<path class="st7" d="M135.9,72.3c-15.9,9.2-28.8,31.5-28.8,49.8s12.9,25.8,28.8,16.6s28.8-31.5,28.8-49.8S151.8,63.1,135.9,72.3z"
		/>
	<path class="st6" d="M135.9,80.5c-12,6.9-21.6,23.7-21.6,37.5s9.7,19.4,21.6,12.5s21.6-23.7,21.6-37.5S147.9,73.6,135.9,80.5z"/>
	<path class="st7" d="M135.9,88.7c-8,4.6-14.5,15.9-14.5,25.1s6.5,13,14.5,8.4s14.5-15.9,14.5-25.1S143.9,84.1,135.9,88.7z"/>
	<path class="st6" d="M135.9,97c-4.4,2.8-7.1,7.6-7.4,12.8c0,4.7,3.3,6.6,7.4,4.3c4.4-2.8,7.1-7.6,7.4-12.8
		C143.3,96.5,140,94.6,135.9,97z"/>
	<polygon class="st2" points="248,162.1 231.6,155.4 221.5,154.9 221.5,156.7 237,165.7 248,164 	"/>
	<polygon class="st8" points="221.5,154.9 231.6,155.4 248,162.1 237,163.9 	"/>
	<polygon class="st3" points="237,165.7 237,163.9 248,162.1 248,164 	"/>
	<polygon class="st4" points="237,163.9 221.5,154.9 221.5,156.7 237,165.7 	"/>
	<polygon class="st9" points="151.8,105.8 133.7,102.4 133.7,105.8 137.7,117.4 143.8,111.7 143.8,111.7 151.8,109.3 	"/>
	<polygon class="st10" points="133.7,102.4 137.7,114 143.8,108.2 143.8,108.2 151.8,105.8 	"/>
	<polygon class="st11" points="137.7,114 137.7,117.4 143.8,111.7 143.8,108.2 	"/>
	<polygon class="st11" points="143.8,108.2 151.8,105.8 151.8,109.3 143.8,111.7 	"/>
	<path class="st10" d="M144.8,108.2c-0.4-0.2-0.9-0.2-1.2,0.1c-1,0.7-1.6,1.7-1.7,2.9c0,0.4,0.1,0.9,0.5,1.1l0,0l102.4,59.2l2.3-4.2
		L144.8,108.2z"/>
	<path class="st9" d="M142.3,109.7c-0.2,0.4-0.4,0.9-0.4,1.4c0,0.4,0.1,0.9,0.5,1.1l0,0l102.4,59.2l1.1-1.9L142.3,109.7z"/>
	<path class="st11" d="M246,167.4c-1,0.6-1.6,1.7-1.7,2.9c0,1.1,0.8,1.5,1.7,1c1-0.7,1.6-1.7,1.7-2.9
		C247.6,167.3,246.9,166.9,246,167.4z"/>
	<polygon class="st8" points="235.9,166.3 235.9,166.3 235.9,164.5 220.4,155.5 220.4,157.4 221.2,163.2 233,172.7 235.9,166.3 	"/>
	<polygon class="st3" points="220.4,155.5 221.2,161.4 221.2,163.2 220.4,157.4 	"/>
	<polygon class="st3" points="235.9,164.5 233,170.8 233,172.7 235.9,166.3 	"/>
	<polygon class="st4" points="221.2,161.4 233,170.8 233,172.7 221.2,163.2 	"/>
</g>
<g id="freepik--social-icons--inject-4">
	<path class="st2" d="M72.4,225.9l26.5-15.3c2.6-1.3,5.6-1.3,8.2,0l3.3,1.9c2.4,1.6,4,4.2,4.1,7.1v30.5c-0.2,2.9-1.7,5.5-4.1,7.1
		L84,272.6c-2.6,1.3-5.6,1.3-8.2,0l-3.4-1.9c-2.4-1.6-3.9-4.2-4.1-7.1V233C68.5,230.1,70,227.5,72.4,225.9z"/>
	<path class="st8" d="M114.5,219.7c0-2.6-1.8-3.7-4.1-2.4L84,232.6c-2.4,1.6-4,4.2-4.1,7.1v30.6c0,2.6,1.8,3.7,4.1,2.4l26.4-15.3
		c2.4-1.6,4-4.2,4.1-7.1L114.5,219.7z"/>
	<path class="st4" d="M68.7,262.8c0.1,2.9,1.7,5.5,4.1,7.1l3.3,1.9c2.3,1.2,5.1,1.3,7.5,0.3c-1.9,0.7-3.4-0.4-3.4-2.7v-30.5
		c0.1-1.4,0.5-2.8,1.2-4.1l-11.5-6.7c-0.7,1.2-1.1,2.6-1.2,4V262.8z"/>
	<path class="st5" d="M114.5,219c-0.3-2.1-2-2.9-4.1-1.7L84,232.6c-1.2,0.8-2.2,1.8-2.9,3.1L69.5,229c0.7-1.3,1.7-2.3,2.9-3.1
		l26.5-15.3c2.6-1.3,5.6-1.3,8.2,0l3.3,1.9C112.6,214,114.1,216.4,114.5,219z"/>
	<path class="st12" d="M103,247.7c1.8-3.9,2.7-8.2,2.7-12.6c0.9-1.3,1.6-2.8,2.2-4.2c-0.7,0.9-1.6,1.7-2.5,2.4
		c0.9-1.3,1.6-2.8,1.9-4.3c-0.8,1.1-1.7,2.1-2.8,3c-0.9-0.7-2.2-0.7-3.2,0c-2.8,1.6-4.9,6.3-4.2,9.6c-3.6,1.8-6.8,1.4-9-0.9
		c-1.1,3.3-0.6,6.4,1.3,7c-0.6,0.4-1.3,0.5-2,0.4c0,2.7,1.4,4.4,3.5,3.8c-0.5,0.5-1.2,0.9-1.9,1.2c0.6,2,2.2,2.7,4.1,1.7
		c-1.5,2.6-3.7,4.8-6.4,6.1c2.3,0.5,4.7,0.1,6.7-1.2C97.6,257.1,100.9,252.5,103,247.7"/>
	<path class="st2" d="M209.4,225.9l26.5-15.3c2.6-1.3,5.6-1.3,8.2,0l3.3,1.9c2.4,1.6,4,4.2,4.1,7.1v30.5c-0.2,2.9-1.7,5.5-4.1,7.1
		L221,272.6c-2.6,1.3-5.6,1.3-8.2,0l-3.4-1.9c-2.4-1.6-3.9-4.2-4.1-7.1V233C205.5,230.1,207,227.5,209.4,225.9z"/>
	<path class="st8" d="M251.6,219.7c0-2.6-1.8-3.7-4.1-2.4L221,232.6c-2.4,1.6-4,4.2-4.1,7.1v30.6c0,2.6,1.8,3.7,4.1,2.4l26.4-15.3
		c2.4-1.6,4-4.2,4.1-7.1L251.6,219.7z"/>
	<path class="st5" d="M251.5,219c-0.3-2.1-2-2.9-4.1-1.7L221,232.6c-1.2,0.8-2.2,1.8-2.9,3.1l-11.6-6.7c0.7-1.3,1.7-2.3,2.9-3.1
		l26.5-15.3c2.6-1.3,5.6-1.3,8.2,0l3.3,1.9C249.7,214,251.1,216.4,251.5,219z"/>
	<path class="st4" d="M205.3,263.6c0.2,2.9,1.7,5.5,4.1,7.1l3.4,1.9c2.3,1.2,5.1,1.3,7.5,0.3c-1.9,0.7-3.4-0.4-3.4-2.7v-30.5
		c0.1-1.4,0.5-2.8,1.2-4.1l-11.6-6.7c-0.7,1.2-1.1,2.6-1.2,4V263.6z"/>
	<path class="st13" d="M243.2,246.6L243.2,246.6L243.2,246.6L243.2,246.6c-0.2,0-0.4,0-0.6,0l0,0c-1,0-1.9-0.5-2.5-1.3
		c-0.4-0.5-0.7-1.1-0.8-1.8l0,0c-0.1-0.3-0.1-0.7,0-1l0,0c0.2-0.5,0.5-0.9,0.8-1.3l0,0c0.4-0.5,0.8-1,1.1-1.6l0,0
		c0.1-0.1,0.1-0.3,0.2-0.4V239c0-0.1,0-0.3,0-0.4l0,0c-0.1-0.2-0.2-0.3-0.4-0.4l0,0c-0.2-0.1-0.5,0.1-0.7,0.3l0,0
		c-0.2,0.2-0.4,0.4-0.6,0.6l0,0c-0.2,0.2-0.4,0.3-0.7,0.4c0-0.1,0-0.2,0-0.2l0,0c0-0.6,0-1.3,0-2l0,0c0-1.1,0-2.1-0.1-3.1l0,0
		c-0.1-1.4-0.8-2.6-1.9-3.3c-0.8-0.3-1.6-0.3-2.4,0.1l0,0c-0.3,0.1-0.6,0.3-0.9,0.4c-1.4,0.8-2.5,2-3.2,3.4
		c-0.7,1.3-1.2,2.7-1.6,4.1l0,0c-0.3,1.3-0.3,2.7-0.3,4l0,0c0,0.9,0.1,1.7,0,2.5c0,0,0,0,0,0.1c-0.2,0.2-0.5,0.3-0.8,0.4l0,0
		c-0.2,0.1-0.4,0.1-0.6,0.1l0,0c-0.3,0.1-0.5,0.3-0.6,0.6l0,0l0,0c-0.2,0.3-0.3,0.6-0.3,1v0.1l0,0c0,0.2,0.1,0.3,0.2,0.4
		c0.1,0.1,0.2,0.1,0.2,0.1l0,0c0.4,0.1,0.9,0.2,1.3,0.1l0,0c0.3,0,0.5,0.2,0.6,0.5c0,0.6,0,1.1-0.2,1.6l0,0c-0.4,1.6-1,3.1-1.9,4.6
		c-0.4,0.7-0.9,1.3-1.4,1.8l0,0c-0.2,0.2-0.4,0.5-0.5,0.8c0,0,0,0.1,0,0.1c-0.1,0.2,0,0.4,0.1,0.6c0.1,0.1,0.1,0.1,0.2,0.1l0,0
		c0.4,0.1,0.9,0.1,1.3-0.1l0,0c0.3-0.1,0.5-0.1,0.8-0.2c0,0,0,0.1,0.1,0.3s0.1,0.7,0.2,1.1c0,0.1,0.1,0.2,0.2,0.1
		c0.1,0,0.2-0.1,0.3-0.2l0,0c0.6-0.6,1.3-1,2.1-1.3l0,0c0.7,0,1.4,0.2,1.9,0.5l0,0c0.5,0.2,1.1,0.2,1.6,0l0,0
		c0.5-0.2,0.9-0.5,1.3-0.8l0,0c0.4-0.3,0.7-0.7,1-1.1l0,0c0.7-1,1.3-2.1,2-3l0,0c0.2-0.2,0.5-0.4,0.8-0.6l0,0
		c0.5-0.3,1.1-0.6,1.7-0.9h0.1c0.1-0.1,0.1-0.2,0.2-0.3c0-0.1,0.1-0.1,0.1-0.2c0-0.1,0-0.1,0-0.1c0,0,0-0.1,0-0.1
		c0.1-0.5,0.2-1,0.3-1.5c0.1-0.2,0.2-0.3,0.4-0.4l0,0c0.5-0.4,0.9-0.9,1.4-1.4l0,0c0.2-0.3,0.4-0.6,0.6-0.9l0,0
		c0.1-0.4,0.1-0.7-0.1-0.8L243.2,246.6z"/>
	<path class="st2" d="M209.4,317.1l26.5-15.3c2.6-1.3,5.6-1.3,8.2,0l3.3,1.9c2.4,1.6,4,4.2,4.1,7.1v30.5c-0.2,2.9-1.7,5.5-4.1,7.1
		L221,363.8c-2.6,1.3-5.6,1.3-8.2,0l-3.4-1.9c-2.4-1.6-3.9-4.2-4.1-7.1v-30.6C205.5,321.4,207,318.7,209.4,317.1z"/>
	<path class="st2" d="M251.6,310.9c0-2.6-1.8-3.7-4.1-2.4L221,323.8c-2.4,1.6-4,4.2-4.1,7.1v30.5c0,2.6,1.8,3.7,4.1,2.4l26.4-15.3
		c2.4-1.6,4-4.2,4.1-7.1L251.6,310.9z"/>
	<path class="st12" d="M231.4,347.4c0.6-0.5,1.1-1.2,1.5-1.9c1-1.7,1.5-3.7,1.5-5.7c0.1-0.9-0.1-1.8-0.5-2.7
		c-0.3-0.6-0.9-0.9-1.5-0.9c0.4-0.5,0.7-1.1,1-1.7c0.4-1.1,0.6-2.2,0.6-3.3c0.1-1-0.2-1.9-0.6-2.7c-0.7-1-1.8-1.1-3.4-0.2l-6.4,3.7
		v20.2l5.9-3.4C230.2,348.4,230.8,347.9,231.4,347.4z M226.2,333.9l2.9-1.6c0.5-0.3,1-0.5,1.6-0.6c0.5,0,0.7,0.5,0.7,1.5
		c0,0.7-0.2,1.5-0.5,2.1c-0.4,0.5-0.8,1-1.4,1.3l-3.2,1.9L226.2,333.9z M226.2,347.1v-5.4l3.2-1.9c0.4-0.3,0.8-0.4,1.3-0.4
		c0.6,0.1,0.8,0.6,0.8,1.7c0,1.1-0.3,2.1-0.9,3c-0.4,0.5-0.8,0.8-1.3,1.1L226.2,347.1z"/>
	<path class="st12" d="M236.6,343.3c1.1,0.7,2.4,0.6,3.4-0.1c1.6-1,2.9-2.5,3.7-4.3c0.5-1,0.8-2.1,0.9-3.2l-2.6,1.5
		c-0.1,0.5-0.3,0.9-0.5,1.3c-0.3,0.6-0.8,1.1-1.4,1.5c-0.4,0.3-0.9,0.4-1.4,0.2c-0.7-0.2-1-1.1-1-2.6l7.1-4.1c0-1,0-1.9-0.1-2.9
		c-0.1-0.9-0.3-1.8-0.8-2.6c-0.3-0.7-0.9-1.1-1.7-1.2c-0.8,0-1.6,0.2-2.3,0.6c-1.6,1-2.8,2.4-3.5,4.1c-0.9,2.1-1.4,4.4-1.3,6.7
		C235.2,341,235.7,342.7,236.6,343.3z M238.5,332.3c0.3-0.7,0.8-1.3,1.5-1.7c0.4-0.3,1-0.4,1.5-0.1c0.5,0.5,0.7,1.3,0.7,2l-4.4,2.5
		C237.9,334.1,238.1,333.2,238.5,332.3z"/>
	<polygon class="st12" points="242.7,322.1 236.9,325.4 236.9,327.4 242.7,324.1 	"/>
	<path class="st5" d="M251.5,310.2c-0.3-2.1-2-2.8-4.1-1.7L221,323.8c-1.2,0.8-2.2,1.8-2.9,3.1l-11.6-6.7c0.7-1.3,1.7-2.3,2.9-3.1
		l26.5-15.3c2.6-1.3,5.6-1.3,8.2,0l3.3,1.9C249.7,305.2,251.1,307.6,251.5,310.2z"/>
	<path class="st4" d="M205.3,354.8c0.2,2.9,1.7,5.5,4.1,7.1l3.4,1.9c2.3,1.2,5.1,1.3,7.5,0.3c-1.9,0.7-3.4-0.4-3.4-2.7v-30.5
		c0.1-1.4,0.5-2.8,1.2-4l-11.6-6.7c-0.7,1.2-1.1,2.6-1.2,4V354.8z"/>
	<path class="st2" d="M182.1,338.5c-0.2-2.9-1.7-5.5-4.1-7.1l-3.4-1.9c-2.6-1.3-5.6-1.3-8.2,0L140,344.7c-2.4,1.6-4,4.2-4.1,7.1
		v30.5c0.2,2.9,1.7,5.5,4.1,7.1l3.3,1.9c2.6,1.3,5.6,1.3,8.2,0l26.4-15.3c2.4-1.6,3.9-4.2,4.1-7.1L182.1,338.5z"/>
	<path class="st14" d="M135.9,382.4c0.2,2.9,1.7,5.5,4.1,7.1l3.3,1.9c2.3,1.2,5.1,1.3,7.5,0.3c-1.9,0.7-3.4-0.4-3.4-2.7v-30.5
		c0.1-1.4,0.5-2.8,1.2-4l-11.6-6.7c-0.7,1.2-1.1,2.6-1.2,4L135.9,382.4z"/>
	<path class="st15" d="M182.1,338.5c0-2.6-1.8-3.7-4.1-2.4l-26.5,15.3c-2.4,1.6-3.9,4.2-4.1,7.1V389c0,2.7,1.8,3.7,4.1,2.4
		l26.4-15.3c2.4-1.6,3.9-4.2,4.1-7.1L182.1,338.5z"/>
	<path class="st16" d="M182.1,337.8c-0.3-2.1-2-2.8-4.1-1.7l-26.4,15.3c-1.2,0.8-2.2,1.8-2.9,3.1l-11.6-6.7c0.7-1.3,1.7-2.3,2.9-3.1
		l26.4-15.3c2.6-1.3,5.6-1.3,8.2,0l3.3,1.9C180.2,332.8,181.7,335.2,182.1,337.8z"/>
	<path class="st12" d="M159.1,369.6c0.2,0,0.5-0.3,0.6-0.8c0.1-0.3,0.2-1.2,0.2-1.5s0-0.6-0.2-0.9c-0.6-0.9-0.8-1.9-0.7-2.9
		c0-4.3,2.1-9.4,5.5-11.4c3-1.7,4.6,0.1,4.6,3.9c0,4.9-1.4,9.9-3.5,11.1c-1.2,0.7-2-0.3-1.8-2.3c0.3-2.4,1-5.1,1-6.6
		c0-1.4-0.5-2.3-1.5-1.7c-1.2,0.7-2.1,3.1-2.1,5.7c0,0.9,0.1,1.7,0.4,2.5c0,0-1.2,8.6-1.4,10.1c-0.2,2.2-0.2,4.4,0,6.5
		c0,0.2,0.2,0.1,0.3-0.1c0.9-2.2,1.5-4.4,2-6.8c0.1-0.8,0.8-5.1,0.8-5.1c0.4,0.9,1.5,1.2,2.7,0.6c3.6-2.1,6-8.5,6-15.2
		c0-5.1-2.8-8.2-7-5.7c-5.3,3-7.9,10.4-7.9,15.3C156.8,367.3,157.6,369.5,159.1,369.6z"/>
	<path class="st2" d="M72.4,317.1l26.5-15.3c2.6-1.3,5.6-1.3,8.2,0l3.3,1.9c2.4,1.6,4,4.2,4.1,7.1v30.5c-0.2,2.9-1.7,5.5-4.1,7.1
		L84,363.8c-2.6,1.3-5.6,1.3-8.2,0l-3.4-1.9c-2.4-1.6-3.9-4.2-4.1-7.1v-30.6C68.5,321.4,70,318.7,72.4,317.1z"/>
	<path class="st4" d="M68.3,354.8c0.2,2.9,1.7,5.5,4.1,7.1l3.3,1.9c2.3,1.2,5.1,1.3,7.5,0.3c-1.9,0.7-3.4-0.4-3.4-2.7v-30.5
		c0.1-1.4,0.5-2.8,1.2-4l-11.5-6.7c-0.7,1.2-1.1,2.6-1.2,4V354.8z"/>
	<path class="st8" d="M114.5,310.9c0-2.6-1.8-3.7-4.1-2.4L84,323.8c-2.4,1.6-4,4.2-4.1,7.1v30.5c0,2.6,1.8,3.7,4.1,2.4l26.4-15.3
		c2.4-1.6,4-4.2,4.1-7.1L114.5,310.9z"/>
	<path class="st5" d="M114.5,310.2c-0.3-2.1-2-2.8-4.1-1.7L84,323.8c-1.2,0.8-2.2,1.8-2.9,3.1l-11.6-6.7c0.7-1.3,1.7-2.3,2.9-3.1
		l26.5-15.3c2.6-1.3,5.6-1.3,8.2,0l3.3,1.9C112.6,305.2,114.1,307.6,114.5,310.2z"/>
	<path class="st12" d="M97.2,325.1c2.7-1.6,3-1.7,4.1-2.3c0.6-0.3,1.2-0.6,1.9-0.6c0.4,0,0.8,0.1,1.2,0.3c0.4,0.3,0.6,0.7,0.8,1.1
		c0.2,0.7,0.4,1.5,0.3,2.3c0,1.4,0.1,1.8,0.1,5.4s0,4-0.1,5.5c0,0.9-0.1,1.8-0.3,2.7c-0.2,0.7-0.4,1.4-0.8,2
		c-0.3,0.6-0.7,1.2-1.2,1.7c-0.6,0.6-1.2,1.1-1.9,1.5c-1.1,0.7-1.4,0.9-4.1,2.4s-3,1.7-4.1,2.3c-0.6,0.3-1.2,0.6-1.9,0.6
		c-0.4,0-0.8-0.1-1.2-0.3c-0.4-0.3-0.6-0.7-0.8-1.1c-0.2-0.7-0.4-1.5-0.3-2.3c-0.1-1.4-0.1-1.8-0.1-5.4s0-4,0.1-5.5
		c0-0.9,0.1-1.8,0.3-2.7c0.2-0.7,0.4-1.4,0.8-2c0.3-0.6,0.7-1.2,1.2-1.7c0.6-0.6,1.2-1.1,1.9-1.5C94.2,326.9,94.5,326.7,97.2,325.1
		 M97.2,322.7c-2.8,1.6-3.1,1.8-4.2,2.5c-1.8,1.1-3.3,2.7-4.3,4.6c-0.5,1-0.9,2-1.2,3.1c-0.3,1.2-0.4,2.4-0.5,3.5
		c0,1.5-0.1,1.9-0.1,5.6s0,4.1,0.1,5.5c0,1,0.2,2,0.5,3c0.2,0.7,0.6,1.3,1.2,1.7c0.5,0.4,1.1,0.6,1.8,0.5c0.9-0.1,1.7-0.4,2.5-0.8
		c1.1-0.6,1.4-0.7,4.2-2.3s3.1-1.8,4.2-2.5c1.8-1.1,3.3-2.7,4.2-4.6c0.5-1,0.9-2,1.2-3.1c0.3-1.2,0.4-2.4,0.5-3.6
		c0-1.5,0.1-1.9,0.1-5.6s0-4.1-0.1-5.5c0-1-0.2-2-0.5-3c-0.2-0.7-0.6-1.3-1.2-1.7c-0.5-0.4-1.1-0.6-1.8-0.5
		c-0.9,0.1-1.7,0.3-2.5,0.8C100.3,320.9,99.9,321,97.2,322.7"/>
	<path class="st12" d="M97.2,329.2c-2.9,1.7-5.2,6.1-5.2,10s2.3,5.6,5.2,3.9s5.2-6.1,5.2-10S100.1,327.6,97.2,329.2 M97.2,340.7
		c-1.9,1.1-3.4-0.1-3.4-2.6c0-2.6,1.3-5,3.4-6.5c1.9-1.1,3.4,0.1,3.4,2.6C100.5,336.8,99.3,339.2,97.2,340.7"/>
	<path class="st12" d="M103.8,325.1c0,0.9-0.5,1.8-1.2,2.3c-0.7,0.4-1.2,0-1.2-0.9c0-0.9,0.5-1.8,1.2-2.3
		C103.3,323.8,103.8,324.2,103.8,325.1"/>
	<path class="st2" d="M182.1,247.4c-0.2-2.9-1.7-5.5-4.1-7.1l-3.4-1.9c-2.6-1.3-5.6-1.3-8.2,0L140,253.6c-2.4,1.6-4,4.2-4.1,7.1
		v30.5c0.2,2.9,1.7,5.5,4.1,7.1l3.3,1.9c2.6,1.3,5.6,1.3,8.2,0L178,285c2.4-1.6,3.9-4.2,4.1-7.1L182.1,247.4z"/>
	<path class="st14" d="M135.9,291.2c0.2,2.9,1.7,5.5,4.1,7.1l3.3,1.9c2.3,1.2,5.1,1.3,7.5,0.3c-1.9,0.7-3.4-0.4-3.4-2.7v-30.5
		c0-1.4,0.5-2.8,1.2-4l-11.6-6.7c-0.7,1.2-1.1,2.6-1.2,4L135.9,291.2z"/>
	<path class="st15" d="M182.1,247.4c0-2.6-1.8-3.7-4.1-2.4l-26.5,15.3c-2.4,1.6-3.9,4.2-4.1,7.1v30.5c0,2.6,1.8,3.7,4.1,2.4L178,285
		c2.4-1.6,3.9-4.2,4.1-7.1L182.1,247.4z"/>
	<path class="st12" d="M162.1,289.5l4.4-2.5v-14.7l3.1-1.8l0.3-5.1l-3.4,2v-2.8c0-1.2,0.2-1.7,1-2.2l2.4-1.4v-5.1l-3.1,1.8
		c-3.1,1.6-4.9,4.9-4.8,8.4v3.9l-2.3,1.3v5l2.3-1.3L162.1,289.5z"/>
	<path class="st16" d="M182.1,246.6c-0.3-2.1-2-2.9-4.1-1.7l-26.4,15.3c-1.2,0.8-2.2,1.8-2.9,3.1l-11.6-6.7c0.7-1.3,1.7-2.3,2.9-3.1
		l26.4-15.3c2.6-1.3,5.6-1.3,8.2,0l3.3,1.9C180.2,241.7,181.7,244,182.1,246.6z"/>
</g>
<g id="freepik--Character--inject-4">
	<path class="st17" d="M371.6,167.6c6.4,0.3,9.4,1.3,12.8,5.2s20,28.1,20,28.1s-3,8.3-9.4,7.6l-12.7-15.3L371.6,167.6z"/>
	<path class="st18" d="M370.7,167.6c0,0,4.6-0.6,7.9,0.6s5.8,3.9,7.7,6.5s6,8.3,6,8.3s-3,6.4-11.4,11.2L370.7,167.6z"/>
	<g id="freepik--character--inject-4">
		<path class="st11" d="M363.1,160.6h-2.2c-11.3,0-20.4-9.1-20.4-20.4l0,0c0-10.9,8.8-19.8,19.8-19.8h3.5c10.9,0,19.8,8.8,19.8,19.8
			l0,0C383.5,151.5,374.4,160.6,363.1,160.6z"/>
		<path class="st11" d="M341.9,182.9L341.9,182.9c7.3,0,13.2-5.9,13.2-13.2v-13.2l0,0c-7.3,0-13.2,5.9-13.2,13.2V182.9z"/>
		<path class="st11" d="M348.9,375v-1.4c0.5,1.6,3.1,8.6,6.9,12.1c3,2.8,7.2,6,8.3,9.1s-5.8,4.3-8.6,3.8c-3.3-0.6-7.6-2.5-9.9-5.3
			c-1.6-2-2.7-4.4-3.9-6s-3.9-3.4-4.5-5.2c-0.3-1,0.1-3.2,0.6-5.1s0.9-3.6,1.5-3.4c0,0.2,0,1,0,1c1.4,1.1,3.1,1.7,4.8,1.6
			C345.4,376.4,348.9,376.1,348.9,375z"/>
		<path class="st17" d="M358.5,388.2c-0.9-0.9-1.9-1.7-2.8-2.5c-2.7-2.4-4.7-6.6-5.9-9.4c-0.7-1.6-1-3.3-1-5.1v-5.5h-9.7v9l0,0v0.2
			h0c0.5,2,4.9,7.4,7.4,10.8c1.7,2.3,4.9,5.3,8.7,5.8C359,392.1,360.9,390.9,358.5,388.2z"/>
		<path class="st11" d="M383,365.5v-1.4c0.5,1.6,3.1,8.6,6.9,12.1c3,2.8,7.2,6,8.3,9.1s-5.8,4.3-8.6,3.8c-3.3-0.6-7.6-2.5-9.9-5.3
			c-1.6-2-2.7-4.4-3.9-6s-3.9-3.4-4.5-5.2c-0.4-1,0.1-3.2,0.5-5.1c0.5-1.7,0.9-3.6,1.5-3.4v1c1.4,1.1,3.1,1.7,4.8,1.6
			C379.6,366.8,383,366.5,383,365.5z"/>
		<path class="st17" d="M392.7,378.6c-0.9-0.9-1.9-1.7-2.8-2.5c-2.7-2.5-4.7-6.6-5.9-9.4c-0.7-1.6-1-3.3-1-5.1v-5.5h-9.7v9l0,0v0.2
			h0c0.5,2,4.9,7.4,7.4,10.8c1.7,2.3,4.9,5.3,8.7,5.8C393.2,382.5,395,381.4,392.7,378.6z"/>
		<path class="st2" d="M341.1,224.7c-7.5,16.4,0.3,74,0.3,74c-0.2,2.7-3.3,7.9-4.4,19.6c-1.3,13.8,2.1,48.5,2.1,48.5
			c3,1.7,6.6,1.9,9.8,0.4c0,0,9.2-52.2,11-66c1.5-12,4.4-38.4,4.4-38.4l4.7,38.3c-1.2,3.9-2.1,7.8-2.6,11.9c-0.8,8.1,7,45.7,7,45.7
			s3.3,1.2,9.7,0.3c0,0,2.8-49.9,3.5-59.7c1.2-16.4,0.5-67.4-2.5-77L341.1,224.7z"/>
		<path class="st19" d="M364.2,262.9l2.4-15.2c0,0,10.3-2.1,15-6.5c0,0-4.9,6.1-12.2,8.1l-2.8,11.7l1.9,37.7L364.2,262.9z"/>
		<path class="st20" d="M354.3,167.9L354.3,167.9c-2.9,0.2-3.8,0.1-5.9,0.3c-4.1,0.4-5.1,6.5-6.8,10c-1.8,3.9-1.9,8.4-0.5,12.4
			l6.7,19.4c0,0-3.1,7.6-6.8,14.7c16.8,9.4,37.8,4.4,42.8-2.4c0.2-1.4-1.1-12.8-1.9-20.2c3-7.4,3.7-12.1,2.5-17
			c-2.3-9.1-10.6-17.5-13-17.5L354.3,167.9z"/>
		<path class="st11" d="M340.1,127.4l2.9,4.7c-1.2,0.8-2.9,0.5-3.7-0.7c0,0,0-0.1-0.1-0.1C338.4,130,338.8,128.3,340.1,127.4z"/>
		<path class="st11" d="M336.9,132.7l5.5-0.8c0.3,1.5-0.7,2.9-2.1,3.1c0,0-0.1,0-0.1,0C338.5,135.3,337.1,134.3,336.9,132.7z"/>
		<path class="st17" d="M376.2,129.2c2.3,1.3,5.1,7.1,4.8,19c-0.2,10.1-3.5,12.7-5.2,13.4s-4.8,0.3-7.9-0.2v6.3c0,0,4.3,4.8,4,7.6
			s-6.2,3.4-10.2,0.7c-2.6-1.9-4.8-4.2-6.6-6.9v-14.7c0,0-2.1,2.8-5.5,0.5S346,147,348,145s6.4-1.4,7.1,1.4c0,0,5.1-3.8,5.1-13.1
			C360.2,129.3,370.8,128.9,376.2,129.2z"/>
		<path class="st11" d="M367.3,145.3c0.1,0.7-0.5,1.3-1.2,1.4c0,0,0,0,0,0c-0.7,0-1.3-0.5-1.3-1.3c-0.1-0.7,0.5-1.3,1.2-1.4
			c0,0,0,0,0.1,0C366.7,144,367.3,144.6,367.3,145.3z"/>
		<path class="st21" d="M368.8,154.4l3.5,1.1c-0.3,1-1.2,1.5-2.2,1.3c0,0,0,0-0.1,0C369.1,156.4,368.5,155.4,368.8,154.4z"/>
		<path class="st11" d="M365.9,140.6l-2.9,1.1c-0.3-0.8,0-1.6,0.8-2c0,0,0,0,0.1,0C364.6,139.5,365.5,139.9,365.9,140.6z"/>
		<path class="st11" d="M378,145.4c0,0.7-0.6,1.3-1.3,1.3s-1.3-0.6-1.3-1.3c0-0.7,0.5-1.3,1.2-1.3C377.4,144.1,378,144.7,378,145.4z
			"/>
		<polygon class="st21" points="372,144.7 372.2,152.4 376.3,151.1 		"/>
		<path class="st21" d="M367.8,161.4c-3.3-0.4-10-2.4-11-5c0.4,1.3,1.2,2.5,2.4,3.4c2,1.7,8.7,3.6,8.7,3.6L367.8,161.4z"/>
		<path class="st18" d="M358.6,226.6c-5.5-1.3-8.9-6.7-7.6-12.2c0-0.1,0-0.1,0-0.2c0.1-0.2,0.1-0.4,0.2-0.5c0.5-1.4,1.9-2.4,3.4-2.3
			l0,0c-2.2-1.4-3.7-3.7-4.2-6.3c0,0-2.7-13.2-2.4-11s-1-6.1,0.7-10.8l-6.6-4.1l-1.2,0.9c-1,3.4-0.9,7.1,0.3,10.5l6.7,19.4
			c-2.6,4.7-4.9,9.7-6.8,14.7c12.4,6.9,27,6.1,35.9,2.4C370.9,228.1,364.7,227.9,358.6,226.6z"/>
		<path class="st17" d="M348.5,168.2c-4.7,0.1-7,1.4-13.3,8.2c-3.9,4.3-20.9,22.3-20.9,22.3s-25.6-5.1-26.9-6.1s-1.4-2.4-1.5-3.9
			s-0.4-4.6-0.3-5.5c0.1-1.6-1.9-0.6-2.9,1.1s-0.8,4.6-1.3,5.2s-6.9-3.8-10-5.9s-5.5-4.1-6.8-2.5c-0.9,1.1,0.3,2.8,2.6,4.7
			c1.3,1,2.4,2,3.5,3.2c0.3,0.4-0.2,0.9-0.4,1.1c-0.4,0.5-1,1.4-0.9,2.1c0.1,0.3,0.2,0.7,0.2,1.1c0,0.8-0.9,1.4-1,2.3
			c-0.1,0.6,0.3,1.2,0.4,1.8c0,0.4-0.1,0.8-0.1,1.2c0.1,0.8,0.6,1.4,1.3,1.8c2.2,1.6,4.7,1.7,7.2,2.4c2.1,0.5,4.1,0.5,6.4,0.9
			s31.3,10.2,36.2,7.8c4.5-2.2,25.9-23,25.9-23C353,179.9,348.5,168.2,348.5,168.2z"/>
		<path class="st18" d="M349.9,168.1c0,0-6.3-0.8-9.9,2.7c-4.5,4.4-12.2,12.5-12.2,12.5s3.4,8.5,11.8,12c0,0,6.8-5.2,8.9-9
			S351.7,176.1,349.9,168.1z"/>
	</g>
	<polygon class="st22" points="422.9,191.1 389,200 379.7,238.4 411.9,229 	"/>
	<polygon class="st8" points="422.9,191.1 389,200 379.7,238.4 411.9,229 	"/>
	<g class="st23">
		<path d="M407.6,218.2c1.2,2.4,3.7,3.9,6.4,3.8l0.2-0.9L407.6,218.2z"/>
	</g>
	<g class="st23">
		<path d="M412.7,197.2c0,0,0.1-0.6,0.3-1.3s-1.8-0.7-4.5-0.1l-5,1.3c-2.6,0.7-4.9,1.8-5,2.5l-0.3,1.3L412.7,197.2z"/>
	</g>
	<path class="st9" d="M415.3,192.3c0.1-0.4-0.7-0.6-1.8-0.3l-2,0.6c0,0,0.6-2.8-3.8-1.8s-5.4,4.2-5.4,4.2l-2.1,0.6
		c-1.2,0.3-2.2,1-2.4,1.4l-0.2,0.8l17.5-4.6C415.1,193.1,415.2,192.7,415.3,192.3z"/>
	<path class="st9" d="M412.9,193.7c-1.6,0.4-2.3,0.6-2.5,1.7s-0.4,2.2-0.4,2.2l-7.7,2c0,0,0.4-1.6,0.5-2.2s-0.1-1-1.4-0.7l-0.1-0.5
		l12.1-3.1L412.9,193.7z"/>
	<path class="st9" d="M413.2,197.3l0.3-1.3c0.2-0.7-1.8-0.8-4.5-0.1l-5,1.3c-2.6,0.7-4.9,1.8-5,2.5l-0.3,1.3L413.2,197.3z"/>
	<path class="st17" d="M419.4,203.4c0,0-1.3,4.3-1.6,5.4s-4.1,2.9-6.6,3.6s-5.2,1.5-4,5c1.1,3.2,5.2,3.9,7.3,3.9s5-2.1,6.1-5.3
		c1.4-4.1,0.7-8.5,1.2-10.9S420.6,202,419.4,203.4z"/>
	<path class="st11" d="M355.2,145.5v5l0,0c1.9,0,3.4-1.5,3.4-3.4c0,0,0,0,0,0v-5.6L355.2,145.5z"/>
	<path class="st11" d="M368.8,122L368.8,122c9.4,0,17,7.6,17,17v2.2h-8.3c-3.9,0-7.1-2.9-7.7-6.7l0,0l-0.3,6.7l0,0
		c-3.2,0-5.8-2.4-6.1-5.6l-0.1-1.1l0,0c-0.3,3.8-3.5,6.7-7.3,6.7h-0.7l-0.9-12L368.8,122z"/>
	<path class="st22" d="M354.7,145.3h6.6c0,0.1,0,0.1,0,0.1c0,2.3,1.9,4.1,4.1,4.1h0.6c2.3,0,4.1-1.8,4.1-4.1c0-0.3,0-0.6-0.1-0.8
		l0,0c0.5-0.7,1.3-1.1,2.2-1.1c0.7-0.1,1.3,0.2,1.8,0.6c-0.1,0.4-0.2,0.9-0.2,1.3c0,2.3,1.9,4.1,4.1,4.1h0.6
		c2.3,0.1,4.2-1.6,4.3-3.9c0.1-2.3-1.6-4.2-3.9-4.3c-0.1,0-0.3,0-0.4,0H378c-1.5,0-2.9,0.8-3.6,2.1c-0.6-0.5-1.4-0.7-2.1-0.6
		c-0.9,0-1.8,0.4-2.4,1.1c-0.6-1.5-2.1-2.6-3.8-2.6h-0.6c-1.9,0-3.6,1.4-4,3.3H354C354.3,144.8,354.5,145,354.7,145.3z M374.6,145.5
		c0-1.9,1.5-3.4,3.4-3.5c0,0,0,0,0.1,0h0.6c1.9,0,3.4,1.5,3.4,3.4c0,1.9-1.5,3.4-3.4,3.4H378C376.1,148.9,374.6,147.4,374.6,145.5z
		 M362,145.5c0-1.9,1.5-3.4,3.4-3.4h0.6c1.9,0,3.4,1.5,3.4,3.4c0,1.9-1.5,3.4-3.4,3.4h-0.6C363.5,148.9,362,147.3,362,145.5
		L362,145.5z"/>
	<path class="st24" d="M354.7,145.3h6.6c0,0.1,0,0.1,0,0.1c0,2.3,1.9,4.1,4.1,4.1h0.6c2.3,0,4.1-1.8,4.1-4.1c0-0.3,0-0.6-0.1-0.8
		l0,0c0.5-0.7,1.3-1.1,2.2-1.1c0.7-0.1,1.3,0.2,1.8,0.6c-0.1,0.4-0.2,0.9-0.2,1.3c0,2.3,1.9,4.1,4.1,4.1h0.6
		c2.3,0.1,4.2-1.6,4.3-3.9c0.1-2.3-1.6-4.2-3.9-4.3c-0.1,0-0.3,0-0.4,0H378c-1.5,0-2.9,0.8-3.6,2.1c-0.6-0.5-1.4-0.7-2.1-0.6
		c-0.9,0-1.8,0.4-2.4,1.1c-0.6-1.5-2.1-2.6-3.8-2.6h-0.6c-1.9,0-3.6,1.4-4,3.3H354C354.3,144.8,354.5,145,354.7,145.3z M374.6,145.5
		c0-1.9,1.5-3.4,3.4-3.5c0,0,0,0,0.1,0h0.6c1.9,0,3.4,1.5,3.4,3.4c0,1.9-1.5,3.4-3.4,3.4H378C376.1,148.9,374.6,147.4,374.6,145.5z
		 M362,145.5c0-1.9,1.5-3.4,3.4-3.4h0.6c1.9,0,3.4,1.5,3.4,3.4c0,1.9-1.5,3.4-3.4,3.4h-0.6C363.5,148.9,362,147.3,362,145.5
		L362,145.5z"/>
</g>
</svg>
