<?xml version="1.0" encoding="UTF-8"?>
<svg id="Layer_1" data-name="Layer 1" xmlns="http://www.w3.org/2000/svg" xmlns:xlink="http://www.w3.org/1999/xlink" viewBox="0 0 479.64 454.64">
  <defs>
    <style>
      .cls-1 {
        fill: url(#linear-gradient-4);
      }

      .cls-1, .cls-2, .cls-3, .cls-4, .cls-5, .cls-6, .cls-7, .cls-8, .cls-9, .cls-10, .cls-11, .cls-12 {
        isolation: isolate;
      }

      .cls-1, .cls-13, .cls-3, .cls-14, .cls-15, .cls-16, .cls-17, .cls-6, .cls-18, .cls-19, .cls-20, .cls-8, .cls-21, .cls-22, .cls-23, .cls-24, .cls-25, .cls-26, .cls-9, .cls-27, .cls-10, .cls-28, .cls-29, .cls-30, .cls-31, .cls-12 {
        stroke-width: 0px;
      }

      .cls-1, .cls-3, .cls-10 {
        mix-blend-mode: multiply;
      }

      .cls-1, .cls-6, .cls-32 {
        opacity: .3;
      }

      .cls-33 {
        stroke-linejoin: round;
        stroke-width: .9px;
      }

      .cls-33, .cls-34, .cls-35, .cls-36 {
        fill: none;
        stroke-linecap: round;
      }

      .cls-33, .cls-35 {
        stroke: #fff;
      }

      .cls-2 {
        fill: #2b2868;
      }

      .cls-2, .cls-5, .cls-7, .cls-11 {
        font-family: Montserrat-BoldItalic, Montserrat;
        font-size: 8.32px;
        font-style: italic;
        font-weight: 700;
      }

      .cls-13 {
        fill: #f3fff3;
      }

      .cls-3 {
        fill: url(#linear-gradient-3);
        opacity: .2;
      }

      .cls-14 {
        fill: #000;
      }

      .cls-15 {
        fill: #5095d0;
      }

      .cls-16 {
        fill: url(#linear-gradient-6);
      }

      .cls-5 {
        letter-spacing: 0em;
      }

      .cls-5, .cls-7, .cls-9, .cls-29, .cls-11, .cls-12 {
        fill: #fff;
      }

      .cls-34 {
        stroke: #141414;
        stroke-width: 1.35px;
      }

      .cls-34, .cls-35, .cls-36 {
        stroke-miterlimit: 10;
      }

      .cls-35, .cls-36 {
        stroke-width: .91px;
      }

      .cls-17 {
        fill: url(#linear-gradient-5);
      }

      .cls-6, .cls-19 {
        fill: #5cbb61;
      }

      .cls-18 {
        fill: #1585c4;
      }

      .cls-20 {
        fill: #1685c4;
      }

      .cls-8 {
        fill: url(#linear-gradient-2);
        mix-blend-mode: color-burn;
        opacity: .33;
      }

      .cls-21 {
        fill: #d7ae98;
      }

      .cls-22 {
        fill: #0f1824;
      }

      .cls-23 {
        fill: #141414;
      }

      .cls-24 {
        fill: #263238;
      }

      .cls-25 {
        fill: url(#linear-gradient-7);
      }

      .cls-26 {
        fill: #c3666d;
      }

      .cls-9 {
        mix-blend-mode: screen;
      }

      .cls-27 {
        fill: #1a2123;
      }

      .cls-10 {
        fill: url(#linear-gradient);
      }

      .cls-28 {
        fill: url(#linear-gradient-8);
      }

      .cls-37 {
        mix-blend-mode: overlay;
      }

      .cls-11 {
        letter-spacing: 0em;
      }

      .cls-30 {
        fill: #f7b1b3;
      }

      .cls-31 {
        fill: #b07f67;
      }

      .cls-36 {
        stroke: #0a0a0a;
      }

      .cls-12 {
        mix-blend-mode: color-dodge;
      }
    </style>
    <linearGradient id="linear-gradient" x1="399.92" y1="-3.25" x2="446.63" y2="-3.25" gradientTransform="translate(0 410.24) scale(1 -1)" gradientUnits="userSpaceOnUse">
      <stop offset="0" stop-color="#323d97"/>
      <stop offset="1" stop-color="#4653a3"/>
    </linearGradient>
    <linearGradient id="linear-gradient-2" x1="96.28" y1="-33.85" x2="96.28" y2="-46.53" gradientTransform="translate(0 410.24) scale(1 -1)" gradientUnits="userSpaceOnUse">
      <stop offset="0" stop-color="#ed4d9a"/>
      <stop offset="1" stop-color="#911940"/>
    </linearGradient>
    <linearGradient id="linear-gradient-3" x1="89.8" y1="26.82" x2="89.8" y2="-64.73" gradientTransform="translate(0 410.24) scale(1 -1)" gradientUnits="userSpaceOnUse">
      <stop offset="0" stop-color="#ed1d43"/>
      <stop offset="1" stop-color="#5d0d3e"/>
    </linearGradient>
    <linearGradient id="linear-gradient-4" x1="49.01" y1="-37.02" x2="49.01" y2="-45.58" gradientTransform="translate(0 410.24) scale(1 -1)" gradientUnits="userSpaceOnUse">
      <stop offset="0" stop-color="#56aade"/>
      <stop offset="1" stop-color="#6469af"/>
    </linearGradient>
    <linearGradient id="linear-gradient-5" x1="408.48" y1="297.45" x2="424.69" y2="297.45" gradientTransform="translate(0 410.24) scale(1 -1)" gradientUnits="userSpaceOnUse">
      <stop offset="0" stop-color="#2c2b79"/>
      <stop offset="1" stop-color="#6469af"/>
    </linearGradient>
    <linearGradient id="linear-gradient-6" x1="427.49" y1="339.12" x2="415.59" y2="258.88" gradientTransform="translate(0 410.24) scale(1 -1)" gradientUnits="userSpaceOnUse">
      <stop offset="0" stop-color="#56aade"/>
      <stop offset="1" stop-color="#6469af"/>
    </linearGradient>
    <linearGradient id="linear-gradient-7" x1="403.2" y1="233.17" x2="412.91" y2="233.17" gradientTransform="translate(0 410.24) scale(1 -1)" gradientUnits="userSpaceOnUse">
      <stop offset="0" stop-color="#2c2b79"/>
      <stop offset="1" stop-color="#6469af"/>
    </linearGradient>
    <linearGradient id="linear-gradient-8" x1="414.47" y1="248.57" x2="410.07" y2="218.92" gradientTransform="translate(0 410.24) scale(1 -1)" gradientUnits="userSpaceOnUse">
      <stop offset="0" stop-color="#56aade"/>
      <stop offset="1" stop-color="#6469af"/>
    </linearGradient>
  </defs>
  <g class="cls-4">
    <g id="Layer_1-2" data-name="Layer 1">
      <g>
        <g>
          <path class="cls-18" d="M179.36,361.32c7.14-18.25,4.93-38.82.17-57.83-1.14-4.57-2.5-9.25-5.51-12.87-1.54-1.85-3.75-3.46-6.15-3.2-3.51.39-5.34,4.37-6.04,7.83-4.46,21.87,8.26,43.43,9.96,65.69"/>
          <path class="cls-18" d="M195.71,353.32c1.57-5.47,3.56-10.87,6.65-15.64,3.09-4.77,7.38-8.9,12.63-11.09,2.33-.97,5.36-1.41,7.09.43,1.9,2.02.93,5.34-.52,7.71-7.91,12.96-25.55,17.49-33.28,30.56"/>
          <path class="cls-18" d="M186.82,363.67c4.96-7.53,9.78-15.24,12.9-23.69s4.47-17.79,2.32-26.54c-.66-2.7-2.64-5.9-5.34-5.23-1,.25-1.78.99-2.47,1.75-5.46,5.98-8.07,14.01-9.68,21.94-1.61,7.93-2.37,16.06-4.84,23.77-.37,1.15-.81,2.34-1.71,3.14-.9.8-2.41,1.04-3.29.21-.49-.46-.69-1.15-.84-1.82-.8-3.61-14.91-41.27-30.43-45.23-1.25-.32-2.55-.58-3.84-.48-20.04,1.49,20.7,46.78,20.48,52.96-14.84-15.25-18.02-18.11-25.23-20.09-5.55-1.53-15.85,2.59-13.23,9.78,1.81,4.98,7.2,7.62,12.28,9.12,5.55,1.64,11.32,2.53,16.72,4.6s10.58,5.6,12.94,10.88"/>
        </g>
        <path class="cls-18" d="M469.33,442.76c-9.75-7.34-46.28.94-46.28.94,0,0,7.55-3.02,7.51-6.93-.03-3.9-2.99-7.33-6.55-8.95-3.55-1.62-7.6-1.74-11.5-1.51-7.93.45-15.79,2.21-23.15,5.18,3.13-1.92,4.08-6.64,1.95-9.62-2.13-2.99-6.9-3.61-9.73-1.28,4.98-6.74,12.68-36.62-10.98-49.79-29.65-16.51-52.17-2.92-56.97,7.01,5.36-18.45,4.61-48.29-21.89-51.94-68.34-9.39-80.22,42.18-82.65,51.94-4.8-9.93-27.32-23.52-56.97-7.01-23.65,13.17-15.96,43.05-10.98,49.79-2.83-2.33-7.6-1.71-9.73,1.28-2.13,2.99-1.18,7.7,1.95,9.62-7.37-2.97-15.22-4.73-23.15-5.18-3.9-.22-7.94-.11-11.5,1.51-3.55,1.62-6.51,5.05-6.55,8.95-.04,3.9,7.51,6.93,7.51,6.93,0,0-36.53-8.28-46.28-.94-9.19,6.92-1.37,11.75.86,11.76,56.85.22,139.7.06,207.12.04,67.41.03,150.27.19,207.12-.04,2.23,0,10.05-4.84.86-11.76h-.02Z"/>
        <g>
          <g>
            <path class="cls-18" d="M415.82,386.18s-66.13-89.34-45.38-108.42,51.08,48.13,45.38,108.42Z"/>
            <path class="cls-29" d="M376.69,288.31c23.15,35.15,36.39,75.78,41.5,117.4,1.02,8.29,1.57,16.61,2.32,24.93.04.45.72.47.71,0-.08-16.22-2.43-32.66-5.55-48.54-3.98-20.31-10.04-40.27-18.57-59.14-5.53-12.25-12.07-24.01-19.71-35.07-.3-.43-1.01-.03-.71.42h0Z"/>
            <path class="cls-19" d="M374.95,300.53c5.67,3.91,10.91,8.39,16.55,12.3.3.21.59-.23.37-.48-4.33-4.97-10.69-9.5-16.56-12.43-.41-.2-.73.35-.36.61h0Z"/>
            <path class="cls-29" d="M377,305.88c5.67,3.91,10.91,8.39,16.55,12.3.3.21.59-.23.37-.48-4.33-4.97-10.69-9.5-16.56-12.43-.41-.2-.73.35-.36.61h0Z"/>
          </g>
          <g>
            <path class="cls-20" d="M432.79,367.64s63.76-91.05,42.51-109.57c-21.25-18.53-49.8,49.46-42.51,109.57Z"/>
            <path class="cls-20" d="M468.61,268.37c-23,35.22-34.89,76.71-38.83,118.34-.8,8.45-1.41,17.02-1.23,25.51.01.46.69.46.71,0,1.04-16.33,2.04-32.51,4.84-48.66,3.49-20.16,8.98-40.01,16.79-58.93,5.13-12.44,11.33-24.42,18.44-35.84.28-.45-.42-.86-.71-.42h-.01Z"/>
            <path class="cls-20" d="M434.7,324.04c-.14,4.02.1,8.07.36,12.08.12,1.83.28,3.65.44,5.48.08.88.14,1.77.26,2.66.1.8.15,1.69.42,2.45.09.25.54.33.59,0,.12-.8.02-1.64-.02-2.45-.04-.89-.13-1.77-.2-2.66-.13-1.83-.24-3.65-.36-5.48-.27-4.03-.41-8.07-.78-12.08-.04-.45-.69-.46-.71,0h0Z"/>
          </g>
          <g>
            <path class="cls-18" d="M426.35,343.67s-64.17-90.76-43.01-109.38,50.02,49.23,43.01,109.38Z"/>
            <path class="cls-29" d="M389.37,244.98c22.35,35.61,34.7,76.45,38.91,118.12.85,8.37,1.22,16.75,1.79,25.13.03.45.71.46.71,0,.27-16.05-1.69-32.36-4.4-48.15-3.55-20.66-9.24-41-17.47-60.29-5.24-12.28-11.48-24.09-18.83-35.23-.29-.44-1-.04-.71.42h0Z"/>
          </g>
          <g>
            <path class="cls-18" d="M420.39,370.14s39.49-54.27,26.87-65.69c-12.63-11.42-30.6,29.31-26.87,65.69Z"/>
            <path class="cls-18" d="M442.96,310.52c-9.83,14.29-16.52,30.56-20.66,47.37-3.09,12.54-5.5,26.16-5.1,39.13.01.47.66.45.71,0,1.44-13.08,2.47-25.94,5.66-38.78,4.16-16.77,10.84-32.7,20.1-47.3.29-.45-.41-.85-.71-.42h0Z"/>
          </g>
          <g>
            <polygon class="cls-24" points="446.91 409.61 446.63 411.49 446.04 415.48 440.32 453.84 406.23 453.84 400.52 415.48 399.92 411.49 399.64 409.61 446.91 409.61"/>
            <polygon class="cls-10" points="446.63 411.49 446.04 415.48 400.52 415.48 399.92 411.49 446.63 411.49"/>
            <path class="cls-24" d="M447.58,413.21h-48.6c-1.56,0-2.82-1.26-2.82-2.82h0c0-1.56,1.26-2.82,2.82-2.82h48.6c1.56,0,2.82,1.26,2.82,2.82h0c0,1.56-1.26,2.82-2.82,2.82Z"/>
          </g>
        </g>
        <g>
          <path class="cls-34" d="M87.21,380.26v-27.46c0-9.01-7.31-16.32-16.32-16.32h0c-9.01,0-16.32,7.31-16.32,16.32v27.46"/>
          <polygon class="cls-15" points="83.33 453.84 109.22 453.84 100.7 376.89 91.85 376.89 83.33 453.84"/>
          <polygon class="cls-18" points="83.33 453.84 23.65 453.84 32.17 376.89 91.85 376.89 83.33 453.84"/>
          <polygon class="cls-8" points="109.22 453.84 96.27 443.18 83.33 453.84 109.22 453.84"/>
          <polygon class="cls-3" points="96.27 443.18 83.33 453.84 91.85 376.89 96.27 376.89 96.27 443.18"/>
          <path class="cls-34" d="M78.54,380.26v-27.46c0-9.01-7.31-16.32-16.32-16.32h0c-9.01,0-16.32,7.31-16.32,16.32v27.46"/>
        </g>
        <g>
          <path class="cls-36" d="M42.9,404.19v-18.53c0-6.08-4.93-11.01-11.01-11.01h0c-6.08,0-11.01,4.93-11.01,11.01v18.53"/>
          <polygon class="cls-24" points="40.28 453.84 57.75 453.84 52 401.91 46.03 401.91 40.28 453.84"/>
          <polygon class="cls-24" points="40.28 453.84 0 453.84 5.75 401.91 46.03 401.91 40.28 453.84"/>
          <polygon class="cls-1" points="57.75 453.84 49.01 446.65 40.28 453.84 57.75 453.84"/>
          <polygon class="cls-27" points="49.01 446.65 40.28 453.84 46.03 401.91 49.01 401.91 49.01 446.65"/>
          <path class="cls-36" d="M37.05,404.19v-18.53c0-6.08-4.93-11.01-11.01-11.01h0c-6.08,0-11.01,4.93-11.01,11.01v18.53"/>
        </g>
        <g>
          <path class="cls-23" d="M421.35,31.23h.04l-.42-.2c-.59-.3-1.2-.58-1.83-.83l-9.21-4.21.55,4.61h-141.48c-14.95,0-27.61,11.02-29.67,25.82l-46.28,331.99c-.37,2.63-.18,5.2.42,7.61-3.02,1.58-7.97,4.41-7.97,4.41l17.22,8.02h0c2.97,1.75,6.45,2.78,10.19,2.78l142.13-1.95c15.89,0,29.34-11.71,31.54-27.45l45.83-328.81c1.28-9.22-3.49-17.7-11.06-21.79h0Z"/>
          <path class="cls-24" d="M342.1,403.14h-146.49c-12.17,0-21.54-10.76-19.86-22.82L222.03,48.34c2.06-14.8,14.72-25.82,29.67-25.82h146.56c13,0,23,11.49,21.21,24.37l-45.83,328.81c-2.19,15.74-15.65,27.45-31.54,27.45h0Z"/>
          <path class="cls-13" d="M403.78,51.72c-3.36-5.35-9.3-8.99-16.2-8.99h-130.99c-13.36,0-24.68,9.85-26.52,23.08l-39.71,284.53c-1.5,10.78,6.87,20.39,17.75,20.39h130.93c14.2,0,26.23-10.47,28.19-24.53l39.32-281.69,2.64-17.95-5.39,5.16h-.02Z"/>
          <path class="cls-9" d="M294.13,379.34l-1.83,13.07c-.38,2.75-2.74,4.8-5.52,4.8h-29.03c-2.89,0-5.11-2.55-4.71-5.42l1.64-11.71c.36-2.61,2.59-4.55,5.23-4.55h30.92c2.03,0,3.59,1.79,3.31,3.8h-.01Z"/>
          <path class="cls-9" d="M358.29,34.17h0c-.34,2.44-2.42,4.25-4.88,4.25h-61.34c-2.77,0-4.9-2.45-4.52-5.19l.11-.77c.38-2.75,2.73-4.79,5.5-4.79h59.47c3.47,0,6.14,3.07,5.66,6.5Z"/>
          <g>
            <path class="cls-17" d="M424.69,68.37h-3.35c-.06,0-.11.02-.17.03-.44-.06-.87.22-.93.68l-11.74,84.23c-.1.74.3,1.45.98,1.75l4.79,2.1c.11.05.22.06.33.05h3.59l-5.36-2.91,11.86-85.94h0Z"/>
            <path class="cls-16" d="M417.85,157.16l-4.79-2.1c-.68-.3-1.08-1.01-.98-1.75l11.74-84.23c.08-.54.65-.86,1.15-.64l4.59,2.01c.68.3,1.08,1.01.98,1.75l-11.77,84.44c-.06.44-.52.69-.93.52h.01Z"/>
          </g>
          <g>
            <path class="cls-25" d="M411.72,160.4h-3.35c-.06,0-.11.02-.17.03-.44-.06-.87.22-.93.68l-4.05,28.73c-.1.74.3,1.45.98,1.75l4.79,2.1c.11.05.22.06.33.05h3.59l-5.36-2.91,4.17-30.44h0Z"/>
            <path class="cls-28" d="M412.57,193.7l-4.79-2.1c-.68-.3-1.08-1.02-.98-1.75l4.05-28.73c.08-.54.65-.86,1.15-.64l4.59,2.01c.68.3,1.08,1.02.98,1.75l-4.08,28.94c-.06.44-.52.69-.93.52h.01Z"/>
          </g>
          <path class="cls-24" d="M327.83,337.83l-1.55,11.08c-.33,2.33-2.32,4.07-4.68,4.07h-89.03c-2.45,0-4.33-2.17-3.99-4.59l1.39-9.93c.31-2.21,2.2-3.86,4.43-3.86h90.63c1.72,0,3.04,1.52,2.8,3.22h0Z"/>
          <path class="cls-18" d="M246.16,339.53l-1.1,7.91c-.23,1.67-1.66,2.91-3.34,2.91h-7.14c-1.75,0-3.09-1.55-2.85-3.28l.99-7.09c.22-1.58,1.57-2.75,3.16-2.75h8.28c1.23,0,2.17,1.09,2,2.3Z"/>
          <polygon class="cls-29" points="242.72 343.05 242.5 344.56 239.66 344.56 239.24 347.53 237.57 347.53 237.99 344.56 235.15 344.56 235.37 343.05 238.2 343.05 238.61 340.12 240.28 340.12 239.87 343.05 242.72 343.05"/>
        </g>
        <g>
          <g>
            <path class="cls-21" d="M98.18,453.84h-17.63c-5,0-3.51-3.61-3.31-7.18h.02c0-.25.02-.48.02-.72,0-3.79.27-15.32.27-15.32l13.03.89s-3.37,10.76-.18,13.11c1.34,1,3.33,1.57,5.45,2.07l.02.02c2.87.66,6.04,1.23,8.38,2.64,4.1,2.46.1,4.51-6.05,4.51l-.02-.02Z"/>
            <path class="cls-29" d="M107.32,453.81s-21.95.03-27.44,0c-1.98-.01-2.92.03-4.37.03,0-.21,0-.45.01-.71.04-2.84.4-8.19,1.72-7.89,7.66,1.79,9.57.79,13.14-.64,1.82,1.15,5.16,2,7.27,2.49,7.68.33,9.26,4.41,9.58,6.05.08.41.08.67.08.67h.01Z"/>
            <g>
              <path class="cls-33" d="M92.63,445.45s-.92.45-1.24,1.59"/>
              <path class="cls-33" d="M95.14,446.24s-.91.46-1.22,1.61"/>
              <path class="cls-33" d="M97.6,446.97s-.85.57-1.01,1.75"/>
            </g>
          </g>
          <g>
            <path class="cls-21" d="M163.02,453.84h-17.63c-5,0-3.51-3.61-3.31-7.18h.02c0-.25-.08-.5.02-.72,1.56-3.68-3.1-14.15-3.1-14.15l13.5-.24s-.46,10.71,2.72,13.06c1.34,1,3.33,1.57,5.45,2.07l.02.02c2.87.66,6.04,1.23,8.38,2.64,4.1,2.46.1,4.51-6.05,4.51h-.02Z"/>
            <path class="cls-29" d="M172.17,453.81s-21.95.03-27.44,0c-1.98-.01-2.92.03-4.37.03,0-.21,0-.45,0-.71.04-2.84.4-8.19,1.72-7.89,7.66,1.79,9.57.79,13.14-.64,1.82,1.15,5.16,2,7.27,2.49,7.68.33,9.26,4.41,9.58,6.05.08.41.08.67.08.67h0Z"/>
            <g>
              <path class="cls-33" d="M157.48,445.45s-.92.45-1.24,1.59"/>
              <path class="cls-33" d="M159.98,446.24s-.91.46-1.22,1.61"/>
              <path class="cls-33" d="M162.45,446.97s-.84.57-1.01,1.75"/>
            </g>
          </g>
          <g>
            <g>
              <path class="cls-30" d="M190.83,164.53c-1.03,1.74-1.63,2.13-2.6,2.97s-3.89,2.3-4.04,2.08-.71-2.78.25-4.3,1.54-3.6.34-2.85-7.38,5.65-8.11,13.56c1.76,1.68,3.69,4.5,5.53,6.04,0,0,1.82-2.55,3.64-3.37,2.49-1.13,3.56-3.21,4-5.3.33-1.58,2.96-8.24,3.32-10.13s-1.29-.44-2.32,1.31h0Z"/>
              <path class="cls-31" d="M192.41,165.76c-.66,1.28-1.4,2.52-2.18,3.73-.36.64-1,1.1-1.58,1.49-.6.4-1.22.77-1.85,1.12l1.76-1.25c.58-.43,1.16-.83,1.5-1.47.8-1.19,1.54-2.43,2.35-3.62Z"/>
              <path class="cls-31" d="M190.72,170.57c-.22.4-.45.78-.69,1.16-.25.38-.5.75-.8,1.1-.67.63-1.4,1.15-2.16,1.63.66-.62,1.39-1.16,2.02-1.78.3-.32.55-.7.82-1.05.27-.36.54-.72.82-1.07h-.01Z"/>
            </g>
            <path class="cls-30" d="M70.54,239.88l15.71,16.09s-4.72,9.8-4.95,11.16c-.34,2.01,1.25,4.93,1.25,4.93l10.86-16.48-9.71-16.67-13.15.96h-.01Z"/>
            <g>
              <path class="cls-24" d="M128.13,255.97s23.5,78.8,24.78,86.21c1.28,7.41.7,89.08.7,97.96-4.3.78-10.19.98-12.38.72-7.99-29.29-15.65-48.87-13.1-84.89,0-9.96-4.85-20.43-12.77-34.99s-10.47-16.86-10.47-16.86c0,0-22.99-16.86-10.47-36.02"/>
              <path class="cls-24" d="M92.69,255.97s-13.79,10.92-13.41,23.95c.57,8.05,5.17,19.16,5.17,19.16,0,0,4.21,39.27,3.07,45.4-1.15,6.13-10.94,17.05-10.65,55.94-.3,12.05.33,38.56.37,40.1,3.63.77,11.81,0,11.81,0,0,0,20.43-80.76,22.73-92.1,2.3-11.35,5.62-42.25,5.62-42.25l9.77-53.38-34.48,3.19h0Z"/>
              <g class="cls-37">
                <path class="cls-22" d="M115.87,321.8c-3.54-5.91-6.88-12.1-11.22-17.45-11.47-8.23-19.28-23.03-10.23-36.25-.86,1.51-1.6,3.08-2.18,4.71-4.46,11.93,3.46,24.14,12.89,31.08,4.35,5.49,7.5,11.75,10.75,17.92h-.01Z"/>
              </g>
            </g>
            <path class="cls-18" d="M128.13,255.97c-3.16,2.68-6.42,1.44-11.4,1.92s-14.65.09-20.11,0-7.39-.95-4.69-4.31c2.67-3.36-3.17-16.38-3.17-16.38l-3.16-35.25,7.66-14.5,15.71,1.09h5.1l14.05,29.32s-.09.52-.34,1.35c-.58,1.93-2.04,5.56-5.38,8.38-.02.02-.03.03-.03.03,2.68,15.33,3.74,21.07,4.69,22.02s4.21,3.65,1.06,6.33h.01Z"/>
            <path class="cls-30" d="M108.84,173.93s.39,13.08,5.25,14.61c-1.92,3.19-6.77,4.52-14.69,1.04-1.53-9.98-1.15-20.2-1.15-20.2l8.35.64,2.24,3.9h0Z"/>
            <path class="cls-30" d="M176.67,175.99c-.02.14-21.08,18.2-27.5,23.5-3.75,0-20.18-5.02-20.18-5.02l-2.68,20.02s20.91,2.84,27.17.8c6.12-2,23.22-24.98,29.75-34.78-2.6-1.55-4.41-2.93-6.55-4.52h-.01Z"/>
            <path class="cls-15" d="M114.09,188.54s14.06,5.15,20.1,6.4c7.65,5.32-3.75,22.72-4.14,24.63-4.79-.57-14.21-2.49-21.07-7.09"/>
            <g class="cls-37">
              <path class="cls-22" d="M130.05,219.57c-7.43-.46-15.07-2.56-21.07-7.09,6.55,3.61,13.79,5.58,21.07,7.09h0Z"/>
            </g>
            <path class="cls-26" d="M108.84,173.93s-3.02-.55-4.41-1.5c1.32,2.44,4.55,3.56,4.55,3.56,0,0-.14-2.06-.14-2.06Z"/>
            <path class="cls-24" d="M112.92,145.41c-.06-1.44-.42-2.87-1.16-4.1-1.51-2.49-5.02-5.92-12.74-5.26-11.88,1.02-18.14,9.2-21.07,21.84-2.94,12.64-5.17,21.46-19.54,28.54-14.37,7.09-37.93,43.1,17.43,56.13,18.39,3.83,26.82-10.15,26.44-25.86-.38-15.71-.19-15.52,2.11-20.69s8.05-17.82-5.17-29.69c10.13-7.6,14.11-11.61,13.72-20.91h-.02Z"/>
            <path class="cls-30" d="M112.81,143.71s11.49,19.92,1.15,29.88c-1.53.57-10.54,2.11-14.75-7.28-1.72-.19-6.71-5.36-2.87-8.43,1.51-.75,3.68-.8,4.79.71.66.9,1.85,1.24,2.76.59,3.45-2.48,8.83-9.14,8.93-15.47h-.01Z"/>
            <path class="cls-30" d="M176.89,174.47s-.3,1.39-.99,2.22c.04.98.78.94.78.94l.21-3.17h0Z"/>
          </g>
          <path class="cls-14" d="M111.44,140.81c1.07,1.68,1.77,3.59,2.05,5.59.26,1.99,0,4.1-.9,5.93-.93,1.81-2.32,3.35-3.96,4.5-.81.58-1.72,1.02-2.58,1.53l-2.78,1.1,2.66-1.32c.82-.55,1.69-1.02,2.46-1.62,1.55-1.19,2.88-2.67,3.73-4.41.89-1.73,1.14-3.72.98-5.66-.11-.97-.28-1.94-.57-2.88-.26-.95-.62-1.87-1.08-2.75h-.01Z"/>
        </g>
        <g>
          <g>
            <path class="cls-18" d="M312.88,202.57h59.03c4.75,0,8.77-3.5,9.43-8.21l12.14-86.97c.48-3.43-2.18-6.49-5.64-6.49h-60.38c-4.05,0-7.48,2.98-8.04,6.99l-12.29,88.06c-.49,3.5,2.23,6.62,5.76,6.62h0Z"/>
            <polygon class="cls-29" points="386.92 105.66 386.1 111.53 327.4 111.53 328.22 105.66 386.92 105.66"/>
            <polygon class="cls-29" points="374.37 186.3 373.77 190.56 315.09 190.56 315.69 186.3 374.37 186.3"/>
            <polygon class="cls-29" points="330.13 191.9 329.83 194.03 314.33 194.03 314.63 191.9 330.13 191.9"/>
            <g>
              <path class="cls-29" d="M369.08,134.23c-.45-12.32-5.52-16.49-5.52-16.49h-20.39s-6.23,4.16-10.15,16.49c-3.92,12.32.97,47.54.97,47.54h7.04l8.79-45.57c.09-.45.56-.8,1.07-.8h0c.51,0,.88.35.84.8l-4.02,45.57h7.04s14.79-35.21,14.33-47.54h0Z"/>
              <path class="cls-29" d="M363.24,116.43h-19.43c-.24,0-.47.2-.5.44h0c-.03.24.14.44.38.44h19.43c.24,0,.47-.2.5-.44h0c.03-.24-.14-.44-.38-.44Z"/>
            </g>
          </g>
          <g>
            <path class="cls-18" d="M296.49,316.44h59.03c4.75,0,8.77-3.5,9.43-8.21l12.14-86.97c.48-3.43-2.18-6.49-5.64-6.49h-60.38c-4.05,0-7.48,2.98-8.04,6.99l-12.29,88.06c-.49,3.5,2.23,6.62,5.76,6.62h0Z"/>
            <polygon class="cls-29" points="370.53 219.54 369.71 225.4 311.01 225.4 311.83 219.54 370.53 219.54"/>
            <polygon class="cls-29" points="357.98 300.18 357.38 304.43 298.7 304.43 299.3 300.18 357.98 300.18"/>
            <path class="cls-29" d="M348.57,261.82c-1.12-8.67-5.61-17-3.53-22.34,2.08-5.33,4.76-10.17,4.76-10.17.89-1.69-.14-3.38-3.88.72-4.37,4.78-9.39,5.11-9.39,5.11,0,0-4.93-.33-7.95-5.11-2.59-4.1-4.1-2.41-3.68-.72,0,0,1.32,4.83,1.9,10.17.58,5.33-6.26,13.67-9.81,22.34-3.55,8.67,3.56,35.56,3.56,35.56h14.45s14.67-26.89,13.56-35.56h.01Z"/>
            <g>
              <path class="cls-12" d="M380.65,245.03c-1.17,8.34-8.88,15.1-17.22,15.1s-14.15-6.76-12.98-15.1c1.17-8.34,8.88-15.1,17.22-15.1s14.15,6.76,12.98,15.1Z"/>
              <g class="cls-4">
                <text class="cls-2" transform="translate(354.54 247.78)"><tspan x="0" y="0">SALE</tspan></text>
              </g>
            </g>
            <polygon class="cls-29" points="313.74 305.77 313.44 307.9 297.94 307.9 298.24 305.77 313.74 305.77"/>
          </g>
          <g>
            <path class="cls-18" d="M211.97,316.44h59.03c4.75,0,8.77-3.5,9.43-8.21l12.14-86.97c.48-3.43-2.18-6.49-5.64-6.49h-60.38c-4.05,0-7.48,2.98-8.04,6.99l-12.29,88.06c-.49,3.5,2.23,6.62,5.76,6.62h-.01Z"/>
            <polygon class="cls-29" points="286.01 219.54 285.19 225.4 226.49 225.4 227.32 219.54 286.01 219.54"/>
            <polygon class="cls-29" points="273.46 300.18 272.86 304.43 214.18 304.43 214.78 300.18 273.46 300.18"/>
            <g>
              <path class="cls-29" d="M226.93,255.36c1.85-7.43,6.65-13.36,9.1-16.01.88-.96,2.1-1.51,3.32-1.51h25.65c1.22,0,2.28.55,2.9,1.51,1.71,2.65,4.85,8.57,4.61,16.01-.33,10.17-13.37,37.29-13.37,37.29h-29.31s-5.42-27.12-2.89-37.29h0Z"/>
              <path class="cls-29" d="M238.53,235.8h27.88c.47,0,.79.38.73.85h0c-.07.47-.5.85-.97.85h-27.88c-.47,0-.79-.38-.73-.85h0c.07-.47.5-.85.97-.85Z"/>
            </g>
            <polygon class="cls-29" points="229.56 305.77 229.25 307.9 213.75 307.9 214.05 305.77 229.56 305.77"/>
          </g>
        </g>
        <g>
          <polygon class="cls-29" points="235.23 42.73 202.09 57.84 378.78 57.84 412.07 42.73 235.23 42.73"/>
          <path class="cls-18" d="M202.09,57.84h19.63v21.42c0,5.41-4.39,9.79-9.79,9.79h-.04c-5.41,0-9.79-4.39-9.79-9.79v-21.42h-.01Z"/>
          <path class="cls-29" d="M221.72,57.84h19.63v21.42c0,5.41-4.39,9.79-9.79,9.79h-.04c-5.41,0-9.79-4.39-9.79-9.79v-21.42h-.01Z"/>
          <path class="cls-18" d="M241.35,57.84h19.63v21.42c0,5.41-4.39,9.79-9.79,9.79h-.04c-5.41,0-9.79-4.39-9.79-9.79v-21.42h0Z"/>
          <path class="cls-29" d="M260.98,57.84h19.63v21.42c0,5.41-4.39,9.79-9.79,9.79h-.04c-5.41,0-9.79-4.39-9.79-9.79v-21.42h0Z"/>
          <path class="cls-18" d="M280.6,57.84h19.63v21.42c0,5.41-4.39,9.79-9.79,9.79h-.04c-5.41,0-9.79-4.39-9.79-9.79v-21.42h0Z"/>
          <path class="cls-29" d="M300.23,57.84h19.63v21.42c0,5.41-4.39,9.79-9.79,9.79h-.04c-5.41,0-9.79-4.39-9.79-9.79v-21.42h0Z"/>
          <path class="cls-18" d="M319.86,57.84h19.63v21.42c0,5.41-4.39,9.79-9.79,9.79h-.04c-5.41,0-9.79-4.39-9.79-9.79v-21.42h0Z"/>
          <path class="cls-29" d="M339.49,57.84h19.63v21.42c0,5.41-4.39,9.79-9.79,9.79h-.04c-5.41,0-9.79-4.39-9.79-9.79v-21.42h0Z"/>
          <path class="cls-18" d="M359.11,57.84h19.63v21.42c0,5.41-4.39,9.79-9.79,9.79h-.04c-5.41,0-9.79-4.39-9.79-9.79v-21.42h0Z"/>
          <polygon class="cls-13" points="254.86 42.73 221.72 57.84 202.09 57.84 235.23 42.73 254.86 42.73"/>
          <polygon class="cls-18" points="294.12 42.73 260.98 57.84 241.35 57.84 274.49 42.73 294.12 42.73"/>
          <polygon class="cls-15" points="333.37 42.73 300.23 57.84 280.6 57.84 313.74 42.73 333.37 42.73"/>
          <polygon class="cls-15" points="372.63 42.73 339.49 57.84 319.86 57.84 353 42.73 372.63 42.73"/>
          <polygon class="cls-15" points="412.07 42.73 378.74 57.84 359.11 57.84 392.25 42.73 412.07 42.73"/>
          <polyline class="cls-15" points="412.07 42.73 409.04 64.33 378.74 79.26 378.74 57.84"/>
        </g>
        <g>
          <path class="cls-15" d="M205.57,205.73h75.67c6.09,0,11.25-4.49,12.09-10.52l15.56-111.5c.61-4.39-2.8-8.31-7.23-8.31h-77.41c-5.19,0-9.58,3.82-10.3,8.96l-15.76,112.89c-.63,4.48,2.86,8.48,7.38,8.48h0Z"/>
          <path class="cls-18" d="M203.12,203.79h75.67c6.09,0,11.25-4.49,12.09-10.52l15.56-111.5c.61-4.39-2.8-8.31-7.23-8.31h-77.41c-5.19,0-9.58,3.82-10.3,8.96l-15.76,112.89c-.63,4.48,2.86,8.48,7.38,8.48h0Z"/>
          <path class="cls-24" d="M174.44,113.79h39.06c1.95,0,3.6-1.44,3.87-3.37l1.89-12.48c.2-1.41-.9-2.66-2.31-2.66h-39.61c-1.66,0-3.07,1.22-3.3,2.87l-1.95,12.92c-.2,1.43.91,2.71,2.36,2.71h0Z"/>
          <path class="cls-29" d="M290.85,127.74s-1.78-15.38-2.91-21.35-6.19-8.41-6.19-8.41c-16.26,10.84-37.01,10.84-50.22,0,0,0-5.74,2.43-8.55,8.41-2.81,5.97-8.92,21.35-8.92,21.35l13.1,4.1,3.29-5.37-8.32,47.96h47.52l5.16-47.96,1.78,5.37,14.26-4.1Z"/>
          <polygon class="cls-29" points="298.04 79.56 296.99 87.08 221.74 87.08 222.79 79.56 298.04 79.56"/>
          <polygon class="cls-29" points="281.95 182.94 281.18 188.39 205.95 188.39 206.73 182.94 281.95 182.94"/>
          <polygon class="cls-29" points="225.24 190.11 224.85 192.84 204.98 192.84 205.36 190.11 225.24 190.11"/>
          <g class="cls-4">
            <text class="cls-7" transform="translate(184.08 107.32)"><tspan x="0" y="0">SALE</tspan></text>
          </g>
          <g class="cls-4">
            <text class="cls-7" transform="translate(251.68 346.45)"><tspan x="0" y="0">ADD </tspan></text>
            <text class="cls-5" transform="translate(274.39 346.45)"><tspan x="0" y="0">T</tspan></text>
            <text class="cls-7" transform="translate(279.59 346.45)"><tspan x="0" y="0">O </tspan></text>
            <text class="cls-11" transform="translate(289.05 346.45)"><tspan x="0" y="0">C</tspan></text>
            <text class="cls-7" transform="translate(295.09 346.45)"><tspan x="0" y="0">A</tspan></text>
            <text class="cls-11" transform="translate(301.63 346.45)"><tspan x="0" y="0">R</tspan></text>
            <text class="cls-7" transform="translate(307.71 346.45)"><tspan x="0" y="0">T</tspan></text>
          </g>
        </g>
        <g>
          <path class="cls-18" d="M67.14,114.44H26.45c-2.35,0-4.25,1.9-4.25,4.25v18.59c0,2.35,1.9,4.25,4.25,4.25h30.41c.81,0,1.58.39,2.05,1.06l6.47,9.06c.21.3.68.15.68-.22v-8.82c0-.6.48-1.08,1.08-1.08h0c2.35,0,4.25-1.9,4.25-4.25v-18.59c0-2.35-1.9-4.25-4.25-4.25h0Z"/>
          <line class="cls-35" x1="27.62" y1="118.47" x2="65.97" y2="118.47"/>
          <line class="cls-35" x1="27.62" y1="123.08" x2="65.97" y2="123.08"/>
          <line class="cls-35" x1="27.62" y1="127.7" x2="65.97" y2="127.7"/>
          <line class="cls-35" x1="27.62" y1="132.31" x2="65.97" y2="132.31"/>
          <line class="cls-35" x1="27.62" y1="136.92" x2="46.79" y2="136.92"/>
        </g>
        <g class="cls-32">
          <path class="cls-19" d="M193.51,19.11c-1.48,10.56-11.24,19.11-21.8,19.11s-17.91-8.56-16.43-19.11c1.48-10.56,11.24-19.11,21.8-19.11s17.91,8.56,16.43,19.11Z"/>
        </g>
        <path class="cls-6" d="M453.93,237.02c-1.48,10.56-11.24,19.11-21.8,19.11s-17.91-8.56-16.43-19.11c1.48-10.56,11.24-19.11,21.8-19.11s17.91,8.56,16.43,19.11h0Z"/>
      </g>
    </g>
  </g>
</svg>