<?xml version="1.0" encoding="UTF-8"?>
<svg id="Layer_1" data-name="Layer 1" xmlns="http://www.w3.org/2000/svg" viewBox="0 0 461.56 452.96">
  <defs>
    <style>
      .cls-1 {
        fill: #ff725e;
      }

      .cls-1, .cls-2, .cls-3, .cls-4, .cls-5, .cls-6, .cls-7, .cls-8, .cls-9, .cls-10, .cls-11, .cls-12, .cls-13 {
        stroke-width: 0px;
      }

      .cls-2 {
        fill: #ff9a6c;
      }

      .cls-3 {
        fill: #000;
      }

      .cls-4 {
        fill: #e0e0e0;
      }

      .cls-14 {
        opacity: .5;
      }

      .cls-5 {
        fill: #455a64;
      }

      .cls-6 {
        fill: #f5f5f5;
      }

      .cls-7 {
        fill: #ebebeb;
      }

      .cls-8 {
        fill: #1585c4;
      }

      .cls-9 {
        fill: #5cbb61;
      }

      .cls-15 {
        opacity: .3;
      }

      .cls-10 {
        fill: #263238;
      }

      .cls-11 {
        fill: #ffbf9d;
      }

      .cls-12 {
        fill: #fafafa;
      }

      .cls-13 {
        fill: #fff;
      }

      .cls-16 {
        opacity: .2;
      }
    </style>
  </defs>
  <g id="freepik--background-complete--inject-18">
    <path class="cls-4" d="M30.98,326.71c-5.26-3.3-11.2-5.36-17.38-6-2.84-.29-5.95-.21-8.23,1.51-.53.31-.85.88-.84,1.5.14.42.42.77.8,1,7.07,5.4,17.77,6.08,25.65,1.94"/>
    <path class="cls-4" d="M30.54,326.22c-4.03-2.95-7.79-6.26-11.23-9.88-3.44-3.64-5.86-8.12-7-13-.3-1.48-.4-3.18.55-4.36,9,7,16,16,17.72,27.26"/>
    <path class="cls-4" d="M30.89,326.62c-.83-4.88-.76-9.88.21-14.74,1.12-4.81,3.74-9.42,7.85-12.16,1.55,3.61.88,7.78-.21,11.55-1.69,5.85-4.31,11.39-7.78,16.4"/>
    <path class="cls-4" d="M39.63,342.37c-5.32.65-10,3.45-13.94,7.05-4.01,3.64-6.8,8.42-8,13.7,5.22-.33,9.65-4,12.87-8.14s5.44-8.67,9-12.53"/>
    <path class="cls-4" d="M41.57,344.88c-4.25-10.82-2.75-23.06,4-32.53,3,10.8,1.92,23-4,32.53"/>
    <path class="cls-4" d="M53.16,358.69c-9.95-.61-19.3,4.77-23.77,13.68-.3.59-.56,1.34-.16,1.87.41.41,1,.58,1.57.46,4.69-.3,8.84-3.12,12.27-6.33s6.41-6.92,10.2-9.7"/>
    <path class="cls-4" d="M52.79,357.94c-2.49-8.04-2.64-16.62-.44-24.74.87-3.18,2.34-6.54,5.28-8,.24-.16.53-.21.81-.14.24.13.42.34.51.59.99,2.23,1.42,4.67,1.24,7.1-.17,2.42-.54,4.82-1.11,7.18-.93,4.39-1.42,9.11-3.83,12.9-.56.9-1.07,1.83-1.53,2.79-.45,1-.46,1.3-.87,2.07"/>
    <path class="cls-4" d="M83.48,362.51c-2.27-8.65.14-19.14,5.59-26.23.41-.52.94-1.08,1.59-1,1,.1,1.27,1.43,1.22,2.44-.41,8.9-3.32,17.5-8.4,24.81"/>
    <path class="cls-4" d="M86.25,364.4c10.51,2.73,22.56.08,31.3-6.37-5.23-2.62-11.21-3.36-16.92-2.08-5.66,1.3-10.84,3.83-14.36,8.45"/>
    <path class="cls-4" d="M88.63,358.62c5.89-9.59,17.17-15.86,28.41-16.43-1.29,4.58-5.05,8.13-9.29,10.28s-9,3.08-13.64,4c-1.81.35-4.3.74-5.48,2.16"/>
    <path class="cls-4" d="M84.07,330.7c1.59-5.46,3.19-11,3.63-16.64s-.37-11.59-3.31-16.46c-5.5,10.64-6.05,23.07-.49,33.67"/>
    <path class="cls-4" d="M102.63,321.34c6.42-11.68,19.54-21,32.81-22.32-5.12,12.75-19.08,22.6-32.81,22.32"/>
    <path class="cls-4" d="M98.53,323.62c9.59,1.46,17.76,7.59,26.72,11.3,1.87.89,3.93,1.29,6,1.15,2.61-.02,4.72-2.15,4.7-4.76,0-1.39-.63-2.71-1.7-3.6-1.27-1.17-2.76-2.07-4.39-2.66-9.76-4.06-20.22-4.16-30.5-1.7"/>
    <path class="cls-4" d="M92.98,330.36c2.17.62,2.92,1.74,4.63,3.21,5.86,4.98,12.8,8.54,20.26,10.4.78.2,1.79.27,2.18-.43s-.09-1.35-.53-1.89c-3.25-3.82-7.48-6.69-12.23-8.31-4.68-1.74-8.73-3.83-14.31-3.38"/>
    <path class="cls-4" d="M86.72,289.74c7.95,7.33,18.63,10.96,29.4,10,.49,0,.96-.17,1.33-.49.74-.8-.14-2-1-2.71-8.64-6.74-19.1-9.54-29.72-6.81"/>
    <path class="cls-4" d="M94.15,287.03c10.55-7.77,24.18-10.02,36.67-6.05-4.62,4.55-11,7-17.47,7.67-6.45.59-12.94.04-19.2-1.62"/>
    <path class="cls-4" d="M91.2,268.37c-.85-8.63-.3-15.44-.9-24.1,0-.7-.2-1.53-.85-1.78-.9-.35-1.65.76-1.94,1.68-2.54,8.14-1.19,16.99,3.67,24"/>
    <path class="cls-4" d="M90.63,269.32c5.84-3.62,10.23-8.34,14.28-13.89,2.83-3.86,5.2-8.48,4.56-13.22-4-.08-7.73,2.1-10.3,5.11-2.46,3.12-4.25,6.72-5.26,10.57-1.14,3.8-1.94,7.7-3.28,11.43"/>
    <path class="cls-4" d="M104.63,265.42c12.86-4.77,24.77-11.79,35.17-20.73-4.2-1.7-9-.68-13.21,1-9.6,3.87-17.43,10.41-22.14,19.63"/>
    <path class="cls-4" d="M94.52,274.04c6.49.71,13.09,1.17,19.53.09s12.31-3.56,18.22-6.05c.52-.15.96-.48,1.24-.94.2-.56.02-1.18-.44-1.56-.45-.36-.98-.61-1.55-.73-6.44-1.8-13.38-1-19.7,1.18-6.03,2.05-11.83,4.73-17.3,8"/>
    <path class="cls-4" d="M57.46,290.04c-4.43-8.94-4.14-19.37-.32-28.58,2.7,4.1,3,9.32,2.53,14.21s-2,9.91-2.07,14.81"/>
    <path class="cls-4" d="M39.77,281.12c-11.21-.15-21.97,4.44-29.63,12.62,5.52.86,11.2-.56,16.22-3s9.48-5.89,13.9-9.31"/>
    <path class="cls-4" d="M27.87,277.14c-5.41-.44-10.61-1.11-15.81.48s-9.94,5.22-12.06,10.22c5.1.42,10.23-.54,14.83-2.79,4.56-2.25,8.91-4.9,13-7.91"/>
    <path class="cls-4" d="M45.48,277.32c-4.86-3.19-9.86-6.43-15.53-7.76s-12.23-.34-16.18,3.93c4.59,2.69,10.15,3,15.47,3s11.84-.07,16.85,1.71"/>
    <path class="cls-4" d="M45.51,277.62c-8.32-8.17-11.47-22.85-8.12-34,6.56,10.05,9.43,22.07,8.12,34"/>
    <path class="cls-4" d="M68.39,254.43c1.57-3.65,2.67-7.47,4.08-11.19,1.28-3.77,3.25-7.26,5.81-10.31,2.62-3.06,6.34-4.97,10.35-5.31-2.59,11.38-9.85,21.14-20,26.9"/>
    <path class="cls-4" d="M64.25,259.26c-2.6-3.58-5.6-8.43-9.12-11.1s-8.1-4.28-12.4-3.25c4.52,7.9,12.49,13.22,21.52,14.35"/>
    <path class="cls-4" d="M65.08,254.73c-1.87-4.26-3.25-8.72-4.11-13.29-.69-4.6-.27-9.51,2.08-13.51,4.57,8.63,6,17.89,2.26,26.9"/>
    <path class="cls-4" d="M68.43,227.93c2.59-8.56,10.42-14.86,18.88-17.75,1.05-.43,2.18-.6,3.31-.5,1.14.11,2.1.9,2.44,2,.31,1.45-.89,2.76-2,3.72-6.62,5.67-14.32,9.93-22.63,12.53"/>
    <path class="cls-4" d="M68.52,220.93c.33-5.52.68-11.12,2.47-16.35s5.25-10.13,10.28-12.42c.86,5.58-1.6,11.12-4.56,15.92s-6.54,9.32-8.32,14.67"/>
    <path class="cls-4" d="M68.39,224.72c-2.14-6.23-2.36-14.15-6.1-19.59-2.61-3.79-6.79-6.38-9-10.4-1.35,3.86-1.16,8.09.53,11.81,1.7,3.68,4.04,7.03,6.91,9.89,2.76,2.95,5.13,5.17,7.7,8.29"/>
    <path class="cls-4" d="M68.43,408.38c-.17,0-.31-41.6-.32-92.91s.11-92.92.28-92.92.31,41.6.32,92.92-.08,92.91-.28,92.91Z"/>
    <path class="cls-4" d="M104.79,283.76c-.5.25-1.03.44-1.57.59l-4.3,1.45c-3.63,1.24-8.62,3-14,5.25s-10.44,4.16-13.29,6.65c-1.15.96-2.06,2.17-2.67,3.54-.41,1-.49,1.57-.54,1.56s0-.15,0-.44c.07-.41.17-.82.31-1.21.54-1.45,1.44-2.74,2.61-3.76,1.73-1.47,3.68-2.68,5.76-3.59,2.31-1.07,4.87-2.19,7.58-3.31,5.43-2.22,10.45-4,14.12-5.09,1.84-.57,3.34-1,4.37-1.27.53-.18,1.07-.3,1.62-.37h0Z"/>
    <path class="cls-4" d="M116.7,254.49s-.14.18-.44.47l-1.33,1.25-5,4.53-16.58,14.77c-6.48,5.76-12.07,11.27-16,15.42-1.94,2.07-3.47,3.78-4.52,5l-1.2,1.38c-.28.31-.44.47-.45.45.1-.19.21-.37.35-.53.26-.33.62-.83,1.12-1.45,1-1.25,2.48-3,4.39-5.12,5.01-5.47,10.3-10.67,15.86-15.58,6.49-5.75,12.41-10.91,16.7-14.64l5.11-4.38,1.41-1.17c.18-.15.37-.29.58-.4h0Z"/>
    <path class="cls-4" d="M86.37,281.37c-.17-.08,1.18-3.2,2.53-7.15s2-7.28,2.17-7.25-.23,3.44-1.6,7.44c-.57,1.7-1.24,3.37-2,5-.27.7-.64,1.36-1.1,1.96Z"/>
    <path class="cls-4" d="M68.47,306.55c-.38-.35-.71-.74-1-1.16l-2.56-3.28c-2.14-2.77-5.11-6.6-8.44-10.79s-6.39-8-8.6-10.68l-2.61-3.23c-.34-.38-.65-.8-.91-1.24.4.32.76.69,1.08,1.09.67.72,1.61,1.78,2.76,3.11,2.3,2.65,5.42,6.37,8.75,10.57s6.25,8.08,8.31,10.92c1,1.42,1.86,2.58,2.41,3.39.31.41.58.84.81,1.3Z"/>
    <path class="cls-4" d="M60.5,296.32c-1.61-1.78-2.76-3.92-3.34-6.25-.63-2.04-.89-4.18-.76-6.31h.26c-.11.49-.2.74-.25.73s0-.27,0-.77h.27c.13,2.08.48,4.13,1.06,6.13,1.07,3.77,2.89,6.37,2.76,6.47h0Z"/>
    <path class="cls-4" d="M50.2,283.37c-.71-.55-1.5-1-2.33-1.35-2.1-.63-4.3-.81-6.47-.52-2.2.17-4.38.52-6.52,1.05-.88.27-1.77.49-2.68.65.8-.48,1.66-.84,2.57-1.06,2.14-.65,4.35-1.07,6.58-1.24,2.25-.3,4.54-.05,6.68.72.9.32,1.67.93,2.17,1.75Z"/>
    <path class="cls-4" d="M47.76,280.23c0,.1-1.35-.54-3.57-1.3-2.88-.97-5.88-1.59-8.91-1.83-3.04-.23-6.09-.07-9.09.46-2.3.41-3.7.84-3.73.75.31-.19.65-.33,1-.41.88-.31,1.79-.56,2.7-.76,6.08-1.33,12.42-.84,18.23,1.39.87.34,1.72.72,2.55,1.16.3.14.57.33.82.54h0Z"/>
    <path class="cls-4" d="M68.39,266.97c-.16,0-1.33-4-2.61-9.05s-2.18-9.16-2-9.2,1.33,4,2.6,9,2.17,9.21,2.01,9.25Z"/>
    <path class="cls-4" d="M68.55,266.97c-.18.06-.93-2.65-2.88-5.42-1.22-1.64-2.65-3.11-4.25-4.39.6.16,1.16.45,1.64.85,1.21.88,2.26,1.96,3.1,3.19,2.03,2.89,2.54,5.76,2.39,5.77h0Z"/>
    <path class="cls-4" d="M68.43,386.2c-.07,0-.19-1-.66-2.76-.68-2.49-1.62-4.9-2.78-7.2-2.87-5.88-8.1-13.33-14.75-20.79-3.29-3.76-6.49-7.31-9.2-10.71-2.43-2.99-4.63-6.16-6.58-9.48-1.3-2.25-2.41-4.61-3.32-7.05-.3-.86-.53-1.54-.65-2-.08-.23-.14-.47-.17-.72.05,0,.36.95,1,2.65.98,2.39,2.14,4.7,3.47,6.91,1.99,3.27,4.21,6.4,6.64,9.36,2.73,3.36,5.93,6.89,9.23,10.66,6.66,7.48,11.88,15,14.68,21,1.13,2.34,2.01,4.8,2.62,7.33.19.9.32,1.6.37,2.09.06.23.09.47.1.71h0Z"/>
    <path class="cls-4" d="M101.28,349.1c-.55.37-1.13.7-1.72,1-1.56.89-3.05,1.9-4.47,3-2.09,1.63-4.05,3.42-5.86,5.35-2.06,2.17-4.18,4.7-6.34,7.4-4.33,5.43-8.38,10.24-10.8,14.07-1.23,1.9-2.13,3.51-2.71,4.63-.29.6-.63,1.18-1,1.73.03-.17.08-.33.16-.48.13-.31.3-.78.58-1.35.77-1.66,1.64-3.28,2.61-4.83,2.35-3.92,6.37-8.79,10.69-14.21,2.16-2.72,4.31-5.25,6.41-7.42,1.84-1.94,3.85-3.71,6-5.3,1.45-1.07,3-2.01,4.61-2.82.57-.29,1-.47,1.35-.6.15-.08.32-.14.49-.17Z"/>
    <path class="cls-4" d="M101.92,361.14c-1.2.26-2.41.43-3.63.52-2.93.3-5.82.87-8.64,1.7-2.78.91-5.39,2.28-7.72,4.06-1.79,1.38-2.62,2.52-2.71,2.45.13-.31.31-.59.54-.84.57-.71,1.2-1.36,1.9-1.94,2.3-1.92,4.95-3.38,7.81-4.3,2.85-.85,5.8-1.37,8.77-1.55,1.22-.15,2.45-.18,3.68-.1h0Z"/>
    <path class="cls-4" d="M80.28,368.55c-.19-.11,1.45-2.62,2.73-6s1.47-6.38,1.68-6.34c.1.65.08,1.31-.06,1.95-.18,1.57-.53,3.11-1.06,4.6-.55,1.48-1.26,2.89-2.11,4.22-.3.58-.7,1.12-1.18,1.57h0Z"/>
    <path class="cls-4" d="M111.92,316.78c-.18.13-.37.23-.58.31l-1.71.78c-.75.32-1.66.73-2.68,1.27s-2.23,1.07-3.48,1.82l-2,1.13c-.68.4-1.37.87-2.09,1.32-1.46.89-2.93,2-4.5,3.1-3.33,2.51-6.46,5.27-9.38,8.25-2.86,3.02-5.49,6.25-7.87,9.66-1.06,1.6-2.1,3.11-2.94,4.6-.43.74-.87,1.44-1.25,2.14s-.72,1.37-1.06,2c-.7,1.27-1.21,2.49-1.7,3.54s-.88,2-1.18,2.72l-.72,1.74c-.07.21-.17.41-.29.59.03-.22.09-.43.18-.63l.61-1.78c.27-.78.61-1.72,1.09-2.78s1-2.3,1.63-3.59l1-2.05c.36-.72.8-1.42,1.22-2.17.83-1.52,1.86-3,2.92-4.66,4.74-6.96,10.64-13.07,17.43-18.05,1.59-1.11,3.08-2.19,4.56-3.07.74-.45,1.43-.91,2.13-1.3l2-1.1c1.27-.73,2.49-1.25,3.54-1.76s2-.89,2.74-1.18l1.75-.67c.2-.09.41-.15.63-.18h0Z"/>
    <path class="cls-4" d="M85.92,334.2c.24-.84.74-1.59,1.43-2.13,1.6-1.39,3.64-2.17,5.76-2.21,2.08,0,4.14.4,6.06,1.19.82.25,1.59.63,2.29,1.11-.83-.17-1.64-.41-2.43-.71-1.9-.66-3.89-1-5.9-1-1.99.04-3.92.72-5.5,1.93-.61.57-1.18,1.17-1.71,1.82Z"/>
    <path class="cls-4" d="M82.03,338.21c-.16-.09,1.31-2.24,1.64-5.32s-.55-5.51-.37-5.56c.35.45.58.99.68,1.55.35,1.33.45,2.71.29,4.08-.16,1.37-.57,2.69-1.22,3.9-.51.92-.96,1.39-1.02,1.35h0Z"/>
    <path class="cls-4" d="M39.7,392.17c.93,15.89,5.68,32.06,13.05,48.45h32.05c7-16.18,11.49-32.33,12.28-48.41,0,0-57.38-.04-57.38-.04Z"/>
    <path class="cls-12" d="M91.89,417.89c0,.17-10.56.3-23.57.3s-23.56-.13-23.56-.3,10.54-.3,23.56-.3,23.57.14,23.57.3Z"/>
    <path class="cls-12" d="M91.17,423.62c0,.17-9.89.3-22.09.3s-22.09-.13-22.09-.3,9.89-.3,22.09-.3,22.09.17,22.09.3Z"/>
    <path class="cls-12" d="M53.27,402.62c.17,0,.3,3.31.3,7.39s-.13,7.38-.3,7.38-.3-3.31-.3-7.38.13-7.39.3-7.39Z"/>
    <path class="cls-12" d="M70.44,402.62c.17,0,.3,3.43.3,7.65s-.13,7.64-.3,7.64-.3-3.42-.3-7.64.13-7.65.3-7.65Z"/>
    <path class="cls-12" d="M86.56,402.47c.4,5.19.4,10.41,0,15.6-.17,0-.3-3.49-.3-7.8s.13-7.8.3-7.8h0Z"/>
    <path class="cls-12" d="M96.06,402.62c0,.17-12.37.31-27.64.31s-27.64-.14-27.64-.31,12.38-.3,27.64-.3,27.64.12,27.64.3Z"/>
    <rect class="cls-4" x="31.55" y="11.45" width="79.75" height="83.13"/>
    <rect class="cls-6" x="26.15" y="11.45" width="79.75" height="83.13"/>
    <path class="cls-4" d="M105.92,94.62H26.12V11.43h79.8v83.19ZM26.17,94.62h79.7V11.48H26.17v83.14Z"/>
    <rect class="cls-13" x="36.87" y="22.63" width="58.31" height="60.78"/>
    <path class="cls-4" d="M36.87,83.81c-.42.61-.9,1.17-1.44,1.67-.93,1-2.24,2.32-3.71,3.76s-2.81,2.73-3.81,3.65c-.5.53-1.07,1-1.68,1.4.4-.61.87-1.17,1.4-1.67.93-1,2.24-2.31,3.71-3.76s2.83-2.74,3.82-3.65c.51-.54,1.08-1.01,1.71-1.4Z"/>
    <path class="cls-4" d="M95.18,83.62c.61.41,1.17.9,1.67,1.44,1,.93,2.31,2.24,3.76,3.71s2.73,2.81,3.64,3.8c.53.51,1.01,1.07,1.41,1.69-.61-.4-1.18-.89-1.67-1.43-1-.93-2.32-2.24-3.77-3.72s-2.73-2.82-3.65-3.81c-.53-.5-1-1.06-1.39-1.68Z"/>
    <path class="cls-4" d="M95.02,22.79c.41-.62.89-1.18,1.43-1.68.94-1,2.24-2.31,3.71-3.75s2.82-2.73,3.81-3.65c.5-.54,1.07-1.01,1.69-1.4-.41.61-.9,1.17-1.44,1.66-.93,1-2.24,2.32-3.71,3.77s-2.82,2.74-3.82,3.65c-.5.53-1.06,1-1.67,1.4Z"/>
    <path class="cls-4" d="M36.71,22.94c-.61-.41-1.17-.9-1.67-1.44-1-.93-2.32-2.24-3.76-3.71s-2.73-2.81-3.65-3.81c-.53-.5-1-1.07-1.4-1.68.61.41,1.16.89,1.66,1.43,1,.93,2.32,2.24,3.77,3.71s2.74,2.83,3.65,3.82c.53.5,1.01,1.06,1.4,1.68Z"/>
    <path class="cls-4" d="M95.02,83.41v-4.43c0-2.88,0-7.07-.06-12.39,0-10.64-.06-25.81-.11-44l.23.22h-58.15l.2-.19v60.78l-.22-.23,42.1.12h.19l-42.33.33h-.24V22.36h58.63v.26c0,18.21-.09,33.43-.11,44.11,0,5.29,0,9.47-.06,12.33v4.07c0,.21-.07.28-.07.28Z"/>
    <rect class="cls-7" x="56.29" y="43.29" width="19.46" height="19.46"/>
    <rect class="cls-4" x="379.82" y="11.43" width="79.75" height="83.13"/>
    <rect class="cls-6" x="374.42" y="11.43" width="79.75" height="83.13"/>
    <path class="cls-4" d="M454.2,94.62h-79.8V11.41h79.8v83.21ZM374.45,94.62h79.7V11.46h-79.7v83.16Z"/>
    <rect class="cls-13" x="385.14" y="22.61" width="58.31" height="60.78"/>
    <path class="cls-4" d="M385.14,83.79c-.4.61-.89,1.18-1.43,1.67-.94,1-2.24,2.32-3.71,3.76s-2.82,2.73-3.81,3.65c-.51.53-1.07,1-1.69,1.4.41-.61.9-1.17,1.44-1.66.93-1,2.24-2.32,3.71-3.77s2.82-2.74,3.82-3.65c.5-.53,1.06-1,1.67-1.4h0Z"/>
    <path class="cls-4" d="M443.45,83.62c.61.41,1.17.9,1.67,1.44,1,.93,2.32,2.24,3.76,3.71s2.75,2.85,3.65,3.85c.53.5,1,1.07,1.4,1.68-.61-.41-1.16-.89-1.66-1.43-1-.93-2.32-2.24-3.77-3.71s-2.74-2.83-3.65-3.82c-.54-.51-1.01-1.09-1.4-1.72h0Z"/>
    <path class="cls-4" d="M443.29,22.77c.42-.61.9-1.17,1.44-1.67.93-1,2.24-2.32,3.71-3.76s2.81-2.73,3.81-3.65c.5-.53,1.07-1,1.68-1.4-.41.61-.89,1.17-1.43,1.67-.93,1-2.24,2.31-3.71,3.76s-2.83,2.74-3.82,3.65c-.5.53-1.06,1.01-1.68,1.4Z"/>
    <path class="cls-4" d="M384.98,22.92c-.61-.42-1.17-.9-1.67-1.44-1-.93-2.31-2.24-3.76-3.71s-2.73-2.81-3.64-3.81c-.54-.5-1.01-1.07-1.41-1.68.61.4,1.18.89,1.67,1.43,1,.93,2.32,2.24,3.77,3.72s2.69,2.82,3.69,3.81c.52.5.97,1.07,1.35,1.68h0Z"/>
    <path class="cls-4" d="M443.29,83.39v-4.43c0-2.88,0-7.07-.06-12.38,0-10.65-.07-25.81-.11-44l.22.22h-58.14l.26-.26v60.78l-.23-.22,42.11.11,11.82.06h.09l-11.77.06-42.25.11h-.22V22.18h58.63v.44c-.05,18.21-.09,33.43-.12,44.11,0,5.3,0,9.47-.06,12.34v4.06c-.04.09-.1.18-.17.26h0Z"/>
    <rect class="cls-7" x="404.57" y="43.27" width="19.46" height="19.46"/>
  </g>
  <g id="freepik--Floor--inject-18">
    <path class="cls-10" d="M461.56,440.62c0,.14-100.71.26-224.92.26s-224.94-.15-224.94-.26,100.69-.27,224.94-.27,224.92.09,224.92.27Z"/>
  </g>
  <g id="freepik--screen-2--inject-18">
    <rect class="cls-12" x="158.92" y=".28" width="180.54" height="382.97" rx="19.96" ry="19.96"/>
    <path class="cls-10" d="M319.5,383.25l.71-.05c.7-.01,1.41-.08,2.1-.19,2.74-.38,5.36-1.35,7.69-2.83,3.83-2.38,6.74-6.01,8.23-10.27.23-.63.43-1.28.57-1.94.17-.68.3-1.37.38-2.06.17-1.47.23-2.95.19-4.43v-9.78c0-27.65-.05-67.66-.09-117.09s0-108.3-.05-173.66V23.52c.08-2.11,0-4.22-.26-6.31-.3-2.1-.96-4.12-1.94-6-1.97-3.81-5.13-6.87-9-8.72-1.92-.95-4-1.56-6.13-1.81-2.16-.16-4.33-.22-6.49-.16h-136.5c-4.68.02-9.21,1.68-12.79,4.71-3.55,3.01-5.91,7.19-6.66,11.79-.27,2.3-.37,4.61-.28,6.92v337.09c-.04,1.58.02,3.17.18,4.74.4,3.08,1.52,6.03,3.26,8.61,1.73,2.5,3.99,4.57,6.63,6.08,2.57,1.46,5.45,2.32,8.41,2.49,1.45.11,2.92.05,4.37.07h94.61l31.83.05h-126.51c-1.46,0-2.91,0-4.39-.07-3.01-.17-5.95-1.04-8.57-2.53-2.68-1.53-4.99-3.64-6.76-6.18-1.77-2.63-2.91-5.63-3.32-8.77-.17-1.59-.23-3.19-.19-4.79V23.97c-.09-2.34,0-4.68.29-7,.76-4.72,3.18-9.02,6.83-12.11C169.52,1.75,174.17.04,178.98.02h136.45c2.19-.05,4.38,0,6.56.17,2.18.26,4.3.89,6.27,1.86,3.96,1.9,7.18,5.04,9.19,8.94,1.01,1.92,1.69,3.99,2,6.13.26,2.12.35,4.26.26,6.39v37.44c0,65.36,0,124.22-.06,173.66-.06,49.44-.06,89.44-.08,117.09v9.78c.04,1.49-.03,2.97-.2,4.45-.09.7-.22,1.4-.39,2.08-.15.66-.35,1.31-.59,1.95-1.51,4.28-4.44,7.92-8.31,10.31-2.35,1.48-5,2.43-7.75,2.79-.7.1-1.4.16-2.1.17l-.73.02h0Z"/>
    <path class="cls-7" d="M316.57,129.8h-136.56c-11.05,0-20,8.95-20,20v212.06c0,11.47,9.29,20.76,20.76,20.76h135.65c11.48,0,20.78-9.31,20.77-20.79v-.04l-.64-212.08c-.05-11-8.98-19.9-19.98-19.91h0Z"/>
    <path class="cls-10" d="M180.46,28.03h-6c-.4,0-.72-.33-.72-.73h0c0-.4.32-.72.72-.72h6c.4,0,.72.32.73.72h0c0,.4-.33.73-.73.73Z"/>
    <path class="cls-10" d="M180.46,35.35h-6c-.4,0-.72-.32-.72-.72h0c0-.4.32-.72.72-.73h6c.4,0,.73.33.73.73h0c0,.4-.33.72-.73.72Z"/>
    <path class="cls-10" d="M182.63,31.83h-8.19c-.4,0-.72-.32-.72-.72h0c0-.4.32-.72.72-.73h8.19c.4,0,.72.33.72.73h0c0,.4-.32.72-.72.72h0Z"/>
    <path class="cls-10" d="M313.63,33.08c-2.63,0-4.77-2.13-4.78-4.76,0-2.63,2.13-4.77,4.76-4.78,2.63,0,4.77,2.13,4.78,4.76,0,1.44-.64,2.8-1.76,3.71-.85.69-1.91,1.07-3,1.07ZM313.63,24.52c-2.09,0-3.78,1.69-3.78,3.78s1.69,3.78,3.78,3.78,3.78-1.69,3.78-3.78h0c0-2.09-1.69-3.78-3.78-3.78Z"/>
    <path class="cls-10" d="M319.63,35.08c-.12,0-.24-.04-.33-.12l-3.31-3c-.22-.17-.25-.49-.08-.7s.49-.25.7-.08c.02,0,.03.03.04.04l3.3,3c.2.19.2.51,0,.71h0c-.09.09-.2.14-.33.15h0Z"/>
    <path class="cls-10" d="M183.37,57.71v5.7h-1.32v-2.34h-2.59v2.34h-1.32v-5.7h1.32v2.25h2.59v-2.25h1.32Z"/>
    <path class="cls-10" d="M188.91,61.62h-3.28c.14.56.67.94,1.25.88.41.02.81-.14,1.1-.43l.68.74c-.47.49-1.13.75-1.81.71-1.25.12-2.37-.8-2.49-2.05,0-.07,0-.14,0-.21-.04-1.23.93-2.26,2.16-2.3h.12c1.2-.06,2.22.86,2.28,2.05v.23c.02.09,0,.23,0,.38ZM185.57,60.88h2.16c-.08-.6-.63-1.01-1.23-.93-.49.07-.87.45-.93.93h0Z"/>
    <path class="cls-10" d="M189.78,57.37h1.27v6h-1.27v-6Z"/>
    <path class="cls-10" d="M192.24,57.37h1.27v6h-1.27v-6Z"/>
    <path class="cls-10" d="M194.36,61.22c-.08-1.33.93-2.47,2.26-2.56,1.33-.08,2.47.93,2.56,2.26.08,1.33-.93,2.47-2.26,2.56h-.14c-1.25.09-2.33-.85-2.41-2.09v-.17h0ZM197.89,61.22c-.05-.62-.59-1.08-1.21-1.03s-1.08.59-1.03,1.21c.05.58.54,1.03,1.12,1.03.61,0,1.11-.48,1.12-1.08v-.13h0Z"/>
    <path class="cls-10" d="M199.84,62.74c.05-.43.44-.75.87-.7.37.04.65.33.7.7-.05.43-.44.75-.87.7-.37-.04-.65-.33-.7-.7ZM199.84,57.74h1.51l-.25,3.72h-1l-.26-3.72Z"/>
    <path class="cls-7" d="M288.42,38.69h-89.74c-5.18,0-9.38-4.21-9.39-9.39h0c0-5.19,4.2-9.39,9.39-9.39h89.74c5.18,0,9.38,4.2,9.38,9.38h0c0,5.19-4.2,9.39-9.38,9.4Z"/>
    <rect class="cls-6" x="172.13" y="156.12" width="154.12" height="62.63" rx="14.42" ry="14.42"/>
    <rect class="cls-5" x="184.06" y="167.06" width="40.75" height="40.75" rx="10.86" ry="10.86"/>
    <path class="cls-10" d="M242.93,179.76h1.21v2.32c-.68.47-1.48.72-2.31.72-1.63.3-3.19-.78-3.5-2.4-.3-1.63.78-3.19,2.4-3.5.36-.07.73-.07,1.09,0,.91-.05,1.79.32,2.39,1l-.85.78c-.37-.42-.91-.65-1.47-.64-1.01-.07-1.89.68-1.96,1.69-.07,1.01.68,1.89,1.69,1.96h.27c.35,0,.69-.08,1-.25l.03-1.68h.01Z"/>
    <path class="cls-10" d="M247.99,178.26v1.17h-.28c-.6-.05-1.13.4-1.18,1v2.3h-1.27v-4.41h1.22v.58c.37-.44.93-.68,1.5-.64h0Z"/>
    <path class="cls-10" d="M252.63,180.2v2.51h-1.19v-.55c-.3.43-.82.67-1.34.61-1,0-1.63-.57-1.63-1.33s.54-1.31,1.88-1.31h1c0-.54-.33-.86-1-.86-.45,0-.89.13-1.26.4l-.46-.88c.56-.36,1.22-.55,1.89-.53,1.32,0,2.11.62,2.11,1.94h0ZM251.36,181.32v-.45h-.87c-.6,0-.79.22-.79.52s.27.53.72.53c.4,0,.76-.23.92-.6h.02Z"/>
    <path class="cls-10" d="M258.54,180.51c.07,1.18-.84,2.19-2.02,2.26h-.17c-.5.02-.98-.17-1.32-.53v2h-1.27v-6h1.22v.51c.34-.39.85-.6,1.37-.57,1.18-.04,2.16.88,2.2,2.06v.27h-.01ZM257.25,180.51c-.06-.62-.6-1.07-1.22-1.02s-1.07.6-1.02,1.22c.05.58.53,1.02,1.11,1.02.61,0,1.12-.48,1.13-1.09v-.13Z"/>
    <path class="cls-10" d="M263.87,180.2v2.51h-1.24v-2.32c0-.71-.33-1-.89-1s-1.05.37-1.05,1.18v2.17h-1.27v-6.12h1.21v2.12c.38-.35.88-.54,1.39-.52.95-.08,1.78.62,1.86,1.56.01.14,0,.28-.01.42h0Z"/>
    <path class="cls-10" d="M264.87,177c0-.4.34-.72.75-.71h.04c.4-.04.75.25.79.65v.04c0,.44-.36.79-.79.79s-.78-.35-.79-.79v.02h0ZM265.02,178.32h1.27v4.39h-1.27v-4.39Z"/>
    <path class="cls-10" d="M267.15,180.51c0-1.25,1.01-2.26,2.26-2.26h.19c.83-.09,1.63.36,2,1.11l-1,.53c-.19-.38-.58-.61-1-.6-.67.06-1.17.65-1.1,1.33.05.59.52,1.05,1.1,1.1.42.02.81-.22,1-.6l1,.53c-.37.75-1.17,1.2-2,1.11-1.25.1-2.34-.83-2.44-2.08v-.18h-.01Z"/>
    <path class="cls-10" d="M274.7,177h2.59c1.58-.16,2.99.99,3.15,2.56.16,1.58-.99,2.99-2.56,3.15-.19.02-.39.02-.59,0h-2.59v-5.71h0ZM277.22,181.62c.97.07,1.82-.66,1.9-1.63.07-.97-.66-1.82-1.63-1.9h-1.48v3.53h1.21Z"/>
    <path class="cls-10" d="M285.63,180.87h-3.32c.15.56.68.94,1.26.88.41,0,.81-.14,1.1-.42l.67.73c-.46.5-1.12.76-1.8.71-1.25.13-2.37-.79-2.5-2.04,0-.07-.01-.15-.01-.22-.01-1.23.98-2.24,2.21-2.25h.13c1.19-.07,2.21.84,2.28,2.03v.24c-.02.09-.02.24-.02.34h0ZM282.3,180.13h2.16c-.05-.55-.53-.96-1.08-.91-.55-.06-1.04.34-1.1.89v.02h.02Z"/>
    <path class="cls-10" d="M286.06,182.3l.43-.91c.46.27.98.42,1.52.42.59,0,.81-.16.81-.4,0-.72-2.65,0-2.65-1.74,0-.83.75-1.41,2-1.41.58,0,1.16.12,1.68.38l-.42.9c-.39-.21-.82-.32-1.26-.32-.57,0-.82.18-.82.41,0,.75,2.65,0,2.65,1.75,0,.81-.76,1.39-2.07,1.39-.65,0-1.3-.15-1.87-.47h0Z"/>
    <path class="cls-10" d="M290.63,177c0-.4.34-.72.75-.71h.04c.4-.04.75.25.79.65v.04c0,.44-.36.79-.79.79s-.78-.35-.79-.79v.02h0ZM290.79,178.32h1.27v4.39h-1.27v-4.39Z"/>
    <path class="cls-10" d="M297.79,178.32v3.65c.14,1.18-.7,2.25-1.88,2.39-.19.02-.39.02-.58,0-.76.03-1.51-.18-2.15-.6l.51-.91c.45.32.99.5,1.55.49.89,0,1.28-.4,1.28-1.19v-.19c-.36.37-.86.57-1.38.54-1.17.08-2.18-.8-2.26-1.97-.08-1.17.8-2.18,1.97-2.26h.29c.55-.03,1.09.2,1.45.62v-.56h1.2,0ZM296.54,180.38c.05-.64-.43-1.2-1.07-1.25s-1.2.43-1.25,1.07c-.05.64.43,1.2,1.07,1.25h.1c.58.05,1.1-.38,1.15-.97v-.1Z"/>
    <path class="cls-10" d="M303.46,180.2v2.51h-1.27v-2.32c0-.71-.33-1-.89-1s-1.05.37-1.05,1.18v2.17h-1.27v-4.42h1.21v.52c.38-.39.91-.6,1.45-.58.95-.06,1.77.65,1.83,1.6,0,.11,0,.23-.01.34h0Z"/>
    <path class="cls-10" d="M314.79,189.37c0,.14-16.91.26-37.76.26s-37.76-.12-37.76-.26,16.9-.26,37.76-.26,37.76.11,37.76.26Z"/>
    <path class="cls-10" d="M315.2,195.68c0,.14-17.2.26-38.4.26s-38.4-.12-38.4-.26,17.19-.26,38.4-.26,38.4.11,38.4.26Z"/>
    <path class="cls-10" d="M255.84,202.7c-2.9.26-5.81.34-8.72.26-2.91.08-5.82,0-8.72-.26,2.9-.26,5.81-.35,8.72-.26,2.91-.09,5.82,0,8.72.26Z"/>
    <polygon class="cls-12" points="204.84 175.39 197.85 191.56 201.16 194.96 201.15 197.62 209.53 197.5 209.45 194.78 212.51 191.02 204.84 175.39"/>
    <path class="cls-10" d="M204.84,175.39c.22.43,3.18,6.43,7.72,15.6h0l-3.06,3.77h0c0,.86.05,1.79.08,2.72v.06h-.06l-4.27.06-4.11.06h-.06v-2.7h0l-3.27-3.34h0c4.13-9.45,6.86-15.69,7.05-16.14l-6.96,16.14v-.06l3.32,3.4h0v2.66l-.06-.06,4.1-.07,4.28-.06-.06.06c0-.93-.05-1.85-.08-2.72h0l3.07-3.77v.06l-7.63-15.67h0Z"/>
    <path class="cls-10" d="M208.01,188.33c.04,1.39-1.05,2.54-2.44,2.58h-.05c-1.42.02-2.59-1.09-2.64-2.51-.04-1.38,1.04-2.53,2.42-2.58h.07c1.42-.02,2.59,1.09,2.64,2.51Z"/>
    <path class="cls-10" d="M204.84,175.39s.2,2.9.36,6.48.28,6.49.25,6.49-.2-2.9-.37-6.48-.27-6.49-.24-6.49Z"/>
    <polygon class="cls-9" points="210.28 200.34 200.67 200.48 200.57 197.16 210.19 197.02 210.28 200.34"/>
    <polygon class="cls-9" points="205.38 175.38 204.33 175.4 204.3 174.28 205.34 174.26 205.38 175.38"/>
    <path class="cls-9" d="M213.29,174.89c0,.07-3.68.17-8.22.22s-8.22,0-8.22-.05,3.67-.18,8.21-.22,8.23-.03,8.23.05Z"/>
    <path class="cls-9" d="M213.55,174.82c0,.21-.15.39-.36.4h-.03c-.22,0-.4-.16-.42-.38.04-.22.25-.38.47-.34.18.03.31.17.34.34v-.02h0Z"/>
    <path class="cls-9" d="M197.06,174.96c0,.22-.17.4-.39.41h0c-.22,0-.4-.17-.42-.39.02-.2.18-.35.38-.36.21,0,.39.13.43.34Z"/>
    <g class="cls-14">
      <polygon class="cls-13" points="203.21 197.12 206.21 200.31 207.48 200.38 204.4 197.1 203.21 197.12"/>
    </g>
    <rect class="cls-6" x="172.13" y="230.22" width="154.12" height="62.63" rx="14.1" ry="14.1"/>
    <path class="cls-10" d="M244.31,251.1v5.71h-1.32v-2.34h-2.59v2.34h-1.32v-5.71h1.32v2.25h2.59v-2.25h1.32Z"/>
    <path class="cls-10" d="M248.4,256.62c-.3.18-.65.28-1,.27-.79.11-1.52-.43-1.63-1.22-.02-.12-.02-.24,0-.35v-1.8h-.68v-1h.68v-1.06h1.27v1.06h1.09v1h-1.09v1.79c-.03.28.16.53.44.57h.11c.18,0,.36-.05.51-.16l.31.9h0Z"/>
    <path class="cls-10" d="M256.53,254.3v2.51h-1.27v-2.32c0-.7-.32-1-.83-1s-1,.37-1,1.15v2.2h-1.27v-2.32c0-.7-.31-1-.84-1s-1,.37-1,1.15v2.2h-1.27v-4.38h1.22v.5c.35-.38.85-.59,1.37-.57.58-.03,1.12.24,1.45.72.39-.47.97-.73,1.58-.72.93-.09,1.77.59,1.86,1.52.01.12.01.24,0,.36h0Z"/>
    <path class="cls-10" d="M257.68,250.76h1.27v6.05h-1.27v-6.05Z"/>
    <path class="cls-10" d="M266.32,254.31v2.5h-1.19v-.55c-.3.43-.82.67-1.34.61-1,0-1.64-.57-1.64-1.32s.55-1.32,1.88-1.32h1c0-.54-.33-.86-1-.86-.45,0-.9.14-1.26.41l-.45-.89c.56-.36,1.22-.54,1.89-.53,1.33,0,2.11.62,2.11,1.95h0ZM265.05,255.42v-.44h-.88c-.59,0-.78.22-.78.51s.27.53.72.53c.41,0,.78-.23.94-.6Z"/>
    <path class="cls-10" d="M271.95,254.3v2.51h-1.27v-2.32c0-.7-.33-1-.89-1s-1.05.38-1.05,1.18v2.17h-1.27v-4.38h1.21v.51c.38-.39.91-.6,1.45-.58.95-.06,1.77.66,1.83,1.61v.3h-.01Z"/>
    <path class="cls-10" d="M277.63,250.76v6.05h-1.21v-.51c-.34.39-.85.6-1.37.57-1.25-.08-2.19-1.16-2.1-2.41.08-1.13.98-2.03,2.1-2.1.49-.02.97.17,1.31.53v-2.13h1.27ZM276.37,254.62c-.05-.62-.59-1.08-1.21-1.03s-1.08.59-1.03,1.21c.05.58.54,1.03,1.12,1.03.61,0,1.11-.49,1.11-1.11v-.1h.01Z"/>
    <path class="cls-10" d="M280.83,253.96c.11-1.74,1.61-3.05,3.35-2.94.8.05,1.55.41,2.1,1l-.85.78c-.35-.43-.88-.68-1.43-.67-1.01-.07-1.89.68-1.96,1.69-.07,1.01.68,1.89,1.69,1.96h.27c.55,0,1.08-.24,1.43-.67l.85.78c-1.17,1.28-3.16,1.37-4.44.2-.6-.55-.96-1.31-1.01-2.13h0Z"/>
    <path class="cls-10" d="M286.63,256.25l.45-1c.55.38,1.21.59,1.88.6.79,0,1.1-.26,1.1-.61,0-1.07-3.31-.34-3.31-2.46,0-1,.78-1.77,2.4-1.77.7-.02,1.39.16,2,.5l-.41,1c-.48-.28-1.02-.43-1.58-.44-.78,0-1.08.29-1.08.65,0,1,3.32.32,3.32,2.42,0,1-.79,1.77-2.42,1.77-.83.02-1.65-.21-2.35-.66h0Z"/>
    <path class="cls-10" d="M291.88,256.25l.44-1c.56.38,1.21.59,1.89.6.78,0,1.1-.26,1.1-.61,0-1.07-3.32-.34-3.32-2.46,0-1,.78-1.77,2.4-1.77.7-.02,1.39.16,2,.5l-.4,1c-.48-.28-1.02-.43-1.58-.44-.79,0-1.09.29-1.09.65,0,1,3.32.32,3.32,2.42,0,1-.79,1.77-2.42,1.77-.83.03-1.65-.2-2.34-.66h0Z"/>
    <path class="cls-10" d="M314.79,263.47c0,.14-16.91.26-37.76.26s-37.76-.12-37.76-.26,16.9-.26,37.76-.26,37.76.11,37.76.26Z"/>
    <path class="cls-10" d="M315.2,269.78c0,.14-17.2.26-38.4.26s-38.4-.12-38.4-.26,17.19-.26,38.4-.26,38.4.1,38.4.26Z"/>
    <path class="cls-10" d="M255.84,276.8c-2.9.26-5.81.34-8.72.26-2.91.08-5.82,0-8.72-.26,2.9-.26,5.81-.35,8.72-.26,2.91-.09,5.82,0,8.72.26Z"/>
    <rect class="cls-6" x="172.13" y="304.32" width="154.12" height="62.63" rx="16.85" ry="16.85"/>
    <path class="cls-10" d="M239.08,325.2h1.32v5.71h-1.32v-5.71h0Z"/>
    <path class="cls-10" d="M241.63,324.86h1.27v6.05h-1.27v-6.05Z"/>
    <path class="cls-10" d="M244.12,324.86h1.27v6.05h-1.27v-6.05Z"/>
    <path class="cls-10" d="M250.99,326.52v4.39h-1.21v-.52c-.35.38-.84.59-1.36.58-.96.08-1.8-.63-1.88-1.58-.01-.14,0-.28.01-.42v-2.45h1.27v2.29c0,.74.32,1.06.88,1.06s1-.37,1-1.18v-2.17h1.29,0Z"/>
    <path class="cls-10" d="M251.75,330.5l.42-.91c.46.27.99.42,1.53.42.58,0,.8-.15.8-.4,0-.71-2.65,0-2.65-1.73,0-.83.75-1.42,2-1.42.59,0,1.17.12,1.69.38l-.42.91c-.39-.22-.82-.33-1.27-.33-.57,0-.81.18-.81.41,0,.75,2.65,0,2.65,1.75,0,.81-.76,1.39-2.07,1.39-.65,0-1.3-.15-1.87-.47h0Z"/>
    <path class="cls-10" d="M259.33,330.7c-.3.18-.65.28-1,.27-.79.11-1.51-.44-1.62-1.23-.02-.11-.02-.23,0-.34v-1.78h-.68v-1h.61v-1.07h1.27v1.07h1.09v1h-1.06v1.78c-.04.28.15.54.43.58h.11c.19,0,.37-.05.52-.16l.34.88h0Z"/>
    <path class="cls-10" d="M262.77,326.46v1.16h-.28c-.59-.06-1.11.37-1.18.95v2.34h-1.27v-4.39h1.21v.58c.37-.45.93-.69,1.51-.64h0Z"/>
    <path class="cls-10" d="M267.38,328.41v2.5h-1.18v-.55c-.3.43-.82.67-1.34.61-1,0-1.64-.57-1.64-1.32s.55-1.32,1.88-1.32h1c0-.54-.32-.86-1-.86-.45,0-.9.14-1.26.41l-.46-.89c.56-.36,1.22-.54,1.89-.53,1.36,0,2.11.62,2.11,1.95ZM266.11,329.52v-.44h-.87c-.59,0-.78.22-.78.51s.27.53.72.53c.41.03.79-.22.93-.6Z"/>
    <path class="cls-10" d="M271.37,330.7c-.3.18-.65.27-1,.27-.79.11-1.52-.45-1.63-1.24-.01-.11-.02-.22,0-.33v-1.78h-.67v-1h.67v-1.07h1.27v1.07h1.1v1h-1.1v1.78c-.04.28.15.54.43.58h.12c.18,0,.36-.05.51-.16l.31.88h0Z"/>
    <path class="cls-10" d="M271.93,325.2c.02-.4.35-.72.76-.7h.03c.39-.04.74.24.79.62v.06c0,.44-.36.79-.79.79s-.78-.35-.79-.79v.02h0ZM272.09,326.52h1.27v4.39h-1.27v-4.39Z"/>
    <path class="cls-10" d="M274.21,328.72c-.09-1.33.91-2.49,2.24-2.58s2.49.91,2.58,2.24-.91,2.49-2.24,2.58h-.16c-1.25.09-2.33-.85-2.41-2.09v-.16h0ZM277.74,328.72c-.05-.62-.59-1.08-1.21-1.03s-1.08.59-1.03,1.21c.05.58.54,1.03,1.12,1.03.61,0,1.11-.49,1.11-1.11v-.1h.01Z"/>
    <path class="cls-10" d="M284.36,328.4v2.51h-1.27v-2.29c0-.71-.32-1-.89-1s-1.05.37-1.05,1.18v2.17h-1.27v-4.45h1.22v.52c.38-.39.91-.6,1.45-.58.94-.06,1.76.65,1.82,1.59,0,.12,0,.23-.01.35h0Z"/>
    <path class="cls-10" d="M314.79,337.62c0,.14-16.91.26-37.76.26s-37.76-.12-37.76-.26,16.9-.26,37.76-.26,37.76.06,37.76.26Z"/>
    <path class="cls-10" d="M315.2,343.88c0,.14-17.2.26-38.4.26s-38.4-.12-38.4-.26,17.23-.26,38.4-.26,38.4.12,38.4.26Z"/>
    <path class="cls-10" d="M255.84,350.9c-2.9.26-5.81.34-8.72.26-2.91.08-5.82,0-8.72-.26,2.9-.26,5.81-.35,8.72-.26,2.91-.09,5.82,0,8.72.26Z"/>
    <path class="cls-8" d="M187.37,81.29v-5.23l-2.54,4.26h-1.24l-2.53-4.12v5.09h-2.58v-9.88h2.3l3.47,5.71,3.38-5.71h2.3v9.88h-2.56Z"/>
    <path class="cls-8" d="M199.85,73.62l-3.3,8c-.81,2-1.93,2.56-3.45,2.56-.79,0-1.56-.23-2.21-.69l.93-1.88c.33.29.75.45,1.19.45.44.03.85-.24,1-.65l-3.23-7.79h2.75l1.88,4.68,1.89-4.68s2.55,0,2.55,0Z"/>
    <path class="cls-8" d="M204.27,76.35c-.02-2.82,2.26-5.12,5.08-5.14.12,0,.24,0,.36.01,1.63-.08,3.2.61,4.25,1.86l-1.78,1.61c-.55-.73-1.41-1.16-2.33-1.16-1.56.09-2.75,1.43-2.66,2.99.09,1.43,1.23,2.57,2.66,2.66.92,0,1.78-.43,2.33-1.16l1.78,1.61c-1.05,1.25-2.62,1.94-4.25,1.86-2.82.18-5.25-1.95-5.43-4.77,0-.12,0-.25,0-.37h0Z"/>
    <path class="cls-8" d="M214.36,77.45c.03-2.21,1.85-3.97,4.06-3.94h.21c2.53,0,4.32,1.63,4.32,3.93-.2,2.38-2.29,4.15-4.68,3.95-2.11-.18-3.78-1.85-3.95-3.95h.04,0ZM220.28,77.45c.12-.89-.5-1.7-1.39-1.82s-1.7.5-1.82,1.39c-.02.15-.02.29,0,.44-.12.89.5,1.7,1.39,1.82s1.7-.5,1.82-1.39c.02-.15.02-.29,0-.44Z"/>
    <path class="cls-8" d="M232.28,73.62v7.65h-2.55v-.82c-.58.65-1.4,1.01-2.27,1-1.88,0-3.25-1.07-3.25-3.5v-4.33h2.68v3.84c0,1.19.47,1.65,1.27,1.65s1.44-.52,1.44-1.8v-3.69h2.68Z"/>
    <path class="cls-8" d="M239.13,73.52v2.41c-.2-.01-.4-.01-.6,0-.92-.1-1.74.56-1.85,1.47-.02.14,0,.28,0,.42v3.51h-2.68v-7.71h2.55v.92c.65-.72,1.6-1.1,2.57-1.02h0Z"/>
    <path class="cls-8" d="M239.63,80.62l.81-1.83c.81.46,1.73.7,2.67.7s1.2-.2,1.2-.52c0-1-4.52.14-4.52-2.92,0-1.44,1.33-2.54,3.73-2.54,1.04-.02,2.06.2,3,.65l-.81,1.82c-.67-.38-1.43-.58-2.2-.57-.9,0-1.23.26-1.23.54,0,1.06,4.5-.09,4.5,3,0,1.41-1.29,2.51-3.78,2.51-1.18,0-2.34-.28-3.37-.84h0Z"/>
    <path class="cls-8" d="M255.75,78.15h-5.56c.26.8,1.04,1.31,1.88,1.22.65.02,1.29-.21,1.76-.66l1.41,1.47c-.85.88-2.04,1.33-3.26,1.24-2.72,0-4.49-1.68-4.49-4,.04-2.21,1.86-3.97,4.06-3.94h.15c2.11-.15,3.94,1.45,4.09,3.56.01.15.01.3,0,.44,0,.19-.02.44-.04.66h0ZM250.15,76.73h3.13c-.16-.86-.98-1.44-1.85-1.28-.65.12-1.17.63-1.28,1.28Z"/>
    <path class="cls-8" d="M256.43,80.62l.81-1.83c.81.46,1.73.7,2.67.7s1.19-.2,1.19-.52c0-1-4.51.14-4.51-2.92,0-1.44,1.32-2.54,3.72-2.54,1.04-.02,2.06.2,3,.65l-.8,1.82c-.67-.38-1.43-.58-2.2-.57-.91,0-1.23.26-1.23.54,0,1.06,4.5-.09,4.5,3,0,1.41-1.3,2.51-3.78,2.51-1.18,0-2.34-.28-3.37-.84Z"/>
    <path class="cls-10" d="M319.63,90.76c0,.14-31.82.26-71.07.26s-71.07-.12-71.07-.26,31.82-.26,71.07-.26,71.07.12,71.07.26Z"/>
    <path class="cls-10" d="M319.28,98.89c0,.14-31.83.26-71.07.26s-71.08-.12-71.08-.26,31.82-.26,71.08-.26,71.07.12,71.07.26Z"/>
    <path class="cls-10" d="M255.57,107.15c0,.15-17.56.26-39.22.26s-39.22-.11-39.22-.26,17.56-.26,39.22-.26,39.22.12,39.22.26Z"/>
    <rect class="cls-5" x="185.08" y="313.72" width="40.75" height="40.75" rx="10.86" ry="10.86"/>
    <polygon class="cls-12" points="205.86 322.05 198.86 338.22 202.18 341.62 202.17 344.28 210.54 344.16 210.47 341.44 213.53 337.68 205.86 322.05"/>
    <path class="cls-10" d="M205.86,322.05l7.71,15.6h0l-3.06,3.77h0c0,.86.06,1.78.08,2.72v.06h-.06l-4.28.06-4.1.06h-.06v-2.72h0c-1.15-1.18-2.26-2.31-3.32-3.41h0c4.13-9.45,6.85-15.7,7-16.14-.2.45-2.88,6.71-6.95,16.19v-.06l3.32,3.4h0v2.66l-.06-.07,4.1-.06,4.27-.06v.06c0-.93-.06-1.85-.08-2.72h0l3.06-3.77v.06l-7.57-15.63h0Z"/>
    <path class="cls-10" d="M209.03,334.99c.03,1.39-1.07,2.55-2.46,2.58h-.03c-1.42.02-2.59-1.09-2.64-2.51-.04-1.38,1.04-2.53,2.42-2.58h.07c1.41-.02,2.59,1.1,2.64,2.51Z"/>
    <path class="cls-10" d="M205.86,322.05s.19,2.9.36,6.48.27,6.49.24,6.49-.19-2.9-.36-6.48-.28-6.49-.24-6.49Z"/>
    <polygon class="cls-1" points="211.3 347 201.69 347.14 201.59 343.82 211.2 343.68 211.3 347"/>
    <polygon class="cls-1" points="206.39 322.04 205.35 322.06 205.31 320.94 206.35 320.92 206.39 322.04"/>
    <path class="cls-1" d="M214.3,321.54c0,.08-3.67.18-8.21.23s-8.23,0-8.23,0c0,0,3.68-.18,8.22-.23s8.22-.07,8.22,0Z"/>
    <path class="cls-1" d="M214.57,321.48c0,.22-.16.39-.38.4h0c-.22,0-.4-.16-.42-.38,0-.22.17-.4.39-.41h0c.22,0,.4.17.42.39Z"/>
    <path class="cls-1" d="M198.08,321.62c-.04.22-.25.38-.47.34-.18-.03-.31-.17-.34-.34,0-.22.15-.4.37-.41h.02c.23,0,.41.18.42.41Z"/>
    <g class="cls-14">
      <polygon class="cls-13" points="204.22 343.78 207.22 346.97 208.5 347.04 205.41 343.76 204.22 343.78"/>
    </g>
    <rect class="cls-10" x="185.08" y="239.5" width="40.75" height="40.75" rx="10.86" ry="10.86"/>
    <polygon class="cls-12" points="205.86 247.83 198.86 264 202.18 267.41 202.17 270.07 210.54 269.94 210.47 267.23 213.53 263.46 205.86 247.83"/>
    <path class="cls-10" d="M205.86,247.83c.21.44,3.18,6.43,7.71,15.61h0l-3.06,3.76h0c0,.86.06,1.78.08,2.71v.06h-.06l-4.28.07-4.1.06h-.06v-2.72h0l-3.32-3.41h0l7-16.15c-.2.45-2.88,6.71-6.95,16.19v-.06l3.32,3.41h0v2.66l-.06-.06,4.1-.06,4.27-.06v.06c0-.94-.06-1.86-.08-2.72h0l3.06-3.76v.05l-7.57-15.64h0Z"/>
    <path class="cls-10" d="M209.03,260.77c.04,1.39-1.05,2.54-2.44,2.58h-.05c-1.42.02-2.59-1.09-2.64-2.51-.04-1.39,1.05-2.54,2.44-2.58h.05c1.41-.02,2.59,1.1,2.64,2.51Z"/>
    <path class="cls-10" d="M205.86,247.83s.19,2.9.36,6.49.27,6.49.24,6.49-.19-2.91-.36-6.49-.28-6.49-.24-6.49Z"/>
    <polygon class="cls-1" points="211.3 272.78 201.69 272.92 201.59 269.6 211.2 269.46 211.3 272.78"/>
    <polygon class="cls-9" points="206.39 247.82 205.35 247.84 205.31 246.72 206.35 246.7 206.39 247.82"/>
    <path class="cls-9" d="M214.3,247.33c0,.07-3.67.17-8.21.22s-8.23,0-8.23-.05,3.68-.17,8.22-.22,8.22-.03,8.22.05Z"/>
    <path class="cls-9" d="M214.57,247.26c0,.22-.17.4-.39.41h0c-.22,0-.4-.17-.42-.39,0-.22.17-.4.39-.41h0c.22,0,.4.17.42.39Z"/>
    <path class="cls-1" d="M198.08,247.41c0,.22-.16.39-.38.4h0c-.22.01-.41-.16-.42-.38h0c0-.22.15-.4.36-.41h.03c.22,0,.41.17.42.39Z"/>
    <g class="cls-14">
      <polygon class="cls-13" points="204.22 269.56 207.22 272.75 208.5 272.82 205.41 269.55 204.22 269.56"/>
    </g>
  </g>
  <g id="freepik--screen-1--inject-18">
    <rect class="cls-6" x="258.31" y="57.24" width="180.54" height="382.97" rx="19.96" ry="19.96"/>
    <path class="cls-13" d="M277.73,57.24h141.69c10.61.01,19.21,8.62,19.21,19.23v171h-180.13V76.47c0-10.62,8.61-19.23,19.23-19.23h0Z"/>
    <path class="cls-10" d="M277.16,84.19c-.11,0-.21-.03-.3-.1l-4.32-3.23c-.12-.09-.2-.24-.2-.39,0-.16.07-.3.19-.4l4.32-3.46c.22-.17.53-.14.7.07.17.22.14.53-.07.71h0l-3.85,3.06,3.8,2.84c.22.17.27.48.1.7-.09.12-.22.19-.37.2h0Z"/>
    <path class="cls-10" d="M307.5,329.05c-.01-.76.59-1.38,1.35-1.39h.09c.38,0,.74.15,1,.43l-.26.24c-.2-.21-.47-.33-.76-.32-.58,0-1.04.47-1.04,1.04s.47,1.05,1.04,1.05c.29,0,.57-.12.76-.33l.26.25c-.56.57-1.48.57-2.05,0-.27-.27-.42-.63-.43-1.01l.04.03h0Z"/>
    <path class="cls-10" d="M312.87,327.69v2.73h-.39v-1.22h-1.56v1.22h-.39v-2.73h.39v1.17h1.56v-1.17h.39Z"/>
    <path class="cls-10" d="M315.42,329.74h-1.45l-.3.68h-.4l1.24-2.73h.38l1.24,2.73h-.41l-.3-.68ZM315.29,329.42l-.59-1.33-.59,1.33h1.18Z"/>
    <path class="cls-10" d="M318.73,328.62c0,.59-.43,1-1.13,1h-.68v.83h-.39v-2.73h1.1c.67-.03,1.1.33,1.1.9h0ZM318.34,328.62c0-.39-.26-.61-.76-.61h-.66v1.22h.71c.45.02.71-.2.71-.61h0Z"/>
    <path class="cls-10" d="M319.76,328.03h-.94v-.34h2.26v.34h-.94v2.39h-.38v-2.39Z"/>
    <path class="cls-10" d="M323.47,330.08v.34h-2v-2.73h1.92v.34h-1.53v.84h1.36v.33h-1.36v.88h1.61Z"/>
    <path class="cls-10" d="M325.92,330.42l-.58-.84h-.85v.83h-.39v-2.73h1.06c.71,0,1.14.36,1.14.95.02.39-.23.74-.6.86l.65.92h-.43ZM325.92,328.65c0-.39-.26-.61-.76-.61h-.66v1.23h.66c.47,0,.75-.23.75-.64v.02h.01Z"/>
    <path class="cls-10" d="M329.63,330.08v.34h-2v-.27l1.11-1.07c.29-.28.34-.45.34-.62s-.2-.45-.58-.45c-.26-.02-.52.09-.69.29l-.27-.23c.25-.28.62-.43,1-.41.57,0,.93.29.93.76-.01.34-.18.66-.45.86l-.83.8h1.44Z"/>
    <path class="cls-10" d="M316.75,334.86l-1.9,5.79h-1.44l-1.27-3.92-1.32,3.89h-1.43l-1.9-5.79h1.39l1.31,4.07,1.36-4.07h1.24l1.33,4.1,1.34-4.1,1.29.03Z"/>
    <path class="cls-10" d="M322.07,338.1v2.52h-1.29v-2.35c0-.72-.33-1.05-.9-1.05s-1.07.38-1.07,1.2v2.2h-1.29v-6.14h1.29v2.14c.38-.36.89-.55,1.41-.53.96-.07,1.79.64,1.87,1.6.01.14,0,.27-.02.41h0Z"/>
    <path class="cls-10" d="M327.17,338.11v2.51h-1.21v-.56c-.3.44-.82.68-1.35.62-1.05,0-1.67-.58-1.67-1.34s.56-1.34,1.91-1.34h1c0-.55-.33-.87-1-.87-.46,0-.91.14-1.28.41l-.46-.9c.57-.37,1.24-.56,1.92-.54,1.35.03,2.14.66,2.14,2.01h0ZM325.88,339.24v-.45h-.89c-.6,0-.79.22-.79.52s.27.54.73.54c.41.01.79-.23.95-.61Z"/>
    <path class="cls-10" d="M331.2,340.43c-.31.2-.68.3-1.05.28-.8.11-1.54-.44-1.65-1.24-.02-.12-.02-.23,0-.35v-1.83h-.69v-1h.69v-1.09h1.29v1.09h1.11v1h-1.11v1.81c-.04.28.16.55.44.59h.11c.19,0,.38-.06.53-.17l.34.91h-.01Z"/>
    <path class="cls-10" d="M334.11,334.86c.05-.44.45-.76.89-.72.38.04.67.34.72.72,0,.41-.33.75-.75.75h-.06c-.41.03-.76-.27-.8-.68v-.07h0ZM334.27,336.2h1.29v4.42h-1.29v-4.42Z"/>
    <path class="cls-10" d="M336.33,340.23l.43-.92c.47.28,1,.42,1.54.43.6,0,.82-.16.82-.41,0-.73-2.69,0-2.69-1.76,0-.84.76-1.44,2.06-1.44.59-.01,1.18.12,1.71.39l-.42.92c-.39-.22-.84-.34-1.29-.33-.58,0-.82.18-.82.41,0,.76,2.68,0,2.68,1.78,0,.83-.77,1.41-2.1,1.41-.67.02-1.34-.15-1.92-.48h0Z"/>
    <path class="cls-10" d="M348.02,334.51v6.11h-1.24v-.52c-.34.4-.85.61-1.38.58-1.26,0-2.29-1.03-2.28-2.3,0-1.26,1.02-2.28,2.28-2.28.5-.02.99.18,1.33.54v-2.16l1.29.03ZM346.75,338.42c-.03-.63-.57-1.11-1.2-1.08s-1.11.57-1.08,1.2c.03.61.54,1.09,1.16,1.08.62,0,1.12-.5,1.12-1.12v-.08h0Z"/>
    <path class="cls-10" d="M353.54,338.79h-3.37c.15.57.69.95,1.28.89.41.02.82-.14,1.11-.43l.69.74c-1.04.99-2.68.96-3.68-.08-.39-.41-.64-.93-.7-1.49-.01-1.25.99-2.28,2.25-2.29h.13c1.21-.06,2.25.87,2.31,2.08v.23c0,.1,0,.24-.02.35h0ZM350.16,338.03h2.19c-.1-.6-.67-1.01-1.28-.91-.47.08-.84.44-.91.91Z"/>
    <path class="cls-10" d="M353.99,340.23l.43-.92c.47.28,1,.42,1.55.43.59,0,.82-.16.82-.41,0-.73-2.69,0-2.69-1.76,0-.84.76-1.44,2.06-1.44.59-.01,1.18.12,1.71.39l-.43.92c-.39-.22-.83-.33-1.28-.33-.58,0-.83.18-.83.41,0,.76,2.69,0,2.69,1.78,0,.83-.77,1.41-2.1,1.41-.67.01-1.34-.15-1.93-.48Z"/>
    <path class="cls-10" d="M358.63,334.86c0-.41.35-.73.76-.72h.05c.4-.04.75.24.8.64v.05c-.05.44-.45.76-.89.72-.38-.04-.67-.34-.72-.72v.03h0ZM358.79,336.2h1.29v4.42h-1.29v-4.42Z"/>
    <path class="cls-10" d="M365.89,336.2v3.7c.15,1.19-.7,2.28-1.9,2.43-.2.02-.4.02-.6,0-.77.03-1.53-.18-2.18-.61l.51-.93c.46.33,1.01.51,1.57.5.91,0,1.31-.41,1.31-1.21v-.19c-.37.38-.88.58-1.41.55-1.19,0-2.15-.96-2.16-2.14,0-1.19.96-2.15,2.14-2.16h.01c.57-.03,1.11.21,1.48.64v-.57h1.23ZM364.63,338.28c.04-.64-.44-1.2-1.09-1.25-.64-.04-1.2.44-1.25,1.09-.04.64.44,1.2,1.09,1.25h.08c.59.05,1.12-.39,1.17-.99v-.1Z"/>
    <path class="cls-10" d="M371.63,338.1v2.52h-1.29v-2.35c0-.72-.33-1.05-.9-1.05s-1.06.38-1.06,1.2v2.2h-1.29v-4.45h1.23v.52c.38-.4.92-.61,1.47-.59.96-.07,1.79.66,1.86,1.62,0,.13,0,.26-.02.38Z"/>
    <path class="cls-10" d="M374.92,336.5c0-.4-.35-.66-.89-.66-.48-.01-.93.22-1.2.61l-1-.58c.53-.76,1.42-1.18,2.34-1.11,1.24,0,2.1.55,2.1,1.53,0,1.32-1.39,1.47-1.39,2.35h-1.25c0-1.16,1.29-1.42,1.29-2.14h0ZM373.47,339.96c.05-.44.45-.76.88-.71.37.04.66.33.71.71-.05.44-.45.76-.88.71-.37-.04-.66-.33-.71-.71Z"/>
    <path class="cls-8" d="M394.42,422.9h-88.26c-6.96,0-12.6-5.65-12.61-12.61h0c0-6.96,5.65-12.6,12.61-12.61h88.26c6.96,0,12.61,5.65,12.61,12.61h0c0,6.96-5.65,12.61-12.61,12.61Z"/>
    <path class="cls-13" d="M325.63,408.01v5.33h-1l-2.66-3.23v3.23h-1.24v-5.33h1l2.65,3.24v-3.24h1.25Z"/>
    <path class="cls-13" d="M331.01,412.35v1h-4.13v-5.33h4v1h-2.8v1.16h2.55v1h-2.47v1.23l2.85-.06h0Z"/>
    <path class="cls-13" d="M335.3,413.34l-1.29-1.85-1.26,1.85h-1.42l2-2.71-1.87-2.62h1.4l1.23,1.73,1.2-1.73h1.34l-1.89,2.61,2,2.75-1.44-.03h0Z"/>
    <path class="cls-13" d="M338.25,409.02h-1.7v-1h4.64v1h-1.7v4.32h-1.24v-4.32Z"/>
    <path class="cls-13" d="M343.63,410.68c.1-1.62,1.49-2.85,3.11-2.76.75.05,1.46.38,1.98.94l-.79.74c-.33-.4-.82-.64-1.34-.63-.94-.07-1.76.63-1.84,1.57-.07.94.63,1.76,1.57,1.84h.26c.52,0,1.01-.23,1.34-.63l.79.73c-1.09,1.2-2.94,1.28-4.14.19-.56-.51-.91-1.23-.95-1.99h.01Z"/>
    <path class="cls-13" d="M354.48,408.01v5.33h-1.23v-2.18h-2.43v2.18h-1.19v-5.33h1.23v2.1h2.43v-2.1h1.19Z"/>
    <path class="cls-13" d="M359.25,412.2h-2.47l-.47,1.14h-1.27l2.38-5.33h1.21l2.38,5.33h-1.28l-.48-1.14ZM358.86,411.26l-.84-2-.85,2h1.69Z"/>
    <path class="cls-13" d="M366.2,409.95c0,1.18-.89,1.92-2.32,1.92h-1.07v1.47h-1.24v-5.33h2.31c1.43,0,2.32.74,2.32,1.94h0ZM364.95,409.95c0-.59-.38-.93-1.14-.93h-1v1.85h1c.76,0,1.14-.35,1.14-.92Z"/>
    <path class="cls-13" d="M368.03,409.02h-1.7v-1h4.64v1h-1.7v4.32h-1.24v-4.32Z"/>
    <path class="cls-13" d="M375.76,412.35v1h-4.13v-5.33h4v1h-2.8v1.16h2.47v1h-2.47v1.23l2.93-.06h0Z"/>
    <path class="cls-13" d="M380.14,413.34l-1-1.48h-1.13v1.48h-1.24v-5.33h2.31c1.42,0,2.31.74,2.31,1.94.03.73-.41,1.41-1.09,1.68l1.19,1.71h-1.35ZM378.98,409.02h-1v1.86h1c.76,0,1.14-.36,1.14-.93s-.38-.93-1.14-.93Z"/>
    <path class="cls-10" d="M275.19,271.4c-.01-.76.59-1.38,1.35-1.39h.09c.38,0,.74.15,1,.42l-.26.25c-.2-.21-.47-.33-.76-.32-.58,0-1.04.47-1.04,1.04s.47,1.05,1.04,1.05c.29,0,.57-.12.76-.33l.26.25c-.56.57-1.48.57-2.05,0-.27-.27-.42-.63-.43-1.01l.04.03h0Z"/>
    <path class="cls-10" d="M280.57,270.04v2.72h-.39v-1.21h-1.55v1.21h-.39v-2.72h.39v1.17h1.57v-1.17h.37Z"/>
    <path class="cls-10" d="M283.11,272.08h-1.48l-.3.68h-.4l1.23-2.72h.47l1.23,2.72h-.41l-.34-.68h0ZM282.98,271.77l-.59-1.33-.59,1.33h1.18Z"/>
    <path class="cls-10" d="M286.42,270.99c0,.59-.42.95-1.13.95h-.66v.82h-.38v-2.72h1.06c.69,0,1.11.36,1.11.95h0ZM286.03,270.99c0-.39-.26-.61-.75-.61h-.65v1.24h.67c.47,0,.73-.24.73-.63h0Z"/>
    <path class="cls-10" d="M287.45,270.38h-.93v-.34h2.25v.34h-.94v2.38h-.38v-2.38Z"/>
    <path class="cls-10" d="M291.17,272.43v.33h-2v-2.72h1.92v.34h-1.46v.84h1.36v.33h-1.36v.88h1.54,0Z"/>
    <path class="cls-10" d="M293.63,272.76l-.59-.83h-.85v.83h-.39v-2.72h1.07c.71,0,1.13.36,1.13.95.02.39-.23.75-.6.86l.65.91h-.42,0ZM293.63,270.99c0-.39-.26-.61-.75-.61h-.67v1.24h.67c.46,0,.75-.24.75-.63h0Z"/>
    <path class="cls-10" d="M296.29,270.04v2.72h-.38v-2.38h-.62v-.34h1Z"/>
    <path class="cls-10" d="M275.63,278.33h1.2v5.16h-1.2v-5.16Z"/>
    <path class="cls-10" d="M282.76,278.33v5.16h-1l-2.57-3.13v3.13h-1.16v-5.16h1l2.56,3.14v-3.14h1.17Z"/>
    <path class="cls-10" d="M285.05,279.31h-1.65v-1h4.5v1h-1.65v4.18h-1.2v-4.18Z"/>
    <path class="cls-10" d="M291.82,283.49l-1-1.44h-1.1v1.44h-1.19v-5.16h2.23c1.38,0,2.24.72,2.24,1.88.03.71-.4,1.36-1.06,1.62l1.16,1.66h-1.28ZM290.7,279.31h-1v1.79h1c.73,0,1.1-.33,1.1-.89s-.37-.9-1.1-.9Z"/>
    <path class="cls-10" d="M293.63,280.91c-.08-1.56,1.11-2.88,2.67-2.97,1.56-.08,2.88,1.11,2.97,2.67s-1.11,2.88-2.67,2.97h-.15c-1.47.09-2.73-1.03-2.82-2.5v-.17ZM298.07,280.91c-.02-.89-.76-1.61-1.65-1.59-.89.02-1.61.76-1.59,1.65.02.88.74,1.59,1.62,1.59.87.02,1.6-.67,1.62-1.54v-.11Z"/>
    <path class="cls-10" d="M300.17,278.33h2.34c1.42-.13,2.68.93,2.81,2.35s-.93,2.68-2.35,2.81c-.15.01-.3.01-.45,0h-2.34v-5.16h0ZM302.45,282.51c.88,0,1.6-.72,1.6-1.6s-.72-1.6-1.6-1.6h-1.09v3.2h1.09Z"/>
    <path class="cls-10" d="M306.21,281.22v-2.89h1.2v2.85c0,1,.42,1.38,1.15,1.38s1.14-.4,1.14-1.38v-2.85h1.18v2.89c.08,1.29-.89,2.4-2.18,2.49s-2.4-.89-2.49-2.18v-.31h0Z"/>
    <path class="cls-10" d="M311.74,280.91c.1-1.57,1.45-2.75,3.01-2.66.73.05,1.41.37,1.91.91l-.77.71c-.31-.39-.79-.61-1.29-.61-.91,0-1.65.74-1.65,1.65s.74,1.64,1.65,1.65c.5,0,.98-.22,1.29-.61l.77.71c-1.05,1.16-2.84,1.24-4,.19-.55-.5-.88-1.2-.92-1.94Z"/>
    <path class="cls-10" d="M318.48,279.31h-1.65v-1h4.49v1h-1.69v4.18h-1.19l.04-4.18Z"/>
    <path class="cls-10" d="M321.96,278.33h1.2v5.16h-1.2v-5.16Z"/>
    <path class="cls-10" d="M324.06,280.91c-.08-1.56,1.11-2.88,2.67-2.97,1.56-.08,2.88,1.11,2.97,2.67s-1.11,2.88-2.67,2.97h-.15c-1.47.09-2.73-1.03-2.82-2.5v-.17ZM328.49,280.91c-.02-.89-.76-1.61-1.65-1.59-.89.02-1.61.76-1.59,1.65.02.89.74,1.6,1.63,1.59.87.02,1.59-.66,1.61-1.53v-.12Z"/>
    <path class="cls-10" d="M335.33,278.33v5.16h-1l-2.57-3.13v3.13h-1.13v-5.16h1l2.56,3.14v-3.14h1.14Z"/>
    <path class="cls-4" d="M349.77,304.77h2.08c.27,0,.48.23.47.5,0,.1-.04.2-.09.28l-1.06,1.46c-.14.21-.43.26-.64.12-.05-.03-.09-.07-.12-.12l-1-1.46c-.17-.21-.13-.51.07-.67.08-.07.18-.1.29-.11Z"/>
    <path class="cls-10" d="M418.43,290.79h2.41v.13c-7.78.11-36.84.2-71.46.2l-52.23-.08-15.83-.08h-5.43c-.13.02-.25.02-.38,0h1.5l4.31-.05,15.83-.09,52.23-.07c34.62,0,63.68.08,71.46.19v.13h-1.83c-.38-.26-.58-.28-.58-.28h0Z"/>
    <path class="cls-10" d="M420.97,298.94c0,.14-32.38.26-72.3.26s-72.31-.12-72.31-.26,32.37-.26,72.31-.26,72.3.12,72.3.26h0Z"/>
    <path class="cls-4" d="M420.48,310.24c0,.14-32.38.26-72.3.26s-72.31-.12-72.31-.26,32.37-.26,72.31-.26,72.3.12,72.3.26h0Z"/>
    <path class="cls-11" d="M421.07,171.85l4.27-5.83,4.82-7.86,3.14-7.14s.11-.84-1-.92-2.8,3.84-2.8,3.84l-1.67,2.68s-1.84,1.68-1.87,1.41,1.87-4.11,1.87-4.11l3.72-8.5c.11-.63-.29-1.24-.91-1.39-.63-.19-1.47.33-2.17,1.48s-1.51,3.37-1.9,4-2.47,4.6-2.47,4.6l3.24-10.14s1.41-3,0-3.44-2,2.09-2.53,3-2.81,7.73-4.05,9.23-.94.53-.94.53l2.06-5.52c.9-2.43.95-4.17.15-4.94s-2.89,4.87-2.89,4.87l-3.1,7.76-1.85,1.88-.17-3s1.69-2.55.84-4.68-2.07-1.23-2.07-1.23l-3.78,11.77c-.4,2.07,2.6,7.89,2.6,7.89l-6,10.35s9.91,6.49,10.35,6.35,5.11-12.94,5.11-12.94h0Z"/>
    <path class="cls-2" d="M419.99,165.92c-.25-.65-.44-1.32-.57-2-.34-1.61-1.27-3.04-2.61-4-.66-.45-1.46-.65-2.26-.58h-.27v-.3c-.06-1.28-.24-2.49-.28-3.3s0-1.33,0-1.33c.13.42.22.85.27,1.29.22,1.11.38,2.24.48,3.37l-.28-.26c.91-.1,1.84.12,2.6.63.85.52,1.54,1.27,2,2.16.35.7.6,1.46.75,2.23.17.68.23,1.39.17,2.09h0Z"/>
    <path class="cls-10" d="M330.42,79.62c.88-1.69,2.72-2.64,4.61-2.38,2.22-1.73,5.33-1.73,7.55,0,2.56-1.59,5.92-.8,7.5,1.76.47.76.75,1.63.81,2.53,2.47-.45,4.84,1.18,5.3,3.65.26,1.42-.17,2.88-1.16,3.94,2.31.71,3.61,3.16,2.9,5.47-.61,1.98-2.51,3.26-4.57,3.08l-22-12.94c-1.37-1.33-1.75-3.38-.94-5.11h0Z"/>
    <path class="cls-11" d="M354.01,98.26c-.98-9.63-9.19-16.9-18.87-16.7h-1c-10.36.82-15.45,10.08-14.34,20.41l2.21,34.5,1.51,4.32,17.84,22.36,4.5-20.15.09-9.35s9.94-1.76,9.85-11.73c0-4.79-.88-14.7-1.79-23.66h0Z"/>
    <path class="cls-2" d="M345.98,133.68c-4.6.08-9.13-1.17-13.05-3.58,0,0,3.2,7.13,13,6.06l.05-2.48Z"/>
    <path class="cls-10" d="M350.05,108.09c.02.77-.58,1.43-1.35,1.47-.75.07-1.41-.47-1.49-1.22v-.03c-.02-.77.57-1.42,1.34-1.47.75-.07,1.42.48,1.5,1.23v.02Z"/>
    <path class="cls-10" d="M352.09,103.69c-.18.19-1.27-.59-2.8-.55s-2.64.82-2.81.64.09-.42.57-.79c.65-.48,1.43-.73,2.24-.74.8-.02,1.58.21,2.24.67.48.35.64.7.56.77Z"/>
    <path class="cls-10" d="M336.77,108.48c.02.77-.57,1.42-1.34,1.46-.75.07-1.41-.47-1.49-1.22v-.03c-.02-.77.57-1.42,1.34-1.47.75-.07,1.42.49,1.49,1.24v.02h0Z"/>
    <path class="cls-10" d="M337.43,103.78c-.17.18-1.27-.59-2.8-.56s-2.64.83-2.81.64.09-.42.57-.78c.65-.48,1.44-.74,2.25-.74.8-.02,1.58.21,2.23.67.48.35.64.68.56.77h0Z"/>
    <path class="cls-10" d="M342.71,115.02c.8-.26,1.64-.43,2.48-.5.39,0,.75-.13.81-.4.03-.4-.07-.81-.28-1.15-.39-.94-.79-1.93-1.22-3-1.69-4.2-2.93-7.67-2.76-7.73s1.68,3.29,3.38,7.49l1.17,3c.25.47.33,1.01.23,1.53-.11.28-.34.49-.63.58-.22.06-.44.1-.66.11-.83.13-1.68.15-2.52.07h0Z"/>
    <path class="cls-10" d="M337.36,99.4c-.18.4-1.5.07-3.11.13s-2.93.42-3.1,0c-.08-.19.19-.56.74-.91.72-.43,1.53-.66,2.37-.67.82-.03,1.64.16,2.36.55.55.35.81.71.74.9h0Z"/>
    <path class="cls-10" d="M351.63,99.49c-.23.38-1.32.13-2.58.24s-2.31.47-2.59.13c-.13-.16,0-.52.44-.9.57-.46,1.27-.73,2-.78.74-.07,1.49.1,2.13.48.54.31.72.65.6.83h0Z"/>
    <path class="cls-10" d="M352.95,93.71s-2.75-6.19-5.79-7.58c-3.68-1.69-5.17,2.34-8.66,1.44s-7-2.52-10.5.24c-3.83,3-2,5-2.11,9.47-.61,18-3.78,23.09-4.88,14.66-.12-.92-2.71-1.6-3.17-5.51-.6-5.06-.92-11.21.14-14.83.89-3,2.58-5.18,5.63-7.55,4.82-3.75,11.54-4,16.11-3.6s13.49,5.43,13.23,13.26h0Z"/>
    <path class="cls-11" d="M321.63,111.62c-.08-1.49-1.36-2.64-2.85-2.56-.05,0-.1,0-.15,0-1.85.22-3.9,1.31-3.7,5.15.36,6.81,7.12,5.05,7.12,4.85s-.24-4.56-.42-7.45h0Z"/>
    <path class="cls-2" d="M320.47,116.62s-.12.09-.31.19c-.28.14-.6.16-.89.06-.93-.52-1.5-1.5-1.49-2.56-.05-.58.03-1.17.24-1.71.09-.45.41-.83.84-1,.28-.09.58.03.72.29.1.18.07.32.1.33s.14-.12.07-.4c-.04-.17-.15-.31-.29-.41-.19-.13-.43-.19-.66-.14-.56.14-1.02.56-1.19,1.12-.25.61-.36,1.26-.31,1.92.12,1.37.89,2.62,1.89,2.85.37.09.77,0,1.07-.24.2-.13.23-.3.21-.3h0Z"/>
    <path class="cls-10" d="M321.5,98.45c.85.66,1.85,1.1,2.91,1.27,1.1.15,2.14-.54,2.44-1.61.07-.48-.06-1,.24-1.4s1.06-.32,1.63-.27c2.06.12,3.91-1.22,4.45-3.21.65.68,1.71.76,2.45.18.69-.58,1.31-1.25,1.82-2,.52-.76,1.39-1.22,2.31-1.22.48.15.98.25,1.49.29.9-.1,1.31-1.15,1.43-2s.2-1.93.95-2.43c.77-.32,1.63-.36,2.43-.12.83.11,1.89-.11,2.08-.92.06-.44-.06-.88-.33-1.23-1.17-1.67-3.34-2.32-5.24-1.56-1.03-3.15-4.42-4.86-7.57-3.83-1.47.48-2.7,1.52-3.43,2.89-2.53-2.2-6.36-1.94-8.56.59-.47.54-.84,1.16-1.1,1.83-2.36-.57-4.74.88-5.31,3.24-.27,1.11-.1,2.27.48,3.26-1.27.67-2.12,1.95-2.23,3.38,0,1.41,1.41,2.78,2.76,2.38-.59,1.21-.09,2.67,1.13,3.26,1.13.55,2.49.15,3.14-.91"/>
    <path class="cls-5" d="M317.08,95.9c-.04.48.13.95.46,1.3.34.43.84.71,1.38.79.7.1,1.41-.13,1.93-.61h-.29c.38.62.84,1.19,1.39,1.67.37.33.8.58,1.26.74.44.16.92.19,1.38.1.79-.08,1.5-.51,1.94-1.17.27-.43.44-.92.52-1.42.06-.35.07-.55,0-.56-.09.16-.15.34-.19.52-.12.47-.33.91-.6,1.31-.99,1.18-2.74,1.33-3.92.34-.06-.05-.12-.1-.17-.16-.52-.45-.97-.98-1.33-1.57l-.13-.2-.16.16c-.43.42-1.03.62-1.63.56-.48-.05-.92-.27-1.25-.62-.27-.35-.47-.75-.59-1.18h0Z"/>
    <path class="cls-5" d="M329.63,80.07s.18,0,.49.17c.44.17.81.48,1.07.88l.09.12.09-.12c.83-1.17,1.94-2.12,3.24-2.74.83-.4,1.74-.62,2.67-.64,1.02-.02,2.02.24,2.9.76.69.4,1.29.94,1.75,1.59.42.6.69,1.28.8,2v.22l.21-.06c1.74-.53,3.61.28,4.42,1.91.29.63.45,1.31.47,2,.05-.18.08-.37.07-.56,0-.53-.12-1.06-.34-1.54-.34-.76-.92-1.39-1.64-1.8-.94-.53-2.05-.66-3.09-.37l.24.15c-.1-.79-.38-1.55-.84-2.21-.49-.7-1.13-1.29-1.87-1.72-.94-.56-2.02-.83-3.11-.8-.98.03-1.94.27-2.81.71-1.33.67-2.46,1.68-3.27,2.93h.18c-.3-.41-.73-.72-1.22-.87-.16-.04-.33-.04-.5,0h0Z"/>
    <path class="cls-2" d="M338.63,117.42s-2,4.11,2.24,5.09c.37.09.75.06,1.11-.06h0c.66-.21,1.15-.75,1.32-1.42l.58-2.23c-.16.05-5.25-1.38-5.25-1.38h0Z"/>
    <path class="cls-10" d="M342.36,122.29c0,.06-.1.24-.47.37-.52.15-1.07.15-1.59,0-.81-.19-1.53-.65-2.05-1.3-.26-.42-.44-.88-.53-1.37-.1-.52-.1-1.04,0-1.56.1-.49.26-.96.49-1.41l.2-.4.43.14c3,.93,5.16,1.8,5.09,2s-2.4-.23-5.42-1.08l.62-.26c-.17.37-.31.76-.39,1.16-.07.39-.07.79,0,1.18.05.35.16.69.32,1,.37.51.89.9,1.48,1.13.41.18.84.28,1.29.31.31.07.49.03.53.09Z"/>
    <polygon class="cls-13" points="367.29 246.1 357.53 156.83 349.33 139.35 346.09 136.14 344.12 143.91 341.37 153.82 333.84 144.27 321.95 134.95 321.68 139.55 315.97 156.41 320.7 200.42 320.7 246 367.29 246.1"/>
    <path class="cls-10" d="M345.97,246v-.93c0-.63-.06-1.53-.1-2.67-.08-2.35-.19-5.71-.33-9.85-.29-8.31-.75-19.78-1.4-32.45s-1.39-24.14-2-32.43c-.29-4.13-.52-7.49-.69-9.83-.07-1.14-.13-2-.18-2.67v-.69c-.01-.08-.01-.16,0-.24v.23c0,.18,0,.41.07.7.06.63.14,1.52.25,2.66.2,2.32.48,5.67.79,9.82.64,8.29,1.41,19.76,2.06,32.43s1.08,24.15,1.3,32.47c.12,4.15.19,7.52.22,9.84v3.38c.01.08.02.15,0,.23h0Z"/>
    <path class="cls-5" d="M326.72,245.77c-.14-3.43-.08-6.87.2-10.29.37-7,.77-19.54.14-27-1.18-14-3.83-37-4-43.11s-1.24-29-1.24-29l-1.72,3-2.75,3.78-24.72,11.85,13.66,42.75,4.5,16.87-7.83,31.48"/>
    <path class="cls-5" d="M363.12,246.44c-.17-4.38-4.79-40.93-4.79-40.93l-6.08-57.2-4.57-11.22,7.45,4.35,24.12,7.93-1.93,17.06-1.11,44.19,5.1,35.53"/>
    <path class="cls-10" d="M355.63,141.42c.11.1.22.22.31.34l.83,1,3.09,3.88.07.08-.08.07-2.63,2v-.22l3.07,1h.1v.1c-.06,5.49-.13,12.4-.21,19.89-.14,9.14-.26,17.41-.34,23.43-.06,3-.11,5.4-.15,7.1l-.05,1.93v.68-9.71c.06-6,.15-14.3.24-23.44.11-7.49.21-14.4.28-19.88l.1.13-3.07-1-.23-.08.19-.14,2.65-2v.15l-3-3.94-.79-1c-.13-.12-.26-.24-.38-.37h0Z"/>
    <path class="cls-10" d="M325.63,201.29l-.06-.17c0-.13-.1-.29-.16-.49-.15-.46-.35-1.09-.62-1.89-.53-1.64-1.33-4-2.36-6.92l-1.7-4.76c-.67-1.82-1.25-3.67-1.73-5.54-1.03-4.31-1.84-8.67-2.42-13.07-.83-6.09-1.37-11.82-1.7-16.76v-.07h.05l2.66-2.56v.21l-2.52-1.92-.09-.07.07-.1,4.54-6.16,1.25-1.66.33-.43.12-.14s0,.06-.09.16l-.3.45-1.2,1.7-4.45,6.23v-.18l2.54,1.9.12.09-.11.12-2.64,2.57.05-.12c.36,4.93.91,10.66,1.75,16.73.57,4.37,1.37,8.71,2.38,13,.47,1.87,1.03,3.72,1.69,5.53.6,1.71,1.15,3.31,1.66,4.77,1,2.92,1.76,5.3,2.26,7,.25.82.44,1.47.56,1.91l.12.5v.14h0Z"/>
    <g class="cls-15">
      <polygon class="cls-3" points="306.25 232.81 319.35 237.94 320.22 235.02 326.71 240.43 327.06 232.36 321.36 224.36 307.21 228.95 306.25 232.81"/>
    </g>
    <path class="cls-11" d="M350.74,232.7l-5.31-3.22-4.67-4.23c1.08.88,2.31,1.55,3.63,2,1.3.4,2.7-.13,3.42-1.28,0,0-1.91-1.21-2.57-1.57s-7.28-5.31-9-5.67-12.76-2.63-12.76-2.63l-.17.58-5.48,11.67,4.87,1.3c.92,1.3,1.75,2.67,2.48,4.09,1.09,2.19,6.4,4.35,8.45,5.42s4.35-.81,4.35-.81c2.35.54,2.93-2,2.93-2,2.7-.37,2.93-3.31,2.93-3.31,2.1.83,4.24,1.56,6.41,2.17.47.13.96-.13,1.12-.59.29-.71.02-1.52-.63-1.92h0Z"/>
    <path class="cls-2" d="M343.88,233.03c-1.09-.33-2.13-.79-3.1-1.39-1.03-.5-1.96-1.18-2.76-2,.06-.08,1.3.79,2.93,1.68,1.02.49,2,1.06,2.93,1.71h0Z"/>
    <path class="cls-2" d="M335.27,232.62c1.09.47,2.11,1.08,3.05,1.81,1,.63,1.96,1.32,2.88,2.07-1.1-.45-2.13-1.05-3.07-1.78-1-.63-1.96-1.33-2.86-2.1Z"/>
    <path class="cls-2" d="M333.16,234.86c.06-.07,1.09.79,2.46,1.71.86.51,1.67,1.12,2.4,1.81-.92-.4-1.8-.91-2.6-1.52-.88-.51-1.64-1.19-2.26-2h0Z"/>
    <path class="cls-2" d="M334.52,220.62c.41,0,.82.09,1.19.26.92.33,1.78.81,2.55,1.42.76.61,1.45,1.31,2.05,2.08.27.29.49.63.64,1-.92-.99-1.89-1.93-2.91-2.82-1.08-.8-2.27-1.45-3.52-1.94h0Z"/>
    <path class="cls-5" d="M283.25,219.01c-1.41-.88-2.28-2.4-2.34-4.06-.05-2.31.09-4.62.4-6.91.93-7.79,11.28-53,11.28-53l15.24,35.26-4.41,15.32,22.45,10.75-6.24,17.63s-29.84-10.92-36.38-14.99Z"/>
    <path class="cls-5" d="M409.2,165.73l-11.73,18.28-18.22-34.64-6.29,23.25,3.59,16.39,13.36,20c2.24,3.33,9.34,4.56,13.93-.7l19.79-32.87-14.43-9.71h0Z"/>
    <path class="cls-10" d="M376.69,160.54c.01.17.01.33,0,.5v1.41c0,1.27.06,3,.1,5.21.05,4.4.08,10.47,0,17.18s-.2,12.79-.34,17.19c-.08,2.17-.15,3.94-.2,5.2,0,.59,0,1.06-.07,1.42,0,.16-.02.33-.05.49-.02-.16-.02-.33,0-.49v-1.42c0-1.27.05-3,.08-5.21.08-4.39.18-10.47.25-17.18s.17-12.78.17-17.22v-6.62c0-.16.02-.31.06-.46Z"/>
    <path class="cls-10" d="M298.56,165.43c.06.12.11.26.14.39l.34,1.16c.3,1,.71,2.48,1.21,4.25,1,3.59,2.37,8.56,3.77,14.08s2.5,10.56,3.19,14.22c.35,1.84.62,3.33.77,4.36.08.48.14.88.18,1.18.02.14.02.28,0,.42-.05-.13-.09-.26-.11-.4l-.24-1.18c-.21-1.06-.51-2.53-.88-4.33-.75-3.65-1.89-8.67-3.29-14.19s-2.73-10.49-3.67-14.1c-.45-1.77-.83-3.23-1.1-4.28-.11-.48-.21-.86-.28-1.17-.03-.14-.04-.27-.03-.41h0Z"/>
    <path class="cls-10" d="M290.69,222.62l.14.05.42.15,1.62.6,6,2.32,20.78,8.09-.22.1c1.31-3.69,2.72-7.69,4.19-11.83l2.06-5.81.08.22-22.13-10.7h0c-1.69-.55-3.47-.75-5.24-.6-1.33.13-2.64.47-3.87,1-.78.34-1.54.73-2.26,1.18l-.55.37c-.13.08-.19.12-.2.11l.18-.14.54-.4c.71-.48,1.45-.9,2.23-1.25,2.92-1.3,6.21-1.48,9.25-.49h0l22.23,10.63.14.06-.05.15-2.06,5.81-4.2,11.82-.05.17-.16-.07-20.74-8.21-6-2.4-1.6-.66-.41-.18c-.08-.09-.13-.09-.12-.09h0Z"/>
    <path class="cls-10" d="M341.09,153.47c-.23-.17-.44-.36-.63-.57l-1.68-1.67-5.65-5.77h.25c-.74.9-1.24,1.96-1.46,3.1-.12.6-.17,1.21-.14,1.82v.39l-.3-.25c-2.86-2.32-5.17-4.59-6.91-6.14l-2-1.83c-.26-.21-.5-.43-.73-.67.29.17.56.36.81.58.51.39,1.24,1,2.12,1.75,1.77,1.51,4.12,3.75,7,6l-.27.15c-.04-.64,0-1.28.14-1.91.23-1.2.76-2.32,1.54-3.25l.12-.14.13.13,5.56,5.86,1.61,1.73c.18.21.35.45.49.69Z"/>
    <path class="cls-10" d="M348.63,140.84c.03.18.03.35,0,.53,0,.35,0,.85-.07,1.49-.14,1.72-.42,3.42-.84,5.09l-.1.42-.2-.38c-.58-1.1-1.32-2.11-2.19-3-.25-.25-.51-.49-.76-.71l.28-.09c-.51,2.3-1.2,4.55-2.05,6.75-.32.83-.6,1.49-.81,1.94-.1.24-.22.47-.36.68.06-.25.14-.5.24-.73l.71-2c.78-2.21,1.42-4.46,1.93-6.75l.06-.28.22.19c.27.23.53.47.78.73.91.92,1.66,1.97,2.24,3.12h-.3c.43-1.64.74-3.31.95-5,.2-1.22.27-2,.27-2h0Z"/>
    <polygon class="cls-5" points="369.14 229.63 371.16 235.88 382.54 234.83 378.99 228.86 369.14 229.63"/>
    <path class="cls-10" d="M369.15,229.62c.22-.04.44-.07.67-.08l2-.2c1.72-.17,4.2-.4,7.16-.65h.1l.05.08,3.56,6,.14.24h-.27l-.59.06-10.8,1h-.11v-.1c-.61-2-1.09-3.55-1.41-4.63l-.37-1.25c-.08-.28-.12-.42-.1-.42s.07.17.17.46.26.75.44,1.26l1.53,4.49-.15-.09,10.8-1h.59l-.14.26-3.53-6,.14.08c-2.88.21-5.32.36-7.06.47l-2,.12c-.55-.1-.81-.1-.82-.1h0Z"/>
    <rect class="cls-5" x="362.06" y="180.06" width="12.23" height="3.95"/>
    <path class="cls-10" d="M374.29,184.01v-1.08c0-.72,0-1.68-.06-2.87l.11.12c-2.91,0-7.31.06-12.23.06.08-.08-.17.17.17-.18h0v3.92l-.17-.17c3.49,0,6.52.05,8.7.08h3.57c-.29.02-.59.02-.88,0h-2.53c-2.18,0-5.26.07-8.82.08h-.17v-4.09h0l.17-.17c4.92,0,9.32,0,12.23.06h.12v.11c0,1.22-.02,2.2-.06,2.94-.01.4-.06.8-.15,1.19h0Z"/>
    <g class="cls-15">
      <path class="cls-3" d="M360.18,149.69l1.88,2.59s-.52,39.28-2.52,49l.64-51.59h0Z"/>
    </g>
    <path class="cls-13" d="M368.12,120.51l3.61-6.14c-4.01-11.84,2.33-24.69,14.16-28.7,11.84-4.01,24.69,2.33,28.7,14.16,4.01,11.84-2.33,24.69-14.16,28.7-8.92,3.03-18.78.21-24.76-7.07h0l-7.55-.95Z"/>
    <path class="cls-10" d="M368.12,120.51l.51.05,1.46.16,5.6.67-.1.12h0s-.03-.09,0-.12.08-.03.11,0c2.4,2.88,5.47,5.13,8.95,6.53,2.23.9,4.6,1.43,7,1.57,5.76.36,11.43-1.51,15.84-5.23,8.15-6.83,10.36-18.45,5.29-27.8-1.71-3.23-4.2-5.98-7.24-8-2.89-1.92-6.18-3.16-9.62-3.62-3.24-.42-6.54-.11-9.65.89-11.85,3.78-18.39,16.45-14.6,28.3.03.09.06.17.08.26.01.02.01.05,0,.07l-2.71,4.52c-.31.5-.54.89-.71,1.17s-.26.41-.26.41l.21-.39.67-1.17,2.65-4.62v.07c-1.23-3.57-1.54-7.4-.91-11.12,2.06-12.02,13.2-20.29,25.3-18.79,3.5.47,6.85,1.73,9.8,3.68,3.09,2.06,5.62,4.84,7.38,8.11,5.98,11.07,1.85,24.89-9.22,30.87-1.32.71-2.71,1.29-4.14,1.73-2.64.81-5.41,1.13-8.16.94-2.44-.14-4.84-.69-7.1-1.62-3.51-1.44-6.6-3.74-9-6.68l.15-.09h0s0,.1-.05.12h-.02l-5.64-.78-1.36-.1-.51-.11h0Z"/>
    <path class="cls-10" d="M387.13,107.12c0,1.19-.96,2.15-2.15,2.15s-2.15-.96-2.15-2.15.96-2.15,2.15-2.15h0c1.19,0,2.15.96,2.15,2.15Z"/>
    <path class="cls-10" d="M395.73,107.12c0,1.19-.96,2.15-2.15,2.15s-2.15-.96-2.15-2.15.96-2.15,2.15-2.15h0c1.19,0,2.15.96,2.15,2.15Z"/>
    <path class="cls-10" d="M404.31,106.04c.6,1.03.25,2.34-.77,2.94-1.03.6-2.34.25-2.94-.77-.6-1.03-.25-2.34.77-2.94h.01c1.03-.58,2.33-.24,2.93.78h0Z"/>
    <circle class="cls-8" cx="351.45" cy="176.23" r="14.85"/>
    <path class="cls-13" d="M347.87,180.62v-8.77c0-.31.26-.56.57-.55.09,0,.18.03.26.07l7.83,4.41c.28.14.39.48.25.75-.05.11-.14.19-.25.25l-7.83,4.34c-.26.15-.6.07-.75-.19-.06-.09-.08-.2-.08-.31h0Z"/>
    <rect class="cls-4" x="258.31" y="246.97" width="180.34" height="15.07"/>
    <path class="cls-13" d="M421.75,254.95h-144.43v-.71h144.43c.19.01.34.17.33.36h0c0,.19-.14.34-.33.35h0Z"/>
    <path class="cls-8" d="M301.29,255.37h-23.15c-.51-.03-.92-.44-.94-.95h0c0-.52.42-.94.94-.94h23.15v1.89Z"/>
    <path class="cls-8" d="M303.02,254.5c0,1.3-1.06,2.36-2.36,2.36s-2.36-1.06-2.36-2.36,1.06-2.36,2.36-2.36h0c1.3,0,2.36,1.06,2.36,2.36Z"/>
    <polygon class="cls-10" points="429.61 254.24 429 254.24 429 252.5 430.74 252.5 430.74 253.1 429.61 253.1 429.61 254.24"/>
    <polygon class="cls-10" points="430.74 256.5 429 256.5 429 254.77 429.6 254.77 429.6 255.9 430.74 255.9 430.74 256.5"/>
    <polygon class="cls-10" points="433.51 256.5 431.77 256.5 431.77 255.9 432.9 255.9 432.9 254.77 433.51 254.77 433.51 256.5"/>
    <polygon class="cls-10" points="433.51 254.23 432.91 254.23 432.91 253.1 431.77 253.1 431.77 252.5 433.51 252.5 433.51 254.23"/>
    <path class="cls-10" d="M266.94,257.49v-5.79c0-.2.17-.37.37-.37.06,0,.12.02.18.05l5.17,2.92c.18.1.24.33.13.51-.03.06-.08.1-.13.13l-5.18,2.87c-.17.1-.39.04-.49-.13-.03-.06-.05-.12-.05-.19h0Z"/>
    <rect class="cls-8" x="275" y="322.84" width="26.28" height="26.28" rx="7.44" ry="7.44"/>
    <path class="cls-13" d="M284.63,340.72v-9.49c0-.33.27-.6.6-.6.11,0,.21.03.3.08l8.48,4.78c.29.16.39.53.23.82-.05.1-.14.18-.23.23l-8.48,4.71c-.3.16-.67.05-.83-.25-.05-.09-.07-.18-.07-.28Z"/>
    <path class="cls-10" d="M307.5,364.52c-.01-.76.59-1.38,1.35-1.39h.09c.38,0,.74.15,1,.42l-.26.25c-.2-.21-.47-.33-.76-.32-.58,0-1.04.47-1.04,1.04s.47,1.05,1.04,1.05c.29,0,.57-.12.76-.33l.26.25c-.56.57-1.48.57-2.05,0-.27-.27-.42-.63-.43-1.01l.04.03h0Z"/>
    <path class="cls-10" d="M312.87,363.16v2.72h-.39v-1.21h-1.56v1.21h-.39v-2.72h.39v1.17h1.56v-1.17h.39Z"/>
    <path class="cls-10" d="M315.42,365.2h-1.45l-.3.68h-.4l1.24-2.72h.38l1.24,2.72h-.41l-.3-.68ZM315.29,364.89l-.59-1.33-.59,1.33h1.18Z"/>
    <path class="cls-10" d="M318.73,364.11c0,.59-.43.95-1.13.95h-.68v.82h-.39v-2.72h1.1c.67,0,1.1.36,1.1.95h0ZM318.34,364.11c0-.39-.26-.61-.76-.61h-.66v1.22h.71c.45,0,.71-.22.71-.61h0Z"/>
    <path class="cls-10" d="M319.76,363.5h-.94v-.34h2.26v.34h-.94v2.38h-.38v-2.38Z"/>
    <path class="cls-10" d="M323.47,365.55v.33h-2v-2.72h1.92v.34h-1.53v.84h1.36v.33h-1.36v.88h1.61Z"/>
    <path class="cls-10" d="M325.92,365.88l-.58-.83h-.85v.82h-.39v-2.72h1.06c.71,0,1.14.36,1.14.95.01.39-.23.74-.6.86l.65.91h-.43ZM325.92,364.12c0-.39-.26-.61-.76-.61h-.66v1.23h.66c.47,0,.75-.23.75-.62h.01Z"/>
    <path class="cls-10" d="M329.63,365.08c0,.46-.34.84-1,.84-.36,0-.71-.11-1-.33l.18-.31c.23.19.52.3.82.29.4,0,.64-.19.64-.48s-.21-.48-.67-.48h-.22v-.27l.68-.84h-1.31v-.34h1.8v.27l-.71.87c.5.06.79.32.79.78Z"/>
    <path class="cls-10" d="M307.63,372.34c.09-1.76,1.59-3.11,3.35-3.02.83.04,1.62.41,2.18,1.02l-.86.79c-.36-.43-.9-.68-1.46-.67-1.02,0-1.85.83-1.85,1.85s.83,1.85,1.85,1.85c.57,0,1.11-.25,1.46-.69l.86.8c-1.19,1.29-3.21,1.38-4.51.18-.61-.57-.98-1.35-1.02-2.18v.07Z"/>
    <path class="cls-10" d="M313.48,373.01c-.08-1.35.94-2.5,2.29-2.59,1.35-.08,2.5.94,2.59,2.29.08,1.35-.94,2.5-2.29,2.59h-.14c-1.26.09-2.36-.86-2.44-2.12v-.17h0ZM317.06,373.01c-.05-.63-.6-1.1-1.23-1.05-.63.05-1.1.6-1.05,1.23.05.6.55,1.05,1.14,1.05.62,0,1.13-.49,1.14-1.1v-.13h0Z"/>
    <path class="cls-10" d="M326.74,372.69v2.54h-1.29v-2.35c0-.72-.32-1.05-.84-1.05s-1,.38-1,1.17v2.23h-1.28v-2.35c0-.72-.3-1.05-.84-1.05s-1,.38-1,1.17v2.23h-1.29v-4.45h1.24v.52c.36-.39.86-.6,1.39-.58.58-.03,1.14.24,1.47.72.39-.47.98-.74,1.6-.72.95-.08,1.78.63,1.85,1.58.01.13,0,.26-.01.39h0Z"/>
    <path class="cls-10" d="M332.74,373.01c.07,1.19-.83,2.21-2.03,2.29h-.19c-.5.02-.99-.17-1.34-.54v2.08h-1.29v-6.06h1.24v.52c.35-.4.86-.61,1.39-.58,1.19-.04,2.19.9,2.22,2.1v.19ZM331.43,373.01c-.06-.62-.6-1.08-1.23-1.03s-1.08.6-1.03,1.23c.05.58.54,1.03,1.12,1.03.62,0,1.13-.49,1.14-1.1v-.13Z"/>
    <path class="cls-10" d="M333.27,373.01c-.09-1.35.93-2.52,2.28-2.6,1.35-.09,2.52.93,2.6,2.28.09,1.35-.93,2.52-2.28,2.6h-.15c-1.26.09-2.36-.86-2.44-2.12v-.17h-.01ZM336.85,373.01c-.05-.63-.6-1.1-1.23-1.05-.63.05-1.1.6-1.05,1.23.05.6.55,1.05,1.14,1.05.62,0,1.13-.49,1.14-1.1v-.13h0Z"/>
    <path class="cls-10" d="M338.63,374.82l.43-.93c.47.28,1,.43,1.55.43.6,0,.82-.15.82-.4,0-.73-2.69,0-2.69-1.76,0-.85.76-1.44,2.06-1.44.59-.01,1.18.12,1.71.39l-.43.91c-.39-.22-.83-.33-1.28-.33-.58,0-.83.19-.83.42,0,.76,2.69,0,2.69,1.77,0,.83-.77,1.42-2.1,1.42-.67,0-1.34-.16-1.93-.48h0Z"/>
    <path class="cls-10" d="M343.24,369.44c.02-.41.36-.74.78-.72h.03c.4-.04.75.24.8.64v.06c-.05.44-.45.76-.89.72-.38-.04-.67-.34-.72-.72v.02h0ZM343.4,370.78h1.29v4.45h-1.29v-4.45Z"/>
    <path class="cls-10" d="M348.76,375.02c-.31.2-.68.29-1.05.28-.8.11-1.54-.46-1.65-1.26-.02-.11-.02-.23,0-.34v-1.82h-.69v-1h.69v-1.08h1.29v1.08h1.11v1h-1.11v1.81c-.04.28.15.54.43.58h.12c.19,0,.37-.05.52-.16l.35.91h-.01Z"/>
    <path class="cls-10" d="M349.33,369.44c0-.41.35-.73.76-.72h.04c.4-.04.75.24.8.64v.06c0,.44-.36.8-.8.8s-.8-.36-.8-.8v.02h0ZM349.49,370.78h1.29v4.45h-1.29v-4.45Z"/>
    <path class="cls-10" d="M351.63,373.01c-.09-1.35.93-2.52,2.28-2.6,1.35-.09,2.52.93,2.6,2.28.09,1.35-.93,2.52-2.28,2.6h-.15c-1.26.09-2.36-.86-2.44-2.12v-.17h-.01ZM355.22,373.01c-.05-.63-.6-1.1-1.23-1.05-.63.05-1.1.6-1.05,1.23.05.59.54,1.05,1.13,1.05.62.02,1.14-.47,1.15-1.08v-.15h-.01.01Z"/>
    <path class="cls-10" d="M361.94,372.69v2.54h-1.31v-2.35c0-.72-.33-1.05-.9-1.05s-1.07.38-1.07,1.2v2.2h-1.29v-4.45h1.26v.52c.39-.39.92-.6,1.47-.58.96-.06,1.79.68,1.85,1.64,0,.11,0,.22-.01.33h0Z"/>
    <rect class="cls-4" x="275" y="359.38" width="26.28" height="26.28" rx="7.44" ry="7.44"/>
    <path class="cls-13" d="M284.63,377.26v-9.48c0-.33.26-.6.59-.61.11,0,.22.03.31.08l8.48,4.78c.28.18.35.56.17.83-.04.07-.1.12-.17.17l-8.48,4.71c-.3.16-.67.05-.83-.24-.04-.07-.06-.15-.07-.24Z"/>
    <path class="cls-10" d="M408.02,346.21c0,.14-21.85.26-48.8.26s-48.79-.12-48.79-.26,21.84-.26,48.79-.26,48.8.12,48.8.26Z"/>
    <path class="cls-10" d="M392.63,381.4c0,.14-19,.26-42.31.26s-42.32-.12-42.32-.26,18.94-.26,42.32-.26,42.31.12,42.31.26Z"/>
    <path class="cls-10" d="M419.16,440.2l.71-.05c.7-.02,1.4-.08,2.09-.2,2.74-.39,5.36-1.36,7.69-2.86,3.82-2.42,6.68-6.08,8.1-10.37.24-.62.35-1.29.54-2s.22-1.37.34-2.07.08-1.44.13-2.17,0-1.5,0-2.27v-9.78c0-27.67-.05-67.69-.08-117.14s-.05-108.3-.05-173.67v-37.46c.08-2.11,0-4.22-.27-6.32-.33-2.1-1-4.13-2-6-2-3.78-5.19-6.8-9.08-8.59-1.96-.87-4.04-1.42-6.17-1.63-2.13-.16-4.33-.08-6.51-.1h-136.58c-4.69.01-9.21,1.71-12.76,4.77-3.53,3.04-5.83,7.27-6.47,11.89-.22,2.3-.3,4.62-.22,6.93v337.27c-.05,1.58,0,3.17.18,4.74.41,3.08,1.55,6.02,3.33,8.57,1.75,2.48,4.04,4.53,6.7,6,2.61,1.4,5.51,2.18,8.47,2.31,5.86.08,11.6,0,17.17.05h113.7l-31.84.05h-81.86c-5.57,0-11.29.05-17.19,0-3.01-.12-5.96-.93-8.62-2.35-2.71-1.49-5.04-3.58-6.83-6.1-1.82-2.6-2.98-5.6-3.4-8.74-.18-1.59-.24-3.19-.19-4.79V81.09c-.08-2.34,0-4.67.22-7,1.41-9.82,9.83-17.11,19.75-17.11h136.47c2.19,0,4.35-.06,6.56.11,2.19.24,4.32.82,6.32,1.73,3.97,1.84,7.23,4.93,9.28,8.8,1,1.92,1.68,3.99,2,6.13.26,2.12.35,4.26.27,6.39v37.44c0,65.39,0,124.28-.05,173.74s-.07,89.47-.09,117.14v12.05c-.05.74-.06,1.47-.13,2.19s-.19,1.41-.36,2.09c-.15.68-.33,1.34-.55,2-.79,2.34-2.01,4.51-3.59,6.41-1.32,1.56-2.87,2.91-4.6,4-2.34,1.49-4.98,2.46-7.73,2.83-.69.11-1.4.17-2.1.17h-.7Z"/>
  </g>
  <g id="freepik--speech-bubble--inject-18">
    <circle class="cls-13" cx="62.21" cy="146.38" r="25.72"/>
    <path class="cls-10" d="M87.94,146.38c-.01-.14-.01-.28,0-.42,0-.3-.05-.7-.09-1.22,0-.27,0-.57-.06-.9s-.1-.68-.16-1.07c-.12-.9-.31-1.78-.55-2.65-.6-2.4-1.56-4.7-2.85-6.81-6.29-10.53-19.18-15.09-30.7-10.87-1.14.41-2.25.9-3.32,1.46-1.08.59-2.13,1.26-3.12,2-1.02.75-1.98,1.58-2.89,2.46-.9.93-1.73,1.91-2.5,2.95-1.58,2.13-2.81,4.49-3.64,7-1.75,5.21-1.75,10.86,0,16.07.83,2.51,2.06,4.87,3.64,7,.77,1.04,1.6,2.02,2.5,2.95.91.88,1.87,1.71,2.89,2.46.99.74,2.03,1.41,3.12,2,1.07.56,2.18,1.05,3.32,1.46,11.5,4.18,24.35-.38,30.65-10.87,1.28-2.1,2.24-4.38,2.85-6.76.24-.87.43-1.75.55-2.65.06-.39.13-.74.16-1.07s0-.63.06-.9c0-.51.07-.92.09-1.22-.01-.14-.01-.27,0-.41.01.14.01.27,0,.41v2.13c0,.33-.09.69-.14,1.08-.1.9-.26,1.8-.5,2.68-.57,2.43-1.52,4.76-2.8,6.91-6.31,10.72-19.37,15.42-31.06,11.17-1.16-.41-2.3-.91-3.39-1.48-1.11-.59-2.17-1.26-3.19-2-1.04-.77-2.02-1.6-2.95-2.5-.92-.94-1.77-1.94-2.55-3-1.62-2.17-2.89-4.58-3.74-7.15-1.79-5.32-1.79-11.08,0-16.4.85-2.57,2.1-4.98,3.72-7.15.79-1.05,1.64-2.06,2.55-3,.93-.9,1.91-1.73,2.95-2.5,1.02-.74,2.08-1.41,3.19-2,1.09-.57,2.23-1.07,3.39-1.48,4.36-1.58,9.07-1.95,13.63-1.09,7.3,1.39,13.66,5.86,17.43,12.27,1.28,2.14,2.23,4.47,2.8,6.9.23.88.4,1.78.5,2.68.05.39.12.75.14,1.08s0,.63,0,.9v1.23c.03.1.05.21.07.32h0Z"/>
    <circle class="cls-10" cx="71.63" cy="146.26" r="2.35"/>
    <path class="cls-10" d="M59.86,146.26c0,1.3,1.05,2.36,2.35,2.37s2.36-1.05,2.37-2.35-1.05-2.36-2.35-2.37h-.02c-1.3,0-2.35,1.05-2.35,2.35h0Z"/>
    <path class="cls-10" d="M50.47,145.08c-.66,1.13-.28,2.57.85,3.23s2.57.28,3.23-.85.28-2.57-.85-3.23c0,0-.01,0-.02,0-1.12-.64-2.56-.26-3.21.86Z"/>
    <path class="cls-13" d="M101.88,156.49c0,2.14-1.73,3.87-3.87,3.87s-3.87-1.73-3.87-3.87,1.73-3.87,3.87-3.87h0c2.14,0,3.87,1.73,3.87,3.87Z"/>
    <path class="cls-10" d="M101.88,156.49s0-.34-.22-.92c-.24-.8-.74-1.51-1.42-2-1-.73-2.3-.9-3.46-.47-1.88.72-2.82,2.82-2.1,4.7.72,1.88,2.82,2.82,4.7,2.1.31-.12.59-.27.86-.47.68-.49,1.18-1.19,1.42-2,.17-.57.18-.92.22-.92.09.33.09.67,0,1-.18.89-.67,1.7-1.39,2.26-1.09.86-2.55,1.09-3.86.63-2.13-.75-3.25-3.08-2.51-5.21.41-1.17,1.33-2.1,2.51-2.51,1.31-.46,2.77-.22,3.86.64.72.56,1.21,1.36,1.39,2.25.08.3.08.62,0,.92Z"/>
  </g>
  <g id="freepik--Character--inject-18">
    <path class="cls-10" d="M171.55,153.53c.23,10.22-3.92,20.05-11.41,27l-5.1-14.77"/>
    <path class="cls-10" d="M133.11,124.14c4.37-2.39,9.66-2.73,14.55-1.75,4.87,1.13,9.52,3.05,13.77,5.69,2.49,1.28,4.73,3.02,6.58,5.13,3.18,4,6.32,10.57,6.63,15.67.25,4.12-1.33,14.44-3.08,18.19-1.59,3.44-9.08,6.05-12.77,6.9l-33.9-39.43c1.23-4.43,4.19-8.18,8.22-10.4h0Z"/>
    <path class="cls-10" d="M127.26,129.46l8.13-1.45c-4.44,10.58-5.65,34.77-8.19,46-3-4.35-9.95-17.59-9.58-22.85s0-22.6,9.64-21.7Z"/>
    <path class="cls-11" d="M122.63,146.71c.53-8.12,5.94-18.07,14-17.2l18.72,4.78c5.91,1.5,10.15,6.69,10.44,12.78,0,.31.05-.07.05.17l-4.21,48.46-14,27.92h0l-12.39-26.41c0-4,0-9.93,0-9.91s-10.37-1.74-12.49-15.28c-1.12-6.78-.72-16.29-.12-25.31h0Z"/>
    <path class="cls-10" d="M128.41,157.81c0,.94.73,1.72,1.67,1.76.92.07,1.72-.61,1.8-1.53v-.03c0-.94-.73-1.72-1.67-1.76-.92-.07-1.72.61-1.8,1.53v.03Z"/>
    <path class="cls-10" d="M124.63,152.01c.21.23,1.53-.74,3.4-.73s3.23.94,3.43.71-.12-.51-.71-.94c-.81-.56-1.77-.86-2.75-.86s-1.92.3-2.71.87c-.55.44-.75.85-.66.95h0Z"/>
    <path class="cls-10" d="M144.07,157.81c0,.94.73,1.72,1.67,1.76.91.07,1.71-.61,1.79-1.52v-.04c.02-.94-.73-1.73-1.67-1.76-.91-.07-1.71.61-1.79,1.52v.04Z"/>
    <path class="cls-10" d="M142.38,152.01c.22.23,1.54-.74,3.4-.73s3.24.94,3.44.71-.12-.51-.71-.94c-.81-.56-1.77-.86-2.75-.86s-1.92.3-2.71.87c-.57.44-.77.85-.67.95h0Z"/>
    <path class="cls-10" d="M136.55,166.68c-.97-.31-1.98-.5-3-.56-.47-.05-.93-.14-1-.47-.05-.49.06-.99.32-1.41l1.42-3.63c2-5.16,3.39-9.41,3.18-9.49s-2,4.05-3.94,9.21l-1.36,3.65c-.3.58-.39,1.24-.25,1.87.14.34.42.6.78.7.26.07.54.11.81.12,1.01.13,2.03.13,3.04,0h0Z"/>
    <path class="cls-2" d="M153.16,182.44s-4.41,9.3-17.95,8v-3.18c6.31.09,12.53-1.58,17.95-4.82Z"/>
    <path class="cls-10" d="M142.97,145.26c.18.51,2,.27,4.24.54s4,.87,4.25.42c.13-.22-.17-.7-.89-1.19-1.93-1.22-4.32-1.49-6.47-.73-.8.32-1.21.72-1.13.96Z"/>
    <path class="cls-10" d="M125.26,146.3c.32.42,1.61,0,3.16,0s2.85.29,3.16-.15c.13-.22-.08-.64-.65-1.05-1.57-.99-3.58-.93-5.09.15-.55.37-.73.84-.58,1.05h0Z"/>
    <path class="cls-10" d="M126.29,134.35c.97-2.03,3.01-3.33,5.26-3.37,2.21,0,4.38.63,6.24,1.82,8.06,4.66,12.2,15.91,20.17,20.73,2,1.18,4.51.1,6.17,1.67s2.75,4.08,1.83,6.17c1.14-1.42,2.07-2.99,2.76-4.67.69-1.71.61-3.63-.22-5.27-.69-1.2-1.91-2.11-2.24-3.45-.3-1.17.17-2.4.12-3.62-.14-1.23-.57-2.41-1.24-3.45-3.12-5.52-7.41-10.51-12.94-13.61-3.61-2.09-7.71-3.15-11.88-3.07-4.18.1-8.19,1.69-11.3,4.49-1.78,1.66-3.65,3.37-2.73,5.63"/>
    <path class="cls-11" d="M163.94,156.88c.14-.39,7.2-2.94,7.29,4.56.09,7.29-7.26,5.86-7.28,5.65s0-10.21,0-10.21h0Z"/>
    <path class="cls-2" d="M166.18,164.31s.12.08.34.18c.32.14.68.14,1,0,.95-.62,1.5-1.7,1.43-2.83,0-.63-.12-1.25-.38-1.82-.13-.49-.51-.87-1-1-.3-.08-.62.07-.75.35-.09.21,0,.35-.08.37s-.16-.12-.1-.43c.04-.18.14-.34.28-.46.2-.15.45-.22.7-.19.61.12,1.11.54,1.34,1.12.31.62.47,1.31.46,2,0,1.47-.78,2.85-1.83,3.16-.39.12-.82.05-1.16-.18-.24-.1-.28-.26-.25-.27h0Z"/>
    <path class="cls-5" d="M166.84,153.13c-.16-.06-.3-.15-.44-.25-.28-.17-.71-.41-1.22-.77-1.44-1.05-2.76-2.25-3.94-3.58-1.72-1.99-3.33-4.08-4.81-6.26-1.79-2.66-3.79-5.17-6-7.49-1.18-1.16-2.48-2.19-3.88-3.07-1.32-.8-2.72-1.43-4.19-1.9-2.49-.8-5.12-1.12-7.73-.95-1.76.1-3.5.44-5.17,1-.6.18-1,.38-1.35.5-.15.07-.32.13-.48.17.14-.09.29-.17.45-.23.43-.21.88-.4,1.34-.56,1.67-.62,3.43-1,5.21-1.12,2.64-.21,5.3.09,7.83.89,1.5.46,2.93,1.11,4.27,1.92,1.43.89,2.75,1.93,3.94,3.11,2.21,2.34,4.22,4.87,6,7.55,1.47,2.17,3.05,4.26,4.74,6.27,1.15,1.33,2.44,2.55,3.83,3.63.5.38.92.63,1.18.83l.42.31h0Z"/>
    <path class="cls-10" d="M165,155.19c.12,2,.21,4.1-.71,5.87s-3.24,3-5,2c-1.41-.81-1.84-2.62-2.07-4.23-.7-4.64-1-9.33-1.74-14l9.52,10.36h0Z"/>
    <path class="cls-2" d="M141.14,170.23c1.21,1.59.9,3.85-.68,5.06-.34.26-.72.46-1.13.58-.44.15-.92.15-1.36,0-.72-.4-1.24-1.08-1.44-1.88l-.76-1.89c-.11-.2-.14-.44-.07-.66.14-.2.37-.33.61-.36l4.68-1.13"/>
    <path class="cls-10" d="M138.08,175.62c.72.1,1.45,0,2.12-.27.79-.26,1.45-.79,1.86-1.51.24-.44.34-.95.29-1.45-.03-.52-.16-1.03-.37-1.5-.21-.46-.51-.87-.88-1.21l-.12-.12-.16.06c-3.1,1.09-5.52,1.64-5.5,1.78,1.95-.13,3.86-.55,5.68-1.26l-.28-.06c.31.3.57.66.75,1.05.41.77.47,1.68.16,2.49-.34.63-.9,1.12-1.56,1.38-1.18.5-2.02.56-1.99.62h0Z"/>
    <path class="cls-5" d="M128.09,130.88s.64-.12,1.81-.16c1.65-.03,3.29.27,4.82.88,1.05.41,2.06.93,3,1.56,1.09.72,2.13,1.52,3.12,2.38,2.29,1.94,4.34,4.15,6.11,6.58.92,1.3,1.74,2.64,2.63,3.88.84,1.2,1.82,2.31,2.92,3.28,1.89,1.6,3.96,2.98,6.16,4.12,1.87,1,3.43,1.68,4.5,2.16l1.25.53c.15.07.3.12.45.16-.13-.1-.26-.18-.41-.24l-1.22-.6c-1.05-.52-2.59-1.25-4.43-2.26-2.16-1.16-4.19-2.55-6.05-4.15-1.07-.96-2.02-2.05-2.84-3.24-.87-1.22-1.69-2.56-2.63-3.88-1.78-2.46-3.86-4.68-6.19-6.63-1.01-.86-2.07-1.65-3.18-2.38-.98-.62-2.02-1.14-3.11-1.54-1.57-.6-3.25-.86-4.93-.77-.45.03-.91.09-1.35.19-.15.03-.29.07-.43.13h0Z"/>
    <path class="cls-5" d="M165.21,150.69c.19.17.41.32.64.43l1.85,1.09.62.36c.25.14.52.23.8.26.17.02.35-.03.49-.12.16-.11.26-.29.27-.48-.02-.33-.13-.66-.34-.92l-2.15-3.43-.28.27c1.44,1.07,3.21,1.59,5,1.47.22,0,.45-.04.66-.11.25-.07.46-.25.56-.49.09-.25.04-.53-.12-.74-.12-.17-.26-.32-.41-.46-.97-.93-1.8-1.98-2.49-3.13-.61-1.08-1.13-2.2-1.57-3.35.02.34.1.68.23,1,.27.88.64,1.72,1.09,2.52.67,1.19,1.5,2.28,2.47,3.25.27.26.54.56.44.79s-.5.34-.88.34c-.83.05-1.67-.05-2.47-.3-.8-.23-1.55-.6-2.23-1.09l-.87-.64.59.9,2.18,3.41c.17.2.28.45.31.71,0,.21-.18.33-.42.31-.47-.1-.91-.28-1.31-.54l-1.9-1c-.24-.13-.5-.24-.76-.31h0Z"/>
    <polygon class="cls-10" points="75.57 401.63 69.55 440.81 76.43 440.81 88.06 401.63 75.57 401.63"/>
    <polygon class="cls-10" points="225.14 401.63 231.17 440.81 224.28 440.81 212.65 401.63 225.14 401.63"/>
    <path class="cls-5" d="M44.26,297.71c.64,18.36,1.79,95.66,17.78,110.51h13c5.18,0,4.89-2.45,4.7-7.62l-3.78-101.18c-.07-1.95-.77-3.83-2-5.34-2.61-3.22-7.84-8.19-15-7.71-3.88.18-7.64,1.43-10.87,3.6-2.51,1.76-3.96,4.68-3.83,7.74h0Z"/>
    <polygon class="cls-5" points="224.24 409.35 75.04 408.22 75.04 362.12 224.24 362.12 224.24 409.35"/>
    <polygon class="cls-5" points="223.65 362.12 74.18 363.35 74.18 335.69 224.24 332.88 223.65 362.12"/>
    <path class="cls-5" d="M47.08,292.53s1.11-38.38,43.35-40.37,104.93,0,104.93,0c0,0,53.07-2,54.3,31.44l-10.55,64.08H75.27s-28.19-55.15-28.19-55.15Z"/>
    <path class="cls-5" d="M255.93,301.79c-1.12,26.46-3.56,104.05-22,107.56h-13.64l4.22-113.35s6.35-11.06,16.92-10.35h.32c8.3.69,14.56,7.82,14.18,16.14h0Z"/>
    <path class="cls-10" d="M248.39,287.26l-.5-.12-1.43-.39-1-.29-1.3-.2c-.46-.06-1-.15-1.5-.21h-1.73c-2.96.03-5.87.75-8.49,2.12l-.58.29-.56.34-1.14.72c-.77.55-1.5,1.14-2.2,1.77-1.53,1.35-2.88,2.9-4,4.61v-.08c-.55,11.71-1.24,26.51-2,42.56-.88,19.54-1.51,37.23-1.86,50l-.37,15.24c0,1.77-.08,3.16-.1,4.12v-4.12c0-3.59.11-8.77.25-15.18.28-12.82.86-30.52,1.74-50.06.71-16.06,1.47-30.86,2.07-42.55h0v-.07c1.14-1.73,2.5-3.3,4.06-4.66.72-.63,1.46-1.23,2.24-1.78l1.16-.72.57-.35.59-.29c2.66-1.37,5.62-2.08,8.61-2.07l1.74.06c.54.06,1.05.16,1.52.23l1.29.22,1.05.31,1.42.44c.29.04.45.11.45.11h0Z"/>
    <path class="cls-10" d="M47.08,291.29c.15-.06.3-.12.45-.16l1.32-.43,1-.32c.36-.11.76-.17,1.2-.27l1.4-.3c.5-.12,1-.13,1.62-.21,2.78-.35,5.6-.16,8.31.55,3.58.92,6.84,2.81,9.41,5.47.01.03.01.05,0,.08h0c.6,11.51,1.27,26.28,1.82,42.34.65,19,1,36.21,1.2,48.67.07,6.22.13,11.25.17,14.76v5.36-1.36c0-.94-.06-2.29-.1-4-.07-3.5-.17-8.54-.3-14.75-.26-12.46-.67-29.67-1.32-48.67-.55-16.06-1.19-30.82-1.73-42.33v.09c-2.53-2.63-5.74-4.51-9.27-5.43-2.68-.72-5.47-.93-8.22-.62-.57.07-1.12.08-1.61.19l-1.4.28c-.44.09-.84.14-1.2.25l-1,.29-1.33.38c-.26.11-.42.14-.42.14h0Z"/>
    <path class="cls-10" d="M75.27,363.23h11.33l30.91.07c26.1.1,62.16.38,102-.19h1.65l-.21.2c.14-4.73.28-9.4.42-14,.07-2.31.14-4.59.21-6.86,0-1.13.07-2.26.1-3.38v-1.67c-.02-.53-.17-1.05-.43-1.51-.54-.96-1.46-1.64-2.53-1.87-.55-.09-1.1-.13-1.66-.1h-8.49l-13.11.09-45.31.46c-12.89.13-23.31.19-30.51.2h-8.29l8.29-.06,30.51-.32,45.31-.56,13.11-.1h8.49c.59-.04,1.18,0,1.76.1,1.16.22,2.17.9,2.81,1.89.29.52.45,1.09.48,1.68v1.7c0,1.12-.07,2.25-.1,3.39-.07,2.26-.14,4.55-.21,6.85-.13,4.6-.27,9.27-.42,14,0,.11-.09.2-.2.2h-1.65c-39.82.57-75.88.24-102,.07l-30.91-.2-8.4-.06h-2.19c-.51,0-.76-.02-.76-.02h0Z"/>
    <g class="cls-16">
      <path class="cls-3" d="M74.18,363.35c34.25,7.42,50.55,6.87,82.39,7.41,28.58.49,60-4.66,64.56-7.72l-146.95.31Z"/>
    </g>
    <path class="cls-8" d="M92.73,241.14c-.13-.66,2.58-17.61,7.55-29.29,1.83-4.27,3.15-7.25,5-9.09,1.82-1.76,3.92-3.2,6.21-4.27l23.48-5.29s-1.62,8.28,13.74,7.28c11.45-.74,13.42-9.08,13.42-9.08,0,0,22.7,2.55,28.19,7.59s10.8,34.41,10.8,34.41l-21.33,6.22-2.54,31.09,7.09,15.46s-21.33,16.06-36,15.3-40.2-9.26-40.2-9.26l9.36-19.71-6-29.3-18.77-2.06h0Z"/>
    <path class="cls-10" d="M105.63,217.75c.12.32.21.66.26,1l.57,2.86c.48,2.42,1.17,5.75,2,9.41.83,3.66,1.72,7,2.36,9.34l.75,2.82c.11.33.18.66.23,1-.16-.32-.29-.65-.38-1-.23-.65-.53-1.6-.88-2.78-.71-2.37-1.62-5.66-2.48-9.33s-1.5-7-1.91-9.45c-.2-1.21-.35-2.2-.44-2.89-.06-.32-.08-.65-.08-.98h0Z"/>
    <path class="cls-10" d="M181.42,212.48c.43-.05.22,6.3-.27,14-.25,3.88-.52,7.39-.74,9.92-.11,1.21-.21,2.22-.28,3-.02.37-.08.74-.17,1.1-.03-.37-.03-.74,0-1.11,0-.79.09-1.8.15-3,.16-2.62.38-6.09.62-9.92s.44-7.3.6-9.92c.15-1.35.18-2.71.09-4.07h0Z"/>
    <path class="cls-10" d="M164.05,269.62c-.4.23-.81.43-1.23.6-.4.18-.9.39-1.48.61s-1.25.5-2,.74c-1.75.6-3.52,1.1-5.32,1.52-2.21.49-4.45.86-6.7,1.09-2.25.21-4.52.29-6.78.24-1.85-.05-3.69-.2-5.52-.45-.78-.09-1.48-.23-2.1-.33s-1.15-.22-1.58-.32c-.45-.08-.89-.2-1.32-.35.46.04.91.1,1.36.19.43.08,1,.17,1.58.25s1.31.2,2.09.27c1.56.18,3.43.31,5.5.36,2.25.03,4.49-.06,6.73-.27,2.23-.23,4.45-.58,6.65-1.05,2-.45,3.83-.94,5.32-1.43.75-.22,1.42-.47,2-.67s1.09-.39,1.5-.55c.42-.19.85-.34,1.3-.45h0Z"/>
    <path class="cls-10" d="M154.31,199.03l2.65,32.3c.1,1.1-.7,2.08-1.8,2.18h0l-19.92,2.11c-1.1.13-2.09-.66-2.22-1.75v-.02l-3.91-33.75c-.14-1.1.64-2.1,1.73-2.23.07,0,.14,0,.22-.02l21.18-.68c1.08-.05,2.01.78,2.08,1.86h0Z"/>
    <path class="cls-11" d="M145.21,216.23c.54,0,12.34,2.14,12.34,2.14l15.42,8.84,8.31,12.5-8.1,15.12-4.15-12.21c-2.41.1-4.83.05-7.24-.15-3.6-.35-15-1.22-15-1.22l-5.87-3.26s-1.89-3.08-1.89-3.94c-.04-.74.53-1.37,1.27-1.41.28-.01.56.06.79.21,1.2.69,9.42.86,11.48,0,0,0-12-.86-13.54-2.83s-1-3.5.86-3.5,8.74,1,10.79.85,4.63-.17,5.14-1.2-1-1.88-1-1.88l-2.19-1.73s-8.74-1.54-9.26-3.42c-.4-1.14.19-2.39,1.33-2.8.16-.06.33-.1.51-.11h0Z"/>
    <path class="cls-11" d="M141.2,215.62s-10,1.62-10.65,2.26-13.25,16.09-13.25,16.09l6.44,12.65,11.28-6.12c1.15-.51,2.36-.9,3.59-1.16,0,0,11.39-1.79,12.13-3.16s.31-1.69-.53-1.9-7.66.56-9.18.84c-1.51.15-3.02.15-4.53,0,0,0,4.73-1.1,5.8-1.48s11.66-2.74,11.49-4.64-1.48-2.59-8.12-.79c-3.64,1.04-7.4,1.64-11.18,1.8l14.66-5.12s5.91-1.9,4-3.59-14.55,1.8-14.55,1.8l-5.59,2.11,1.58-3.38s7.95-2.36,9-3.15c1.26-1,1.44-1.9.49-2.71s-2.88-.35-2.88-.35h0Z"/>
    <path class="cls-11" d="M93.84,241.26l17.09,1.75,2.41-3.1,4-5.94,6.4,12.65s-2.34,7.52-3.59,11.67c-3.36,11.13-8.83,23.58-15.55,23-8.06-.75-14-10.31-13.83-16.5.13-5.66,3.07-23.53,3.07-23.53Z"/>
    <path class="cls-11" d="M199.23,234.09l-14.23,3.61-4.37.92-4-5.94-6.44,12.66s2.34,7.52,3.59,11.68c3.36,11.12,8.83,23.58,15.55,22.95,8.06-.75,14-10.31,13.82-16.5-.05-5.6-3.92-29.38-3.92-29.38h0Z"/>
    <path class="cls-2" d="M117.3,233.97s.11-.16.34-.45l1-1.29,4-4.94,6.32-7.74.95-1.15.51-.58c.22-.17.48-.29.75-.36,1-.3,2-.52,3.13-.74,2.17-.44,4.46-.85,6.87-1.25h0c.61-.14,1.24-.17,1.86-.09.33.04.64.15.93.32.28.19.52.44.69.74.17.31.21.67.11,1-.12.32-.31.62-.56.86-.23.25-.5.47-.79.64-.3.16-.6.3-.91.42-2.48,1-5.12,1.78-7.85,2.61l.11-.09-1.58,3.37-.23-.25,5.59-2.11h0c2.39-.64,4.86-1.22,7.41-1.69,1.29-.24,2.6-.42,3.91-.53.67-.06,1.33-.06,2,0,.34.03.68.11,1,.24.37.15.65.46.77.84.08.4-.05.81-.34,1.1-.24.26-.51.49-.81.69-.59.38-1.2.72-1.84,1-1.28.53-2.6.93-3.9,1.4l-7.94,2.77-4.31,1.51-.07-.4c3.5-.16,6.97-.69,10.36-1.59,1.64-.46,3.31-.84,5-1.12.85-.15,1.72-.15,2.57,0,.46.09.87.33,1.16.7.25.38.39.83.39,1.29-.02.26-.14.5-.33.67-.15.16-.32.3-.5.42-.35.23-.71.43-1.09.61-.75.35-1.51.63-2.27.9-1.52.53-3,1-4.54,1.37l-2.24.59c-.72.19-1.45.45-2.18.62-1.46.37-2.89.72-4.3,1.05v-.35c1.66.2,3.34.17,5-.07,1.62-.24,3.21-.41,4.76-.56.77-.08,1.54-.14,2.3-.19h1.13c.2-.01.4-.01.6,0,.19.04.38.1.55.19.21.1.36.27.43.49.06.21.06.42,0,.63-.05.18-.12.36-.2.53l-.12.24c-.05.1-.12.18-.21.25-.61.41-1.29.71-2,.88-2.5.7-5.04,1.27-7.6,1.7l-1.74.3c-.55.08-1.1.19-1.64.33-1.02.23-2,.59-2.93,1.07l-8.15,4.34-2.15,1.14-.56.29-.19.09s0-.05.17-.12.32-.17.55-.31l2.18-1.18,8.11-4.46c2.01-.93,4.16-1.53,6.37-1.76,2.55-.44,5.07-1.01,7.55-1.72.66-.18,1.29-.46,1.86-.83.05-.05.1-.11.14-.17l.12-.23c.07-.15.13-.32.18-.48.09-.34,0-.63-.26-.76-.15-.08-.32-.14-.49-.17-.17-.02-.35-.02-.52,0h-1.11c-.76.05-1.52.12-2.29.19-1.54.16-3.13.34-4.74.58-1.66.24-3.34.27-5,.08-.1-.02-.16-.12-.13-.22.02-.07.07-.12.13-.13h0c1.4-.33,2.84-.68,4.28-1.06.74-.17,1.43-.42,2.19-.62l2.23-.6c1.49-.4,3-.84,4.51-1.36.75-.27,1.51-.55,2.23-.89.35-.17.68-.36,1-.58.3-.22.65-.51.65-.78,0-.35-.12-.7-.31-1-.23-.29-.56-.49-.93-.55-.8-.14-1.63-.14-2.43,0-1.69.28-3.35.66-5,1.12-3.42.91-6.93,1.45-10.46,1.61-.11,0-.2-.09-.21-.2,0-.09.06-.16.14-.19h0l4.31-1.5,7.94-2.77c1.31-.48,2.63-.87,3.87-1.4.62-.25,1.21-.56,1.77-.92.27-.17.52-.38.74-.61.2-.19.3-.47.26-.74-.17-.53-.83-.74-1.47-.79-.65-.05-1.3-.05-1.95,0-1.3.1-2.58.28-3.86.52-2.53.46-5,1-7.38,1.67h0l-5.59,2.1c-.09.04-.2,0-.24-.1h0c-.02-.06-.02-.1,0-.15.55-1.17,1.09-2.33,1.59-3.38.02-.04.06-.08.11-.09,2.72-.83,5.37-1.63,7.82-2.58.3-.12.59-.25.88-.4.26-.16.5-.35.71-.58.48-.35.65-.98.41-1.52-.3-.5-.81-.83-1.39-.89-.58-.08-1.17-.05-1.74.07h0c-2.41.4-4.7.8-6.86,1.22-1.08.22-2.13.44-3.11.73-.23.05-.45.15-.65.28l-.49.57-1,1.14-6.39,7.69-4,4.88-1.06,1.27-.37.41h0Z"/>
    <path class="cls-2" d="M118.34,233.56c.11.09-4.6,6.39-10.52,14.08s-10.82,13.85-10.93,13.77,4.59-6.39,10.52-14.09,10.81-13.85,10.93-13.76h0Z"/>
    <path class="cls-2" d="M195.82,261.41c-.09,0-.68-1.43-1.91-3.65-1.64-2.88-3.46-5.65-5.47-8.28-2.32-3.12-4.53-5.86-6.06-7.9-.77-1-1.37-1.86-1.77-2.45-.23-.29-.43-.61-.58-.95.28.24.53.52.74.83l1.9,2.34c1.6,2,3.86,4.69,6.19,7.82,2.03,2.66,3.82,5.49,5.37,8.45.47.9.89,1.82,1.25,2.77.15.33.27.67.34,1.02h0Z"/>
    <polygon class="cls-11" points="95.02 397.42 90.2 381.93 115.18 374.61 119.32 391.93 95.02 397.42"/>
    <path class="cls-4" d="M118.09,390.25l5.37,25.46,5.1,7.74c1.94,2.93-.81,3.95-3.75,5.88l-35.82,23.63s-4.06-2.48-2.16-5.35,14.64-27.13,14.64-27.13l-6.45-23.13,23.07-7.1h0Z"/>
    <path class="cls-4" d="M119.44,387.62l1,6.42c.12.98-.49,1.89-1.44,2.16l-21.8,5.59c-.96.25-1.95-.27-2.3-1.2l-2.18-5.92c-.37-1,.14-2.11,1.14-2.48.06-.02.12-.04.18-.06l23-6.09c1.03-.27,2.09.34,2.36,1.38.02.07.03.14.04.2h0Z"/>
    <path class="cls-10" d="M96.34,402.09c1.16-.05,2.32-.21,3.46-.46,2.12-.36,5-.94,8.24-1.74s6-1.72,8.06-2.45c1-.36,1.83-.68,2.38-.91.3-.1.58-.24.84-.42-1.13.27-2.25.6-3.34,1-2,.64-4.9,1.48-8.07,2.28s-6.08,1.44-8.18,1.9c-1.15.19-2.28.46-3.39.8h0Z"/>
    <path class="cls-10" d="M116,396.56c.77-3.45-.37-7.04-3-9.4.91,1.4,1.68,2.9,2.27,4.46.42,1.62.66,3.27.73,4.94Z"/>
    <path class="cls-10" d="M108.25,399.62c-.3-3.63-1.15-7.18-2.53-10.55.26,1.79.64,3.56,1.15,5.3.34,1.78.8,3.53,1.38,5.25Z"/>
    <path class="cls-10" d="M99.3,400.97c-1.57-3.12-1.82-6.75-.71-10.06-.34.4-.59.88-.71,1.39-.4,1.21-.56,2.48-.47,3.75.1,1.27.44,2.5,1,3.64.19.49.5.93.89,1.28h0Z"/>
    <path class="cls-10" d="M122.08,430.83c.08,0-.3-.77-.64-2-.93-3.33-.32-6.9,1.67-9.73.74-1.08,1.34-1.64,1.28-1.71-.63.38-1.17.89-1.59,1.49-2.24,2.84-2.89,6.63-1.72,10.06.19.69.54,1.34,1,1.89Z"/>
    <path class="cls-10" d="M99.57,445.99c-.05-.55-.23-1.08-.53-1.54-.64-1.17-1.6-2.13-2.77-2.77-1.17-.61-2.45-.98-3.77-1.07-.54-.09-1.08-.07-1.61.07.51.16,1.04.27,1.57.31,1.24.19,2.44.58,3.55,1.16,1.09.6,2.02,1.46,2.71,2.5.52.8.76,1.37.85,1.34Z"/>
    <path class="cls-10" d="M143.33,306.62s-43.14-18.9-51.87-19.57c-13.6-1-21.94,4.7-21.36,23.58s17.81,83,17.81,83l33.54-5.22s-2.48-22.89-6.29-40.44c-3.3-15.23-1.78-12.84-1.78-12.84h0l41.36-.81-11.41-27.7h0Z"/>
    <path class="cls-5" d="M104.97,302.62c.29.35.55.74.77,1.14.29.45.56.93.8,1.41l.46.9c.15.32.3.67.46,1,1.58,3.83,2.71,7.82,3.38,11.91.87,4.76,1.37,9.1,1.78,12.24.19,1.51.35,2.76.47,3.71.08.46.12.92.13,1.38-.13-.44-.23-.89-.29-1.35-.16-.87-.37-2.14-.61-3.7-.49-3.13-1-7.46-1.9-12.21-.67-4.05-1.76-8.03-3.24-11.86l-.43-1-.43-.91c-.27-.56-.49-1.05-.72-1.43-.24-.39-.45-.81-.63-1.23Z"/>
    <path class="cls-10" d="M233.92,274.92c-11.84-8.39-32.07-2.7-35.67,0s-27.27,19.93-27.87,20.38-66.62-1.88-66.62-1.88l55.39,45.93c17.55-.24,22-2.6,29.23-6.46,0,0,14.35-8,16.27-8.81,1.49-.64,28.67-14.1,31.51-19s9.59-21.77-2.24-30.16h0Z"/>
    <path class="cls-4" d="M162.89,316.62l-20.19,16-8.78,2.66c-3.33,1-1.88,3.52-.87,6.86l12.32,40.64s4.66.68,5-2.7,6-29.92,6-29.92l19.59-13.54-13.07-20h0Z"/>
    <path class="cls-10" d="M162.89,316.62s.08.1.23.32l.67,1,2.61,3.92c2.28,3.46,5.58,8.45,9.69,14.66l.08.13-.13.08-19.52,13.56.08-.12-3.58,17.24c-.62,3-1.25,6.13-1.84,9.3-.15.79-.29,1.59-.43,2.39-.06.4-.1.78-.18,1.21-.03.22-.09.43-.18.63l-.13.3-.18.28c-.54.7-1.32,1.18-2.19,1.34-.84.17-1.7.21-2.55.11h-.14v-.14c0-.13-.08-.27-.13-.42-3.34-11-6.53-21.58-9.43-31.18-.73-2.4-1.43-4.73-2.12-7-.35-1.13-.67-2.26-1-3.35-.43-1.08-.69-2.21-.77-3.37,0-.61.25-1.19.7-1.6.45-.36.96-.63,1.51-.79l3-.91,5.73-1.73h-.05l14.86-11.66,4-3.14,1-.8.36-.26-.36.3-1.05.85-4,3.22-14.68,11.73h0l-5.72,1.75-3,.93c-.5.14-.96.38-1.36.71-.38.35-.59.84-.59,1.36.09,1.11.35,2.2.77,3.23.37,1.1.7,2.23,1.05,3.36.67,2.28,1.38,4.61,2.13,7,2.92,9.6,6.11,20.13,9.47,31.18,0,.14.09.29.13.42l-.18-.15c.8.09,1.6.06,2.39-.11.77-.13,1.46-.54,1.93-1.16.37-.69.58-1.46.61-2.24.13-.81.27-1.61.43-2.4.59-3.17,1.23-6.27,1.84-9.31,1.27-6.05,2.49-11.83,3.62-17.23v-.08h.07l19.57-13.49v.21l-9.49-14.68c-1.11-1.72-2-3.06-2.56-4l-.67-1c-.25-.32-.32-.4-.32-.4h0Z"/>
    <path class="cls-4" d="M163.49,313.74l-4.79,4.27c-.73.66-.85,1.76-.28,2.56l13.07,18c.57.8,1.66,1.03,2.51.54l5.4-3.12c.91-.53,1.23-1.69.7-2.61-.03-.06-.07-.11-.1-.16l-13.67-19.2c-.63-.85-1.83-1.04-2.68-.41-.05.04-.11.08-.16.13Z"/>
    <path class="cls-10" d="M171.95,339.34c-.85-.78-1.63-1.63-2.34-2.54-1.39-1.62-3.25-3.91-5.17-6.54s-3.51-5.12-4.59-7c-.54-.92-1-1.67-1.23-2.2-.17-.26-.3-.55-.38-.85.71.91,1.35,1.86,1.93,2.86,1.15,1.78,2.79,4.22,4.7,6.84s3.71,4.94,5,6.62c.76.88,1.46,1.82,2.08,2.81h0Z"/>
    <path class="cls-10" d="M160.48,322.69c.71-1.57,1.9-2.88,3.4-3.74,1.41-1.01,3.1-1.55,4.83-1.53-3.24.82-6.13,2.67-8.23,5.27Z"/>
    <path class="cls-10" d="M164.44,329.93c1.2-1.35,2.56-2.54,4.06-3.54,1.39-1.14,2.91-2.11,4.54-2.89-1.33,1.2-2.74,2.31-4.23,3.31-1.38,1.14-2.84,2.18-4.37,3.12h0Z"/>
    <path class="cls-10" d="M170.41,336.62c1.52-.76,2.93-1.74,4.17-2.91,1.12-1.29,2.04-2.74,2.73-4.3,0,.52-.11,1.04-.34,1.51-.45,1.17-1.13,2.24-2,3.15s-1.91,1.64-3.06,2.15c-.46.26-.97.39-1.5.4Z"/>
    <path class="cls-10" d="M134.18,344.93c0-.08.72-.4,1.78-1.14,2.81-1.95,4.6-5.05,4.88-8.46.12-1.3,0-2.11.1-2.12.25.68.34,1.42.27,2.14-.09,3.59-1.99,6.88-5.05,8.75-.59.42-1.27.7-1.98.83h0Z"/>
    <path class="cls-10" d="M141.73,370.71c.38-.38.85-.67,1.37-.83,1.23-.49,2.57-.61,3.86-.36,1.28.27,2.48.81,3.54,1.57.81.58,1.23,1,1.19,1.07-.49-.2-.95-.45-1.38-.76-1.07-.63-2.24-1.09-3.45-1.36-1.21-.24-2.46-.17-3.64.19-.48.2-.98.37-1.49.48h0Z"/>
    <path class="cls-5" d="M209.36,276.96h-.56c-.53.1-1.05.22-1.56.38-1.35.38-3.28,1-5.65,1.88-1.17.42-2.51.89-3.88,1.31-1.35.78-2.56,1.77-3.59,2.93-2.4,2.3-5,4.84-7.74,7.55-5.45,5.4-10.24,10.44-13.59,14.18-1.68,1.86-3,3.4-3.94,4.46-.43.51-.79.92-1.06,1.23-.11.15-.24.29-.39.41.1-.16.21-.32.33-.46l1-1.28c.89-1.09,2.19-2.66,3.84-4.55,3.31-3.8,8.07-8.87,13.52-14.28,2.72-2.71,5.35-5.25,7.76-7.54,1.07-1.19,2.33-2.21,3.73-3,1.45-.44,2.72-.87,3.92-1.28,2.38-.8,4.33-1.41,5.7-1.76.52-.14,1.05-.24,1.59-.3.14-.02.29-.02.43,0,.1.1.14.11.14.12h0Z"/>
    <path class="cls-5" d="M144.02,322.13c-.22-.41-.41-.84-.55-1.28-.16-.42-.36-.92-.63-1.5s-.54-1.24-.93-1.94-.77-1.49-1.27-2.28-1-1.64-1.63-2.51c-1.33-1.86-2.82-3.6-4.44-5.21-1.64-1.59-3.41-3.05-5.29-4.35-.89-.57-1.71-1.13-2.54-1.58s-1.59-.87-2.3-1.22-1.38-.64-2-.89c-.5-.23-1-.43-1.52-.61-.44-.14-.87-.31-1.29-.52.46.08.91.21,1.35.37.52.15,1.04.33,1.54.54.68.24,1.35.52,2,.83.73.34,1.52.72,2.34,1.19s1.69,1,2.59,1.57c1.91,1.3,3.71,2.76,5.37,4.36,1.63,1.63,3.13,3.4,4.46,5.29.59.89,1.17,1.73,1.62,2.56s.88,1.6,1.23,2.32.63,1.4.87,2c.22.5.41,1.02.57,1.54.18.43.33.87.45,1.32h0Z"/>
  </g>
</svg>