<?xml version="1.0" encoding="utf-8"?>
<!-- Generator: Adobe Illustrator 14.0.0, SVG Export Plug-In . SVG Version: 6.00 Build 43363)  -->
<!DOCTYPE svg PUBLIC "-//W3C//DTD SVG 1.1//EN" "http://www.w3.org/Graphics/SVG/1.1/DTD/svg11.dtd">
<svg version="1.1" id="Layer_1" xmlns="http://www.w3.org/2000/svg" xmlns:xlink="http://www.w3.org/1999/xlink" x="0px" y="0px"
	 width="183px" height="77px" viewBox="0 0 183 77" enable-background="new 0 0 183 77" xml:space="preserve">
<g>
	<g>
		<path fill="#FAA31B" d="M101.8,11.673c0.144,0.121,6.194,3.445,6.88,3.727c0.685,0.283,3.296,1.245,4.007,1.501
			c0.71,0.255,3.931,1.362,4.531,1.539c0.602,0.174,4.284,1.987,4.284,1.987c0.868-1.157,1.555-2.485,1.994-3.953
			c1.98-6.628-1.792-13.607-8.419-15.586c-6.628-1.979-13.607,1.789-15.588,8.418c-0.169,0.571-0.296,1.145-0.382,1.716
			C99.107,11.023,100.882,10.909,101.8,11.673"/>
	</g>
	<g>
		<defs>
			<path id="SVGID_1_" d="M85.157,7.174c0,0-1.362,0.353-2.156,0.573c-0.792,0.22-1.758,1.099-2.111,2.024
				c-0.352,0.923-1.539,2.023-2.462,3.298c-0.924,1.276-1.497,2.596-1.892,2.596c-0.396,0-1.849,0.396-2.552,0.88
				c-0.704,0.484-1.742,0.308-3.063,1.891c-1.319,1.584-3.183,3.828-3.667,3.872s-2.904,0.264-3.343,0.44
				c-0.44,0.175-1.319,1.715-2.553,2.727c-1.231,1.012-1.143,1.408-1.319,1.496c-0.176,0.088-1.848,0.44-2.639,1.189
				c-0.792,0.747-1.892,0.483-3.651,0.616c-1.762,0.13-3.563,0.836-4.268,1.143c-0.704,0.309-5.852,3.432-7.435,4.795
				c-1.584,1.363-2.816,2.684-4.268,3.477c-1.451,0.792-2.728,0.877-4.839,1.274c-2.112,0.396-2.2,1.057-3.475,1.583
				c-1.276,0.528-3.74,0.221-5.279,0.221c-1.541,0-4.003-0.088-5.367,0.308c-1.364,0.396-2.947,0.837-4.971,0.88
				c-2.024,0.042-4.091,0.396-5.851,0.66c-1.76,0.264-0.792,1.784-0.792,1.784l74.113,0.029c0,0-0.389-2.722,2.165-5.445
				c2.553-2.728,4.958-2.706,4.958-2.706l0.021,8.152l93.693,0.033c0,0-3.56-1.803-4.747-2.199c-1.189-0.395-4.312-1.1-5.717-1.584
				c-1.409-0.483-8.58-1.82-10.252-2.964s-8.315-2.227-9.369-2.36c-1.057-0.132-5.677-2.418-7.392-3.168
				c-1.716-0.746-4.574-4.177-5.19-4.441c-0.326-0.138-0.979,0.077-1.585,0.292c-0.543,0.193-1.044,0.386-1.231,0.323
				c-0.395-0.13-0.967-1.361-1.494-2.506c-0.529-1.144-2.155-3.036-3.212-3.036s-2.42-0.263-3.257-0.527
				c-0.835-0.265-4.707-1.525-6.025-1.525c-1.32,0-4.005-1.335-4.663-1.731c-0.66-0.395-3.52-1.54-5.193-1.979
				c-1.669-0.439-4.882-1.804-5.234-2.023c-0.351-0.22-6.245-3.476-7.214-3.696c-0.968-0.22-2.331-0.305-3.3-0.438
				c-0.965-0.131-0.967,0.13-1.583-0.617c-0.614-0.749-4.883-2.113-5.455-2.64c-0.572-0.528-1.451-1.188-2.243-1.188
				C87.006,6.955,85.157,7.174,85.157,7.174"/>
		</defs>
		<clipPath id="SVGID_2_">
			<use xlink:href="#SVGID_1_"  overflow="visible"/>
		</clipPath>
		
			<linearGradient id="SVGID_3_" gradientUnits="userSpaceOnUse" x1="-191.7915" y1="251.0791" x2="-190.9476" y2="251.0791" gradientTransform="matrix(0 34.8816 34.8816 0 -8663.8184 6696.7095)">
			<stop  offset="0" style="stop-color:#1EA4DE"/>
			<stop  offset="1" style="stop-color:#286EB7"/>
		</linearGradient>
		<rect x="6.238" y="6.955" clip-path="url(#SVGID_2_)" fill="url(#SVGID_3_)" width="175.917" height="38.008"/>
	</g>
	<g>
		<path fill="#286EB7" d="M132.934,24.067c0,0-1.586,1.144-1.234,2.112c0.354,0.967,0.969,2.727,1.146,3.518
			c0.177,0.793,0.177,2.025,0.177,2.904c0,0.881,0.35,2.113,0.615,2.201c0.263,0.088,1.671-1.232,1.849-2.375
			c0.174-1.145,1.23-2.553,1.23-2.553s0.217-0.742-0.09-0.931c-0.307-0.19-0.791-1.444-1.055-1.708
			c-0.264-0.264-0.264-0.968-0.528-1.232c-0.262-0.264-0.515-0.805-0.757-1.091c-0.24-0.286-0.598-0.651-0.859-0.827
			C133.161,23.909,132.934,24.067,132.934,24.067"/>
		<path fill="#286EB7" d="M103.862,18.728c0.133-0.528,1.821-0.905,1.812-0.759s1.67-0.085,1.67-0.085s0.94-0.182,1.459,0.097
			c0.52,0.278,1.082,0.659,1.344,0.382c0.262-0.276,0.247-0.766,0.823,0.104c0.579,0.87,0.752,1.223,1.117,1.59
			c0.368,0.366-0.329,0.565,0.841,0.593c1.173,0.03,0.868-0.529,0.868-0.529s-0.326-1,1.184-0.166
			c1.51,0.833,1.922,1.251,2.886,2.196c0.965,0.944,2.645,2.181,3.184,3.635c0.539,1.453,0.165,2.65,0.241,2.998
			c0.075,0.347,0.395,1.394,1.345,1.847c0.946,0.455,2.075,0.384,2.391,1.529c0.315,1.145,1.694,3.242,0.311,3.443
			c-1.383,0.202-4.253-0.037-5.646-0.423s-5.087-5.132-5.551-5.504c-0.463-0.37-3.254-0.359-3.863-1.477
			c-0.611-1.116-4.44-1.615-5.413-2.461c-0.969-0.847-1.508-1.568-1.521-2.106s0.022-4.009,0.022-4.009L103.862,18.728z"/>
		<path fill="#286EB7" d="M96.147,17.167c1.428,0,2.459-0.057,2.743-0.057c0.287,0,0.802,0.514,0.802,1.086
			c0,0.571-1.086,1.601-1.202,2.23c-0.113,0.628-0.171,1.258,0.458,3.259c0.63,2.002-1.259-1.029-1.83-1.544
			c-0.572-0.513-0.572-1.714-0.857-2.287C95.975,19.283,96.147,17.167,96.147,17.167"/>
		<path fill="#286EB7" d="M52.833,34.982c3.265-1.274,6.686-3.025,7.164-4.378c0.478-1.353,2.388-2.865,2.707-2.626
			c0.318,0.239,0.318,0.875,1.273,1.113c0.955,0.239,1.195,0.239,2.946-0.558c1.751-0.794,3.025-1.113,4.616-1.113
			c1.593,0,3.742,0.239,4.697,0.08c0.956-0.16,1.035-1.592,2.707-1.513c1.672,0.081,2.389,0.558,1.752,1.195
			c-0.636,0.637-3.98,3.183-4.855,3.74c-0.876,0.558-4.855,2.389-6.049,3.025c-1.194,0.637-4.776,0.319-5.812-0.397
			c-1.035-0.716-7.959,2.945-7.959,2.945l-3.901,1.434L52.833,34.982z"/>
		<path fill="#286EB7" d="M63.817,22.746c-0.232,0.132-1.409,1.677-1.409,1.677s0.853,0.749,0.915,0.995
			c0.062,0.247,0.092,0.431,0.092,0.431s0.491,0.369,1.075-0.155c0.583-0.521,1.842-1.166,1.903-1.288
			c0.062-0.124,1.29-0.37,1.75-0.492c0.46-0.122,1.118-1.465,1.443-1.681c0.327-0.217,0.952-0.499,1.167-0.805
			c0.215-0.308,0.215-1.782,0.215-1.904c0-0.124-0.031-1.118-0.031-1.118l-1.631,1.884l-1.009,1.169c0,0-0.67,0.672-0.897,0.792
			c-0.228,0.119-1.579,0.194-1.989,0.22C65,22.496,64.049,22.615,63.817,22.746"/>
		<path fill="#286EB7" d="M73.654,16.789c0.029,0.085-0.132,0.477-0.217,0.673c-0.083,0.197-0.45,0.758-0.477,0.927
			c-0.029,0.167-0.224,1.123-0.224,1.347c0,0.224,0.113,0.673,0.113,0.673l0.673-0.87l0.729-1.123c0,0,0.112-0.365,0.363-0.393
			c0.253-0.029,1.059-0.531,1.993-0.943c0.934-0.414,0.969-2.681,0.969-2.681l-0.944,1.239c0,0-0.438,0.046-0.696,0.116
			c-0.26,0.069-1.06,0.298-1.467,0.497C74.06,16.45,73.654,16.789,73.654,16.789"/>
		<path fill="#286EB7" d="M78.002,13.715c0,0,0.812-1.28,1.23-1.772c0.42-0.492,0.686-0.877,0.985-1.175
			c0.297-0.3,0.721-1.295,1.1-1.816c0.379-0.521,1.262-1.156,1.536-1.211c0.273-0.055,1.992-0.464,1.992-0.464
			s-1.335,1.66-1.39,2.016c-0.054,0.355-0.929,1.12-0.929,1.12l-0.683,0.876c0,0-0.056,1.885-0.027,2.022
			c0.027,0.137-0.739,1.175-1.285,1.366c-0.548,0.192-1.613,0.465-1.859,0.629C78.425,15.47,78.002,13.715,78.002,13.715"/>
		<path fill="#286EB7" d="M79.565,16.819c0,0,0.758-0.575,0.963-0.462c0.203,0.11,0.333,0.407,0.353,0.555
			c0.018,0.148,0.315,1.222,0.351,1.296c0.038,0.074,0.352-0.87,0.297-1.074c-0.056-0.205-0.056-0.963-0.056-1.073
			c0-0.112,0.036-0.649-0.297-0.595c-0.333,0.056-0.667,0.242-1.055,0.372c-0.39,0.13-0.685,0.74-0.685,0.74l-0.039,0.296
			L79.565,16.819z"/>
		<polygon fill="#183F6F" points="31.206,54.55 26.07,46.501 32.777,46.501 35.188,51.406 37.745,46.501 43.951,46.501 
			38.814,54.488 44.286,62.894 37.452,62.894 34.728,57.799 32.023,62.894 25.63,62.894 		"/>
		<path fill="#183F6F" d="M54.158,71.319h-0.021V46.501h4.572v2.768c0.168-0.238,0.368-0.476,0.598-0.714
			c0.231-0.238,0.47-0.462,0.714-0.67c0.246-0.211,0.489-0.398,0.735-0.566c0.244-0.167,0.472-0.308,0.682-0.42
			c0.979-0.502,2.051-0.754,3.211-0.754c2.366,0,4.22,0.805,5.563,2.41c1.329,1.608,1.995,3.759,1.995,6.457
			c0,2.514-0.666,4.526-1.995,6.037c-0.673,0.781-1.447,1.349-2.321,1.697c-0.875,0.349-1.873,0.546-2.992,0.587
			c-0.196,0.014-0.385,0.018-0.567,0.01c-0.181-0.007-0.364-0.023-0.546-0.051h-0.02h-0.084l-0.314-0.063
			c-0.029,0-0.05-0.003-0.064-0.011c-0.013-0.008-0.034-0.01-0.063-0.01c-0.196-0.057-0.392-0.115-0.587-0.18
			c-0.196-0.062-0.4-0.143-0.609-0.239c-0.253-0.113-0.509-0.259-0.767-0.44c-0.259-0.182-0.515-0.386-0.766-0.609
			c-0.043-0.027-0.088-0.065-0.137-0.114s-0.094-0.096-0.137-0.137c-0.056-0.042-0.109-0.088-0.158-0.137
			c-0.049-0.048-0.102-0.101-0.157-0.156c-0.042-0.042-0.084-0.087-0.127-0.137c-0.041-0.049-0.083-0.102-0.125-0.157
			c-0.07-0.068-0.131-0.136-0.179-0.198c-0.049-0.063-0.107-0.13-0.178-0.199v4.569c0,0.502-0.094,1.009-0.282,1.521
			c-0.188,0.509-0.435,0.994-0.742,1.456c-0.306,0.462-0.646,0.892-1.022,1.289c-0.375,0.398-0.755,0.744-1.138,1.037
			c-0.382,0.293-0.747,0.524-1.096,0.692C54.687,71.235,54.396,71.319,54.158,71.319 M60.429,51.364
			c-0.728,0.838-1.092,1.907-1.092,3.207c0,0.782,0.091,1.468,0.273,2.055c0.168,0.489,0.42,0.956,0.757,1.403
			c0.644,0.896,1.562,1.342,2.753,1.342c1.136,0,2.04-0.404,2.712-1.216c0.673-0.81,1.01-1.894,1.01-3.249
			c0-1.467-0.33-2.621-0.989-3.458c-0.659-0.881-1.562-1.321-2.711-1.321C62.047,50.127,61.144,50.54,60.429,51.364"/>
		<path fill="#183F6F" d="M82.29,44.343c0-0.504,0.094-1.011,0.283-1.521c0.189-0.509,0.437-0.995,0.744-1.457
			c0.307-0.461,0.649-0.89,1.027-1.288c0.377-0.398,0.759-0.744,1.142-1.038c0.385-0.294,0.751-0.523,1.102-0.692
			c0.349-0.168,0.642-0.25,0.881-0.25v24.798H82.29V44.343z"/>
		<path fill="#183F6F" d="M114.739,54.718c0,2.585-0.79,4.653-2.368,6.205c-1.551,1.551-3.627,2.326-6.226,2.326
			s-4.683-0.775-6.248-2.326c-1.578-1.552-2.368-3.62-2.368-6.205c0-2.599,0.79-4.675,2.368-6.226
			c0.797-0.796,1.713-1.401,2.746-1.813c1.035-0.411,2.201-0.617,3.502-0.617c1.298,0,2.462,0.206,3.488,0.617
			c1.028,0.412,1.939,1.018,2.737,1.813C113.949,50.043,114.739,52.119,114.739,54.718 M109.814,54.718
			c0-1.523-0.315-2.704-0.944-3.542c-0.644-0.853-1.552-1.279-2.725-1.279c-1.176,0-2.09,0.427-2.748,1.279
			c-0.627,0.838-0.942,2.019-0.942,3.542c0,1.48,0.322,2.648,0.965,3.501c0.657,0.867,1.565,1.298,2.726,1.298
			c1.173,0,2.075-0.431,2.704-1.298C109.492,57.366,109.814,56.198,109.814,54.718"/>
		<path fill="#183F6F" d="M135.975,50.965c-0.994-0.278-1.862-0.352-2.611-0.219c-0.747,0.133-1.373,0.43-1.877,0.89
			c-0.502,0.462-0.883,1.066-1.141,1.813c-0.261,0.748-0.389,1.603-0.389,2.567v6.877h-5.136v-10c0-0.697,0.151-1.418,0.45-2.159
			c0.301-0.739,0.703-1.428,1.205-2.064c0.503-0.635,1.083-1.174,1.741-1.613c0.655-0.439,1.343-0.702,2.054-0.786
			c0.867-0.083,1.686-0.148,2.453-0.188c0.336-0.015,0.671-0.025,1.007-0.032c0.336-0.006,0.659,0,0.974,0.021
			c0.315,0.021,0.604,0.051,0.869,0.095c0.267,0.042,0.484,0.097,0.65,0.167L135.975,50.965z"/>
		<path fill="#183F6F" d="M150.962,56.269l-0.022-0.022c0.223,0.959,0.559,1.684,1.007,2.168c0.796,0.834,2.006,1.25,3.625,1.25
			c1.063,0,2.063-0.15,2.998-0.452c0.994-0.303,1.656-0.556,1.993-0.763v3.878c-0.363,0.154-0.752,0.282-1.164,0.388
			c-0.412,0.104-0.842,0.199-1.289,0.284c-0.908,0.168-1.914,0.25-3.02,0.25c-2.753,0-4.91-0.761-6.477-2.284
			c-0.797-0.754-1.385-1.663-1.761-2.725c-0.377-1.063-0.565-2.272-0.565-3.628v-0.188v-0.146v-0.084v-0.546v-0.041v-0.734
			c0-0.461,0.065-0.95,0.198-1.467c0.134-0.517,0.321-1.028,0.567-1.53c0.244-0.504,0.537-0.986,0.88-1.446
			c0.341-0.463,0.721-0.867,1.131-1.217c0.413-0.349,0.856-0.628,1.333-0.837c0.472-0.211,0.964-0.314,1.466-0.314h2.243h2.159
			c0.755,0,1.435,0.153,2.045,0.461c0.606,0.307,1.127,0.712,1.561,1.215c0.433,0.504,0.77,1.08,1.006,1.729
			c0.236,0.651,0.357,1.318,0.357,2.003v2.684c0,0.266,0.004,0.53,0.009,0.796c0.007,0.266,0.01,0.537,0.01,0.818v0.397h-10.29
			V56.269z M151.485,53.02h4.947h0.69l0.336,0.021c-0.014-1.145-0.3-2.02-0.858-2.62c-0.545-0.587-1.328-0.88-2.348-0.88
			c-1.077,0-1.931,0.455-2.559,1.362c-0.378,0.532-0.636,1.236-0.775,2.117H151.485z"/>
		<path fill="#183F6F" d="M182.447,50.965c-0.993-0.278-1.863-0.352-2.61-0.219c-0.748,0.133-1.372,0.43-1.876,0.89
			c-0.504,0.462-0.884,1.066-1.143,1.813c-0.259,0.748-0.387,1.603-0.387,2.567v6.877h-5.137v-10c0-0.697,0.15-1.418,0.45-2.159
			c0.302-0.739,0.702-1.428,1.206-2.064c0.503-0.635,1.082-1.174,1.739-1.613s1.342-0.702,2.054-0.786
			c0.866-0.083,1.685-0.148,2.454-0.188c0.334-0.015,0.671-0.025,1.006-0.032c0.335-0.006,0.66,0,0.975,0.021
			c0.314,0.021,0.604,0.051,0.87,0.095c0.265,0.042,0.482,0.097,0.649,0.167L182.447,50.965z"/>
		<path fill="#636464" d="M75.529,76.651v-0.525c-0.439,0.438-1.077,0.658-1.916,0.658c-0.891,0-1.614-0.319-2.168-0.957
			c-0.554-0.639-0.832-1.49-0.832-2.555c0-1.068,0.32-1.979,0.958-2.736c0.639-0.755,1.398-1.134,2.282-1.134
			c0.735,0,1.293,0.173,1.675,0.519v-3.306h1.264v10.036H75.529z M75.529,71.185c-0.319-0.478-0.756-0.718-1.311-0.718
			c-0.677,0-1.227,0.252-1.645,0.758c-0.419,0.505-0.629,1.148-0.629,1.929c0,1.716,0.78,2.573,2.341,2.573
			c0.2,0,0.438-0.063,0.718-0.188c0.279-0.127,0.456-0.261,0.525-0.403V71.185z"/>
		<polygon fill="#636464" points="81.169,76.791 80.836,76.791 77.784,69.515 79.167,69.515 81.049,74.504 82.971,69.515 
			84.294,69.515 		"/>
		<path fill="#636464" d="M91.271,73.22h-5.134c0,0.835,0.229,1.476,0.685,1.922c0.404,0.391,0.923,0.585,1.557,0.585
			c0.723,0,1.325-0.21,1.809-0.631l0.531,0.911c-0.195,0.195-0.493,0.363-0.898,0.505c-0.505,0.187-1.067,0.279-1.688,0.279
			c-0.897,0-1.656-0.303-2.282-0.912c-0.696-0.669-1.044-1.568-1.044-2.7c0-1.174,0.357-2.116,1.07-2.825
			c0.639-0.634,1.396-0.951,2.268-0.951c1.015,0,1.813,0.285,2.386,0.857c0.559,0.55,0.839,1.278,0.839,2.188
			C91.371,72.728,91.338,72.985,91.271,73.22 M88.206,70.467c-0.563,0-1.036,0.182-1.417,0.545c-0.363,0.346-0.569,0.775-0.618,1.29
			h3.944c0-0.51-0.16-0.935-0.479-1.277C89.285,70.652,88.809,70.467,88.206,70.467"/>
		<path fill="#636464" d="M97.083,76.658v-4.144c0-0.758-0.113-1.288-0.341-1.593c-0.229-0.304-0.611-0.455-1.147-0.455
			c-0.29,0-0.591,0.087-0.906,0.259c-0.314,0.173-0.555,0.387-0.724,0.64v5.293H92.7v-7.124h0.866l0.398,0.919
			c0.417-0.7,1.097-1.051,2.041-1.051c1.562,0,2.342,0.949,2.342,2.848v4.408H97.083z"/>
		<path fill="#636464" d="M100.594,70.533H99.77v-0.999h0.824v-1.488l1.265-0.485v1.974h1.956v0.999h-1.956v3.537
			c0,0.599,0.102,1.025,0.304,1.277c0.2,0.254,0.524,0.379,0.974,0.379c0.324,0,0.658-0.082,1.005-0.244l0.185,1.11
			c-0.521,0.132-1.097,0.198-1.722,0.198c-0.563,0-1.039-0.209-1.426-0.629c-0.39-0.418-0.584-0.947-0.584-1.586V70.533z"/>
		<path fill="#636464" d="M106.741,69.534v4.543c0,1.1,0.475,1.649,1.43,1.649c0.416,0,0.798-0.118,1.143-0.358
			c0.347-0.239,0.576-0.516,0.686-0.831v-5.003h1.263v7.124h-1.263v-0.983c-0.142,0.279-0.426,0.535-0.855,0.767
			c-0.427,0.233-0.845,0.35-1.253,0.35c-0.781,0-1.377-0.225-1.793-0.671c-0.414-0.448-0.62-1.084-0.62-1.909v-4.677H106.741z"/>
		<path fill="#636464" d="M116.855,70.752c-0.276-0.19-0.552-0.285-0.831-0.285c-0.448,0-0.839,0.206-1.173,0.618
			c-0.334,0.413-0.504,0.909-0.504,1.489v4.084h-1.262v-7.124h1.262v1.139c0.461-0.848,1.146-1.271,2.056-1.271
			c0.227,0,0.552,0.039,0.978,0.119L116.855,70.752z"/>
		<path fill="#636464" d="M124.278,73.22h-5.135c0,0.835,0.228,1.476,0.684,1.922c0.405,0.391,0.924,0.585,1.557,0.585
			c0.723,0,1.327-0.21,1.81-0.631l0.531,0.911c-0.194,0.195-0.494,0.363-0.896,0.505c-0.507,0.187-1.068,0.279-1.689,0.279
			c-0.896,0-1.656-0.303-2.281-0.912c-0.697-0.669-1.045-1.568-1.045-2.7c0-1.174,0.358-2.116,1.071-2.825
			c0.638-0.634,1.396-0.951,2.268-0.951c1.017,0,1.811,0.285,2.388,0.857c0.559,0.55,0.838,1.278,0.838,2.188
			C124.377,72.728,124.345,72.985,124.278,73.22 M121.212,70.467c-0.563,0-1.036,0.182-1.416,0.545
			c-0.364,0.346-0.571,0.775-0.619,1.29h3.943c0-0.51-0.159-0.935-0.479-1.277C122.291,70.652,121.814,70.467,121.212,70.467"/>
		<path fill="#636464" d="M131.24,72.907v3.751h-1.33v-9.743c1.006-0.043,1.614-0.067,1.822-0.067c2.829,0,4.242,0.948,4.242,2.84
			c0,2.192-1.249,3.286-3.75,3.286C132.073,72.974,131.747,72.951,131.24,72.907 M131.24,68.112v3.598
			c0.564,0.044,0.861,0.066,0.892,0.066c1.648,0,2.473-0.649,2.473-1.948c0-1.188-0.88-1.782-2.64-1.782
			C131.788,68.046,131.546,68.067,131.24,68.112"/>
		<polygon fill="#636464" points="139.972,76.791 139.641,76.791 136.587,69.515 137.97,69.515 139.852,74.504 141.774,69.515 
			143.099,69.515 		"/>
		<path fill="#636464" d="M144.527,70.533h-0.824v-0.999h0.824v-1.488l1.264-0.485v1.974h1.955v0.999h-1.955v3.537
			c0,0.599,0.104,1.025,0.304,1.277c0.203,0.254,0.524,0.379,0.974,0.379c0.326,0,0.659-0.082,1.004-0.244l0.187,1.11
			c-0.522,0.132-1.098,0.198-1.723,0.198c-0.563,0-1.037-0.209-1.425-0.629c-0.389-0.418-0.584-0.947-0.584-1.586V70.533z"/>
		<path fill="#636464" d="M150.934,74.79c0.274,0,0.508,0.097,0.704,0.292c0.194,0.195,0.292,0.43,0.292,0.704
			c0,0.275-0.098,0.512-0.292,0.709c-0.196,0.196-0.43,0.296-0.704,0.296c-0.276,0-0.513-0.1-0.706-0.296
			c-0.195-0.197-0.292-0.434-0.292-0.709c0-0.274,0.097-0.509,0.292-0.704C150.421,74.887,150.657,74.79,150.934,74.79"/>
		<polygon fill="#636464" points="158.681,76.658 158.681,66.915 160.01,66.915 160.01,75.461 164.413,75.461 164.413,76.658 		"/>
		<path fill="#636464" d="M165.929,70.533h-0.823v-0.999h0.823v-1.488l1.265-0.485v1.974h1.956v0.999h-1.956v3.537
			c0,0.599,0.102,1.025,0.303,1.277c0.203,0.254,0.525,0.379,0.974,0.379c0.323,0,0.659-0.082,1.004-0.244l0.188,1.11
			c-0.523,0.132-1.099,0.198-1.723,0.198c-0.564,0-1.037-0.209-1.426-0.629c-0.389-0.418-0.584-0.947-0.584-1.586V70.533z"/>
		<path fill="#636464" d="M175.395,76.651v-0.525c-0.44,0.438-1.078,0.658-1.917,0.658c-0.892,0-1.614-0.319-2.167-0.957
			c-0.556-0.639-0.831-1.49-0.831-2.555c0-1.068,0.317-1.979,0.957-2.736c0.637-0.755,1.398-1.134,2.279-1.134
			c0.735,0,1.296,0.173,1.679,0.519v-3.306h1.262v10.036H175.395z M175.395,71.185c-0.32-0.478-0.758-0.718-1.312-0.718
			c-0.678,0-1.226,0.252-1.646,0.758c-0.419,0.505-0.629,1.148-0.629,1.929c0,1.716,0.78,2.573,2.341,2.573
			c0.2,0,0.439-0.063,0.719-0.188c0.279-0.127,0.455-0.261,0.526-0.403V71.185z"/>
		<path fill="#636464" d="M179.922,74.79c0.276,0,0.51,0.097,0.706,0.292c0.194,0.195,0.292,0.43,0.292,0.704
			c0,0.275-0.098,0.512-0.292,0.709c-0.196,0.196-0.43,0.296-0.706,0.296c-0.275,0-0.51-0.1-0.703-0.296
			c-0.197-0.197-0.294-0.434-0.294-0.709c0-0.274,0.097-0.509,0.294-0.704C179.412,74.887,179.646,74.79,179.922,74.79"/>
		<path fill="#636464" d="M65.36,66.687c0.112-0.019,0.252-0.033,0.421-0.043c0.168-0.01,0.311-0.015,0.427-0.015
			c0.118,0,0.259,0.005,0.424,0.015c0.166,0.01,0.295,0.027,0.389,0.051l3.307,9.9c-0.108,0.067-0.238,0.116-0.389,0.146
			c-0.151,0.028-0.308,0.043-0.468,0.043c-0.234,0-0.415-0.054-0.541-0.161c-0.128-0.105-0.239-0.313-0.337-0.614l-1.676-5.261
			c-0.137-0.419-0.274-0.863-0.414-1.336c-0.14-0.47-0.256-0.89-0.354-1.262h-0.073c-0.049,0.215-0.107,0.448-0.175,0.698
			c-0.069,0.252-0.137,0.496-0.203,0.733c-0.065,0.237-0.126,0.438-0.179,0.603l-2.085,6.512c-0.087,0.02-0.188,0.034-0.3,0.045
			c-0.112,0.01-0.222,0.014-0.329,0.014c-0.133,0-0.259-0.009-0.381-0.028c-0.122-0.021-0.233-0.045-0.336-0.073l-0.037-0.074
			L65.36,66.687z M65.112,74.23c-0.034,0-0.125-0.002-0.27-0.004c-0.147-0.003-0.293-0.005-0.439-0.007
			c-0.147-0.002-0.242-0.003-0.285-0.003h-0.658l0.453-1.2h0.578c0.043,0,0.129-0.001,0.256-0.003
			c0.126-0.003,0.253-0.006,0.38-0.008c0.126-0.002,0.215-0.004,0.264-0.004h1.499c0.045,0,0.13,0.002,0.257,0.004
			c0.127,0.002,0.257,0.005,0.392,0.008c0.134,0.002,0.224,0.003,0.267,0.003h0.6l0.388,1.2h-0.658c-0.044,0-0.14,0.001-0.29,0.003
			c-0.148,0.002-0.295,0.004-0.442,0.007c-0.146,0.002-0.242,0.004-0.286,0.004H65.112z"/>
		<path d="M159.847,24.465c-0.166-0.427-0.636-0.629-0.733-1.06c-0.118-0.511,0.103-1.117-0.084-1.794
			c0.239-0.227,0.822-0.104,0.898-0.49c-0.144-0.835-0.637-2.025-1.06-2.854c-0.385-0.134-0.543-0.488-0.733-0.816
			c0.134-0.274,0.469-0.381,0.488-0.733c0.021-0.354-0.325-1.707-0.651-1.633c-0.326,0.078-1.307-0.714-1.957-0.733
			c-0.543-0.015-0.469,0.13-1.063,0.326c0.098,0.013-0.339,0.313-0.324,0.407c-0.403-0.081-1.122,0.192-1.224,0.328
			c-0.102,0.135-0.201,0.714-0.408,1.223c0.131,0.224,0.28,0.427,0.245,0.815c-0.695,0.446-0.627,0.646-0.571,1.469
			c-0.322-0.032-0.374-0.333-0.572-0.491c-0.157,0.409,0.431,0.49,0.247,0.652c-0.263-0.072-0.169,0.214-0.327,0.247
			c-0.269-0.337-0.581-0.23-0.98-0.326c0.417-0.168-0.096-0.044-0.161-0.246c-0.252-0.705,0.249-1.783,0-2.527
			c-0.579-1.729-3.831-1.869-4.077,0.407c-0.464,0.137-1.105,0.09-1.224,0.573c0.106,0.571,0.831,0.526,1.386,0.65
			c-0.07,0.203-0.106,0.438-0.082,0.736c0.764-0.006,0.796,0.724,0.981,1.303c0.245,0.188,0.739,0.129,1.059,0.245
			c0.316,0.651,0.396,2.063,0,2.772c0.239,0.738,0.185,1.772,0.407,2.528c-0.911,0.648-2.495-0.33-3.751-0.163
			c-0.543-0.569-0.549-1.678-1.794-1.549c0.008,0.291,0.3,0.299,0.245,0.652h-0.571c-0.068,0.343,0.221,0.323,0.326,0.491
			c-0.842,0.265,0.016,1.69,0.488,1.631c0.391,4.667,0.468,9.645,0.491,14.679c-0.475,1.112-1.93,0.281-2.693,0.488
			c0.028,0.543,0.329,0.411,0.082,0.898c0.752,0.731,1.969,0.794,2.854,1.224c0.053,1.054,0.125,2.06-0.243,2.854
			c0.319-0.087,0.798-0.018,1.06-0.163c-0.496-0.453-0.601-1.736-0.407-2.609c0.491,0.068,0.265,0.29,0.487,0.49
			c0.16-0.053,0.292,0.108,0.397,0.001c0.772-0.783,0.25-2.858,1.068-3.589v-0.653c1.104-1.961,0.751-4.892,3.101-5.546
			c1.529,2.603,3.169,5.26,4.813,7.748c-0.506-1.514-1.502-2.715-2.284-3.999c-0.802-1.313-1.554-2.65-2.366-3.995
			c0.452-0.039,0.342-0.638,0.9-0.569c0.213,0.926,1.293,0.988,1.14,2.285c0.246,0.324,0.4,0.739,0.734,0.976
			c-0.402,0.747,0.743,0.944,0.49,1.548c0.12,0.099,0.332,0.103,0.407,0.245c0.308,1.051,0.771,1.949,1.223,2.854
			c-0.254,1.295-0.259,3.329-2.364,3.018c-1.055,1.672,1.933,1.474,3.734,1.147c0.279,0.499,0.862,0.124,1.077-0.005
			c0.082-0.897-0.127-1.742,0.163-2.529c-0.192-2.24-1.811-4.537-2.366-7.013c-0.384-1.715-1.396-4.035-0.408-5.219
			c0.038-0.373-0.084-0.897,0.082-1.143c1.516,0.022,2.422-0.569,3.587-0.895c0.151,0.573-0.265,1.39,0.084,1.63
			c0.262-0.372,0.304-1.326,0.162-2.039c0.448-0.758,0.813-2.053,0.491-3.099c0.12-0.014,0.299,0.029,0.324-0.083
			C159.659,25.181,159.993,24.844,159.847,24.465 M146.554,34.009c-0.144,0.276-0.866,4.11-1.306,5.626
			c-0.369-4.145-0.345-8.68-0.487-13.049c0.465,0.051,0.097,0.934,0.73,0.815c0.39,0.033,0.204-0.505,0.409-0.653
			c0.864,0.271-0.156,0.518-0.243,0.979c0.153,0.5,0.516,1.222,1.058,1.061c0.246,0.055-0.077,0.174,0,0.324
			c0.099,0.096,0.289,0.093,0.491,0.083c0.396,0.965,1.064,1.654,1.468,2.61C147.856,32.863,146.696,33.729,146.554,34.009
			 M148.755,30.989c-0.341-0.879-1.256-1.626-1.305-2.529c-0.071-0.119-0.123-0.258-0.324-0.244
			c0.253-0.371,0.952-0.553,1.305-0.164c0.356-0.103,0.63-0.291,0.569-0.815c0.379,0.762,0.822,1.463,1.062,2.365
			C149.692,30.132,149.445,30.783,148.755,30.989 M150.306,24.627c0.354-1.155-0.401-1.655-0.244-2.854
			C149.974,22.461,151.035,23.817,150.306,24.627 M153.813,21.69c-0.045-0.684-1.203-1.862-1.795-1.956
			c-0.751-0.119-1.353,0.586-1.795,0.897C150.759,18.949,153.917,19.608,153.813,21.69 M154.789,25.771
			c-0.07,0.516-0.006-0.044-0.082-0.491c-0.058-0.365-0.19-0.828-0.243-1.305C154.795,24.207,154.854,25.289,154.789,25.771"/>
		<path fill="#183F6F" d="M8.342,58.168c-0.946,0-1.796,0.022-2.551,0.069c-0.13,0.007-0.231,0.015-0.326,0.021v-0.032
			c0-0.513,0.007-0.972,0.02-1.38c0.013-0.406,0.02-0.853,0.02-1.339v-3.51c0.429,0.004,0.858,0.009,1.271,0.014
			c0.583,0.006,1.04,0.01,1.369,0.01h6.205c0.118-0.381,0.207-0.798,0.267-1.251c0.058-0.452,0.088-0.851,0.088-1.192
			c0-0.327-0.03-0.726-0.088-1.19c-0.06-0.467-0.148-0.884-0.267-1.252H8.146c-0.329,0-0.786,0.004-1.369,0.009
			c-0.413,0.006-0.842,0.014-1.271,0.021v-3.123c0-0.538-0.007-1.018-0.02-1.438c-0.012-0.404-0.019-0.874-0.02-1.399
			c0.442,0.004,0.886,0.011,1.311,0.021c0.583,0.012,1.04,0.02,1.369,0.02h8.233c0.016-0.047,0.032-0.134,0.046-0.253
			c0.319-2.553-1.726-4.791-4.298-4.791H5.466h-1.25H0.61l-0.276,0.276v23.206c0,1.091,0.306,1.951,0.916,2.581
			s1.454,0.945,2.531,0.945h0.434h1.25h8.195c1.589,0,2.646-0.421,3.172-1.261s0.788-2.101,0.788-3.781H8.342z"/>
	</g>
</g>
</svg>
