<?xml version="1.0" encoding="utf-8"?>
<!-- Generator: Adobe Illustrator 26.0.1, SVG Export Plug-In . SVG Version: 6.00 Build 0)  -->
<svg version="1.1" id="Layer_1" xmlns="http://www.w3.org/2000/svg" xmlns:xlink="http://www.w3.org/1999/xlink" x="0px" y="0px"
	 viewBox="0 0 500 500" style="enable-background:new 0 0 500 500;" xml:space="preserve">
<style type="text/css">
	.st0{fill:#F5F5F5;}
	.st1{fill:#E0E0E0;}
	.st2{fill:#1585C4;}
	.st3{opacity:0.3;enable-background:new    ;}
	.st4{fill:#FFFFFF;}
	.st5{fill:#7ABDE8;}
	.st6{opacity:0.1;enable-background:new    ;}
	.st7{fill:#5095D0;}
	.st8{opacity:0.15;}
	.st9{fill:#B16668;}
	.st10{fill:#263238;}
	.st11{fill:#455A64;}
	.st12{fill:#37474F;}
	.st13{fill:#9A4A4D;}
	.st14{opacity:0.2;}
	.st15{opacity:0.6;}
	.st16{fill:#FFA8A7;}
	.st17{fill:#F28F8F;}
	.st18{opacity:0.4;enable-background:new    ;}
	.st19{opacity:0.2;enable-background:new    ;}
</style>
<g id="freepik--Floor--inject-2">
	<ellipse id="freepik--floor--inject-2" class="st0" cx="250" cy="355.2" rx="223.4" ry="121.5"/>
</g>
<g id="freepik--Shadows--inject-2">
	<ellipse id="freepik--Shadow--inject-2" class="st1" cx="250" cy="329.4" rx="33.7" ry="19.4"/>
	<ellipse id="freepik--shadow--inject-2" class="st1" cx="375.5" cy="370.1" rx="53.2" ry="30.7"/>
	
		<ellipse id="freepik--shadow--inject-2_00000031195124220359797640000016814178593056079262_" class="st1" cx="114.4" cy="373.4" rx="53.2" ry="30.7"/>
</g>
<g id="freepik--Plants--inject-2">
	<g id="freepik--plants--inject-2">
		<path class="st2" d="M455,348.3l-10-4.1c-1.3-8.7-2-17.4-2.2-26.2c0-16.4,10.2-36.5,23.2-33.1s-3.7,21.7-6.4,35.9
			S455,348.3,455,348.3z"/>
		<path class="st3" d="M455,348.3l-10-4.1c-1.3-8.7-2-17.4-2.2-26.2c0-16.4,10.2-36.5,23.2-33.1s-3.7,21.7-6.4,35.9
			S455,348.3,455,348.3z"/>
		<path class="st4" d="M450.1,347L450.1,347c0.2,0,0.4-0.2,0.4-0.5c-4.8-36,11.4-56,11.6-56.2c0.1-0.2,0.1-0.4-0.1-0.6
			s-0.4-0.1-0.6,0.1l0,0c-0.2,0.2-16.6,20.4-11.8,56.8C449.7,346.9,449.9,347,450.1,347C450.1,347,450.1,347,450.1,347z"/>
		<path class="st5" d="M460.2,350.7l-5.2-2.4c-1.6-8.1-1.3-16.4,0.7-24.4c3.4-12.9,14.6-20.9,20.2-19.6c6.9,1.6,7.6,8,5.6,12.5
			C479,322,462.4,336.3,460.2,350.7z"/>
		<path class="st6" d="M460.2,350.7l-5.2-2.4c-1.6-8.1-1.3-16.4,0.7-24.4c3.4-12.9,14.6-20.9,20.2-19.6c6.9,1.6,7.6,8,5.6,12.5
			C479,322,462.4,336.3,460.2,350.7z"/>
		<path class="st4" d="M457.4,349.8L457.4,349.8c0.2,0,0.4-0.2,0.4-0.5c-2.4-22.8,17.6-40.4,17.8-40.6c0.2-0.2,0.2-0.4,0-0.6
			c-0.2-0.2-0.4-0.2-0.6,0c0,0,0,0,0,0c-0.2,0.2-20.5,18-18.1,41.3C457,349.7,457.2,349.9,457.4,349.8z"/>
	</g>
	<g id="freepik--plants--inject-2_00000090999289842330199220000017974691840525309862_">
		<path class="st7" d="M56,339.1l6.9-3.9c0,0,3.3-18.2,0.8-33.9c-3.5-22-18.5-29.6-23.9-27.4s-6.7,8.7,3.1,21.4
			C48.7,302.8,56.2,318.6,56,339.1z"/>
		<g class="st8">
			<path d="M56,339.1l6.9-3.9c0,0,3.3-18.2,0.8-33.9c-3.5-22-18.5-29.6-23.9-27.4s-6.7,8.7,3.1,21.4C48.7,302.8,56.2,318.6,56,339.1
				z"/>
		</g>
		<path class="st4" d="M58.5,330.3L58.5,330.3c-0.3,0-0.5-0.3-0.5-0.5c0,0,0,0,0,0c2.8-20.6-5.4-43.2-14.8-52.3
			c-0.2-0.2-0.3-0.5-0.1-0.7s0.5-0.3,0.7-0.1c0,0,0.1,0.1,0.1,0.1c9.5,9.2,17.9,32.2,15,53.1C59,330.1,58.8,330.3,58.5,330.3z"/>
		<path class="st5" d="M36.9,350.1c-1.1,0.6-3.3-0.7-4.2-1.3c-1.5-1-2.7-2.4-3.5-4c-0.9-1.8-1.2-3.9-0.9-5.9
			c0.2-1.1,0.4-2.1,0.7-3.1l0.9-3c0.3-1,0.5-2,0.4-3c-0.3-2.1-2.1-3.5-3.8-4.8c-1.9-1.4-3.8-3.2-3.8-5.7c0.1-1.9,0.9-3.8,2.2-5.2
			c1.2-1.5,2.6-2.8,3.7-4.4c0.8-1.1,1.3-2.5,1.2-3.9c-0.1-0.9-0.4-1.7-0.8-2.4c-1-1.5-1.9-3.2-2.6-4.8c-0.6-1.7-0.5-3.9,0.8-5.1
			c1.2-0.9,2.8-1.3,4.3-1.1c1.4,0.2,2.8,0.6,4,1.4c4,2.2,6.2,6.9,10.4,8.6c1.7,0.5,3.3,0.9,5.1,1.2c1.7,0.3,3.3,1.4,4.2,2.9
			c1.5,3.1-1.3,6.9-0.2,10.1c1,2.9,3.8,4,5.3,6.6c0.6,1.1,0.9,2.5,0.7,3.8c-0.1,2.2-0.7,4.4-1.6,6.4c-1,2-2.2,3.9-3.5,5.8
			C55.9,339.1,37,350,36.9,350.1z"/>
		<path class="st4" d="M48.1,344.2L48.1,344.2c-0.3,0-0.5-0.2-0.5-0.5c0,0,0,0,0,0c0.8-19.5-8.4-41-15.1-47.3
			c-0.2-0.2-0.2-0.5,0-0.7c0.2-0.2,0.5-0.2,0.7,0c6.8,6.3,16.2,28.2,15.3,48C48.5,344,48.3,344.2,48.1,344.2z"/>
		<path class="st4" d="M45.2,321.1H45c-4.6-1.3-9.4-2-14.1-2.3c-0.3,0-0.5-0.2-0.5-0.5s0.2-0.5,0.5-0.5c4.9,0.3,9.7,1,14.4,2.3
			c0.3,0.1,0.4,0.3,0.3,0.6c0,0,0,0,0,0C45.5,321,45.4,321.1,45.2,321.1z"/>
	</g>
</g>
<g id="freepik--character-2--inject-2">
	<g id="freepik--Character--inject-2">
		<polygon class="st9" points="401.8,363.8 392.5,362.7 390.1,343.9 401.5,347.3 		"/>
		<path class="st10" d="M381.4,379.1c-0.3,0.7-0.2,1.6,0.2,2.3c1,1.2,3.6,2.5,7.1,2.8c3.4,0.2,6.4-0.2,8.3-1.5
			c1.7-0.9,2.9-2.6,3.1-4.6c0.2-1.9,0-3.8,0.9-5.2s2.2-2.9,2.5-3.6c0.3-1.3,0.3-2.6,0-3.9L381.4,379.1z"/>
		<path class="st11" d="M390.6,362.4c0,0.7-0.2,1.4-0.4,2.1c-0.5,1.5-1.2,2.9-2.1,4.2c-0.4,0.7-0.9,1.4-1.4,2
			c-1,1.2-2.3,2.2-3.4,3.4c-1.1,1.1-1.9,2.5-2.1,4.1c-0.1,2.6,4.1,3.5,6.3,3.9c2.4,0.4,4.8,0.3,7.2-0.4c2.5-0.7,4.4-2.7,4.8-5.2
			c0.1-0.7,0.1-1.5,0.2-2.2c0.3-1.7,1-3.3,2-4.6c0.6-0.8,1.1-1.6,1.6-2.5c0.7-1.6,0.1-3.5-0.3-5.1c-0.4-1.4-0.8-3-1.3-2.9
			c0,0.7,0,0.8-0.5,1.3s-0.7,1.6-1.4,2.1c0.2-0.6,0.4-1.2,0.5-1.9c0-0.3,0-0.5-0.1-0.7c-0.2-0.2-0.5-0.4-0.8-0.4
			c-1-0.3-2.1-0.6-3.2-0.7c-1.5-0.2-3-0.2-4.5,0c-0.3,0.1-0.6,0.2-0.8,0.5c-0.2,0.3-0.3,0.6-0.3,0.9
			C390.6,360.6,390.6,361.7,390.6,362.4z"/>
		<path class="st0" d="M387.8,369.3c1-0.7,4.5-0.8,5.7-0.6c1.2,0.1,2.4,0.5,3.4,1.2c0.3,0.2,0.7,0.2,1-0.1l0,0c0.3-0.3,0.3-0.8,0-1
			c0,0-0.1-0.1-0.1-0.1c-1.1-0.8-2.5-1.3-3.8-1.4c-1.7-0.1-3.5,0-5.2,0.3C388.9,367.5,387.5,368.4,387.8,369.3z"/>
		<path class="st0" d="M385.5,372c1.2-0.7,5-0.6,6.2-0.5c1.2,0.1,2.3,0.6,3.3,1.3c0.3,0.2,0.7,0.2,1-0.1l0,0c0.3-0.3,0.3-0.8,0-1
			c0,0-0.1-0.1-0.1-0.1c-1.6-0.8-3.4-1.4-5.3-1.5c-3-0.2-3.7,0.4-3.7,0.4C386.3,370.7,385.8,371.3,385.5,372z"/>
		<path class="st0" d="M395.2,364.4c-1.7-0.2-3.4-0.1-5.1,0.3c-0.5,0.3-0.9,1.1-0.5,1.3c1.5-0.4,3.1-0.6,4.6-0.5
			c1.1,0.1,2.2,0.4,3.2,0.9c0.3,0.1,0.6,0.3,0.8,0.4c0.3,0.2,0.7,0.1,1-0.2c0,0,0-0.1,0-0.1l0,0c0.1-0.3,0-0.7-0.2-0.9
			C397.9,365,396.6,364.5,395.2,364.4z"/>
		<polygon class="st9" points="367.1,355.2 358.2,352.8 358.2,334.8 369.2,335.3 		"/>
		<path class="st10" d="M339.5,364.8c-0.2,0.8-0.2,1.6,0.1,2.4c0.3,0.7,3.9,2.7,8.8,2.4c3.6-0.3,7-1.5,10-3.5
			c1.8-1.2,3.8-1.5,6.2-1.6s5.5-1.3,6.1-2.5c0.3-1,0.2-2.1-0.1-3L339.5,364.8z"/>
		<path class="st11" d="M359,349.7l-0.4-0.1c-0.2,0-0.4,0-0.6,0c-0.2,0.1-0.4,0.2-0.6,0.4c-0.5,0.6-0.9,1.3-1.2,2
			c-1,1.6-3.1,3-5.5,4.3c-1.6,0.9-3.1,1.5-4.8,2.2s-3.9,1.2-5.2,2.1c-1.9,1.3-2.1,4.5,0,5.8c1.9,1.1,6.8,2.3,11.9,0.8
			c2.8-0.8,5.9-3.8,9.6-4.1c2.3-0.2,6.8-0.8,8.3-2.6c0.6-0.8-0.2-3.3-0.8-5.5c-0.7-2.4-1.3-6-2.1-5.8c0,0.3-0.1,0.7-0.4,0.9
			c-0.3,0.3-0.7,0.5-1,0.8c-0.5,0.5-1,1.2-1.3,1.9c-0.1,0.3-0.4,0.6-0.7,0.7c-0.4,0.1-0.7-0.1-1-0.3c-0.4-0.2-0.9-0.2-1.4-0.1
			c0-0.5,0.1-0.9,0.2-1.4c0-0.1,0-0.3,0-0.4c-0.1-0.1-0.2-0.3-0.3-0.3C361,350.3,360,349.9,359,349.7z"/>
		<path class="st0" d="M352.9,354.9c0.3-0.7,1-1.1,1.7-1.2c1.1-0.2,2.9,0.6,4.1,1.5c0.4,0.3,0.4,0.8,0.1,1.2
			c-0.1,0.1-0.2,0.2-0.3,0.2l0,0c-0.3,0.2-0.7,0.1-1-0.1C356.3,355.5,354.6,354.9,352.9,354.9z"/>
		<path class="st0" d="M349.6,356.8c0.5-0.7,1.2-1.1,2-1.1c1.6,0.1,3.2,0.7,4.5,1.7c0.4,0.3,0.4,0.8,0.1,1.2
			c-0.1,0.1-0.1,0.1-0.2,0.2l0,0c-0.3,0.2-0.7,0.1-1-0.1C353.6,357.3,351.6,356.6,349.6,356.8z"/>
		<path class="st0" d="M346,358.5c0.5-0.6,1.3-1,2.1-1c1.6,0.1,3.1,0.7,4.3,1.7c0.4,0.3,0.4,0.8,0.1,1.2c-0.1,0.1-0.1,0.1-0.2,0.2
			l0,0c-0.3,0.2-0.7,0.1-1-0.1C350,359,348,358.3,346,358.5z"/>
		<path class="st11" d="M399.8,238.4c0.6,18.5,0.6,58.5,0.6,58.5c0.2,2.3,0.4,6.4,0.6,14.7c0.2,12,0.8,41.6,0.8,41.6
			s-5.7,2.7-11,0.5c0,0-7.3-41.7-8.8-53.5c-1.3-10.4-3.8-34.7-3.8-34.7l-3.5,30.9c0,0,0,8-0.5,15.1c-0.4,5.5-5.7,33.8-5.7,33.8
			c-3.5,0.9-7.2,0.8-10.6-0.4c0,0-0.5-43.5-0.6-48.5c-0.1-5.7,1.4-67.8,1.4-67.8L399.8,238.4z"/>
		<path class="st12" d="M378.2,265.4l-1.3-10.5c-4.3-1.1-8.3-2.9-11.9-5.5c0,0,2.5,3.4,10,7l1.7,9.5l-1.9,30.3L378.2,265.4z"/>
		<path class="st9" d="M358.3,186.5c-2.7,3.5-16.6,22.6-16.6,22.6l-12.8-9.9c-3-2.4-3.9-5.4-5.8-7.6s-3.9-2.6-6-4.4
			s-2.9-3.1-3.6-1.6s1.6,4.2,2,4.8s2.8,2.2-0.4,2s-9.3-3.8-10.8-4.5s-1.5,1.2-0.8,2.4s0.4,4.5,1.2,6.7s2.3,3.5,5.2,4.9
			c2.7,1.4,9.4,2.2,11.5,3.6l0,0c4.7,4.9,13.7,13.9,15.9,15.6c3.1,2.3,6.1,4.4,10.9-0.1s18.5-22.6,18.5-22.6l2.9-17.1
			C364.8,181.1,361.5,182.3,358.3,186.5z"/>
		<path class="st13" d="M341.7,209.1c1.8,1.3,3.6,4.2,3.8,5.5c0-2.5-1.1-4.9-3-6.6L341.7,209.1z"/>
		<path class="st12" d="M370.6,180.9c0,0-6.6-0.1-9.5,1.9s-5,5-9.8,11.9c-4.1,6-6.1,8.9-6.1,8.9c2.7,4,6.6,7,11.2,8.6l12.3-15.3
			L370.6,180.9z"/>
		<path class="st2" d="M383.4,180.6c3.7,0.4,9,0.4,12.7,0.8c2.6,1.1,7.5,5.4,7.2,8.5c-1.4,11.5-4.2,30.4-4.2,30.4l0.9,20
			c-5.1,5.1-29.2,7.1-41.7-1.1c0,0,0.4-35.9,1.3-42c1.5-10.9,2.9-14.9,8.5-15.9S383.4,180.6,383.4,180.6z"/>
		<path class="st9" d="M404.6,186.8c2.7,3.5,16.6,22.6,16.6,22.6l12.8-9.9c3-2.4,3.9-5.4,5.8-7.6s3.9-2.6,6-4.4s2.9-3.1,3.6-1.6
			s-1.6,4.2-2,4.8s-2.8,2.2,0.4,2s9.3-3.8,10.8-4.5s1.5,1.2,0.8,2.4s-0.4,4.6-1.2,6.7s-2.3,3.5-5.2,4.9c-2.7,1.4-9.4,2.2-11.5,3.6
			l0,0c-4.7,4.9-13.7,13.9-15.9,15.6c-3.1,2.3-6.1,4.4-10.9-0.1s-15.6-18.8-15.6-18.8l-5.8-20.8C398,181.4,401.3,182.6,404.6,186.8z
			"/>
		<path class="st13" d="M421.2,209.4c-1.8,1.3-3.6,4.2-3.8,5.5c0-2.5,1.1-4.9,3-6.6L421.2,209.4z"/>
		<path class="st12" d="M392.7,181.1c0,0,5.9-0.4,9,2c2.8,2.2,5,5,9.8,11.9c4.1,6,6.1,8.9,6.1,8.9c-2.7,4-6.6,7-11.2,8.6l-8.4-10.3
			C393.6,196.5,389.3,188.1,392.7,181.1z"/>
		<path class="st10" d="M384.3,153.5c0.1,6.4-5.1,11.6-11.5,11.7c-6.4,0.1-11.6-5.1-11.7-11.5c-0.1-6.4,5.1-11.6,11.5-11.7
			C379,141.9,384.3,147.1,384.3,153.5C384.3,153.5,384.3,153.5,384.3,153.5z"/>
		<path class="st10" d="M392.8,161.7c0,0-1.8,8.9-2.5,10.3c-0.5,0.9-1.3,1.6-2.3,1.9l0.1-6.2L392.8,161.7z"/>
		<path class="st10" d="M390.4,149.1c1.3-0.2,2.7,0.3,3.6,1.2c1.6,1.6,0.7,6.5-1.1,11.4l-3.5,0.4L390.4,149.1z"/>
		<path class="st9" d="M388.2,162.1c0.7,0.4,1.7-1,2.6-1.9s3.7-2.2,5.2,0.8s-1.2,7.1-3.4,7.8c-3.9,1.3-4.5-1.2-4.5-1.2l-0.2,14.4
			l0,0c-4.8,6.2-18.1,5.8-12.6-0.7v-4.3c-1.7,0.3-3.5,0.4-5.2,0.3c-2.9-0.4-4.7-2.6-5.6-5.7c-1.4-4.9-2-8.9-0.9-18.7
			c1.2-10.7,13.6-10.9,20.4-6.8S388.2,162.1,388.2,162.1z"/>
		<path class="st10" d="M388.2,163.3c0.4,0,1.7-2.3,2.6-3.1c1.2-1.1-0.5-11.2-0.5-11.2c0.9-1.8,0.5-4-0.9-5.4
			c-1.7-1.8-4-4.1-11.6-3.1c-5.4,0.7-11.3,2.4-16.1,0.1c-0.9,3.2,0.3,6.6,2.9,8.6c0,0,1.7,1.1,6.3,1.6c4.2,0.3,8.4,0.2,12.6-0.4
			c1.3-0.2,1.6,1.1,2.4,4.6C386.5,158.1,387,163.3,388.2,163.3z"/>
		<path class="st10" d="M390.4,149.8l4.3-2.3c-0.6-1.2-2-1.7-3.1-1.1c0,0-0.1,0-0.1,0.1C390.2,147.1,389.7,148.6,390.4,149.8z"/>
		<path class="st13" d="M375.2,177.1c0,0,6.4-1.3,8.6-2.5c1.3-0.7,2.4-1.8,3-3.1c-0.3,1.3-0.9,2.5-1.7,3.6c-1.6,2.1-9.9,3.7-9.9,3.7
			L375.2,177.1z"/>
		<path class="st10" d="M374.7,161.1c0,0.7,0.6,1.3,1.3,1.3c0,0,0,0,0,0c0.7,0,1.4-0.5,1.4-1.3c0-0.7-0.5-1.4-1.3-1.4
			C375.4,159.7,374.8,160.3,374.7,161.1C374.7,161.1,374.7,161.1,374.7,161.1z"/>
		<path class="st10" d="M378.5,156.7l-2.8-1.3c-0.3,0.8,0,1.7,0.8,2.1C377.3,157.9,378.2,157.5,378.5,156.7
			C378.5,156.8,378.5,156.7,378.5,156.7z"/>
		<path class="st10" d="M366.4,155.1l-2.5,1.9c0.5,0.7,1.4,0.8,2.1,0.4c0,0,0.1,0,0.1-0.1C366.8,156.8,366.9,155.9,366.4,155.1z"/>
		<path class="st10" d="M364.9,160.8c0,0.7,0.6,1.2,1.3,1.2c0.7,0,1.2-0.6,1.2-1.3c0-0.7-0.6-1.2-1.2-1.2
			C365.4,159.5,364.9,160.1,364.9,160.8C364.9,160.8,364.9,160.8,364.9,160.8z"/>
		<polygon class="st13" points="371.5,159.8 370.8,167.4 366.8,165.9 		"/>
		<path class="st13" d="M373.7,170.3c0,0.7,0.5,1.2,1.2,1.2s1.2-0.5,1.2-1.2c0-0.7-0.5-1.2-1.2-1.2c0,0,0,0,0,0
			C374.2,169.1,373.7,169.6,373.7,170.3z"/>
	</g>
	<g id="freepik--question-marks--inject-2">
		<path class="st2" d="M404.9,88.8c1.9,0.4,3.7,1.1,5.5,2.1c1.6,0.9,3.1,2.1,4.3,3.4c1.2,1.4,2.1,3,2.6,4.7c0.5,1.8,0.6,3.8,0.1,5.6
			c-0.3,1.5-0.9,2.9-1.7,4.1c-0.8,1.1-1.7,2-2.7,2.8c-1,0.8-2.1,1.5-3.2,2.1l-3.2,1.7c-1,0.5-1.9,1.1-2.7,1.8
			c-0.8,0.6-1.4,1.4-1.7,2.3c-0.2,0.4-0.5,0.7-0.8,1c-0.3,0.3-0.8,0.4-1.2,0.2l-4.7-1c-0.5-0.1-0.9-0.4-1.1-0.8
			c-0.3-0.4-0.3-0.8-0.2-1.3c0.4-1.5,1.1-2.8,2-4c0.8-1,1.8-2,2.9-2.8c1-0.8,2.1-1.4,3.3-2c1.1-0.6,2.2-1.1,3.2-1.7
			c0.9-0.5,1.7-1,2.5-1.7c0.7-0.6,1.1-1.3,1.3-2.2c0.4-1.5-0.1-3.1-1.1-4.3c-1.3-1.4-3-2.4-4.9-2.7c-3.5-0.8-6.4,0.4-8.9,3.5
			c-0.2,0.3-0.5,0.6-0.9,0.9c-0.4,0.2-0.8,0.2-1.2,0.1l-5-1.1c-0.4-0.1-0.7-0.3-0.9-0.6c-0.2-0.3-0.3-0.7-0.2-1.1
			c0.4-1.5,1.2-2.9,2.3-4.1c1.2-1.4,2.7-2.5,4.3-3.3c1.8-0.9,3.7-1.6,5.6-1.9C400.7,88.3,402.8,88.4,404.9,88.8z M399.6,124.4
			c0.4,0.1,0.8,0.4,1.1,0.8c0.2,0.4,0.3,0.8,0.2,1.3l-1.2,5.4c-0.2,0.9-1.1,1.5-2,1.3l-5.3-1.2c-0.4-0.1-0.8-0.4-1.1-0.8
			c-0.3-0.4-0.3-0.8-0.2-1.3l1.2-5.4c0.2-0.9,1.1-1.5,2-1.3L399.6,124.4z"/>
		<path class="st7" d="M420.6,139.8c1.3-0.2,2.7-0.2,4-0.1c1.3,0.1,2.5,0.5,3.7,1.1c1.1,0.6,2.1,1.4,2.8,2.3c0.8,1,1.3,2.3,1.5,3.6
			c0.2,1,0.2,2.1,0,3.1c-0.2,0.9-0.5,1.7-1,2.5c-0.4,0.8-1,1.5-1.5,2.1l-1.6,1.9c-0.5,0.6-0.9,1.2-1.3,1.8c-0.3,0.6-0.5,1.2-0.5,1.9
			c0,0.3-0.1,0.6-0.3,0.9c-0.2,0.3-0.4,0.4-0.7,0.5l-3.3,0.5c-0.3,0-0.6,0-0.9-0.2c-0.3-0.2-0.4-0.5-0.5-0.8c-0.1-1-0.1-2.1,0.2-3.1
			c0.3-0.9,0.6-1.7,1.1-2.5c0.5-0.8,1-1.5,1.6-2.1c0.6-0.7,1.1-1.3,1.6-1.9c0.5-0.5,0.8-1.1,1.2-1.7c0.3-0.5,0.4-1.2,0.3-1.8
			c-0.2-1.1-0.8-2-1.8-2.5c-1.2-0.6-2.5-0.7-3.8-0.5c-2.4,0.4-4.3,2.2-4.8,4.5c-0.1,0.3-0.2,0.5-0.3,0.8c-0.2,0.2-0.5,0.3-0.8,0.4
			l-3.5,0.6c-0.2,0-0.5,0-0.7-0.1c-0.2-0.1-0.4-0.4-0.4-0.6c-0.1-1.1,0-2.2,0.4-3.2c0.4-1.2,1.1-2.3,1.9-3.2c0.9-1,2-1.9,3.1-2.6
			C417.8,140.6,419.2,140,420.6,139.8z M426.3,164c0.3-0.1,0.6,0,0.9,0.2c0.3,0.2,0.4,0.5,0.5,0.8l0.6,3.8c0.1,0.3,0,0.6-0.2,0.9
			c-0.2,0.3-0.5,0.4-0.8,0.5l-3.7,0.6c-0.3,0.1-0.6,0-0.9-0.2c-0.3-0.2-0.4-0.5-0.5-0.8l-0.6-3.8c-0.1-0.6,0.4-1.3,1-1.4L426.3,164z
			"/>
		<g class="st14">
			<path d="M420.6,139.8c1.3-0.2,2.7-0.2,4-0.1c1.3,0.1,2.5,0.5,3.7,1.1c1.1,0.6,2.1,1.4,2.8,2.3c0.8,1,1.3,2.3,1.5,3.6
				c0.2,1,0.2,2.1,0,3.1c-0.2,0.9-0.5,1.7-1,2.5c-0.4,0.8-1,1.5-1.5,2.1l-1.6,1.9c-0.5,0.6-0.9,1.2-1.3,1.8
				c-0.3,0.6-0.5,1.2-0.5,1.9c0,0.3-0.1,0.6-0.3,0.9c-0.2,0.3-0.4,0.4-0.7,0.5l-3.3,0.5c-0.3,0-0.6,0-0.9-0.2
				c-0.3-0.2-0.4-0.5-0.5-0.8c-0.1-1-0.1-2.1,0.2-3.1c0.3-0.9,0.6-1.7,1.1-2.5c0.5-0.8,1-1.5,1.6-2.1c0.6-0.7,1.1-1.3,1.6-1.9
				c0.5-0.5,0.8-1.1,1.2-1.7c0.3-0.5,0.4-1.2,0.3-1.8c-0.2-1.1-0.8-2-1.8-2.5c-1.2-0.6-2.5-0.7-3.8-0.5c-2.4,0.4-4.3,2.2-4.8,4.5
				c-0.1,0.3-0.2,0.5-0.3,0.8c-0.2,0.2-0.5,0.3-0.8,0.4l-3.5,0.6c-0.2,0-0.5,0-0.7-0.1c-0.2-0.1-0.4-0.4-0.4-0.6
				c-0.1-1.1,0-2.2,0.4-3.2c0.4-1.2,1.1-2.3,1.9-3.2c0.9-1,2-1.9,3.1-2.6C417.8,140.6,419.2,140,420.6,139.8z M426.3,164
				c0.3-0.1,0.6,0,0.9,0.2c0.3,0.2,0.4,0.5,0.5,0.8l0.6,3.8c0.1,0.3,0,0.6-0.2,0.9c-0.2,0.3-0.5,0.4-0.8,0.5l-3.7,0.6
				c-0.3,0.1-0.6,0-0.9-0.2c-0.3-0.2-0.4-0.5-0.5-0.8l-0.6-3.8c-0.1-0.6,0.4-1.3,1-1.4L426.3,164z"/>
		</g>
		<path class="st5" d="M454.7,150.5c0.6,0.5,0.8,1.3,0.3,1.9l-2.6,3.7c-0.5,0.6-1.3,0.8-1.9,0.3l-3.6-2.6c-0.3-0.2-0.5-0.5-0.6-0.9
			c-0.1-0.4,0-0.7,0.2-1l2.6-3.7c0.2-0.3,0.5-0.5,0.9-0.6c0.4-0.1,0.7,0,1,0.2L454.7,150.5z M470,125.4c1.3,0.9,2.5,2,3.5,3.3
			c1,1.2,1.7,2.5,2.2,4c0.5,1.4,0.6,2.9,0.5,4.3c-0.2,1.5-0.8,3-1.7,4.3c-0.7,1-1.6,1.9-2.6,2.6c-0.9,0.6-1.9,1-2.9,1.3
			c-1,0.3-2,0.4-3.1,0.5l-2.9,0.2c-0.9,0.1-1.7,0.2-2.6,0.5c-0.8,0.2-1.5,0.6-2,1.2c-0.3,0.3-0.6,0.4-0.9,0.5c-0.3,0.1-0.7,0-1-0.2
			l-3.2-2.3c-0.3-0.2-0.5-0.5-0.6-0.9c-0.1-0.4,0-0.7,0.2-1c0.7-1,1.7-1.8,2.8-2.4c1-0.5,2-0.9,3.1-1.2c1-0.2,2.1-0.4,3.1-0.5
			c1-0.1,2-0.1,2.9-0.2c0.8-0.1,1.6-0.2,2.4-0.5c0.7-0.2,1.3-0.6,1.7-1.2c0.8-1,0.9-2.4,0.5-3.6c-0.5-1.5-1.5-2.7-2.8-3.6
			c-2.4-1.7-5-1.8-7.8-0.2c-0.3,0.2-0.6,0.3-0.9,0.4c-0.3,0-0.7-0.1-1-0.3l-3.4-2.4c-0.2-0.2-0.4-0.4-0.5-0.7
			c-0.1-0.3,0-0.6,0.2-0.9c0.8-1,1.8-1.8,3-2.4c1.4-0.6,2.8-1,4.3-1.1c1.6-0.1,3.3,0,4.9,0.4C466.9,123.7,468.6,124.4,470,125.4z"/>
		<g class="st15">
			<path class="st4" d="M454.7,150.5c0.6,0.5,0.8,1.3,0.3,1.9l-2.6,3.7c-0.5,0.6-1.3,0.8-1.9,0.3l-3.6-2.6c-0.3-0.2-0.5-0.5-0.6-0.9
				c-0.1-0.4,0-0.7,0.2-1l2.6-3.7c0.2-0.3,0.5-0.5,0.9-0.6c0.4-0.1,0.7,0,1,0.2L454.7,150.5z M470,125.4c1.3,0.9,2.5,2,3.5,3.3
				c1,1.2,1.7,2.5,2.2,4c0.5,1.4,0.6,2.9,0.5,4.3c-0.2,1.5-0.8,3-1.7,4.3c-0.7,1-1.6,1.9-2.6,2.6c-0.9,0.6-1.9,1-2.9,1.3
				c-1,0.3-2,0.4-3.1,0.5l-2.9,0.2c-0.9,0.1-1.7,0.2-2.6,0.5c-0.8,0.2-1.5,0.6-2,1.2c-0.3,0.3-0.6,0.4-0.9,0.5c-0.3,0.1-0.7,0-1-0.2
				l-3.2-2.3c-0.3-0.2-0.5-0.5-0.6-0.9c-0.1-0.4,0-0.7,0.2-1c0.7-1,1.7-1.8,2.8-2.4c1-0.5,2-0.9,3.1-1.2c1-0.2,2.1-0.4,3.1-0.5
				c1-0.1,2-0.1,2.9-0.2c0.8-0.1,1.6-0.2,2.4-0.5c0.7-0.2,1.3-0.6,1.7-1.2c0.8-1,0.9-2.4,0.5-3.6c-0.5-1.5-1.5-2.7-2.8-3.6
				c-2.4-1.7-5-1.8-7.8-0.2c-0.3,0.2-0.6,0.3-0.9,0.4c-0.3,0-0.7-0.1-1-0.3l-3.4-2.4c-0.2-0.2-0.4-0.4-0.5-0.7
				c-0.1-0.3,0-0.6,0.2-0.9c0.8-1,1.8-1.8,3-2.4c1.4-0.6,2.8-1,4.3-1.1c1.6-0.1,3.3,0,4.9,0.4C466.9,123.7,468.6,124.4,470,125.4z"
				/>
		</g>
	</g>
</g>
<g id="freepik--character-1--inject-2">
	<g id="freepik--character--inject-2">
		<path class="st16" d="M132.5,348.5c-0.1-3,2.1-32.3,2.1-32.3l-14.3,10.4c2.9,17.5,3.6,21.6,3.6,24.5l0,0c-0.1,0.2-0.1,0.5-0.1,0.7
			c0,3.4,3.8,5.2,6.8,7.5c2.5,2,5.2,3.8,8.1,5.3c2.2,1.1,6.6,1.2,7.1-0.2c-3.6-2.8-8.9-6.9-11.8-10.1
			C132.6,352.7,132.6,351.5,132.5,348.5z"/>
		<path class="st10" d="M152.1,368c0.3,1,0.1,2-0.6,2.7c-2.6,1.9-5.9,2.7-9.1,2.2c-4.5-0.6-7-1.9-8.8-3.4s-4.4-3.7-6.4-4.1
			c-1.6-0.3-3.2-1-4.6-1.9c-0.6-0.6-0.5-3.2-0.5-3.2L152.1,368z"/>
		<path class="st11" d="M123.8,350.2c-0.3,0-0.6,0.3-0.7,0.6c-0.1,0.7-0.3,2.8-0.6,4c-0.5,2.1-0.6,4.2-0.4,6.4
			c0.2,1.4,3.3,2.3,5.3,3c2.3,1,4.5,2.4,6.4,4.1c2.8,2.1,6.1,3.3,9.6,3.6c3.5,0,7.4-1.2,8.4-2.8c1.1-2,0.2-3.2-4.9-5.6
			c-1-0.5-4.4-2.5-5.6-3.2c-3.2-2-6.3-4.8-7.8-8.3c-0.1-0.4-0.4-0.8-0.7-1.1c-0.3-0.1-0.7-0.2-1-0.1c-0.9,0.1-1.7,0.4-2.5,0.8
			c-0.7,0.3-1.7,0.7-1.7,1.6c0,0.3,0.1,0.6,0.2,0.9c0.1,0.2,0.1,0.4,0,0.5s-0.3,0-0.5-0.1c-0.5-0.5-1-1.1-1.4-1.7
			c-0.2-0.3-0.5-0.6-0.8-0.8c-0.3-0.2-0.6-0.4-0.9-0.6C123.8,351,123.9,350.6,123.8,350.2z"/>
		<path class="st12" d="M133.9,368.3c-0.9-0.7-1.9-1.5-2.8-2.1l0,0c0,0,6.1,3.7,8.6,2c0.9-0.6,1.3-1.8,0.8-2.8
			c0-0.4,3.9-2.2,5.4-2.4l0,0c0.4,0.2,0.8,0.4,1,0.5c5.2,2.4,6.1,3.6,4.9,5.6c-0.9,1.6-3.8,2.9-8.3,2.9
			C140.6,372,136,370,133.9,368.3z"/>
		<path class="st10" d="M140,364.1c3.2,1.3,1.9,1.9,0.9,2s-6.3-3-9.6-5.7s-5.6-5.7-6.9-6.7c-0.5-0.4-1-0.8-1.5-1.3
			c0.1-0.7,0.2-1.4,0.2-1.7c0.1-0.3,0.3-0.6,0.7-0.6c0,0.4-0.1,0.8,0.3,1.1c0.3,0.2,0.6,0.4,0.9,0.6c0.3,0.2,0.6,0.5,0.8,0.8
			c0.4,0.6,0.9,1.2,1.4,1.7C130.8,358.4,135.1,361.7,140,364.1z"/>
		<path class="st0" d="M140.7,365.7c-0.1,0-0.1,0-0.2-0.1c-0.1-0.1-0.2-0.3-0.1-0.4c0,0,0,0,0,0c1.5-1.6,3.7-2.5,5.9-2.3
			c0.2,0,0.3,0.2,0.3,0.4c0,0.2-0.2,0.3-0.4,0.3c-2-0.1-3.9,0.7-5.4,2.1C140.9,365.6,140.8,365.7,140.7,365.7z"/>
		<path class="st0" d="M137.9,364c-0.1,0-0.2,0-0.2-0.1c-0.1-0.1-0.1-0.3,0-0.5c1.5-1.6,3.7-2.4,5.9-2.3c0.2,0,0.3,0.2,0.3,0.4
			s-0.2,0.3-0.4,0.3c-2-0.1-3.9,0.7-5.4,2.1C138.1,364,138,364,137.9,364z"/>
		<path class="st0" d="M135.1,362.3c-0.1,0-0.1,0-0.2-0.1c-0.1-0.1-0.1-0.3,0-0.5c1.5-1.6,3.7-2.4,5.9-2.3c0.2,0,0.3,0.2,0.3,0.3
			c0,0,0,0,0,0c0,0.2-0.2,0.3-0.3,0.3c0,0,0,0,0,0c-2-0.1-3.9,0.7-5.4,2.1C135.3,362.3,135.2,362.3,135.1,362.3z"/>
		<path class="st0" d="M132.5,360.4c-0.1,0-0.1,0-0.2-0.1c-0.1-0.1-0.1-0.3,0-0.4c0,0,0,0,0,0c1.5-1.6,3.7-2.4,5.9-2.3
			c0.2,0,0.3,0.2,0.3,0.4c0,0.2-0.2,0.3-0.4,0.3c-2-0.1-3.9,0.7-5.4,2.1C132.7,360.4,132.6,360.5,132.5,360.4z"/>
		<path class="st0" d="M129.9,358.6c-0.1,0-0.1,0-0.2-0.1c-0.1-0.1-0.1-0.3,0-0.5c1.7-1.7,4.1-2.6,6.4-2.4c0.2,0,0.3,0.1,0.3,0.3
			c0,0,0,0,0,0c0,0.2-0.2,0.3-0.4,0.3c-2.2-0.2-4.3,0.6-5.9,2.1C130.2,358.5,130,358.6,129.9,358.6z"/>
		<path class="st16" d="M105.6,329.5l-14.4-0.3c0.2,9.6,1.7,20.3,2,29.3c0,1.7,0,13.2,0.6,16.7c1,5.2,7.2,4.5,7.5,1.4
			s-0.4-16.6-0.4-18c-0.1-5.8,2.7-15.5,4.1-25.9C105.1,332.3,105.5,330,105.6,329.5z"/>
		<path class="st10" d="M103.6,378.9c0.3,2.4-0.1,4.8-1,7.1c-0.9,1.8-3,2.8-5,2.4c-2.1-0.3-4.9-1.5-5.8-4c-0.8-2.3-1.1-4.8-0.8-7.3
			L103.6,378.9z"/>
		<path class="st11" d="M93.1,357.5c-0.8,0.1-0.7,4.3-0.8,8.5c-0.1,4.5-1.2,6.4-1.3,10.1c-0.1,4.2,0.3,6,2,8.4s7.1,4.3,9.3,0.5
			c1.8-3.1,1.5-6.4,0.9-10.5s-1.1-7.2-1.2-10.5s-0.2-6.1-1-6.4c0,0.5,0,1,0,1.5s0.1,2-0.4,2.1c-0.1-0.4-0.1-0.8-0.1-1.2
			c0-0.4-0.1-0.7-0.3-1c-0.3-0.2-0.6-0.3-1-0.3c-0.9-0.1-1.7-0.1-2.6-0.1c-0.4,0-0.9,0-1.3,0.1c-0.4,0-0.7,0.1-1.1,0.3
			c-0.2,0.1-0.4,0.3-0.4,0.5c0,0.2,0,0.3,0,0.5c0,0.3,0,0.6,0,0.9c0,0.1-0.1,0.3-0.2,0.3s-0.2-0.1-0.2-0.2c-0.1-0.5,0-0.9-0.1-1.5
			c0-0.3,0-0.6,0-0.9S93.1,357.8,93.1,357.5z"/>
		<path class="st12" d="M91.1,374.9c0,0.6-0.1,4.6,1,5.2s1.6-2.5,1.6-2.5s2.7-1.1,6.8,0.2c-0.1,0.7,0.7,2.7,1.7,2.2s1-5.1,1-5.2
			c0.6,4,0.8,7.1-1,10.1c-2.2,3.8-7.6,1.9-9.3-0.5s-2.1-4.2-2-8.4C91,375.7,91.1,375.3,91.1,374.9z"/>
		<path class="st10" d="M94,377.8c0.1,1.5-1.4,1.1-1.7-1s0.4-7.2,0-10.9c0.1-4.2-0.1-8.3,0.8-8.5c0,0,0,0.1,0,0.1l0.1,2.1
			c0,0.3,0,0.6,0,0.9c0.3,3.1,0.4,9,0.5,11.8C93.7,374.2,93.8,376,94,377.8z"/>
		<path class="st10" d="M100,377.8c0.2-1.8,0.3-3.5,0.3-5.3c0-2.8,0.2-8.7,0.5-11.8c0.1-0.6,0.2-1.2,0.1-1.7c0-0.4,0-1,0-1.4
			c0,0,0-0.1,0-0.1c0.6,0.2,0.8,1.9,0.9,3.9c0,1.2,0,2.7-0.1,4.5c-0.4,3.6,0.3,8.8,0,10.9S99.9,379.3,100,377.8z"/>
		<path class="st0" d="M100.6,377.9h-0.1c-2.2-0.7-4.5-0.7-6.7,0c-0.2,0.1-0.4,0-0.4-0.2c-0.1-0.2,0-0.4,0.2-0.4
			c2.3-0.8,4.8-0.8,7.1,0c0.2,0.1,0.2,0.2,0.2,0.4c0,0,0,0,0,0C100.8,377.9,100.7,377.9,100.6,377.9z"/>
		<path class="st0" d="M101,374.6c0,0-0.1,0-0.1,0c-2.4-0.8-5-0.8-7.5,0c-0.2,0.1-0.3,0-0.4-0.2c0,0,0,0,0,0c-0.1-0.2,0-0.3,0.2-0.4
			c0,0,0,0,0,0c2.6-0.8,5.3-0.8,7.9,0c0.2,0.1,0.3,0.2,0.2,0.4C101.3,374.5,101.1,374.6,101,374.6L101,374.6z"/>
		<path class="st0" d="M93.3,371.5c-0.1,0-0.2-0.1-0.3-0.2c-0.1-0.2,0-0.3,0.2-0.4c2.5-1,5.3-1,7.9,0c0.2,0.1,0.2,0.2,0.2,0.4
			c0,0,0,0,0,0c-0.1,0.2-0.2,0.2-0.4,0.2c0,0-3.9-1.5-7.4,0C93.4,371.4,93.4,371.4,93.3,371.5z"/>
		<path class="st0" d="M93.2,368.5c-0.1,0-0.2-0.1-0.3-0.2c-0.1-0.2,0-0.3,0.2-0.4c2.5-1.2,5.4-1.2,8-0.1c0.2,0.1,0.2,0.3,0.2,0.4
			c0,0,0,0,0,0c-0.1,0.2-0.3,0.2-0.4,0.2c0,0,0,0,0,0c-2.4-1-5.1-1-7.5,0.1C93.3,368.5,93.3,368.5,93.2,368.5z"/>
		<path class="st0" d="M93.2,365.2c-0.2,0-0.3-0.1-0.3-0.3c0-0.1,0.1-0.2,0.2-0.3c3.8-1.9,7.9-0.1,8.1,0c0.2,0.1,0.2,0.2,0.2,0.4
			c0,0,0,0,0,0c-0.1,0.2-0.3,0.2-0.4,0.2c0,0-4-1.8-7.5,0C93.3,365.2,93.2,365.2,93.2,365.2z"/>
		<path class="st11" d="M95.9,236c-5.1,14.1-4.2,22.9-3.3,37.6c0.8,13.5,2.1,25.4,2.1,25.4c-0.2,2.4-3.5,7.1-4,17.7
			c-0.1,7.5,0.2,14.9,1,22.4c0,0,6.7,2.4,12.3,0c0,0,5.8-25.4,7.3-37.8c1.4-10.8,3.7-24.7,3.7-24.7l5,24.6c-1,3.3-1.5,6.7-1.5,10.2
			c0,5.8,2.7,21.9,2.7,21.9s7.5,2.4,12.2-1.8c0,0,1.9-23.2,2.5-32c0.9-11.8-0.4-44.1-3.2-60.6L95.9,236z"/>
		<path class="st12" d="M115.1,276.6l2.1-18.5c0,0,9.3-1.2,13.5-5.2c-2.5,3.8-6.5,6.4-11,6.9l-3,17.2l3.4,24.2L115.1,276.6z"/>
		<path class="st16" d="M138.1,222.3c-4.5-4.7-12.7-15.2-12.7-15.2l-4.6-16c1,0.1,2.1,0.1,3.1,0c5,0.3,6.5,0.8,9.6,4.2
			c2.5,2.7,11.9,15.6,15.2,19.9l8.7-11.1c2.1-3.1,1.8-6.7,2.8-9.2s2.8-3.7,4.2-6s1.7-3.8,2.9-2.6s-0.2,4.4-0.4,5.1s-1.9,2.9,1,1.8
			s7.4-6.5,8.6-7.6s1.8,0.6,1.5,1.9s1,4.4,0.5,6.6c-0.3,2.2-1.4,4.3-3.1,5.7c-2.1,2.1-7.3,4.7-9.3,7.5s-6.3,11.5-9,16.7
			c-3.4,6.6-6.2,8.8-10,6.6S139.7,224,138.1,222.3z"/>
		<path class="st12" d="M122.2,190.9c2.6-0.3,5.1,0.1,7.5,1c2.7,1.2,4.6,3.8,7.2,7.4s7.4,9.8,7.4,9.8s-1.3,5.4-9.7,10.2l-13.8-14.2
			L122.2,190.9z"/>
		<path class="st17" d="M148.6,215.1c-1.6,1.6-2.8,3.6-3.1,5.8c0,0-1-3.2,2.4-6.8L148.6,215.1z"/>
		<path class="st2" d="M132.2,219.3c6.1-5.1,4.1-11.6,1.9-16.1c-4.5-8.9-9.2-12.4-11.1-12.3l-12.2,0.1c-5.8,0.8-10.4,0.4-11.8,0.7
			c-3.6,0.9-3.7,3.8-3.8,7.6c-0.2,4.2-2.3,3.5-1.2,10.4c1.3,2.6,2.4,5.2,3.4,7.9c0.7,2.4,2.5,6.2,1.5,10.1c-0.4,1.5-1.4,3-2.9,7.1
			c-1.7,4.6-3,9.4-3.8,14.3c0,0,3.6-0.8,7.6-5.1c0,0,5.6,7.4,18.9,6.7c13.8-0.8,15.1-8,15.1-8l-2.1-13
			C131.9,224.5,132,222.6,132.2,219.3z"/>
		<path class="st6" d="M124.2,218c0,0-5,4-10.9,2.1c-3.3-1-5.9-3.6-6.8-7c0,0-0.5,6.6,6.9,8.8C117.5,223.1,121.9,221.5,124.2,218z"
			/>
		<path class="st12" d="M89.2,185.2c-1.8-1.3-11.6,11.7-7,15s9.4-6,8.4-10.4S89.2,185.2,89.2,185.2z"/>
		<path class="st16" d="M80.3,178.7c2.4-3.4,4.1-5.9,6.3-8.8c1.3-1.6,2.1-2.8,3.3-4.5c0.8-1.2,1.3-2.1,2.3-2.5c1-0.5,2-1.1,2.8-2
			c0.5-0.5,0.9-1.1,1.3-1.7c1.4-2,3.1-3.7,5-5.2c2-1.6,4.2-2.8,6.2-4.2c1.2-0.9,2.5-2.3,1-3.6c-0.5-0.4-1-0.6-1.6-0.7
			c-3.6-0.7-6.8,0.6-10.3,1.6c-1.5,0.4-3,1-4.5,1.6c-0.7,0.3-1.4,0.7-2,1.2c-0.8,0.9-1.5,1.9-2,3c-1.6,2.9-4.8,5.4-7.1,7.6
			c-2.7,2.6-5.1,5-8.2,7.9c-2.8,2.6-5.5,5-8,7.8c-2.1,2.3-1.3,4.1-1,4.8c1.8,3.5,3.8,4.8,6.1,7c0.8,0.7,1.6,1.4,2.4,2.1
			c3.1,2.8,6.1,5.3,9.3,8c3.4,2.8,4.8,4.2,7.8,6.9c1.9,1.8,3.5,3.8,4.7,6.1c5.2,0.9,10.4-7.2,5.9-16.6c-0.7-1.5-1.9-2.8-3.2-3.8
			C91.2,186.7,80.3,178.7,80.3,178.7z"/>
		<path class="st17" d="M80.3,178.7c-1.6,2.1-3.8,3.6-6.3,4.5c0,0,3.3,0.8,7.8-3.4L80.3,178.7z"/>
		<path class="st11" d="M99.4,191.7c-1.2-0.9-4.2-2.7-10.2-6.5c0,0,0.9,1.9-0.5,6.8s-4.5,7.9-6.4,8.3c0,0,3.3,2.6,6.4,5.6
			s5.6,5.1,7.4,8.6c0,0,4.4-1.1,5.4-8.6C102.1,200.6,101.7,194.4,99.4,191.7z"/>
		<path class="st10" d="M132.8,167.6c1.8-3.8,1.5-8.2-0.8-11.7c-3.8-5.4-10.2-8-17.2-7.9h-2.2c-9.5,0.2-18.2,8.3-18.4,17.6l0,0
			c0,6.5,0,12.5,3.6,16.9c3.3,4.1,8.4,5.5,12.8,6.1c8.3,1.3,17.6,0.3,21.3-5.3c0,0-5,1-4.4-4.2c0.1-0.8-0.7-1.7-2.1-2.6
			c1-1.7,2.1-3.2,3.4-4.6C130.2,170.3,131.8,169.6,132.8,167.6z"/>
		<path class="st16" d="M130.3,172.4c-0.1,9.6-3.1,12.1-4.7,12.8s-4.6,0.3-7.5-0.1l0.1,5.8c0,0,3.4,3.5,3.2,6.1s-5.3,3-9.1,0.5
			c-2.1-1.4-4-3.1-5.7-5c-0.3-0.4-0.5-0.8-0.5-1.3l-0.2-13.6c0,0-1.6,1.7-4.5-0.2c-2.5-1.5-3.3-4.8-1.7-7.2c0.1-0.1,0.2-0.3,0.3-0.4
			c1.5-1.5,4-1.5,5.5,0.1c0.2,0.2,0.3,0.3,0.4,0.5c0.9,1.6,0.8,2.8,2,2.6s1.2-1.5,1.3-2.4s0-1.2,0.1-2.4c2.8-0.6,5.8-4.6,6.1-7.5
			c1.9,0.9,4.1,1.4,6.2,1.4c3.2-0.2,4.8-0.9,6.4-3.2c0.4,0.5,0.7,1.1,0.9,1.7c0.4,1.2,0.8,2.5,1,3.8
			C130.2,167.1,130.4,169.7,130.3,172.4z"/>
		<path class="st17" d="M118.1,185.1c-3.1-0.4-9.5-2.1-10.6-4.6c0.4,1.3,1.2,2.4,2.3,3.2c1.9,1.6,8.3,3.3,8.3,3.3L118.1,185.1z"/>
		<path class="st9" d="M121.2,179.9c0,0.7-0.5,1.3-1.2,1.3c-0.7,0-1.3-0.5-1.3-1.2s0.5-1.3,1.2-1.3c0,0,0,0,0,0
			C120.6,178.6,121.2,179.2,121.2,179.9z"/>
		<path class="st10" d="M119.6,170.4c0.1,0.7-0.5,1.4-1.2,1.5c0,0,0,0,0,0c-0.8,0.1-1.4-0.5-1.5-1.2s0.5-1.4,1.2-1.5
			C118.8,169,119.5,169.6,119.6,170.4C119.6,170.3,119.6,170.4,119.6,170.4z"/>
		<path class="st10" d="M128.6,169.8c0.1,0.7-0.5,1.3-1.1,1.3c-0.6,0.1-1.2-0.4-1.3-1c0-0.1,0-0.1,0-0.2c-0.1-0.7,0.4-1.3,1.1-1.3
			c0,0,0,0,0,0C128,168.6,128.6,169.1,128.6,169.8z"/>
		<polygon class="st17" points="122.4,168.6 123.3,176.6 127.5,174.9 		"/>
		<path class="st10" d="M114.8,166.9l2.4-2.3c0.6,0.7,0.6,1.7-0.1,2.4C116.4,167.6,115.4,167.6,114.8,166.9
			C114.8,166.9,114.8,166.9,114.8,166.9z"/>
		<path class="st10" d="M126.8,163.9l2.7,2c-0.5,0.7-1.5,0.9-2.2,0.4c0,0-0.1,0-0.1-0.1C126.4,165.7,126.3,164.6,126.8,163.9z"/>
	</g>
	<g id="freepik--question-marks--inject-2_00000099656135825243072680000007488946149234481598_">
		<path class="st7" d="M88.4,90.6c1.9-0.4,3.9-0.5,5.8-0.3c1.9,0.2,3.7,0.7,5.3,1.5c1.6,0.8,3,1.9,4.2,3.3c1.2,1.5,2,3.2,2.3,5.1
			c0.3,1.5,0.3,3,0,4.5c-0.3,1.3-0.7,2.5-1.4,3.7c-0.6,1.1-1.3,2.2-2.1,3.2c-0.8,1-1.6,1.9-2.3,2.8c-0.7,0.8-1.3,1.7-1.8,2.7
			c-0.5,0.8-0.7,1.8-0.7,2.8c0,0.4-0.1,0.9-0.3,1.3c-0.2,0.4-0.6,0.6-1,0.7l-4.7,0.9c-0.5,0.1-0.9,0-1.3-0.3
			c-0.4-0.2-0.7-0.6-0.7-1.1c-0.2-1.5-0.2-3,0.2-4.4c0.4-1.3,0.9-2.5,1.6-3.7c0.7-1.1,1.4-2.1,2.2-3.1c0.8-1,1.6-1.9,2.3-2.8
			c0.6-0.8,1.2-1.6,1.6-2.6c0.4-0.8,0.5-1.7,0.3-2.5c-0.3-1.5-1.3-2.9-2.7-3.5c-1.7-0.8-3.7-1-5.6-0.5c-3.5,0.7-5.8,2.9-6.8,6.7
			c-0.1,0.4-0.2,0.8-0.5,1.1c-0.3,0.3-0.7,0.5-1.1,0.6l-5,0.9c-0.3,0.1-0.7,0-1-0.2c-0.3-0.2-0.5-0.5-0.6-0.9
			c-0.2-1.6,0-3.2,0.5-4.7c0.6-1.7,1.4-3.3,2.6-4.8c1.3-1.6,2.8-2.9,4.5-4C84.3,91.8,86.3,91,88.4,90.6z M97.6,125.4
			c0.9-0.2,1.8,0.4,2,1.4l1,5.5c0.1,0.4,0,0.9-0.3,1.3c-0.2,0.4-0.6,0.6-1.1,0.7l-5.3,1c-0.4,0.1-0.9,0-1.3-0.3
			c-0.4-0.2-0.6-0.6-0.7-1.1l-1-5.5c-0.1-0.4,0-0.9,0.3-1.3c0.2-0.4,0.6-0.6,1.1-0.7L97.6,125.4z"/>
		<path class="st2" d="M139.2,113.2c1.2,0.7,2.3,1.5,3.2,2.4c0.9,0.9,1.7,2,2.2,3.1c0.5,1.1,0.8,2.3,0.8,3.6c0,1.3-0.3,2.6-1,3.7
			c-0.5,0.9-1.2,1.7-1.9,2.4c-0.7,0.6-1.5,1-2.4,1.3c-0.8,0.3-1.7,0.6-2.5,0.7l-2.4,0.5c-0.7,0.1-1.4,0.4-2.1,0.6
			c-0.6,0.2-1.2,0.6-1.6,1.2c-0.2,0.2-0.5,0.4-0.8,0.5c-0.3,0.1-0.6,0.1-0.9-0.1l-2.9-1.6c-0.3-0.2-0.5-0.4-0.6-0.7
			c-0.1-0.3-0.1-0.6,0.1-0.9c0.5-0.9,1.2-1.6,2.1-2.2c0.8-0.5,1.6-1,2.5-1.3c0.8-0.3,1.7-0.5,2.6-0.7c0.9-0.2,1.7-0.3,2.4-0.5
			c0.7-0.1,1.4-0.4,2-0.6c0.6-0.2,1-0.7,1.3-1.2c0.5-0.9,0.6-2.1,0.1-3.1c-0.6-1.2-1.5-2.2-2.7-2.7c-2.1-1.2-4.7-1-6.6,0.6
			c-0.2,0.2-0.5,0.3-0.8,0.4c-0.3,0-0.6,0-0.8-0.2l-3.1-1.7c-0.2-0.1-0.4-0.3-0.5-0.6c-0.1-0.3,0-0.5,0.1-0.8
			c0.6-0.9,1.4-1.7,2.3-2.3c1.1-0.7,2.3-1.1,3.5-1.3c1.4-0.3,2.7-0.3,4.1-0.1C136.6,112,138,112.4,139.2,113.2z M128.7,135.6
			c0.3,0.2,0.5,0.4,0.6,0.7c0.1,0.3,0.1,0.6-0.1,0.9l-1.9,3.4c-0.3,0.6-1,0.8-1.6,0.5l-3.3-1.8c-0.3-0.1-0.5-0.4-0.6-0.7
			c-0.1-0.3-0.1-0.6,0.1-0.9l1.9-3.4c0.2-0.3,0.4-0.5,0.7-0.6c0.3-0.1,0.6-0.1,0.9,0.1L128.7,135.6z"/>
		<g class="st14">
			<path d="M139.2,113.2c1.2,0.7,2.3,1.5,3.2,2.4c0.9,0.9,1.7,2,2.2,3.1c0.5,1.1,0.8,2.3,0.8,3.6c0,1.3-0.3,2.6-1,3.7
				c-0.5,0.9-1.2,1.7-1.9,2.4c-0.7,0.6-1.5,1-2.4,1.3c-0.8,0.3-1.7,0.6-2.5,0.7l-2.4,0.5c-0.7,0.1-1.4,0.4-2.1,0.6
				c-0.6,0.2-1.2,0.6-1.6,1.2c-0.2,0.2-0.5,0.4-0.8,0.5c-0.3,0.1-0.6,0.1-0.9-0.1l-2.9-1.6c-0.3-0.2-0.5-0.4-0.6-0.7
				c-0.1-0.3-0.1-0.6,0.1-0.9c0.5-0.9,1.2-1.6,2.1-2.2c0.8-0.5,1.6-1,2.5-1.3c0.8-0.3,1.7-0.5,2.6-0.7c0.9-0.2,1.7-0.3,2.4-0.5
				c0.7-0.1,1.4-0.4,2-0.6c0.6-0.2,1-0.7,1.3-1.2c0.5-0.9,0.6-2.1,0.1-3.1c-0.6-1.2-1.5-2.2-2.7-2.7c-2.1-1.2-4.7-1-6.6,0.6
				c-0.2,0.2-0.5,0.3-0.8,0.4c-0.3,0-0.6,0-0.8-0.2l-3.1-1.7c-0.2-0.1-0.4-0.3-0.5-0.6c-0.1-0.3,0-0.5,0.1-0.8
				c0.6-0.9,1.4-1.7,2.3-2.3c1.1-0.7,2.3-1.1,3.5-1.3c1.4-0.3,2.7-0.3,4.1-0.1C136.6,112,138,112.4,139.2,113.2z M128.7,135.6
				c0.3,0.2,0.5,0.4,0.6,0.7c0.1,0.3,0.1,0.6-0.1,0.9l-1.9,3.4c-0.3,0.6-1,0.8-1.6,0.5l-3.3-1.8c-0.3-0.1-0.5-0.4-0.6-0.7
				c-0.1-0.3-0.1-0.6,0.1-0.9l1.9-3.4c0.2-0.3,0.4-0.5,0.7-0.6c0.3-0.1,0.6-0.1,0.9,0.1L128.7,135.6z"/>
		</g>
		<path class="st5" d="M68.8,149.9c0.3-0.3,0.6-0.4,1-0.4c0.4,0,0.7,0.2,1,0.4l3.1,3.3c0.5,0.6,0.5,1.5-0.1,2c0,0,0,0,0,0l-3.3,3
			c-0.6,0.5-1.5,0.5-2-0.1c0,0,0,0,0,0l-3.1-3.3c-0.5-0.6-0.5-1.4,0.1-2c0,0,0,0,0,0L68.8,149.9z M47.4,129.7c1.2-1.1,2.5-2,3.9-2.7
			c1.4-0.7,2.8-1.1,4.3-1.3c1.5-0.2,2.9,0,4.3,0.4c1.5,0.5,2.8,1.4,3.8,2.6c0.9,0.9,1.5,1.9,2,3.1c0.4,1,0.6,2.1,0.6,3.1
			c0.1,1,0,2.1-0.1,3.1c-0.1,1-0.2,2-0.4,2.9c-0.1,0.9-0.1,1.8-0.1,2.6c0,0.8,0.3,1.6,0.7,2.2c0.2,0.3,0.3,0.6,0.3,1
			c0,0.4-0.1,0.7-0.4,0.9l-2.9,2.7c-0.3,0.2-0.6,0.4-1,0.4c-0.4,0-0.7-0.2-1-0.4c-0.8-0.9-1.4-2-1.8-3.2c-0.3-1-0.5-2.1-0.5-3.2
			c0-1.1,0-2.1,0.2-3.2c0.2-1,0.3-2,0.4-2.9c0.1-0.8,0.1-1.7,0-2.5c-0.1-0.7-0.4-1.4-0.8-1.9c-0.9-1-2.1-1.4-3.4-1.2
			c-1.5,0.2-3,0.9-4.1,2c-2.1,2-2.7,4.5-1.8,7.6c0.1,0.3,0.2,0.7,0.2,1c-0.1,0.3-0.2,0.6-0.5,0.9l-3.1,2.8c-0.2,0.2-0.5,0.3-0.8,0.3
			c-0.3,0-0.6-0.1-0.8-0.4c-0.9-1-1.4-2.2-1.7-3.4c-0.3-1.5-0.4-3-0.2-4.4c0.2-1.6,0.7-3.2,1.4-4.7
			C45.1,132.3,46.1,130.9,47.4,129.7L47.4,129.7z"/>
		<g class="st15">
			<path class="st4" d="M68.8,149.9c0.3-0.3,0.6-0.4,1-0.4c0.4,0,0.7,0.2,1,0.4l3.1,3.3c0.5,0.6,0.5,1.5-0.1,2c0,0,0,0,0,0l-3.3,3
				c-0.6,0.5-1.5,0.5-2-0.1c0,0,0,0,0,0l-3.1-3.3c-0.5-0.6-0.5-1.4,0.1-2c0,0,0,0,0,0L68.8,149.9z M47.4,129.7
				c1.2-1.1,2.5-2,3.9-2.7c1.4-0.7,2.8-1.1,4.3-1.3c1.5-0.2,2.9,0,4.3,0.4c1.5,0.5,2.8,1.4,3.8,2.6c0.9,0.9,1.5,1.9,2,3.1
				c0.4,1,0.6,2.1,0.6,3.1c0.1,1,0,2.1-0.1,3.1c-0.1,1-0.2,2-0.4,2.9c-0.1,0.9-0.1,1.8-0.1,2.6c0,0.8,0.3,1.6,0.7,2.2
				c0.2,0.3,0.3,0.6,0.3,1c0,0.4-0.1,0.7-0.4,0.9l-2.9,2.7c-0.3,0.2-0.6,0.4-1,0.4c-0.4,0-0.7-0.2-1-0.4c-0.8-0.9-1.4-2-1.8-3.2
				c-0.3-1-0.5-2.1-0.5-3.2c0-1.1,0-2.1,0.2-3.2c0.2-1,0.3-2,0.4-2.9c0.1-0.8,0.1-1.7,0-2.5c-0.1-0.7-0.4-1.4-0.8-1.9
				c-0.9-1-2.1-1.4-3.4-1.2c-1.5,0.2-3,0.9-4.1,2c-2.1,2-2.7,4.5-1.8,7.6c0.1,0.3,0.2,0.7,0.2,1c-0.1,0.3-0.2,0.6-0.5,0.9l-3.1,2.8
				c-0.2,0.2-0.5,0.3-0.8,0.3c-0.3,0-0.6-0.1-0.8-0.4c-0.9-1-1.4-2.2-1.7-3.4c-0.3-1.5-0.4-3-0.2-4.4c0.2-1.6,0.7-3.2,1.4-4.7
				C45.1,132.3,46.1,130.9,47.4,129.7L47.4,129.7z"/>
		</g>
	</g>
</g>
<g id="freepik--question-mark--inject-2">
	<g id="freepik--big-question-mark--inject-2">
		<path class="st2" d="M272.4,219.6c-2.9-1.6-14.9-8.6-18.9-10.9c-0.8-0.5-1.3-0.8-1.4-0.8c-2-1.1-4.4-1.5-6.7-1
			c-1.9,0.4-3.8,1.1-5.5,2.1c-0.3,0.2-0.6,0.4-0.8,0.5c-4.6,2.9-8.6,7.5-11.9,13.8c-3.4,6.1-5.2,13-5.2,20c0,6.6,1.8,11.3,5.3,14
			c0.4,0.3,0.7,0.5,1.1,0.7c3.3,1.9,19.9,11.5,20.3,11.7h0.1c-0.4-0.2-0.8-0.5-1.2-0.8c-3.5-2.7-5.3-7.3-5.3-13.9
			c0.1-7,1.9-13.9,5.2-20c3.5-6.7,7.7-11.4,12.7-14.3C265,218,269.1,217.7,272.4,219.6L272.4,219.6z"/>
		<path class="st18" d="M272.5,219.7c-3.4-2-7.5-1.6-12.3,1.1c-4.6,2.7-8.6,7-11.9,13L228,222c3.1-5.6,6.9-9.7,11.1-12.4
			c0.3-0.2,0.6-0.4,0.8-0.5c1.7-1,3.6-1.8,5.5-2.1c2.3-0.5,4.6-0.1,6.7,1l1.4,0.8c4.1,2.4,16.1,9.3,18.9,10.9L272.5,219.7z"/>
		<path class="st3" d="M248.8,269.8L248.8,269.8c-0.5-0.2-17.1-9.8-20.4-11.7c-0.4-0.2-0.8-0.5-1.1-0.7c-3.5-2.7-5.3-7.3-5.3-13.9
			c0.1-7,1.9-13.9,5.2-20c0.2-0.5,0.5-0.9,0.8-1.4l20.3,11.7c-0.2,0.4-0.5,0.9-0.7,1.4c-3.4,6.1-5.2,13-5.2,20
			c0,6.6,1.8,11.3,5.3,13.9C248,269.3,248.4,269.5,248.8,269.8z"/>
		<path class="st2" d="M263.6,48c9.9-5.7,18.3-8.1,25.2-7.3c2.8,0.3,5.5,1.2,8,2.7c-0.1,0-0.1-0.1-0.2-0.1
			c-2.4-1.3-16.7-9.6-20-11.5c-2.5-1.5-5.3-2.4-8.2-2.7c-6.9-0.8-15.3,1.6-25.2,7.3c-15.3,8.8-27.7,21.8-37,39s-13.9,34.7-13.9,52.5
			l20.3,11.7c-0.1-17.9,4.5-35.4,13.9-52.5S248.2,56.9,263.6,48z"/>
		<path class="st19" d="M296.6,43.3c-2.4-1.3-5.1-2.2-7.8-2.5c-6.9-0.9-15.3,1.6-25.2,7.3c-15.3,8.8-27.7,21.8-37,39
			c-0.4,0.7-0.8,1.4-1.1,2.1l-20.4-11.8c0.4-0.7,0.8-1.4,1.1-2.1c9.4-17.1,21.7-30.1,37-39c9.9-5.7,18.3-8.1,25.2-7.3
			c2.9,0.3,5.7,1.3,8.2,2.7C279.9,33.7,294.2,42,296.6,43.3z"/>
		<path class="st3" d="M225.4,89.2c-8.6,16.5-12.8,33.3-12.7,50.4l-20.3-11.7c-0.1-17.1,4.1-33.9,12.7-50.4L225.4,89.2z"/>
		<path class="st2" d="M277.4,81.3c-3.7-2-8.6-1.2-14.8,2.3c-0.2,3.7-1,7.3-2.2,10.7c-1.5,4.1-6,12.7-13.4,25.7
			c-7.7,13.4-13.2,26.2-16.7,38.4c-3.4,12-5.1,24.5-5.1,37l0.1,6.2l13.9,8l6.5,3.7l-0.1-6.2V207c0-12.5,1.8-24.9,5.1-36.9
			c3.4-12.2,9-25,16.7-38.4c7.4-13,11.9-21.5,13.4-25.7c1.5-4.1,2.3-8.5,2.3-12.8C283,87.3,281.1,83.3,277.4,81.3z"/>
		<path class="st3" d="M278.7,110.6c-2.3,4.8-6.1,11.8-11.4,21.1c-7.7,13.4-13.3,26.2-16.7,38.4c-3.4,12-5.1,24.4-5.1,36.9v0.2
			l0.1,6.2l-6.5-3.7l-13.9-8l-0.1-6.2c0-12.5,1.7-25,5.1-37c3.4-12.2,9-25,16.7-38.4c5.3-9.3,9.2-16.4,11.5-21.1L278.7,110.6z"/>
		<path class="st18" d="M283,93.2c0,4.4-0.8,8.7-2.3,12.8c-0.4,1.2-1.1,2.7-2,4.5l-20.3-11.7c0.9-1.9,1.6-3.4,2-4.5
			c1.3-3.4,2-7.1,2.2-10.7c6.2-3.5,11.1-4.3,14.8-2.3C281.1,83.2,283,87.2,283,93.2z"/>
		<path class="st7" d="M240.2,123.7l-27.5,15.9c-0.1-17.9,4.5-35.4,13.9-52.5s21.7-30.1,37-39c9.9-5.7,18.3-8.1,25.2-7.3
			c6.9,0.9,12.5,4.6,16.6,11.4c4.2,6.7,6.2,15.1,6.2,25.2c0,5.8-0.7,11.7-2,17.4c-1.6,6.8-3.7,13.5-6.3,20
			c-1.7,4.2-5.7,12.1-12.1,23.5c-6.1,10.9-9.9,18.3-11.4,22.2c-1.7,4.7-3,9.5-3.8,14.4c-1.2,7.3-1.9,14.7-2,22.1l-28.4,16.4
			l-0.1-6.2c0-12.5,1.7-25,5.1-37c3.4-12.2,9-25,16.7-38.4c7.4-13,11.9-21.5,13.4-25.7c1.5-4.1,2.3-8.5,2.3-12.8
			c0-6-1.9-10-5.6-11.9c-3.7-2-8.8-1.1-15.1,2.5c-6.4,3.7-11.7,9.3-15.9,16.7C242.4,107.6,240.3,115.5,240.2,123.7z"/>
		<path class="st7" d="M260.2,220.8c5.1-3,9.5-3.1,13.1-0.6c3.6,2.6,5.4,7.2,5.4,13.8c-0.1,7-1.9,13.9-5.4,20.1
			c-3.6,6.8-7.9,11.6-12.9,14.5c-5,2.9-9.3,3-12.9,0.4c-3.5-2.7-5.3-7.3-5.3-13.9c0.1-7,1.9-13.9,5.2-20
			C251,228.5,255.3,223.7,260.2,220.8z"/>
	</g>
</g>
</svg>
