<?xml version="1.0" encoding="UTF-8"?>
<svg id="Layer_1" data-name="Layer 1" xmlns="http://www.w3.org/2000/svg" viewBox="0 0 783.51 647.42">
  <defs>
    <style>
      .cls-1, .cls-2, .cls-3, .cls-4, .cls-5, .cls-6, .cls-7, .cls-8, .cls-9, .cls-10, .cls-11, .cls-12, .cls-13, .cls-14 {
        stroke-width: 0px;
      }

      .cls-1, .cls-10, .cls-11 {
        fill-rule: evenodd;
      }

      .cls-1, .cls-13 {
        fill: #fff;
      }

      .cls-2 {
        fill: #f7b497;
      }

      .cls-3 {
        fill: #000;
      }

      .cls-4, .cls-10 {
        fill: #dceee0;
      }

      .cls-5 {
        fill: #5095d0;
      }

      .cls-15 {
        stroke: #222d51;
        stroke-linecap: round;
      }

      .cls-15, .cls-16 {
        fill: none;
        stroke-miterlimit: 10;
        stroke-width: 2.75px;
      }

      .cls-6 {
        fill: #455a64;
      }

      .cls-7 {
        fill: #ffbe9d;
      }

      .cls-16 {
        stroke: #fff;
      }

      .cls-8 {
        fill: #507eb7;
      }

      .cls-9 {
        fill: #1585c4;
      }

      .cls-11, .cls-12 {
        fill: #263238;
      }

      .cls-14 {
        fill: #29375e;
      }
    </style>
  </defs>
  <g>
    <g>
      <g>
        <g>
          <rect class="cls-4" x="59.15" y="20.97" width="274.08" height="171.89"/>
          <g>
            <g>
              <rect class="cls-9" x="84.53" y="85.02" width="85.95" height="6.84"/>
              <rect class="cls-9" x="84.53" y="98.95" width="85.95" height="6.84"/>
              <rect class="cls-9" x="84.53" y="71.08" width="85.95" height="6.84"/>
              <rect class="cls-9" x="84.53" y="57.14" width="85.95" height="6.84"/>
              <rect class="cls-9" x="84.53" y="43.21" width="85.95" height="6.84"/>
              <rect class="cls-9" x="84.53" y="112.61" width="42.98" height="6.84"/>
            </g>
            <rect class="cls-9" x="84.53" y="136.19" width="85.95" height="6.84"/>
            <rect class="cls-9" x="84.53" y="150.12" width="85.95" height="6.84"/>
            <rect class="cls-9" x="84.53" y="163.79" width="42.98" height="6.84"/>
          </g>
          <line class="cls-16" x1="196.19" y1="31.72" x2="196.19" y2="182.12"/>
          <rect class="cls-9" x="227.24" y="44.42" width="86.92" height="48.65"/>
          <polygon class="cls-1" points="242.85 70.19 221.19 91.86 264.52 91.86 242.85 70.19"/>
          <polygon class="cls-1" points="273.43 57.14 238.71 91.86 308.14 91.86 273.43 57.14"/>
          <circle class="cls-13" cx="251.45" cy="59.56" r="5.89" transform="translate(152.38 298.22) rotate(-80.78)"/>
          <rect class="cls-9" x="221.55" y="106.92" width="85.95" height="6.84"/>
          <rect class="cls-9" x="221.55" y="120.85" width="85.95" height="6.84"/>
          <rect class="cls-9" x="221.55" y="134.51" width="42.98" height="6.84"/>
        </g>
        <rect class="cls-12" x="59.15" width="274.08" height="20.7"/>
        <rect class="cls-13" x="68.88" y="7.17" width="5.61" height="5.61"/>
        <rect class="cls-13" x="81.59" y="7.17" width="5.61" height="5.61"/>
        <rect class="cls-13" x="94.29" y="7.17" width="5.61" height="5.61"/>
      </g>
      <g>
        <rect class="cls-4" x="59.15" y="227.33" width="274.08" height="123.34"/>
        <rect class="cls-12" x="59.15" y="206.35" width="274.08" height="20.7"/>
        <rect class="cls-13" x="68.88" y="213.53" width="5.61" height="5.61"/>
        <rect class="cls-13" x="81.59" y="213.53" width="5.61" height="5.61"/>
        <rect class="cls-13" x="94.29" y="213.53" width="5.61" height="5.61"/>
      </g>
      <path class="cls-9" d="M108.43,262.15c-14.83,0-26.85,12.02-26.85,26.85s12.02,26.85,26.85,26.85,26.85-12.02,26.85-26.85-12.02-26.85-26.85-26.85ZM108.43,308.86c-10.97,0-19.86-8.89-19.86-19.86s8.89-19.86,19.86-19.86,19.86,8.89,19.86,19.86-8.89,19.86-19.86,19.86Z"/>
      <path class="cls-13" d="M88.57,289c0-10.97,8.89-19.86,19.86-19.86v-6.98c-14.83,0-26.85,12.02-26.85,26.85h6.99Z"/>
      <rect class="cls-9" x="146.68" y="272.68" width="85.95" height="6.84"/>
      <rect class="cls-9" x="146.68" y="286.62" width="85.95" height="6.84"/>
      <rect class="cls-9" x="146.68" y="300.28" width="42.98" height="6.84"/>
    </g>
    <g>
      <g>
        <rect class="cls-12" x="524.15" y="16.06" width="259.36" height="31.45"/>
        <rect class="cls-4" x="524.15" y="47.51" width="259.36" height="319.95"/>
        <rect class="cls-13" x="538.94" y="26.96" width="8.52" height="8.52"/>
        <rect class="cls-13" x="558.24" y="26.96" width="8.52" height="8.52"/>
        <rect class="cls-13" x="577.54" y="26.96" width="8.52" height="8.52"/>
      </g>
      <g>
        <g>
          <rect class="cls-9" x="581.95" y="89.43" width="52.32" height="52.32"/>
          <rect class="cls-9" x="649.54" y="89.43" width="76.39" height="10.39"/>
          <rect class="cls-9" x="649.54" y="110.6" width="76.39" height="10.39"/>
          <rect class="cls-9" x="649.54" y="131.35" width="38.19" height="10.39"/>
        </g>
        <g>
          <rect class="cls-9" x="581.95" y="180.36" width="52.32" height="52.32"/>
          <rect class="cls-9" x="649.54" y="180.36" width="76.39" height="10.39"/>
          <rect class="cls-9" x="649.54" y="201.54" width="76.39" height="10.39"/>
          <rect class="cls-9" x="649.54" y="222.29" width="38.19" height="10.39"/>
        </g>
        <g>
          <rect class="cls-9" x="581.95" y="271.3" width="52.32" height="52.32"/>
          <rect class="cls-9" x="649.54" y="271.3" width="76.39" height="10.39"/>
          <rect class="cls-9" x="649.54" y="292.47" width="76.39" height="10.39"/>
          <rect class="cls-9" x="649.54" y="313.22" width="38.19" height="10.39"/>
        </g>
      </g>
    </g>
    <rect class="cls-9" y="633.87" width="776.89" height="13.55" rx="6.09" ry="6.09"/>
    <g>
      <g>
        <path class="cls-9" d="M531.81,378.74c-13.68-5.41-36.65-11.81-57.79-17.23-30.76-7.88-62.4-11.75-94.15-11.75h0c-31.75,0-63.4,3.87-94.15,11.75-21.14,5.41-44.12,11.82-57.79,17.23-30.39,12.01-74.91,154.78-96.12,255.13h496.13c-21.2-100.36-65.73-243.12-96.12-255.13h-.01Z"/>
        <polygon class="cls-5" points="217.03 451.02 198.24 564.79 258.29 593.15 264.27 522.08 217.03 451.02"/>
        <polygon class="cls-5" points="542.7 451.02 561.49 564.79 501.44 593.15 495.45 522.08 542.7 451.02"/>
        <path class="cls-12" d="M381.46,420.55c33.41-.19,59.32-29.37,56.43-62.66l-.33-3.77c-19.08-2.9-38.37-4.36-57.7-4.36h0c-18.94,0-37.84,1.41-56.54,4.19l-.34,3.93c-2.89,33.29,23.01,62.47,56.43,62.66h2.06,0Z"/>
        <path class="cls-7" d="M428.5,355.94l-.26-3.06c-16.03-2.04-32.18-3.12-48.37-3.12h0c-15.8,0-31.56,1.04-47.21,2.98l-.27,3.2c-2.42,28.23,19.25,52.98,47.21,53.14h1.72c27.95-.16,49.62-24.91,47.21-53.14h-.03Z"/>
        <path class="cls-7" d="M381.21,404.17c25.17-.15,44.69-22.13,42.51-47.21l-.41-4.71c-14.41-1.63-28.92-2.49-43.45-2.49h0c-14.14,0-28.26.81-42.29,2.36l-.42,4.83c-2.18,25.08,17.34,47.07,42.51,47.21h1.55Z"/>
        <g>
          <path class="cls-12" d="M433.84,265s9.44-21.09,6.26-38.98c-5.98-33.67-53.9-52.16-86.31-25.52-14.88-2.98-29.96,7.62-33.14,25.52-3.18,17.9,6.26,38.98,6.26,38.98l6.4,18.61h94.25l6.27-18.61h.01Z"/>
          <path class="cls-12" d="M357.17,202.55s23.41-17.35,48.77-8.24c25.36,9.11-24.06-.53-48.77,8.24Z"/>
          <path class="cls-12" d="M425.15,200.82c12.27,18.28,7.07,45.71-13.63,36.83-20.71-8.88-51.44-12.15-51.44-12.15,0,0-13.95,14.02-27.14,12.28-12.61-1.66-11.38-14.83-11.24-15.98-.41,1.36-.78,2.75-1.04,4.21-3.18,17.9,6.26,38.98,6.26,38.98l6.4,18.61h94.25l6.27-18.61s9.44-21.09,6.26-38.98c-1.78-10.01-7.28-18.66-14.95-25.2h0Z"/>
          <path class="cls-7" d="M404.3,311.82h-47.84l-3.89,44.87c-1.4,16.12,11.14,30.24,27.32,30.34h1c16.18-.09,28.72-14.22,27.32-30.34l-3.89-44.87h-.02Z"/>
          <path class="cls-7" d="M356.46,311.82l-2.16,24.84c5.22,2.8,11.55,4.57,19.27,4.57,15.54,0,25.52-7.08,31.92-15.59l-1.2-13.82h-47.84.01Z"/>
          <g>
            <path class="cls-7" d="M337.8,267.31c-.64-.48-7.87-5.73-15.48-.08-9.76,7.25-2.03,29.33,17.25,24.35l-1.77-24.26h0Z"/>
            <path class="cls-7" d="M337.84,271.65c-.39-.29-4.81-3.5-9.46-.05-5.96,4.43-1.24,17.92,10.54,14.87l-1.08-14.82h0Z"/>
            <path class="cls-7" d="M422.97,267.31c.64-.48,7.87-5.73,15.48-.08,9.76,7.25,2.03,29.33-17.25,24.35l1.77-24.26h0Z"/>
            <path class="cls-7" d="M422.92,271.65c.39-.29,4.81-3.5,9.46-.05,5.96,4.43,1.24,17.92-10.54,14.87l1.08-14.82h0Z"/>
            <path class="cls-7" d="M380.38,215.08s-54.96-4.5-43.07,70.7c0,0,4.18,44.35,43.07,44.35s43.07-44.35,43.07-44.35c11.89-75.2-43.07-70.7-43.07-70.7h0Z"/>
          </g>
          <path class="cls-12" d="M365.1,206.54s-7.37,15.34-5.01,18.97c19.47,5.9,47.84,19.9,65.05,40.52,0,0,15.95-64.64-60.03-59.49h0Z"/>
          <path class="cls-12" d="M360.08,225.51s-7.49,25.96-24.45,40.51c0,0-3.97-18.18-3.97-21.91s3.97-14.64,3.97-14.64l11.09-9.39,7.48-3.18h8.82s2.07-.14,2.07,2.07-5.01,6.54-5.01,6.54Z"/>
          <path class="cls-14" d="M394.15,303.95c0,7.6-6.16,13.76-13.76,13.76s-13.76-6.16-13.76-13.76h27.53,0Z"/>
          <path class="cls-13" d="M393.33,308.49c.51-1.42.81-2.94.81-4.54h-27.53c0,1.6.3,3.12.81,4.54h25.91Z"/>
          <g>
            <path class="cls-15" d="M351.73,260.66s10.2-4.82,17.46,1.33"/>
            <path class="cls-15" d="M380.37,267.18s4.74,9.64-4.9,19.62c-6.62,6.86-.45,9.19,8.62,9.71"/>
            <path class="cls-15" d="M409.03,260.66s-10.2-4.82-17.46,1.33"/>
            <path class="cls-14" d="M361.06,265.99c-2.38,0-4.42,1.85-5.47,4.54l5.47,4.05h-6.24c0,4.74,2.79,8.59,6.24,8.59s6.24-3.84,6.24-8.59-2.79-8.59-6.24-8.59Z"/>
            <path class="cls-14" d="M399.7,265.99c-2.38,0-4.43,1.86-5.48,4.57l5.43,4.02h-6.18c0,4.74,2.79,8.59,6.24,8.59s6.24-3.84,6.24-8.59-2.79-8.59-6.24-8.59h0Z"/>
          </g>
        </g>
      </g>
      <path class="cls-7" d="M208.44,538.11s2.12-16.03,13.4-18.21l1.22,17.51-.93,8.58-13.69-7.88Z"/>
      <g>
        <path class="cls-12" d="M131.8,633.87s-13.67-21.92-1.84-49.83c20.36-48.02,84.13-41.26,116.28-20.36,36.92,24,6.76,70.19,6.76,70.19h-121.2Z"/>
        <path class="cls-7" d="M253,633.87s14.61-22.42,11.01-44.14c-2.86-4.47-6.92-8.67-12.58-12.35-32.15-20.9-97.62-30.38-117.98,17.64-6.09,14.36-3.71,29.83-1.63,38.85h121.18Z"/>
        <path class="cls-7" d="M131.8,633.87s-6.19-57.47,45.45-64.3c51.64-6.83,199.73,64.3,199.73,64.3h-245.18Z"/>
        <path class="cls-7" d="M140.63,607.53s6.08-25.66,34.11-31.99c28.04-6.33-23.89,13.04-34.11,31.99Z"/>
        <path class="cls-2" d="M177.73,633.87h25.22l10.33-21.73-5.89-36.59-16.97-6.25h0l-12.67,64.58h-.01Z"/>
        <polygon class="cls-7" points="225.71 575.54 195.87 633.87 253 633.87 225.71 575.54"/>
      </g>
      <g>
        <path class="cls-12" d="M627.93,633.87s13.67-21.92,1.84-49.83c-20.36-48.02-84.13-41.26-116.28-20.36-36.92,24-6.76,70.19-6.76,70.19h121.2Z"/>
        <path class="cls-7" d="M506.73,633.87s-14.61-22.42-11.01-44.14c2.86-4.47,6.92-8.67,12.58-12.35,32.15-20.9,97.62-30.38,117.98,17.64,6.09,14.36,3.71,29.83,1.63,38.85h-121.18Z"/>
        <path class="cls-7" d="M627.93,633.87s6.19-57.47-45.45-64.3c-51.64-6.83-199.73,64.3-199.73,64.3h245.18Z"/>
        <path class="cls-7" d="M619.1,607.53s-6.08-25.66-34.11-31.99c-28.04-6.33,23.89,13.04,34.11,31.99Z"/>
        <polygon class="cls-7" points="534.01 575.54 563.86 633.87 506.73 633.87 534.01 575.54"/>
      </g>
      <g>
        <polygon class="cls-12" points="531.88 621.01 228.88 621.01 217.03 451.02 219.44 445.75 541.32 445.75 543.74 451.02 531.88 621.01"/>
        <path class="cls-12" d="M228.71,526.22l-4.28-67.99h124.5s-109.93,11.68-120.22,67.99Z"/>
        <path class="cls-3" d="M228.27,612.14l.62,8.87h302.99l11.86-169.99s-18.64,161.12-315.47,161.12h0Z"/>
        <polygon class="cls-13" points="543.74 451.02 541.32 445.75 219.44 445.75 217.03 451.02 543.74 451.02"/>
        <polygon class="cls-12" points="531.88 621.01 532.5 612.14 228.27 612.14 228.88 621.01 531.88 621.01"/>
        <rect class="cls-12" x="219.02" y="617.26" width="322.73" height="16.61"/>
        <rect class="cls-3" x="219.02" y="625.56" width="322.73" height="8.31"/>
        <rect class="cls-13" x="481.67" y="622.35" width="6.43" height="6.43" rx="3.21" ry="3.21"/>
        <rect class="cls-13" x="493.52" y="622.35" width="6.43" height="6.43" rx="3.21" ry="3.21"/>
      </g>
      <circle class="cls-5" cx="380.94" cy="539.56" r="17.97"/>
      <path class="cls-7" d="M223.05,537.41s21.57,1.62,22.71,10.34c1.5,11.52-20.99,14.41-20.99,14.41,0,0,22.59-.44,23.4,9.41.8,9.85-21.7,14.9-21.7,14.9,0,0,19.49-1.64,19.29,5.8-.2,7.43-18.02,12.43-18.02,12.43,0,0,13.2,2.24,12.19,10.48-1,8.24-20.92,10.38-20.92,10.38,0,0-20.27,3.68-26.3-6.16-6.03-9.85-3.33-62.09,2.15-73.14s28.18-8.85,28.18-8.85h0Z"/>
      <g>
        <path class="cls-2" d="M224.78,562.17s20.92-2.72,20.99-13.3c-.35.96-2.74,5.21-18.29,7.44-17.58,2.51-23.29,6.8-2.7,5.86h0Z"/>
        <path class="cls-2" d="M245.77,592.28c0-.22-.06-.4-.09-.6-.46.67-4.36,5.99-15.09,8.34-11.45,2.51-14.24,4.57-2.85,4.7,0,0,17.82-5,18.02-12.43h.01Z"/>
        <path class="cls-2" d="M226.86,586.45c-.22.02-.38.03-.38.03,0,0,22.51-5.05,21.7-14.9-.02-.28-.12-.52-.18-.79-.25.36-4.3,5.92-15.19,9.23-11.25,3.42-21.6,5.02-17.48,6.43,4.11,1.4,11.5,0,11.53,0Z"/>
      </g>
    </g>
    <g>
      <g>
        <path class="cls-9" d="M740.07,616.93h-36.8c-2.71,0-4.91-2.2-4.91-4.91v-39.1c0-2.71,2.2-4.91,4.91-4.91h36.8c2.71,0,4.91,2.2,4.91,4.91v39.1c0,2.71-2.2,4.91-4.91,4.91ZM708.18,607.1h26.98v-29.28h-26.98v29.28Z"/>
        <rect class="cls-5" x="651.4" y="551.2" width="70.26" height="82.67" rx="4.17" ry="4.17"/>
        <path class="cls-10" d="M662.52,629.7v-74.34c0-2.3,1.87-4.17,4.17-4.17h-6.17c-2.3,0-4.17,1.87-4.17,4.17v74.34c0,2.3,1.87,4.17,4.17,4.17h6.17c-2.3,0-4.17-1.87-4.17-4.17Z"/>
        <path class="cls-9" d="M701.69,551.2h15.8c2.3,0,4.17,1.87,4.17,4.17v74.34c0,2.3-1.87,4.17-4.17,4.17h-15.8v-82.67h0Z"/>
      </g>
      <rect class="cls-13" x="673.81" y="568.97" width="11.17" height="14.9"/>
      <rect class="cls-13" x="678.16" y="551.2" width="2.46" height="17.78"/>
    </g>
    <g>
      <rect class="cls-12" x="61.15" y="522.41" width="8.88" height="93.46" transform="translate(-105.39 22.34) rotate(-10.79)"/>
      <rect class="cls-6" x="37.67" y="567.27" width="93.46" height="8.88" transform="translate(-493.01 547.59) rotate(-79.21)"/>
      <rect class="cls-9" x="70.85" y="510.51" width="8.88" height="93.46" transform="translate(-44.64 7.87) rotate(-4.62)"/>
      <rect class="cls-12" x="43.59" y="557.23" width="63.44" height="76.64"/>
      <rect class="cls-8" x="51.58" y="557.23" width="6.8" height="76.64"/>
      <rect class="cls-3" x="93.09" y="557.23" width="13.94" height="76.64"/>
      <rect class="cls-3" x="38.1" y="622.65" width="74.42" height="11.22"/>
      <rect class="cls-3" x="96.17" y="622.65" width="16.35" height="11.22"/>
    </g>
    <circle class="cls-12" cx="520.72" cy="274.02" r="52.33"/>
    <circle class="cls-13" cx="493.39" cy="273.01" r="6.83" transform="translate(144.87 716.3) rotate(-80.78)"/>
    <circle class="cls-13" cx="520.72" cy="273.01" r="6.83"/>
    <circle class="cls-13" cx="548.05" cy="273.01" r="6.83"/>
    <polygon class="cls-11" points="505.98 302.53 518.63 315.18 495.95 325.2 473.27 335.23 483.3 312.55 493.33 289.88 505.98 302.53"/>
    <g>
      <g>
        <path class="cls-9" d="M424.93,147.03l9.04,9.04c12.48-12.48,32.74-12.48,45.22,0l9.04-9.04c-17.48-17.48-45.83-17.48-63.31,0h0Z"/>
        <path class="cls-9" d="M406.84,128.94l9.04,9.04c22.48-22.48,58.93-22.48,81.4,0l9.04-9.04c-27.47-27.47-72.02-27.47-99.49,0h.01Z"/>
      </g>
      <circle class="cls-9" cx="456.58" cy="165.13" r="9.05"/>
    </g>
  </g>
  <path class="cls-4" d="M226.35,385.71s50.03-17.76,69.66-21.5-58.56,25.26-64.96,30.98c-15.19,13.58-34.81,52.21-39.96,64.12-5.14,11.92,5.08-50.23,35.25-73.6h0Z"/>
  <path class="cls-4" d="M523.56,385.71s-50.03-17.76-69.66-21.5,58.56,25.26,64.96,30.98c15.19,13.58,34.81,52.21,39.96,64.12,5.14,11.92-5.08-50.23-35.25-73.6h-.01Z"/>
  <path class="cls-12" d="M355.17,225.19s-13.95,14.02-27.14,12.28h0c-.71,2.49-1.27,4.92-1.27,6.33,0,3.73,3.97,21.91,3.97,21.91,16.96-14.55,24.45-40.51,24.45-40.51h-.01Z"/>
  <path class="cls-12" d="M355.17,225.19c19.47,5.9,47.84,19.9,65.05,40.52,0,0,3.39-13.81-.45-28.15-3.27,1.91-7.67,2.14-13.17-.22-20.71-8.88-51.44-12.15-51.44-12.15h.01Z"/>
</svg>