<?xml version="1.0" encoding="utf-8"?>
<!-- Generator: Adobe Illustrator 26.0.1, SVG Export Plug-In . SVG Version: 6.00 Build 0)  -->
<svg version="1.1" id="Layer_1" xmlns="http://www.w3.org/2000/svg" xmlns:xlink="http://www.w3.org/1999/xlink" x="0px" y="0px"
	 viewBox="0 0 750 500" style="enable-background:new 0 0 750 500;" xml:space="preserve">
<style type="text/css">
	.st0{fill:#E0E0E0;}
	.st1{fill:#FFFFFF;}
	.st2{fill:#F5F5F5;}
	.st3{fill:#FAFAFA;}
	.st4{fill:#EBEBEB;}
	.st5{fill:#263238;}
	.st6{fill:#1585C4;}
	.st7{opacity:0.3;}
	.st8{fill:#455A64;}
	.st9{fill:#84685E;}
	.st10{fill:#664D42;}
</style>
<g id="freepik--background-complete--inject-13">
	<path class="st0" d="M234.7,314.2c0-0.4,1.2-0.7,2.8-0.7l-0.7,0.7l0,0V314c0-0.1,0-0.2,0-0.3c0-0.1,0-0.3,0-0.5
		c0-0.3,0.1-0.6,0.2-0.9c0.1-0.5,0.3-0.8,0.5-0.8s0.4,0.3,0.5,0.8c0.1,0.3,0.1,0.6,0.1,0.9c0,0.2,0,0.4,0,0.5v0.3v0.3l0,0l-0.7,0.7
		C236,315,234.7,314.6,234.7,314.2z"/>
	<path class="st0" d="M223.6,314.2c0-0.4,1.2-0.7,2.8-0.7s2.8,0.3,2.8,0.7s-1.2,0.7-2.8,0.7S223.6,314.6,223.6,314.2z"/>
	<path class="st0" d="M212.4,314.2c0-0.4,1.3-0.7,2.8-0.7s2.8,0.3,2.8,0.7s-1.2,0.7-2.8,0.7S212.4,314.6,212.4,314.2z"/>
	<path class="st0" d="M201.2,314.2c0-0.4,1.2-0.7,2.8-0.7s2.8,0.3,2.8,0.7s-1.2,0.7-2.8,0.7S201.2,314.6,201.2,314.2z"/>
	<path class="st0" d="M190,314.2c0-0.4,1.2-0.7,2.8-0.7s2.8,0.3,2.8,0.7s-1.3,0.7-2.8,0.7S190,314.6,190,314.2z"/>
	<path class="st0" d="M178.8,314.2c0-0.4,1.2-0.7,2.8-0.7s2.8,0.3,2.8,0.7s-1.2,0.7-2.8,0.7S178.8,314.6,178.8,314.2z"/>
	<path class="st0" d="M167.6,314.2c0-0.4,1.2-0.7,2.8-0.7s2.8,0.3,2.8,0.7s-1.2,0.7-2.8,0.7S167.6,314.6,167.6,314.2z"/>
	<path class="st0" d="M156.4,314.2c0-0.4,1.2-0.7,2.8-0.7s2.8,0.3,2.8,0.7s-1.2,0.7-2.8,0.7S156.4,314.6,156.4,314.2z"/>
	<path class="st0" d="M145.2,314.2c0-0.4,1.2-0.7,2.8-0.7s2.8,0.3,2.8,0.7s-1.2,0.7-2.8,0.7S145.2,314.6,145.2,314.2z"/>
	<path class="st0" d="M134.1,314.2c0-0.4,1.3-0.7,2.8-0.7s2.8,0.3,2.8,0.7s-1.3,0.7-2.8,0.7S134.1,314.6,134.1,314.2z"/>
	<path class="st0" d="M122.9,314.2c0-0.4,1.2-0.7,2.8-0.7s2.8,0.3,2.8,0.7s-1.2,0.7-2.8,0.7S122.9,314.6,122.9,314.2z"/>
	<path class="st0" d="M111.7,314.2c0-0.4,1.2-0.7,2.8-0.7s2.8,0.3,2.8,0.7s-1.3,0.7-2.8,0.7S111.7,314.6,111.7,314.2z"/>
	<path class="st0" d="M100.5,314.2c0-0.4,1.2-0.7,2.8-0.7s2.8,0.3,2.8,0.7s-1.2,0.7-2.8,0.7S100.5,314.6,100.5,314.2z"/>
	<path class="st0" d="M89.3,314.2c0-0.4,1.2-0.7,2.8-0.7s2.8,0.3,2.8,0.7s-1.2,0.7-2.8,0.7S89.3,314.6,89.3,314.2z"/>
	<path class="st0" d="M78.1,314.2c0-0.4,1.2-0.7,2.8-0.7s2.8,0.3,2.8,0.7s-1.2,0.7-2.8,0.7S78.1,314.6,78.1,314.2z"/>
	<path class="st0" d="M69.8,311.5c0.4,0,0.7,1.2,0.7,2.8c-1.5-1.5-0.4-0.4-0.7-0.7h0.6h0.5c0.3,0,0.6,0.1,0.9,0.2
		c0.5,0.1,0.8,0.3,0.8,0.5s-0.3,0.4-0.8,0.5c-0.3,0.1-0.6,0.1-0.9,0.2h-0.5h-0.6l-0.7-0.7C69,312.7,69.3,311.5,69.8,311.5z"/>
	<path class="st0" d="M69.8,300.3c0.4,0,0.7,1.2,0.7,2.8s-0.3,2.8-0.7,2.8s-0.7-1.2-0.7-2.8S69.3,300.3,69.8,300.3z"/>
	<path class="st0" d="M69.8,289.2c0.4,0,0.7,1.2,0.7,2.8s-0.3,2.8-0.7,2.8S69,293.5,69,292S69.3,289.2,69.8,289.2z"/>
	<path class="st0" d="M69.8,278.1c0.4,0,0.7,1.2,0.7,2.8s-0.3,2.8-0.7,2.8s-0.7-1.2-0.7-2.8S69.3,278.1,69.8,278.1z"/>
	<path class="st0" d="M69.8,267c0.4,0,0.7,1.2,0.7,2.8s-0.3,2.8-0.7,2.8s-0.8-1.3-0.8-2.8S69.3,267,69.8,267z"/>
	<path class="st0" d="M69.8,255.9c0.4,0,0.7,1.2,0.7,2.8s-0.3,2.8-0.7,2.8s-0.7-1.2-0.7-2.8S69.3,255.9,69.8,255.9z"/>
	<path class="st0" d="M69.8,244.8c0.4,0,0.7,1.2,0.7,2.8s-0.3,2.8-0.7,2.8s-0.7-1.2-0.7-2.8S69.3,244.8,69.8,244.8z"/>
	<path class="st0" d="M69.8,233.6c0.4,0,0.7,1.2,0.7,2.8s-0.3,2.8-0.7,2.8S69,238,69,236.4S69.3,233.6,69.8,233.6z"/>
	<path class="st0" d="M69.8,222.5c0.4,0,0.7,1.2,0.7,2.8s-0.3,2.8-0.7,2.8s-0.8-1.2-0.8-2.8S69.3,222.5,69.8,222.5z"/>
	<path class="st0" d="M72.5,214.2c0,0.4-1.2,0.7-2.8,0.7l0.7-0.7l0,0v0.2c0,0.1,0,0.2,0,0.3s0,0.3,0,0.5c0,0.3-0.1,0.6-0.2,0.9
		c-0.1,0.5-0.3,0.8-0.5,0.8s-0.4-0.3-0.5-0.8c-0.1-0.3-0.1-0.6-0.2-0.9c0-0.2,0-0.4,0-0.5v-0.5l0,0l0.7-0.7
		C71.3,213.4,72.5,213.8,72.5,214.2z"/>
	<path class="st0" d="M83.7,214.2c0,0.4-1.2,0.7-2.8,0.7s-2.8-0.3-2.8-0.7s1.2-0.7,2.8-0.7S83.7,213.8,83.7,214.2z"/>
	<path class="st0" d="M94.9,214.2c0,0.4-1.2,0.7-2.8,0.7s-2.8-0.3-2.8-0.7s1.2-0.7,2.8-0.7S94.9,213.8,94.9,214.2z"/>
	<path class="st0" d="M106.1,214.2c0,0.4-1.2,0.7-2.8,0.7s-2.8-0.3-2.8-0.7s1.2-0.7,2.8-0.7S106.1,213.8,106.1,214.2z"/>
	<path class="st0" d="M117.3,214.2c0,0.4-1.3,0.7-2.8,0.7s-2.8-0.3-2.8-0.7s1.2-0.7,2.8-0.7S117.3,213.8,117.3,214.2z"/>
	<path class="st0" d="M128.5,214.2c0,0.4-1.2,0.7-2.8,0.7s-2.8-0.3-2.8-0.7s1.2-0.7,2.8-0.7S128.5,213.8,128.5,214.2z"/>
	<path class="st0" d="M139.7,214.2c0,0.4-1.3,0.7-2.8,0.7s-2.8-0.3-2.8-0.7s1.3-0.7,2.8-0.7S139.7,213.8,139.7,214.2z"/>
	<path class="st0" d="M150.8,214.2c0,0.4-1.2,0.7-2.8,0.7s-2.8-0.3-2.8-0.7s1.2-0.7,2.8-0.7S150.8,213.8,150.8,214.2z"/>
	<path class="st0" d="M162,214.2c0,0.4-1.2,0.7-2.8,0.7s-2.8-0.3-2.8-0.7s1.2-0.7,2.8-0.7S162,213.8,162,214.2z"/>
	<path class="st0" d="M173.2,214.2c0,0.4-1.2,0.7-2.8,0.7s-2.8-0.3-2.8-0.7s1.2-0.7,2.8-0.7S173.2,213.8,173.2,214.2z"/>
	<path class="st0" d="M184.4,214.2c0,0.4-1.2,0.7-2.8,0.7s-2.8-0.3-2.8-0.7s1.2-0.7,2.8-0.7S184.4,213.8,184.4,214.2z"/>
	<path class="st0" d="M195.6,214.2c0,0.4-1.3,0.7-2.8,0.7s-2.8-0.3-2.8-0.7s1.2-0.7,2.8-0.7S195.6,213.8,195.6,214.2z"/>
	<path class="st0" d="M206.8,214.2c0,0.4-1.2,0.7-2.8,0.7s-2.8-0.3-2.8-0.7s1.2-0.7,2.8-0.7S206.8,213.8,206.8,214.2z"/>
	<path class="st0" d="M218,214.2c0,0.4-1.2,0.7-2.8,0.7s-2.8-0.3-2.8-0.7s1.3-0.7,2.8-0.7S218,213.8,218,214.2z"/>
	<path class="st0" d="M229.1,214.2c0,0.4-1.2,0.7-2.8,0.7s-2.8-0.3-2.8-0.7s1.2-0.7,2.8-0.7S229.1,213.8,229.1,214.2z"/>
	<path class="st0" d="M237.5,217c-0.4,0-0.7-1.2-0.7-2.8c1.5,1.4,0.4,0.4,0.7,0.7H237h-0.5c-0.3,0-0.6-0.1-0.9-0.2
		c-0.5-0.1-0.8-0.3-0.8-0.5s0.3-0.4,0.8-0.5c0.3-0.1,0.6-0.1,0.9-0.1l0.5-0.1h0.6l0.7,0.7C238.3,215.7,237.9,217,237.5,217z"/>
	<path class="st0" d="M237.5,228.1c-0.4,0-0.7-1.2-0.7-2.8s0.3-2.8,0.7-2.8s0.7,1.2,0.7,2.8S237.9,228.1,237.5,228.1z"/>
	<path class="st0" d="M237.5,239.2c-0.4,0-0.7-1.2-0.7-2.8s0.3-2.8,0.7-2.8s0.7,1.2,0.7,2.8S237.9,239.2,237.5,239.2z"/>
	<path class="st0" d="M237.5,250.3c-0.4,0-0.7-1.2-0.7-2.8s0.3-2.8,0.7-2.8s0.7,1.2,0.7,2.8S237.9,250.3,237.5,250.3z"/>
	<path class="st0" d="M237.5,261.4c-0.4,0-0.7-1.2-0.7-2.8s0.3-2.8,0.7-2.8s0.7,1.2,0.7,2.8S237.9,261.4,237.5,261.4z"/>
	<path class="st0" d="M237.5,272.5c-0.4,0-0.7-1.2-0.7-2.8s0.3-2.8,0.7-2.8s0.7,1.2,0.7,2.8S237.9,272.5,237.5,272.5z"/>
	<path class="st0" d="M237.5,283.7c-0.4,0-0.7-1.2-0.7-2.8s0.3-2.8,0.7-2.8s0.7,1.2,0.7,2.8S237.9,283.7,237.5,283.7z"/>
	<path class="st0" d="M237.5,294.8c-0.4,0-0.7-1.2-0.7-2.8s0.3-2.8,0.7-2.8s0.7,1.2,0.7,2.8S237.9,294.8,237.5,294.8z"/>
	<path class="st0" d="M237.5,305.9c-0.4,0-0.7-1.2-0.7-2.8s0.3-2.8,0.7-2.8s0.7,1.2,0.7,2.8S237.9,305.9,237.5,305.9z"/>
	<rect x="65.8" y="309.4" class="st0" width="8" height="8"/>
	<rect x="65.8" y="210.2" class="st0" width="8" height="8"/>
	<rect x="233.5" y="210.2" class="st0" width="8" height="8"/>
	<rect x="233.5" y="309.1" class="st0" width="8" height="8"/>
	<rect x="149.6" y="309.1" class="st0" width="8" height="8"/>
	<rect x="149.6" y="210.2" class="st0" width="8" height="8"/>
	<rect x="65.8" y="260.2" class="st0" width="8" height="8"/>
	<rect x="233.5" y="260.2" class="st0" width="8" height="8"/>
	<path class="st0" d="M684,110.2c0-0.3,0.9-0.6,2.1-0.6c-1.1,1.1-0.3,0.3-0.5,0.6l0,0V110c0-0.1,0-0.1,0-0.2c0-0.1,0-0.2,0-0.4
		c0-0.2,0.1-0.4,0.1-0.7c0.1-0.4,0.2-0.6,0.4-0.6s0.3,0.2,0.4,0.6c0.1,0.2,0.1,0.4,0.1,0.7c0,0.2,0,0.3,0,0.4v0.4l0,0
		c-0.2,0.2,0.5-0.5-0.5,0.6C685,110.8,684,110.5,684,110.2z"/>
	<path class="st0" d="M675.6,110.2c0-0.3,1-0.6,2.1-0.6s2.1,0.2,2.1,0.6s-1,0.6-2.1,0.6S675.6,110.5,675.6,110.2z"/>
	<path class="st0" d="M667.1,110.2c0-0.3,1-0.6,2.1-0.6s2.1,0.2,2.1,0.6s-1,0.6-2.1,0.6S667.1,110.5,667.1,110.2z"/>
	<path class="st0" d="M658.7,110.2c0-0.3,1-0.6,2.1-0.6s2.1,0.2,2.1,0.6s-1,0.6-2.1,0.6S658.7,110.5,658.7,110.2z"/>
	<path class="st0" d="M650.2,110.2c0-0.3,0.9-0.6,2.1-0.6s2.1,0.2,2.1,0.6s-1,0.6-2.1,0.6S650.2,110.5,650.2,110.2z"/>
	<path class="st0" d="M641.8,110.2c0-0.3,0.9-0.6,2.1-0.6s2.1,0.2,2.1,0.6s-0.9,0.6-2.1,0.6S641.8,110.5,641.8,110.2z"/>
	<path class="st0" d="M633.3,110.2c0-0.3,1-0.6,2.1-0.6s2.1,0.2,2.1,0.6s-0.9,0.6-2.1,0.6S633.3,110.5,633.3,110.2z"/>
	<path class="st0" d="M624.9,110.2c0-0.3,1-0.6,2.1-0.6s2.1,0.2,2.1,0.6s-1,0.6-2.1,0.6S624.9,110.5,624.9,110.2z"/>
	<path class="st0" d="M616.4,110.2c0-0.3,1-0.6,2.1-0.6s2.1,0.2,2.1,0.6s-1,0.6-2.1,0.6S616.4,110.5,616.4,110.2z"/>
	<path class="st0" d="M608,110.2c0-0.3,1-0.6,2.1-0.6s2.1,0.2,2.1,0.6s-1,0.6-2.1,0.6S608,110.5,608,110.2z"/>
	<path class="st0" d="M599.5,110.2c0-0.3,0.9-0.6,2.1-0.6s2.1,0.2,2.1,0.6s-0.9,0.6-2.1,0.6S599.5,110.5,599.5,110.2z"/>
	<path class="st0" d="M591.1,110.2c0-0.3,0.9-0.6,2.1-0.6s2.1,0.2,2.1,0.6s-0.9,0.6-2.1,0.6S591.1,110.5,591.1,110.2z"/>
	<path class="st0" d="M582.6,110.2c0-0.3,1-0.6,2.1-0.6s2.1,0.2,2.1,0.6s-0.9,0.6-2.1,0.6S582.6,110.5,582.6,110.2z"/>
	<path class="st0" d="M574.2,110.2c0-0.3,1-0.6,2.1-0.6s2.1,0.2,2.1,0.6s-1,0.6-2.1,0.6S574.2,110.5,574.2,110.2z"/>
	<path class="st0" d="M565.7,110.2c0-0.3,1-0.6,2.1-0.6s2.1,0.2,2.1,0.6s-1,0.6-2.1,0.6S565.7,110.5,565.7,110.2z"/>
	<path class="st0" d="M559.4,108.1c0.3,0,0.5,1,0.5,2.1c-1.1-1.1-0.3-0.3-0.5-0.6h0.4h0.4c0.2,0,0.4,0.1,0.7,0.1
		c0.4,0.1,0.6,0.2,0.6,0.4s-0.2,0.3-0.6,0.4c-0.2,0.1-0.4,0.1-0.7,0.1h-0.4h-0.4c-0.2-0.2,0.5,0.6-0.5-0.6
		C558.8,109.1,559.1,108.1,559.4,108.1z"/>
	<path class="st0" d="M559.4,99.7c0.3,0,0.5,0.9,0.5,2.1s-0.2,2.1-0.5,2.1s-0.5-0.9-0.5-2.1S559.1,99.7,559.4,99.7z"/>
	<path class="st0" d="M559.4,91.3c0.3,0,0.5,0.9,0.5,2.1s-0.2,2.1-0.5,2.1s-0.5-0.9-0.5-2.1S559.1,91.3,559.4,91.3z"/>
	<path class="st0" d="M559.4,82.9c0.3,0,0.5,0.9,0.5,2.1s-0.2,2.1-0.5,2.1s-0.5-0.9-0.5-2.1S559.1,82.9,559.4,82.9z"/>
	<path class="st0" d="M559.4,74.5c0.3,0,0.5,0.9,0.5,2.1s-0.2,2.1-0.5,2.1s-0.5-0.9-0.5-2.1S559.1,74.5,559.4,74.5z"/>
	<path class="st0" d="M559.4,66.1c0.3,0,0.5,0.9,0.5,2.1s-0.2,2.1-0.5,2.1s-0.5-0.9-0.5-2.1S559.1,66.1,559.4,66.1z"/>
	<path class="st0" d="M559.4,57.7c0.3,0,0.5,0.9,0.5,2.1s-0.2,2.1-0.5,2.1s-0.5-0.9-0.5-2.1S559.1,57.7,559.4,57.7z"/>
	<path class="st0" d="M559.4,49.3c0.3,0,0.5,0.9,0.5,2.1s-0.2,2.1-0.5,2.1s-0.5-0.9-0.5-2.1S559.1,49.3,559.4,49.3z"/>
	<path class="st0" d="M559.4,40.9c0.3,0,0.5,0.9,0.5,2.1s-0.2,2.1-0.5,2.1s-0.5-0.9-0.5-2.1S559.1,40.9,559.4,40.9z"/>
	<path class="st0" d="M561.5,34.6c0,0.3-1,0.5-2.1,0.5c1.1-1.1,0.3-0.3,0.5-0.5l0,0V35c0,0.1,0,0.2,0,0.4c0,0.2-0.1,0.5-0.1,0.7
		c-0.1,0.4-0.2,0.6-0.4,0.6s-0.3-0.2-0.4-0.6c-0.1-0.2-0.1-0.4-0.1-0.7V35v-0.4l0,0c0.2-0.2-0.5,0.5,0.5-0.5
		C560.6,34.1,561.5,34.3,561.5,34.6z"/>
	<path class="st0" d="M570,34.6c0,0.3-1,0.5-2.1,0.5s-2.1-0.2-2.1-0.5s1-0.5,2.1-0.5S570,34.3,570,34.6z"/>
	<path class="st0" d="M578.4,34.6c0,0.3-1,0.5-2.1,0.5s-2.1-0.2-2.1-0.5s1-0.5,2.1-0.5S578.4,34.3,578.4,34.6z"/>
	<path class="st0" d="M586.8,34.6c0,0.3-0.9,0.5-2.1,0.5s-2.1-0.2-2.1-0.5s1-0.5,2.1-0.5S586.8,34.3,586.8,34.6z"/>
	<path class="st0" d="M595.3,34.6c0,0.3-0.9,0.5-2.1,0.5s-2.1-0.2-2.1-0.5s0.9-0.5,2.1-0.5S595.3,34.3,595.3,34.6z"/>
	<path class="st0" d="M603.8,34.6c0,0.3-1,0.5-2.1,0.5s-2.1-0.2-2.1-0.5s0.9-0.5,2.1-0.5S603.8,34.3,603.8,34.6z"/>
	<path class="st0" d="M612.2,34.6c0,0.3-1,0.5-2.1,0.5s-2.1-0.2-2.1-0.5s1-0.5,2.1-0.5S612.2,34.3,612.2,34.6z"/>
	<path class="st0" d="M620.7,34.6c0,0.3-1,0.5-2.1,0.5s-2.1-0.2-2.1-0.5s1-0.5,2.1-0.5S620.7,34.3,620.7,34.6z"/>
	<path class="st0" d="M629.1,34.6c0,0.3-1,0.5-2.1,0.5s-2.1-0.2-2.1-0.5s1-0.5,2.1-0.5S629.1,34.3,629.1,34.6z"/>
	<path class="st0" d="M637.5,34.6c0,0.3-0.9,0.5-2.1,0.5s-2.1-0.2-2.1-0.5s1-0.5,2.1-0.5S637.5,34.3,637.5,34.6z"/>
	<path class="st0" d="M646,34.6c0,0.3-0.9,0.5-2.1,0.5s-2.1-0.2-2.1-0.5s0.9-0.5,2.1-0.5S646,34.3,646,34.6z"/>
	<path class="st0" d="M654.4,34.6c0,0.3-1,0.5-2.1,0.5s-2.1-0.2-2.1-0.5s0.9-0.5,2.1-0.5S654.4,34.3,654.4,34.6z"/>
	<path class="st0" d="M662.9,34.6c0,0.3-1,0.5-2.1,0.5s-2.1-0.2-2.1-0.5s1-0.5,2.1-0.5S662.9,34.3,662.9,34.6z"/>
	<path class="st0" d="M671.3,34.6c0,0.3-1,0.5-2.1,0.5s-2.1-0.2-2.1-0.5s1-0.5,2.1-0.5S671.3,34.3,671.3,34.6z"/>
	<path class="st0" d="M679.8,34.6c0,0.3-1,0.5-2.1,0.5s-2.1-0.2-2.1-0.5s1-0.5,2.1-0.5S679.8,34.3,679.8,34.6z"/>
	<path class="st0" d="M686.1,36.7c-0.3,0-0.5-1-0.5-2.1l0.5,0.5h-0.4h-0.4c-0.2,0-0.4-0.1-0.7-0.1c-0.4-0.1-0.6-0.2-0.6-0.4
		s0.2-0.3,0.6-0.4c0.2-0.1,0.4-0.1,0.7-0.1h0.4h0.4c0.2,0.2-0.5-0.5,0.5,0.5C686.7,35.8,686.4,36.7,686.1,36.7z"/>
	<path class="st0" d="M686.1,45.1c-0.3,0-0.5-0.9-0.5-2.1s0.2-2.1,0.5-2.1s0.5,0.9,0.5,2.1S686.4,45.1,686.1,45.1z"/>
	<path class="st0" d="M686.1,53.5c-0.3,0-0.5-0.9-0.5-2.1s0.2-2.1,0.5-2.1s0.5,0.9,0.5,2.1S686.4,53.5,686.1,53.5z"/>
	<path class="st0" d="M686.1,61.9c-0.3,0-0.5-0.9-0.5-2.1s0.2-2.1,0.5-2.1s0.5,0.9,0.5,2.1S686.4,61.9,686.1,61.9z"/>
	<path class="st0" d="M686.1,70.3c-0.3,0-0.5-0.9-0.5-2.1s0.2-2.1,0.5-2.1s0.5,0.9,0.5,2.1S686.4,70.3,686.1,70.3z"/>
	<path class="st0" d="M686.1,78.7c-0.3,0-0.5-0.9-0.5-2.1s0.2-2.1,0.5-2.1s0.5,0.9,0.5,2.1S686.4,78.7,686.1,78.7z"/>
	<path class="st0" d="M686.1,87.1c-0.3,0-0.5-0.9-0.5-2.1s0.2-2.1,0.5-2.1s0.5,0.9,0.5,2.1S686.4,87.1,686.1,87.1z"/>
	<path class="st0" d="M686.1,95.5c-0.3,0-0.5-0.9-0.5-2.1s0.2-2.1,0.5-2.1s0.5,0.9,0.5,2.1S686.4,95.5,686.1,95.5z"/>
	<path class="st0" d="M686.1,103.9c-0.3,0-0.5-0.9-0.5-2.1s0.2-2.1,0.5-2.1s0.5,0.9,0.5,2.1S686.4,103.9,686.1,103.9z"/>
	<rect x="556.4" y="106.6" class="st0" width="6" height="6"/>
	<rect x="556.4" y="31.6" class="st0" width="6" height="6"/>
	<rect x="683.1" y="31.6" class="st0" width="6" height="6"/>
	<rect x="683.1" y="106.3" class="st0" width="6" height="6"/>
	<rect x="619.7" y="106.3" class="st0" width="6" height="6"/>
	<rect x="619.7" y="31.6" class="st0" width="6" height="6"/>
	<rect x="556.4" y="69.4" class="st0" width="6" height="6"/>
	<rect x="683.1" y="69.4" class="st0" width="6" height="6"/>
	<polygon class="st0" points="46.2,54.2 133.1,54.2 133.1,180.1 46.8,180.1 	"/>
	<rect x="39.7" y="54.8" class="st1" width="86.1" height="124.8"/>
	<path class="st0" d="M126.4,54.2v126H39.1v-126H126.4z M125.2,178.9V55.4H40.3v123.6H125.2z"/>
	<rect x="50.4" y="68.3" class="st1" width="64.7" height="97.7"/>
	<path class="st0" d="M50.4,68.3c0,0,0,0.2,0,0.5s0,0.8,0,1.4c0,1.2,0,3,0,5.4c0,4.7,0,11.5,0.1,20.1c0,17.2,0.1,41.6,0.1,70.4
		l-0.3-0.3H115l0,0l-0.3,0.3c0-36.9,0-70.9,0.1-97.7l0.2,0.2l-47-0.2l-13-0.1h-3.4C50.8,68.3,50.4,68.3,50.4,68.3l1.2,0.1h3.4
		l13-0.1l47.2-0.3h0.2v0.2c0,26.9,0,60.9,0.1,97.7v0.3h-0.3H50.4h-0.3V166c0.1-28.8,0.1-53.3,0.1-70.6c0-8.6,0.1-15.4,0.1-20.1
		c0-2.3,0-4.1,0-5.3c0-0.6,0-1,0-1.3S50.4,68.3,50.4,68.3z"/>
	<path class="st0" d="M39.5,179.5c0.4-0.8,0.8-1.5,1.4-2.1c0.9-1.3,2.2-3,3.7-4.9s2.9-3.5,4-4.7c0.5-0.7,1.1-1.3,1.8-1.8
		c0.1,0.1-2.3,3.1-5.3,6.9S39.6,179.6,39.5,179.5z"/>
	<path class="st0" d="M39.7,54.8c2,2.1,3.9,4.3,5.6,6.6c3,3.7,5.2,6.8,5.1,7c-2-2.1-3.9-4.3-5.6-6.6C41.8,58,39.5,54.9,39.7,54.8z"
		/>
	<path class="st1" d="M125.8,54.9l-11.3,13.9"/>
	<path class="st0" d="M114.5,68.8c-0.1-0.1,2.3-3.3,5.4-7.1c1.8-2.4,3.8-4.6,5.9-6.8c0.1,0.1-2.3,3.3-5.4,7.2S114.6,68.9,114.5,68.8
		z"/>
	<path class="st0" d="M125.8,179.5c-0.1,0.1-2.6-2.8-5.5-6.5s-5.2-6.8-5-6.9s2.6,2.8,5.5,6.5C122.6,174.8,124.3,177.1,125.8,179.5z"
		/>
	<path class="st0" d="M86.9,118.6H75.5l-1.4,3.1c-0.4,0.8-0.6,1.7-0.7,2.6c0,0.8,0.4,1.6,1.1,2c1,0.4,2.1,0.6,3.2,0.6v0.9H67v-0.9
		c1.1-0.1,2.1-0.6,2.8-1.4c1.2-1.5,2.1-3.1,2.8-4.9l11.6-25.7h0.4l11.6,26.4c0.6,1.7,1.6,3.3,2.8,4.7c0.6,0.5,1.4,0.8,2.3,0.9v0.9
		H85.7v-0.9h0.7c0.9,0.1,1.8-0.1,2.6-0.5c0.3-0.3,0.5-0.7,0.5-1.1c0-0.3-0.1-0.6-0.2-0.9c0-0.1-0.3-0.7-0.7-1.8L86.9,118.6z
		 M86.1,116.8l-4.8-11.1l-4.9,11.1H86.1z"/>
	<polygon class="st2" points="622.9,393.2 622.9,418.4 659.7,418.4 700.3,418.4 700.3,393.2 	"/>
	<polygon class="st0" points="619.6,386.2 619.6,393.2 703,393.2 703,386.2 659.7,386.2 	"/>
	<polygon class="st0" points="661.3,418.4 700.3,418.4 700.3,393.2 703,393.2 703,386.2 659.7,386.2 659.7,392.5 	"/>
	<rect x="633.7" y="397.3" class="st0" width="15.7" height="3.8"/>
	<rect x="631.7" y="405.8" class="st1" width="20.2" height="8"/>
	<path class="st0" d="M712,472.5l-1.6-345.1h-6.7v68h-17.3l-0.3-68h-6.7v68H620l-0.3-68H613v68h-17.2l-0.3-68h-6.7v345.1h8.3
		l-0.2-46.3h16.1v46.3h8.3l-0.2-46.3h58.3v46.3h8.3l-0.2-46.3h16.2v46.3H712z M604.6,380.5l-6-25.6h12.3L604.6,380.5z M613.1,356.5
		V417l-7.2-31L613.1,356.5z M613.1,268.7l-7.2-31l7.2-29.4V268.7z M611.8,274.3h-14.9l7.7-31.1L611.8,274.3z M604.6,232.3l-6.9-29.3
		h14L604.6,232.3z M603.2,237.7l-7,28.7l-0.3-60.1L603.2,237.7z M596.6,357.6l6.6,28.4l-6.4,25.9L596.6,357.6z M604.5,391.4
		l6.4,27.4h-13.1L604.5,391.4z M596.8,347.4l0-0.2l-0.2,0l-0.3-65.4H613v65.7L596.8,347.4z M620.5,281.7h59v65.7h-58.7L620.5,281.7z
		 M694.7,243.1l7.3,31.1H687L694.7,243.1z M686.7,264.7l-0.3-56.6l6.9,29.6L686.7,264.7z M703.7,270.7l-7.7-33l7.7-31.3V270.7z
		 M703.7,274.1v0.1h-0.5L703.7,274.1z M703.7,358.3V415l-6.8-29.1L703.7,358.3z M695.7,380.5l-6-25.6h12.2L695.7,380.5z
		 M694.8,232.2l-6.9-29.2h14L694.8,232.2z M703.8,281.7v65.7h-15.9l-0.1-0.2l-0.7,0.2l-0.3-65.6L703.8,281.7z M694.4,385.9
		l-6.8,27.8l-0.3-58.4L694.4,385.9z M695.6,391.3l6.4,27.4h-13.2L695.6,391.3z M679.4,203v71.2h-59l-0.3-71.2H679.4z M622.2,418.7
		h-1.1l-0.3-63.8h58.6v63.8H622.2z"/>
	<rect x="663.2" y="223.1" class="st0" width="11" height="51.4"/>
	<path class="st3" d="M671.1,262.2c0,1.2-1,2.2-2.2,2.2c-1.2,0-2.2-1-2.2-2.2c0-1.2,1-2.2,2.2-2.2c0,0,0,0,0,0
		C670.1,260,671.1,261,671.1,262.2z"/>
	<rect x="667.2" y="236.7" class="st3" width="3.4" height="21"/>
	<rect x="652" y="223.1" class="st4" width="11" height="51.4"/>
	<path class="st3" d="M659.9,262.2c0,1.2-1,2.2-2.2,2.2c-1.2,0-2.2-1-2.2-2.2c0-1.2,1-2.2,2.2-2.2c0,0,0,0,0,0
		C658.9,260,659.9,261,659.9,262.2z"/>
	<rect x="656" y="236.7" class="st3" width="3.4" height="21"/>
	<rect x="641.3" y="223.1" class="st2" width="11" height="51.4"/>
	<path class="st0" d="M649.2,262.2c0,1.2-1,2.2-2.2,2.2c-1.2,0-2.2-1-2.2-2.2c0-1.2,1-2.2,2.2-2.2c0,0,0,0,0,0
		C648.3,260,649.2,261,649.2,262.2z"/>
	<rect x="645.3" y="236.7" class="st0" width="3.4" height="21"/>
	<polygon class="st2" points="627.7,273.8 640.9,228.5 636.4,226.5 622.8,272.1 	"/>
	<polygon class="st2" points="608,347.4 608,339.6 663,339.6 663.2,347.4 	"/>
	<path class="st1" d="M663.1,340.9c0,0-48.8,0.4-52,1.1c-0.7,0.2-1.4,3.1,0,3.4s52,0.7,52,0.7V340.9z"/>
	<polygon class="st4" points="614.4,339.3 614.4,331.5 658,331.5 658.1,339.3 	"/>
	<path class="st3" d="M658,332.8c0,0-38.6,0.4-41.2,1.1c-0.5,0.2-1.1,3.2,0,3.4S658,338,658,338V332.8z"/>
	<polygon class="st0" points="614.2,331.6 614.2,323.8 657.8,323.8 657.9,331.6 	"/>
	<path class="st3" d="M657.8,325.1c0,0-38.6,0.4-41.1,1.1c-0.5,0.2-1.1,3.2,0,3.4s41.1,0.7,41.1,0.7V325.1z"/>
	<rect x="668.2" y="145" class="st2" width="11" height="51.4"/>
	<path class="st0" d="M676.1,184.1c0,1.2-1,2.2-2.2,2.2c-1.2,0-2.2-1-2.2-2.2c0-1.2,1-2.2,2.2-2.2c0,0,0,0,0,0
		C675.1,181.9,676.1,182.9,676.1,184.1z"/>
	<rect x="672.1" y="158.6" class="st0" width="3.4" height="21"/>
	<rect x="657" y="145" class="st4" width="11" height="51.4"/>
	<path class="st3" d="M664.9,184.1c0,1.2-1,2.2-2.2,2.2c-1.2,0-2.2-1-2.2-2.2c0-1.2,1-2.2,2.2-2.2c0,0,0,0,0,0
		C663.9,181.9,664.9,182.9,664.9,184.1z"/>
	<rect x="660.9" y="158.6" class="st3" width="3.4" height="21"/>
	<rect x="646.3" y="145" class="st0" width="11" height="51.4"/>
	<path class="st3" d="M654.2,184.1c0,1.2-1,2.2-2.2,2.2c-1.2,0-2.2-1-2.2-2.2c0-1.2,1-2.2,2.2-2.2c0,0,0,0,0,0
		C653.2,181.9,654.2,182.9,654.2,184.1z"/>
	<rect x="650.2" y="158.6" class="st3" width="3.4" height="21"/>
	<path class="st2" d="M103.2,464.1c-1.3-1.1-4.3-4.8-2-8.9c0.8-1.5,2.6-2.3,4.2-3c1.7-0.6,3.2-1.4,4.6-2.4c2.5-2.1,3.2-5.7,4.9-8.5
		c1.9-3.3,5.5-5.7,9.3-5.5c4.3,0.2,7.9,3.7,9.6,7.8s1.7,8.5,1.7,12.8c0,2.4-0.1,5.1-1.9,6.7s-4.1,1.5-6.3,1.5l-23.6-0.7"/>
	<path class="st0" d="M148.4,399.1H86.2l11.2,66.7c0.5,2.8,2.5,5.2,5.3,5.9l0.2,0.1c0.2,0.1,0.4,0.1,0.6,0.1
		c0.4,0.1,0.8,0.1,1.3,0.1v0.1h0.3h27.7c0.5,0,1,0,1.5-0.1c3.3-0.5,5.9-3.2,6.3-6.5l5.4-46l0.2-1.8l0,0l2.1-18.2L148.4,399.1z
		 M136.6,441.7h-6.4l0.6-19.4h7.4L136.6,441.7z M138.9,422.3h6.1l-2.3,19.4h-5.5L138.9,422.3z M120.7,463.2l-0.4-16.8h9.2l-0.6,16.8
		H120.7z M110.8,446.3h8.9l0.4,16.8h-8L110.8,446.3z M111.5,463.2H104c-0.7-4.5-1.6-10.4-2.6-16.8h8.8L111.5,463.2z M110.5,441.7
		l-1.5-19.4h10.2l0.4,19.4H110.5z M120.2,441.7l-0.4-19.4h10.5l-0.6,19.4H120.2z M119.7,417.7l-0.4-17.9H131l-0.6,17.9H119.7z
		 M119.1,417.7h-10.5l-1.4-17.9h11.5L119.1,417.7z M108,417.7H96.8c-0.4-2.5-0.8-4.8-1.1-6.9c-1.2-7.3-1.6-10-1.8-11h12.6L108,417.7
		z M108.3,422.3l1.5,19.4h-9.2c-0.3-2-0.6-4-0.9-5.9c-0.7-4.6-1.4-9.1-2.1-13.4H108.3z M100,441.7h-6l-3.2-19.4H97
		C97.9,428.3,98.9,435,100,441.7z M100.7,446.3c0.9,5.8,1.8,11.6,2.6,16.8h-5.8l-2.8-16.8H100.7z M129.6,463.2l0.6-16.8h6.1
		l-1.4,16.8H129.6z M131.1,417.7l0.6-17.9h8.6l-1.5,17.9H131.1z M93.3,399.7c0.2,1.3,1.4,8.4,2.9,17.9H90l-3-17.9H93.3z
		 M140.2,463.2h-4.8l1.4-16.8h5.3L140.2,463.2z M145.6,417.7h-6.2l1.5-17.9h6.8L145.6,417.7z"/>
</g>
<g id="freepik--Screen--inject-13">
	<polygon class="st3" points="598.8,43.7 152.9,43.7 152.9,304.1 394.8,304.1 410.9,318.9 424.9,304.1 598.8,304.1 	"/>
	<rect x="152.9" y="43.7" class="st0" width="446" height="19.2"/>
	<circle class="st5" cx="163.9" cy="53.7" r="2.5"/>
	<circle class="st5" cx="173.2" cy="53.7" r="2.5"/>
	<circle class="st5" cx="182.5" cy="53.7" r="2.5"/>
	<path class="st5" d="M376.5,85.2c0,0.1-8.8,0.3-19.7,0.3s-19.7-0.1-19.7-0.3s8.8-0.3,19.7-0.3S376.5,85,376.5,85.2z"/>
	<path class="st5" d="M428.8,85.2c0,0.1-8.8,0.3-19.6,0.3s-19.7-0.1-19.7-0.3s8.8-0.3,19.7-0.3S428.8,85,428.8,85.2z"/>
	<path class="st5" d="M481.1,85.2c0,0.1-8.8,0.3-19.7,0.3s-19.7-0.1-19.7-0.3s8.8-0.3,19.7-0.3S481.1,85,481.1,85.2z"/>
	<path class="st5" d="M533.8,85.2c0,0.1-8.8,0.3-19.7,0.3s-19.7-0.1-19.7-0.3s8.8-0.3,19.7-0.3C525,84.9,533.8,85,533.8,85.2z"/>
	<path class="st6" d="M222.6,105.7v13.4c0,1.3,1,2.4,2.3,2.4c0,0,0,0,0,0h15.1l3.8,4.8l4.1-4.6h15.7c1.3,0,2.4-1.1,2.4-2.4v-13.6
		c0-1.3-1.1-2.4-2.4-2.4l-38.8,0.1C223.7,103.4,222.6,104.4,222.6,105.7z"/>
	<path class="st1" d="M231.7,116.3h-2.3v-2.1l5.2-5.7h0.1c0.6-0.2,1.2-0.1,1.7,0.2c0.4,0.5,0.6,1.2,0.5,1.8v0.1L231.7,116.3z
		 M230.2,115.6h1.2l4.8-5.3c0.1-0.4,0-0.7-0.2-1c-0.3-0.2-0.6-0.2-0.9-0.1l-4.9,5.3V115.6z"/>
	<path class="st1" d="M246.5,114.9v0.7h-4.3v-5.9h4.2v0.7H243v1.8h3v0.7h-3v1.9L246.5,114.9z"/>
	<path class="st1" d="M251.9,109.3v6.3h-0.8v-0.7c-0.4,0.5-1,0.8-1.6,0.8c-1.3-0.1-2.2-1.2-2.1-2.4c0.1-1.2,1-2.1,2.1-2.1
		c0.6,0,1.2,0.2,1.6,0.7v-2.5L251.9,109.3z M251.1,113.3c0.1-0.8-0.4-1.6-1.3-1.7c-0.8-0.1-1.6,0.4-1.7,1.3c0,0.2,0,0.3,0,0.5
		c-0.1,0.8,0.4,1.6,1.3,1.7c0.8,0.1,1.6-0.4,1.7-1.3C251.1,113.7,251.1,113.5,251.1,113.3z"/>
	<path class="st1" d="M253.3,109.8c0-0.3,0.2-0.5,0.5-0.5c0,0,0,0,0,0c0.3,0,0.5,0.2,0.5,0.5c0,0,0,0,0,0c0,0.3-0.2,0.6-0.6,0.6
		S253.3,110,253.3,109.8L253.3,109.8z M253.4,111.2h0.8v4.5h-0.8V111.2z"/>
	<path class="st1" d="M258.4,115.4c-0.3,0.2-0.6,0.3-1,0.3c-0.7,0.1-1.3-0.4-1.4-1.1c0-0.1,0-0.2,0-0.3v-2.5h-0.8v-0.7h0.8v-1h0.8v1
		h1.3v0.7h-1.3v2.4c0,0.5,0.2,0.8,0.7,0.8c0.2,0,0.5-0.1,0.6-0.2L258.4,115.4z"/>
	<path class="st6" d="M333.9,273.8H186.5V125.9h147.5V273.8z M187.5,272.8h145.5V126.9H187.5L187.5,272.8z"/>
	<path class="st6" d="M261.8,276.1h-5.1v-5h5.1V276.1z M257.7,275.1h3.1v-3h-3.1V275.1z"/>
	<path class="st6" d="M336,194.8h-5.1v-5h5.1V194.8z M331.9,193.8h3.1v-3h-3.1V193.8z"/>
	<path class="st6" d="M189,194.8h-5.1v-5h5.1V194.8z M184.9,193.8h3.1v-3h-3.1L184.9,193.8z"/>
	<path class="st6" d="M558.1,202.6H362.4v-47.2h195.7V202.6z M363.4,201.6h193.7v-45.2H363.4V201.6z"/>
	<path class="st5" d="M559.5,221.8c0,0.1-42.7,0.3-95.4,0.3s-95.4-0.1-95.4-0.3s42.7-0.3,95.4-0.3S559.5,221.6,559.5,221.8z"/>
	<path class="st0" d="M558.5,250.8c0,0.1-42.7,0.3-95.4,0.3s-95.4-0.1-95.4-0.3s42.7-0.3,95.4-0.3S558.5,250.7,558.5,250.8z"/>
	<path class="st0" d="M558.5,258.5c0,0.1-42.7,0.3-95.4,0.3s-95.4-0.1-95.4-0.3s42.7-0.3,95.4-0.3S558.5,258.3,558.5,258.5z"/>
	<path class="st5" d="M465.3,231.9c0,0.1-21.6,0.3-48.3,0.3s-48.3-0.1-48.3-0.3s21.6-0.3,48.3-0.3S465.3,231.7,465.3,231.9z"/>
	<path class="st5" d="M577,283.3h-5v-1h5V283.3z M567,283.3h-5v-1h5V283.3z M557,283.3h-5v-1h5V283.3z M547,283.3h-5v-1h5V283.3z
		 M577.5,282.2h-1v-5h1V282.2z M538.6,281.7h-1v-5h1V281.7z M577.5,272.2h-1v-5h1V272.2z M538.6,271.7h-1v-5h1V271.7z M577.5,262.2
		h-1v-5h1V262.2z M538.6,261.7h-1v-5h1V261.7z M577.5,252.2h-1v-5h1V252.2z M538.6,251.7h-1v-5h1V251.7z M575.3,244.4h-5v-1h5V244.4
		z M565.3,244.4h-5v-1h5V244.4z M555.3,244.4h-5v-1h5V244.4z M545.3,244.4h-5v-1h5V244.4z"/>
	<path class="st5" d="M538.4,248c-2,0-3.7-1.6-3.7-3.7s1.6-3.7,3.7-3.7s3.7,1.6,3.7,3.7v0C542.1,246.4,540.4,248,538.4,248z
		 M538.4,241.6c-1.5,0-2.7,1.2-2.7,2.7c0,1.5,1.2,2.7,2.7,2.7c1.5,0,2.7-1.2,2.7-2.7c0,0,0,0,0,0C541,242.9,539.9,241.7,538.4,241.6
		L538.4,241.6z"/>
	<path class="st5" d="M576.8,248c-2,0-3.7-1.6-3.7-3.7s1.6-3.7,3.7-3.7s3.7,1.6,3.7,3.7v0C580.4,246.4,578.8,248,576.8,248z
		 M576.8,241.6c-1.5,0-2.7,1.2-2.7,2.7c0,1.5,1.2,2.7,2.7,2.7c1.5,0,2.7-1.2,2.7-2.7c0,0,0,0,0,0
		C579.4,242.9,578.2,241.7,576.8,241.6L576.8,241.6z"/>
	<path class="st5" d="M538.4,287.5c-2,0-3.7-1.6-3.7-3.7c0-2,1.6-3.7,3.7-3.7c2,0,3.7,1.6,3.7,3.7c0,0,0,0,0,0
		C542.1,285.8,540.4,287.5,538.4,287.5z M538.4,281.1c-1.5,0-2.7,1.2-2.7,2.7s1.2,2.7,2.7,2.7c1.5,0,2.7-1.2,2.7-2.7l0,0
		C541.1,282.3,539.9,281.1,538.4,281.1z"/>
	<path class="st5" d="M576.8,287.5c-2,0-3.7-1.6-3.7-3.7c0-2,1.6-3.7,3.7-3.7c2,0,3.7,1.6,3.7,3.7c0,0,0,0,0,0
		C580.4,285.8,578.8,287.5,576.8,287.5z M576.8,281.1c-1.5,0-2.7,1.2-2.7,2.7s1.2,2.7,2.7,2.7c1.5,0,2.7-1.2,2.7-2.7l0,0
		C579.4,282.3,578.2,281.1,576.8,281.1z"/>
	<path class="st5" d="M556.7,256.2h-7.2v-3.4h18.4v3.4h-7.2v18.3h-4L556.7,256.2z"/>
	<path class="st5" d="M579.6,91.4c0,0,0.3,0,0.9-0.2c0.9-0.2,1.7-0.7,2.3-1.4c0.4-0.5,0.7-1.1,0.9-1.7c0.2-0.8,0.2-1.5,0.1-2.3
		c-0.1-1.6,0.4-3.8-1.1-5.3c-0.7-0.8-1.7-1.3-2.8-1.4c-1.1,0-2.4,0-3.6,0h-8H550c-1.5,0-3,0.9-3.7,2.2c-0.3,0.7-0.5,1.4-0.5,2.2v2.3
		c0,0.7,0,1.5,0.1,2.2c0.2,0.7,0.5,1.3,1,1.8c0.5,0.5,1.1,0.9,1.8,1.1c0.7,0.2,1.3,0.2,2,0.2l15,0.1l10.1,0.1h2.8h0.7L579.6,91.4
		c-0.1-0.1-0.2-0.1-0.3-0.1h-0.7l-2.8,0.1l-10.1,0.1l-15,0.1c-0.7,0.1-1.5,0-2.2-0.2c-1.5-0.5-2.7-1.7-3.1-3.2
		c-0.1-0.4-0.2-0.8-0.2-1.2v-3.3c-0.1-2.6,1.8-4.8,4.4-4.9c0.1,0,0.2,0,0.2,0h18.3h8c1.3,0,2.5,0,3.6,0c1.2,0.1,2.2,0.7,3,1.5
		c0.7,0.8,1.1,1.8,1.1,2.9c0,1,0,1.9,0,2.7c0.1,0.8,0,1.6-0.2,2.4c-0.5,1.6-1.8,2.8-3.4,3.1C580.2,91.4,579.9,91.4,579.6,91.4z"/>
	<path class="st6" d="M271.8,103.3h20c1.9,0,3.5,1.6,3.5,3.5V118c0,1.9-1.6,3.5-3.5,3.5h-20c-1.9,0-3.5-1.6-3.5-3.5v-11.2
		C268.3,104.9,269.9,103.3,271.8,103.3z"/>
	<path class="st1" d="M280.5,116.1h-6v-7.4h6V116.1z M275.5,115.1h4v-5.4h-4V115.1z"/>
	<rect x="276.5" y="107.9" class="st1" width="2" height="1.3"/>
	<rect x="273.5" y="108.7" class="st1" width="7.8" height="1"/>
	<path class="st1" d="M291.1,109.4c0,0.6-0.4,1-1,1s-1-0.4-1-1s0.4-1,1-1S291.1,108.9,291.1,109.4z"/>
	<path class="st1" d="M291.1,112.1c0,0.6-0.4,1-1,1s-1-0.4-1-1s0.4-1,1-1S291.1,111.6,291.1,112.1z"/>
	<path class="st1" d="M291.1,114.8c0,0.6-0.4,1-1,1s-1-0.4-1-1s0.4-1,1-1S291.1,114.2,291.1,114.8z"/>
	<g class="st7">
		<path class="st1" d="M284.9,103.3h6.9c1.9,0,3.5,1.6,3.5,3.5c0,0,0,0,0,0v11.2c0,1.9-1.6,3.5-3.5,3.5l0,0h-6.9l0,0V103.3
			L284.9,103.3z"/>
	</g>
	<rect x="196.5" y="136.1" class="st8" width="127.4" height="123.2"/>
	<g class="st7">
		<polygon points="206.4,248.8 241.6,185.4 270.5,225.9 288,204.4 314,248.8 		"/>
	</g>
	<g class="st7">
		<path d="M282.7,173c0,5.1-4.1,9.2-9.2,9.2s-9.2-4.1-9.2-9.2c0-5.1,4.1-9.2,9.2-9.2c0,0,0,0,0,0C278.6,163.8,282.7,167.9,282.7,173
			z"/>
	</g>
	<g class="st7">
		<path d="M314,145.8l-107.6-0.1c0.1-0.1-1.2,1.2-0.6,0.6v13.9c0,4.6,0,9.2,0,13.7c0,9.1,0,17.9,0,26.6c0,17.3,0,33.6,0.1,48.6v0.5
			h0.5l78.2-0.3l21.8-0.1l5.7-0.1h1.5c0.2,0,0.3,0,0.5,0h-0.5h-1.5l-5.8-0.1l-22-0.1l-77.3-0.3c0-14.9,0-31,0.1-48.1
			c0-8.6,0-17.5,0-26.6v-27.2l106.5-0.1c0.1,30.6,0.2,56,0.3,73.9c0,9,0.1,16,0.1,20.9c0,2.4,0,4.2,0.1,5.6c0,0.6,0,1.1,0,1.4
			c0,0.2,0,0.3,0,0.5c0-0.1,0-0.3,0-0.4c0-0.4,0-0.8,0-1.4c0-1.3,0-3.1,0.1-5.4c0-4.9,0.1-11.9,0.1-20.8c0.1-18.1,0.2-43.8,0.3-74.7
			v-0.5L314,145.8z"/>
	</g>
	<path class="st6" d="M382.4,130.4H522c2.3,0,4.1,1.8,4.1,4.1v10.1c0,2.3-1.8,4.1-4.1,4.1H382.4c-2.3,0-4.1-1.8-4.1-4.1v-10.1
		C378.3,132.2,380.1,130.4,382.4,130.4z"/>
	<g class="st7">
		<rect x="382.9" y="133.8" class="st1" width="48.3" height="10.7"/>
	</g>
	<path class="st1" d="M387.9,137.8h-1.7v-0.6h4.2v0.6h-1.7v4.4h-0.7V137.8z"/>
	<path class="st1" d="M390.8,137.2c0-0.3,0.2-0.5,0.5-0.5s0.5,0.2,0.5,0.5l0,0c0,0.3-0.2,0.5-0.5,0.5S390.8,137.5,390.8,137.2z
		 M390.9,138.4h0.7v3.8h-0.7V138.4z"/>
	<path class="st1" d="M395.1,142c-0.2,0.2-0.5,0.3-0.8,0.3c-0.6,0.1-1.1-0.4-1.2-1c0-0.1,0-0.2,0-0.2V139h-0.6v-0.6h0.6v-0.8h0.7
		v0.8h1.1v0.6h-1.1v2.1c0,0.3,0.2,0.6,0.5,0.6c0,0,0.1,0,0.1,0c0.2,0,0.4-0.1,0.5-0.2L395.1,142z"/>
	<path class="st1" d="M395.9,136.9h0.7v5.4h-0.7V136.9z"/>
	<path class="st1" d="M401.4,140.6h-3.1c0.1,0.7,0.7,1.2,1.4,1.1c0.4,0,0.8-0.2,1.1-0.5l0.4,0.4c-0.8,0.8-2.1,0.8-3,0
		c-0.4-0.4-0.6-0.8-0.6-1.4c-0.1-1,0.7-1.9,1.7-2c0.1,0,0.1,0,0.2,0c1,0,1.9,0.8,1.9,1.8c0,0.1,0,0.1,0,0.2
		C401.4,140.4,401.4,140.5,401.4,140.6z M398.3,140.1h2.5c-0.1-0.7-0.7-1.2-1.4-1.1C398.8,139.1,398.4,139.5,398.3,140.1z"/>
	<polygon class="st1" points="423.5,138.8 428.1,138.8 425.8,141 	"/>
	<path class="st1" d="M445,140.7c0,0.9-0.8,1.5-2.2,1.5h-2.9v-5.3h2.7c1.4,0,2.1,0.6,2.1,1.4c0,0.5-0.3,0.9-0.7,1.2
		C444.6,139.6,445,140.1,445,140.7z M441.4,138v1h1c0.5,0,0.8-0.2,0.8-0.5s-0.3-0.5-0.8-0.5L441.4,138z M443.5,140.6
		c0-0.4-0.3-0.6-0.8-0.6h-1.3v1.1h1.3C443.2,141.1,443.5,140.9,443.5,140.6L443.5,140.6z"/>
	<path class="st1" d="M453.3,136.8h0.4l-1.1,5.3h-0.4L453.3,136.8z"/>
	<rect x="461.2" y="133.7" class="st1" width="1" height="11.5"/>
	<rect x="484.4" y="133.4" class="st1" width="1" height="11.5"/>
	<rect x="505.9" y="133.7" class="st1" width="1" height="11.5"/>
	<rect x="467.6" y="136.5" class="st1" width="6.3" height="1"/>
	<rect x="467.6" y="140.2" class="st1" width="6.3" height="1"/>
	<rect x="467.6" y="138.4" class="st1" width="3.2" height="1"/>
	<polygon class="st1" points="477.8,138.8 481.2,138.8 479.5,140.3 	"/>
	<polygon class="st1" points="494.2,141.6 488.4,141.6 488.4,136.9 491.4,136.9 491.4,137.9 489.4,137.9 489.4,140.6 493.2,140.6 
		493.2,139.6 494.2,139.6 	"/>
	<polygon class="st1" points="497.5,141.6 495.1,141.6 495.1,140.6 496.5,140.6 496.5,137.9 492.8,137.9 492.8,139.1 491.8,139.1 
		491.8,136.9 497.5,136.9 	"/>
	<polygon class="st1" points="499.9,138.9 503,138.9 501.4,140.3 	"/>
	<path class="st1" d="M517.6,142.9h-5.3v-6.5h5.3V142.9z M513.3,141.9h3.3v-4.5h-3.3V141.9z"/>
	<rect x="514.1" y="135.8" class="st1" width="1.7" height="1.1"/>
	<rect x="511.6" y="136.4" class="st1" width="6.7" height="1"/>
	<polygon class="st6" points="454.5,147.6 460.4,154.1 466.2,147.5 	"/>
	<rect x="469.2" y="163.2" class="st0" width="83.2" height="34.5"/>
	<path class="st5" d="M385.1,183.1v7.2h-3V183l-8.3-13.6h3.2l6.7,11l6.7-11h3L385.1,183.1z"/>
	<path class="st5" d="M393.8,179.9c0-6.1,4.7-10.7,11.1-10.7s11.1,4.5,11.1,10.7s-4.7,10.7-11.1,10.7S393.8,186,393.8,179.9z
		 M413,179.9c0.1-4.5-3.5-8.2-8-8.3s-8.2,3.5-8.3,8c-0.1,4.5,3.5,8.2,8,8.3c0.1,0,0.1,0,0.2,0c4.3,0.1,7.9-3.3,8.1-7.6
		C413,180.1,413,180,413,179.9L413,179.9z"/>
	<path class="st5" d="M420.4,181.3v-11.9h3v11.8c0,4.6,2.1,6.7,5.9,6.7s5.9-2.1,5.9-6.7v-11.8h2.9v11.9c0,6.1-3.3,9.3-8.8,9.3
		S420.4,187.3,420.4,181.3z"/>
	<path class="st5" d="M458.2,190.3l-4.5-6.4c-0.4,0-0.9,0.1-1.3,0.1h-5.2v6.4h-3v-20.9h8.1c5.4,0,8.7,2.8,8.7,7.3
		c0.1,3-1.7,5.7-4.6,6.6l5,7L458.2,190.3z M458.1,176.7c0-3-2-4.7-5.8-4.7h-5.1v9.4h5.1C456.1,181.4,458.1,179.7,458.1,176.7
		L458.1,176.7z"/>
	<path class="st5" d="M479.4,173.3h-6.7l0.8-3.9h18.2l-0.8,3.9h-6.7l-3.4,17h-4.8L479.4,173.3z"/>
	<path class="st5" d="M498.4,173.3l-0.9,4.5h9.7l-0.8,3.8h-9.7l-1,4.8h11.5l-0.8,3.9h-16.2l4.2-20.9h15.8l-0.8,3.9H498.4z"/>
	<path class="st5" d="M523,179.8l5.7,10.5h-5.2l-3.7-7.1l-6.3,7.1h-5.8l10-10.8l-5.4-10.1h5.2l3.5,6.7l6.1-6.7h5.5L523,179.8z"/>
	<path class="st5" d="M538.2,173.3h-6.7l0.8-3.9h18.2l-0.8,3.9h-6.7l-3.4,17h-4.8L538.2,173.3z"/>
	<circle class="st0" cx="188.5" cy="85.2" r="8.5"/>
	<path class="st5" d="M598.8,43.7c0,1.6,0.1,101,0.2,260.4v0.2h-0.2H424.9l0.2-0.1l-14,14.8l-0.2,0.2l-0.2-0.2l-16.1-14.8l0.2,0.1
		H159h-6.4V304c0-92.2,0-180.1,0-260.4v-0.2h0.2L598.8,43.7L152.9,44l0.2-0.2c0,80.2,0,168.2,0,260.4l-0.3-0.3h242l0.1,0.1
		l16.1,14.8h-0.3l14-14.8l0.1-0.1h0.1h173.9l-0.2,0.2C598.7,144.7,598.8,45.3,598.8,43.7z"/>
</g>
<g id="freepik--Plant--inject-13">
	<path class="st6" d="M165.7,387.4c-3.9-2.5-8.4-4-13-4.5c-2.1-0.2-4.4-0.2-6.1,1.1c-0.4,0.2-0.6,0.7-0.6,1.1
		c0.1,0.3,0.3,0.6,0.6,0.8C152.1,390,159.5,390.5,165.7,387.4"/>
	<path class="st6" d="M165.4,387.1c-3-2.2-5.8-4.7-8.4-7.4c-2.6-2.7-4.4-6.1-5.2-9.7c-0.3-1.1-0.2-2.3,0.4-3.2
		C158.8,371.9,164.1,378.7,165.4,387.1"/>
	<path class="st6" d="M165.6,387.4c-0.6-3.6-0.6-7.4,0.2-11c0.7-3.7,2.8-6.9,5.9-9.1c1.2,2.7,0.7,5.8-0.1,8.6
		c-1.3,4.4-3.2,8.5-5.8,12.2"/>
	<path class="st6" d="M172.2,399.1c-3.9,0.6-7.6,2.5-10.4,5.3c-3,2.7-5.1,6.3-6,10.2c3.9-0.2,7.2-3,9.6-6.1s4.1-6.5,6.7-9.4"/>
	<path class="st6" d="M173.6,401c-3.2-8.1-2-17.2,3-24.3C178.9,384.8,178,393.9,173.6,401"/>
	<path class="st6" d="M182.3,411.3c-7.4-0.5-14.4,3.6-17.8,10.2c-0.3,0.4-0.3,0.9-0.1,1.4c0.3,0.3,0.8,0.4,1.2,0.3
		c3.5-0.2,6.6-2.3,9.2-4.7S179.5,413.4,182.3,411.3"/>
	<path class="st6" d="M182,410.7c-1.9-6-2-12.4-0.3-18.5c0.6-2.4,1.7-4.9,3.9-6c0.2-0.1,0.4-0.2,0.6-0.1c0.2,0.1,0.3,0.3,0.4,0.4
		c0.7,1.7,1.1,3.5,0.9,5.3c-0.1,1.8-0.4,3.6-0.8,5.4c-0.7,3.3-1.1,6.8-2.9,9.6c-0.4,0.7-0.8,1.4-1.1,2.1c-0.3,0.7-0.3,1-0.7,1.5"/>
	<path class="st6" d="M204.9,414.2c-1.6-6.8,0-14,4.2-19.6c0.3-0.4,0.7-0.8,1.2-0.8c0.8,0.1,0.9,1.1,0.9,1.8
		C210.9,402.3,208.7,408.7,204.9,414.2"/>
	<path class="st6" d="M207,415.6c8.1,1.9,16.6,0.2,23.4-4.8c-3.9-2-8.4-2.5-12.6-1.6C213.5,410.3,209.6,412.1,207,415.6"/>
	<path class="st6" d="M208.7,411.3c4.4-7.2,12.8-11.8,21.2-12.3c-1,3.4-3.8,6.1-6.9,7.7c-3.2,1.5-6.7,2.5-10.2,3
		C211.4,409.9,209.6,410.2,208.7,411.3"/>
	<path class="st6" d="M205.3,390.4c1.3-4,2.2-8.2,2.7-12.4c0.5-4.3-0.4-8.5-2.5-12.3c-4.1,7.9-4.5,17.2-0.4,25.1"/>
	<path class="st6" d="M219.1,383.4c4.8-8.7,14.6-15.7,24.5-16.7C239.8,376.3,229.4,383.6,219.1,383.4"/>
	<path class="st6" d="M216.1,385.1c7.2,1.1,13.3,5.7,20,8.4c1.4,0.7,3,1,4.5,0.9c1.9,0,3.5-1.6,3.5-3.6c0-1-0.5-2-1.3-2.7
		c-0.9-0.9-2.1-1.6-3.3-2c-7.3-3-15.1-3.1-22.8-1.3"/>
	<path class="st6" d="M212,390.1c1.6,0.5,2.2,1.3,3.5,2.4c4.4,3.7,9.5,6.4,15.1,7.8c0.6,0.1,1.3,0.2,1.6-0.3s-0.1-1-0.4-1.4
		c-2.4-2.8-5.6-5-9.1-6.2c-3.5-1.3-6.5-2.9-10.7-2.5"/>
	<path class="st6" d="M207.3,359.8c5.9,5.5,13.9,8.2,21.9,7.5c0.4,0,0.7-0.1,1-0.4c0.6-0.6-0.1-1.5-0.8-2
		C223.1,359.9,215.2,357.8,207.3,359.8"/>
	<path class="st6" d="M212.9,357.8c7.9-5.8,18.1-7.5,27.4-4.5c-3.6,3.3-8.2,5.3-13.1,5.7C222.4,359.4,217.5,359,212.9,357.8"/>
	<path class="st6" d="M210.7,343.9c-0.6-6.4-0.2-11.5-0.7-18c0-0.5-0.1-1.1-0.6-1.3c-0.7-0.3-1.2,0.6-1.5,1.2
		c-1.9,6.1-0.9,12.7,2.8,17.9"/>
	<path class="st6" d="M210.2,344.6c4.2-2.7,7.8-6.2,10.7-10.4c2.1-2.9,3.9-6.3,3.4-9.9c-3,0.1-5.8,1.5-7.7,3.8
		c-1.8,2.3-3.2,5-3.9,7.9C211.8,338.9,211.2,341.8,210.2,344.6"/>
	<path class="st6" d="M220.7,341.7c9.6-3.6,18.5-8.8,26.2-15.5c-3.1-1.3-6.7-0.5-9.9,0.8c-7.1,2.7-13,7.9-16.5,14.6"/>
	<path class="st6" d="M213.1,348.1c4.8,0.7,9.7,0.7,14.6,0.1c4.7-0.8,9.2-2.7,13.6-4.5c0.4-0.1,0.7-0.4,0.9-0.7
		c0.1-0.4,0-0.9-0.3-1.2c-0.3-0.3-0.7-0.5-1.2-0.5c-4.8-1.4-10-0.7-14.7,0.9C221.5,343.7,217.2,345.7,213.1,348.1"/>
	<path class="st6" d="M185.5,360c-3.3-6.7-3.1-14.5-0.2-21.3c2,3.1,2.3,7,1.9,10.6s-1.5,7.4-1.6,11.1"/>
	<path class="st6" d="M172.3,353.4c-8.4-0.1-16.4,3.3-22.1,9.4c4.2,0.5,8.4-0.3,12.1-2.2c3.7-2,7.2-4.3,10.4-7"/>
	<path class="st6" d="M163.4,350.4c-4-0.3-7.9-0.8-11.8,0.4c-4,1.1-7.2,3.9-9,7.6c3.8,0.3,7.6-0.4,11.1-2.1
		C157.1,354.7,160.3,352.7,163.4,350.4"/>
	<path class="st6" d="M176.5,350.6c-3.6-2.4-7.4-4.8-11.6-5.8s-9.1-0.3-12.1,2.9c3.4,2,7.6,2.2,11.6,2.2s8.8,0,12.6,1.3"/>
	<path class="st6" d="M176.6,350.8c-6.2-6.1-8.6-17-6.1-25.4C175.4,332.9,177.5,341.8,176.6,350.8"/>
	<path class="st6" d="M193.6,333.5c1.2-2.7,2-5.6,3-8.4c1-2.8,2.4-5.4,4.4-7.7c1.9-2.3,4.7-3.7,7.7-4c-1.9,8.5-7.4,15.8-14.9,20.1"
		/>
	<path class="st6" d="M190.5,337.1c-1.9-2.7-4.2-6.3-6.8-8.3s-6-3.2-9.3-2.4C177.8,332.3,183.8,336.2,190.5,337.1"/>
	<path class="st6" d="M191.1,333.7c-1.4-3.2-2.4-6.5-3.1-9.9c-0.6-3.4-0.1-7,1.6-10.1c3.4,6.5,4.5,13.4,1.7,20.1"/>
	<path class="st6" d="M193.7,313.7c1.9-6.4,7.8-11.1,14.1-13.2c0.8-0.3,1.6-0.4,2.5-0.4c0.9,0.1,1.6,0.7,1.8,1.5
		c0.2,1.1-0.7,2.1-1.5,2.8C205.6,308.6,199.9,311.7,193.7,313.7"/>
	<path class="st6" d="M193.7,308.5c0.2-4.1,0.5-8.3,1.8-12.2s3.9-7.6,7.7-9.3c0.6,4.2-1.2,8.3-3.4,11.9s-4.9,7-6.2,11"/>
	<path class="st6" d="M193.6,311.3c-1.6-4.6-1.8-10.6-4.6-14.6c-2-2.8-5.1-4.8-6.8-7.8c-1,2.9-0.9,6,0.4,8.8c1.3,2.7,3,5.2,5.2,7.4
		C189.9,307.3,191.7,309,193.6,311.3"/>
	<path class="st5" d="M193.7,448.4c-0.1,0-0.2-31.1-0.2-69.4s0.1-69.4,0.2-69.4s0.2,31,0.2,69.4S193.8,448.4,193.7,448.4z"/>
	<path class="st5" d="M220.8,355.4c-0.4,0.2-0.8,0.3-1.2,0.4l-3.2,1.1c-2.7,0.9-6.4,2.3-10.5,3.9s-7.8,3.1-9.9,5
		c-0.9,0.7-1.5,1.6-2,2.6c-0.3,0.7-0.4,1.2-0.4,1.2s0-0.1,0-0.3c0-0.3,0.1-0.6,0.2-0.9c0.4-1.1,1.1-2,1.9-2.8c1.3-1.1,2.8-2,4.3-2.7
		c1.7-0.8,3.6-1.6,5.7-2.5c4.1-1.7,7.8-3,10.5-3.8c1.4-0.4,2.5-0.7,3.3-1C220,355.5,220.4,355.4,220.8,355.4z"/>
	<path class="st5" d="M229.7,333.5c0,0-0.1,0.1-0.3,0.4l-1,0.9l-3.7,3.4l-12.4,11c-4.8,4.3-9,8.4-11.9,11.5
		c-1.4,1.5-2.6,2.8-3.4,3.7l-0.9,1c-0.1,0.1-0.2,0.2-0.3,0.3c0,0,0.1-0.1,0.3-0.4s0.5-0.6,0.8-1.1c0.7-0.9,1.8-2.2,3.3-3.8
		c3.7-4.1,7.7-7.9,11.9-11.6c4.9-4.3,9.3-8.1,12.5-10.9l3.8-3.3l1.1-0.9C229.4,333.7,229.6,333.6,229.7,333.5z"/>
	<path class="st5" d="M207.1,353.6c-0.1,0,0.9-2.4,1.9-5.3s1.5-5.4,1.6-5.4c-0.1,1.9-0.5,3.8-1.2,5.6c-0.4,1.3-0.9,2.5-1.5,3.7
		C207.7,352.6,207.4,353.1,207.1,353.6z"/>
	<path class="st5" d="M193.7,372.4c-0.3-0.3-0.5-0.5-0.8-0.9l-1.9-2.5c-1.6-2.1-3.8-4.9-6.3-8.1s-4.8-5.9-6.4-8l-1.9-2.4
		c-0.3-0.3-0.5-0.6-0.7-0.9c0.3,0.2,0.6,0.5,0.8,0.8c0.5,0.5,1.2,1.3,2.1,2.3c1.7,2,4,4.8,6.5,7.9s4.7,6,6.2,8.1
		c0.8,1.1,1.4,1.9,1.8,2.5C193.3,371.7,193.5,372,193.7,372.4z"/>
	<path class="st5" d="M187.7,364.7c-1.2-1.3-2.1-2.9-2.5-4.7c-0.5-1.5-0.7-3.1-0.6-4.7h0.2c-0.1,0.4-0.1,0.5-0.2,0.5s0-0.2,0-0.6
		h0.2c0.1,1.6,0.4,3.1,0.8,4.6C186.2,361.6,186.9,363.2,187.7,364.7z"/>
	<path class="st5" d="M180.1,355.1c-0.5-0.4-1.1-0.7-1.7-1c-1.6-0.5-3.2-0.6-4.8-0.4c-1.6,0.1-3.3,0.4-4.9,0.8
		c-0.7,0.2-1.3,0.4-2,0.5c0.6-0.4,1.2-0.6,1.9-0.8c1.6-0.5,3.2-0.8,4.9-0.9c1.7-0.2,3.4,0,5,0.5C179.1,354,179.7,354.5,180.1,355.1z
		"/>
	<path class="st5" d="M178.2,352.7c0,0.1-1-0.4-2.7-1c-4.3-1.5-8.9-1.8-13.4-1c-1.7,0.3-2.8,0.6-2.8,0.5c0.2-0.1,0.5-0.2,0.7-0.3
		c0.7-0.2,1.3-0.4,2-0.6c2.3-0.5,4.6-0.7,6.9-0.5c2.3,0.2,4.6,0.7,6.7,1.5c0.7,0.3,1.3,0.5,1.9,0.9
		C177.8,352.4,178,352.6,178.2,352.7z"/>
	<path class="st5" d="M193.6,342.8c-0.8-2.2-1.4-4.5-1.9-6.8c-0.6-2.3-1.2-4.5-1.5-6.9C191.6,333.7,192.8,338.2,193.6,342.8
		L193.6,342.8z"/>
	<path class="st5" d="M193.8,342.8c-0.6-1.4-1.3-2.8-2.2-4c-0.9-1.2-2-2.3-3.2-3.3c0.5,0.1,0.9,0.3,1.2,0.6c0.9,0.7,1.7,1.5,2.3,2.4
		C192.9,339.8,193.5,341.3,193.8,342.8z"/>
	<path class="st5" d="M193.7,431.9c0,0-0.1-0.8-0.5-2.1c-0.5-1.9-1.2-3.7-2.1-5.4c-3-5.6-6.7-10.8-11-15.5c-2.5-2.8-4.8-5.5-6.9-8
		c-1.8-2.2-3.5-4.6-4.9-7.1c-1-1.7-1.8-3.4-2.5-5.2c-0.2-0.6-0.4-1.2-0.5-1.5c-0.1-0.2-0.1-0.3-0.1-0.5c0,0,0.3,0.7,0.8,2
		c0.7,1.8,1.6,3.5,2.6,5.2c1.5,2.4,3.2,4.8,5,7c2,2.5,4.4,5.1,6.9,8c4.4,4.7,8.1,10,11,15.7c0.9,1.7,1.5,3.6,2,5.5
		c0.1,0.5,0.2,1,0.3,1.6C193.7,431.5,193.7,431.7,193.7,431.9z"/>
	<path class="st5" d="M218.2,404.1c-0.4,0.3-0.8,0.5-1.3,0.7c-1.2,0.7-2.3,1.4-3.3,2.2c-1.6,1.2-3,2.6-4.4,4
		c-1.5,1.6-3.1,3.5-4.7,5.5c-3.2,4.1-6.2,7.6-8.1,10.5c-0.9,1.4-1.6,2.6-2,3.5s-0.7,1.3-0.7,1.3s0-0.1,0.1-0.4s0.2-0.6,0.4-1
		c0.6-1.2,1.2-2.4,1.9-3.5c2.5-3.7,5.1-7.2,8-10.6c1.6-2,3.2-3.9,4.8-5.5c1.4-1.5,2.9-2.8,4.5-4c1.1-0.8,2.2-1.5,3.4-2.1
		c0.4-0.2,0.8-0.3,1-0.4S218.2,404.1,218.2,404.1z"/>
	<path class="st5" d="M218.7,413.1c-0.9,0.2-1.8,0.3-2.7,0.4c-2.2,0.2-4.3,0.6-6.4,1.3c-2.1,0.7-4,1.7-5.8,3c-1.3,1-1.9,1.9-2,1.8
		s0.1-0.2,0.4-0.6c0.4-0.5,0.9-1,1.4-1.5c1.7-1.4,3.7-2.5,5.8-3.2c2.1-0.6,4.3-1,6.6-1.2C216.8,413.1,217.8,413.1,218.7,413.1z"/>
	<path class="st5" d="M202.5,418.7c-0.1-0.1,1.1-2,2-4.5s1.1-4.8,1.3-4.7c0.1,0.5,0.1,1,0,1.5c-0.1,1.2-0.4,2.3-0.8,3.4
		c-0.4,1.1-0.9,2.2-1.6,3.1C203.2,417.9,202.9,418.3,202.5,418.7z"/>
	<path class="st5" d="M226.1,380c-0.1,0.1-0.3,0.2-0.4,0.2l-1.3,0.6c-0.6,0.2-1.2,0.5-2,1s-1.7,0.8-2.6,1.4l-1.5,0.8
		c-0.5,0.3-1,0.6-1.6,1c-1.1,0.7-2.2,1.5-3.4,2.3c-5,3.7-9.4,8.2-12.9,13.4c-0.8,1.2-1.6,2.3-2.2,3.4c-0.3,0.5-0.7,1.1-0.9,1.6
		s-0.5,1-0.8,1.5c-0.5,1-0.9,1.9-1.3,2.6s-0.7,1.5-0.9,2s-0.4,1-0.5,1.3c-0.1,0.2-0.1,0.3-0.2,0.4c0-0.2,0.1-0.3,0.1-0.5l0.5-1.3
		c0.2-0.7,0.5-1.4,0.8-2.1c0.4-0.8,0.7-1.7,1.2-2.7l0.8-1.5c0.3-0.5,0.6-1.1,0.9-1.6c0.6-1.1,1.4-2.3,2.2-3.5
		c3.5-5.2,7.9-9.7,13-13.5c1.2-0.8,2.3-1.6,3.4-2.3c0.6-0.3,1.1-0.7,1.6-1l1.5-0.8c0.9-0.5,1.9-0.9,2.6-1.3c0.7-0.3,1.3-0.6,2-0.9
		l1.3-0.5C225.8,380,226,380,226.1,380z"/>
	<path class="st5" d="M206.7,393c0.2-0.6,0.5-1.2,1.1-1.6c1.2-1,2.7-1.6,4.3-1.6c1.6,0,3.1,0.3,4.5,0.9c0.6,0.2,1.2,0.5,1.7,0.8
		c-0.6-0.1-1.2-0.3-1.8-0.5c-1.4-0.5-2.9-0.7-4.4-0.7c-1.5,0-2.9,0.5-4.1,1.5C207.5,392.1,207.1,392.5,206.7,393z"/>
	<path class="st5" d="M203.8,396c0.6-1.3,1-2.6,1.2-4c0.1-1.4,0-2.8-0.3-4.1c0.3,0.3,0.4,0.7,0.5,1.1c0.5,2,0.3,4.2-0.7,6
		C204.2,395.7,203.9,396,203.8,396z"/>
	<path class="st8" d="M172.2,436.3c0.7,11.9,4.2,23.9,9.7,36.1h23.9c5.2-12.1,8.6-24.1,9.2-36.1H172.2z"/>
	<path class="st3" d="M211.2,455.5c0,0.1-7.9,0.2-17.6,0.2s-17.6-0.1-17.6-0.2s7.9-0.2,17.6-0.2S211.2,455.4,211.2,455.5z"/>
	<path class="st3" d="M210.6,459.8c0,0.1-7.4,0.2-16.5,0.2s-16.5-0.1-16.5-0.2s7.4-0.2,16.5-0.2S210.6,459.7,210.6,459.8z"/>
</g>
<g id="freepik--Floor--inject-13">
	<path class="st5" d="M697.7,472.6c0,0.1-140.9,0.3-314.7,0.3s-314.7-0.1-314.7-0.3s140.9-0.3,314.7-0.3S697.7,472.5,697.7,472.6z"
		/>
</g>
<g id="freepik--Pallet--inject-13">
	<rect x="294.6" y="446.5" class="st8" width="25.1" height="26"/>
	<path class="st5" d="M309.3,447.2c0,0-0.3,0.1-0.8,0.4c-0.7,0.4-1.4,0.9-2,1.4c-2,1.7-3.7,3.9-5,6.2c-0.8,1.4-1.4,2.7-2,3.9
		c-0.5,1.1-1.2,2.1-2,3c-0.6,0.6-1.2,1.1-2,1.5c-0.3,0.1-0.6,0.2-0.9,0.3c0,0,0.3-0.1,0.8-0.4c0.7-0.4,1.4-0.9,1.9-1.5
		c1.4-1.5,2.4-4.2,4-7c1.3-2.4,3-4.5,5.1-6.2c0.6-0.5,1.3-1,2-1.3C308.8,447.4,309,447.3,309.3,447.2z"/>
	<path class="st5" d="M308.9,463.9l0.5-0.4c0.3-0.3,0.8-0.6,1.3-1.2c0.3-0.3,0.6-0.6,0.9-0.9c0.4-0.3,0.6-0.8,0.7-1.3
		c-0.1-0.5-0.7-0.9-1.2-0.8c0,0-0.1,0-0.1,0c-0.6,0.2-1.2,0.5-1.7,1c-1.3,0.8-2.4,1.8-3.5,2.9c-0.6,0.6-1,1.3-1.4,2.1
		c-0.2,0.4-0.2,0.8-0.1,1.2c0.1,0.4,0.4,0.7,0.8,0.9c0.9,0.2,1.8,0.2,2.7-0.2c0.9-0.4,1.7-0.9,2.5-1.5c1.6-1.2,2.9-2.9,3.7-4.8
		c0.4-1,0.5-2,0.4-3c0-1-0.6-1.9-1.5-2.3c-0.9-0.2-1.9,0-2.7,0.6c-0.8,0.5-1.6,1-2.3,1.7c-2.7,2.5-4.4,5.4-6.1,7.6
		c-1.3,1.8-3,3.3-4.9,4.4c-0.5,0.3-1.1,0.5-1.6,0.7c-0.2,0.1-0.4,0.1-0.6,0.1l0.1,0l0.4-0.1c0.6-0.2,1.1-0.4,1.6-0.7
		c1.9-1.1,3.5-2.6,4.8-4.4c1.8-2.1,3.4-5.1,6.1-7.6c0.7-0.6,1.5-1.2,2.3-1.7c0.8-0.6,1.9-0.8,2.9-0.6c0.5,0.2,0.9,0.5,1.2,1
		c0.3,0.5,0.4,1,0.5,1.5c0.1,1.1,0,2.1-0.4,3.1c-0.8,1.9-2.1,3.6-3.8,4.9c-0.8,0.6-1.6,1.1-2.5,1.5c-0.9,0.4-1.9,0.5-2.8,0.2
		c-0.5-0.1-0.9-0.5-1-1c-0.1-0.5,0-0.9,0.2-1.4c0.4-0.8,0.8-1.5,1.4-2.1c1-1.1,2.2-2.1,3.5-2.9c0.5-0.4,1.1-0.8,1.8-1
		c0.6-0.2,1.2,0.2,1.4,0.8c0,0,0,0.1,0,0.1c0,0.5-0.3,1-0.7,1.4c-0.3,0.4-0.6,0.7-0.9,0.9C310.2,462.9,309.5,463.4,308.9,463.9z"/>
	<path class="st5" d="M319.5,451c0,0-0.1,0.3-0.2,1c-0.2,0.9-0.3,1.8-0.4,2.7c-0.1,1.1-0.2,2.5-0.4,4c-0.7,4.7-3.2,8.9-6.9,11.8
		c-1,0.8-2.1,1.4-3.2,1.9c0,0,0.1-0.1,0.2-0.1l0.7-0.4c3.4-1.9,6.1-4.9,7.7-8.5c1.5-3.2,1.6-6.5,1.9-8.8c0.1-0.9,0.3-1.8,0.5-2.7
		C319.3,451.6,319.4,451.3,319.5,451z"/>
	<path class="st5" d="M300,447.1c0,0.2,0,0.3,0,0.5c0,0.4-0.1,0.8-0.2,1.2c-0.6,2.7-1.9,5.2-3.8,7.2c-0.3,0.3-0.6,0.6-0.9,0.9
		c-0.1,0.1-0.2,0.2-0.4,0.3c0,0,0.5-0.5,1.2-1.2c0.9-1,1.7-2.1,2.4-3.4c0.6-1.2,1.1-2.5,1.5-3.8C299.9,447.8,300,447.1,300,447.1z"
		/>
	<rect x="294.6" y="414.4" class="st8" width="25.1" height="25.1"/>
	<path class="st5" d="M305.4,415.5c0,0.2-0.1,0.4-0.1,0.6c-0.1,0.6-0.3,1.1-0.6,1.7c-0.8,1.8-1.8,3.5-3.2,5
		c-1.3,1.4-2.9,2.6-4.7,3.5c-0.5,0.3-1.1,0.5-1.6,0.7l-0.6,0.2c0.2-0.1,0.4-0.2,0.6-0.3c0.4-0.1,0.9-0.4,1.6-0.8
		c1.7-0.9,3.3-2.1,4.6-3.5c1.3-1.4,2.4-3.1,3.2-4.9c0.2-0.5,0.5-1.1,0.6-1.7C305.2,415.9,305.3,415.7,305.4,415.5z"/>
	<path class="st5" d="M310.6,423.6c-0.4,0.8-0.9,1.6-1.5,2.3c-1.5,2-3.5,3.6-5.7,4.8c-0.7,0.4-1.5,0.7-2.3,1
		c-0.8,0.4-1.8,0.5-2.7,0.3c-0.5-0.2-0.8-0.6-0.9-1.1c0-0.5,0.1-1,0.3-1.5c0.5-0.9,1-1.8,1.6-2.6c2.7-3.7,6.8-6.2,11.3-7
		c0.6-0.1,1.2-0.2,1.8-0.2c0.6-0.1,1.2,0,1.8,0.1c0.6,0.1,1.2,0.4,1.5,0.9c0.3,0.5,0.5,1.1,0.5,1.7c0,2.2-0.9,4.4-2.5,6
		c-1.4,1.4-3,2.6-4.8,3.5c-1.5,0.8-3.1,1.5-4.7,2.1c-2.9,1.1-5.4,1.9-7,2.4l-2,0.6c-0.4,0.1-0.7,0.2-0.7,0.2l0.7-0.2l1.9-0.6
		c1.7-0.5,4.1-1.3,7-2.4c1.6-0.6,3.1-1.4,4.7-2.1c1.8-0.9,3.3-2.1,4.7-3.5c1.5-1.6,2.4-3.6,2.4-5.8c0-0.6-0.2-1.1-0.5-1.5
		c-0.4-0.4-0.9-0.7-1.4-0.8c-0.6-0.1-1.2-0.1-1.7,0c-5.2,0.3-9.9,2.9-13,7.1c-0.6,0.8-1.1,1.7-1.6,2.6c-0.2,0.4-0.3,0.9-0.3,1.4
		c0,0.4,0.3,0.8,0.8,1c0.9,0.2,1.8,0.1,2.5-0.3c0.8-0.3,1.5-0.6,2.2-1c2.2-1.1,4.1-2.7,5.7-4.7c0.5-0.7,0.9-1.2,1.2-1.6
		S310.6,423.6,310.6,423.6z"/>
	<path class="st5" d="M319.5,430.7c0,0,0,0.1-0.1,0.2l-0.3,0.4c-0.4,0.5-0.9,1-1.4,1.5c-3.2,3.1-7.1,5.3-11.3,6.4
		c-0.6,0.2-1.3,0.3-1.9,0.4l-0.5,0.1h-0.2c0,0,0.1,0,0.2-0.1l0.5-0.1c0.5-0.1,1.1-0.3,1.9-0.5c2.1-0.6,4.1-1.5,6-2.5
		c1.9-1.1,3.7-2.4,5.3-3.9c0.6-0.6,1.1-1,1.4-1.4l0.4-0.4L319.5,430.7z"/>
	<rect x="504.7" y="414.4" class="st8" width="25.1" height="25.1"/>
	<path class="st5" d="M515.5,415.5c0,0.2-0.1,0.4-0.1,0.6c-0.1,0.6-0.3,1.1-0.6,1.7c-0.8,1.8-1.8,3.5-3.2,5
		c-1.3,1.4-2.9,2.6-4.7,3.5c-0.5,0.3-1.1,0.5-1.6,0.7l-0.6,0.2c0.2-0.1,0.4-0.2,0.6-0.3c2.4-1,4.5-2.4,6.2-4.3
		c1.3-1.4,2.4-3.1,3.2-4.9c0.2-0.5,0.5-1.1,0.6-1.7C515.3,415.9,515.4,415.7,515.5,415.5z"/>
	<path class="st5" d="M520.7,423.6c-0.4,0.8-0.9,1.6-1.5,2.3c-1.5,2-3.5,3.6-5.7,4.8c-0.7,0.4-1.5,0.7-2.3,1
		c-0.8,0.4-1.8,0.5-2.7,0.3c-0.5-0.2-0.8-0.6-0.9-1.1c0-0.5,0.1-1,0.3-1.5c0.5-0.9,1-1.8,1.6-2.6c2.7-3.7,6.8-6.2,11.3-7
		c0.6-0.1,1.2-0.2,1.8-0.2c0.6-0.1,1.2,0,1.8,0.1c0.6,0.1,1.2,0.4,1.5,0.9c0.3,0.5,0.5,1.1,0.5,1.7c0,2.2-0.9,4.4-2.5,6
		c-1.4,1.4-3,2.6-4.8,3.5c-1.5,0.8-3.1,1.5-4.7,2.1c-2.9,1.1-5.4,1.9-7,2.4l-2,0.6c-0.4,0.1-0.7,0.2-0.7,0.2l0.7-0.2l1.9-0.6
		c1.7-0.5,4.1-1.3,7-2.4c1.6-0.6,3.1-1.4,4.7-2.1c1.8-0.9,3.4-2.1,4.7-3.5c1.5-1.6,2.4-3.6,2.4-5.8c0-0.6-0.2-1.1-0.5-1.5
		c-0.4-0.4-0.9-0.7-1.4-0.8c-0.6-0.1-1.2-0.1-1.7,0c-5.2,0.3-9.9,2.9-13,7.1c-0.6,0.8-1.1,1.7-1.6,2.6c-0.2,0.4-0.3,0.9-0.3,1.4
		c0,0.4,0.3,0.8,0.8,1c0.9,0.2,1.8,0.1,2.5-0.3c0.8-0.3,1.5-0.6,2.2-1c2.2-1.1,4.1-2.7,5.7-4.7c0.5-0.7,0.9-1.2,1.2-1.6
		S520.7,423.6,520.7,423.6z"/>
	<path class="st5" d="M529.6,430.7c0,0,0,0.1-0.1,0.2l-0.3,0.4c-0.4,0.5-0.9,1-1.4,1.5c-3.2,3.1-7.1,5.3-11.3,6.4
		c-0.7,0.2-1.3,0.3-2,0.4l-0.5,0.1h-0.2c0,0,0.1,0,0.2-0.1l0.5-0.1c0.5-0.1,1.1-0.3,1.9-0.5c2.1-0.6,4.1-1.5,6-2.5
		c1.9-1.1,3.7-2.4,5.2-3.9c0.6-0.6,1.1-1,1.4-1.4l0.4-0.4L529.6,430.7z"/>
	<rect x="504.7" y="446.5" class="st8" width="25.1" height="26"/>
	<path class="st5" d="M519.4,447.2c0,0-0.3,0.1-0.8,0.4c-0.7,0.4-1.4,0.9-2,1.4c-2,1.7-3.7,3.9-5,6.2c-0.8,1.4-1.4,2.7-2,3.9
		c-0.5,1.1-1.2,2.1-2,3c-0.5,0.6-1.2,1.1-2,1.5c-0.3,0.1-0.6,0.2-0.9,0.3c0,0,0.3-0.1,0.8-0.4c0.7-0.4,1.4-0.9,1.9-1.5
		c1.4-1.5,2.4-4.2,4-7c1.3-2.4,3-4.5,5.1-6.2c0.6-0.5,1.3-1,2-1.3C518.9,447.4,519.1,447.3,519.4,447.2z"/>
	<path class="st5" d="M519,463.9l0.5-0.4c0.3-0.3,0.8-0.6,1.3-1.2c0.3-0.3,0.6-0.6,0.9-0.9c0.4-0.3,0.6-0.8,0.7-1.3
		c-0.1-0.5-0.7-0.9-1.2-0.8c0,0-0.1,0-0.1,0c-0.6,0.2-1.2,0.5-1.7,1c-1.3,0.8-2.4,1.8-3.5,2.9c-0.6,0.6-1,1.3-1.4,2.1
		c-0.2,0.4-0.2,0.8-0.1,1.2c0.1,0.4,0.4,0.7,0.8,0.9c0.9,0.2,1.8,0.2,2.7-0.2c0.9-0.4,1.7-0.9,2.5-1.5c1.6-1.2,2.9-2.9,3.7-4.8
		c0.4-1,0.5-2,0.4-3c0-1-0.6-1.9-1.5-2.3c-0.9-0.2-1.9,0-2.7,0.6c-0.8,0.5-1.6,1-2.2,1.7c-2.7,2.5-4.4,5.4-6.1,7.6
		c-1.3,1.8-3,3.3-4.9,4.4c-0.5,0.3-1.1,0.5-1.6,0.7c-0.2,0.1-0.4,0.1-0.6,0.1l0.1,0l0.4-0.1c0.6-0.2,1.1-0.4,1.6-0.7
		c1.9-1.1,3.5-2.6,4.8-4.4c1.8-2.1,3.4-5.1,6.1-7.6c0.7-0.6,1.5-1.2,2.3-1.7c0.8-0.6,1.9-0.8,2.9-0.6c0.5,0.2,0.9,0.5,1.2,1
		c0.3,0.5,0.4,1,0.5,1.5c0.1,1.1,0,2.1-0.4,3.1c-0.8,1.9-2.1,3.6-3.8,4.9c-0.8,0.6-1.6,1.1-2.5,1.5c-0.9,0.4-1.9,0.5-2.8,0.2
		c-0.5-0.1-0.9-0.5-1-1c-0.1-0.5,0-0.9,0.2-1.4c0.4-0.8,0.8-1.5,1.4-2.1c1-1.1,2.2-2.1,3.5-2.9c0.5-0.4,1.1-0.8,1.8-1
		c0.6-0.2,1.2,0.2,1.4,0.8c0,0,0,0.1,0,0.1c0,0.5-0.3,1-0.7,1.4c-0.3,0.4-0.6,0.7-0.9,0.9C520.3,462.9,519.6,463.4,519,463.9z"/>
	<path class="st5" d="M529.6,451c0,0-0.1,0.3-0.2,1c-0.2,0.9-0.3,1.8-0.4,2.7c-0.1,1.1-0.2,2.5-0.4,4c-0.2,1.7-0.7,3.3-1.4,4.8
		c-1.2,2.8-3.2,5.2-5.6,7c-1,0.8-2.1,1.4-3.2,1.9c0.1-0.1,0.1-0.1,0.2-0.1l0.7-0.4c3.4-1.9,6.1-4.9,7.7-8.5c1.5-3.2,1.5-6.5,1.8-8.8
		c0.1-0.9,0.3-1.8,0.5-2.7C529.4,451.6,529.5,451.3,529.6,451z"/>
	<path class="st5" d="M510.1,447.1c0,0.2,0,0.3,0,0.5c0,0.4-0.1,0.8-0.2,1.2c-0.6,2.7-1.9,5.2-3.8,7.2c-0.3,0.3-0.6,0.6-0.9,0.9
		c-0.1,0.1-0.2,0.2-0.4,0.3c0,0,0.5-0.5,1.2-1.2c0.9-1,1.7-2.1,2.4-3.4c0.6-1.2,1.1-2.5,1.5-3.8C510,447.8,510.1,447.1,510.1,447.1z
		"/>
	<rect x="289" y="439.5" class="st8" width="246.9" height="7.8"/>
	<path class="st5" d="M536,447.4c0,0.1-55.3,0.3-123.4,0.3s-123.5-0.1-123.5-0.3s55.3-0.3,123.5-0.3S536,447.2,536,447.4z"/>
	<path class="st5" d="M536,439.5c0,0.1-55.3,0.3-123.4,0.3s-123.5-0.1-123.5-0.3s55.3-0.3,123.5-0.3S536,439.4,536,439.5z"/>
	<rect x="288.7" y="408.4" class="st8" width="247.2" height="7.1"/>
	<path class="st5" d="M533.1,415.5c0,0.1-54.6,0.3-122,0.3s-122-0.1-122-0.3s54.6-0.3,122-0.3S533.1,415.3,533.1,415.5z"/>
</g>
<g id="freepik--Character--inject-13">
	<path class="st9" d="M467.9,401.9l-19.8-15.3l12.5-17.9l20.5,17.9c0,0-0.1,7.5-2.9,10.6S467.9,401.9,467.9,401.9z"/>
	<path class="st6" d="M482.2,387.3l-1.5-1.4c-2.6,6.6-7.4,12.2-13.5,15.8l11,9.3l28.2-32.9C503.2,375.7,482.2,387.3,482.2,387.3z"/>
	<path class="st5" d="M478.2,411l-2.7-2.3l28.1-30.7c0,0,1.9-0.9,2.8,0.1L478.2,411z"/>
	<path class="st5" d="M482.5,386.6c0.2,0.1-0.5,1-0.6,2.2s0.1,2.2,0,2.3s-0.9-0.9-0.7-2.4S482.4,386.4,482.5,386.6z"/>
	<path class="st5" d="M486.9,384.4c0.2,0.1-0.1,1,0.1,2.2s0.8,1.9,0.6,2.1s-1.1-0.5-1.4-1.9S486.8,384.2,486.9,384.4z"/>
	<path class="st5" d="M492.7,386c-0.1,0.2-1.1-0.3-1.6-1.5s-0.2-2.2,0-2.2s0.3,0.9,0.7,1.9S492.9,385.8,492.7,386z"/>
	<path class="st5" d="M366.1,355.5c0-0.6,29.6-25.7,32.9-27.7c4.1-2.5,14.1-3.7,19.3,0.8c4.8,4.2,46.3,38.8,46.3,38.8l-16.7,20.4
		l-36.1-28.2c0,0-34.2,20.6-34.6,21.1s-16.4-5.6-16.4-6.1S366.1,355.5,366.1,355.5z"/>
	<path class="st5" d="M334.9,254.4c-0.6-4.4-0.9-8.9-0.8-13.4c0.1-4.5,1.4-8.9,3.7-12.8c0.4-0.6,3.2-4.4,3.8-4.2
		c0.5,0.1-1.5,3.8-1.4,4.3c1.4,4.5,1.3,9.3-0.1,13.7C338.8,246.3,337.1,250.5,334.9,254.4"/>
	<path class="st9" d="M339.4,293.6c-6.8-1.5-11.1-8.2-9.8-15l8.2-41.1c1.9-11.1,9.9-19.3,20.9-17.1l1,0.3
		c10.2,2.6,16.6,12.6,14.9,22.9c-1.7,9.6-3.6,20.2-5,25.3c-2.8,10.5-13.7,9.4-13.7,9.4s-0.5,2.4-1.2,5.5c-1.5,6.9-8.3,11.4-15.2,9.9
		C339.4,293.6,339.4,293.6,339.4,293.6L339.4,293.6z"/>
	<path class="st10" d="M355.9,278.3c-4.8-1.3-9.2-3.9-12.6-7.5c0,0,1.4,8.5,12.1,10.2L355.9,278.3z"/>
	<path class="st10" d="M352.5,259.5c1.1-0.7,2.5-0.4,3.2,0.6c0.7,1.1,0.4,2.5-0.6,3.2c-0.3,0.2-0.6,0.3-1,0.4
		c-0.6,0.1-1.3,0-1.8-0.4c-0.4-0.2-0.8-0.6-1-1c-0.3-0.7-0.2-1.4,0.3-2c0.3-0.5,0.8-0.9,1.3-1.1"/>
	<path class="st5" d="M369.7,251.7c-0.2,0.8-1,1.3-1.8,1.1c-0.8-0.1-1.3-0.9-1.2-1.7c0,0,0,0,0,0c0.2-0.8,1-1.3,1.8-1.1
		C369.3,250.1,369.8,250.9,369.7,251.7C369.7,251.7,369.7,251.7,369.7,251.7z"/>
	<path class="st5" d="M371.1,248.1c-0.2,0.1-1.1-1-2.8-1.4s-3,0.1-3.1-0.1s0.2-0.4,0.8-0.7c0.8-0.3,1.7-0.3,2.6-0.1
		c0.8,0.2,1.6,0.7,2.1,1.4C371.1,247.6,371.2,248,371.1,248.1z"/>
	<path class="st5" d="M355.1,248.4c-0.2,0.8-1,1.3-1.8,1.1c-0.8-0.1-1.3-0.9-1.2-1.7c0,0,0,0,0-0.1c0.2-0.8,1-1.3,1.8-1.1
		C354.7,246.8,355.2,247.5,355.1,248.4C355.1,248.3,355.1,248.4,355.1,248.4z"/>
	<path class="st5" d="M355.5,244.5c-0.2,0.1-1.2-1-2.8-1.4s-3,0.1-3.1-0.1s0.2-0.4,0.8-0.7c0.8-0.3,1.7-0.3,2.6-0.1
		c0.8,0.2,1.6,0.7,2.1,1.4C355.5,244,355.6,244.4,355.5,244.5z"/>
	<path class="st5" d="M357.9,257.8c0.9-0.1,1.8,0,2.7,0.2c0.4,0.1,0.8,0.1,1-0.2c0.1-0.4,0.1-0.9,0-1.3c-0.1-1.1-0.3-2.2-0.4-3.4
		c-0.5-4.9-0.8-8.9-0.6-8.9s0.8,3.9,1.3,8.8c0.1,1.2,0.2,2.4,0.4,3.5c0.1,0.6,0.1,1.2-0.2,1.7c-0.2,0.3-0.5,0.4-0.8,0.4
		c-0.2,0-0.5,0-0.7-0.1C359.6,258.4,358.7,258.2,357.9,257.8z"/>
	<path class="st5" d="M352.9,257.7c0.3,0.1-0.2,1.8,1,3.4s3.1,1.9,3,2.2s-0.5,0.2-1.3,0c-1-0.2-1.9-0.8-2.6-1.7
		c-0.6-0.8-0.9-1.8-0.7-2.9C352.5,258.1,352.8,257.7,352.9,257.7z"/>
	<path class="st5" d="M357.2,238.2c-0.3,0.4-1.8-0.2-3.8-0.5s-3.6-0.1-3.8-0.6c-0.1-0.2,0.3-0.6,1-0.8c1-0.3,2-0.4,3-0.2
		c1,0.1,2,0.5,2.8,1.1C357,237.6,357.3,238,357.2,238.2z"/>
	<path class="st5" d="M371.6,243.3c-0.4,0.3-1.4-0.4-2.7-0.7s-2.5-0.4-2.7-0.8c-0.1-0.2,0.2-0.5,0.8-0.8c1.6-0.5,3.3,0,4.4,1.3
		C371.7,242.8,371.8,243.2,371.6,243.3z"/>
	<path class="st9" d="M336.7,245.5c-0.2-0.1-6.7-4-8.3,3.2c-1.6,7.2,6,7.4,6,7.1S336.7,245.5,336.7,245.5z"/>
	<path class="st10" d="M332.8,252.7c0,0-0.1,0.1-0.4,0.1c-0.3,0.1-0.7,0-1-0.2c-0.8-0.8-1.1-2-0.8-3.1c0.1-0.6,0.4-1.2,0.8-1.7
		c0.2-0.4,0.7-0.7,1.2-0.8c0.3,0,0.6,0.2,0.7,0.5c0,0.2,0,0.4,0,0.4s0.2-0.1,0.2-0.4c0-0.2-0.1-0.4-0.2-0.5
		c-0.2-0.2-0.4-0.3-0.6-0.3c-0.6,0-1.2,0.3-1.6,0.8c-0.5,0.6-0.8,1.2-0.9,1.9c-0.3,1.5,0.2,3,1.1,3.5c0.4,0.2,0.8,0.2,1.2,0.1
		C332.8,252.9,332.9,252.7,332.8,252.7z"/>
	<path class="st5" d="M372.7,230.8c1.3-0.4-1.6-5.1-4.2-7.1c-3.9-2.9-10.3-5.5-14.6-5.3c-5.1,0.3-9.6,1.9-13,5.8
		c-3.3,4-5.5,8.8-6.3,13.9c-0.4,1.5-0.4,3.1,0.1,4.6c0.7,1.8,2.4,3.2,1.9,5.4c-0.2,0.8-0.2,1.6,0.2,2.3c1,1.9,3,0.9,4-0.3
		c2.2-2.5,3.1-5.8,3.9-9c0.7-2.5,1.2-5.2,1.3-7.8c0-0.8,0-1.7,0.3-2.5c0.3-1.3,1-2.6,2-3.5c0.2-0.2,0.5-0.4,0.8-0.5
		c2.1-1.1,4.6-1,6.6,0.3c3.8,2.3,6.6,5.3,11.8,4.4c0.9-0.2,1.7-0.7,2.4-1.4C370.8,229.5,372,229.8,372.7,230.8L372.7,230.8z"/>
	<path class="st5" d="M333.8,258.5c0,0,0,0.2-0.2,0.4c-0.3,0.2-0.7,0.3-1,0.3c-0.5-0.1-1-0.3-1.4-0.7c-0.5-0.5-0.8-1.1-0.8-1.8
		c0-0.7,0.2-1.3,0.6-1.9c0.3-0.4,0.8-0.7,1.3-0.9c0.9-0.2,1.4,0,1.4,0.1s-0.5,0-1.2,0.4c-0.9,0.4-1.5,1.3-1.5,2.3
		c0.1,1,0.8,1.8,1.7,2.1c0.3,0.1,0.6,0.1,0.9,0C333.7,258.6,333.8,258.5,333.8,258.5z"/>
	<path class="st9" d="M437.1,356.4l-19.3-12.7l-6.8,5.1l-46.8-2.1v1.3l-2.9,15.6l58.1-3.5c0,0,3.4,2.6,5,2s2.9-1.2,2.9-1.2l2.3,0.7
		c1.6-0.2,2.9-1.2,3.7-2.6c0,0,3.2,3.4,4.9,3.5S437.1,356.4,437.1,356.4z"/>
	<path class="st6" d="M331,275.8c0,0-6.9,0.8-11.6,4.1c-7.5,5.3-15.3,17.5-17.9,34.3c-2.2,14-0.8,29.1-1.4,39.4
		c-1,15.6-1,22.6,0,26.1c1.7,5.7,4.9,25.4,17.8,27.4c2.7-3.9,4.8-8.2,6.2-12.7c1.7-6.5,7.7-24.5,24.3-26.7
		c1.5-0.2,18.2-2.7,18.2-2.7s-1.1-16.1-1.1-22.5c0-3.2,1-9.1,2.1-14.3c1.4-6.6-0.5-13.7-2.3-20.2s-3.2-15.3-4.4-17.6
		c-1.6-2.8-4-5-6.9-6.5L331,275.8z"/>
	<path class="st9" d="M331,275.8c0,0,8.6,10.1,13,21.8c3.1,8.2,14,29.5,14,29.5s-0.4-15.5-1.4-23.6c-1.4-11.9-2-19.2-2-19.2l-11.1-6
		L331,275.8z"/>
	<path class="st5" d="M343.8,368.3c-0.5,0-1.1,0-1.6,0c-1.5,0-2.9,0.2-4.4,0.5c-2.1,0.4-4.2,1.1-6.2,2c-2.4,1.1-4.7,2.5-6.8,4.2
		c-3.6,3.3-6.6,7.1-9.1,11.3c-1,1.5-1.8,2.8-2.4,3.8c-0.3,0.5-0.6,0.9-0.9,1.4c0.2-0.5,0.5-1,0.7-1.5c0.5-0.9,1.3-2.2,2.2-3.8
		c2.5-4.3,5.5-8.1,9.1-11.5c2.1-1.7,4.4-3.2,6.9-4.2c2-0.9,4.2-1.5,6.3-1.9c1.5-0.3,3-0.4,4.4-0.3c0.4,0,0.8,0,1.2,0.1
		C343.5,368.2,343.7,368.2,343.8,368.3z"/>
	<path class="st6" d="M304.2,318.2c0,0,5.6-34.6,21.1-35.9s14,17.1,13.2,25.9c-0.4,4.6-1,9.1-1.8,13.6L304.2,318.2z"/>
	<path class="st5" d="M338,321.9h-0.6l-1.8-0.2l-6.8-0.6l-24.4-2.4h-0.3l0.1-0.3c1.4-4.2,2.2-8.9,3.4-13.9s2.6-10.1,5.6-14.8
		c2.3-3.7,5.8-6.6,9.9-8.2c2-0.7,4.1-0.9,6.2-0.6c2,0.3,3.9,1.3,5.2,2.9c1.2,1.5,2.2,3.1,2.9,4.8c0.4,0.8,0.7,1.7,0.8,2.6
		c0.1,0.9,0.3,1.7,0.4,2.6c0.4,3.1,0.6,6.3,0.7,9.5c0,4.6-0.2,9.1-0.6,13.7c-0.2,1.6-0.3,2.8-0.4,3.7c0,0.4-0.1,0.7-0.1,1
		c0,0.1,0,0.2,0,0.3c0,0,0-0.1,0-0.4s0-0.6,0.1-1c0.1-0.9,0.1-2.1,0.3-3.7c0.2-3.2,0.6-7.9,0.5-13.7c-0.1-3.1-0.3-6.3-0.7-9.4
		c-0.1-0.8-0.2-1.7-0.4-2.5c-0.2-0.9-0.5-1.7-0.8-2.5c-0.7-1.7-1.7-3.3-2.9-4.7c-1.2-1.5-3-2.4-4.9-2.7c-2-0.3-4-0.1-5.9,0.6
		c-4,1.5-7.4,4.3-9.6,8c-3,4.6-4.4,9.8-5.6,14.7s-2,9.6-3.4,13.9l-0.2-0.3l24.2,2.6l6.9,0.8l1.8,0.2l0.5,0.1L338,321.9z"/>
	<g class="st7">
		<path d="M311.4,384.1c-0.6,0.6-1,1.4-1.2,2.2c-0.2,0.8,0.2,1.7,0.9,2.1c1,0.5,2.2-0.4,3-1.3c2.8-3.1,5.3-6.5,8.1-9.7
			c2.5-3.1,5.8-5.4,9.4-6.9C321.8,373.5,317.8,376.2,311.4,384.1z"/>
	</g>
	<g class="st7">
		<path d="M364.5,348.2c0-0.5-0.3-1-0.7-1.3c-0.6-0.2-1.2-0.2-1.8,0.1l-22,8.5c-4.3,1.7-9,3.3-13.4,2c-4.6-1.4-7.8-5.9-8.9-10.6
			s-0.5-9.6,0.3-14.4s2.2-12.4,2.2-12.4l-13.7-1.4c-1.5,14.4-2.6,31.3,0.1,43.3c1,4.6,3.6,7.4,7.5,10c3.2,2.1,9.3-0.3,13.3-1.9
			c10.4-4.1,20.3-8.3,28.5-13c2-1.1,8.1-5.3,9.5-7.2S364.9,350.5,364.5,348.2z"/>
	</g>
	<path class="st9" d="M308.1,319c0,0-0.9,25.3,0.1,35.5c0.8,7.7,3.6,13.1,8.1,13.9s22.9-4.1,33.8-9.6c6.9-3.6,13.7-7.5,20.2-11.7
		l-0.8-10.2c0,0-20.3,4.6-23.8,5.1s-14.2,1.7-14.2,1.7c0-0.3,3.4-21.9,3.4-21.9L308.1,319z"/>
	<path class="st9" d="M396.2,334.6c-0.9-0.9-22.7,1.6-26.3,2l-0.5,0.1l0.8,10.2h15.7l0.5,2.4c0,0-2-0.3-3.1,0.6s3.5,1.8,4.5,1.9
		c2.8,0.4,4.2-2.4,4.2-2.4c2.2,1.5,4.3-1.3,4.3-1.3c1.8,1.3,3.4-1.5,3.4-1.5s2.9,3,4.5,3.4c1.1,0.2,2.2,0.2,3.2,0
		C407.3,350.1,397.3,335.6,396.2,334.6z"/>
	<path class="st10" d="M392,349.2c-0.2,0-0.4-1.6-1.2-3.5c-0.6-1.1-1.2-2.1-1.8-3.1c1.1,0.7,1.9,1.7,2.3,2.9
		C391.8,346.7,392.1,348,392,349.2z"/>
	<path class="st10" d="M392.1,340.2c0,0,0.5,0.2,1.1,0.8c0.8,0.8,1.4,1.8,1.8,2.9c0.5,1,0.8,2.1,1.1,3.2c0.2,0.9,0.1,1.4,0,1.4
		s-0.1-0.5-0.3-1.3s-0.8-1.9-1.3-3.1c-0.4-1-1-2-1.6-2.8C392.4,340.6,392,340.2,392.1,340.2z"/>
	<path class="st10" d="M395.9,338.2c2,2.7,3.4,5.8,4,9.1c-0.1,0-0.8-2.1-1.9-4.6S395.7,338.3,395.9,338.2z"/>
	<path class="st9" d="M408.2,458.2l-1.7-20.2h23.2l-0.7,19.8c0,0-6.3,5.3-10.6,5.2S408.2,458.2,408.2,458.2z"/>
	<path class="st6" d="M429,459.8v-2c-6.7,2.5-14,2.6-20.8,0.4l0.3,14.4l43.3-0.8C451.6,467.7,429,459.8,429,459.8z"/>
	<path class="st5" d="M408.6,472.6l-0.1-3.5l41.7,0.6c0,0,1.9,0.8,1.8,2.2L408.6,472.6z"/>
	<path class="st5" d="M429.7,459.5c0,0.2-1.1,0.3-2.1,1s-1.6,1.6-1.8,1.5s0.1-1.3,1.4-2.1S429.8,459.4,429.7,459.5z"/>
	<path class="st5" d="M434.3,461.4c0.1,0.2-0.9,0.6-1.6,1.5s-0.9,1.9-1.1,1.9s-0.4-1.2,0.5-2.3S434.3,461.1,434.3,461.4z"/>
	<path class="st5" d="M437,466.8c-0.2,0-0.5-1,0-2.2s1.5-1.6,1.6-1.5s-0.5,0.8-0.9,1.8S437.2,466.7,437,466.8z"/>
	<path class="st5" d="M414.7,465.2c0,0.6-0.5,1.1-1.1,1.1s-1.1-0.5-1.1-1.1c0-0.6,0.5-1.1,1.1-1.1
		C414.2,464,414.7,464.5,414.7,465.2C414.7,465.2,414.7,465.2,414.7,465.2z"/>
	<path class="st5" d="M318.5,406.1c-0.2,0.3,18.5,3,34.5,2.2s49.7-13.3,49.7-13.3c-0.8,4.8-1.3,9.7-1.4,14.6
		c0,6.7,3.2,29.4,3.2,29.4h27.7v-48.6c0,0-0.8-18.4-0.8-21.4c-0.1-4.5-5.5-11.1-14.4-10.6c-7.5,0.4-73.7,9.9-73.7,9.9
		s-10,3.2-14,8.5S318.5,406.1,318.5,406.1z"/>
	<path class="st8" d="M328.6,390c-0.8,0.2-1.7,0.3-2.5,0.2c-0.8,0.1-1.7-0.1-2.5-0.4c0.8-0.2,1.7-0.3,2.5-0.2
		C327,389.6,327.8,389.7,328.6,390z"/>
	<path class="st8" d="M338.6,389.5c-0.8,0.3-1.6,0.5-2.5,0.4c-0.8,0.1-1.7,0.1-2.5-0.1c0.8-0.3,1.6-0.5,2.5-0.4
		C336.9,389.3,337.8,389.3,338.6,389.5z"/>
	<path class="st8" d="M348.5,388.2c-0.8,0.4-1.6,0.6-2.4,0.6c-0.8,0.2-1.7,0.3-2.5,0.1c0.8-0.4,1.6-0.6,2.4-0.6
		C346.8,388.1,347.7,388.1,348.5,388.2z"/>
	<path class="st8" d="M358.3,386.3c-1.5,0.7-3.2,1-4.9,1C355,386.7,356.6,386.3,358.3,386.3z"/>
	<path class="st8" d="M368.1,384.2c-1.5,0.7-3.2,1.1-4.9,1.1c0.7-0.4,1.5-0.7,2.4-0.8C366.4,384.2,367.2,384.1,368.1,384.2z"/>
	<path class="st8" d="M377.8,382c-0.7,0.4-1.5,0.7-2.4,0.8c-0.8,0.3-1.7,0.4-2.5,0.3c0.7-0.4,1.5-0.7,2.4-0.8
		C376.1,382,377,381.9,377.8,382z"/>
	<path class="st8" d="M387.6,380c-0.7,0.4-1.6,0.7-2.4,0.7c-0.8,0.2-1.7,0.3-2.5,0.2c0.7-0.4,1.6-0.7,2.4-0.7
		C385.9,380,386.8,379.9,387.6,380z"/>
	<path class="st8" d="M397.5,378.4c-0.8,0.4-1.6,0.6-2.4,0.6c-0.8,0.2-1.7,0.2-2.5,0.1c0.8-0.4,1.6-0.6,2.4-0.6
		C395.8,378.3,396.7,378.3,397.5,378.4z"/>
	<path class="st8" d="M407.5,377.8c-0.8,0.2-1.6,0.2-2.5,0.2c-0.8,0.1-1.7,0.1-2.5-0.1c0.8-0.3,1.6-0.5,2.5-0.4
		C405.8,377.3,406.7,377.5,407.5,377.8z"/>
	<path class="st8" d="M413.2,384.6c-0.3-0.8-0.5-1.6-0.6-2.4c-0.3-1.3-0.9-2.2-0.8-2.3s1,0.8,1.3,2.2
		C413.4,382.9,413.4,383.8,413.2,384.6z"/>
	<path class="st8" d="M413.6,394.6c-0.3-0.8-0.4-1.6-0.4-2.5c-0.1-0.8-0.1-1.7,0.1-2.5C413.8,391.3,413.9,393,413.6,394.6
		L413.6,394.6z"/>
	<path class="st8" d="M414.1,404.6c-0.4-1.6-0.5-3.3-0.3-5c0.3,0.8,0.4,1.6,0.4,2.5C414.3,402.9,414.3,403.8,414.1,404.6z"/>
	<path class="st8" d="M414.6,414.6c-0.4-1.6-0.5-3.3-0.3-5c0.3,0.8,0.4,1.6,0.4,2.5C414.9,412.9,414.8,413.8,414.6,414.6z"/>
	<path class="st8" d="M415.2,424.6c-0.4-1.6-0.5-3.3-0.3-5c0.3,0.8,0.4,1.6,0.4,2.5C415.4,422.9,415.4,423.8,415.2,424.6z"/>
	<path class="st8" d="M415.6,434.6c-0.3-0.8-0.4-1.6-0.4-2.5c-0.1-0.8-0.1-1.7,0.2-2.5c0.3,0.8,0.4,1.6,0.4,2.5
		C415.9,432.9,415.8,433.8,415.6,434.6z"/>
	<path class="st8" d="M413,371.2c-0.5,1.2-1.1,2.4-1.7,3.5c-1.1,2.1-2.5,5.1-3.9,8.5s-2.5,6.5-3.3,8.7c-0.4,1.2-0.8,2.5-1.3,3.7
		c0-0.3,0.1-0.7,0.2-1c0.2-0.6,0.4-1.6,0.8-2.7c0.9-3,2-5.9,3.2-8.8c1.2-2.9,2.6-5.7,4.1-8.4c0.6-1,1.1-1.9,1.4-2.5
		C412.6,371.8,412.8,371.5,413,371.2z"/>
	<path class="st8" d="M421.6,380.1c0,0.1-1.3,0.6-3.4,1.6c-2.7,1.4-5.2,3-7.5,4.9c-2.3,1.9-4.4,4.1-6.3,6.4c-1.4,1.8-2.2,3-2.3,3
		c0.1-0.3,0.3-0.6,0.5-0.9c0.5-0.8,1-1.6,1.5-2.3c1.8-2.4,3.9-4.6,6.2-6.6c2.3-1.9,4.9-3.5,7.7-4.8c0.8-0.4,1.7-0.7,2.5-1
		C420.9,380.3,421.3,380.2,421.6,380.1z"/>
	<path class="st10" d="M364.3,350.7c0.1-0.1,0.2-0.2,0.4-0.3l1.1-0.7l4.4-2.8l0,0l0,0l15.7-0.1h0.2v0.2l0.5,2.4l0.1,0.3h-0.3
		c-1-0.2-2,0-2.9,0.6c-0.3,0.1,0.3,0.5,0.8,0.7c0.5,0.2,1.1,0.3,1.6,0.5c1.1,0.4,2.2,0.5,3.3,0.3c1.1-0.4,2-1.1,2.6-2.1l0.1-0.2
		l0.2,0.1c0.6,0.4,1.4,0.5,2.1,0.2c0.7-0.3,1.4-0.8,1.9-1.5l0.1-0.2l0.2,0.1c0.2,0.2,0.5,0.3,0.8,0.3c0.3,0,0.6-0.1,0.8-0.3
		c0.6-0.4,1-0.9,1.3-1.5l0.2-0.3l0.2,0.2c0.8,0.8,1.6,1.5,2.4,2.2c0.4,0.3,0.9,0.6,1.4,0.9c0.5,0.2,1.1,0.3,1.6,0.3
		c0.7,0,1.3,0,2-0.1l-0.2,0.4c-2.8-4-5.5-7.9-8.2-11.6L397,336l-0.5-0.6c-0.1-0.2-0.3-0.4-0.5-0.5c-0.2-0.1-0.5-0.1-0.7-0.1h-0.8
		c-2.1,0-4.1,0.2-6.1,0.3c-7.8,0.6-14.2,1.4-18.6,1.8l0,0l-5.2,1.1l-1.4,0.3c-0.2,0-0.3,0.1-0.5,0.1l0.5-0.1l1.4-0.3l5.2-1.2l0,0
		c4.4-0.5,10.8-1.3,18.6-2c2-0.1,4-0.3,6.1-0.3c0.3,0,0.5,0,0.8,0c0.3,0,0.6,0.1,0.9,0.2c0.2,0.2,0.4,0.4,0.6,0.7l0.5,0.6
		c0.6,0.9,1.3,1.8,2,2.7c2.6,3.6,5.4,7.5,8.2,11.6l0.2,0.3l-0.4,0.1c-0.7,0.1-1.4,0.2-2.1,0.1c-0.6,0-1.2-0.1-1.8-0.3
		c-0.5-0.3-1-0.6-1.5-0.9c-0.9-0.7-1.7-1.5-2.5-2.3l0.4,0c-0.4,0.7-0.9,1.2-1.5,1.7c-0.3,0.2-0.7,0.3-1.1,0.3
		c-0.4,0-0.8-0.1-1.1-0.4l0.4-0.1c-0.5,0.7-1.3,1.2-2.1,1.5c-0.8,0.3-1.8,0.2-2.5-0.3l0.4-0.1c-0.6,1.1-1.6,2-2.9,2.4
		c-0.6,0.1-1.2,0.1-1.9,0c-0.6-0.1-1.1-0.2-1.7-0.4c-0.6-0.1-1.1-0.3-1.6-0.5c-0.3-0.1-0.5-0.2-0.8-0.4c-0.2-0.1-0.3-0.2-0.4-0.4
		c-0.1-0.2,0-0.5,0.2-0.6c0.5-0.4,1-0.6,1.6-0.7c0.5-0.1,1.1-0.1,1.6,0l-0.2,0.3c-0.2-0.9-0.3-1.7-0.5-2.4l0.2,0.2h-15.7h0.1
		l-4.4,2.7l-1.2,0.7C364.5,350.6,364.4,350.6,364.3,350.7z"/>
	<path class="st8" d="M432.2,393.4c0-0.2-0.1-0.4-0.1-0.5c0-0.4,0-0.9-0.1-1.5c-0.1-1.4-0.1-3.3-0.2-5.6s-0.2-5.2-0.3-8.4
		c-0.1-1.6-0.1-3.2-0.2-4.9c-0.2-1.7-0.5-3.5-0.9-5.2c-0.2-0.9-0.5-1.7-0.9-2.5c-0.4-0.8-0.8-1.5-1.4-2.1c-1.2-1.1-2.5-2.1-4-2.7
		c-1.3-0.6-2.8-1-4.2-1c-1.3-0.1-2.6-0.1-3.9,0c-2.4,0.1-4.3,0.3-5.6,0.4l-1.5,0.1c-0.2,0-0.4,0-0.5,0c0.2-0.1,0.3-0.1,0.5-0.1
		l1.5-0.2c1.3-0.2,3.2-0.4,5.6-0.6c1.3-0.1,2.6-0.1,3.9-0.1c1.5,0.1,3,0.4,4.4,1c1.6,0.7,3,1.6,4.2,2.8c0.6,0.6,1.2,1.4,1.5,2.2
		c0.4,0.8,0.7,1.7,0.9,2.6c0.5,1.7,0.8,3.5,0.9,5.3c0.1,1.7,0.1,3.4,0.2,5c0.1,3.1,0.1,6,0.2,8.4s0,4.2,0.1,5.6v1.5
		C432.2,393,432.2,393.2,432.2,393.4z"/>
	<path class="st8" d="M370.8,361.5l40.9-7.3l28.6-44.6l28.1,5.9L442,355.9l-74,9.2l0,0C367.8,363.4,369,361.8,370.8,361.5z"/>
	<path class="st1" d="M441.5,334.1c-0.9,1.2-1,2.5-0.3,3.1s2,0,2.8-1.2s1-2.5,0.3-3.1S442.4,332.9,441.5,334.1z"/>
</g>
</svg>
