<?xml version="1.0" encoding="UTF-8"?>
<svg id="Layer_1" data-name="Layer 1" xmlns="http://www.w3.org/2000/svg" xmlns:xlink="http://www.w3.org/1999/xlink" viewBox="0 0 788.11 583.53">
  <defs>
    <style>
      .cls-1 {
        fill: #288e28;
      }

      .cls-1, .cls-2, .cls-3, .cls-4, .cls-5, .cls-6, .cls-7, .cls-8, .cls-9, .cls-10, .cls-11, .cls-12, .cls-13, .cls-14, .cls-15, .cls-16, .cls-17 {
        stroke-width: 0px;
      }

      .cls-2 {
        fill: #d3d3d3;
      }

      .cls-3 {
        fill: #f7b497;
      }

      .cls-4 {
        fill: #dceee0;
      }

      .cls-5 {
        fill: #5095d0;
      }

      .cls-18 {
        opacity: .44;
      }

      .cls-6 {
        fill: #92b5f9;
      }

      .cls-7 {
        fill: #455a64;
      }

      .cls-8 {
        fill: #0b0754;
      }

      .cls-19 {
        isolation: isolate;
      }

      .cls-20 {
        opacity: .57;
      }

      .cls-20, .cls-21, .cls-22 {
        mix-blend-mode: multiply;
      }

      .cls-9 {
        fill: #dde8fe;
      }

      .cls-21 {
        opacity: .53;
      }

      .cls-10 {
        fill: #ffbe9d;
      }

      .cls-11 {
        fill: none;
      }

      .cls-12 {
        fill: #1585c4;
      }

      .cls-23 {
        clip-path: url(#clippath-1);
      }

      .cls-13 {
        fill: #eae9f3;
      }

      .cls-14 {
        fill: #263238;
      }

      .cls-24 {
        clip-path: url(#clippath);
      }

      .cls-15 {
        fill: #fff;
      }

      .cls-16 {
        fill: #fefefe;
      }

      .cls-17 {
        fill: #7c9af2;
      }
    </style>
    <clipPath id="clippath">
      <path class="cls-11" d="M141.49,443.98l-9.48-305.82c0-8.05,7-14.58,15.63-14.58h484.15c8.63,0,15.63,6.53,15.63,14.58l-14.22,305.82c0,8.05-7,14.58-15.63,14.58H157.13c-8.63,0-15.63-6.53-15.63-14.58h0Z"/>
    </clipPath>
    <clipPath id="clippath-1">
      <path class="cls-11" d="M356.3,192.43s.9,105.97-1.99,129.18l7.34,135.86h143.53s6.59-149.08,6.59-160.44.46-104.3.46-104.3l-39.97-14.27-56.61-.71-59.35,14.68h0Z"/>
    </clipPath>
  </defs>
  <g class="cls-19">
    <g id="Layer_1-2" data-name="Layer 1">
      <g>
        <rect class="cls-5" x="44.07" y="568.71" width="744.04" height="14.82" rx="7.31" ry="7.31"/>
        <path class="cls-13" d="M634.51,476.41H136.16c-8.63,0-15.63-6.53-15.63-14.58l-9.48-341.17c0-8.05,7-14.58,15.63-14.58h522.05c8.63,0,15.63,6.53,15.63,14.58l-14.22,341.17c0,8.05-7,14.58-15.63,14.58Z"/>
        <path class="cls-7" d="M658.29,109.12c1.66,2.32,2.63,5.1,2.63,8.09l-14.22,341.17c0,8.05-7,14.58-15.63,14.58H132.72c-3.6,0-6.92-1.14-9.56-3.05,2.8,3.91,7.58,6.49,13,6.49h498.34c8.63,0,15.63-6.53,15.63-14.58l14.22-341.17c0-4.69-2.38-8.87-6.07-11.54h.01Z"/>
        <path class="cls-14" d="M142.2,436.48l-9.48-305.82c0-8.05,7-14.58,15.63-14.58h484.15c8.63,0,15.63,6.53,15.63,14.58l-14.22,305.82c0,8.05-7,14.58-15.63,14.58H157.84c-8.63,0-15.63-6.53-15.63-14.58h0Z"/>
        <g>
          <path class="cls-7" d="M141.49,443.98l-9.48-305.82c0-8.05,7-14.58,15.63-14.58h484.15c8.63,0,15.63,6.53,15.63,14.58l-14.22,305.82c0,8.05-7,14.58-15.63,14.58H157.13c-8.63,0-15.63-6.53-15.63-14.58h0Z"/>
          <g class="cls-24">
            <g>
              <polygon class="cls-7" points="629.74 458.56 647.42 457.41 647.42 458.56 629.74 458.56"/>
              <polygon class="cls-7" points="586.6 458.56 647.42 454.61 647.42 457.41 629.74 458.56 586.6 458.56"/>
              <polygon class="cls-7" points="543.45 458.56 647.42 451.8 647.42 454.61 586.6 458.56 543.45 458.56"/>
              <polygon class="cls-7" points="500.31 458.56 647.42 449 647.42 451.8 543.45 458.56 500.31 458.56"/>
              <polygon class="cls-7" points="457.17 458.56 647.42 446.2 647.42 449 500.31 458.56 457.17 458.56"/>
              <polygon class="cls-7" points="414.03 458.56 647.42 443.39 647.42 446.2 457.17 458.56 414.03 458.56"/>
              <polygon class="cls-7" points="370.88 458.56 647.42 440.59 647.42 443.39 414.03 458.56 370.88 458.56"/>
              <polygon class="cls-7" points="327.74 458.56 647.42 437.79 647.42 440.59 370.88 458.56 327.74 458.56"/>
              <polygon class="cls-7" points="284.6 458.56 647.42 434.98 647.42 437.79 327.74 458.56 284.6 458.56"/>
              <polygon class="cls-7" points="241.46 458.56 647.42 432.18 647.42 434.98 284.6 458.56 241.46 458.56"/>
              <polygon class="cls-7" points="198.31 458.56 647.42 429.38 647.42 432.18 241.46 458.56 198.31 458.56"/>
              <polygon class="cls-7" points="155.17 458.56 647.42 426.57 647.42 429.38 198.31 458.56 155.17 458.56"/>
              <polygon class="cls-7" points="140.94 458.56 140.82 456.69 647.42 423.77 647.42 426.57 155.17 458.56 140.94 458.56"/>
              <polygon class="cls-7" points="140.82 456.69 140.64 453.9 647.42 420.96 647.42 423.77 140.82 456.69"/>
              <polygon class="cls-7" points="140.64 453.9 140.46 451.11 647.42 418.16 647.42 420.96 140.64 453.9"/>
              <polygon class="cls-7" points="140.46 451.11 140.28 448.31 647.42 415.36 647.42 418.16 140.46 451.11"/>
              <polygon class="cls-7" points="140.28 448.31 140.1 445.52 647.42 412.55 647.42 415.36 140.28 448.31"/>
              <polygon class="cls-7" points="140.1 445.52 139.92 442.73 647.42 409.75 647.42 412.55 140.1 445.52"/>
              <polygon class="cls-7" points="139.92 442.73 139.73 439.94 647.42 406.95 647.42 409.75 139.92 442.73"/>
              <polygon class="cls-7" points="139.73 439.94 139.55 437.15 647.42 404.14 647.42 406.95 139.73 439.94"/>
              <polygon class="cls-7" points="139.55 437.15 139.37 434.35 647.42 401.34 647.42 404.14 139.55 437.15"/>
              <polygon class="cls-7" points="139.37 434.35 139.19 431.56 647.42 398.54 647.42 401.34 139.37 434.35"/>
              <polygon class="cls-7" points="139.19 431.56 139.01 428.77 647.42 395.73 647.42 398.54 139.19 431.56"/>
              <polygon class="cls-7" points="139.01 428.77 138.83 425.98 647.42 392.93 647.42 395.73 139.01 428.77"/>
              <polygon class="cls-7" points="138.83 425.98 138.65 423.19 647.42 390.13 647.42 392.93 138.83 425.98"/>
              <polygon class="cls-7" points="138.65 423.19 138.46 420.4 647.42 387.32 647.42 390.13 138.65 423.19"/>
              <polygon class="cls-7" points="138.46 420.4 138.28 417.6 647.42 384.52 647.42 387.32 138.46 420.4"/>
              <polygon class="cls-7" points="138.28 417.6 138.1 414.81 647.42 381.72 647.42 384.52 138.28 417.6"/>
              <polygon class="cls-7" points="138.1 414.81 137.92 412.02 647.42 378.91 647.42 381.72 138.1 414.81"/>
              <polygon class="cls-7" points="137.92 412.02 137.74 409.23 647.42 376.11 647.42 378.91 137.92 412.02"/>
              <polygon class="cls-7" points="137.74 409.23 137.56 406.44 647.42 373.3 647.42 376.11 137.74 409.23"/>
              <polygon class="cls-7" points="137.56 406.44 137.38 403.65 647.42 370.5 647.42 373.3 137.56 406.44"/>
              <polygon class="cls-7" points="137.38 403.65 137.19 400.85 647.42 367.7 647.42 370.5 137.38 403.65"/>
              <polygon class="cls-7" points="137.19 400.85 137.01 398.06 647.42 364.89 647.42 367.7 137.19 400.85"/>
              <polygon class="cls-7" points="137.01 398.06 136.83 395.27 647.42 362.09 647.42 364.89 137.01 398.06"/>
              <polygon class="cls-7" points="136.83 395.27 136.65 392.48 647.42 359.29 647.42 362.09 136.83 395.27"/>
              <polygon class="cls-7" points="136.65 392.48 136.47 389.69 647.42 356.48 647.42 359.29 136.65 392.48"/>
              <polygon class="cls-7" points="136.47 389.69 136.29 386.9 647.42 353.68 647.42 356.48 136.47 389.69"/>
              <polygon class="cls-7" points="136.29 386.9 136.11 384.1 647.42 350.88 647.42 353.68 136.29 386.9"/>
              <polygon class="cls-7" points="136.11 384.1 135.93 381.31 647.42 348.07 647.42 350.88 136.11 384.1"/>
              <polygon class="cls-7" points="135.93 381.31 135.74 378.52 647.42 345.27 647.42 348.07 135.93 381.31"/>
              <polygon class="cls-7" points="135.74 378.52 135.56 375.73 647.42 342.47 647.42 345.27 135.74 378.52"/>
              <polygon class="cls-7" points="135.56 375.73 135.38 372.94 647.42 339.66 647.42 342.47 135.56 375.73"/>
              <polygon class="cls-7" points="135.38 372.94 135.2 370.15 647.42 336.86 647.42 339.66 135.38 372.94"/>
              <polygon class="cls-7" points="135.2 370.15 135.02 367.35 647.42 334.06 647.42 336.86 135.2 370.15"/>
              <polygon class="cls-7" points="135.02 367.35 134.84 364.56 647.42 331.25 647.42 334.06 135.02 367.35"/>
              <polygon class="cls-7" points="134.84 364.56 134.66 361.77 647.42 328.45 647.42 331.25 134.84 364.56"/>
              <polygon class="cls-7" points="134.66 361.77 134.47 358.98 647.42 325.65 647.42 328.45 134.66 361.77"/>
              <polygon class="cls-7" points="134.47 358.98 134.29 356.19 647.42 322.84 647.42 325.65 134.47 358.98"/>
              <polygon class="cls-7" points="134.29 356.19 134.11 353.39 647.42 320.04 647.42 322.84 134.29 356.19"/>
              <polygon class="cls-7" points="134.11 353.39 133.93 350.6 647.42 317.23 647.42 320.04 134.11 353.39"/>
              <polygon class="cls-7" points="133.93 350.6 133.75 347.81 647.42 314.43 647.42 317.23 133.93 350.6"/>
              <polygon class="cls-7" points="133.75 347.81 133.57 345.02 647.42 311.63 647.42 314.43 133.75 347.81"/>
              <polygon class="cls-7" points="133.57 345.02 133.39 342.23 647.42 308.82 647.42 311.63 133.57 345.02"/>
              <polygon class="cls-7" points="133.39 342.23 133.2 339.44 647.42 306.02 647.42 308.82 133.39 342.23"/>
              <polygon class="cls-7" points="133.2 339.44 133.02 336.64 647.42 303.22 647.42 306.02 133.2 339.44"/>
              <polygon class="cls-7" points="133.02 336.64 132.84 333.85 647.42 300.41 647.42 303.22 133.02 336.64"/>
              <polygon class="cls-7" points="132.84 333.85 132.66 331.06 647.42 297.61 647.42 300.41 132.84 333.85"/>
              <polygon class="cls-7" points="132.66 331.06 132.48 328.27 647.42 294.81 647.42 297.61 132.66 331.06"/>
              <polygon class="cls-7" points="132.48 328.27 132.3 325.48 647.42 292 647.42 294.81 132.48 328.27"/>
              <polygon class="cls-7" points="132.3 325.48 132.12 322.69 647.42 289.2 647.42 292 132.3 325.48"/>
              <polygon class="cls-7" points="132.12 322.69 132.01 321.1 132.01 319.89 647.42 286.4 647.42 289.2 132.12 322.69"/>
              <polygon class="cls-7" points="132.01 317.09 647.42 283.59 647.42 286.4 132.01 319.89 132.01 317.09"/>
              <polygon class="cls-7" points="132.01 314.28 647.42 280.79 647.42 283.59 132.01 317.09 132.01 314.28"/>
              <polygon class="cls-7" points="132.01 311.48 647.42 277.99 647.42 280.79 132.01 314.28 132.01 311.48"/>
              <polygon class="cls-7" points="132.01 308.68 647.42 275.18 647.42 277.99 132.01 311.48 132.01 308.68"/>
              <polygon class="cls-7" points="132.01 305.87 647.42 272.38 647.42 275.18 132.01 308.68 132.01 305.87"/>
              <polygon class="cls-7" points="132.01 303.07 647.42 269.58 647.42 272.38 132.01 305.87 132.01 303.07"/>
              <polygon class="cls-7" points="132.01 300.26 647.42 266.77 647.42 269.58 132.01 303.07 132.01 300.26"/>
              <polygon class="cls-7" points="132.01 297.46 647.42 263.97 647.42 266.77 132.01 300.26 132.01 297.46"/>
              <polygon class="cls-7" points="132.01 294.66 647.42 261.17 647.42 263.97 132.01 297.46 132.01 294.66"/>
              <polygon class="cls-7" points="132.01 291.85 647.42 258.36 647.42 261.17 132.01 294.66 132.01 291.85"/>
              <polygon class="cls-7" points="132.01 289.05 647.42 255.56 647.42 258.36 132.01 291.85 132.01 289.05"/>
              <polygon class="cls-7" points="132.01 286.25 647.42 252.75 647.42 255.56 132.01 289.05 132.01 286.25"/>
              <polygon class="cls-7" points="132.01 283.44 647.42 249.95 647.42 252.75 132.01 286.25 132.01 283.44"/>
              <polygon class="cls-7" points="132.01 280.64 647.42 247.15 647.42 249.95 132.01 283.44 132.01 280.64"/>
              <polygon class="cls-7" points="132.01 277.84 647.42 244.34 647.42 247.15 132.01 280.64 132.01 277.84"/>
              <polygon class="cls-7" points="132.01 275.03 647.42 241.54 647.42 244.34 132.01 277.84 132.01 275.03"/>
              <polygon class="cls-7" points="132.01 272.23 647.42 238.74 647.42 241.54 132.01 275.03 132.01 272.23"/>
              <polygon class="cls-7" points="132.01 269.43 647.42 235.93 647.42 238.74 132.01 272.23 132.01 269.43"/>
              <polygon class="cls-7" points="132.01 266.62 647.42 233.13 647.42 235.93 132.01 269.43 132.01 266.62"/>
              <polygon class="cls-7" points="132.01 263.82 647.42 230.33 647.42 233.13 132.01 266.62 132.01 263.82"/>
              <polygon class="cls-7" points="132.01 261.02 647.42 227.52 647.42 230.33 132.01 263.82 132.01 261.02"/>
              <polygon class="cls-7" points="132.01 258.21 647.42 224.72 647.42 227.52 132.01 261.02 132.01 258.21"/>
              <polygon class="cls-7" points="132.01 255.41 647.42 221.92 647.42 224.72 132.01 258.21 132.01 255.41"/>
              <polygon class="cls-7" points="132.01 252.61 647.42 219.11 647.42 221.92 132.01 255.41 132.01 252.61"/>
              <polygon class="cls-7" points="132.01 249.8 647.42 216.31 647.42 219.11 132.01 252.61 132.01 249.8"/>
              <polygon class="cls-7" points="132.01 247 647.42 213.51 647.42 216.31 132.01 249.8 132.01 247"/>
              <polygon class="cls-7" points="132.01 244.19 647.42 210.7 647.42 213.51 132.01 247 132.01 244.19"/>
              <polygon class="cls-7" points="132.01 241.39 647.42 207.9 647.42 210.7 132.01 244.19 132.01 241.39"/>
              <polygon class="cls-7" points="132.01 238.59 647.42 205.09 647.42 207.9 132.01 241.39 132.01 238.59"/>
              <polygon class="cls-7" points="132.01 235.78 647.42 202.29 647.42 205.09 132.01 238.59 132.01 235.78"/>
              <polygon class="cls-7" points="132.01 232.98 647.42 199.49 647.42 202.29 132.01 235.78 132.01 232.98"/>
              <polygon class="cls-7" points="132.01 230.18 647.42 196.68 647.42 199.49 132.01 232.98 132.01 230.18"/>
              <polygon class="cls-7" points="132.01 227.37 647.42 193.88 647.42 196.68 132.01 230.18 132.01 227.37"/>
              <polygon class="cls-7" points="132.01 224.57 647.42 191.08 647.42 193.88 132.01 227.37 132.01 224.57"/>
              <polygon class="cls-7" points="132.01 221.77 647.42 188.27 647.42 191.08 132.01 224.57 132.01 221.77"/>
              <polygon class="cls-7" points="132.01 218.96 647.42 185.47 647.42 188.27 132.01 221.77 132.01 218.96"/>
              <polygon class="cls-7" points="132.01 216.16 647.42 182.67 647.42 185.47 132.01 218.96 132.01 216.16"/>
              <polygon class="cls-7" points="132.01 213.36 647.42 179.86 647.42 182.67 132.01 216.16 132.01 213.36"/>
              <polygon class="cls-7" points="132.01 210.55 647.42 177.06 647.42 179.86 132.01 213.36 132.01 210.55"/>
              <polygon class="cls-7" points="132.01 207.75 647.42 174.26 647.42 177.06 132.01 210.55 132.01 207.75"/>
              <polygon class="cls-7" points="132.01 204.95 647.42 171.45 647.42 174.26 132.01 207.75 132.01 204.95"/>
              <polygon class="cls-7" points="132.01 202.14 647.42 168.65 647.42 171.45 132.01 204.95 132.01 202.14"/>
              <polygon class="cls-7" points="132.01 199.34 647.42 165.85 647.42 168.65 132.01 202.14 132.01 199.34"/>
              <polygon class="cls-7" points="132.01 196.54 647.42 163.04 647.42 165.85 132.01 199.34 132.01 196.54"/>
              <polygon class="cls-7" points="132.01 193.73 647.42 160.24 647.42 163.04 132.01 196.54 132.01 193.73"/>
              <polygon class="cls-7" points="132.01 190.93 647.42 157.44 647.42 160.24 132.01 193.73 132.01 190.93"/>
              <polygon class="cls-7" points="132.01 188.12 647.42 154.63 647.42 157.44 132.01 190.93 132.01 188.12"/>
              <polygon class="cls-7" points="132.01 185.32 647.42 151.83 647.42 154.63 132.01 188.12 132.01 185.32"/>
              <polygon class="cls-7" points="132.01 182.52 647.42 149.02 647.42 151.83 132.01 185.32 132.01 182.52"/>
              <polygon class="cls-7" points="132.01 179.71 647.42 146.22 647.42 149.02 132.01 182.52 132.01 179.71"/>
              <polygon class="cls-7" points="132.01 176.91 647.42 143.42 647.42 146.22 132.01 179.71 132.01 176.91"/>
              <polygon class="cls-7" points="132.01 174.11 647.42 140.61 647.42 143.42 132.01 176.91 132.01 174.11"/>
              <polygon class="cls-7" points="132.01 171.3 647.42 137.81 647.42 140.61 132.01 174.11 132.01 171.3"/>
              <polygon class="cls-7" points="132.01 168.5 647.42 135.01 647.42 137.81 132.01 171.3 132.01 168.5"/>
              <polygon class="cls-7" points="132.01 165.7 647.42 132.2 647.42 135.01 132.01 168.5 132.01 165.7"/>
              <polygon class="cls-7" points="132.01 162.89 647.42 129.4 647.42 132.2 132.01 165.7 132.01 162.89"/>
              <polygon class="cls-7" points="132.01 160.09 647.42 126.6 647.42 129.4 132.01 162.89 132.01 160.09"/>
              <polygon class="cls-7" points="132.01 157.29 647.42 123.79 647.42 126.6 132.01 160.09 132.01 157.29"/>
              <polygon class="cls-7" points="132.01 154.48 607.64 123.58 647.42 123.58 647.42 123.79 132.01 157.29 132.01 154.48"/>
              <polygon class="cls-7" points="132.01 151.68 564.5 123.58 607.64 123.58 132.01 154.48 132.01 151.68"/>
              <polygon class="cls-7" points="132.01 148.88 521.35 123.58 564.5 123.58 132.01 151.68 132.01 148.88"/>
              <polygon class="cls-7" points="132.01 146.07 478.21 123.58 521.35 123.58 132.01 148.88 132.01 146.07"/>
              <polygon class="cls-7" points="478.21 123.58 132.01 146.07 132.01 123.58 478.21 123.58"/>
            </g>
          </g>
        </g>
        <path class="cls-9" d="M614.89,440.09h-8.72c-.26,0-.47-.21-.47-.47s.21-.47.47-.47h7.82l.12-2.64c.01-.26.24-.49.49-.45.26.01.46.23.45.5l-.16,3.55v-.02ZM594.8,440.09h-11.37c-.26,0-.47-.21-.47-.47s.21-.47.47-.47h11.37c.26,0,.47.21.47.47s-.21.47-.47.47ZM572.06,440.09h-11.37c-.26,0-.47-.21-.47-.47s.21-.47.47-.47h11.37c.26,0,.47.21.47.47s-.21.47-.47.47ZM549.32,440.09h-11.37c-.26,0-.47-.21-.47-.47s.21-.47.47-.47h11.37c.26,0,.47.21.47.47s-.21.47-.47.47ZM526.58,440.09h-11.37c-.26,0-.47-.21-.47-.47s.21-.47.47-.47h11.37c.26,0,.47.21.47.47s-.21.47-.47.47ZM503.84,440.09h-11.37c-.26,0-.47-.21-.47-.47s.21-.47.47-.47h11.37c.26,0,.47.21.47.47s-.21.47-.47.47ZM481.1,440.09h-11.37c-.26,0-.47-.21-.47-.47s.21-.47.47-.47h11.37c.26,0,.47.21.47.47s-.21.47-.47.47ZM458.36,440.09h-11.37c-.26,0-.47-.21-.47-.47s.21-.47.47-.47h11.37c.26,0,.47.21.47.47s-.21.47-.47.47ZM435.62,440.09h-11.37c-.26,0-.47-.21-.47-.47s.21-.47.47-.47h11.37c.26,0,.47.21.47.47s-.21.47-.47.47ZM412.88,440.09h-11.37c-.26,0-.47-.21-.47-.47s.21-.47.47-.47h11.37c.26,0,.47.21.47.47s-.21.47-.47.47ZM390.14,440.09h-11.37c-.26,0-.47-.21-.47-.47s.21-.47.47-.47h11.37c.26,0,.47.21.47.47s-.21.47-.47.47ZM367.4,440.09h-11.37c-.26,0-.47-.21-.47-.47s.21-.47.47-.47h11.37c.26,0,.47.21.47.47s-.21.47-.47.47ZM344.66,440.09h-11.37c-.26,0-.47-.21-.47-.47s.21-.47.47-.47h11.37c.26,0,.47.21.47.47s-.21.47-.47.47ZM321.92,440.09h-11.37c-.26,0-.47-.21-.47-.47s.21-.47.47-.47h11.37c.26,0,.47.21.47.47s-.21.47-.47.47ZM299.18,440.09h-11.37c-.26,0-.47-.21-.47-.47s.21-.47.47-.47h11.37c.26,0,.47.21.47.47s-.21.47-.47.47ZM276.44,440.09h-11.37c-.26,0-.47-.21-.47-.47s.21-.47.47-.47h11.37c.26,0,.47.21.47.47s-.21.47-.47.47ZM253.7,440.09h-11.37c-.26,0-.47-.21-.47-.47s.21-.47.47-.47h11.37c.26,0,.47.21.47.47s-.21.47-.47.47ZM230.96,440.09h-11.37c-.26,0-.47-.21-.47-.47s.21-.47.47-.47h11.37c.26,0,.47.21.47.47s-.21.47-.47.47ZM208.22,440.09h-11.37c-.26,0-.47-.21-.47-.47s.21-.47.47-.47h11.37c.26,0,.47.21.47.47s-.21.47-.47.47ZM185.48,440.09h-11.37c-.26,0-.47-.21-.47-.47s.21-.47.47-.47h11.37c.26,0,.47.21.47.47s-.21.47-.47.47ZM162.74,440.09h-2.92l-.37-11.82c0-.26.2-.48.46-.49.27.01.48.2.49.46l.34,10.9h2c.26,0,.47.21.47.47s-.21.47-.47.47h0ZM615.08,425.64h-.02c-.26-.01-.46-.23-.45-.49l.53-11.36c.01-.26.25-.49.5-.45.26.01.46.23.45.49l-.53,11.36c-.01.25-.22.45-.47.45h-.01ZM159.58,417.36c-.25,0-.46-.2-.47-.46l-.35-11.36c0-.26.2-.48.46-.49.27,0,.48.2.49.46l.35,11.36c0,.26-.2.48-.46.49h-.02ZM616.14,402.92h-.02c-.26-.01-.46-.23-.45-.49l.53-11.36c.01-.26.23-.47.5-.45.26.01.46.23.45.49l-.53,11.36c-.01.25-.22.45-.47.45h-.01ZM158.88,394.63c-.26,0-.47-.2-.47-.46l-.35-11.36c0-.26.2-.48.46-.49.26,0,.48.2.49.46l.35,11.36c0,.26-.2.48-.46.49h-.02ZM617.2,380.21h-.02c-.26-.01-.46-.23-.45-.5l.53-11.36c.01-.26.24-.48.49-.45.26.01.46.23.45.5l-.53,11.36c-.01.25-.22.45-.47.45ZM158.18,371.91c-.25,0-.46-.2-.47-.46l-.35-11.36c0-.26.2-.48.46-.49.26.02.48.2.49.46l.35,11.36c0,.26-.2.48-.46.49h-.02ZM618.26,357.5h-.02c-.26-.01-.46-.23-.45-.49l.53-11.36c.01-.26.22-.48.49-.45.26.01.46.23.45.49l-.53,11.36c-.01.25-.22.45-.47.45ZM157.48,349.18c-.25,0-.47-.2-.47-.46l-.35-11.36c0-.26.2-.48.46-.49.28-.02.48.2.49.46l.35,11.36c0,.26-.2.48-.46.49h-.02ZM619.32,334.78h-.02c-.26-.01-.46-.23-.45-.49l.53-11.36c.01-.26.24-.48.5-.45.26.01.46.23.45.5l-.53,11.36c-.01.25-.22.45-.47.45h-.01ZM156.78,326.45c-.25,0-.46-.2-.47-.46l-.35-11.36c0-.26.2-.48.46-.49.28,0,.48.2.49.46l.35,11.36c0,.26-.2.48-.46.49h-.02ZM620.38,312.07h-.02c-.26-.01-.46-.23-.45-.5l.53-11.36c.01-.26.25-.49.5-.45.26.01.46.23.45.49l-.53,11.36c-.01.25-.22.45-.47.45h-.01ZM156.08,303.73c-.25,0-.46-.2-.47-.46l-.35-11.36c0-.26.2-.48.46-.49.29,0,.48.2.49.46l.35,11.36c0,.26-.2.48-.46.49h-.02ZM621.44,289.36h-.02c-.26-.01-.46-.23-.45-.49l.53-11.36c.01-.26.23-.47.49-.45.26.01.46.23.45.5l-.53,11.36c-.01.25-.22.45-.47.45h0ZM155.38,281c-.25,0-.46-.2-.47-.46l-.35-11.36c0-.26.2-.48.46-.49.27,0,.48.2.49.46l.35,11.36c0,.26-.2.48-.46.49h-.02ZM622.5,266.64h-.02c-.26-.01-.46-.23-.45-.5l.53-11.36c.01-.26.27-.46.49-.45.26.01.46.23.45.5l-.53,11.36c-.01.25-.22.45-.47.45ZM154.68,258.27c-.25,0-.46-.2-.47-.46l-.35-11.36c0-.26.2-.48.46-.49.27-.03.48.2.49.46l.35,11.36c0,.26-.2.48-.46.49h-.02ZM623.56,243.93h-.02c-.26-.01-.46-.23-.45-.5l.53-11.36c.01-.26.22-.46.5-.45.26.01.46.23.45.5l-.53,11.36c-.01.25-.22.45-.47.45h-.01ZM153.97,235.54c-.25,0-.46-.2-.47-.46l-.35-11.36c0-.26.2-.48.46-.49.26,0,.48.2.49.46l.35,11.36c0,.26-.2.48-.46.49h-.02ZM624.61,221.21h-.02c-.26-.01-.46-.23-.45-.5l.53-11.36c.01-.26.23-.47.5-.45.26.01.46.23.45.5l-.53,11.36c-.01.25-.22.45-.47.45h-.01ZM153.26,212.81c-.25,0-.46-.2-.47-.46l-.35-11.36c0-.26.2-.48.46-.49.26,0,.48.2.49.46l.35,11.36c0,.26-.2.48-.46.49h-.02ZM625.66,198.5h-.02c-.26-.01-.46-.23-.45-.5l.53-11.36c.01-.26.25-.47.49-.45.26.01.46.23.45.5l-.53,11.36c-.01.25-.22.45-.47.45ZM152.55,190.09c-.25,0-.46-.2-.47-.46l-.35-11.36c0-.26.2-.48.46-.49.28-.01.48.2.49.46l.35,11.36c0,.26-.2.48-.46.49h-.02ZM626.71,175.79h-.02c-.26-.01-.46-.23-.45-.5l.53-11.36c.01-.26.23-.47.49-.45.26.01.46.23.45.5l-.53,11.36c-.01.25-.22.45-.47.45ZM151.84,167.36c-.25,0-.46-.2-.47-.46l-.35-11.36c0-.26.2-.48.46-.49.25-.02.48.2.49.46l.35,11.36c0,.26-.2.48-.46.49h-.02ZM627.76,153.07h-.02c-.26-.01-.46-.23-.45-.5l.45-9.58h-.79c-.26,0-.47-.21-.47-.47s.21-.47.47-.47h1.78l-.49,10.57c-.01.25-.22.45-.47.45h-.01ZM151.13,144.63c-.25,0-.47-.2-.47-.46l-.07-2.12h10.22c.26,0,.47.21.47.47s-.21.47-.47.47h-9.24l.04,1.15c0,.26-.2.48-.46.49h-.02ZM615.57,142.99h-11.37c-.26,0-.47-.21-.47-.47s.21-.47.47-.47h11.37c.26,0,.47.21.47.47s-.21.47-.47.47ZM592.83,142.99h-11.37c-.26,0-.47-.21-.47-.47s.21-.47.47-.47h11.37c.26,0,.47.21.47.47s-.21.47-.47.47ZM570.09,142.99h-11.37c-.26,0-.47-.21-.47-.47s.21-.47.47-.47h11.37c.26,0,.47.21.47.47s-.21.47-.47.47ZM547.35,142.99h-11.37c-.26,0-.47-.21-.47-.47s.21-.47.47-.47h11.37c.26,0,.47.21.47.47s-.21.47-.47.47ZM524.61,142.99h-11.37c-.26,0-.47-.21-.47-.47s.21-.47.47-.47h11.37c.26,0,.47.21.47.47s-.21.47-.47.47ZM501.87,142.99h-11.37c-.26,0-.47-.21-.47-.47s.21-.47.47-.47h11.37c.26,0,.47.21.47.47s-.21.47-.47.47ZM479.13,142.99h-11.37c-.26,0-.47-.21-.47-.47s.21-.47.47-.47h11.37c.26,0,.47.21.47.47s-.21.47-.47.47ZM456.39,142.99h-11.37c-.26,0-.47-.21-.47-.47s.21-.47.47-.47h11.37c.26,0,.47.21.47.47s-.21.47-.47.47ZM433.65,142.99h-11.37c-.26,0-.47-.21-.47-.47s.21-.47.47-.47h11.37c.26,0,.47.21.47.47s-.21.47-.47.47ZM410.91,142.99h-11.37c-.26,0-.47-.21-.47-.47s.21-.47.47-.47h11.37c.26,0,.47.21.47.47s-.21.47-.47.47ZM388.17,142.99h-11.37c-.26,0-.47-.21-.47-.47s.21-.47.47-.47h11.37c.26,0,.47.21.47.47s-.21.47-.47.47ZM365.43,142.99h-11.37c-.26,0-.47-.21-.47-.47s.21-.47.47-.47h11.37c.26,0,.47.21.47.47s-.21.47-.47.47ZM342.69,142.99h-11.37c-.26,0-.47-.21-.47-.47s.21-.47.47-.47h11.37c.26,0,.47.21.47.47s-.21.47-.47.47ZM319.95,142.99h-11.37c-.26,0-.47-.21-.47-.47s.21-.47.47-.47h11.37c.26,0,.47.21.47.47s-.21.47-.47.47ZM297.21,142.99h-11.37c-.26,0-.47-.21-.47-.47s.21-.47.47-.47h11.37c.26,0,.47.21.47.47s-.21.47-.47.47ZM274.47,142.99h-11.37c-.26,0-.47-.21-.47-.47s.21-.47.47-.47h11.37c.26,0,.47.21.47.47s-.21.47-.47.47ZM251.73,142.99h-11.37c-.26,0-.47-.21-.47-.47s.21-.47.47-.47h11.37c.26,0,.47.21.47.47s-.21.47-.47.47ZM228.99,142.99h-11.37c-.26,0-.47-.21-.47-.47s.21-.47.47-.47h11.37c.26,0,.47.21.47.47s-.21.47-.47.47ZM206.25,142.99h-11.37c-.26,0-.47-.21-.47-.47s.21-.47.47-.47h11.37c.26,0,.47.21.47.47s-.21.47-.47.47ZM183.51,142.99h-11.37c-.26,0-.47-.21-.47-.47s.21-.47.47-.47h11.37c.26,0,.47.21.47.47s-.21.47-.47.47Z"/>
        <g>
          <path class="cls-16" d="M356.3,192.43s.9,105.97-1.99,129.18l7.34,135.86h143.53s6.59-149.08,6.59-160.44.46-104.3.46-104.3l-39.97-14.27-56.61-.71-59.35,14.68h0Z"/>
          <g class="cls-23">
            <g>
              <polygon class="cls-16" points="354.31 454.39 499.82 457.47 354.31 457.47 354.31 454.39"/>
              <polygon class="cls-16" points="354.31 448.27 509.72 451.56 509.59 457.47 499.82 457.47 354.31 454.39 354.31 448.27"/>
              <polygon class="cls-16" points="354.31 442.16 509.84 445.44 509.72 451.56 354.31 448.27 354.31 442.16"/>
              <polygon class="cls-16" points="354.31 436.04 509.97 439.33 509.84 445.44 354.31 442.16 354.31 436.04"/>
              <polygon class="cls-16" points="354.31 429.92 510.1 433.21 509.97 439.33 354.31 436.04 354.31 429.92"/>
              <polygon class="cls-16" points="354.31 423.8 510.23 427.1 510.1 433.21 354.31 429.92 354.31 423.8"/>
              <polygon class="cls-16" points="354.31 417.68 510.36 420.98 510.23 427.1 354.31 423.8 354.31 417.68"/>
              <polygon class="cls-16" points="354.31 411.57 510.49 414.87 510.36 420.98 354.31 417.68 354.31 411.57"/>
              <polygon class="cls-16" points="354.31 405.45 510.62 408.75 510.49 414.87 354.31 411.57 354.31 405.45"/>
              <polygon class="cls-16" points="354.31 399.33 510.75 402.64 510.62 408.75 354.31 405.45 354.31 399.33"/>
              <polygon class="cls-16" points="354.31 393.21 510.88 396.52 510.75 402.64 354.31 399.33 354.31 393.21"/>
              <polygon class="cls-16" points="354.31 387.1 511.01 390.41 510.88 396.52 354.31 393.21 354.31 387.1"/>
              <polygon class="cls-16" points="354.31 380.98 511.14 384.29 511.01 390.41 354.31 387.1 354.31 380.98"/>
              <polygon class="cls-16" points="354.31 374.86 511.26 378.18 511.14 384.29 354.31 380.98 354.31 374.86"/>
              <polygon class="cls-16" points="354.31 368.74 511.39 372.06 511.26 378.18 354.31 374.86 354.31 368.74"/>
              <polygon class="cls-16" points="354.31 362.62 511.52 365.95 511.39 372.06 354.31 368.74 354.31 362.62"/>
              <polygon class="cls-16" points="354.31 356.51 511.65 359.83 511.52 365.95 354.31 362.62 354.31 356.51"/>
              <polygon class="cls-16" points="354.31 350.39 511.78 353.72 511.65 359.83 354.31 356.51 354.31 350.39"/>
              <polygon class="cls-16" points="354.31 344.27 511.91 347.6 511.78 353.72 354.31 350.39 354.31 344.27"/>
              <polygon class="cls-16" points="354.31 338.15 512.04 341.48 511.91 347.6 354.31 344.27 354.31 338.15"/>
              <polygon class="cls-16" points="354.31 332.03 512.17 335.37 512.04 341.48 354.31 338.15 354.31 332.03"/>
              <polygon class="cls-16" points="354.31 325.92 512.23 329.25 512.23 332.44 512.17 335.37 354.31 332.03 354.31 325.92"/>
              <polygon class="cls-16" points="354.31 319.8 512.23 323.14 512.23 329.25 354.31 325.92 354.31 319.8"/>
              <polygon class="cls-16" points="354.31 313.68 512.23 317.02 512.23 323.14 354.31 319.8 354.31 313.68"/>
              <polygon class="cls-16" points="354.31 307.56 512.23 310.9 512.23 317.02 354.31 313.68 354.31 307.56"/>
              <polygon class="cls-16" points="354.31 301.45 512.23 304.78 512.23 310.9 354.31 307.56 354.31 301.45"/>
              <polygon class="cls-16" points="354.31 295.33 512.23 298.66 512.23 304.78 354.31 301.45 354.31 295.33"/>
              <polygon class="cls-16" points="354.31 289.21 512.23 292.54 512.23 298.66 354.31 295.33 354.31 289.21"/>
              <polygon class="cls-16" points="354.31 283.09 512.23 286.43 512.23 292.54 354.31 289.21 354.31 283.09"/>
              <polygon class="cls-16" points="354.31 276.97 512.23 280.31 512.23 286.43 354.31 283.09 354.31 276.97"/>
              <polygon class="cls-16" points="354.31 270.86 512.23 274.19 512.23 280.31 354.31 276.97 354.31 270.86"/>
              <polygon class="cls-16" points="354.31 264.74 512.23 268.07 512.23 274.19 354.31 270.86 354.31 264.74"/>
              <polygon class="cls-16" points="354.31 258.62 512.23 261.96 512.23 268.07 354.31 264.74 354.31 258.62"/>
              <polygon class="cls-16" points="354.31 252.5 512.23 255.84 512.23 261.96 354.31 258.62 354.31 252.5"/>
              <polygon class="cls-16" points="354.31 246.38 512.23 249.72 512.23 255.84 354.31 252.5 354.31 246.38"/>
              <polygon class="cls-16" points="354.31 240.83 354.32 240.27 512.23 243.6 512.23 249.72 354.31 246.38 354.31 240.83"/>
              <polygon class="cls-16" points="354.32 240.27 354.45 234.15 512.23 237.48 512.23 243.6 354.32 240.27"/>
              <polygon class="cls-16" points="354.45 234.15 354.58 228.04 512.23 231.37 512.23 237.48 354.45 234.15"/>
              <polygon class="cls-16" points="354.58 228.04 354.71 221.92 512.23 225.25 512.23 231.37 354.58 228.04"/>
              <polygon class="cls-16" points="354.71 221.92 354.84 215.81 512.23 219.13 512.23 225.25 354.71 221.92"/>
              <polygon class="cls-16" points="354.84 215.81 354.96 209.69 512.23 213.01 512.23 219.13 354.84 215.81"/>
              <polygon class="cls-16" points="354.96 209.69 355.09 203.57 512.23 206.89 512.23 213.01 354.96 209.69"/>
              <polygon class="cls-16" points="355.09 203.57 355.22 197.46 512.23 200.78 512.23 206.89 355.09 203.57"/>
              <polygon class="cls-16" points="355.22 197.46 355.35 191.34 512.23 194.66 512.23 200.78 355.22 197.46"/>
              <polygon class="cls-16" points="355.35 191.34 355.48 185.23 512.23 188.54 512.23 194.66 355.35 191.34"/>
              <polygon class="cls-16" points="355.48 185.23 355.64 177.74 512.23 177.74 512.23 188.54 355.48 185.23"/>
            </g>
          </g>
        </g>
        <g>
          <path class="cls-7" d="M413.28,178.81l-28.33,7.93s11.34,56.63,18.11,63.4c6.77,6.77-1.15,11.84,4.54,17.53s37.19,48.4,37.19,48.4l-31.5-137.26h-.01Z"/>
          <path class="cls-7" d="M473.68,180.66l-28.9,135.4s30.72-54.3,33.35-56.92c2.63-2.63,0-13.74,0-18.95s16.34-50.51,16.34-50.51c0,0-14.92-9.02-20.8-9.02h0Z"/>
        </g>
        <g>
          <path class="cls-16" d="M415.65,177.74l-30.32,3.08s10.96,55.76,17.73,62.53c6.77,6.77-1.15,11.84,4.54,17.53s37.19,55.19,37.19,55.19l-29.13-138.32h-.01Z"/>
          <path class="cls-16" d="M472.26,178.45l-27.48,137.61s30.72-61.09,33.35-63.71c2.63-2.63,0-13.74,0-18.95s16.62-48.32,16.62-48.32c0,0-16.62-6.63-22.5-6.63h0Z"/>
        </g>
        <polygon class="cls-6" points="440.76 457.47 444.79 316.06 443.96 457.47 440.76 457.47"/>
        <rect class="cls-7" x="347.91" y="476.41" width="108.01" height="11.37"/>
        <polygon class="cls-7" points="446.68 540.29 357.15 540.29 354.31 487.78 449.52 487.78 446.68 540.29"/>
        <path class="cls-7" d="M449.52,487.78h-95.22l2.84,52.51h11.77c1.16-8.17,3.47-16.88,7.88-23.86,7.98-12.62,47.38-17.59,72.22-19.48l.5-9.17h.01Z"/>
        <path class="cls-7" d="M527.45,568.71h-243.49c0-15.7,12.73-28.42,28.42-28.42h186.64c15.7,0,28.42,12.73,28.42,28.42h.01Z"/>
        <path class="cls-10" d="M264.86,196.91l-8.27-29.62-36.35,9.32s5.18,16.13,8.8,18.34c2.66,1.63,10.68,6.54,14.74,9.02h0l32.5,64.47,19.86-24.54-31.28-47h0Z"/>
        <path class="cls-3" d="M422.52,134.4s1.42,19.19,0,27.95-6.87,15.4-6.87,15.4l29.13,138.32,27.48-137.61s-6.82-4.18-8.76-16.11-1.89-42.63-1.89-42.63l-39.08,14.68h0Z"/>
        <g>
          <path class="cls-10" d="M422.17,115.53s-.16,66.95-.16,82.65,19.35,34.65,29.41,30.86c10.06-3.79,20.83-50.59,20.83-50.59l-.2-26.29-49.89-36.63h.01Z"/>
          <path class="cls-3" d="M472.06,176.88v-24.72l-24.02-15.86c-.46-.21-.92-.45-1.38-.72-.95-.57-1.84-1.23-2.67-1.95l-21.13-13.95s0,.66-.02,1.83c.02.12.03.19.03.19,0,0,1.76,23.2,11.2,37.65,7.59,11.62,24.71,20.12,37.99,17.53Z"/>
          <path class="cls-10" d="M434.45,44.16s-13.59,34.11-11.32,60.5c2.26,26.39,38.87,60.91,55.1,50.35,16.23-10.56,10.94-40.6,10.94-47.51s6.17-38.57.82-49.94c-5.35-11.37-45.36-24.36-55.55-13.4h0Z"/>
          <path class="cls-14" d="M477.09,26.7c-22.27-9.74-49.82-6.9-56.61,8.12-6.79,15.02,1.53,79.58,1.53,79.58,0,0,2.62,21.52,12.05,34.92,9.44,13.4,33.59,22.33,46.8,12.59,13.21-9.75,9.07-41.03,9.07-41.03,0,0-1.9,7.33-7.18,7.33s-6.29-3.98-8.68-4.47c-8.7-1.78-12.45.81-20,4.47-2.26,1.1-4.87.48-7.41-.93-7.32-4.06-11.28-12.85-10.47-21.67l2.03-22.06c11.32-6.9,17.74-17.05,17.74-17.05,4.15,16.24,36,12.55,40.76,4.87,4.76-7.67,2.64-34.92-19.63-44.66h0Z"/>
          <g class="cls-21">
            <path class="cls-3" d="M489.99,57.56c-2.8-5.95-15.11-12.35-27.66-15.52-.6,2.1-.98,4.29-1.1,6.54l-17.47,2.61-26.01,18.03s23.71-10.11,43.64-15.47c.07,1.1.04.53.23,1.64,2.62,15.24,16.11,25.68,30.34,23.65.49-8.51.26-16.74-1.97-21.47h0Z"/>
          </g>
          <path class="cls-5" d="M472.06,35.69c-33.15,3.4-54.5,14.01-54.5,14.01-.61,13.76.18,19.51.18,19.51,22.55-12.68,49.15-21.71,54.32-21.06,2.5-7.6,0-12.45,0-12.45h0Z"/>
          <path class="cls-3" d="M430.8,80.43s-4.53-13.26-14.09-10.29c-9.56,2.98.25,33.57,7.04,31.13,6.79-2.44,8.55-14.62,7.04-20.84h0Z"/>
          <g>
            <path class="cls-1" d="M515.41,45.04c2.66,15.49-6.93,30.06-21.42,32.55s-28.39-8.06-31.04-23.55c-2.66-15.49,6.93-30.06,21.42-32.55,14.49-2.49,28.39,8.06,31.04,23.55Z"/>
            <path class="cls-15" d="M515.41,45.04c2.66,15.49-6.57,30-20.62,32.41s-27.59-8.19-30.24-23.68c-2.66-15.49,6.57-30,20.62-32.41s27.59,8.19,30.24,23.68h0Z"/>
            <path class="cls-13" d="M479.36,45.72c-1.6-9.32,1.11-18.29,6.58-24.48-.25.04-.51.07-.76.12-14.05,2.41-23.28,16.92-20.62,32.41s16.2,26.09,30.24,23.68c5.59-.96,10.42-3.84,14.04-7.94-13.77,1.91-26.87-8.59-29.48-23.8h0Z"/>
            <path class="cls-1" d="M493.99,47.49c.39,2.3-.98,4.45-3.06,4.81-2.09.36-4.1-1.22-4.49-3.52s.98-4.45,3.06-4.81c2.09-.36,4.1,1.22,4.49,3.52Z"/>
          </g>
        </g>
        <path class="cls-12" d="M444.79,316.06l21.39-107.12c-16.31,1.78-32.49-.28-44.53-2.75l23.14,109.87Z"/>
        <path class="cls-5" d="M466.17,208.94c-.15.02-.3.03-.45.05-5.36,21.88-17.59,70.4-21.76,74.58-4.01,4.01-16.23-49.45-22.29-77.37h-.03l23.14,109.87,21.39-107.12h0Z"/>
        <path class="cls-10" d="M259.44,169.12c-.32-.4-27.23-26.01-32.55-24.4-8.85,2.31,10.82,16.99,12.95,19.74,1.06,1.38,2.02,3.1,2.84,4.74-.7.2-1.35.38-1.94.52-5.07,1.22-18.59,3.75-20.51,6.89,0,0-.36,17.71,4.29,17.81s9.36-1.6,14.35-1.1c2.5.25,5.06-.98,7.01-2.27.31-.21.61-.42.88-.62-.64,1.09-.81,2.31-.16,3.64,2.39,4.85,18.89-3.51,19.6-6.61.72-3.1-2.96-13.66-6.77-18.35h0ZM255.66,185.13c-1.52.37-4.43,1.41-6.63,2.99-.64-1.67-3.79-10.19-3.27-13.59h0c2.3-2.43,7.32-2.5,9.77-1.45h0c.33.3.56.69.68,1.2.78,3.22,2.44,10.13-.55,10.85Z"/>
        <path class="cls-16" d="M257.43,235.77s38.37,98.53,53.06,106.11,43.82-20.27,43.82-20.27c0,0,8.63-129.18,1.99-129.18s-15.76,29.83-23.6,49.33c-7.98,19.84-8.13,41.96-18.85,22.68-10.95-19.7-25.6-49.77-25.6-49.77-11.05,11.05-30.82,21.11-30.82,21.11h0Z"/>
        <g>
          <path class="cls-5" d="M192.46,174.22c-.35,0-.7-.1-1.01-.31-.81-.56-1.01-1.67-.45-2.47l67.5-97.81c.56-.81,1.67-1.01,2.47-.45s1.01,1.67.45,2.47l-67.5,97.81c-.35.5-.9.77-1.47.77h0Z"/>
          <path class="cls-5" d="M76.65,297.5c-.44,0-.87-.16-1.21-.48-.72-.67-.76-1.8-.08-2.51l112.03-119.77c.67-.72,1.8-.76,2.51-.08.72.67.75,1.8.08,2.51l-112.03,119.77c-.35.37-.82.56-1.3.56Z"/>
          <path class="cls-5" d="M188.68,177.73c-.36,0-.72-.11-1.03-.33l-90.11-64.59c-.8-.57-.98-1.68-.41-2.48s1.68-.98,2.48-.41l90.11,64.59c.8.57.98,1.68.41,2.48-.35.48-.89.74-1.45.74Z"/>
          <path class="cls-5" d="M236.74,383.83c-.81,0-1.54-.55-1.73-1.37l-48.06-206.1c-.22-.96.37-1.91,1.33-2.14.96-.22,1.91.37,2.14,1.33l48.06,206.1c.22.96-.37,1.91-1.33,2.14-.14.03-.27.05-.41.05h0Z"/>
          <path class="cls-12" d="M208.69,175.95c0,11.05-8.96,20.01-20.01,20.01s-20.01-8.96-20.01-20.01,8.96-20.01,20.01-20.01,20.01,8.96,20.01,20.01Z"/>
          <path class="cls-9" d="M201.43,174.96c0,7.04-5.71,12.75-12.75,12.75s-12.75-5.71-12.75-12.75,5.71-12.75,12.75-12.75,12.75,5.71,12.75,12.75Z"/>
          <path class="cls-12" d="M9.26,66.24h85.31c5.11,0,9.26,4.15,9.26,9.26v71.73c0,5.11-4.15,9.26-9.26,9.26H9.26c-5.11,0-9.26-4.15-9.26-9.26v-71.73c0-5.11,4.15-9.26,9.26-9.26Z"/>
          <path class="cls-5" d="M98.67,67.2c.61,1.24.96,2.63.96,4.1v71.73c0,5.11-4.15,9.26-9.26,9.26H5.06c-1.47,0-2.87-.35-4.1-.96,1.51,3.05,4.66,5.16,8.3,5.16h85.31c5.11,0,9.26-4.15,9.26-9.26v-71.73c0-3.64-2.1-6.79-5.16-8.3h0Z"/>
          <path class="cls-12" d="M9.26,243.94h85.31c5.11,0,9.26,4.15,9.26,9.26v71.73c0,5.11-4.15,9.26-9.26,9.26H9.26c-5.11,0-9.26-4.15-9.26-9.26v-71.73c0-5.11,4.15-9.26,9.26-9.26Z"/>
          <path class="cls-5" d="M98.67,244.9c.61,1.24.96,2.63.96,4.1v71.73c0,5.11-4.15,9.26-9.26,9.26H5.06c-1.47,0-2.87-.35-4.1-.96,1.51,3.06,4.66,5.16,8.3,5.16h85.31c5.11,0,9.26-4.15,9.26-9.26v-71.73c0-3.64-2.1-6.79-5.16-8.3h0Z"/>
          <rect class="cls-12" x="196.48" width="118.47" height="90.25" rx="9.89" ry="9.89"/>
          <path class="cls-5" d="M202.36.96c-.7,1.24-1.09,2.63-1.09,4.1v71.73c0,5.11,4.73,9.26,10.57,9.26h97.34c1.68,0,3.27-.35,4.68-.96-1.73,3.06-5.32,5.16-9.47,5.16h-97.34c-5.84,0-10.57-4.15-10.57-9.26V9.26c0-3.64,2.4-6.79,5.88-8.3Z"/>
          <path class="cls-12" d="M292.6,441.23h-98.69c-5.46,0-9.89-4.43-9.89-9.89v-70.47c0-5.46,4.43-9.89,9.89-9.89h98.69c5.46,0,9.89,4.43,9.89,9.89v70.47c0,5.46-4.43,9.89-9.89,9.89Z"/>
          <path class="cls-15" d="M37.58,93.3c0,1.69-1.37,3.06-3.06,3.06s-3.06-1.37-3.06-3.06,1.37-3.06,3.06-3.06,3.06,1.37,3.06,3.06Z"/>
          <path class="cls-17" d="M71.94,84.69c0,1.06-.86,1.92-1.92,1.92s-1.92-.86-1.92-1.92.86-1.92,1.92-1.92,1.92.86,1.92,1.92Z"/>
          <path class="cls-15" d="M49.91,139.97c-14.72,0-26.7-11.98-26.7-26.7,0-6.63,2.43-12.98,6.85-17.87l.67-.74.5.87c.3.52.72.97,1.22,1.3l.7.46-.56.63c-3.75,4.22-5.82,9.67-5.82,15.35,0,12.76,10.38,23.14,23.14,23.14s22.13-9.31,23.07-21.31c-4.45-.87-7.72-4.8-7.72-9.4v-17l2.07-3.15.62.78c.35.44.85.77,1.39.91l.97.26-1.48,2.26v15.93c0,3.31,2.7,6.01,6.01,6.01s6.01-2.7,6.01-6.01v-15.88l-1.71-2.3.95-.31c.53-.18,1.01-.53,1.34-.99l.58-.82,2.41,3.25v17.05c0,4.66-3.34,8.6-7.86,9.42-.96,13.98-12.55,24.85-26.64,24.85h0Z"/>
          <path class="cls-17" d="M81.18,84.69c0,1.06-.86,1.92-1.92,1.92s-1.92-.86-1.92-1.92.86-1.92,1.92-1.92,1.92.86,1.92,1.92Z"/>
          <polygon class="cls-15" points="60.94 107.85 53.69 107.85 53.69 100.6 45.7 100.6 45.7 107.85 38.46 107.85 38.46 115.84 45.7 115.84 45.7 123.08 53.69 123.08 53.69 115.84 60.94 115.84 60.94 107.85"/>
          <path class="cls-15" d="M273.59,46.48h-2.31l-4.79-6.61-3.62,14.91-2.79-25.87-7.49,16.86-3.29-5.97-4.2,7.53-5.71-6.99-2.57,12.72-2.42-21.87-8.22,14.85h-19.77c-.5,0-.9.4-.9.9h0c0,.5.4.9.9.9h21.7l4.48-8.1,3.42,30.99,4.98-24.62,4.59,5.61,3.7-6.64,3.58,6.51,5.56-12.5,3.39,31.49,5.99-24.68,1.73,2.39h5.25c-.46-.61-.86-1.21-1.21-1.8h.02Z"/>
          <path class="cls-15" d="M291.08,34.38s3.07-4.26,9.14-4.26c5.41,0,9.14,4.37,9.14,9.46,0,5.89-5.08,12.86-18.27,18.92-13.19-6.06-18.27-13.03-18.27-18.92,0-5.09,3.73-9.46,9.14-9.46,6.07,0,9.14,4.26,9.14,4.26h-.02Z"/>
          <path class="cls-2" d="M265.03,410.85l-47.02-6.02c-2.99-.38-5.1-3.11-4.72-6.1l3.18-24.86c.38-2.99,3.11-5.1,6.1-4.72l47.02,6.02c2.99.38,5.1,3.12,4.72,6.1l-3.18,24.86c-.38,2.99-3.11,5.1-6.1,4.72h0Z"/>
          <path class="cls-15" d="M236.34,378.71l-1.28-2.89c-.37-.84-1.2-1.38-2.12-1.38h-21.7c-1.28,0-2.32,1.04-2.32,2.32v14.73h.04v27.77c0,1.28,1.04,2.32,2.32,2.32h64.01c1.28,0,2.32-1.04,2.32-2.32v-36.85c0-1.28-1.04-2.32-2.32-2.32h-36.83c-.92,0-1.75-.54-2.12-1.38h0Z"/>
          <path class="cls-12" d="M257.25,401.29c0,7.06-5.72,12.79-12.79,12.79s-12.79-5.72-12.79-12.79,5.73-12.79,12.79-12.79,12.79,5.73,12.79,12.79Z"/>
          <polygon class="cls-15" points="254.42 397.8 248 397.8 248 391.38 240.92 391.38 240.92 397.8 234.5 397.8 234.5 404.89 240.92 404.89 240.92 411.31 248 411.31 248 404.89 254.42 404.89 254.42 397.8"/>
          <path class="cls-15" d="M40.5,275.06c0,3.51,2.85,6.36,6.36,6.36s6.36-2.85,6.36-6.36-2.85-6.36-6.36-6.36-6.36,2.85-6.36,6.36Z"/>
          <rect class="cls-15" x="56.54" y="283.45" width="9.21" height="8.86"/>
          <rect class="cls-15" x="57.91" y="292.82" width="6.48" height="2.49"/>
          <path class="cls-15" d="M55.52,276.09c0-2-.61-3.87-1.65-5.41v-6.11c1.47,0,2.66-1.19,2.66-2.66v-4.85h9.23v4.85c0,1.47,1.19,2.66,2.66,2.66v15.73c0,1.37-1.11,2.48-2.48,2.48h-9.59c-1.04,0-1.94-.64-2.3-1.55.93-1.49,1.47-3.25,1.47-5.13h0Z"/>
          <rect class="cls-15" x="54.32" y="253.79" width="13.66" height="3.26"/>
          <path class="cls-15" d="M36.17,275.17c-.03.3-.04.61-.04.92,0,4.65,3.29,8.54,7.66,9.48-1.35.96-2.41,2.27-3.03,3.91-1.07,2.84-.56,6.03.74,8.7,1.55,3.2,4.21,5.74,7.25,7.52l-1.15,4.05c-15.91-4.52-22.66-22.16-11.43-34.59h0Z"/>
          <rect class="cls-15" x="40.21" y="305.58" width="13.31" height="8.93"/>
          <path class="cls-15" d="M78.51,319.28H29.1v-1.47c0-1.82,1.48-3.29,3.29-3.29h42.82c1.82,0,3.29,1.48,3.29,3.29v1.47h.01Z"/>
          <rect class="cls-15" x="48.5" y="298.4" width="25.42" height="4.47"/>
          <path class="cls-5" d="M189.91,440.27c-.7-1.24-1.09-2.63-1.09-4.1v-71.73c0-5.11,4.73-9.26,10.57-9.26h97.34c1.68,0,3.27.35,4.68.96-1.73-3.06-5.32-5.16-9.47-5.16h-97.34c-5.84,0-10.57,4.15-10.57,9.26v71.73c0,3.64,2.4,6.79,5.88,8.3h0Z"/>
        </g>
        <path class="cls-16" d="M512.23,192.73s-5.56,40.29-.46,104.3c.84,10.49,15.66,3,31.29,14.76,26.05,19.61,44.21,46.08,48.84,56.6,10.56-4.76,10.5-52.32,4.72-71.21-6.29-12.56-84.38-104.45-84.38-104.45h0Z"/>
        <polygon class="cls-12" points="646.61 257.9 545.84 245.72 482.72 365.98 564.45 365.98 646.61 257.9"/>
        <g class="cls-18">
          <path class="cls-8" d="M564.45,365.98l82.16-108.08-100.77-12.18-1.8,3.43c15.75,4.12,46.23,13.79,50.76,27.79,4.83,14.95-30.34,67.35-45.58,89.04h15.23Z"/>
        </g>
        <polygon class="cls-5" points="542.14 240.24 477.91 363.83 482.72 365.98 545.84 245.72 646.61 257.9 640.47 253.09 542.14 240.24"/>
        <path class="cls-10" d="M523.97,324.46c1.83-1.46,17.18,8.07,25.99,13.77.02-.12.04-.24.05-.36-8.29-6.15-22.81-13.5-19.49-15.61,1.7-1.08,38.15,13.6,38.15,13.6,3.84,1.74,4.01,1.9,7.97,3.65-.94-2.28-10.47-17.81-4.04-17.05l21.29,27.84c3.61,5.92,3.49,9.51,2.59,12.6-1.1,3.8-6.44,13.99-15.14,16.04-8.38,1.97-31.09-10.85-34.64-14.18-3.82-3.29-29.86-26.05-25.7-32.39,0,0,21.71,21.19,24.01,18.56.13-.61-21.46-14.95-23.16-20.55-1.21-4.01,17.68,8.22,25.95,14.35-7.42-6.09-25.1-19.27-23.84-20.28h.01Z"/>
        <g>
          <path class="cls-7" d="M61.69,360.42h66.84c14.6,0,26.45,11.85,26.45,26.45v169.81c0,14.6-11.85,26.45-26.45,26.45H61.7c-14.6,0-26.45-11.85-26.45-26.45v-169.81c0-14.6,11.85-26.45,26.45-26.45h-.01Z"/>
          <path class="cls-5" d="M128.53,360.42h-3.4c14.61,0,26.45,11.84,26.45,26.45v169.81c0,14.61-11.84,26.45-26.45,26.45h3.4c14.61,0,26.45-11.84,26.45-26.45v-169.81c0-14.61-11.84-26.45-26.45-26.45Z"/>
          <rect class="cls-7" x="38.64" y="363.82" width="112.93" height="215.91" rx="23.05" ry="23.05"/>
          <path class="cls-15" d="M107.33,375.66h-22.5c-.69,0-1.24-.56-1.24-1.24s.56-1.24,1.24-1.24h22.5c.69,0,1.24.56,1.24,1.24s-.56,1.24-1.24,1.24Z"/>
          <path class="cls-15" d="M109.61,383.92h-27.07c-.75,0-1.36-.61-1.36-1.36s.61-1.36,1.36-1.36h27.07c.75,0,1.36.61,1.36,1.36s-.61,1.36-1.36,1.36Z"/>
          <path class="cls-15" d="M75.02,382.56c0,1.03-.84,1.87-1.87,1.87s-1.87-.84-1.87-1.87.84-1.87,1.87-1.87,1.87.84,1.87,1.87h0Z"/>
          <circle class="cls-6" cx="95.11" cy="565.2" r="10.2"/>
          <circle class="cls-9" cx="93.44" cy="565.2" r="10.2" transform="translate(-55.24 11.96) rotate(-5.65)"/>
          <rect class="cls-5" x="44.94" y="400.89" width="99.93" height="148.26" rx="5.43" ry="5.43"/>
          <rect class="cls-15" x="47.2" y="403.55" width="95.4" height="142.94" rx="2.97" ry="2.97"/>
          <path class="cls-4" d="M139.86,403.54H49.95c-1.51,0-2.75,1.44-2.75,3.22v20.69h95.4v-20.69c0-1.78-1.23-3.22-2.75-3.22h.01Z"/>
          <rect class="cls-12" x="69.49" y="431.86" width="54.23" height="3.65"/>
          <polygon class="cls-12" points="56.71 433.68 61.83 437.15 61.83 430.21 56.71 433.68"/>
          <polygon class="cls-12" points="132.76 433.68 127.63 437.15 127.63 430.21 132.76 433.68"/>
          <rect class="cls-12" x="50.15" y="409.66" width="32.39" height="11.16" rx="4.42" ry="4.42"/>
          <path class="cls-15" d="M129.89,409.66h5.73c1.25,0,2.27,1.02,2.27,2.27v6.62c0,1.25-1.02,2.27-2.27,2.27h-5.73c-1.25,0-2.27-1.02-2.27-2.27v-6.62c0-1.25,1.02-2.27,2.27-2.27Z"/>
          <rect class="cls-15" x="131.94" y="411.48" width="1.64" height="7.24"/>
          <rect class="cls-15" x="129.68" y="414.13" width="6.17" height="1.93"/>
          <rect class="cls-4" x="51.97" y="450.23" width="10.55" height="91.24"/>
          <rect class="cls-4" x="64.63" y="450.23" width="10.55" height="91.24"/>
          <rect class="cls-4" x="77.39" y="450.23" width="10.55" height="91.24"/>
          <rect class="cls-4" x="90.15" y="450.23" width="10.55" height="91.24"/>
          <rect class="cls-4" x="102.91" y="450.23" width="10.55" height="91.24"/>
          <rect class="cls-4" x="115.67" y="450.23" width="10.55" height="91.24"/>
          <rect class="cls-4" x="128.43" y="450.23" width="10.55" height="91.24"/>
          <rect class="cls-12" x="51.97" y="439.76" width="10.55" height="6.93"/>
          <rect class="cls-12" x="64.63" y="439.76" width="10.55" height="6.93"/>
          <rect class="cls-12" x="77.39" y="439.76" width="10.55" height="6.93"/>
          <rect class="cls-12" x="90.15" y="439.76" width="10.55" height="6.93"/>
          <rect class="cls-12" x="102.91" y="439.76" width="10.55" height="6.93"/>
          <rect class="cls-14" x="115.67" y="439.76" width="10.55" height="6.93"/>
          <rect class="cls-14" x="128.43" y="439.76" width="10.55" height="6.93"/>
          <rect class="cls-15" x="50.15" y="460.74" width="89.9" height="2.27"/>
          <rect class="cls-15" x="50.15" y="474.36" width="89.9" height="2.27"/>
          <rect class="cls-15" x="50.15" y="487.97" width="89.9" height="2.27"/>
          <rect class="cls-15" x="50.15" y="501.59" width="89.9" height="2.27"/>
          <rect class="cls-15" x="50.15" y="515.2" width="89.9" height="2.27"/>
          <rect class="cls-15" x="49.96" y="528.82" width="89.9" height="2.27"/>
          <path class="cls-14" d="M93.71,477.46l-8.66-3.73c.31.38,11.15,13.65,10.85,13.28,2.18-4.9,7.02-15.75,9.26-20.78,0,0-11.45,11.23-11.45,11.23Z"/>
        </g>
        <g>
          <path class="cls-14" d="M712.29,159.41c-2.02.42-20.28.63-20.28,13.91s.26,18.56-3.17,24.37-4.39,30.38,10.01,23.39c3.85-1.87,1.19,11.99,1.19,11.99,0,0,24.71,11.09,31.57,8.18,6.86-2.9,17.43,3.7,17.43,3.7,0,0,10.5-16.81,0-27.31s-9.24-9.65-9.24-21.53-2.11-8.45-7.13-15.58c-5.02-7.13-7.97-23.72-20.38-21.12Z"/>
          <path class="cls-10" d="M687.8,422.55s9.38,97.56,4.66,109.66c-4.72,12.1-12.43,32.9-12.43,32.9h8.67l17.73-23.55s-.43-1.08,1.05-5.81c1.48-4.72,12.1-55.48,8.26-79.39-1.09-6.78-2.44-39.45-5.78-44.99-8.43-13.97-22.16,4.12-22.16,11.17h0Z"/>
          <path class="cls-14" d="M707.09,537.03s2.19-.9,4.13,3.68-3.55,27.25-3.55,27.25l-4.47.14s3.04-16.82,2.01-16.82-6.01,17.12-8.52,17.8c-2.52.69-19.05,1.77-21.63-.8-2.57-2.58,6.69-7.85,6.69-7.85,0,0,8.31,1.11,9.4.02,1.09-1.09,15.94-23.43,15.94-23.43h0Z"/>
          <path class="cls-10" d="M721.6,422.55s9.38,97.56,4.66,109.66c-4.72,12.1-12.43,32.9-12.43,32.9h8.67l17.73-23.55s-.43-1.08,1.05-5.81c1.48-4.72,12.1-55.48,8.26-79.39-1.09-6.78-2.44-39.45-5.78-44.99-8.43-13.97-22.16,4.12-22.16,11.17h0Z"/>
          <path class="cls-3" d="M747.43,432.77c-4.67-.82-14.38-2.52-25.29-4.36.44,4.82,1.1,12.28,1.81,21.05,5.16.77,16.7,2.17,24.94.73-.4-4.73-.87-11.13-1.45-17.41h-.01Z"/>
          <path class="cls-3" d="M713.04,426.89c-8.95-1.48-17.99-2.92-25.2-3.95.2,2.07,1.17,12.42,2.27,26.01,2.47.7,5.6,1.41,9.48,1.97,6.23.91,11.67.43,15.54-.28-.54-6.24-1.19-15.63-2.09-23.75h0Z"/>
          <path class="cls-14" d="M756.03,442.85v-58.29c0-15.35-5.9-55.69-15.35-75.76-9.44-20.07-48.4,0-48.4,0,0,0-8.89,19.52-11.25,47.85l-2.26,87.82c28.07,4.36,50.03,4.7,77.27-1.62h-.01Z"/>
          <path class="cls-12" d="M685.25,224.01c-.93,1.65-6.56,15.59-5.09,30.4,2.19,22.12,11.82,50.22,9.7,59.06-3.54,14.76,49.61,16.97,52.1-1.68.88-6.63-.84-23.23.72-38.25,2.48-23.85,8.15-47.32,7.1-47.96-23.27-14.27-62.34-5.45-64.53-1.57h0Z"/>
          <g class="cls-22">
            <path class="cls-6" d="M710.63,229.17s-1.28,10.58,6.76,18.62c7.1,7.1,17.87,11.85,27.55,8.52,2.6-16.8,5.62-30.24,4.83-30.73-6.6-4.05-14.46-6.24-22.4-7.21l-18.05,1.17,1.31,9.63Z"/>
          </g>
          <g class="cls-20">
            <path class="cls-6" d="M688.21,296.29c1.03,5.04,1.78,9.46,1.93,12.86,3.48-.57,7.13-.91,9.95-.58,6.06.72,29.82,2.07,42,1.94.22-2.89.13-7.07.03-11.94l-46.88-6.95-7.03,4.67Z"/>
          </g>
          <path class="cls-5" d="M749.78,225.58s5.07-.3,9.72,24.05c4.65,24.35-3.13,54.23-8.31,56.89-5.19,2.66-52.33-3.32-52.33-3.32l1.55-17.04s36.35-1.95,40.33-5.93c.98-.98-.05-5.7.79-10.87,2.58-15.87,8.26-43.77,8.26-43.77h0Z"/>
          <g class="cls-22">
            <path class="cls-6" d="M757.66,241.28c-4.05-15.93-7.88-15.71-7.88-15.71,0,0-3.32,16.32-6.04,31.1,1.69-.46,3.35-1.16,4.96-2.12,4.95-2.95,7.57-8.37,8.96-13.28h0Z"/>
          </g>
          <path class="cls-10" d="M742.68,277.88s5.23-2.87,7.3-4.94,6.05-4.72,6.05-3.1-1.92,3.77-1.92,3.77c0,0,7.16-3.99,7.97-3.18s1.18,5.9,0,11.36-17.25,7.89-17.25,7.89l-2.15-11.8h0Z"/>
          <path class="cls-14" d="M740.9,537.03s2.19-.9,4.13,3.68c1.95,4.58-3.55,27.25-3.55,27.25l-4.47.14s3.04-16.82,2.01-16.82-6.01,17.12-8.52,17.8c-2.52.69-19.05,1.77-21.63-.8-2.57-2.58,6.69-7.85,6.69-7.85,0,0,8.31,1.11,9.4.02,1.09-1.09,15.94-23.43,15.94-23.43h0Z"/>
          <path class="cls-5" d="M676.94,303.64c16.75,4.58,54.01-4.43,69.06-7.53l-3.54-19.48s-44.16,7.51-49.54,4.41c-2.66-1.53-8.44-15.49-9.68-29.21-1.27-14.04,2.02-27.83,2.02-27.83,0,0-15.07,13.56-15.07,48.09,0,26.35-.62,29.53,6.75,31.54h0Z"/>
          <path class="cls-10" d="M685.2,265.24s3.68,3.81,6.55,6.69c2.88,2.88,7.1,10.25,7.1,10.25,0,0-5.98.79-8.04.79s-8.41-4.43-10.77-4.43-1.33-3.39,1.48-2.51c2.8.88,5.61,1.48,5.61,1.48,0,0-6.27-5.09-9.15-7.97s-.14-4.55,2.21-2.2c2.35,2.35,5.02,3.82,5.02,3.82,0,0-8.26-8.56-6.79-10.03,1.48-1.48,6.79,4.1,6.79,4.1h0Z"/>
          <path class="cls-10" d="M705.74,193.82l-2.02,24.04s-8.09,28.53-1.59,30.91,15.87-29.81,15.87-29.81v-30.77l-12.25,5.63h0Z"/>
          <path class="cls-10" d="M707.97,165.71s-6.69-4.01-10.78,9.85c-4.09,13.86-3.52,24.1,3.34,26,6.86,1.9,17.54-5.36,22.11-14.38,4.56-9.02-8.88-22.29-14.66-21.48h-.01Z"/>
          <path class="cls-14" d="M753.58,224.08c-1.18-2.36-2.66-4.56-4.54-6.44-10.5-10.5-9.24-9.65-9.24-21.53s-2.11-8.45-7.13-15.58c-5.02-7.13-7.97-23.79-20.38-21.19-.16.03-13.6,2.82-10.98,7.94,0,0,2.3-1.52,6.69,3.89,4.86,5.99,2.09,6.45,6.84,8.56s2.91,10.3,2.91,15.71-1.59,21.72-5.95,28.78,3.91,20.64,13.7,24.72c28.64,11.94,33.37-14.25,28.07-24.86h0Z"/>
        </g>
      </g>
    </g>
  </g>
</svg>