<svg id="Layer_1" data-name="Layer 1" xmlns="http://www.w3.org/2000/svg" viewBox="0 0 135.68 77.54"><defs><style>.cls-1{fill:#14bbba;}</style></defs><title>logo (1)</title><path class="cls-1" d="M311,290v5h-1.9c-29-.57-58.07-.55-87.11-.6a6.44,6.44,0,0,0-4.26,1.5q-11.72,9.3-23.41,18.62a2,2,0,0,1-2.29.35c-.81-.33-1.63-.62-2.74-1.05.32-1.83.58-3.78,1-5.7a89.48,89.48,0,0,1,5.37-16.28,41.88,41.88,0,0,1,3.94-6.24q3.6-5.42,7.26-10.79a7.32,7.32,0,0,1,.61-.73l5,5.84c2.37,2.79,4.76,5.57,7.08,8.41a4,4,0,0,0,3.39,1.58q43,0,86,.09Zm-97.11,1H201c-1.47,4.82-3,10-4.6,15.09l.25.17,17.42-14.77Z" transform="translate(-176.41 -237.53)"/><path class="cls-1" d="M213.23,248.13c-9,12.74-17.13,25.52-25.28,38.43-5.85-3.47-10.37-7.89-11.38-14.85-.69-4.74,1-8.9,4.09-12.49,4.69-5.47,10.87-8.38,17.75-9.87a76.88,76.88,0,0,1,9.09-1.19C209.32,248,211.16,248.13,213.23,248.13Z" transform="translate(-176.41 -237.53)"/><path class="cls-1" d="M263.76,254.06c-1.68.47-3.36.92-5,1.43a48.15,48.15,0,0,1-12,2.24,2.57,2.57,0,0,0-1.17.66c-1.2.88-2.36,1.82-3.59,2.65-.28.2-.78.07-1.18.08A3.22,3.22,0,0,1,241,260c.48-.76,1.06-1.45,1.6-2.18-1.16-1.5-1.16-1.8.13-2.71-1.64-1.45-3.28-2.87-4.87-4.33-1-.94-1-.93.23-1.61a3.49,3.49,0,0,1,3.44,0,23.75,23.75,0,0,0,3.29,1.26,2.5,2.5,0,0,0,1.48-.2c.59-.24.79-.14,1,.48a1.89,1.89,0,0,0,2.6,1.21c4.11-1.62,8.21-3.29,12.31-4.93,1.23-.49,2.48-.94,3.8-1.43l-2.21-6.91c.56-.13,1.07-.28,1.6-.36a1.83,1.83,0,0,1,2,.78c1.13,1.55,2.37,3,3.57,4.52,3.18-1.28,6.29-2.55,9.42-3.76,2.92-1.14,5.8-2.52,9.05-2.25a17.43,17.43,0,0,1,3.77.78,1.45,1.45,0,0,1,.5,2.53,17.39,17.39,0,0,1-6.38,3.9c-4,1.44-7.93,2.94-11.81,4.6a25.31,25.31,0,0,0-5,3.18c1.09-.47,2-.7,2.84.42,1,1.36.64,3-1,3.5a26.19,26.19,0,0,1-4.35.95c-1.69.16-2.48,1.35-3.41,2.44l-5.55,6.49c-.16.18-.35.33-.49.52-1.1,1.49-1.64,1.62-3.18.73,2.75-4.48,6-8.62,8.48-13.29Z" transform="translate(-176.41 -237.53)"/><path class="cls-1" d="M237.3,260.29c5,6.76,4.27,15-1.45,21-1.83,1.91-4,3.5-5.88,5.13l-12.84-15.7Z" transform="translate(-176.41 -237.53)"/><path d="M306.74,282.09a11.34,11.34,0,0,0-1.5-.77c-1.22-.42-1.2-1.11-.63-2.1,1.18-2.07,2.28-4.18,3.42-6.27l.81-1.49a6.56,6.56,0,0,0-4.86,2.83c-1.43,2.19-2.7,4.49-4,6.73-.35.58-.61,1.3-1.53.76-1.61-.95-1.82-1.29-1.23-2.34q4.57-8.2,9.19-16.41c.33-.58.75-1.11,1.06-1.57l2.62.43c-1.27,3.15-3.37,5.79-5,9,1-.51,1.74-.92,2.51-1.31a3.4,3.4,0,0,1,3.7.08,1.4,1.4,0,0,1,.64,2C310.17,275.1,308.49,278.54,306.74,282.09Z" transform="translate(-176.41 -237.53)"/><path class="cls-1" d="M232.51,255.43,212,264.5l-.13-.2c2.62-4,5.23-8,7.87-12.05,1.6-2.43,1.63-2.48,4.31-1.33,2,.88,4,1.89,6,2.91A26.43,26.43,0,0,1,232.51,255.43Z" transform="translate(-176.41 -237.53)"/><path d="M250.84,281.88l.54-1.36a18.7,18.7,0,0,1-2.71,1.16,4.73,4.73,0,0,1-2.3.11c-2-.49-2.41-2.31-1.21-4.52a16.37,16.37,0,0,1,5.5-5.87,10.19,10.19,0,0,1,6.76-2.08c.21,0,.43-.16.66-.21l2.27-.46.2.38c-.37.72-.71,1.45-1.1,2.16-1.82,3.34-3.66,6.67-5.48,10-.3.54-.52.89-1.28.61A5.39,5.39,0,0,0,250.84,281.88Zm-3.07-2.24c2.67-.35,7-4.59,8.47-8.23C253,271.53,247.79,276.56,247.77,279.64Z" transform="translate(-176.41 -237.53)"/><path d="M277,281.91l.26-1.12a19.49,19.49,0,0,1-3.87,1.1c-2.23.16-3.48-1.57-2.55-3.61a15.06,15.06,0,0,1,10.43-8.81c1.16-.29,2.34-.52,3.52-.71a14.35,14.35,0,0,1,2,0c-.56,1.11-1,1.94-1.42,2.75-1.74,3.22-3.51,6.42-5.25,9.63-.34.63-.65,1-1.48.66C278.28,281.61,277.7,281.84,277,281.91Zm5.4-10.49c-3.38.09-9.16,5.8-8.51,8.3C276.59,279.66,279.29,276.19,282.43,271.42Z" transform="translate(-176.41 -237.53)"/><path d="M288.5,277.21a6.6,6.6,0,0,0-1.6.77,4.85,4.85,0,0,0-.69,1.27c.4.18.85.57,1.19.49a32.09,32.09,0,0,0,4.53-1.29c1.1-.43,1.05-1.18,0-1.78s-1.92-.95-2.88-1.42a8.68,8.68,0,0,1-.95-.51c-1.68-1.07-1.84-2.83-.11-3.79a18.5,18.5,0,0,1,5.29-1.9,11.57,11.57,0,0,1,4.45.24,2,2,0,0,1,1.68,2.72c-.42.88-3.06,2.24-4,2a1.16,1.16,0,0,1-.73-.77,1.3,1.3,0,0,1,.42-1.07c.45-.33,1.05-.46,1.56-.78-2-.35-4-.46-5.78.76-.64.43-.35.94.09,1.27.76.56,1.59,1,2.4,1.54.23.14.5.23.75.36,2.82,1.51,2.88,3.07.15,4.72a12.17,12.17,0,0,1-9.35,1.45,2.38,2.38,0,0,1-2-2,2.26,2.26,0,0,1,1.48-2.37,8.16,8.16,0,0,1,2.46-.66C287.28,276.42,287.74,276.85,288.5,277.21Z" transform="translate(-176.41 -237.53)"/><path d="M291.14,315l-1.88-1.22c.74-1.54,1.48-3.1,2.24-4.66,1.26-2.6,2.57-5.19,3.77-7.83.43-.93.86-1.55,2-1.33a6.7,6.7,0,0,0,1.4-.13c-1.4,2.69-2.69,5.19-4,7.69l.16.25,4.79-2.85,1.09,1.72-5.2,2.9,3.92,4.33c-.95.29-1.67.55-2.42.7-.2,0-.54-.24-.71-.46-.91-1.14-1.8-2.32-2.82-3.65Z" transform="translate(-176.41 -237.53)"/><path d="M276.53,264.65c-1,1.7-2,3.17-2.81,4.76q-2.84,5.74-5.49,11.58c-.31.68-.67.87-1.25.69-.9-.27-1.77-.64-2.82-1,.75-1.45,1.37-2.82,2.14-4.09,2.14-3.5,4.34-6.94,6.51-10.41.53-.85,1.08-1.55,2.27-1.26A4.37,4.37,0,0,0,276.53,264.65Z" transform="translate(-176.41 -237.53)"/><path d="M303.45,310.67l-1.26,1.9a14.67,14.67,0,0,0,2.09.08,5,5,0,0,0,1.68-.53c.35-.18.87-.6.83-.84a1.81,1.81,0,0,0-.82-1c-.63-.41-1.35-.69-2-1.06-1.82-1-1.9-2.44-.08-3.52a7.52,7.52,0,0,1,6.22-1.12,3.13,3.13,0,0,1,1.71,1.57c.38.86-.59,1.27-1.19,1.68a2.48,2.48,0,0,1-1.2.47c-.35,0-.71-.28-1.06-.44a4.42,4.42,0,0,1,.51-1c.18-.21.54-.27,1.1-.52a6.3,6.3,0,0,0-4,.34c-.85.45-.79,1-.13,1.44.83.61,1.76,1.09,2.61,1.67,1.36.91,1.43,1.95.14,2.95a8.32,8.32,0,0,1-7.18,1.6,1.72,1.72,0,0,1-1.5-1.63,2.22,2.22,0,0,1,1.57-2.17C302.2,310.16,303,310,303.45,310.67Z" transform="translate(-176.41 -237.53)"/><path d="M221.82,310.89c-.51.56-1.71.65-1.31,1.83a5,5,0,0,0,4.77-1.61c-.4-.3-.77-.64-1.2-.9-.74-.44-1.54-.8-2.27-1.26a1.69,1.69,0,0,1-.33-2.81c1.44-1.52,5.59-2.28,7.46-1.36,1.41.69,1.58,1.82.33,2.74a4.93,4.93,0,0,1-1.82.78c-.28.05-.65-.36-1-.57a4.19,4.19,0,0,1,.58-.88,3.67,3.67,0,0,1,.89-.43l-.09-.41a28.53,28.53,0,0,0-3.58.64c-.94.3-1,1-.14,1.55s1.71,1,2.54,1.56c1.29.86,1.4,1.79.21,2.81a7.93,7.93,0,0,1-7.34,1.71,1.72,1.72,0,0,1-1.47-1.67c0-1.16.78-1.76,1.75-2.17A1.44,1.44,0,0,1,221.82,310.89Z" transform="translate(-176.41 -237.53)"/><path d="M287.48,310.94c.9.89.41,1.59-.38,2.19a6.78,6.78,0,0,1-5.55,1.45,2.21,2.21,0,0,1-1.89-2.26c-.19-4.13,4.74-8.42,8.78-7.51a2.7,2.7,0,0,1,1.51,1.62,2.07,2.07,0,0,1-1.11,2.43,35.31,35.31,0,0,1-4.22,1.86c-.58.22-1.27.15-1.86.36-.35.13-.59.54-.89.82.32.33.62.92,1,1A5.58,5.58,0,0,0,287.48,310.94Zm.72-3.83c-1.49-1.16-4.22,0-5.36,2.16C284.74,308.8,286.68,308.65,288.2,307.11Z" transform="translate(-176.41 -237.53)"/><path d="M275.39,301.77c-1.73.42-3.39.75-5,1.26a2.59,2.59,0,0,0-1.42,1.18c-1.6,3.31-3.1,6.67-4.63,10a3.28,3.28,0,0,1-.26.38,4,4,0,0,0-.79-.42c-1.18-.35-1-1-.55-1.88,1.26-2.64,2.45-5.33,3.66-8,.09-.22.16-.44.31-.84l-4.13.43-.36-1.79c1.22-.24,2.44-.52,3.68-.7,2.46-.36,4.94-.65,7.41-1C274.52,300.27,274.9,300.51,275.39,301.77Z" transform="translate(-176.41 -237.53)"/><path d="M235.79,311.55c0-2.65,2.93-6.18,6-7.29a2.68,2.68,0,0,1,2.92.75,2.54,2.54,0,0,1,.69,2.65,10.72,10.72,0,0,1-4,6.21,3.65,3.65,0,0,1-3.44.7A2.82,2.82,0,0,1,235.79,311.55Zm7.05-5.46c-.51.16-1.14.18-1.48.5a18.44,18.44,0,0,0-2.65,3,6.71,6.71,0,0,0-.71,2.55c0,.16.63.66.89.6C241.19,312.27,243.43,308.56,242.84,306.09Z" transform="translate(-176.41 -237.53)"/><path d="M246.52,314.66l-1.65-1.23,2.47-4.67a22.48,22.48,0,0,0,1.09-2c.6-1.38,1.18-2.74,3.17-2.11l-.47,1.09,2-.83a1.74,1.74,0,0,1,2.26.43,2.47,2.47,0,0,1,.27,2c-1.07,2.37-2.32,4.65-3.49,6.94-2.25-.63-2-.65-1.21-2.5.65-1.49,1.49-2.88,2.24-4.33a12.65,12.65,0,0,0,.49-1.29C249.6,307.81,248.6,311.67,246.52,314.66Z" transform="translate(-176.41 -237.53)"/><path d="M266.57,270c-1.21,2.31-2.41,4.53-3.56,6.77-.74,1.45-1.44,2.91-2.1,4.4-.38.86-.88.91-1.57.42-2-1.45-2.33-.85-.84-3.26s3.06-4.56,4.4-6.94C263.79,269.83,265,269.76,266.57,270Z" transform="translate(-176.41 -237.53)"/><path d="M280.69,305.67c-1.88,1.12-4,1.9-5.39,3.35s-2.09,3.59-3.1,5.44c-1.75-.69-1.83-.74-1.11-2.46.87-2.07,1.87-4.09,2.8-6.15.3-.69.61-1.25,1.54-1.14.38,0,.79-.27,1.39-.5l-.79,2c.91-.52,1.64-1,2.39-1.38C280,304,280,304,280.69,305.67Z" transform="translate(-176.41 -237.53)"/><path d="M236,305.24l-3.45,7.41c-.09.18-.17.36-.25.54-.77,1.72-.9,1.77-2.26.57a1.26,1.26,0,0,1-.26-1.15c1.32-2.31,2.64-4.62,4.12-6.83.33-.49,1.26-.58,1.92-.86Z" transform="translate(-176.41 -237.53)"/><path d="M219,305l-4.11,8.83c-.21.44-.35,1.16-1,.59-.53-.43-1.84-.53-1.24-1.63,1.35-2.47,2.79-4.89,4.33-7.24C217.25,305.12,218.21,305.17,219,305Z" transform="translate(-176.41 -237.53)"/><path d="M268.75,265.45c0,1.45-1.35,2.88-2.33,2.71a1.7,1.7,0,0,1-1-1.2c-.16-1,1.2-2.43,2.14-2.26A3.38,3.38,0,0,1,268.75,265.45Z" transform="translate(-176.41 -237.53)"/><path d="M218.2,303.16c0-1.16.73-2.18,1.41-2.06a1.44,1.44,0,0,1,1,.8c.18.67-1,2-1.7,1.84C218.58,303.68,218.33,303.28,218.2,303.16Z" transform="translate(-176.41 -237.53)"/><path d="M235.31,303.15c0-1.16.75-2.14,1.45-2a1.34,1.34,0,0,1,.9.82c.17.68-1,2-1.68,1.8C235.66,303.67,235.43,303.26,235.31,303.15Z" transform="translate(-176.41 -237.53)"/></svg>