<svg id="Layer_1" enable-background="new 0 0 68 68" height="512" viewBox="0 0 68 68" width="512" xmlns="http://www.w3.org/2000/svg"><g><g><g><g><path d="m40.5039063 62.3007813h-11.484375c-.2763672 0-.5-.2236328-.5-.5v-7.4174805c0-.2763672.2236328-.5.5-.5h11.484375c.2763672 0 .5.2236328.5.5v7.4174805c0 .2763671-.2236329.5-.5.5zm-10.984375-1h10.484375v-6.4174805h-10.484375z"/></g><g><path d="m60.5195313 54.8833008h-53.0400391c-2.1943359 0-3.9794922-1.7856445-3.9794922-3.9799805v-36.8701172c0-2.1943359 1.7851563-3.9799805 3.9794922-3.9799805h6.5205078c.2763672 0 .5.2236328.5.5v39.3300781h38.9892578v-39.330078c0-.2763672.2236328-.5.5-.5h6.5302734c2.1953125 0 3.9804688 1.7856445 3.9804688 3.9799805v36.8701172c0 2.1943359-1.7851562 3.9799804-3.9804687 3.9799804zm-53.0400391-43.8300781c-1.6425781 0-2.9794922 1.336914-2.9794922 2.9799804v36.8701172c0 1.6430664 1.3369141 2.9799805 2.9794922 2.9799805h53.0400391c1.6435547 0 2.9804688-1.3369141 2.9804688-2.9799805v-36.8701172c0-1.6430664-1.3369141-2.9799805-2.9804688-2.9799805h-6.0302734v39.3300781c0 .2763672-.2236328.5-.5.5h-39.9892579c-.2763672 0-.5-.2236328-.5-.5v-39.330078z"/></g><g><g><path d="m58.7695313 50.8833008h-4.7802734c-.2763672 0-.5-.2236328-.5-.5v-35.8300781c0-.2763672.2236328-.5.5-.5h4.7802734c.9541016 0 1.7304688.7714844 1.7304688 1.7197266v33.3803711c-.0000001.9541015-.7763673 1.7299804-1.7304688 1.7299804zm-4.2802735-1h4.2802734c.4023438 0 .7304688-.3276367.7304688-.7299805v-33.3803711c0-.3969727-.328125-.7197266-.7304688-.7197266h-4.2802734zm-40.4892578 1h-4.7705078c-.9541016 0-1.7294922-.7758789-1.7294922-1.7299805v-33.3803711c0-.9482422.7753906-1.7197266 1.7294922-1.7197266h4.7705078c.2763672 0 .5.2236328.5.5v35.8300781c0 .2763673-.2236328.5000001-.5.5000001zm-4.7705078-35.8300781c-.4023438 0-.7294922.3227539-.7294922.7197265v33.3803711c0 .4023438.3271484.7299805.7294922.7299805h4.2705078v-34.8300781z"/></g></g><g><path d="m54.4619141 66.3369141h-39.1835938c-.2763672 0-.5-.2236328-.5-.5v-1.296875c0-1.7866211 1.453125-3.2397461 3.2402344-3.2397461h33.7041016c1.7861328 0 3.2392578 1.453125 3.2392578 3.2397461v1.296875c0 .2763672-.2236328.5-.5.5zm-38.6835938-1h38.1835938v-.796875c0-1.2348633-1.0048828-2.2397461-2.2392578-2.2397461h-33.7041016c-1.2353516 0-2.2402344 1.0048828-2.2402344 2.2397461z"/></g></g></g><g><path d="m53.9921875 50.8833008h-39.9902344c-.2763672 0-.5-.2236328-.5-.5v-45.2299805c0-1.9243164 1.5654297-3.4902344 3.4902344-3.4902344h34.0195313c1.9189453 0 3.4804688 1.565918 3.4804688 3.4902344v45.2299805c-.0000001.2763672-.2236329.5-.5000001.5zm-39.4902344-1h38.9902344v-44.7299805c0-1.3730469-1.1123047-2.4902344-2.4804688-2.4902344h-34.0195312c-1.3730469 0-2.4902344 1.1171875-2.4902344 2.4902344z"/></g><g><path d="m53.9921875 9.6162109h-39.9902344c-.2763672 0-.5-.2236328-.5-.5v-3.9628906c0-1.9243164 1.5654297-3.4902344 3.4902344-3.4902344h34.0195313c1.9189453 0 3.4804688 1.565918 3.4804688 3.4902344v3.9628906c-.0000001.2763672-.2236329.5-.5000001.5zm-39.4902344-1h38.9902344v-3.4628906c0-1.3730469-1.1123047-2.4902344-2.4804688-2.4902344h-34.0195312c-1.3730469 0-2.4902344 1.1171875-2.4902344 2.4902344z"/></g><g><path d="m33.3642578 6.1396484h-15.375c-.2763672 0-.5-.2236328-.5-.5s.2236328-.5.5-.5h15.375c.2763672 0 .5.2236328.5.5s-.2236328.5-.5.5z"/></g><g><g><path d="m29.8320313 27.7729492h-10.5097657c-.4384766 0-.8427734-.1494141-1.1689453-.4326172-.4013672-.3188477-.6513672-.8427734-.6513672-1.387207v-10.5102539c0-1.0087891.8164063-1.8295898 1.8203125-1.8295898h10.5097656c1.0087891 0 1.8300781.8208008 1.8300781 1.8295898v10.5102539c0 .3447266-.1035156.6933594-.2900391.9819336-.3408202.5249023-.9160155.8378906-1.5400389.8378906zm-10.5097657-13.1596679c-.4521484 0-.8203125.3720703-.8203125.8295898v10.5102539c0 .2421875.1083984.4736328.2910156.6186523.1591797.1381836.3320313.2011719.5292969.2011719h10.5097656c.2832031 0 .5458984-.1430664.7011719-.3823242.0830078-.128418.1289063-.2836914.1289063-.4375v-10.5102539c0-.449707-.3798828-.8295898-.8300781-.8295898z"/></g><g><path d="m29.8320313 27.7729492h-10.5097657c-.4384766 0-.8427734-.1494141-1.1689453-.4326172-.1835938-.159668-.2255859-.4277344-.0996094-.6362305l4.4404297-7.3496094c.1982422-.3276367.5449219-.5224609.9277344-.5224609h.0048828c.3847656.0014648.7304688.1982422.9248047.5258789l1.5800781 2.6494141.5205078.3256836-.3857422-.3178711.7900391-.9599609c.2373047-.28125.5800781-.4277344.9482422-.3881836.3574219.0366211.6748047.2490234.8466797.5683594l2.7431641 5.1943359c.0839844.1601563.0751953.3535156-.0234375.5058594-.3398438.524414-.9150391.8374023-1.5390625.8374023zm-10.6455079-1.0107422c.0439453.0073242.0888672.0107422.1357422.0107422h10.5097656c.1914063 0 .3720703-.0649414.5175781-.1801758l-2.5800781-4.8862305-.5273438-.3334961.3857422.3178711-.7900391.9599609c-.2294922.2739258-.5546875.4135742-.9130859.3896484-.3476563-.0249023-.6650391-.2172852-.8486328-.5146484l-1.5839844-2.6567383-.5703125-.2558594.4277344.2587891z"/></g><g><path d="m26.3330078 19.1582031c-.9912109 0-1.796875-.8061523-1.796875-1.796875s.8056641-1.796875 1.796875-1.796875 1.796875.8061523 1.796875 1.796875-.805664 1.796875-1.796875 1.796875zm0-2.59375c-.4394531 0-.796875.3574219-.796875.796875s.3574219.796875.796875.796875.796875-.3574219.796875-.796875-.3574219-.796875-.796875-.796875z"/></g><g><path d="m49.9921875 14.6162109h-8.4404297c-.2763672 0-.5-.2236328-.5-.5s.2236328-.5.5-.5h8.4404297c.2763672 0 .5.2236328.5.5s-.2236328.5-.5.5z"/></g><g><path d="m38.4267578 14.6162109h-3.4580078c-.2763672 0-.5-.2236328-.5-.5s.2236328-.5.5-.5h3.4580078c.2763672 0 .5.2236328.5.5s-.2236328.5-.5.5z"/></g><g><path d="m49.9921875 18.6157227h-3.2207031c-.2763672 0-.5-.2236328-.5-.5s.2236328-.5.5-.5h3.2207031c.2763672 0 .5.2236328.5.5s-.2236328.5-.5.5z"/></g><g><path d="m43.5517578 18.6157227h-8.5830078c-.2763672 0-.5-.2236328-.5-.5s.2236328-.5.5-.5h8.5830078c.2763672 0 .5.2236328.5.5s-.2236328.5-.5.5z"/></g><g><path d="m49.9921875 22.6157227h-9.7529297c-.2763672 0-.5-.2236328-.5-.5s.2236328-.5.5-.5h9.7529297c.2763672 0 .5.2236328.5.5s-.2236328.5-.5.5z"/></g><g><path d="m37.6142578 22.6157227h-2.6455078c-.2763672 0-.5-.2236328-.5-.5s.2236328-.5.5-.5h2.6455078c.2763672 0 .5.2236328.5.5s-.2236328.5-.5.5z"/></g><g><path d="m43.3017578 26.6152344h-8.3330078c-.2763672 0-.5-.2236328-.5-.5s.2236328-.5.5-.5h8.3330078c.2763672 0 .5.2236328.5.5s-.2236328.5-.5.5z"/></g></g><g><g><path d="m29.8320313 45.8833008h-10.5097657c-.4375 0-.8417969-.1494141-1.1679688-.4321289-.4023438-.3193359-.6523438-.8432617-.6523438-1.3881836v-10.5097656c0-1.0092773.8164063-1.8300781 1.8203125-1.8300781h10.5097656c1.0087891 0 1.8300781.8208008 1.8300781 1.8300781v10.5097656c0 .3452148-.1035156.6943359-.2910156.9824219-.3398436.524414-.9160155.8378906-1.5390623.8378906zm-10.5097657-13.1601563c-.4521484 0-.8203125.3725586-.8203125.8300781v10.5097656c0 .2426758.1083984.4741211.2910156.6191406.1601563.1381836.3330078.2011719.5292969.2011719h10.5097656c.2832031 0 .5449219-.1430664.7011719-.3828125.0830078-.1279297.1289063-.2836914.1289063-.4375v-10.5097655c0-.449707-.3798828-.8300781-.8300781-.8300781h-10.5097657z"/></g><g><path d="m29.8320313 45.8833008h-10.5097657c-.4384766 0-.8417969-.1494141-1.1679688-.4321289-.1845703-.159668-.2265625-.4282227-.1005859-.6367188l4.4404297-7.3496094c.1982422-.328125.5449219-.5229492.9277344-.5229492h.0058594c.3837891.0019531.7294922.1982422.9238281.5258789l1.5800781 2.6494141.5205078.3261719-.3857422-.3178711.7900391-.9599609c.2353516-.28125.5800781-.4238281.9472656-.3886719.3583984.0366211.6748047.2490234.8476563.5678711l2.7431641 5.1948242c.0839844.1601563.0751953.3535156-.0234375.5058594-.3398438.524414-.9160157.8378906-1.5390625.8378906zm-10.6455079-1.0107422c.0439453.0073242.0888672.0107422.1357422.0107422h10.5097656c.1904297 0 .3720703-.0649414.5175781-.1806641l-2.5800781-4.8862305-.5273438-.3330078.3857422.3178711-.7900391.9599609c-.2294922.2744141-.5625.4155273-.9130859.3896484-.3476563-.0253906-.6650391-.2182617-.8486328-.5151367l-1.5839844-2.6567383-.5703125-.2558594.4277344.2587891z"/></g><g><path d="m26.3330078 37.2680664c-.9912109 0-1.796875-.8061523-1.796875-1.796875s.8056641-1.796875 1.796875-1.796875 1.796875.8061523 1.796875 1.796875-.805664 1.796875-1.796875 1.796875zm0-2.59375c-.4394531 0-.796875.3574219-.796875.796875s.3574219.796875.796875.796875.796875-.3574219.796875-.796875-.3574219-.796875-.796875-.796875z"/></g><g><path d="m49.9921875 32.7260742h-8.4404297c-.2763672 0-.5-.2236328-.5-.5s.2236328-.5.5-.5h8.4404297c.2763672 0 .5.2236328.5.5s-.2236328.5-.5.5z"/></g><g><path d="m38.4267578 32.7260742h-3.4580078c-.2763672 0-.5-.2236328-.5-.5s.2236328-.5.5-.5h3.4580078c.2763672 0 .5.2236328.5.5s-.2236328.5-.5.5z"/></g><g><path d="m49.9921875 36.7260742h-3.2207031c-.2763672 0-.5-.2236328-.5-.5s.2236328-.5.5-.5h3.2207031c.2763672 0 .5.2236328.5.5s-.2236328.5-.5.5z"/></g><g><path d="m43.5517578 36.7260742h-8.5830078c-.2763672 0-.5-.2236328-.5-.5s.2236328-.5.5-.5h8.5830078c.2763672 0 .5.2236328.5.5s-.2236328.5-.5.5z"/></g><g><path d="m49.9921875 40.7255859h-9.7529297c-.2763672 0-.5-.2236328-.5-.5s.2236328-.5.5-.5h9.7529297c.2763672 0 .5.2236328.5.5s-.2236328.5-.5.5z"/></g><g><path d="m37.6142578 40.7255859h-2.6455078c-.2763672 0-.5-.2236328-.5-.5s.2236328-.5.5-.5h2.6455078c.2763672 0 .5.2236328.5.5s-.2236328.5-.5.5z"/></g><g><path d="m43.3017578 44.7255859h-8.3330078c-.2763672 0-.5-.2236328-.5-.5s.2236328-.5.5-.5h8.3330078c.2763672 0 .5.2236328.5.5s-.2236328.5-.5.5z"/></g></g></g></svg>