<svg id="Layer_1" data-name="Layer 1" xmlns="http://www.w3.org/2000/svg" xmlns:xlink="http://www.w3.org/1999/xlink" viewBox="0 0 608.57 180"><defs><style>.cls-1{fill:url(#linear-gradient);}.cls-2{fill:url(#linear-gradient-2);}.cls-3{fill:url(#linear-gradient-3);}.cls-4{fill:url(#linear-gradient-4);}.cls-5{fill:url(#linear-gradient-5);}.cls-6{fill:url(#linear-gradient-6);}.cls-7{fill:url(#linear-gradient-7);}.cls-8{fill:url(#linear-gradient-8);}.cls-9{fill:url(#linear-gradient-9);}.cls-10{fill:#fff;}.cls-11{fill:url(#linear-gradient-10);}.cls-12{fill:#e2e4e4;}.cls-13{fill:#0b7be5;}.cls-14{fill:#05385b;}</style><linearGradient id="linear-gradient" x1="148.51" y1="74.14" x2="179.68" y2="62.08" gradientUnits="userSpaceOnUse"><stop offset="0" stop-color="#0b7be5"/><stop offset="1" stop-color="#55a3ff"/></linearGradient><linearGradient id="linear-gradient-2" x1="151.99" y1="59.59" x2="20.7" y2="14.74" xlink:href="#linear-gradient"/><linearGradient id="linear-gradient-3" x1="90.37" y1="30.49" x2="97.47" y2="30.49" gradientUnits="userSpaceOnUse"><stop offset="0" stop-color="#0967bf"/><stop offset="1" stop-color="#0b7be5"/></linearGradient><linearGradient id="linear-gradient-4" x1="64.26" y1="48.18" x2="87.37" y2="48.18" xlink:href="#linear-gradient-3"/><linearGradient id="linear-gradient-5" x1="33.95" y1="34.34" x2="66.7" y2="34.34" xlink:href="#linear-gradient-3"/><linearGradient id="linear-gradient-6" x1="30.06" y1="45.19" x2="44.12" y2="45.19" xlink:href="#linear-gradient-3"/><linearGradient id="linear-gradient-7" x1="33.14" y1="196.04" x2="86.6" y2="91.14" xlink:href="#linear-gradient-3"/><linearGradient id="linear-gradient-8" x1="41.84" y1="145.13" x2="120.68" y2="30.21" xlink:href="#linear-gradient"/><linearGradient id="linear-gradient-9" x1="150.83" y1="55.34" x2="141.01" y2="55.98" xlink:href="#linear-gradient-3"/><linearGradient id="linear-gradient-10" x1="89.03" y1="58.58" x2="108.32" y2="58.58" xlink:href="#linear-gradient-3"/></defs><path class="cls-1" d="M151,77.57l3.25-2c1.85-.29,2.05-2,2.24-3.45.06-.5-.19-1.23-.43-1.25-2.16-.12-10.78-3-10.78-3s-29.79,9.4-38.76,14.51A33.07,33.07,0,0,0,93.82,95.4s18.67.38,28.73-2.62S151,77.57,151,77.57"/><path class="cls-2" d="M104.07,40.21l2.25-.72a17.58,17.58,0,0,1,6.8,5.12c3.32,3.91,7.06,6.11,11.94,5.84s14.77-.77,18.89-.06,4.39.78,4.39.78l.11,4.32-25.11.25-19-5.24Z"/><path class="cls-3" d="M91.76,25.62l4.18-4.57,1.44,13.6c.27,2.53-.16,2-.16,2a42.05,42.05,0,0,0-5.62,2.41l-1.23.84Z"/><path class="cls-4" d="M87.37,37a76.15,76.15,0,0,0-11.46-.41,33.08,33.08,0,0,0-5.19.69s.44,8.33-.56,11.59-5,9.95-5,9.95l-.88,1,18.27-7.22Z"/><path class="cls-5" d="M34.48,13.78l1.18-6.17s2.41,5.89,5.73,8.54S57,25.89,60.66,30.35s5.67,8.21,6,14.48a39,39,0,0,1-1.12,11.4L63.6,61.08,34,15.51Z"/><path class="cls-6" d="M32.23,19.67a35.26,35.26,0,0,0-2.14,12.94,70.51,70.51,0,0,0,3.43,19.11,98.3,98.3,0,0,0,6.53,13.76l4.07,5.23L41,32.45Z"/><path class="cls-7" d="M34.46,67.79c.08-.13,1.25-3.63,1.25-3.63s-4.92-6-5.43-6.88l-.51-.86s-9.23,9.06-12.44,15.42a54.39,54.39,0,0,0-4.18,10.24,36.6,36.6,0,0,1,5.62-1.4c2.17-.25,3.21-.17,2.33.49s-7.31,7.27-8.67,12.56a27.38,27.38,0,0,0-.08,14.86c.56,1.57.64,1.82.64,1.82s2.25-5,5.14-6.28,2.57-1.48,2.57-1.48-.16,14.53,1.93,21.8c1.44,4.13,2.89,8.67,4.73,12a62.3,62.3,0,0,0,4.1,6.27s-.73-8.34.8-12.88,1.69-5,1.69-5,3.45,15.28,9.23,23.46l6.75,8.42s6.74,6.36,12.36,9.17,8.43,4,8.43,4-2.65-8.92-1.76-14.53,1.52-6.86,1.52-6.86,7,13.22,15.82,17.1,13.73,5,20.48,4.79,10.19-.42,14.29-1.74,6.09-1.77,6.09-1.77L96.74,148.9,48.24,86l-9-14Z"/><path class="cls-8" d="M146.92,56.48l.88-.57a13.55,13.55,0,0,1-1.07-3.1h0c-2-.13-8.84-.45-9.69-.45s-.32-1-.32-1-10.44,1.32-11.17,1.32-.08-.83-.08-.83l-1.2.25c-1.2.25-5.06-.49-8.43-1.9s-5.22-6-8.27-9.66-16-1.45-16-1.45a30.61,30.61,0,0,1,2.25-4c1.32-2,1.44-7.23,1.44-7.23l.65-6.77a53.85,53.85,0,0,0-8.19,4.87c-3.62,2.73-7.15,8.67-7.15,8.67l1,.21a21.14,21.14,0,0,1,3.84,2.13,37.38,37.38,0,0,0-6.35,1.21c-2.49.83-5.78,6-5.78,6L76,43.26A19.65,19.65,0,0,1,74.09,48c-1.76,3.55-10.17,12.45-10.17,12.45a45.9,45.9,0,0,0,.59-6.17c.38-5.51-.69-8.15-2.67-13.16s-8.51-9.64-8.51-9.64v1.77c0,.38-.54.38-.54.38a16.92,16.92,0,0,0-2.62-4.18C47.92,26.44,43,24,43,24l.81,2.69s-1.29-.22-5.25-4.95-3.08-13.3-3.08-13.3-1,2.23-3,7.35a23.59,23.59,0,0,0-1.12,13c.64,3.38,5.06,16.1,5.06,16.1l-1.37-1s.08,1.9,1.53,10.57a36.22,36.22,0,0,0,6.74,15.2L41.9,69.2c-1.45-.42-6.19-5-6.19-5l-.8.16a17.58,17.58,0,0,1-2.17,1.16c-1.84.91-7.87,7.1-7.87,7.1s.65-.24,3.86,0,12,4.71,12,4.71-.24.08-1.52.66S28,87.53,28,87.53s5.7.75,7.3.83,1.21.82,1.21.82-.41.42-3.78,5S29,110.91,29,110.91s4.74-4,7.55-5.13,2.73-.49,2.73-.49.8,3.72,3.93,16.19,16,26.1,16,26.1l2.78-7.71c2.31-6.39,9.8-9.09,9.8-9.09l2.19,7.11s6,15.14,19.38,25.49,33.85,3.4,33.85,3.4l-4.78-3.07-11.19-4.9-16.7-37L85.82,99.34l16.7-18.17Z"/><path class="cls-9" d="M147.81,57.17S144.75,51,148.93,51c6.42-.06,7.66,8.53,7.66,8.53h-7.07s-2.68-2.09-2-4.3"/><path class="cls-10" d="M39.27,27S38.42,37.1,40.88,42.6s4,8,7.44,11a56.74,56.74,0,0,0,7,5s3-7.49,2.35-12.39a17,17,0,0,0-2.73-7.54s-1.41,4.2-2,5.25-1.21,1.52-2.71.37-6.47-5.62-8.67-11S39.27,27,39.27,27"/><path class="cls-11" d="M89,62.43A72.06,72.06,0,0,1,93.77,57c1.44-1.32,3.61-3.14,6.5-1.65s4.44,1.18,6.53,1,1.42-.33,1.42-.33-1.93,3.78-4.66,4.85a15,15,0,0,1-6.21.91c-.83-.06-2.59.15-4.7.3s-3.62.39-3.62.39"/><path class="cls-10" d="M74.42,102.56c-2.44-.44-4.88-.94-7.34-1.29-2.65-.39-5.33-.63-7.64-2.23-.45-.32-.87-.7-1.67-1.34a24.46,24.46,0,0,0,3.94-.23,56.66,56.66,0,0,0,8.16-2.28c3.57-1.43,7.08-2.84,11-2.76C76.1,89.76,71,90.2,65.74,90.52c6.87-6.68,15.4-9.31,24.89-11-3.36-1.14-6.34-2.08-8.81-4.52a33.16,33.16,0,0,0,6-.41A65.07,65.07,0,0,0,99,71.2a50.11,50.11,0,0,1,17.77-4c5.78-.37,11.55-.76,16.77-3.75.54-.3,1.05-.64,1.62-1l-9.43-3.91c0-.17.08-.34.13-.52,2-.11,4.09-.12,6.11-.37,4.78-.59,9.54-1.26,14.3-2a1.78,1.78,0,0,1,2.1.85c1.45,2.14,3.73,2.65,6.09,2.66,2,0,2.77.36,3.31,2.31a12.65,12.65,0,0,1-1.2,9.24c-.15.3-.68.66-.95.59-2.6-.63-4.9.29-7,1.58-10.43,6.25-21.86,8.87-33.7,10.12a30,30,0,0,0-14,4.77,4.33,4.33,0,0,0-1.39,1.43c2.15-.68,4.27-1.45,6.45-2s4.42-.92,6.63-1.37c.1.19.2.38.29.57l-4.66,6.19a72.36,72.36,0,0,0,7.76-4,18.93,18.93,0,0,1,7.72-2.84A65,65,0,0,0,147,76.56c2.58-1.61,5.36-2,8.78-1.89-1.19,1.78-2.06,3.33-3.16,4.67-4.21,5.17-9.46,9.06-14.92,12.66a101.81,101.81,0,0,1-10.21,6.21c-4.76,2.38-7.18,6.39-8.61,11.3-2,6.9-1.76,13.91-.81,20.93.28,2,.66,4.07,1,6.37a38.81,38.81,0,0,1-13-12.45c-.76,4.15,1.76,15.39,6.05,23.32a63.71,63.71,0,0,0,15.22,18.49l-.21.61c-3.4-.51-6.86-.74-10.18-1.57-11.52-2.9-19.63-10.37-25.31-20.8a70.83,70.83,0,0,1-4.5-10.2,20.47,20.47,0,0,0-11-12.25c-4.49-2.07-9.07-3.91-13.61-5.86-5.43-2.34-10.08-5.58-12.45-11.45-.15-.35-.29-.71-.41-1.07a3.87,3.87,0,0,1,0-.76c8.26,3.28,16.49,4.08,24.71.5l.06-.76"/><path class="cls-12" d="M110.81,91.34c3-1.37,7.63-3.4,12.57-5.59a28.39,28.39,0,0,0-4.75,1.37c-.8.49-5.79,3.21-7.82,4.22"/><path class="cls-12" d="M157.44,60.44c-.4-.49-.88-1-.88-1s1,4.3-2.41,5.78-10.6,3.39-11.32,3.72L136.32,72l1.93,1.07a53.23,53.23,0,0,1-12,3.55c-5.62.74-19.11,2.15-22.65,3.72s-8.83,4.21-11.4,8.17a57,57,0,0,0-3.77,6.61s5.38-2.06,7.87-2.31,4.09-.91,4.17.08S98,96.78,98,96.78s7.63-3,9-3.71c.18-.11,1.08-.52,2.48-1.15l-1.15.49s3.06-4,3.43-4.57,1-1.4,1-1.4l-.29-.57s-5.62.92-6.37,1.19-5.73,1.88-5.73,1.88l-1,.32a11.27,11.27,0,0,1,3.87-2.91c2.25-.94,7.23-3,10.23-3.14a110.63,110.63,0,0,0,14.61-2.31c3.32-.88,10.39-2.76,14.67-4.9s7.92-4.19,8.83-4.57,3.92-.07,3.92-.07l-1.26.64,1.92-.82s1.84-4,1.84-6.28-.24-4-.64-4.46"/><path class="cls-12" d="M153.9,76.77a39.38,39.38,0,0,1-8.59,6C141.46,84.7,126,90.64,126,90.64s-4.26.66-10.68,5.37-6.66,18.09-6.66,18.09l-1.69-.66c-1.69-.66-11.32-7.6-11.32-7.6s-.08.5-.32,2.89.48,13.88,2.24,23.87,6.91,16.85,12.93,23.7c5.33,6.06,14.41,8.89,16.45,9.47a63.55,63.55,0,0,1-14.77-18.09c-4.28-7.93-6.81-19.17-6-23.32a38.81,38.81,0,0,0,13,12.45c-.37-2.3-.75-4.33-1-6.37-1-7-1.2-14,.81-20.93,1.43-4.91,3.86-8.92,8.61-11.3A101.81,101.81,0,0,0,137.69,92c5.46-3.6,10.72-7.5,14.93-12.66,1.09-1.35,2-2.89,3.16-4.68h-.22c-.18.24-1.15,1.51-1.66,2.11"/><path class="cls-10" d="M89,62.43s3.29-5.54,4.74-6.86,3.61-3.14,6.5-1.65,3.78,2.39,5.86,2.23l2.09-.17a12.82,12.82,0,0,1-4.66,3.47,14.66,14.66,0,0,1-6.21.91,17.72,17.72,0,0,0-5.3,1c-2,.71-3,1-3,1"/><path class="cls-13" d="M226.86,92.42a16.83,16.83,0,0,1,3.62,10.63q0,8.61-6,13.65t-16.78,5h-32V53H206.6q10.47,0,16.4,4.8a15.89,15.89,0,0,1,5.92,13,15.7,15.7,0,0,1-3.18,10.08,16.42,16.42,0,0,1-8.47,5.58A16,16,0,0,1,226.86,92.42ZM192.4,80.82h11A9.68,9.68,0,0,0,209.68,79a6.48,6.48,0,0,0,2.2-5.33,6.66,6.66,0,0,0-2.2-5.39,9.52,9.52,0,0,0-6.31-1.86h-11Zm18.85,25.51a6.81,6.81,0,0,0,2.3-5.54,7.07,7.07,0,0,0-2.4-5.67,9.83,9.83,0,0,0-6.61-2.06H192.4v15.17h12.34A10,10,0,0,0,211.25,106.33Z"/><path class="cls-13" d="M256.92,49.3v72.44H240.18V49.3Z"/><path class="cls-13" d="M323,67.12v54.62H306.26V114.3a18.36,18.36,0,0,1-6.91,5.83,21,21,0,0,1-9.64,2.2,21.59,21.59,0,0,1-11.06-2.79,18.76,18.76,0,0,1-7.44-8.08A27.47,27.47,0,0,1,268.57,99V67.12h16.64V96.78c0,3.66.94,6.5,2.84,8.52a9.94,9.94,0,0,0,7.63,3,10.11,10.11,0,0,0,7.74-3q2.83-3,2.84-8.52V67.12Z"/><path class="cls-13" d="M386.23,98.45H348.35q.39,5.08,3.28,7.78a10,10,0,0,0,7.1,2.69q6.25,0,8.71-5.29h17.82a24.6,24.6,0,0,1-13.91,16.45,28.79,28.79,0,0,1-12,2.45A29.24,29.24,0,0,1,345,119.1a24.34,24.34,0,0,1-9.79-9.79,30.2,30.2,0,0,1-3.52-14.88,30.63,30.63,0,0,1,3.47-14.88,24.16,24.16,0,0,1,9.74-9.79,31.79,31.79,0,0,1,28.49-.1,23.89,23.89,0,0,1,9.64,9.5,28.79,28.79,0,0,1,3.48,14.39A41.93,41.93,0,0,1,386.23,98.45Zm-16.83-9.3a8.61,8.61,0,0,0-2.94-6.86,10.85,10.85,0,0,0-7.34-2.54,10.6,10.6,0,0,0-7.1,2.44,10.89,10.89,0,0,0-3.57,7Z"/><path class="cls-13" d="M460.83,53V66.43h-28V80.92h20.95v13H432.83v27.8H416.09V53Z"/><path class="cls-13" d="M480.06,119.1A25.11,25.11,0,0,1,470,109.31a29.21,29.21,0,0,1-3.67-14.88A29,29,0,0,1,470,79.6a25.29,25.29,0,0,1,10.18-9.84,32.41,32.41,0,0,1,29,0,25.29,25.29,0,0,1,10.18,9.84,29,29,0,0,1,3.72,14.83,28.74,28.74,0,0,1-3.77,14.83A25.41,25.41,0,0,1,509,119.1a30.68,30.68,0,0,1-14.54,3.43A30.11,30.11,0,0,1,480.06,119.1Zm22.62-14.59c2.25-2.34,3.38-5.71,3.38-10.08s-1.1-7.73-3.28-10.08a11.12,11.12,0,0,0-16.21,0q-3.22,3.48-3.23,10.13c0,4.37,1.06,7.74,3.19,10.08a10.29,10.29,0,0,0,8,3.53A10.92,10.92,0,0,0,502.68,104.51Z"/><path class="cls-13" d="M564.3,121.74l-10.47-15.17L545,121.74H526.91l18-27.9-18.5-26.72h18.79l10.48,15.07,8.81-15.07h18.11L564.3,94.63l18.8,27.11Z"/><path class="cls-14" d="M428.47,130.7v1.82h-4.66V147.8h-2.23V132.52h-4.69V130.7Z"/><path class="cls-14" d="M440.64,134.76a4.75,4.75,0,0,1,1.92,2,6.57,6.57,0,0,1,.7,3.17v7.92h-2.21v-7.61a4.3,4.3,0,0,0-1-3.07,3.61,3.61,0,0,0-2.75-1.07,3.7,3.7,0,0,0-2.81,1.1,4.55,4.55,0,0,0-1,3.22v7.43h-2.23V129.65h2.23v6.62a4.3,4.3,0,0,1,1.83-1.59,6.2,6.2,0,0,1,5.36.08Z"/><path class="cls-14" d="M447,131.73a1.53,1.53,0,0,1,1.08-2.6,1.4,1.4,0,0,1,1,.45,1.56,1.56,0,0,1,0,2.15,1.39,1.39,0,0,1-1,.44A1.43,1.43,0,0,1,447,131.73Zm2.15,2.63V147.8h-2.23V134.36Z"/><path class="cls-14" d="M463.47,135.6a5.72,5.72,0,0,1,1.52,4.28v7.92h-2.21v-7.61a4.3,4.3,0,0,0-1-3.07,3.62,3.62,0,0,0-2.75-1.07,3.7,3.7,0,0,0-2.81,1.1,4.55,4.55,0,0,0-1,3.22v7.43H453V134.36h2.23v1.91a4.34,4.34,0,0,1,1.8-1.59,5.54,5.54,0,0,1,2.51-.57A5.47,5.47,0,0,1,463.47,135.6Z"/><path class="cls-14" d="M476.15,147.8l-5.28-5.94v5.94h-2.23V129.65h2.23v10.67l5.18-6h3.11l-6.32,6.69,6.35,6.75Z"/><path class="cls-14" d="M498,131.75a7.29,7.29,0,0,1,3.14,3,10.06,10.06,0,0,1,0,9.11,7.26,7.26,0,0,1-3.14,2.94,10.77,10.77,0,0,1-4.85,1h-5.32V130.7h5.32A10.51,10.51,0,0,1,498,131.75Zm.21,12.46a6.69,6.69,0,0,0,1.74-4.92,6.8,6.8,0,0,0-1.76-5,6.72,6.72,0,0,0-5-1.79h-3.09V146h3.09A6.86,6.86,0,0,0,498.2,144.21Z"/><path class="cls-14" d="M505.24,131.73a1.53,1.53,0,0,1,1.07-2.6,1.41,1.41,0,0,1,1.05.45,1.56,1.56,0,0,1,0,2.15,1.4,1.4,0,0,1-1.05.44A1.43,1.43,0,0,1,505.24,131.73Zm2.15,2.63V147.8h-2.23V134.36Z"/><path class="cls-14" d="M519.79,134.9a4.91,4.91,0,0,1,2,1.91v-2.45H524v13.73a6.66,6.66,0,0,1-.79,3.28,5.61,5.61,0,0,1-2.24,2.24,6.89,6.89,0,0,1-3.4.81,7.48,7.48,0,0,1-4.41-1.25,4.92,4.92,0,0,1-2.09-3.41h2.21a3.48,3.48,0,0,0,1.52,2,5,5,0,0,0,2.77.75,4.09,4.09,0,0,0,3-1.15,4.38,4.38,0,0,0,1.16-3.24v-2.82a5.26,5.26,0,0,1-2,2,5.72,5.72,0,0,1-3,.79,6.09,6.09,0,0,1-5.54-3.36,7.65,7.65,0,0,1-.84-3.63,7.53,7.53,0,0,1,.84-3.62,6,6,0,0,1,2.29-2.41,6.2,6.2,0,0,1,3.25-.86A5.93,5.93,0,0,1,519.79,134.9Zm1.34,3.5a4.39,4.39,0,0,0-1.66-1.73,4.5,4.5,0,0,0-2.29-.6,4.56,4.56,0,0,0-2.28.59,4.25,4.25,0,0,0-1.64,1.72,5.43,5.43,0,0,0-.62,2.65,5.55,5.55,0,0,0,.62,2.68,4.34,4.34,0,0,0,1.64,1.75,4.65,4.65,0,0,0,4.57,0,4.38,4.38,0,0,0,1.66-1.75,6.08,6.08,0,0,0,0-5.31Z"/><path class="cls-14" d="M527.85,131.73a1.53,1.53,0,0,1,1.08-2.6,1.39,1.39,0,0,1,1,.45,1.56,1.56,0,0,1,0,2.15,1.38,1.38,0,0,1-1,.44A1.43,1.43,0,0,1,527.85,131.73Zm2.16,2.63V147.8h-2.24V134.36Z"/><path class="cls-14" d="M536.53,136.2v7.92a1.85,1.85,0,0,0,.42,1.38,2,2,0,0,0,1.44.41H540v1.89h-2a4,4,0,0,1-2.8-.86,3.68,3.68,0,0,1-.93-2.82V136.2h-1.74v-1.84h1.74V131h2.23v3.39H540v1.84Z"/><path class="cls-14" d="M542.74,137.41A6,6,0,0,1,545,135a6.2,6.2,0,0,1,3.25-.86,5.89,5.89,0,0,1,3.06.76,5,5,0,0,1,1.94,1.91v-2.45h2.26V147.8h-2.26v-2.5a5.34,5.34,0,0,1-2,1.95,6,6,0,0,1-3.06.77,6.06,6.06,0,0,1-5.51-3.36,7.65,7.65,0,0,1-.84-3.63A7.53,7.53,0,0,1,542.74,137.41Zm9.93,1a4.39,4.39,0,0,0-1.66-1.73,4.5,4.5,0,0,0-2.29-.6,4.56,4.56,0,0,0-2.28.59,4.25,4.25,0,0,0-1.64,1.72,5.43,5.43,0,0,0-.62,2.65,5.55,5.55,0,0,0,.62,2.68,4.34,4.34,0,0,0,1.64,1.75,4.65,4.65,0,0,0,4.57,0,4.38,4.38,0,0,0,1.66-1.75,6.08,6.08,0,0,0,0-5.31Z"/><path class="cls-14" d="M561.55,129.65V147.8h-2.24V129.65Z"/><path class="cls-14" d="M565,147.5a1.53,1.53,0,0,1,0-2.15,1.44,1.44,0,0,1,1.08-.45,1.39,1.39,0,0,1,1,.45,1.56,1.56,0,0,1,0,2.15,1.39,1.39,0,0,1-1,.45A1.44,1.44,0,0,1,565,147.5Z"/><path class="cls-14" d="M570.13,147.5a1.53,1.53,0,0,1,0-2.15,1.44,1.44,0,0,1,1.08-.45,1.37,1.37,0,0,1,1,.45,1.56,1.56,0,0,1,0,2.15,1.37,1.37,0,0,1-1,.45A1.44,1.44,0,0,1,570.13,147.5Z"/><path class="cls-14" d="M575.28,147.5a1.53,1.53,0,0,1,0-2.15,1.44,1.44,0,0,1,1.08-.45,1.37,1.37,0,0,1,1,.45,1.56,1.56,0,0,1,0,2.15,1.37,1.37,0,0,1-1,.45A1.44,1.44,0,0,1,575.28,147.5Z"/><path class="cls-14" d="M580.43,147.5a1.53,1.53,0,0,1,1.08-2.6,1.37,1.37,0,0,1,1,.45,1.56,1.56,0,0,1,0,2.15,1.37,1.37,0,0,1-1,.45A1.46,1.46,0,0,1,580.43,147.5Z"/></svg>