<?xml version="1.0" encoding="utf-8"?>
<!-- Generator: Adobe Illustrator 26.0.1, SVG Export Plug-In . SVG Version: 6.00 Build 0)  -->
<svg version="1.1" id="Layer_1" xmlns="http://www.w3.org/2000/svg" xmlns:xlink="http://www.w3.org/1999/xlink" x="0px" y="0px"
	 viewBox="0 0 458 322" style="enable-background:new 0 0 458 322;" xml:space="preserve">
<style type="text/css">
	.st0{fill:#F7F7F7;filter:url(#Adobe_OpacityMaskFilter);}
	.st1{mask:url(#mask0_3059_8834_00000098926850743367217070000008323514513409471894_);}
	.st2{fill:none;stroke:#7BBDE8;}
	.st3{fill:#5095D0;}
	.st4{fill:#8CC295;}
	.st5{fill:#E39476;}
	.st6{fill:#1585C4;}
	.st7{fill:#F5B49B;}
	.st8{fill:#FFFFFF;}
	.st9{fill:#222221;}
	.st10{fill:#2B1A0F;}
	.st11{fill:#1E244A;}
	.st12{fill:#EDEDED;}
	.st13{fill:#FFFBF2;}
	.st14{fill:#AB684D;}
</style>
<defs>
	<filter id="Adobe_OpacityMaskFilter" filterUnits="userSpaceOnUse" x="-1" y="0" width="459" height="509">
		<feColorMatrix  type="matrix" values="1 0 0 0 0  0 1 0 0 0  0 0 1 0 0  0 0 0 1 0"/>
	</filter>
</defs>
<mask maskUnits="userSpaceOnUse" x="-1" y="0" width="459" height="509" id="mask0_3059_8834_00000098926850743367217070000008323514513409471894_">
	<rect class="st0" width="458" height="322"/>
</mask>
<g class="st1">
	<circle class="st2" cx="228" cy="229" r="228.5"/>
	<circle class="st2" cx="229" cy="280" r="228.5"/>
	<path class="st3" d="M229.6,295.6c-0.1-2.7-0.2-5.4-0.3-8c-0.2-5.4-0.6-10.8-1.4-16.2c-1.3-9-4.6-17-7-25.7
		c-0.9-3.4-1.7-6.9-2.2-10.4c-1-6.6-1.5-13.2-1.4-19.8c0.1-6.5,0.5-13,2.8-19.2c1.2-3.3,2.6-7.5,5.3-10c0.4-0.4,1.2-0.8,1.5-1.2
		c0,0,0,0,0,0c0.1-0.1,0.3-0.2,0.4-0.3c0.1-0.6,0.2-1.2,0.3-1.8c0,0,0-0.1,0-0.1c-1.4-0.1-2.9,0.9-4.2,1.4c-2.9,1.3-6,2.4-8.9,3.7
		c-1.3,0.6-2.7,1.2-4,1.9c-1.3,0.6-2.3,1.7-3.6,2.3c-1.4,0.7-2.9,1.4-4.4,2.1c-1.1,0.5-2.2,1-3.3,1.5c0.8,2.1,1.8,4.2,3.1,6.1
		c0,0.1-0.1,0.3-0.1,0.4c-1.1,3.5-3.2,6.4-4.7,9.8c-0.4,0.8-0.7,1.6-0.9,2.5l0,0c0.7,0.4,0.7,1.2,0.9,1.9c1.9,5.8-1.2,9.1-2,14.6
		c-0.7,4.3,0.9,8.3,0.8,12.5c-0.1,2.7-1.6,5.1-2.3,7.7c-0.3,1.2-0.5,2.3-0.7,3.5c-1.6,11.3-4.1,22.6-6.3,33.8
		c-0.5,2.7-1,5.6-1.7,8.4l0,0c0.7,8.7,0.8,17.6,0.7,26.3h43.5c0.2-3.9,0.3-7.8,0.3-11.8C229.9,306,229.7,300.9,229.6,295.6z
		 M220,280.4c-0.6-1.4,0.2-3.3,1.8-3.4c0.8-0.1,1.2,0,1.8,0.5c1.3,1,0.8,2.8-0.2,3.9C222.6,282.5,220.5,281.5,220,280.4z M225,306.6
		c-0.9,1.1-3,0.2-3.5-1c-0.6-1.4,0.2-3.3,1.8-3.4c0.8-0.1,1.2,0,1.8,0.5C226.5,303.8,226,305.5,225,306.6z"/>
	<path class="st4" d="M175.6,138C175.6,138,175.6,138,175.6,138C175.6,138,175.6,138,175.6,138C175.6,138,175.6,138,175.6,138z"/>
	<path class="st5" d="M240.6,176.7L240.6,176.7c3.9-0.2,8.5-2.5,11.9-5.1l0.1,0.1c-0.1,1.1-0.1,2.4-0.2,3.4c-0.2,2-0.3,4.1-0.1,6.1
		c-2.3,0.1-4.6,0.7-7,0.5c-2.7-0.2-5.6-0.9-8.1-1.9c-2.2-0.9-4.2-2.3-6.1-3.7c-1.3-1-2.3-2.1-3.4-3.3c-0.2-0.2-0.4-0.5-0.6-0.8
		c1.3,0.7,2.6,1.4,3.9,2.1c1.6,0.9,3.4,1.4,5.1,1.9C237.6,176.4,239.1,176.7,240.6,176.7z"/>
	<path class="st6" d="M223.6,277.5c1.3,1,0.8,2.8-0.2,3.9c-0.9,1.1-3,0.2-3.5-1c-0.6-1.4,0.2-3.3,1.8-3.4
		C222.6,277,223,277,223.6,277.5z"/>
	<path class="st3" d="M291.9,323.1h-35.6c0-5.5,0.1-10.9-0.4-16.3c-0.4-4.5-0.7-9.1-0.5-13.7c0.1-3.8-0.2-7.6-0.1-11.3
		c0.1-4.2,1-8.4,1.2-12.7c0.1-3.2,0.7-6.2,1.3-9.3c0.8-3.5,0.7-7.2,1.7-10.7c1-3.6,2-7.1,2.7-10.8c0.6-3.3,1-6.7,1.7-10
		c1.5-7.5,1.6-15.1,0.4-22.7c-0.4-2.2-0.5-4.4-1.1-6.6c-1.1-4.3-3-8.4-6.4-11.4c-1.2-1.1-2.9-1.6-4.1-2.6c-0.1-0.6-0.2-1.2-0.4-1.8
		c0,0,0-0.1,0-0.1c1.4-0.2,3,0.8,4.2,1.3c3,1.2,6,2.2,9,3.4c1.4,0.6,2.8,1.1,4.1,1.7c1.3,0.6,2.3,1.6,3.7,2.2
		c1.5,0.7,2.9,1.3,4.4,1.9c3.2,1.3,6.4,2.5,9.3,4.3c3.9,2.3,7.6,4.6,10.8,7.9c2.9,3.2,5.2,7.3,7.3,11.1c2.2,4.2,3.9,8.9,5.4,13.3
		c0.4,1.1,0.9,2.2,1.1,3.3c0.4,2.1,0.5,4.3,0.9,6.5c0.4,2.4,0.7,4.9,1,7.3c0.6,4.9,1.1,9.9,1.5,14.9c0.5,6.3,0.5,12.7,1.2,19
		c0.7,6.2,3.1,11.7,4.1,17.8c0.7,3.9-0.1,7.9-0.4,11.8c-0.1,2.1,0.6,4.2,0.6,6.3c0,2-0.6,4-0.6,6.1H291.9z"/>
	<path class="st7" d="M176.6,209.8c-0.2-1-0.3-2-0.5-3c-0.2-1.1-0.4-2.2-0.7-3.2c-1-4.5-1.8-8.7-0.4-13.1c1.3-4,3.5-7.7,4.4-11.9
		c0.7-2.8,0.5-5.7,0.4-8.6c-0.1-3.5,0.1-7.1,0.1-10.6c0-2.5-0.3-6.1,2.2-7.6c0.7-0.4,1.1-0.4,1.9-0.1c2.1,1,2.5,4.1,2.6,6.1
		c0.3,5.6,0,11.2,0,16.9c0,0.3,0.1,0.5,0.1,0.8c0.8,0,1.6,0.1,2.3,0.3c3.3,1,5.5,3.9,7.5,6.5c0.5-1.9,1.5-4.3,3.5-4.9
		c0.6-0.2,1.1-0.4,1.7-0.1c0.9,0.3,1.8,0.9,2.2,1.8c1,1.9,0,4.4-0.5,6.3c-0.3,1.4-0.7,2.7-0.6,4.1c0,1.5,0.3,3.1,0.3,4.6
		c0,1.2,0,2.5-0.1,3.8c-0.1,1.5-0.4,3-0.8,4.5c-1.1,3.5-3.2,6.4-4.7,9.8c-0.4,0.8-0.7,1.6-0.9,2.5c-0.9,2.4-1.7,4.7-3.9,6.4
		c-2.9,2.2-6.7,1.5-9.6-0.2c-1.6-0.9-3-2.2-4.1-3.6c-0.6-0.8-0.8-1.4-1-2.4c-0.2-1.3-0.9-2.5-1.2-3.7
		C176.7,210.5,176.7,210.2,176.6,209.8z"/>
	<path class="st8" d="M248.3,154c0.7,1.7-0.8,3.5-1.9,4.7c-1.8,1.9-4.2,3-6.8,2.6c-1.5-0.2-2.7-0.5-3.9-1.4c-1.1-0.8-2.2-1.7-3-2.8
		c-0.6-0.9-1.1-2.4-0.4-3.4c0.6-0.8,1.7-1.1,2.7-1c0.9,0.1,1.8,0.1,2.7,0.2c0.8,0.1,1.7,0,2.5,0c1.1,0,2.2,0,3.3-0.1
		c1-0.1,1.9-0.5,2.9-0.3C247.2,152.7,248,153.1,248.3,154z"/>
	<path class="st9" d="M206.2,141.1c-0.2-1.1-0.3-2.1-0.4-3.2c-0.1-1.2-0.2-2.4-0.6-3.5c-0.7-2.3-2.1-4.3-2.9-6.5
		c-0.4-1.1-0.6-2-0.6-3.2c0-1.2,0.2-2.4,0.3-3.7c0.2-2,0.6-4,1.1-6c0.6-2.6,1.6-5.3,1.3-8c0-0.3-0.1-0.6-0.1-0.9
		c-0.3-2,0.4-3.6,1.4-5.3c1.4-2.7,3.6-5.2,6.4-6.7c3-1.6,6.8-2.1,9.9-3.5c1.4-0.6,2.7-1.3,3.9-2.1c0.5-0.3,0.9-0.8,1.4-1
		c0.8-0.4,1.7-0.8,2.5-1.1c1-0.4,2.1-0.8,3.1-1c3.3-0.6,6.8-0.4,10,0.5c3.1,0.9,6.4,2.8,7.2,6.2c0.2,0.9,0.9,0.8,1.7,0.8
		c2.4-0.5,4.9,0,7,1.1c3,1.7,4.1,4.6,5.7,7.4c1.5,2.5,3.5,4.6,5.3,6.9c2.3,2.9,4,6.2,3.4,9.9c-0.3,1.8-0.5,3.4-0.5,5.2
		c0.1,1.8-0.8,3.8-1.3,5.6c-0.3,1.1-0.4,2.3-0.8,3.4c-1,2.5-1.2,5.2-1.1,7.9c0,0.2,0,0.4,0,0.6c0,0.6,0,1.5-0.1,2.2
		c0,0.5-0.1,1-0.3,1.5c-0.2,0.4-0.5,1.1-1,1.1c-1.7,0.2-1.4-4.6-1.4-5.5c-0.1-3-0.6-6.3-2.3-8.8c-0.9-1.3-1.4-3-1.8-4.5
		c-0.4-1.7-0.5-3.3-0.5-5c0-2.7,0.2-5.4-1.2-7.9c-1.3-2.2-4-3.2-6.5-3.4c-0.6,0-1,0-1.6,0c-4-0.2-7.9,0-11.6,1.6
		c-1.2,0.5-2.5,0.7-3.7,0.7c-3.3-0.1-6.3-1.4-9.5-2c-1.6-0.3-3-0.4-4.6-0.3c-1.6,0.1-3.3,0.2-4.6,1.3c-1.2,0.9-2.1,2.3-2.5,3.7
		c-0.3,1-0.5,2-0.6,3.1c-0.1,1.3,0.2,2.6,0.1,3.9c-0.2,2.3-0.6,4.4-1.7,6.5c-0.3,0.5-0.5,1.1-0.7,1.6c-0.2,0.5-0.5,0.9-0.8,1.3
		c-0.6,1-1.4,1.9-1.8,3c-1,2.5-0.4,5.2-0.3,7.8c0,1.1,0,2.2-0.7,3.1c-0.7,0.9-1.7,0.6-2.4-0.2c-0.7-0.8-0.8-1.9-1-2.9
		C206.3,142,206.3,141.5,206.2,141.1z"/>
	<path class="st4" d="M252.5,183c0,0,0,0.1,0,0.1C252.5,183.1,252.4,183.1,252.5,183C252.4,183,252.5,183,252.5,183z"/>
	<path class="st10" d="M253.7,137.3c0.2,0.9-0.1,2-0.6,2.7c-0.6,0.9-1.9,1-2.8,0.7c-2.1-0.6-2.7-3.1-1.3-4.7
		c0.8-0.8,2.1-1.4,3.2-0.9C253,135.6,253.6,136.5,253.7,137.3z"/>
	<path class="st6" d="M225.2,302.8c1.3,1,0.8,2.8-0.2,3.9c-0.9,1.1-3,0.2-3.5-1c-0.6-1.4,0.2-3.3,1.8-3.4
		C224.1,302.2,224.6,302.3,225.2,302.8z"/>
	<path class="st3" d="M197.6,216.3c1.9,5.8-1.2,9.1-2,14.6c-0.7,4.3,0.9,8.3,0.8,12.5c-0.1,2.7-1.6,5.1-2.3,7.7
		c-0.3,1.2-0.5,2.3-0.7,3.5c-1.6,11.3-4.1,22.6-6.3,33.8c-0.5,2.7-1,5.6-1.7,8.4c-0.9,3.6-2.1,7.1-4.4,9.9
		c-5.3,6.7-18.1,9.3-24.9,3.1c-4-3.7-5.6-9.5-6.1-14.8c-1.2-11.6,2.3-24.1,6.2-34.9c1.4-3.8,3.2-7.4,4.6-11.2
		c1.3-3.6,2.2-7.1,2.6-10.9c0.3-2.7,0.9-5.3,2.2-7.7c1.5-2.8,4.1-4.8,5-7.9c1.2-4.2,0.4-9.1,4.8-11.9c0.5-0.3,1-0.5,1.4-0.8
		c0.1,0.4,0.2,0.7,0.3,1.1c0.4,1.2,1,2.5,1.2,3.7c0.2,1,0.4,1.5,1,2.4c1.1,1.4,2.5,2.7,4.1,3.6c2.9,1.7,6.7,2.4,9.6,0.2
		c2.2-1.7,3-4,3.9-6.4l0,0C197.4,214.8,197.4,215.6,197.6,216.3z"/>
	<path class="st7" d="M227,183.2c0-0.1,0-0.2,0-0.3c0.1-1.9,0.1-3.8,0-5.7c-0.1-1-0.1-1.9-0.3-2.8c-0.1-0.4-0.2-0.8-0.3-1.2
		c-0.1-0.4,0-0.9-0.2-1.2l0.2-0.3c0.2,0.1,0.5,0.3,0.7,0.4c0.2,0.3,0.4,0.6,0.6,0.8c1.1,1.2,2.1,2.3,3.4,3.3
		c1.9,1.4,3.9,2.9,6.1,3.7c2.5,1,5.4,1.7,8.1,1.9c2.4,0.2,4.7-0.4,7-0.5c0,0.3,0.1,0.7,0.1,1c0,0.2,0.1,0.5,0.1,0.7c0,0-0.1,0-0.1,0
		c0,0.1,0.1,0.1,0.1,0.1c0.1,0.6,0.2,1.2,0.4,1.8c0.2,0.8,0.3,1.6,0.2,2.5c-0.1,1.6-0.5,3.1-1.2,4.5c-1.4,2.8-3.8,5.1-6.8,6.3
		c-0.6,0.2-1.1,0.5-1.7,0.7c-1,0.4-2.3,0.5-3.4,0.5c-1.1-0.1-2.3-0.3-3.4-0.6c-1.8-0.5-3.3-1-4.8-2.1c-2.3-1.7-4.1-4.2-4.8-7
		c-0.3-1.1-0.3-1.9-0.1-3c0.1-0.5,0.1-1,0.1-1.5C227,184.5,227,183.8,227,183.2z"/>
	<path class="st11" d="M256.3,126.7c0.5,0.7,0,1.5-0.8,1.6c-0.8,0.1-1.5-0.2-2.2-0.5c-0.3-0.1-0.7-0.2-1-0.3c-0.4-0.1-0.8,0-1.2,0
		c-1.2,0-2.2,0.4-3.3,0.8c-0.3,0.1-0.7,0.1-0.9,0c-1-0.6-0.2-1.5,0.4-2.1c0.4-0.4,0.8-0.6,1.3-0.8c0.7-0.3,1.4-0.5,2.2-0.6
		c0.6-0.1,1.2-0.1,1.9-0.1C253.9,124.8,255.6,125.5,256.3,126.7z"/>
	<path class="st11" d="M230.6,126.7c0.5,0.7,0,1.5-0.8,1.6c-0.8,0.1-1.5-0.2-2.2-0.5c-0.3-0.1-0.7-0.2-1-0.3c-0.4-0.1-0.8,0-1.2,0
		c-1.2,0-2.2,0.4-3.3,0.8c-0.3,0.1-0.7,0.1-0.9,0c-1-0.6-0.2-1.5,0.4-2.1c0.4-0.4,0.8-0.6,1.3-0.8c0.7-0.3,1.4-0.5,2.1-0.6
		c0.6-0.1,1.3-0.1,1.9-0.1C228.3,124.8,229.9,125.5,230.6,126.7z"/>
	<path class="st10" d="M228.5,137.3c0.2,0.9-0.1,2-0.6,2.7c-0.6,0.9-1.9,1-2.8,0.7c-2.1-0.6-2.7-3.1-1.3-4.7
		c0.8-0.8,2.1-1.4,3.2-0.9C227.7,135.6,228.4,136.5,228.5,137.3z"/>
	<path class="st7" d="M227.1,172.1c-0.2-0.1-0.5-0.3-0.7-0.4c-1.3-0.8-2.6-1.6-3.9-2.4c-2.5-1.8-5.1-3.8-7-6.2
		c-1.1-1.5-2.2-2.8-3.3-4.3c-1-1.3-1.7-2.8-2.6-4.1c-1-1.4-2.2-1.6-3.7-2.4c-1.5-0.8-2.9-2-3.8-3.4c-0.4-0.5-0.8-0.9-1.1-1.6
		c-0.3-0.7-0.6-1.3-0.8-2c-0.4-1.4-0.4-2.9,0.2-4.3c0.5-1.1,1.6-2,2.8-2.1c1.6-0.2,2.2,1,3,2.1c0.1,0.5,0.1,1,0.2,1.4
		c0.2,1,0.3,2.1,1,2.9c0.7,0.8,1.6,1.1,2.4,0.2c0.7-0.9,0.7-2,0.7-3.1c0-2.6-0.7-5.3,0.3-7.8c0.4-1.1,1.2-2,1.8-3
		c0.3-0.4,0.6-0.8,0.8-1.3c0.2-0.5,0.4-1.1,0.7-1.6c1.1-2,1.5-4.2,1.7-6.5c0.1-1.3-0.3-2.6-0.1-3.9c0.1-1,0.3-2.1,0.6-3.1
		c0.5-1.4,1.3-2.8,2.5-3.7c1.4-1,3-1.1,4.6-1.3c1.6-0.1,3,0,4.6,0.3c3.2,0.7,6.2,2,9.5,2c1.3,0,2.5-0.2,3.7-0.7
		c3.7-1.6,7.7-1.8,11.6-1.6c0.6,0,1,0,1.6,0c2.5,0.2,5.2,1.2,6.5,3.4c1.4,2.4,1.2,5.2,1.2,7.9c0,1.7,0.1,3.3,0.5,5
		c0.4,1.5,0.9,3.2,1.8,4.5c1.7,2.5,2.2,5.8,2.3,8.8c0,0.9-0.3,5.8,1.4,5.5c0.5-0.1,0.9-0.7,1-1.1c0.2-0.5,0.2-1,0.3-1.5
		c0.1-0.6,0.1-1.5,0.1-2.2c0-0.2,0-0.4,0-0.6l0.1,0c1.4-2.1,4.5-1,5.3,1c0.6,1.4,0.6,3,0.2,4.4c-0.2,0.7-0.5,1.4-0.8,2.1
		c-0.3,0.6-0.7,1.1-1.1,1.6c-1,1.4-2.5,2.6-4,3.5c-1.1,0.6-2.3,1.1-3.5,1.7l-0.1,0c-1.5,3.3-3.3,6.8-5.5,9.5
		c-1.7,2.1-3.9,4.2-5.8,6.1c-0.6,0.6-1.2,1.1-1.9,1.6c-3.4,2.6-8,4.9-11.9,5l0,0.1c-1.5,0-3-0.3-4.5-0.7c-1.8-0.5-3.5-1-5.1-1.9
		C229.7,173.5,228.4,172.8,227.1,172.1z M255.5,128.3c0.8-0.1,1.2-0.9,0.8-1.6c-0.7-1.1-2.4-1.9-3.6-2c-0.6-0.1-1.3,0-1.9,0.1
		c-0.7,0.1-1.5,0.4-2.2,0.6c-0.5,0.2-0.9,0.4-1.3,0.8c-0.6,0.5-1.4,1.5-0.4,2.1c0.3,0.2,0.7,0.1,0.9,0c1.1-0.3,2.1-0.8,3.3-0.8
		c0.4,0,0.8-0.1,1.2,0c0.3,0.1,0.7,0.2,1,0.3C254,128.1,254.7,128.4,255.5,128.3z M253.1,140c0.5-0.8,0.8-1.8,0.6-2.7
		c-0.1-0.7-0.8-1.7-1.5-2.1c-1.1-0.6-2.4,0-3.2,0.9c-1.5,1.6-0.9,4.1,1.3,4.7C251.2,141,252.5,140.9,253.1,140z M246.5,158.7
		c1.1-1.1,2.6-3,1.9-4.7c-0.4-0.9-1.2-1.4-2.1-1.6c-1-0.2-2,0.2-2.9,0.3c-1.1,0.1-2.2,0.1-3.3,0.1c-0.8,0-1.7,0.1-2.5,0
		c-0.9-0.1-1.8-0.1-2.7-0.2c-1-0.1-2.1,0.2-2.7,1c-0.7,1-0.2,2.6,0.4,3.4c0.8,1.1,1.9,2,3,2.8c1.3,0.8,2.5,1.2,3.9,1.4
		C242.3,161.7,244.6,160.6,246.5,158.7z M229.9,128.3c0.8-0.1,1.2-0.9,0.8-1.6c-0.7-1.1-2.4-1.9-3.6-2c-0.6-0.1-1.3,0-1.9,0.1
		c-0.7,0.1-1.5,0.4-2.1,0.6c-0.5,0.2-0.9,0.4-1.3,0.8c-0.6,0.5-1.4,1.5-0.4,2.1c0.3,0.2,0.7,0.1,0.9,0c1.1-0.3,2.1-0.8,3.3-0.8
		c0.4,0,0.8-0.1,1.2,0c0.3,0.1,0.7,0.2,1,0.3C228.4,128.1,229.1,128.4,229.9,128.3z M227.9,140c0.5-0.8,0.8-1.8,0.6-2.7
		c-0.1-0.7-0.8-1.7-1.5-2.1c-1.1-0.6-2.4,0-3.2,0.9c-1.5,1.6-0.9,4.1,1.3,4.7C226,141,227.3,140.9,227.9,140z"/>
	<path class="st12" d="M234.1,314.2c-0.5-1.4-0.4-2.9-0.7-4.4c-0.6-3.6-1-7.2-1.3-10.8c-0.2-1.7-0.1-3.7-0.4-5.3
		c-0.3-1.3-0.4-2.6-0.5-4c-0.4-6.7-1.5-13.3-3.4-19.7c0.1,0.5,0.1,0.9,0.2,1.4c0.7,5.2,1.1,10.4,1.4,15.5c0,0.2,0,0.4,0,0.6
		c0.1,2.7,0.2,5.4,0.3,8c0.2,5.3,0.3,10.4,0.3,15.7c0,3.9-0.2,7.8-0.3,11.8h5.7c-0.1-1.2-0.2-2.4-0.4-3.5
		C234.6,317.9,234.6,315.9,234.1,314.2z"/>
	<path class="st13" d="M264.4,205.5c-0.4-2.2-0.5-4.4-1.1-6.6c-1.1-4.3-3-8.4-6.4-11.4c-1.2-1.1-2.9-1.6-4.1-2.6
		c0.1,0.8,0.3,1.6,0.2,2.5c-0.1,1.6-0.5,3.1-1.2,4.5c-1.4,2.8-3.8,5.1-6.8,6.3c-0.6,0.2-1.1,0.5-1.7,0.7c-1,0.4-2.3,0.5-3.4,0.5
		c-1.1-0.1-2.3-0.3-3.4-0.6c-1.8-0.5-3.3-1-4.8-2.1c-2.3-1.7-4.1-4.2-4.8-7c-0.3-1.1-0.3-1.9-0.1-3c0.1-0.5,0.1-1,0.1-1.5
		c-0.4,0.4-1.1,0.8-1.5,1.2c-2.7,2.4-4.1,6.6-5.3,10c-2.3,6.1-2.7,12.7-2.8,19.2c-0.1,6.6,0.4,13.2,1.4,19.8c0.6,3.5,1.3,7,2.2,10.4
		c2.2,8.2,5.3,15.8,6.7,24.3c1.9,6.4,3,13,3.4,19.7c0.1,1.4,0.2,2.7,0.5,4c0.4,1.7,0.3,3.6,0.4,5.3c0.3,3.6,0.7,7.2,1.3,10.8
		c0.3,1.5,0.2,2.9,0.7,4.4c0.5,1.6,0.6,3.6,0.8,5.3c0.2,1.2,0.3,2.3,0.4,3.5h5.5h15.5c0-5.5,0.1-10.9-0.4-16.4
		c-0.4-4.5-0.7-9.1-0.5-13.7c0.1-3.7-0.2-7.6-0.1-11.3c0.1-4.2,1-8.4,1.2-12.7c0.1-3.2,0.7-6.2,1.3-9.3c0.8-3.5,0.7-7.2,1.7-10.7
		c1-3.6,2-7.1,2.7-10.8c0.6-3.3,1-6.7,1.7-10C265.6,220.7,265.6,213.1,264.4,205.5z"/>
	<path d="M243.8,108.9c-0.1,0-0.2,0-0.3-0.1c-0.1-0.1-0.2-0.4,0-0.5c2.7-2.8,4-6.5,4.9-9.7c0.1-0.2,0.3-0.3,0.5-0.3
		c0.2,0.1,0.3,0.3,0.3,0.5c-1.6,5.9-3.5,8.4-5.1,10C244,108.8,243.9,108.9,243.8,108.9z"/>
	<path d="M249.8,109c-0.2,0-0.3-0.1-0.4-0.3c-0.1-0.2,0-0.4,0.2-0.5c2-0.7,3.8-1.7,5.4-3.1c0.2-0.1,0.4-0.1,0.5,0
		c0.1,0.2,0.1,0.4,0,0.5c-1.6,1.4-3.5,2.5-5.6,3.3C249.9,109,249.9,109,249.8,109z"/>
	<path d="M232.5,105.4c-0.2,0-0.3-0.1-0.4-0.3c-0.8-3.9-3.1-6.9-6.1-8.2c-0.2-0.1-0.3-0.3-0.2-0.5c0.1-0.2,0.3-0.3,0.5-0.2
		c3.2,1.4,5.6,4.5,6.5,8.7C232.9,105.1,232.8,105.3,232.5,105.4C232.5,105.4,232.5,105.4,232.5,105.4z"/>
	<path d="M219.8,105.2c-0.1,0-0.1,0-0.2,0c-2.3-1.3-4.5-1.8-6.5-1.5c-0.2,0-0.4-0.1-0.4-0.3c0-0.2,0.1-0.4,0.3-0.4
		c2.2-0.3,4.5,0.2,7,1.6c0.2,0.1,0.2,0.3,0.1,0.5C220,105.1,219.9,105.2,219.8,105.2z"/>
	<path class="st14" d="M240.7,147.8c-0.4,0-0.8-0.1-1.3-0.3c-0.7-0.3-1.3-0.7-1.7-1.1c-0.1-0.1-0.2-0.4,0-0.5c0.1-0.1,0.4-0.2,0.5,0
		c0.4,0.4,0.8,0.7,1.5,0.9c0.4,0.2,0.8,0.3,1.2,0.2c0.3,0,0.6-0.1,0.8-0.3c0.4-0.2,1.4-0.7,0.7-3c-0.2-0.8-0.5-1.6-0.8-2.3
		c-0.2-0.7-0.5-1.4-0.7-2.1c-0.1-0.4-0.2-0.8-0.2-1.2c0-0.2,0-0.4-0.1-0.5c-0.2-1.4-0.1-2.8,0.1-4.1c0-0.2,0.2-0.4,0.4-0.3
		c0.2,0,0.4,0.2,0.3,0.4c-0.2,1.3-0.3,2.6-0.1,3.9c0,0.2,0,0.4,0.1,0.6c0,0.4,0.1,0.7,0.2,1c0.2,0.7,0.5,1.4,0.7,2.1
		c0.3,0.8,0.6,1.5,0.8,2.3c0.7,2.5-0.2,3.5-1.1,3.9c-0.3,0.2-0.7,0.3-1,0.3C241,147.8,240.9,147.8,240.7,147.8z"/>
	<path class="st14" d="M207.4,150.1c-0.1,0-0.3-0.1-0.3-0.2c-0.2-0.4-0.6-0.6-1-0.9c-0.5-0.3-1-0.7-1.2-1.3
		c-0.3-0.6-0.1-1.2,0.1-1.7c0.1-0.2,0.1-0.4,0.2-0.6c0-0.2,0-0.4-0.1-0.6c0-0.1-0.1-0.2-0.1-0.3c-0.1-0.4-0.2-0.6-0.4-0.8
		c-0.6-0.5-1.1-0.7-1.5-0.7c-0.2,0-0.4,0.1-0.5,0.3c-0.1,0.2-0.4,0.2-0.5,0.1c-0.2-0.1-0.2-0.4-0.1-0.5c0.3-0.4,0.6-0.6,1-0.7
		c0.6-0.1,1.3,0.2,2.1,0.9c0.4,0.4,0.6,0.8,0.7,1.2c0,0.1,0.1,0.2,0.1,0.3c0.1,0.3,0.2,0.6,0.2,1c0,0.3-0.1,0.5-0.2,0.7
		c-0.1,0.4-0.2,0.8-0.1,1.2c0.2,0.4,0.5,0.6,0.9,0.9c0.4,0.3,0.9,0.6,1.2,1.2c0.1,0.2,0,0.4-0.2,0.5
		C207.5,150.1,207.4,150.1,207.4,150.1z"/>
	<path class="st14" d="M268.4,150.6c-0.1,0-0.1,0-0.2,0c-0.2-0.1-0.3-0.3-0.2-0.5c0.3-0.6,0.8-0.9,1.2-1.2c0.4-0.3,0.8-0.5,1-1
		c0.2-0.4,0-0.8-0.1-1.2c-0.1-0.2-0.2-0.5-0.2-0.8c-0.1-0.4,0.1-0.7,0.2-1c0-0.1,0.1-0.2,0.1-0.3c0.1-0.4,0.3-0.9,0.7-1.3
		c0.8-0.7,1.5-1,2.2-0.9c0.4,0.1,0.8,0.3,1,0.7c0.1,0.2,0.1,0.4-0.1,0.5c-0.2,0.1-0.4,0.1-0.5-0.1c-0.2-0.2-0.3-0.3-0.5-0.4
		c-0.4-0.1-1,0.2-1.6,0.7c-0.2,0.2-0.3,0.5-0.5,0.9c0,0.1-0.1,0.2-0.1,0.4c-0.1,0.2-0.2,0.4-0.1,0.6c0,0.2,0.1,0.4,0.2,0.6
		c0.2,0.5,0.3,1.1,0.1,1.7c-0.3,0.6-0.8,1-1.3,1.3c-0.4,0.3-0.8,0.5-1,0.9C268.7,150.5,268.6,150.6,268.4,150.6z"/>
	<path class="st14" d="M195.2,194.5c-0.1,0-0.2,0-0.2,0c0,0,0,0,0,0c-0.2,0-0.4-0.2-0.3-0.4c0-0.2,0.2-0.4,0.4-0.3
		c0.1,0,0.2,0,0.2,0c0,0,0.1,0,0.1,0c1,0.1,1.9-1.2,2.2-2c0.5-1.3,0.7-2.9,0.4-4.6c-0.2-1.5-0.5-3-1.2-4c-0.1-0.2-0.3-0.4-0.4-0.6
		c-0.1-0.2-0.1-0.4,0.1-0.5c0.2-0.1,0.4-0.1,0.5,0.1c0.2,0.2,0.3,0.4,0.4,0.6c0.9,1.2,1.2,2.8,1.4,4.3c0.3,1.8,0.1,3.5-0.5,5
		c-0.2,0.6-0.6,1.2-1.1,1.6c-0.6,0.6-1.2,0.8-1.8,0.8C195.3,194.5,195.3,194.5,195.2,194.5z"/>
	<path class="st14" d="M182.1,177.4c-0.1,0-0.2-0.1-0.3-0.2c-0.1-0.2-0.1-0.4,0.1-0.5c1.2-0.9,2.8-1.5,4.4-1.7
		c0.2,0,0.4,0.1,0.4,0.3c0,0.2-0.1,0.4-0.3,0.4c-1.4,0.1-2.8,0.7-4,1.5C182.3,177.4,182.2,177.4,182.1,177.4z"/>
	<path class="st14" d="M189.8,200.2c-0.5,0-1-0.1-1.3-0.5c0,0-0.1-0.1-0.2-0.1c-0.2-0.1-0.5-0.3-0.6-0.6c0-0.2,0.1-0.4,0.3-0.4
		c0.2,0,0.4,0.1,0.4,0.3c0,0,0.1,0.1,0.2,0.1c0.1,0.1,0.3,0.1,0.4,0.3c0.6,0.6,2.2,0.1,2.9-0.4c2-1.3,3.4-4.5,2.1-8
		c-0.1-0.4-0.4-0.8-0.7-1.2c-0.1-0.2-0.2-0.3-0.3-0.5c-1.6-2.5-3.3-3.9-4.8-4.3c-1.7-0.4-3.5-0.1-4.5,0.1c-0.2,0-0.4-0.1-0.4-0.3
		c0-0.2,0.1-0.4,0.3-0.4c1-0.2,3-0.5,4.8-0.1c1.8,0.4,3.5,1.9,5.3,4.6c0.1,0.1,0.2,0.3,0.3,0.4c0.3,0.4,0.6,0.9,0.8,1.4
		c1,2.8,0.5,6.9-2.4,8.8C191.8,199.8,190.8,200.2,189.8,200.2z"/>
	<path class="st14" d="M184.8,204.2c-0.7,0-1.3-0.3-1.8-0.9c-0.4-0.5-0.6-1.1-0.7-1.7c0-0.2,0-0.5,0-0.7c0-0.4,0.1-0.7-0.1-1
		c-0.3-0.7-0.9-1.1-1.5-1.6l-0.2-0.2c-0.2-0.1-0.2-0.4-0.1-0.5c0.1-0.2,0.4-0.2,0.5-0.1l0.2,0.2c0.6,0.5,1.3,1,1.7,1.9
		c0.2,0.4,0.2,0.9,0.1,1.3c0,0.2,0,0.4,0,0.6c0,0.4,0.2,0.9,0.5,1.3c0.6,0.7,1.4,0.9,2.2,0.3c1.4-0.9,1.9-2.9,2-4.4
		c0-0.8-0.1-1.6-0.4-2.5c-0.3-0.9-1-1.7-1.7-2.4l-0.2-0.2c-0.8-0.9-1.8-1.5-2.8-1.9c-0.2-0.1-0.3-0.3-0.2-0.5
		c0.1-0.2,0.3-0.3,0.5-0.2c1.1,0.4,2.1,1.1,3,2l0.2,0.2c0.7,0.8,1.6,1.6,1.9,2.7c0.3,0.9,0.4,1.9,0.4,2.7c-0.1,2.2-1,4-2.3,5
		C185.7,204.1,185.2,204.2,184.8,204.2z"/>
	<path class="st14" d="M189.3,205c0,0-0.1,0-0.1,0c-0.2-0.1-0.3-0.3-0.3-0.5c0.6-1.8,1.2-3.2,2.1-4.4c0.2-0.2,0.3-0.4,0.5-0.6
		c0.2-0.3,0.4-0.6,0.7-0.9c0.1-0.2,0.4-0.2,0.5-0.1c0.2,0.1,0.2,0.4,0.1,0.5c-0.2,0.3-0.4,0.6-0.6,0.9c-0.1,0.2-0.3,0.4-0.5,0.6
		c-0.9,1.2-1.5,2.4-2,4.2C189.6,204.9,189.5,205,189.3,205z"/>
	<path class="st6" d="M185.4,296.9C185.3,296.9,185.3,296.9,185.4,296.9c-0.3-0.1-0.4-0.3-0.4-0.5c0.4-1.9,0.8-3.7,1.1-5.6
		c0.2-0.9,0.3-1.7,0.5-2.6c0.5-2.8,1.1-5.6,1.7-8.3c1.7-8.3,3.5-16.9,4.6-25.4c0.2-1.3,0.4-2.5,0.7-3.6c0.3-1,0.6-1.9,1-2.8
		c0.6-1.6,1.2-3.1,1.3-4.7c0.1-1.8-0.2-3.6-0.5-5.4c-0.3-2.3-0.7-4.7-0.3-7.1c0.3-1.9,0.8-3.5,1.3-5c1-3,1.9-5.7,0.7-9.4
		c-0.1-0.2-0.1-0.4-0.1-0.5c-0.1-0.5-0.2-0.9-0.6-1.1c-0.2-0.1-0.3-0.3-0.2-0.5c0.1-0.2,0.3-0.3,0.5-0.2c0.7,0.4,0.8,1,1,1.6
		c0,0.2,0.1,0.3,0.1,0.5c1.3,4,0.3,6.8-0.7,9.9c-0.5,1.5-1,3.1-1.3,4.9c-0.4,2.4,0,4.7,0.3,6.9c0.3,1.8,0.5,3.6,0.5,5.5
		c-0.1,1.8-0.7,3.4-1.4,5c-0.4,0.9-0.7,1.8-1,2.8c-0.3,1.1-0.5,2.2-0.7,3.5c-1.2,8.5-2.9,17.1-4.7,25.5c-0.6,2.7-1.1,5.6-1.7,8.3
		c-0.2,0.8-0.3,1.7-0.5,2.5c-0.3,1.8-0.7,3.7-1.1,5.6C185.7,296.7,185.5,296.9,185.4,296.9z"/>
	<path class="st6" d="M184.7,239.9c-0.1,0-0.2,0-0.3-0.1c-3.2-3.2-6.1-6.8-9.4-11.2c-0.1-0.2-0.1-0.4,0.1-0.5
		c0.2-0.1,0.4-0.1,0.5,0.1c3.3,4.3,6.1,7.9,9.3,11.1c0.1,0.1,0.1,0.4,0,0.5C184.9,239.8,184.8,239.9,184.7,239.9z"/>
	<path class="st6" d="M178.6,248.4c-1.8,0-3.7-0.3-5.8-1c-0.2-0.1-0.3-0.3-0.2-0.5c0.1-0.2,0.3-0.3,0.5-0.2c3.2,1,5.9,1.2,8.4,0.6
		c0.2,0,0.4,0.1,0.5,0.3c0,0.2-0.1,0.4-0.3,0.5C180.6,248.3,179.6,248.4,178.6,248.4z"/>
	<path class="st6" d="M291.9,323.6C291.9,323.6,291.9,323.6,291.9,323.6c-0.2,0-0.4-0.2-0.4-0.4c0-2.6-0.2-5.3-0.4-7.9
		c-0.2-2.3-0.4-4.6-0.4-6.8c-0.1-4.2-0.3-8.4-0.5-12.5c-0.1-1.5-0.1-3-0.2-4.5c-0.4-8.9-1-17.3-1.9-25.8c-0.9-9-1.6-17.7-1.1-26.4
		c0.4-6.3,1.8-13,4.2-20.6c0.1-0.2,0.3-0.3,0.5-0.2c0.2,0.1,0.3,0.3,0.2,0.5c-2.4,7.5-3.8,14.2-4.2,20.4c-0.5,8.7,0.2,17.4,1.1,26.3
		c0.8,8.5,1.5,17,1.9,25.9c0.1,1.5,0.1,3,0.2,4.5c0.2,4.1,0.4,8.3,0.5,12.5c0,2.2,0.2,4.5,0.4,6.8c0.2,2.6,0.5,5.3,0.4,7.9
		C292.3,323.4,292.1,323.6,291.9,323.6z"/>
	<path class="st6" d="M303.4,309c-0.1,0-0.2,0-0.3-0.1c-0.1-0.2-0.1-0.4,0-0.5c4-3.4,6.8-6.7,8.3-10c0.1-0.2,0.3-0.3,0.5-0.2
		c0.2,0.1,0.3,0.3,0.2,0.5c-1.6,3.4-4.4,6.8-8.5,10.3C303.6,309,303.5,309,303.4,309z"/>
	<path class="st6" d="M222.5,272.3c-0.2,0-0.3-0.1-0.4-0.3c-0.6-4-1.7-7.8-2.8-11c-0.4-1.1-0.8-2.2-1.2-3.3
		c-0.9-2.4-1.9-4.8-2.2-7.3c0-0.2,0.1-0.4,0.3-0.4c0.2,0,0.4,0.1,0.4,0.3c0.3,2.4,1.3,4.8,2.2,7.2c0.4,1.1,0.9,2.3,1.2,3.4
		c1.1,3.2,2.2,7.1,2.8,11.1C222.9,272,222.7,272.2,222.5,272.3C222.5,272.3,222.5,272.3,222.5,272.3z"/>
	<path class="st6" d="M293.4,216.2c0,0-0.1,0-0.1,0c-0.2-0.1-0.3-0.3-0.2-0.5c0.6-1.5,1.5-2.9,2.3-4.2c0.6-0.9,1.2-1.8,1.7-2.8
		c0.1-0.2,0.3-0.3,0.5-0.2c0.2,0.1,0.3,0.3,0.2,0.5c-0.5,1-1.1,1.9-1.7,2.8c-0.8,1.3-1.7,2.6-2.3,4.1
		C293.7,216.1,293.6,216.2,293.4,216.2z"/>
</g>
</svg>
