<?xml version="1.0" encoding="utf-8"?>
<!-- Generator: Adobe Illustrator 26.0.1, SVG Export Plug-In . SVG Version: 6.00 Build 0)  -->
<svg version="1.1" id="Layer_1" xmlns="http://www.w3.org/2000/svg" xmlns:xlink="http://www.w3.org/1999/xlink" x="0px" y="0px"
	 viewBox="0 0 500 500" style="enable-background:new 0 0 500 500;" xml:space="preserve">
<style type="text/css">
	.st0{fill:#F5F5F5;}
	.st1{fill:#E6E6E6;}
	.st2{fill:#455A64;}
	.st3{fill:#45B34A;}
	.st4{fill:#1585C4;}
	.st5{opacity:0.5;enable-background:new    ;}
	.st6{fill:#5095D0;}
	.st7{opacity:0.3;}
	.st8{opacity:0.3;enable-background:new    ;}
	.st9{fill:#FFA8A7;}
	.st10{fill:#263238;}
	.st11{fill:#37474F;}
	.st12{opacity:0.5;}
	.st13{fill:#F28F8F;}
	.st14{fill:#9A4A4D;}
	.st15{opacity:0.5;fill:#FFFFFF;enable-background:new    ;}
	.st16{fill:#B16668;}
	.st17{opacity:0.2;enable-background:new    ;}
	.st18{fill:#E0E0E0;}
	.st19{fill:#EBEBEB;}
	.st20{fill:#7ABDE8;}
	.st21{opacity:0.7;}
	.st22{fill:#FFFFFF;}
	.st23{opacity:0.6;}
	.st24{opacity:0.8;}
	.st25{opacity:0.1;enable-background:new    ;}
	.st26{opacity:0.6;fill:#FFFFFF;enable-background:new    ;}
	.st27{fill:#F0F0F0;}
	.st28{fill:#FAFAFA;}
	.st29{opacity:0.25;}
	.st30{opacity:5.000000e-02;enable-background:new    ;}
	.st31{opacity:0.1;}
	.st32{opacity:0.2;}
	.st33{opacity:0.5;fill:#37474F;enable-background:new    ;}
	.st34{opacity:0.15;}
</style>
<g id="freepik--Floor--inject-19">
	<ellipse id="freepik--floor--inject-19" class="st0" cx="250.1" cy="342.4" rx="236.1" ry="130.3"/>
</g>
<g id="freepik--Shadows--inject-19">
	<ellipse id="freepik--Shadow--inject-19" class="st1" cx="361.1" cy="387.5" rx="72.4" ry="41.8"/>
	<ellipse id="freepik--shadow--inject-19" class="st1" cx="131.1" cy="387.5" rx="72.4" ry="41.8"/>
	<path id="freepik--shadow--inject-19_00000116954504547422597330000000147523550345625732_" class="st1" d="M90,327.1L240.4,414
		c1.3,0.7,2.9,0.7,4.2,0L413,316.8c0.7-0.2,1-1,0.8-1.6c-0.1-0.4-0.4-0.7-0.8-0.8l-150.5-86.9c-1.3-0.7-2.9-0.7-4.2,0L90,324.7
		c-0.7,0.2-1,1-0.8,1.6C89.3,326.7,89.6,327,90,327.1z"/>
</g>
<g id="freepik--Characters--inject-19">
	<g id="freepik--character-4--inject-19">
		<g id="freepik--Boy--inject-19">
			<path class="st2" d="M343.6,265.1c0.7,0,1.2-0.5,1.2-1.2v-77.4c0.1-0.7-0.4-1.3-1.1-1.3c-0.7-0.1-1.3,0.4-1.3,1.1
				c0,0.1,0,0.1,0,0.2v77.4C342.4,264.6,342.9,265.1,343.6,265.1z"/>
			<path class="st2" d="M295.7,237c0.5,0,0.9-0.3,1.1-0.8l23.7-60.1c0.2-0.6-0.1-1.3-0.7-1.6s-1.3,0.1-1.6,0.7l0,0l-23.7,60.1
				c-0.2,0.6,0.1,1.3,0.7,1.6C295.4,237,295.5,237,295.7,237z"/>
			<path class="st2" d="M298.5,229.8c0.3,0,0.7-0.1,0.9-0.4l44.2-46.7l44.1,46.5c0.4,0.5,1.2,0.5,1.7,0.1c0,0,0,0,0,0
				c0.5-0.5,0.5-1.2,0-1.7l-45-47.5c-0.2-0.2-0.5-0.4-0.9-0.4l0,0c-0.3,0-0.6,0.1-0.9,0.4l-45,47.7c-0.4,0.5-0.4,1.3,0.1,1.7
				C298,229.6,298.3,229.7,298.5,229.8L298.5,229.8z"/>
			<path class="st2" d="M391.5,237c0.2,0,0.3,0,0.4-0.1c0.6-0.2,0.9-0.9,0.7-1.6c0,0,0,0,0,0l-23.7-60.1c-0.2-0.6-0.9-0.9-1.6-0.7
				s-0.9,0.9-0.7,1.6l23.7,60.1C390.5,236.7,391,237,391.5,237z"/>
			<path class="st3" d="M297.3,227.9l-3.1,8.3c0,0.1,0,0.1,0,0.2v0.1c0.1,0.2,0.3,0.4,0.5,0.5c0.6,0.3,1.3,0.3,1.9,0
				c0.2-0.1,0.3-0.2,0.4-0.4l0,0v-0.1l2.9-7.8L297.3,227.9z"/>
			<path class="st3" d="M389.8,227.9l3.1,8.3c0,0.1,0,0.1,0,0.2c0,0,0,0.1,0,0.1c-0.1,0.2-0.3,0.4-0.5,0.5c-0.6,0.3-1.3,0.3-1.9,0
				c-0.2-0.1-0.3-0.2-0.4-0.4l0,0v-0.1l-2.9-7.8L389.8,227.9z"/>
			<path class="st3" d="M342.2,257.9v6.9c0,0.2,0.2,0.5,0.4,0.6c0.6,0.3,1.4,0.3,2,0c0.2-0.1,0.4-0.3,0.4-0.6v-6.9
				C344.1,257.5,343.1,257.5,342.2,257.9z"/>
			<path class="st4" d="M289.8,167.4c0-2.1,1.9-4.4,5.9-7c7.4-4.8,28.9-16.8,39.2-22.5c0,0,0-0.1,0.1-0.1c8-4.8,10.4-25.4,15.9-42.8
				c1.9-6,4.2-9.3,6.9-10.9c0.6-0.4,3-1.7,3.6-2c5.4-3.2,12.5,0.7,21.3,5.5c8.1,4.4,14.5,10.1,15.8,25.2c0.8,9.2,0,26.8-1.8,40.1
				l0,0c-2.7,22.3-6,22.3-10.9,26c-8.3,6.4-27,15.4-34.9,18.5c-14.3,5.6-26-3-34.7-7.3c-8-4-15.6-8.6-23-13.7
				c-2.2-1.6-3.3-3.2-3.3-4.9C289.8,170.9,289.8,168.1,289.8,167.4z"/>
			<path class="st5" d="M289.8,167.4c0-2.1,1.9-4.4,5.9-7c7.4-4.8,28.9-16.8,39.2-22.5c0,0,0-0.1,0.1-0.1c8-4.8,10.4-25.4,15.9-42.8
				c1.9-6,4.2-9.3,6.9-10.9c0.6-0.4,3-1.7,3.6-2c5.4-3.2,12.5,0.7,21.3,5.5c8.1,4.4,14.5,10.1,15.8,25.2c0.8,9.2,0,26.8-1.8,40.1
				l0,0c-2.7,22.3-6,22.3-10.9,26c-8.3,6.4-27,15.4-34.9,18.5c-14.3,5.6-26-3-34.7-7.3c-8-4-15.6-8.6-23-13.7
				c-2.2-1.6-3.3-3.2-3.3-4.9C289.8,170.9,289.8,168.1,289.8,167.4z"/>
			<path class="st6" d="M316.1,185.9c-8-4-15.6-8.6-23-13.7c-5-3.6-4.5-7.3,2.6-11.9c9.9-6.4,44.9-25.6,44.9-25.6s50.8,30,48.6,35.5
				s-28.5,19.1-38.4,23C336.5,198.9,324.8,190.2,316.1,185.9z"/>
			<g class="st7">
				<path d="M316.1,185.9c-8-4-15.6-8.6-23-13.7c-5-3.6-4.5-7.3,2.6-11.9c9.9-6.4,44.9-25.6,44.9-25.6s50.8,30,48.6,35.5
					s-28.5,19.1-38.4,23C336.5,198.9,324.8,190.2,316.1,185.9z"/>
			</g>
			<path class="st4" d="M358,83.9c5.3-2.8,12.3,1,20.9,5.7c5.5,3,10.2,6.6,13,13.3l3.6-2.1c-2.9-6.7-7.5-10.2-13-13.2
				c-8.8-4.8-15.9-8.7-21.3-5.5L358,83.9z"/>
			<path class="st8" d="M358,83.9c5.3-2.8,12.3,1,20.9,5.7c5.5,3,10.2,6.6,13,13.3l3.6-2.1c-2.9-6.7-7.5-10.2-13-13.2
				c-8.8-4.8-15.9-8.7-21.3-5.5L358,83.9z"/>
			<path class="st6" d="M378.9,89.6c-13.2-7.2-22.5-12.4-28.1,5.4c-5.5,17.4-7.9,38-15.9,42.9c0,0-2.4,0.2,17.3,15.1
				c6.3,4.8,13.9,8.6,18.9,11.6c9.8,5.9,15.8,8.2,16.7,7.4c5.2-4.3,8-42,6.7-57.2S387,94.1,378.9,89.6z"/>
			<rect x="312.3" y="245.2" class="st9" width="9.5" height="16.2"/>
			<polygon class="st9" points="295.7,249.8 286.2,250.1 285.8,233 295.2,232.6 			"/>
			<path class="st10" d="M286.1,247.2c-0.5,0-0.9,0.7-2,1.9c-1.3,1.4-4.2,2.9-6.3,3.9c-3.5,1.8-12.8,4.2-15.9,5.6
				c-2,0.9-1.5,3.9,1.3,5.6c2,1.3,8.6,2.5,14.4,1.2c3.2-0.7,8-2.9,10.4-3.3c2.6-0.4,7.4-0.9,9.3-2.2s1.2-4.2,0.6-6.6
				c-0.6-2.7-1.5-6.8-2.3-6.6v0.8c-1.1,1.7-6.9,2.4-9.4,1.2L286.1,247.2z"/>
			<path class="st10" d="M312.3,256.8c-0.5,0-0.9,0.7-2,1.9c-1.3,1.4-4.2,2.9-6.3,4c-3.5,1.8-12.8,4.1-15.9,5.5
				c-2,0.9-1.5,3.9,1.3,5.6c2,1.3,8.6,2.5,14.4,1.2c3.2-0.7,8-2.9,10.4-3.3c2.6-0.4,7.4-0.9,9.3-2.2s1.2-4.2,0.6-6.6
				c-0.6-2.7-1.5-6.8-2.3-6.6v0.8c-1.1,1.7-6.9,2.4-9.4,1.2L312.3,256.8z"/>
			<path class="st2" d="M374.1,163.4c0.5,11.4-0.8,14.9-19.7,24.6c-9.4,4.9-25.9,13.4-25.9,13.4s0.7,3.7,0.8,14.1
				c0.1,9.2-7.2,37.8-7.2,37.8s-7.7,4-10.8,0c0,0-0.1-21.1,0-32.7c0.2-18.6-0.8-23.6,0-27c0.6-2.4,19.1-18.7,19.1-18.7l5-3.1
				l-30.9,19.7c0,0-0.6,9-1.5,14.6c-2.1,13.2-7.5,35-7.5,35s-6.9,3.1-10.3,0.4c0,0-0.7-53.3-0.7-57.8c0-6.8,10.9-14.5,36-29.2
				c5.3-3.1,12.5-6.6,12.5-6.6L374.1,163.4z"/>
			<path class="st11" d="M335.5,171.8c0,0-4.5-2.2-8.5-10.8c0.3,3.1,1.2,6.1,2.8,8.8c1.8,2.8-25.2,21.7-25.2,21.7L335.5,171.8z"/>
		</g>
		<path class="st9" d="M326.9,99c-2.5,5.4-11.5,28.1-11.5,28.1l7.3,12.3c2.7-2.3,10.2-20.8,11.1-22.2c2.5-3.8,6.9-28.5,6.9-28.5
			C331.4,89,329.4,93.5,326.9,99z"/>
		<path class="st4" d="M349.2,89.9c-1.7-0.9-3.6-1.4-5.5-1.5c-8-1-12.7,1.5-15.5,6.1c-3.8,6.1-11.3,26.4-11.3,26.4s4.6,7,13.2,8
			l13.4-23.1L349.2,89.9z"/>
		<g class="st12">
			<path d="M349.2,89.9c-1.7-0.9-3.6-1.4-5.5-1.5c-8-1-12.7,1.5-15.5,6.1c-3.8,6.1-11.3,26.4-11.3,26.4s4.6,7,13.2,8l13.4-23.1
				L349.2,89.9z"/>
		</g>
		<path class="st0" d="M358.5,88.8c1.1,0.3,10.3,2.4,14.4,3.8v31.1l1.2,39.7c-6.7,7.3-42,2.7-46.1-12.8c0,0,0.2-37.8,0.2-45.2
			s4.1-16.4,15.5-17L358.5,88.8z"/>
		<path class="st4" d="M366,52.2c-0.7-0.7-1.6-1.2-2.6-1.4l3.4-1.8c-0.7-1.4-2.3-2-3.7-1.3c0,0-0.1,0-0.1,0.1
			c-1.3,0.8-1.9,2.4-1.3,3.8l-1.2,13.3l-1.1-0.1l-0.5,7.8l-0.1,6.4c3.1-0.1,5.4-3.1,7.2-13.6C367.4,57.5,367.8,54,366,52.2z"/>
		<path class="st5" d="M366,52.2c-0.7-0.7-1.6-1.2-2.6-1.4l3.4-1.8c-0.7-1.4-2.3-2-3.7-1.3c0,0-0.1,0-0.1,0.1
			c-1.3,0.8-1.9,2.4-1.3,3.8l-1.2,13.3l-1.1-0.1l-0.5,7.8l-0.1,6.4c3.1-0.1,5.4-3.1,7.2-13.6C367.4,57.5,367.8,54,366,52.2z"/>
		<path class="st4" d="M325.6,47.7c-1.7-1-2.2,1-1.2,2.7c1.3,2.5,3.7,4.1,6.5,4.3c0-0.2,1.6-4.4,1.6-4.4l-3.4-1.9
			C327.9,48.4,326.8,48.2,325.6,47.7z"/>
		<path class="st5" d="M325.6,47.7c-1.7-1-2.2,1-1.2,2.7c1.3,2.5,3.7,4.1,6.5,4.3c0-0.2,1.6-4.4,1.6-4.4l-3.4-1.9
			C327.9,48.4,326.8,48.2,325.6,47.7z"/>
		<path class="st9" d="M359.1,66c0.8,0.5,2-1.1,3-2.2s4.4-2.5,6,1s-1.5,8.3-4.1,9.1c-4.5,1.4-5.2-1.5-5.2-1.5l-0.3,16.4
			c0,0-3,7.3-11,8.3s-6.4-5.5-3.8-8.8v-5c-2,0.3-4.1,0.4-6.1,0.3c-3.3-0.5-5.4-3.2-6.4-6.8c-1.6-5.8-2.2-10.5-0.9-21.9
			c1.5-12.5,16-12.6,23.9-7.7S359.1,66,359.1,66z"/>
		<path class="st4" d="M359.1,67.4c0.4,0,2-2.6,3-3.6c1.4-1.3-0.4-13.1-0.4-13.1s1.5-4.5-1.4-7.4s-8.3-2.5-12.3-2.6
			c-4.9,0-9.8-0.9-14.3-2.9c-5.7-2.5-6.1-2.8-6.8-0.3s-1,8.2,2.4,12.1l2.8,1c0,0,1.5,1.4,6.8,2s13.6-0.1,14.7-0.3
			c1.5-0.2,1.9,1.3,2.7,5.4C357.1,61.3,357.7,67.3,359.1,67.4z"/>
		<path class="st5" d="M359.1,67.4c0.4,0,2-2.6,3-3.6c1.4-1.3-0.4-13.1-0.4-13.1s1.5-4.5-1.4-7.4s-8.3-2.5-12.3-2.6
			c-4.9,0-9.8-0.9-14.3-2.9c-5.7-2.5-6.1-2.8-6.8-0.3s-1,8.2,2.4,12.1l2.8,1c0,0,1.5,1.4,6.8,2s13.6-0.1,14.7-0.3
			c1.5-0.2,1.9,1.3,2.7,5.4C357.1,61.3,357.7,67.3,359.1,67.4z"/>
		<path class="st13" d="M343.8,83.4c0,0,7.4-1.5,10-2.9c1.5-0.8,2.8-2,3.6-3.6c-0.4,1.5-1.1,2.9-2,4.2c-1.9,2.4-11.6,4.2-11.6,4.2
			V83.4z"/>
		<path class="st10" d="M342.7,64.1c0,0.8,0.7,1.5,1.5,1.4c0.8,0,1.5-0.7,1.4-1.5c0-0.8-0.7-1.4-1.5-1.4
			C343.3,62.5,342.7,63.2,342.7,64.1C342.7,64,342.7,64,342.7,64.1z"/>
		<path class="st2" d="M344.2,58.4l3.2,1.8c0.5-0.9,0.1-2-0.7-2.5C345.8,57.2,344.8,57.5,344.2,58.4
			C344.3,58.4,344.3,58.4,344.2,58.4z"/>
		<path class="st13" d="M342.5,74.3l-3.4,1.3c0.3,0.9,1.3,1.5,2.3,1.2c0,0,0,0,0.1,0C342.3,76.4,342.8,75.3,342.5,74.3z"/>
		<path class="st2" d="M330.7,59.7l2.9-2.2c-0.6-0.8-1.6-1-2.4-0.5c0,0-0.1,0-0.1,0.1C330.3,57.7,330.1,58.8,330.7,59.7z"/>
		<path class="st10" d="M331,63.1c0,0.8,0.7,1.5,1.5,1.4c0.8,0,1.5-0.7,1.4-1.5c0-0.8-0.7-1.4-1.5-1.4C331.7,61.6,331,62.3,331,63.1
			C331,63.1,331,63.1,331,63.1z"/>
		<polygon class="st13" points="338.4,62.2 337.9,71.2 333.2,69.6 		"/>
		<path class="st9" d="M369.5,91.9c0,0,5.9,1,8.7,6.4c1.6,3.2,7,11.7,10.3,17.3l3.1,5.3c0,0,20.3-10.8,21.5-12.2s1.1-4.3,1.2-5.8
			c0.3-2.6-0.6-4.8-0.8-5.7c-0.3-2,2.6-1.5,3.5-0.7c0.6,0.6,1.1,1.3,1.5,2.1c0.4,0.7,1.3,3.1,2.1,3.3c0.7,0.1,2-0.8,2.5-1.2
			c2.2-1.7,3.6-4,5.3-6.2c0.3-0.5,0.7-0.8,1.2-1.1c0.9-0.2,1.8,0.1,2.5,0.7c0.7,0.4,1.3,1,1.8,1.6c0.3,0.5,0.5,1.1,0.6,1.6
			c0.9,3.9-1.1,7.2-3.4,10.1c-2.4,2.9-5.2,5.4-8.3,7.4c-1.9,1.2-4.3,2.3-6.4,3.4S390.2,140,387,137.9c-1.3-0.9-5.3-5.9-9.2-10.6
			c-2.6-3.1-4.9-6.5-7-10C362.1,109.5,369.5,91.9,369.5,91.9z"/>
		<path class="st4" d="M368.1,114.9c-4.8-9.3-2.5-20.3,0.9-23.5c8.6,1.5,9.6,5.9,14,13.5c6.3,11.1,8.8,14.5,8.8,14.5
			c-2.1,2.9-8.3,10.2-12.5,10.4L368.1,114.9z"/>
		<g class="st12">
			<path d="M368.1,114.9c-4.8-9.3-2.5-20.3,0.9-23.5c8.6,1.5,9.6,5.9,14,13.5c6.3,11.1,8.8,14.5,8.8,14.5
				c-2.1,2.9-8.3,10.2-12.5,10.4L368.1,114.9z"/>
		</g>
	</g>
	<g id="freepik--character-3--inject-19">
		<g id="freepik--Girl--inject-19">
			<path class="st2" d="M178.4,265.6c-0.7,0-1.2-0.5-1.2-1.2V187c0.1-0.7,0.6-1.2,1.3-1.1c0.6,0.1,1,0.5,1.1,1.1v77.4
				C179.6,265.1,179,265.6,178.4,265.6z"/>
			<path class="st2" d="M226.3,237.4c-0.5,0-0.9-0.3-1.1-0.8l-23.7-60.1c-0.3-0.6-0.1-1.3,0.5-1.6c0.6-0.3,1.3-0.1,1.6,0.5
				c0,0.1,0.1,0.1,0.1,0.2l23.7,60.1c0.2,0.6,0,1.3-0.7,1.6c0,0,0,0,0,0C226.6,237.4,226.4,237.4,226.3,237.4z"/>
			<path class="st2" d="M223.4,230.2c-0.3,0-0.6-0.1-0.9-0.4l-44.2-46.7l-44.1,46.5c-0.5,0.5-1.2,0.5-1.7,0.1s-0.5-1.2-0.1-1.7l0,0
				l45-47.5c0.2-0.2,0.5-0.4,0.9-0.4l0,0c0.3,0,0.6,0.1,0.9,0.4l45,47.7c0.4,0.5,0.4,1.3-0.1,1.7
				C223.9,230.1,223.7,230.2,223.4,230.2L223.4,230.2z"/>
			<path class="st2" d="M130.5,237.4c-0.2,0-0.3,0-0.4-0.1c-0.6-0.2-0.9-0.9-0.7-1.6c0,0,0,0,0,0l23.7-60.1c0.2-0.6,0.9-1,1.5-0.8
				s1,0.9,0.8,1.5c0,0.1,0,0.1-0.1,0.2l-23.7,60.1C131.4,237.1,131,237.4,130.5,237.4z"/>
			<path class="st3" d="M224.6,228.4l3.1,8.3c0,0.1,0,0.1,0,0.2v0.1c-0.1,0.2-0.3,0.4-0.5,0.5c-0.6,0.3-1.3,0.3-1.9,0
				c-0.2-0.1-0.3-0.2-0.4-0.4l0,0V237l-2.9-7.8L224.6,228.4z"/>
			<path class="st3" d="M132.1,228.4l-3.1,8.3c0,0.1,0,0.1,0,0.2v0.1c0.1,0.2,0.3,0.4,0.5,0.5c0.6,0.3,1.3,0.3,1.9,0
				c0.2-0.1,0.3-0.2,0.4-0.4l0,0V237l2.9-7.8L132.1,228.4z"/>
			<path class="st3" d="M179.8,258.4v6.9c0,0.2-0.2,0.5-0.4,0.6c-0.6,0.3-1.4,0.3-2,0c-0.2-0.1-0.4-0.3-0.4-0.6v-6.9
				C177.8,257.9,178.9,257.9,179.8,258.4z"/>
			<path class="st10" d="M232.2,175.8c0-2.1-1.9-4.4-5.9-7c-7.4-4.8-28.9-16.8-39.2-22.5c0,0,0-0.1-0.1-0.1
				c-8-4.8-10.4-25.4-15.9-42.8c-1.9-6-4.2-9.3-6.9-10.9c-0.6-0.4-3-1.7-3.6-2c-5.4-3.2-12.5,0.7-21.3,5.5
				c-8.1,4.4-14.5,10.1-15.8,25.2c-0.8,9.2,0,26.8,1.8,40.1l0,0c2.7,22.3,6,22.3,10.8,26c8.3,6.4,27,15.4,34.8,18.5
				c14.3,5.6,26-3,34.6-7.3c8-4,15.7-8.6,23.1-13.7c2.2-1.6,3.3-3.2,3.3-4.9C232.2,179.2,232.2,176.5,232.2,175.8z"/>
			<path class="st11" d="M205.9,194.3c8-4,15.7-8.6,23.1-13.7c5-3.6,4.5-7.3-2.6-11.9c-9.9-6.4-44.9-25.6-44.9-25.6
				s-50.8,30-48.6,35.5s28.4,19.1,38.4,23C185.5,207.2,197.2,198.6,205.9,194.3z"/>
			<path class="st2" d="M164,92.2c-5.4-2.8-12.3,1-20.9,5.7c-5.5,3-10.2,6.6-13.1,13.3l-3.6-2.1c2.8-6.7,7.5-10.2,13-13.2
				c8.8-4.8,15.9-8.7,21.3-5.5L164,92.2z"/>
			<path class="st11" d="M143.1,97.9c13.2-7.2,22.5-12.4,28.1,5.4c5.5,17.5,7.9,38,15.9,42.8c0,0,2.4,0.2-17.3,15.1
				c-6.3,4.8-13.9,8.6-18.9,11.6c-9.8,5.9-15.8,8.2-16.7,7.4c-5.2-4.3-8-42-6.7-57.2S135,102.4,143.1,97.9z"/>
			<path class="st10" d="M193.6,222.1c-0.8,0.7-1.7,1.4-1.7,2.4c0.1,2,0.8,4,2,5.6c1.7,2.3,2.6,6.5,2.7,9.3s-0.4,9.8,2.8,12.9
				s11.5,5.4,12,0.2s-7.5-25.7-7.5-25.7L193.6,222.1z"/>
			<path class="st14" d="M198,225.9c1,3.7,1.8,7.5,2.3,11.3c0.4,4.2,1.4,7.2,3.3,8.5s5.1,1.4,4.2-1.5s-3.9-17.4-3.9-17.4L198,225.9z
				"/>
			<path class="st6" d="M182.1,148.6c0,0,18.8,7.1,26.4,12.2s11.6,8.7,12.8,12.4c1.3,3.9,0.6,9.1-4.1,22.8c-1,3-6.9,21.9-6.9,21.9
				l-13.6-32l-22.7-17L182.1,148.6z"/>
			<path class="st15" d="M182.1,148.6c0,0,18.8,7.1,26.4,12.2s11.6,8.7,12.8,12.4c1.3,3.9,0.6,9.1-4.1,22.8c-1,3-6.9,21.9-6.9,21.9
				l-13.6-32l-22.7-17L182.1,148.6z"/>
			<path class="st10" d="M210,252.7c-0.7,0.4-0.8,2.1-0.9,3.3c-0.1,1.2-1.1,2.8,0.5,4.9s4.6,2.6,6.8,5.4s3.6,6.9,10.3,8
				s11.6-1.4,12.8-3.5s-0.1-3.9-4.5-6c-4.6-2.3-6-3-6-3L210,252.7z"/>
			<path class="st16" d="M216.4,238.7c0,0,3.7,8.7,5.9,12.6s3.6,6.5,7.2,9.9c0.8,0.7,2.5,2.1,3.2,2.7c0.6,0.4,0.7,1.2,0.3,1.8
				c-0.1,0.1-0.1,0.2-0.2,0.2c-1.3,1.5-7.3,2.5-11,0.3s-5.6-5.6-7.9-7.5c-1.1-0.9-2.2-1.8-2.9-2.5c-0.8-0.6-1.1-1.6-1-2.6
				c0-0.3,0.1-0.6,0.1-1c0.3-2-3.1-9.8-3.1-9.8L216.4,238.7z"/>
			<path class="st6" d="M136.4,152.2c-2.6,7.7-3.1,17.5,3.9,24c4.7,4.3,15,11.1,23.1,14.8s20.4,9.9,22.8,10.7s2.8,2.1,2.9,6.6
				s2.4,11.4,8.1,19.9c6.1,8.9,9.6,14.8,9.6,14.8c3.7,0.8,7.6-0.6,10-3.5c0,0-11.2-46.5-13.8-52.1S178,166.1,178,166.1
				c1.7-5.8,3.1-11.6,4.1-17.5L136.4,152.2z"/>
			<path class="st15" d="M136.4,152.2c-2.6,7.7-3.1,17.5,3.9,24c4.7,4.3,15,11.1,23.1,14.8s20.4,9.9,22.8,10.7s2.8,2.1,2.9,6.6
				s2.4,11.4,8.1,19.9c6.1,8.9,9.6,14.8,9.6,14.8c3.7,0.8,7.6-0.6,10-3.5c0,0-11.2-46.5-13.8-52.1S178,166.1,178,166.1
				c1.7-5.8,3.1-11.6,4.1-17.5L136.4,152.2z"/>
			<path class="st17" d="M207.1,190.1c-1.8-5.7-6.5-9.8-10.9-13.2c-3.6-2.8-13-9.6-16.2-11.9c0.7-2.1,1.2-4.3,1.5-6.5
				c0,0-2.2,5.2-3.4,7.6l0,0c0,0,22.7,15.9,25.1,21.2c1.4,3.1,5.1,19.7,8.8,32C211.5,217.4,208.7,195.5,207.1,190.1z"/>
		</g>
		<path class="st16" d="M119.4,135.2c0,0-23.1-4.2-24.7-5.2s-2.4-3.8-3-5.3c-1.1-2.4-0.8-4.9-1-5.8c-0.3-2-2.9-0.7-3.6,0.4
			c-0.4,0.8-0.6,1.6-0.8,2.5c-0.2,0.9-0.3,3.4-1,3.9c-0.6,0.3-2.2-0.2-2.8-0.4c-2.7-1-4.8-2.8-7.1-4.3c-0.4-0.4-1-0.6-1.5-0.7
			c-0.9,0.1-1.7,0.6-2.2,1.4c-0.6,0.6-1,1.4-1.3,2.2c-0.1,0.6-0.2,1.2-0.1,1.8c0.3,4.1,3.3,6.7,6.5,8.8c3.2,2.1,6.7,3.6,10.3,4.6
			c2.2,0.6,4.9,0.9,7.3,1.4s31,12,34,9.5c1.9-1.6,3.7-7.9,5.7-13.8c2-6.1,3.6-12.3,4.9-18.6c0.3-6.4-1.4-12.8-5-18.2
			c0,0-5.5,1.1-7.6,9.2c-0.9,3.6-4.2,14.1-5.6,20.7C120,132.7,119.4,135.2,119.4,135.2"/>
		<path class="st18" d="M141.1,114.8c3-7,1.1-18.6-2.3-21.8c-8.6,1.5-10.7,5.5-13.1,13.5c-3.6,12.3-5.5,20.2-5.5,20.2
			c2.1,2.8,11.9,6.4,15.9,5.2L141.1,114.8z"/>
		<path class="st18" d="M165.1,91.4c2.2-1.4,4.8-2.2,7.4-2.2c3.9,0.2,8.3,1.6,11.1,6.2c3.8,6.1,12.6,19.4,12.6,19.4
			c-1.7,5.7-6.1,10.2-11.8,11.8l-13.5-19.3L165.1,91.4z"/>
		<path class="st0" d="M179.5,122.2c0.6,5.9,2.6,26.5,2.6,26.5c-3.9,10-14.5,10.6-23,10.7c-10.3,0.1-19.9-2.6-22.7-7.1
			c2.4-5.7,4.3-11.6,5.6-17.7l-3.8-16.4c0,0,9-8.2,0-24.9l11.9-3.6l14.2-1.2l8.3,0.7c4.7,3.4,7.8,10.3,9.2,14.2
			S186.3,114.2,179.5,122.2z"/>
		<path class="st19" d="M140.2,141.4l0.4-1.3c0.9-3.3,1.4-5.5,1.4-5.5l-3.8-16.4l0,0l0,0l0,0l0.4-0.4l0,0c1.2-1.4,4.3-5.7,3.4-13.1
			l0,0c0,0,2.6,9.5-0.8,14.4l3.2,14.2l4.6,6.7l-5.6-2.2c0,0-2,7.9-2.2,10.4c-0.1,2,4.6,8.6,14.7,11.2c-9.1-0.4-17.1-3-19.6-7l0,0
			C137.8,148.8,139.1,145.1,140.2,141.4z"/>
		<path class="st10" d="M158.1,37.2L158.1,37.2c13,0,23.6,10.6,23.6,23.6v25.4l0,0h-28.9c-10.1,0-18.3-8.2-18.3-18.3l0,0v-7.1
			C134.6,47.7,145.1,37.2,158.1,37.2z"/>
		<path class="st20" d="M149.8,66.8c20.8,0.2,22.6-19.5,22.6-19.5C166.2,55.3,158.5,61.9,149.8,66.8z"/>
		<path class="st11" d="M140.5,44.5c-0.5-1.6-2.2-2.5-3.7-2c-0.1,0-0.1,0-0.2,0.1l1.4,4.5c-0.4-0.5-0.9-0.9-1.5-1.1
			c-1.6-0.5-3.3,0.3-3.8,1.8c0,0.1,0,0.1,0,0.2l5.9,2.1c0.2-0.5,0.2-1,0.1-1.6C140.1,47.8,141,46.1,140.5,44.5z"/>
		<path class="st16" d="M172.4,47.4c2.5,1.4,5.8,7.6,5.8,20.7c0,11.1-3.5,14-5.3,14.8s-5.3,0.5-8.7,0l0.1,5.6c0,0,6.1,5.7,5.9,8.8
			s-7.8,4.7-12.3,1.8s-8.4-8.5-8.4-8.5l-0.3-15.4c0,0-1.9,2-5.4-0.9c-2.9-2.4-3.9-6.5-1.8-8.8c1.9-1.9,5-1.9,6.9,0.1
			c0.4,0.4,0.7,0.8,0.9,1.3c0,0,5.4,0.1,12.5-4.1C167.9,59.5,171.6,53.8,172.4,47.4z"/>
		<path class="st10" d="M167.1,65c0,0.8-0.6,1.4-1.3,1.5c-0.8,0-1.4-0.6-1.5-1.3c0-0.8,0.5-1.4,1.3-1.5
			C166.4,63.6,167,64.2,167.1,65z"/>
		<path class="st14" d="M166.3,75.1l3.3,1c-0.2,0.9-1.1,1.5-2,1.2c0,0,0,0-0.1,0C166.6,77,166,76,166.3,75.1
			C166.3,75.1,166.3,75.1,166.3,75.1z"/>
		<path class="st10" d="M177,60.3l-2.9-1.9c0.5-0.8,1.5-1,2.3-0.6c0,0,0,0,0.1,0C177.3,58.5,177.5,59.5,177,60.3z"/>
		<path class="st10" d="M177.1,63.6c0.1,0.8-0.5,1.5-1.3,1.5c0,0,0,0,0,0c-0.8,0.1-1.5-0.5-1.6-1.3c-0.1-0.8,0.5-1.5,1.3-1.6
			C176.3,62.1,177,62.7,177.1,63.6C177.1,63.5,177.1,63.5,177.1,63.6z"/>
		<polygon class="st14" points="170.7,63.4 170.9,72.5 175.2,71 		"/>
		<path class="st14" d="M164.2,82.9c-3.6-0.4-11-2.3-12.2-5.2c0.5,1.5,1.4,2.7,2.7,3.7c2.3,1.8,9.6,3.8,9.6,3.8L164.2,82.9z"/>
	</g>
	<g id="freepik--Table--inject-19">
		<path class="st2" d="M254.5,397.4c0,0.4,0.3,0.8,0.7,1c1.1,0.5,2.3,0.5,3.4,0c0.4-0.2,0.7-0.6,0.7-1l0,0l0.1-97.5l-4.8,0.1
			L254.5,397.4z"/>
		<path class="st11" d="M257.1,398.8c0.5,0,1-0.2,1.4-0.4c0.4-0.2,0.7-0.6,0.7-1l0,0l0.1-97.5h-2.1L257.1,398.8z"/>
		<path class="st10" d="M255.2,300.9c1.1,0.5,2.3,0.5,3.4,0c0.9-0.5,1-1.4,0-2c-1.1-0.5-2.3-0.5-3.4,0
			C254.3,299.5,254.3,300.4,255.2,300.9z"/>
		<path class="st2" d="M392.4,317.4c0,0.4,0.3,0.8,0.7,1c1.1,0.5,2.3,0.5,3.4,0c0.4-0.2,0.7-0.6,0.7-1l0,0l0.1-97.5l-4.8,0.1
			L392.4,317.4z"/>
		<path class="st11" d="M395,318.8c0.5,0,1-0.2,1.4-0.4c0.4-0.2,0.7-0.6,0.7-1l0,0l0.1-97.5H395L395,318.8z"/>
		<path class="st10" d="M393.1,220.9c1.1,0.5,2.3,0.5,3.4,0c0.9-0.6,1-1.4,0-2c-1.1-0.5-2.3-0.5-3.4,0
			C392.2,219.5,392.2,220.4,393.1,220.9z"/>
		<path class="st2" d="M112.9,315.2c0,0.4,0.3,0.8,0.7,1c1.1,0.5,2.3,0.5,3.4,0c0.4-0.2,0.7-0.6,0.7-1l0,0l0.1-97.5l-4.8,0.1
			L112.9,315.2z"/>
		<path class="st11" d="M115.5,316.6c0.5,0,1-0.2,1.4-0.4c0.4-0.2,0.7-0.6,0.7-1l0,0l0.1-97.5h-2.1L115.5,316.6z"/>
		<path class="st10" d="M113.6,218.8c1.1,0.5,2.3,0.5,3.4,0c0.9-0.5,0.9-1.4,0-1.9c-1.1-0.5-2.3-0.5-3.4,0
			C112.7,217.3,112.7,218.2,113.6,218.8z"/>
		<g id="freepik--Desk--inject-19">
			<path class="st4" d="M87.9,232.8V232c0.1-1.5,0.9-2.8,2.1-3.6l168.4-97.2c1.3-0.7,2.9-0.7,4.2,0L413,218c1.2,0.8,2,2.1,2.1,3.6
				v0.8c-0.1,1.5-0.9,2.8-2.1,3.6l-168.4,97.2c-1.3,0.7-2.9,0.7-4.2,0L90,236.4C88.8,235.6,88,234.3,87.9,232.8z"/>
			<g class="st21">
				<path class="st22" d="M87.9,232.8V232c0.1-1.5,0.9-2.8,2.1-3.6l168.4-97.2c1.3-0.7,2.9-0.7,4.2,0L413,218c1.2,0.8,2,2.1,2.1,3.6
					v0.8c-0.1,1.5-0.9,2.8-2.1,3.6l-168.4,97.2c-1.3,0.7-2.9,0.7-4.2,0L90,236.4C88.8,235.6,88,234.3,87.9,232.8z"/>
			</g>
			<path class="st4" d="M242.5,318.2v5.7c-0.7,0-1.5-0.2-2.1-0.5L90,236.4c-1.2-0.8-2-2.1-2.1-3.6V232c0.1-1.3,0.7-2.5,1.7-3.4
				c-0.8,0.6-0.6,1.6,0.4,2.1l150.4,86.9C241,318,241.8,318.2,242.5,318.2z"/>
			<g class="st23">
				<path class="st22" d="M242.5,318.2v5.7c-0.7,0-1.5-0.2-2.1-0.5L90,236.4c-1.2-0.8-2-2.1-2.1-3.6V232c0.1-1.3,0.7-2.5,1.7-3.4
					c-0.8,0.6-0.6,1.6,0.4,2.1l150.4,86.9C241,318,241.8,318.2,242.5,318.2z"/>
			</g>
			<path class="st4" d="M90,230.8l150.4,86.9c1.3,0.7,2.9,0.7,4.2,0L413,220.4c0.7-0.2,1-0.9,0.8-1.6c-0.1-0.4-0.4-0.7-0.8-0.8
				l-150.5-86.9c-1.3-0.7-2.9-0.7-4.2,0L90,228.4c-0.7,0.2-1,1-0.8,1.6C89.3,230.4,89.6,230.7,90,230.8z"/>
			<g class="st24">
				<path class="st22" d="M90,230.8l150.4,86.9c1.3,0.7,2.9,0.7,4.2,0L413,220.4c0.7-0.2,1-0.9,0.8-1.6c-0.1-0.4-0.4-0.7-0.8-0.8
					l-150.5-86.9c-1.3-0.7-2.9-0.7-4.2,0L90,228.4c-0.7,0.2-1,1-0.8,1.6C89.3,230.4,89.6,230.7,90,230.8z"/>
			</g>
		</g>
	</g>
	<path class="st25" d="M207.4,264.2c-0.7,0-1.4-0.2-2.1-0.5l-45.7-26.4c-1.2-0.6-1.7-2.1-1.1-3.3c0.2-0.5,0.6-0.9,1.1-1.1l25.9-15
		c1.3-0.7,2.9-0.7,4.1,0l45.6,26.4c1.2,0.6,1.7,2.1,1.1,3.3c-0.2,0.5-0.6,0.9-1.1,1.1l-25.9,15C208.8,264,208.1,264.2,207.4,264.2z"
		/>
	<g id="freepik--black-laptop--inject-19">
		<g id="freepik--Laptop--inject-19">
			<path class="st11" d="M235.7,245.3c-0.1,0.8-0.5,1.6-1.2,2l-25.9,15c-0.7,0.4-1.6,0.4-2.4,0l-45.6-26.4c-1.1-0.6-1.5-1.9-0.9-3
				c0.2-0.4,0.5-0.7,0.9-0.9l25.9-15c0.7-0.4,1.6-0.4,2.4,0l45.7,26.4C235.2,243.8,235.6,244.5,235.7,245.3z"/>
			<path class="st10" d="M207.4,260v2.6c0.4,0,0.8-0.1,1.2-0.3l25.9-15c1.1-0.6,1.5-1.9,0.9-3c-0.2-0.4-0.5-0.7-0.8-0.9
				c0.5,0.4,0.5,0.9-0.1,1.3l-25.9,15C208.2,259.9,207.8,260,207.4,260z"/>
			<path class="st2" d="M236.8,243.4c0.6-0.4,0.6-1,0.6-1.7v-35.8c0-0.8-0.5-1.6-1.2-2.1l-45.6-26.4c-0.7-0.4-1.6-0.4-2.3-0.1
				c-0.6,0.4-0.6,1-0.6,1.7v35.8c0,0.8,0.5,1.6,1.2,2.1l45.7,26.4C235.2,243.7,236.1,243.7,236.8,243.4z"/>
			<path class="st10" d="M234.6,243.4c0.7,0.3,1.5,0.3,2.2,0c0.6-0.4,0.6-1,0.6-1.7v-35.8c0-0.4-0.1-0.8-0.4-1.2l-1.7,1l0,0
				c0.2,0.4,0.3,0.8,0.4,1.2v35.8C235.7,243.3,235.2,243.7,234.6,243.4z"/>
			<path class="st11" d="M235.7,206.8v35.8c0,0.8-0.5,1.1-1.2,0.7L188.8,217c-0.7-0.5-1.1-1.2-1.2-2.1v-35.8c0-0.8,0.5-1.1,1.2-0.7
				l45.7,26.4C235.2,205.2,235.6,206,235.7,206.8z"/>
			<path class="st2" d="M234.5,244.7l-25.9,15c-0.7,0.4-1.6,0.4-2.4,0l-45.6-26.4c-0.4-0.1-0.6-0.5-0.5-0.9c0.1-0.2,0.2-0.4,0.5-0.5
				l25.9-15c0.7-0.4,1.6-0.4,2.4,0l45.7,26.4c0.4,0,0.8,0.3,0.8,0.7C235.3,244.4,234.9,244.8,234.5,244.7z"/>
			<path class="st4" d="M233.8,206.1l-44-25.4c-0.4-0.2-0.7,0-0.7,0.4v33c0,0.5,0.3,1,0.7,1.2l44,25.4c0.4,0.2,0.7,0,0.7-0.4v-33
				C234.5,206.9,234.3,206.4,233.8,206.1z"/>
			<path class="st26" d="M233.8,206.1l-44-25.4c-0.4-0.2-0.7,0-0.7,0.4v33c0,0.5,0.3,1,0.7,1.2l44,25.4c0.4,0.2,0.7,0,0.7-0.4v-33
				C234.5,206.9,234.3,206.4,233.8,206.1z"/>
			<path class="st10" d="M231.2,243.4l-42.4-24.5c-0.4-0.2-0.8-0.2-1.2,0l-0.7,0.4c-0.2,0.1-0.3,0.3-0.2,0.4c0,0.1,0.1,0.2,0.2,0.2
				l42.4,24.5c0.4,0.2,0.8,0.2,1.2,0l0.7-0.4c0.2-0.1,0.2-0.4,0.1-0.5C231.3,243.5,231.2,243.5,231.2,243.4z"/>
			<path class="st10" d="M227.9,245.4l-42.4-24.5c-0.3-0.2-0.7-0.2-1.1-0.1l-11,6.4c-0.3,0.1-0.2,0.4,0.1,0.6l42.3,24.4
				c0.3,0.2,0.7,0.2,1.1,0.1L228,246C228.2,245.8,228.2,245.6,227.9,245.4z"/>
			<path class="st3" d="M191.3,231.2l1.3-0.7c0,0,0-0.1,0-0.1l-1.3-0.8c-0.1,0-0.1,0-0.2,0l-1.3,0.7c-0.1,0,0,0.1,0,0.1l1.3,0.8
				C191.2,231.2,191.3,231.2,191.3,231.2z M192.9,228.5l-1.3,0.7c-0.1,0,0,0.1,0,0.1l1.3,0.8c0.1,0,0.1,0,0.2,0l1.3-0.7
				c0.1,0,0.1-0.1,0-0.1l-1.3-0.8C193,228.5,193,228.5,192.9,228.5z M197.2,231l-1.3,0.7c0,0,0,0.1,0,0.1l2.2,1.3c0.1,0,0.1,0,0.2,0
				l1.3-0.7c0.1,0,0-0.1,0-0.1l-2.2-1.3C197.3,231,197.2,231,197.2,231z M194.8,229.6l-1.3,0.7c-0.1,0,0,0.1,0,0.1l1.3,0.8
				c0.1,0,0.1,0,0.2,0l1.3-0.7c0,0,0-0.1,0-0.1l-1.3-0.8C195,229.6,194.9,229.6,194.8,229.6L194.8,229.6z M200,232.6l-1.3,0.7
				c-0.1,0-0.1,0.1,0,0.1l1.3,0.8c0.1,0,0.1,0,0.2,0l1.3-0.7c0.1,0,0-0.1,0-0.1l-1.3-0.8C200.2,232.6,200.1,232.6,200,232.6
				L200,232.6z M202,233.8l-1.3,0.7c-0.1,0-0.1,0.1,0,0.1l1.3,0.8c0.1,0,0.1,0,0.2,0l1.3-0.7c0.1,0,0-0.1,0-0.1l-1.3-0.8
				C202.1,233.7,202.1,233.7,202,233.8L202,233.8z M197.4,236.8l1.3-0.7c0,0,0-0.1,0-0.1l-1.3-0.8c-0.1,0-0.1,0-0.2,0l-1.3,0.7
				c0,0,0,0.1,0,0.1l1.3,0.8C197.2,236.8,197.3,236.8,197.4,236.8L197.4,236.8z M199.3,237.9l1.3-0.7c0,0,0-0.1,0-0.1l-1.3-0.8
				c-0.1,0-0.1,0-0.2,0l-1.3,0.7c0,0,0,0.1,0,0.1l1.3,0.8C199.2,237.9,199.3,237.9,199.3,237.9L199.3,237.9z M201.3,239l1.3-0.7
				c0.1,0,0.1-0.1,0-0.1l-1.3-0.8c-0.1,0-0.1,0-0.2,0l-1.3,0.7c0,0,0,0.1,0,0.1l1.3,0.8C201.1,239,201.2,239,201.3,239L201.3,239z
				 M203.2,240.1l1.3-0.7c0.1,0,0.1-0.1,0-0.1l-1.3-0.8c-0.1,0-0.1,0-0.2,0l-1.3,0.7c0,0,0,0.1,0,0.1l1.3,0.8
				C203.1,240.2,203.1,240.2,203.2,240.1L203.2,240.1z M193.3,232.3l1.3-0.7c0,0,0-0.1,0-0.1l-1.3-0.8c-0.1,0-0.1,0-0.2,0l-1.3,0.7
				c-0.1,0-0.1,0.1,0,0.1l1.3,0.8C193.1,232.3,193.2,232.3,193.3,232.3L193.3,232.3z M195.4,235.6l1.3-0.7c0.1,0,0-0.1,0-0.1
				l-1.2-0.7c-0.1,0-0.1-0.1,0-0.1l1.6-0.9c0.1,0,0.1-0.1,0-0.1l-1.5-0.9c-0.1,0-0.1,0-0.2,0l-3.1,1.8c-0.1,0,0,0.1,0,0.1l3,1.7
				C195.4,235.7,195.4,235.7,195.4,235.6L195.4,235.6z M203.9,234.9l-1.3,0.7c0,0,0,0.1,0,0.1l1.3,0.8c0.1,0,0.1,0,0.2,0l1.3-0.7
				c0.1,0,0.1-0.1,0-0.1l-1.3-0.8C204,234.9,204,234.9,203.9,234.9L203.9,234.9z M205.9,236l-1.3,0.7c-0.1,0,0,0.1,0,0.1l1.3,0.8
				c0.1,0,0.1,0,0.2,0l1.3-0.7c0.1,0,0.1-0.1,0-0.1L206,236C206,236,205.9,236,205.9,236L205.9,236z M218,247.2c0.1,0,0.1-0.1,0-0.1
				l-1.3-0.8c-0.1,0-0.1,0-0.2,0l-1.3,0.7c-0.1,0,0,0.1,0,0.1l1.3,0.8c0.1,0,0.1,0,0.2,0L218,247.2z M221.3,245l-1.3,0.7
				c0,0,0,0.1,0,0.1l1.3,0.8c0.1,0,0.1,0,0.2,0l1.3-0.7c0,0,0-0.1,0-0.1l-1.3-0.8C221.5,245,221.4,245,221.3,245L221.3,245z
				 M220.3,246.5c0,0,0-0.1,0-0.1l-1.3-0.8c-0.1,0-0.1,0-0.2,0l-1.3,0.7c0,0,0,0.1,0,0.1l1.3,0.8c0.1,0,0.1,0,0.2,0L220.3,246.5z
				 M213.9,248.4l1.3-0.7c0,0,0-0.1,0-0.1l-1.3-0.8c-0.1,0-0.1,0-0.2,0l-1.3,0.7c0,0,0,0.1,0,0.1l1.3,0.8
				C213.8,248.5,213.9,248.5,213.9,248.4L213.9,248.4z M217.1,248.8c0,0,0-0.1,0-0.1l-1.3-0.8c-0.1,0-0.1,0-0.2,0l-1.3,0.7
				c0,0,0,0.1,0,0.1l1.3,0.8c0.1,0,0.1,0,0.2,0L217.1,248.8z M219.4,243.8l-1.3,0.7c0,0,0,0.1,0,0.1l1.3,0.8c0.1,0,0.1,0,0.2,0
				l1.3-0.7c0,0,0-0.1,0-0.1l-1.3-0.8C219.5,243.8,219.5,243.8,219.4,243.8L219.4,243.8z M209.7,238.2l-1.3,0.7c-0.1,0,0,0.1,0,0.1
				l1.3,0.8c0.1,0,0.1,0,0.2,0l1.3-0.7c0.1,0,0.1-0.1,0-0.1l-1.3-0.8C209.8,238.2,209.8,238.2,209.7,238.2L209.7,238.2z
				 M217.4,242.7l-1.3,0.7c-0.1,0-0.1,0.1,0,0.1l1.3,0.8c0.1,0,0.1,0,0.2,0l1.3-0.7c0,0,0-0.1,0-0.1l-1.3-0.8
				C217.6,242.7,217.5,242.7,217.4,242.7L217.4,242.7z M207.7,237.1l-1.3,0.7c-0.1,0,0,0.1,0,0.1l1.3,0.8c0.1,0,0.1,0,0.2,0l1.3-0.7
				c0.1,0,0.1-0.1,0-0.1l-1.3-0.8C207.9,237.1,207.8,237.1,207.7,237.1L207.7,237.1z M211.6,239.3l-1.3,0.7c-0.1,0,0,0.1,0,0.1
				l1.3,0.8c0.1,0,0.1,0,0.2,0l1.3-0.7c0.1,0,0.1-0.1,0-0.1l-1.3-0.8C211.8,239.3,211.7,239.3,211.6,239.3L211.6,239.3z
				 M213.6,240.5l-1.3,0.7c-0.1,0-0.1,0.1,0,0.1l1.3,0.8c0.1,0,0.1,0,0.2,0l1.3-0.7c0.1,0,0-0.1,0-0.1l-1.3-0.8
				C213.7,240.5,213.7,240.5,213.6,240.5L213.6,240.5z M215.5,241.6l-1.3,0.7c-0.1,0-0.1,0.1,0,0.1l1.3,0.8c0.1,0,0.1,0,0.2,0
				l1.3-0.7c0,0,0-0.1,0-0.1l-1.3-0.8C215.6,241.6,215.6,241.6,215.5,241.6L215.5,241.6z M207,242.3l1.3-0.7c0.1,0,0-0.1,0-0.1
				l-1.3-0.8c-0.1,0-0.1,0-0.2,0l-1.3,0.7c-0.1,0-0.1,0.1,0,0.1l1.3,0.8C206.9,242.4,207,242.4,207,242.3L207,242.3z M188.6,226
				l-1.3,0.7c-0.1,0-0.1,0.1,0,0.1l1.3,0.8c0.1,0,0.1,0,0.2,0l1.3-0.7c0.1,0,0-0.1,0-0.1l-1.3-0.8C188.7,226,188.7,226,188.6,226
				L188.6,226z M190.9,227.4l-1.3,0.7c-0.1,0,0,0.1,0,0.1l1.4,0.8c0.1,0,0.1,0,0.2,0l1.3-0.7c0.1,0,0.1-0.1,0-0.1l-1.3-0.8
				C191.1,227.4,191,227.4,190.9,227.4L190.9,227.4z M186.6,224.9l-1.3,0.7c-0.1,0-0.1,0.1,0,0.1l1.3,0.8c0.1,0,0.1,0,0.2,0l1.3-0.7
				c0.1,0,0-0.1,0-0.1l-1.3-0.8C186.8,224.9,186.7,224.9,186.6,224.9L186.6,224.9z M197.7,234.9l1.3-0.7c0.1,0,0-0.1,0-0.1l-1.3-0.8
				c-0.1,0-0.1,0-0.2,0l-1.3,0.7c-0.1,0-0.1,0.1,0,0.1l1.3,0.8C197.6,235,197.7,235,197.7,234.9L197.7,234.9z M183.4,224.5
				c-0.1,0-0.1,0.1,0,0.1l1.3,0.8c0.1,0,0.1,0,0.2,0l1.3-0.7c0.1,0,0-0.1,0-0.1l-1.3-0.8c-0.1,0-0.1,0-0.2,0L183.4,224.5z
				 M205.1,241.2l1.3-0.7c0.1,0,0.1-0.1,0-0.1l-1.3-0.8c-0.1,0-0.1,0-0.2,0l-1.3,0.7c-0.1,0,0,0.1,0,0.1l1.3,0.8
				C205,241.3,205.1,241.3,205.1,241.2L205.1,241.2z M181.3,227.5l1.3-0.7c0.1,0,0.1-0.1,0-0.1l-1.3-0.8c-0.1,0-0.1,0-0.2,0
				l-1.3,0.7c-0.1,0,0,0.1,0,0.1l1.3,0.8C181.2,227.6,181.3,227.6,181.3,227.5L181.3,227.5z M185.1,227.6l1.3-0.7c0.1,0,0-0.1,0-0.1
				L185,226c-0.1,0-0.1,0-0.2,0l-1.3,0.7c-0.1,0-0.1,0.1,0,0.1l1.3,0.8C185,227.6,185,227.6,185.1,227.6L185.1,227.6z M181.6,225.6
				c-0.1,0-0.1,0.1,0,0.1l1.3,0.8c0.1,0,0.1,0,0.2,0l1.3-0.7c0.1,0,0-0.1,0-0.1l-1.3-0.8c-0.1,0-0.1,0-0.2,0L181.6,225.6z
				 M182.5,224.5l-1.3-0.8c-0.1,0-0.1,0-0.2,0l-3.1,1.8c0,0,0,0.1,0,0.1l1.3,0.8c0.1,0,0.1,0,0.2,0l3.1-1.8
				C182.6,224.6,182.6,224.5,182.5,224.5L182.5,224.5z M186.7,227.1l-1.3,0.7c-0.1,0,0,0.1,0,0.1l1.3,0.8c0.1,0,0.1,0,0.2,0l1.3-0.7
				c0.1,0,0.1-0.1,0-0.1l-1.3-0.8C186.9,227.1,186.9,227.1,186.7,227.1L186.7,227.1z M201.3,235.5l-1.3,0.7c-0.1,0-0.1,0.1,0,0.1
				l1.3,0.8c0.1,0,0.1,0,0.2,0l1.3-0.7c0.1,0,0-0.1,0-0.1l-1.3-0.8C201.5,235.5,201.4,235.5,201.3,235.5L201.3,235.5z M184.5,227.9
				c0.1,0,0.1-0.1,0-0.1l-1.3-0.8c-0.1,0-0.1,0-0.2,0l-1.3,0.7c-0.1,0,0,0.1,0,0.1l1.3,0.8c0.1,0,0.1,0,0.2,0L184.5,227.9z
				 M199.4,234.4l-1.3,0.7c-0.1,0-0.1,0.1,0,0.1l1.3,0.8c0.1,0,0.1,0,0.2,0l1.3-0.7c0.1,0,0-0.1,0-0.1l-1.3-0.8
				C199.5,234.4,199.5,234.4,199.4,234.4L199.4,234.4z M216.1,246.1c0,0,0-0.1,0-0.1l-1.3-0.8c-0.1,0-0.1,0-0.2,0l-1.3,0.7
				c-0.1,0-0.1,0.1,0,0.1l1.3,0.8c0.1,0,0.1,0,0.2,0L216.1,246.1z M216.9,244.5l-1.3,0.7c0,0,0,0.1,0,0.1l1.3,0.8c0.1,0,0.1,0,0.2,0
				l1.3-0.7c0,0,0-0.1,0-0.1l-1.3-0.8C217,244.5,216.9,244.5,216.9,244.5L216.9,244.5z M212.9,245.7l1.3-0.7c0.1,0,0-0.1,0-0.1
				l-1.3-0.8c-0.1,0-0.1,0-0.2,0l-1.3,0.7c-0.1,0-0.1,0.1,0,0.1l1.3,0.8C212.7,245.8,212.8,245.8,212.9,245.7L212.9,245.7z
				 M211,244.6l1.3-0.7c0.1,0,0-0.1,0-0.1l-1.3-0.8c-0.1,0-0.1,0-0.2,0l-1.3,0.7c-0.1,0-0.1,0.1,0,0.1l1.3,0.8
				C210.9,244.6,210.9,244.6,211,244.6z M209,243.5l1.3-0.7c0.1,0,0-0.1,0-0.1l-1.3-0.8c-0.1,0-0.1,0-0.2,0l-1.3,0.7
				c-0.1,0-0.1,0.1,0,0.1l1.3,0.8C208.9,243.5,208.9,243.5,209,243.5z M214.9,243.4l-1.3,0.7c-0.1,0-0.1,0.1,0,0.1l1.3,0.8
				c0.1,0,0.1,0,0.2,0l1.3-0.7c0,0,0-0.1,0-0.1l-1.3-0.8C215.1,243.4,215,243.4,214.9,243.4L214.9,243.4z M213,242.2l-1.3,0.7
				c-0.1,0,0,0.1,0,0.1l1.3,0.8c0.1,0,0.1,0,0.2,0l1.3-0.7c0,0,0-0.1,0-0.1l-1.3-0.8C213.1,242.2,213.1,242.2,213,242.2z
				 M205.2,237.8l-1.3,0.7c-0.1,0-0.1,0.1,0,0.1l1.3,0.8c0.1,0,0.1,0,0.2,0l1.3-0.7c0,0,0-0.1,0-0.1l-1.3-0.8
				C205.4,237.7,205.3,237.7,205.2,237.8L205.2,237.8z M207.2,238.9l-1.3,0.7c-0.1,0,0,0.1,0,0.1l1.3,0.8c0.1,0,0.1,0,0.2,0l1.3-0.7
				c0.1,0,0.1-0.1,0-0.1l-1.3-0.8C207.3,238.9,207.3,238.9,207.2,238.9L207.2,238.9z M203.3,236.6l-1.3,0.7c-0.1,0-0.1,0.1,0,0.1
				l1.3,0.8c0.1,0,0.1,0,0.2,0l1.3-0.7c0,0,0-0.1,0-0.1l-1.3-0.8C203.5,236.6,203.4,236.6,203.3,236.6L203.3,236.6z M211.1,241.1
				l-1.3,0.7c-0.1,0,0,0.1,0,0.1l1.3,0.8c0.1,0,0.1,0,0.2,0l1.3-0.7c0,0,0-0.1,0-0.1l-1.3-0.8C211.2,241.1,211.1,241.1,211.1,241.1
				L211.1,241.1z M209.1,240l-1.3,0.7c-0.1,0,0,0.1,0,0.1l1.3,0.8c0.1,0,0.1,0,0.2,0l1.3-0.7c0.1,0,0.1-0.1,0-0.1l-1.3-0.8
				C209.3,240,209.2,240,209.1,240z M212,247.3l1.3-0.7c0,0,0-0.1,0-0.1l-1.3-0.8c-0.1,0-0.1,0-0.2,0l-1.3,0.7c-0.1,0,0,0.1,0,0.1
				l1.3,0.8C211.9,247.3,211.9,247.3,212,247.3z M222.1,246.9l1.3,0.8c0.1,0,0.1,0,0.2,0l1.3-0.7c0,0,0-0.1,0-0.1l-1.3-0.8
				c-0.1,0-0.1,0-0.2,0l-1.3,0.7C222,246.9,222,246.9,222.1,246.9z M219.5,247.6l2,1.2c0.1,0,0.1,0,0.2,0l1.3-0.7c0,0,0-0.1,0-0.1
				l-2-1.2c-0.1,0-0.1,0-0.2,0l-1.3,0.7C219.5,247.4,219.5,247.5,219.5,247.6z M223.9,245.5l1.6,0.9c0.1,0,0.1,0,0.2,0l1.3-0.7
				c0.1,0,0.1-0.1,0-0.1l-1.6-1c-0.1,0-0.1,0-0.2,0l-1.3,0.7C223.9,245.4,223.9,245.4,223.9,245.5z M223.9,243.9c0.1,0,0-0.1,0-0.1
				l-1.3-0.8c-0.1,0-0.1,0-0.2,0l-1.3,0.7c-0.1,0-0.1,0.1,0,0.1l1.3,0.8c0.1,0,0.1,0,0.2,0L223.9,243.9z M217.2,248.3l2.6,1.5
				c0.1,0,0.1,0,0.2,0l1.3-0.7c0,0,0-0.1,0-0.1l-2.6-1.5c-0.1,0-0.1,0-0.2,0l-1.3,0.7C217.1,248.2,217.1,248.3,217.2,248.3
				L217.2,248.3z M216.3,249.9l1.6,0.9c0.1,0,0.1,0,0.2,0l1.3-0.7c0.1,0,0.1-0.1,0-0.1l-1.6-0.9c-0.1,0-0.1,0-0.2,0l-1.3,0.7
				C216.3,249.8,216.2,249.9,216.3,249.9L216.3,249.9z M209.5,235.6c0.1,0,0-0.1,0-0.1l-1.3-0.8c-0.1,0-0.1,0-0.2,0l-1.3,0.7
				c0,0,0,0.1,0,0.1l1.3,0.8c0.1,0,0.1,0,0.2,0L209.5,235.6z M213.4,237.8c0.1,0,0-0.1,0-0.1l-1.3-0.8c-0.1,0-0.1,0-0.2,0l-1.3,0.7
				c-0.1,0-0.1,0.1,0,0.1l1.3,0.8c0.1,0,0.1,0,0.2,0L213.4,237.8z M222,242.8c0.1,0,0-0.1,0-0.1l-1.3-0.8c-0.1,0-0.1,0-0.2,0
				l-1.3,0.7c-0.1,0-0.1,0.1,0,0.1l1.3,0.8c0.1,0,0.1,0,0.2,0L222,242.8z M211.5,236.7c0.1,0,0-0.1,0-0.1l-1.3-0.8
				c-0.1,0-0.1,0-0.2,0l-1.3,0.7c0,0,0,0.1,0,0.1l1.3,0.8c0.1,0,0.1,0,0.2,0L211.5,236.7z M215.3,239c0.1,0,0-0.1,0-0.1l-1.3-0.8
				c-0.1,0-0.1,0-0.2,0l-1.3,0.7c-0.1,0-0.1,0.1,0,0.1l1.3,0.8c0.1,0,0.1,0,0.2,0L215.3,239z M214.1,250.6c0,0,0,0.1,0,0.1l2,1.2
				c0.1,0,0.1,0,0.2,0l1.3-0.7c0,0,0-0.1,0-0.1l-2-1.2c-0.1,0-0.1,0-0.2,0L214.1,250.6z M218.1,240.6c0.1,0,0-0.1,0-0.1l-1.3-0.8
				c-0.1,0-0.1,0-0.2,0l-1.3,0.7c-0.1,0-0.1,0.1,0,0.1l1.3,0.8c0.1,0,0.1,0,0.2,0L218.1,240.6z M220.1,241.7c0.1,0,0-0.1,0-0.1
				l-1.3-0.8c-0.1,0-0.1,0-0.2,0l-1.3,0.7c-0.1,0-0.1,0.1,0,0.1l1.3,0.8c0.1,0,0.1,0,0.2,0L220.1,241.7z M178.1,229.9
				c-0.1,0-0.1,0.1,0,0.1l3.3,1.9c0.1,0,0.1,0,0.2,0l1.3-0.7c0.1,0,0.1-0.1,0-0.1l-3.3-1.9c-0.1,0-0.1,0-0.2,0L178.1,229.9z
				 M182.4,232.4c-0.1,0,0,0.1,0,0.1l1.3,0.8c0.1,0,0.1,0,0.2,0l1.3-0.7c0.1,0,0.1-0.1,0-0.1l-1.3-0.8c-0.1,0-0.1,0-0.2,0
				L182.4,232.4z M210.1,246.3l1.3-0.7c0,0,0-0.1,0-0.1l-1.3-0.8c-0.1,0-0.1,0-0.2,0l-1.3,0.7c-0.1,0,0,0.1,0,0.1l1.3,0.8
				C209.9,246.3,210,246.2,210.1,246.3L210.1,246.3z M186.3,234.6c-0.1,0-0.1,0.1,0,0.1l1.3,0.8c0.1,0,0.1,0,0.2,0l1.3-0.7
				c0,0,0-0.1,0-0.1l-1.3-0.8c-0.1,0-0.1,0-0.2,0L186.3,234.6z M176.2,228.8c-0.1,0-0.1,0.1,0,0.1l1.3,0.8c0.1,0,0.1,0,0.2,0
				l1.3-0.7c0.1,0,0-0.1,0-0.1l-1.3-0.8c-0.1,0-0.1,0-0.2,0L176.2,228.8z M174.3,227.8l1.3,0.8c0.1,0,0.1,0,0.2,0l3.1-1.8
				c0.1,0,0.1-0.1,0-0.1l-1.3-0.8c-0.1,0-0.1,0-0.2,0l-3.1,1.8C174.2,227.6,174.2,227.7,174.3,227.8L174.3,227.8z M193.6,238.8
				c-0.1,0-0.1,0.1,0,0.1l1.6,0.9c0.1,0,0.1,0,0.2,0l1.3-0.7c0.1,0,0.1-0.1,0-0.1l-1.6-1c-0.1,0-0.1,0-0.2,0L193.6,238.8z
				 M188.7,236c0,0,0,0.1,0,0.1l2,1.2c0.1,0,0.1,0,0.2,0l1.3-0.7c0.1,0,0.1-0.1,0-0.1l-2-1.2c-0.1,0-0.1,0-0.2,0L188.7,236z
				 M198,241.4c-0.1,0-0.1,0.1,0,0.1l11,6.3c0.1,0,0.1,0,0.2,0l1.3-0.7c0.1,0,0-0.1,0-0.1l-10.9-6.3c-0.1,0-0.1,0-0.2,0L198,241.4z
				 M209.6,248c-0.1,0-0.1,0.1,0,0.1l1.6,0.9c0.1,0,0.1,0,0.2,0l1.3-0.7c0,0,0-0.1,0-0.1l-1.6-0.9c-0.1,0-0.1,0-0.2,0L209.6,248z
				 M195.8,240c-0.1,0,0,0.1,0,0.1l1.6,0.9c0.1,0,0.1,0,0.2,0l1.3-0.7c0.1,0,0-0.1,0-0.1l-1.6-0.9c-0.1,0-0.1,0-0.2,0L195.8,240z
				 M211.8,249.2c0,0,0,0.1,0,0.1l1.6,0.9c0.1,0,0.1,0,0.2,0l1.3-0.7c0,0,0-0.1,0-0.1l-1.6-0.9c-0.1,0-0.1,0-0.2,0L211.8,249.2z
				 M191.3,237.4c-0.1,0,0,0.1,0,0.1l1.6,0.9c0.1,0,0.1,0,0.2,0l1.3-0.7c0.1,0,0-0.1,0-0.1l-1.6-0.9c-0.1,0-0.1,0-0.2,0L191.3,237.4
				z M184.4,233.4c-0.1,0,0,0.1,0,0.1l1.3,0.8c0.1,0,0.1,0,0.2,0l1.3-0.7c0.1,0,0.1-0.1,0-0.1l-1.3-0.8c-0.1,0-0.1,0-0.2,0
				L184.4,233.4z M181.5,229.7l1.3-0.7c0.1,0,0-0.1,0-0.1l-1.3-0.8c-0.1,0-0.1,0-0.2,0l-1.3,0.7c-0.1,0-0.1,0.1,0,0.1l1.3,0.8
				C181.3,229.7,181.4,229.7,181.5,229.7L181.5,229.7z M189.4,230l1.3-0.7c0.1,0,0.1-0.1,0-0.1l-1.3-0.8c-0.1,0-0.1,0-0.2,0
				l-1.3,0.7c-0.1,0,0,0.1,0,0.1l1.3,0.8C189.2,230.1,189.3,230.1,189.4,230L189.4,230z M194.5,237.2l1.3-0.7c0.1,0,0.1-0.1,0-0.1
				l-3.9-2.2c-0.1,0-0.1,0-0.2,0l-1.3,0.7c-0.1,0,0,0.1,0,0.1l3.9,2.2C194.4,237.2,194.5,237.3,194.5,237.2L194.5,237.2z M184.7,230
				c0.1,0,0-0.1,0-0.1l-1.3-0.8c-0.1,0-0.1,0-0.2,0l-1.3,0.7c-0.1,0-0.1,0.1,0,0.1l1.3,0.8c0.1,0,0.1,0,0.2,0L184.7,230z
				 M185.2,229.7l1.3-0.7c0.1,0,0.1-0.1,0-0.1l-1.3-0.8c-0.1,0-0.1,0-0.2,0l-1.3,0.7c-0.1,0,0,0.1,0,0.1l1.3,0.8
				C185.1,229.8,185.2,229.8,185.2,229.7L185.2,229.7z M196.5,238.3l1.3-0.7c0.1,0,0.1-0.1,0-0.1l-1.3-0.8c-0.1,0-0.1,0-0.2,0
				l-1.3,0.7c-0.1,0,0,0.1,0,0.1l1.3,0.8C196.3,238.4,196.4,238.4,196.5,238.3L196.5,238.3z M189,232.5c0.1,0,0.1-0.1,0-0.1
				l-1.3-0.8c-0.1,0-0.1,0-0.2,0l-1.3,0.7c-0.1,0,0,0.1,0,0.1l1.3,0.8c0.1,0,0.1,0,0.2,0L189,232.5z M206.2,244l1.3-0.7
				c0.1,0,0.1-0.1,0-0.1l-1.3-0.8c-0.1,0-0.1,0-0.2,0l-1.3,0.7c-0.1,0,0,0.1,0,0.1l1.3,0.8C206,244,206.1,244,206.2,244z
				 M204.2,242.9l1.3-0.7c0,0,0-0.1,0-0.1l-1.3-0.8c-0.1,0-0.1,0-0.2,0l-1.3,0.7c-0.1,0-0.1,0.1,0,0.1l1.3,0.8
				C204.1,242.9,204.2,242.9,204.2,242.9L204.2,242.9z M208.1,245.1l1.3-0.7c0.1,0,0.1-0.1,0-0.1l-1.3-0.8c-0.1,0-0.1,0-0.2,0
				l-1.3,0.7c-0.1,0,0,0.1,0,0.1l1.3,0.8C208,245.1,208.1,245.1,208.1,245.1L208.1,245.1z M200.4,240.6l1.3-0.7c0.1,0,0-0.1,0-0.1
				l-1.3-0.8c-0.1,0-0.1,0-0.2,0l-1.3,0.7c-0.1,0-0.1,0.1,0,0.1l1.3,0.8C200.2,240.6,200.3,240.6,200.4,240.6L200.4,240.6z
				 M202.3,241.8l1.3-0.7c0,0,0-0.1,0-0.1l-1.3-0.8c-0.1,0-0.1,0-0.2,0l-1.3,0.7c-0.1,0-0.1,0.1,0,0.1l1.3,0.8
				C202.2,241.8,202.3,241.8,202.3,241.8L202.3,241.8z M198.4,239.5l1.3-0.7c0.1,0,0-0.1,0-0.1l-1.3-0.8c-0.1,0-0.1,0-0.2,0
				l-1.3,0.7c-0.1,0-0.1,0.1,0,0.1l1.3,0.8C198.3,239.5,198.4,239.5,198.4,239.5L198.4,239.5z M188,223.7c0,0,0-0.1,0-0.1l-1.3-0.8
				c-0.1,0-0.1,0-0.2,0l-0.3,0.2c0,0,0,0.1,0,0.1l1.3,0.8c0.1,0,0.1,0,0.2,0L188,223.7z M198.6,229.3c0.1,0,0.1-0.1,0-0.1l-1.3-0.8
				c-0.1,0-0.1,0-0.2,0l-1.3,0.7c0,0,0,0.1,0,0.1l1.3,0.8c0.1,0,0.1,0,0.2,0L198.6,229.3z M194.7,227c0.1,0,0-0.1,0-0.1l-1.3-0.8
				c-0.1,0-0.1,0-0.2,0l-1.3,0.7c0,0,0,0.1,0,0.1l1.3,0.8c0.1,0,0.1,0,0.2,0L194.7,227z M200.9,230.6c0,0,0-0.1,0-0.1l-1.3-0.8
				c-0.1,0-0.1,0-0.2,0l-1.3,0.7c0,0,0,0.1,0,0.1l1.3,0.8c0.1,0,0.1,0,0.2,0L200.9,230.6z M196.6,228.1c0,0,0-0.1,0-0.1l-1.3-0.8
				c-0.1,0-0.1,0-0.2,0l-1.3,0.7c0,0,0,0.1,0,0.1l1.3,0.8c0.1,0,0.1,0,0.2,0L196.6,228.1z M204.8,232.8c0.1,0,0-0.1,0-0.1l-1.3-0.8
				c-0.1,0-0.1,0-0.2,0l-1.3,0.7c0,0,0,0.1,0,0.1l1.3,0.8c0.1,0,0.1,0,0.2,0L204.8,232.8z M202.9,231.7c0,0,0-0.1,0-0.1l-1.3-0.8
				c-0.1,0-0.1,0-0.2,0l-1.3,0.7c0,0,0,0.1,0,0.1l1.3,0.8c0.1,0,0.1,0,0.2,0L202.9,231.7z M191.9,225.9c0,0,0-0.1,0-0.1l-1.3-0.8
				c-0.1,0-0.1,0-0.2,0l-0.3,0.2c-0.1,0,0,0.1,0,0.1l1.3,0.8c0.1,0,0.1,0,0.2,0L191.9,225.9z M186.1,222.6c0.1,0,0-0.1,0-0.1
				l-1.3-0.8c-0.1,0-0.1,0-0.2,0l-0.3,0.2c-0.1,0-0.1,0.1,0,0.1l1.3,0.8c0.1,0,0.1,0,0.2,0L186.1,222.6z M184.3,223.6
				c0.1,0,0.1-0.1,0-0.1l-1.3-0.7c-0.1,0-0.1,0-0.2,0l-1.3,0.7c-0.1,0,0,0.1,0,0.1l1.3,0.8c0.1,0,0.1,0,0.2,0L184.3,223.6z
				 M179.5,228.6l1.3-0.7c0.1,0,0-0.1,0-0.1l-1.3-0.8c-0.1,0-0.1,0-0.2,0l-1.3,0.7c-0.1,0,0,0.1,0,0.1l1.3,0.8
				C179.4,228.6,179.5,228.6,179.5,228.6L179.5,228.6z M189.9,224.8c0,0,0-0.1,0-0.1l-1.3-0.8c-0.1,0-0.1,0-0.2,0l-0.3,0.2
				c-0.1,0,0,0.1,0,0.1l1.3,0.8c0.1,0,0.1,0,0.2,0L189.9,224.8z M206.8,234c0.1,0,0-0.1,0-0.1l-1.3-0.8c-0.1,0-0.1,0-0.2,0l-1.3,0.7
				c0,0,0,0.1,0,0.1l1.3,0.8c0.1,0,0.1,0,0.2,0L206.8,234z"/>
			<path class="st2" d="M191.3,231.2l1.3-0.7c0,0,0-0.1,0-0.1l-1.3-0.8c-0.1,0-0.1,0-0.2,0l-1.3,0.7c-0.1,0,0,0.1,0,0.1l1.3,0.8
				C191.2,231.2,191.3,231.2,191.3,231.2z M192.9,228.5l-1.3,0.7c-0.1,0,0,0.1,0,0.1l1.3,0.8c0.1,0,0.1,0,0.2,0l1.3-0.7
				c0.1,0,0.1-0.1,0-0.1l-1.3-0.8C193,228.5,193,228.5,192.9,228.5z M197.2,231l-1.3,0.7c0,0,0,0.1,0,0.1l2.2,1.3c0.1,0,0.1,0,0.2,0
				l1.3-0.7c0.1,0,0-0.1,0-0.1l-2.2-1.3C197.3,231,197.2,231,197.2,231z M194.8,229.6l-1.3,0.7c-0.1,0,0,0.1,0,0.1l1.3,0.8
				c0.1,0,0.1,0,0.2,0l1.3-0.7c0,0,0-0.1,0-0.1l-1.3-0.8C195,229.6,194.9,229.6,194.8,229.6L194.8,229.6z M200,232.6l-1.3,0.7
				c-0.1,0-0.1,0.1,0,0.1l1.3,0.8c0.1,0,0.1,0,0.2,0l1.3-0.7c0.1,0,0-0.1,0-0.1l-1.3-0.8C200.2,232.6,200.1,232.6,200,232.6
				L200,232.6z M202,233.8l-1.3,0.7c-0.1,0-0.1,0.1,0,0.1l1.3,0.8c0.1,0,0.1,0,0.2,0l1.3-0.7c0.1,0,0-0.1,0-0.1l-1.3-0.8
				C202.1,233.7,202.1,233.7,202,233.8L202,233.8z M197.4,236.8l1.3-0.7c0,0,0-0.1,0-0.1l-1.3-0.8c-0.1,0-0.1,0-0.2,0l-1.3,0.7
				c0,0,0,0.1,0,0.1l1.3,0.8C197.2,236.8,197.3,236.8,197.4,236.8L197.4,236.8z M199.3,237.9l1.3-0.7c0,0,0-0.1,0-0.1l-1.3-0.8
				c-0.1,0-0.1,0-0.2,0l-1.3,0.7c0,0,0,0.1,0,0.1l1.3,0.8C199.2,237.9,199.3,237.9,199.3,237.9L199.3,237.9z M201.3,239l1.3-0.7
				c0.1,0,0.1-0.1,0-0.1l-1.3-0.8c-0.1,0-0.1,0-0.2,0l-1.3,0.7c0,0,0,0.1,0,0.1l1.3,0.8C201.1,239,201.2,239,201.3,239L201.3,239z
				 M203.2,240.1l1.3-0.7c0.1,0,0.1-0.1,0-0.1l-1.3-0.8c-0.1,0-0.1,0-0.2,0l-1.3,0.7c0,0,0,0.1,0,0.1l1.3,0.8
				C203.1,240.2,203.1,240.2,203.2,240.1L203.2,240.1z M193.3,232.3l1.3-0.7c0,0,0-0.1,0-0.1l-1.3-0.8c-0.1,0-0.1,0-0.2,0l-1.3,0.7
				c-0.1,0-0.1,0.1,0,0.1l1.3,0.8C193.1,232.3,193.2,232.3,193.3,232.3L193.3,232.3z M195.4,235.6l1.3-0.7c0.1,0,0-0.1,0-0.1
				l-1.2-0.7c-0.1,0-0.1-0.1,0-0.1l1.6-0.9c0.1,0,0.1-0.1,0-0.1l-1.5-0.9c-0.1,0-0.1,0-0.2,0l-3.1,1.8c-0.1,0,0,0.1,0,0.1l3,1.7
				C195.4,235.7,195.4,235.7,195.4,235.6L195.4,235.6z M203.9,234.9l-1.3,0.7c0,0,0,0.1,0,0.1l1.3,0.8c0.1,0,0.1,0,0.2,0l1.3-0.7
				c0.1,0,0.1-0.1,0-0.1l-1.3-0.8C204,234.9,204,234.9,203.9,234.9L203.9,234.9z M205.9,236l-1.3,0.7c-0.1,0,0,0.1,0,0.1l1.3,0.8
				c0.1,0,0.1,0,0.2,0l1.3-0.7c0.1,0,0.1-0.1,0-0.1L206,236C206,236,205.9,236,205.9,236L205.9,236z M218,247.2c0.1,0,0.1-0.1,0-0.1
				l-1.3-0.8c-0.1,0-0.1,0-0.2,0l-1.3,0.7c-0.1,0,0,0.1,0,0.1l1.3,0.8c0.1,0,0.1,0,0.2,0L218,247.2z M221.3,245l-1.3,0.7
				c0,0,0,0.1,0,0.1l1.3,0.8c0.1,0,0.1,0,0.2,0l1.3-0.7c0,0,0-0.1,0-0.1l-1.3-0.8C221.5,245,221.4,245,221.3,245L221.3,245z
				 M220.3,246.5c0,0,0-0.1,0-0.1l-1.3-0.8c-0.1,0-0.1,0-0.2,0l-1.3,0.7c0,0,0,0.1,0,0.1l1.3,0.8c0.1,0,0.1,0,0.2,0L220.3,246.5z
				 M213.9,248.4l1.3-0.7c0,0,0-0.1,0-0.1l-1.3-0.8c-0.1,0-0.1,0-0.2,0l-1.3,0.7c0,0,0,0.1,0,0.1l1.3,0.8
				C213.8,248.5,213.9,248.5,213.9,248.4L213.9,248.4z M217.1,248.8c0,0,0-0.1,0-0.1l-1.3-0.8c-0.1,0-0.1,0-0.2,0l-1.3,0.7
				c0,0,0,0.1,0,0.1l1.3,0.8c0.1,0,0.1,0,0.2,0L217.1,248.8z M219.4,243.8l-1.3,0.7c0,0,0,0.1,0,0.1l1.3,0.8c0.1,0,0.1,0,0.2,0
				l1.3-0.7c0,0,0-0.1,0-0.1l-1.3-0.8C219.5,243.8,219.5,243.8,219.4,243.8L219.4,243.8z M209.7,238.2l-1.3,0.7c-0.1,0,0,0.1,0,0.1
				l1.3,0.8c0.1,0,0.1,0,0.2,0l1.3-0.7c0.1,0,0.1-0.1,0-0.1l-1.3-0.8C209.8,238.2,209.8,238.2,209.7,238.2L209.7,238.2z
				 M217.4,242.7l-1.3,0.7c-0.1,0-0.1,0.1,0,0.1l1.3,0.8c0.1,0,0.1,0,0.2,0l1.3-0.7c0,0,0-0.1,0-0.1l-1.3-0.8
				C217.6,242.7,217.5,242.7,217.4,242.7L217.4,242.7z M207.7,237.1l-1.3,0.7c-0.1,0,0,0.1,0,0.1l1.3,0.8c0.1,0,0.1,0,0.2,0l1.3-0.7
				c0.1,0,0.1-0.1,0-0.1l-1.3-0.8C207.9,237.1,207.8,237.1,207.7,237.1L207.7,237.1z M211.6,239.3l-1.3,0.7c-0.1,0,0,0.1,0,0.1
				l1.3,0.8c0.1,0,0.1,0,0.2,0l1.3-0.7c0.1,0,0.1-0.1,0-0.1l-1.3-0.8C211.8,239.3,211.7,239.3,211.6,239.3L211.6,239.3z
				 M213.6,240.5l-1.3,0.7c-0.1,0-0.1,0.1,0,0.1l1.3,0.8c0.1,0,0.1,0,0.2,0l1.3-0.7c0.1,0,0-0.1,0-0.1l-1.3-0.8
				C213.7,240.5,213.7,240.5,213.6,240.5L213.6,240.5z M215.5,241.6l-1.3,0.7c-0.1,0-0.1,0.1,0,0.1l1.3,0.8c0.1,0,0.1,0,0.2,0
				l1.3-0.7c0,0,0-0.1,0-0.1l-1.3-0.8C215.6,241.6,215.6,241.6,215.5,241.6L215.5,241.6z M207,242.3l1.3-0.7c0.1,0,0-0.1,0-0.1
				l-1.3-0.8c-0.1,0-0.1,0-0.2,0l-1.3,0.7c-0.1,0-0.1,0.1,0,0.1l1.3,0.8C206.9,242.4,207,242.4,207,242.3L207,242.3z M188.6,226
				l-1.3,0.7c-0.1,0-0.1,0.1,0,0.1l1.3,0.8c0.1,0,0.1,0,0.2,0l1.3-0.7c0.1,0,0-0.1,0-0.1l-1.3-0.8C188.7,226,188.7,226,188.6,226
				L188.6,226z M190.9,227.4l-1.3,0.7c-0.1,0,0,0.1,0,0.1l1.4,0.8c0.1,0,0.1,0,0.2,0l1.3-0.7c0.1,0,0.1-0.1,0-0.1l-1.3-0.8
				C191.1,227.4,191,227.4,190.9,227.4L190.9,227.4z M186.6,224.9l-1.3,0.7c-0.1,0-0.1,0.1,0,0.1l1.3,0.8c0.1,0,0.1,0,0.2,0l1.3-0.7
				c0.1,0,0-0.1,0-0.1l-1.3-0.8C186.8,224.9,186.7,224.9,186.6,224.9L186.6,224.9z M197.7,234.9l1.3-0.7c0.1,0,0-0.1,0-0.1l-1.3-0.8
				c-0.1,0-0.1,0-0.2,0l-1.3,0.7c-0.1,0-0.1,0.1,0,0.1l1.3,0.8C197.6,235,197.7,235,197.7,234.9L197.7,234.9z M183.4,224.5
				c-0.1,0-0.1,0.1,0,0.1l1.3,0.8c0.1,0,0.1,0,0.2,0l1.3-0.7c0.1,0,0-0.1,0-0.1l-1.3-0.8c-0.1,0-0.1,0-0.2,0L183.4,224.5z
				 M205.1,241.2l1.3-0.7c0.1,0,0.1-0.1,0-0.1l-1.3-0.8c-0.1,0-0.1,0-0.2,0l-1.3,0.7c-0.1,0,0,0.1,0,0.1l1.3,0.8
				C205,241.3,205.1,241.3,205.1,241.2L205.1,241.2z M181.3,227.5l1.3-0.7c0.1,0,0.1-0.1,0-0.1l-1.3-0.8c-0.1,0-0.1,0-0.2,0
				l-1.3,0.7c-0.1,0,0,0.1,0,0.1l1.3,0.8C181.2,227.6,181.3,227.6,181.3,227.5L181.3,227.5z M185.1,227.6l1.3-0.7c0.1,0,0-0.1,0-0.1
				L185,226c-0.1,0-0.1,0-0.2,0l-1.3,0.7c-0.1,0-0.1,0.1,0,0.1l1.3,0.8C185,227.6,185,227.6,185.1,227.6L185.1,227.6z M181.6,225.6
				c-0.1,0-0.1,0.1,0,0.1l1.3,0.8c0.1,0,0.1,0,0.2,0l1.3-0.7c0.1,0,0-0.1,0-0.1l-1.3-0.8c-0.1,0-0.1,0-0.2,0L181.6,225.6z
				 M182.5,224.5l-1.3-0.8c-0.1,0-0.1,0-0.2,0l-3.1,1.8c0,0,0,0.1,0,0.1l1.3,0.8c0.1,0,0.1,0,0.2,0l3.1-1.8
				C182.6,224.6,182.6,224.5,182.5,224.5L182.5,224.5z M186.7,227.1l-1.3,0.7c-0.1,0,0,0.1,0,0.1l1.3,0.8c0.1,0,0.1,0,0.2,0l1.3-0.7
				c0.1,0,0.1-0.1,0-0.1l-1.3-0.8C186.9,227.1,186.9,227.1,186.7,227.1L186.7,227.1z M201.3,235.5l-1.3,0.7c-0.1,0-0.1,0.1,0,0.1
				l1.3,0.8c0.1,0,0.1,0,0.2,0l1.3-0.7c0.1,0,0-0.1,0-0.1l-1.3-0.8C201.5,235.5,201.4,235.5,201.3,235.5L201.3,235.5z M184.5,227.9
				c0.1,0,0.1-0.1,0-0.1l-1.3-0.8c-0.1,0-0.1,0-0.2,0l-1.3,0.7c-0.1,0,0,0.1,0,0.1l1.3,0.8c0.1,0,0.1,0,0.2,0L184.5,227.9z
				 M199.4,234.4l-1.3,0.7c-0.1,0-0.1,0.1,0,0.1l1.3,0.8c0.1,0,0.1,0,0.2,0l1.3-0.7c0.1,0,0-0.1,0-0.1l-1.3-0.8
				C199.5,234.4,199.5,234.4,199.4,234.4L199.4,234.4z M216.1,246.1c0,0,0-0.1,0-0.1l-1.3-0.8c-0.1,0-0.1,0-0.2,0l-1.3,0.7
				c-0.1,0-0.1,0.1,0,0.1l1.3,0.8c0.1,0,0.1,0,0.2,0L216.1,246.1z M216.9,244.5l-1.3,0.7c0,0,0,0.1,0,0.1l1.3,0.8c0.1,0,0.1,0,0.2,0
				l1.3-0.7c0,0,0-0.1,0-0.1l-1.3-0.8C217,244.5,216.9,244.5,216.9,244.5L216.9,244.5z M212.9,245.7l1.3-0.7c0.1,0,0-0.1,0-0.1
				l-1.3-0.8c-0.1,0-0.1,0-0.2,0l-1.3,0.7c-0.1,0-0.1,0.1,0,0.1l1.3,0.8C212.7,245.8,212.8,245.8,212.9,245.7L212.9,245.7z
				 M211,244.6l1.3-0.7c0.1,0,0-0.1,0-0.1l-1.3-0.8c-0.1,0-0.1,0-0.2,0l-1.3,0.7c-0.1,0-0.1,0.1,0,0.1l1.3,0.8
				C210.9,244.6,210.9,244.6,211,244.6z M209,243.5l1.3-0.7c0.1,0,0-0.1,0-0.1l-1.3-0.8c-0.1,0-0.1,0-0.2,0l-1.3,0.7
				c-0.1,0-0.1,0.1,0,0.1l1.3,0.8C208.9,243.5,208.9,243.5,209,243.5z M214.9,243.4l-1.3,0.7c-0.1,0-0.1,0.1,0,0.1l1.3,0.8
				c0.1,0,0.1,0,0.2,0l1.3-0.7c0,0,0-0.1,0-0.1l-1.3-0.8C215.1,243.4,215,243.4,214.9,243.4L214.9,243.4z M213,242.2l-1.3,0.7
				c-0.1,0,0,0.1,0,0.1l1.3,0.8c0.1,0,0.1,0,0.2,0l1.3-0.7c0,0,0-0.1,0-0.1l-1.3-0.8C213.1,242.2,213.1,242.2,213,242.2z
				 M205.2,237.8l-1.3,0.7c-0.1,0-0.1,0.1,0,0.1l1.3,0.8c0.1,0,0.1,0,0.2,0l1.3-0.7c0,0,0-0.1,0-0.1l-1.3-0.8
				C205.4,237.7,205.3,237.7,205.2,237.8L205.2,237.8z M207.2,238.9l-1.3,0.7c-0.1,0,0,0.1,0,0.1l1.3,0.8c0.1,0,0.1,0,0.2,0l1.3-0.7
				c0.1,0,0.1-0.1,0-0.1l-1.3-0.8C207.3,238.9,207.3,238.9,207.2,238.9L207.2,238.9z M203.3,236.6l-1.3,0.7c-0.1,0-0.1,0.1,0,0.1
				l1.3,0.8c0.1,0,0.1,0,0.2,0l1.3-0.7c0,0,0-0.1,0-0.1l-1.3-0.8C203.5,236.6,203.4,236.6,203.3,236.6L203.3,236.6z M211.1,241.1
				l-1.3,0.7c-0.1,0,0,0.1,0,0.1l1.3,0.8c0.1,0,0.1,0,0.2,0l1.3-0.7c0,0,0-0.1,0-0.1l-1.3-0.8C211.2,241.1,211.1,241.1,211.1,241.1
				L211.1,241.1z M209.1,240l-1.3,0.7c-0.1,0,0,0.1,0,0.1l1.3,0.8c0.1,0,0.1,0,0.2,0l1.3-0.7c0.1,0,0.1-0.1,0-0.1l-1.3-0.8
				C209.3,240,209.2,240,209.1,240z M212,247.3l1.3-0.7c0,0,0-0.1,0-0.1l-1.3-0.8c-0.1,0-0.1,0-0.2,0l-1.3,0.7c-0.1,0,0,0.1,0,0.1
				l1.3,0.8C211.9,247.3,211.9,247.3,212,247.3z M222.1,246.9l1.3,0.8c0.1,0,0.1,0,0.2,0l1.3-0.7c0,0,0-0.1,0-0.1l-1.3-0.8
				c-0.1,0-0.1,0-0.2,0l-1.3,0.7C222,246.9,222,246.9,222.1,246.9z M219.5,247.6l2,1.2c0.1,0,0.1,0,0.2,0l1.3-0.7c0,0,0-0.1,0-0.1
				l-2-1.2c-0.1,0-0.1,0-0.2,0l-1.3,0.7C219.5,247.4,219.5,247.5,219.5,247.6z M223.9,245.5l1.6,0.9c0.1,0,0.1,0,0.2,0l1.3-0.7
				c0.1,0,0.1-0.1,0-0.1l-1.6-1c-0.1,0-0.1,0-0.2,0l-1.3,0.7C223.9,245.4,223.9,245.4,223.9,245.5z M223.9,243.9c0.1,0,0-0.1,0-0.1
				l-1.3-0.8c-0.1,0-0.1,0-0.2,0l-1.3,0.7c-0.1,0-0.1,0.1,0,0.1l1.3,0.8c0.1,0,0.1,0,0.2,0L223.9,243.9z M217.2,248.3l2.6,1.5
				c0.1,0,0.1,0,0.2,0l1.3-0.7c0,0,0-0.1,0-0.1l-2.6-1.5c-0.1,0-0.1,0-0.2,0l-1.3,0.7C217.1,248.2,217.1,248.3,217.2,248.3
				L217.2,248.3z M216.3,249.9l1.6,0.9c0.1,0,0.1,0,0.2,0l1.3-0.7c0.1,0,0.1-0.1,0-0.1l-1.6-0.9c-0.1,0-0.1,0-0.2,0l-1.3,0.7
				C216.3,249.8,216.2,249.9,216.3,249.9L216.3,249.9z M209.5,235.6c0.1,0,0-0.1,0-0.1l-1.3-0.8c-0.1,0-0.1,0-0.2,0l-1.3,0.7
				c0,0,0,0.1,0,0.1l1.3,0.8c0.1,0,0.1,0,0.2,0L209.5,235.6z M213.4,237.8c0.1,0,0-0.1,0-0.1l-1.3-0.8c-0.1,0-0.1,0-0.2,0l-1.3,0.7
				c-0.1,0-0.1,0.1,0,0.1l1.3,0.8c0.1,0,0.1,0,0.2,0L213.4,237.8z M222,242.8c0.1,0,0-0.1,0-0.1l-1.3-0.8c-0.1,0-0.1,0-0.2,0
				l-1.3,0.7c-0.1,0-0.1,0.1,0,0.1l1.3,0.8c0.1,0,0.1,0,0.2,0L222,242.8z M211.5,236.7c0.1,0,0-0.1,0-0.1l-1.3-0.8
				c-0.1,0-0.1,0-0.2,0l-1.3,0.7c0,0,0,0.1,0,0.1l1.3,0.8c0.1,0,0.1,0,0.2,0L211.5,236.7z M215.3,239c0.1,0,0-0.1,0-0.1l-1.3-0.8
				c-0.1,0-0.1,0-0.2,0l-1.3,0.7c-0.1,0-0.1,0.1,0,0.1l1.3,0.8c0.1,0,0.1,0,0.2,0L215.3,239z M214.1,250.6c0,0,0,0.1,0,0.1l2,1.2
				c0.1,0,0.1,0,0.2,0l1.3-0.7c0,0,0-0.1,0-0.1l-2-1.2c-0.1,0-0.1,0-0.2,0L214.1,250.6z M218.1,240.6c0.1,0,0-0.1,0-0.1l-1.3-0.8
				c-0.1,0-0.1,0-0.2,0l-1.3,0.7c-0.1,0-0.1,0.1,0,0.1l1.3,0.8c0.1,0,0.1,0,0.2,0L218.1,240.6z M220.1,241.7c0.1,0,0-0.1,0-0.1
				l-1.3-0.8c-0.1,0-0.1,0-0.2,0l-1.3,0.7c-0.1,0-0.1,0.1,0,0.1l1.3,0.8c0.1,0,0.1,0,0.2,0L220.1,241.7z M178.1,229.9
				c-0.1,0-0.1,0.1,0,0.1l3.3,1.9c0.1,0,0.1,0,0.2,0l1.3-0.7c0.1,0,0.1-0.1,0-0.1l-3.3-1.9c-0.1,0-0.1,0-0.2,0L178.1,229.9z
				 M182.4,232.4c-0.1,0,0,0.1,0,0.1l1.3,0.8c0.1,0,0.1,0,0.2,0l1.3-0.7c0.1,0,0.1-0.1,0-0.1l-1.3-0.8c-0.1,0-0.1,0-0.2,0
				L182.4,232.4z M210.1,246.3l1.3-0.7c0,0,0-0.1,0-0.1l-1.3-0.8c-0.1,0-0.1,0-0.2,0l-1.3,0.7c-0.1,0,0,0.1,0,0.1l1.3,0.8
				C209.9,246.3,210,246.2,210.1,246.3L210.1,246.3z M186.3,234.6c-0.1,0-0.1,0.1,0,0.1l1.3,0.8c0.1,0,0.1,0,0.2,0l1.3-0.7
				c0,0,0-0.1,0-0.1l-1.3-0.8c-0.1,0-0.1,0-0.2,0L186.3,234.6z M176.2,228.8c-0.1,0-0.1,0.1,0,0.1l1.3,0.8c0.1,0,0.1,0,0.2,0
				l1.3-0.7c0.1,0,0-0.1,0-0.1l-1.3-0.8c-0.1,0-0.1,0-0.2,0L176.2,228.8z M174.3,227.8l1.3,0.8c0.1,0,0.1,0,0.2,0l3.1-1.8
				c0.1,0,0.1-0.1,0-0.1l-1.3-0.8c-0.1,0-0.1,0-0.2,0l-3.1,1.8C174.2,227.6,174.2,227.7,174.3,227.8L174.3,227.8z M193.6,238.8
				c-0.1,0-0.1,0.1,0,0.1l1.6,0.9c0.1,0,0.1,0,0.2,0l1.3-0.7c0.1,0,0.1-0.1,0-0.1l-1.6-1c-0.1,0-0.1,0-0.2,0L193.6,238.8z
				 M188.7,236c0,0,0,0.1,0,0.1l2,1.2c0.1,0,0.1,0,0.2,0l1.3-0.7c0.1,0,0.1-0.1,0-0.1l-2-1.2c-0.1,0-0.1,0-0.2,0L188.7,236z
				 M198,241.4c-0.1,0-0.1,0.1,0,0.1l11,6.3c0.1,0,0.1,0,0.2,0l1.3-0.7c0.1,0,0-0.1,0-0.1l-10.9-6.3c-0.1,0-0.1,0-0.2,0L198,241.4z
				 M209.6,248c-0.1,0-0.1,0.1,0,0.1l1.6,0.9c0.1,0,0.1,0,0.2,0l1.3-0.7c0,0,0-0.1,0-0.1l-1.6-0.9c-0.1,0-0.1,0-0.2,0L209.6,248z
				 M195.8,240c-0.1,0,0,0.1,0,0.1l1.6,0.9c0.1,0,0.1,0,0.2,0l1.3-0.7c0.1,0,0-0.1,0-0.1l-1.6-0.9c-0.1,0-0.1,0-0.2,0L195.8,240z
				 M211.8,249.2c0,0,0,0.1,0,0.1l1.6,0.9c0.1,0,0.1,0,0.2,0l1.3-0.7c0,0,0-0.1,0-0.1l-1.6-0.9c-0.1,0-0.1,0-0.2,0L211.8,249.2z
				 M191.3,237.4c-0.1,0,0,0.1,0,0.1l1.6,0.9c0.1,0,0.1,0,0.2,0l1.3-0.7c0.1,0,0-0.1,0-0.1l-1.6-0.9c-0.1,0-0.1,0-0.2,0L191.3,237.4
				z M184.4,233.4c-0.1,0,0,0.1,0,0.1l1.3,0.8c0.1,0,0.1,0,0.2,0l1.3-0.7c0.1,0,0.1-0.1,0-0.1l-1.3-0.8c-0.1,0-0.1,0-0.2,0
				L184.4,233.4z M181.5,229.7l1.3-0.7c0.1,0,0-0.1,0-0.1l-1.3-0.8c-0.1,0-0.1,0-0.2,0l-1.3,0.7c-0.1,0-0.1,0.1,0,0.1l1.3,0.8
				C181.3,229.7,181.4,229.7,181.5,229.7L181.5,229.7z M189.4,230l1.3-0.7c0.1,0,0.1-0.1,0-0.1l-1.3-0.8c-0.1,0-0.1,0-0.2,0
				l-1.3,0.7c-0.1,0,0,0.1,0,0.1l1.3,0.8C189.2,230.1,189.3,230.1,189.4,230L189.4,230z M194.5,237.2l1.3-0.7c0.1,0,0.1-0.1,0-0.1
				l-3.9-2.2c-0.1,0-0.1,0-0.2,0l-1.3,0.7c-0.1,0,0,0.1,0,0.1l3.9,2.2C194.4,237.2,194.5,237.3,194.5,237.2L194.5,237.2z M184.7,230
				c0.1,0,0-0.1,0-0.1l-1.3-0.8c-0.1,0-0.1,0-0.2,0l-1.3,0.7c-0.1,0-0.1,0.1,0,0.1l1.3,0.8c0.1,0,0.1,0,0.2,0L184.7,230z
				 M185.2,229.7l1.3-0.7c0.1,0,0.1-0.1,0-0.1l-1.3-0.8c-0.1,0-0.1,0-0.2,0l-1.3,0.7c-0.1,0,0,0.1,0,0.1l1.3,0.8
				C185.1,229.8,185.2,229.8,185.2,229.7L185.2,229.7z M196.5,238.3l1.3-0.7c0.1,0,0.1-0.1,0-0.1l-1.3-0.8c-0.1,0-0.1,0-0.2,0
				l-1.3,0.7c-0.1,0,0,0.1,0,0.1l1.3,0.8C196.3,238.4,196.4,238.4,196.5,238.3L196.5,238.3z M189,232.5c0.1,0,0.1-0.1,0-0.1
				l-1.3-0.8c-0.1,0-0.1,0-0.2,0l-1.3,0.7c-0.1,0,0,0.1,0,0.1l1.3,0.8c0.1,0,0.1,0,0.2,0L189,232.5z M206.2,244l1.3-0.7
				c0.1,0,0.1-0.1,0-0.1l-1.3-0.8c-0.1,0-0.1,0-0.2,0l-1.3,0.7c-0.1,0,0,0.1,0,0.1l1.3,0.8C206,244,206.1,244,206.2,244z
				 M204.2,242.9l1.3-0.7c0,0,0-0.1,0-0.1l-1.3-0.8c-0.1,0-0.1,0-0.2,0l-1.3,0.7c-0.1,0-0.1,0.1,0,0.1l1.3,0.8
				C204.1,242.9,204.2,242.9,204.2,242.9L204.2,242.9z M208.1,245.1l1.3-0.7c0.1,0,0.1-0.1,0-0.1l-1.3-0.8c-0.1,0-0.1,0-0.2,0
				l-1.3,0.7c-0.1,0,0,0.1,0,0.1l1.3,0.8C208,245.1,208.1,245.1,208.1,245.1L208.1,245.1z M200.4,240.6l1.3-0.7c0.1,0,0-0.1,0-0.1
				l-1.3-0.8c-0.1,0-0.1,0-0.2,0l-1.3,0.7c-0.1,0-0.1,0.1,0,0.1l1.3,0.8C200.2,240.6,200.3,240.6,200.4,240.6L200.4,240.6z
				 M202.3,241.8l1.3-0.7c0,0,0-0.1,0-0.1l-1.3-0.8c-0.1,0-0.1,0-0.2,0l-1.3,0.7c-0.1,0-0.1,0.1,0,0.1l1.3,0.8
				C202.2,241.8,202.3,241.8,202.3,241.8L202.3,241.8z M198.4,239.5l1.3-0.7c0.1,0,0-0.1,0-0.1l-1.3-0.8c-0.1,0-0.1,0-0.2,0
				l-1.3,0.7c-0.1,0-0.1,0.1,0,0.1l1.3,0.8C198.3,239.5,198.4,239.5,198.4,239.5L198.4,239.5z M188,223.7c0,0,0-0.1,0-0.1l-1.3-0.8
				c-0.1,0-0.1,0-0.2,0l-0.3,0.2c0,0,0,0.1,0,0.1l1.3,0.8c0.1,0,0.1,0,0.2,0L188,223.7z M198.6,229.3c0.1,0,0.1-0.1,0-0.1l-1.3-0.8
				c-0.1,0-0.1,0-0.2,0l-1.3,0.7c0,0,0,0.1,0,0.1l1.3,0.8c0.1,0,0.1,0,0.2,0L198.6,229.3z M194.7,227c0.1,0,0-0.1,0-0.1l-1.3-0.8
				c-0.1,0-0.1,0-0.2,0l-1.3,0.7c0,0,0,0.1,0,0.1l1.3,0.8c0.1,0,0.1,0,0.2,0L194.7,227z M200.9,230.6c0,0,0-0.1,0-0.1l-1.3-0.8
				c-0.1,0-0.1,0-0.2,0l-1.3,0.7c0,0,0,0.1,0,0.1l1.3,0.8c0.1,0,0.1,0,0.2,0L200.9,230.6z M196.6,228.1c0,0,0-0.1,0-0.1l-1.3-0.8
				c-0.1,0-0.1,0-0.2,0l-1.3,0.7c0,0,0,0.1,0,0.1l1.3,0.8c0.1,0,0.1,0,0.2,0L196.6,228.1z M204.8,232.8c0.1,0,0-0.1,0-0.1l-1.3-0.8
				c-0.1,0-0.1,0-0.2,0l-1.3,0.7c0,0,0,0.1,0,0.1l1.3,0.8c0.1,0,0.1,0,0.2,0L204.8,232.8z M202.9,231.7c0,0,0-0.1,0-0.1l-1.3-0.8
				c-0.1,0-0.1,0-0.2,0l-1.3,0.7c0,0,0,0.1,0,0.1l1.3,0.8c0.1,0,0.1,0,0.2,0L202.9,231.7z M191.9,225.9c0,0,0-0.1,0-0.1l-1.3-0.8
				c-0.1,0-0.1,0-0.2,0l-0.3,0.2c-0.1,0,0,0.1,0,0.1l1.3,0.8c0.1,0,0.1,0,0.2,0L191.9,225.9z M186.1,222.6c0.1,0,0-0.1,0-0.1
				l-1.3-0.8c-0.1,0-0.1,0-0.2,0l-0.3,0.2c-0.1,0-0.1,0.1,0,0.1l1.3,0.8c0.1,0,0.1,0,0.2,0L186.1,222.6z M184.3,223.6
				c0.1,0,0.1-0.1,0-0.1l-1.3-0.7c-0.1,0-0.1,0-0.2,0l-1.3,0.7c-0.1,0,0,0.1,0,0.1l1.3,0.8c0.1,0,0.1,0,0.2,0L184.3,223.6z
				 M179.5,228.6l1.3-0.7c0.1,0,0-0.1,0-0.1l-1.3-0.8c-0.1,0-0.1,0-0.2,0l-1.3,0.7c-0.1,0,0,0.1,0,0.1l1.3,0.8
				C179.4,228.6,179.5,228.6,179.5,228.6L179.5,228.6z M189.9,224.8c0,0,0-0.1,0-0.1l-1.3-0.8c-0.1,0-0.1,0-0.2,0l-0.3,0.2
				c-0.1,0,0,0.1,0,0.1l1.3,0.8c0.1,0,0.1,0,0.2,0L189.9,224.8z M206.8,234c0.1,0,0-0.1,0-0.1l-1.3-0.8c-0.1,0-0.1,0-0.2,0l-1.3,0.7
				c0,0,0,0.1,0,0.1l1.3,0.8c0.1,0,0.1,0,0.2,0L206.8,234z"/>
			<polygon class="st10" points="199.7,244.7 199.5,244.9 192.2,249 179.4,241.6 179.1,241.5 186.6,237.1 			"/>
			<polygon class="st11" points="199.5,244.9 192.2,249 179.4,241.6 186.6,237.5 			"/>
			<g class="st12">
				<polygon class="st10" points="199.5,244.9 192.2,249 179.4,241.6 186.6,237.5 				"/>
			</g>
			<path class="st3" d="M236.8,243.4c-0.1,0.1-0.2,0.1-0.4,0.2C236.5,243.5,236.7,243.4,236.8,243.4l0.1-0.1
				C236.9,243.3,236.8,243.3,236.8,243.4z"/>
			<path class="st3" d="M234.7,243.5L234.7,243.5L234.7,243.5z"/>
		</g>
	</g>
	<path class="st25" d="M276.5,194.8c-0.6,0-1.2-0.1-1.7-0.4l-25.6-14.8l36.6-21.1l23.3,13.5c1.3,0.7,1.7,2.3,1,3.6
		c-0.2,0.4-0.6,0.8-1,1l-31,17.9C277.6,194.7,277.1,194.8,276.5,194.8z"/>
	<path class="st10" d="M284.8,161.1l23.5,12.4l0.5,0.8v0.6c0,0.3-0.2,0.6-0.5,0.8l-31,17.9c-0.5,0.3-1.1,0.3-1.6,0l-23-13.3v-0.6
		L284.8,161.1z"/>
	<path class="st2" d="M276.5,193.1c0.3,0,0.6-0.1,0.8-0.2l30.9-17.9c0.4-0.2,0.6-0.7,0.4-1.1c-0.1-0.2-0.2-0.3-0.4-0.4l-22.5-13
		l-33.1,19.1l23,13.3C275.9,193,276.2,193.1,276.5,193.1z"/>
	<path class="st19" d="M285.8,158.7l22.2,12.8l0.2,0.3v2.4l0,0c0,0.1-0.1,0.3-0.2,0.3l-31,17.9c-0.3,0.2-0.8,0.2-1.1,0l-22.2-12.8
		v-2.4L285.8,158.7z"/>
	<path class="st27" d="M253.7,177.2l0.3,0.2l3.6,2.1l0.7,0.4l17.6,10.1c0.3,0.2,0.8,0.2,1.1,0l31-17.9c0.2-0.1,0.3-0.3,0.2-0.4
		c0-0.1-0.1-0.2-0.2-0.2l-0.3-0.2l-21.9-12.6L254,177.1h-0.1L253.7,177.2z"/>
	<path class="st18" d="M276.5,190.2v2.4c0.2,0,0.4,0,0.5-0.1l31-17.9c0.1-0.1,0.2-0.2,0.2-0.3v-2.4c0,0.1-0.1,0.3-0.2,0.3L277,190
		C276.8,190.1,276.7,190.2,276.5,190.2z"/>
	<path class="st28" d="M253.7,176.9l4,2.3l0.6,0.4l17.6,10.1c0.3,0.2,0.8,0.2,1.1,0l27.7-16l0.7-0.4c0.9-0.5,1.7-1.2,2.2-2l0.1-0.1
		c0,0,0-0.1,0.1-0.2c0-0.3-0.1-0.5-0.4-0.6c-0.7-0.2-1.4-0.5-2.1-0.9l0,0l-19.6-11.2L253.7,176.9z"/>
	<path class="st25" d="M257.9,176.6c0.2,0.1,0.3,0.2,0.2,0.4c0,0.1-0.1,0.2-0.2,0.2c-0.3,0.1-0.7,0.1-1,0c-0.3-0.2-0.3-0.4,0-0.6
		C257.2,176.5,257.5,176.5,257.9,176.6z"/>
	<path class="st10" d="M253.8,176.3c0,0.2,0,0.3,0,0.5l0.4-0.2c0-0.1,0-0.2,0-0.3c-0.1-0.5,0.1-1,0.5-1.3c0.1-0.1,0.2-0.1,0.4-0.1
		c0.2,0,0.4,0.1,0.6,0.2c0.8,0.5,1.3,1.3,1.5,2.2c0.1,0,0.3,0,0.4,0c-0.3-1-0.9-1.9-1.7-2.5c-0.4-0.3-0.9-0.3-1.4-0.1
		C254,175.1,253.8,175.7,253.8,176.3z"/>
	<path class="st10" d="M253.9,177C253.9,177,253.9,177.1,253.9,177L253.9,177L253.9,177z"/>
	<path class="st25" d="M261,174.8c0.2,0.1,0.3,0.2,0.2,0.4c0,0.1-0.1,0.2-0.2,0.2c-0.3,0.2-0.7,0.2-1,0c-0.2-0.1-0.3-0.2-0.2-0.4
		c0-0.1,0.1-0.2,0.2-0.2C260.3,174.7,260.7,174.7,261,174.8z"/>
	<path class="st10" d="M257,174.5c0,0.2,0,0.3,0,0.5l0.4-0.2c0-0.1,0-0.2,0-0.3c-0.1-0.5,0.1-1,0.5-1.3c0.1-0.1,0.2-0.1,0.4-0.1
		c0.2,0,0.4,0.1,0.6,0.2c0.8,0.5,1.3,1.3,1.6,2.2c0.1,0,0.3,0,0.4,0c-0.3-1-0.9-2-1.8-2.5c-0.4-0.3-0.9-0.3-1.4-0.1
		C257.2,173.3,256.9,173.9,257,174.5z"/>
	<path class="st25" d="M264.1,173.1c0.2,0.1,0.3,0.2,0.2,0.4c0,0.1-0.1,0.2-0.2,0.2c-0.3,0.2-0.7,0.2-1,0c-0.2-0.1-0.3-0.2-0.2-0.4
		c0-0.1,0.1-0.2,0.2-0.2C263.4,172.9,263.8,172.9,264.1,173.1z"/>
	<path class="st10" d="M260,172.7c0,0.2,0,0.3,0,0.5l0.4-0.2c0-0.1,0-0.2,0-0.3c-0.1-0.5,0.1-1,0.5-1.3c0.1-0.1,0.2-0.1,0.4-0.1
		c0.2,0,0.4,0.1,0.6,0.2c0.8,0.5,1.3,1.3,1.5,2.2c0.1,0,0.3,0,0.4,0c-0.3-1-0.9-1.9-1.7-2.5c-0.4-0.3-0.9-0.3-1.4-0.1
		C260.3,171.5,260,172.1,260,172.7z"/>
	<path class="st25" d="M267.2,171.3c0.3,0.2,0.3,0.4,0,0.6c-0.3,0.2-0.7,0.2-1,0c-0.2-0.1-0.3-0.2-0.2-0.4c0-0.1,0.1-0.2,0.2-0.2
		C266.5,171.1,266.9,171.1,267.2,171.3z"/>
	<path class="st10" d="M263.1,170.9c0,0.2,0,0.3,0,0.5l0.4-0.2c0-0.1,0-0.2,0-0.3c-0.1-0.5,0.1-1,0.5-1.3c0.1-0.1,0.2-0.1,0.4-0.1
		c0.2,0,0.4,0.1,0.6,0.2c0.8,0.5,1.3,1.3,1.5,2.2c0.1,0,0.3,0,0.4,0c-0.3-1-0.9-1.9-1.7-2.5c-0.4-0.3-0.9-0.3-1.4-0.1
		C263.4,169.7,263.1,170.3,263.1,170.9z"/>
	<path class="st25" d="M270.3,169.5c0.3,0.2,0.3,0.4,0,0.6c-0.3,0.2-0.7,0.2-1,0c-0.3-0.2-0.3-0.4,0-0.6
		C269.6,169.3,270,169.3,270.3,169.5z"/>
	<path class="st10" d="M266.2,169.1c0,0.2,0,0.3,0,0.5l0.4-0.2c0-0.1,0-0.2,0-0.3c-0.1-0.5,0.1-1,0.5-1.3c0.1-0.1,0.2-0.1,0.4-0.1
		c0.2,0,0.4,0.1,0.6,0.2c0.8,0.5,1.3,1.3,1.5,2.2c0.1,0,0.3,0,0.4,0c-0.3-1-0.9-1.9-1.7-2.5c-0.4-0.3-0.9-0.3-1.4-0.1
		C266.5,167.9,266.2,168.5,266.2,169.1z"/>
	<path class="st25" d="M273.4,167.7c0.2,0.1,0.3,0.2,0.2,0.4c0,0.1-0.1,0.2-0.2,0.2c-0.3,0.1-0.7,0.1-1,0c-0.3-0.2-0.3-0.4,0-0.6
		C272.7,167.5,273.1,167.5,273.4,167.7z"/>
	<path class="st10" d="M269.4,167.4c0,0.2,0,0.3,0,0.5l0.4-0.2c0-0.1,0-0.2,0-0.3c-0.1-0.5,0.1-1,0.5-1.3c0.1-0.1,0.2-0.1,0.4-0.1
		c0.2,0,0.4,0.1,0.6,0.2c0.8,0.5,1.3,1.3,1.6,2.2c0.1,0,0.3,0,0.4,0c-0.3-1-0.9-1.9-1.8-2.5c-0.4-0.3-0.9-0.3-1.4-0.1
		C269.6,166.2,269.3,166.7,269.4,167.4z"/>
	<path class="st25" d="M276.5,165.9c0.2,0.1,0.3,0.2,0.2,0.4c0,0.1-0.1,0.2-0.2,0.2c-0.3,0.1-0.7,0.1-1,0c-0.2-0.1-0.3-0.2-0.2-0.4
		c0-0.1,0.1-0.2,0.2-0.2C275.8,165.7,276.2,165.7,276.5,165.9z"/>
	<path class="st10" d="M272.5,165.6c0,0.2,0,0.3,0,0.5l0.4-0.2c0-0.1,0-0.2,0-0.3c-0.1-0.5,0.1-1,0.5-1.3c0.1-0.1,0.2-0.1,0.4-0.1
		c0.2,0,0.4,0.1,0.6,0.2c0.8,0.5,1.3,1.3,1.5,2.2c0.1,0,0.3,0,0.4,0c-0.3-1-0.9-1.9-1.7-2.5c-0.4-0.3-0.9-0.3-1.4-0.1
		C272.7,164.4,272.4,165,272.5,165.6z"/>
	<path class="st25" d="M279.6,164.1c0.3,0.2,0.3,0.4,0,0.6c-0.3,0.1-0.7,0.1-1,0c-0.2-0.1-0.3-0.2-0.2-0.4c0-0.1,0.1-0.2,0.2-0.2
		C278.9,163.9,279.3,163.9,279.6,164.1z"/>
	<path class="st10" d="M275.6,163.8c0,0.2,0,0.3,0,0.5l0.4-0.2c0-0.1,0-0.2,0-0.3c-0.1-0.5,0.1-1,0.5-1.3c0.1-0.1,0.2-0.1,0.4-0.1
		c0.2,0,0.4,0.1,0.6,0.2c0.8,0.5,1.3,1.3,1.5,2.2c0.1,0,0.3,0,0.4-0.1c-0.3-1-0.9-1.9-1.7-2.5c-0.4-0.3-0.9-0.3-1.4-0.1
		C275.8,162.5,275.5,163.1,275.6,163.8z"/>
	<path class="st25" d="M282.7,162.3c0.2,0.1,0.3,0.2,0.2,0.4c0,0.1-0.1,0.2-0.2,0.2c-0.3,0.1-0.7,0.1-1,0c-0.3-0.2-0.3-0.4,0-0.6
		C282,162.1,282.4,162.1,282.7,162.3z"/>
	<path class="st10" d="M278.7,162c0,0.2,0,0.3,0,0.5l0.4-0.2c0-0.1,0-0.2,0-0.3c-0.1-0.5,0.1-1,0.5-1.3c0.1-0.1,0.2-0.1,0.4-0.1
		c0.2,0,0.4,0.1,0.6,0.2c0.8,0.5,1.3,1.3,1.5,2.2c0.1,0,0.3,0,0.4-0.1c-0.3-1-0.9-1.9-1.7-2.5c-0.4-0.3-0.9-0.3-1.4-0.1
		C278.9,160.8,278.6,161.4,278.7,162z"/>
	<path class="st25" d="M285.8,160.5c0.2,0.1,0.3,0.2,0.2,0.4c0,0.1-0.1,0.2-0.2,0.2c-0.3,0.2-0.7,0.2-1,0c-0.2-0.1-0.3-0.2-0.2-0.4
		c0-0.1,0.1-0.2,0.2-0.2C285.1,160.3,285.5,160.3,285.8,160.5z"/>
	<path class="st10" d="M281.8,160.2c0,0.2,0,0.3,0,0.5l0.4-0.2c0-0.1,0-0.2,0-0.3c-0.1-0.5,0.1-1,0.5-1.3c0.1-0.1,0.2-0.1,0.4-0.1
		c0.2,0,0.4,0.1,0.6,0.2c0.8,0.5,1.3,1.3,1.6,2.2c0.1,0,0.3,0,0.4,0c-0.3-1-0.9-1.9-1.7-2.5c-0.4-0.3-0.9-0.3-1.4-0.1
		C282,159,281.7,159.6,281.8,160.2z"/>
	<path class="st19" d="M279.6,186.5c0,0-0.1,0-0.1,0l-17.1-9.9c-0.1-0.1-0.2-0.2-0.1-0.4c0,0,0,0,0,0c0.1-0.1,0.3-0.2,0.4-0.1
		l17.1,9.9c0.1,0.1,0.2,0.2,0.1,0.4c0,0,0,0,0,0C279.8,186.4,279.7,186.5,279.6,186.5z"/>
	<path class="st19" d="M281.6,185.3c0,0-0.1,0-0.1,0l-17.1-9.9c-0.1-0.1-0.2-0.2-0.1-0.4c0,0,0,0,0,0c0.1-0.1,0.2-0.2,0.4-0.1
		l17.1,9.9c0.1,0.1,0.2,0.2,0.1,0.4c0,0,0,0,0,0C281.8,185.2,281.7,185.3,281.6,185.3z"/>
	<path class="st19" d="M283.7,184.1c0,0-0.1,0-0.1,0l-17.1-9.9c-0.1-0.1-0.2-0.2-0.1-0.4c0.1-0.1,0.2-0.2,0.4-0.1l0,0l17.1,9.9
		c0.1,0.1,0.2,0.2,0.1,0.4c0,0,0,0,0,0C283.9,184.1,283.8,184.1,283.7,184.1z"/>
	<path class="st19" d="M285.8,182.9c0,0-0.1,0-0.1,0l-17.1-9.9c-0.1-0.1-0.2-0.2-0.1-0.4c0,0,0,0,0,0c0.1-0.1,0.2-0.2,0.4-0.1
		c0,0,0,0,0,0l17.1,9.9c0.1,0.1,0.2,0.2,0.1,0.4c0,0,0,0,0,0C286,182.8,285.9,182.9,285.8,182.9z"/>
	<path class="st19" d="M287.9,181.7c0,0-0.1,0-0.1,0l-17.1-9.9c-0.1-0.1-0.2-0.3-0.1-0.4c0.1-0.1,0.3-0.2,0.4-0.1l17.1,9.8
		c0.1,0.1,0.2,0.3,0.1,0.4C288.1,181.6,288,181.7,287.9,181.7z"/>
	<path class="st19" d="M289.9,180.5c0,0-0.1,0-0.1,0l-17.1-9.9c-0.1-0.1-0.2-0.3-0.1-0.4c0.1-0.1,0.2-0.2,0.4-0.1c0,0,0,0,0,0
		l17.1,9.9c0.1,0.1,0.2,0.3,0.1,0.4C290.1,180.5,290,180.5,289.9,180.5z"/>
	<path class="st19" d="M292,179.3c0,0-0.1,0-0.1,0l-17.1-9.9c-0.1-0.1-0.2-0.3-0.1-0.4c0.1-0.1,0.3-0.2,0.4-0.1l17.1,9.9
		c0.1,0.1,0.2,0.3,0.1,0.4C292.2,179.3,292.1,179.3,292,179.3z"/>
	<path class="st19" d="M294.1,178.1c0,0-0.1,0-0.1,0l-17.1-9.9c-0.1-0.1-0.2-0.2-0.1-0.4c0,0,0,0,0,0c0.1-0.1,0.3-0.2,0.4-0.1
		l17.1,9.9c0.1,0.1,0.2,0.2,0.1,0.4c0,0,0,0,0,0C294.3,178.1,294.2,178.1,294.1,178.1z"/>
	<path class="st19" d="M296.1,176.9c0,0-0.1,0-0.1,0l-17.1-9.9c-0.1-0.1-0.2-0.2-0.1-0.4c0.1-0.1,0.2-0.2,0.4-0.1l0,0l17.1,9.9
		c0.1,0.1,0.2,0.2,0.1,0.4c0,0,0,0,0,0C296.3,176.8,296.2,176.9,296.1,176.9z"/>
	<path class="st19" d="M298.2,175.7c0,0-0.1,0-0.1,0l-17.1-9.9c-0.1-0.1-0.2-0.2-0.1-0.4c0.1-0.1,0.2-0.2,0.4-0.1l0,0l17.1,9.9
		c0.1,0.1,0.2,0.3,0.1,0.4C298.4,175.7,298.3,175.7,298.2,175.7z"/>
	<path class="st19" d="M300.3,174.5c0,0-0.1,0-0.1,0l-17.1-9.9c-0.1-0.1-0.2-0.2-0.1-0.4c0,0,0,0,0,0c0.1-0.1,0.3-0.2,0.4-0.1
		l17.1,9.8c0.1,0.1,0.2,0.2,0.1,0.4c0,0,0,0,0,0C300.5,174.5,300.4,174.5,300.3,174.5z"/>
	<path class="st19" d="M302.3,173.3c0,0-0.1,0-0.1,0l-17.1-9.9c-0.1-0.1-0.2-0.3-0.1-0.4c0.1-0.1,0.2-0.2,0.4-0.1c0,0,0,0,0,0
		l17.1,9.9c0.1,0.1,0.2,0.3,0.1,0.4C302.5,173.3,302.4,173.3,302.3,173.3z"/>
	<path class="st19" d="M304.4,172.1c0,0-0.1,0-0.1,0l-17.1-9.9c-0.1-0.1-0.2-0.3-0.1-0.4c0.1-0.1,0.2-0.2,0.4-0.1c0,0,0,0,0,0
		l17.1,9.9c0.1,0.1,0.2,0.3,0.1,0.4C304.6,172.1,304.5,172.1,304.4,172.1z"/>
	<path class="st6" d="M277.5,187.7c0,0-0.1,0-0.1,0l-18.1-10.4c-0.1-0.1-0.2-0.2-0.1-0.4c0.1-0.1,0.2-0.2,0.4-0.1c0,0,0,0,0,0
		l18.1,10.4c0.1,0.1,0.2,0.2,0.1,0.4c0,0,0,0,0,0C277.7,187.6,277.6,187.7,277.5,187.7z"/>
	<g class="st29">
		<path class="st2" d="M268.9,175.1c0.4-0.2,0.7-0.5,0.9-0.9c0.1-0.1,0.2-0.1,0.4-0.1c0.5,0.1,0.1,0.3,0,0.4s0,0.1,0.1,0.1
			c0.4-0.1,1.2-0.3,1,0.3c0,0,0,0.1,0,0.1c0.1,0,0.6,0.1,0.5,0.2c0,0,0,0.1,0,0.1c0,0,0,0,0,0c0.4,0,0.7,0,1.1,0
			c0.2,0,0.3,0,0.5,0.1c0.1,0.1-0.1,0.4-0.1,0.5c0,0,0,0.1,0,0.1c0,0,0,0,0,0c0.2,0.1,0.3,0.2,0.2,0.4c0,0,0,0.1,0,0.1c0,0,0,0,0,0
			c0.5,0.1,1.3-0.3,1.5,0.3c0.1,0.3,0,0.4,0.5,0.4c0.1,0,0.1-0.2,0-0.2c-0.5,0-0.1-0.5-0.4-0.7s-0.9,0.2-1.2,0s0-0.2-0.1-0.4
			c0-0.1-0.2,0-0.2-0.1s-0.1-0.1-0.1-0.1c0,0,0-0.1,0-0.1c0-0.1,0.1-0.1,0.1-0.1c0.1-0.5-0.7-0.4-1.1-0.4c-0.2,0-0.4,0-0.6,0
			c0,0,0-0.1,0-0.1s-0.5-0.2-0.5-0.2s0.1-0.2,0-0.3c-0.1-0.3-0.7-0.1-0.9-0.1h-0.2c0.1,0,0.1-0.1,0.1-0.1c0-0.1,0-0.1,0-0.2
			s-0.2-0.2-0.3-0.2c-0.2,0-0.3,0-0.5,0.1c0.1-0.1,0.1-0.3,0.1-0.5c-0.1-0.5-0.7-0.1-1,0c-0.1,0-0.1,0.2,0,0.1
			c0.2-0.1,0.4-0.2,0.7-0.2c0.3,0.1,0.1,0.5-0.1,0.7l-0.3,0.2c-0.3,0.1-0.5,0.2-0.7,0.4C268.2,175.1,268.5,175.2,268.9,175.1z
			 M269,174.5l0.3-0.1c-0.1,0.2-0.3,0.4-0.4,0.5c0,0-0.4,0.1-0.3,0C268.7,174.7,268.9,174.6,269,174.5z"/>
		<path class="st2" d="M276.2,179.2C276.2,179.2,276.2,179.2,276.2,179.2c0.4,0.2,0.8-0.3,0.9-0.7c0.1,0,0.5-0.1,0.5,0.2
			c0,0-0.1,0.2-0.1,0.2s0,0.1,0.1,0.1c0.2,0,0.9-0.3,0.8,0.1c0,0,0,0.1,0,0.1c0.2,0.1,0.6-0.1,0.6,0.2c0,0.1-0.2,0.2-0.1,0.4
			s0.3,0.1,0.5,0s0.2-0.1,0.2-0.1s0,0.1,0,0.1s0,0.1,0.1,0.1s0.1,0,0.2,0s0.1-0.1,0.1-0.1c0.1,0,0.2,0,0.3,0.1c0,0,0.4,0.2,0.4,0.1
			c0.1,0.1-0.2,0.3-0.1,0.5s0.7,0,0.9,0s0.1-0.2,0-0.2h-0.4c-0.4-0.1-0.3-0.3-0.2-0.4s0-0.1-0.1-0.1c-0.2,0-0.4-0.2-0.6-0.2
			c-0.1,0-0.2,0.1-0.3,0.1c-0.3,0-0.1-0.1-0.1-0.3c0,0,0-0.1-0.1-0.1c0,0,0,0,0,0c-0.2,0.1-0.6,0.4-0.6,0c0-0.1,0.2-0.2,0.2-0.2
			s-0.1-0.2-0.2-0.3c-0.1,0-0.2,0-0.4,0.1c-0.4,0.1-0.1,0-0.2-0.1c-0.1-0.1-0.3-0.2-0.4-0.1c-0.1,0-0.2,0-0.3,0
			c-0.2-0.1-0.1,0-0.1-0.2s0.1-0.2,0-0.3s-0.2-0.2-0.4-0.2c-0.1,0-0.3,0.1-0.4,0.1c0-0.3,0-0.6-0.4-0.6c-0.1,0-0.2,0.1,0,0.2
			s0.2,0.3,0.1,0.6C276.6,178.6,276.2,178.9,276.2,179.2z M276.6,178.9c0.1-0.1,0.2-0.2,0.3-0.3v0.1
			C276.8,178.8,276.5,179.1,276.6,178.9L276.6,178.9z"/>
		<path class="st2" d="M271.2,181.2c0.4-0.2,0.7-0.5,0.9-0.9c0.1-0.1,0.3-0.1,0.4-0.1c0.5,0.1,0.1,0.3,0,0.4c0,0,0,0.1,0,0.1
			c0,0,0,0,0.1,0c0.4-0.1,1.2-0.3,1,0.3c0,0,0,0.1,0,0.1c0,0,0,0,0,0c0.1,0,0.6,0.1,0.5,0.2c0,0,0,0.1,0,0.1c0,0,0,0,0,0
			c0.4,0,0.7,0,1.1,0c0.2,0,0.3,0,0.5,0.1c0.1,0.1-0.1,0.4-0.1,0.5c0,0,0,0.1,0,0.1c0,0,0,0,0,0c0.2,0.1,0.3,0.2,0.2,0.4
			c0,0,0,0.1,0,0.1c0,0,0,0,0,0c0.5,0.1,1.3-0.3,1.5,0.3c0.1,0.3,0,0.4,0.5,0.4c0.1,0,0.1-0.2,0-0.2c-0.5,0-0.1-0.5-0.4-0.7
			s-0.9,0.2-1.2,0s0-0.2-0.1-0.4c0,0-0.2,0-0.2-0.1s0.1-0.1,0.1-0.1c0,0,0-0.1,0-0.1c0-0.1,0-0.1,0.1-0.1c0.1-0.5-0.7-0.4-1.1-0.4
			c-0.2,0-0.4,0-0.6,0c0,0,0-0.1,0-0.1s-0.5-0.2-0.5-0.2s0.1-0.2,0.1-0.3c-0.1-0.3-0.7-0.1-0.9-0.1h-0.2c0.1,0,0.1-0.1,0.1-0.1
			c0-0.1,0-0.1,0-0.2s-0.2-0.2-0.3-0.2c-0.2,0-0.3,0-0.5,0.1c0.1-0.1,0.1-0.3,0.1-0.5c-0.1-0.5-0.7-0.1-1,0c-0.1,0-0.1,0.2,0,0.1
			s0.5-0.2,0.7-0.2s0.1,0.5-0.1,0.7l-0.3,0.2c-0.3,0.1-0.5,0.2-0.7,0.4C270.5,181.2,270.9,181.4,271.2,181.2z M271.4,180.6l0.3-0.1
			c-0.1,0.2-0.3,0.3-0.4,0.5c0,0-0.4,0.1-0.3,0C271.1,180.8,271.2,180.7,271.4,180.6z"/>
		<path class="st2" d="M264.8,177.4C264.8,177.4,264.8,177.4,264.8,177.4c0.5,0.2,0.8-0.3,1-0.8c0.1,0,0.5-0.1,0.5,0.2
			c0,0.1-0.1,0.2-0.1,0.2c0,0.1,0,0.1,0.1,0.1c0.2,0,0.9-0.3,0.8,0.1c0,0,0,0.1,0,0.1c0.2,0.1,0.6-0.1,0.6,0.2
			c0,0.1-0.2,0.3-0.1,0.4s0.3,0,0.5,0s0.2-0.1,0.2-0.1s0,0.1,0,0.1s0.1,0.1,0.1,0.1s0.1,0,0.2,0s0.1-0.1,0.1-0.1
			c0.1,0,0.2,0,0.3,0.1c0,0,0.4,0.2,0.4,0.1c0.1,0.1-0.2,0.3-0.1,0.5s0.7,0,0.9,0s0.1-0.2,0-0.2s-0.4,0.1-0.4,0.1
			c-0.4-0.1-0.3-0.3-0.2-0.4s0-0.1-0.1-0.1c-0.2,0-0.4-0.2-0.6-0.2s-0.2,0.1-0.3,0.1c-0.3,0-0.1-0.1-0.1-0.3c0,0,0-0.1-0.1-0.1
			c0,0,0,0,0,0c-0.2,0.1-0.6,0.4-0.6,0c0,0,0.2-0.2,0.2-0.2s-0.1-0.2-0.2-0.3c-0.1,0-0.2,0-0.4,0.1c-0.5,0.1-0.1,0-0.2-0.1
			c-0.1-0.1-0.3-0.2-0.4-0.1c-0.1,0-0.2,0-0.3,0c-0.2-0.1-0.1,0-0.1-0.2s0.1-0.2,0-0.3s-0.2-0.2-0.4-0.2c-0.1,0-0.3,0.1-0.4,0.1
			c0-0.3-0.1-0.6-0.4-0.6c-0.1,0-0.2,0.1,0,0.2s0.2,0.3,0.2,0.5C265.2,176.7,264.8,177.1,264.8,177.4z M265.2,177.1
			c0.1-0.1,0.2-0.2,0.3-0.3c0,0,0,0.1-0.1,0.1C265.4,177,265.1,177.3,265.2,177.1z"/>
		<path class="st2" d="M281.5,168.1c0.4-0.2,0.7-0.5,0.9-0.9c0.1-0.1,0.3-0.1,0.4-0.1c0.5,0.1,0.1,0.3,0,0.4c0,0,0,0.1,0.1,0.1
			c0,0,0,0,0,0c0.4-0.1,1.2-0.3,1,0.3c0,0,0,0.1,0,0.1c0,0,0,0,0,0c0.1,0,0.6,0.1,0.5,0.2c0,0,0,0.1,0.1,0.1c0,0,0,0,0,0
			c0.4,0,0.7,0,1.1,0c0.2,0,0.3,0,0.5,0.1c0.1,0.1-0.1,0.4-0.1,0.5c0,0,0,0.1,0,0.1c0,0,0,0,0,0c0.2,0.1,0.3,0.2,0.2,0.4
			c0,0,0,0.1,0,0.1c0,0,0,0,0,0c0.5,0.1,1.3-0.3,1.5,0.3c0.1,0.4,0,0.4,0.5,0.4c0.1,0,0.1-0.1,0-0.1c-0.5,0-0.1-0.5-0.4-0.7
			s-0.9,0.2-1.2,0s0-0.2-0.1-0.4s-0.2,0-0.2-0.1s-0.1-0.1-0.1-0.1c0,0,0-0.1,0-0.1c0-0.1,0-0.1,0.1-0.1c0.1-0.5-0.7-0.4-1.1-0.4
			c-0.1,0-0.6,0-0.6,0s0-0.1,0-0.1s-0.5-0.2-0.5-0.2s0.1-0.2,0.1-0.3c-0.1-0.3-0.7-0.1-0.9-0.1H283c0.1,0,0.1-0.1,0.1-0.1
			c0-0.1,0-0.1,0-0.2s-0.2-0.2-0.3-0.2c-0.2,0-0.3,0-0.5,0.1c0.1-0.1,0.1-0.3,0.1-0.5c-0.1-0.5-0.7-0.1-1,0c-0.1,0-0.1,0.2,0,0.1
			s0.5-0.2,0.7-0.2s0.1,0.5-0.1,0.7c-0.1,0.1-0.2,0.1-0.3,0.2c-0.3,0.1-0.5,0.2-0.7,0.4C280.8,168.2,281.1,168.3,281.5,168.1z
			 M281.7,167.6l0.3-0.1c-0.1,0.2-0.3,0.4-0.4,0.5c0,0-0.4,0.1-0.3,0C281.3,167.7,281.5,167.6,281.7,167.6z"/>
		<path class="st2" d="M288.8,172.2C288.8,172.3,288.9,172.3,288.8,172.2c0.5,0.2,0.8-0.3,1-0.8c0.1,0,0.5-0.1,0.5,0.2
			c0,0.1-0.1,0.2-0.1,0.2c0,0,0,0.1,0.1,0.1c0,0,0,0,0,0c0.2,0,0.9-0.3,0.8,0.1c0,0,0,0.1,0,0.1c0.2,0.1,0.6-0.1,0.6,0.2
			c0,0.1-0.2,0.2-0.1,0.4s0.3,0,0.5,0s0.2-0.1,0.2-0.1s0,0.1,0,0.1s0.1,0.1,0.1,0.1s0.1,0,0.2,0s0.1-0.1,0.1-0.1
			c0.1,0,0.2,0,0.3,0.1c0,0,0.4,0.2,0.4,0.1c0.1,0.1-0.2,0.3,0,0.4s0.7,0,0.9,0s0.1-0.2,0-0.2H294c-0.4-0.2-0.3-0.3-0.2-0.4
			c0,0,0-0.1,0-0.1c0,0,0,0-0.1,0c-0.2,0-0.4-0.2-0.6-0.2c-0.1,0-0.2,0.1-0.3,0.1c-0.3,0-0.1-0.1-0.2-0.3c0,0,0-0.1-0.1-0.1
			c0,0,0,0,0,0c-0.2,0.1-0.6,0.4-0.6,0c0,0,0.2-0.2,0.2-0.2s-0.1-0.2-0.2-0.3c-0.1,0-0.2,0-0.4,0c-0.5,0.1-0.1,0-0.2-0.1
			s-0.2-0.1-0.4-0.1c-0.1,0-0.2,0-0.3,0c-0.2-0.1-0.1,0-0.1-0.2s0.1-0.2,0-0.3s-0.2-0.2-0.4-0.2c-0.1,0-0.3,0.1-0.4,0.1
			c0-0.3-0.1-0.6-0.4-0.6c-0.1,0-0.2,0.2,0,0.2s0.2,0.3,0.2,0.6C289.2,171.6,288.9,171.9,288.8,172.2z M289.2,171.9
			c0.1-0.1,0.2-0.2,0.3-0.3c0,0,0,0.1-0.1,0.1C289.4,171.8,289.1,172.2,289.2,171.9L289.2,171.9z"/>
		<path class="st2" d="M283.8,174.2c0.4-0.2,0.7-0.5,0.9-0.9c0.1-0.1,0.2-0.1,0.4-0.1c0.5,0.1,0.1,0.3,0,0.4c0,0,0,0.1,0,0.1
			c0,0,0,0,0,0c0.4-0.1,1.2-0.3,1,0.3c0,0,0,0.1,0,0.1c0,0,0,0,0,0c0.1,0,0.6,0.1,0.5,0.2c0,0,0,0.1,0.1,0.1c0,0,0,0,0,0
			c0.4,0,0.7,0,1.1,0c0.2,0,0.3,0,0.5,0.1c0.1,0.1-0.1,0.4-0.1,0.5c0,0,0,0.1,0,0.1c0,0,0,0,0,0c0.2,0.1,0.3,0.2,0.2,0.4
			c0,0,0,0.1,0,0.1c0,0,0,0,0,0c0.5,0.1,1.3-0.3,1.5,0.3c0.1,0.4,0,0.4,0.5,0.4c0.1,0,0.1-0.1,0-0.1c-0.5,0-0.1-0.5-0.4-0.7
			s-0.9,0.2-1.2,0s0-0.2-0.1-0.4c0,0-0.2,0-0.2-0.1s-0.1-0.1-0.1-0.1s0-0.1,0-0.1s0.1-0.1,0.1-0.1c0.1-0.5-0.7-0.4-1.1-0.4
			c-0.1,0-0.5,0-0.6,0s0-0.1,0-0.1s-0.5-0.2-0.5-0.2s0.1-0.2,0-0.3c-0.1-0.3-0.7-0.1-0.9-0.1h-0.2c0.1,0,0.1-0.1,0.1-0.1
			c0-0.1,0-0.1,0-0.2s-0.2-0.2-0.3-0.2c-0.2,0-0.3,0-0.5,0.1c0.1-0.1,0.1-0.3,0.1-0.5c-0.1-0.5-0.7-0.1-1,0c-0.1,0-0.1,0.2,0,0.1
			s0.5-0.2,0.7-0.2s0.1,0.5-0.1,0.7l-0.3,0.2c-0.3,0.1-0.5,0.2-0.7,0.4C283.1,174.3,283.5,174.4,283.8,174.2z M284,173.7l0.3-0.1
			c-0.1,0.2-0.3,0.4-0.4,0.5c0,0-0.4,0.1-0.3,0C283.7,173.9,283.8,173.7,284,173.7z"/>
		<path class="st2" d="M277.4,170.4C277.4,170.4,277.4,170.5,277.4,170.4c0.4,0.2,0.8-0.3,1-0.7c0.1,0,0.5-0.1,0.5,0.2
			c0,0-0.1,0.2-0.1,0.2s0,0.1,0.1,0.1c0.2,0,0.9-0.3,0.8,0.1c0,0,0,0.1,0,0.1c0.2,0.1,0.6-0.1,0.6,0.2c0,0.1-0.2,0.2-0.1,0.4
			s0.3,0,0.5,0s0.2-0.1,0.2-0.1s0,0.1,0,0.1s0,0.1,0.1,0.1s0.1,0,0.2,0s0.1-0.1,0.1-0.1c0.1,0,0.2,0,0.3,0.1c0,0,0.4,0.2,0.4,0.1
			c0.1,0.1-0.2,0.3-0.1,0.4s0.7,0,0.9,0s0.1-0.2,0-0.2l-0.4,0.1c-0.4-0.1-0.3-0.3-0.2-0.4s0-0.1-0.1-0.1c-0.2,0-0.4-0.2-0.6-0.2
			c-0.1,0-0.2,0.1-0.3,0.1c-0.3,0-0.1-0.1-0.1-0.3c0,0,0-0.1-0.1-0.1c0,0,0,0,0,0c-0.2,0.1-0.6,0.4-0.6,0c0-0.1,0.2-0.2,0.2-0.2
			s-0.1-0.2-0.2-0.3c-0.1,0-0.2,0-0.4,0c-0.4,0.1-0.1,0-0.2-0.1s-0.2-0.1-0.4-0.1c-0.1,0-0.2,0-0.3,0c-0.2-0.1-0.1,0-0.1-0.2
			s0.1-0.2,0-0.3s-0.2-0.2-0.4-0.2c-0.1,0-0.3,0.1-0.4,0.1c0-0.3,0-0.6-0.4-0.6c-0.1,0-0.2,0.1,0,0.2s0.2,0.3,0.2,0.6
			C277.8,169.8,277.4,170.1,277.4,170.4z M277.8,170.1c0-0.1,0.1-0.2,0.3-0.3l0,0.1C278,170,277.7,170.3,277.8,170.1L277.8,170.1z"
			/>
		<path class="st2" d="M282.5,178.4c0.4-0.2,0.7-0.5,0.9-0.9c0.1-0.1,0.3-0.1,0.4-0.1c0.5,0.1,0.1,0.3,0,0.4c0,0,0,0.1,0,0.1
			c0,0,0,0,0.1,0c0.4-0.1,1.2-0.3,1,0.3c0,0,0,0.1,0,0.1s0.6,0.1,0.5,0.2c0,0,0,0.1,0,0.1c0,0,0,0,0,0c0.4,0,0.7,0,1.1,0
			c0.2,0,0.3,0,0.5,0.1c0.1,0.1-0.1,0.4-0.1,0.5c0,0,0,0.1,0,0.1c0,0,0,0,0,0c0.2,0.1,0.3,0.2,0.2,0.4c0,0,0,0.1,0,0.1c0,0,0,0,0,0
			c0.5,0.1,1.3-0.3,1.5,0.3c0.1,0.4,0,0.4,0.5,0.4c0.1,0,0.1-0.2,0-0.2c-0.5,0-0.1-0.5-0.4-0.7s-0.9,0.2-1.2,0s0-0.2-0.1-0.4
			c0,0-0.2,0-0.2-0.1s-0.1-0.1-0.1-0.1c0,0,0-0.1,0-0.1c0-0.1,0-0.1,0.1-0.1c0.1-0.5-0.7-0.4-1.1-0.4c-0.2,0-0.4,0-0.6,0
			c0,0,0-0.1,0-0.1s-0.5-0.2-0.5-0.2s0.1-0.2,0.1-0.3c-0.1-0.3-0.7-0.1-0.9-0.1H284c0.1,0,0.1-0.1,0.1-0.1c0-0.1,0-0.1,0-0.2
			c0-0.2-0.2-0.2-0.3-0.2c-0.2,0-0.3,0-0.5,0.1c0.1-0.1,0.1-0.3,0.1-0.5c-0.1-0.5-0.7-0.1-1,0c-0.1,0-0.1,0.2,0,0.1s0.5-0.2,0.7-0.2
			s0.1,0.5-0.1,0.7c-0.1,0.1-0.2,0.1-0.3,0.2c-0.3,0.1-0.5,0.2-0.7,0.4C281.9,178.5,282.2,178.6,282.5,178.4z M282.7,177.9l0.2-0.1
			c-0.1,0.2-0.3,0.3-0.4,0.5c0,0-0.4,0.1-0.3,0C282.4,178.1,282.5,178,282.7,177.9L282.7,177.9z"/>
		<path class="st2" d="M277.2,175C277.2,175,277.2,175.1,277.2,175c0.5,0.2,0.8-0.3,1-0.8c0.1,0,0.5-0.1,0.5,0.2
			c0,0.1-0.1,0.2-0.1,0.2c0,0.1,0,0.1,0.1,0.1c0.2,0,0.9-0.3,0.8,0.1c0,0,0,0.1,0,0.1c0.2,0.1,0.6-0.1,0.6,0.2s-0.2,0.3-0.1,0.4
			s0.3,0,0.5,0s0.2-0.1,0.2-0.1s0,0.1,0,0.1s0.1,0.1,0.1,0.1s0.1,0,0.2,0s0.1-0.1,0.1-0.1c0.1,0,0.2,0,0.3,0.1c0,0,0.4,0.2,0.4,0.1
			c0.1,0.1-0.2,0.3-0.1,0.4s0.7,0,0.9,0s0.1-0.2,0-0.2l-0.4,0.1c-0.4-0.2-0.3-0.3-0.2-0.4c0,0,0-0.1,0-0.1c0,0,0,0,0,0
			c-0.2,0-0.4-0.2-0.6-0.2s-0.2,0.1-0.3,0.1c-0.3,0-0.1-0.1-0.1-0.3s0-0.1-0.1-0.1s-0.6,0.4-0.6,0c0-0.1,0.2-0.2,0.2-0.2
			s-0.1-0.2-0.2-0.3c-0.1,0-0.2,0-0.4,0c-0.5,0.1-0.1,0-0.2-0.1c-0.1-0.1-0.3-0.2-0.4-0.1c-0.1,0-0.2,0-0.3,0
			c-0.2-0.1-0.1,0-0.1-0.1s0.1-0.2,0-0.3s-0.2-0.2-0.4-0.2c-0.1,0-0.3,0.1-0.4,0.1c0-0.3-0.1-0.6-0.4-0.6c-0.1,0-0.2,0.1,0,0.2
			s0.2,0.3,0.2,0.6C277.6,174.4,277.2,174.7,277.2,175z M277.6,174.7c0.1-0.1,0.2-0.2,0.3-0.3c0,0,0,0.1-0.1,0.1
			C277.8,174.6,277.5,174.9,277.6,174.7z"/>
		<path class="st2" d="M273.2,171.1c0,0.2,0,0.3,0,0.5c0,0,0,0.1,0.1,0.1c0.2,0,0.9-0.3,0.8,0.1c0,0,0,0.1,0,0.1
			c0.2,0.1,0.6-0.1,0.6,0.2c0,0.1-0.2,0.2-0.1,0.4s0.3,0,0.5,0s0.2-0.1,0.2-0.1s0,0.1,0,0.1s0,0.1,0.1,0.1s0.1,0,0.2,0
			s0.1-0.1,0.1-0.1c0.1,0,0.2,0,0.3,0.1c0,0,0.4,0.2,0.4,0.1c0.1,0.1-0.2,0.3-0.1,0.4s0.7,0,0.9,0s0.1-0.2,0-0.2l-0.4,0.1
			c-0.4-0.2-0.3-0.3-0.2-0.4s0-0.1-0.1-0.1c-0.2,0-0.4-0.2-0.6-0.2s-0.3,0.1-0.3,0.1c-0.3,0-0.1-0.1-0.1-0.3c0,0-0.1-0.1-0.1-0.1
			s-0.6,0.4-0.6,0c0-0.1,0.2-0.2,0.2-0.2s-0.1-0.2-0.2-0.3c-0.1,0-0.2,0-0.4,0.1c-0.4,0.1-0.1,0-0.2-0.1s-0.2-0.1-0.4-0.1
			c-0.1,0-0.2,0-0.3,0c-0.2-0.1-0.1,0-0.1-0.2s0.1-0.2,0-0.3s-0.3-0.3-0.4-0.1c0,0,0,0.1,0,0.1C273.2,171,273.2,171,273.2,171.1z"/>
	</g>
	<g id="freepik--Papers--inject-19">
		<path id="freepik--shadow--inject-19_00000008839892378822943280000005938452031847685550_" class="st30" d="M250.5,291.7
			c-0.5,0-0.9-0.1-1.4-0.3l-22.9-13.2c-0.6-0.2-0.9-0.9-0.6-1.5c0.1-0.3,0.3-0.5,0.6-0.6l4.1-2.4l-2-1.1c-0.4-0.2-0.7-0.6-0.7-1
			c0-0.4,0.3-0.8,0.7-1l33.7-19.5c0.9-0.5,1.9-0.5,2.7,0l22.9,13.2c0.4,0.2,0.7,0.6,0.7,1c0,0.5-0.3,0.9-0.7,1l-4.1,2.4l2,1.1
			c0.4,0.2,0.7,0.6,0.7,1c0,0.4-0.3,0.8-0.7,1l-33.7,19.4C251.4,291.5,251,291.7,250.5,291.7z"/>
		<path class="st19" d="M285.8,269.1c0-0.3-0.2-0.5-0.5-0.7l-22.9-13.2c-0.7-0.4-1.6-0.4-2.3,0l-33.7,19.4c-0.3,0.1-0.4,0.4-0.5,0.7
			v1c0,0.3,0.2,0.5,0.5,0.7l22.9,13.2c0.7,0.4,1.6,0.4,2.3,0l33.7-19.4c0.3-0.1,0.5-0.4,0.5-0.6L285.8,269.1z"/>
		<path class="st22" d="M226.5,274.7l33.7-19.4c0.7-0.4,1.6-0.4,2.3,0l22.9,13.2c0.4,0.1,0.6,0.5,0.5,0.9c-0.1,0.2-0.2,0.4-0.5,0.5
			l-33.6,19.4c-0.7,0.4-1.6,0.4-2.3,0L226.5,276c-0.4-0.1-0.6-0.5-0.4-0.9C226.1,274.9,226.3,274.7,226.5,274.7z"/>
		<path class="st18" d="M250.5,289.5v1c-0.4,0-0.8-0.1-1.1-0.3L226.5,277c-0.3-0.1-0.5-0.4-0.5-0.7v-1c0,0.3,0.2,0.5,0.5,0.7
			l22.9,13.2C249.7,289.4,250.1,289.5,250.5,289.5z"/>
		<path class="st19" d="M287.9,263.5c0-0.3-0.2-0.5-0.5-0.7l-22.9-13.2c-0.7-0.4-1.6-0.4-2.3,0l-33.6,19.4c-0.3,0.1-0.5,0.4-0.5,0.7
			v1c0,0.3,0.2,0.5,0.5,0.7l22.9,13.2c0.7,0.4,1.6,0.4,2.3,0l33.7-19.4c0.3-0.1,0.4-0.4,0.5-0.6L287.9,263.5z"/>
		<path class="st22" d="M228.6,269.1l33.6-19.4c0.7-0.4,1.6-0.4,2.3,0l22.9,13.2c0.4,0.1,0.6,0.5,0.4,0.9c-0.1,0.2-0.2,0.4-0.4,0.4
			l-33.6,19.4c-0.7,0.4-1.6,0.4-2.3,0l-22.9-13.2c-0.4-0.1-0.6-0.5-0.4-0.9C228.2,269.3,228.4,269.2,228.6,269.1z"/>
		<path class="st18" d="M252.6,283.9v1c-0.4,0-0.8-0.1-1.2-0.3l-22.9-13.1c-0.3-0.1-0.4-0.4-0.5-0.7v-1c0,0.3,0.2,0.5,0.5,0.7
			l22.9,13.2C251.8,283.8,252.2,283.9,252.6,283.9z"/>
	</g>
	<g id="freepik--Folder--inject-19">
		<g class="st31">
			<path d="M329,247.8c-0.5,0-0.9-0.1-1.3-0.3l-36.8-21.2c-0.5-0.2-0.8-0.7-0.8-1.3c0-0.5,0.3-1,0.8-1.3l30.4-19.3
				c0.9-0.5,1.9-0.5,2.8-0.1l10.9,6.3c0.9,0.5,1.3,1.7,0.8,2.6l-0.4,0.9c-0.1,0.2,0,0.4,0.1,0.5l22.1,12.8c0.7,0.4,1,1.2,0.7,1.9
				c-0.1,0.3-0.3,0.5-0.6,0.6l-27.1,17.4C330,247.6,329.5,247.8,329,247.8z"/>
		</g>
		<path class="st4" d="M329.5,245.6l27.6-16c0.3-0.1,0.5-0.4,0.4-0.7c-0.1-0.2-0.2-0.3-0.4-0.4L319.3,207c-0.6-0.3-1.4-0.3-2,0
			L290,222.8c-0.3,0.1-0.5,0.4-0.4,0.8c0.1,0.2,0.2,0.3,0.4,0.4l37.6,21.7C328.2,245.9,328.9,245.9,329.5,245.6z"/>
		<g class="st32">
			<path class="st2" d="M329.5,245.6l27.6-16c0.3-0.1,0.5-0.4,0.4-0.7c-0.1-0.2-0.2-0.3-0.4-0.4L319.3,207c-0.6-0.3-1.4-0.3-2,0
				L290,222.8c-0.3,0.1-0.5,0.4-0.4,0.8c0.1,0.2,0.2,0.3,0.4,0.4l37.6,21.7C328.2,245.9,328.9,245.9,329.5,245.6z"/>
		</g>
		<path class="st6" d="M290,222.7l31-19.7c0.6-0.3,1.4-0.3,2,0l11.2,6.4c0.5,0.3,0.7,1,0.5,1.6l-0.5,0.9c-0.3,0.6-0.1,1.3,0.5,1.6
			l22.5,13.1c0.3,0.1,0.5,0.5,0.4,0.8c-0.1,0.2-0.2,0.3-0.4,0.4l-27.6,17.7c-0.6,0.3-1.3,0.4-1.9,0.1L290,223.9
			c-0.3-0.1-0.5-0.5-0.4-0.8C289.7,222.9,289.8,222.8,290,222.7z"/>
	</g>
	<g id="freepik--black-pencil--inject-19">
		<polyline id="freepik--shadow--inject-19_00000043432384851087292340000004465734605140569523_" class="st25" points="299.9,201 
			265,221.1 269.2,223.5 303.8,203.2 		"/>
		<g id="freepik--Pencil--inject-19">
			<path class="st13" d="M303.3,202l4.1-4.9c0.1-0.1,0.1-0.2,0-0.3c0,0-0.1,0-0.2,0l-6.3,1.4L303.3,202z"/>
			<path class="st9" d="M307.3,196.7L307.3,196.7l-6.3,1.4l1.2,2l0.7-0.4l4.4-2.8L307.3,196.7z"/>
			<path class="st10" d="M307.2,196.7c0.1,0,0.2,0.1,0.2,0.2c0,0.1,0,0.1,0,0.2l-0.8,1l0,0c0-0.4-0.3-0.8-0.6-0.9l-0.1-0.1
				L307.2,196.7z"/>
			<path class="st11" d="M272.3,215.4l0.5-0.3l0.6-0.4l27.5-16.6c0.7,0.2,1.3,0.6,1.8,1.2c0.6,0.7,0.9,1.7,0.6,2.7l-27.5,16.6
				l-1.2,0.7C275.4,218.7,273,214.9,272.3,215.4z"/>
			<path class="st2" d="M272.3,215.4l0.5-0.3l0.6-0.4l27.5-16.6c0.9,0.2,1.6,0.8,2,1.6l-28.7,17.5c0,0.1,0,0.1,0,0.1
				C273.6,216.2,272.7,215.1,272.3,215.4z"/>
			<path class="st19" d="M274.2,214.2l1.1-0.7c0.3-0.2,1,0.4,1.5,1.1c0.8,1,1.2,2.5,0.8,2.7l-0.9,0.5l-0.3,0.2
				c0.4-0.3,0-1.7-0.8-2.8C275.2,214.6,274.6,214,274.2,214.2L274.2,214.2L274.2,214.2z"/>
			<path class="st11" d="M274.5,214c0.8-0.5,3.1,3.4,2.3,3.9l-1.1,0.7c0.8-0.5-1.6-4.4-2.3-3.9L274.5,214z"/>
			<path class="st19" d="M272.3,215.4l1.1-0.7c0.7-0.5,3,3.2,2.4,3.9l0,0l-1.1,0.7C275.4,218.7,273,214.9,272.3,215.4z"/>
			<path class="st9" d="M307.5,196.8c0,0-0.1-0.1-0.2-0.1C307.4,196.7,307.4,196.7,307.5,196.8z"/>
			<path class="st13" d="M267.5,218.3l4.8-2.9c0.3-0.2,1,0.4,1.5,1.1c0.8,1,1.2,2.5,0.8,2.8l0,0l-4.8,2.9c-1,0.6-2.4-1.2-2.7-2.6
				C267,219.1,267.1,218.6,267.5,218.3z"/>
			<path class="st25" d="M269,218.8c0.8,0.7,1.2,1.8,1.1,2.9c0,0.3-0.2,0.5-0.4,0.6c-1,0.3-2.2-1.4-2.5-2.7c-0.1-0.4,0-0.9,0.3-1.2
				C267.9,218.1,268.4,218.2,269,218.8z"/>
		</g>
	</g>
	<g id="freepik--character-2--inject-19">
		<path class="st16" d="M345.9,351.8c0-0.2,1-9.8,1-9.8s-0.7,1-6.2,0.5c-2.1-0.3-4.2-0.7-6.2-1.4l-0.4,7c-1,2.8-5.9,2.4-11.1,2.7
			c-0.9,0-1.8,0.1-2.7,0.1h0c-2.8,0.3-5.3,2.5-2,4.3s8.2,2,12.7,2C336.4,357.3,345.9,357.2,345.9,351.8z"/>
		<path class="st10" d="M308.9,357.4c-0.2,1-0.2,2,0.1,2.9c0.3,1,3.4,4,8.2,5.4s10.4,0.6,13.1,0.9s5.4,1.4,8.5,1.6s6.3,0.1,9-2.4
			c0.4-1,0.7-3.1,0.5-3.2C347.7,362,308.9,357.4,308.9,357.4z"/>
		<path class="st11" d="M333.4,349.1c-1.7,1.7-6,1.5-10.5,1.7c-4.2,0.2-9.1-0.4-11.8,1s-3.1,4.8,1.4,8.4c1.3,1.2,2.7,2.2,4.2,3
			c4.8,1.9,9.8,0.9,12.9,1.1c4.1,0.3,6.6,1.7,10.4,1.5c4.8-0.3,7.6-2,8.2-3.4s-0.4-11.8-2.4-11.2c0,0-0.3,3.5-8.6,1.6
			C333.7,352,333.4,349.9,333.4,349.1z"/>
		<path class="st28" d="M316.8,363.2c0,0-1.6-10.8,4.5-12.3h0.8c0,0-0.1-0.7-2.5-0.9c-4.6-0.4-7.5,0.2-9.5,2.2
			c-1.2,1.4-1.6,3.3-1.2,5.1C309.4,359.3,311.8,361.7,316.8,363.2z"/>
		<path class="st28" d="M321.2,356.9c0,0-0.3-4.4,2.7-6.1c0.5-0.4,1.2-0.4,1.8-0.1c0,0-2.9,0.9-3,6.2c0,0-0.1,0.4-0.8,0.4
			C321.7,357.2,321.2,357.2,321.2,356.9z"/>
		<path class="st28" d="M328.5,350.6c0,0,0-0.1-0.8-0.1c-0.3,0-0.6,0.1-0.9,0.2c0,0-2.2,1.4-1.9,6c0.1,0.4,0.5,0.6,0.9,0.6
			c0.4,0.1,0.7-0.2,0.8-0.5c0,0,0,0,0-0.1C326.5,356.6,326.2,351.9,328.5,350.6z"/>
		<path class="st28" d="M331,350.2c0,0-0.2-0.2-0.7-0.1c-0.7,0.1-0.8,0.4-0.8,0.4s-1.4,2-0.8,5.8c0,0,0,0.6,0.9,0.6s0.6-0.8,0.6-0.8
			S329.8,351.2,331,350.2z"/>
		<path class="st11" d="M333.6,289.6c-0.4,9.6-0.1,54.4-0.1,54.4s5.9,5,13.4,2.4l4.6-51.4L333.6,289.6z"/>
		<path class="st16" d="M319.4,368.4c0-0.2,1.8-9.4,1.8-9.4s-1.8,1.2-7.3,0.9c-1.9-0.1-3.7-0.5-5.5-1l-0.9,6.8
			c-0.9,2.9-5.8,2.6-11,3.1c-0.9,0.1-1.8,0.1-2.7,0.1h-0.1c-2.8,0.4-5.2,2.6-1.9,4.4s8.3,1.7,12.8,1.6
			C310,374.7,319.5,373.8,319.4,368.4z"/>
		<path class="st10" d="M282.5,375.6c-0.2,1-0.1,2,0.2,2.9c0.3,1,3.5,3.9,8.4,5.2s10.4,0.2,13.1,0.5s5.4,1.2,8.6,1.3
			s6.3-0.1,8.9-2.7c0.4-1,0.6-3.1,0.4-3.3C321.5,379.1,282.5,375.6,282.5,375.6z"/>
		<path class="st11" d="M306.8,366.6c-1.7,1.8-5.9,1.6-10.4,2c-4.2,0.4-9.2-0.1-11.8,1.4s-3,4.9,1.7,8.3c1.3,1.1,2.8,2.1,4.3,2.9
			c4.8,1.7,9.8,0.6,13,0.7c4.1,0.2,6.6,1.5,10.4,1.2c4.8-0.4,7.6-2.2,8.1-3.7s-0.7-11.8-2.7-11.1c0,0-0.2,3.5-8.5,1.8
			C307.2,369.5,306.9,367.4,306.8,366.6z"/>
		<path class="st28" d="M290.6,381.2c0,0-1.9-10.7,4.1-12.5l0.8,0c0,0-0.1-0.7-2.5-0.9c-4.6-0.2-7.5,0.5-9.4,2.5
			c-1.1,1.5-1.5,3.4-1,5.1C283.2,377.6,285.6,379.9,290.6,381.2z"/>
		<path class="st28" d="M294.8,374.8c0,0-0.4-4.4,2.5-6.2c0.5-0.4,1.2-0.4,1.8-0.1c0,0-2.9,1-2.8,6.3c0,0-0.1,0.4-0.8,0.4
			C295.4,375.1,294.9,375.1,294.8,374.8z"/>
		<path class="st28" d="M301.9,368.2c0,0,0-0.1-0.8-0.1c-0.3,0-0.6,0.1-0.9,0.3c0,0-2.2,1.5-1.7,6.1c0.1,0.4,0.5,0.6,0.9,0.5
			c0.4,0.1,0.7-0.2,0.8-0.6c0,0,0,0,0,0C300.2,374.4,299.7,369.6,301.9,368.2z"/>
		<path class="st28" d="M304.5,367.8c0,0-0.2-0.2-0.8-0.1s-0.8,0.5-0.8,0.5s-1.3,2.1-0.6,5.8c0,0,0.1,0.6,1,0.5s0.6-0.8,0.6-0.8
			S303.3,368.9,304.5,367.8z"/>
		<path class="st2" d="M310.1,308.3c-1.1,10-2.2,38.9-2.9,53.3c4.4,2.3,9.6,2.9,14.4,1.6l10.3-51.8L310.1,308.3z"/>
		<path class="st2" d="M374.8,426.6c-0.7,0-1.2-0.5-1.2-1.2V348c-0.1-0.7,0.4-1.3,1.1-1.3c0.7-0.1,1.3,0.4,1.3,1.1
			c0,0.1,0,0.1,0,0.2v77.4C375.9,426.1,375.4,426.6,374.8,426.6z"/>
		<path class="st2" d="M422.6,398.4c-0.5,0-0.9-0.3-1.1-0.8l-23.7-60.1c-0.2-0.6,0.1-1.3,0.7-1.6c0.6-0.2,1.3,0.1,1.6,0.7l23.7,60.1
			c0.2,0.6,0,1.3-0.7,1.6c0,0,0,0,0,0C423,398.4,422.8,398.4,422.6,398.4z"/>
		<path class="st2" d="M419.8,391.2c-0.3,0-0.6-0.1-0.9-0.4l-44.2-46.7l-44.1,46.5c-0.4,0.5-1.2,0.6-1.7,0.1
			c-0.5-0.4-0.6-1.2-0.1-1.7c0,0,0,0,0.1-0.1l45-47.5c0.2-0.2,0.5-0.4,0.9-0.4l0,0c0.3,0,0.7,0.1,0.9,0.4l45,47.7
			c0.4,0.5,0.4,1.3-0.1,1.7C420.3,391,420.1,391.1,419.8,391.2L419.8,391.2z"/>
		<path class="st2" d="M326.9,398.4c-0.2,0-0.3,0-0.4-0.1c-0.6-0.2-0.9-0.9-0.7-1.6c0,0,0,0,0,0l23.7-60.1c0.2-0.6,0.9-0.9,1.6-0.7
			s0.9,0.9,0.7,1.6l0,0L328,397.6C327.8,398.1,327.4,398.4,326.9,398.4z"/>
		<path class="st20" d="M326.3,321.4c-0.9-4.9,3.1-8.6,10.5-13.7c6.9-4.5,14.1-8.6,21.6-12.1c6.2-2.9,12.6-2.6,20.6,1.5
			c11.1,5.7,44.4,25.9,44.4,25.9s-49.8,28.1-59.4,26.9s-33.5-16.8-35.4-22.3S326.3,321.4,326.3,321.4z"/>
		<path class="st4" d="M368.8,344c-7.2,6.5-14.6,0.9-26.5-6.8c-13.4-8.7-16-15.8-16-15.8s0,5.3,1,7.8s3.2,5.3,12.8,12
			s16.6,10,23.1,11.2l5.1-0.7"/>
		<path class="st5" d="M342.3,337.2c-13.4-8.7-16-15.8-16-15.8s0,5.3,1,7.8s3.2,5.3,12.8,12s16.6,10,23.1,11.2l5.1-0.7l0.4-7.8
			C361.6,350.5,354.1,344.9,342.3,337.2z"/>
		<path class="st4" d="M421,389.3l3.1,8.3c0,0.1,0,0.1,0,0.2c0,0.1,0,0.1,0,0.2c-0.1,0.2-0.3,0.4-0.5,0.5c-0.6,0.3-1.3,0.3-1.9,0
			c-0.2-0.1-0.3-0.2-0.4-0.4l0,0V398l-2.9-7.8L421,389.3z"/>
		<path class="st4" d="M328.5,389.3l-3.1,8.3c0,0.1,0,0.1,0,0.2v0.2c0.1,0.2,0.3,0.4,0.5,0.5c0.6,0.3,1.3,0.3,1.9,0
			c0.2-0.1,0.3-0.2,0.4-0.4l0,0V398l2.9-7.8L328.5,389.3z"/>
		<path class="st4" d="M376.1,419.4v6.9c0,0.2-0.2,0.5-0.4,0.6c-0.6,0.3-1.4,0.3-2,0c-0.2-0.1-0.4-0.3-0.4-0.6v-6.9
			C374.2,418.9,375.3,418.9,376.1,419.4z"/>
		<path class="st11" d="M407.7,302.2c0,0-40-12.1-46.9-14s-20.3-5.1-24.2-3.4s-5.9,3.8-6.2,9.4c-0.1,1.1,0,6.2,0,6.2
			s20.2,8.2,36.1,8.2S407.7,302.2,407.7,302.2z"/>
		<path class="st2" d="M407.9,297.1c2.5,8.6,3.3,16.9-2.7,23.1c-4.4,4.5-22.4,20.5-38.2,15.7c-17.7-5.4-38.8-20.8-38.8-20.8
			s-13.7,0.4-13.7-3.6c0-1-4.3-2.2-4.3-3.3c0.6-11.8,8.5-16.7,20.3-14.5c12.4,2.2,40.1,10.1,40.1,10.1L407.9,297.1z"/>
		<path class="st33" d="M388.1,332.8c3-10.9,6.5-24.7,6.5-24.7l-16.3,5.1c-3.4,10.7-5.1,16.5-13.5,15.1s-36.7-13.2-36.7-13.2
			s21.1,15.4,38.8,20.8C374,338.1,381.5,336.1,388.1,332.8z"/>
		<g id="freepik--Character--inject-19">
			<path class="st16" d="M404.2,234.2c5.4-1.2,11.3,2.7,14.6,11.2s11.3,29.5,12.7,35.2c0.6,2.5-20.2,25.3-19.5,25
				c0.2-0.1-6.1-11-6.1-11l10.6-14.1l-6.7-15.8L404.2,234.2z"/>
			<path class="st2" d="M402.7,233.4c4.8-0.1,10.7,0.8,14.5,8c4.8,8.8,8.6,18.2,11.3,27.8c0,0-14.7,10.3-24.1,6.9L402.7,233.4z"/>
			<polygon class="st16" points="381.7,227.5 384.3,243.8 398.9,243 397.2,224 			"/>
			<path class="st0" d="M414.4,242.2c-1.4-4.4-6.2-8.9-11.9-8.8l-4.5,0.1c-0.7,2.7-7.6,5.8-14.8,4.1c-2.2,0.6-4.1,1.2-6,1.8
				c-5.2,1.7-9.9,6-10.7,22.9c0,0-2,38.7-2.2,46.2c7.3,9.3,25.1,8,32.6,6.6c15.5-3,17.9-11.3,17.9-11.3s0.8-28.2,0.6-40.4
				C415.3,252.9,415.4,245.2,414.4,242.2z"/>
			<path class="st14" d="M370.9,207.5c0,0-3.8,5.8-3.4,6.4s3.3,1.1,3.3,1.1L370.9,207.5z"/>
			<path class="st16" d="M381.5,191.4c-7.8,1.6-10,5.1-10.8,17.4c-0.8,12.9,0.5,17,2.2,18.7c1.1,1.2,7.5,1.4,10.7,0.5
				c4-1.1,13.1-4.3,17.3-10.8c5-7.6,6.3-18,1-22.2C394.5,189,384.7,190.7,381.5,191.4z"/>
			<path class="st10" d="M369,196.7L369,196.7c2.3,1.3,4.9,2.1,7.5,2.4c0,2.1,0.4,4.2,1.2,6.1c0.5,1.4,2.2,5.7,3.9,3.2
				c1.2-1.8,2.4-3.4,4.8-3c4,0.6,4.6,5.8,2,8.9s-4.9,1.9-4.9,1.9s0.1,6.8,3.1,10.7c0,0,3.4,1.1,9.8-0.2c3.9-0.8,9.4-5.7,11.7-10.8
				c4.9-10.9,5.2-20.7-1.7-23.6c-0.8-5-4.7-7.3-9.2-8.3c-6.2-1.4-12.6,2.6-18.7,0.2c-1.3-0.5-2.5-1.2-3.8-1.7
				c-0.7-0.3-1.5-0.3-2.2,0.1c-0.5,0.4-0.8,1.1-0.9,1.7c-0.4,1.2-0.2,2.5,0.3,3.6c-0.9-0.5-1.8-0.8-2.8-1c-1-0.2-2,0.1-2.8,0.7
				c-0.7,0.7-1.1,1.6-1.1,2.5C365.3,192.8,366.7,195.4,369,196.7z"/>
			<path class="st10" d="M406.7,194l4.7-2.8c-0.8-1.2-2.5-1.6-3.8-0.7C406.5,191.3,406.1,192.8,406.7,194z"/>
			<path class="st16" d="M311.5,268.5c2.5,1.2,32.7,25.2,37.4,22.7s28.6-30.6,28.6-30.6c4.2-6.5,4.2-14.8,0.1-21.3
				c0,0-7.7,1.2-11.8,7.2s-21.9,27.2-21.9,27.2c-4.2-2.2-8.4-4.5-12.6-6.8c-3.5-1.9-6.9-3.8-10.3-5.8c-0.9-0.5-1.8-1-2.6-1.7
				c-1.6-1.7-1.3-5.7-1.2-7.9c0-1,0.1-2,0.2-3.1c0.2-1.2,0.5-4.3-1.8-3.4c-0.4,0.2-0.8,0.5-1.1,0.9c-0.4,0.5-0.7,1-0.8,1.5
				c-0.5,1.3-0.4,2.8-0.8,4.1c0,0.2-0.1,0.4-0.3,0.5c-0.2,0.2-0.5,0.2-0.7,0.2c-3.3-0.2-6.3-4.8-7.7-7.3c-0.5-1.2-1.4-2.2-2.4-2.9
				c-1.8-0.9-4,0.3-5.1,1.9c-1.5,2.1-2.1,4.7-1.8,7.2c0.2,3.4,1.7,6.7,4.1,9.2C302.6,263.7,306.9,266.5,311.5,268.5z"/>
			<path class="st2" d="M380.1,238.4c-3.1,0.3-8.3,0.4-13.5,6.1c-6.1,6.6-14.2,17.4-14.2,17.4c1.5,6.7,6.7,11.8,13.4,13.2
				c0,0,11-10.8,14.1-16.7S383.7,242.6,380.1,238.4z"/>
		</g>
		<path class="st4" d="M368.4,351.7c4.1-0.2,7.3-3.2,16.9-7.2c17.9-7.5,31.3-13.4,36.4-22.8s8.7-36.4,7.5-48.1
			c-0.1-1.3-0.4-2.6-0.9-3.9l1.2-0.2l-3.2-2.8l0,0c-3.4-2.7-8.8-0.3-12.9,1.9c-11.7,6.4-20.9,12.6-28.1,34.9
			c-5.4,16.8-9,32.1-16.5,40.4"/>
		<path class="st8" d="M428.3,269.7l1.2-0.2l-3.2-2.8l0,0c-3.4-2.7-8.8-0.3-12.9,1.9c-11.7,6.4-20.9,12.6-28.1,34.9
			c-5.4,16.8-9,32.1-16.5,40.4l-0.4,7.8c4.1-0.2,7.3-3.2,16.9-7.2c17.9-7.5,31.3-13.4,36.4-22.8s8.7-36.4,7.5-48.1
			C429,272.3,428.7,271,428.3,269.7z"/>
		<path class="st6" d="M416.8,271.6c-11.7,6.4-20.9,12.6-28.1,34.9s-11.2,42.1-25.5,45.9c0,0,6.5,2.6,26.2-5.8
			c6.3-2.6,13.9-7.5,18.9-10.3c9.8-5.5,15.8-10,16.7-11.7c5.2-9.3,8.7-36.4,7.5-48.1S422.7,268.4,416.8,271.6z"/>
	</g>
	<g id="freepik--character-1--inject-19">
		<g id="freepik--Legs--inject-19">
			<path class="st10" d="M155,347.5c1,2.7,5.7,2.2,10.8,2.4c4.1,0.1,8.8-0.6,11.4,0.7s3.1,4.5-1.2,8.1c-5.4,4.5-12.5,4-16.5,4.4
				s-6.4,1.8-10,1.7c-4.7-0.1-7.4-1.8-8.1-3.1s0.1-11.4,2-10.9c0,0-0.2-0.3,6.7-0.5C155.1,350.1,155,347.5,155,347.5z"/>
			<path class="st9" d="M143.7,351.4c0-0.1-1.1-9.4-1.1-9.4s0.2-0.8,5.8-1c2.7-0.1,5.9-2.4,6.2-0.2s0.5,6.8,0.5,6.8
				c1,2.7,5.7,2.2,10.8,2.4c0.9,0,1.7,0,2.6,0h0.1c2.7,0.2,5.2,2.3,2,4.1s-7.9,2.1-12.3,2.2C153,356.5,143.8,356.7,143.7,351.4z"/>
			<path class="st20" d="M156.4,288.1c0.4,10.1-1,57.9-1,57.9s-4.8,2.3-12.7-0.4l-5.2-51.9L156.4,288.1z"/>
			<g class="st34">
				<path d="M156.4,288.1c0.4,10.1-1,57.9-1,57.9s-4.8,2.3-12.7-0.4l-5.2-51.9L156.4,288.1z"/>
			</g>
			<path class="st10" d="M180.9,368.9c0.9,2.8,5.7,2.4,10.7,2.8c4.1,0.3,8.9-0.3,11.4,1.1s3,4.6-1.4,8.1c-5.5,4.3-12.6,3.6-16.6,3.8
				s-6.4,1.6-10,1.3c-4.7-0.3-7.4-2-7.9-3.4s0.5-11.4,2.4-10.8c0,0-0.2-0.3,6.7-0.3C180.9,371.5,180.9,368.9,180.9,368.9z"/>
			<path class="st9" d="M169.4,372.4c0-0.1-0.8-9.5-0.8-9.5s0.2-0.8,5.8-0.8c2.7,0,6-2.2,6.2,0s0.3,6.8,0.3,6.8
				c0.9,2.8,5.7,2.4,10.7,2.8c0.9,0.1,1.7,0.1,2.6,0.1h0.1c2.7,0.3,5.1,2.4,1.9,4.2s-8,1.8-12.3,1.8
				C178.6,377.8,169.4,377.6,169.4,372.4z"/>
			<path class="st4" d="M180.2,306.1c1.2,10.5,0.9,47.1,1,58.4c-4.2,1.2-8.6,1.2-12.8,0.1c0,0-9.1-39.4-8.4-50.6
				C160.3,308.6,180.2,306.1,180.2,306.1z"/>
		</g>
		<path class="st2" d="M115.2,424.5c0.7,0,1.2-0.5,1.2-1.2v-77.4c0.1-0.7-0.4-1.3-1.1-1.3c-0.7-0.1-1.3,0.4-1.3,1.1
			c0,0.1,0,0.1,0,0.2v77.4C114,423.9,114.5,424.5,115.2,424.5z"/>
		<path class="st2" d="M67.3,396.3c0.5,0,0.9-0.3,1.1-0.8l23.7-60.1c0.2-0.6-0.1-1.3-0.7-1.6c-0.6-0.2-1.3,0.1-1.6,0.7l-23.7,60.1
			c-0.2,0.6,0.1,1.3,0.7,1.6c0,0,0,0,0,0C67,396.3,67.1,396.3,67.3,396.3z"/>
		<path class="st2" d="M70.1,389.1c0.3,0,0.7-0.1,0.9-0.4l44.2-46.7l44.1,46.5c0.5,0.5,1.2,0.5,1.7,0.1c0.5-0.5,0.5-1.2,0.1-1.7
			l-45-47.5c-0.2-0.2-0.5-0.4-0.9-0.4l0,0c-0.3,0-0.6,0.1-0.9,0.4l-45,47.7c-0.4,0.5-0.4,1.3,0.1,1.7
			C69.6,389,69.9,389.1,70.1,389.1L70.1,389.1z"/>
		<path class="st2" d="M163.1,396.3c0.7,0,1.2-0.5,1.2-1.2c0-0.2,0-0.3-0.1-0.5l-23.7-60.1c-0.2-0.6-0.9-0.9-1.6-0.7
			c-0.6,0.2-0.9,0.9-0.7,1.6l23.8,60.1C162.2,396,162.6,396.3,163.1,396.3z"/>
		<path class="st2" d="M163.6,319.3c0.9-4.9-3.1-8.6-10.5-13.7c-6.9-4.5-14.1-8.6-21.6-12.1c-6.2-2.9-12.6-2.5-20.6,1.5
			c-11.1,5.7-44.4,25.9-44.4,25.9s49.8,28.1,59.4,26.9s33.6-16.8,35.4-22.3S163.6,319.3,163.6,319.3z"/>
		<path class="st10" d="M121.2,341.9c7.1,6.5,14.6,0.9,26.5-6.8c13.4-8.7,16-15.8,16-15.8s0,5.3-1,7.8s-3.2,5.3-12.8,12
			s-16.6,10-23.1,11.2l-5.1-0.7"/>
		<path class="st4" d="M68.9,387.2l-3.1,8.3c0,0.1,0,0.1,0,0.2v0.1c0.1,0.2,0.3,0.4,0.5,0.5c0.6,0.3,1.3,0.3,1.9,0
			c0.2-0.1,0.3-0.2,0.4-0.4l0,0v-0.1l2.9-7.8L68.9,387.2z"/>
		<path class="st4" d="M161.4,387.2l3.1,8.3c0,0.1,0,0.1,0,0.2c0,0,0,0.1,0,0.1c0,0.2-0.2,0.4-0.5,0.5c-0.6,0.3-1.3,0.3-1.9,0
			c-0.2-0.1-0.3-0.2-0.4-0.4l0,0v-0.1l-2.9-7.8L161.4,387.2z"/>
		<path class="st4" d="M113.8,417.3v6.9c0,0.2,0.2,0.5,0.4,0.6c0.6,0.3,1.4,0.3,2,0c0.2-0.1,0.4-0.3,0.4-0.6v-6.9
			C115.7,416.8,114.7,416.8,113.8,417.3z"/>
		<g id="freepik--character--inject-19">
			<path class="st20" d="M79.8,300.9c0,0,42-12.7,49.3-14.7c7.3-2,21.3-5.4,25.4-3.5s6.2,4,6.6,9.9c0.1,1.1,0,6.5,0,6.5
				s-20.3,6.3-36.9,6.3S79.8,300.9,79.8,300.9z"/>
			<g class="st34">
				<path d="M79.8,300.9c0,0,42-12.7,49.3-14.7c7.3-2,21.3-5.4,25.4-3.5s6.2,4,6.6,9.9c0.1,1.1,0,6.5,0,6.5s-20.3,6.3-36.9,6.3
					S79.8,300.9,79.8,300.9z"/>
			</g>
			<path class="st4" d="M79.7,295.6c-2.6,9-3.5,17.8,2.8,24.3c4.6,4.7,12.8,18.9,38,17.8c11.4-0.5,43.2-22.7,43.2-22.7
				s15.5-2.3,15.6-6.5c0-1,1.2-1.3,1-2.4c-1.7-9.2-7.5-14.4-15.6-14.9c-12.8-0.8-47.9,8.4-47.9,8.4L79.7,295.6z"/>
			<polygon class="st9" points="112.2,223 108.1,241.6 93.7,239.3 97.6,218.9 			"/>
			<path class="st9" d="M91.8,228.6c-6.7-0.2-11.3,2.9-14.9,12s-14.7,31-14.9,37.2c-0.3,6.5,20.2,26.4,19.5,26.1
				c-0.2-0.1,6.5-11.8,6.5-11.8l-10.2-15.2l6-16.7L91.8,228.6z"/>
			<path class="st2" d="M92,228.6c-4.2-0.7-8.5,1-11.2,4.3c-4.2,4.9-11.2,22.8-11.2,22.8s3.3,8.8,14.4,8.8L94,243L92,228.6z"/>
			<path class="st27" d="M77.8,292.6c2.2-5.4,4.8-10.5,7.8-15.5c-4.5-19.8-6.5-27.8-5-37c1-6.1,5.1-12.6,11.2-11.6
				c1.6,0.3,2.2,0.2,3.7,0.5c-0.8,3.1,9.8,5.6,14.7,2.5c2.2,0.5,8.8,1.4,8.8,1.4c2.8,1,12.8,16.2,14.5,25.5
				c1.7,9.6-6.8,15.5-6.8,15.5c0.4,8,0.1,16.5-0.1,31.1c0,0-5.2,10-28.3,7.4c-20.6-2.3-23.2-11.1-23.2-11.1
				C75.8,298.5,76.7,295.5,77.8,292.6z"/>
			<path class="st9" d="M191.6,240.2c-1.9,1-3.7,2.2-5.2,3.8c-0.1,0.1-1.6,1.6-2.2,1.4c-0.2-0.1-0.4-0.3-0.4-0.5
				c-0.2-0.8,0.9-3.1,1-3.9s-0.4-1.8-1.2-1.7c-0.3,0.1-0.5,0.2-0.7,0.5c-1.9,2.1-3.3,4.6-4,7.3c-0.4,1.7-0.9,3.3-1.5,4.9
				c-1.2,2.6-23,18-23.4,18.3c0,0-13.1-15.6-20.5-25.5c-8-10.7-11-10.1-17.3-11.8c-4.9,17.4,9.3,30.4,9.3,30.4s11.8,12.2,19.2,17.6
				c4.7,3.5,7.5,5.8,10,5.8s4.6-1.3,6.6-2.8c4.8-3.6,19.3-18.1,20.9-19.8c2.7-2.8,5.6-5.3,8.3-8.1l8.8-9.2c0.8-0.8,1.4-1.6,2-2.5
				c1.2-1.8,0.8-4.2-1-5.4c-0.7-0.5-1.6-0.7-2.5-0.7c-1.8,0-3.6,0.5-5.2,1.4L191.6,240.2z"/>
			<path class="st2" d="M114.3,232.3c0,0,6.9-0.1,10.6,2.8c2.8,2.1,21.5,25,21.5,25s0.9,8.5-11.7,14L119,257.7
				C119,257.7,111,245.9,114.3,232.3z"/>
			<path class="st4" d="M124.7,206.6c0,0,5.2-9.1,1.4-16.2c-4.5-8.4-14.3-11.4-26.2-9.1c-5.9,1.1-15.4,6.7-17,17.8
				c-1.2,8.6,22.3,16.6,21.3,22.5L124.7,206.6z"/>
			<g class="st12">
				<path d="M124.7,206.6c0,0,5.2-9.1,1.4-16.2c-4.5-8.4-14.3-11.4-26.2-9.1c-5.9,1.1-15.4,6.7-17,17.8
					c-1.2,8.6,22.3,16.6,21.3,22.5L124.7,206.6z"/>
			</g>
			<path class="st13" d="M125.7,205.8c0,0,3.4,6,2.9,6.5s-3.2,0.8-3.2,0.8L125.7,205.8z"/>
			<path class="st9" d="M116.9,188.5c3.1,2,8.5,5.7,8.7,18c0.3,12.6-1.8,16.8-3.6,18.2c-1.3,1-9.5,0.9-11.8,0
				c-3.8-1.4-11.3-7.2-14.5-14c-3.8-8-3.8-18.2,1.9-21.6C105.7,184.4,114.3,186.8,116.9,188.5z"/>
			<path class="st4" d="M120.3,191.3c-0.1-0.4-0.2-1.4-0.6-1.8c-6.6-5.4-15.3-7.5-23.7-5.7c-3.6,0.8-6.9,2.8-9.2,5.6l0.2-3.8
				c-1.4,0-2.7,1.1-2.7,2.6c0,0.8,0.3,1.6,1,2.1H84c-7.9,0-14.3,6.4-14.3,14.3v25.6l0,0c7.9,0,14.3-6.4,14.3-14.3l0.5-5.4
				c0.7,1.7,1.6,3.3,2.7,4.7c9.1,11.9,20.8,7.6,20.8,7.6c5.6-2,6.3-8.2,6.3-8.2c-2.1,0.6-4.4-0.2-5.8-1.9c-2.8-2.9-2.6-8,1.4-8.9
				c2.8-0.7,4.7,1.6,5.6,3.9c0.2,0.4,0.4,0.8,0.8,0.9c0.6,0.2,1.1-0.5,1.3-1.1c1.7-3.6,2.7-7.4,3.1-11.3
				C120.9,194.6,120.7,192.9,120.3,191.3z"/>
			<path class="st5" d="M120.3,191.3c-0.1-0.4-0.2-1.4-0.6-1.8c-6.6-5.4-15.3-7.5-23.7-5.7c-3.6,0.8-6.9,2.8-9.2,5.6l0.2-3.8
				c-1.4,0-2.7,1.1-2.7,2.6c0,0.8,0.3,1.6,1,2.1H84c-7.9,0-14.3,6.4-14.3,14.3v25.6l0,0c7.9,0,14.3-6.4,14.3-14.3l0.5-5.4
				c0.7,1.7,1.6,3.3,2.7,4.7c9.1,11.9,20.8,7.6,20.8,7.6c5.6-2,6.3-8.2,6.3-8.2c-2.1,0.6-4.4-0.2-5.8-1.9c-2.8-2.9-2.6-8,1.4-8.9
				c2.8-0.7,4.7,1.6,5.6,3.9c0.2,0.4,0.4,0.8,0.8,0.9c0.6,0.2,1.1-0.5,1.3-1.1c1.7-3.6,2.7-7.4,3.1-11.3
				C120.9,194.6,120.7,192.9,120.3,191.3z"/>
		</g>
		<path class="st11" d="M121.6,349.6c-4.1-0.2-7.3-3.2-17-7.2C86.8,335,73.3,329,68.2,319.6s-8.7-36.4-7.5-48.1
			c0.1-1.3,0.4-2.6,0.9-3.9l-1.3-0.2l3.3-2.8l0,0c3.3-2.7,8.8-0.3,12.9,1.9c11.7,6.4,20.9,12.6,28.1,34.9c5.4,16.8,9,32.1,16.6,40.4
			"/>
		<path class="st2" d="M73.2,269.5c11.7,6.4,20.9,12.6,28.1,34.9s11.2,42.1,25.5,45.9c0,0-6.4,2.6-26.2-5.8
			c-6.3-2.6-13.9-7.5-18.9-10.3c-9.8-5.5-15.8-10-16.7-11.7c-5.2-9.3-8.7-36.4-7.5-48.1S67.3,266.3,73.2,269.5z"/>
	</g>
	<path class="st16" d="M246.1,150.1c-2.9,4.1-7.7,5.5-18.8,2.1c-3.2-1-7.7-2.6-11.6-4.2c-9.2-3.9-13.8-5.4-19.7-8.6
		c-1.2-0.7-5.6-6.5-10.3-13.2c4.8-1.8,8.6-5.7,10.2-10.6l8.8,12.9c1.5,1.1,12.1,7.7,18.6,10c1.2,0.4,2.4,0.4,3.6-0.1
		c3.1-1.2,5.2-1.1,8.2-1.5c2.4-0.3,3.5-1.2,3.9-0.7c0.6,1.3,0.2,2.8-1,3.6c-1.3,0.8-2.6,1.5-4.1,1.9c2.6,0.7,5.3,1,8.1,0.8
		C248.2,142,250.7,143.6,246.1,150.1z"/>
	<path class="st9" d="M315.4,127c-4.2,2.1-8.3,4.3-12.5,6.4s-8.3,4.3-12.4,6.4c-3.6,1.9-7.8,3.3-10.6,6.4c-1.8,1.7-3.2,3.7-4.2,5.9
		c-0.8,2.2-0.7,4.6,0.2,6.8c0.9,2.2,2.4,4,4.4,5.2c0.7,0.5,1.5,0.7,2.3,0.6c0.2,0,0.3-0.1,0.4-0.3c0.1-0.2,0.2-0.4,0.1-0.6
		c0.1-1.6,0-3.2,0-4.8c0-1.4,0.1-5.1,2.1-4.8l4.6-1.9c0.1-2.1,1.1-1.9,2.8-2.5l3.3-1.1c3-1,6-1.9,8.9-2.9c3.8-1.3,7.6-2.6,11.4-4
		c1.9-0.7,4.6-1.3,6.2-2.7L315.4,127z"/>
	<g id="freepik--pencil--inject-19">
		<path class="st9" d="M284,167.3l4.1,5.8c0.1,0.1,0.2,0.1,0.3,0.1c0.1,0,0.1-0.1,0.1-0.2l0.3-7.1L284,167.3z"/>
		<path class="st13" d="M288.4,173L288.4,173l0.3-7.1l-2.5,0.8l0.2,0.8l1.7,5.5L288.4,173z"/>
		<path class="st10" d="M288.4,173c0,0.1-0.1,0.2-0.2,0.2c-0.1,0-0.1,0-0.2-0.1l-0.8-1.1l0,0c0.4,0.1,0.9-0.1,1.2-0.4l0.1-0.1
			L288.4,173z"/>
		<path class="st2" d="M280.3,137.2l0.2,0.6l0.2,0.8l8,27.3c-0.4,0.7-1,1.3-1.7,1.5c-1,0.5-2.1,0.4-3-0.1l-8-27.3l-0.4-1.4
			C275.9,139.5,280.6,138.1,280.3,137.2z"/>
		<path class="st11" d="M280.3,137.2l0.2,0.6l0.2,0.8l8,27.3c-0.5,0.9-1.3,1.5-2.2,1.7l-8.6-28.8c-0.1,0-0.1,0-0.1-0.1
			C279.1,138.4,280.5,137.7,280.3,137.2z"/>
		<path class="st19" d="M281,139.6l0.4,1.4c0.1,0.4-0.7,0.9-1.6,1.3c-1.3,0.5-3,0.6-3.1,0.1l-0.3-1l-0.1-0.4
			c0.2,0.5,1.9,0.4,3.1-0.1C280.3,140.6,281.1,140.1,281,139.6L281,139.6L281,139.6z"/>
		<path class="st11" d="M281.1,139.9c0.3,0.9-4.5,2.3-4.8,1.4l-0.4-1.4c0.3,0.9,5.1-0.4,4.8-1.4L281.1,139.9z"/>
		<path class="st19" d="M280.3,137.2l0.4,1.4c0.3,0.9-4.3,2.3-4.8,1.4c0,0,0,0,0-0.1l-0.4-1.4C275.9,139.5,280.6,138.1,280.3,137.2z
			"/>
		<path class="st9" d="M288.3,173.2c0.1,0,0.1-0.1,0.1-0.1C288.4,173.1,288.3,173.2,288.3,173.2z"/>
		<path class="st13" d="M278.6,131.3l1.7,5.9c0.1,0.4-0.6,0.9-1.6,1.3c-1.3,0.5-3,0.6-3.1,0.1l0,0l-1.7-5.9c-0.4-1.2,2-2.2,3.5-2.1
			C277.9,130.5,278.3,130.8,278.6,131.3z"/>
		<path class="st25" d="M277.7,132.7c-1,0.7-2.3,0.8-3.4,0.4c-0.3-0.1-0.5-0.4-0.5-0.6c-0.1-1.1,2.1-2,3.6-1.9c0.5,0,1,0.2,1.2,0.7
			C278.7,131.7,278.4,132.3,277.7,132.7z"/>
	</g>
	<path class="st9" d="M285.4,154.4c-0.1,1.1-0.4,2.9-0.3,4c0,1.1,0.4,2.2,1.1,3c0.4,0.5,1.2,0.7,1.8,0.5c0.5-0.3,0.8-0.9,0.9-1.4
		c0.7-2.6,1-5.2,1.1-7.9v-0.1L285.4,154.4z"/>
</g>
</svg>
