<?xml version="1.0" encoding="UTF-8"?>
<svg id="Layer_1" data-name="Layer 1" xmlns="http://www.w3.org/2000/svg" viewBox="0 0 444.53 446.16">
  <defs>
    <style>
      .cls-1 {
        fill-rule: evenodd;
      }

      .cls-1, .cls-2, .cls-3, .cls-4, .cls-5, .cls-6, .cls-7, .cls-8, .cls-9, .cls-10, .cls-11, .cls-12, .cls-13, .cls-14, .cls-15 {
        stroke-width: 0px;
      }

      .cls-1, .cls-15 {
        fill: #fff;
      }

      .cls-2 {
        fill: #eaeaea;
      }

      .cls-3 {
        fill: #000;
      }

      .cls-4 {
        fill: #e0e0e0;
      }

      .cls-16 {
        opacity: .5;
      }

      .cls-5 {
        fill: #5095d0;
      }

      .cls-6 {
        fill: #eb996e;
      }

      .cls-7 {
        fill: #455a64;
      }

      .cls-8 {
        fill: #45b34a;
      }

      .cls-9 {
        fill: #f5f5f5;
      }

      .cls-10 {
        fill: #ffbe9d;
      }

      .cls-11 {
        fill: #ebebeb;
      }

      .cls-17 {
        opacity: .4;
      }

      .cls-12 {
        fill: #1585c4;
      }

      .cls-13 {
        fill: #7abde8;
      }

      .cls-18 {
        opacity: .6;
      }

      .cls-14 {
        fill: #263238;
      }
    </style>
  </defs>
  <g id="freepik--background-complete--inject-5">
    <path class="cls-11" d="M108.81,102.48h0c-18.92,0-34.26-15.34-34.26-34.26h0c0-18.92,15.34-34.26,34.26-34.26h0c18.92,0,34.26,15.34,34.26,34.26h0c0,18.92-15.34,34.26-34.26,34.26h0Z"/>
    <rect class="cls-15" x="93.27" y="60.59" width="7.09" height="22.91"/>
    <path class="cls-15" d="M96.78,57.59c2.34.02,4.25-1.85,4.27-4.19s-1.85-4.25-4.19-4.27c-2.34-.02-4.25,1.85-4.27,4.19,0,.01,0,.03,0,.04,0,2.32,1.87,4.21,4.19,4.23Z"/>
    <path class="cls-15" d="M111.7,71.47c0-3.22,1.48-5.14,4.32-5.14,2.6,0,3.86,1.84,3.86,5.14v12h7.05v-14.48c0-6.14-3.47-9.1-8.33-9.1-2.8-.04-5.42,1.4-6.9,3.78v-3.08h-6.81v22.9h6.81v-12.02Z"/>
    <polygon class="cls-9" points="154.72 0 159.41 8.57 167.99 13.27 159.41 17.96 154.72 26.53 150.03 17.96 141.45 13.27 150.03 8.57 154.72 0"/>
    <polygon class="cls-11" points="350.37 232.38 353.89 238.82 360.32 242.33 353.89 245.85 350.37 252.29 346.85 245.85 340.42 242.33 346.85 238.82 350.37 232.38"/>
    <polygon class="cls-4" points="360.32 200.62 361.91 203.52 364.81 205.11 361.91 206.7 360.32 209.6 358.74 206.7 355.83 205.11 358.74 203.52 360.32 200.62"/>
    <polygon class="cls-4" points="121.21 3.22 122.8 6.13 125.7 7.71 122.8 9.3 121.21 12.2 119.63 9.3 116.72 7.71 119.63 6.13 121.21 3.22"/>
    <path class="cls-4" d="M41.63,272.87c3.77-1.73,6.15-5.53,6.06-9.68,0-5.73-4.45-10.33-9.82-10.29s-9.68,4.73-9.63,10.46c-.03,4.18,2.47,7.97,6.32,9.6-14.94,2.45-14.06,18.71-14.06,18.71l35.39-.3s.61-16.45-14.26-18.5Z"/>
    <path class="cls-11" d="M381.14,380.05c-.58-2.99-3.47-4.94-6.46-4.36-2.32.45-4.1,2.33-4.41,4.68-.42-3.01-3.21-5.11-6.22-4.69-2.34.33-4.21,2.11-4.65,4.43-.26,1.9.22,3.82,1.34,5.37,1.11,1.53,2.41,2.91,3.88,4.1,2,1.77,3.81,3.42,5.79,5.18,2-1.78,3.63-3.45,5.59-5.23,1.46-1.21,2.75-2.6,3.85-4.14,1.09-1.55,1.56-3.46,1.29-5.34Z"/>
    <path class="cls-4" d="M404.19,169.26l3.79-.75,6-13.18-1.5-7.57s5.79-1.52,7.07,8.53,1.52,7.38,1.52,7.38c0,0,12.45-2.42,13.7-1.55.91.64,3.7,12.94,5.16,19.62.83,3.29-.69,6.73-3.69,8.33-.42.2-.86.35-1.31.44-3.1.62-19.46,1.24-19.46,1.24l-6.55,1.3-4.73-23.79Z"/>
    <polygon class="cls-4" points="392.92 169.33 400.39 194.81 406.89 193.52 401.85 168.11 392.92 169.33"/>
  </g>
  <g id="freepik--Floor--inject-5">
    <path class="cls-14" d="M442.97,445.43c0,.15-99.17.26-221.47.26s-221.5-.11-221.5-.26,99.15-.26,221.5-.26,221.47.12,221.47.26Z"/>
  </g>
  <g id="freepik--Icons--inject-5">
    <path class="cls-12" d="M365.93,159.26h0c-20.18,9.81-44.49,1.41-54.31-18.77h0c-9.81-20.18-1.41-44.49,18.77-54.31h0c20.18-9.81,44.49-1.41,54.31,18.77,0,0,0,0,0,0h0c9.81,20.18,1.41,44.49-18.77,54.31,0,0,0,0,0,0Z"/>
    <path class="cls-15" d="M338.12,131.8c.55-.01.99-.47.98-1.02,0-.07-.01-.14-.03-.21-.1-.49-.37-1.73-.47-2.24-.14-.71-.31-.9-1-1.22-1.79-.82-3.22-2.28-4-4.09-3.06-6.3-1.09-14.23,6.47-17.9,6.69-3.26,12.36-1,15,4.5,3.49,7.19,3.26,14.8-1.46,17.1-2.08,1.14-4.68.39-5.83-1.69-.21-.38-.36-.78-.44-1.2-.78-3.52-1-7.63-2.1-9.91-1-2-2.92-3.21-5.18-2.11-2.67,1.3-3.47,5.1-1.67,8.79.64,1.36,1.57,2.58,2.71,3.56,0,0,2.9,12.88,3.4,15.14,1,4.49,4.22,9,4.53,9.51.13.17.37.19.53.07.07-.05.12-.13.14-.22.09-.44,1.36-5.9.53-10.34-.23-1.26-1.58-7.71-1.58-7.71,1.67,1.23,4.91,1.46,7.6.15,8-3.9,9.9-13.85,5.14-23.63-3.59-7.39-13.21-11.23-22.72-6.6-11.85,5.76-13.69,17.15-10.25,24.23,2.08,4.29,5.53,7.35,9.7,7.04Z"/>
    <path class="cls-12" d="M406.5,273.87h0c-14.45-5.51-21.7-21.69-16.19-36.14,0-.01.01-.03.02-.04h0c5.51-14.45,21.69-21.7,36.14-16.19.01,0,.02,0,.03.01h0c14.45,5.51,21.7,21.69,16.19,36.14,0,.01-.01.03-.02.04h0c-5.51,14.45-21.69,21.7-36.14,16.19-.01,0-.02,0-.03-.01Z"/>
    <path class="cls-1" d="M431.14,252.45c2.68-7.89-1.54-16.46-9.43-19.14-7.38-2.51-15.47,1.02-18.64,8.14-.09.2-.17.41-.25.61-.98,2.55-1.23,5.32-.74,8l-5.41,6.53,8.76.5c5.38,6.36,14.9,7.16,21.27,1.78,1.92-1.62,3.4-3.7,4.31-6.04.05-.12.09-.25.13-.38ZM412.42,259.18c-2.32-.88-4.33-2.42-5.77-4.44l-5.11-.29,3.15-3.8c-.71-2.56-.58-5.28.37-7.76.15-.38.32-.76.5-1.12,3.16-6.26,10.79-8.77,17.05-5.61,5.45,2.75,8.17,8.99,6.47,14.85-.09.32-.19.63-.31.94-2.52,6.51-9.84,9.74-16.35,7.23Z"/>
    <path class="cls-1" d="M422.3,252.71c-.29-.3-1.66-1.78-1.94-2s-.48-.38-.84-.12-1.33.77-1.61.92-.5.1-.78-.2c-.87-.79-1.59-1.73-2.13-2.77-.49-.98-.82-2.02-1-3.1-.06-.42.18-.54.42-.64s.5-.27.75-.4l.19-.12c.13-.1.25-.21.37-.33.17-.15.25-.38.21-.61,0-.2-.07-2.16-.1-2.95s-.36-.79-.56-.87-.42-.2-.65-.28c-.36-.13-.75-.1-1.09.07-1.07.45-1.9,1.32-2.3,2.41-.15.4-.24.81-.27,1.23-.06.96.05,1.93.33,2.85.09.29.94,4.71,3.92,7.43s3.17,2.26,3.83,2.44c1.06.21,2.16-.06,3-.74.43-.42.71-.96.83-1.55-.11-.19-.3-.37-.58-.67Z"/>
    <path class="cls-12" d="M42.13,144.35h0c-11.8,0-21.37-9.57-21.37-21.37h0c0-11.8,9.57-21.37,21.37-21.37h0c11.8,0,21.37,9.57,21.37,21.37h0c0,11.8-9.57,21.37-21.37,21.37h0Z"/>
    <path class="cls-15" d="M30.75,130.11c6.19,3.95,14.42,2.13,18.37-4.06,1.47-2.31,2.2-5.01,2.07-7.74.9-.66,1.69-1.46,2.31-2.39-.86.38-1.76.62-2.69.74.98-.57,1.72-1.48,2.08-2.55-.93.55-1.94.93-3,1.13-1.74-1.91-4.7-2.04-6.61-.3-1.26,1.15-1.79,2.9-1.39,4.57-3.76-.19-7.26-1.97-9.63-4.89-1.23,2.14-.6,4.87,1.45,6.24-.74-.02-1.47-.22-2.12-.58-.03,2.25,1.55,4.19,3.75,4.64-.69.19-1.41.21-2.11.08.61,1.9,2.36,3.2,4.36,3.24-1.95,1.49-4.4,2.16-6.84,1.87Z"/>
    <path class="cls-7" d="M80.5,383.72h0c-19.76,4.69-39.59-7.51-44.3-27.27h0c-4.71-19.77,7.49-39.62,27.26-44.33.01,0,.03,0,.04,0h0c19.77-4.71,39.62,7.5,44.33,27.27,0,0,0,0,0,0h0c4.71,19.77-7.5,39.62-27.27,44.33-.02,0-.04,0-.06.01Z"/>
    <path class="cls-15" d="M68.17,331.83c5.24-1.25,5.87-1.38,8-1.78,1.25-.28,2.53-.34,3.8-.19.93.11,1.82.43,2.61.93.8.48,1.48,1.14,2,1.91.71,1.06,1.23,2.24,1.54,3.48.59,2.05.76,2.67,2,7.91s1.37,5.87,1.77,8c.29,1.25.35,2.53.19,3.8-.1.93-.42,1.82-.93,2.61-.48.8-1.13,1.48-1.9,2-1.07.71-2.25,1.23-3.49,1.54-2,.59-2.66.76-7.9,2s-5.87,1.38-8,1.78c-1.25.28-2.54.35-3.81.19-.93-.11-1.82-.43-2.61-.93-.79-.5-1.45-1.17-1.94-1.97-.71-1.06-1.24-2.24-1.55-3.48-.58-2.05-.75-2.66-2-7.9s-1.38-5.87-1.78-8c-.27-1.25-.34-2.54-.19-3.81.25-1.87,1.28-3.55,2.84-4.61,1.06-.71,2.24-1.24,3.48-1.55,2-.58,2.67-.75,7.91-2M67.37,328.22c-5.33,1.27-6,1.45-8.07,2.05-1.62.4-3.16,1.08-4.55,2-2.39,1.65-3.97,4.23-4.37,7.1-.21,1.67-.14,3.36.22,5,.41,2.11.54,2.79,1.81,8.12s1.45,6,2,8.06c.4,1.62,1.08,3.16,2,4.55.81,1.22,1.89,2.25,3.15,3.01,1.21.76,2.58,1.25,4,1.43,1.67.21,3.36.14,5-.22,2.11-.4,2.79-.54,8.12-1.81s6-1.45,8.06-2c1.62-.41,3.16-1.08,4.55-2,1.19-.8,2.2-1.86,2.94-3.09.76-1.22,1.25-2.58,1.44-4,.21-1.67.13-3.36-.23-5-.4-2.12-.54-2.79-1.81-8.12s-1.45-6-2-8.07c-.41-1.62-1.09-3.15-2-4.55-.8-1.19-1.86-2.19-3.09-2.93-1.21-.77-2.58-1.26-4-1.44-1.67-.21-3.36-.14-5,.22-2.12.41-2.79.54-8.12,1.81"/>
    <path class="cls-15" d="M69.6,337.84c-5.57,1.33-9,6.91-7.68,12.48,1.33,5.57,6.91,9,12.48,7.68,5.56-1.33,9-6.91,7.68-12.48-1.33-5.56-6.91-9-12.48-7.68M73.6,354.47c-3.62.85-7.24-1.39-8.1-5-.85-3.62,1.39-7.24,5-8.1,3.61-.85,7.23,1.38,8.09,4.99.86,3.62-1.37,7.25-4.99,8.11,0,0,0,0-.01,0"/>
    <path class="cls-15" d="M82.34,334.39c.31,1.3-.5,2.6-1.8,2.91-1.3.31-2.6-.5-2.91-1.8-.3-1.3.5-2.6,1.79-2.91,1.29-.32,2.6.48,2.91,1.77,0,.01,0,.02,0,.03"/>
    <path class="cls-7" d="M359.31,351.33h0c-9.48,0-17.16-7.67-17.17-17.15h0c0-9.49,7.68-17.17,17.16-17.17h.01c9.48-.02,17.17,7.65,17.19,17.13,0,.01,0,.02,0,.03h0c0,9.48-7.68,17.16-17.16,17.16-.01,0-.02,0-.03,0Z"/>
    <path class="cls-15" d="M356.69,344.54h4.18v-10.43h2.91l.32-3.5h-3.23v-2c0-.82.17-1.15,1-1.15h2.27v-3.64h-2.9c-3.11,0-4.51,1.37-4.51,4v2.8h-2.23v3.49h2.17l.02,10.43Z"/>
  </g>
  <g id="freepik--Device--inject-5">
    <path class="cls-14" d="M300.77,446.16l-137.89-.05c-16.57,0-30-13.43-30-30h0l.06-345.68c0-16.57,13.43-30,30-30,.02,0,.04,0,.06,0l137.88.08c16.57,0,30,13.43,30,30l-.06,345.6c.03,16.57-13.38,30.02-29.95,30.05-.03,0-.07,0-.1,0Z"/>
    <path class="cls-15" d="M300.73,52.63h-26.74c-3.65.09-6.55,3.11-6.49,6.76v4.85c.08,3.66-2.82,6.7-6.48,6.78,0,0,0,0-.01,0h-52.11c-3.67-.08-6.57-3.12-6.49-6.79,0,0,0,0,0,0v-4.88c.07-3.66-2.83-6.7-6.49-6.79h-32.81c-11.6-.03-21.02,9.35-21.05,20.95,0,.02,0,.03,0,.05l-.07,337.41c0,11.6,9.4,21,21,21h0l137.62.08c11.6,0,21-9.4,21-21h0l.07-337.42c0-11.58-9.37-20.97-20.95-21Z"/>
    <path class="cls-14" d="M302.74,80.04c0,.09-3.48.19-7.76.22s-7.77,0-7.77-.09,3.47-.2,7.76-.23,7.77,0,7.77.1Z"/>
    <path class="cls-14" d="M302.77,84.01c0,.09-3.47.19-7.76.23s-7.77,0-7.77-.1,3.48-.19,7.77-.23,7.76,0,7.76.1Z"/>
    <path class="cls-14" d="M302.81,87.98c0,.09-3.48.2-7.77.23s-7.76,0-7.77-.1,3.48-.19,7.77-.23,7.77,0,7.77.1Z"/>
    <path class="cls-14" d="M156.5,91.86h1.54l4.18-.1-.12.11c0-.92,0-1.93-.05-3v-1.74c.14-.69.7-1.21,1.4-1.29h2c.79.13,1.37.81,1.37,1.61,0,1.42,0,2.89.05,4.42l-.19-.19h5.27l-.2.2c0-2.12,0-4.32-.06-6.57v-1.67c-.05-.5-.32-.96-.74-1.24l-2.3-2.28-2.23-2.19-1.07-1.06c-.37-.36-.66-.73-1.09-.82-.42-.11-.86-.03-1.21.23-.32.27-.66.65-1,1l-1.9,1.91c-1.19,1.23-2.43,2.36-3.33,3.43-.27.63-.36,1.32-.26,2v6.76c.01.23.01.46,0,.69-.01-.21-.01-.42,0-.63v-1.89c0-.75,0-1.87-.07-3v-2.9c0-.39.1-.77.29-1.1,1-1.19,2.14-2.25,3.34-3.52l1.88-1.93c.34-.33.61-.66,1-1,.44-.33,1-.45,1.53-.31.5.18.94.5,1.27.91l1.08,1.06,2.23,2.19,2.31,2.26c.22.19.41.41.59.64.17.27.27.57.28.89v1.68c0,2.25,0,4.45.05,6.57v.2h-5.84v-4.61c.01-.63-.44-1.18-1.06-1.28h-1.92c-.55.06-1.01.46-1.13,1v4.8h-5.48c-.14-.07-.28-.15-.41-.24Z"/>
    <path class="cls-7" d="M247.5,355.52c-.48.08-.96.11-1.45.1l-3.94.08c-3.32.05-7.92.08-13,.08s-9.68,0-13-.08l-3.94-.08c-.49,0-.97-.03-1.45-.1.48-.08.96-.11,1.45-.1l3.94-.09c3.32,0,7.92-.07,13-.07s9.67,0,13,.07l3.94.09c.49-.02.97.02,1.45.1Z"/>
    <path class="cls-7" d="M305.27,364.56c0,.15-21.17.26-47.28.26s-47.28-.11-47.28-.26,21.17-.26,47.28-.26,47.28.12,47.28.26Z"/>
    <path class="cls-7" d="M275.72,373.11c0,.15-14.55.26-32.5.26s-32.51-.11-32.51-.26,14.55-.26,32.51-.26,32.5.08,32.5.26Z"/>
    <path class="cls-14" d="M307.14,389.64l-2.94-2.95-2.8,2.79v-8.44h5.73v8.6ZM304.2,386.32l.09.09,2.59,2.6v-7.7h-5.21v7.55l2.53-2.54Z"/>
    <path class="cls-14" d="M228.91,388.54l-1-.46c-1.32.62-2.9.05-3.53-1.27-.62-1.32-.05-2.9,1.27-3.53,1.32-.62,2.9-.05,3.53,1.27.46.99.28,2.15-.47,2.95l.2,1.04ZM226.5,382.92c-1.48.1-2.6,1.39-2.5,2.87.09,1.36,1.19,2.43,2.55,2.5.46-.03.9-.17,1.29-.41h0l.77.34-.18-.75h0c1-1.09.93-2.79-.17-3.79-.5-.46-1.16-.71-1.83-.7l.07-.06Z"/>
    <path class="cls-14" d="M235.57,388.11l-1.18-2.9-2.23-2h5.4l-1.99,4.9ZM232.66,383.38l1.9,1.74,1,2.47,1.7-4.25-4.6.04Z"/>
    <rect class="cls-14" x="234.27" y="384.09" width="3.52" height=".2" transform="translate(-171.33 190.89) rotate(-33.05)"/>
    <path class="cls-8" d="M220.4,383.77c-.19-.9-1.07-1.48-1.97-1.3-.69.14-1.22.71-1.32,1.41-.12-.91-.97-1.55-1.88-1.43-.72.1-1.29.65-1.42,1.37-.08.58.07,1.16.41,1.63.34.46.73.88,1.18,1.24.61.53,1.16,1,1.76,1.56.6-.54,1.1-1.05,1.7-1.59.44-.37.83-.79,1.16-1.26.33-.47.47-1.06.38-1.63Z"/>
    <path class="cls-14" d="M313.16,397.11v-3.68c0-2.41,0-6-.05-10.56,0-9.19-.05-22.56-.09-39.33l.17.17-159.91.09h0l.26-.26v53.57l-.25-.25,114.43.11,33.4.07h12.12-11.97l-33.35.07-114.6.12h-.26v-53.95h.28l159.91.09h.17v.17c0,16.81-.07,30.22-.09,39.44v13.22c0,.62-.17.91-.17.91Z"/>
    <rect class="cls-11" x="164.24" y="348.18" width="35.42" height="44.3" transform="translate(-189.43 550.15) rotate(-89.67)"/>
    <path class="cls-14" d="M204.19,352.73h-12.36l-32-.07.24-.23c-.05,10.55-.11,22.63-.17,35.41.05.07-.49-.49-.26-.26h12.05l11.5.07,20.74.15-.21.22c.1-10.64.19-19.46.26-25.66,0-3.08.07-5.5.09-7.19v-2.57,35.63h-.22l-20.74-.08-11.5-.06h-12.05l-.27-.27c.09-12.79.16-24.87.23-35.41v-.24h.24l32.1.29,9,.12h2.97l.36.15Z"/>
    <rect class="cls-4" x="166.44" y="349.74" width="30.96" height="41.19" transform="translate(-189.45 550.12) rotate(-89.67)"/>
    <polygon class="cls-9" points="161.22 385.67 175.72 366.51 184.56 378.6 190.64 372.2 202.41 385.91 161.22 385.67"/>
    <path class="cls-9" d="M188.43,364.23c0,1.79-1.47,3.25-3.26,3.24-1.79,0-3.25-1.47-3.24-3.26,0-1.79,1.47-3.25,3.26-3.24,0,0,0,0,0,0,1.79,0,3.24,1.46,3.23,3.25h0Z"/>
    <path class="cls-14" d="M234.59,122.98c-.16.03-.32.03-.48,0l-1.35.05-5,.09c-4.21,0-10,.07-16.46.07s-12.25,0-16.46-.07l-5-.09-1.36-.05c-.16.03-.31.03-.47,0,.15-.04.31-.05.47-.05h1.36l5-.08c4.21-.05,10-.08,16.46-.08s12.25,0,16.46.08l5,.08h1.35c.16,0,.32.01.48.05Z"/>
    <path class="cls-14" d="M300.03,318.76l-4.36-4.38-4.17,4.15v-12.54h8.52v12.77ZM295.67,313.84l.13.13,3.85,3.86v-11.44h-7.76v11.22l3.78-3.77Z"/>
    <path class="cls-14" d="M189.17,317.44l-2-.91c-2.58,1.2-5.65.08-6.85-2.5-1.2-2.58-.08-5.65,2.5-6.85,2.58-1.2,5.65-.08,6.85,2.5.89,1.92.52,4.19-.93,5.72l.43,2.04ZM184.4,306.39c-2.92.02-5.26,2.41-5.24,5.32.02,2.92,2.41,5.26,5.32,5.24.9-.05,1.77-.33,2.54-.8l.09-.05,1.5.67-.34-1.48.07-.07c1.97-2.15,1.82-5.48-.33-7.45-.99-.91-2.28-1.4-3.62-1.38h0Z"/>
    <path class="cls-14" d="M202.29,316.57l-2.34-5.71-4.38-4,10.64-.08-3.92,9.79ZM196.56,307.24l3.74,3.43,2,4.86,3.34-8.36-9.08.07Z"/>
    <rect class="cls-14" x="199.74" y="308.62" width="6.92" height=".39" transform="translate(-135.54 160.79) rotate(-33.05)"/>
    <path class="cls-5" d="M172.43,308.11c-.35-1.78-2.08-2.94-3.86-2.59-1.39.27-2.44,1.4-2.63,2.8-.27-1.8-1.94-3.04-3.74-2.77-1.39.21-2.5,1.28-2.75,2.66-.15,1.13.14,2.28.81,3.2.67.91,1.45,1.73,2.33,2.45,1.19,1,2.28,2,3.47,3.07,1.16-1.06,2.16-2.06,3.33-3.13.86-.73,1.63-1.56,2.29-2.48.65-.93.92-2.08.75-3.21Z"/>
    <circle class="cls-11" cx="171.46" cy="122.98" r="7.22"/>
    <path class="cls-7" d="M297.31,277.36c0,.15-30.26.27-67.58.27s-67.59-.12-67.59-.27,30.26-.26,67.59-.26,67.58.12,67.58.26Z"/>
    <path class="cls-7" d="M297.31,266.11c0,.14-30.26.26-67.58.26s-67.59-.12-67.59-.26,30.26-.26,67.59-.26,67.58.12,67.58.26Z"/>
    <path class="cls-7" d="M235.71,288.77c0,.14-16.47.26-36.78.26s-36.79-.12-36.79-.26,16.47-.26,36.79-.26,36.78.12,36.78.26Z"/>
    <path class="cls-14" d="M226.64,411.4c-.03,1.59-1.34,2.86-2.93,2.83-1.59-.03-2.86-1.34-2.83-2.93.03-1.58,1.32-2.84,2.9-2.83,1.6.02,2.88,1.32,2.86,2.92,0,0,0,0,0,.01Z"/>
    <path class="cls-14" d="M235.5,411.44c-.03,1.58-1.34,2.84-2.93,2.81s-2.84-1.34-2.81-2.93c.03-1.56,1.31-2.82,2.88-2.81,1.59.01,2.87,1.31,2.86,2.9,0,.01,0,.02,0,.03Z"/>
    <path class="cls-14" d="M244.43,411.48c-.03,1.58-1.34,2.84-2.93,2.81s-2.84-1.34-2.81-2.93c.03-1.56,1.31-2.82,2.88-2.81,1.6.02,2.88,1.32,2.86,2.92,0,0,0,0,0,.01Z"/>
    <rect class="cls-4" x="154.19" y="137.26" width="159.93" height="97.8"/>
    <polygon class="cls-9" points="168.96 235.09 214.78 173.75 243.2 212.11 262.45 191.59 300.22 235.05 168.96 235.09"/>
    <path class="cls-9" d="M255.24,166.22c0,5.71-4.62,10.34-10.33,10.35-5.71,0-10.34-4.62-10.35-10.33,0-5.71,4.62-10.34,10.33-10.35h.01c5.71,0,10.33,4.62,10.34,10.33Z"/>
    <path class="cls-14" d="M313.69,325.96c0-2.09-.1-90.44-.24-221.24l.24.24h-159.91l.26-.26v221.24l-.22-.21,159.93.21-159.93.22h-.21v-.22c0-61.93,0-138.5-.05-221.24v-.26h160.43v.23c-.05,65.47-.09,120.8-.12,159.78,0,19.46-.05,34.83-.06,45.35v15.08c0,.7-.12,1.08-.12,1.08Z"/>
  </g>
  <g id="freepik--Megaphone--inject-5">
    <path class="cls-10" d="M238.5,353.41l3.54-11.89c.62-2.58,1.44-5.62,2.54-9.09,1-3.12,3.54-6.4,5.86-8.76,3.61-3.67,5.33-3.69,7.75-5.64.22-.14.47-.35.68-.46.46-.25.86-.59,1.18-1,2.09-2.26.08-5.77-4.17-5.43-3.19.25-8.41,1.16-16.89,9.91-.11.14-.22.25-.32.38-4.45,5.79-8.63-10.73-9.39-16.88-.54-3.51-3.83-5.91-7.34-5.37-.47.07-.93.2-1.37.37l-20.66,9.66c-1.97-.57-4.07-.5-6,.2-3,1.05-4.7,4.21-3.94,7.29l8.39,33.41-24.61,81.9h53.05l11.7-78.6Z"/>
    <path class="cls-12" d="M279.3,278.19l-16.4,32.14-8.2-2.28-41.2,33.53c-3.5,2.86-8.64,2.42-11.59-1l-15.7-18.23s31.65-13.63,37.5-24.91c5.85-11.28-.91-13.85-.91-13.85l14.89-16.92,41.61,11.52Z"/>
    <path class="cls-5" d="M258.03,212.55s-24-5.31-57.79-37.79-49.65-75.65-53.74-75.41-22.19-8.17-56.53,66.52c-34.34,74.69-20.81,92-14,91.9s53.22-13.07,82.2-9.78,66.23,18.4,66.23,18.4l33.63-53.84Z"/>
    <path class="cls-8" d="M309.02,253.26l-8.19,15.57-3.67,7c-5.03,9.57-16.67,13.52-26.49,9l-51.45-17.93,30-68.4,51.4,27.39c9.84,5.27,13.59,17.49,8.4,27.37Z"/>
    <path class="cls-12" d="M309.02,253.26l-8.19,15.57-3.67,7c-5.03,9.57-16.67,13.52-26.49,9l-51.45-17.93,30-68.4,51.4,27.39c9.84,5.27,13.59,17.49,8.4,27.37Z"/>
    <path class="cls-8" d="M92.71,167.23c-18.27,40.46-25.88,76.52-17,80.53s30.91-25.53,49.18-66,25.88-76.51,17-80.53-30.91,25.54-49.18,66Z"/>
    <path class="cls-13" d="M92.71,167.23c-18.27,40.46-25.88,76.52-17,80.53s30.91-25.53,49.18-66,25.88-76.51,17-80.53-30.91,25.54-49.18,66Z"/>
    <polygon class="cls-12" points="313.44 275.76 299.49 271.38 308.12 254.98 318.58 261.48 313.44 275.76"/>
    <g class="cls-18">
      <polygon class="cls-3" points="308.12 254.98 299.49 271.38 302.36 272.28 309.37 255.75 308.12 254.98"/>
    </g>
    <path class="cls-2" d="M298.5,258.76c-.2.45-7.16-2.25-15.54-6s-15-7.23-14.81-7.68,7.16,2.26,15.55,6.05,15.01,7.18,14.8,7.63Z"/>
    <path class="cls-2" d="M302.8,248.99c-.22.44-6.52-2.21-14.07-5.93s-13.49-7.09-13.27-7.54,6.51,2.21,14.06,5.93,13.5,7.09,13.28,7.54Z"/>
    <path class="cls-2" d="M293.1,269.01c-.07.24-1.73-.14-4.37-1-1.32-.41-2.89-.93-4.62-1.52s-3.5-1.53-5.41-2.4c-7.63-3.54-13.46-7-13.27-7.42s6.46,2.29,14,5.8c1.9.86,3.66,1.8,5.32,2.49s3.15,1.3,4.4,1.86c2.5,1.15,4.02,1.95,3.95,2.19Z"/>
    <path class="cls-5" d="M129.96,158.24s-20.86-12.94-32.27,15.25,10.53,32.82,10.53,32.82c9.47-14.92,16.79-31.1,21.74-48.07Z"/>
    <g class="cls-16">
      <path class="cls-3" d="M152.15,124.64c.13,0-.17,1.94-.81,5.39s-1.6,8.44-2.94,14.58l-2.9,9.87c-.53,1.77-1.07,3.6-1.63,5.49l-.85,2.87c-.31,1-.72,1.91-1.08,2.88l-4.71,12.16c-.41,1.06-.83,2.12-1.24,3.19s-1,2.09-1.47,3.15l-3.1,6.4-3.11,6.39c-.53,1-1,2.12-1.57,3.1s-1.17,2-1.74,2.95l-6.65,11.23c-.54.88-1,1.79-1.6,2.63l-1.73,2.45-3.32,4.68-6,8.37c-4,4.83-7.34,8.64-9.64,11.29-1.13,1.43-2.38,2.77-3.73,4,.94-1.56,2.01-3.04,3.2-4.42,2.22-2.83,5.35-6.79,9.19-11.66l5.75-8.43,3.22-4.69c.56-.8,1.12-1.62,1.69-2.45s1-1.74,1.55-2.63l6.57-11.22,1.71-2.94c.59-1,1-2,1.55-3.08l3.08-6.35c1-2.15,2.07-4.26,3.09-6.35.48-1,1.06-2.06,1.46-3.12l1.25-3.16,4.78-12c.37-1,.79-1.89,1.11-2.85s.59-1.9.88-2.84l1.7-5.43,3.07-9.75,3.47-14.4c.35-1.81.85-3.58,1.5-5.3Z"/>
    </g>
    <g class="cls-17">
      <path class="cls-3" d="M191.19,320.11c1.91,3.46,3.85,7,6.66,9.73s6.65,4.67,10.65,4.27,7.65-3.66,7.69-7.6c1.88,1.41,4.77.65,6.33-1.12s2.07-4.22,2.25-6.57c2.56,1.51,6.12.32,7.83-2.11,1.59-2.56,1.96-5.7,1-8.56-.97-2.81-2.36-5.46-4.11-7.87,2,.16,4.06.3,5.82-.59s3-3.23,1.93-4.91c-.7-.94-1.72-1.59-2.87-1.83-3.09-1-5.25-1.74-8.47-1.37-.74,0,1.29,8.48-18.88,20.06-11.97,6.85-15.83,8.47-15.83,8.47Z"/>
    </g>
    <path class="cls-6" d="M236.61,332.31c0,.09-1.35-.17-3.53-.11-5.73.14-11.13,2.73-14.82,7.11-1.41,1.66-2,2.87-2.13,2.82.08-.31.21-.61.39-.88.43-.76.91-1.49,1.45-2.18,3.64-4.62,9.22-7.3,15.11-7.24.87,0,1.74.09,2.6.24.32.02.64.11.93.24Z"/>
    <path class="cls-10" d="M192.5,314.7c3.25,3.12,5.47,6.57,8.88,9.71,1.55,1.43,4,4.13,6,4.49s3.4.09,4.22-1.85c.67-1.57-.53-3.72-1.35-5-2.17-3.41-4.25-6.07-5.87-8.72-.77-1.24.22-1.5.58-.92,1.56,1.62,3.9,3,5.3,4.79,1.92,2.41,2.26,5.62,7.28,4.6.67-.11,1.31-.37,1.86-.77,1.89-1.45,2-4,1.18-6-.71-1.54-1.65-2.97-2.8-4.22,2.14,2.41,4.47,5,7.87,5.22,1.97.24,3.87-.79,4.75-2.57,1-2.28-.43-4.49-1.88-6.27-2.57-3.16-5.42-6.08-8.53-8.72-1.16-.98-2.62-1.52-4.14-1.53-1.76,0-4,.32-5,1.84-1.15,1.48-1.65,3.37-1.37,5.23,0,0-4.4-2.23-7.94.1-2.18,1.53-3.75,3.78-4.42,6.36l-4.62,4.23Z"/>
    <path class="cls-10" d="M215.95,295.98c-1.44-1.67-1.69-4.07-.62-6,.75-1.47,1.69-2.9,2.65-3.22,4.19-1.41,22.51,1.76,22.34,5.82s-1.51,6-11.44,4.57c-1.75-.25-4.49-.59-4.49-.59l-2.4,3.6-6.04-4.18Z"/>
    <path class="cls-6" d="M219.23,313c-2.4-3.96-5.91-7.14-10.09-9.15.68.11,1.34.34,1.94.68,3.01,1.46,5.54,3.75,7.28,6.6.4.56.7,1.2.87,1.87Z"/>
    <path class="cls-6" d="M222.31,300.51c-.09.08-1.3-.9-2.95-1.91-.69-.44-1.4-.83-2.14-1.19-.57-.26-.95-.33-.94-.41s.43-.12,1.06.07c.81.26,1.58.63,2.3,1.09,1.69,1.03,2.8,2.24,2.67,2.35Z"/>
    <path class="cls-6" d="M225.39,296.73c-1.19.14-2.4,0-3.53-.4-.83-.25-1.6-.67-2.26-1.22-.5-.43-.71-.78-.66-.83.96.62,1.99,1.13,3.07,1.52,1.15.23,2.28.55,3.38.93Z"/>
    <path class="cls-6" d="M207.59,318.03c-.63-.66-1.19-1.39-1.67-2.17-1.14-1.85-2.59-3.49-4.27-4.86-1.75-1.28-3.91-1.85-6.06-1.6-.88.16-1.74.43-2.55.81,0,0,.18-.21.59-.46.58-.35,1.23-.6,1.9-.72,2.26-.37,4.57.19,6.42,1.55,1.74,1.4,3.19,3.12,4.28,5.07.52.75.97,1.55,1.36,2.38Z"/>
    <path class="cls-6" d="M221.6,358.53c-2.47.52-4.97.88-7.48,1.07-2.5.36-5.02.55-7.55.56,2.47-.52,4.97-.88,7.49-1.07,2.5-.36,5.02-.54,7.54-.56Z"/>
  </g>
  <g id="freepik--Stars--inject-5">
    <g>
      <polygon class="cls-5" points="379.13 25.95 380.26 28.02 382.32 29.15 380.26 30.28 379.13 32.34 378 30.28 375.94 29.15 378 28.02 379.13 25.95"/>
      <polygon class="cls-5" points="402.74 77.12 403.87 79.19 405.93 80.32 403.87 81.45 402.74 83.51 401.61 81.45 399.54 80.32 401.61 79.19 402.74 77.12"/>
      <polygon class="cls-5" points="24.4 213.64 25.53 215.71 27.6 216.84 25.53 217.96 24.4 220.03 23.27 217.96 21.21 216.84 23.27 215.71 24.4 213.64"/>
      <polygon class="cls-5" points="348.16 38.67 350.77 43.44 355.54 46.05 350.77 48.65 348.16 53.42 345.56 48.65 340.79 46.05 345.56 43.44 348.16 38.67"/>
      <polygon class="cls-5" points="45.56 181.21 48.16 185.96 52.92 188.56 48.16 191.17 45.56 195.92 42.96 191.17 38.2 188.56 42.96 185.96 45.56 181.21"/>
      <polygon class="cls-5" points="409.16 294.67 411.76 299.43 416.51 302.03 411.76 304.63 409.16 309.39 406.56 304.63 401.8 302.03 406.56 299.43 409.16 294.67"/>
    </g>
  </g>
</svg>