<?xml version="1.0" encoding="utf-8"?>
<!-- Generator: Adobe Illustrator 26.0.1, SVG Export Plug-In . SVG Version: 6.00 Build 0)  -->
<svg version="1.1" id="Layer_1" xmlns="http://www.w3.org/2000/svg" xmlns:xlink="http://www.w3.org/1999/xlink" x="0px" y="0px"
	 viewBox="0 0 500 500" style="enable-background:new 0 0 500 500;" xml:space="preserve">
<style type="text/css">
	.st0{fill:#D7E9F4;}
	.st1{fill:#E0E0E0;}
	.st2{fill:#F5F5F5;}
	.st3{fill:#FFFFFF;}
	.st4{fill:#EBEBEB;}
	.st5{fill:#FAFAFA;}
	.st6{fill:#263238;}
	.st7{fill:#1585C4;}
	.st8{opacity:0.2;}
	.st9{fill:#7ABDE8;}
	.st10{fill:#455A64;}
	.st11{fill:#FFBE9D;}
	.st12{fill:#EB996E;}
	.st13{opacity:0.3;}
</style>
<g id="freepik--background-complete--inject-17">
	<path class="st0" d="M81.4,116.5c-1.1,3.3-2.9,6.4-5.2,9.1c-2.1,2.4-4.3,3.1-7.3,1.8c-2.8-1.4-6.2-1.5-9.1-0.1
		c-3.3,1.4-4.9,0.8-7.4-2.1c-4.4-5.1-6.7-11.6-6.5-18.4c0.1-4.3,1.7-8.2,5.5-10.7c2.8-2,6.4-2.2,9.4-0.7c1.9,1,4.2,1,6.2,0.1
		c3.3-1.6,7.1-1.5,10.3,0.3c0.3,0.2,0.6,0.3,0.8,0.5c2.3,1.7,2.4,2,0.3,4c-3.9,3.9-3.9,10.2,0,14.1c0.4,0.4,0.8,0.8,1.3,1.1
		L81.4,116.5z"/>
	<path class="st0" d="M72.6,83.8c0.8,4.5-4.2,10.4-8.4,9.6C63.2,88.2,69.2,83.3,72.6,83.8z"/>
	<path class="st0" d="M94.7,144.6c1,0,2-0.2,2.9-0.6c2.7-1.1,4.5-3.7,4.8-6.6c0-7.5,0-18.4,0-31.8c0-6.7,0-14.1,0-21.9v-6
		c0-1,0-2.1,0-3.1c0-1-0.3-2-0.7-2.9c-0.9-1.9-2.6-3.4-4.6-4c-1-0.3-2.1-0.4-3.2-0.3h-61c-3.9,0-7.1,2.9-7.5,6.8
		c-0.1,1.2,0,2.5,0,3.7v14.7c0,9.7,0,19,0,27.8v13c0,1.1,0,2.1,0,3.1c0,1,0.1,2,0.5,3c0.7,1.9,2.1,3.4,3.9,4.2
		c0.9,0.4,1.8,0.7,2.8,0.7c1,0.1,1.9,0,2.9,0h16l31.8,0.1h8.6h2.2L94.7,144.6c0-0.1-0.3-0.1-0.8-0.1h-2.2h-8.6l-31.8,0.1H35.1
		c-1,0-1.9,0-2.9,0c-1-0.1-2-0.3-2.9-0.8c-1.9-0.9-3.3-2.5-4-4.4c-0.4-1-0.5-2-0.5-3.1c0-1,0-2.1,0-3.1c0-4.2,0-8.5,0-13
		c0-8.9,0-18.2,0-27.8V76c0-0.6,0-1.3,0-1.9c0.4-4.1,3.9-7.2,8-7.2h57.7h3.3c1.1-0.1,2.2,0.1,3.3,0.4c2.1,0.7,3.8,2.2,4.8,4.2
		c0.5,1,0.7,2,0.8,3.1c0,1,0,2.1,0,3.1c0,2,0,4,0,6c0,7.9,0,15.2,0,21.9c0,13.4,0,24.3-0.1,31.8c-0.3,3.8-3.3,6.9-7.1,7.2
		L94.7,144.6z"/>
	<path class="st0" d="M56.2,214.9c-4.9-0.5-5-0.6-4.9-5.3s0.1-9.5,0.1-14.3c0-0.9,0.1-1.4,1.2-1.4c7.6,0.1,15.2,0.2,22.8,0.3
		c0.2,0,0.5,0.1,0.7,0.1c0,3.1,0,6.2,0,9.4c0,2.3,0,4.6,0,7c0,3.4-0.7,4.1-4.2,4.3c-0.3,0-0.5,0.1-1.1,0.1c0,2,0.1,4,0,5.9
		c0.1,1.4-1,2.6-2.4,2.7c-0.2,0-0.5,0-0.7,0c-1.3-0.1-2.3-1.1-2.2-2.4c0,0,0-0.1,0-0.1c0-1.7,0-3.4,0-5c0-1-0.4-1.4-1.3-1.3
		c-0.5,0-1.1,0-1.6,0c-0.9-0.1-1.2,0.3-1.2,1.1c0,1.6,0,3.1,0,4.7c0,2-1,3-2.7,3s-2.6-1-2.6-3S56.2,216.8,56.2,214.9z"/>
	<path class="st0" d="M71.7,179.4c-0.6,1.1-1.3,2.5-1.9,3.6c5,2.4,6.4,6.2,6.2,9.6H51.3c0.2-4.2,2.7-7.9,6.5-9.7l-1.9-3.7l0.3-0.2
		l2.1,3.7c3.5-1.4,7.4-1.4,10.9,0l2.1-3.5L71.7,179.4z"/>
	<path class="st0" d="M82.6,202c0,1.9,0,3.8,0,5.7s-1,2.9-2.6,2.9c-1.4,0.1-2.6-1-2.7-2.4c0-0.1,0-0.3,0-0.4c0-3.8,0-7.7,0.1-11.5
		c0-1.5,1.1-2.6,2.6-2.7s2.6,1.1,2.7,2.6c0,0.1,0,0.2,0,0.3C82.6,198.3,82.6,200.2,82.6,202L82.6,202z"/>
	<path class="st0" d="M50,201.8c0,1.8,0.1,3.7,0,5.5c-0.1,2.3-2,3.7-3.8,2.7c-0.7-0.4-1.2-1-1.4-1.8c-0.1-4.1,0-8.2,0.1-12.3
		c0.1-1.7,1-2.5,2.4-2.4c1.4-0.1,2.6,1,2.7,2.4c0,0.1,0,0.3,0,0.4C50.1,198.1,50,199.9,50,201.8L50,201.8z"/>
	<path class="st0" d="M94.6,240.1c1,0,2-0.2,2.9-0.6c2.7-1.1,4.5-3.7,4.8-6.6c0-7.5,0-18.4,0-31.8c0-6.7,0-14.1,0-21.9c0-2,0-4,0-6
		c0-1,0-2,0-3.1c0-1-0.3-2-0.7-2.9c-0.9-1.9-2.6-3.4-4.6-4c-1-0.3-2.1-0.4-3.2-0.4h-3.4H32.7c-1.2,0-2.5,0.3-3.6,0.9
		c-2.2,1.2-3.7,3.4-4,5.9c-0.1,1.2,0,2.5,0,3.7c0,5,0,9.9,0,14.7c0,9.7,0,19,0,27.8c0,4.4,0,8.8,0,13v3.1c0,1,0.1,2,0.5,3
		c0.7,1.9,2.1,3.4,3.9,4.2c0.9,0.4,1.8,0.7,2.8,0.7c0.9,0.1,1.9,0,2.9,0h5.6h10.5l31.8,0h8.6h2.2C94.4,240,94.6,240,94.6,240.1
		l-0.8-0.1h-2.2H83l-31.8,0.1H35.1c-1,0-1.9,0-2.9,0c-1-0.1-2-0.3-2.9-0.8c-1.9-0.9-3.3-2.5-4-4.4c-0.4-1-0.5-2-0.5-3.1v-3.1
		c0-4.2,0-8.5,0-13c0-8.9,0-18.2,0-27.8v-16.6c0-0.6,0-1.2,0-1.9c0.4-2.6,1.9-4.8,4.2-6c1.2-0.6,2.5-0.9,3.8-0.9h61
		c1.1-0.1,2.2,0.1,3.3,0.4c2.1,0.7,3.8,2.2,4.8,4.2c0.5,1,0.7,2,0.8,3.1c0,1.1,0,2.1,0,3.1c0,2,0,4,0,6c0,7.9,0,15.2,0,21.9
		c0,13.4,0,24.3-0.1,31.8c-0.2,3-2.1,5.6-4.9,6.7c-0.7,0.3-1.4,0.4-2.2,0.5L94.6,240.1z"/>
	<path class="st0" d="M81.5,296H62.4v-14l19-2.8L81.5,296z"/>
	<path class="st0" d="M62.4,297.9h19.1v16.5L62.4,312V297.9z"/>
	<path class="st0" d="M60.3,282.1V296H45.8c0-3.8,0-7.5,0-11.2c0-0.3,0.5-0.7,0.8-0.8C51.1,283.3,55.7,282.7,60.3,282.1z"/>
	<path class="st0" d="M45.9,297.9h14.4v13.8l-14.4-1.9V297.9z"/>
	<path class="st0" d="M94.6,335.5c1,0,2-0.2,2.9-0.6c2.7-1.1,4.5-3.7,4.8-6.6c0-7.5,0-18.4,0-31.8c0-6.7,0-14.1,0-21.9c0-2,0-4,0-6
		c0-1,0-2,0-3.1c0-1-0.3-2-0.7-2.9c-0.9-1.9-2.6-3.4-4.6-4c-1-0.3-2.1-0.4-3.2-0.4h-3.3H32.8c-1.2,0-2.5,0.3-3.6,0.9
		c-1.1,0.6-2,1.4-2.7,2.5c-0.7,1-1.1,2.2-1.2,3.4c-0.1,1.2,0,2.5,0,3.7v14.7c0,9.6,0,19,0,27.8c0,4.4,0,8.8,0,13v3.1
		c0,1,0.1,2,0.5,3c0.7,1.9,2.1,3.4,3.9,4.2c0.9,0.4,1.8,0.7,2.8,0.7c0.9,0.1,1.9,0,2.9,0h16l31.8,0.1h8.6h2.2L94.6,335.5l-0.8-0.1
		h-2.2h-8.6l-31.8,0.1H40.6H35c-1,0-1.9,0-2.9,0c-3.1-0.2-5.8-2.2-6.9-5.2c-0.4-1-0.5-2-0.5-3.1v-3.1c0-4.2,0-8.5,0-13
		c0-8.9,0-18.2,0-27.8c0-4.8,0-9.7,0-14.7v-1.9c0-0.6,0-1.2,0-1.9c0.4-4.1,3.9-7.2,8-7.2h57.7h3.3c1.1-0.1,2.2,0.1,3.3,0.4
		c2.1,0.7,3.8,2.2,4.8,4.2c0.5,1,0.7,2,0.8,3.1c0,1,0,2.1,0,3.1v6c0,7.9,0,15.2,0,21.9c0,13.4,0,24.3-0.1,31.8
		c-0.2,3.1-2.1,5.8-5,6.9c-0.7,0.3-1.4,0.4-2.2,0.5C94.8,335.6,94.6,335.5,94.6,335.5z"/>
	<path class="st1" d="M130.7,84.9c0,1.4-1.1,2.6-2.6,2.6c-1.4,0-2.6-1.1-2.6-2.6c0-1.4,1.1-2.6,2.6-2.6c0,0,0,0,0,0
		C129.5,82.4,130.7,83.5,130.7,84.9z"/>
	<path class="st0" d="M128,84.9c-0.1,0-0.2,0-0.3,0h-1L125,85c-0.7,0-1.5,0.1-2.2,0.2c-3.3,0.8-5.7,3.6-6.1,7c-0.1,1.3,0,2.8,0,4.3
		c0,12.2,0,28.9,0.1,47.4s0,35.2-0.1,47.4c0.1,2.8-1.1,5.5-3.2,7.4c-1.6,1.4-3.5,2.3-5.6,2.4c-1.7,0.1-3,0-3.9,0h-1h-0.3h0.3h1
		c0.9,0,2.2,0,3.9-0.1c4.9-0.5,8.6-4.7,8.5-9.6c0-12.2-0.1-28.9-0.1-47.4s0.1-35.2,0.1-47.4c0-1.5,0-2.9,0.1-4.3
		c0.1-1.3,0.6-2.6,1.3-3.7c1.2-1.8,2.9-3,5-3.5c0.7-0.2,1.5-0.2,2.2-0.2h1.7h1L128,84.9z"/>
	<path class="st0" d="M105.2,201.3c0,1.4-1.1,2.6-2.6,2.6c-1.4,0-2.6-1.1-2.6-2.6c0-1.4,1.1-2.6,2.6-2.6c0,0,0,0,0,0
		C104,198.7,105.1,199.9,105.2,201.3z"/>
	<polygon class="st2" points="184.8,442.8 184.8,470.8 225.7,470.8 270.9,470.8 270.9,442.8 	"/>
	<polygon class="st1" points="181.1,435 181.1,442.8 273.9,442.8 273.9,435 225.7,435 	"/>
	<polygon class="st1" points="227.5,470.8 270.9,470.8 270.9,442.8 273.9,442.8 273.9,435 225.7,435 225.7,442.1 	"/>
	<rect x="196.8" y="447.3" class="st1" width="17.5" height="4.2"/>
	<rect x="194.6" y="456.8" class="st3" width="22.4" height="8.9"/>
	<rect x="376.9" y="295.2" class="st1" width="88.7" height="167.7"/>
	<rect x="350.5" y="295.2" class="st2" width="88.7" height="167.7"/>
	<path class="st1" d="M432.7,329.8h-76.1v-26.6h76.1V329.8z M357.5,328.8h74.3v-24.7h-74.3L357.5,328.8z"/>
	<path class="st4" d="M380.7,303.6h28.9l0,0v0.4c0,2.7-2.2,5-4.9,5h0h-19c-2.7,0-5-2.2-5-4.9v0L380.7,303.6L380.7,303.6z"/>
	<path class="st1" d="M432.7,363.5h-76.1v-26.6h76.1V363.5z M357.5,362.6h74.3v-24.7h-74.3L357.5,362.6z"/>
	<path class="st4" d="M380.7,337.4h28.9l0,0v0.4c0,2.7-2.2,5-4.9,5h0h-19c-2.7,0-5-2.2-5-4.9v0L380.7,337.4L380.7,337.4z"/>
	<path class="st1" d="M432.7,397.3h-76.1v-26.6h76.1V397.3z M357.5,396.3h74.3v-24.7h-74.3L357.5,396.3z"/>
	<path class="st4" d="M380.7,371.2h28.9l0,0v0.4c0,2.7-2.2,5-4.9,5h0h-19c-2.7,0-5-2.2-5-4.9v0L380.7,371.2L380.7,371.2z"/>
	<path class="st1" d="M432.7,431h-76.1v-26.5h76.1V431z M357.5,430.1h74.3v-24.7h-74.3L357.5,430.1z"/>
	<path class="st4" d="M380.7,404.9h28.9l0,0v0.4c0,2.7-2.2,5-4.9,5h0h-19c-2.7,0-5-2.2-5-4.9v0L380.7,404.9L380.7,404.9z"/>
	<rect x="346.6" y="289" class="st4" width="96.3" height="8.4"/>
	<rect x="443" y="289" class="st1" width="29" height="8.4"/>
	<rect x="350.5" y="462.9" class="st1" width="4.7" height="8.6"/>
	<rect x="379.4" y="462.9" class="st1" width="4.7" height="8.6"/>
	<rect x="432" y="462.9" class="st1" width="4.7" height="8.6"/>
	<rect x="458.3" y="462.9" class="st1" width="4.7" height="8.6"/>
	<polygon class="st1" points="432.7,266.7 441.7,289.6 436.1,289.6 431.6,275.5 	"/>
	<polygon class="st4" points="402,245.4 398.9,289.5 430.8,290.1 434.4,245.4 	"/>
	<polygon class="st5" points="405.2,249 402.6,285.6 426.3,286.7 429.6,248.8 	"/>
	<polygon class="st1" points="410.4,254.2 408.5,279.9 421.5,279.9 423.9,254.2 	"/>
	<polygon class="st1" points="467.3,40.2 467.3,135.1 331.1,135.1 326.2,40.9 	"/>
	<rect x="326.2" y="40.9" class="st3" width="136.2" height="94"/>
	<path class="st1" d="M463,135.5H325.5V40.3H463V135.5z M326.8,134.2h134.9V41.5H326.8L326.8,134.2z"/>
	<rect x="340.9" y="52.6" class="st3" width="106.7" height="70.6"/>
	<path class="st1" d="M447.6,52.6h-0.5h-1.5h-5.9l-22,0.1l-76.8,0.2l0.3-0.3c0,21.6,0,45.5,0,70.6l0,0l-0.3-0.3l106.7,0.1l-0.3,0.3
		c0-21.5,0.1-39.1,0.1-51.4c0-6.1,0-10.9,0.1-14.2c0-1.6,0-2.9,0-3.7S447.5,52.5,447.6,52.6c-0.1-0.1-0.1,0.3-0.1,1.2s0,2.1,0,3.7
		c0,3.3,0,8,0.1,14.1c0,12.3,0.1,30,0.1,51.5v0.3h-0.3l-106.7,0.1h-0.3v-0.3l0,0c0-25.1,0-49,0-70.6v-0.3h0.3l77,0.2l21.9,0.1h5.8
		h1.5C447.2,52.5,447.4,52.5,447.6,52.6z"/>
	<path class="st1" d="M326.2,40.6c0.8,0.4,1.6,0.9,2.3,1.5c1.4,1,3.3,2.4,5.3,4.1s3.9,3.2,5.1,4.3c0.7,0.6,1.4,1.3,2,2
		c-0.1,0.1-3.4-2.6-7.5-5.8S326.1,40.8,326.2,40.6z"/>
	<path class="st1" d="M462.4,40.9c0.1,0.2-3.1,2.9-7.2,6.1s-7.5,5.7-7.6,5.6s3.1-2.9,7.2-6.1S462.3,40.8,462.4,40.9z"/>
	<path class="st3" d="M462.3,134.9l-15.2-12.3"/>
	<path class="st1" d="M447.1,122.6c0.1-0.2,3.6,2.5,7.8,5.9s7.5,6.3,7.4,6.4s-3.6-2.5-7.8-5.9S447,122.7,447.1,122.6z"/>
	<path class="st1" d="M326.2,134.9c-0.1-0.1,3.1-2.9,7.1-6s7.4-5.7,7.5-5.5s-3.1,2.8-7.1,6S326.3,135,326.2,134.9z"/>
	<rect x="362.6" y="74.6" class="st1" width="67.1" height="23.6"/>
</g>
<g id="freepik--Floor--inject-17">
	<path class="st6" d="M465.6,471.5c0,0.1-97,0.3-216.6,0.3s-216.6-0.1-216.6-0.3s97-0.3,216.6-0.3S465.6,471.3,465.6,471.5z"/>
</g>
<g id="freepik--Device--inject-17">
	<path class="st6" d="M277.2,416.2l-122.3-0.1c-14.7,0-26.6-11.9-26.6-26.6l0,0l0.1-306.6c0-14.7,11.9-26.6,26.6-26.6l122.3,0.1
		c14.7,0,26.6,11.9,26.6,26.6c0,0,0,0,0,0l-0.1,306.6C303.9,404.3,291.9,416.2,277.2,416.2L277.2,416.2z"/>
	<path class="st3" d="M276.9,67.3h-23.7c-3.2,0.1-5.8,2.8-5.8,6v4.3c0.1,3.2-2.5,5.9-5.8,6h-46.2c-3.2-0.1-5.8-2.8-5.8-6v-4.3
		c0.1-3.2-2.5-5.9-5.8-6h-29.1c-10.3,0-18.7,8.3-18.7,18.6l-0.1,299.2c0,10.3,8.4,18.6,18.6,18.7l122,0.1c10.3,0,18.7-8.3,18.7-18.6
		c0,0,0,0,0,0l0.1-299.2C295.5,75.7,287.2,67.3,276.9,67.3z"/>
	<path class="st4" d="M295.1,117.2c0,0.1-35.6,0.2-79.5,0.2s-79.5-0.1-79.5-0.2s35.6-0.2,79.5-0.2S295.1,117.1,295.1,117.2z"/>
	<path class="st6" d="M158.3,103c-0.1,0-0.2,0-0.3-0.1l-4.6-4.1c-0.1-0.1-0.2-0.2-0.2-0.4c0-0.1,0.1-0.3,0.2-0.4l4.6-3.9
		c0.2-0.2,0.5-0.1,0.7,0.1c0,0,0,0,0,0c0.2,0.2,0.2,0.5,0,0.7c0,0,0,0,0,0l-4.2,3.5l4.2,3.7c0.2,0.2,0.2,0.5,0.1,0.7
		C158.6,102.9,158.5,103,158.3,103z"/>
	<path class="st6" d="M251.5,99.7c0,0.1-13.4,0.3-30,0.3s-30-0.1-30-0.3s13.4-0.2,30-0.2S251.5,99.6,251.5,99.7z"/>
	<path class="st6" d="M191.7,251.6l0.4-0.7c0.8,0.7,1.8,1,2.8,1c1.6,0,2.3-0.7,2.3-1.5c0-2.4-5.3-0.9-5.3-4.1c0-1.3,1-2.3,3.1-2.3
		c0.9,0,1.9,0.3,2.6,0.8l-0.3,0.7c-0.7-0.4-1.5-0.7-2.3-0.7c-1.6,0-2.3,0.7-2.3,1.6c0,2.3,5.3,0.9,5.3,4c0,1.2-1,2.3-3.2,2.3
		C193.7,252.7,192.6,252.3,191.7,251.6z"/>
	<path class="st6" d="M202.8,249.7v3h-0.9v-3l-3.4-5.6h1l2.9,4.8l2.9-4.8h0.9L202.8,249.7z"/>
	<path class="st6" d="M206.6,251.6l0.4-0.7c0.8,0.7,1.8,1,2.8,1c1.6,0,2.3-0.7,2.3-1.5c0-2.4-5.3-0.9-5.3-4.1c0-1.3,1-2.3,3.1-2.3
		c0.9,0,1.9,0.3,2.6,0.8l-0.3,0.7c-0.7-0.4-1.5-0.7-2.3-0.7c-1.6,0-2.3,0.7-2.3,1.6c0,2.3,5.3,0.9,5.3,4c0,1.2-1,2.3-3.2,2.3
		C208.6,252.7,207.5,252.3,206.6,251.6z"/>
	<path class="st6" d="M216.4,244.9h-3v-0.8h6.9v0.8h-3v7.8h-0.9V244.9z"/>
	<path class="st6" d="M227.8,251.8v0.8h-6v-8.6h5.9v0.8h-5v3h4.4v0.8h-4.4v3.2L227.8,251.8z"/>
	<path class="st6" d="M238.8,244.1v8.6H238v-6.8l-3.4,5.8h-0.4l-3.4-5.7v6.8H230v-8.6h0.8l3.7,6.3l3.7-6.3H238.8z"/>
	<path class="st6" d="M184.6,263.6v-5h2.1v4.9c0,1.7,0.7,2.4,2,2.4s2-0.7,2-2.4v-4.9h2.1v5c0,2.6-1.5,4.1-4.1,4.1
		S184.6,266.2,184.6,263.6z"/>
	<path class="st6" d="M202.6,261.8c0,2-1.5,3.2-3.9,3.2h-1.8v2.5h-2.1v-9h3.9C201.1,258.6,202.6,259.8,202.6,261.8z M200.5,261.8
		c0-1-0.6-1.6-1.9-1.6h-1.7v3.1h1.7C199.8,263.4,200.5,262.8,200.5,261.8L200.5,261.8z"/>
	<path class="st6" d="M210.2,262.9h1.9v3.6c-1.1,0.7-2.3,1.1-3.6,1.1c-2.6,0.1-4.7-1.9-4.9-4.4c-0.1-2.6,1.9-4.7,4.4-4.9
		c0.1,0,0.3,0,0.4,0c1.4-0.1,2.8,0.5,3.8,1.5l-1.3,1.2c-0.6-0.7-1.4-1-2.3-1c-1.6,0-2.9,1.3-2.9,2.9c0,1.6,1.3,2.9,2.9,2.9
		c0,0,0,0,0,0c0.6,0,1.1-0.1,1.6-0.4V262.9z"/>
	<path class="st6" d="M219.7,267.5l-1.7-2.5h-1.9v2.5H214v-9h3.9c2.4,0,3.9,1.2,3.9,3.2c0.1,1.2-0.7,2.4-1.9,2.8l2,2.9L219.7,267.5z
		 M217.7,260.3h-1.6v3.1h1.7c1.3,0,1.9-0.6,1.9-1.6S219.1,260.3,217.7,260.3L217.7,260.3z"/>
	<path class="st6" d="M229.3,265.6h-4.2l-0.8,1.9h-2.1l4-9h2.1l4,9h-2.2L229.3,265.6z M228.7,264.1l-1.4-3.4l-1.4,3.4H228.7z"/>
	<path class="st6" d="M233.2,258.6h4.1c2.9,0,4.9,1.8,4.9,4.5s-2,4.5-4.9,4.5h-4.1V258.6z M237.2,265.9c1.5,0,2.8-1.2,2.8-2.8
		c0-1.5-1.2-2.8-2.8-2.8c0,0,0,0,0,0h-1.9v5.6H237.2z"/>
	<path class="st6" d="M250.8,265.9v1.7h-6.9v-9h6.8v1.7h-4.7v1.9h4.1v1.6h-4.2v2.1L250.8,265.9z"/>
	<path class="st6" d="M190.3,330.4c0-1.7,1.4-3.1,3.1-3.2c0.1,0,0.1,0,0.2,0c0.9,0,1.7,0.3,2.3,0.9l-0.4,0.4
		c-0.5-0.5-1.2-0.8-1.8-0.7c-1.4-0.1-2.6,1-2.7,2.4c-0.1,1.4,1,2.6,2.4,2.7c0.1,0,0.2,0,0.3,0c0.7,0,1.4-0.2,1.8-0.8l0.4,0.4
		c-0.6,0.6-1.4,0.9-2.3,0.9c-1.7,0.1-3.2-1.3-3.2-3C190.3,330.5,190.3,330.4,190.3,330.4z"/>
	<path class="st6" d="M202.5,327.2v6.2h-0.6v-2.9h-3.9v2.9h-0.6v-6.2h0.6v2.8h3.9v-2.8L202.5,327.2z"/>
	<path class="st6" d="M208.9,332.9v0.6h-4.4v-6.2h4.3v0.6h-3.6v2.2h3.2v0.6h-3.2v2.3L208.9,332.9z"/>
	<path class="st6" d="M209.8,330.4c0-1.7,1.4-3.1,3.1-3.2c0.1,0,0.1,0,0.2,0c0.9,0,1.7,0.3,2.3,0.9l-0.4,0.4
		c-0.5-0.5-1.1-0.8-1.8-0.7c-1.4-0.1-2.6,1-2.7,2.4c-0.1,1.4,1,2.6,2.4,2.7c0.1,0,0.2,0,0.3,0c0.7,0,1.4-0.2,1.8-0.8l0.4,0.4
		c-0.6,0.6-1.4,0.9-2.3,0.9c-1.7,0.1-3.2-1.3-3.2-3C209.8,330.5,209.8,330.4,209.8,330.4z"/>
	<path class="st6" d="M218.7,330.5l-1.3,1.3v1.6h-0.7v-6.2h0.7v3.8l3.6-3.8h0.8l-2.7,2.8l2.9,3.4h-0.8L218.7,330.5z"/>
	<path class="st6" d="M223.1,327.2h0.6v6.2h-0.6V327.2z"/>
	<path class="st6" d="M231,327.2v6.2h-0.5l-4-5v5h-0.6v-6.2h0.5l4,5v-5H231z"/>
	<path class="st6" d="M237.4,330.4h0.6v2.4c-0.6,0.5-1.4,0.8-2.3,0.8c-1.7,0-3.2-1.4-3.2-3.2s1.4-3.2,3.2-3.2c0.9,0,1.7,0.3,2.3,0.9
		l-0.4,0.4c-0.5-0.5-1.2-0.8-1.9-0.7c-1.4-0.1-2.6,1-2.7,2.4c-0.1,1.4,1,2.6,2.4,2.7c0.1,0,0.2,0,0.3,0c0.6,0,1.1-0.1,1.6-0.5
		L237.4,330.4z"/>
	<path class="st6" d="M239.4,333c0-0.3,0.2-0.5,0.5-0.5s0.5,0.2,0.5,0.5c0,0.3-0.2,0.5-0.5,0.5S239.4,333.3,239.4,333L239.4,333z"/>
	<path class="st6" d="M241.3,333c0-0.3,0.2-0.5,0.5-0.5c0,0,0,0,0,0c0.3,0,0.5,0.2,0.5,0.5c0,0,0,0,0,0c0,0.3-0.2,0.5-0.5,0.5l0,0
		C241.5,333.5,241.3,333.3,241.3,333C241.3,333,241.3,333,241.3,333z"/>
	<path class="st6" d="M243.2,333c0-0.3,0.2-0.5,0.5-0.5c0,0,0,0,0,0c0.3,0,0.5,0.2,0.5,0.5c0,0,0,0,0,0c0,0.3-0.2,0.5-0.5,0.5l0,0
		C243.4,333.5,243.2,333.3,243.2,333C243.2,333,243.2,333,243.2,333z"/>
	<path class="st7" d="M202.7,168.4c2-1.2,4.1-2.1,6.2-2.7l1.3-6.2l10.4-0.2l1.5,6.1c2.2,0.5,4.3,1.4,6.3,2.5l5.3-3.5l7.5,7.3
		l-3.3,5.4c1.2,2,2.1,4.1,2.7,6.2l6.2,1.3l0.2,10.4l-6.1,1.5c-0.5,2.2-1.4,4.3-2.5,6.3l3.5,5.3l-7.3,7.5l-5.4-3.3
		c-2,1.2-4.1,2.1-6.2,2.7l-1.3,6.2l-10.4,0.2l-1.5-6.1c-2.2-0.5-4.3-1.4-6.3-2.5l-5.3,3.5l-7.5-7.3l3.3-5.4c-1.2-2-2.1-4.1-2.7-6.2
		l-6.2-1.3l-0.2-10.4l6.1-1.5c0.5-2.2,1.4-4.3,2.5-6.3l-3.5-5.3l7.3-7.5L202.7,168.4L202.7,168.4z M208.2,182.3
		c-4.3,4.5-4.2,11.6,0.3,15.9c4.5,4.3,11.6,4.2,15.9-0.3c4.3-4.5,4.2-11.6-0.3-15.9c0,0,0,0,0,0
		C219.7,177.7,212.6,177.9,208.2,182.3L208.2,182.3z"/>
	<path class="st7" d="M252.2,139.7c1-0.2,2-0.2,3-0.1l1.5-2.4l4.4,1.6l-0.4,2.8c0.9,0.6,1.6,1.3,2.3,2.1l2.8-0.6l1.9,4.2l-2.2,1.7
		c0.2,1,0.2,2,0.1,3l2.4,1.5l-1.7,4.4l-2.8-0.4c-0.6,0.8-1.3,1.6-2.1,2.2l0.6,2.8l-4.2,1.9l-1.7-2.2c-1,0.2-2,0.2-3,0.1l-1.6,2.4
		l-4.4-1.6l0.4-2.8c-0.8-0.6-1.6-1.3-2.2-2.1l-2.8,0.6l-1.9-4.2l2.2-1.7c-0.2-1-0.2-2-0.1-3l-2.4-1.5l1.6-4.4l2.8,0.4
		c0.6-0.8,1.3-1.6,2.1-2.2l-0.6-2.8l4.2-1.9L252.2,139.7L252.2,139.7z M252.2,146.3c-2.5,1.1-3.6,4.1-2.5,6.6
		c1.1,2.5,4.1,3.6,6.6,2.5c2.5-1.1,3.6-4.1,2.5-6.6c0,0,0,0,0,0C257.6,146.3,254.7,145.2,252.2,146.3L252.2,146.3z"/>
	<path class="st7" d="M174.8,152.2c0.6-0.6,1.3-1.2,2.1-1.6l-0.1-2.4l3.9-1l1.1,2.2c0.9,0,1.8,0.1,2.6,0.4l1.7-1.8l3.5,2.1l-0.8,2.3
		c0.6,0.6,1.1,1.3,1.6,2.1l2.4-0.1l1,3.9l-2.2,1.1c0,0.9-0.1,1.8-0.4,2.6l1.8,1.7l-2.1,3.5l-2.3-0.8c-0.6,0.6-1.3,1.2-2.1,1.6
		l0.1,2.4l-3.9,1l-1.1-2.2c-0.9,0-1.8-0.1-2.6-0.4l-1.7,1.8l-3.5-2.1l0.8-2.3c-0.6-0.6-1.1-1.3-1.6-2.1l-2.4,0.1l-1-3.9l2.2-1.1
		c0-0.9,0.1-1.8,0.4-2.6l-1.8-1.7l2.1-3.5L174.8,152.2L174.8,152.2z M178.1,156.9c-1.2,2.1-0.5,4.7,1.5,5.9c2.1,1.2,4.7,0.5,5.9-1.5
		c1.2-2.1,0.5-4.7-1.5-5.9C182,154.2,179.3,154.9,178.1,156.9C178.1,157,178.1,157,178.1,156.9L178.1,156.9z"/>
	<path class="st2" d="M168.6,294.6h97.3c6.2,0,11.2,5,11.2,11.2v1.4c0,6.2-5,11.2-11.2,11.2h-97.3c-6.2,0-11.2-5-11.2-11.2v-1.4
		C157.3,299.7,162.4,294.6,168.6,294.6z"/>
	<path class="st7" d="M168.6,294.6h44.1c6.2,0,11.2,5,11.2,11.2v1.4c0,6.2-5,11.2-11.2,11.2h-44.1c-6.2,0-11.2-5-11.2-11.2v-1.4
		C157.3,299.7,162.4,294.6,168.6,294.6z"/>
	<path class="st7" d="M252.6,308.3c0,1.2-0.9,2.2-2.6,2.2c-1,0-1.9-0.3-2.6-1l0.3-0.4c0.6,0.6,1.4,0.9,2.3,0.9
		c1.4,0,2.1-0.7,2.1-1.7s-0.6-1.7-2.6-1.7h-1.5l0.4-3.6h3.9v0.5h-3.5l-0.3,2.6h1.1C251.7,306.1,252.6,307,252.6,308.3z"/>
	<path class="st7" d="M258.4,308.3c0,1.2-0.9,2.2-2.6,2.2c-1,0-1.9-0.3-2.6-1l0.3-0.4c0.6,0.6,1.4,0.9,2.3,0.9c1.4,0,2-0.7,2-1.7
		s-0.6-1.7-2.6-1.7h-1.5l0.4-3.6h3.9v0.5h-3.4l-0.3,2.6h1.1C257.6,306.1,258.4,307,258.4,308.3z"/>
	<path class="st7" d="M259.2,305c0-1.2,0.7-2,1.6-2s1.6,0.8,1.6,2s-0.7,2-1.6,2S259.2,306.2,259.2,305z M262,305
		c0-1-0.5-1.6-1.2-1.6s-1.2,0.6-1.2,1.6s0.5,1.6,1.2,1.6S262,306,262,305L262,305z M265.3,303h0.5l-5,7.4h-0.5L265.3,303z
		 M263.6,308.4c0-1.2,0.7-2,1.6-2s1.6,0.8,1.6,2s-0.7,2-1.6,2S263.6,309.6,263.6,308.4L263.6,308.4z M266.4,308.4
		c0-1-0.5-1.6-1.2-1.6s-1.2,0.6-1.2,1.6s0.5,1.6,1.2,1.6S266.4,309.5,266.4,308.4L266.4,308.4z"/>
	<g class="st8">
		<polygon class="st3" points="186.3,294.6 177.3,318.1 183.9,318.1 192.3,294.6 		"/>
	</g>
	<g class="st8">
		<polygon class="st3" points="202.4,294.6 193.5,318.1 200.1,318.1 208.4,294.6 		"/>
	</g>
	<g class="st8">
		<path class="st3" d="M218.2,296.4l-8.3,21.9h3.9c1-0.2,2-0.6,3-1l5.8-16.2C221.6,299.2,220.1,297.6,218.2,296.4z"/>
	</g>
	<g class="st8">
		<path class="st3" d="M170.6,294.6l-8.2,21.6c1.8,1.1,3.8,1.8,5.9,1.9l8.3-23.5L170.6,294.6z"/>
	</g>
	<path class="st6" d="M265.9,318.4c0.9-0.1,1.8-0.2,2.7-0.4c2.5-0.6,4.7-2.2,6.3-4.3c1.1-1.5,1.8-3.3,2-5.1c0.1-1.1,0.1-2.1,0.1-3.2
		c0-1.1-0.3-2.3-0.7-3.4c-1.4-3.8-4.7-6.5-8.6-7.1c-1.5-0.2-2.9-0.2-4.4-0.1l-94.7,0.1c-1.1,0-2.2,0.2-3.3,0.5
		c-1.1,0.3-2.1,0.8-3,1.5c-1.8,1.3-3.2,3.1-4,5.2c-1.3,4.1-0.9,9.1,2,12.3c1.4,1.6,3.2,2.8,5.3,3.4c2,0.6,4.1,0.4,6.2,0.4H184
		l42.6,0.1l28.7,0.1l7.8,0h2h0.7h-0.7h-2h-7.8l-28.7,0.1l-42.6,0.1h-15.4c-1.1,0-2.2-0.2-3.2-0.5c-4.4-1.3-7.6-5-8.2-9.6
		c-0.1-1.1-0.1-2.3-0.1-3.4c0.1-1.1,0.3-2.3,0.7-3.4c0.8-2.2,2.3-4.1,4.2-5.4c1-0.7,2-1.2,3.1-1.6c1.1-0.3,2.3-0.5,3.5-0.5l94.7,0.1
		c1.5-0.1,3,0,4.5,0.2c1.4,0.2,2.8,0.7,4,1.5c2.3,1.3,4,3.4,4.9,5.9c1.4,4.7,0.6,9.2-1.5,11.9c-1.6,2.1-3.8,3.6-6.4,4.2
		c-0.4,0.1-0.8,0.2-1.2,0.2c-0.3,0-0.6,0.1-0.9,0.1C266.1,318.4,265.9,318.4,265.9,318.4z"/>
	<path class="st1" d="M173.1,380.4v8c0,0.5-0.4,0.9-0.9,0.9c-0.2,0-0.3,0-0.5-0.1l-6.3-4c-0.4-0.3-0.5-0.8-0.3-1.2
		c0.1-0.1,0.2-0.2,0.3-0.3l6.3-4c0.4-0.3,1-0.1,1.2,0.3C173.1,380.1,173.1,380.2,173.1,380.4z"/>
	<path class="st1" d="M224.9,384.3c0,3-2.5,5.5-5.5,5.5s-5.5-2.5-5.5-5.5c0-3,2.5-5.5,5.5-5.5l0,0
		C222.4,378.8,224.9,381.3,224.9,384.3z"/>
	<path class="st1" d="M266.4,379.5h6.5c1,0,1.9,0.8,1.9,1.9v6.5c0,1-0.8,1.9-1.9,1.9h-6.5c-1,0-1.9-0.8-1.9-1.9v-6.5
		C264.5,380.3,265.4,379.5,266.4,379.5z"/>
	<path class="st6" d="M280.2,96.6c-1,0-1.8-0.8-1.8-1.8c0-1,0.8-1.8,1.8-1.8c1,0,1.8,0.8,1.8,1.8S281.2,96.6,280.2,96.6L280.2,96.6z
		"/>
	<path class="st6" d="M280.2,101.7c-1,0-1.8-0.8-1.8-1.8s0.8-1.8,1.8-1.8c1,0,1.8,0.8,1.8,1.8c0,0,0,0,0,0
		C282,101,281.2,101.7,280.2,101.7z"/>
	<path class="st6" d="M280.2,106.8c-1,0-1.8-0.8-1.8-1.8c0-1,0.8-1.8,1.8-1.8c1,0,1.7,0.8,1.8,1.7C282,106,281.2,106.8,280.2,106.8
		C280.3,106.8,280.2,106.8,280.2,106.8z"/>
</g>
<g id="freepik--Plant--inject-17">
	<path class="st9" d="M86.1,400.7c-0.6-2.4-1.7-5.3-4.2-5.5c-1.5,0-2.9,0.7-3.7,2c-0.8,1.3-1.2,2.7-1.3,4.2
		c-0.6,10.5,0.3,20.9,2.7,31.1l9,0.8C89.4,422.3,88.6,411.3,86.1,400.7z"/>
	<path class="st6" d="M81.9,395.2c-0.3,0.4-0.6,0.8-0.9,1.2c-0.6,1.2-0.8,2.6-0.8,4c0,1.7,0,3.8,0.2,6.1s0.3,4.8,0.6,7.4
		c0.6,5.3,1.3,10,1.8,13.4c0.2,1.7,0.4,3.1,0.5,4.1c0,0.5,0.1,0.8,0.1,1.1c0,0.1,0,0.3,0,0.4c0-0.1-0.1-0.3-0.1-0.4
		c0-0.3-0.1-0.7-0.2-1.1c-0.2-1-0.4-2.4-0.6-4.1c-0.5-3.4-1.3-8.2-1.9-13.4c-0.3-2.6-0.5-5.2-0.6-7.5c0-1.1,0-2.2-0.1-3.3s0-2,0-2.8
		c0-1.4,0.3-2.8,0.9-4C81.1,395.9,81.5,395.5,81.9,395.2z"/>
	<path class="st6" d="M86.7,397.6c0.1,0.1-0.4,0.5-1.1,0.9s-1.3,0.7-1.3,0.6s0.4-0.5,1.1-0.9S86.7,397.5,86.7,397.6z"/>
	<path class="st6" d="M88.7,404.8c0,0.1-0.7,0.2-1.6,0s-1.5-0.5-1.5-0.6s0.7,0.1,1.6,0.2S88.7,404.7,88.7,404.8z"/>
	<path class="st6" d="M77.6,405.4c0,0.1-0.7,0.3-1.5,0.3s-1.5-0.2-1.5-0.3c0.5-0.1,1-0.1,1.5-0.1C76.8,405.3,77.5,405.3,77.6,405.4z
		"/>
	<path class="st6" d="M79.1,398.9c0,0.1-0.7,0.1-1.4-0.3s-1.1-1-1-1s0.6,0.3,1.2,0.7S79.1,398.8,79.1,398.9z"/>
	<path class="st6" d="M89,412.4c-0.1,0.1-0.7-0.3-1.5-0.9s-1.3-1.1-1.2-1.2s0.7,0.3,1.5,0.9S89,412.3,89,412.4z"/>
	<path class="st6" d="M83.6,406.2c-0.1,0-0.5-0.5-0.8-1.1s-0.5-1.3-0.4-1.3s0.5,0.5,0.8,1.1S83.7,406.1,83.6,406.2z"/>
	<path class="st6" d="M82.9,414.5c-0.1,0,0.1-0.7,0.4-1.5s0.7-1.4,0.8-1.4s-0.1,0.7-0.4,1.5S83.1,414.6,82.9,414.5z"/>
	<path class="st6" d="M85.1,423.5c-0.4-0.5-0.7-1-0.8-1.6c-0.3-0.6-0.4-1.2-0.5-1.8c0.1,0,0.5,0.7,0.8,1.6
		C84.9,422.3,85,422.9,85.1,423.5z"/>
	<path class="st6" d="M78.3,430.1c-0.1-0.1,0.3-0.6,0.9-1.1s1.1-0.9,1.2-0.9s-0.3,0.6-0.9,1.1S78.3,430.2,78.3,430.1z"/>
	<path class="st6" d="M78.1,417.1c0,0.1-0.6,0.1-1.3-0.1s-1.2-0.4-1.2-0.5s0.6,0,1.3,0.1S78.1,417,78.1,417.1z"/>
	<path class="st6" d="M94.9,402.8c-0.1,0.1-0.7-0.3-1.3-0.9s-1.1-1.1-1-1.2s0.7,0.3,1.3,0.9S94.9,402.7,94.9,402.8z"/>
	<path class="st9" d="M114.8,377.1c0.4-2.5,0.4-5.1-0.1-7.5c-0.6-2.5-2.3-4.8-4.8-5.5c-2.8-0.8-5.8,0.8-7.6,3.1s-2.5,5.2-3.2,8
		c-4.6,19.4-7.2,39.2-7.8,59.1l11.5,2.4C109.5,416.3,112.4,398.3,114.8,377.1z"/>
	<path class="st6" d="M108.4,363.9c0,0,0,0.1-0.1,0.2l-0.2,0.5l-0.9,1.9c-0.2,0.4-0.4,0.9-0.7,1.4l-0.7,1.7c-0.2,0.6-0.5,1.3-0.8,2
		l-0.8,2.2c-1.2,3.7-2.2,7.5-3,11.3c-0.9,4.3-1.7,9.1-2.4,14.1c-1.3,10.1-2,19.2-2.8,25.9c-0.4,3.3-0.7,6-0.9,7.8
		c-0.1,0.9-0.2,1.6-0.3,2.1l-0.1,0.5c0,0.1,0,0.2,0,0.2v-0.2c0-0.1,0-0.3,0-0.6c0-0.5,0.1-1.2,0.2-2.1c0.2-1.9,0.5-4.5,0.8-7.8
		c0.7-6.6,1.3-15.8,2.7-25.9c0.7-5,1.4-9.8,2.4-14.1c0.8-3.8,1.8-7.6,3.1-11.3l0.8-2.2c0.3-0.7,0.6-1.4,0.8-2s0.5-1.2,0.7-1.7
		s0.5-1,0.7-1.4l1-1.9l0.3-0.5C108.3,363.9,108.4,363.9,108.4,363.9z"/>
	<path class="st6" d="M109.5,363.9c0.6,0.8,1,1.6,1.2,2.5c0.7,2.4,0.9,5,0.5,7.5c-0.8,6.4-2,15.1-3.4,24.7s-2.9,18.4-4,24.6
		c-0.6,3.1-1,5.7-1.4,7.4l-0.4,2l-0.1,0.5c0,0.1,0,0.2-0.1,0.2c0-0.1,0-0.1,0-0.2c0-0.1,0-0.3,0.1-0.5l0.3-2
		c0.3-1.8,0.7-4.3,1.2-7.5c1.1-6.3,2.5-15,3.9-24.7s2.7-18.4,3.5-24.7c0.4-2.5,0.3-5-0.4-7.5C110.3,365.6,109.9,364.8,109.5,363.9z"
		/>
	<path class="st6" d="M115.3,394.4c-0.8-0.1-1.5-0.4-2.1-0.7c-0.7-0.2-1.4-0.6-2-1.1c0.7,0.1,1.5,0.4,2.1,0.7
		C114.1,393.5,114.7,393.9,115.3,394.4z"/>
	<path class="st6" d="M117.6,382.7c-1.4,0.8-2.9,1.4-4.5,1.6C114.5,383.5,116,383,117.6,382.7z"/>
	<path class="st6" d="M117.5,373.1c-0.6,0.1-1.2,0.1-1.7,0c-0.6,0-1.2-0.2-1.7-0.4c0.6-0.1,1.2-0.1,1.7,0
		C116.4,372.6,117,372.8,117.5,373.1z"/>
	<path class="st6" d="M106.1,366.1c-0.1,0-0.6-0.6-1-1.5c-0.3-0.5-0.6-1.1-0.7-1.7c0.1,0,0.6,0.6,1,1.5
		C105.7,364.9,106,365.5,106.1,366.1z"/>
	<path class="st6" d="M101.7,371.6c0,0.1-0.8,0.1-1.7,0.1s-1.6-0.2-1.6-0.4c0.5-0.2,1.1-0.2,1.7,0
		C100.7,371.2,101.2,371.3,101.7,371.6z"/>
	<path class="st6" d="M98.1,383c0,0.1-0.8-0.2-1.7-0.6s-1.6-0.9-1.5-1c0.6,0.1,1.2,0.3,1.7,0.6C97.4,382.5,98.1,382.9,98.1,383z"/>
	<path class="st6" d="M97.1,392.8c0,0.1-0.7,0.3-1.5,0.4c-0.5,0.1-1,0.1-1.6,0c0-0.1,0.7-0.3,1.5-0.4S97.1,392.6,97.1,392.8z"/>
	<path class="st6" d="M94.6,408.6c-0.5,0.3-1.1,0.4-1.6,0.4c-0.9,0.1-1.6,0.1-1.6,0s0.7-0.3,1.6-0.4S94.6,408.5,94.6,408.6z"/>
	<path class="st6" d="M93.1,417.4c0.1,0.1-0.6,0.5-1.4,0.8s-1.5,0.5-1.5,0.5s0.6-0.5,1.4-0.8S93.1,417.3,93.1,417.4z"/>
	<path class="st6" d="M99.6,427.9c-0.8-1-1.4-2.2-1.7-3.5C98.7,425.5,99.3,426.6,99.6,427.9z"/>
	<path class="st6" d="M102.8,411.4c0.1,0.1-0.5,0.7-1.4,1.4s-1.6,1.2-1.6,1.1s0.5-0.7,1.4-1.4S102.8,411.3,102.8,411.4z"/>
	<path class="st6" d="M103,402.7c-0.1,0.1-0.6-0.4-1.1-1s-0.9-1.2-0.8-1.3s0.6,0.4,1.1,1S103.1,402.6,103,402.7z"/>
	<path class="st6" d="M105.2,391.6c0.1,0.1-0.4,0.7-1.2,1.4s-1.4,1.2-1.4,1.1s0.4-0.7,1.2-1.4S105.1,391.5,105.2,391.6z"/>
	<path class="st6" d="M106.6,383.6c-0.1,0.1-0.7-0.5-1.4-1.2s-1.2-1.5-1.1-1.5s0.7,0.5,1.4,1.2S106.7,383.5,106.6,383.6z"/>
	<path class="st6" d="M109,372.8c-0.2,0.6-0.5,1.1-0.9,1.6c-0.6,0.8-1.1,1.4-1.2,1.4c0.2-0.6,0.5-1.1,0.9-1.6
		C108.3,373.3,108.9,372.7,109,372.8z"/>
	<path class="st6" d="M112.7,362.8c-0.1,0.6-0.4,1.1-0.8,1.6c-0.5,0.8-1,1.4-1.1,1.4c0.1-0.6,0.4-1.1,0.8-1.6
		C112.1,363.4,112.6,362.8,112.7,362.8z"/>
	<path class="st6" d="M115.7,367.7c0,0.1-0.4,0.4-1.1,0.6s-1.2,0.4-1.2,0.3s0.4-0.4,1.1-0.6S115.7,367.6,115.7,367.7z"/>
	<path class="st6" d="M113.2,404.1c-0.8,0-1.6-0.3-2.2-0.7c-0.7-0.3-1.4-0.8-1.9-1.4c0.7,0.3,1.4,0.6,2,1
		C111.8,403.3,112.5,403.6,113.2,404.1z"/>
	<path class="st6" d="M111.3,411.7c-0.5,0.3-1,0.4-1.6,0.4c-0.5,0.1-1.1,0.1-1.6,0c0-0.1,0.7-0.3,1.6-0.4S111.2,411.6,111.3,411.7z"
		/>
	<path class="st6" d="M108.6,424.8c-0.1,0.1-0.9-0.6-1.7-1.7c-0.5-0.6-0.9-1.4-1-2.1c0.5,0.6,0.9,1.2,1.3,1.9
		C107.8,423.5,108.2,424.1,108.6,424.8z"/>
	<path class="st6" d="M89.7,429.5c-0.1-0.1,0.4-0.6,1.1-1.1s1.3-0.9,1.4-0.8s-0.4,0.6-1.1,1.1S89.7,429.6,89.7,429.5z"/>
	<path class="st9" d="M66.2,387c-0.9-4.5-4.8-7.8-9.4-8c-4,0.7-5.5,4.6-6,8.7s0.8,8,2,11.9c4,12.4,8,24.8,11.9,37.2l11.3-1.2
		C72.4,418.9,70.3,403.5,66.2,387z"/>
	<path class="st6" d="M57,378.7c-0.5,0.6-1,1.2-1.4,1.8c-1,1.8-1.6,3.8-1.7,5.9c0,3.1,0.4,6.1,1.4,9c1,3.4,2.1,7,3.2,10.9l5.7,19.8
		c0.7,2.5,1.3,4.5,1.7,6l0.4,1.6c0.1,0.2,0.1,0.4,0.1,0.6c-0.1-0.2-0.2-0.4-0.2-0.6c-0.1-0.4-0.3-1-0.5-1.6l-1.8-6
		c-1.5-5.1-3.6-12-5.9-19.7c-1.1-3.9-2.2-7.5-3.2-10.9c-1-3-1.4-6.1-1.3-9.2c0.1-2.1,0.8-4.2,1.9-6C55.9,379.7,56.4,379.1,57,378.7z
		"/>
	<path class="st6" d="M73.5,434.3c-0.1-0.2-0.2-0.4-0.3-0.5c-0.1-0.4-0.4-0.9-0.6-1.6c-0.5-1.4-1.2-3.4-1.9-6s-1.4-5.6-2.1-9.1
		s-1.4-7.2-2.1-11.2s-1.7-7.7-2.7-11c-0.9-3-2-5.9-3.3-8.7c-0.9-1.9-1.9-3.7-3-5.5c-0.4-0.6-0.7-1.1-1-1.4c-0.1-0.2-0.2-0.3-0.3-0.5
		c0.1,0.1,0.3,0.3,0.4,0.5c0.2,0.3,0.6,0.8,1,1.4c1.2,1.7,2.2,3.5,3.2,5.4c1.4,2.8,2.5,5.7,3.4,8.7c1,3.4,1.9,7.1,2.7,11.1
		s1.4,7.7,2.1,11.2s1.3,6.5,2,9s1.3,4.6,1.8,6c0.2,0.7,0.4,1.2,0.6,1.6C73.4,433.9,73.4,434.1,73.5,434.3z"/>
	<path class="st6" d="M53,397.7c0,0.1-0.6,0.4-1.4,0.5s-1.4,0.2-1.5,0.1s0.6-0.4,1.4-0.5S53,397.6,53,397.7z"/>
	<path class="st6" d="M51.8,390c-0.6,0.2-1.3,0.2-1.9,0.2c-0.6,0.1-1.3,0.1-1.9,0c0.6-0.3,1.2-0.4,1.9-0.4
		C50.6,389.7,51.2,389.8,51.8,390z"/>
	<path class="st6" d="M53.1,383c-0.1,0.1-0.7-0.3-1.4-0.9s-1.2-1.1-1.1-1.2s0.7,0.3,1.4,0.9S53.2,382.9,53.1,383z"/>
	<path class="st6" d="M56.5,376.5c0.1,0,0.1,0.6,0.1,1.2s0,1.2-0.1,1.2s-0.3-0.5-0.3-1.2S56.4,376.5,56.5,376.5z"/>
	<path class="st6" d="M63.5,379.6c0.1,0.1-0.2,0.6-0.6,1.2s-0.9,1.1-1,1s0.2-0.6,0.6-1.2S63.4,379.5,63.5,379.6z"/>
	<path class="st6" d="M68.1,387.5c0,0.1-0.5,0.4-1.3,0.8s-1.4,0.5-1.5,0.4s0.5-0.4,1.3-0.8S68,387.4,68.1,387.5z"/>
	<path class="st6" d="M70.8,395.6c-0.5,0.4-1.1,0.7-1.8,0.8c-0.6,0.2-1.3,0.2-1.9,0.1c0.6-0.2,1.2-0.4,1.9-0.4
		C69.6,395.8,70.2,395.7,70.8,395.6z"/>
	<path class="st6" d="M58.2,393.3c-0.1,0,0-0.6,0.2-1.3s0.5-1.2,0.6-1.1s0,0.6-0.2,1.3S58.3,393.3,58.2,393.3z"/>
	<path class="st6" d="M59.9,403.5c0-0.6,0.2-1.2,0.5-1.7c0.4-0.9,0.8-1.6,0.9-1.5c0,0.6-0.2,1.2-0.5,1.7
		C60.4,402.9,60,403.5,59.9,403.5z"/>
	<path class="st6" d="M55.6,406.3c0,0.1-0.8-0.1-1.6-0.4s-1.6-0.5-1.5-0.6c0.6-0.1,1.1,0,1.7,0.2C55,405.8,55.6,406.2,55.6,406.3z"
		/>
	<path class="st6" d="M58.1,414.6c0.1,0.1-0.4,0.5-1.1,1s-1.2,0.8-1.3,0.7s0.4-0.5,1.1-1S58,414.5,58.1,414.6z"/>
	<path class="st6" d="M60.1,422.9c0,0.1-0.6,0.4-1.3,0.5s-1.4,0.2-1.4,0.1s0.6-0.4,1.3-0.5S60.1,422.8,60.1,422.9z"/>
	<path class="st6" d="M71.1,402.5c0,0.1-0.4,0.5-1.2,0.8s-1.4,0.3-1.4,0.2s0.6-0.3,1.3-0.6S71,402.4,71.1,402.5z"/>
	<path class="st6" d="M72.6,415.4c-0.1,0.1-0.7-0.1-1.3-0.4s-1.2-0.7-1.2-0.8s0.7,0.1,1.3,0.4S72.7,415.3,72.6,415.4z"/>
	<path class="st6" d="M75.4,424.6c-0.6,0-1.2-0.2-1.8-0.5c-0.6-0.2-1.2-0.5-1.6-0.9c0.6,0,1.2,0.2,1.8,0.5
		C74.7,424.2,75.4,424.5,75.4,424.6z"/>
	<path class="st6" d="M60.5,431.9c0-0.1,0.7-0.6,1.5-1.3s1.5-1.3,1.6-1.2s-0.5,0.8-1.3,1.5C61.8,431.4,61.2,431.7,60.5,431.9z"/>
	<path class="st6" d="M67.8,427.2c-0.1,0-0.3-0.6-0.6-1.3s-0.6-1.3-0.5-1.4s0.6,0.4,0.9,1.2S68,427.2,67.8,427.2z"/>
	<path class="st6" d="M65.9,416.1c-0.1,0.1-0.5-0.1-1.1-0.5s-0.9-0.8-0.8-0.8c0.1-0.1,0.5,0.1,1,0.5S66,416,65.9,416.1z"/>
	<rect x="55.2" y="431.7" class="st7" width="58.8" height="10.4"/>
	<polygon class="st7" points="59.5,440 66.7,471.2 101.8,471.2 109.6,440 	"/>
	<path class="st6" d="M113.9,442.1c0,0.1-13.3,0.2-29.6,0.2s-29.6-0.1-29.6-0.2s13.3-0.2,29.6-0.2S113.9,442,113.9,442.1z"/>
</g>
<g id="freepik--Character--inject-17">
	<path class="st10" d="M353.1,386.5c0,2,31.2,85,31.2,85h12.5l-31.1-85H353.1z"/>
	<rect x="308.5" y="382.5" class="st10" width="12.5" height="89"/>
	<rect x="350.3" y="413.3" class="st10" width="39.8" height="8.9"/>
	<rect x="308.5" y="380.9" class="st10" width="69.2" height="8.9"/>
	<rect x="361.3" y="445.7" class="st10" width="41.2" height="8.9"/>
	<path class="st6" d="M378.1,390c0,0.1-15.6,0.3-34.9,0.3s-34.9-0.1-34.9-0.3s15.6-0.3,34.9-0.3S378.1,389.9,378.1,390z"/>
	<path class="st6" d="M321.2,471.5c-0.1,0-0.3-18.2-0.3-40.7s0.1-40.7,0.3-40.7s0.3,18.2,0.3,40.7S321.4,471.5,321.2,471.5z"/>
	<path class="st6" d="M384.3,471.5c-0.1,0-7-18.2-15.3-40.8s-15-41-14.9-41s7,18.2,15.4,40.8S384.4,471.4,384.3,471.5z"/>
	<path class="st6" d="M397,471.5c-0.1,0-7-18.2-15.3-40.8s-15-41-14.9-41s7,18.2,15.4,40.8S397.1,471.4,397,471.5z"/>
	<path class="st11" d="M436.2,198c-0.9-4-3.2-7.6-5.4-11.1c-3.6,2.2-7.4,3.9-11.5,5.1l1.2,20.8c4.6,0.1,9.8-0.1,13.1-3.4
		C436.5,206.7,437.1,202.1,436.2,198z"/>
	<path class="st7" d="M421.4,161.4l-10.1,23c3.7,3.7,6.7,8.1,8.6,12.9c6.1-3,11.6-7,16.3-11.8C431.3,178.6,425.5,164.6,421.4,161.4z
		"/>
	<path class="st11" d="M407.4,110.5l-4.1,39.7c-0.7,6.8-3.1,16.5-13.7,14.9l0,0c-9.1-2.1-10.6-11.1-9.9-17.4c0.3-3,0.6-5.5,0.6-5.8
		c0,0-10-2-9.7-12.1c0.1-4.9,1.3-14.9,2.4-23.9c1.2-9.7,9.7-16.9,19.4-16.5h1C403.8,90.6,408.7,100.1,407.4,110.5z"/>
	<path class="st12" d="M380.3,141.8c4.6,0.3,9.3-0.8,13.3-3.2c0,0-3.4,7.1-13.4,5.8L380.3,141.8z"/>
	<path class="st6" d="M374.2,111.1c0.2,0.2,1.6,0,3.4,0.5s2.9,1.6,3.1,1.5s0-0.4-0.5-0.8c-0.7-0.6-1.6-1.1-2.5-1.4
		c-0.9-0.3-1.8-0.4-2.7-0.2C374.4,110.8,374.1,111,374.2,111.1z"/>
	<path class="st6" d="M389.7,113.4c0.2,0.1,1.4-0.7,3.2-1s3.3,0.1,3.5-0.1s-0.2-0.3-0.8-0.5c-0.9-0.2-1.9-0.3-2.8-0.1
		c-0.9,0.1-1.8,0.5-2.5,1C389.7,113,389.6,113.3,389.7,113.4z"/>
	<path class="st6" d="M389.7,116.7c0,0.6,0.4,1.1,1,1.2c0.6,0.1,1.1-0.3,1.2-0.9c0,0,0,0,0,0c0-0.6-0.4-1.1-1-1.2
		C390.3,115.7,389.8,116.1,389.7,116.7C389.7,116.7,389.7,116.7,389.7,116.7z"/>
	<path class="st6" d="M375,115.5c0,0.6,0.4,1.1,1,1.2c0.6,0.1,1.1-0.3,1.2-0.9c0,0,0-0.1,0-0.1c0-0.6-0.4-1.1-1-1.2
		C375.6,114.4,375.1,114.8,375,115.5C375,115.5,375,115.5,375,115.5z"/>
	<path class="st6" d="M384,123.2c-0.8-0.3-1.6-0.5-2.5-0.6c-0.4-0.1-0.8-0.2-0.8-0.4c0-0.4,0.1-0.8,0.3-1.2l1.3-3
		c1.8-4.2,3.1-7.7,3-7.8s-1.8,3.3-3.6,7.5c-0.4,1-0.9,2-1.2,3c-0.3,0.5-0.4,1-0.3,1.6c0.1,0.3,0.3,0.5,0.6,0.6
		c0.2,0.1,0.4,0.1,0.7,0.1C382.3,123.2,383.2,123.3,384,123.2z"/>
	<path class="st6" d="M391,105.8c0.1,0.4,1.5,0.3,3.1,0.5s2.9,0.8,3.1,0.4c0.1-0.2-0.1-0.5-0.6-0.9c-0.7-0.5-1.5-0.8-2.3-0.9
		c-0.8-0.1-1.6-0.1-2.4,0.2C391.2,105.4,390.9,105.7,391,105.8z"/>
	<path class="st6" d="M374.7,107.1c0.1,0.3,1.5,0.1,3.1,0.3s2.9,0.5,3.1,0.2c0.1-0.1-0.1-0.4-0.7-0.8c-1.4-0.8-3.1-0.9-4.7-0.3
		C374.9,106.7,374.7,107,374.7,107.1z"/>
	<path class="st11" d="M406.3,117.9c0.2-0.1,7-1.8,6.5,5.1c-0.5,6.9-7.3,4.9-7.3,4.8S406.3,117.9,406.3,117.9z"/>
	<path class="st12" d="M407.8,125.4c0,0,0.1,0.1,0.3,0.2c0.3,0.1,0.6,0.2,0.9,0.1c0.9-0.5,1.5-1.5,1.6-2.6c0.1-0.6,0-1.2-0.2-1.7
		c-0.1-0.5-0.4-0.8-0.8-1c-0.3-0.1-0.6,0-0.7,0.3c-0.1,0.2-0.1,0.3-0.1,0.3s-0.1-0.1-0.1-0.4c0-0.2,0.2-0.3,0.3-0.4
		c0.2-0.1,0.4-0.2,0.7-0.1c0.6,0.2,1,0.6,1.2,1.2c0.2,0.6,0.3,1.3,0.3,1.9c-0.1,1.4-1,2.6-2,2.8c-0.4,0.1-0.8,0-1.1-0.3
		C407.8,125.5,407.7,125.4,407.8,125.4z"/>
	<path class="st6" d="M385.1,128.1c-0.1-0.2,1.3-0.4,2.4-1.6c0.5-0.5,0.8-1.1,1.1-1.7c0.3-0.5,0.5-0.8,0.5-0.7s0,0.4-0.2,0.9
		c-0.2,0.7-0.6,1.4-1.1,1.9c-0.5,0.5-1.2,0.9-1.9,1.1C385.4,128.2,385.1,128.2,385.1,128.1z"/>
	<path class="st6" d="M365.1,98.8c-0.6,0.2-1.1,0.7-1.3,1.4c-0.1,1,0.4,1.9,1.3,2.3c0.9,0.4,2,0.2,2.7-0.4c-0.4,0.2-0.7,0.5-1,0.8
		c-0.6,0.7-0.5,1.9,0.2,2.5c0.6,0.5,1.4,0.6,2.1,0.1l0,0c0.2,0.6,0.4,1.1,0.6,1.7l0,0v0.1c0.1,0.3,0.2,0.7,0.4,1l0,0l1.9,4.8
		c0.5-2.8,0.7-6.8,1.2-9.6c4.3,0.4,8.5-1,11.8-3.9c1.7-1.5,3.2-3.5,5.4-4.3c2.8-1,5.8,0.3,8.5,1.6l-0.1-0.1c1.4,0.8,2.6,1.9,3.5,3.2
		c-1.3,5.5-1.3,11.2-0.2,16.7c0.2,0.8,0.7,2.6,1.5,3c1.5,0.8,2.1-0.8,3.1-1.5c0.9-0.5,1.9-0.6,2.9-0.4c1-2.2,1.9-4.5,2.7-6.9
		l1.2-2.3v-2.8c-1.1-2.6,2-3.5,1.5-6.3s-1.6-5.8-4.2-7h-0.1c-2.3-1.2-5.2-1.6-7.3-0.2c-0.1-3.6-2.9-6.8-6.2-8.1
		c-4-1.3-8.4-1.4-12.5-0.4c-2.7,0.7-5.4,2.6-8.8,5.3c-1.4,1.2-3.3,5.5-4.5,6.8L365.1,98.8z"/>
	<path class="st7" d="M401.7,81c0.5,0.1,12,4.6,13.7,13.9s0.4,11.9,0.4,11.9c0.4,0.4,0.8,0.8,1.1,1.2c0.4,0.7-0.7,3.3-2.2,2.8
		c-10.9-6.9-24.6-9.4-40-11.2l-11.7-1.9c-3.4-0.1-4.4-1.2-2.9-1.8c1.1-0.5,11-2.8,11-2.8l2-1.1l5.9-6c0,0-0.5-1,0.8-1.6
		S392.2,78.2,401.7,81z"/>
	<path class="st6" d="M373.1,92.1l0.5,0.1l1.3,0.2c1.1,0.1,2.8,0.4,4.8,0.7c5.3,1,10.4,2.4,15.5,4.3c5,1.9,9.9,4.1,14.7,6.5
		c1.8,0.9,3.3,1.7,4.3,2.2c0.5,0.2,0.9,0.4,1.2,0.6l0.4,0.2l-0.4-0.2l-1.2-0.6c-1-0.6-2.5-1.3-4.3-2.3c-4.8-2.5-9.7-4.7-14.7-6.6
		c-5-1.9-10.2-3.3-15.5-4.2C375.7,92.3,373.1,92.1,373.1,92.1z"/>
	<g class="st13">
		<path d="M411.8,87.9c0,0-12.5-4-18.7-2.1l0.7-0.2l-5.8,1.6c-0.9,0.4-2,0.4-2.9-0.1c2.8-1.6,5.8-2.7,8.9-3.2
			C399.7,82.8,408.4,83.3,411.8,87.9z"/>
	</g>
	<path class="st6" d="M412,88c-0.3-0.3-0.6-0.6-1-0.9c-1-0.8-2.1-1.5-3.2-2c-1.7-0.8-3.5-1.3-5.4-1.6c-2.3-0.4-4.6-0.3-6.9,0.3
		c-1.2,0.3-2.3,0.7-3.4,1.2c-1.1,0.4-2.1,0.8-3,1.3c-0.9,0.5-1.8,0.9-2.7,1.2c-0.8,0.2-1.7,0.3-2.5,0.1c-3.2-0.4-5-1.4-4.8-1.5
		c0,0.1,0.1,0.2,0.2,0.3c0.3,0.2,0.6,0.3,0.9,0.5c1.2,0.4,2.4,0.7,3.7,0.9c0.9,0.2,1.8,0.1,2.6-0.1c1-0.3,1.9-0.7,2.8-1.2
		c0.9-0.4,2-0.8,3-1.3c1.1-0.5,2.2-0.9,3.4-1.2c2.2-0.6,4.5-0.7,6.8-0.3c1.8,0.3,3.6,0.8,5.4,1.6c1.2,0.5,2.2,1.2,3.2,1.9
		c0.4,0.3,0.6,0.5,0.8,0.6L412,88z"/>
	<g class="st13">
		<path d="M416,98.8c-2.1-0.4-4.2-1.1-6.2-2c-2.4-0.9-4.7-1.7-7-2.7c-1.8-0.8-3.9-1.5-4.9-3c-0.3,0.9-0.1,1.9,0.5,2.6
			c1.1,0.9,2.3,1.7,3.6,2.2c4.5,2.2,9.3,3.9,14.1,5C416.1,100.3,416,99.6,416,98.8"/>
	</g>
	<path class="st7" d="M415.2,93.9c1.4,0.8,2.2,1.4,2.1,2.7c-0.1,1-0.5,2.3-1.6,2.3c-0.3,0-0.6-0.1-0.9-0.2l-15.4-5.5
		c-0.5-0.1-1-0.4-1.4-0.9c-0.3-0.8,0.1-1.8,0.9-2.1c0.8-0.3,1.7-0.4,2.5-0.2C406.1,90.6,410.8,92,415.2,93.9"/>
	<path class="st6" d="M398.2,92.5c-0.2-0.2-0.3-0.5-0.3-0.8c-0.1-0.8,0.3-1.5,1-1.9c1-0.4,2.2-0.5,3.3-0.2c1.3,0.2,2.7,0.5,4.1,0.9
		c2.5,0.6,4.9,1.4,7.2,2.4c0.9,0.4,1.6,0.8,2.1,1l0.6,0.3c0.1,0.1,0.2,0.1,0.2,0.1l-0.2-0.1l-0.5-0.3c-0.5-0.3-1.2-0.7-2-1.1
		c-2.3-1.1-4.7-1.9-7.2-2.5c-1.5-0.4-2.8-0.7-4.1-0.9c-1.1-0.3-2.3-0.2-3.4,0.3c-0.7,0.4-1.1,1.2-1,2c0,0.2,0.1,0.4,0.2,0.6
		L398.2,92.5z"/>
	<polygon class="st3" points="377.2,88 387.2,89.3 385.9,91.9 375.1,90.1 	"/>
	<path class="st6" d="M391,99.1c0,0-4.3-1.3-9.7-2.9s-9.8-2.8-9.8-2.7s4.3,1.3,9.7,2.9S391,99.2,391,99.1z"/>
	<path class="st1" d="M461.8,235.6l5.1-13.3l13-5.8l10,7.8l2.9-2.9c-3.8-16.5-20.3-26.7-36.7-22.9c-5.5,1.3-10.5,4-14.5,8
		l-134.7-51.5c-1-16.9-15.5-29.7-32.4-28.7c-5.6,0.3-11,2.2-15.6,5.4l-2.9,2.9l15.8,2.1l5.8,13l-5.1,13.3l-13,5.8l-13.7-4.2
		l-2.1,2.1c2.9,8.1,13,15.4,21.7,18.8c11.2,4.3,23.9,1.7,32.4-6.7l134.7,51.5c0.7,12,8.4,22.4,19.6,26.7c9.8,3.8,21.6,2.7,29.7-2.9
		l-14.1-5.5L461.8,235.6z"/>
	<g class="st13">
		<path d="M461.8,235.6l5.1-13.3l13-5.8l10,7.8l2.9-2.9c-3.8-16.5-20.3-26.7-36.7-22.9c-5.5,1.3-10.5,4-14.5,8l-134.7-51.5
			c-1-16.9-15.5-29.7-32.4-28.7c-5.6,0.3-11,2.2-15.6,5.4l-2.9,2.9l15.8,2.1l5.8,13l-5.1,13.3l-13,5.8l-13.7-4.2l-2.1,2.1
			c2.8,8.3,12.9,15.4,21.7,18.8c11.2,4.3,23.9,1.7,32.4-6.7l134.7,51.5c0.7,12,8.4,22.4,19.6,26.7c9.8,3.8,21.6,2.7,29.7-2.9
			l-14.1-5.5L461.8,235.6z"/>
	</g>
	<path class="st1" d="M458.9,238.5l5.1-13.3l13-5.8l12.9,5c-3.8-16.5-20.3-26.7-36.7-22.9c-5.5,1.3-10.5,4-14.5,8L304,158
		c-1-16.9-15.5-29.7-32.4-28.7c-5.6,0.3-11,2.2-15.6,5.4l12.9,5l5.8,13l-5.1,13.3l-13,5.8l-12.9-5c3.8,16.5,20.3,26.7,36.7,22.9
		c5.5-1.3,10.5-4,14.5-8l134.7,51.5c1,16.9,15.5,29.7,32.4,28.7c5.6-0.3,11-2.2,15.6-5.4l-12.9-5L458.9,238.5z"/>
	<path class="st6" d="M303,163.9c0,0.3,0,0.5,0,0.8c0,0.7-0.1,1.5-0.2,2.2c-0.4,2.5-1.1,4.8-2.2,7.1c-1.1,2.2-2.5,4.3-4.2,6.1
		c-0.5,0.6-1.1,1.1-1.6,1.6c-0.4,0.3-0.6,0.5-0.7,0.5s0.8-0.9,2-2.3c3.2-3.7,5.3-8.2,6.3-13C302.9,165.1,303,163.9,303,163.9z"/>
	<path class="st6" d="M458.9,238.5l0.4,0.8c0.3,0.6,0.6,1.4,1.1,2.5l4.3,9.7l0,0l12.9,4.9l0.2,0.1l-0.2,0.1c-3.6,2.5-7.6,4.2-11.8,5
		c-11,2.1-22.2-2-29.4-10.5c-4.2-5.1-6.6-11.3-7.1-17.8l0.1,0.2l-134.8-51.5l0.3-0.1c-3.8,3.7-8.5,6.4-13.6,7.8
		c-5.2,1.4-10.8,1.4-16,0c-5.3-1.4-10.2-4.3-14.1-8.2c-3.9-4-6.7-9.1-8-14.6l-0.1-0.5l0.5,0.2l12.9,5h-0.2l13-5.8l-0.1,0.1l5.1-13.3
		v0.2l-5.8-13l0.1,0.1l-12.9-5l-0.5-0.2l0.4-0.3c9.3-6.5,21.5-7.3,31.6-2.1c4.9,2.4,9,6.1,11.9,10.7c2.9,4.5,4.6,9.7,4.9,15
		l-0.2-0.2l134.7,51.6h-0.2c4.6-4.5,10.4-7.4,16.8-8.4c11-1.7,22.1,2.6,29,11.4c2.8,3.5,4.7,7.6,5.8,12v0.2l-0.2-0.1l-12.9-5h0.1
		l-13,5.8l0,0c-1.8,4.5-3,7.9-3.9,10c-0.4,1.1-0.7,1.9-1,2.4S458.9,238.4,458.9,238.5c0-0.1,0-0.3,0.2-0.9s0.5-1.4,0.9-2.4
		c0.8-2.2,2.1-5.5,3.8-10.1l0,0l0,0l13-5.8l0,0l0,0l13.1,5l-0.2,0.1c-1-4.3-3-8.4-5.8-11.9c-6.8-8.7-17.8-12.9-28.7-11.2
		c-6.2,1-12,3.9-16.6,8.4l-0.1,0.1l-0.1-0.1l-134.8-51.4l-0.2-0.1V158c-1-16.7-15.3-29.5-32-28.5c-5.6,0.3-11,2.2-15.6,5.4l-0.1-0.5
		l12.9,5h0.1v0.1c1.9,4.3,3.8,8.6,5.8,13l0,0v0.1v0.1c-1.8,4.6-3.5,9.1-5.1,13.3v0.1l-0.1,0.1l-13,5.8h-0.1h-0.1l-12.9-5l0.4-0.3
		c2.5,10.9,10.9,19.5,21.7,22.4c5.1,1.4,10.6,1.4,15.7,0c5-1.4,9.7-4,13.4-7.6l0.1-0.1l0.1,0.1L429.6,233h0.1v0.1
		c0.4,6.5,2.9,12.6,7,17.6c7.1,8.5,18.2,12.5,29.1,10.5c4.2-0.8,8.2-2.5,11.8-4.9v0.2l-12.9-5l0,0l0,0c-1.9-4.3-3.3-7.5-4.3-9.7
		l-1.1-2.5C459,238.7,458.9,238.5,458.9,238.5z"/>
	<path class="st7" d="M368.4,156.3l-9.6,76.5c-0.5,3.7,1.9,7.2,5.5,8.1l49.4,8.6c2.6,0.5,5.1-1.3,5.6-3.9c0-0.3,0.1-0.5,0.1-0.8
		c0.1-10.5,0.5-33.3,2-47.5c1.6-15.7,5.8-28.4,0-35.9s-16-12.7-16-12.7l-1.1-4.7c0,0-21.3,0-25,3.2l-2.3,3.9L368.4,156.3z"/>
	<path class="st6" d="M423.5,173.9c0,0.2,0,0.3,0,0.5c0,0.4,0,0.9-0.1,1.4c-0.1,1.3-0.2,3-0.4,5.2c-0.3,4.4-0.8,10.4-1.4,17
		s-1.1,12.7-1.6,17c-0.2,2.1-0.4,3.9-0.5,5.1l-0.2,1.4c0,0.2,0,0.3-0.1,0.5c0-0.2,0-0.3,0-0.5c0-0.4,0-0.9,0.1-1.4
		c0.1-1.3,0.2-3,0.4-5.2c0.3-4.4,0.8-10.4,1.4-17s1.1-12.7,1.6-17c0.2-2.1,0.4-3.9,0.5-5.2c0.1-0.6,0.1-1,0.2-1.4
		C423.5,174.3,423.5,174.1,423.5,173.9z"/>
	<path class="st6" d="M405.4,148.7c-0.4,0.1-0.7,0.1-1.1,0.1l-3,0.1c-2.6,0.1-6.1,0.4-10,0.7s-7.4,0.8-10,1.1l-3,0.3
		c-0.4,0.1-0.7,0.1-1.1,0.1c0.4-0.1,0.7-0.2,1.1-0.3c0.7-0.1,1.7-0.3,3-0.5c2.5-0.4,6.1-0.9,10-1.2s7.5-0.5,10-0.6c1.3,0,2.3,0,3,0
		C404.6,148.6,405,148.6,405.4,148.7z"/>
	<path class="st7" d="M327.1,350l8.4,18.7c0,0-22.1,8.6-22.3,12.8l43-0.8l0-3.6l-9.5-30.9L327.1,350z"/>
	<path class="st1" d="M348.1,365.3c0.9,0.2,1.4,1.1,1.2,2c-0.2,0.9-1.1,1.4-2,1.2c-0.9-0.3-1.5-1.2-1.3-2.1c0.3-0.9,1.3-1.4,2.2-1.1
		"/>
	<path class="st6" d="M356.2,380.7l0-3.6l-41.3,2.1c0,0-1.9,0.9-1.7,2.2L356.2,380.7z"/>
	<path class="st6" d="M334.8,368.5c0,0.2,1.1,0.3,2.1,0.9s1.6,1.5,1.8,1.4s-0.1-1.3-1.4-2.1S334.8,368.3,334.8,368.5z"/>
	<path class="st6" d="M330.4,370.4c0,0.2,0.9,0.5,1.6,1.4s1,1.8,1.2,1.8s0.3-1.2-0.6-2.3S330.4,370.2,330.4,370.4z"/>
	<path class="st6" d="M327.9,375.9c0.2,0,0.5-1-0.1-2.1s-1.5-1.6-1.6-1.4s0.5,0.8,1,1.7S327.7,375.8,327.9,375.9z"/>
	<path class="st6" d="M333.3,363.6c0.1,0.2,1-0.1,2.2-0.1s2.1,0.4,2.2,0.2s-0.8-0.9-2.2-1S333.1,363.4,333.3,363.6z"/>
	<polygon class="st7" points="401.3,410.5 402.3,446.2 383.5,446.1 382.5,411.3 	"/>
	<path class="st6" d="M393,444.4c-0.1,0-0.4-7.6-0.5-17s-0.1-17,0-17s0.4,7.6,0.5,17S393.1,444.4,393,444.4z"/>
	<path class="st6" d="M383.2,435c0.1-0.3,0.3-0.5,0.5-0.8c0.5-0.7,1-1.3,1.6-1.8c0.9-0.8,1.9-1.6,3-2.1c3.9-2,8.7-1.2,11.7,1.9
		c0.6,0.6,1,1.3,1.4,2c0.2,0.3,0.3,0.5,0.3,0.8c-0.6-0.9-1.3-1.8-2-2.6c-1.9-1.8-4.5-2.8-7.1-2.7c-2.6,0.1-5.1,1.2-7.1,2.9
		C384,434,383.3,435,383.2,435z"/>
	<polygon class="st6" points="402.2,446.2 383.5,446.1 383.4,441.9 402.2,442 	"/>
	<path class="st6" d="M404.2,247.6l-41-7.1L363,245c-9.9,7.9-36.3,30.6-52.3,46.2c0,0-5.9,7.8-3.6,15.1l22.1,56.7l25.4-5.9l-15.5-48
		l47.6-22.3c9.3-3.4,17.6-15.1,19.6-21.8C408.1,259.3,404.5,255,404.2,247.6z"/>
	<path class="st6" d="M371.5,292.7l9.8,131.1l24.3,0.6c0,0,4.2-38.7,3.6-63.4s-0.5-85.3-0.5-85.3L371.5,292.7z"/>
	<path class="st6" d="M404.2,247.6L417,250c0,0,0.5,31.4-0.4,34.6s-8.5,12.2-8.5,12.2l-35.6,6.8v-28.2L404.2,247.6z"/>
	<polygon class="st6" points="408.1,264.3 409,273.2 418.7,273.2 417.1,264.3 	"/>
	<path class="st10" d="M400.9,273.2c-0.1,0.2-0.2,0.5-0.3,0.7c-0.3,0.6-0.6,1.3-1,1.9c-1.4,2.2-3,4.3-5,6c-2.9,2.6-6.1,4.7-9.6,6.5
		c-3.9,2-8.3,3.9-12.8,6l-23.3,10.7l-7.1,3.2l-1.9,0.8c-0.2,0.1-0.5,0.2-0.7,0.3c0.2-0.1,0.4-0.2,0.6-0.4l1.9-0.9l7-3.3l23.3-10.8
		c4.5-2.1,8.9-4,12.8-6c3.4-1.7,6.6-3.8,9.6-6.3c1.9-1.7,3.6-3.7,5-5.8C400.4,274.1,400.9,273.1,400.9,273.2z"/>
	<path class="st10" d="M409.2,295c-2.4,1.8-5,3.5-7.6,5c-2.5,1.7-5.2,3.2-7.9,4.6c2.4-1.8,5-3.5,7.6-5
		C403.9,297.9,406.5,296.4,409.2,295z"/>
	<path class="st10" d="M417.1,264.3c0.3,0.8,0.5,1.6,0.6,2.5c0.3,1.5,0.8,3.8,1.3,6.4l0.1,0.3h-0.3h-4.8H409h-0.2v-0.2
		c-0.2-2.6-0.5-4.8-0.6-6.4c-0.1-0.8-0.2-1.7-0.1-2.5c0.2,0.8,0.3,1.6,0.4,2.5c0.2,1.6,0.5,3.8,0.8,6.4l-0.2-0.2h4.9h4.8l-0.2,0.3
		c-0.5-2.6-0.9-4.8-1.1-6.4C417.2,266,417.1,265.2,417.1,264.3z"/>
	<path class="st10" d="M370.7,258.3l0.4,0l1.3,0.2l4.9,0.9l16.9,3.2h0.2v0.2c-0.4,2.8-0.9,5.8-1.3,8.9v0.3l-0.3-0.1l-0.3-0.1
		c-9.7-2.2-18.5-4.3-24.2-5.6l-0.2,0l0.1-0.2c0.8-2.4,1.5-4.4,1.9-5.8c0.2-0.6,0.4-1.1,0.5-1.5C370.6,258.6,370.7,258.4,370.7,258.3
		c0,0.2,0,0.3-0.1,0.5c-0.1,0.4-0.3,0.9-0.5,1.6l-1.7,5.7l-0.1-0.2c5.8,1.3,14.5,3.2,24.3,5.5l0.3,0.1l-0.3,0.2
		c0.5-3.1,0.9-6.1,1.3-8.9l0.2,0.3l-16.7-3.4l-4.9-1l-1.3-0.3C371,258.4,370.8,258.4,370.7,258.3z"/>
	<path class="st10" d="M322.7,307c0.9-0.3,1.8-0.5,2.7-0.5c2.2-0.2,4.4-0.2,6.6,0c2.2,0.2,4.4,0.7,6.5,1.5c0.9,0.3,1.7,0.7,2.5,1.2
		c-0.9-0.2-1.7-0.5-2.6-0.8c-2.1-0.6-4.2-1.1-6.4-1.3c-2.2-0.2-4.3-0.3-6.5-0.1C324.5,307,323.6,307,322.7,307z"/>
	<path class="st10" d="M369.9,245.4c-0.1,0-0.1-0.7,0-1.5s0.4-1.5,0.5-1.5s0.1,0.7,0,1.5S370.1,245.4,369.9,245.4z"/>
	<path class="st10" d="M371.9,246c-0.1,0-0.1-0.8,0-1.8s0.4-1.7,0.6-1.7s0.1,0.8,0,1.8S372.1,246,371.9,246z"/>
	<path class="st10" d="M388.5,248.7c-0.1,0-0.1-0.8,0-1.7s0.4-1.6,0.5-1.6s0.1,0.8,0,1.7S388.7,248.8,388.5,248.7z"/>
	<path class="st10" d="M390.4,249.6c-0.1,0-0.1-0.9,0-2s0.4-1.9,0.5-1.9s0.1,0.9,0,2S390.6,249.6,390.4,249.6z"/>
	<path class="st10" d="M406.4,252.4c-0.1,0-0.2-0.9-0.1-1.9s0.3-1.9,0.5-1.8s0.2,0.9,0.1,1.9S406.6,252.4,406.4,252.4z"/>
	<path class="st10" d="M408.9,253c-0.1,0-0.2-1-0.1-2.1s0.2-2.1,0.4-2.1C409.4,250.2,409.3,251.6,408.9,253z"/>
	<path class="st7" d="M350.4,198l30.5,8.8c0,0,4.6-17.2,6.9-27.3c2.5-11.1,0.5-16.9-6.9-22c-1.7-1.2-3.6-1.9-5.6-2.2
		c-5.9-0.7-11.5,2.6-13.8,8c-1.9,4.6-3.6,9.2-4.9,14C353.5,187.2,350.4,198,350.4,198z"/>
	<path class="st6" d="M387.7,179.5c0,0.2,0,0.4-0.1,0.5l-0.3,1.5c-0.3,1.3-0.7,3.2-1.3,5.6c-1.1,4.8-2.9,11.7-5,19.7l-0.1,0.2
		l-0.2-0.1l-19.2-5.5l-11.3-3.3l-0.2-0.1l0.1-0.2c3-10,5.5-18.8,7.5-24.9c1-3.1,1.9-5.5,2.6-7.1c0.3-0.8,0.6-1.4,0.8-1.9
		c0.1-0.2,0.2-0.4,0.3-0.6c-0.1,0.2-0.1,0.4-0.2,0.7l-0.7,1.9c-0.6,1.7-1.5,4.1-2.5,7.2c-1.9,6.2-4.4,14.9-7.4,25l-0.2-0.3l11.3,3.2
		l19.2,5.6l-0.3,0.2c2.2-8,4-14.9,5.2-19.7c0.6-2.4,1.1-4.3,1.4-5.6c0.1-0.6,0.3-1.1,0.4-1.5C387.6,179.8,387.6,179.7,387.7,179.5z"
		/>
	<path class="st6" d="M385.6,162.8c-0.1,0.1-0.7-0.9-1.9-2.1c-1.6-1.6-3.5-2.8-5.7-3.6c-2.1-0.8-4.4-1.1-6.6-1
		c-1.7,0.1-2.8,0.4-2.8,0.3s0.2-0.1,0.7-0.3c0.7-0.2,1.4-0.3,2.1-0.4c4.7-0.5,9.4,1.2,12.6,4.7c0.5,0.5,0.9,1.1,1.3,1.6
		C385.5,162.3,385.6,162.5,385.6,162.8z"/>
	<path class="st11" d="M353.4,199l-1.5,5.1l-29.1-12.6l-6.3,9.7c0,0,22.9,17,30,22.4s15.5,3.5,20.3-2.8c5-6.5,6.9-15.9,6.9-15.9
		L353.4,199z"/>
	<path class="st12" d="M355,210.5c-0.1,0-0.5-1.5-1.4-3.3s-1.9-3-1.8-3.1C353.8,205.7,354.9,208,355,210.5z"/>
	<path class="st11" d="M327.2,193.8l-3.9-2.7c-2-6.1-5.9-17.1-7-16.8s-1.8,1.4-1.4,3.8c0.9,5.6-0.5,8.1-3.8,7.4
		c-1.1-0.3-11-1.8-11-1.8s-2.7,1.6,0,4.2c0,0-1.3,3.5,2.3,4.3c0,0,0.5,3.9,3.2,4.1c2.9,1.5,5.9,2.8,9,3.9l4.9,2.9L327.2,193.8z"/>
	<path class="st12" d="M307.7,190.1c0,0.2-2-0.2-4.2-1c-0.8-0.3-1.5-0.5-2.2-0.7l0.1-0.4l0.4,0.1l-0.1,0.4c-0.5-0.1-1-0.3-1.5-0.6
		c0.5,0,1.1,0,1.6,0.2l-0.1,0.4h-0.4l0.1-0.4c0.8,0.1,1.5,0.3,2.2,0.6C305.1,189,306.4,189.5,307.7,190.1z"/>
	<path class="st12" d="M308.4,194.5c-1.1-0.1-2.1-0.3-3.1-0.8c-1-0.3-2-0.8-2.8-1.5c1,0.2,2,0.6,3,1
		C306.5,193.5,307.5,194,308.4,194.5z"/>
</g>
</svg>
