<?xml version="1.0" encoding="utf-8"?>
<!-- Generator: Adobe Illustrator 26.0.1, SVG Export Plug-In . SVG Version: 6.00 Build 0)  -->
<svg version="1.1" id="Layer_1" xmlns="http://www.w3.org/2000/svg" xmlns:xlink="http://www.w3.org/1999/xlink" x="0px" y="0px"
	 viewBox="0 0 694 694" style="enable-background:new 0 0 694 694;" xml:space="preserve">
<style type="text/css">
	.st0{fill:none;stroke:#00689C;stroke-width:5;stroke-linecap:round;stroke-linejoin:round;}
	.st1{fill:#DAEADD;}
	.st2{fill:#5095D0;}
	.st3{fill:#1585C4;}
	.st4{fill:#D1D4DA;}
	.st5{fill:#B4B8C1;}
	.st6{fill:#1F3C88;}
	.st7{fill:#E28B6D;}
	.st8{fill:#FFFFFF;}
	.st9{fill:#102048;}
	.st10{fill:#34363A;}
	.st11{fill:#D3DFFF;}
	.st12{fill:#414245;}
	.st13{fill:#C1CFF3;}
	.st14{fill:#8B9ECF;}
	.st15{fill:#F9B384;}
	.st16{fill:#807E79;}
	.st17{fill:#72716F;}
	.st18{fill:none;stroke:#263238;stroke-width:2.5;stroke-linecap:round;stroke-linejoin:round;}
	.st19{fill:#EE6F57;}
	.st20{fill:none;stroke:#DEEED6;stroke-width:1.567;stroke-linecap:round;stroke-linejoin:round;}
	.st21{fill:#FAF9F8;}
	.st22{fill:#F9A543;}
	.st23{fill:#FAA94C;}
	.st24{fill:#4D515B;}
	.st25{fill:#4B4F5A;}
	.st26{fill:#EEEDEE;}
	.st27{fill:#FED933;}
	.st28{fill:#FDFCF1;}
	.st29{fill:#F3E585;}
	.st30{fill:#4C4C4A;}
	.st31{fill:#6AB263;}
	.st32{fill:#5EA65D;}
	.st33{fill:#A4B590;}
	.st34{fill:#89C285;}
	.st35{fill:#5296CF;}
	.st36{fill:#68C6F0;}
	.st37{fill:#5AB1E2;}
	.st38{fill:#F7FCFF;}
	.st39{fill:#F0F8FD;}
	.st40{fill:#4F82C1;}
	.st41{fill:#FDC63D;}
	.st42{fill:#60B561;}
	.st43{fill:#F15D43;}
	.st44{fill:#E8544F;}
	.st45{fill:#BE4243;}
	.st46{fill:#E6514D;}
	.st47{fill:#FDEDEA;}
	.st48{fill:#AC4041;}
	.st49{fill:#66C5EF;}
	.st50{fill:#4FACDF;}
	.st51{fill:#3A6BA5;}
	.st52{fill:#FFFEFE;}
	.st53{fill:#4D4D4D;}
	.st54{fill:#7AA975;}
	.st55{fill:#82B472;}
	.st56{fill:#72A369;}
	.st57{fill:#5D9759;}
	.st58{fill:#7EC064;}
</style>
<defs>
	
		<animateTransform  accumulate="none" additive="sum" attributeName="transform" begin="0s" calcMode="spline" dur="3s" fill="freeze" from="0" keySplines="0.333 0 0.667 1;0.333 0 0.667 1;0.333 0 0.667 1;0 0 0 0" keyTimes="0;0.2888889;0.5888889;0.8777778;1" repeatCount="indefinite" restart="always" to="0" type="rotate" values="0;7;7;0;0">
		</animateTransform>
	
		<animateTransform  accumulate="none" additive="sum" attributeName="transform" begin="0s" calcMode="spline" dur="3s" fill="freeze" from="-34.529 -107.543" keySplines="0 0 1 1" keyTimes="0;1" repeatCount="indefinite" restart="always" to="-34.529 -107.543" type="translate" values="-34.529 -107.543;-34.529 -107.543">
		</animateTransform>
	
		<animateTransform  accumulate="none" additive="sum" attributeName="transform" begin="0s" calcMode="spline" dur="3s" fill="freeze" from="1 1" keySplines="0.167 0.167 0.833 0.833;0.167 0.167 0.833 0.833;0.167 0.167 0.833 0.833;0.167 0.167 0.833 0.833;0.167 0.167 0.833 0.833;0.167 0.167 0.833 0.833;0 0 0 0" keyTimes="0;0.2111111;0.2444444;0.2777778;0.6111111;0.6444444;0.6777778;1" repeatCount="indefinite" restart="always" to="1 1" type="scale" values="1 1;1 1;1 0;1 1;1 1;1 0;1 1;1 1">
		</animateTransform>
	
		<animateTransform  accumulate="none" additive="sum" attributeName="transform" begin="0s" calcMode="spline" dur="3s" fill="freeze" from="-10.962 -3.398" keySplines="0 0 1 1" keyTimes="0;1" repeatCount="indefinite" restart="always" to="-10.962 -3.398" type="translate" values="-10.962 -3.398;-10.962 -3.398">
		</animateTransform>
	
		<animateTransform  accumulate="none" additive="sum" attributeName="transform" begin="0s" calcMode="spline" dur="3s" fill="freeze" from="0" keySplines="0.333 0 0.667 1;0.333 0 0.667 1;0.333 0 0.667 1;0 0 0 0" keyTimes="0;0.2888889;0.5888889;0.8777778;1" repeatCount="indefinite" restart="always" to="0" type="rotate" values="0;7;7;0;0">
		</animateTransform>
	
		<animateTransform  accumulate="none" additive="sum" attributeName="transform" begin="0s" calcMode="spline" dur="3s" fill="freeze" from="-34.529 -107.543" keySplines="0 0 1 1" keyTimes="0;1" repeatCount="indefinite" restart="always" to="-34.529 -107.543" type="translate" values="-34.529 -107.543;-34.529 -107.543">
		</animateTransform>
	
		<animate  accumulate="none" additive="replace" attributeName="opacity" begin="0s" calcMode="spline" dur="3s" fill="freeze" from="0" keySplines="0.333 0 0.667 1;0.333 0 0.667 1;0.333 0 0.667 1;0.333 0 0.667 1;0 0 0 0" keyTimes="0;0.1666667;0.3888889;0.7111111;0.9111111;1" repeatCount="indefinite" restart="always" to="0" values="0;0;1;1;0;0">
		</animate>
	
		<animateMotion  accumulate="none" additive="replace" begin="0s" calcMode="spline" dur="3s" fill="freeze" keyPoints="0;0;1;1" keySplines="0.333 0 0.667 1;0.333 0 0.667 1;0 0 0 0" keyTimes="0;0.1666667;0.9111111;1" path="M143.32 501.45 C143.32,501.45 143.32,501.45 143.32,501.45 C143.32,501.45 143.32,490.95 143.32,490.95 C143.32,490.95 143.32,490.95 143.32,490.95 " repeatCount="indefinite" restart="always">
		</animateMotion>
	
		<animateTransform  accumulate="none" additive="sum" attributeName="transform" begin="0s" calcMode="spline" dur="3s" fill="freeze" from="-14.243 -25.558" keySplines="0 0 1 1" keyTimes="0;1" repeatCount="indefinite" restart="always" to="-14.243 -25.558" type="translate" values="-14.243 -25.558;-14.243 -25.558">
		</animateTransform>
	
		<animate  accumulate="none" additive="replace" attributeName="opacity" begin="0s" calcMode="spline" dur="3s" fill="freeze" from="0" keySplines="0.333 0 0.667 1;0.333 0 0.667 1;0.333 0 0.667 1;0 0 0 0" keyTimes="0;0.3555556;0.7222222;0.9888889;1" repeatCount="indefinite" restart="always" to="0" values="0;1;1;0;0">
		</animate>
	
		<animateMotion  accumulate="none" additive="replace" begin="0s" calcMode="spline" dur="3s" fill="freeze" keyPoints="0;1" keySplines="0.333 0 0.667 1" keyTimes="0;1" path="M135 495 C135,495 135,465.5 135,465.5 " repeatCount="indefinite" restart="always">
		</animateMotion>
	
		<animateTransform  accumulate="none" additive="sum" attributeName="transform" begin="0s" calcMode="spline" dur="3s" fill="freeze" from="0" keySplines="0.167 0.167 0.833 0.833;0 0 0 0" keyTimes="0;0.9888889;1" repeatCount="indefinite" restart="always" to="7" type="rotate" values="0;7;7">
		</animateTransform>
	
		<animateMotion  accumulate="none" additive="replace" begin="0s" calcMode="spline" dur="3s" fill="freeze" keyPoints="0;0.38;0.67;1" keySplines="0.333 0 0.667 1;0.333 0 0.667 1;0.333 0 0.667 1" keyTimes="0;0.4;0.7444444;1" path="M155.64 421.25 C155.64,421.25 166.64,429.75 166.64,429.75 C166.64,429.75 157.14,433.25 157.14,433.25 C157.14,433.25 155.64,421.25 155.64,421.25 " repeatCount="indefinite" restart="always">
		</animateMotion>
	
		<animateTransform  accumulate="none" additive="sum" attributeName="transform" begin="0s" calcMode="spline" dur="3s" fill="freeze" from="1.09 1.09" keySplines="0.167 0 0.667 1;0.333 0 0.667 1;0 0 0 0" keyTimes="0;0.3666667;0.9888889;1" repeatCount="indefinite" restart="always" to="1.09 1.09" type="scale" values="1.09 1.09;0.76 0.76;1.09 1.09;1.09 1.09">
		</animateTransform>
	
		<animateTransform  accumulate="none" additive="sum" attributeName="transform" begin="0s" calcMode="spline" dur="3s" fill="freeze" from="-40.672 -40.671" keySplines="0 0 1 1" keyTimes="0;1" repeatCount="indefinite" restart="always" to="-40.672 -40.671" type="translate" values="-40.672 -40.671;-40.672 -40.671">
		</animateTransform>
	
		<animateMotion  accumulate="none" additive="replace" begin="0s" calcMode="spline" dur="3s" fill="freeze" keyPoints="0;0.38;0.67;1" keySplines="0.333 0 0.667 1;0.333 0 0.667 1;0.333 0 0.667 1" keyTimes="0;0.1666667;0.6222222;1" path="M155.64 299.25 C155.64,299.25 166.64,307.75 166.64,307.75 C166.64,307.75 157.14,311.25 157.14,311.25 C157.14,311.25 155.64,299.25 155.64,299.25 " repeatCount="indefinite" restart="always">
		</animateMotion>
	
		<animateTransform  accumulate="none" additive="sum" attributeName="transform" begin="0s" calcMode="spline" dur="3s" fill="freeze" from="0.8200000000000001 0.8200000000000001" keySplines="0.167 0 0.667 1;0.333 0 0.667 1;0 0 0 0" keyTimes="0;0.6666667;0.9888889;1" repeatCount="indefinite" restart="always" to="0.8200000000000001 0.8200000000000001" type="scale" values="0.8200000000000001 0.8200000000000001;0.76 0.76;0.8200000000000001 0.8200000000000001;0.8200000000000001 0.8200000000000001">
		</animateTransform>
	
		<animateTransform  accumulate="none" additive="sum" attributeName="transform" begin="0s" calcMode="spline" dur="3s" fill="freeze" from="-40.672 -40.671" keySplines="0 0 1 1" keyTimes="0;1" repeatCount="indefinite" restart="always" to="-40.672 -40.671" type="translate" values="-40.672 -40.671;-40.672 -40.671">
		</animateTransform>
	
		<animateMotion  accumulate="none" additive="replace" begin="0s" calcMode="spline" dur="3s" fill="freeze" keyPoints="0;0.38;0.67;1" keySplines="0.333 0 0.667 1;0.333 0 0.667 1;0.333 0 0.667 1" keyTimes="0;0.3444444;0.5666667;1" path="M231.64 209.25 C231.64,209.25 242.64,217.75 242.64,217.75 C242.64,217.75 233.14,221.25 233.14,221.25 C233.14,221.25 231.64,209.25 231.64,209.25 " repeatCount="indefinite" restart="always">
		</animateMotion>
	
		<animateTransform  accumulate="none" additive="sum" attributeName="transform" begin="0s" calcMode="spline" dur="3s" fill="freeze" from="1.24 1.24" keySplines="0.167 0 0.667 1;0.333 0 0.667 1;0 0 0 0" keyTimes="0;0.4333333;0.9888889;1" repeatCount="indefinite" restart="always" to="1.24 1.24" type="scale" values="1.24 1.24;0.76 0.76;1.24 1.24;1.24 1.24">
		</animateTransform>
	
		<animateTransform  accumulate="none" additive="sum" attributeName="transform" begin="0s" calcMode="spline" dur="3s" fill="freeze" from="-40.672 -40.671" keySplines="0 0 1 1" keyTimes="0;1" repeatCount="indefinite" restart="always" to="-40.672 -40.671" type="translate" values="-40.672 -40.671;-40.672 -40.671">
		</animateTransform>
	
		<animateMotion  accumulate="none" additive="replace" begin="0s" calcMode="spline" dur="3s" fill="freeze" keyPoints="0;0.38;0.67;1" keySplines="0.333 0 0.667 1;0.333 0 0.667 1;0.333 0 0.667 1" keyTimes="0;0.2666667;0.7;1" path="M323.64 157.25 C323.64,157.25 334.64,165.75 334.64,165.75 C334.64,165.75 325.14,169.25 325.14,169.25 C325.14,169.25 323.64,157.25 323.64,157.25 " repeatCount="indefinite" restart="always">
		</animateMotion>
	
		<animateTransform  accumulate="none" additive="sum" attributeName="transform" begin="0s" calcMode="spline" dur="3s" fill="freeze" from="0.8 0.8" keySplines="0.167 0 0.667 1;0.333 0 0.667 1;0 0 0 0" keyTimes="0;0.6;0.9888889;1" repeatCount="indefinite" restart="always" to="0.8 0.8" type="scale" values="0.8 0.8;0.76 0.76;0.8 0.8;0.8 0.8">
		</animateTransform>
	
		<animateTransform  accumulate="none" additive="sum" attributeName="transform" begin="0s" calcMode="spline" dur="3s" fill="freeze" from="-40.672 -40.671" keySplines="0 0 1 1" keyTimes="0;1" repeatCount="indefinite" restart="always" to="-40.672 -40.671" type="translate" values="-40.672 -40.671;-40.672 -40.671">
		</animateTransform>
	
		<animateMotion  accumulate="none" additive="replace" begin="0s" calcMode="spline" dur="3s" fill="freeze" keyPoints="0;0.38;0.67;1" keySplines="0.333 0 0.667 1;0.333 0 0.667 1;0.333 0 0.667 1" keyTimes="0;0.4444444;0.8;1" path="M451.64 291.25 C451.64,291.25 462.64,299.75 462.64,299.75 C462.64,299.75 453.14,303.25 453.14,303.25 C453.14,303.25 451.64,291.25 451.64,291.25 " repeatCount="indefinite" restart="always">
		</animateMotion>
	
		<animateTransform  accumulate="none" additive="sum" attributeName="transform" begin="0s" calcMode="spline" dur="3s" fill="freeze" from="0.6 0.6" keySplines="0.167 0 0.667 1;0.333 0 0.667 1;0 0 0 0" keyTimes="0;0.3222222;0.9888889;1" repeatCount="indefinite" restart="always" to="0.6 0.6" type="scale" values="0.6 0.6;0.76 0.76;0.6 0.6;0.6 0.6">
		</animateTransform>
	
		<animateTransform  accumulate="none" additive="sum" attributeName="transform" begin="0s" calcMode="spline" dur="3s" fill="freeze" from="-40.672 -40.671" keySplines="0 0 1 1" keyTimes="0;1" repeatCount="indefinite" restart="always" to="-40.672 -40.671" type="translate" values="-40.672 -40.671;-40.672 -40.671">
		</animateTransform>
	
		<animateMotion  accumulate="none" additive="replace" begin="0s" calcMode="spline" dur="3s" fill="freeze" keyPoints="0;0.38;0.67;1" keySplines="0.333 0 0.667 1;0.333 0 0.667 1;0.333 0 0.667 1" keyTimes="0;0.3444444;0.6222222;1" path="M559.64 257.25 C559.64,257.25 570.64,265.75 570.64,265.75 C570.64,265.75 561.14,269.25 561.14,269.25 C561.14,269.25 559.64,257.25 559.64,257.25 " repeatCount="indefinite" restart="always">
		</animateMotion>
	
		<animateTransform  accumulate="none" additive="sum" attributeName="transform" begin="0s" calcMode="spline" dur="3s" fill="freeze" from="1.1300000000000001 1.1300000000000001" keySplines="0.167 0 0.667 1;0.333 0 0.667 1;0 0 0 0" keyTimes="0;0.5444444;0.9888889;1" repeatCount="indefinite" restart="always" to="1.1300000000000001 1.1300000000000001" type="scale" values="1.1300000000000001 1.1300000000000001;0.76 0.76;1.1300000000000001 1.1300000000000001;1.1300000000000001 1.1300000000000001">
		</animateTransform>
	
		<animateTransform  accumulate="none" additive="sum" attributeName="transform" begin="0s" calcMode="spline" dur="3s" fill="freeze" from="-40.672 -40.671" keySplines="0 0 1 1" keyTimes="0;1" repeatCount="indefinite" restart="always" to="-40.672 -40.671" type="translate" values="-40.672 -40.671;-40.672 -40.671">
		</animateTransform>
	
		<animateMotion  accumulate="none" additive="replace" begin="0s" calcMode="spline" dur="3s" fill="freeze" keyPoints="0;0.38;0.67;1" keySplines="0.333 0 0.667 1;0.333 0 0.667 1;0.333 0 0.667 1" keyTimes="0;0.2222222;0.7555556;1" path="M453.64 173.25 C453.64,173.25 464.64,181.75 464.64,181.75 C464.64,181.75 455.14,185.25 455.14,185.25 C455.14,185.25 453.64,173.25 453.64,173.25 " repeatCount="indefinite" restart="always">
		</animateMotion>
	
		<animateTransform  accumulate="none" additive="sum" attributeName="transform" begin="0s" calcMode="spline" dur="3s" fill="freeze" from="1.16 1.16" keySplines="0.167 0 0.667 1;0.333 0 0.667 1;0 0 0 0" keyTimes="0;0.7333333;0.9888889;1" repeatCount="indefinite" restart="always" to="1.16 1.16" type="scale" values="1.16 1.16;0.76 0.76;1.16 1.16;1.16 1.16">
		</animateTransform>
	
		<animateTransform  accumulate="none" additive="sum" attributeName="transform" begin="0s" calcMode="spline" dur="3s" fill="freeze" from="-40.672 -40.671" keySplines="0 0 1 1" keyTimes="0;1" repeatCount="indefinite" restart="always" to="-40.672 -40.671" type="translate" values="-40.672 -40.671;-40.672 -40.671">
		</animateTransform>
	
		<animateMotion  accumulate="none" additive="replace" begin="0s" calcMode="spline" dur="3s" fill="freeze" keyPoints="0;0.38;0.67;1" keySplines="0.333 0 0.667 1;0.333 0 0.667 1;0.333 0 0.667 1" keyTimes="0;0.2777778;0.7;1" path="M559.64 373.25 C559.64,373.25 570.64,381.75 570.64,381.75 C570.64,381.75 561.14,385.25 561.14,385.25 C561.14,385.25 559.64,373.25 559.64,373.25 " repeatCount="indefinite" restart="always">
		</animateMotion>
	
		<animateTransform  accumulate="none" additive="sum" attributeName="transform" begin="0s" calcMode="spline" dur="3s" fill="freeze" from="0.71 0.71" keySplines="0.167 0 0.667 1;0.333 0 0.667 1;0 0 0 0" keyTimes="0;0.3888889;0.9888889;1" repeatCount="indefinite" restart="always" to="0.71 0.71" type="scale" values="0.71 0.71;0.76 0.76;0.71 0.71;0.71 0.71">
		</animateTransform>
	
		<animateTransform  accumulate="none" additive="sum" attributeName="transform" begin="0s" calcMode="spline" dur="3s" fill="freeze" from="-40.672 -40.671" keySplines="0 0 1 1" keyTimes="0;1" repeatCount="indefinite" restart="always" to="-40.672 -40.671" type="translate" values="-40.672 -40.671;-40.672 -40.671">
		</animateTransform>
	
		<animate  accumulate="none" additive="replace" attributeName="opacity" attributeType="XML" calcMode="linear" dur="3s" fill="remove" from="0" restart="always" to="1">
		</animate>
</defs>
<g id="_R_G">
	<g id="_R_G_L_13_G" transform=" translate(411.003, 474.295) translate(-349.5, -168.274)">
		<path id="_R_G_L_13_G_D_0_P_0" class="st0" d="M-61.5,246.9h694"/>
		<path id="_R_G_L_13_G_D_1_P_0" class="st1" d="M87,284.5c18.2,0,33-2.8,33-6.1c0-3.4-14.8-6.2-33-6.2c-18.2,0-33,2.8-33,6.2
			C54,281.8,68.8,284.5,87,284.5z"/>
		<path id="_R_G_L_13_G_D_2_P_0" class="st2" d="M71.8,266.4c-7.1,0-15.1-10.2-15.1-17.1c0-7,5.7-12.8,12.8-12.8
			c7,0,12.8,5.7,12.8,12.8C82.3,255.9,79.5,266.4,71.8,266.4z M69.6,240.8c-4.7,0-8.4,3.8-8.4,8.5c0,5.2,6.4,12.9,10.7,12.9
			c4,0,6.2-7.6,6.2-12.9C78,244.6,74.2,240.8,69.6,240.8z"/>
		<path id="_R_G_L_13_G_D_3_P_0" class="st3" d="M96.5,277.5H77.7c-3.1,0-5.7-2.3-6-5.4l-3.9-45.8h39.3l-4.7,45.9
			C102.2,275.2,99.6,277.5,96.5,277.5z"/>
		<path id="_R_G_L_13_G_D_4_P_0" class="st1" d="M481,278.8c0-8-72.5-14.4-162-14.4s-161.9,6.4-161.9,14.4
			c0,6.5,47.7,11.9,113.5,13.8c7.2,11.5-4.8,25.2-14,30.2c-16.1,0.8-27.6,2.5-25.8,6.3c8.6,17.7,81.6-1.1,81.6-1.1
			s28.6,1.7,28.6-0.9c0-1.2-5-2.3-13.3-3.2l0.6,0L297.4,293c7.1,0.1,14.3,0.1,21.6,0.1C408.5,293.2,481,286.7,481,278.8z"/>
		<path id="_R_G_L_13_G_D_5_P_0" class="st2" d="M495.3,172.9c-2.1,34.5-19.9,68.9-49,87.8c-34.7,22.6-83.2,17.6-122.7,20.5
			c-34.1,2.5-68.6,4.6-102.7,1.1c-28-2.9-56.2-13.8-69.6-40.4c-13.4-26.6-14.8-62.1-1.4-89c4.3-8.6,10-16.3,16.7-22.9
			c1.1-1.1,2.2-2.2,3.4-3.2c0.8-0.7,1.6-1.4,2.4-2.1c1.2-1.1,2.5-2.1,3.8-3.1c0.4-0.3,0.8-0.6,1.3-1c0.4-0.3,0.9-0.6,1.3-1
			c0.4-0.3,0.9-0.6,1.3-0.9c0.3-0.2,0.7-0.5,1-0.7c0.6-0.4,1.1-0.8,1.7-1.1c5-3.3,10.2-6.2,15.7-8.7c5.3-2.4,10.7-4.5,16.2-6.2
			c18-5.5,36.8-7.4,55.3-9.8c39.4-5,79.4-6.8,119.1-6.8c32.4,0,68.8,4.8,90.5,31.9C491.5,132.8,496.5,153.2,495.3,172.9z"/>
		<path id="_R_G_L_13_G_D_6_P_0" class="st3" d="M198.2,108.2c-5.4,2.5-10.7,5.4-15.7,8.7c-0.6,0.4-1.1,0.7-1.7,1.1
			c-0.3,0.2-0.7,0.5-1,0.7c-0.4,0.3-0.9,0.6-1.3,0.9c-0.4,0.3-0.9,0.6-1.3,1c-0.4,0.3-0.9,0.6-1.3,1c-1.3,1-2.5,2-3.7,3l0,0
			c-0.8,0.7-1.6,1.4-2.4,2.1c-1.2,1-2.3,2.1-3.4,3.2c0.1,0.9,0.7,1.8,1.7,2c6.5,1.3,9.8,7.4,15,10.8c3.9,2.6,8.5,3.3,12.9,1.8
			c-4.8,9.8-7.4,19.6-5.3,30.6c0.6,3.3,1.7,6.6,3.2,9.6c-6.1-4.4-12-13.9-14.4-23.6c-0.3-1.4-1.8-2.2-3.1-1.9
			c-1.4,0.3-2.2,1.7-1.9,3.1c3,11.9,10.6,23.4,18.5,27.8c1.9,1.1,3.8,1.7,5.7,2.1c1.6,2,3.3,3.8,5.2,5.4l11.7,3.2l9.6-60.3
			L198.2,108.2z"/>
		<path id="_R_G_L_13_G_D_7_P_0" class="st4" d="M232.1,148.7c-24.2-9.2-41-19-50.7-25.5c-6.3-4.2-9.5-11.7-8.2-19.1L185.6,33
			c1.3-7.3,6.2-13.5,13.2-16.5c20-8.4,39.5-13.2,56.7-15.5c0,0,9.6-0.8,21.9,0.4c8.1,0.8,26.6,6.1,38.4,9.7c6.6,2,12,6.9,14.5,13.2
			c4.9,12.4,12.9,33.4,15.5,44.8c8.8,39.2,7.4,36.3,7.4,36.3l9.1,60.3l-96.8,5.3l-24.7-11L232.1,148.7z"/>
		<path id="_R_G_L_13_G_D_8_P_0" class="st5" d="M265.6,126.2c-16.4-34.7-37.1-18.1-42.1-30.9c-7.1-17.8-5.8-38-5.8-44.1l-9.9,54.4
			c0,0,22.1,2.1,30.2,15.1L265.6,126.2z"/>
		<path id="_R_G_L_13_G_D_9_P_0" class="st6" d="M218.1,50.3c-0.6,4.7-1.3,9.3-2.1,13.9c-0.7,4.6-1.6,9.2-2.4,13.9
			c-0.8,4.6-1.7,9.2-2.6,13.8l-1.4,6.9c-0.5,2.3-1,4.6-1.5,6.9l-0.7-0.1c0.3-2.3,0.6-4.7,1-7l1.1-6.9c0.8-4.6,1.6-9.3,2.4-13.9
			c0.9-4.6,1.7-9.2,2.6-13.8c0.9-4.6,1.9-9.2,2.9-13.8L218.1,50.3z"/>
		<path id="_R_G_L_13_G_D_10_P_0" class="st6" d="M314,41.7c1.3,6,2.5,12.1,3.7,18.2c1.2,6.1,2.3,12.2,3.5,18.2
			c1.1,6.1,2.2,12.2,3.2,18.3l1.5,9.2c0.5,3,1,6.1,1.4,9.2l-0.7,0.1c-0.7-3-1.3-6.1-1.9-9.1l-1.8-9.1c-1.2-6.1-2.3-12.2-3.4-18.2
			c-1.1-6.1-2.2-12.2-3.2-18.3c-1-6.1-2-12.2-2.9-18.3L314,41.7z"/>
		<path id="_R_G_L_13_G_D_11_P_0" class="st5" d="M318.6,69.8c1.1,11-0.6,68.2-27.8,69.1l0.3,12.4l42.8-2.5L318.6,69.8z"/>
		<path id="_R_G_L_13_G_D_12_P_0" class="st7" d="M262.7,137.3c19.3-8.1,23-7.8,25.6-7.6c8.9,0.4,21.7,17.8,21.7,17.8l-0.2,3.2H261
			L262.7,137.3z"/>
		<path id="_R_G_L_13_G_D_13_P_0" class="st8" d="M337,147.5h-60.1v8.9H337V147.5z"/>
		<path id="_R_G_L_13_G_D_14_P_0" class="st9" d="M267.3,276.9c1.6-0.9,26.8,4.5,54.7-15.7l-36-10L267.3,276.9z"/>
		<path id="_R_G_L_13_G_D_15_P_0" class="st3" d="M427.2,160.1c1.2-1.7,2.2-4.1,0.7-5.6c-1.6-1.5-4.1-0.2-5.8,1.2
			c-2.9,2.4-5.5,5.1-8,8l-60.8,11L270,194.6l14.3,17.9c41.7,3,65.4,3.7,91.5-0.8c13.3-2.3,25.2-4.7,34-11.7c2.1-1.7,4.1-4.5,2.7-6.8
			c-0.9-1.6-2.8-2-4.8-1.9c4.4-1,8.8-2.5,12.9-4.5c1.8-0.9,3.9-2.2,3.8-4.2c0-1.4-1.2-2.6-2.6-3.1c-1.4-0.5-2.8-0.5-4.3-0.4
			c-5.6,0.4-11,1.6-16.3,3.5C410.8,176,420.5,169.3,427.2,160.1z M401.2,182.6C401.2,182.6,401.2,182.6,401.2,182.6
			c0-0.1,0.1-0.1,0.1-0.1C401.3,182.5,401.2,182.6,401.2,182.6z"/>
		<path id="_R_G_L_13_G_D_16_P_0" class="st10" d="M287.7,167.8c0,0,81.1-37.8,107.6-36.1c26.5,1.7,25.6,33.9,15.6,48
			c-10,14-33.4,32.7-119.8,27.2L287.7,167.8z"/>
		<path id="_R_G_L_13_G_D_17_P_0" class="st11" d="M328.3,323.7c-4.4,1.2-10.6,1.5-19.2,0.2c0,0-11.1,2.8-22,5
			c-7.4,1.5-14.7,2.7-18.5,2.6c-0.3,0-0.6,0-1,0c-7.2-0.5-16.2-4.2-21-9.4c0,0,0,0,0,0c-1.3-1.4-2.3-3-2.9-4.7
			c-2.6-7.9,2.9-17.6,32.7-15.6c0,0,9.8-2.3,12.1-9.3c2.3-7.1-14.8-41-14.8-41l24.3-16.1l23.9,25.9c0,0,3.6,23.3,3.6,31
			c0,0,10.1,14.2,11.6,20.4C338,316.5,336,321.6,328.3,323.7z"/>
		<path id="_R_G_L_13_G_D_18_P_0" class="st6" d="M191.6,108.7c2.8-1,5.6-1.9,8.5-2.7c1.4-0.4,2.9-0.7,4.3-1
			c0.7-0.2,1.5-0.3,2.2-0.4c0.4-0.1,0.8-0.1,1.1-0.1c0.4,0,0.8,0,1.2,0c3.1,0.3,5.9,1.3,8.8,2.3c2.8,1,5.5,2.2,8.2,3.5
			c2.7,1.2,5.3,2.6,7.9,4.1c2.6,1.4,5.1,3,7.6,4.6c4.9,3.3,9.6,6.9,13.7,11.2l-0.5,0.5c-2.2-1.9-4.4-3.8-6.8-5.5
			c-2.3-1.7-4.8-3.3-7.2-4.9c-4.9-3.2-10.1-5.9-15.3-8.5c-2.6-1.3-5.3-2.5-8-3.5c-2.7-1-5.5-2.1-8.3-2.4c-0.4-0.1-0.7-0.1-1-0.1
			c-0.3,0-0.7,0.1-1.1,0.1c-0.7,0.1-1.4,0.2-2.2,0.3c-1.4,0.2-2.9,0.5-4.3,0.8c-2.9,0.6-5.7,1.4-8.5,2.2L191.6,108.7z"/>
		<path id="_R_G_L_13_G_D_19_P_0" class="st3" d="M206.1,219.8c9.8-0.6,19.3,0,26.3-2.3c7.5-2.6,26.9-0.9,26.9-0.9l-10.7-15.1
			l-43.4,10.6L206.1,219.8z"/>
		<path id="_R_G_L_13_G_D_20_P_0" class="st12" d="M206.5,192c-10-15.7-10-46.7,2.6-60.7c14.4-16,45.1-22.1,61.2-3.4
			c16.1,18.7,45.6,87,51.6,133.3c0,0-32.5-10.6-54.7,15.7c0,0-29.1-64.9-35.1-88.7l-16.5,12.7L206.5,192z"/>
		<path id="_R_G_L_13_G_D_21_P_0" class="st11" d="M232.1,188.2c0,0-4.3-1.6-10.4,2.4c0,0-47.4-1-58,9.5c-10.6,10.5-2.5,24.5,13,26
			c13,1.3,38.2-8.5,46-11.8c1.6-0.6,3.3-1,5-1.1l12.8-0.8L232.1,188.2z"/>
		<path id="_R_G_L_13_G_D_22_P_0" class="st6" d="M243.6,29.9c3.4,2.4,7.1,4.4,11,5.9c3.9,1.4,8,2.3,12.1,2.2c4.1,0,8.2-1,11.9-2.9
			l1.4-0.7c0.4-0.2,0.9-0.6,1.3-0.8c0.9-0.6,1.8-1.1,2.5-1.8l1.2-1l0.6-0.5c0.2-0.2,0.4-0.4,0.6-0.5c0.7-0.7,1.5-1.5,2.2-2.2
			l0.5,0.4c-0.7,0.8-1.4,1.6-2.1,2.4c-0.2,0.2-0.3,0.4-0.5,0.6l-0.6,0.5l-1.2,1.1c-0.8,0.8-1.7,1.3-2.5,2c-0.4,0.3-0.9,0.6-1.3,0.9
			l-1.4,0.8c-3.8,2.1-8.2,3.2-12.6,3.3c-4.4,0-8.7-0.9-12.7-2.6c-4-1.7-7.7-4-10.9-6.7L243.6,29.9z"/>
		<path id="_R_G_L_13_G_D_23_P_0" class="st9" d="M224.9,161.1l3.8,12.9c1.3,4.3,2.5,8.6,3.8,12.9c1.3,4.3,2.6,8.5,4,12.8
			c0.7,2.1,1.4,4.2,2.1,6.3c0.4,1.1,0.7,2.1,1.1,3.2c0.4,1,0.8,2.1,1.1,3.2l-0.6,0.2c-1-2-1.9-4.1-2.7-6.2c-0.9-2.1-1.6-4.2-2.4-6.3
			c-1.5-4.2-2.9-8.5-4.2-12.8c-1.2-4.3-2.5-8.6-3.6-12.9c-1.1-4.3-2.1-8.7-3-13.1L224.9,161.1z"/>
		<path id="_R_G_L_13_G_D_24_P_0" class="st13" d="M328.3,323.7c-4.4,1.2-10.6,1.5-19.2,0.2c0,0-18.4,4.6-30,6.4
			c11.9-2.3,29.3-16.8,27.3-25.9C323.6,309.9,328.2,318.3,328.3,323.7z"/>
		<path id="_R_G_L_13_G_D_25_P_0" class="st14" d="M282.1,325.3c-2.2,2.7-5.5,4.5-9,5.4c-1.8,0.5-3.7,0.7-5.6,0.8
			c-7.2-0.5-16.2-4.2-21-9.4c0,0,0,0,0,0c-0.5-0.7-1-1.4-1.4-2.1c2.5,2.3,5.3,4.2,8.3,5.7c1.5,0.7,3,1.4,4.6,1.8
			c0.8,0.3,1.6,0.5,2.4,0.7c0.8,0.2,1.6,0.3,2.4,0.5C269.4,329.7,276.2,329,282.1,325.3z"/>
	</g>
	<g id="_R_G_L_12_G" transform=" translate(441.404, 417.347) translate(-66.166, -46.423)">
		<path id="_R_G_L_12_G_D_0_P_0" class="st15" d="M114.9,49.8c0,0,8.4-7.7,12.8-12.1c4.4-4.4-5.2-4.6-10,0.9
			C112.9,44.1,114.9,49.8,114.9,49.8z"/>
		<path id="_R_G_L_12_G_D_1_P_0" class="st16" d="M105,91.5H0.5L24,0.2h104.4L105,91.5z"/>
		<path id="_R_G_L_12_G_D_2_P_0" class="st17" d="M114.4,54.2c-10.3-1.5-43.7-8.3-112.6,32.7l-1.6,5.7L105,91.5L114.4,54.2z"/>
		<path id="_R_G_L_12_G_D_3_P_0" class="st15" d="M116.4,74.5c-0.7,4.3-0.9,10.6-14.5,9.8l-4-2l3.8-4.1l8.2-4.1L116.4,74.5z"/>
		<path id="_R_G_L_12_G_D_4_P_0" class="st15" d="M117.7,62.9c0,0,7.5,9.5,0,12.5c-8.1,3.2-15.9,2.9-15.9,2.9
			c3.5-9.5,14.8-8.9,14.8-8.9L117.7,62.9z"/>
		<path id="_R_G_L_12_G_D_5_P_0" class="st15" d="M117.9,56.7c0,0,10.3,9.3,0.7,12c-13.5,3.7-17.6,4-17.6,4
			c-0.7-7,12.7-11.5,12.7-11.5L117.9,56.7z"/>
		<path id="_R_G_L_12_G_D_6_P_0" class="st15" d="M115.8,48.6c0,0,14,8.3,0.9,13c-13.2,4.7-16.3,4.6-16.3,4.6
			c-0.7-7,13.4-9.4,13.4-9.4L115.8,48.6z"/>
		<path id="_R_G_L_12_G_D_7_P_0" class="st18" d="M100.4,66.2c0,0,15.3-2.1,19.9-5.7"/>
		<path id="_R_G_L_12_G_D_8_P_0" class="st18" d="M101,72.6c0,0,15.9-2.2,20.9-5.6"/>
		<path id="_R_G_L_12_G_D_9_P_0" class="st18" d="M101.7,78.2c0,0,9.4,0.3,14.8-2.2"/>
	</g>
	<g id="_R_G_L_11_G" transform=" translate(327.353, 329.433)">
		<path id="_R_G_L_11_G_D_0_P_0" class="st9" d="M22.9-90.7c0,0-8.6-17.2-31.3-9.3c-16.5-3.5-29.1,15.6-16.9,41.6l22.9,5.2
			L22.9-90.7z"/>
		<path id="_R_G_L_11_G_D_1_P_0" class="st15" d="M10.8-42.1v30.4c0,7.1-5.9,12.9-13.2,12.9c-9.9,0-17.8-7.8-17.8-17.5v-25.8H10.8z"
			/>
		<path id="_R_G_L_11_G_D_2_P_0" class="st7" d="M10.8-29.5v16.6c-13.8,0.1-23-17.4-23-17.4L10.8-29.5z"/>
		<path id="_R_G_L_11_G_D_3_P_0" class="st15" d="M24.5-45.9c-0.8,4.2-2,8.5-3.7,12.3c-3,6.7-7.5,11.7-14.5,11.9
			c-16.3,0.3-28.9-21.4-28.9-21.4l2.6-29.7l12.4-13.6l34.1,20.6C26.4-65.9,26.5-56.2,24.5-45.9z"/>
		<path id="_R_G_L_11_G_D_4_P_0" class="st9" d="M-20.5-51.9c0,0,3.4-13.4,15.1-22.1c0,0,17,21.7,35,11.2c18-10.5,10.2-31.2-6.6-28
			L3.6-92.8l-24.2,7.5l-4.1,18.6L-20.5-51.9z"/>
		<path id="_R_G_L_11_G_D_5_P_0" class="st15" d="M-18-51c0,0-3.2-10.3-10.2-7.7c-7,2.6-3.3,16,10.5,19.7L-18-51z"/>
		<path id="_R_G_L_11_G_D_6_P_0" class="st7" d="M-21.1-49.5c-0.2-0.9-0.6-1.8-1.1-2.6c-0.5-0.8-1.2-1.5-1.9-2
			c-0.7-0.5-1.5-0.8-2.2-0.4c-0.7,0.3-1.3,1.2-1.8,2l-0.5-0.2c0.2-1,0.6-2.1,1.7-2.9c0.5-0.4,1.3-0.5,1.9-0.4
			c0.6,0.1,1.2,0.4,1.7,0.7c0.9,0.7,1.6,1.6,2.1,2.5c0.5,0.9,0.8,2,0.7,3.1L-21.1-49.5z"/>
		<path id="_R_G_L_11_G_D_7_P_0" class="st7" d="M10.4-48.5c0.1,1.2,0.2,2.4,0.2,3.6c0,0.5,0.3,0.8,0.7,1.2c0.4,0.4,0.8,0.8,1.3,1.4
			c0.2,0.3,0.4,0.7,0.4,1c0.1,0.4,0.1,0.7,0.1,1.1c-0.1,0.7-0.3,1.4-0.8,2c-0.2,0.3-0.5,0.5-0.9,0.7c-0.4,0.2-0.7,0.2-1.1,0.2
			c-0.7,0-1.4-0.3-1.9-0.7l0.2-0.4c0.6,0.2,1.1,0.3,1.6,0.2c0.5-0.1,0.9-0.3,1.1-0.7c0.5-0.8,0.6-2,0.1-2.7
			c-0.3-0.4-0.7-0.8-1.1-1.3c-0.4-0.5-0.8-1.2-0.8-2c0.1-1.2,0.2-2.4,0.4-3.6L10.4-48.5z"/>
		<path id="_R_G_L_11_G_D_8_P_0" class="st9" d="M-3.6-55.6c0.7-0.7,1.5-1.2,2.4-1.6c0.9-0.4,2-0.6,3-0.6c1.1,0.1,2.1,0.5,2.9,1
			c0.8,0.6,1.5,1.4,2,2.2l-0.4,0.3c-0.7-0.6-1.4-1.2-2.2-1.6c-0.8-0.4-1.6-0.7-2.4-0.7c-1.7-0.1-3.4,0.5-5.1,1.3L-3.6-55.6z"/>
		<path id="_R_G_L_11_G_D_9_P_0" class="st9" d="M14.1-54.1c0.3-0.9,1-1.6,1.9-2c0.9-0.4,1.8-0.6,2.8-0.6c1,0,1.9,0.3,2.7,0.7
			c0.8,0.5,1.5,1.2,1.9,2L23-53.7c-1.2-1.2-2.7-1.7-4.2-1.8c-1.5,0-3.2,0.4-4.2,1.6L14.1-54.1z"/>
		<path id="_R_G_L_11_G_D_10_P_0" class="st8" d="M2.3-34.2l11.5,0.8C13.8-33.4,7.3-25,2.3-34.2z"/>
		<path id="_R_G_L_11_G_D_11_P_0" class="st19" d="M24.5-45.9c-0.8,4.2-2,8.5-3.7,12.3c-2.2-1-3.8-3.3-3.8-5.9c0-3.6,3-6.5,6.7-6.5
			C23.9-46,24.2-46,24.5-45.9z"/>
		<path id="_R_G_L_11_G_D_12_P_0" class="st19" d="M-2.2-35c3.4-1.4,5-5.2,3.6-8.5C-0.1-46.8-4-48.4-7.4-47c-3.4,1.4-5,5.2-3.6,8.5
			C-9.5-35.1-5.6-33.6-2.2-35z"/>
	</g>
	<g id="_R_G_L_10_G_N_12_T_0" transform=" translate(327.353, 329.433)">
		<g id="_R_G_L_10_G" transform=" translate(47.482, 57.677)">
			<path id="_R_G_L_10_G_D_0_P_0" class="st9" d="M-26.8-108.9c-0.3,1.5-1.4,2.5-2.5,2.3c-1.1-0.2-1.7-1.6-1.4-3
				c0.3-1.5,1.4-2.5,2.5-2.3C-27.2-111.7-26.5-110.3-26.8-108.9z"/>
			<path id="_R_G_L_10_G_D_1_P_0" class="st9" d="M-43.8-109.5c0.2-1.5-0.4-2.8-1.5-3c-1.1-0.2-2.2,0.9-2.4,2.3
				c-0.2,1.5,0.4,2.8,1.5,3C-45.1-107-44-108-43.8-109.5z"/>
		</g>
	</g>
	<g id="_R_G_L_9_G">
		<path id="_R_G_L_9_G_D_0_P_0" class="st11" d="M4.9,1.6c-1.3,4.3-1.9,8.7-1.2,13c0.4,2.1,1,4.2,1.9,6.2c0.9,2,2,3.9,3.2,5.7
			c1.3,1.8,2.7,3.5,4.2,5.2c0.4,0.4,0.8,0.9,1.2,1.3c0.4,0.5,0.8,0.9,1.2,1.4l1,1.6c0.4,0.5,0.6,1.1,0.9,1.7
			c0.3,0.6,0.5,1.2,0.6,1.8c0.2,0.6,0.2,1.3,0.3,1.9c0.1,0.3,0,0.7,0,1l-0.1,1c0,0.3-0.1,0.6-0.2,1c-0.1,0.3-0.1,0.6-0.3,0.9
			l-0.4,0.9c-0.2,0.3-0.3,0.6-0.5,0.8c-0.2,0.3-0.4,0.5-0.5,0.8c-0.2,0.2-0.4,0.5-0.6,0.7c-0.9,0.9-1.8,1.7-2.9,2.3L12,49.7
			c1.6-1.4,2.9-3.2,3.4-5.2c0.1-0.2,0.1-0.5,0.1-0.7c0-0.2,0.1-0.5,0.1-0.7l0-0.7c0-0.2,0-0.5-0.1-0.7c-0.1-0.5-0.1-1-0.4-1.4
			c-0.2-0.5-0.3-1-0.6-1.4c-0.3-0.4-0.5-0.9-0.8-1.3l-0.9-1.3c-0.3-0.4-0.7-0.8-1.1-1.2l-1.1-1.2c-0.8-0.9-1.7-1.7-2.4-2.7
			c-0.8-0.9-1.5-1.9-2.2-2.9c-1.3-2-2.6-4.1-3.5-6.4c-0.9-2.3-1.5-4.6-1.7-7C0.2,10.1,1.4,5.2,3.6,1L4.9,1.6z"/>
	</g>
	<g id="_R_G_L_8_G">
		<path id="_R_G_L_8_G_D_0_P_0" class="st11" d="M21.9,0.2c2.4,2,4.4,4.7,5.3,7.8c0.5,1.6,0.7,3.2,0.7,4.8c0,1.6-0.2,3.2-0.6,4.8
			c-0.4,1.5-0.9,3-1.5,4.5l-0.4,1c-0.1,0.3-0.3,0.6-0.4,0.9l-0.3,0.9c-0.1,0.3-0.1,0.6-0.2,0.9c-0.1,0.3,0,0.6-0.1,0.9
			c0,0.3,0,0.6,0.1,0.9c0,0.3,0.1,0.5,0.2,0.8c0.1,0.2,0.2,0.5,0.4,0.8c0.6,1,1.8,1.9,3,2.4L28,32.8c-1.7-0.2-3.3-0.9-4.6-2.2
			c-0.3-0.3-0.6-0.7-0.8-1.1c-0.2-0.4-0.5-0.8-0.6-1.3c-0.1-0.4-0.3-0.9-0.3-1.3c0-0.4-0.1-0.9-0.1-1.3c0-0.4,0-0.9,0.1-1.3l0.3-1.2
			c0.1-0.4,0.2-0.8,0.4-1.2c0.1-0.4,0.3-0.8,0.4-1.1c0.5-1.3,0.9-2.7,1.3-4c0.3-1.3,0.5-2.7,0.6-4c0.1-1.4,0-2.7-0.3-4
			c-0.5-2.7-1.8-5.2-3.5-7.6L21.9,0.2z"/>
	</g>
	<g id="_R_G_L_7_G">
		<path id="_R_G_L_7_G_D_0_P_0" class="st8" d="M77.4,40.7C77.4,61,61,77.4,40.7,77.4S3.9,61,3.9,40.7S20.4,3.9,40.7,3.9
			S77.4,20.4,77.4,40.7z"/>
		<path id="_R_G_L_7_G_D_1_P_0" class="st20" d="M77.4,40.7C77.4,61,61,77.4,40.7,77.4S3.9,61,3.9,40.7S20.4,3.9,40.7,3.9
			S77.4,20.4,77.4,40.7z"/>
		<path id="_R_G_L_7_G_D_2_P_0" class="st21" d="M51.5,29c-2.9-0.7-2.9-0.7-3.5,1.8c-0.6,2.2-1.1,4.5-1.8,6.7
			c-0.2,0.7,0.1,1.8-1.1,2.2c-0.8-3.3-1.6-6.6-2.3-9.8c-0.2-1.1-0.9-1.4-1.9-1.4c-1,0-1.6,0.2-1.9,1.3c-0.5,2.3-0.9,4.6-1.6,6.8
			c-0.3,1,0,2.3-1.2,3c-0.4-1.8-0.9-3.4-1.3-5.1c-0.4-1.6-0.8-3.2-1.2-4.8c-0.4-1.5-1.6-1.5-2.7-1.2c-1.4,0.3-0.4,1.3-0.2,1.9
			c1.1,4,2.4,7.9,3.5,11.9c0.4,1.6,1.3,1.8,2.7,1.7c1.3-0.1,1.3-1.2,1.6-2.1c0.8-3,1.2-6,2.4-9.4c0.9,3.6,1.7,6.7,2.3,9.8
			c0.2,1.1,0.6,1.7,1.9,1.7c1.1,0,1.9-0.3,2.2-1.4C48.7,38.2,50.1,33.7,51.5,29z M17.6,31.8c0.6-0.2,1.2-0.3,1.7-0.5
			c1.4-0.6,2.9-0.7,4.3-0.4c1.5,0.3,2.5,1.9,2.2,3.6c-0.4,1.6-1.6,0.5-2.3,0.5c-1.5,0.1-2.9,0-4.4,0.6c-2.2,0.9-3.3,3.1-2.8,5.5
			c0.5,2.1,2.1,3.4,4.6,3.4c1.4,0,2.8-0.1,3.9-1.1c0.8-0.8,1.5-1.1,2.1,0.2c0.4,0.7,1,0.9,1.7,0.3c0.6-0.5,1.3-0.8,0.8-1.8
			c-0.6-1.1-0.7-2.3-0.7-3.5c0-1.9,0-3.8-0.1-5.7c-0.1-1.8-0.9-3.3-2.8-4C23.4,27.9,21,28,18.6,29C17.2,29.6,16.9,30.4,17.6,31.8z
			 M58.9,28.3c-0.3,0-0.5,0-0.8,0c-2.9,0.1-5,1.7-5.3,4c-0.3,2.1,1,3.8,3.8,4.9c1,0.4,2.1,0.7,3.2,1.1c0.8,0.3,1.3,0.8,1.3,1.7
			c0,1-0.6,1.5-1.5,1.9c-1.8,0.7-3.4,0.2-5.1-0.2c-0.6-0.2-1.3-0.9-1.7,0.1c-0.3,0.9,0,1.7,1,2.1c2,0.9,4,1.1,6.1,0.6
			c2.6-0.6,4.2-2.2,4.3-4.4c0.1-2.1-0.9-3.4-3.6-4.4c-1.1-0.4-2.3-0.7-3.4-1.2c-0.8-0.3-1.5-1-1.3-2c0.2-1,0.9-1.4,1.8-1.5
			c1.3-0.1,2.6-0.1,3.9,0.3c0.6,0.2,1.4,0.9,1.6-0.3c0.2-0.9-0.1-1.6-1-1.9C61.2,28.5,60.1,28.1,58.9,28.3z"/>
		<path id="_R_G_L_7_G_D_3_P_0" class="st22" d="M43.8,59.3c5.6-0.7,10.9-2.2,15.7-5.2c0.8-0.5,2.4-0.9,1.9-2
			c-0.6-1.3-1.9-0.1-2.7,0.2c-5.6,2.1-11.3,3.3-17.3,3.3c-8.9,0.1-17.4-1.9-25.2-6.1c-0.6-0.3-1.1-0.9-1.9-0.5c0,0.2,0,0.4,0.1,0.5
			c0.1,0.2,0.3,0.4,0.5,0.5c4.5,4,9.7,6.6,15.4,8.2C35.1,59.2,39.7,59.8,43.8,59.3z"/>
		<path id="_R_G_L_7_G_D_4_P_0" class="st23" d="M66.5,50.8c-0.2,0.7-0.5,1.4-0.9,2.1c-0.3,0.7-0.5,1.5-0.9,2.1
			c-0.6,0.9-1.1,1.9-2.6,2.3c0.5-1.8,1.1-3.3,1.5-4.8c0.5-2,0.1-2.4-2-2.5c-1.6-0.1-3.2,0-4.8,0c2.2-2.3,5.9-2.9,9.5-1.4
			C67.1,48.7,66.8,49.7,66.5,50.8z"/>
		<path id="_R_G_L_7_G_D_5_P_0" class="st24" d="M51.5,29c-1.4,4.6-2.8,9.2-4.2,13.8c-0.3,1.1-1.1,1.4-2.2,1.4
			c-1.2,0-1.6-0.7-1.9-1.7c-0.7-3.1-1.5-6.2-2.3-9.8c-1.1,3.4-1.6,6.5-2.4,9.4c-0.2,0.9-0.2,2-1.6,2.1c-1.4,0.1-2.2-0.2-2.7-1.7
			c-1.1-4-2.4-7.9-3.5-11.9c-0.2-0.6-1.1-1.5,0.2-1.9c1.1-0.3,2.3-0.3,2.7,1.2c0.4,1.6,0.8,3.2,1.2,4.8c0.4,1.7,0.8,3.3,1.3,5.1
			c1.2-0.7,0.9-2,1.2-3c0.7-2.2,1.2-4.5,1.6-6.8c0.2-1.1,0.9-1.3,1.9-1.3c1,0,1.6,0.3,1.9,1.4c0.7,3.3,1.5,6.5,2.3,9.8
			c1.2-0.4,0.9-1.5,1.1-2.2c0.7-2.2,1.2-4.5,1.8-6.7C48.7,28.4,48.7,28.4,51.5,29z"/>
		<path id="_R_G_L_7_G_D_6_P_0" class="st25" d="M17.6,31.8c-0.7-1.4-0.4-2.2,1-2.7c2.4-1,4.9-1.1,7.4-0.2c1.9,0.7,2.7,2.2,2.8,4
			c0.1,1.9,0.1,3.8,0.1,5.7c0,1.2,0.1,2.4,0.7,3.5c0.5,1-0.2,1.4-0.8,1.8c-0.7,0.6-1.4,0.3-1.7-0.3c-0.7-1.3-1.3-0.9-2.1-0.2
			c-1.1,1-2.5,1.1-3.9,1.1c-2.4,0-4.1-1.3-4.6-3.4c-0.5-2.4,0.7-4.6,2.8-5.5c1.4-0.6,2.9-0.5,4.4-0.6c0.8,0,2,1.1,2.3-0.5
			c0.4-1.6-0.6-3.3-2.2-3.6c-1.5-0.3-2.9-0.2-4.3,0.4C18.8,31.5,18.2,31.6,17.6,31.8z M25.9,38.9c0.1-0.6,0.2-1.2-0.6-1.5
			c-1.6-0.5-3.2-0.7-4.8,0.1c-1,0.6-1.3,1.5-1.2,2.6c0.1,1.1,0.8,1.7,1.8,2C23.2,42.7,25.6,41,25.9,38.9z"/>
		<path id="_R_G_L_7_G_D_7_P_0" class="st24" d="M58.9,28.3c1.1-0.2,2.2,0.2,3.3,0.6c0.9,0.3,1.2,1,1,1.9c-0.3,1.2-1,0.5-1.6,0.3
			c-1.3-0.4-2.6-0.4-3.9-0.3c-0.9,0.1-1.7,0.5-1.8,1.5c-0.2,1,0.5,1.7,1.3,2c1.1,0.5,2.3,0.7,3.4,1.2c2.7,1,3.7,2.3,3.6,4.4
			c-0.1,2.3-1.7,3.8-4.3,4.4c-2.1,0.5-4.1,0.3-6.1-0.6c-1-0.4-1.3-1.2-1-2.1c0.4-1,1.1-0.3,1.7-0.1c1.7,0.4,3.3,0.9,5.1,0.2
			c0.9-0.4,1.5-0.9,1.5-1.9c0-0.9-0.6-1.4-1.3-1.7c-1-0.4-2.1-0.7-3.2-1.1c-2.8-1-4.1-2.8-3.8-4.8c0.3-2.3,2.4-3.9,5.3-4
			C58.4,28.3,58.7,28.3,58.9,28.3z"/>
		<path id="_R_G_L_7_G_D_8_P_0" class="st26" d="M25.9,38.9c-0.3,2.1-2.7,3.8-4.7,3.2c-1-0.2-1.6-0.9-1.8-2c-0.1-1.1,0.2-2,1.2-2.6
			c1.6-0.9,3.2-0.6,4.8-0.1C26.1,37.7,26,38.3,25.9,38.9z"/>
	</g>
	<g id="_R_G_L_6_G">
		<path id="_R_G_L_6_G_D_0_P_0" class="st8" d="M77.4,40.7C77.4,61,61,77.4,40.7,77.4S3.9,61,3.9,40.7S20.4,3.9,40.7,3.9
			S77.4,20.4,77.4,40.7z"/>
		<path id="_R_G_L_6_G_D_1_P_0" class="st20" d="M77.4,40.7C77.4,61,61,77.4,40.7,77.4S3.9,61,3.9,40.7S20.4,3.9,40.7,3.9
			S77.4,20.4,77.4,40.7z"/>
		<path id="_R_G_L_6_G_D_2_P_0" class="st27" d="M22.9,59.6V24c0.1,0,0.2,0,0.2,0c11.7,0,23.5,0,35.2,0c0.3,0,0.2,0,0.2,0.2
			c0,11.7,0,23.4,0,35.2c0,0.1,0,0.2,0,0.2c-0.1,0-0.2,0-0.2,0C46.5,59.6,34.7,59.6,22.9,59.6z M50.2,56.8c0.9,0,1.8-0.1,2.7-0.5
			c1.1-0.4,1.9-1.1,2.5-2.2c0.4-0.8,0.5-1.6,0.4-2.4c-0.1-1.3-0.6-2.5-1.7-3.3c-0.7-0.6-1.5-1-2.3-1.4c-0.7-0.3-1.4-0.6-2.1-1
			c-0.3-0.2-0.6-0.3-0.8-0.6c-0.6-0.6-0.6-2,0.5-2.4c0.8-0.3,1.5-0.1,2.2,0.5c0.2,0.2,0.4,0.5,0.5,0.7c0,0.1,0.1,0.1,0.2,0.1
			c0.8-0.5,1.6-1,2.4-1.5c0.1,0,0.1-0.1,0-0.2c-0.6-1.1-1.5-1.9-2.7-2.3c-1.3-0.4-2.7-0.4-4,0c-1.1,0.4-1.9,1.1-2.5,2.1
			c-0.4,0.8-0.5,1.6-0.4,2.4c0.1,1.2,0.5,2.2,1.4,3.1c0.7,0.6,1.5,1,2.3,1.4c0.7,0.3,1.5,0.6,2.2,1c0.3,0.2,0.7,0.4,0.9,0.6
			c0.4,0.4,0.5,0.9,0.4,1.4c-0.1,0.6-0.5,0.9-1,1.1c-1,0.4-2,0.3-2.9-0.2c-0.6-0.3-1.1-0.9-1.5-1.5c-0.1-0.1-0.1-0.1-0.2-0.1
			c-0.8,0.5-1.6,1-2.5,1.4c-0.1,0.1-0.1,0.1,0,0.2c0.5,0.9,1.2,1.7,2,2.2C47.5,56.5,48.8,56.8,50.2,56.8z M42.3,46.4L42.3,46.4
			c0-2,0-3.9,0-5.9c0-0.1,0-0.2-0.2-0.2c-1,0-2,0-3,0c-0.2,0-0.2,0-0.2,0.2c0,3.7,0,7.4,0,11.1c0,0.3,0,0.6-0.1,0.9
			c-0.1,0.7-0.5,1.1-1.1,1.3c-0.2,0.1-0.5,0.1-0.8,0.1c-0.5,0-1-0.3-1.3-0.7c-0.2-0.3-0.4-0.6-0.6-0.9c-0.1-0.1-0.1-0.1-0.2,0
			c-0.8,0.5-1.7,1-2.5,1.5c-0.1,0-0.1,0.1-0.1,0.2c0.5,1.1,1.3,2,2.5,2.5c1.4,0.6,2.8,0.6,4.2,0.3c1.1-0.3,2-0.9,2.6-1.9
			c0.4-0.8,0.6-1.6,0.7-2.4C42.3,50.3,42.3,48.3,42.3,46.4z"/>
		<path id="_R_G_L_6_G_D_3_P_0" class="st28" d="M58.6,59.6c0-0.1,0-0.2,0-0.2c0-11.7,0-23.5,0-35.2c0-0.3,0-0.2-0.2-0.2
			c-11.7,0-23.5,0-35.2,0c-0.1,0-0.2,0-0.2,0c0,0,0,0,0,0c0,0,0.1,0,0.1,0c11.8,0,23.6,0,35.4,0c0.1,0,0.2,0,0.2,0.2
			c0,11.8,0,23.6,0,35.4C58.6,59.5,58.7,59.6,58.6,59.6C58.6,59.6,58.6,59.6,58.6,59.6z"/>
		<path id="_R_G_L_6_G_D_4_P_0" class="st29" d="M58.6,59.6C58.6,59.6,58.6,59.6,58.6,59.6c-11.8,0-23.7,0-35.5,0c0,0-0.1,0-0.2,0
			c11.8,0,23.6,0,35.5,0C58.4,59.6,58.5,59.6,58.6,59.6z"/>
		<path id="_R_G_L_6_G_D_5_P_0" class="st30" d="M50.2,56.8c-1.4,0-2.8-0.3-4-1.1c-0.9-0.6-1.5-1.3-2-2.2c0-0.1-0.1-0.1,0-0.2
			c0.8-0.5,1.7-1,2.5-1.4c0.1-0.1,0.2,0,0.2,0.1c0.4,0.6,0.8,1.1,1.5,1.5c0.9,0.5,1.9,0.6,2.9,0.2c0.5-0.2,0.9-0.5,1-1.1
			c0.1-0.5,0-1-0.4-1.4c-0.3-0.3-0.6-0.5-0.9-0.6c-0.7-0.4-1.5-0.7-2.2-1c-0.8-0.4-1.6-0.8-2.3-1.4c-0.9-0.8-1.3-1.9-1.4-3.1
			c-0.1-0.8,0-1.6,0.4-2.4c0.5-1,1.4-1.8,2.5-2.1c1.3-0.5,2.7-0.5,4,0c1.2,0.4,2,1.2,2.7,2.3c0,0.1,0,0.1,0,0.2
			c-0.8,0.5-1.6,1-2.4,1.5c-0.1,0.1-0.1,0-0.2-0.1c-0.1-0.3-0.3-0.5-0.5-0.7c-0.6-0.6-1.4-0.7-2.2-0.5c-1.2,0.4-1.1,1.8-0.5,2.4
			c0.2,0.2,0.5,0.4,0.8,0.6c0.7,0.4,1.4,0.6,2.1,1c0.8,0.4,1.6,0.8,2.3,1.4c1.1,0.9,1.6,2,1.7,3.3c0,0.8,0,1.6-0.4,2.4
			c-0.5,1.1-1.4,1.7-2.5,2.2C52,56.7,51.1,56.8,50.2,56.8z"/>
		<path id="_R_G_L_6_G_D_6_P_0" class="st30" d="M42.3,46.4c0,1.9,0,3.9,0,5.8c0,0.9-0.2,1.7-0.7,2.4c-0.6,1-1.5,1.6-2.6,1.9
			c-1.4,0.4-2.9,0.3-4.2-0.3c-1.1-0.5-1.9-1.4-2.5-2.5c0-0.1,0-0.1,0.1-0.2c0.8-0.5,1.7-1,2.5-1.5c0.1,0,0.1,0,0.2,0
			c0.2,0.3,0.4,0.7,0.6,0.9c0.4,0.4,0.8,0.6,1.3,0.7c0.3,0,0.5,0,0.8-0.1c0.6-0.2,1-0.6,1.1-1.3c0-0.3,0.1-0.6,0.1-0.9
			c0-3.7,0-7.4,0-11.1c0-0.2,0-0.2,0.2-0.2c1,0,2,0,3,0c0.1,0,0.2,0,0.2,0.2C42.3,42.5,42.3,44.4,42.3,46.4L42.3,46.4z"/>
	</g>
	<g id="_R_G_L_5_G">
		<path id="_R_G_L_5_G_D_0_P_0" class="st8" d="M77.4,40.7C77.4,61,61,77.4,40.7,77.4S3.9,61,3.9,40.7S20.4,3.9,40.7,3.9
			S77.4,20.4,77.4,40.7z"/>
		<path id="_R_G_L_5_G_D_1_P_0" class="st20" d="M77.4,40.7C77.4,61,61,77.4,40.7,77.4S3.9,61,3.9,40.7S20.4,3.9,40.7,3.9
			S77.4,20.4,77.4,40.7z"/>
		<path id="_R_G_L_5_G_D_2_P_0" class="st31" d="M29.6,44.8c1.4,6.1,4.6,11,9.4,14.9c1.7-1.8,1.3-4.1,1.6-6.2
			c0.3-1.8-0.4-3.7,0.4-5.5c0-2.4,0-4.8,0-7.3c-0.8-0.7-0.3-1.6-0.3-2.4c0-4.7-0.1-9.6-0.1-14.3c0-0.9,0-1.3,0.4-2.5
			c0.2-1.3-0.4-2.6,0.5-3.8c-0.3-0.6-0.3-1.5-1.1-1.7c-0.6,0.7-1,1.4-1.6,1.9c-5,4.4-7.8,10-9.1,16.5C29.2,37.6,29.1,41,29.6,44.8z"
			/>
		<path id="_R_G_L_5_G_D_3_P_0" class="st32" d="M41,48c0-2.4,0-4.9,0-7.3c0-6.4,0-12.8,0-19.2c0.2-1.3-0.4-2.6,0.5-3.8
			c4.2,4.4,7.8,9.2,9.4,15.3c2.5,9.8,0.5,18.4-6.8,25.5c-0.5,0.5-1.3,0.9-1.9,1.4c-0.6-1.2-1.2-2.4-1.2-3.8C41.1,53.4,41,50.7,41,48
			z"/>
		<path id="_R_G_L_5_G_D_4_P_0" class="st33" d="M41,48c0,2.7,0.1,5.4,0,8c0,1.4,0.6,2.6,1.2,3.8c-0.7,2-0.5,4.2-0.7,6.9
			c-2-2.3-0.7-5.2-2.6-7c1.7-1.8,1.3-4.1,1.6-6.2C40.8,51.7,40.1,47.4,41,48z"/>
		<path id="_R_G_L_5_G_D_5_P_0" class="st34" d="M41,16.4c0,6.4,0,33.7,0,40.1c-0.8-0.7-0.5-1.7-0.5-2.5c0-4.7,0-30.3,0-35
			C40.6,18.1,40.2,17.1,41,16.4z"/>
	</g>
	<g id="_R_G_L_4_G">
		<path id="_R_G_L_4_G_D_0_P_0" class="st8" d="M77.4,40.7C77.4,61,61,77.4,40.7,77.4S3.9,61,3.9,40.7S20.4,3.9,40.7,3.9
			S77.4,20.4,77.4,40.7z"/>
		<path id="_R_G_L_4_G_D_1_P_0" class="st20" d="M77.4,40.7C77.4,61,61,77.4,40.7,77.4S3.9,61,3.9,40.7S20.4,3.9,40.7,3.9
			S77.4,20.4,77.4,40.7z"/>
		<path id="_R_G_L_4_G_D_2_P_0" class="st35" d="M60.4,44.1v9.2c0,4.5-4.5,7.1-9.4,7.1c-6.9,0-13.9,0-20.8,0c-5-0.1-8.7-3.7-8.9-8.7
			c-0.1-2.5,0-5,0.1-7.6c1.8,0.2,3.7-0.6,5.4,0.6c-0.2,0.9-0.3,1.8,0.7,2.4h15c0.4-1.3-0.2-2.1-0.7-3c0.9,0,1.8,0,2.7,0
			c1.4,2.4,2.9,4.8,4.3,7.2c0.7,1.2,1.5,2.1,3,1.1c1.3-2-1.2-3.2-1-4.9c1.2-0.4,2.5,0.2,3.4-0.5c0.9-0.7,0.7-1.5,0.6-2.3
			C56.6,43.5,58.6,44.4,60.4,44.1z M29.8,49.7c-1.3,2.5-1,3,1.7,3c0.5-0.6,1.2-1.2,1.2-2.2C31.9,49.6,31,49.4,29.8,49.7z"/>
		<path id="_R_G_L_4_G_D_3_P_0" class="st36" d="M28.1,21.3h22.8c3.3,0,6.5,1.5,8.3,4.3c0.2,0.2,0.3,0.5,0.5,0.8
			c0.7,1.4,1,3,0.9,4.5c0,0.3,0,0.7,0,1.3l-16.5-0.1c0.3-0.8,1-1.6,0.7-2.5c-0.4-0.8-1-1.2-1.9-1c-1,0.2-1.1,1.4-2,1.8
			c-0.8-0.6-1.1-1.7-2.3-1.8c-0.8,0.1-1.4,0.6-1.6,1.6c0.2,0.6,0.5,1.4,0.8,2.1l-16.2,0c-0.4-3.1,0.3-5.9,2.5-8.3
			c0.9-1,1.1-1.5,2.7-2.2C27,21.4,27.5,21.3,28.1,21.3z"/>
		<path id="_R_G_L_4_G_D_4_P_0" class="st37" d="M43.9,32.1c5.5,0,11,0.1,16.5,0.1v12c-1.8,0.3-3.8-0.6-5.5,0.6
			c-2-1.3-4.3-0.2-6.5-0.9c-1.3-2.2-2.8-4.6-4.3-7.2c-2.2,3-0.5,5.2,0.6,7.5c-0.9,0-1.8,0-2.7,0h-5.3C39.3,39.7,41.6,35.9,43.9,32.1
			z"/>
		<path id="_R_G_L_4_G_D_5_P_0" class="st37" d="M21.4,44.1c0-4,0-8,0-11.9c5.4,0,10.8,0,16.2,0c0.6,0.6,1,1.2,1,2.2
			c-1.8,3.1-3.7,6.3-5.6,9.5c-2.2,0.6-4.4-0.4-6.2,0.8C25.1,43.5,23.2,44.4,21.4,44.1z"/>
		<path id="_R_G_L_4_G_D_6_P_0" class="st38" d="M26.8,44.7c1.9-1.2,4.1-0.2,6.2-0.8c1.8-3.1,3.7-6.4,5.6-9.5c0-1-0.4-1.7-1-2.2
			c-0.3-0.7-0.6-1.5-0.8-2.1c0.2-1,0.8-1.6,1.6-1.6c1.2,0.1,1.5,1.3,2.3,1.8c0.9-0.4,1-1.5,2-1.8c0.9-0.2,1.5,0.2,1.9,1
			c0.3,1-0.4,1.7-0.7,2.5c-2.3,3.8-4.6,7.6-7.3,12.1h5.3c0.4,0.9,1.1,1.7,0.7,3h-15C26.5,46.5,26.6,45.7,26.8,44.7z"/>
		<path id="_R_G_L_4_G_D_7_P_0" class="st38" d="M44.7,44.2c-1.1-2.3-2.8-4.5-0.6-7.5c1.5,2.6,3,5,4.3,7.2c2.3,0.7,4.6-0.4,6.5,0.9
			c0.2,0.8,0.3,1.6-0.6,2.3c-1,0.7-2.2,0.1-3.4,0.5c-0.1,1.7,2.3,2.9,1,4.9c-1.5,1-2.3,0.1-3-1.1C47.6,48.9,46.1,46.5,44.7,44.2z"/>
		<path id="_R_G_L_4_G_D_8_P_0" class="st39" d="M29.8,49.7c1.2-0.3,2.1-0.1,2.8,0.8c0.1,1-0.6,1.6-1.2,2.2
			C28.8,52.7,28.5,52.2,29.8,49.7z"/>
	</g>
	<g id="_R_G_L_3_G">
		<path id="_R_G_L_3_G_D_0_P_0" class="st8" d="M77.4,40.7C77.4,61,61,77.4,40.7,77.4S3.9,61,3.9,40.7S20.4,3.9,40.7,3.9
			S77.4,20.4,77.4,40.7z"/>
		<path id="_R_G_L_3_G_D_1_P_0" class="st20" d="M77.4,40.7C77.4,61,61,77.4,40.7,77.4S3.9,61,3.9,40.7S20.4,3.9,40.7,3.9
			S77.4,20.4,77.4,40.7z"/>
		<path id="_R_G_L_3_G_D_2_P_0" class="st40" d="M51.5,27.1c2.5,1.8,3.8,4.3,4.8,7.2c3.1,2.2,4.9,5.3,5.1,9.2
			c0.2,4.9-2.9,9.4-7.7,11.1c-0.5,0.2-1.1-0.1-1.3,0.6H41.3c0-2.3,0-4.5,0-6.8c2.9,0,5.8,0,8.7-0.1c2.2-0.1,4.1-1.7,4.5-3.7
			c0.4-1.9-0.8-3.8-2.8-4.9c-0.6-0.3-1.4-0.2-1.9-1c0.4-2.8-1.1-4.9-2.8-6.9C48.5,30.2,50,28.7,51.5,27.1z"/>
		<path id="_R_G_L_3_G_D_3_P_0" class="st41" d="M22.1,48.4c0.9,1.7,1.7,3.4,3.6,4.3c1.8-1.4,3.3-2.9,4.6-4.6
			c-0.4-0.5-0.8-0.9-1.2-1.4c-1.6-2-1.6-4.1,0.2-5.9c1.6-1.6,3.4-2.1,5.9-0.4c0.5,0.3,0.9,0.8,1.4,1.3c1.9-1.3,3.2-2.9,4.8-4.6
			c-1.5-2.6-4.2-3.4-6.5-4.6c-3-0.5-5.8,0.5-8.6,1.5c-2.2,1.7-3.9,3.7-4.8,6.4C21.2,42.9,21.4,45.6,22.1,48.4z"/>
		<path id="_R_G_L_3_G_D_4_P_0" class="st42" d="M29.1,55.2h12.2c0-2.3,0-4.5,0-6.8c-2.7,0-5.4,0-8-0.1c-1,0-1.9-0.2-2.8-0.2
			c-1.4,1.7-2.9,3.3-4.6,4.6C26.3,53.8,27.4,54.6,29.1,55.2z"/>
		<path id="_R_G_L_3_G_D_5_P_0" class="st43" d="M35,32.5c-3-0.5-5.8,0.5-8.6,1.5c2.4-9.2,14.2-14.7,23.6-8.4
			c0.6,0.4,1.2,0.8,1.5,1.4c-1.5,1.6-3,3.1-4.5,4.7C42,28.8,38.3,29.5,35,32.5z"/>
	</g>
	<g id="_R_G_L_2_G">
		<path id="_R_G_L_2_G_D_0_P_0" class="st8" d="M77.4,40.7C77.4,61,61,77.4,40.7,77.4S3.9,61,3.9,40.7S20.4,3.9,40.7,3.9
			S77.4,20.4,77.4,40.7z"/>
		<path id="_R_G_L_2_G_D_1_P_0" class="st20" d="M77.4,40.7C77.4,61,61,77.4,40.7,77.4S3.9,61,3.9,40.7S20.4,3.9,40.7,3.9
			S77.4,20.4,77.4,40.7z"/>
		<path id="_R_G_L_2_G_D_2_P_0" class="st44" d="M20.8,32.8v-1.5c6.4-2.9,12.8-5.8,19.1-8.8c1.5-0.7,3-0.8,4.5-0.1
			c5.6,2.5,11.2,5,16.8,7.4c0.9,0.4,1.2,1,1,1.9c-5.9,2.3-11.5,5-17.2,7.7c-2.8,1.3-5.4,2.2-8.3,0.3c-0.6-0.4-1.5-0.6-2.2-1
			C29.9,36.8,25.4,34.8,20.8,32.8z M52,33.3c1.8-0.5,3.6-1.1,5.4-2.3c-2.3-0.6-3.9-1.9-6-2.2c-2.2,0.6-4.2,1.5-6.5,2.6
			c1.8,0.7,3.3,1.3,4.8,2C50.5,33.7,51.2,34.1,52,33.3z M36.4,31.5c-2.7-2.9-7.9-2.9-10.2,0C28.3,34.3,33.6,34.4,36.4,31.5z
			 M44.9,33.7c-3.5,0.5-6.6,0.8-10,1.7c2.6,1.1,4.7,2,6.9,2.9C42.7,36.9,43.6,35.5,44.9,33.7z M42.2,30.7c0.2-2.1,1.5-2.4,2.9-2.6
			c-0.5-1-1.7-1.6-0.8-3c-2,1.2-3.8,0.1-5.8-0.2c0.3,0.7,0.5,1.1,0.4,1.7c-0.7,0.3-1.4,0.6-2.5,1.1c1.6,0.3,2.8,0.5,4.1,0.7
			C41,29,41.5,29.6,42.2,30.7z"/>
		<path id="_R_G_L_2_G_D_3_P_0" class="st45" d="M62.2,39.2v3.3c-0.5,1.1-2,0.9-2.3,2c-1-0.1-1.7,0.4-2.5,0.8
			c-4.6,2.2-9.1,4.4-13.7,6.6c-2,1-3.9,1.2-6,0.1c-3-1.5-6-3-9.1-4.3c-1.9-0.8-3.6-2-5.7-2.2c-0.3-1-1.3-1-2.1-1.5v-3.9
			c4.5,2.1,9,4.2,13.5,6.2c1.6,0.7,3.2,1.3,4.8,1.9c1,0.4,1.9,0.4,2.9,0c1.2-0.5,2.4-1,3.6-1.5C51.1,44.3,56.7,41.7,62.2,39.2z"/>
		<path id="_R_G_L_2_G_D_4_P_0" class="st45" d="M62.2,46.6v3.6c-0.6,0.8-1.4,1-2.2,1.3c-5.8,2.8-11.5,5.6-17.3,8.3
			C42.5,60,42.1,60,42,60.4h-3c-3.5-1.7-7.1-3.4-10.6-5.1c-2.6-1.3-5.2-2.3-7.7-3.8v-3.9c0.4,0.3,0.8,0.6,1.2,0.8
			c5.2,2.3,10.5,4.5,15.6,6.9c2,0.9,3.8,0.8,5.7,0C49.6,52.4,55.9,49.5,62.2,46.6z"/>
		<path id="_R_G_L_2_G_D_5_P_0" class="st45" d="M62.2,31.8V35c-0.5,1-1.7,1-2.3,1.7c-0.5,0-0.9,0.2-1.4,0.5
			c-4.9,2.4-9.9,4.7-14.8,7.1c-2.3,1.1-4.5,1.2-6.8,0c-4.4-2.2-8.8-4.2-13.2-6.3c-0.3-0.1-0.6-0.2-0.9-0.3c-0.6-0.5-1.2-0.9-2-1
			v-3.9c4.6,2,9.1,4,13.7,6.1c0.8,0.3,1.6,0.6,2.2,1c2.9,1.8,5.5,1,8.3-0.3C50.7,36.8,56.4,34.1,62.2,31.8z"/>
		<path id="_R_G_L_2_G_D_6_P_0" class="st46" d="M22.9,37.7c0.3,0.1,0.6,0.1,0.9,0.3c4.4,2.1,8.8,4.2,13.2,6.3
			c2.3,1.1,4.5,1.1,6.8,0c4.9-2.4,9.8-4.8,14.8-7.1c0.4-0.2,0.9-0.5,1.4-0.5c0.5,0.3,1,0.6,1.5,0.8c0.9,0.3,1,0.9,0.8,1.7
			c-5.6,2.5-11.1,5.1-16.7,7.6c-1.2,0.5-2.4,1.1-3.6,1.5c-0.9,0.4-1.9,0.4-2.9,0c-1.6-0.6-3.2-1.2-4.8-1.9c-4.5-2-9-4.2-13.5-6.2
			v-1.5C21.6,38.7,22.3,38.3,22.9,37.7z"/>
		<path id="_R_G_L_2_G_D_7_P_0" class="st46" d="M62.2,46.6c-6.3,2.9-12.6,5.8-18.9,8.7c-1.8,0.8-3.7,0.9-5.7,0
			c-5.2-2.4-10.4-4.6-15.6-6.9c-0.4-0.2-0.8-0.6-1.2-0.8v-1c0.7-0.4,1.2-1,2.1-1c2.1,0.2,3.8,1.4,5.7,2.2c3.1,1.3,6.1,2.7,9.1,4.3
			c2.1,1.1,4,0.9,6-0.1c4.6-2.2,9.1-4.4,13.7-6.6c0.8-0.4,1.6-0.9,2.5-0.8C60.9,45,62.5,44.8,62.2,46.6z"/>
		<path id="_R_G_L_2_G_D_8_P_0" class="st47" d="M36.4,31.5c-2.8,2.9-8.1,2.8-10.2,0C28.5,28.7,33.7,28.6,36.4,31.5z"/>
		<path id="_R_G_L_2_G_D_9_P_0" class="st47" d="M44.9,33.7c-1.3,1.9-2.2,3.2-3.1,4.6c-2.2-0.9-4.3-1.8-6.9-2.9
			C38.3,34.4,41.4,34.2,44.9,33.7z"/>
		<path id="_R_G_L_2_G_D_10_P_0" class="st47" d="M42.2,30.7c-0.8-1.1-1.2-1.7-1.6-2.3c-1.3-0.2-2.5-0.4-4.1-0.7
			c1.1-0.5,1.8-0.8,2.5-1.1c0.1-0.6-0.2-1-0.4-1.7c1.9,0.4,3.7,1.5,5.8,0.2c-0.9,1.3,0.3,1.9,0.8,3C43.7,28.3,42.5,28.6,42.2,30.7z"
			/>
		<path id="_R_G_L_2_G_D_11_P_0" class="st45" d="M52,33.3c-0.7,0.8-1.4,0.4-2.2,0.1c-1.5-0.6-3-1.2-4.8-2c2.3-1.1,4.3-2,6.5-2.6
			C51.7,30.3,50.9,31.9,52,33.3z"/>
		<path id="_R_G_L_2_G_D_12_P_0" class="st48" d="M52,33.3c-1.1-1.4-0.3-3-0.5-4.4c2.1,0.2,3.7,1.6,6,2.2
			C55.5,32.2,53.8,32.8,52,33.3z"/>
	</g>
	<g id="_R_G_L_1_G">
		<path id="_R_G_L_1_G_D_0_P_0" class="st8" d="M77.4,40.7C77.4,61,61,77.4,40.7,77.4S3.9,61,3.9,40.7S20.4,3.9,40.7,3.9
			S77.4,20.4,77.4,40.7z"/>
		<path id="_R_G_L_1_G_D_1_P_0" class="st20" d="M77.4,40.7C77.4,61,61,77.4,40.7,77.4S3.9,61,3.9,40.7S20.4,3.9,40.7,3.9
			S77.4,20.4,77.4,40.7z"/>
		<path id="_R_G_L_1_G_D_2_P_0" class="st49" d="M18.2,40.4L41,17.2h14L25.1,47.4L18.2,40.4z"/>
		<path id="_R_G_L_1_G_D_3_P_0" class="st49" d="M28.5,51.3l12.6-12.8l14.1,0.1L35.5,58.1L28.5,51.3z"/>
		<path id="_R_G_L_1_G_D_4_P_0" class="st50" d="M28.7,51.2l6.3-6.6l7.3,6.8l-6.7,6.9L28.7,51.2z"/>
		<path id="_R_G_L_1_G_D_5_P_0" class="st51" d="M42.4,51.4L55,63.9H41.1l-5.7-5.8L42.4,51.4z"/>
	</g>
	<g id="_R_G_L_0_G">
		<path id="_R_G_L_0_G_D_0_P_0" class="st8" d="M77.4,40.7C77.4,61,61,77.4,40.7,77.4S3.9,61,3.9,40.7S20.4,3.9,40.7,3.9
			S77.4,20.4,77.4,40.7z"/>
		<path id="_R_G_L_0_G_D_1_P_0" class="st20" d="M77.4,40.7C77.4,61,61,77.4,40.7,77.4S3.9,61,3.9,40.7S20.4,3.9,40.7,3.9
			S77.4,20.4,77.4,40.7z"/>
		<path id="_R_G_L_0_G_D_2_P_0" class="st52" d="M47.7,50.4c-0.1,0-0.2,0-0.3,0.1c-0.2,0.3-0.2,0.6,0,1c0,0.1,0.1,0.2,0.3,0.1
			c0.1,0.2,0.2,0.3,0.4,0.4c0.4,0,0.7,0,0.9-0.3c0.2-0.2,0.4-0.7,0.2-0.9c-0.1-0.1-0.1-0.4-0.4-0.3c0-0.1,0-0.2-0.1-0.3
			c-0.3-0.2-0.6-0.2-1,0C47.8,50.2,47.7,50.3,47.7,50.4z M39.6,43.7v-0.6c0-1.4,0-2.8,0-4.2c0-0.2,0-0.4-0.2-0.5
			c-0.1-0.1-0.2-0.2-0.3-0.3c-0.3-0.2-0.6-0.3-0.9-0.5c-0.7-0.4-1.4-0.8-2.1-1.2c-0.3-0.2-0.6-0.3-0.8-0.4c-0.4-0.3-0.9-0.5-1.3-0.8
			c0,0-0.1,0-0.2,0c-0.1-0.2-0.2-0.1-0.3,0c-0.4,0.2-0.8,0.4-1.2,0.7c-0.1,0.1-0.3,0.1-0.3,0.2H32c-0.1,0-0.1,0-0.1,0.1
			c-0.4,0.2-0.8,0.4-1.2,0.7c-0.6,0.3-1.1,0.7-1.7,1c-0.2,0.2-0.5,0.2-0.8,0.5c-0.3,0.1-0.3,0.4-0.3,0.6c0,1.4,0,2.8,0,4.2
			c0,0.7,0,1.3,0,2c0,0.1,0,0.2,0.1,0.2c0,0.1,0.1,0.2,0.2,0.2c0.3,0.2,0.7,0.4,1,0.6c0.3,0.2,0.6,0.3,0.9,0.5
			c0.5,0.3,0.9,0.6,1.4,0.9c0.5,0.3,1.1,0.6,1.6,0.9c0.2,0.1,0.4,0.3,0.6,0.2c0.5-0.2,1-0.4,1.4-0.7c0.4-0.2,0.8-0.4,1.2-0.7
			c0.3-0.2,0.6-0.3,0.9-0.5c0.1,0,0.1,0,0.2,0c0.6-0.4,1.3-0.8,1.9-1.1c0.2-0.1,0.4-0.4,0.3-0.6V43.7z M50,35.9
			c-0.3,0.1-0.5-0.1-0.8-0.2c-0.3-0.2-0.6-0.3-0.9-0.5c-0.2-0.1-0.4-0.1-0.6,0c-0.4,0.2-0.8,0.5-1.2,0.7c-0.3,0.2-0.5,0.3-0.8,0.4
			c-0.7,0.4-1.4,0.9-2.1,1.2c-0.4,0.2-0.8,0.5-1.2,0.7c-0.2,0.1-0.4,0.3-0.3,0.6c0,0.1,0,0.3,0,0.4c0,1.9,0,3.7,0,5.6
			c0,0.2,0.1,0.4,0.2,0.6c0.2,0.2,0.5,0.2,0.7,0.4c0.4,0.3,0.9,0.5,1.4,0.8c0.4,0.3,0.8,0.5,1.2,0.7c0.2,0.1,0.4,0.3,0.7,0.4
			c0.4,0.2,0.7,0.4,1,0.6c0.4,0.2,0.7,0.3,1.2,0.1c0.4-0.3,0.8-0.5,1.3-0.7c0.5-0.2,0.9-0.6,1.4-0.8c0.5-0.3,1-0.6,1.6-0.9
			c0.2-0.1,0.4-0.3,0.7-0.4c0.2-0.1,0.3-0.3,0.4-0.5c0.1-0.2,0-0.3,0-0.5c0-4.8,0-9.6,0-14.4c0-0.1,0-0.2,0-0.3
			c0-0.2-0.1-0.5-0.3-0.6c-0.3-0.1-0.6-0.3-0.9-0.5c-0.4-0.2-0.8-0.4-1.2-0.7c-0.3-0.2-0.6-0.4-1-0.5c-0.3-0.2-0.6,0-0.6,0.3
			c0,0.1,0,0.2,0,0.3v7.4V35.9z M56.5,41.8c0,0.9,0,1.9,0,2.8c0,0.3,0.1,0.6,0.3,0.7c0.5,0.3,1,0.5,1.4,0.8c0.3,0.2,0.7,0.3,1,0.5
			c0.5,0.3,1,0.6,1.5,0.9c0.4,0.3,0.8,0.5,1.2,0.7c0.2,0.1,0.5,0.2,0.7,0c0.4-0.3,0.9-0.5,1.3-0.7c0.6-0.3,1.2-0.7,1.8-1
			c0.3-0.2,0.3-0.4,0.1-0.6c-0.5-0.4-1.2-0.7-1.7-1c-0.3-0.2-0.6-0.3-0.9-0.5c-0.6-0.3-1.2-0.6-1.7-1c-0.3-0.2-0.6-0.3-0.9-0.5
			c-0.2-0.1-0.2-0.3-0.2-0.5c0-0.5,0-1,0-1.5c0-0.2,0.1-0.5,0.3-0.6c0.5-0.3,0.9-0.5,1.4-0.8c0.3-0.2,0.5-0.1,0.7,0
			c0.1,0.1,0.2,0.1,0.3,0.2c0.3,0.2,0.7,0.4,1,0.6c0.2,0.1,0.2,0.3,0.2,0.5c0,0.4,0,0.8,0,1.2c0,0.4,0.3,0.6,0.6,0.4
			c0.5-0.4,1-0.6,1.5-0.9c0.5-0.3,1.1-0.6,1.6-0.9c0.2-0.1,0.3-0.3,0.3-0.5c0-0.5,0-1,0-1.5c0-0.2-0.1-0.4-0.2-0.5
			c-0.3-0.2-0.6-0.4-0.9-0.5c-0.3-0.1-0.6-0.4-1-0.5c-0.5-0.4-1-0.6-1.5-0.9c-0.2-0.2-0.5-0.3-0.8-0.4c-0.4-0.2-0.8-0.5-1.2-0.7
			C62.5,35,62.3,35,62,35.2c-0.7,0.5-1.5,0.8-2.2,1.3c-0.5,0.2-0.9,0.5-1.4,0.8c-0.5,0.2-0.9,0.6-1.3,0.8c-0.4,0.2-0.6,0.6-0.6,1.1
			C56.6,40,56.5,40.8,56.5,41.8z M44.3,53.4c0.1-0.6-0.1-1-0.5-1.3c-0.3-0.3-0.8-0.5-1.3-0.5c-0.5,0-1.1-0.1-1.6,0.1
			c-0.3,0.1-0.7,0.2-0.9,0.5c-0.3,0.3-0.4,0.9-0.3,1.3c0,0.4,0.3,0.7,0.7,0.9c0.5,0.3,1.1,0.3,1.7,0.4c0.3,0,0.6,0.1,0.9,0.1
			c0.1,0,0.2,0.1,0.2,0.1c0.4,0.1,0.5,0.5,0.3,0.8c-0.2,0.3-0.4,0.4-0.7,0.4c-0.5,0-0.9,0-1.4,0c-0.2,0-0.4-0.1-0.6-0.2
			c-0.2-0.2-0.4-0.5-0.4-0.7h-0.9c0,0.1,0,0.2,0,0.2c0,0.6,0.3,1,0.8,1.3c0.5,0.2,1.1,0.4,1.5,0.4c0.1,0,0.2,0,0.4,0
			c0.6,0,1.2-0.2,1.7-0.5c0.1-0.1,0.2-0.2,0.3-0.3c0.2-0.2,0.3-0.4,0.3-0.8c0.2-0.3,0-0.5,0-0.8c0-0.2-0.2-0.4-0.4-0.5
			c-0.5-0.2-1-0.4-1.5-0.5c-0.3,0-0.6-0.1-0.9-0.1c-0.2,0-0.5-0.1-0.7-0.2c-0.2-0.1-0.4-0.3-0.3-0.5c0.1-0.3,0.4-0.5,0.7-0.5
			c0.2,0,0.4,0,0.5-0.1c0.1,0,0.2,0,0.3,0c0.1,0.1,0.3,0.1,0.4,0.1c0.4,0.1,0.7,0.2,0.8,0.6c0.1,0.3,0.2,0.4,0.5,0.4
			C44,53.4,44.2,53.4,44.3,53.4z M63.6,41.7c0-0.1,0-0.3,0-0.4c0-0.2-0.1-0.3-0.2-0.4c-0.3-0.1-0.6-0.3-0.8-0.5
			c-0.1-0.1-0.2,0-0.3,0c-0.2,0.2-0.5,0.3-0.7,0.5c-0.2,0.1-0.2,0.2-0.2,0.4c0,0.3,0,0.6,0,0.9c0,0.1,0.1,0.2,0.2,0.3
			c0.3,0.1,0.5,0.3,0.8,0.5c0.1,0.1,0.3,0.1,0.4,0c0.1-0.1,0.3-0.2,0.5-0.2c0.5-0.3,0.5-0.3,0.5-0.8V41.7z"/>
		<path id="_R_G_L_0_G_D_3_P_0" class="st53" d="M13.5,38.4c0.1-0.2,0.4-0.4,0.7-0.5c0.8-0.4,1.5-0.8,2.2-1.3
			c0.2-0.1,0.4-0.3,0.7-0.4c0.6-0.3,1.2-0.7,1.8-1.1c0.3-0.2,0.5-0.2,0.8,0c0.8,0.4,1.6,0.9,2.4,1.4c0.2,0.2,0.5,0.3,0.8,0.4
			c0.5,0.3,1.1,0.7,1.6,0.9c0.2,0.1,0.4,0.2,0.5,0.4c0.1,0.2,0.2,0.3,0.2,0.6c0,2.6,0,5.2,0,7.8c0,0.1,0,0.2-0.1,0.3
			C25.1,47,25,47.1,24.8,47c-0.4-0.2-0.9-0.5-1.3-0.7c-0.3-0.2-0.6-0.4-0.9-0.5c-0.3-0.1-0.6-0.3-0.9-0.5c-0.3-0.1-0.4-0.4-0.4-0.8
			c0-1.2,0-2.4,0-3.6c0-0.3-0.1-0.5-0.3-0.6c-0.1-0.1-0.2-0.2-0.3-0.2c-0.4-0.1-0.7-0.4-1-0.6c-0.2-0.1-0.5-0.1-0.7,0
			c-0.3,0.2-0.7,0.5-1.1,0.6c-0.1,0.1-0.2,0.2-0.3,0.2c-0.2,0.1-0.2,0.3-0.2,0.5c0,0.2,0,0.5,0,0.7c0,1,0,2,0,3
			c0,0.3-0.1,0.5-0.4,0.7c-0.5,0.3-1.1,0.6-1.6,0.9c-0.4,0.2-0.8,0.5-1.3,0.7c-0.3,0.2-0.4,0.2-0.6,0V38.4z"/>
		<path id="_R_G_L_0_G_D_4_P_0" class="st54" d="M40.2,60.9c-0.3-0.3-0.6-0.4-0.9-0.6c-0.3-0.1-0.5-0.3-0.8-0.4
			c-0.1,0-0.2-0.1-0.1-0.2c0-0.1,0.1-0.2,0.2-0.2c0.2,0,0.4-0.2,0.6-0.2c0.1,0,0.2-0.1,0.3,0c0.3,0.2,0.7,0.4,1,0.6
			c0.1,0.1,0.3,0.1,0.5,0c0.4-0.2,0.7-0.4,1.1-0.6c0.5-0.3,1-0.5,1.4-0.8c0.2-0.2,0.5-0.3,0.8-0.4c0.3-0.2,0.7-0.4,1-0.6
			c0.1-0.1,0.3-0.2,0.5-0.2c0-0.2,0-0.5,0-0.7c0-1.7,0-3.3,0-5c0-0.2-0.1-0.3-0.3-0.4c-0.5-0.3-1-0.5-1.5-0.8
			c-0.2-0.2-0.5-0.3-0.7-0.4c-0.5-0.3-1-0.5-1.4-0.8c-0.3-0.2-0.6-0.4-0.9-0.5c-0.1-0.1-0.4-0.1-0.5,0c-0.5,0.3-1,0.6-1.5,0.9
			c-0.5,0.3-0.9,0.6-1.4,0.8c-0.3,0.2-0.6,0.4-0.9,0.5c-0.3,0.1-0.5,0.3-0.8,0.4c-0.1,0-0.2,0.2-0.2,0.5c0,1.8,0,3.5,0,5.3
			c0,0.2,0.1,0.4,0.2,0.4c0.4,0.2,0.8,0.4,1.2,0.7c0.3,0.2,0.6,0.1,0.8,0.1c0.3-0.1,0.3-0.3,0.4-0.6c0-0.1,0-0.2,0-0.3v-5
			c0-0.1,0-0.2,0-0.3c0-0.1,0.1-0.2,0.2-0.2c0.2,0,0.3,0,0.5,0c0.1,0,0.2,0.1,0.2,0.2c0,0.1,0,0.2,0,0.3c0,1.8,0,3.6,0,5.3
			c0,0.4-0.1,0.7-0.3,1c-0.2,0.3-0.5,0.5-0.9,0.5c-0.1,0-0.2,0-0.3,0c-0.2,0-0.5,0-0.7-0.1c-0.2-0.1-0.4-0.1-0.6-0.3
			c-0.2-0.2-0.5-0.3-0.8-0.4c-0.3-0.1-0.5-0.3-0.6-0.5c-0.1-0.1-0.2-0.3-0.2-0.4c0-2,0-4,0-5.9c0-0.2,0-0.3,0.1-0.4
			c0.2-0.2,0.4-0.4,0.7-0.6c0.5-0.2,1-0.6,1.5-0.9c0.3-0.2,0.6-0.3,0.9-0.5c0.5-0.3,1-0.6,1.6-0.9c0.3-0.1,0.5-0.3,0.8-0.4
			c0.4-0.2,0.9-0.1,1.2,0.2c0.5,0.3,1,0.6,1.6,0.9c0.5,0.3,0.9,0.6,1.4,0.9c0.3,0.2,0.6,0.3,0.9,0.5c0.4,0.2,0.8,0.4,1,0.7
			c0.2,0.2,0.2,0.4,0.2,0.6c0,1.9,0,3.9,0,5.8c0,0.2-0.1,0.4-0.2,0.6c-0.2,0.3-0.5,0.5-0.8,0.6c-0.3,0.2-0.6,0.4-1,0.5
			c-0.5,0.2-0.9,0.6-1.4,0.8c-0.3,0.2-0.6,0.3-1,0.5c-0.4,0.2-0.8,0.5-1.2,0.7H40.2z"/>
		<path id="_R_G_L_0_G_D_5_P_0" class="st53" d="M50,35.9v-0.5v-7.4c0-0.1,0-0.2,0-0.3c0-0.4,0.2-0.5,0.6-0.3c0.3,0.2,0.7,0.3,1,0.5
			c0.4,0.3,0.8,0.4,1.2,0.7c0.3,0.2,0.6,0.4,0.9,0.5c0.2,0.1,0.3,0.4,0.3,0.6c0,0.1,0,0.2,0,0.3c0,4.8,0,9.6,0,14.4
			c0,0.2,0,0.3,0,0.5c-0.1,0.2-0.2,0.4-0.4,0.5c-0.2,0.1-0.4,0.3-0.7,0.4c-0.5,0.3-1,0.6-1.6,0.9c-0.5,0.2-0.9,0.6-1.4,0.8
			c-0.4,0.2-0.9,0.5-1.3,0.7c-0.4,0.3-0.8,0.2-1.2-0.1c-0.3-0.2-0.7-0.4-1-0.6c-0.2-0.1-0.5-0.3-0.7-0.4c-0.4-0.2-0.8-0.5-1.2-0.7
			c-0.5-0.3-0.9-0.5-1.4-0.8c-0.2-0.1-0.5-0.2-0.7-0.4c-0.2-0.2-0.2-0.3-0.2-0.6c0-1.9,0-3.7,0-5.6c0-0.1,0-0.3,0-0.4
			c-0.1-0.3,0.1-0.5,0.3-0.6c0.4-0.2,0.8-0.5,1.2-0.7c0.7-0.4,1.4-0.8,2.1-1.2c0.3-0.2,0.5-0.3,0.8-0.4c0.4-0.2,0.8-0.5,1.2-0.7
			c0.2-0.1,0.4-0.1,0.6,0c0.3,0.2,0.6,0.3,0.9,0.5C49.5,35.8,49.7,36,50,35.9z M50,41.8c0-0.3,0-0.6,0-0.9c0-0.1,0-0.2-0.2-0.3
			c-0.2-0.2-0.5-0.3-0.8-0.4c-0.3-0.2-0.6-0.4-0.9-0.5c-0.1,0-0.1-0.1-0.2,0c-0.2,0.1-0.4,0.2-0.6,0.3c-0.4,0.2-0.7,0.5-1.1,0.6
			c-0.2,0.1-0.2,0.2-0.2,0.3c0,0.6,0,1.1,0,1.7c0,0.3,0.1,0.4,0.3,0.5c0.1,0.1,0.3,0.1,0.4,0.2c0.3,0.2,0.7,0.5,1.1,0.6
			c0.1,0,0.1,0.1,0.2,0c0.5-0.3,1.1-0.6,1.6-0.9c0.1-0.1,0.2-0.2,0.2-0.4C50,42.4,50,42.1,50,41.8z"/>
		<path id="_R_G_L_0_G_D_6_P_0" class="st53" d="M56.5,41.8c0-0.9,0-1.8,0-2.7c0-0.5,0.2-0.9,0.6-1.1c0.5-0.2,0.9-0.5,1.4-0.8
			c0.5-0.2,0.9-0.5,1.3-0.8c0.7-0.4,1.5-0.8,2.2-1.3c0.2-0.2,0.5-0.2,0.7-0.1c0.4,0.2,0.8,0.5,1.2,0.7c0.2,0.1,0.5,0.3,0.8,0.4
			c0.5,0.3,1,0.5,1.5,0.9c0.4,0.1,0.6,0.4,1,0.5c0.3,0.2,0.6,0.4,0.9,0.5c0.2,0.1,0.2,0.3,0.2,0.5c0,0.5,0,1,0,1.5
			c0,0.2-0.1,0.4-0.3,0.5c-0.5,0.3-1.1,0.6-1.6,0.9c-0.5,0.3-1,0.5-1.5,0.9c-0.3,0.2-0.6,0-0.6-0.4c0-0.4,0-0.8,0-1.2
			c0-0.2,0-0.3-0.2-0.5c-0.3-0.2-0.6-0.4-1-0.6c-0.1,0-0.2-0.1-0.3-0.2c-0.2-0.1-0.4-0.2-0.7,0c-0.5,0.3-0.9,0.5-1.4,0.8
			c-0.2,0.1-0.3,0.3-0.3,0.6c0,0.5,0,1,0,1.5c0,0.2,0.1,0.3,0.2,0.4c0.3,0.2,0.6,0.3,0.9,0.5c0.5,0.4,1.1,0.7,1.7,1
			c0.3,0.2,0.6,0.3,0.9,0.5c0.6,0.3,1.2,0.6,1.7,1c0.3,0.2,0.3,0.4-0.1,0.6c-0.6,0.3-1.2,0.7-1.8,1c-0.4,0.2-0.9,0.5-1.3,0.7
			c-0.2,0.2-0.5,0.1-0.7,0c-0.4-0.3-0.8-0.5-1.2-0.7c-0.5-0.3-1-0.6-1.5-0.9c-0.3-0.2-0.6-0.4-1-0.5c-0.5-0.3-1-0.5-1.4-0.8
			c-0.3-0.2-0.3-0.4-0.3-0.7C56.5,43.6,56.5,42.7,56.5,41.8z"/>
		<path id="_R_G_L_0_G_D_7_P_0" class="st55" d="M35.2,47.6c-0.4,0.3-0.9,0.6-1.4,0.7c0-0.2-0.1-0.2-0.1-0.4
			c-0.4-0.7-0.8-1.4-1.1-2.1c-0.1-0.2-0.2-0.5-0.4-0.7c0-0.1-0.1-0.2-0.1-0.3c0.1-0.1,0.1-0.3,0.1-0.5c0-2.8,0-5.7,0-8.5
			c0-0.1,0.2-0.2,0.3-0.2c0.4-0.2,0.8-0.4,1.2-0.6c0.1-0.1,0.2-0.1,0.3,0c0.1,0.1,0.2,0.3,0.3,0.4c0.2,0.5,0.6,0.9,0.8,1.4
			c0.2,0.1,0.2,0.3,0.2,0.4c0,1,0,2.1,0,3.1c0,2.2,0,4.5,0,6.7C35.1,47.3,35,47.5,35.2,47.6z"/>
		<path id="_R_G_L_0_G_D_8_P_0" class="st56" d="M35.2,47.6c-0.1-0.1-0.1-0.3-0.1-0.5c0-2.2,0-4.4,0-6.7c0-1,0-2.1,0-3.1
			c0-0.2,0-0.3-0.2-0.5c-0.2-0.5-0.6-0.9-0.8-1.4c-0.1-0.1-0.2-0.3-0.3-0.4c0.1,0,0.2,0,0.2,0c0.4,0.3,0.9,0.5,1.3,0.8
			c0.2,0.2,0.5,0.3,0.8,0.4c0.7,0.4,1.4,0.8,2.1,1.2c0.3,0.2,0.6,0.3,0.9,0.5c0.1,0.1,0.2,0.2,0.3,0.3c-0.4,0.4-0.6,0.9-0.8,1.3
			c-0.3,0.5-0.6,1.1-0.9,1.6c-0.1,0.1-0.1,0.1-0.2,0c-0.1-0.1-0.2-0.2-0.3-0.4c0-0.1,0-0.1-0.1-0.1c-0.1,0-0.1,0.1-0.1,0.1
			c0,0.7,0,1.4,0,2.1c0,1,0,2.1,0,3.1c0,0.1-0.1,0.2,0.1,0.2c-0.2,0.3-0.6,0.4-0.9,0.6C36,47.2,35.6,47.4,35.2,47.6z"/>
		<path id="_R_G_L_0_G_D_9_P_0" class="st57" d="M32,45c-0.1,0.1,0,0.2,0.1,0.3c0.2,0.2,0.3,0.5,0.4,0.7c0.4,0.7,0.8,1.4,1.1,2.1
			c0,0.1,0.2,0.2,0.1,0.4c-0.3,0-0.4-0.1-0.6-0.2c-0.5-0.3-1-0.6-1.6-0.9c-0.5-0.3-0.9-0.6-1.4-0.9c-0.3-0.2-0.6-0.3-0.9-0.5
			c-0.3-0.2-0.7-0.4-1-0.6c-0.1,0-0.2-0.1-0.2-0.2c0,0,0.1,0,0.1,0c0.3-0.5,0.6-1,0.8-1.5c0-0.1,0-0.1-0.1-0.2
			c-0.3-0.1-0.6-0.4-0.9-0.4c0-1.4,0-2.8,0-4.1c0-0.2,0-0.5,0.3-0.6c0.2,0.2,0.3,0.5,0.5,0.8c0.4,0.6,0.7,1.2,1,1.8
			c0.5,0.8,0.9,1.5,1.3,2.3c0.2,0.4,0.5,0.7,0.6,1.1C31.8,44.4,31.8,44.8,32,45z"/>
		<path id="_R_G_L_0_G_D_10_P_0" class="st58" d="M32,45c-0.2-0.2-0.2-0.5-0.5-0.7c-0.1-0.4-0.4-0.8-0.6-1.1
			c-0.4-0.8-0.8-1.6-1.3-2.3c-0.4-0.6-0.7-1.2-1-1.8c-0.1-0.3-0.3-0.6-0.5-0.8c0.2-0.2,0.5-0.3,0.8-0.5c0.6-0.3,1.1-0.7,1.7-1
			c0.4-0.2,0.8-0.5,1.2-0.7c0.1,0,0.1,0,0.1-0.1h0.1c0,2.9,0,5.7,0,8.5C32.1,44.6,32.1,44.8,32,45z"/>
		<path id="_R_G_L_0_G_D_11_P_0" class="st54" d="M44.3,53.4c-0.1,0-0.3,0-0.4,0c-0.3,0-0.4,0-0.5-0.4c-0.1-0.4-0.5-0.5-0.8-0.6
			c-0.1,0-0.3,0-0.4-0.1c-0.1,0-0.2,0-0.3,0c-0.2,0.1-0.3,0.1-0.5,0.1c-0.3,0-0.6,0.3-0.7,0.5c0,0.2,0.1,0.4,0.3,0.5
			c0.2,0.1,0.5,0.1,0.7,0.2c0.3,0,0.6,0.1,0.9,0.1c0.5,0.1,1,0.2,1.5,0.5c0.2,0.1,0.4,0.3,0.4,0.5c0,0.3,0.3,0.5,0,0.8
			c0.1,0.3-0.1,0.5-0.3,0.8c-0.1,0.1-0.2,0.2-0.3,0.3c-0.5,0.3-1.1,0.5-1.7,0.5c-0.1,0-0.2,0-0.4,0c-0.4,0-1.1-0.1-1.5-0.4
			c-0.5-0.3-0.8-0.7-0.8-1.3c0-0.1,0-0.2,0-0.2h0.9c0,0.3,0.1,0.5,0.4,0.7c0.2,0.2,0.4,0.2,0.6,0.2c0.5,0,0.9,0,1.4,0
			c0.3,0,0.6-0.2,0.7-0.4c0.2-0.3,0.1-0.7-0.3-0.8c-0.1,0-0.2-0.1-0.2-0.1c-0.3,0-0.6-0.1-0.9-0.1c-0.6-0.1-1.2-0.1-1.7-0.4
			c-0.3-0.2-0.6-0.4-0.7-0.9c-0.1-0.5,0.1-1,0.3-1.3c0.3-0.2,0.6-0.4,0.9-0.5c0.5-0.2,1.1-0.1,1.6-0.1c0.5,0,0.9,0.2,1.3,0.5
			C44.2,52.4,44.5,52.8,44.3,53.4z"/>
		<path id="_R_G_L_0_G_D_12_P_0" class="st57" d="M37.2,46.4c-0.2,0-0.1-0.1-0.1-0.2c0-1,0-2.1,0-3.1c0-0.7,0-1.4,0-2.1
			c0-0.1,0-0.1,0.1-0.1c0.1,0,0.1,0,0.1,0.1c0.1,0.2,0.2,0.3,0.3,0.4c0.1,0.1,0.1,0.1,0.2,0c0.2-0.6,0.6-1.1,0.9-1.6
			c0.2-0.5,0.4-1,0.8-1.3c0.2,0.1,0.2,0.3,0.2,0.5c0,1.4,0,2.8,0,4.2v0.6c-0.1,0-0.3,0-0.4-0.1c-0.1-0.1-0.2,0-0.3,0
			c-0.1,0-0.1,0.1-0.1,0.1c0.3,0.3,0.4,0.7,0.6,1c0,0,0.1,0,0.1,0c0,0.3-0.1,0.5-0.3,0.6c-0.6,0.3-1.3,0.7-1.9,1.1
			C37.3,46.4,37.3,46.4,37.2,46.4z"/>
		<path id="_R_G_L_0_G_D_13_P_0" class="st54" d="M63.6,41.7v0.1c0,0.5,0,0.5-0.5,0.8c-0.2,0.1-0.3,0.1-0.5,0.2
			c-0.1,0.2-0.3,0.1-0.4,0c-0.3-0.2-0.5-0.3-0.8-0.5c-0.1,0-0.1-0.2-0.2-0.3c0-0.3,0-0.6,0-0.9c0-0.2,0.1-0.3,0.2-0.4
			c0.3-0.1,0.5-0.3,0.7-0.5c0.1-0.1,0.2-0.1,0.3,0c0.3,0.2,0.5,0.3,0.8,0.5c0.1,0.1,0.3,0.2,0.2,0.4C63.6,41.5,63.6,41.6,63.6,41.7z
			"/>
		<path id="_R_G_L_0_G_D_14_P_0" class="st58" d="M27.9,42.9c0.3,0.1,0.6,0.3,0.9,0.4c0.1,0,0.1,0.1,0.1,0.2c-0.3,0.5-0.6,1-0.8,1.5
			c0,0-0.1,0-0.1,0c-0.1,0-0.1-0.1-0.1-0.2C27.9,44.2,27.9,43.6,27.9,42.9z"/>
		<path id="_R_G_L_0_G_D_15_P_0" class="st54" d="M48.9,50.4c0.3-0.1,0.3,0.2,0.4,0.3c0.1,0.2-0.1,0.7-0.2,0.9
			C48.8,52,48.5,52,48.1,52c-0.2,0-0.4-0.2-0.4-0.4c0.1,0,0.2,0.1,0.3,0.1c0.3,0.1,0.5,0.1,0.8-0.2c0.3-0.3,0.3-0.5,0.2-0.8
			C49,50.7,48.9,50.6,48.9,50.4z"/>
		<path id="_R_G_L_0_G_D_16_P_0" class="st56" d="M39.6,44.7c0,0-0.1,0-0.1,0c-0.2-0.3-0.3-0.7-0.6-1c0,0,0-0.1,0.1-0.1
			c0.1,0,0.2-0.1,0.3,0c0.1,0.1,0.3,0,0.4,0.1V44.7z"/>
		<path id="_R_G_L_0_G_D_17_P_0" class="st54" d="M47.7,50.4c0-0.1,0-0.2,0.1-0.3c0.3-0.2,0.6-0.2,1,0c0.1,0,0.2,0.1,0.1,0.3
			c-0.1,0-0.1,0-0.2-0.1c-0.3-0.2-0.5-0.2-0.8,0C47.9,50.4,47.8,50.4,47.7,50.4z"/>
		<path id="_R_G_L_0_G_D_18_P_0" class="st54" d="M47.7,51.6c-0.1,0-0.2,0-0.3-0.1c-0.2-0.3-0.2-0.6,0-1c0-0.1,0.1-0.1,0.3-0.1
			c0,0,0,0.1,0,0.1c-0.3,0.3-0.2,0.6-0.1,0.9C47.7,51.5,47.7,51.6,47.7,51.6z"/>
		<path id="_R_G_L_0_G_D_19_P_0" class="st55" d="M32,35.9c0,0.1,0,0.1-0.1,0.1C31.9,36,32,35.9,32,35.9z"/>
		<path id="_R_G_L_0_G_D_20_P_0" class="st52" d="M50,41.8c0,0.3,0,0.5,0,0.8c0,0.2-0.1,0.3-0.2,0.4c-0.5,0.3-1.1,0.6-1.6,0.9
			c-0.1,0.1-0.1,0-0.2,0c-0.4-0.2-0.7-0.4-1.1-0.6c-0.1-0.1-0.3-0.2-0.4-0.2c-0.2-0.1-0.3-0.2-0.3-0.5c0-0.6,0-1.1,0-1.7
			c0-0.2,0-0.3,0.2-0.3c0.4-0.2,0.7-0.4,1.1-0.6c0.2-0.1,0.4-0.2,0.6-0.3c0.1-0.1,0.1,0,0.2,0c0.3,0.2,0.6,0.3,0.9,0.5
			c0.2,0.1,0.5,0.3,0.8,0.4c0.1,0.1,0.2,0.2,0.2,0.3C50,41.2,50,41.5,50,41.8z"/>
		<path id="_R_G_L_0_G_D_21_P_0" class="st52" d="M47.7,51.6c0-0.1,0-0.1-0.1-0.2c-0.1-0.3-0.3-0.6,0.1-0.9c0,0,0-0.1,0-0.1
			c0.1,0,0.1,0,0.2-0.1c0.3-0.2,0.5-0.2,0.8,0c0.1,0,0.1,0.1,0.2,0.1c0,0.1,0.1,0.2,0.1,0.3c0.1,0.4,0.1,0.5-0.2,0.8
			c-0.3,0.3-0.5,0.3-0.8,0.2C48,51.7,47.9,51.6,47.7,51.6z M48,50.5c0,0.2,0,0.5,0,0.7c0,0.1-0.1,0.3,0.1,0.3c0.2,0,0.1-0.2,0.1-0.3
			c0-0.1,0.1-0.1,0.1-0.1c0.1,0,0.2,0,0.2,0.1c0,0.1,0,0.1,0,0.2c0,0.1,0.1,0.1,0.2,0.1c0.1,0,0.1-0.1,0.1-0.1
			c-0.1-0.1-0.1-0.2-0.1-0.3c0-0.2,0-0.4,0-0.5H48z"/>
		<path id="_R_G_L_0_G_D_22_P_0" class="st54" d="M48,50.5h0.7c0,0.2,0,0.4,0,0.5c0,0.1,0,0.2,0.1,0.3c0,0,0,0.1-0.1,0.1
			c-0.1,0-0.2,0.1-0.2-0.1c0-0.1,0-0.1,0-0.2c0-0.1-0.1-0.1-0.2-0.1c-0.1,0-0.1,0-0.1,0.1c0,0.1,0.1,0.3-0.1,0.3
			c-0.1,0-0.1-0.2-0.1-0.3C48,51,48,50.8,48,50.5z M48.3,51c0.1,0,0.1,0,0.1-0.1c0-0.1,0-0.2-0.1-0.2c-0.1,0-0.2,0-0.2,0.1
			C48.2,50.9,48.2,51,48.3,51z"/>
		<path id="_R_G_L_0_G_D_23_P_0" class="st52" d="M48.3,51c-0.2,0-0.2,0-0.2-0.2c0-0.1,0.1-0.1,0.2-0.1c0.1,0,0.1,0.1,0.1,0.2
			C48.5,51,48.4,51,48.3,51z"/>
	</g>
</g>
<g id="time_group">
</g>
</svg>
