<?xml version="1.0" encoding="utf-8"?>
<!-- Generator: Adobe Illustrator 26.0.1, SVG Export Plug-In . SVG Version: 6.00 Build 0)  -->
<svg version="1.1" id="Layer_1" xmlns="http://www.w3.org/2000/svg" xmlns:xlink="http://www.w3.org/1999/xlink" x="0px" y="0px"
	 viewBox="0 0 500 500" style="enable-background:new 0 0 500 500;" xml:space="preserve">
<style type="text/css">
	.st0{fill:#F5F5F5;}
	.st1{fill:#EBEBEB;}
	.st2{fill:#E0E0E0;}
	.st3{fill:#263238;}
	.st4{fill:#FFFFFF;}
	.st5{fill:#5095D0;}
	.st6{opacity:0.2;}
	.st7{fill:#1585C4;}
	.st8{opacity:0.4;}
	.st9{fill:#455A64;}
	.st10{opacity:0.6;}
	.st11{fill:#FFBE9D;}
	.st12{fill:#EB996E;}
	.st13{fill:#FAFAFA;}
	.st14{fill:#7ABDE8;}
</style>
<g id="freepik--background-complete--inject-16">
	<path class="st0" d="M105.8,165.2c4.1,20.8-9.3,40.9-30.1,45.1c-20.8,4.1-40.9-9.3-45.1-30.1s9.3-40.9,30.1-45.1c0,0,0.1,0,0.1,0
		C81.6,131,101.7,144.5,105.8,165.2z"/>
	<path class="st1" d="M96.9,167c3.1,15.8-7.2,31.2-23,34.3c-15.8,3.1-31.2-7.2-34.3-23c-3.1-15.8,7.2-31.2,23-34.3c0,0,0,0,0,0
		C78.4,140.9,93.8,151.1,96.9,167C96.9,167,96.9,167,96.9,167z"/>
	<path class="st2" d="M96.7,166.1c-0.2,0-0.5-1.2-1.4-3.3c-1.2-3-2.9-5.7-5-8.1c-1.4-1.7-3.1-3.2-4.8-4.5c-2-1.5-4.2-2.7-6.6-3.6
		c-1.3-0.5-2.6-0.9-3.9-1.2c-1.4-0.3-2.8-0.6-4.2-0.7c-1.5-0.1-2.9-0.1-4.4,0c-1.5,0.1-3,0.3-4.5,0.7c-1.5,0.3-2.9,0.8-4.3,1.4
		c-1.4,0.5-2.7,1.2-3.9,1.9c-1.2,0.7-2.4,1.5-3.5,2.4c-1.1,0.8-2.1,1.8-3,2.8c-1.7,1.9-3.1,3.9-4.3,6.2c-1,1.9-1.8,4-2.4,6.1
		c-0.8,3.1-1.2,6.3-1,9.5c0.1,2.3,0.3,3.6,0.2,3.6s-0.6-1.2-1-3.5c-0.5-3.3-0.4-6.7,0.3-10c0.5-2.3,1.3-4.5,2.3-6.6
		c1.2-2.4,2.7-4.7,4.5-6.7c1-1.1,2-2.1,3.1-3.1c1.2-1,2.4-1.9,3.7-2.7c1.3-0.8,2.8-1.5,4.2-2.1c3-1.2,6.2-2,9.4-2.2
		c1.6-0.1,3.2-0.1,4.7,0.1c1.5,0.1,3,0.4,4.5,0.8c1.4,0.4,2.8,0.8,4.1,1.4c4.7,1.9,8.7,5,11.8,9c2.1,2.6,3.6,5.6,4.6,8.8
		C96.8,164.7,96.8,166.1,96.7,166.1z"/>
	<path class="st2" d="M74.8,189.1l1.1,5l-4.4,0.9l-1-4.8c-4.4,0.7-9,0.2-11.8-1.2l1.3-5.9c2.9,1.2,6.1,1.7,9.3,1.3l-1.6-7.4
		c-5.2-0.1-11-0.6-12.4-7c-1-4.7,1.6-9.5,8.4-11.8l-1-4.9l4.4-0.9l1,4.8c3.2-0.5,6.5-0.2,9.6,0.8l-1.1,5.9c-2.3-0.8-4.8-1.1-7.3-0.9
		l1.6,7.6c5.2,0.1,11,0.6,12.3,6.9C84.2,182,81.7,186.8,74.8,189.1z M66.2,170.4l-1.3-6.3c-2.2,1-2.9,2.5-2.6,4
		S64.2,170.2,66.2,170.4z M76.1,179.5c-0.3-1.6-1.8-2.1-3.8-2.4l1.3,6.1C75.7,182.2,76.5,180.9,76.1,179.5z"/>
	<path class="st0" d="M208.6,301.1c2.4,12.1-5.5,24-17.6,26.4s-24-5.5-26.4-17.6c-2.4-12.1,5.5-24,17.6-26.4c0,0,0,0,0.1,0
		C194.4,281.1,206.2,289,208.6,301.1C208.6,301.1,208.6,301.1,208.6,301.1z"/>
	<path class="st1" d="M203.4,302.2c1.8,9.3-4.2,18.3-13.4,20.1c-9.3,1.8-18.3-4.2-20.1-13.4c-1.8-9.3,4.2-18.3,13.4-20.1
		c0,0,0,0,0,0C192.6,286.9,201.5,292.9,203.4,302.2C203.4,302.1,203.4,302.2,203.4,302.2z"/>
	<path class="st2" d="M203.3,301.6c-0.3-0.6-0.6-1.3-0.8-1.9c-0.7-1.7-1.7-3.3-2.9-4.8c-0.8-1-1.8-1.8-2.8-2.6
		c-1.2-0.9-2.5-1.6-3.9-2.1c-0.7-0.3-1.5-0.5-2.3-0.7c-0.8-0.2-1.6-0.3-2.4-0.4c-0.9-0.1-1.7-0.1-2.6,0c-0.9,0.1-1.8,0.2-2.6,0.4
		c-0.9,0.2-1.7,0.5-2.5,0.8c-0.8,0.3-1.6,0.7-2.3,1.1c-1.4,0.8-2.7,1.8-3.8,3c-1,1.1-1.9,2.3-2.5,3.6c-0.6,1.1-1.1,2.3-1.4,3.6
		c-0.5,1.8-0.7,3.7-0.6,5.6c0.1,0.7,0.1,1.4,0.1,2.1c-0.3-0.6-0.5-1.3-0.6-2c-0.3-1.9-0.2-3.9,0.2-5.8c0.3-1.3,0.7-2.6,1.3-3.9
		c0.7-1.4,1.6-2.7,2.6-3.9c0.6-0.6,1.2-1.2,1.8-1.8c0.7-0.6,1.4-1.1,2.2-1.6c0.8-0.5,1.6-0.9,2.5-1.2c0.9-0.4,1.8-0.6,2.7-0.9
		c0.9-0.2,1.9-0.3,2.8-0.4c0.9-0.1,1.8-0.1,2.8,0c1.7,0.2,3.4,0.6,5.1,1.3c1.4,0.6,2.8,1.4,4,2.4c1.1,0.8,2,1.8,2.9,2.9
		c1.2,1.5,2.1,3.3,2.7,5.2C203.1,300.2,203.3,300.9,203.3,301.6z"/>
	<path class="st2" d="M190.5,315.1l0.6,2.9l-2.6,0.5l-0.6-2.8c-2.3,0.4-4.7,0.2-6.9-0.7l0.8-3.5c1.7,0.7,3.6,1,5.4,0.8l-0.9-4.3
		c-3-0.1-6.5-0.4-7.2-4.1c-0.6-2.8,0.9-5.5,4.9-6.9l-0.6-2.9l2.6-0.5l0.6,2.8c1.9-0.3,3.8-0.1,5.6,0.5l-0.6,3.5
		c-1.4-0.4-2.8-0.6-4.3-0.5l0.9,4.4c3,0.1,6.4,0.4,7.2,4C195.9,311,194.4,313.7,190.5,315.1z M185.5,304.1l-0.8-3.7
		c-1.3,0.6-1.7,1.5-1.5,2.3S184.2,304,185.5,304.1L185.5,304.1z M191.3,309.5c-0.2-0.9-1.1-1.2-2.3-1.4l0.8,3.6
		C191,311.1,191.4,310.3,191.3,309.5L191.3,309.5z"/>
	<path class="st1" d="M439,237.4l-1.2,4.8l-4.3-1l1.1-4.7c-4.2-1.3-8-3.6-9.9-6l3.6-4.7c2.1,2.3,4.7,4.1,7.6,5.1l1.7-7.2
		c-4.5-2.3-9.5-5.2-8-11.4c1.1-4.6,5.4-7.7,12.4-6.8l1.1-4.8l4.3,1l-1.1,4.7c3,0.9,5.8,2.5,8.1,4.7l-3.4,4.8c-1.7-1.7-3.8-3-6.1-3.8
		l-1.8,7.3c4.5,2.3,9.4,5.1,7.9,11.2C450.2,235.1,446,238.2,439,237.4z M439.3,217.3l1.5-6.1c-2.4,0-3.6,1-4,2.4
		S437.5,216.3,439.3,217.3L439.3,217.3z M444.2,229.5c0.4-1.5-0.7-2.6-2.4-3.7l-1.4,5.9C442.6,231.8,443.9,230.9,444.2,229.5
		L444.2,229.5z"/>
	<path class="st1" d="M453,123.4l0.4,8.6l-7.7,0.3l-0.4-8.3c-7.6-0.1-15-2.2-19.3-5.3l3.8-9.5c4.5,2.9,9.7,4.5,15.1,4.8l-0.6-12.8
		c-8.6-1.7-18.2-4.1-18.7-15.1c-0.4-8.1,5.2-15.3,17.3-17.2l-0.4-8.5l7.7-0.3l0.4,8.3c5.8,0.2,11.4,1.5,15.8,4l-3.4,9.6
		c-3.7-1.9-7.7-3.1-11.9-3.5l0.6,13c8.6,1.6,18,4,18.5,14.8C470.5,114.2,465,121.4,453,123.4z M443.9,89.9L443.4,79
		c-4,1.1-5.5,3.4-5.4,5.9S440.4,89,443.9,89.9L443.9,89.9z M457.9,107.8c-0.1-2.7-2.4-4-5.7-5l0.5,10.6
		C456.4,112.3,458,110.2,457.9,107.8L457.9,107.8z"/>
</g>
<g id="freepik--Floor--inject-16">
	<path class="st3" d="M482,453.4c0,0.1-103.9,0.3-232,0.3s-232-0.1-232-0.3s103.8-0.3,232-0.3S482,453.2,482,453.4z"/>
</g>
<g id="freepik--Screen--inject-16">
	<path class="st4" d="M92.2,42h315.8c4,0,7.2,3.2,7.2,7.2v233.3c0,4-3.2,7.2-7.2,7.2H92.2c-4,0-7.2-3.2-7.2-7.2V49.2
		C84.9,45.3,88.2,42,92.2,42z"/>
	<path class="st3" d="M407.9,289.7c2.2,0,4.3-1.1,5.7-2.8c1-1.3,1.6-3,1.5-4.7c0-7.6,0-18.9,0-33.3c0-28.9,0-70.8-0.1-122.5
		c0-12.9,0-26.5,0-40.6c0-7.1,0-14.3,0-21.6V50.3c0.1-0.9,0-1.8-0.2-2.7c-0.5-1.8-1.6-3.3-3.2-4.3c-0.8-0.5-1.7-0.8-2.6-0.9
		c-0.9-0.1-1.9-0.1-2.8-0.1h-91.4H92.2c-2.4,0-4.7,1.2-6,3.3c-0.6,1-1,2.2-1,3.4c0,1.2,0,2.5,0,3.7v43.7c0,19.2,0,38.1,0,56.8
		c0,37.2,0,73.1,0,107.3v12.7c0,2.1,0,4.2,0,6.3c0,1,0,2.1,0,3.1c0,1,0.3,2,0.7,2.9c0.9,1.8,2.5,3.2,4.5,3.7c1,0.2,2,0.3,3,0.2h15.3
		h47.1h84.6l122.5,0.1l33.3,0h8.7c2,0,3,0,3,0h-3h-8.7H363l-122.5,0.1h-84.6H93.4c-1.1,0.1-2.1,0-3.1-0.2c-3.2-0.8-5.5-3.7-5.6-7.1
		v-22.2c0-34.2,0-70.1,0-107.3V52.7c0-1.2,0-2.4,0-3.7c0-1.3,0.4-2.5,1.1-3.6c1.4-2.2,3.8-3.6,6.4-3.6h222.5h50H406
		c1,0,1.9,0,2.9,0.1c1,0.1,1.9,0.5,2.8,1c1.7,1,2.9,2.6,3.4,4.6c0.2,0.9,0.3,1.9,0.2,2.8v13.9c0,7.3,0,14.5,0,21.6
		c0,14.1,0,27.7,0,40.6c0,51.7-0.1,93.6-0.1,122.5c0,14.5,0,25.7,0,33.3c0.1,3-1.6,5.7-4.4,6.9c-0.7,0.3-1.4,0.5-2.1,0.5
		L407.9,289.7z"/>
	<path class="st5" d="M263,79.8h128.4c4.5,0,8.2,3.7,8.2,8.2v49c0,4.5-3.7,8.2-8.2,8.2H263c-4.5,0-8.2-3.7-8.2-8.2V88
		C254.8,83.4,258.4,79.8,263,79.8z"/>
	<g class="st6">
		<path class="st4" d="M332.9,109.7v2.6h-2.3v-2.5c-2.1-0.1-4.1-0.7-5.8-1.8l1.3-2.8c1.3,0.9,2.9,1.5,4.5,1.7v-3.9
			c-2.6-0.6-5.4-1.5-5.4-4.8c0-2.5,1.8-4.6,5.4-5v-2.6h2.3v2.5c1.7,0.1,3.3,0.6,4.7,1.4l-1.2,2.8c-1.1-0.6-2.3-1-3.5-1.2v3.9
			c2.6,0.6,5.4,1.5,5.4,4.7C338.3,107.2,336.5,109.3,332.9,109.7z M330.6,99.5v-3.3c-1.2,0.3-1.7,1-1.7,1.7S329.5,99.2,330.6,99.5z
			 M334.6,105.1c0-0.8-0.7-1.2-1.7-1.6v3.2C334,106.4,334.6,105.8,334.6,105.1L334.6,105.1z"/>
	</g>
	<g class="st6">
		<path class="st4" d="M344,126.1v2h-1.8v-2c-1.6-0.1-3.1-0.5-4.5-1.4l1-2.2c1,0.7,2.2,1.2,3.5,1.3v-3c-2-0.5-4.2-1.2-4.2-3.7
			c0-1.9,1.4-3.5,4.2-3.9v-2h1.8v2c1.3,0.1,2.5,0.4,3.6,1.1l-0.9,2.2c-0.8-0.5-1.8-0.8-2.7-0.9v3.1c2,0.5,4.2,1.1,4.2,3.7
			C348.2,124.1,346.8,125.8,344,126.1z M342.2,118.2v-2.6c-1,0.2-1.3,0.7-1.3,1.3S341.4,117.9,342.2,118.2z M345.3,122.5
			c0-0.6-0.5-1-1.3-1.2v2.5C344.9,123.5,345.3,123.1,345.3,122.5z"/>
	</g>
	<path class="st4" d="M357.7,107.3c0,0.1,0,0.3,0,0.4c0,0.3,0,0.7,0,1.2c0,1.1,0,2.6,0,4.4v15.5v-0.1c0.8,0.8,1.9,1.3,3,1.6
		c1.2,0.3,2.5,0.4,3.7,0.4c2.7,0.1,5.3-0.7,7.5-2.2l-0.1,0.2l0,0c0-7.9,0-15.3,0-21.3v0.1c-0.3-0.5-0.7-0.8-1.1-1.1
		c-0.5-0.3-1-0.5-1.5-0.7c-1-0.3-2-0.5-3-0.5c-1.6-0.1-3.3,0-4.9,0.3c-1,0.2-2,0.6-2.9,1.2c-0.2,0.2-0.4,0.3-0.6,0.5
		c-0.1,0.1-0.2,0.2-0.2,0.2c0.2-0.3,0.4-0.6,0.7-0.8c0.9-0.6,1.9-1.1,2.9-1.3c1.6-0.3,3.3-0.5,5-0.4c1,0,2.1,0.2,3.1,0.5
		c1.2,0.3,2.2,1,2.9,2l0,0l0,0c0,6,0,13.3,0,21.3v0.1l-0.1,0.1c-2.3,1.6-5,2.4-7.8,2.4c-1.3,0-2.6-0.1-3.9-0.5
		c-1.2-0.3-2.4-0.9-3.3-1.8l0-0.1v-0.1c0.1-6.3,0.1-11.7,0.2-15.5c0-1.8,0.1-3.3,0.1-4.4c0-0.5,0-0.8,0-1.2
		C357.5,107.6,357.6,107.4,357.7,107.3z"/>
	<path class="st4" d="M372.2,107.4c-0.6,0.5-1.2,1-1.9,1.2c-1.7,0.8-3.5,1.1-5.4,1.1c-1.8,0.1-3.7-0.2-5.4-0.9
		c-0.7-0.3-1.4-0.7-1.9-1.2c0-0.1,0.8,0.4,2.1,0.9c1.7,0.6,3.5,0.8,5.3,0.8c1.8,0.1,3.6-0.3,5.2-0.9
		C371.4,107.8,372.1,107.3,372.2,107.4z"/>
	<path class="st4" d="M372.2,112.7c-0.5,0.5-1.2,1-1.9,1.3c-1.7,0.8-3.5,1.1-5.4,1.1c-1.8,0.1-3.7-0.2-5.4-0.9
		c-0.7-0.3-1.4-0.7-1.9-1.2c0-0.1,0.8,0.4,2.1,0.9c1.7,0.6,3.5,0.8,5.3,0.8c1.8,0.1,3.6-0.2,5.2-0.9
		C371.4,113.1,372.1,112.6,372.2,112.7z"/>
	<path class="st4" d="M372.2,118c-0.6,0.5-1.2,1-1.9,1.2c-1.7,0.8-3.5,1.1-5.4,1.1c-1.8,0.1-3.7-0.2-5.4-0.9
		c-0.7-0.3-1.4-0.7-1.9-1.2c0-0.1,0.8,0.4,2.1,0.9c1.7,0.6,3.5,0.8,5.3,0.8c1.8,0.1,3.6-0.3,5.2-0.9
		C371.4,118.4,372.1,117.9,372.2,118z"/>
	<path class="st4" d="M372.2,123.3c-0.5,0.5-1.2,1-1.9,1.2c-1.7,0.8-3.5,1.1-5.4,1.1c-1.8,0.1-3.7-0.2-5.4-0.9
		c-0.7-0.3-1.4-0.7-1.9-1.2c0-0.1,0.8,0.4,2.1,0.9c1.7,0.6,3.5,0.8,5.3,0.8c1.8,0.1,3.6-0.3,5.2-0.9
		C371.4,123.7,372.1,123.2,372.2,123.3z"/>
	<path class="st4" d="M372.3,96.4c0,0.2,0,0.4,0,0.6c0,0.5,0,1.1,0,1.8c0,1.6,0,3.9,0,6.7v23.2l-0.1-0.1c0.9,0.8,2,1.3,3.1,1.6
		c1.2,0.3,2.5,0.4,3.7,0.4c2.6,0.1,5.2-0.7,7.4-2.2l-0.1,0.2l0,0c0-12.4,0-23.7,0.1-32.2v0.1c-0.3-0.5-0.7-0.9-1.2-1.1
		c-0.5-0.3-1-0.5-1.5-0.7c-1-0.3-2-0.4-3-0.5c-1.6-0.1-3.3,0-4.9,0.3c-1,0.2-2,0.6-2.9,1.2c-0.2,0.2-0.4,0.3-0.6,0.5
		c-0.1,0.1-0.2,0.2-0.2,0.2s0-0.1,0.1-0.2c0.2-0.2,0.4-0.4,0.6-0.6c0.9-0.6,1.8-1.1,2.9-1.3c1.6-0.4,3.3-0.5,5-0.4
		c1,0,2.1,0.2,3.1,0.5c1.2,0.3,2.3,1,3,2v0.1c0,8.4,0,19.8,0.1,32.2v0.1l-0.1,0.1c-2.3,1.6-5,2.4-7.7,2.4c-1.3,0-2.6-0.1-3.9-0.4
		c-1.3-0.3-2.4-0.9-3.4-1.8l0-0.1v-0.1c0.1-9.4,0.1-17.5,0.2-23.3c0-2.8,0.1-5.1,0.1-6.7c0-0.7,0-1.3,0-1.8
		C372.2,96.9,372.2,96.7,372.3,96.4z"/>
	<path class="st4" d="M386.7,107.4c-0.6,0.5-1.2,1-1.9,1.2c-1.7,0.8-3.5,1.1-5.4,1.1c-1.8,0.1-3.7-0.2-5.4-0.9
		c-0.7-0.3-1.4-0.7-1.9-1.2c0-0.1,0.8,0.4,2.1,0.9c1.7,0.6,3.5,0.8,5.3,0.8c1.8,0.1,3.6-0.3,5.2-0.9
		C385.9,107.8,386.7,107.3,386.7,107.4z"/>
	<path class="st4" d="M386.7,112.7c-0.5,0.5-1.2,1-1.9,1.3c-1.7,0.8-3.5,1.1-5.4,1.1c-1.8,0.1-3.7-0.2-5.4-0.9
		c-0.7-0.3-1.4-0.7-1.9-1.2c0-0.1,0.8,0.4,2.1,0.9c1.7,0.6,3.5,0.8,5.3,0.8c1.8,0.1,3.6-0.2,5.2-0.9
		C385.9,113.1,386.7,112.6,386.7,112.7z"/>
	<path class="st4" d="M386.7,101.9c-0.5,0.5-1.2,1-1.9,1.3c-1.7,0.8-3.5,1.1-5.4,1.1c-1.8,0.1-3.7-0.2-5.4-0.9
		c-0.7-0.3-1.4-0.7-1.9-1.2c0-0.1,0.8,0.4,2.1,0.9c1.7,0.6,3.5,0.8,5.3,0.8c1.8,0.1,3.6-0.2,5.2-0.9
		C385.9,102.3,386.7,101.8,386.7,101.9z"/>
	<path class="st4" d="M386.7,96.4c-0.6,0.5-1.2,1-1.9,1.2c-1.7,0.8-3.5,1.1-5.4,1.1c-1.8,0.1-3.7-0.2-5.4-0.9
		c-0.7-0.3-1.4-0.7-1.9-1.2c0-0.1,0.8,0.4,2.1,0.8c1.7,0.6,3.5,0.8,5.3,0.8c1.8,0.1,3.6-0.3,5.2-0.9
		C385.9,96.8,386.7,96.4,386.7,96.4z"/>
	<path class="st4" d="M386.7,118c-0.6,0.5-1.2,1-1.9,1.2c-1.7,0.8-3.5,1.1-5.4,1.1c-1.8,0.1-3.7-0.2-5.4-0.9
		c-0.7-0.3-1.4-0.7-1.9-1.2c0-0.1,0.8,0.4,2.1,0.9c1.7,0.6,3.5,0.8,5.3,0.8c1.8,0.1,3.6-0.3,5.2-0.9
		C385.9,118.4,386.7,117.9,386.7,118z"/>
	<path class="st4" d="M386.7,123.3c-0.5,0.5-1.2,1-1.9,1.2c-1.7,0.8-3.5,1.1-5.4,1.1c-1.8,0.1-3.7-0.2-5.4-0.9
		c-0.7-0.3-1.4-0.7-1.9-1.2c0-0.1,0.8,0.4,2.1,0.9c1.7,0.6,3.5,0.8,5.3,0.8c1.8,0.1,3.6-0.3,5.2-0.9
		C385.9,123.7,386.7,123.2,386.7,123.3z"/>
	<path class="st2" d="M112.1,79.8h128.3c4.5,0,8.2,3.7,8.2,8.2v49c0,4.5-3.7,8.2-8.2,8.2H112.1c-4.5,0-8.2-3.7-8.2-8.2V88
		C103.8,83.4,107.5,79.8,112.1,79.8z"/>
	<path class="st1" d="M171.3,109.7v2.6H169v-2.5c-2.1-0.1-4.1-0.7-5.8-1.8l1.3-2.8c1.3,0.9,2.9,1.5,4.5,1.6v-3.9
		c-2.6-0.6-5.4-1.5-5.4-4.8c0-2.5,1.8-4.6,5.4-5v-2.6h2.3V93c1.7,0.1,3.3,0.6,4.7,1.4l-1.2,2.8c-1.1-0.6-2.3-1-3.5-1.2v3.9
		c2.6,0.6,5.4,1.5,5.4,4.7C176.7,107.2,175,109.2,171.3,109.7z M169,99.4v-3.3c-1.2,0.3-1.7,0.9-1.7,1.7S168,99.1,169,99.4z
		 M173,105c0-0.8-0.7-1.2-1.7-1.6v3.2C172.5,106.4,173,105.8,173,105L173,105z"/>
	<path class="st1" d="M182.4,126.1v2h-1.8v-2c-1.6-0.1-3.1-0.5-4.5-1.4l1-2.2c1,0.7,2.2,1.2,3.5,1.3v-3c-2-0.5-4.2-1.1-4.2-3.7
		c0-1.9,1.4-3.5,4.2-3.9v-2h1.8v2c1.3,0.1,2.5,0.4,3.6,1.1l-0.9,2.2c-0.8-0.5-1.8-0.8-2.7-0.9v3c2,0.5,4.2,1.1,4.2,3.7
		C186.6,124.1,185.2,125.7,182.4,126.1z M180.6,118.1v-2.6c-0.9,0.2-1.3,0.7-1.3,1.3S179.8,117.9,180.6,118.1L180.6,118.1z
		 M183.7,122.4c0-0.6-0.5-1-1.3-1.2v2.5C183.3,123.5,183.7,123,183.7,122.4L183.7,122.4z"/>
	<path class="st3" d="M116.8,102.9h-1.7v-0.4h3.9v0.4h-1.7v4.3h-0.5L116.8,102.9z"/>
	<path class="st3" d="M118.9,105.4c0-1,0.8-1.8,1.8-1.8c1,0,1.8,0.8,1.8,1.8s-0.8,1.8-1.8,1.8c0,0,0,0,0,0c-1,0-1.8-0.7-1.8-1.7
		C118.9,105.5,118.9,105.5,118.9,105.4z M122.1,105.4c0-0.7-0.6-1.3-1.4-1.3c-0.7,0-1.3,0.6-1.3,1.4c0,0.7,0.6,1.3,1.3,1.3
		c0.7,0,1.3-0.6,1.3-1.3C122.1,105.5,122.1,105.5,122.1,105.4z"/>
	<path class="st3" d="M125.4,107c-0.2,0.2-0.5,0.3-0.8,0.2c-0.5,0-1-0.4-1-0.9c0,0,0-0.1,0-0.1V104H123v-0.4h0.6v-0.8h0.5v0.8h1.1
		v0.4h-1.1v2.1c0,0.3,0.2,0.6,0.5,0.6c0,0,0.1,0,0.1,0c0.2,0,0.4-0.1,0.5-0.2L125.4,107z"/>
	<path class="st3" d="M129,105v2.2h-0.5v-0.6c-0.3,0.4-0.7,0.6-1.2,0.6c-0.8,0-1.3-0.4-1.3-1s0.3-1,1.4-1h1.1V105
		c0-0.6-0.4-0.9-1-0.9c-0.4,0-0.9,0.1-1.2,0.4l-0.2-0.4c0.4-0.3,0.9-0.5,1.4-0.5c0.7-0.1,1.3,0.4,1.4,1.1
		C129,104.8,129,104.9,129,105z M128.5,106.1v-0.6h-1.1c-0.7,0-0.9,0.3-0.9,0.6s0.3,0.7,0.9,0.7
		C127.9,106.9,128.3,106.6,128.5,106.1L128.5,106.1z"/>
	<path class="st3" d="M130.3,102.2h0.5v5h-0.5V102.2z"/>
	<path class="st3" d="M133.5,104.8c0-1.4,1-2.5,2.4-2.6c1.4,0,2.5,1,2.6,2.4c0,1.4-1,2.5-2.4,2.6c0,0,0,0-0.1,0
		c-1.3,0.1-2.4-1-2.5-2.3C133.5,104.9,133.5,104.9,133.5,104.8z M138,104.8c0-1.1-0.9-2-2-2s-2,0.9-2,2s0.9,2,2,2c1.1,0,2-0.8,2-1.9
		C138,104.9,138,104.9,138,104.8L138,104.8z"/>
	<path class="st3" d="M141.3,103.6v0.5h-0.1c-0.6,0-1.2,0.5-1.2,1.1c0,0.1,0,0.1,0,0.2v1.8h-0.5v-3.6h0.4v0.7
		C140.3,103.8,140.8,103.5,141.3,103.6z"/>
	<path class="st3" d="M145.4,102.2v5H145v-0.7c-0.3,0.5-0.8,0.8-1.4,0.7c-1,0-1.8-0.8-1.8-1.8c0-1,0.8-1.8,1.8-1.8
		c0.5,0,1.1,0.2,1.4,0.7v-2.1L145.4,102.2z M144.9,105.4c0-0.7-0.6-1.3-1.4-1.3c-0.7,0-1.3,0.6-1.3,1.4c0,0.7,0.6,1.3,1.3,1.3
		c0.7,0,1.3-0.5,1.4-1.2C145,105.5,145,105.5,144.9,105.4L144.9,105.4z"/>
	<path class="st3" d="M149.9,105.6h-3c0,0.7,0.7,1.3,1.4,1.2c0,0,0,0,0,0c0.4,0,0.8-0.2,1.1-0.5l0.3,0.3c-0.7,0.8-1.9,0.8-2.7,0.1
		c-0.4-0.3-0.6-0.8-0.6-1.3c0-1,0.8-1.7,1.7-1.7c1,0,1.7,0.8,1.7,1.7L149.9,105.6z M146.9,105.2h2.5c0-0.7-0.6-1.3-1.3-1.3
		C147.4,103.9,146.9,104.5,146.9,105.2z"/>
	<path class="st3" d="M152.6,103.6v0.5h-0.1c-0.6,0-1.2,0.5-1.2,1.1c0,0.1,0,0.1,0,0.2v1.8h-0.5v-3.6h0.5v0.7
		C151.6,103.8,152.1,103.6,152.6,103.6z"/>
	<path class="st3" d="M121.6,113.2v14.7h-3.4V116h-3v-2.7L121.6,113.2z"/>
	<path class="st3" d="M135.1,125.2v2.8H124v-2.2l5.7-5.4c1.3-1.2,1.5-2,1.5-2.7c0-1.2-0.8-1.8-2.4-1.8c-1.2,0-2.3,0.5-3,1.5
		l-2.5-1.6c1.4-1.8,3.6-2.9,5.8-2.7c3.3,0,5.5,1.7,5.5,4.4c0,1.4-0.4,2.7-2.5,4.6l-3.4,3.2H135.1z"/>
	<path class="st3" d="M136.5,120.6c0-4.9,2.7-7.6,6.3-7.6s6.3,2.8,6.3,7.6s-2.7,7.6-6.3,7.6S136.5,125.4,136.5,120.6z M145.7,120.6
		c0-3.3-1.2-4.7-2.9-4.7s-2.9,1.4-2.9,4.7s1.2,4.7,2.9,4.7S145.7,123.9,145.7,120.6z"/>
	<path class="st0" d="M197.8,100.2h36.1c1.8,0,3.2,1.4,3.2,3.2v20.9c0,1.8-1.4,3.2-3.2,3.2h-36.1c-1.8,0-3.2-1.4-3.2-3.2v-20.9
		C194.6,101.6,196,100.2,197.8,100.2z"/>
	<rect x="199.4" y="105.2" class="st2" width="6.9" height="2.5"/>
	<path class="st2" d="M207.8,112.9c-1.6,0.3-3.3,0.4-4.9,0.3c-1.6,0.1-3.3,0-4.9-0.3c1.6-0.3,3.3-0.3,4.9-0.3
		C204.5,112.5,206.1,112.6,207.8,112.9z"/>
	<path class="st2" d="M214.5,112.9c-1.6,0.4-3.3,0.4-4.9,0C211.2,112.5,212.8,112.5,214.5,112.9z"/>
	<path class="st2" d="M232.7,112.9c-2.4,0.4-4.9,0.4-7.3,0C227.8,112.5,230.2,112.5,232.7,112.9z"/>
	<path class="st2" d="M223.6,112.9c-2.3,0.4-4.7,0.4-7.1,0C218.9,112.5,221.3,112.5,223.6,112.9z"/>
	<path class="st2" d="M205.4,119c-2.4,0.3-4.8,0.3-7.2,0C200.6,118.7,203,118.7,205.4,119z"/>
	<path class="st2" d="M211.5,121.6c-2.2,0.3-4.5,0.3-6.7,0.3c-2.2,0.1-4.5,0-6.7-0.3c2.2-0.3,4.4-0.3,6.7-0.3
		C207.1,121.2,209.3,121.3,211.5,121.6z"/>
	<path class="st2" d="M232.7,121.6c-1.9,0.3-3.8,0.3-5.6,0c0.9-0.3,1.9-0.3,2.8-0.3C230.8,121.2,231.7,121.3,232.7,121.6z"/>
	<path class="st4" d="M267.7,105.2H266v-0.4h3.8v0.4h-1.7v4.3h-0.5L267.7,105.2z"/>
	<path class="st4" d="M269.9,107.7c0-1,0.8-1.8,1.8-1.8s1.8,0.8,1.8,1.8s-0.8,1.8-1.8,1.8c-1,0-1.8-0.7-1.8-1.7
		C269.8,107.8,269.8,107.8,269.9,107.7z M273,107.7c0-0.7-0.7-1.3-1.4-1.3c-0.7,0-1.3,0.7-1.3,1.4c0,0.7,0.6,1.3,1.3,1.3
		c0.7,0,1.3-0.5,1.3-1.3C273,107.8,273,107.8,273,107.7L273,107.7z"/>
	<path class="st4" d="M276.3,109.3c-0.2,0.2-0.5,0.3-0.8,0.2c-0.5,0-1-0.4-1-0.9c0,0,0-0.1,0-0.1v-2.2h-0.6V106h0.6v-0.8h0.4v0.8
		h1.1v0.4H275v2.1c0,0.3,0.2,0.6,0.5,0.6c0,0,0.1,0,0.1,0c0.2,0,0.4-0.1,0.5-0.2L276.3,109.3z"/>
	<path class="st4" d="M279.9,107.3v2.2h-0.5v-0.6c-0.3,0.4-0.7,0.6-1.2,0.6c-0.8,0-1.3-0.4-1.3-1s0.4-1,1.4-1h1.1v-0.2
		c0.1-0.5-0.3-0.9-0.7-1c-0.1,0-0.2,0-0.3,0c-0.4,0-0.9,0.1-1.2,0.4l-0.2-0.3c0.4-0.3,0.9-0.5,1.5-0.5c0.7-0.1,1.3,0.4,1.4,1.1
		C279.9,107.1,279.9,107.2,279.9,107.3z M279.4,108.4v-0.6h-1.1c-0.7,0-0.9,0.3-0.9,0.6s0.3,0.7,0.9,0.7
		C278.8,109.2,279.2,108.9,279.4,108.4L279.4,108.4z"/>
	<path class="st4" d="M281.2,104.5h0.5v5h-0.5V104.5z"/>
	<path class="st4" d="M288.1,109.5l-1.1-1.5h-0.4h-1.3v1.5h-0.5v-4.8h1.8c1.2,0,1.9,0.6,1.9,1.6c0,0.7-0.4,1.3-1.1,1.5l1.2,1.6
		L288.1,109.5z M288.1,106.4c0-0.8-0.5-1.2-1.5-1.2h-1.3v2.4h1.3C287.6,107.6,288.1,107.1,288.1,106.4L288.1,106.4z"/>
	<path class="st4" d="M292.8,107.9h-3c0,0.7,0.7,1.3,1.4,1.2c0,0,0,0,0,0c0.4,0,0.8-0.2,1.1-0.5l0.3,0.3c-0.3,0.4-0.8,0.6-1.4,0.6
		c-1,0.1-1.8-0.7-1.9-1.7c0-0.1,0-0.1,0-0.2c0-0.9,0.7-1.8,1.6-1.8c0,0,0.1,0,0.1,0c0.9,0,1.7,0.7,1.7,1.7c0,0,0,0.1,0,0.1
		C292.8,107.7,292.8,107.8,292.8,107.9z M289.8,107.5h2.5c-0.1-0.7-0.7-1.2-1.4-1.2C290.3,106.4,289.9,106.9,289.8,107.5z"/>
	<path class="st4" d="M296.7,105.9l-1.6,3.6h-0.5l-1.6-3.6h0.5l1.3,3l1.4-3H296.7z"/>
	<path class="st4" d="M300.4,107.9h-3c0,0.7,0.7,1.3,1.4,1.2c0,0,0,0,0,0c0.4,0,0.8-0.2,1.1-0.5l0.3,0.3c-0.7,0.8-1.9,0.8-2.7,0.1
		c-0.4-0.3-0.6-0.8-0.6-1.3c0-0.9,0.7-1.8,1.6-1.8c0,0,0.1,0,0.1,0c0.9,0,1.7,0.7,1.7,1.7c0,0,0,0.1,0,0.1
		C300.4,107.7,300.4,107.8,300.4,107.9z M297.4,107.5h2.5c-0.1-0.7-0.7-1.2-1.4-1.2C297.9,106.4,297.4,106.9,297.4,107.5z"/>
	<path class="st4" d="M304.7,107.4v2.1h-0.5v-2c0-0.8-0.4-1.1-1.1-1.1c-0.6,0-1.2,0.4-1.3,1.1c0,0.1,0,0.1,0,0.2v1.9h-0.5V106h0.5
		v0.7c0.3-0.5,0.8-0.7,1.4-0.7c0.8-0.1,1.4,0.5,1.5,1.3C304.7,107.3,304.7,107.3,304.7,107.4z"/>
	<path class="st4" d="M309.2,105.9v3.6h-0.5v-0.7c-0.3,0.4-0.8,0.7-1.3,0.7c-0.8,0.1-1.4-0.5-1.5-1.2c0-0.1,0-0.2,0-0.3v-2.1h0.5v2
		c-0.1,0.5,0.3,1.1,0.8,1.1c0.1,0,0.2,0,0.2,0c0.6,0,1.2-0.5,1.2-1.1c0-0.1,0-0.1,0-0.2v-1.9L309.2,105.9z"/>
	<path class="st4" d="M313.6,107.9h-3c0,0.7,0.7,1.3,1.4,1.2c0,0,0,0,0,0c0.4,0,0.8-0.2,1.1-0.5l0.3,0.3c-0.7,0.8-1.9,0.8-2.7,0.1
		c-0.4-0.3-0.6-0.8-0.6-1.3c0-0.9,0.7-1.8,1.6-1.8c0,0,0.1,0,0.1,0c0.9,0,1.7,0.7,1.7,1.7c0,0.1,0,0.1,0,0.2L313.6,107.9z
		 M310.6,107.5h2.5c0-0.7-0.6-1.3-1.3-1.3C311.2,106.2,310.6,106.8,310.6,107.5z"/>
	<path class="st4" d="M271.6,128.1v1.7h-1.5v-1.6c-1.3,0-2.6-0.5-3.7-1.2l0.8-1.8c0.9,0.6,1.9,1,2.9,1.1v-2.5
		c-1.6-0.4-3.5-1-3.5-3.1c0-1.6,1.1-2.9,3.5-3.2v-1.7h1.5v1.6c1.1,0.1,2.1,0.4,3,0.9l-0.7,1.8c-0.7-0.4-1.5-0.7-2.3-0.8v2.5
		c1.7,0.4,3.5,0.9,3.5,3C275.1,126.4,274,127.8,271.6,128.1z M270.2,121.5v-2.1c-0.8,0.2-1.1,0.6-1.1,1.1S269.5,121.3,270.2,121.5
		L270.2,121.5z M272.7,125.1c0-0.5-0.4-0.8-1.1-1v2.1C272.4,125.9,272.7,125.5,272.7,125.1L272.7,125.1z"/>
	<path class="st4" d="M280,117.5v10.4h-2.4v-8.5h-2.1v-1.9H280z"/>
	<path class="st4" d="M289.7,124.7c0,1.8-1.4,3.5-4.3,3.5c-1.4,0-2.8-0.4-4-1.1l1-1.8c0.9,0.6,1.9,1,3,0.9c1.2,0,2-0.5,2-1.4
		s-0.5-1.4-2.4-1.4h-2.7l0.5-5.9h6.4v1.9h-4.4l-0.2,2h0.9C288.5,121.4,289.7,122.8,289.7,124.7z"/>
	<path class="st4" d="M293.5,126.6c0,0.5-0.2,1-0.4,1.5l-0.9,2.1h-1.5l0.7-2.4c-0.5-0.2-0.8-0.7-0.8-1.3c0-0.8,0.6-1.4,1.3-1.4
		c0,0,0.1,0,0.1,0c0.8,0,1.4,0.6,1.4,1.3C293.5,126.5,293.5,126.5,293.5,126.6z"/>
	<path class="st4" d="M294.4,122.7c0-3.4,1.9-5.4,4.5-5.4s4.5,2,4.5,5.4s-1.9,5.4-4.5,5.4S294.4,126.2,294.4,122.7z M300.9,122.7
		c0-2.4-0.8-3.4-2-3.4s-2,1-2,3.4s0.8,3.3,2,3.3S300.9,125.1,300.9,122.7z"/>
	<path class="st4" d="M304.5,122.7c0-3.4,1.9-5.4,4.5-5.4s4.5,2,4.5,5.4s-1.9,5.4-4.5,5.4S304.5,126.2,304.5,122.7z M311,122.7
		c0-2.4-0.8-3.4-2-3.4s-2,1-2,3.4s0.8,3.3,2,3.3S311,125.1,311,122.7L311,122.7z"/>
	<path class="st4" d="M314.6,122.7c0-3.4,1.9-5.4,4.5-5.4s4.5,2,4.5,5.4s-1.9,5.4-4.5,5.4S314.6,126.2,314.6,122.7z M321.1,122.7
		c0-2.4-0.8-3.4-2-3.4s-2,1-2,3.4s0.8,3.3,2,3.3S321.1,125.1,321.1,122.7L321.1,122.7z"/>
	<path class="st2" d="M389.1,274.8h0.5c0.5,0,1-0.1,1.5-0.2c4.5-0.9,7.8-4.8,8-9.4c0.1-0.9,0-1.9,0-2.9c0-4,0-8.5,0-13.6
		c0-10.3,0-22.8,0-37.4c0-7.3,0-15.1,0-23.3c0-4.1,0-8.4,0-12.7c0-2.2,0-4.4,0-6.6c0-1.1,0-2.2,0-3.4c-0.1-1.1-0.4-2.2-0.9-3.2
		c-1-2.1-2.6-3.8-4.7-4.8c-1-0.5-2.2-0.8-3.3-0.9c-1.2-0.1-2.4,0-3.6,0h-46h-68.9H114c-1.7,0-3.4,0.4-4.9,1.3
		c-1.5,0.8-2.7,2.1-3.6,3.5c-0.9,1.5-1.4,3.1-1.4,4.8c0,1.7,0,3.5,0,5.2c0,6.9,0,13.8,0,20.6v71.9c0,0.8,0,1.6,0.1,2.4
		c0.2,1.5,0.8,3,1.7,4.3c1.8,2.6,4.7,4.1,7.9,4.2h27.8l128.9,0.1l86.9,0.1l23.6,0h6.1L389.1,274.8l-2.1-0.1h-6.1l-23.6,0l-86.9,0.1
		L141.5,275h-27.8c-1.6,0-3.2-0.4-4.6-1.2c-1.4-0.8-2.7-1.9-3.6-3.2c-1-1.3-1.6-2.9-1.8-4.5c-0.1-0.8-0.1-1.6-0.1-2.4v-2.4
		c0-3.2,0-6.4,0-9.7v-80.5c0-1.7,0-3.4,0-5.2c0-1.8,0.6-3.5,1.5-5.1c1.9-3.1,5.3-5.1,8.9-5.1h157.8h68.9h45.9c1.2,0,2.4,0,3.6,0.1
		c3.6,0.4,6.8,2.6,8.3,5.9c0.5,1.1,0.8,2.2,0.9,3.3c0.1,1.2,0,2.3,0,3.4v6.6c0,4.4,0,8.6,0,12.7c0,8.3,0,16.1,0,23.3
		c0,14.6,0,27.1,0,37.4c0,5.1,0,9.7,0,13.6c0,1,0,1.9,0,2.9c-0.1,0.9-0.2,1.7-0.5,2.6c-0.5,1.4-1.3,2.8-2.3,3.9
		c-1.4,1.5-3.3,2.5-5.3,2.9c-0.5,0.1-1,0.2-1.6,0.2L389.1,274.8z"/>
	<rect x="194.2" y="230" class="st1" width="9.6" height="38.1"/>
	<rect x="208.6" y="241.5" class="st1" width="9.6" height="26.6"/>
	<rect x="180.4" y="241.5" class="st1" width="9.6" height="26.6"/>
	<rect x="152.2" y="264.5" class="st1" width="9.6" height="3.5"/>
	<rect x="166.5" y="259.2" class="st1" width="9.6" height="8.9"/>
	<rect x="138.5" y="265.1" class="st1" width="9.6" height="3"/>
	<rect x="124.1" y="265.1" class="st1" width="9.6" height="3"/>
	<rect x="223.7" y="246.9" class="st1" width="9.6" height="21.2"/>
	<rect x="238.8" y="252.7" class="st1" width="9.6" height="15.4"/>
	<rect x="254" y="241.5" class="st1" width="9.6" height="26.6"/>
	<rect x="269.1" y="224.9" class="st1" width="9.6" height="43.2"/>
	<rect x="284.3" y="212.1" class="st1" width="9.6" height="56"/>
	<rect x="299.4" y="230" class="st1" width="9.6" height="38.1"/>
	<rect x="314.5" y="195.8" class="st1" width="9.6" height="72.3"/>
	<rect x="329.7" y="230" class="st1" width="9.6" height="38.1"/>
	<rect x="344.8" y="241.5" class="st1" width="9.6" height="26.6"/>
	<rect x="360" y="246.5" class="st1" width="9.6" height="21.6"/>
	<rect x="375.1" y="252.7" class="st1" width="9.6" height="15.4"/>
	<path class="st5" d="M132,268.1h0.9h2.8h10.6h3.6c1.3,0,2.7,0,4-0.2c3-0.4,5.9-1.4,8.5-3c1.4-0.9,2.7-2,3.8-3.3
		c1.1-1.4,1.9-3,2.6-4.7c1.5-3.4,2.9-7.1,4.2-11s2.8-8,4.3-12.2c0.8-2.1,1.5-4.3,2.4-6.5c0.9-2.2,2-4.4,3.3-6.4
		c1.4-2.1,3-4.1,4.9-5.8c2-1.7,4.2-3,6.6-3.9c2.5-0.9,5.1-1.4,7.8-1.4c2.7,0,5.4,0.3,8.1,1c1.3,0.4,2.6,0.9,3.9,1.5
		c1.3,0.7,2.4,1.4,3.5,2.4c2.2,1.9,3.9,4.2,5.2,6.8c1.2,2.6,2.2,5.4,3,8.2c0.9,2.8,1.8,5.6,2.7,8.4c1.8,5.7,4.4,11.2,7.6,16.3
		c1.7,2.6,3.8,4.8,6.4,6.5c1.3,0.8,2.7,1.4,4.2,1.7c0.8,0.1,1.5,0.2,2.3,0.2c0.8,0,1.6,0,2.3-0.1c2.1-0.2,4.1-0.7,6-1.7
		c1.8-1,3.4-2.5,4.5-4.2c1.2-1.7,2.2-3.6,3.2-5.4c1-1.8,1.9-3.7,2.8-5.6c3.3-7.6,5.3-15.5,8.4-22.7c1.4-3.6,3-7.2,4.8-10.6
		c1.8-3.3,4.1-6.4,6.9-9c1.3-1.3,2.8-2.4,4.4-3.4c1.6-0.9,3.3-1.7,5-2.2c3.4-1,6.9-1.4,10.4-1.3c3.4,0.1,6.7,0.8,9.9,1.9
		c3,1.1,5.8,2.8,8.2,4.9c4.7,4.1,8.1,9,12,12.8c3.7,3.5,8.1,6.2,13,7.6c4,1.3,8.2,2.1,12.5,2.4l0,0l17.6,0.1h4.5c1,0,1.5,0,1.5,0
		h-1.5h-4.5l-17.6,0.1l0,0c-4.3-0.3-8.5-1.1-12.6-2.3c-4.9-1.4-9.4-4-13.2-7.5c-3.9-3.9-7.3-8.7-12-12.8c-2.4-2.1-5.1-3.7-8.1-4.8
		c-3.1-1.1-6.4-1.8-9.7-1.9c-3.5-0.2-6.9,0.3-10.3,1.3c-3.4,1.1-6.6,3-9.1,5.5c-2.7,2.6-5,5.6-6.8,8.9c-1.8,3.4-3.4,6.9-4.8,10.6
		c-3,7.3-5.1,15.1-8.4,22.8c-0.8,1.9-1.7,3.8-2.8,5.6c-1,1.9-2.1,3.7-3.3,5.4c-1.2,1.8-2.8,3.3-4.7,4.4c-1.9,1-4.1,1.6-6.2,1.8
		c-0.8,0.1-1.6,0.1-2.4,0.1c-0.8,0-1.6-0.1-2.4-0.2c-1.6-0.3-3.1-0.9-4.4-1.8c-2.6-1.7-4.8-4-6.5-6.6c-3.3-5.1-5.9-10.7-7.7-16.4
		c-1-2.8-1.9-5.6-2.7-8.4c-0.8-2.8-1.8-5.5-3-8.1c-1.2-2.5-3-4.8-5.1-6.6c-1-0.9-2.2-1.7-3.4-2.3c-1.2-0.6-2.5-1.1-3.8-1.5
		c-2.6-0.7-5.3-1-7.9-1c-2.6,0-5.2,0.5-7.6,1.3c-4.7,1.8-8.7,5.1-11.3,9.3c-2.7,4-4.1,8.6-5.6,12.8s-2.9,8.4-4.3,12.2
		s-2.8,7.6-4.3,11c-0.7,1.7-1.6,3.3-2.7,4.7c-1.1,1.3-2.4,2.4-3.9,3.4c-2.6,1.6-5.6,2.6-8.6,3c-1.3,0.2-2.7,0.2-4,0.2h-3.7l-10.6,0
		h-2.8C132.3,268.1,132,268.1,132,268.1z"/>
	<path class="st7" d="M225,179.6h-54c-0.8,0-1.5,0.7-1.5,1.5v18.6c0,0.8,0.7,1.5,1.5,1.5c0,0,0,0,0,0h27.3c0.4,0,0.8,0.2,1.1,0.5
		c0.9,0.9,2,2.2,2.8,3.1c0.6,0.6,1.6,0.7,2.2,0.1c0,0,0.1-0.1,0.1-0.1l2.8-3.1c0.3-0.3,0.7-0.5,1.1-0.5H225c0.8,0,1.5-0.7,1.5-1.5
		v-18.6C226.5,180.3,225.8,179.6,225,179.6z"/>
	<path class="st0" d="M165.8,232.5h-45c-0.5,0-0.9,0.4-0.9,0.9l0,0v11c0,0.5,0.4,0.9,0.9,0.9h0H137c0.3,0,0.5,0.1,0.7,0.3
		c0.5,0.6,1.2,1.3,1.7,1.8c0.3,0.4,0.9,0.4,1.3,0.1c0,0,0,0,0.1-0.1l1.7-1.8c0.2-0.2,0.4-0.3,0.7-0.3h22.7c0.5,0,0.9-0.4,0.9-0.9
		l0,0v-11C166.7,232.9,166.3,232.5,165.8,232.5z"/>
	<path class="st7" d="M205.2,209.8c0,1.2-0.9,2.1-2.1,2.1s-2.1-0.9-2.1-2.1c0-1.2,0.9-2.1,2.1-2.1
		C204.3,207.7,205.2,208.7,205.2,209.8L205.2,209.8z"/>
	<path class="st7" d="M203.1,212c-1.2,0-2.1-1-2.1-2.1c0-1.2,1-2.1,2.1-2.1c1.2,0,2.1,1,2.1,2.1C205.3,211,204.3,212,203.1,212z
		 M203.1,207.8c-1.1,0-2.1,0.9-2.1,2.1s0.9,2.1,2.1,2.1c1.1,0,2.1-0.9,2.1-2.1C205.2,208.7,204.3,207.8,203.1,207.8
		C203.2,207.8,203.1,207.8,203.1,207.8L203.1,207.8z"/>
	<path class="st4" d="M183.5,193.9v1h-0.9v-1c-0.8,0-1.6-0.3-2.3-0.7l0.5-1.1c0.5,0.4,1.1,0.6,1.8,0.7v-1.5c-1-0.2-2.2-0.6-2.2-1.9
		c0-1,0.7-1.8,2.2-2v-1h0.9v1c0.7,0,1.3,0.2,1.9,0.6l-0.5,1.1c-0.4-0.3-0.9-0.4-1.4-0.5v1.6c1,0.2,2.1,0.6,2.1,1.9
		C185.7,192.9,185,193.7,183.5,193.9z M182.6,189.8v-1.3c-0.5,0.1-0.7,0.4-0.7,0.7S182.2,189.7,182.6,189.8z M184.2,192
		c0-0.3-0.3-0.5-0.7-0.6v1.3C184,192.6,184.2,192.3,184.2,192L184.2,192z"/>
	<path class="st4" d="M188.7,187.4v6.4h-1.5v-5.2h-1.3v-1.2L188.7,187.4z"/>
	<path class="st4" d="M194.6,191.8c0,1.1-0.8,2.1-2.7,2.1c-0.9,0-1.7-0.2-2.4-0.7l0.6-1.1c0.5,0.4,1.2,0.6,1.8,0.6
		c0.7,0,1.2-0.3,1.2-0.8s-0.3-0.8-1.5-0.8H190l0.3-3.6h3.9v1.2h-2.7l-0.1,1.2h0.5C193.9,189.8,194.6,190.6,194.6,191.8z"/>
	<path class="st4" d="M197,193c0,0.3-0.1,0.6-0.2,0.9l-0.5,1.3h-0.9l0.4-1.5c-0.3-0.1-0.5-0.4-0.5-0.8c0-0.5,0.4-0.9,0.8-0.9
		c0,0,0,0,0.1,0C196.6,192.1,197,192.5,197,193C197,193,197,193,197,193z"/>
	<path class="st4" d="M197.5,190.6c0-2.1,1.2-3.3,2.8-3.3s2.8,1.2,2.8,3.3s-1.2,3.3-2.8,3.3S197.5,192.7,197.5,190.6z M201.5,190.6
		c0-1.5-0.5-2.1-1.3-2.1s-1.2,0.6-1.2,2.1s0.5,2.1,1.2,2.1S201.6,192,201.5,190.6L201.5,190.6z"/>
	<path class="st4" d="M203.8,190.6c0-2.1,1.2-3.3,2.8-3.3s2.8,1.2,2.8,3.3s-1.2,3.3-2.8,3.3S203.8,192.7,203.8,190.6z M207.8,190.6
		c0-1.5-0.5-2.1-1.3-2.1s-1.2,0.6-1.2,2.1s0.5,2.1,1.2,2.1S207.8,192,207.8,190.6L207.8,190.6z"/>
	<path class="st4" d="M210,190.6c0-2.1,1.2-3.3,2.8-3.3s2.8,1.2,2.8,3.3s-1.2,3.3-2.8,3.3S210,192.7,210,190.6z M214,190.6
		c0-1.5-0.5-2.1-1.3-2.1s-1.2,0.6-1.2,2.1s0.5,2.1,1.2,2.1S214,192,214,190.6z"/>
	<path class="st3" d="M90.7,41.5h318.6c3.3,0,6,2.7,6,6v12.6l0,0H84.7l0,0V47.5C84.7,44.2,87.4,41.5,90.7,41.5z"/>
	<circle class="st0" cx="96.7" cy="51.1" r="2.7"/>
	<circle class="st0" cx="105" cy="51.1" r="2.7"/>
	<circle class="st0" cx="113.3" cy="51.1" r="2.7"/>
</g>
<g id="freepik--Character--inject-16">
	<path class="st7" d="M440.9,453.4c9.3,0.1,17.3-6.5,19.1-15.6c3.2-16.1,7.3-38.7,7.4-64.1c0.1-15.5-3.4-35.2-8.2-50
		c-7-21.6-22.1-40.6-43.9-46.9c-28.4-8.1-38.6-5-58.8,5.6c-21.9,11.5-27.8,33-50.6,42.6c-22.1,9.3-48.8,6.1-68.9,19.1
		c-17.7,11.4-26.4,33.4-27.1,54.5c-0.5,11.2,0.6,22.4,3.2,33.3c2.8,11.5,13.1,21.4,25,21.5L440.9,453.4z"/>
	<g class="st8">
		<path d="M440.9,453.4c9.3,0.1,17.3-6.5,19.1-15.6c3.2-16.1,7.3-38.7,7.4-64.1c0.1-15.5-3.4-35.2-8.2-50
			c-7-21.6-22.1-40.6-43.9-46.9c-28.4-8.1-38.6-5-58.8,5.6c-21.9,11.5-27.8,33-50.6,42.6c-22.1,9.3-48.8,6.1-68.9,19.1
			c-17.7,11.4-26.4,33.4-27.1,54.5c-0.5,11.2,0.6,22.4,3.2,33.3c2.8,11.5,13.1,21.4,25,21.5L440.9,453.4z"/>
	</g>
	<path class="st3" d="M426.3,280.6c0.1,0.1,0.2,0.3,0.2,0.4c0.1,0.3,0.3,0.7,0.6,1.2c0.5,1.1,1.2,2.7,2.2,4.7l1.5,3.4
		c0.6,1.2,1,2.6,1.6,4.1s1.2,3.1,1.8,4.7s1.2,3.5,1.9,5.4s1.2,3.9,1.9,6c0.4,1,0.6,2.1,0.9,3.2s0.6,2.2,0.9,3.4l0.9,3.5
		c0.1,0.6,0.3,1.2,0.5,1.8s0.2,1.2,0.4,1.8c0.5,2.5,1,5,1.5,7.6c2,11.3,3.2,22.7,3.5,34.2c0.2,11.5-0.2,22.9-1.4,34.4
		c-0.6,5.2-1.1,10.2-2,14.9c-0.4,2.3-0.7,4.6-1.1,6.7s-0.8,4.2-1.2,6.2c-0.7,3.9-1.6,7.5-2.3,10.5c-0.4,1.5-0.7,3-1,4.3l-1,3.6
		c-0.6,2.1-1,3.8-1.3,5l-0.4,1.3c0,0.1-0.1,0.3-0.1,0.4c0-0.2,0-0.3,0.1-0.5c0.1-0.3,0.2-0.8,0.3-1.3c0.3-1.2,0.7-2.9,1.2-5
		c0.3-1.1,0.6-2.3,0.9-3.6s0.6-2.8,1-4.3c0.7-3.1,1.5-6.6,2.2-10.5c0.4-2,0.8-4,1.2-6.1c0.4-2.1,0.7-4.4,1-6.7
		c0.8-4.6,1.3-9.6,1.9-14.9c1.1-11.4,1.5-22.8,1.3-34.3c-0.4-11.4-1.5-22.8-3.5-34.1c-0.5-2.6-1-5.1-1.5-7.6l-0.4-1.8l-0.5-1.8
		c-0.3-1.2-0.6-2.3-0.9-3.5s-0.6-2.2-0.8-3.4s-0.5-2.2-0.9-3.2l-1.9-6c-0.6-1.9-1.1-3.7-1.8-5.4s-1.2-3.3-1.8-4.8s-1-2.9-1.6-4.1
		L429,287c-0.9-2-1.6-3.6-2.1-4.7l-0.5-1.2C426.4,280.9,426.3,280.8,426.3,280.6z"/>
	<path class="st9" d="M239.9,453.2l-18.9,29.6l-37-23.4c2.4-3.4,26.1,1.6,26.1,1.6l11.4-19.5L239.9,453.2z"/>
	<g class="st10">
		<path class="st4" d="M222.5,466.7c0.6,0.7,0.6,1.7-0.1,2.4c-0.7,0.6-1.7,0.6-2.4,0c-0.6-0.7-0.6-1.8,0.1-2.5
			c0.8-0.6,1.8-0.4,2.4,0.3"/>
	</g>
	<g class="st10">
		<path class="st4" d="M220.9,482.8l1.8-3.1l-36.1-21.2c0,0-2.1-0.3-2.6,1L220.9,482.8z"/>
	</g>
	<path class="st3" d="M209.5,460.5c-0.1,0.2,0.7,0.8,1.3,2s0.5,2.2,0.7,2.2s0.6-1.2-0.1-2.5S209.6,460.3,209.5,460.5z"/>
	<path class="st3" d="M204.6,459.7c-0.1,0.1,0.4,1,0.6,2.1s-0.2,2.1,0,2.2s0.9-0.8,0.8-2.3S204.8,459.5,204.6,459.7z"/>
	<path class="st3" d="M199.5,462.9c0.1,0.1,1-0.6,1.1-1.9s-0.4-2.2-0.6-2.1s0,1-0.1,2S199.3,462.8,199.5,462.9z"/>
	<path class="st3" d="M212.6,456.4c0,0.2,0.9,0.5,1.9,1.2s1.6,1.5,1.8,1.4s-0.2-1.2-1.3-2S212.6,456.1,212.6,456.4z"/>
	<path class="st3" d="M216.3,452.5c-0.1,0.1,0.6,0.6,1.9,1.2c0.7,0.3,1.5,0.5,2.3,0.6c0.5,0.1,0.9,0.1,1.4,0.1c0.3,0,0.6,0,0.8-0.1
		c0.4-0.1,0.7-0.5,0.7-0.9c0-0.4-0.2-0.7-0.5-0.9c-0.2-0.1-0.5-0.3-0.8-0.3c-1.2-0.4-2.5-0.5-3.8-0.3c-0.7,0.1-1.4,0.3-2,0.8
		c0,0.1,0.8-0.2,2.1-0.3c0.7-0.1,1.5,0,2.2,0.1c0.4,0.1,0.9,0.2,1.3,0.4c0.5,0.1,0.8,0.4,0.8,0.6s0,0.1-0.2,0.2
		c-0.2,0-0.4,0.1-0.6,0.1c-0.5,0-0.9,0-1.3-0.1c-0.8-0.1-1.5-0.2-2.2-0.5C217.7,452.9,217,452.7,216.3,452.5z"/>
	<path class="st3" d="M216.3,452.9c0,0.1,0.8-0.4,1.6-1.5c0.5-0.7,0.8-1.4,1-2.2c0.1-0.5,0.2-0.9,0.2-1.4c0.1-0.6-0.1-1.3-0.6-1.7
		c-0.3-0.2-0.8-0.2-1.1,0c-0.2,0.2-0.4,0.3-0.6,0.6c-0.9,1-1.3,2.3-1.2,3.7c0.1,1.4,0.7,2.1,0.8,2.1c-0.1-0.7-0.2-1.4-0.3-2.1
		c0-0.7,0.2-1.5,0.5-2.1c0.2-0.4,0.4-0.7,0.7-1c0.3-0.4,0.6-0.6,0.8-0.5s0.3,0.6,0.3,1c0,0.4-0.1,0.9-0.2,1.3
		c-0.2,0.7-0.4,1.4-0.8,2.1C216.9,452.3,216.3,452.8,216.3,452.9z"/>
	<path class="st9" d="M266.3,361L255,394.2l-41.5-13.9c1.6-3.9,25.7-4.6,25.7-4.6l6.4-21.6L266.3,361z"/>
	<g class="st10">
		<path class="st4" d="M252.6,378.2c0.7,0.5,1,1.5,0.5,2.3c-0.5,0.8-1.5,1-2.3,0.5c-0.8-0.6-1-1.6-0.6-2.5c0.6-0.7,1.7-0.9,2.5-0.3"
			/>
	</g>
	<g class="st10">
		<path class="st4" d="M255,394.2l1-3.4l-40.1-12.1c0,0-2.1,0.2-2.3,1.6L255,394.2z"/>
	</g>
	<path class="st3" d="M238.6,375.3c-0.1,0.2,0.9,0.6,1.7,1.6s1,2,1.2,2s0.3-1.3-0.7-2.5S238.6,375.1,238.6,375.3z"/>
	<path class="st3" d="M233.7,375.6c-0.1,0.2,0.6,0.8,1.1,1.9s0.3,2.1,0.5,2.1s0.7-1,0.2-2.4S233.7,375.4,233.7,375.6z"/>
	<path class="st3" d="M229.4,380c0.2,0.1,0.8-0.8,0.6-2.1s-1-2-1.1-1.9s0.2,0.9,0.4,2S229.2,379.9,229.4,380z"/>
	<path class="st3" d="M240.6,370.5c0,0.2,1,0.2,2.2,0.7s1.9,1.1,2.1,1s-0.4-1.1-1.8-1.7S240.6,370.3,240.6,370.5z"/>
	<path class="st3" d="M243.2,365.9c0.6,0.4,1.3,0.6,2.1,0.7c0.8,0.1,1.6,0.1,2.4,0.1c0.5,0,0.9-0.1,1.4-0.2c0.3-0.1,0.5-0.1,0.8-0.3
		c0.4-0.2,0.5-0.6,0.4-1c-0.1-0.4-0.4-0.6-0.7-0.8c-0.3-0.1-0.5-0.1-0.8-0.1c-0.5,0-1,0-1.4,0c-0.8,0.1-1.6,0.3-2.3,0.6
		c-1.3,0.6-1.9,1.2-1.8,1.3s0.8-0.4,2-0.8c0.7-0.2,1.5-0.4,2.2-0.4c0.4,0,0.9,0,1.3,0c0.5,0,0.9,0.1,0.9,0.4s0,0.1-0.1,0.2
		c-0.2,0.1-0.4,0.2-0.6,0.2c-0.4,0.1-0.9,0.2-1.3,0.3c-0.7,0.1-1.5,0.1-2.3,0.1C244.7,366,244,365.9,243.2,365.9z"/>
	<path class="st3" d="M243.4,366.3c0.1,0,0.7-0.5,1.2-1.8c0.3-0.8,0.5-1.6,0.5-2.4c0-0.5,0-1-0.1-1.4c0-0.6-0.4-1.2-1-1.5
		c-0.4-0.1-0.8,0-1.1,0.3c-0.2,0.2-0.3,0.4-0.5,0.7c-0.2,0.4-0.4,0.9-0.5,1.4c-0.1,0.8-0.1,1.7,0.2,2.4c0.4,1.4,1.2,1.9,1.2,1.8
		c-0.3-0.6-0.5-1.3-0.8-1.9c-0.2-0.7-0.2-1.5,0-2.2c0.1-0.4,0.2-0.8,0.4-1.2c0.2-0.4,0.5-0.7,0.6-0.6s0.4,0.5,0.5,0.9
		c0.1,0.4,0.1,0.9,0.1,1.3c0,0.7-0.1,1.5-0.3,2.2C243.8,365.5,243.3,366.2,243.4,366.3z"/>
	<path class="st3" d="M335,351.5c0,0-31.2-50.1-39.8-64c-9.9-16.1-30.3-14-35.1,0.5c1.1-3.3-3.8,11.1-20.3,64.7l27.7,7.9l17.9-15.2
		l7.1,20.2L335,351.5z"/>
	<polygon class="st11" points="330.9,295.7 319.5,334.5 277.5,339 277.5,346.5 339.3,347.4 347.7,296.8 	"/>
	<path class="st3" d="M340.9,348.9h-57.4c-9,0-17.6,3.9-23.6,10.6c-2,2.3-3.5,5-4.3,7.9l-42,78.4l26.8,14.8l50.2-71.5l28,0.3
		l62.4-39L340.9,348.9z"/>
	<path class="st9" d="M283.9,373.7c0.6,0.6,1.1,1.2,1.5,2c1.1,1.7,2,3.4,2.7,5.3c0.7,1.8,1.3,3.7,1.7,5.7c0.2,0.8,0.3,1.6,0.3,2.4
		c-0.2,0-0.7-3.7-2.5-7.9S283.8,373.8,283.9,373.7z"/>
	<path class="st2" d="M224.7,302.9l23.3,45.9h73.7l-3-6l-21.3-0.6L280,303.5c-1.1-2.4-3.5-4-6.1-4h-47.1c-1.3,0-2.3,1-2.4,2.3
		C224.4,302.2,224.5,302.6,224.7,302.9z"/>
	<path class="st3" d="M262.4,323.3c0,1.7-1.3,3-3,3s-3-1.3-3-3s1.3-3,3-3S262.4,321.6,262.4,323.3z"/>
	<path class="st7" d="M411.7,270.2c-2.5-11.1-19-15.3-26.5-15.3c-10.4,0-9.5-0.7-19.7,1.2h-1.4c-31.1-1.3-34.7,41.5-34.7,41.5
		l14.2,1.1l0,0l-3.8,29.4l-10.9,20.8l59.7-0.1l3.3-48.6l25-0.7C417.1,299.5,414.1,281.4,411.7,270.2z"/>
	<path class="st3" d="M345.4,279.4c0.2,0-0.9,10.4-2.4,23.2s-2.8,23.1-2.9,23.1s0.9-10.4,2.4-23.2S345.2,279.4,345.4,279.4z"/>
	<g class="st6">
		<path d="M391,279.4c-2.5,12.2-5.9,24.7-8.4,36.9c-0.5,2.6-1.1,5.3-2.7,7.4c-1,1.3-2.3,2.4-3.6,3.4c-5,3.8-10.3,7.3-16.2,9.4
			c8.5-0.7,17-2.2,25.2-4.4c1.4-0.2,2.8-0.9,3.8-2c0.7-1.1,1.1-2.3,1.1-3.6C392,310.8,391.5,295.1,391,279.4"/>
	</g>
	<path class="st11" d="M308.5,333.6l18.5-2.2l13,8.5l50-11.9l1.5-27.8l22.4-0.6l-0.5,32.7c-0.2,10.5-8.9,18.8-19.4,18.6
		c0,0,0,0-0.1,0l-73.1-2l-3.1-6.2l-15.7-0.5L308.5,333.6z"/>
	<path class="st12" d="M390,328c-0.3,0.1-0.6,0.2-0.9,0.3l-2.7,0.7l-10,2.5l-33.1,8l-3.1,0.7h-0.1l-0.1-0.1l-13-8.6h0.2l-18.5,2.1
		l0.1-0.1l-4.9,6.2l-1.3,1.6c-0.1,0.2-0.3,0.4-0.5,0.5c0.1-0.2,0.3-0.4,0.4-0.6l1.2-1.7l4.8-6.3l0-0.1h0.1l18.4-2.3h0.1h0.1
		l13.1,8.5H340l3.1-0.7l33.1-7.9l10-2.3l2.7-0.6C389.3,328.1,389.7,328,390,328z"/>
	<path class="st12" d="M319.2,338.9c-2.4,0.3-4.8,0.4-7.2,0.3h-1.3l0.2-0.1c-1.5,1.3-3,2.5-4.7,3.6c1.3-1.5,2.7-2.8,4.3-4l0.1-0.1
		h1.4C314.5,338.5,316.9,338.6,319.2,338.9z"/>
	<path class="st12" d="M398.7,332.6c-0.9-1.5-2.2-2.8-3.6-3.8c-2.5-1.6-5-1.5-5-1.6c0.5-0.2,1.1-0.2,1.6-0.1c2.7,0.3,5,1.8,6.4,4
		C398.4,331.6,398.6,332.1,398.7,332.6z"/>
	<path class="st3" d="M417.1,299.7L417.1,299.7l-5.5,0.2c-4.6,0.1-11,0.3-18,0.4l-2.2,0h-0.3v-0.3c-0.2-6.5-0.1-12.3,0-16.5
		c0.1-2.1,0.1-3.8,0.2-4.9c0-0.6,0.1-1.2,0.2-1.8c0.1,0.6,0.1,1.2,0,1.8c0,1.2,0,2.9,0,4.9c0,4.2-0.1,10,0.2,16.5l-0.3-0.3h2.3
		c7-0.1,13.4-0.2,18-0.3h5.5C418.4,299.5,415.1,299.6,417.1,299.7z"/>
	<path class="st3" d="M378.7,299.9c-0.2,0.5-0.4,1-0.7,1.4c-0.2,0.5-0.5,1-0.9,1.6s-0.8,1.4-1.4,2.1c-1.2,1.8-2.6,3.5-4,5.1
		c-1.8,2-3.7,3.8-5.7,5.5c-2.1,1.7-4.2,3.2-6.5,4.6c-1.9,1.1-3.8,2.1-5.8,3c-0.8,0.4-1.6,0.7-2.3,1s-1.3,0.5-1.8,0.6
		c-0.5,0.2-1,0.4-1.5,0.5c0.5-0.3,1-0.5,1.5-0.6c0.5-0.2,1.1-0.4,1.7-0.7s1.4-0.6,2.3-1c1.9-0.9,3.8-2,5.6-3.1
		c4.5-2.8,8.5-6.2,12.1-10.1c1.4-1.6,2.8-3.3,4.1-5c0.5-0.7,1-1.4,1.4-2s0.7-1.1,1-1.6C378,300.8,378.3,300.3,378.7,299.9z"/>
	<path class="st13" d="M410.6,268.1c-0.2,0-0.5,0-0.7,0l-2.1-0.1l-7.7-0.3c-6.5-0.2-15.4-0.4-25.3-0.3s-18.8,0.6-25.3,1l-7.7,0.5
		l-2.1,0.1c-0.2,0-0.5,0-0.7,0c0.2-0.1,0.5-0.1,0.7-0.1l2.1-0.2c1.8-0.2,4.4-0.4,7.6-0.7c6.5-0.5,15.4-1,25.3-1.1s18.9,0.1,25.3,0.4
		c3.2,0.1,5.9,0.3,7.7,0.5l2.1,0.2C410.1,268,410.3,268.1,410.6,268.1z"/>
	<path class="st13" d="M344.1,288.5c-4.4,0.3-8.8,0.3-13.1,0C335.4,288.1,339.8,288.1,344.1,288.5z"/>
	<path class="st13" d="M390.9,290.7c-0.1,0.1-0.3,0.1-0.5,0.1l-1.4,0.2c-1.2,0.2-2.9,0.4-5,0.6c-4.2,0.4-10,0.9-16.5,1.1
		s-12.3,0.2-16.5,0.1c-2.1,0-3.8-0.1-5-0.2l-1.4-0.1c-0.2,0-0.3,0-0.5-0.1c0.2,0,0.3,0,0.5,0h1.4h5c4.2,0,10,0,16.5-0.3
		s12.2-0.7,16.4-1l5-0.4l1.4-0.1C390.6,290.7,390.7,290.7,390.9,290.7z"/>
	<path class="st13" d="M415,286.6c0,0.1-5.3,0.7-11.9,1.3s-11.9,0.9-12,0.8s5.3-0.7,11.9-1.3S414.9,286.5,415,286.6z"/>
	<path class="st13" d="M363.1,317.1c-1,0.2-2.1,0.3-3.1,0.2c-2,0.1-4.6,0.1-7.6,0s-5.7-0.2-7.6-0.4c-1.1,0-2.1-0.2-3.1-0.4
		c1-0.1,2.1-0.1,3.1,0c2,0.1,4.6,0.2,7.6,0.2s5.6,0.1,7.6,0.1C361,316.9,362,317,363.1,317.1z"/>
	<path class="st13" d="M390.6,317.9c-0.4,0.1-0.7,0.2-1.1,0.2c-0.7,0.1-1.8,0.3-3.1,0.5c-2.6,0.3-6.3,0.7-10.3,0.8s-7.7,0.1-10.4,0
		c-1.3-0.1-2.4-0.1-3.1-0.2c-0.4,0-0.8-0.1-1.1-0.2c0.4,0,0.8,0,1.1,0h3.1c2.6,0,6.3,0,10.3-0.1s7.7-0.4,10.3-0.7l3.1-0.3
		C389.8,317.9,390.2,317.9,390.6,317.9z"/>
	<path class="st13" d="M347.2,337.1c-1.8-0.1-3.5-0.5-5.1-1.3c-1.7-0.6-3.2-1.5-4.6-2.6c0.1-0.1,2.1,1.1,4.8,2.2
		S347.2,336.9,347.2,337.1z"/>
	<path class="st11" d="M372.2,200.8h-1c-9.4,0-17.3,7.1-18.2,16.5c-0.7,8.6-1.4,18.2-1.3,22.8c0.1,9.6,10,11.1,10,11.1l-0.4,8.5
		c-0.2,6.3,4.7,11.7,11,12.1l0,0c6.5,0.4,12-4.6,12.4-11c0,0,0-0.1,0-0.1l2-40.5C387.6,210.1,382.4,201.3,372.2,200.8z"/>
	<path class="st12" d="M361.6,251.1c4.6,0,9-1.3,12.9-3.7c0,0-3,6.9-12.9,6.1L361.6,251.1z"/>
	<path class="st3" d="M356.5,223.2c0,0.8,0.6,1.4,1.4,1.4c0.7,0.1,1.4-0.5,1.4-1.2c0,0,0,0,0,0c0-0.7-0.6-1.3-1.4-1.3
		C357.2,221.9,356.5,222.5,356.5,223.2z"/>
	<path class="st3" d="M355.1,221.9c0.2,0.2,1.2-0.6,2.8-0.6s2.6,0.7,2.8,0.6s-0.1-0.4-0.6-0.8c-1.3-0.9-3.1-0.9-4.4,0
		C355.2,221.5,355,221.8,355.1,221.9z"/>
	<path class="st3" d="M370.6,223.6c0,0.8,0.6,1.4,1.4,1.4c0.7,0.1,1.4-0.5,1.4-1.2c0,0,0,0,0,0c0-0.8-0.6-1.4-1.4-1.4
		C371.3,222.3,370.6,222.9,370.6,223.6z"/>
	<path class="st3" d="M369.2,222.2c0.2,0.2,1.2-0.6,2.8-0.6s2.6,0.7,2.8,0.6s-0.1-0.4-0.6-0.7c-0.7-0.4-1.4-0.7-2.2-0.7
		c-0.8,0-1.6,0.2-2.2,0.7C369.3,221.8,369.1,222.1,369.2,222.2z"/>
	<path class="st3" d="M364.5,233.1c-0.8-0.2-1.6-0.4-2.5-0.4c-0.4,0-0.8-0.1-0.8-0.4c0-0.4,0.1-0.8,0.3-1.1l1.1-2.9
		c1.6-4.1,2.7-7.4,2.5-7.5s-1.6,3.2-3.2,7.3c-0.4,1-0.7,2-1.1,2.9c-0.2,0.5-0.3,1-0.2,1.5c0.1,0.3,0.3,0.5,0.6,0.6
		c0.2,0.1,0.4,0.1,0.7,0.1C362.8,233.2,363.7,233.2,364.5,233.1z"/>
	<path class="st3" d="M368.9,234.1c-0.2,0-0.2,1.6-1.6,2.7s-3.1,1-3.2,1.2s0.4,0.3,1.1,0.3c1,0,1.9-0.3,2.6-0.9
		c0.7-0.6,1.2-1.4,1.3-2.3C369.2,234.5,369.1,234.1,368.9,234.1z"/>
	<path class="st3" d="M369.5,216.4c0.1,0.4,1.7,0.2,3.4,0.4s3.2,0.7,3.4,0.3c0.1-0.2-0.1-0.5-0.7-0.9c-1.6-1-3.5-1.2-5.2-0.6
		C369.8,215.9,369.5,216.2,369.5,216.4z"/>
	<path class="st3" d="M355.6,217.7c0.3,0.3,1.3,0,2.6,0s2.3,0.2,2.6-0.1c0.1-0.2-0.1-0.5-0.5-0.8c-1.3-0.8-2.9-0.7-4.1,0.1
		C355.7,217.1,355.5,217.5,355.6,217.7z"/>
	<path class="st11" d="M385.3,227.2c0.2-0.1,6.8-2,6.6,4.6s-6.9,5-6.9,4.8S385.3,227.2,385.3,227.2z"/>
	<path class="st12" d="M386.5,234.2c0,0,0.1,0.1,0.3,0.2c0.3,0.1,0.6,0.1,0.9,0c0.9-0.5,1.4-1.5,1.4-2.5c0-0.6-0.1-1.1-0.3-1.6
		c-0.1-0.4-0.4-0.8-0.9-0.9c-0.3-0.1-0.6,0-0.7,0.3c-0.1,0.2-0.1,0.3-0.1,0.3s-0.1-0.1-0.1-0.4c0-0.2,0.1-0.3,0.3-0.4
		c0.2-0.1,0.4-0.2,0.7-0.1c0.5,0.1,1,0.5,1.2,1c0.3,0.6,0.4,1.2,0.4,1.8c0,1.2-0.7,2.3-1.8,2.8c-0.4,0.1-0.8,0-1.1-0.2
		C386.5,234.3,386.5,234.2,386.5,234.2z"/>
	<path class="st3" d="M380.9,207.7l-28.1,0.6c1-1.9,2.4-3.5,4.1-4.6c3.7-2.8,8.1-4.3,12.7-4.4c4.6-0.1,13.9,5.4,17.2,8.4
		c2.7,2.5,2.6,4.6,2.6,4.6c0.4,3.6-1.6,7.6-2.4,11c-0.4,1.8-1.2,7.2-1.2,7.2l0,0c-1.5,0-2.1-1.2-1.9-2.7l0.3-5.8
		c-3.2-2.4-4.3-6.6-2.8-10.3C381.9,211.1,382.7,208.7,380.9,207.7z"/>
	<path class="st12" d="M375,228.4c0.1,0,0.2,0,0.2-0.1c0,0,0,0,0,0c0-0.1,0-0.2-0.1-0.2c0,0,0,0,0,0c-0.1,0-0.2,0.1-0.2,0.1
		C374.9,228.3,374.9,228.4,375,228.4z"/>
	<path class="st12" d="M372.1,227.8c0.1,0,0.2-0.1,0.2-0.2c0,0,0,0,0,0c0-0.1,0-0.2-0.1-0.2c-0.1,0-0.2,0.1-0.2,0.2c0,0,0,0,0,0
		C372,227.7,372,227.8,372.1,227.8z"/>
	<path class="st12" d="M370.2,227.8c0.1,0,0.2-0.1,0.2-0.2s0-0.3-0.1-0.3s-0.2,0.1-0.2,0.2S370.1,227.7,370.2,227.8z"/>
	<path class="st12" d="M373.6,230.2c0.1,0,0.2-0.1,0.2-0.1s-0.1-0.1-0.2-0.1s-0.2,0.1-0.2,0.1S373.5,230.2,373.6,230.2z"/>
	<path class="st12" d="M370.9,229.6c0.1,0,0.2-0.1,0.2-0.2c0-0.1-0.1-0.2-0.1-0.2c-0.1,0-0.2,0.1-0.2,0.2
		C370.8,229.5,370.8,229.6,370.9,229.6C370.9,229.6,370.9,229.6,370.9,229.6z"/>
	<path class="st12" d="M357.1,228c0.1,0,0.2,0,0.2-0.1c0-0.1,0-0.2-0.1-0.2c-0.1,0-0.2,0-0.2,0.1c0,0,0,0,0,0
		C357,227.9,357,228,357.1,228z"/>
	<path class="st12" d="M355.2,227.9c0.1,0,0.2-0.1,0.2-0.2c0-0.1-0.1-0.2-0.2-0.1s-0.2,0.1-0.1,0.2
		C355,227.8,355.1,227.8,355.2,227.9z"/>
	<path class="st12" d="M358.9,228.1c0.1,0,0.2,0,0.2-0.1c0-0.1,0-0.2-0.1-0.2c0,0,0,0,0,0c-0.1,0-0.2,0-0.2,0.1
		C358.7,228,358.8,228.1,358.9,228.1z"/>
	<path class="st12" d="M357.4,230c0.1,0,0.2,0,0.2-0.1c0-0.1,0-0.2-0.1-0.2c0,0,0,0,0,0c-0.1,0-0.2,0-0.2,0.1c0,0,0,0,0,0
		C357.3,229.8,357.3,230,357.4,230z"/>
	<path class="st12" d="M355.7,229.7c0.1,0,0.1-0.1,0.1-0.2c0,0,0,0,0,0c0-0.1-0.1-0.1-0.2-0.1c-0.1,0-0.1,0.1-0.1,0.2
		C355.6,229.6,355.6,229.7,355.7,229.7C355.7,229.7,355.7,229.7,355.7,229.7z"/>
	<path class="st3" d="M387,208c0.6-2.5,0-5.1-1.6-7c-1.6-2-4.1-3.1-6.7-3c-1.3,0.2-2.6,0.3-3.9,0.3c-2.4-0.3-4.3-2.1-6.5-3.1
		c-3.6-1.4-7.8-0.2-10.1,2.9c-0.9,1.2-1.4,2.8-2.7,3.6c-1.1,0.7-2.6,0.6-3.8,1c-2.6,0.8-4.3,3.3-4.2,6c0.3,2.7,2,5,4.5,6
		c2.5,1,5.4,0.8,7.8-0.5c2.1-1.1,4-3.1,6.4-3s4.7,2.4,7.2,1.9c1.3-0.4,2.4-1.1,3.2-2.1c0.9-1,2-1.7,3.3-1.9c1.3-0.1,2,1.7,1.5,2.9
		L387,208"/>
	<path class="st9" d="M353.4,204.8v0.1c0,0.1,0.1,0.1,0.2,0.3c0.2,0.3,0.5,0.6,0.8,0.9c2,1.7,5.1,1.6,6.9-0.4
		c0.7-0.9,1.3-1.9,1.9-2.9c0.4-0.5,0.8-0.9,1.4-1.2c0.6-0.3,1.2-0.4,1.9-0.4c0.7,0,1.3,0.2,1.9,0.5c0.6,0.3,1.1,0.8,1.4,1.4
		c0.3,0.6,0.6,1.2,1,1.8c0.4,0.6,1.1,1,1.8,1.1c0.7,0,1.4-0.2,2-0.6c0.6-0.3,1.1-0.7,1.5-1.2c0.7-0.9,1.7-1.6,2.8-1.9
		c1-0.2,2,0.1,2.8,0.6c0.7,0.5,1.2,1.1,1.5,1.9c0.3,0.6,0.5,1.2,0.6,1.8c0.1,0.5,0.1,0.9,0.2,1.2c0,0.1,0,0.3,0.1,0.4v-0.1
		c0-0.1,0-0.2,0-0.3c0-0.4-0.1-0.8-0.1-1.2c-0.1-0.6-0.3-1.2-0.5-1.8c-0.3-0.8-0.9-1.4-1.6-1.9c-0.9-0.6-1.9-0.9-3-0.7
		c-1.1,0.4-2.1,1.1-2.9,2c-0.4,0.4-0.9,0.8-1.5,1.2c-0.5,0.3-1.2,0.5-1.8,0.5c-0.7-0.1-1.3-0.4-1.6-1c-0.4-0.5-0.6-1.2-1-1.8
		c-0.3-0.6-0.9-1.2-1.5-1.5c-0.6-0.3-1.3-0.5-2-0.5c-0.7,0-1.4,0.1-2,0.4c-0.6,0.3-1.1,0.7-1.4,1.3c-0.7,1-1.2,2.1-1.9,2.9
		c-0.7,0.7-1.6,1.2-2.6,1.5c-0.8,0.2-1.7,0.1-2.5-0.1c-0.6-0.2-1.2-0.5-1.6-0.9C354,205.7,353.7,205.3,353.4,204.8z"/>
	<path class="st9" d="M348.3,204.9c-0.1,0.2-0.1,0.3-0.1,0.5c0,0.5,0,1,0.1,1.5c0.2,0.7,0.6,1.4,1,1.9c0.6,0.7,1.4,1.2,2.2,1.6
		c1.6,0.6,3.2,0.8,4.9,0.5c0.5-0.1,1-0.2,1.5-0.3c0.2,0,0.4-0.1,0.5-0.2c0,0-0.8,0.1-2,0.3c-1.6,0.2-3.3,0-4.8-0.6
		c-0.8-0.3-1.5-0.8-2.1-1.5c-0.5-0.5-0.8-1.1-1-1.8C348.3,206.2,348.2,205.6,348.3,204.9z"/>
	<path class="st7" d="M424.1,302.4c-0.2,12.9-8,24.7-18.2,32.5s-22.6,12.1-35,15.7s-25,6.5-36.6,12c-16.1,7.6-31,18.1-40.1,33.4
		s-12.3,35.5-11.3,53.2l136.8-13.7l7.5-77.8L424.1,302.4z"/>
	<path class="st3" d="M298.9,384.7c-0.1,0.2-0.2,0.4-0.4,0.6l-1.1,1.5c-0.5,0.7-1.1,1.5-1.7,2.4s-1.4,2-2.1,3.3s-1.6,2.6-2.3,4.2
		s-1.6,3.2-2.3,4.9c-1.6,3.9-3,7.8-4,11.9c-1,4.1-1.6,8.2-2,12.3c-0.2,1.9-0.3,3.8-0.4,5.5s-0.1,3.3-0.1,4.8s0,2.8,0.1,3.9
		s0.1,2.2,0.1,3s0.1,1.4,0.1,1.9c0,0.2,0,0.4,0,0.7c-0.1-0.2-0.1-0.4-0.1-0.6c0-0.5-0.1-1.1-0.2-1.9s-0.2-1.8-0.2-3s-0.1-2.5-0.1-4
		s0-3.1,0-4.8s0.2-3.5,0.4-5.5c0.4-4.2,1.1-8.3,2.1-12.4c1-4.1,2.4-8.1,4-11.9c0.8-1.8,1.6-3.4,2.4-5s1.6-2.9,2.4-4.2
		s1.5-2.3,2.2-3.3s1.3-1.8,1.8-2.4l1.2-1.5C298.6,385,298.7,384.9,298.9,384.7z"/>
	<g class="st8">
		<path d="M421.5,302c-0.2,12.9-8,24.7-18.2,32.5s-22.6,12.1-35,15.7s-25,6.5-36.6,12c-16.1,7.6-31,18.1-40.1,33.4
			s-12.3,35.5-11.3,53.2L417,435.2l7.5-77.8L421.5,302z"/>
	</g>
</g>
<g id="freepik--Plant--inject-16">
	<path class="st14" d="M105.8,359.9c-12.2-12.2-29.9-17.1-46.7-12.8c13.9,9.5,30.4,14.6,47.2,14.7"/>
	<path class="st14" d="M90,303.8c2-13.8-3.4-29.2-13.7-39.2C76,278.2,81.7,293.6,90,303.8"/>
	<path class="st14" d="M98.2,329.8c-7.4-14.1-19.3-25.4-33.7-32.2c4.6,16.1,17.5,28.5,33.8,32.4"/>
	<path class="st14" d="M99.9,334.8c-8.3,0.2-16.7-0.1-24.7-2.2s-15.7-6.2-21.1-12.6c16.3,0,32.2,4.9,45.7,14"/>
	<path class="st14" d="M95.7,318.3c4.2-15.8,11.2-26.7,23.6-35.6C121.2,298.8,111.2,313.9,95.7,318.3"/>
	<path class="st14" d="M127,345.5c0.1-9.4-5.5-18-14.2-21.6C113.5,332,119.9,341.5,127,345.5"/>
	<path class="st14" d="M131,332.2c1.2-13.5,10.1-25.1,22.8-29.7C151,315.7,143.3,326.7,131,332.2"/>
	<path class="st14" d="M125,355.9c2.9-4.2,7.7-6.8,12.6-8.1s10.1-1.4,15.2-1.5c-7,7.6-17.1,11.8-27.5,11.4"/>
	<path class="st14" d="M119.1,389.5c19.3-6,40,3.8,47.6,22.5C149.4,408.8,132.3,401.1,119.1,389.5"/>
	<path class="st14" d="M100.1,377.8c2.9,8.5,2.3,18.8-4.1,26.1C93.5,395,94.9,385.5,100.1,377.8"/>
	<path class="st14" d="M88.9,373.1c-1,11.1-7.6,20.9-17.6,25.9c-0.5,0.3-1,0.4-1.6,0.3c-0.8-0.3-0.8-1.4-0.8-2.2
		C70.2,386.2,78.2,375.6,88.9,373.1"/>
	<path class="st14" d="M81.6,372c-9.8,10.6-26.4,11.3-37,1.4c-0.4-0.4-0.8-0.8-1.2-1.2C55.5,370.9,69.5,370,81.6,372"/>
	<path class="st3" d="M79.7,274.8c0,0.1,0.1,0.2,0.1,0.4c0.1,0.3,0.2,0.6,0.4,1c0.3,0.9,0.8,2.2,1.5,3.9s1.4,3.8,2.3,6.2l1.4,3.9
		c0.5,1.4,1,2.9,1.5,4.4c2.2,6.2,4.5,13.6,7.1,21.8s5.2,17.4,7.8,27s4.9,18.8,6.8,27.2s3.5,16,4.7,22.4c0.3,1.6,0.6,3.1,0.9,4.6
		s0.5,2.8,0.7,4.1c0.4,2.5,0.8,4.8,1.1,6.6s0.5,3.2,0.6,4.1c0.1,0.5,0.1,0.8,0.2,1.1s0.1,0.4,0.1,0.4c0-0.1,0-0.2,0-0.4
		c0-0.3-0.1-0.6-0.1-1.1c-0.1-1-0.3-2.4-0.6-4.2s-0.6-4-1-6.6c-0.2-1.3-0.4-2.6-0.7-4.1l-0.8-4.6c-1.1-6.4-2.7-14-4.6-22.5
		s-4.2-17.6-6.8-27.3s-5.3-18.7-7.9-27s-5-15.6-7.2-21.8c-0.6-1.5-1.1-3-1.6-4.4s-1-2.7-1.4-3.9c-0.9-2.4-1.7-4.5-2.4-6.2
		s-1.2-3-1.6-3.9c-0.2-0.4-0.3-0.8-0.4-1C79.9,274.9,79.8,274.8,79.7,274.8z"/>
	<path class="st3" d="M146.6,309.5l-0.2,0.2l-0.6,0.6c-0.5,0.5-1.2,1.4-2.2,2.4c-2.6,3-5,6.2-7.2,9.5c-3.2,5-5.7,10.3-7.5,16
		c-2,6.4-3.3,13.6-4.5,21.2c-2.5,15.2-5.5,28.8-7.7,38.6l-2.6,11.6c-0.3,1.4-0.5,2.4-0.7,3.2c-0.1,0.3-0.1,0.6-0.2,0.8
		c0,0.1,0,0.2,0,0.3c0-0.1,0.1-0.2,0.1-0.3c0-0.2,0.1-0.5,0.2-0.8l0.8-3.1c0.7-2.8,1.6-6.7,2.8-11.6c2.3-9.8,5.4-23.4,7.8-38.6
		c1.2-7.6,2.5-14.8,4.4-21.2c1.7-5.6,4.2-11,7.4-16c2.1-3.4,4.5-6.6,7-9.6c0.9-1.1,1.6-1.9,2.1-2.5l0.6-0.6
		C146.5,309.6,146.6,309.5,146.6,309.5z"/>
	<path class="st3" d="M77.9,371.5c0.1,0,0.3,0.1,0.4,0.1l1.3,0.1l0.9,0.1l1.1,0.2c0.8,0.1,1.7,0.2,2.6,0.4l1.5,0.3l1.6,0.4
		c1.1,0.2,2.3,0.7,3.5,1c2.7,0.9,5.2,2.1,7.7,3.4c2.4,1.4,4.8,3,6.9,4.8c0.9,0.8,1.8,1.7,2.7,2.5c0.7,0.8,1.4,1.6,2.1,2.4
		c0.6,0.7,1.1,1.5,1.6,2.1c0.4,0.5,0.7,1.1,1.1,1.7l0.7,1.1c0.1,0.1,0.2,0.3,0.2,0.4c0,0,0-0.1-0.2-0.4s-0.3-0.7-0.6-1.1
		c-0.3-0.6-0.6-1.2-1-1.8c-0.5-0.8-1-1.5-1.5-2.2c-0.6-0.9-1.3-1.7-2.1-2.5c-0.8-0.9-1.7-1.8-2.7-2.6c-2.2-1.9-4.5-3.5-7-4.9
		c-2.5-1.4-5.1-2.5-7.8-3.4c-1.3-0.4-2.4-0.8-3.6-1l-1.6-0.4l-1.5-0.3c-1-0.2-1.8-0.3-2.6-0.4l-1.1-0.1l-0.9,0h-1.3
		C78.2,371.5,78.1,371.5,77.9,371.5z"/>
	<path class="st3" d="M74.5,309.8c0.3,0.3,0.6,0.6,0.9,0.8l2.5,2.2c2.1,1.8,5.1,4.3,8.4,7s6.3,5.2,8.5,6.9l2.6,2.1
		c0.3,0.3,0.6,0.5,1,0.7c-0.3-0.3-0.6-0.6-0.9-0.8l-2.5-2.2c-2.1-1.8-5.1-4.3-8.4-7s-6.3-5.2-8.5-6.9l-2.6-2.1
		C75.2,310.3,74.8,310,74.5,309.8z"/>
	<path class="st3" d="M71.5,325.9c0,0.1,6.3,2.1,14.3,4.5s14.4,4.1,14.4,4s-6.3-2.1-14.3-4.5S71.5,325.8,71.5,325.9z"/>
	<path class="st3" d="M95.1,319.5c0.3-0.3,0.5-0.6,0.7-0.9l1.7-2.6c1.4-2.2,3.5-5.1,5.9-8.2s4.7-5.9,6.4-7.8l2-2.3
		c0.3-0.3,0.5-0.6,0.7-0.9c-0.3,0.2-0.6,0.5-0.8,0.8c-0.5,0.5-1.2,1.3-2.1,2.2c-1.8,1.9-4.1,4.6-6.5,7.8s-4.4,6.1-5.8,8.4
		c-0.7,1.1-1.2,2-1.6,2.6C95.3,318.8,95.2,319.2,95.1,319.5z"/>
	<path class="st3" d="M117.2,328.5c0.4,0.9,0.9,1.7,1.5,2.5c1,1.5,2.2,3.6,3.6,5.9s2.5,4.5,3.3,6.1c0.4,0.9,0.8,1.7,1.4,2.5
		c-0.3-0.9-0.6-1.8-1.1-2.7c-0.7-1.6-1.8-3.8-3.2-6.2s-2.7-4.4-3.7-5.9C118.5,329.9,117.9,329.2,117.2,328.5z"/>
	<path class="st3" d="M124.8,356.3c0,0.1,1.2-0.5,3.3-1.4c2-0.9,4.8-2.1,7.9-3.2s6.1-1.9,8.2-2.5s3.4-0.8,3.4-0.9
		c-0.3,0-0.6,0-0.9,0.1c-0.6,0.1-1.5,0.2-2.6,0.5c-2.8,0.6-5.6,1.4-8.2,2.4c-2.7,0.9-5.3,2-7.9,3.3c-1,0.5-1.8,0.9-2.3,1.2
		C125.3,355.9,125.1,356.1,124.8,356.3z"/>
	<path class="st3" d="M118.8,389.6c0.1,0.1,0.3,0.1,0.4,0.1l1.2,0.3l4.2,1c4.7,1,9.3,2.2,13.9,3.7c4.6,1.5,8.9,3.6,13,6.1
		c1.6,1,2.8,1.9,3.6,2.5c0.4,0.3,0.8,0.7,1.3,1c-0.1-0.1-0.2-0.2-0.3-0.3c-0.2-0.2-0.5-0.5-0.9-0.8c-1.1-0.9-2.3-1.8-3.5-2.6
		c-4.1-2.6-8.4-4.7-13-6.2c-4.6-1.5-9.3-2.7-14-3.5l-4.3-0.8C119.9,389.7,119.4,389.6,118.8,389.6z"/>
	<path class="st3" d="M97.2,397.8c0.1,0,0.9-4.5,1.7-10s1.4-10,1.2-10.1s-0.9,4.5-1.7,10S97.1,397.8,97.2,397.8z"/>
	<path class="st3" d="M74.8,389.6c0.7-0.8,1.4-1.6,2-2.4c1.2-1.5,2.9-3.6,4.8-5.9s3.7-4.3,5-5.7c0.7-0.8,1.4-1.6,2-2.4
		c0,0-0.2,0.2-0.6,0.5s-1,0.9-1.6,1.6c-1.3,1.4-3.2,3.4-5.1,5.7s-3.6,4.4-4.7,6c-0.6,0.8-1,1.4-1.3,1.9
		C75,389.1,74.9,389.3,74.8,389.6z"/>
	<polygon class="st9" points="134.3,410.5 134.3,421.6 131.5,421.6 121.6,452.8 99.7,452.8 90.1,421.9 86.4,421.6 86.4,410.5 	"/>
	<path class="st3" d="M88.3,421.9c0,0.1,9.7,0.2,21.6,0.2s21.6-0.1,21.6-0.2s-9.7-0.2-21.6-0.2S88.3,421.8,88.3,421.9z"/>
	<path class="st3" d="M72.5,350.4c0.5,0.2,0.9,0.3,1.4,0.4l3.8,0.9c3.2,0.8,7.7,2,12.5,3.6s9.1,3.4,12.2,4.7l3.6,1.6
		c0.4,0.2,0.9,0.4,1.3,0.5c-0.4-0.3-0.8-0.5-1.3-0.7c-0.8-0.4-2.1-1-3.6-1.7c-4-1.8-8-3.4-12.2-4.8c-4.1-1.4-8.3-2.6-12.6-3.5
		c-1.6-0.4-3-0.6-3.9-0.8C73.5,350.5,73,350.4,72.5,350.4z"/>
	<path class="st13" d="M95.6,439.2c0,0.1,6.8,0.2,15.2,0.2s15.2-0.1,15.2-0.2s-6.8-0.2-15.2-0.2S95.6,439.1,95.6,439.2z"/>
	<path class="st13" d="M94.7,436.6c0,0.1,7.2,0.2,16.1,0.2s16.1-0.1,16.1-0.2s-7.2-0.2-16.1-0.2S94.7,436.5,94.7,436.6z"/>
</g>
</svg>
