<?xml version="1.0" encoding="utf-8"?>
<!-- Generator: Adobe Illustrator 26.0.1, SVG Export Plug-In . SVG Version: 6.00 Build 0)  -->
<svg version="1.1" id="Layer_1" xmlns="http://www.w3.org/2000/svg" xmlns:xlink="http://www.w3.org/1999/xlink" x="0px" y="0px"
	 viewBox="0 0 694 694" style="enable-background:new 0 0 694 694;" xml:space="preserve">
<style type="text/css">
	.st0{opacity:0.34;fill:url(#SVGID_1_);enable-background:new    ;}
	.st1{fill:#F5F6F6;}
	.st2{fill:#E0E1E0;}
	.st3{fill:#FAFBFC;}
	.st4{fill:#EBEBEB;}
	.st5{fill:#FFFFFF;}
	.st6{fill:#273339;}
	.st7{opacity:0.3;}
	.st8{fill:#010101;}
	.st9{fill:#465B65;}
	.st10{fill:#1585C4;}
	.st11{fill:#5095D0;}
	.st12{fill:#7ABDE8;}
	.st13{fill:#6F453A;}
	.st14{fill:#AE7462;}
	.st15{fill:#FBBF9E;}
	.st16{fill:#F7996E;}
	.st17{opacity:0.3;fill:#010101;enable-background:new    ;}
</style>
<linearGradient id="SVGID_1_" gradientUnits="userSpaceOnUse" x1="662.563" y1="47.6406" x2="640.003" y2="138.7106" gradientTransform="matrix(1 0 0 -1 0 693.8898)">
	<stop  offset="0" style="stop-color:#FFFFFF"/>
	<stop  offset="0.2" style="stop-color:#DEE2E7"/>
	<stop  offset="0.75" style="stop-color:#8994AA"/>
	<stop  offset="1" style="stop-color:#677692"/>
</linearGradient>
<path class="st0" d="M653.6,610.7c0.1,0,0.3,0,0.6,0C653.4,610.7,653.1,610.7,653.6,610.7z"/>
<g>
	<g id="Background_Complete">
		<g>
			<path class="st1" d="M52.2,660.8c-1.9-1.6-6.2-6.8-2.9-12.9c1.2-2.2,3.8-3.3,6.1-4.3c2.3-1,4.8-1.8,6.7-3.5
				c3.6-3.1,4.6-8.2,7-12.3c2.8-4.7,7.9-8.2,13.3-8c6.2,0.3,11.4,5.4,13.8,11.2c2.3,5.8,2.4,12.2,2.5,18.5c0,3.5-0.1,7.4-2.7,9.7
				c-2.3,2.2-5.9,2.2-9,2.1c-11.3-0.3-22.7-0.7-34-1"/>
			<path class="st2" d="M117.2,567.4H27.8l16.1,96c0.7,4.2,3.7,7.4,7.6,8.5c0.1,0,0.2,0.1,0.3,0.1c0.3,0.1,0.5,0.2,0.8,0.2
				c0.6,0.1,1.2,0.2,1.8,0.2c0,0,0,0.1,0,0.1l0.4-0.1h39.8c0.8,0,1.5-0.1,2.2-0.2c4.7-0.7,8.5-4.5,9-9.4l7.8-66.2l0.3-2.6h0
				l3.1-26.2L117.2,567.4L117.2,567.4z M100.4,628.6h-9.2l0.9-27.9h10.6L100.4,628.6L100.4,628.6z M103.6,600.8h8.8l-3.3,27.9h-7.9
				L103.6,600.8z M77.4,659.5l-0.6-24.2h13.2l-0.8,24.2H77.4z M63.1,635.3H76l0.6,24.2H65L63.1,635.3L63.1,635.3z M64.1,659.5H53.4
				c-1-6.5-2.3-15-3.8-24.2h12.7L64.1,659.5L64.1,659.5z M62.6,628.6l-2.2-27.9h14.7l0.6,27.9H62.6L62.6,628.6z M76.7,628.6
				l-0.6-27.9h15.2l-0.9,27.9H76.7L76.7,628.6z M75.9,594.1l-0.6-25.8h17l-0.9,25.8C91.4,594.1,75.9,594.1,75.9,594.1z M75,594.1
				H59.9l-2-25.8h16.5L75,594.1L75,594.1z M59,594.1h-16c-0.6-3.6-1.1-6.9-1.6-10c-1.7-10.4-2.3-14.4-2.6-15.8H57L59,594.1L59,594.1
				z M59.6,600.8l2.2,27.9H48.5c-0.4-2.8-0.9-5.7-1.3-8.5c-1-6.6-2.1-13.2-3-19.3H59.6L59.6,600.8z M47.6,628.6H39l-4.7-27.9h8.9
				C44.6,609.4,46.1,619,47.6,628.6z M48.7,635.3c1.3,8.4,2.6,16.6,3.8,24.2h-8.3l-4.1-24.2H48.7L48.7,635.3z M90.1,659.5l0.8-24.2
				h8.8l-2.1,24.2H90.1L90.1,659.5z M92.3,594.1l0.9-25.8h12.3l-2.2,25.8H92.3L92.3,594.1z M38,568.3c0.3,1.9,2,12,4.2,25.8h-9
				l-4.3-25.8C28.9,568.3,38,568.3,38,568.3z M105.5,659.5h-6.9l2.1-24.2h7.7C108.3,635.3,105.5,659.5,105.5,659.5z M113.2,594.1h-9
				l2.2-25.8h9.8L113.2,594.1z"/>
		</g>
		<g>
			<g>
				<rect x="540.2" y="158.6" class="st3" width="120.5" height="107.8"/>
				<path class="st2" d="M660.7,266.4c0,0,0-0.7,0-2c0-1.3,0-3.3,0-5.8c0-5.1,0-12.5-0.1-21.9c0-18.8-0.1-45.8-0.1-78.1l0.3,0.3
					c-34.7,0-76.1,0-120.5,0.1h0l0.3-0.3c0,39.2,0,76.1,0,107.8l-0.3-0.3c35.9,0.1,66,0.1,87.1,0.1c10.6,0,18.9,0.1,24.6,0.1
					c2.8,0,5,0,6.5,0c0.7,0,1.3,0,1.7,0C660.5,266.4,660.7,266.4,660.7,266.4c0,0-0.2,0-0.5,0c-0.4,0-0.9,0-1.7,0
					c-1.5,0-3.6,0-6.5,0c-5.7,0-14,0-24.5,0.1c-21.2,0-51.3,0.1-87.3,0.1h-0.3v-0.3c0-31.7,0-68.6,0-107.8v-0.3h0.3
					c44.4,0,85.8,0,120.5,0.1h0.3v0.3c-0.1,32.5-0.1,59.4-0.1,78.3c0,9.4-0.1,16.8-0.1,21.8c0,2.5,0,4.4,0,5.7
					C660.7,265.8,660.7,266.4,660.7,266.4L660.7,266.4z"/>
			</g>
			<path class="st2" d="M586.4,177.8c0,0.2-6.3,0.3-14.2,0.3s-14.2-0.1-14.2-0.3s6.3-0.3,14.2-0.3
				C580.1,177.5,586.4,177.6,586.4,177.8z"/>
			<path class="st2" d="M637.4,185.9c0,0.2-17.4,0.3-38.9,0.3s-38.9-0.1-38.9-0.3s17.4-0.3,38.9-0.3S637.4,185.7,637.4,185.9z"/>
			<rect x="558.3" y="199.6" class="st2" width="5.1" height="5.1"/>
			<rect x="570.8" y="199.6" class="st2" width="5.1" height="5.1"/>
			<rect x="583.5" y="199.4" class="st2" width="5.1" height="5.1"/>
			<rect x="595.8" y="199.6" class="st2" width="5.1" height="5.1"/>
			<rect x="608.2" y="199.6" class="st2" width="5.1" height="5.1"/>
			<rect x="620.7" y="199.6" class="st2" width="5.1" height="5.1"/>
			<rect x="633.2" y="199.6" class="st4" width="5.1" height="5.1"/>
			<rect x="558.3" y="210.4" class="st4" width="5.1" height="5.1"/>
			<rect x="570.8" y="210.4" class="st2" width="5.1" height="5.1"/>
			<rect x="583.3" y="210.4" class="st4" width="5.1" height="5.1"/>
			<rect x="595.8" y="210.4" class="st2" width="5.1" height="5.1"/>
			<rect x="608.2" y="210.4" class="st2" width="5.1" height="5.1"/>
			<rect x="621" y="210.2" class="st2" width="5.1" height="5.1"/>
			<rect x="633.2" y="210.4" class="st2" width="5.1" height="5.1"/>
			<rect x="558.3" y="221.2" class="st2" width="5.1" height="5.1"/>
			<rect x="571" y="220.9" class="st2" width="5.1" height="5.1"/>
			<rect x="583.3" y="221.2" class="st2" width="5.1" height="5.1"/>
			<rect x="595.8" y="221.2" class="st4" width="5.1" height="5.1"/>
			<rect x="608.2" y="221.2" class="st2" width="5.1" height="5.1"/>
			<rect x="620.7" y="221.2" class="st2" width="5.1" height="5.1"/>
			<rect x="633.2" y="221.2" class="st2" width="5.1" height="5.1"/>
			<rect x="558.3" y="232" class="st2" width="5.1" height="5.1"/>
			<rect x="570.8" y="232" class="st2" width="5.1" height="5.1"/>
			<rect x="583.3" y="232" class="st2" width="5.1" height="5.1"/>
			<rect x="596" y="231.7" class="st2" width="5.1" height="5.1"/>
			<rect x="608.2" y="232" class="st2" width="5.1" height="5.1"/>
			<rect x="620.7" y="232" class="st4" width="5.1" height="5.1"/>
			<rect x="633.2" y="232" class="st2" width="5.1" height="5.1"/>
			<rect x="558.3" y="242.8" class="st2" width="5.1" height="5.1"/>
			<rect x="570.8" y="242.8" class="st4" width="5.1" height="5.1"/>
			<rect x="583.3" y="242.8" class="st2" width="5.1" height="5.1"/>
			<rect x="595.8" y="242.8" class="st2" width="5.1" height="5.1"/>
			<rect x="608.2" y="242.8" class="st2" width="5.1" height="5.1"/>
			<rect x="621" y="242.5" class="st2" width="5.1" height="5.1"/>
			<rect x="633.2" y="242.8" class="st2" width="5.1" height="5.1"/>
		</g>
		<g>
			
				<ellipse transform="matrix(0.1587 -0.9873 0.9873 0.1587 418.9012 655.5021)" class="st2" cx="594.1" cy="82" rx="43.9" ry="43.9"/>
			<circle class="st5" cx="594.5" cy="81.5" r="39.7"/>
			<path class="st4" d="M554.4,79.1c0,0,0,0.2,0,0.7c0,0.4,0,1.1,0,1.9c0,0.4,0,0.9,0,1.4c0,0.5,0.1,1.1,0.1,1.7
				c0.1,0.6,0.1,1.3,0.2,2c0,0.7,0.2,1.4,0.4,2.2c0.5,3.1,1.7,6.9,3.7,10.9c2,4,5.1,8.2,9.4,11.9c0.5,0.5,1.1,0.9,1.6,1.4
				c0.6,0.4,1.2,0.8,1.8,1.3c0.6,0.4,1.2,0.9,1.9,1.2c0.7,0.4,1.3,0.8,2,1.1c0.3,0.2,0.7,0.4,1,0.6c0.4,0.2,0.7,0.3,1.1,0.5
				c0.7,0.3,1.5,0.6,2.2,1c0.7,0.3,1.5,0.5,2.3,0.8c0.8,0.2,1.5,0.6,2.4,0.7c1.6,0.3,3.3,0.8,5,0.9c0.8,0.1,1.7,0.2,2.6,0.3
				c0.9,0,1.8,0,2.6,0c0.4,0,0.9,0,1.3,0c0.4,0,0.9-0.1,1.3-0.1c0.9-0.1,1.8-0.1,2.7-0.3c1.8-0.4,3.6-0.6,5.4-1.2l1.3-0.4
				c0.2-0.1,0.5-0.1,0.7-0.2l0.7-0.3c0.9-0.3,1.8-0.7,2.6-1.1c0.9-0.4,1.7-0.9,2.6-1.3c0.4-0.2,0.9-0.4,1.3-0.7l1.2-0.8
				c1.7-1,3.2-2.3,4.8-3.5c0.7-0.7,1.4-1.4,2.2-2.1l0.5-0.5l0.5-0.6l1-1.2l1-1.2l0.9-1.2l0.9-1.3l0.4-0.6c0.1-0.2,0.3-0.4,0.4-0.7
				c0.5-0.9,1-1.8,1.5-2.7c0.4-0.9,0.8-1.9,1.3-2.9c1.6-3.9,2.5-8.1,2.9-12.4c0.2-4.3-0.2-8.6-1.2-12.7c-0.3-1-0.6-2-0.9-3
				c-0.4-1-0.8-1.9-1.2-2.9l-0.3-0.7l-0.4-0.7l-0.7-1.4l-0.7-1.4l-0.8-1.3l-0.8-1.3l-0.4-0.6l-0.5-0.6c-0.6-0.8-1.2-1.6-1.9-2.3
				c-1.4-1.4-2.7-2.9-4.2-4.1l-1.1-1c-0.4-0.3-0.8-0.6-1.2-0.9c-0.8-0.5-1.6-1.1-2.4-1.6c-0.8-0.5-1.7-0.9-2.5-1.4l-0.6-0.3
				c-0.2-0.1-0.4-0.2-0.6-0.3l-1.3-0.6c-1.7-0.8-3.5-1.3-5.2-1.9c-0.9-0.2-1.8-0.4-2.6-0.6c-0.4-0.1-0.9-0.2-1.3-0.3
				c-0.4-0.1-0.9-0.1-1.3-0.2c-0.9-0.1-1.8-0.2-2.6-0.3c-0.9-0.1-1.7,0-2.6-0.1c-1.7-0.1-3.4,0.1-5.1,0.2c-0.8,0-1.6,0.3-2.4,0.4
				c-0.8,0.2-1.6,0.3-2.4,0.5c-0.8,0.2-1.5,0.5-2.3,0.7c-0.4,0.1-0.8,0.2-1.1,0.3c-0.4,0.1-0.7,0.3-1.1,0.4
				c-0.7,0.3-1.4,0.6-2.1,0.8c-0.7,0.3-1.3,0.7-2,1c-0.7,0.3-1.3,0.7-1.9,1c-0.6,0.4-1.2,0.8-1.8,1.2c-4.7,3.1-8.3,6.9-10.8,10.6
				c-2.5,3.7-4.2,7.3-5.1,10.3c-0.2,0.8-0.5,1.4-0.7,2.1c-0.2,0.7-0.3,1.3-0.4,1.9c-0.1,0.6-0.3,1.1-0.4,1.7c-0.1,0.5-0.1,1-0.2,1.4
				c-0.1,0.8-0.2,1.4-0.2,1.9C554.5,78.9,554.5,79.1,554.4,79.1c0,0,0.1-0.2,0.1-0.7c0-0.4,0.1-1.1,0.2-1.9c0-0.4,0.1-0.9,0.2-1.4
				c0.1-0.5,0.2-1.1,0.3-1.7c0.1-0.6,0.3-1.2,0.4-1.9c0.1-0.7,0.4-1.4,0.7-2.2c0.9-3.1,2.5-6.6,5.1-10.4c2.5-3.7,6.1-7.6,10.9-10.7
				c0.6-0.4,1.2-0.8,1.8-1.2c0.6-0.4,1.3-0.7,2-1c0.7-0.3,1.3-0.7,2-1c0.7-0.3,1.4-0.6,2.1-0.9c0.4-0.1,0.7-0.3,1.1-0.4
				c0.4-0.1,0.8-0.2,1.1-0.3c0.8-0.2,1.5-0.5,2.3-0.7c0.8-0.2,1.6-0.3,2.4-0.5c0.8-0.1,1.6-0.4,2.5-0.4c1.7-0.1,3.4-0.4,5.1-0.3
				c0.9,0,1.7,0,2.6,0.1c0.9,0.1,1.8,0.2,2.6,0.3c0.4,0.1,0.9,0.1,1.3,0.2c0.4,0.1,0.9,0.2,1.3,0.3c0.9,0.2,1.8,0.4,2.7,0.6
				c1.7,0.6,3.5,1.1,5.2,1.9l1.3,0.6c0.2,0.1,0.4,0.2,0.7,0.3l0.6,0.3c0.8,0.5,1.7,0.9,2.5,1.4c0.8,0.5,1.6,1.1,2.4,1.7
				c0.4,0.3,0.8,0.5,1.2,0.9l1.1,1c1.6,1.2,2.9,2.7,4.3,4.2c0.6,0.8,1.3,1.6,1.9,2.4l0.5,0.6l0.4,0.6l0.8,1.3l0.8,1.3l0.7,1.4
				l0.7,1.4l0.4,0.7l0.3,0.7c0.4,1,0.8,1.9,1.2,2.9c0.3,1,0.6,2,0.9,3c1,4.1,1.5,8.4,1.2,12.8c-0.3,4.3-1.3,8.6-2.9,12.5
				c-0.4,1-0.9,1.9-1.3,2.9c-0.5,0.9-1,1.8-1.5,2.7c-0.1,0.2-0.2,0.5-0.4,0.7l-0.5,0.6l-0.9,1.3l-0.9,1.3l-1,1.2l-1,1.2l-0.5,0.6
				l-0.5,0.5c-0.7,0.7-1.5,1.4-2.2,2.1c-1.6,1.2-3.1,2.6-4.8,3.6l-1.2,0.8c-0.4,0.3-0.9,0.5-1.3,0.7c-0.9,0.4-1.7,0.9-2.6,1.3
				c-0.9,0.4-1.8,0.7-2.7,1.1l-0.7,0.3c-0.2,0.1-0.5,0.1-0.7,0.2l-1.4,0.4c-1.8,0.6-3.7,0.8-5.5,1.2c-0.9,0.1-1.8,0.2-2.7,0.3
				c-0.5,0-0.9,0.1-1.3,0.1c-0.5,0-0.9,0-1.3,0c-0.9,0-1.8,0-2.7,0c-0.9-0.1-1.7-0.2-2.6-0.3c-1.7-0.1-3.4-0.6-5-0.9
				c-0.8-0.1-1.6-0.5-2.4-0.7c-0.8-0.3-1.6-0.5-2.3-0.8c-0.7-0.3-1.5-0.7-2.2-1c-0.4-0.2-0.7-0.3-1.1-0.5c-0.3-0.2-0.7-0.4-1-0.6
				c-0.7-0.4-1.3-0.8-2-1.1c-0.7-0.4-1.2-0.8-1.9-1.3c-0.6-0.4-1.2-0.8-1.8-1.3c-0.5-0.5-1.1-0.9-1.6-1.4c-4.3-3.8-7.3-8-9.4-12.1
				c-2-4.1-3.2-7.8-3.7-11c-0.1-0.8-0.3-1.5-0.4-2.2c-0.1-0.7-0.1-1.4-0.2-2c0-0.6-0.1-1.2-0.1-1.7c0-0.5,0-1,0-1.4
				c0-0.8,0-1.5,0-1.9C554.4,79.3,554.4,79.1,554.4,79.1L554.4,79.1z"/>
			<g>
				<path class="st2" d="M612.7,82.6c0,0-0.5,0.1-1.4,0.1c-1,0-2.3,0.1-3.9,0.1c-3.3,0-7.9,0.1-13.1,0.1H594v-0.3c0-0.8,0-1.7,0-2.6
					c0-5.8,0-11,0.1-14.8c0-1.8,0.1-3.3,0.1-4.5c0-1.1,0.1-1.7,0.1-1.7s0.1,0.6,0.1,1.7c0,1.2,0,2.7,0.1,4.5c0,3.8,0.1,9,0.1,14.8
					c0,0.9,0,1.8,0,2.6l-0.3-0.3c5.2,0,9.8,0,13.1,0.1c1.6,0,2.9,0.1,3.9,0.1C612.2,82.5,612.7,82.6,612.7,82.6L612.7,82.6z"/>
				<path class="st2" d="M594.4,48c0.1,0,0.3,1.5,0.3,3.4s-0.1,3.4-0.3,3.4s-0.3-1.5-0.3-3.4S594.3,48,594.4,48z"/>
				<path class="st2" d="M612.6,53.3c0.1,0.1-0.9,1.2-2.2,2.5c-1.3,1.3-2.4,2.3-2.5,2.2c-0.1-0.1,0.9-1.2,2.2-2.5
					C611.4,54.2,612.5,53.2,612.6,53.3z"/>
				<path class="st2" d="M623.3,65c0.1,0.1-1.2,0.9-2.8,1.8c-1.5,0.9-2.8,1.7-2.9,1.6c-0.1-0.1,1.1-1.1,2.6-2
					C621.8,65.4,623.2,64.9,623.3,65z"/>
				<path class="st2" d="M629.5,82.2c0,0.1-2,0.3-4.6,0.3s-4.6-0.1-4.6-0.3s2-0.3,4.6-0.3S629.5,82.1,629.5,82.2z"/>
				<path class="st2" d="M566,81.6c0,0.1-1.9,0.3-4.3,0.3s-4.3-0.1-4.3-0.3s1.9-0.3,4.3-0.3S566,81.5,566,81.6z"/>
				<path class="st2" d="M570.5,94.5c0.1,0.1-1.4,1.4-3.3,3s-3.5,2.7-3.6,2.6c-0.1-0.1,1.4-1.4,3.3-3S570.4,94.4,570.5,94.5z"/>
				<path class="st2" d="M581.6,104.4c0.1,0.1-1,1.8-2.2,3.8c-1.3,2.1-2.2,3.8-2.4,3.8c-0.1-0.1,0.6-1.9,1.9-4
					C580.2,105.9,581.5,104.3,581.6,104.4L581.6,104.4z"/>
				<path class="st2" d="M594.4,117.2c-0.1,0-0.3-2.1-0.3-4.6s0.1-4.6,0.3-4.6s0.3,2.1,0.3,4.6S594.5,117.2,594.4,117.2z"/>
				<path class="st2" d="M614.1,111.1c-0.1,0.1-1.9-0.9-3.8-2.6c-1.9-1.7-3.2-3.3-3.1-3.4c0.1-0.1,1.5,1.4,3.4,3
					C612.6,109.8,614.2,111,614.1,111.1L614.1,111.1z"/>
				<path class="st2" d="M623.4,101.2c-0.1,0.1-1.5-1.1-3-2.7c-1.6-1.6-2.8-2.9-2.7-3s1.5,1.1,3,2.7
					C622.3,99.7,623.5,101.1,623.4,101.2z"/>
				<path class="st2" d="M570.1,69.3c-0.1,0.1-1.3-0.9-2.7-2.3c-1.4-1.4-2.4-2.6-2.3-2.7s1.3,0.9,2.7,2.3
					C569.2,68,570.2,69.2,570.1,69.3L570.1,69.3z"/>
				<path class="st2" d="M581.5,57.3c-0.1,0.1-1.3-0.9-2.6-2.2c-1.3-1.3-2.4-2.5-2.3-2.6c0.1-0.1,1.3,0.9,2.6,2.2
					C580.6,56,581.6,57.2,581.5,57.3z"/>
			</g>
			<path class="st1" d="M559,81.9c0-21.2,16.5-38.4,37.4-39.7c-0.8,0-1.6-0.1-2.4-0.1c-21.9,0-39.7,17.8-39.7,39.7
				s17.8,39.7,39.7,39.7c0.8,0,1.6,0,2.4-0.1C575.5,120.3,559,103,559,81.9L559,81.9z"/>
		</g>
		<g>
			<rect x="40" y="46.5" class="st2" width="111.9" height="176.8"/>
			<rect x="43" y="49.8" class="st1" width="105.4" height="170.6"/>
			<g>
				<rect x="95.7" y="59.8" class="st5" width="42" height="65.2"/>
				<path class="st2" d="M119,65.5c0,0.9-0.7,1.6-1.6,1.6s-1.6-0.7-1.6-1.6s0.7-1.6,1.6-1.6S119,64.7,119,65.5z"/>
			</g>
			<g>
				<rect x="53.4" y="143.2" class="st5" width="42.1" height="65.2"/>
				<path class="st2" d="M76.6,148.9c0,0.9-0.7,1.6-1.6,1.6s-1.6-0.7-1.6-1.6s0.7-1.6,1.6-1.6S76.6,148.1,76.6,148.9z"/>
			</g>
			<g>
				<rect x="52.8" y="59.8" class="st5" width="35.9" height="51"/>
				<path class="st2" d="M72.1,64.4c0,0.7-0.6,1.3-1.3,1.3s-1.3-0.6-1.3-1.3s0.6-1.3,1.3-1.3S72.1,63.7,72.1,64.4z"/>
			</g>
			<g>
				
					<rect x="101.8" y="146.1" transform="matrix(0.9937 -0.1122 0.1122 0.9937 -16.8286 14.5811)" class="st5" width="38.6" height="21.4"/>
				<path class="st2" d="M121.8,150.3c0,0.7-0.6,1.3-1.3,1.3s-1.3-0.6-1.3-1.3s0.6-1.3,1.3-1.3S121.8,149.5,121.8,150.3z"/>
			</g>
			<path class="st2" d="M89.8,158.1c0,0.2-6.6,0.3-14.8,0.3s-14.8-0.1-14.8-0.3s6.6-0.3,14.8-0.3C83.2,157.7,89.8,157.9,89.8,158.1z
				"/>
			<path class="st2" d="M89.8,162.7c0,0.2-6.6,0.3-14.8,0.3s-14.8-0.1-14.8-0.3s6.6-0.3,14.8-0.3S89.8,162.6,89.8,162.7z"/>
			<path class="st2" d="M89.8,167.4c0,0.2-6.6,0.3-14.8,0.3s-14.8-0.1-14.8-0.3s6.6-0.3,14.8-0.3C83.2,167.1,89.8,167.2,89.8,167.4z
				"/>
			<path class="st2" d="M89.8,172.1c0,0.2-6.6,0.3-14.8,0.3s-14.8-0.1-14.8-0.3s6.6-0.3,14.8-0.3S89.8,171.9,89.8,172.1z"/>
			<path class="st2" d="M89.8,176.7c0,0.2-6.6,0.3-14.8,0.3s-14.8-0.1-14.8-0.3s6.6-0.3,14.8-0.3S89.8,176.6,89.8,176.7z"/>
			<path class="st2" d="M89.8,181.4c0,0.2-6.6,0.3-14.8,0.3s-14.8-0.1-14.8-0.3s6.6-0.3,14.8-0.3C83.2,181.1,89.8,181.2,89.8,181.4z
				"/>
			<path class="st2" d="M89.8,186.1c0,0.2-6.6,0.3-14.8,0.3s-14.8-0.1-14.8-0.3s6.6-0.3,14.8-0.3C83.2,185.8,89.8,185.9,89.8,186.1z
				"/>
			<path class="st2" d="M135.6,153.1c0,0.2-6.5,1.2-14.6,2.4s-14.6,1.9-14.7,1.8c0-0.2,6.5-1.2,14.6-2.4
				C129,153.7,135.5,152.9,135.6,153.1L135.6,153.1z"/>
			<path class="st2" d="M136.2,156c0,0.2-6.5,1.2-14.6,2.4s-14.6,1.9-14.7,1.8s6.5-1.2,14.6-2.4C129.6,156.6,136.1,155.8,136.2,156
				L136.2,156z"/>
			<path class="st2" d="M136.7,158.7c0,0.2-6.5,1.2-14.6,2.4s-14.6,1.9-14.7,1.8s6.5-1.2,14.6-2.4
				C130.1,159.3,136.7,158.5,136.7,158.7L136.7,158.7z"/>
			<path class="st2" d="M134.1,73.4c0,0.2-7.5,0.3-16.7,0.3s-16.7-0.1-16.7-0.3s7.5-0.3,16.7-0.3S134.1,73.2,134.1,73.4z"/>
			<path class="st2" d="M134.1,76.2c0,0.2-7.5,0.3-16.7,0.3s-16.7-0.1-16.7-0.3s7.5-0.3,16.7-0.3S134.1,76,134.1,76.2z"/>
			<path class="st2" d="M134.1,79c0,0.2-7.5,0.3-16.7,0.3s-16.7-0.1-16.7-0.3s7.5-0.3,16.7-0.3S134.1,78.8,134.1,79z"/>
			<path class="st2" d="M134.1,81.7c0,0.2-7.5,0.3-16.7,0.3s-16.7-0.1-16.7-0.3s7.5-0.3,16.7-0.3S134.1,81.6,134.1,81.7z"/>
			<path class="st2" d="M134.1,84.5c0,0.2-7.5,0.3-16.7,0.3s-16.7-0.1-16.7-0.3s7.5-0.3,16.7-0.3S134.1,84.3,134.1,84.5z"/>
			<path class="st2" d="M134.1,87.3c0,0.2-7.5,0.3-16.7,0.3s-16.7-0.1-16.7-0.3s7.5-0.3,16.7-0.3S134.1,87.1,134.1,87.3z"/>
			<path class="st2" d="M134.1,90.1c0,0.2-7.5,0.3-16.7,0.3s-16.7-0.1-16.7-0.3s7.5-0.3,16.7-0.3S134.1,89.9,134.1,90.1z"/>
			<path class="st2" d="M134.1,98.3c0,0.2-7.5,0.3-16.7,0.3s-16.7-0.1-16.7-0.3s7.5-0.3,16.7-0.3S134.1,98.1,134.1,98.3z"/>
			<path class="st2" d="M134.3,101.2c0,0.2-7.5,0.3-16.7,0.3s-16.7-0.1-16.7-0.3s7.5-0.3,16.7-0.3S134.3,101.1,134.3,101.2z"/>
			<path class="st2" d="M134.6,104.2c0,0.2-7.5,0.3-16.7,0.3s-16.7-0.1-16.7-0.3s7.5-0.3,16.7-0.3S134.6,104,134.6,104.2z"/>
			<path class="st2" d="M134.8,107.1c0,0.2-7.5,0.3-16.7,0.3s-16.7-0.1-16.7-0.3s7.5-0.3,16.7-0.3S134.8,106.9,134.8,107.1z"/>
			<path class="st2" d="M135,110c0,0.2-7.5,0.3-16.7,0.3s-16.7-0.1-16.7-0.3s7.5-0.3,16.7-0.3S135,109.9,135,110z"/>
			<path class="st2" d="M135.3,113c0,0.2-7.5,0.3-16.7,0.3s-16.7-0.1-16.7-0.3s7.5-0.3,16.7-0.3S135.3,112.8,135.3,113z"/>
		</g>
	</g>
	<g id="Floor">
		<path class="st6" d="M680.3,672.6c0,0.2-149.2,0.4-333.3,0.4s-333.3-0.2-333.3-0.4s149.2-0.4,333.3-0.4S680.3,672.4,680.3,672.6z"
			/>
	</g>
	<g id="Tasks">
		<g>
			<g>
				<g>
					<g>
						<path class="st2" d="M500.9,519.3H196.6c-7.4,0-13.4-6-13.4-13.4V62.8c0-7.4,6-13.4,13.4-13.4h304.3c7.4,0,13.4,6,13.4,13.4
							v443.1C514.2,513.3,508.3,519.3,500.9,519.3L500.9,519.3z"/>
						<path class="st6" d="M500.9,519.3c0,0,0.3,0,1-0.1c0.7,0,1.7-0.2,3-0.6c1.3-0.4,2.8-1.1,4.4-2.4c1.5-1.2,3.1-3.1,4-5.5
							c0.5-1.2,0.8-2.6,0.9-4c0.1-1.5,0-3,0-4.6c0-3.2,0-6.8,0-10.6c0-7.7,0-16.6,0-26.5c0-40-0.1-97.8-0.1-169.2
							c0-35.7,0-74.8,0-116.8c0-21,0-42.7,0-65.1c0-11.2,0-22.5,0-34c0-5.8,0-11.5,0-17.4c-0.1-2.9-1.2-5.7-3-7.9
							c-1.8-2.2-4.4-3.8-7.2-4.5c-1.4-0.3-2.9-0.3-4.3-0.3H495c-3,0-6,0-8.9,0c-6,0-12,0-18,0c-12.1,0-24.3,0-36.7,0
							c-24.7,0-50,0-75.6,0c-51.4,0-104.6,0-159.1,0c-3.3,0-6.6,1.3-9,3.6c-2.4,2.3-3.9,5.5-4,8.8c-0.1,6.7,0,13.5,0,20.2
							c0,13.5,0,26.8,0,40.1c0,26.5,0,52.7,0,78.4c0,51.4,0,101,0,148.2c0,47.2,0,92.1,0,134.1c0,5.2,0,10.5,0,15.6
							c0,2.6,0,5.2,0,7.7c0.1,2.5,0.9,5,2.4,7c1.4,2,3.4,3.6,5.7,4.6c1.1,0.5,2.3,0.8,3.6,0.9c1.2,0.1,2.5,0.1,3.7,0.1
							c5,0,9.9,0,14.8,0c19.5,0,38.2,0,56.1,0c71.4,0,129.2,0.1,169.2,0.1c20,0,35.5,0,46,0.1c5.2,0,9.3,0,12,0
							C499.5,519.2,500.9,519.2,500.9,519.3c0,0-1.4,0-4.1,0c-2.7,0-6.7,0-12,0c-10.5,0-26,0-46,0.1c-40,0-97.8,0.1-169.2,0.1
							c-17.9,0-36.6,0-56.1,0c-4.9,0-9.8,0-14.8,0c-1.2,0-2.5,0-3.8-0.1c-1.3-0.2-2.5-0.5-3.7-0.9c-2.4-1-4.4-2.6-5.9-4.8
							c-1.5-2.1-2.4-4.7-2.5-7.3c-0.1-2.6,0-5.1,0-7.7c0-5.2,0-10.4,0-15.6c0-42,0-86.9,0-134.1c0-47.2,0-96.8,0-148.2
							c0-25.7,0-51.8,0-78.4c0-13.3,0-26.6,0-40.1c0-6.7,0-13.5,0-20.3c0.1-3.5,1.7-6.8,4.2-9.2c2.5-2.4,6-3.8,9.5-3.8
							c54.5,0,107.7,0,159.1,0c25.7,0,50.9,0,75.6,0c12.4,0,24.6,0,36.7,0c6,0,12.1,0,18,0c3,0,6,0,8.9,0h4.5c1.5,0,3,0,4.5,0.3
							c3,0.7,5.6,2.3,7.5,4.7c1.9,2.3,3,5.3,3.1,8.2c0,5.8,0,11.6,0,17.4c0,11.5,0,22.8,0,34c0,22.4,0,44.1,0,65.1
							c0,42,0,81.1,0,116.8c0,71.4-0.1,129.2-0.1,169.2c0,10,0,18.9,0,26.5c0,3.8,0,7.4,0,10.6c0,1.6,0,3.2,0,4.6
							c-0.1,1.5-0.4,2.9-0.9,4.1c-1,2.5-2.5,4.3-4.1,5.6c-1.6,1.2-3.1,2-4.4,2.4c-1.3,0.4-2.3,0.5-3,0.5
							C501.3,519.2,500.9,519.2,500.9,519.3L500.9,519.3z"/>
					</g>
					<g class="st7">
						<polygon class="st8" points="212.1,508.6 489.9,508.6 486.9,450.9 486.9,420.1 212.1,463 						"/>
					</g>
					<g class="st7">
						<polygon class="st8" points="432.3,50.4 438.6,69.1 438.6,78.3 431.5,78.3 						"/>
					</g>
					<g>
						<polygon class="st5" points="198,68.2 198,499.9 423.1,499.9 499.5,499.9 499.5,68.2 						"/>
						<path class="st6" d="M499.5,422.7c0,0,0-0.6,0-1.7c0-1.1,0-2.8,0-4.9c0-4.3,0-10.8,0-19.1c0-16.7,0-41.2-0.1-72.3
							c0-62.2-0.1-150.8-0.1-256.5l0.3,0.3c-89.1,0-192.2,0-301.5,0l0.3-0.3v0.4c0,165.9-0.1,317.5-0.1,431.2l-0.2-0.2
							c69.4,0,125.6,0.1,164.6,0.1c19.5,0,34.6,0,44.9,0.1c5.1,0,9,0,11.7,0c2.6,0,4,0,4,0s-1.4,0-4,0c-2.6,0-6.6,0-11.7,0
							c-10.3,0-25.4,0-44.9,0.1c-39,0-95.2,0.1-164.6,0.1h-0.2v-0.2c0-113.8-0.1-265.3-0.1-431.2v-0.7h0.3c109.3,0,212.4,0,301.5,0
							h0.3v0.3c0,105.6-0.1,194.2-0.1,256.5c0,31.1-0.1,55.6-0.1,72.3c0,8.4,0,14.8,0,19.1c0,2.2,0,3.8,0,4.9
							S499.5,422.7,499.5,422.7L499.5,422.7z"/>
					</g>
				</g>
				<g>
					<path class="st6" d="M432.3,81.9H279.7V46.8c0-5.1,4.1-9.2,9.2-9.2h134.2c5.1,0,9.2,4.1,9.2,9.2L432.3,81.9L432.3,81.9
						L432.3,81.9z"/>
					<polygon class="st6" points="375.4,21 336.6,21 341.1,54.3 370.4,54.3 					"/>
					<path class="st9" d="M422.5,37.7c0,0.2-29.8,0.3-66.5,0.3s-66.5-0.1-66.5-0.3s29.8-0.3,66.5-0.3S422.5,37.5,422.5,37.7z"/>
					<path class="st9" d="M283.1,74.8c-0.2,0-0.3-6.3-0.3-14s0.1-14,0.3-14s0.3,6.3,0.3,14S283.3,74.8,283.1,74.8z"/>
					<path class="st9" d="M427.3,71.5c-0.2,0-0.3-5.7-0.3-12.7s0.1-12.7,0.3-12.7s0.3,5.7,0.3,12.7S427.5,71.5,427.3,71.5z"/>
					<path class="st9" d="M420,77.4c0,0.2-30.5,0.3-68.2,0.3s-68.2-0.1-68.2-0.3s30.5-0.3,68.2-0.3S420,77.2,420,77.4z"/>
				</g>
			</g>
			<g>
				<rect x="294.8" y="151.1" class="st2" width="166.5" height="10.2"/>
				<rect x="294.8" y="172" class="st2" width="75.5" height="10.2"/>
				<g>
					<path class="st10" d="M272.3,185.2H245c-3.1,0-5.6-2.5-5.6-5.6v-27.3c0-3.1,2.5-5.6,5.6-5.6h27.3c3.1,0,5.6,2.5,5.6,5.6v27.3
						C277.9,182.7,275.4,185.2,272.3,185.2z"/>
					<polygon class="st5" points="258,175.1 247.3,166.8 250.2,163 257.4,168.6 267.7,156.8 271.3,159.9 					"/>
				</g>
			</g>
			<rect x="294.8" y="214.4" class="st2" width="166.5" height="10.2"/>
			<rect x="294.8" y="235.3" class="st2" width="75.5" height="10.2"/>
			<g>
				<path class="st10" d="M272.3,248.6H245c-3.1,0-5.6-2.5-5.6-5.6v-27.3c0-3.1,2.5-5.6,5.6-5.6h27.3c3.1,0,5.6,2.5,5.6,5.6V243
					C277.9,246.1,275.4,248.6,272.3,248.6z"/>
				<polygon class="st5" points="258,238.5 247.3,230.1 250.2,226.4 257.4,232 267.7,220.1 271.3,223.3 				"/>
			</g>
			<rect x="294.8" y="282.3" class="st2" width="166.5" height="10.2"/>
			<rect x="294.8" y="303.2" class="st2" width="75.5" height="10.2"/>
			<rect x="294.8" y="345.1" class="st2" width="166.5" height="10.2"/>
			<rect x="294.8" y="366" class="st2" width="75.5" height="10.2"/>
			<g>
				<path class="st10" d="M272.3,316.5H245c-3.1,0-5.6-2.5-5.6-5.6v-27.3c0-3.1,2.5-5.6,5.6-5.6h27.3c3.1,0,5.6,2.5,5.6,5.6v27.3
					C277.9,314,275.4,316.5,272.3,316.5z"/>
				<polygon class="st5" points="258,306.4 247.3,298 250.2,294.3 257.4,299.9 267.7,288 271.3,291.2 				"/>
			</g>
			<path class="st11" d="M272.8,381.7h-28.4c-3.1,0-5.7-2.5-5.7-5.7v-28.4c0-3.1,2.6-5.7,5.7-5.7h28.4c3.1,0,5.7,2.5,5.7,5.7V376
				C278.5,379.1,276,381.7,272.8,381.7z M244.4,343.2c-2.4,0-4.4,2-4.4,4.4V376c0,2.4,2,4.4,4.4,4.4h28.4c2.4,0,4.4-2,4.4-4.4v-28.4
				c0-2.4-2-4.4-4.4-4.4H244.4z"/>
			<rect x="294.8" y="416.9" class="st2" width="166.5" height="10.2"/>
			<rect x="294.8" y="437.8" class="st2" width="75.5" height="10.2"/>
			<path class="st11" d="M272.8,453.5h-28.4c-3.1,0-5.7-2.5-5.7-5.7v-28.4c0-3.1,2.6-5.7,5.7-5.7h28.4c3.1,0,5.7,2.5,5.7,5.7v28.4
				C278.5,450.9,276,453.5,272.8,453.5z M244.4,415c-2.4,0-4.4,2-4.4,4.4v28.4c0,2.4,2,4.4,4.4,4.4h28.4c2.4,0,4.4-2,4.4-4.4v-28.4
				c0-2.4-2-4.4-4.4-4.4H244.4z"/>
			<rect x="274.8" y="111.4" class="st10" width="166" height="14.2"/>
		</g>
	</g>
	<g id="Plant">
		<g>
			<g>
				<path class="st6" d="M303.4,638.4c0,0-5-34.4-4.6-54.3s0-42.5,0-42.5h2.3c0,0-1.6,39.7,0.1,63.6c1.7,23.9,6.2,33.2,6.2,33.2
					L303.4,638.4"/>
				<path class="st12" d="M318.3,502.9c-0.5-1.2-1-2.4-2.1-3.1c-1.5-0.9-3.4-0.5-5,0c-7,2.5-13.1,15.4-15.9,22.3l9.2,31.1
					C321.2,537.8,324,517.5,318.3,502.9L318.3,502.9z"/>
				<path class="st6" d="M315.6,501.1c0,0,0,0.1-0.1,0.4c-0.1,0.3-0.3,0.7-0.5,1.1c-0.4,1-1,2.4-1.6,4.2c-1.4,3.5-3.1,8.5-4.6,14
					c-1.5,5.6-2.6,10.7-3.3,14.4c-0.3,1.9-0.6,3.4-0.7,4.4c-0.1,0.5-0.1,0.9-0.2,1.2c0,0.3-0.1,0.4-0.1,0.4s0-0.2,0-0.4
					c0-0.3,0.1-0.7,0.1-1.2c0.1-1,0.3-2.6,0.6-4.5c0.6-3.8,1.6-8.9,3.2-14.5c1.5-5.6,3.3-10.5,4.8-14c0.7-1.8,1.3-3.2,1.8-4.1
					c0.2-0.5,0.4-0.8,0.5-1.1C315.6,501.2,315.7,501.1,315.6,501.1L315.6,501.1z"/>
				<path class="st9" d="M300.4,560.7c-8.7-4.8-13.8-13.8-14.2-23.7c-0.3-6.9,1.8-13.7,4.2-20.2c0.2-0.6,0.5-1.2,1-1.5
					c0.7-0.4,1.6,0,2.4,0.4c6.3,3.6,10.1,10.4,12.1,17.4c1.4,4.6,2,9.5,1.4,14.3C306.6,552.2,303.9,557.4,300.4,560.7"/>
				<path class="st6" d="M300.4,560.7c0,0,0-0.1,0-0.4c0-0.3,0-0.7,0-1.2c0-1,0-2.5-0.1-4.4c-0.2-3.7-0.6-8.8-1.6-14.4
					s-2.1-10.6-3-14.2c-0.4-1.8-0.8-3.2-1-4.3c-0.1-0.5-0.2-0.9-0.3-1.2c-0.1-0.3-0.1-0.4-0.1-0.4s0.1,0.1,0.1,0.4
					c0.1,0.3,0.2,0.7,0.3,1.2c0.3,1,0.7,2.5,1.1,4.2c0.9,3.6,2.1,8.6,3.1,14.2c1,5.6,1.4,10.7,1.5,14.4c0,1.9,0,3.4,0,4.4
					c0,0.5,0,0.9,0,1.2C300.4,560.6,300.4,560.7,300.4,560.7L300.4,560.7z"/>
				<g>
					<path class="st11" d="M300.4,560.7c-8.7-4.8-13.8-13.8-14.2-23.7c-0.3-6.9,1.8-13.7,4.2-20.2c0.2-0.6,0.5-1.2,1-1.5
						c0.7-0.4,1.6,0,2.4,0.4c6.3,3.6,10.1,10.4,12.1,17.4c1.4,4.6,2,9.5,1.4,14.3C306.6,552.2,303.9,557.4,300.4,560.7"/>
				</g>
				<path class="st12" d="M310.1,613.3c8.5,1.9,15.5,7.9,23.8,10.8c5.4,1.9,11.6,2.6,15.9,6.4c-1-2.6-3.5-4.4-5.9-5.9
					c-6.8-4.2-14-7.7-21.5-10.3c-3.9-1.3-8.1-2.5-12-1.3"/>
				<path class="st12" d="M297.8,620.9c-10.7-0.2-21.9-9.3-32.5-9.8C276.4,607.5,292.3,610.4,297.8,620.9"/>
				<path class="st12" d="M302,595.3c5.4-2,11.4-2,17.1-1.2c5.7,0.9,11.2,2.7,16.7,4.5c-0.5-3.7-3.5-6.5-6.4-9
					c-2.1-1.9-4.3-3.7-6.7-5.1c-2.4-1.4-5.2-2.4-8-2.3c-3.4,0.1-6.6,1.9-8.9,4.5C303.6,589.4,302.4,591.9,302,595.3"/>
				<path class="st9" d="M280.1,583.5c-6.7-5.7-16.9-5.2-25.7-5c13.6,6.5,28.2,15.4,39.9,24.9C294.6,597.2,288.6,590.8,280.1,583.5
					L280.1,583.5z"/>
				<g>
					<path class="st11" d="M280.1,583.5c-6.7-5.7-16.9-5.2-25.7-5c13.6,6.5,28.2,15.4,39.9,24.9
						C294.6,597.2,288.6,590.8,280.1,583.5L280.1,583.5z"/>
				</g>
				<path class="st12" d="M305,575.6c3.4-2.2,6.8-4.4,10.3-6c3.5-1.6,6.8-4.2,10.2-6c4.4-2.4,8.3-5.7,12.3-8.7
					c4.1-3,8.5-5.7,13.5-6.4c-4.1-0.8-8.3-0.4-12.3,0.7s-7.8,2.8-11.6,4.5c-5.2,2.4-10.6,4.8-14.9,8.6
					C308.4,566.1,304.5,569.9,305,575.6"/>
				<path class="st6" d="M333.7,620.9c0,0-0.1,0-0.3-0.2c-0.2-0.1-0.6-0.3-0.9-0.5c-0.8-0.4-2-1.1-3.4-1.8c-0.7-0.4-1.5-0.8-2.4-1.2
					c-0.9-0.4-1.8-0.8-2.8-1.3c-2-0.8-4.2-1.7-6.6-2.3c-2.4-0.6-4.8-0.7-6.9-0.2c-1,0.2-2,0.5-2.9,0.9c-0.9,0.4-1.7,0.8-2.3,1.2
					c-1.4,0.9-2.3,1.8-2.9,2.4s-0.9,1.1-1,1c0,0,0.1-0.1,0.2-0.3c0.1-0.2,0.4-0.5,0.6-0.8c0.6-0.7,1.5-1.7,2.9-2.6
					c0.7-0.5,1.5-0.9,2.4-1.3c0.9-0.4,1.9-0.7,2.9-0.9c2.1-0.6,4.6-0.5,7,0.1c2.4,0.6,4.6,1.5,6.6,2.3c1,0.4,1.9,0.9,2.8,1.3
					c0.9,0.4,1.7,0.8,2.4,1.2c1.4,0.8,2.6,1.4,3.4,1.9c0.4,0.2,0.6,0.4,0.9,0.5C333.6,620.8,333.7,620.9,333.7,620.9L333.7,620.9z"
					/>
				<path class="st6" d="M289.9,615.6c0,0,0.2,0,0.7,0.2c0.4,0.1,1,0.4,1.7,0.8c1.4,0.7,3.3,1.9,5.1,3.6c1.8,1.7,3,3.5,3.8,5
					c0.4,0.7,0.7,1.3,0.8,1.7c0.2,0.4,0.2,0.7,0.2,0.7c-0.1,0-0.5-0.9-1.3-2.2c-0.8-1.4-2.1-3.1-3.9-4.8c-1.7-1.7-3.6-2.9-5-3.7
					C290.8,616,289.8,615.7,289.9,615.6L289.9,615.6z"/>
				<path class="st6" d="M266.2,583c0,0,0.2,0,0.5,0.1c0.3,0.1,0.8,0.3,1.3,0.5c0.6,0.2,1.2,0.5,2,0.7c0.8,0.3,1.6,0.7,2.6,1.2
					c3.8,1.7,9,4.7,13.9,8.8c2.4,2.1,4.6,4.3,6.5,6.4c1.8,2.1,3.4,4.1,4.6,5.8c1.2,1.7,2.1,3.2,2.8,4.2c0.3,0.5,0.5,0.8,0.7,1.1
					c0.2,0.3,0.2,0.4,0.2,0.4c0,0-0.1-0.1-0.3-0.4s-0.5-0.6-0.8-1.1c-0.7-1-1.6-2.4-2.9-4.1c-1.2-1.7-2.8-3.7-4.6-5.8
					c-1.9-2.1-4-4.2-6.5-6.3c-4.9-4.2-10-7.1-13.8-8.9c-1-0.4-1.8-0.9-2.6-1.2c-0.8-0.3-1.4-0.6-2-0.8c-0.5-0.2-0.9-0.4-1.2-0.5
					C266.4,583.1,266.3,583,266.2,583L266.2,583z"/>
				<path class="st6" d="M318,589.3c0,0-0.3,0-0.9-0.1c-0.3,0-0.6-0.1-1-0.2c-0.4-0.1-0.8-0.1-1.3-0.1c-1.9-0.1-4.7,0-7.3,1.5
					c-1.3,0.7-2.4,1.6-3.3,2.5c-0.9,0.9-1.6,1.8-2.1,2.7c-1.1,1.6-1.4,2.8-1.5,2.8c0,0,0-0.3,0.2-0.8c0.2-0.5,0.5-1.3,1-2.1
					c0.5-0.8,1.2-1.8,2.1-2.8c0.9-0.9,2-1.9,3.4-2.6c2.7-1.5,5.6-1.6,7.5-1.4c0.5,0.1,0.9,0.1,1.3,0.2c0.4,0.1,0.7,0.2,1,0.2
					C317.7,589.2,318,589.3,318,589.3L318,589.3z"/>
				<path class="st6" d="M328.7,556c0,0-0.1,0.1-0.4,0.2c-0.3,0.2-0.7,0.4-1.2,0.7c-1,0.6-2.5,1.4-4.3,2.5c-1.8,1.1-3.9,2.4-6.2,4
					c-2.2,1.6-4.7,3.5-6.9,5.8c-1.1,1.2-2.1,2.3-2.8,3.7c-0.7,1.3-1.4,2.6-2,3.9c-1.2,2.5-2.2,4.8-3,6.8c-0.7,2-1.2,3.6-1.4,4.8
					s-0.4,1.8-0.4,1.8c0,0,0-0.2,0-0.5s0.1-0.8,0.2-1.3c0.2-1.2,0.6-2.8,1.3-4.8c0.7-2,1.7-4.3,2.9-6.8c0.6-1.2,1.3-2.6,2-3.9
					c0.7-1.4,1.8-2.6,2.9-3.8c2.3-2.3,4.7-4.2,7-5.8c2.3-1.6,4.4-2.9,6.2-4c1.8-1,3.4-1.8,4.4-2.3c0.5-0.2,0.9-0.4,1.2-0.6
					C328.6,556.1,328.7,556,328.7,556L328.7,556z"/>
				<path class="st6" d="M298.8,588.3c0,0-0.1-0.3-0.2-0.9c-0.1-0.7-0.3-1.5-0.5-2.5c-0.4-2.1-1-4.9-2-8c-1-3.1-2.2-5.8-3-7.7
					c-0.4-0.9-0.8-1.7-1-2.3c-0.2-0.5-0.4-0.8-0.3-0.9s0.2,0.3,0.5,0.8s0.7,1.3,1.1,2.2c0.9,1.9,2.2,4.6,3.2,7.7
					c1,3.1,1.6,6,1.9,8.1c0.2,1,0.3,1.9,0.4,2.5C298.8,588,298.8,588.3,298.8,588.3L298.8,588.3z"/>
				<path class="st12" d="M298,564.1c-0.3-4-1.6-8-3.5-11.5c-5.2-9.8-14.9-17-25.8-19.2c8,11.9,15.9,23.7,23.9,35.6l3.1,6.3
					C297.8,571.8,298.3,568.1,298,564.1L298,564.1z"/>
			</g>
			<g>
				<rect x="276.8" y="634.2" class="st10" width="55.5" height="9.8"/>
				<polygon class="st10" points="280.9,642 285.6,672.6 322.5,672.6 328.1,642 				"/>
				<path class="st6" d="M332.2,644c0,0.1-12.5,0.2-28,0.2s-28-0.1-28-0.2s12.5-0.2,28-0.2S332.2,643.9,332.2,644z"/>
			</g>
		</g>
	</g>
	<g id="Speech_Bubble_2">
		<g>
			<g>
				<path class="st5" d="M537.5,292.1l-2.9-7c1.8-5.5,1.9-11.5,0-17.5c-4.4-14.1-19.1-22.6-33.5-19.6c-16.6,3.5-26.7,20.6-21.6,36.9
					c4.4,13.9,18.7,22.4,33,19.6c7.1-1.4,13-5.2,17.1-10.4l0,0L537.5,292.1L537.5,292.1z"/>
				<path class="st6" d="M537.5,292.1c0,0-0.2,0.1-0.5,0.2c-0.4,0.1-0.8,0.2-1.5,0.4c-1.4,0.4-3.3,1-5.8,1.7c-0.1,0-0.2,0-0.2-0.1
					c0,0,0-0.1,0-0.1l0,0l0.2,0.1c-2.2,2.8-5.7,6.3-11,8.6c-2.6,1.2-5.6,2-8.9,2.4c-3.3,0.3-6.9,0.1-10.5-0.9
					c-3.6-1-7.2-2.7-10.4-5.2c-3.2-2.5-6-5.8-8-9.7c-2-3.9-3.1-8.4-3.1-13c-0.1-4.6,1.1-9.3,3.3-13.6c2.2-4.3,5.5-8,9.4-10.6
					c3.9-2.6,8.2-4.2,12.6-4.8c4.4-0.6,8.7-0.1,12.6,1.1c3.9,1.2,7.4,3.2,10.2,5.7c2.8,2.4,5.1,5.3,6.6,8.2c0.4,0.8,0.7,1.5,1.1,2.2
					c0.3,0.7,0.6,1.5,0.8,2.2c0.5,1.5,0.9,2.9,1.1,4.3c1,5.7,0.1,10.5-1,13.9V285c0.9,2.2,1.6,4,2.1,5.2c0.2,0.6,0.4,1,0.5,1.3
					C537.5,291.9,537.5,292.1,537.5,292.1c0,0-0.1-0.2-0.3-0.5c-0.2-0.3-0.3-0.8-0.6-1.4c-0.5-1.2-1.3-2.9-2.2-5.1c0,0,0-0.1,0-0.1
					c1-3.4,1.9-8.1,0.8-13.7c-0.3-1.4-0.6-2.8-1.1-4.3c-0.3-0.7-0.5-1.5-0.8-2.2c-0.3-0.7-0.7-1.4-1.1-2.2c-1.6-2.9-3.8-5.7-6.6-8
					c-2.8-2.4-6.2-4.3-10-5.5c-3.8-1.2-8.1-1.7-12.4-1.1c-4.3,0.6-8.5,2.2-12.3,4.8c-3.8,2.5-7,6.1-9.1,10.4
					c-2.2,4.2-3.3,8.8-3.2,13.3c0,4.5,1.1,8.9,3,12.7c1.9,3.8,4.7,7,7.8,9.5c3.1,2.5,6.6,4.2,10.1,5.2c3.5,1,7,1.2,10.3,0.9
					c3.2-0.3,6.2-1.1,8.8-2.3c5.2-2.2,8.7-5.6,11-8.4c0-0.1,0.1-0.1,0.2,0c0,0,0.1,0.1,0,0.2l0,0l-0.2-0.2c2.5-0.7,4.4-1.2,5.8-1.5
					c0.6-0.2,1.2-0.3,1.5-0.4C537.3,292.1,537.5,292.1,537.5,292.1L537.5,292.1z"/>
			</g>
			<g>
				<circle class="st6" cx="497.2" cy="277.1" r="3.2"/>
				<path class="st6" d="M511,277.1c0,1.7-1.4,3.2-3.2,3.2s-3.2-1.4-3.2-3.2s1.4-3.2,3.2-3.2S511,275.3,511,277.1z"/>
				<circle class="st6" cx="518.2" cy="277.1" r="3.2"/>
			</g>
		</g>
	</g>
	<g id="Speech_Bubble_1">
		<g>
			<g>
				<path class="st5" d="M154.3,232.6l1.4-8.1c-2.4-4.3-3.8-9.2-3.6-14.5c0.5-15.1,13.2-27,28.3-26.5c15.1,0.5,27,13.2,26.5,28.3
					c-0.5,15.1-13.2,27-28.3,26.5c-6.3-0.2-12.1-2.6-16.6-6.3l0,0L154.3,232.6L154.3,232.6z"/>
				<path class="st6" d="M154.3,232.6c0,0,0.1,0,0.5,0c0.4,0,0.8,0,1.5-0.1c1.3-0.1,3.3-0.2,5.8-0.3c0.1,0,0.1-0.1,0.1-0.1
					c0,0,0,0,0-0.1l0,0l-0.2,0.1c2.6,2.2,6.6,4.7,12,5.8c1.3,0.3,2.8,0.5,4.2,0.5c0.7,0.1,1.5,0,2.2,0c0.4,0,0.8,0,1.2,0
					c0.4,0,0.8-0.1,1.2-0.1c3.1-0.4,6.4-1.3,9.6-2.9c3.1-1.6,6.1-4,8.6-7c2.5-3,4.4-6.6,5.4-10.7c1.1-4,1.1-8.4,0.2-12.8
					c-0.4-2.2-1.2-4.2-2.2-6.3c-1.1-2-2.2-3.9-3.8-5.7c-1.4-1.8-3.2-3.2-4.9-4.6c-1.9-1.2-3.8-2.4-5.8-3.1
					c-4.1-1.6-8.4-2.3-12.5-1.9c-4.1,0.3-8,1.6-11.4,3.5c-3.4,1.9-6.2,4.4-8.3,7.2c-4.3,5.6-5.9,12.2-5.7,17.6
					c0.2,5.5,1.9,9.9,3.7,12.9v-0.1c-0.4,2.6-0.8,4.6-1,6c-0.1,0.6-0.2,1.2-0.2,1.5C154.3,232.4,154.3,232.6,154.3,232.6
					c0,0,0-0.2,0.1-0.5c0.1-0.4,0.2-0.9,0.3-1.6c0.2-1.4,0.6-3.4,1.1-5.9c0,0,0-0.1,0-0.1c-1.7-3-3.4-7.3-3.5-12.7
					c-0.1-5.4,1.4-11.8,5.7-17.3c2.1-2.7,4.9-5.2,8.2-7.1c3.3-1.9,7.1-3.1,11.2-3.4c4-0.4,8.3,0.3,12.2,1.9c2,0.7,3.9,1.9,5.7,3.1
					c1.7,1.3,3.4,2.8,4.9,4.5c1.5,1.7,2.6,3.6,3.7,5.5c0.9,2,1.7,4,2.1,6.2c0.9,4.2,0.9,8.5-0.1,12.5c-1,4-2.9,7.6-5.3,10.5
					c-2.4,3-5.3,5.3-8.4,6.9c-3.1,1.6-6.3,2.6-9.4,2.9c-0.4,0.1-0.8,0.1-1.1,0.1c-0.4,0-0.8,0-1.1,0c-0.8,0-1.5,0.1-2.2,0
					c-1.5-0.1-2.9-0.2-4.2-0.5c-5.3-1.1-9.3-3.5-11.9-5.6c-0.1,0-0.1,0-0.2,0c0,0,0,0.1,0,0.1l0,0l0.1-0.2c-2.5,0.2-4.4,0.4-5.7,0.4
					c-0.6,0.1-1.1,0.1-1.5,0.1C154.5,232.5,154.3,232.5,154.3,232.6L154.3,232.6z"/>
			</g>
			<polygon class="st10" points="167.6,212.8 170.6,209.8 176.4,215 187.9,204 190.7,207 176,220.8 			"/>
		</g>
	</g>
	<g id="Character_2">
		<g>
			<g>
				<path class="st9" d="M653.2,528.6c0-0.3,0.1-0.7,0.1-1c0.3-6.5-2.4-12.8-4.9-18.8c-6.8-16.1-13.4-33.2-11.5-50.6
					c2.5-23,19.4-42,25.5-64.2c0.7-2.6,3.1-4.4,5.8-4.4l0,0c4.1,0,7,4,5.8,7.8c-6.7,20.8-22,39-24.5,60.8
					c-1.9,17.4,4.7,34.5,11.5,50.6c2.5,6,5.2,12.2,4.9,18.8s-4.5,13.4-10.9,14.4h-96c-3.3,0-6.1-2.7-6.1-6v-1.3c0-3.3,2.7-6,6.1-6
					H653.2L653.2,528.6z"/>
				<path class="st2" d="M672.5,672.6H533.1c-2,0-3.8-1-5-2.6c-1.4-1.9-1.8-4.4-1-6.7l39.7-121.6l2.1,0.7l-39.7,121.6
					c-0.5,1.6-0.3,3.4,0.7,4.8c0.8,1.1,2,1.7,3.2,1.7h139.4c1.2,0,2.3-0.6,3.2-1.7c1-1.3,1.3-3,0.8-4.6l-34.1-121.8l2.1-0.6
					l34.1,121.8c0.6,2.3,0.2,4.7-1.2,6.5C676.2,671.7,674.4,672.6,672.5,672.6L672.5,672.6z"/>
			</g>
			<g>
				<g>
					<path class="st13" d="M477,451.9c0,0,5.1-12.3,10.1-14.9c5-2.6,11.4-4.3,11.4-4.3h22.3l0.2,14.5c0,0-3.2,3.2-7.6,2.6
						s-15.5-3.3-15.5-3.3l-5.4,0.3l-5,6.4c0,0-4.1,1.2-2.6-2.6c1.4-3.9,2.1-5.5,2.1-5.5s-4.8,7.5-6.7,7.8S477,451.9,477,451.9
						L477,451.9z"/>
					<path class="st14" d="M569.3,405.4l-17.8,25.5l-30.7,1.8l-0.4,14l23.1,4.5c12,2.4,24.4-1.3,33.2-9.9l0,0l3.4-30.9L569.3,405.4
						L569.3,405.4z"/>
				</g>
				<g>
					<path class="st6" d="M555.5,617.3l20.7,20.2c0,0-14.9,28.8-11.5,32.9l43.1-40.5L577,597L555.5,617.3L555.5,617.3z"/>
					<path class="st2" d="M587.8,623.2c1-0.6,2.5-0.2,3,0.8s0.1,2.4-0.9,3s-2.7,0.2-3.2-0.8c-0.4-1,0.1-2.7,1.3-3.1"/>
					<path class="st9" d="M607.8,629.8l-3.2-3.2l-40.1,40.1c0,0-1.2,2.6,0.2,3.7L607.8,629.8z"/>
					<path class="st5" d="M575.2,637.9c0.2,0.2,1.3-0.7,3-1c1.6-0.4,3,0,3.1-0.3c0.2-0.2-1.3-1.1-3.3-0.7
						C576.1,636.4,575,637.8,575.2,637.9L575.2,637.9z"/>
					<path class="st5" d="M572.4,644c0.1,0.2,1.4-0.3,2.9-0.1c1.5,0.1,2.6,0.9,2.8,0.7c0.2-0.2-0.7-1.5-2.6-1.6
						C573.5,642.7,572.2,643.8,572.4,644L572.4,644z"/>
					<path class="st5" d="M574.7,651.5c0.2-0.1-0.4-1.4-2-2c-1.6-0.6-3-0.1-2.9,0.2c0,0.3,1.2,0.3,2.5,0.8
						C573.6,650.9,574.4,651.6,574.7,651.5L574.7,651.5z"/>
					<path class="st5" d="M571.1,632.8c0.3,0.1,1-1.1,2.2-2.1c1.2-1.1,2.5-1.6,2.5-1.8c0-0.3-1.6-0.1-3.1,1.1
						C571.2,631.2,570.8,632.7,571.1,632.8L571.1,632.8z"/>
				</g>
				<path class="st6" d="M557.9,473.4c-3.8,0-95.7,26.8-105.7,35.9c-10,9.1-17.4,121.1-17.4,121.1l38.6,13.2c0,0,8.1-54.7,13-72.4
					c3.9-14,3-27.2,3-27.2l76.3-33.2L557.9,473.4L557.9,473.4z"/>
				<g>
					<path class="st6" d="M560.2,479.3c-1.7,0.8-68.5,29.3-74.8,48.4c-5.1,15.6,0.8,29.3,8,40c8.1,12.1,67.3,66.1,67.3,66.1L594,610
						l-57.3-59.1c0,0,30-18.5,31.1-18.5s32.3-2.1,42.2-3.2c9.2-1,14.3-14.3,14.3-14.3l8.2-38l-62-14.3L560.2,479.3L560.2,479.3z"/>
					<path class="st9" d="M560.2,479.3c0,0,0.2-0.4,0.7-1.1c0.5-0.7,1.1-1.8,2-3.2c1.7-2.9,4.3-7.1,7.7-12.6l0-0.1l0.1,0
						c13.8,3.2,35.1,8,62,14.2l0.2,0l0,0.2c-2.5,11.4-5.2,24.3-8.2,38v0l0,0c-1.4,3.4-3.3,6.7-5.9,9.5c-1.3,1.4-2.8,2.7-4.5,3.6
						c-0.4,0.2-0.9,0.5-1.3,0.6c-0.5,0.2-0.9,0.4-1.4,0.5c-0.5,0.1-1,0.2-1.5,0.3l-1.5,0.2c-7.8,0.8-15.9,1.3-24.2,2
						c-4.2,0.3-8.4,0.6-12.7,0.9c-1.1,0.1-2.1,0.1-3.2,0.2l-0.4,0c-0.1,0-0.1,0-0.1,0c0,0-0.1,0-0.2,0.1c-0.2,0.1-0.5,0.2-0.7,0.3
						l-1.4,0.8c-1.9,1.1-3.8,2.2-5.6,3.3c-7.5,4.5-15.2,9.2-23,14l0-0.4c14.3,14.7,29.3,30.2,44.7,46.2c4.2,4.4,8.4,8.7,12.5,13
						l0.2,0.2l-0.3,0.2c-11.4,8.1-22.5,16.1-33.4,23.9l-0.2,0.1l-0.2-0.2c-12-11-23.5-21.7-34.3-32.1c-5.5-5.2-10.8-10.3-15.9-15.5
						c-5.1-5.1-10-10.1-14.5-15.3c-0.6-0.6-1.1-1.3-1.6-2c-0.5-0.7-1-1.3-1.5-2.1c-0.9-1.4-1.8-2.8-2.6-4.3c-1.6-2.9-3-5.9-4.1-8.9
						c-1.1-3-1.9-6.2-2.3-9.3s-0.4-6.2-0.1-9.2c0.3-3,1-5.9,2.1-8.7c1.2-2.7,3-4.9,4.9-7c3.9-4,8.2-7.2,12.3-10.1
						c8.4-5.8,16.3-10.2,23.4-14c7-3.8,13.2-6.8,18.2-9.2s9-4.1,11.6-5.3c1.3-0.6,2.3-1,3-1.3S560.2,479.3,560.2,479.3
						c0,0-0.4,0.2-1,0.5c-0.7,0.3-1.7,0.8-3,1.4c-2.7,1.2-6.6,3-11.6,5.4c-5,2.4-11.2,5.5-18.2,9.2c-7,3.8-15,8.3-23.3,14.1
						c-4.1,2.9-8.4,6.1-12.2,10.1c-1.9,2-3.7,4.2-4.8,6.9c-1,2.7-1.7,5.6-2,8.5c-0.3,3-0.3,6,0.1,9.1s1.2,6.2,2.3,9.2
						c1.1,3,2.5,6,4.1,8.9c0.8,1.5,1.7,2.9,2.6,4.3c0.4,0.7,1,1.4,1.5,2c0.5,0.7,1,1.4,1.6,2c4.4,5.2,9.4,10.2,14.5,15.3
						c5.1,5.1,10.4,10.2,15.9,15.4c10.9,10.4,22.4,21.1,34.4,32.1l-0.3,0c10.8-7.8,22-15.7,33.4-23.9l0,0.4
						c-4.2-4.3-8.3-8.6-12.5-13c-15.4-15.9-30.5-31.5-44.7-46.2l-0.2-0.2l0.3-0.2c7.8-4.8,15.4-9.5,23-14c1.9-1.1,3.8-2.2,5.7-3.3
						l1.4-0.8c0.2-0.1,0.5-0.2,0.7-0.4c0.1,0,0.1-0.1,0.2-0.1c0.1,0,0.2-0.1,0.3-0.1l0.4,0c1.1-0.1,2.1-0.1,3.2-0.2
						c4.3-0.3,8.5-0.6,12.7-0.8c8.3-0.6,16.4-1.2,24.2-1.9c2-0.1,3.8-0.5,5.5-1.4c1.7-0.9,3.2-2.1,4.4-3.5c2.5-2.8,4.4-6,5.8-9.4v0
						c3-13.8,5.8-26.6,8.3-38l0.2,0.2c-26.9-6.2-48.1-11.2-62-14.4l0.1,0c-3.4,5.5-6,9.7-7.8,12.5c-0.9,1.4-1.5,2.5-2,3.2
						C560.4,479,560.2,479.3,560.2,479.3L560.2,479.3z"/>
				</g>
				<g>
					<g>
						<path class="st6" d="M566.3,296.5c-3,0.6-6.3-1.4-7.2-4.3s0.7-6.4,3.5-7.6c-2.1-1.8-2.8-4.9-1.8-7.4c1-2.5,3.8-4.2,6.5-4
							c-0.1-2.7,1.2-5.4,3.5-6.9c2.2-1.5,5.3-1.7,7.7-0.5c2.7-2.8,7.5-3.3,10.7-1.2c2.5-0.7,5.5,0.4,6.9,2.7s1.2,5.4-0.5,7.4"/>
						<g>
							<g>
								<path class="st14" d="M591.1,270.7l-1.4,0.1c-13.8,1.2-24.3,12.8-24.2,26.7c0.1,12.9,0.4,27.1,1.1,34
									c1.4,14.2,15.8,15.1,15.8,15.1l0.3,17.2l34.4-4.1l-2.4-62.2C614.6,282.6,606,270.2,591.1,270.7L591.1,270.7z"/>
								<path class="st13" d="M582.4,346.6c0,0,9-0.3,18-7.1c0,0-3.7,10.9-18,10.9L582.4,346.6L582.4,346.6z"/>
								<path class="st6" d="M570.6,310.7c0.1,1.1,1,1.9,2.1,1.9c1.1,0,2-0.9,1.9-2s-1-1.9-2.1-1.9
									C571.4,308.7,570.5,309.6,570.6,310.7L570.6,310.7z"/>
								<path class="st6" d="M569.2,304.2c0.3,0.2,1.7-1,3.9-1.2c2.2-0.2,3.9,0.8,4.1,0.5c0.1-0.1-0.2-0.6-0.9-1
									c-0.7-0.5-2-0.8-3.3-0.7c-1.4,0.1-2.5,0.7-3.1,1.3C569.2,303.6,569,304.1,569.2,304.2L569.2,304.2z"/>
								<path class="st6" d="M590.2,309.5c0.1,1.1,1,1.9,2.1,1.9s2-0.9,1.9-2s-1-1.9-2.1-1.9C591,307.6,590.2,308.5,590.2,309.5
									L590.2,309.5z"/>
								<path class="st6" d="M590.7,302.7c0.3,0.2,1.7-1,3.9-1.2c2.2-0.2,3.9,0.8,4.1,0.5c0.1-0.1-0.2-0.6-0.9-1
									c-0.7-0.4-2-0.8-3.3-0.7c-1.4,0.1-2.5,0.7-3.1,1.3C590.7,302.1,590.5,302.6,590.7,302.7L590.7,302.7z"/>
								<path class="st6" d="M584.2,319.6c0-0.1-1.4-0.2-3.6-0.3c-0.6,0-1.1-0.1-1.2-0.4c-0.2-0.4,0-1,0.2-1.7
									c0.4-1.4,0.8-2.9,1.3-4.4c1.8-6.2,3-11.4,2.7-11.4s-1.9,4.9-3.6,11.2c-0.4,1.5-0.8,3-1.2,4.4c-0.2,0.6-0.5,1.4-0.1,2.2
									c0.2,0.4,0.6,0.7,1,0.7c0.4,0.1,0.7,0.1,1,0C582.8,319.8,584.2,319.7,584.2,319.6L584.2,319.6z"/>
								<path class="st6" d="M588,294.5c0.3,0.5,2.2-0.2,4.5-0.5c2.3-0.3,4.3-0.1,4.4-0.7c0.1-0.3-0.4-0.7-1.3-1.1
									c-0.9-0.4-2.2-0.6-3.5-0.4c-1.4,0.2-2.5,0.7-3.2,1.3C588.2,293.6,587.9,294.2,588,294.5L588,294.5z"/>
								<path class="st6" d="M568.2,295.2c0.5,0.5,2.3-0.2,4.4-0.4c2.2-0.3,4,0,4.4-0.6c0.2-0.3-0.2-0.7-1-1.1
									c-0.8-0.4-2.2-0.7-3.7-0.5c-1.5,0.2-2.7,0.7-3.5,1.3C568.2,294.4,568,295,568.2,295.2L568.2,295.2z"/>
								<path class="st6" d="M566.3,290.9c0,0,3-9.2,7.1-11.7c5-3,7.7,2.5,12.5,0.7s9.6-4.7,15-1.3c5.9,3.7,3.6,6.9,4.5,13.1
									c3.7,25.5,9,32.3,9.2,20.1c0-1.3,3.6-2.7,3.7-8.3c0.1-7.3-0.4-16.1-2.5-21.1c-1.7-4.2-4.5-7-9.2-9.9
									c-7.4-4.6-17-3.9-23.5-2.6C576.6,271.1,564.7,279.7,566.3,290.9L566.3,290.9z"/>
								<path class="st14" d="M613.6,311.5c-0.1-2.2,1.6-4.1,3.8-4.1c2.7,0,5.8,1.3,6.1,6.8c0.5,9.7-9.3,8.3-9.4,8
									C614.1,322,613.8,315.6,613.6,311.5L613.6,311.5z"/>
								<path class="st13" d="M616,318.4c0,0,0.2,0.1,0.5,0.2c0.3,0.1,0.8,0.2,1.3,0c1-0.4,1.8-2.1,1.7-3.9c0-0.9-0.3-1.7-0.6-2.4
									c-0.3-0.7-0.8-1.2-1.3-1.2c-0.5-0.1-0.9,0.2-1,0.5c-0.1,0.3,0,0.5-0.1,0.5c0,0-0.2-0.1-0.2-0.6c0-0.2,0.1-0.4,0.3-0.6
									s0.6-0.3,0.9-0.3c0.8,0,1.5,0.7,1.9,1.4c0.4,0.8,0.7,1.7,0.7,2.7c0,2-0.8,3.9-2.2,4.4c-0.7,0.2-1.3,0-1.6-0.2
									C616.1,318.6,616,318.4,616,318.4L616,318.4z"/>
							</g>
							<path class="st6" d="M611.8,292.7c-1.2,1-2.4,2-4,2.3c-1.5,0.3-3.3-0.4-3.7-1.9c-0.2-0.7-0.1-1.5-0.6-2
								c-0.6-0.6-1.5-0.3-2.3-0.1c-2.8,0.5-6.4-2.3-7.3-5c-0.6,1.1-2.2,1.6-3.3,1c-1.2-0.6-1.6-1-2.5-1.9s-2.2-1.7-3.5-1.4
								c-0.7,0.2-1.3,0.6-2.1,0.6c-1.3,0-2-1.4-2.3-2.7s-0.6-2.7-1.7-3.3c-1.1-0.5-2.3-0.1-3.5,0.2s-2.7,0.1-3.1-1
								c-0.2-0.6,0-1.2,0.3-1.8c1.3-2.5,4.5-3.9,7.2-3c0.7-3.3,3.5-6.1,6.8-6.7c3.3-0.6,6.9,0.9,8.8,3.7c1.9-2,4.8-3.1,7.6-2.7
								s5.3,2.2,6.5,4.6c2.3-0.8,5.1-0.1,6.8,1.6c1.7,1.8,2.1,4.6,1.1,6.9c1.8,0.8,3.5,2.5,3.7,4.5c0.2,2-1.6,4.2-3.6,3.8
								c0.9,1.5,0.5,3.7-1,4.7c-1.4,1-3.6,0.7-4.7-0.7"/>
							<path class="st9" d="M578.8,275.7c0,0,0,0.1,0,0.2s0,0.3,0.1,0.5c0.1,0.4,0.4,1.1,0.9,1.8c0.5,0.7,1.3,1.5,2.4,2.1
								c1.1,0.6,2.5,1,4.1,0.8l-0.2-0.2c-0.2,0.9-0.1,1.9,0.4,2.7c0.5,0.8,1.2,1.5,1.9,2.2c0.4,0.3,0.7,0.7,1.2,1
								c0.5,0.3,1,0.4,1.6,0.4c1.1,0,2.3-0.4,3-1.4l-0.4-0.1c0.4,1.9,1.7,3.7,3.5,4.8c1,0.6,2.2,0.9,3.3,0.8c1.1-0.1,2.1-0.5,3.1-1
								l-0.3-0.1c0.6,1.2,1.5,2.1,2.6,2.8c1,0.7,2.3,1,3.5,0.6c2.2-0.7,3.6-2.7,3.8-4.5l-0.2,0.1c1.2,0.5,2.4,0.5,3.4,0.2
								c1-0.3,1.7-0.8,2.2-1.2c0.5-0.5,0.8-1,1-1.3c0.2-0.3,0.2-0.5,0.2-0.5c0,0-0.3,0.8-1.3,1.7c-0.5,0.4-1.2,0.9-2.2,1.1
								c-0.9,0.2-2.1,0.3-3.2-0.2l-0.2-0.1l0,0.2c-0.2,1.7-1.5,3.6-3.6,4.2c-1,0.3-2.2,0-3.2-0.6c-1-0.6-1.8-1.6-2.4-2.6l-0.1-0.2
								l-0.2,0.1c-0.9,0.4-1.9,0.8-3,0.9c-1,0.1-2.1-0.2-3-0.7c-1.8-1-2.9-2.7-3.3-4.5l-0.1-0.5l-0.3,0.4c-0.6,0.9-1.7,1.3-2.7,1.2
								c-0.5,0-1-0.1-1.4-0.4c-0.4-0.2-0.8-0.6-1.1-1c-0.7-0.7-1.4-1.4-1.8-2.1c-0.5-0.8-0.6-1.6-0.4-2.4l0.1-0.2l-0.2,0
								c-1.5,0.2-2.9-0.1-3.9-0.7c-1.1-0.5-1.8-1.3-2.3-2C578.9,276.8,578.9,275.7,578.8,275.7L578.8,275.7z"/>
						</g>
					</g>
					<path class="st6" d="M584.3,326.6c0-0.4,2.5-0.1,4.4-2c2-1.9,2-4.5,2.4-4.5c0.2,0,0.4,0.6,0.3,1.7c-0.1,1.1-0.6,2.6-1.8,3.8
						s-2.7,1.5-3.7,1.5C584.9,327.1,584.3,326.7,584.3,326.6L584.3,326.6z"/>
				</g>
				<g>
					<path class="st6" d="M443.6,615.9l-4.5,31.2c0,0-34.9,5.4-36.4,11.1l63.5,11.8l9.1-48.2L443.6,615.9L443.6,615.9z"/>
					<path class="st2" d="M459.2,648.2c1.2,0.5,1.8,2,1.3,3.1s-2,1.7-3.2,1.2c-1.2-0.5-2-2.3-1.3-3.3s2.5-1.6,3.5-0.8"/>
					<path class="st9" d="M466.2,670l0.7-4.9l-61.1-9.5c0,0-3,0.6-3.1,2.6L466.2,670L466.2,670z"/>
					<path class="st5" d="M438.1,646.6c0,0.3,1.5,0.7,2.8,2c1.4,1.2,1.9,2.6,2.2,2.5c0.3,0,0.1-1.8-1.5-3.3
						C440,646.3,438.1,646.3,438.1,646.6L438.1,646.6z"/>
					<path class="st5" d="M431,648c-0.1,0.3,1.1,1,2,2.5c0.9,1.4,0.9,2.8,1.2,2.8c0.3,0.1,0.8-1.6-0.2-3.3
						C432.8,648.2,431,647.7,431,648L431,648z"/>
					<path class="st5" d="M425.8,654.8c0.3,0.1,1-1.3,0.5-3c-0.5-1.8-1.8-2.7-2-2.5c-0.2,0.2,0.6,1.2,1,2.7
						C425.7,653.5,425.5,654.7,425.8,654.8L425.8,654.8z"/>
					<path class="st5" d="M440,639.6c0.1,0.3,1.6,0.2,3.3,0.6c1.7,0.4,3,1.2,3.2,1c0.2-0.2-0.9-1.5-3-2
						C441.5,638.7,439.9,639.4,440,639.6L440,639.6z"/>
				</g>
				<g>
					<path class="st10" d="M581.1,366l1.3-5.9l34.7-17.2l3,4.7c0,0,13,10.5,17.9,19.7c5,9.2-0.9,84.2-1.8,95.1
						c-1.7,22.1-9.9,50.9-9.9,50.9s-11.1-7.7-43.8-21.2c-32.7-13.4-34.5-19.5-34.5-19.5l19.3-24.5L581.1,366L581.1,366z"/>
					<path class="st10" d="M581.7,368.1c-0.2,1.1-15.9,38.7-15.9,38.7s8.1,4.5,9.3,4.8C576.2,411.8,581.7,368.1,581.7,368.1
						L581.7,368.1z"/>
					<path class="st6" d="M580.1,374.2c0.2,0-1.2,9.6-3.1,21.4c-1.9,11.8-3.5,21.3-3.7,21.3s1.2-9.6,3.1-21.4
						C578.3,383.8,579.9,374.2,580.1,374.2z"/>
				</g>
				<g>
					<g>
						<path class="st14" d="M470.1,449.5c0,0,9.3-13.8,14.9-16.2c5.6-2.4,12.5-3.7,12.5-3.7l23.5,3.1l-0.4,14c0,0-3.7,3.2-8.4,2.2
							c-4.7-1-16.3-4.7-16.3-4.7l-5.9-0.1l-5.9,6.5c0,0-4.5,1-2.6-3s2.6-5.8,2.6-5.8s-5.7,7.7-7.7,7.9
							C474.5,450,470.1,449.5,470.1,449.5L470.1,449.5z"/>
						<path class="st14" d="M592.8,394.3l-16.3,37.8l-55.7,0.5l-0.4,14c0,0,53.7,18.9,68,15.3s38-54.3,38-54.3L592.8,394.3
							L592.8,394.3z"/>
						<g>
							<path class="st10" d="M606,362.4c-1.5,1.4-6.6,7.3-11.9,20.1s-12.9,27.9-12.9,27.9l38.4,15.3c0,0,8.8-20.1,12.8-29.1
								c3.1-6.8,5.3-20.2,2.4-26.8S619.4,350.3,606,362.4z"/>
							<path class="st6" d="M606,362.4c0,0,0.1-0.1,0.3-0.3c0.2-0.2,0.6-0.5,1.1-0.9c1-0.8,2.5-1.9,4.7-2.8c2.2-0.9,5.3-1.5,8.6-0.6
								c3.3,0.8,6.8,2.8,9.8,5.9c1.5,1.5,2.9,3.3,4,5.4c1.1,2.1,1.5,4.6,1.7,7.1c0.2,5.1-0.5,10.5-2,15.9c-0.7,2.8-2,5.4-3.2,8.1
								c-1.2,2.7-2.4,5.5-3.6,8.3c-2.5,5.6-5,11.5-7.7,17.4l-0.1,0.2l-0.2-0.1c-0.2-0.1-0.4-0.1-0.6-0.2
								c-13.6-5.4-26.5-10.6-37.8-15.1l-0.3-0.1l0.1-0.2c3.6-7.2,6.8-13.9,9.5-19.9c2.7-6,4.8-11.4,7.1-15.6
								c2.2-4.2,4.3-7.4,5.9-9.5c0.8-1,1.4-1.8,1.9-2.2S606,362.5,606,362.4c0,0-0.1,0.1-0.2,0.2c-0.1,0.1-0.3,0.3-0.5,0.5
								c-0.4,0.5-1.1,1.3-1.8,2.3c-1.5,2.1-3.6,5.2-5.7,9.5c-2.2,4.2-4.2,9.6-7,15.7c-2.7,6-5.8,12.7-9.4,20l-0.1-0.4
								c11.4,4.5,24.2,9.6,37.9,15.1c0.2,0.1,0.4,0.1,0.6,0.2l-0.4,0.1c2.6-6,5.2-11.8,7.7-17.4c1.2-2.8,2.5-5.6,3.7-8.3
								c1.2-2.7,2.4-5.3,3.2-8c1.5-5.4,2.2-10.8,2-15.8c-0.1-2.5-0.6-4.9-1.6-6.9c-1.1-2-2.4-3.8-3.9-5.3c-2.9-3-6.4-5.1-9.6-5.9
								c-3.3-0.8-6.3-0.3-8.5,0.5c-2.2,0.9-3.7,1.9-4.8,2.7c-0.5,0.4-0.9,0.7-1.1,0.9C606.1,362.4,606,362.4,606,362.4L606,362.4z"
								/>
						</g>
						<path class="st13" d="M494.8,436.6c0,0.2-2.9-0.1-5.9,1.5c-3.1,1.5-4.6,4-4.7,3.9c-0.1,0,0.2-0.7,1-1.6c0.7-0.9,1.9-2,3.5-2.8
							s3.2-1.1,4.3-1.2C494.1,436.4,494.8,436.6,494.8,436.6L494.8,436.6z"/>
					</g>
					<path class="st13" d="M585.2,412.1c0,0,0,0.1-0.1,0.4c-0.1,0.3-0.3,0.7-0.4,1.1c-0.4,1-1,2.4-1.7,4.1
						c-1.5,3.6-3.6,8.6-6.2,14.6l-0.1,0.1h-0.2c-5.1,0.1-10.8,0.1-16.9,0.2c-10.7,0.1-20.4,0.1-27.4,0.2c-3.5,0-6.3,0-8.3,0
						c-0.9,0-1.7,0-2.3,0c-0.5,0-0.8,0-0.8,0s0.3,0,0.8-0.1c0.6,0,1.3,0,2.3-0.1c2,0,4.8-0.1,8.3-0.2c7.1-0.1,16.8-0.2,27.4-0.4
						c6.1,0,11.9-0.1,16.9-0.1l-0.2,0.1c2.6-5.9,4.8-10.9,6.3-14.5c0.8-1.7,1.4-3.1,1.8-4.1c0.2-0.4,0.4-0.8,0.5-1.1
						C585.1,412.2,585.2,412.1,585.2,412.1L585.2,412.1z"/>
				</g>
			</g>
		</g>
	</g>
	<g id="Table">
		<g>
			<g>
				<rect x="81.4" y="462.5" class="st9" width="10.7" height="209.9"/>
				<rect x="521.7" y="463.9" class="st9" width="10.7" height="208.4"/>
				<rect x="54.7" y="460.4" class="st9" width="488.4" height="12.7"/>
			</g>
			<path class="st6" d="M538.3,473c0,0.2-57,0.3-127.3,0.3s-127.3-0.1-127.3-0.3s57-0.3,127.3-0.3
				C481.4,472.8,538.3,472.9,538.3,473z"/>
		</g>
	</g>
	<g id="Device">
		<path class="st6" d="M397.8,386.3L397.8,386.3c1.3-0.2,2.5,0.6,2.8,1.9l13.2,70H478c1,0,1.7,0.8,1.7,1.7l0,0c0,1-0.8,1.7-1.7,1.7
			h-68.2v-0.3l-0.3,0.1l-13.7-72.4C395.6,387.8,396.5,386.6,397.8,386.3L397.8,386.3z"/>
	</g>
	<g id="Character_1">
		<g>
			<g>
				<path class="st6" d="M75.7,222.9c6.1-9,14.9-14.6,25.7-15.8c6.1-0.6,8.8,0.4,13.3,1.2c4.5,0.8,8.7,2.8,11.7,6.3
					c3.5,4.1,6.6,8.9,7.7,14.2c1.1,5.5,1.2,10.9,0.5,15.5c-0.8,5.5-3.8,14.1-6.6,18.9l-9.3,2c-7.8,1-15.7,1.9-23.4,0.8
					s-15.5-4.5-20.2-10.8C68.5,246.4,69.6,231.9,75.7,222.9L75.7,222.9z"/>
				<path class="st15" d="M88.2,221.7l18.2-9.2l5,0.1c11.1-0.9,19.8,10.6,20.7,19.5c1,9.9,1.8,22.1,0.8,29.6
					c-1.9,15-14.3,17.4-14.3,17.4s2.1,17.5,2.6,22.5L91,292.5l-7.3-65.3C83.6,224.4,85.5,222.1,88.2,221.7L88.2,221.7z"/>
				<path class="st16" d="M110.4,260.3c0-0.8,0.4-1.5,0.9-2c1-1,2.6-1.3,3.9-0.6s2.1,2.3,2,3.9l0,0c-0.6,1-1.5,1.7-2.7,1.9
					c-0.2,0-0.3,0-0.5,0.1c-0.8,0-1.7-0.2-2.4-0.7C110.9,262.2,110.4,261.3,110.4,260.3L110.4,260.3z"/>
				<path class="st6" d="M129.1,245.6c0.1,1-0.7,1.9-1.8,2s-2-0.6-2-1.7c-0.1-1,0.7-1.9,1.8-2C128.2,243.9,129.1,244.6,129.1,245.6z
					"/>
				<path class="st6" d="M129.1,237.5c-0.2,0.3-1.7-0.8-3.8-0.7c-2.1,0.1-3.5,1.2-3.8,0.9c-0.1-0.1,0.1-0.6,0.8-1.1
					c0.6-0.5,1.7-1,3-1s2.4,0.4,3,0.9C129,236.9,129.2,237.3,129.1,237.5L129.1,237.5z"/>
				<path class="st6" d="M117.3,254.7c0-0.1,1.3-0.4,3.3-0.7c0.5-0.1,1-0.2,1.1-0.6c0.1-0.4-0.1-0.9-0.4-1.6c-0.5-1.3-1.1-2.6-1.7-4
					c-2.4-5.6-4.1-10.3-3.9-10.4c0.2-0.1,2.3,4.4,4.7,10c0.6,1.4,1.1,2.7,1.6,4c0.2,0.6,0.6,1.3,0.3,2.1c-0.1,0.4-0.5,0.7-0.8,0.8
					c-0.3,0.1-0.6,0.1-0.9,0.1C118.6,254.8,117.3,254.8,117.3,254.7L117.3,254.7z"/>
				<path class="st16" d="M118.5,279.2c0,0-10,1-20.2-4.7c0,0,5.7,10.2,20.6,8.3L118.5,279.2z"/>
				<path class="st6" d="M129.1,231.1c-0.3,0.5-1.9,0.2-3.8,0.4c-1.8,0.2-3.4,0.8-3.8,0.3c-0.2-0.2,0-0.7,0.6-1.2
					c0.6-0.5,1.7-1,3-1.2s2.4,0.1,3.1,0.5C129,230.4,129.3,230.9,129.1,231.1L129.1,231.1z"/>
				<path class="st6" d="M107.9,247.2c0,1,0.9,1.8,2,1.8c1.1,0,1.9-0.9,1.8-1.9s-0.9-1.8-2-1.8C108.7,245.3,107.9,246.1,107.9,247.2
					z"/>
				<path class="st6" d="M101.2,239.1c0.2,0.2,1.6-0.9,3.7-1.1c2.1-0.2,3.6,0.8,3.8,0.5c0.1-0.1-0.2-0.6-0.9-1
					c-0.7-0.4-1.8-0.8-3.1-0.7s-2.3,0.6-2.9,1.2C101.3,238.6,101.1,239,101.2,239.1L101.2,239.1z"/>
				<path class="st6" d="M103.9,231.9c0.4,0.4,2-0.1,3.9-0.2c1.9-0.2,3.6,0.1,3.9-0.4c0.2-0.2-0.1-0.7-0.9-1.1
					c-0.7-0.4-1.9-0.7-3.2-0.6s-2.4,0.6-3.1,1.1C104,231.2,103.8,231.6,103.9,231.9L103.9,231.9z"/>
				<path class="st15" d="M88.5,252c0-1.1-1.4-3.7-2.5-3.8c-2.9-0.4-8.2,0.1-8,7.5c0.3,10.2,10.5,7.8,10.5,7.5
					C88.4,262.9,88.6,255.8,88.5,252z"/>
				<path class="st16" d="M85.5,259.5c0,0-0.2,0.1-0.5,0.3c-0.3,0.1-0.8,0.2-1.3,0.1c-1.1-0.4-2-2-2.1-3.9c-0.1-0.9,0.1-1.8,0.4-2.6
					c0.3-0.8,0.8-1.3,1.3-1.4c0.5-0.1,0.9,0.2,1.1,0.5c0.1,0.3,0.1,0.5,0.1,0.5c0,0,0.2-0.2,0.1-0.6c-0.1-0.2-0.2-0.4-0.4-0.6
					s-0.6-0.3-1-0.2c-0.8,0.1-1.5,0.8-1.8,1.6c-0.4,0.8-0.6,1.8-0.5,2.9c0.1,2,1.2,4,2.7,4.3c0.7,0.2,1.3-0.1,1.6-0.3
					C85.5,259.7,85.5,259.5,85.5,259.5L85.5,259.5z"/>
				<path class="st6" d="M85.6,248.2l2.8,2.4c16.2-10.7,32.8-39.8,28.5-38.6c0,0-7.9-2.5-16.1-0.3c-8.2,2.1-23.5,7.7-22.4,17.4
					C79.5,238.9,85.6,248.2,85.6,248.2L85.6,248.2z"/>
				<path class="st6" d="M80.8,207.4c3.9,2.3,7.5,9.1,5.9,13.3c0.7,4.5-1,9.3-4.4,12.3c-3.4,3-8.4,4.1-12.8,2.7
					c-3-0.9-5.7-2.9-7.3-5.6c-1.9-3.2-2.3-7.1-1.6-10.8c0.8-4.5,3.3-8.8,7.1-11.3S76.9,205.1,80.8,207.4L80.8,207.4z"/>
				<path class="st9" d="M79.9,248.2c0,0,0.7-0.2,1.9-0.8s2.8-1.4,4.9-2.6c4-2.3,9.5-5.8,14.6-10.8c5.1-5,8.7-10.5,10.6-14.8
					c0.9-2.1,1.6-3.9,1.9-5.2c0.3-1.3,0.5-2,0.4-2c-0.2,0-0.8,2.8-2.8,6.9c-2,4.2-5.6,9.6-10.6,14.5s-10.4,8.5-14.4,10.9
					c-2,1.2-3.6,2.1-4.7,2.8C80.5,247.8,79.9,248.2,79.9,248.2L79.9,248.2z"/>
				<path class="st9" d="M71,240.6c0.1,0,0.2-1.9,0.8-4.9c0.6-3,1.8-7.1,4-11.1c2.2-4.1,5-7.3,7.2-9.4s3.8-3.2,3.7-3.3
					c0,0-0.4,0.2-1.2,0.7c-0.7,0.5-1.7,1.2-2.9,2.2c-2.3,2-5.2,5.3-7.5,9.5c-2.2,4.2-3.4,8.4-3.8,11.4c-0.2,1.5-0.3,2.8-0.3,3.6
					C70.9,240.1,70.9,240.6,71,240.6L71,240.6z"/>
				<path class="st6" d="M81.8,264.2c0,2.1,1.7,3.8,3.8,3.8s3.8-1.7,3.8-3.8s-1.7-3.8-3.8-3.8S81.8,262.1,81.8,264.2z"/>
				<path class="st6" d="M117.8,261.9c0-0.4-2.4,0.1-4.5-1.7c-2.1-1.7-2.2-4.3-2.6-4.3c-0.2,0-0.4,0.7-0.2,1.7
					c0.2,1.1,0.8,2.5,2,3.6c1.3,1.1,2.7,1.4,3.7,1.3C117.3,262.5,117.9,262.1,117.8,261.9L117.8,261.9z"/>
			</g>
			<g>
				<path class="st6" d="M63.4,391.8c0,0-11.4,40.2-4.6,62c4.1,13.1,61,85.2,63.8,88.3c1.9,2.2-24.4,70.3-29.2,84.5l30.2,14.6
					c0,0,37.8-80.4,40.1-94.5c3-18.1-39.6-95.5-38-96.5l15.3-31.9l-12.7-32.8c0,0-53.5,0.6-64.4,1.5L63.4,391.8L63.4,391.8z"/>
				<path class="st6" d="M129.5,415.5c0,0,73.7,26.1,82,30.6c9.1,4.8,15.9,21.8,8.4,36.1c-7.6,14.4-73.8,55.6-73.8,55.6l-16.5-25.2
					l47.9-37.8l-51.9-12.2l-16.9-20L129.5,415.5L129.5,415.5z"/>
				<path class="st9" d="M163.7,546.3c-0.1,0,0.3-1.8,0-5.1c-0.3-3.3-1.6-7.9-3.7-13.5c-1.1-2.8-2.3-5.8-3.6-9c-0.7-1.6-1.3-3.3-2-5
					c-0.7-1.7-1.4-3.5-2.2-5.3c-3.1-7.2-6.7-15-10.5-23.3c-6.1-13.2-11.7-25.4-16.2-35.2l0-0.1l0-0.1c1.9-7.9,3.6-14.4,4.9-18.9
					c0.6-2.2,1.2-4,1.6-5.2c0.2-0.6,0.4-1,0.6-1.3c0.2-0.3,0.2-0.4,0.3-0.4c0,0-0.1,0.2-0.2,0.5c-0.1,0.3-0.3,0.7-0.5,1.3
					c-0.4,1.2-0.9,2.9-1.4,5.2c-1.2,4.5-2.8,11-4.6,19l0-0.2c4.6,9.7,10.3,21.9,16.3,35.1c3.8,8.2,7.3,16.1,10.4,23.3
					c0.8,1.8,1.5,3.6,2.2,5.3c0.7,1.7,1.3,3.4,1.9,5c1.3,3.2,2.5,6.2,3.6,9c2.1,5.6,3.3,10.3,3.5,13.6
					C164.2,544.5,163.7,546.3,163.7,546.3L163.7,546.3z"/>
				<path class="st17" d="M130.5,430.6c-0.1,0.5,0,19.4,0,19.4l9.4,16l-7.6-1.8l-6.7-14L130.5,430.6L130.5,430.6z"/>
			</g>
			<g>
				<path class="st9" d="M172.3,427.8c-2.1-2.1-8.4-7.9-12.8-12c-1.7-1.6-0.6-4.4,1.7-4.4l50.5-1c0.8,0,1.5,0.3,2,0.9l10.6,11.9
					c1.4,1.6,0.3,4.2-1.9,4.3l-48.2,1.3C173.5,428.5,172.8,428.2,172.3,427.8L172.3,427.8z"/>
				<path class="st15" d="M158,418.7c0,0,5.9-2.6,11.7-3.2c5.9-0.6,8.8,1.9,11.9,1.6c3.1-0.3,11.7,0.5,11.7,2.9s-11.9,3.1-11.9,3.1
					l10.5,3.4c0,0,11.9-1.5,12.1,0c0.2,1.5-10.7,2.9-15.7,3.6c-5,0.6-34.1,1-38.3,0s-33.9-19.1-33.9-19.1l14.2-14.7L158,418.7
					L158,418.7z"/>
			</g>
			<path class="st10" d="M84.7,287.6c0,0-13.7,2.1-18.4,17C62.4,317,69.8,368,73,377.2s37.2,38.8,40.2,36.3s19.6-17.2,19.6-17.2
				l-26.6-31.4c0,0,1.4-37.3-0.3-44.4S92.1,286.9,84.7,287.6L84.7,287.6z"/>
			<path class="st10" d="M68.1,349.7c1.9,17.7-1.8,25.3-1.8,25.3c-3.1,2.3-4.6,6.2-5,9.1c-0.2,1.6,1.1,2.9,2.7,2.9l64.4-1.5
				c0,0,9,0.9,8.8-7.7c-0.2-9.5,2.4-43-1.1-56.2c-1.2-4.5-15.9-26.7-15.9-26.7l-30.7-17.4l-3.2,8.4c0,0-9.7,3.5-14.2,9.3
				c-3.5,4.5-4.8,7.7-6.2,12.5C63.2,316.9,67,340.3,68.1,349.7L68.1,349.7z"/>
			<g>
				<path class="st15" d="M229.9,320.2c0,0-0.6-0.5-2.5,0.1s-7.5,3.4-10,4s-8,2.8-8,2.8s-3-0.4-6.9,2.3s-14.8,9.9-14.8,9.9l3.7,10.6
					c0,0,4.2-0.7,5.4-0.4s4.8,0.6,7.7-0.3s7-2.5,7-2.5s3.9,0.3,4.9-1.1c1-1.4-0.1-4-0.1-4l0,0c0,0,3.8-3.5,2.2-5.5
					c-1.6-2-3.7-4.2-3.7-4.2s11.4-6,13.5-7.6C230.6,322.8,231,321.5,229.9,320.2L229.9,320.2z"/>
				<polygon class="st15" points="187.8,339.3 152.4,351.1 138.1,358.4 158.2,369.2 191.5,349.9 				"/>
				<path class="st16" d="M209.2,330.5c0.2-0.1,1,4.1-0.4,9.1c-0.1,0.2-0.1,0.4-0.2,0.6l-0.3-0.5c2.3,0.4,4.4,0.8,5.9,1.2
					c1.5,0.3,2.4,1,2.3,1c-0.1,0.1-0.9-0.4-2.4-0.5c-1.5-0.2-3.6-0.5-6-0.9l-0.4-0.1l0.1-0.4c0.1-0.2,0.1-0.4,0.1-0.5
					C209.3,334.6,208.9,330.5,209.2,330.5L209.2,330.5z"/>
				<path class="st16" d="M209,335.5c0-0.1,0.3,0,0.7,0.2c0.4,0.3,0.9,0.8,1.1,1.6l-0.4-0.3c0.6-0.1,1.3-0.2,2-0.2
					c2.6-0.1,4.6,0.7,4.5,0.9c-0.1,0.2-2-0.2-4.5-0.2c-0.7,0-1.4,0.1-1.9,0.1l-0.3,0l-0.1-0.3C209.9,336.2,208.9,335.7,209,335.5
					L209,335.5z"/>
				<path class="st16" d="M214.3,332.8c0.1,0.2-0.8,1-1.7,2.2c-0.9,1.2-1.3,2.4-1.5,2.3c-0.2,0-0.1-1.4,0.9-2.8
					C212.9,333.2,214.2,332.7,214.3,332.8L214.3,332.8z"/>
			</g>
			<path class="st10" d="M119.5,287.2l3.6,9.5c3.9,3.7,13.5,14,15.3,21c2.4,9.3,13.1,32.5,13.1,32.5s24.4-10.4,26.1-8.7
				s10.2,21.8,7.4,26c-2.8,4.2-27.7,15.2-37.8,12.8c-10.1-2.5-19.7-17.1-19.7-17.1L119.5,287.2L119.5,287.2z"/>
			<path class="st6" d="M135.5,317.8c0,0,0.3,0.8,0.8,2.2c0.2,0.7,0.5,1.6,0.7,2.6c0.2,1,0.6,2.2,0.7,3.5c0.5,2.6,0.7,5.8,0.8,9.3
				c0.1,3.5-0.1,7.4-0.3,11.5c-0.6,8.1-1.1,15.4-1.1,20.7c0,1.3,0.1,2.5,0.1,3.6c0,1,0.1,2,0.1,2.7c0.1,1.5,0.1,2.3,0.1,2.3
				s-0.2-0.8-0.4-2.3c-0.1-0.7-0.2-1.6-0.3-2.7c-0.1-1.1-0.2-2.3-0.2-3.6c-0.2-5.3,0.3-12.7,0.9-20.8c0.2-4,0.4-7.9,0.4-11.4
				c-0.1-3.5-0.3-6.6-0.7-9.3C136.5,321,135.4,317.9,135.5,317.8L135.5,317.8z"/>
			<path class="st6" d="M151.1,364.1c-0.2,0-0.3-3.2-0.3-7.1c0.1-3.9,0.3-7.1,0.5-7.1c0.2,0,0.3,3.2,0.3,7.1
				C151.6,360.9,151.3,364.1,151.1,364.1z"/>
			<path class="st6" d="M105.6,316.2c0,0,0,0.3,0.1,0.9c0,0.6,0,1.5,0,2.5c0,2.2,0.1,5.3,0.1,9c0.1,7.6,0.5,18.1,0.2,29.7
				c0,2.9,0.2,5.7,1.5,8.1c1.3,2.3,3.2,4.2,4.8,6.1c3.3,3.8,6.3,7.2,8.8,10c2.4,2.8,4.4,5.1,5.9,6.8c0.6,0.8,1.2,1.4,1.6,1.9
				c0.4,0.4,0.5,0.7,0.5,0.7s-0.2-0.2-0.6-0.6c-0.4-0.5-1-1.1-1.7-1.8c-1.5-1.6-3.6-3.9-6.1-6.7c-2.6-2.9-5.6-6.2-8.9-10
				c-1.6-1.9-3.6-3.8-4.9-6.3c-1.4-2.5-1.6-5.5-1.6-8.4c0.3-11.6,0-22.1,0.1-29.7c0-3.8,0-6.9,0.1-9c0-1.1,0.1-1.9,0.1-2.5
				C105.5,316.5,105.6,316.2,105.6,316.2L105.6,316.2z"/>
			<path class="st6" d="M83.5,287.6c0,0.1-1.5,0.5-3.9,1.8c-2.4,1.3-5.8,3.6-8.7,7.6c-1.5,2-2.8,4.3-3.7,7.1
				c-0.5,1.4-0.8,2.8-1.1,4.3c-0.2,1.5-0.3,3.1-0.4,4.7c-0.2,3.3-0.2,6.7,0,10.2c0.2,3.5,0.7,7.2,1.1,11c0.8,7.5,1.6,14.7,2.2,21.2
				c0.7,6.5,1.2,12.4,2.6,17.2c1.3,4.8,3.3,8.3,5,10.5c0.8,1.1,1.6,1.9,2.1,2.4c0.5,0.5,0.8,0.8,0.8,0.8c0,0-0.1,0-0.2-0.2
				s-0.4-0.3-0.7-0.5c-0.6-0.5-1.3-1.2-2.2-2.3c-1.8-2.1-3.9-5.7-5.3-10.5c-1.4-4.8-2-10.7-2.7-17.2c-0.7-6.5-1.5-13.7-2.3-21.2
				c-0.4-3.8-0.9-7.4-1.1-11c-0.2-3.6-0.2-7,0-10.3c0.1-1.6,0.2-3.2,0.5-4.8c0.3-1.5,0.6-3,1.1-4.4c1-2.8,2.4-5.2,3.9-7.2
				c3-4,6.5-6.3,9-7.6c1.2-0.6,2.2-1,2.9-1.2C83.1,287.7,83.5,287.6,83.5,287.6L83.5,287.6z"/>
			<path class="st6" d="M120,297c0,0-0.6-0.3-1.5-0.9c-1.1-0.7-2.4-1.6-3.9-2.7l0.4-0.2c0,2,0,4.4-0.1,6.9v0.5l-0.5-0.2
				c-2.5-1.2-5.2-2.6-8.1-4.1c-5.5-2.8-10.6-5.4-14.2-7.3c-1.7-0.9-3.1-1.7-4.2-2.3c-1-0.6-1.5-0.9-1.5-0.9c0,0,0.6,0.2,1.6,0.7
				c1.2,0.6,2.6,1.2,4.4,2.1c3.7,1.8,8.7,4.3,14.2,7.1c2.9,1.5,5.6,2.9,8.1,4.1l-0.5,0.3c0.1-2.6,0.2-4.9,0.2-6.9l0-0.5l0.4,0.3
				c1.5,1.1,2.8,2.1,3.8,2.9C119.5,296.6,120,297,120,297L120,297z"/>
			<g>
				<path class="st6" d="M131.4,619l-11.9,24.9c0,0,22.8,21,21.1,25.8l-52.1-22.2l16.9-39.6L131.4,619L131.4,619z"/>
				<path class="st2" d="M104.3,634.9c-1.1-0.2-2.3,0.6-2.5,1.7s0.7,2.2,1.8,2.4s2.5-0.7,2.6-1.8s-1-2.4-2.1-2.3"/>
				<path class="st9" d="M88.5,647.4l1.9-3.9l49.2,22.8c0,0,1.9,1.9,1,3.4C140.6,669.7,88.5,647.4,88.5,647.4z"/>
				<path class="st5" d="M120.4,644c-0.1,0.2-1.4-0.2-3,0c-1.6,0.2-2.7,1-2.9,0.8c-0.2-0.2,0.8-1.4,2.7-1.7
					C119.2,642.8,120.6,643.8,120.4,644z"/>
				<path class="st5" d="M124.9,648.5c0,0.3-1.3,0.2-2.6,0.8c-1.3,0.6-2,1.6-2.3,1.5c-0.2-0.1,0.2-1.5,1.8-2.3
					C123.5,647.7,125,648.2,124.9,648.5z"/>
				<path class="st5" d="M125.4,656c-0.2,0-0.1-1.4,1.1-2.4c1.2-1,2.6-1,2.7-0.8c0.1,0.3-1,0.6-2,1.5
					C126.1,655.1,125.6,656,125.4,656z"/>
			</g>
		</g>
	</g>
</g>
</svg>
