<svg id="Layer_1" viewBox="0 0 128 128" xmlns="http://www.w3.org/2000/svg" data-name="Layer 1"><path d="m38.46188 38.0806a5.03537 5.03537 0 0 1 3.336 3.1064 4.70006 4.70006 0 0 1 -4.4668 6.1821 4.733 4.733 0 0 1 -2.9844-1.0781 1.99983 1.99983 0 0 0 -3.05568.6509l-5.07912 10.1352a2.00136 2.00136 0 0 0 .8926 2.6846l8.2109 4.1109a8.66267 8.66267 0 0 0 -.60638 2.1313h4.08888a9.21234 9.21234 0 0 1 .8847-1.6807 2.00023 2.00023 0 0 0 -.6474-3.0615l-8.3506-4.1811 3.2168-6.419a8.69945 8.69945 0 0 0 7.7841-15.5273l3.2178-6.4195s8.34472 4.1792 8.3516 4.1827a2.02027 2.02027 0 0 0 2.8389-1.315 4.69889 4.69889 0 1 1 8.7617 3.2285c-.44048.878-1.2159 1.479-.98148 2.5655a2.0002 2.0002 0 0 0 1.05958 1.3681l8.3486 4.1802-3.2168 6.419a8.6996 8.6996 0 0 0 -8.4248 15.1191c.2071.146.4219.2822.6426.4111l-1.2959 2.5845 1.7432.6768 2.0508.7963 2.0888-4.1665a1.99914 1.99914 0 0 0 .0264-1.7368 2.10951 2.10951 0 0 0 -1.377-1.1304 4.68773 4.68773 0 1 1 3.2647-8.7299c.873.437 1.4951 1.2163 2.5683.9853a2.00026 2.00026 0 0 0 1.3682-1.0595l4.1836-8.3472 6.4219 3.2153a8.71229 8.71229 0 0 0 4.1006 11.2105 8.69924 8.69924 0 0 0 11.4345-3.4317l6.4229 3.2154-4.0469 8.0752c.1299-.0059.25-.0274.3818-.0274h4.1065l4.0312-8.0444a2.00144 2.00144 0 0 0 -.8925-2.6846s-10.125-5.0693-10.1407-5.0771a2.01949 2.01949 0 0 0 -2.8398 1.3208 4.63572 4.63572 0 0 1 -.3565.9804 4.75508 4.75508 0 0 1 -6.3105 2.0967 4.7064 4.7064 0 0 1 -2.0986-6.3061 4.65087 4.65087 0 0 1 .5752-.8726 2.03761 2.03761 0 0 0 -.6446-3.0649l-18.3974-9.2203a8.69282 8.69282 0 0 0 -4.0996-11.208 8.70043 8.70043 0 0 0 -11.4336 3.4307l-8.2119-4.1113a1.99947 1.99947 0 0 0 -2.6836.8921l-5.0791 10.1352a2.00162 2.00162 0 0 0 -.0284 1.7334 2.11115 2.11115 0 0 0 1.3467 1.0767z"/><path d="m110.55758 71.0044h-8.9385a6.819 6.819 0 0 0 -2.7304.6465c-1.2022.5464-1.9199 1.7895-2.8282 3.3628-.4277.7402-3.4492 5.1548-3.4492 5.1548h-2.61128v4.0004h3.64648a2.00141 2.00141 0 0 0 1.6338-.8457s5.1074-7.8046 5.3701-8.0776a2.7429 2.7429 0 0 1 .9687-.2412l8.0137.0005-5.9023 13.5835a6.80781 6.80781 0 0 1 -1.89848 2.2993l-19.333 13.2676a6.519 6.519 0 0 1 -2.749 1.0512h-34.83012a2.00073 2.00073 0 0 0 -1.2226.417l-4.5645 3.5259-20.6709-22.6377 12.8037-11.5869a4.56149 4.56149 0 0 1 2.4336-.9204h20.2315a11.95957 11.95957 0 0 1 3.4882.6504l5.1309 1.9922a13.67694 13.67694 0 0 0 4.5 1.2148h12.57322c.24318 0 2.377.0479 2.377 1.7075v6.2622a2.28485 2.28485 0 0 1 -2.377 2.1739h-25.14642a2.00025 2.00025 0 0 0 0 4.0005h25.14642a6.28526 6.28526 0 0 0 6.377-6.1744v-6.2622c0-3.3071-2.68162-5.708-6.377-5.708h-12.57322a12.48052 12.48052 0 0 1 -3.0244-.9326l-5.1621-2.0039a15.79865 15.79865 0 0 0 -4.9326-.9204h-20.2315a8.41307 8.41307 0 0 0 -5.11618 1.9536l-13.14652 11.897a5.97469 5.97469 0 0 0 -6.8594.4492l-2.8955 2.5381a2 2 0 0 0 2.6368 3.0078l2.8925-2.5352c.6748-.5908 2.2393-.3603 3.4024.9136l23.55472 25.7964a3.4 3.4 0 0 1 .00878 4.438l-6.294 6.1099a2.00034 2.00034 0 0 0 2.7871 2.8701s6.3809-6.1968 6.4043-6.2212a7.44375 7.44375 0 0 0 .6944-9.0532l3.8339-2.9615h34.14752a10.11157 10.11157 0 0 0 5.00978-1.7509l19.3349-13.2701a10.70875 10.70875 0 0 0 3.3037-4.0034l6.2705-14.4292a3.27568 3.27568 0 0 0 -3.1113-4.749z"/><circle cx="29.001" cy="114.543" r="2"/><path d="m64 12.0747a2.0001 2.0001 0 0 0 2-2v-8.0747a2 2 0 0 0 -4 0v8.0747a2.00008 2.00008 0 0 0 2 2z"/><path d="m51.50288 11.5083a2.02627 2.02627 0 0 0 2.3487 1.5757 1.99967 1.99967 0 0 0 1.5752-2.3491l-.7803-3.9595a1.99965 1.99965 0 1 0 -3.9238.7734z"/><path d="m32.33008 20.3652a1.99995 1.99995 0 1 0 3.33592-2.207l-2.22172-3.3574a1.99994 1.99994 0 1 0 -3.3359 2.207z"/><path d="m14.65528 33.7153 3.3261 2.2432a2.0323 2.0323 0 0 0 2.7764-.54 2.00019 2.00019 0 0 0 -.54-2.7764l-3.3262-2.2432a2 2 0 1 0 -2.2363 3.3164z"/><path d="m7.50778 51.2007a2.00043 2.00043 0 0 0 -.789 3.9223s4.1894.8282 4.3203.8282a2.00064 2.00064 0 0 0 .3925-3.9619z"/><path d="m121.28218 55.1216a2.0004 2.0004 0 0 0 -.78318-3.9234l-3.92192.7837a2.00064 2.00064 0 0 0 .3897 3.9624c.1299 0 4.3154-.8227 4.3154-.8227z"/><path d="m107.24318 35.4106a2.02373 2.02373 0 0 0 2.7754.5435l3.3281-2.2383a2.00009 2.00009 0 0 0 -2.2324-3.3193l-3.3282 2.2383a1.99985 1.99985 0 0 0 -.5429 2.7758z"/><path d="m92.89648 20.9238a2.01852 2.01852 0 0 0 2.7724-.5615l2.2247-3.3545a2.00023 2.00023 0 0 0 -3.334-2.2109l-2.22458 3.3545a2.00013 2.00013 0 0 0 .56148 2.7724z"/><path d="m74.14648 13.0806a2.01859 2.01859 0 0 0 2.3496-1.5738l.7832-3.9585a1.99993 1.99993 0 1 0 -3.9238-.7763l-.7832 3.9585a1.99956 1.99956 0 0 0 1.5742 2.3501z"/><path d="m41.48538 14.9844a2.02318 2.02318 0 0 0 2.6103 1.0908 2.00088 2.00088 0 0 0 1.0908-2.6099l-3.06248-7.4604a2.00026 2.00026 0 1 0 -3.70112 1.5185z"/><path d="m24.39548 27.4468a2.00018 2.00018 0 0 0 2.8418-2.8155l-5.6572-5.7089a2.00032 2.00032 0 0 0 -2.8418 2.8159z"/><path d="m5.94728 42.478 7.3916 3.0894a2.00021 2.00021 0 1 0 1.5429-3.6909l-7.3916-3.0889a2 2 0 1 0 -1.5429 3.6904z"/><path d="m12 64.5796a1.99967 1.99967 0 0 0 -2-1.9995l-8 .0014a2 2 0 1 0 0 4l8-.0014a2.00053 2.00053 0 0 0 2-2.0005z"/><path d="m126 62.5791h-.001l-8 .0024a2 2 0 0 0 .001 4h.001l8-.0024a2 2 0 0 0 -.001-4z"/><path d="m123.125 39.8589a1.99983 1.99983 0 0 0 -2.61622-1.0733l-7.3906 3.0918a1.99952 1.99952 0 0 0 -1.0733 2.6172 2.02618 2.02618 0 0 0 2.6162 1.0738l7.3907-3.0923a1.99949 1.99949 0 0 0 1.07322-2.6172z"/><path d="m102.18458 28.0249a1.99206 1.99206 0 0 0 1.4209-.5776l5.6552-5.7105a2 2 0 1 0 -2.8418-2.8149s-5.6474 5.7031-5.6552 5.7109a2.00583 2.00583 0 0 0 1.4209 3.3921z"/><path d="m83.90718 16.0757a2.01866 2.01866 0 0 0 2.6094-1.0918l3.0596-7.461a2.0001 2.0001 0 1 0 -3.70118-1.5175l-3.05962 7.4604a2.0005 2.0005 0 0 0 1.0918 2.6099z"/></svg>