<?xml version="1.0" encoding="UTF-8"?>
<svg id="Layer_1" data-name="Layer 1" xmlns="http://www.w3.org/2000/svg" viewBox="0 0 464 441.3">
  <defs>
    <style>
      .cls-1 {
        fill: #000;
      }

      .cls-1, .cls-2, .cls-3, .cls-4, .cls-5, .cls-6, .cls-7, .cls-8, .cls-9, .cls-10, .cls-11, .cls-12, .cls-13 {
        stroke-width: 0px;
      }

      .cls-2 {
        fill: #e0e0e0;
      }

      .cls-3 {
        fill: #5095d0;
      }

      .cls-4 {
        fill: #eb996e;
      }

      .cls-5 {
        fill: #455a64;
      }

      .cls-6 {
        fill: #45b34a;
      }

      .cls-7 {
        fill: #f5f5f5;
      }

      .cls-8 {
        fill: #ffbe9d;
      }

      .cls-9 {
        fill: #ebebeb;
      }

      .cls-10 {
        fill: #1585c4;
      }

      .cls-14 {
        opacity: .6;
      }

      .cls-11 {
        fill: #263238;
      }

      .cls-12 {
        fill: #fafafa;
      }

      .cls-13 {
        fill: #fff;
      }

      .cls-15 {
        opacity: .2;
      }
    </style>
  </defs>
  <g id="freepik--background-complete--inject-16">
    <path class="cls-7" d="M87.85,123.68c4.14,20.76-9.33,40.95-30.09,45.09-20.76,4.14-40.95-9.33-45.09-30.09-4.14-20.76,9.33-40.95,30.09-45.09.03,0,.06-.01.09-.02,20.74-4.11,40.89,9.37,45,30.11Z"/>
    <path class="cls-9" d="M78.9,125.47c3.13,15.83-7.17,31.19-23,34.32-15.83,3.13-31.19-7.17-34.32-23-3.13-15.83,7.17-31.19,23-34.32,0,0,.01,0,.02,0,15.81-3.13,31.16,7.15,34.29,22.96,0,.01,0,.03,0,.04Z"/>
    <path class="cls-2" d="M78.71,124.55c-.17,0-.54-1.2-1.43-3.3-1.24-2.95-2.93-5.69-5-8.13-1.44-1.66-3.05-3.16-4.82-4.46-2.02-1.49-4.23-2.7-6.57-3.62-1.26-.51-2.56-.91-3.89-1.22-1.37-.33-2.77-.55-4.17-.67-1.46-.12-2.92-.12-4.38,0-1.5.11-2.98.33-4.45.66-1.47.34-2.91.79-4.31,1.35-1.35.55-2.66,1.2-3.92,1.94-1.22.7-2.39,1.49-3.49,2.37-1.07.85-2.07,1.78-3,2.78-1.68,1.86-3.12,3.93-4.28,6.16-1.01,1.95-1.81,4-2.38,6.12-.83,3.1-1.16,6.31-1,9.51.11,2.28.32,3.55.15,3.59s-.63-1.17-1-3.5c-.52-3.32-.41-6.71.31-10,.49-2.28,1.25-4.49,2.27-6.58,1.17-2.41,2.67-4.66,4.45-6.67.96-1.1,2-2.12,3.12-3.05,1.16-.99,2.4-1.88,3.7-2.66,1.35-.82,2.76-1.53,4.22-2.13,3.01-1.23,6.2-1.97,9.45-2.17,1.57-.1,3.15-.07,4.72.07,1.51.14,3.02.41,4.49.78,1.41.35,2.79.82,4.13,1.38,4.66,1.92,8.75,5.02,11.85,9,2.08,2.63,3.65,5.63,4.63,8.83.65,2.28.73,3.59.6,3.62Z"/>
    <path class="cls-2" d="M56.85,147.55l1.05,5-4.44.94-1-4.84c-4.45.67-9,.19-11.82-1.21l1.3-5.94c2.93,1.25,6.13,1.7,9.29,1.33l-1.58-7.42c-5.18-.15-11-.63-12.39-7-1-4.71,1.56-9.48,8.42-11.76l-1-4.94,4.44-.94,1,4.84c3.22-.5,6.51-.22,9.6.8l-1.06,5.94c-2.35-.77-4.83-1.07-7.29-.87l1.6,7.55c5.18.11,11,.61,12.28,6.87.93,4.57-1.6,9.32-8.4,11.65ZM48.24,128.85l-1.34-6.31c-2.24,1-2.9,2.52-2.59,4s1.84,2.1,3.93,2.31ZM58.15,137.94c-.33-1.56-1.79-2.13-3.85-2.39l1.3,6.13c2.12-.96,2.86-2.32,2.55-3.74Z"/>
    <path class="cls-7" d="M190.6,259.59c2.42,12.14-5.46,23.95-17.6,26.37s-23.95-5.46-26.37-17.6c-2.42-12.14,5.46-23.95,17.6-26.37.02,0,.04,0,.05-.01,12.13-2.41,23.91,5.48,26.32,17.6h0Z"/>
    <path class="cls-9" d="M185.37,260.63c1.84,9.26-4.17,18.26-13.42,20.1-9.26,1.84-18.26-4.17-20.1-13.42-1.84-9.26,4.17-18.26,13.42-20.1.01,0,.03,0,.04,0,9.24-1.84,18.22,4.17,20.06,13.41,0,0,0,.01,0,.02Z"/>
    <path class="cls-2" d="M185.26,260.1c-.35-.61-.63-1.26-.84-1.93-.73-1.73-1.72-3.33-2.94-4.75-.84-.97-1.79-1.84-2.82-2.61-1.19-.87-2.48-1.58-3.85-2.12-.73-.29-1.49-.53-2.26-.71-.8-.2-1.62-.33-2.44-.39-.85-.07-1.71-.07-2.56,0-.88.06-1.75.19-2.61.38-.86.2-1.7.47-2.52.79-.79.32-1.56.7-2.29,1.14-1.39.81-2.65,1.82-3.75,3-1,1.08-1.85,2.28-2.54,3.58-.6,1.14-1.06,2.34-1.4,3.58-.47,1.81-.66,3.69-.57,5.56.1.69.13,1.4.09,2.1-.34-.62-.54-1.3-.59-2-.31-1.94-.25-3.92.17-5.84.29-1.33.74-2.62,1.33-3.85.69-1.41,1.57-2.72,2.61-3.9.56-.64,1.17-1.23,1.82-1.78.68-.57,1.41-1.1,2.17-1.56.79-.48,1.61-.89,2.46-1.24.88-.35,1.79-.64,2.71-.86.93-.21,1.87-.35,2.82-.41.92-.08,1.84-.08,2.76,0,1.74.17,3.44.6,5.05,1.26,1.43.61,2.78,1.41,4,2.38,1.07.84,2.03,1.81,2.87,2.88,1.22,1.54,2.14,3.29,2.71,5.17.3.67.44,1.4.41,2.13Z"/>
    <path class="cls-2" d="M172.47,273.55l.62,2.91-2.6.55-.6-2.83c-2.32.41-4.7.17-6.89-.71l.75-3.48c1.72.73,3.59.99,5.44.78l-.92-4.34c-3-.09-6.46-.37-7.25-4.09-.59-2.75.91-5.54,4.92-6.88l-.61-2.89,2.6-.55.6,2.83c1.88-.29,3.8-.13,5.61.47l-.62,3.47c-1.37-.45-2.82-.62-4.26-.51l.93,4.42c3,.07,6.41.36,7.19,4,.55,2.77-.93,5.49-4.91,6.85ZM167.47,262.61l-.79-3.69c-1.31.61-1.69,1.48-1.51,2.34s1.05,1.21,2.27,1.35h.03ZM173.27,267.93c-.2-.91-1.05-1.24-2.26-1.4l.77,3.59c1.22-.56,1.63-1.36,1.46-2.19h.03Z"/>
    <path class="cls-9" d="M421,195.89l-1.16,4.84-4.32-1,1.14-4.71c-4.21-1.28-8-3.61-9.92-6l3.64-4.69c2.07,2.32,4.7,4.07,7.64,5.07l1.73-7.2c-4.51-2.32-9.47-5.2-8-11.37,1.1-4.57,5.37-7.7,12.37-6.84l1.15-4.78,4.32,1-1.13,4.71c3.05.91,5.83,2.53,8.12,4.74l-3.43,4.78c-1.75-1.66-3.81-2.97-6.06-3.83l-1.77,7.33c4.52,2.28,9.4,5.14,7.93,11.22-1.08,4.45-5.25,7.54-12.25,6.73ZM421.28,175.79l1.47-6.13c-2.41,0-3.62,1-4,2.43s.76,2.64,2.52,3.7h.01ZM426.19,187.97c.37-1.51-.69-2.63-2.39-3.72l-1.43,5.95c2.26.04,3.48-.85,3.81-2.23h.01Z"/>
    <path class="cls-9" d="M435,81.86l.38,8.57-7.66.34-.37-8.34c-7.6-.13-15-2.18-19.33-5.29l3.8-9.53c4.53,2.88,9.73,4.53,15.09,4.79l-.56-12.79c-8.59-1.69-18.21-4.11-18.7-15.06-.36-8.11,5.23-15.34,17.27-17.25l-.38-8.5,7.66-.34.37,8.34c5.76.21,11.42,1.49,15.75,4l-3.41,9.59c-3.7-1.94-7.75-3.12-11.91-3.48l.57,13c8.59,1.61,18,4,18.53,14.83.38,7.98-5.1,15.13-17.1,17.12ZM425.85,48.35l-.47-10.88c-4,1.1-5.53,3.39-5.42,5.92s2.48,4.08,5.9,4.96h0ZM439.85,66.22c-.11-2.68-2.4-4-5.74-5l.46,10.57c3.79-1.05,5.43-3.12,5.27-5.57h.01Z"/>
  </g>
  <g id="freepik--Floor--inject-16">
    <path class="cls-11" d="M464,411.83c0,.14-103.87.26-232,.26s-232-.12-232-.26,103.85-.26,232-.26,232,.12,232,.26Z"/>
  </g>
  <g id="freepik--Screen--inject-16">
    <rect class="cls-13" x="66.94" y=".5" width="330.17" height="247.68" rx="7.21" ry="7.21"/>
    <path class="cls-11" d="M389.9,248.18c2.22-.02,4.32-1.07,5.67-2.83,1.02-1.34,1.55-2.99,1.49-4.67,0-7.62,0-18.85-.05-33.31,0-28.93-.05-70.79-.09-122.51V8.75c.05-.92-.02-1.84-.22-2.74-.45-1.8-1.61-3.35-3.2-4.3-.8-.48-1.68-.79-2.6-.91-.94-.08-1.89-.1-2.83-.08H74.18c-2.44-.02-4.72,1.24-6,3.32-.62,1.01-.97,2.17-1,3.36v233.65c.02,1.01.26,2.01.7,2.92.89,1.83,2.54,3.18,4.51,3.7.99.21,1.99.29,3,.23h147.06l122.51.08,33.31.05h11.61-44.92l-122.51.09H75.41c-1.05.05-2.11-.03-3.14-.25-3.22-.85-5.49-3.73-5.56-7.06V7.43c.05-1.28.42-2.52,1.09-3.61,1.37-2.22,3.79-3.58,6.4-3.58h313.8c.96-.03,1.93,0,2.89.08.98.14,1.92.48,2.76,1,1.69,1.01,2.92,2.65,3.4,4.56.2.94.28,1.89.23,2.85v76.13c0,51.72-.06,93.58-.08,122.51v33.31c.1,2.99-1.63,5.74-4.38,6.93-.68.29-1.4.47-2.14.55l-.78.02Z"/>
    <rect class="cls-10" x="236.77" y="38.22" width="144.77" height="65.45" rx="8.21" ry="8.21"/>
    <g class="cls-15">
      <path class="cls-13" d="M314.89,68.2v2.6h-2.32v-2.53c-2.05-.05-4.05-.68-5.77-1.8l1.28-2.83c1.33.93,2.88,1.5,4.49,1.65v-3.88c-2.57-.62-5.44-1.48-5.44-4.79,0-2.46,1.78-4.57,5.44-5v-2.61h2.32v2.53c1.66.09,3.27.58,4.71,1.41l-1.16,2.85c-1.09-.63-2.3-1.04-3.55-1.2v3.94c2.57.6,5.4,1.46,5.4,4.72,0,2.42-1.76,4.5-5.4,4.94ZM312.57,57.96v-3.29c-1.23.27-1.71,1-1.71,1.71s.69,1.25,1.71,1.58ZM316.57,63.54c0-.81-.67-1.25-1.67-1.6v3.2c1.15-.25,1.66-.86,1.66-1.6h.01Z"/>
    </g>
    <g class="cls-15">
      <path class="cls-13" d="M326,84.57v2h-1.8v-2c-1.59-.05-3.14-.55-4.46-1.43l1-2.19c1.03.72,2.23,1.16,3.48,1.27v-3c-2-.49-4.21-1.15-4.21-3.72,0-1.9,1.38-3.53,4.21-3.86v-2h1.78v2c1.28.07,2.53.44,3.64,1.09l-.9,2.21c-.84-.49-1.77-.81-2.74-.93v3.05c2,.46,4.18,1.13,4.18,3.66,0,1.89-1.36,3.51-4.18,3.85ZM324.2,76.64v-2.55c-.95.21-1.32.73-1.32,1.33s.53.97,1.32,1.22ZM327.29,80.96c0-.63-.52-1-1.29-1.24v2.48c.9-.2,1.29-.66,1.29-1.24Z"/>
    </g>
    <path class="cls-13" d="M339.74,65.8c.02.14.02.27,0,.41v21.08-.15c.84.78,1.88,1.32,3,1.57,1.22.29,2.47.43,3.73.42,2.66.07,5.28-.71,7.47-2.23l-.09.2h0v-21.28.08c-.28-.46-.68-.84-1.15-1.11-.47-.27-.97-.49-1.49-.65-.98-.28-1.98-.45-3-.51-1.64-.13-3.3-.04-4.92.27-1.03.2-2.02.6-2.9,1.17-.22.17-.43.35-.63.54-.12.14-.18.22-.19.21.17-.34.43-.63.74-.85.87-.64,1.87-1.08,2.93-1.31,1.64-.35,3.32-.48,5-.38,1.04.04,2.08.21,3.08.49,1.19.28,2.23.99,2.91,2h0v21.42l-.09.07c-2.28,1.61-5.02,2.43-7.81,2.35-1.3.01-2.59-.14-3.85-.46-1.24-.27-2.38-.87-3.3-1.75l-.05-.05v-.1c.08-6.32.15-11.68.2-15.53,0-1.84.07-3.32.1-4.4v-1.15c.09-.13.19-.26.31-.37Z"/>
    <path class="cls-13" d="M354.2,65.84c-.55.53-1.19.95-1.9,1.25-1.68.77-3.52,1.14-5.37,1.08-1.85.08-3.69-.24-5.4-.94-.71-.28-1.37-.68-1.93-1.2,0-.08.79.37,2.07.86,1.69.57,3.47.83,5.26.76,1.78.05,3.56-.25,5.22-.9,1.27-.52,2-.99,2.05-.91Z"/>
    <path class="cls-13" d="M354.2,71.15c-.55.54-1.19.96-1.9,1.26-1.68.77-3.52,1.13-5.37,1.07-1.85.08-3.69-.24-5.4-.94-.72-.27-1.37-.68-1.93-1.2,0-.08.79.37,2.07.86,1.69.57,3.47.83,5.26.76,1.78.06,3.56-.25,5.22-.89,1.27-.53,2-.99,2.05-.92Z"/>
    <path class="cls-13" d="M354.2,76.47c-.55.53-1.19.95-1.9,1.25-1.68.77-3.52,1.14-5.37,1.08-1.85.08-3.69-.24-5.4-.94-.71-.28-1.37-.68-1.93-1.2,0-.08.79.37,2.07.86,1.69.57,3.48.83,5.26.76,1.78.05,3.56-.25,5.22-.9,1.27-.52,2-.99,2.05-.91Z"/>
    <path class="cls-13" d="M354.2,81.78c-.55.53-1.19.96-1.9,1.25-1.68.78-3.52,1.15-5.37,1.08-1.85.08-3.69-.24-5.4-.94-.71-.27-1.37-.68-1.93-1.2,0-.08.79.37,2.07.86,1.69.57,3.47.83,5.26.76,1.78.05,3.56-.25,5.22-.89,1.27-.53,2-.99,2.05-.92Z"/>
    <path class="cls-13" d="M354.26,54.91c.02.21.02.41,0,.62v31.76l-.06-.15c.88.79,1.95,1.34,3.11,1.58,1.22.29,2.48.43,3.74.41,2.64.06,5.22-.72,7.39-2.23l-.09.2h0c0-12.42.05-23.73.06-32.17v.07c-.29-.48-.7-.87-1.19-1.13-.48-.28-.98-.5-1.51-.66-.98-.28-1.98-.44-3-.5-1.65-.12-3.3-.02-4.92.3-1.02.2-1.99.6-2.86,1.18-.22.16-.42.33-.6.53-.13.13-.18.21-.19.21s0-.1.14-.25c.17-.22.37-.41.59-.58.85-.63,1.83-1.08,2.87-1.3,1.64-.36,3.32-.5,5-.4,1.05.04,2.09.2,3.1.48,1.22.26,2.29.98,3,2v.08c0,8.44,0,19.75.07,32.17v.14l-.09.07c-2.26,1.59-4.97,2.42-7.73,2.36-1.3.01-2.6-.14-3.87-.44-1.27-.26-2.43-.88-3.37-1.77l-.05-.06v-.1c.08-9.42.15-17.51.2-23.29,0-2.83.08-5.09.1-6.7,0-.74,0-1.33.05-1.78.01-.22.05-.44.11-.65Z"/>
    <path class="cls-13" d="M368.72,65.84c-.55.53-1.19.95-1.9,1.25-1.68.77-3.52,1.14-5.37,1.08-1.85.08-3.69-.24-5.4-.94-.71-.28-1.37-.68-1.93-1.2,0-.08.79.37,2.07.86,1.69.57,3.47.83,5.26.76,1.78.05,3.56-.25,5.22-.9,1.27-.52,2-.99,2.05-.91Z"/>
    <path class="cls-13" d="M368.72,71.15c-.55.54-1.19.96-1.9,1.26-1.68.77-3.52,1.13-5.37,1.07-1.85.08-3.69-.24-5.4-.94-.72-.27-1.37-.68-1.93-1.2,0-.08.79.37,2.07.86,1.69.57,3.47.83,5.26.76,1.78.06,3.56-.25,5.22-.89,1.27-.53,2-.99,2.05-.92Z"/>
    <path class="cls-13" d="M368.72,60.39c-.55.54-1.19.96-1.9,1.26-1.68.77-3.52,1.13-5.37,1.07-1.85.08-3.69-.24-5.4-.94-.71-.27-1.37-.68-1.93-1.2,0-.08.79.37,2.07.86,1.69.57,3.47.83,5.26.76,1.78.06,3.56-.25,5.22-.89,1.27-.53,2-.99,2.05-.92Z"/>
    <path class="cls-13" d="M368.72,54.91c-.55.53-1.19.95-1.9,1.25-1.68.77-3.52,1.14-5.37,1.08-1.85.08-3.69-.24-5.4-.94-.71-.28-1.37-.68-1.93-1.2,0-.08.79.36,2.07.85,1.69.58,3.47.84,5.26.77,1.78.05,3.56-.25,5.22-.9,1.27-.52,2-.99,2.05-.91Z"/>
    <path class="cls-13" d="M368.72,76.47c-.55.53-1.19.95-1.9,1.25-1.68.77-3.52,1.14-5.37,1.08-1.85.08-3.69-.24-5.4-.94-.71-.28-1.37-.68-1.93-1.2,0-.08.79.37,2.07.86,1.69.57,3.48.83,5.26.76,1.78.05,3.56-.25,5.22-.9,1.27-.52,2-.99,2.05-.91Z"/>
    <path class="cls-13" d="M368.72,81.78c-.55.53-1.19.96-1.9,1.25-1.68.78-3.52,1.15-5.37,1.08-1.85.08-3.69-.24-5.4-.94-.71-.27-1.37-.68-1.93-1.2,0-.08.79.37,2.07.86,1.69.57,3.47.83,5.26.76,1.78.05,3.56-.25,5.22-.89,1.27-.53,2-.99,2.05-.92Z"/>
    <rect class="cls-2" x="85.84" y="38.22" width="144.77" height="65.45" rx="8.22" ry="8.22"/>
    <path class="cls-9" d="M153.32,68.15v2.6h-2.32v-2.53c-2.06-.06-4.06-.71-5.77-1.85l1.27-2.83c1.33.93,2.88,1.49,4.5,1.64v-3.87c-2.57-.62-5.45-1.48-5.45-4.79,0-2.46,1.79-4.57,5.45-5v-2.56h2.32v2.51c1.66.09,3.27.57,4.7,1.41l-1.16,2.85c-1.09-.64-2.29-1.04-3.54-1.2v3.94c2.57.6,5.4,1.46,5.4,4.72,0,2.44-1.72,4.52-5.4,4.96ZM151,57.91v-3.29c-1.23.27-1.72.95-1.72,1.71s.72,1.25,1.72,1.58ZM155,63.49c0-.81-.68-1.25-1.67-1.6v3.2c1.15-.25,1.67-.86,1.67-1.62v.02Z"/>
    <path class="cls-9" d="M164.43,84.52v2h-1.8v-2c-1.59-.05-3.14-.55-4.47-1.43l1-2.19c1.03.72,2.23,1.16,3.48,1.27v-3c-2-.48-4.22-1.14-4.22-3.71,0-1.9,1.39-3.53,4.22-3.86v-2h1.8v2c1.28.07,2.53.44,3.64,1.09l-.9,2.21c-.84-.49-1.77-.81-2.74-.93v3c2,.46,4.18,1.13,4.18,3.66,0,1.93-1.38,3.55-4.19,3.89ZM162.63,76.59v-2.55c-.95.21-1.33.73-1.33,1.33s.54.97,1.33,1.22h0ZM165.72,80.91c0-.63-.52-1-1.29-1.24v2.48c.89-.2,1.29-.68,1.29-1.24h0Z"/>
    <path class="cls-11" d="M98.78,61.36h-1.67v-.43h3.89v.43h-1.67v4.31h-.5l-.05-4.31Z"/>
    <path class="cls-11" d="M100.91,63.89c0-1.01.8-1.82,1.81-1.83,1.01,0,1.82.8,1.83,1.81s-.8,1.82-1.81,1.83c0,0,0,0,0,0-.97.03-1.79-.73-1.82-1.7,0-.04,0-.07,0-.11ZM104.05,63.89c-.03-.73-.65-1.31-1.38-1.28-.73.03-1.31.65-1.28,1.38.03.72.62,1.28,1.34,1.28.72.01,1.31-.56,1.32-1.28,0-.03,0-.07,0-.1Z"/>
    <path class="cls-11" d="M107.4,65.47c-.22.17-.49.26-.76.25-.52.03-.97-.36-1-.88,0-.04,0-.08,0-.12v-2.25h-.64v-.41h.64v-.78h.48v.78h1.09v.41h-1.09v2.13c-.05.31.17.6.48.65.05,0,.09,0,.14,0,.19,0,.38-.06.53-.18l.13.4Z"/>
    <path class="cls-11" d="M111,63.47v2.21h-.46v-.56c-.27.41-.74.63-1.23.59-.8,0-1.3-.42-1.3-1s.35-1,1.38-1h1.13v-.24c0-.61-.35-.94-1-.94-.43,0-.86.14-1.19.42l-.21-.36c.41-.33.93-.5,1.45-.48.69-.1,1.33.38,1.42,1.07.01.1.02.19,0,.29ZM110.52,64.61v-.59h-1.12c-.69,0-.91.28-.91.64s.33.67.9.67c.48,0,.91-.28,1.09-.73h.04Z"/>
    <path class="cls-11" d="M112.27,60.64h.48v5h-.48v-5Z"/>
    <path class="cls-11" d="M115.54,63.3c-.04-1.37,1.03-2.52,2.41-2.57,1.37-.04,2.52,1.03,2.57,2.41.04,1.37-1.03,2.52-2.41,2.57-.02,0-.05,0-.07,0-1.32.06-2.44-.96-2.5-2.28,0-.04,0-.09,0-.13ZM120.02,63.3c0-1.1-.9-2-2-2s-2,.9-2,2,.9,2,2,2c1.07.03,1.95-.81,1.98-1.88,0-.04,0-.08,0-.12h.02Z"/>
    <path class="cls-11" d="M123.34,62.08v.46h-.11c-.63-.03-1.18.45-1.21,1.09,0,.07,0,.15,0,.22v1.82h-.48v-3.57h.45v.7c.25-.5.79-.78,1.34-.72Z"/>
    <path class="cls-11" d="M127.42,60.64v5h-.42v-.71c-.29.48-.81.76-1.37.74-1,0-1.81-.81-1.81-1.81s.81-1.81,1.81-1.81c.54-.02,1.05.25,1.35.7v-2.14l.44.03ZM126.95,63.89c-.03-.73-.65-1.31-1.38-1.28-.73.03-1.31.65-1.28,1.38.03.72.62,1.28,1.34,1.28.72.04,1.33-.51,1.37-1.23,0-.05,0-.1,0-.15h-.05Z"/>
    <path class="cls-11" d="M131.87,64.03h-3c.04.72.65,1.28,1.38,1.24,0,0,.02,0,.02,0,.41.01.81-.15,1.09-.46l.27.31c-.72.75-1.91.78-2.66.06-.36-.34-.56-.8-.58-1.29,0-.96.77-1.73,1.73-1.73s1.73.77,1.73,1.73l.02.14ZM128.87,63.68h2.52c0-.7-.56-1.26-1.26-1.26s-1.26.56-1.26,1.26Z"/>
    <path class="cls-11" d="M134.65,62.08v.46h-.11c-.63-.03-1.18.45-1.21,1.09,0,.07,0,.15,0,.22v1.82h-.48v-3.57h.46v.7c.25-.49.78-.78,1.33-.72Z"/>
    <path class="cls-11" d="M103.58,71.69v14.71h-3.4v-11.93h-3v-2.73l6.4-.05Z"/>
    <path class="cls-11" d="M117.14,83.63v2.77h-11.14v-2.2l5.68-5.36c1.3-1.25,1.53-2,1.53-2.72,0-1.15-.8-1.83-2.35-1.83-1.18-.03-2.3.53-3,1.48l-2.48-1.6c1.37-1.83,3.56-2.86,5.84-2.74,3.28,0,5.47,1.69,5.47,4.36,0,1.43-.4,2.73-2.46,4.64l-3.38,3.2h6.29Z"/>
    <path class="cls-11" d="M118.51,79.05c0-4.86,2.69-7.62,6.31-7.62s6.3,2.76,6.3,7.62-2.67,7.61-6.3,7.61-6.31-2.76-6.31-7.61ZM127.7,79.05c0-3.35-1.18-4.74-2.88-4.74s-2.86,1.39-2.86,4.74,1.17,4.73,2.86,4.73,2.88-1.39,2.88-4.73Z"/>
    <rect class="cls-7" x="176.6" y="58.68" width="42.41" height="27.23" rx="3.17" ry="3.17"/>
    <rect class="cls-2" x="181.41" y="63.69" width="6.91" height="2.51"/>
    <path class="cls-2" d="M189.76,71.36c-1.62.27-3.26.36-4.89.27-1.64.09-3.28,0-4.9-.27,1.62-.26,3.26-.34,4.9-.26,1.63-.08,3.27,0,4.89.26Z"/>
    <path class="cls-2" d="M196.46,71.36c-1.61.36-3.28.36-4.89,0,1.61-.35,3.28-.35,4.89,0Z"/>
    <path class="cls-2" d="M214.67,71.36c-2.42.36-4.89.36-7.31,0,2.42-.35,4.89-.35,7.31,0Z"/>
    <path class="cls-2" d="M205.63,71.36c-2.34.36-4.72.36-7.06,0,2.34-.35,4.72-.35,7.06,0Z"/>
    <path class="cls-2" d="M187.39,77.47c-2.4.35-4.83.35-7.23,0,2.4-.35,4.83-.35,7.23,0Z"/>
    <path class="cls-2" d="M193.53,80.06c-2.22.26-4.46.35-6.69.26-2.23.09-4.46,0-6.68-.26,2.22-.26,4.45-.34,6.68-.26,2.23-.08,4.47,0,6.69.26Z"/>
    <path class="cls-2" d="M214.67,80.06c-1.87.35-3.78.35-5.65,0,.92-.25,1.87-.34,2.82-.26.95-.08,1.91,0,2.83.26Z"/>
    <path class="cls-13" d="M249.72,63.66h-1.67v-.44h3.84v.44h-1.67v4.31h-.5v-4.31Z"/>
    <path class="cls-13" d="M251.85,66.18c0-1.01.81-1.82,1.82-1.82s1.82.81,1.82,1.82-.81,1.82-1.82,1.82c-.97.03-1.79-.73-1.82-1.7,0-.04,0-.08,0-.12ZM254.99,66.18c-.03-.73-.65-1.3-1.39-1.27-.73.03-1.3.65-1.27,1.39.03.71.62,1.27,1.34,1.27.72.02,1.31-.55,1.33-1.27,0-.04,0-.08,0-.12h0Z"/>
    <path class="cls-13" d="M258.33,67.75c-.21.17-.48.26-.75.25-.52.03-.97-.36-1-.88,0-.04,0-.08,0-.12v-2.15h-.64v-.41h.64v-.78h.42v.78h1.08v.41h-1.08v2.13c-.05.31.17.6.48.65.05,0,.09,0,.14,0,.19,0,.38-.06.52-.19l.19.31Z"/>
    <path class="cls-13" d="M261.9,65.76v2.21h-.46v-.56c-.27.41-.74.63-1.23.59-.81,0-1.3-.42-1.3-1s.35-1,1.37-1h1.14v-.21c.07-.48-.26-.93-.74-1-.09-.01-.17-.01-.26,0-.43,0-.85.14-1.19.42l-.22-.35c.41-.33.92-.5,1.45-.49.7-.09,1.34.4,1.43,1.1.01.09.01.19,0,.29ZM261.42,66.9v-.59h-1.12c-.69,0-.92.27-.92.64s.33.67.9.67c.5.03.96-.26,1.14-.72h0Z"/>
    <path class="cls-13" d="M263.2,62.94h.48v5h-.48v-5Z"/>
    <path class="cls-13" d="M270.14,67.97l-1.08-1.5h-1.66v1.51h-.5v-4.75h1.78c1.2,0,1.93.61,1.93,1.63.03.69-.42,1.31-1.08,1.49l1.16,1.63h-.55ZM270.14,64.85c0-.76-.5-1.19-1.45-1.19h-1.29v2.37h1.26c.95,0,1.45-.44,1.45-1.18h.03Z"/>
    <path class="cls-13" d="M274.8,66.33h-3c.04.72.65,1.28,1.38,1.24,0,0,.02,0,.02,0,.41.01.81-.15,1.09-.46l.27.31c-.35.39-.85.6-1.37.58-.98.06-1.81-.69-1.87-1.67,0-.05,0-.1,0-.15-.05-.95.68-1.76,1.63-1.81.04,0,.07,0,.11,0,.94-.02,1.71.73,1.73,1.67,0,.05,0,.1,0,.14,0,0,.01.1.01.15ZM271.8,65.97h2.53c-.06-.7-.68-1.21-1.38-1.15-.61.05-1.1.54-1.15,1.15Z"/>
    <path class="cls-13" d="M278.71,64.4l-1.58,3.57h-.5l-1.57-3.57h.5l1.33,3,1.35-3h.47Z"/>
    <path class="cls-13" d="M282.39,66.33h-3c.04.73.67,1.28,1.4,1.24,0,0,0,0,0,0,.41.02.81-.15,1.09-.46l.28.31c-.72.75-1.92.77-2.67.05-.35-.34-.56-.8-.58-1.29-.05-.95.68-1.76,1.63-1.81.04,0,.07,0,.11,0,.94-.02,1.71.73,1.73,1.67,0,.05,0,.1,0,.14,0,0,.01.1.01.15ZM279.39,65.97h2.53c-.06-.7-.68-1.21-1.38-1.15-.61.05-1.1.54-1.15,1.15Z"/>
    <path class="cls-13" d="M286.66,65.9v2.07h-.48v-2c0-.76-.39-1.14-1.07-1.14-.64-.05-1.21.44-1.25,1.08,0,.07,0,.14,0,.21v1.87h-.48v-3.57h.46v.66c.3-.46.82-.72,1.36-.69.75-.05,1.41.51,1.46,1.27,0,.08,0,.16,0,.24Z"/>
    <path class="cls-13" d="M291.18,64.4v3.57h-.46v-.65c-.27.44-.76.7-1.28.68-.76.08-1.44-.48-1.51-1.23,0-.1,0-.2,0-.3v-2.07h.48v2c-.08.55.29,1.06.83,1.14.08.01.16.01.24,0,.65.03,1.19-.47,1.23-1.11,0-.06,0-.13,0-.19v-1.87l.48.02Z"/>
    <path class="cls-13" d="M295.63,66.33h-3c.04.72.65,1.28,1.38,1.24,0,0,.02,0,.02,0,.41.01.81-.15,1.09-.46l.27.31c-.72.75-1.92.77-2.67.05-.35-.34-.56-.8-.58-1.29-.05-.95.68-1.76,1.63-1.81.04,0,.08,0,.12,0,.93-.02,1.71.72,1.72,1.66,0,.05,0,.1,0,.15l.02.15ZM292.63,65.97h2.52c0-.7-.57-1.26-1.26-1.26-.69,0-1.25.56-1.26,1.26Z"/>
    <path class="cls-13" d="M253.64,86.52v1.67h-1.49v-1.62c-1.32-.04-2.61-.45-3.71-1.19l.82-1.82c.86.59,1.85.96,2.89,1.06v-2.49c-1.65-.41-3.5-1-3.5-3.09,0-1.58,1.15-2.94,3.5-3.21v-1.65h1.49v1.62c1.06.06,2.08.38,3,.91l-.74,1.84c-.71-.41-1.48-.67-2.29-.78v2.54c1.66.38,3.48.94,3.48,3,.03,1.59-1.09,2.93-3.45,3.21ZM252.15,79.93v-2.11c-.79.18-1.1.61-1.1,1.1s.45.81,1.1,1.01h0ZM254.72,83.53c0-.52-.43-.81-1.08-1v2.06c.75-.2,1.08-.59,1.08-1.06h0Z"/>
    <path class="cls-13" d="M262,75.97v10.43h-2.42v-8.49h-2.08v-1.94h4.5Z"/>
    <path class="cls-13" d="M271.69,83.12c0,1.85-1.36,3.46-4.34,3.46-1.41.03-2.8-.36-4-1.11l1-1.85c.87.63,1.92.96,3,.94,1.21,0,2-.51,2-1.36s-.54-1.36-2.43-1.36h-2.67l.53-5.87h6.37v1.94h-4.45l-.17,2h.85c3.09-.02,4.31,1.37,4.31,3.21Z"/>
    <path class="cls-13" d="M275.49,85.06c-.02.52-.16,1.03-.41,1.49l-.85,2.15h-1.47l.66-2.37c-.51-.21-.84-.72-.81-1.27-.02-.77.58-1.41,1.35-1.43.03,0,.07,0,.1,0,.76-.03,1.4.55,1.43,1.31,0,.04,0,.08,0,.12Z"/>
    <path class="cls-13" d="M276.38,81.19c0-3.45,1.91-5.4,4.47-5.4s4.48,2,4.48,5.4-1.9,5.39-4.48,5.39-4.47-1.95-4.47-5.39ZM282.9,81.19c0-2.37-.84-3.36-2-3.36s-2,1-2,3.36.83,3.35,2,3.35,2-.98,2-3.35Z"/>
    <path class="cls-13" d="M286.5,81.19c0-3.45,1.91-5.4,4.47-5.4s4.47,2,4.47,5.4-1.89,5.39-4.47,5.39-4.47-1.95-4.47-5.39ZM293.01,81.19c0-2.37-.83-3.36-2-3.36s-2,1-2,3.36.84,3.35,2,3.35,1.99-.98,1.99-3.35h.01Z"/>
    <path class="cls-13" d="M296.61,81.19c0-3.45,1.91-5.4,4.48-5.4s4.47,2,4.47,5.4-1.89,5.39-4.47,5.39-4.48-1.95-4.48-5.39ZM303.13,81.19c0-2.37-.83-3.36-2-3.36s-2,1-2,3.36.84,3.35,2,3.35,2-.98,2-3.35h0Z"/>
    <path class="cls-2" d="M371.14,233.24h.53c.52-.03,1.03-.09,1.54-.2,4.5-.91,7.79-4.77,8-9.35.06-.91,0-1.86,0-2.85,0-3.95,0-8.5,0-13.63v-37.38c0-7.28,0-15.06,0-23.34,0-4.13,0-8.37,0-12.74,0-2.18,0-4.39,0-6.63,0-1.11,0-2.25-.05-3.35-.12-1.12-.42-2.2-.9-3.22-.97-2.08-2.63-3.77-4.71-4.75-1.04-.5-2.17-.82-3.32-.94-1.16-.09-2.37,0-3.56,0H96.01c-1.71,0-3.4.44-4.89,1.28-1.48.84-2.72,2.05-3.6,3.51-.88,1.46-1.37,3.12-1.41,4.82v97.7c-.02.79.01,1.57.11,2.35.22,1.54.81,3.01,1.71,4.28,1.8,2.57,4.72,4.13,7.86,4.18h27.77l128.87.06,86.88.08,23.62.05h8.23-8.23l-23.62.05-86.88.08-128.89.17h-27.78c-1.62-.03-3.21-.44-4.64-1.2-1.44-.77-2.68-1.85-3.62-3.18-.95-1.33-1.56-2.88-1.79-4.5-.11-.8-.15-1.61-.12-2.42v-97.74c.04-1.79.55-3.53,1.48-5.06,1.89-3.14,5.28-5.05,8.94-5.05h272.56c1.2,0,2.38,0,3.59.06,3.62.38,6.78,2.62,8.34,5.91.49,1.06.8,2.18.92,3.34.09,1.16,0,2.27.05,3.39v42.71c0,14.57,0,27.12-.05,37.38v16.48c-.05.88-.21,1.74-.48,2.58-.48,1.45-1.27,2.77-2.32,3.88-1.43,1.49-3.28,2.52-5.31,2.94-.52.1-1.04.16-1.56.18l-.61.07Z"/>
    <rect class="cls-9" x="176.17" y="188.44" width="9.6" height="38.11"/>
    <rect class="cls-9" x="190.55" y="199.97" width="9.6" height="26.58"/>
    <rect class="cls-9" x="162.39" y="199.97" width="9.6" height="26.58"/>
    <rect class="cls-9" x="134.23" y="223.01" width="9.6" height="3.54"/>
    <rect class="cls-9" x="148.5" y="217.67" width="9.6" height="8.88"/>
    <rect class="cls-9" x="120.48" y="223.6" width="9.6" height="2.95"/>
    <rect class="cls-9" x="106.06" y="223.6" width="9.6" height="2.95"/>
    <rect class="cls-9" x="205.69" y="205.32" width="9.6" height="21.23"/>
    <rect class="cls-9" x="220.84" y="211.15" width="9.6" height="15.4"/>
    <rect class="cls-9" x="235.98" y="199.97" width="9.6" height="26.58"/>
    <rect class="cls-9" x="251.12" y="183.37" width="9.6" height="43.18"/>
    <rect class="cls-9" x="266.26" y="170.59" width="9.6" height="55.96"/>
    <rect class="cls-9" x="281.41" y="188.44" width="9.6" height="38.11"/>
    <rect class="cls-9" x="296.55" y="154.23" width="9.6" height="72.32"/>
    <rect class="cls-9" x="311.69" y="188.44" width="9.6" height="38.11"/>
    <rect class="cls-9" x="326.83" y="199.97" width="9.6" height="26.58"/>
    <rect class="cls-9" x="341.98" y="204.96" width="9.6" height="21.59"/>
    <rect class="cls-9" x="357.12" y="211.15" width="9.6" height="15.4"/>
    <path class="cls-6" d="M114,226.55h18c1.34.02,2.67-.05,4-.21,3.02-.37,5.92-1.39,8.5-3,1.42-.9,2.7-2.02,3.78-3.31,1.07-1.44,1.95-3.02,2.62-4.68,1.5-3.4,2.86-7.09,4.25-11s2.78-8,4.27-12.25c.75-2.13,1.51-4.3,2.39-6.48.89-2.23,1.98-4.38,3.28-6.4,1.35-2.14,3.01-4.08,4.91-5.75,1.97-1.67,4.21-2.99,6.63-3.88,2.5-.9,5.14-1.36,7.8-1.37,2.72-.05,5.44.29,8.07,1,1.34.37,2.64.87,3.88,1.49,1.25.65,2.43,1.44,3.51,2.35,2.16,1.89,3.93,4.18,5.21,6.75,1.23,2.63,2.23,5.36,3,8.16.88,2.78,1.76,5.59,2.74,8.39,1.84,5.74,4.41,11.23,7.65,16.32,1.66,2.57,3.83,4.78,6.38,6.48,1.3.82,2.73,1.39,4.24,1.68.75.15,1.52.22,2.29.23.78,0,1.56,0,2.33-.12,2.09-.15,4.13-.73,6-1.69,1.81-1.04,3.37-2.47,4.55-4.2,1.21-1.71,2.22-3.55,3.25-5.36,1.02-1.81,1.94-3.67,2.76-5.57,3.28-7.57,5.32-15.46,8.38-22.74,1.37-3.65,2.98-7.19,4.83-10.62,1.83-3.33,4.15-6.36,6.88-9,1.32-1.3,2.78-2.44,4.37-3.4,1.57-.94,3.25-1.68,5-2.22,3.38-1.02,6.91-1.45,10.43-1.27,3.37.14,6.7.79,9.87,1.93,3.02,1.11,5.8,2.79,8.2,4.93,4.69,4.14,8.09,9,12,12.84,3.66,3.55,8.12,6.16,13,7.61,4.05,1.28,8.23,2.08,12.47,2.38h0l17.57.06h6.07-6.07l-17.57.06h0c-4.26-.28-8.48-1.06-12.56-2.33-4.92-1.41-9.44-3.98-13.16-7.49-3.92-3.87-7.34-8.71-12-12.79-2.37-2.1-5.11-3.75-8.09-4.84-3.13-1.12-6.42-1.76-9.74-1.88-3.47-.17-6.94.26-10.27,1.26-3.45,1.08-6.59,2.97-9.15,5.52-2.69,2.61-4.98,5.6-6.79,8.88-1.83,3.41-3.43,6.94-4.78,10.57-3.05,7.26-5.08,15.13-8.38,22.76-.82,1.92-1.75,3.79-2.77,5.61-1,1.86-2.1,3.67-3.29,5.41-1.22,1.79-2.84,3.28-4.72,4.35-1.93,1.01-4.05,1.61-6.23,1.76-.79.11-1.59.08-2.38.12-.8,0-1.6-.09-2.39-.24-1.57-.3-3.06-.89-4.41-1.75-2.61-1.73-4.84-3.99-6.54-6.63-3.26-5.13-5.85-10.65-7.71-16.44-1-2.81-1.86-5.63-2.73-8.41-.77-2.77-1.78-5.47-3-8.08-1.24-2.51-2.97-4.76-5.09-6.6-1.05-.89-2.19-1.66-3.41-2.3-1.21-.61-2.48-1.1-3.79-1.46-2.59-.71-5.26-1.05-7.94-1-2.6,0-5.19.45-7.64,1.33-4.68,1.8-8.66,5.06-11.34,9.29-2.66,4-4.13,8.55-5.65,12.78s-2.93,8.35-4.3,12.25-2.78,7.58-4.3,11c-.69,1.69-1.59,3.28-2.68,4.74-1.11,1.31-2.42,2.45-3.87,3.36-2.62,1.61-5.56,2.64-8.61,3-1.33.15-2.66.21-4,.18h-3.71l-10.64-.05h-2.77c-.62,0-.89-.02-.89-.02Z"/>
    <path class="cls-10" d="M207,138.05h-54c-.85,0-1.53.68-1.53,1.53v18.57c0,.84.67,1.52,1.51,1.53,0,0,.01,0,.02,0h27.32c.43,0,.84.18,1.13.5.86.95,2,2.18,2.84,3.08.58.62,1.55.66,2.18.08.03-.03.06-.05.08-.08l2.78-3.07c.29-.32.7-.5,1.13-.5h16.54c.85,0,1.53-.68,1.53-1.53v-18.58c0-.84-.69-1.52-1.53-1.53Z"/>
    <path class="cls-7" d="M147.78,190.93h-45c-.5,0-.91.41-.91.91h0v11c0,.5.41.91.91.91h16.22c.26,0,.5.11.67.3.51.56,1.19,1.3,1.69,1.83.34.37.92.39,1.29.05.02-.02.04-.04.05-.05l1.66-1.82c.17-.19.41-.3.67-.3h22.71c.5,0,.91-.41.91-.91h0v-11c0-.49-.38-.9-.87-.92Z"/>
    <path class="cls-6" d="M187.23,168.3c0,1.16-.94,2.1-2.1,2.1s-2.1-.94-2.1-2.1.94-2.1,2.1-2.1,2.1.94,2.1,2.1h0Z"/>
    <path class="cls-11" d="M185.13,170.47c-1.18,0-2.13-.95-2.13-2.13,0-1.18.95-2.13,2.13-2.13,1.18,0,2.13.95,2.13,2.13,0,1.17-.96,2.12-2.13,2.13ZM185.13,166.26c-1.15,0-2.08.93-2.08,2.08s.93,2.08,2.08,2.08,2.08-.93,2.08-2.08c.02-1.15-.89-2.1-2.04-2.12-.01,0-.03,0-.04,0v.04Z"/>
    <path class="cls-13" d="M165.52,152.34v1h-.91v-1c-.82-.03-1.61-.28-2.29-.74l.5-1.12c.53.37,1.15.6,1.79.66v-1.54c-1-.25-2.16-.59-2.16-1.9,0-1,.7-1.81,2.16-2v-1h.91v1c.66.03,1.3.22,1.87.56l-.46,1.13c-.43-.26-.91-.42-1.41-.48v1.56c1,.24,2.14.58,2.14,1.87,0,1-.66,1.83-2.14,2ZM164.61,148.28v-1.3c-.49.11-.68.37-.68.68s.27.49.68.62ZM166.19,150.49c0-.32-.27-.49-.67-.63v1.27c.48-.1.67-.34.67-.66v.02Z"/>
    <path class="cls-13" d="M170.67,145.84v6.43h-1.49v-5.24h-1.29v-1.19h2.78Z"/>
    <path class="cls-13" d="M176.65,150.25c0,1.14-.84,2.13-2.68,2.13-.87.01-1.72-.23-2.45-.69l.59-1.14c.53.38,1.17.59,1.83.58.74,0,1.2-.31,1.2-.84s-.33-.83-1.5-.83h-1.64l.33-3.62h3.92v1.19h-2.68l-.1,1.22h.53c1.89,0,2.65.86,2.65,2Z"/>
    <path class="cls-13" d="M179,151.47c-.01.32-.1.64-.25.92l-.53,1.32h-.9l.4-1.46c-.32-.13-.52-.44-.5-.78-.01-.47.36-.87.84-.88.02,0,.04,0,.06,0,.47-.02.86.35.88.82,0,.02,0,.04,0,.06Z"/>
    <path class="cls-13" d="M179.54,149.05c0-2.12,1.17-3.32,2.75-3.32s2.76,1.2,2.76,3.32-1.17,3.33-2.76,3.33-2.75-1.21-2.75-3.33ZM183.54,149.05c0-1.46-.51-2.06-1.26-2.06s-1.25.6-1.25,2.06.52,2.07,1.25,2.07,1.27-.65,1.27-2.07h-.01Z"/>
    <path class="cls-13" d="M185.77,149.05c0-2.12,1.18-3.32,2.76-3.32s2.76,1.2,2.76,3.32-1.17,3.33-2.76,3.33-2.76-1.21-2.76-3.33ZM189.77,149.05c0-1.46-.52-2.06-1.26-2.06s-1.25.6-1.25,2.06.51,2.07,1.25,2.07,1.28-.65,1.28-2.07h-.02Z"/>
    <path class="cls-13" d="M192,149.05c0-2.12,1.17-3.32,2.75-3.32s2.76,1.2,2.76,3.32-1.17,3.33-2.76,3.33-2.75-1.21-2.75-3.33ZM196,149.05c0-1.46-.51-2.06-1.26-2.06s-1.25.6-1.25,2.06.52,2.07,1.25,2.07,1.26-.65,1.26-2.07Z"/>
    <path class="cls-11" d="M72.68,0h318.64c3.31,0,6,2.69,6,6v12.63H66.71V5.97c.02-3.29,2.68-5.95,5.97-5.97Z"/>
    <circle class="cls-7" cx="78.69" cy="9.57" r="2.66"/>
    <circle class="cls-7" cx="86.98" cy="9.57" r="2.66"/>
    <circle class="cls-7" cx="95.27" cy="9.57" r="2.66"/>
  </g>
  <g id="freepik--Character--inject-16">
    <path class="cls-6" d="M422.86,411.83c9.3.08,17.34-6.48,19.14-15.6,3.18-16.14,7.27-38.72,7.4-64.08.08-15.55-3.4-35.24-8.21-50-7-21.6-22.06-40.63-43.9-46.86-28.37-8.1-38.64-5-58.76,5.56-21.88,11.47-27.8,33-50.58,42.58-22.11,9.29-48.78,6.12-68.94,19.12-17.73,11.44-26.38,33.41-27.08,54.5-.53,11.21.56,22.43,3.23,33.33,2.75,11.51,13.14,21.38,25,21.48l202.7-.03Z"/>
    <path class="cls-3" d="M422.86,411.83c9.3.08,17.34-6.48,19.14-15.6,3.18-16.14,7.27-38.72,7.4-64.08.08-15.55-3.4-35.24-8.21-50-7-21.6-22.06-40.63-43.9-46.86-28.37-8.1-38.64-5-58.76,5.56-21.88,11.47-27.8,33-50.58,42.58-22.11,9.29-48.78,6.12-68.94,19.12-17.73,11.44-26.38,33.41-27.08,54.5-.53,11.21.56,22.43,3.23,33.33,2.75,11.51,13.14,21.38,25,21.48l202.7-.03Z"/>
    <path class="cls-11" d="M408.28,239.11c.08.13.15.26.21.4.14.3.33.7.58,1.21.51,1.1,1.23,2.67,2.16,4.67l1.55,3.38c.56,1.25,1,2.64,1.63,4.12s1.18,3.07,1.83,4.74,1.25,3.49,1.86,5.39,1.24,3.91,1.9,6c.36,1,.63,2.12.91,3.22s.57,2.21.86,3.35l.89,3.48c.15.58.31,1.18.46,1.77s.25,1.22.37,1.83c.5,2.46,1,5,1.52,7.58,1.98,11.31,3.15,22.74,3.51,34.22.23,11.47-.22,22.94-1.36,34.35-.63,5.25-1.14,10.25-2,14.88-.37,2.32-.68,4.57-1.07,6.71s-.81,4.2-1.19,6.16c-.71,3.94-1.58,7.45-2.28,10.54-.36,1.55-.69,3-1,4.31l-1,3.6c-.58,2.13-1,3.8-1.34,5l-.37,1.29c-.03.15-.08.29-.14.43.02-.15.05-.3.09-.45.07-.32.18-.75.31-1.3.29-1.17.7-2.85,1.23-5,.27-1.08.58-2.29.91-3.6s.61-2.77,1-4.32c.67-3.1,1.51-6.61,2.19-10.55.37-1.96.76-4.01,1.16-6.15.37-2.15.67-4.4,1-6.71.78-4.63,1.27-9.63,1.89-14.86,1.1-11.39,1.54-22.84,1.3-34.29-.35-11.44-1.5-22.83-3.45-34.11-.5-2.59-1-5.11-1.49-7.56l-.36-1.82-.45-1.78c-.3-1.17-.59-2.33-.88-3.47s-.57-2.25-.84-3.35-.54-2.18-.89-3.21l-1.87-6c-.58-1.9-1.13-3.72-1.81-5.39s-1.23-3.27-1.78-4.75-1.05-2.88-1.58-4.13l-1.45-3.47c-.88-2-1.57-3.6-2.06-4.71l-.52-1.23c-.06-.13-.11-.28-.14-.42Z"/>
    <path class="cls-5" d="M221.86,411.67l-18.92,29.63-37-23.36c2.45-3.39,26.06,1.6,26.06,1.6l11.35-19.48,18.51,11.61Z"/>
    <g class="cls-14">
      <path class="cls-13" d="M204.47,425.16c.59.69.57,1.71-.05,2.38-.66.63-1.7.63-2.36,0-.63-.73-.6-1.83.06-2.53.76-.57,1.85-.44,2.45.3"/>
    </g>
    <g class="cls-14">
      <path class="cls-13" d="M202.94,441.3l1.79-3.06-36.12-21.25s-2.1-.32-2.65,1l36.98,23.31Z"/>
    </g>
    <path class="cls-11" d="M191.54,418.97c-.11.19.74.84,1.26,2s.52,2.2.73,2.23.6-1.18-.05-2.55-1.88-1.87-1.94-1.68Z"/>
    <path class="cls-11" d="M186.65,418.13c-.15.15.43.95.56,2.1s-.2,2.07,0,2.17.94-.84.75-2.27-1.2-2.17-1.31-2Z"/>
    <path class="cls-11" d="M181.51,421.38c.14.14,1-.6,1.12-1.89s-.43-2.21-.6-2.1,0,1-.13,2-.56,1.86-.39,1.99Z"/>
    <path class="cls-11" d="M194.62,414.82c0,.21.95.49,1.93,1.2s1.57,1.54,1.76,1.44-.16-1.22-1.33-2-2.36-.84-2.36-.64Z"/>
    <path class="cls-11" d="M198.27,410.99c-.05.07.59.63,1.86,1.16.74.3,1.52.52,2.31.63.47.06.94.1,1.42.1.28.02.56,0,.83-.08.41-.11.7-.48.69-.91-.02-.37-.22-.71-.53-.91-.23-.15-.49-.26-.75-.34-1.23-.41-2.54-.51-3.82-.29-.73.06-1.43.35-2,.81,0,.12.82-.19,2.11-.29.75-.06,1.5-.02,2.24.11.43.08.86.2,1.27.35.46.14.79.35.78.59s0,.12-.17.18c-.2.04-.41.06-.61.06-.46,0-.91,0-1.33-.06-.76-.08-1.5-.23-2.23-.45-.67-.27-1.36-.49-2.07-.66Z"/>
    <path class="cls-11" d="M198.34,411.4c0,.06.81-.36,1.62-1.48.45-.67.79-1.41,1-2.19.12-.46.2-.94.24-1.42.11-.63-.12-1.26-.6-1.68-.33-.22-.77-.22-1.1,0-.23.16-.43.35-.61.56-.87,1.01-1.31,2.33-1.21,3.66.12,1.42.73,2.11.79,2.06-.13-.68-.22-1.38-.27-2.07.02-.73.19-1.45.52-2.11.19-.37.43-.7.71-1,.3-.36.65-.58.77-.45s.31.61.27,1c-.02.43-.08.87-.18,1.29-.17.73-.44,1.42-.81,2.07-.6,1.11-1.22,1.67-1.14,1.76Z"/>
    <path class="cls-5" d="M248.33,319.47l-11.33,33.25-41.47-13.89c1.57-3.88,25.69-4.65,25.69-4.65l6.38-21.62,20.73,6.91Z"/>
    <g class="cls-14">
      <path class="cls-13" d="M234.64,336.68c.74.53.97,1.52.53,2.32-.5.77-1.51,1-2.3.54-.79-.56-1.02-1.62-.55-2.46.6-.75,1.69-.88,2.46-.3"/>
    </g>
    <g class="cls-14">
      <path class="cls-13" d="M237,352.72l1-3.4-40.13-12.05s-2.12.18-2.34,1.56l41.47,13.89Z"/>
    </g>
    <path class="cls-11" d="M220.61,333.74c-.06.21.93.64,1.7,1.62s1,2,1.24,2,.3-1.29-.66-2.47-2.26-1.35-2.28-1.15Z"/>
    <path class="cls-11" d="M215.66,334.08c-.11.18.65.82,1.05,1.91s.3,2.06.5,2.12.72-1.05.2-2.39-1.68-1.83-1.75-1.64Z"/>
    <path class="cls-11" d="M211.45,338.47c.17.11.79-.81.64-2.09s-1-2-1.09-1.91.25.93.35,2-.1,1.91.1,2Z"/>
    <path class="cls-11" d="M222.62,328.98c0,.21,1,.24,2.16.7s1.89,1.12,2.05,1-.45-1.15-1.77-1.68-2.49-.22-2.44-.02Z"/>
    <path class="cls-11" d="M225.25,324.39c.62.41,1.34.64,2.08.68.79.12,1.6.14,2.4.06.47-.04.94-.12,1.4-.23.28-.05.55-.15.8-.28.35-.2.53-.6.45-1-.12-.35-.38-.63-.73-.76-.27-.09-.54-.14-.82-.15-.48-.04-.96-.04-1.44,0-.8.08-1.59.29-2.33.62-1.26.57-1.85,1.21-1.79,1.28s.75-.38,2-.79c.71-.23,1.45-.38,2.2-.43.44-.03.87-.03,1.31,0,.48,0,.86.15.9.38s0,.12-.12.22c-.18.09-.38.16-.58.2-.43.11-.87.2-1.31.26-.75.1-1.51.14-2.26.1-.71-.11-1.44-.16-2.16-.16Z"/>
    <path class="cls-11" d="M225.42,324.77c.06.05.71-.54,1.22-1.83.29-.76.45-1.56.48-2.37.01-.48-.03-.96-.11-1.43-.05-.64-.43-1.21-1-1.5-.38-.12-.8,0-1.06.29-.19.21-.34.44-.47.69-.23.44-.39.91-.47,1.4-.15.81-.09,1.65.17,2.44.45,1.35,1.21,1.87,1.25,1.81-.29-.63-.54-1.28-.75-1.94-.16-.72-.16-1.46,0-2.18.09-.41.24-.81.44-1.18.21-.42.5-.72.65-.62s.44.51.5.92c.08.43.13.86.13,1.3,0,.75-.09,1.49-.29,2.21-.32,1.23-.79,1.92-.69,1.99Z"/>
    <path class="cls-11" d="M317,309.95s-31.21-50.09-39.77-64c-9.92-16.07-30.26-14-35.14.48,1.09-3.26-3.8,11.1-20.27,64.73l27.75,7.94,17.85-15.16,7.08,20.25,42.5-14.24Z"/>
    <polygon class="cls-8" points="312.9 254.14 301.54 293 259.51 297.51 259.51 304.97 321.27 305.82 329.68 255.22 312.9 254.14"/>
    <path class="cls-11" d="M322.91,307.33h-57.37c-9.03,0-17.64,3.87-23.63,10.63-1.99,2.28-3.46,4.97-4.32,7.87l-42,78.36,26.83,14.82,50.16-71.54,28,.34,62.42-38.97-40.09-1.51Z"/>
    <path class="cls-5" d="M265.94,332.15c.58.58,1.08,1.23,1.48,1.95,1.06,1.67,1.96,3.43,2.69,5.27.73,1.83,1.29,3.73,1.68,5.66.2.79.29,1.61.28,2.43-.17,0-.73-3.66-2.45-7.9s-3.82-7.32-3.68-7.41Z"/>
    <path class="cls-2" d="M206.67,261.41l23.33,45.92h73.66l-3-6-21.34-.64-17.32-38.7c-1.08-2.43-3.48-4-6.14-4h-47.1c-1.29,0-2.35,1.03-2.35,2.33,0,.38.09.76.26,1.09Z"/>
    <path class="cls-11" d="M244.36,281.73c0,1.66-1.34,3-3,3s-3-1.34-3-3,1.34-3,3-3,3,1.34,3,3Z"/>
    <path class="cls-10" d="M393.67,228.66c-2.45-11.09-19-15.3-26.46-15.32-10.41,0-9.47-.66-19.7,1.18h-1.35c-31.1-1.26-34.68,41.46-34.68,41.46l14.18,1.15h0l-3.75,29.43-10.85,20.83,59.73-.09,3.34-48.63,25-.66s-2.98-18.14-5.46-29.35Z"/>
    <path class="cls-11" d="M327.38,237.89c.16,0-.89,10.39-2.35,23.17s-2.76,23.11-2.92,23.1.89-10.39,2.35-23.17,2.76-23.12,2.92-23.1Z"/>
    <g class="cls-15">
      <path class="cls-1" d="M373,237.89c-2.55,12.18-5.87,24.69-8.41,36.87-.55,2.59-1.13,5.27-2.71,7.38-1.04,1.28-2.27,2.41-3.63,3.35-5,3.76-10.31,7.29-16.21,9.44,8.52-.72,16.97-2.19,25.23-4.39,1.44-.25,2.77-.95,3.79-2,.71-1.08,1.1-2.33,1.14-3.62,1.83-15.61,1.3-31.35.8-47.07"/>
    </g>
    <path class="cls-8" d="M290.5,292.07l18.5-2.22,13.05,8.55,49.95-11.93,1.46-27.84,22.4-.56-.53,32.68c-.24,10.49-8.94,18.8-19.43,18.56-.02,0-.03,0-.05,0l-73.08-2-3.11-6.22-15.66-.52,6.5-8.5Z"/>
    <path class="cls-4" d="M372,286.47c-.31.12-.62.22-.94.29l-2.71.7-10,2.5-33.08,8-3.08.73h-.12l-.11-.07-13-8.57h.17l-18.52,2.14.12-.07-4.89,6.21-1.32,1.64c-.14.2-.31.38-.49.54.12-.21.26-.41.41-.6l1.24-1.7,4.76-6.31.05-.06h.07l18.44-2.26h.18l13.06,8.54h-.23l3.08-.74,33.13-7.85,10.05-2.32,2.74-.6c.33-.07.66-.12.99-.14Z"/>
    <path class="cls-4" d="M301.25,297.38c-2.39.29-4.79.39-7.19.29h-1.32l.19-.07c-1.45,1.32-3.01,2.53-4.66,3.59,1.31-1.46,2.75-2.8,4.29-4l.08-.07h1.42c2.4-.11,4.8-.02,7.19.26Z"/>
    <path class="cls-4" d="M380.69,291.1c-.95-1.5-2.19-2.79-3.64-3.8-2.48-1.6-5-1.45-5-1.63.51-.19,1.07-.23,1.61-.13,2.66.27,5.04,1.77,6.44,4.05.33.44.53.96.59,1.51Z"/>
    <path class="cls-11" d="M399.14,258.2h0l-5.45.2c-4.6.14-11,.3-18,.44l-2.25.05h-.29v-.28c-.25-6.52-.14-12.33,0-16.5.06-2.09.14-3.76.21-4.92,0-.6.06-1.2.17-1.79.06.6.08,1.2.05,1.8v4.92c0,4.17-.07,10,.2,16.46l-.3-.27h2.26c7-.14,13.4-.23,18-.27h5.46c1.23-.06-2.06.08-.06.16Z"/>
    <path class="cls-11" d="M360.66,258.37c-.2.5-.44.98-.72,1.44-.24.46-.54,1-.94,1.63s-.81,1.35-1.35,2.1c-1.23,1.79-2.56,3.5-4,5.12-1.77,1.98-3.68,3.83-5.71,5.55-2.05,1.69-4.21,3.24-6.47,4.64-1.85,1.12-3.77,2.12-5.75,3-.84.4-1.63.69-2.31,1s-1.28.49-1.77.64c-.5.2-1.01.35-1.54.45.47-.25.96-.47,1.47-.64.48-.18,1.07-.41,1.73-.71s1.44-.61,2.26-1c1.94-.93,3.83-1.96,5.65-3.1,4.48-2.78,8.55-6.18,12.08-10.1,1.44-1.59,2.8-3.26,4.06-5,.55-.74,1-1.44,1.41-2.05s.74-1.13,1-1.57c.26-.49.56-.96.9-1.4Z"/>
    <path class="cls-12" d="M392.58,226.6c-.24.02-.49.02-.73,0l-2.09-.07-7.67-.3c-6.48-.22-15.43-.39-25.31-.26s-18.83.57-25.3,1l-7.66.5-2.08.13c-.24.02-.49.02-.73,0,.23-.07.48-.1.72-.11l2.07-.23c1.81-.19,4.42-.42,7.65-.67,6.47-.5,15.42-1,25.32-1.12s18.86.1,25.34.42c3.23.15,5.85.31,7.66.45l2.08.17c.25,0,.49.04.73.09Z"/>
    <path class="cls-12" d="M326.12,246.94c-4.37.35-8.75.35-13.12,0,4.37-.35,8.75-.35,13.12,0Z"/>
    <path class="cls-12" d="M372.9,249.2c-.15.06-.3.09-.46.1l-1.35.2c-1.17.16-2.86.36-5,.58-4.2.43-10,.9-16.46,1.15s-12.27.24-16.49.13c-2.11-.05-3.82-.12-5-.19l-1.35-.09c-.16,0-.32-.02-.47-.07.16-.02.31-.02.47,0h6.36c4.22,0,10.05,0,16.47-.28s12.24-.66,16.44-1l5-.41,1.36-.1c.16-.03.32-.04.48-.02Z"/>
    <path class="cls-12" d="M397,245.11c0,.14-5.32.74-11.91,1.33s-11.94.94-12,.8,5.32-.74,11.91-1.32,11.94-.95,12-.81Z"/>
    <path class="cls-12" d="M345.09,275.55c-1.04.18-2.09.26-3.14.25-1.95.08-4.64.12-7.62.05s-5.66-.24-7.6-.41c-1.05-.04-2.1-.17-3.13-.4,1.05-.08,2.1-.08,3.15,0,1.95.08,4.63.18,7.6.25s5.65.1,7.59.12c1.05-.03,2.11.01,3.15.14Z"/>
    <path class="cls-12" d="M372.56,276.41c-.37.12-.75.2-1.13.24-.73.13-1.79.28-3.11.45-2.63.32-6.29.66-10.34.82s-7.72.1-10.37,0c-1.33-.06-2.4-.13-3.14-.2-.39,0-.77-.06-1.14-.16.38-.04.77-.04,1.15,0h3.14c2.65,0,6.31,0,10.34-.13s7.68-.44,10.32-.67l3.13-.28c.38-.07.77-.1,1.15-.07Z"/>
    <path class="cls-12" d="M329.22,295.55c-1.77-.1-3.5-.54-5.11-1.28-1.68-.59-3.23-1.49-4.58-2.64.09-.13,2.1,1.09,4.77,2.16s4.95,1.61,4.92,1.76Z"/>
    <path class="cls-8" d="M354.16,159.25h-1c-9.4-.05-17.28,7.1-18.16,16.46-.7,8.63-1.35,18.17-1.28,22.8.14,9.59,10,11.06,10,11.06l-.37,8.51c-.21,6.35,4.66,11.71,11,12.11h0c6.46.38,12.01-4.56,12.38-11.02,0-.04,0-.09,0-.13l2-40.49c.89-9.96-4.34-18.74-14.58-19.3Z"/>
    <path class="cls-4" d="M343.59,209.55c4.56,0,9.02-1.28,12.89-3.7,0,0-3,6.91-12.85,6.06l-.04-2.36Z"/>
    <path class="cls-11" d="M338.45,181.66c0,.75.61,1.36,1.36,1.38.74.06,1.39-.48,1.45-1.22,0,0,0-.01,0-.02-.04-.73-.63-1.31-1.36-1.33-.73-.06-1.37.46-1.45,1.19Z"/>
    <path class="cls-11" d="M337.09,180.39c.17.18,1.23-.59,2.75-.59s2.62.74,2.78.56-.09-.4-.58-.75c-1.34-.89-3.08-.89-4.42,0-.46.38-.62.7-.53.78Z"/>
    <path class="cls-11" d="M352.57,182.11c.01.75.61,1.36,1.36,1.38.74.06,1.39-.48,1.45-1.22,0,0,0-.01,0-.02-.01-.76-.62-1.37-1.38-1.38-.74-.05-1.38.5-1.43,1.24Z"/>
    <path class="cls-11" d="M351.21,180.64c.17.18,1.24-.59,2.75-.59s2.62.73,2.79.55-.1-.4-.59-.74c-.66-.44-1.44-.67-2.23-.66-.78,0-1.55.23-2.19.69-.46.35-.62.67-.53.75Z"/>
    <path class="cls-11" d="M346.49,191.57c-.8-.24-1.63-.38-2.46-.42-.38,0-.75-.11-.82-.37-.03-.39.06-.78.26-1.12l1.14-2.86c1.57-4.08,2.71-7.44,2.55-7.5s-1.59,3.2-3.17,7.28c-.38,1-.74,2-1.09,2.88-.24.46-.3.98-.19,1.48.12.27.35.47.63.55.22.06.44.09.66.09.83.1,1.66.1,2.49-.01Z"/>
    <path class="cls-11" d="M350.94,192.58c-.24,0-.24,1.59-1.65,2.73s-3.15,1-3.16,1.19.39.31,1.13.32c.96.02,1.89-.3,2.64-.9.71-.56,1.17-1.38,1.28-2.28.06-.67-.12-1.07-.24-1.06Z"/>
    <path class="cls-11" d="M351.55,174.87c.15.4,1.66.21,3.44.41s3.21.67,3.44.31c.11-.17-.14-.54-.72-.93-1.57-.97-3.5-1.17-5.24-.55-.65.25-.98.57-.92.76Z"/>
    <path class="cls-11" d="M337.63,176.13c.27.33,1.31,0,2.56,0s2.32.22,2.56-.13c.11-.17-.06-.51-.52-.82-1.28-.78-2.9-.73-4.13.13-.44.31-.58.66-.47.82Z"/>
    <path class="cls-8" d="M367.3,185.65c.17-.07,6.76-2,6.56,4.59s-6.92,5-6.92,4.82.36-9.41.36-9.41Z"/>
    <path class="cls-4" d="M368.48,192.63s.11.09.31.18c.28.11.59.11.87,0,.89-.51,1.44-1.46,1.42-2.49.04-.56-.06-1.13-.28-1.65-.12-.42-.43-.76-.85-.9-.27-.08-.56.04-.7.29-.1.18-.06.32-.1.33s-.14-.12-.07-.39c.04-.16.14-.3.27-.4.2-.12.42-.16.65-.13.54.11.99.49,1.19,1,.27.57.39,1.21.35,1.84.01,1.2-.7,2.3-1.8,2.78-.37.1-.75.02-1.06-.2-.2-.1-.23-.25-.2-.26Z"/>
    <path class="cls-11" d="M362.89,166.17l-28.07.6c.97-1.87,2.39-3.47,4.13-4.65,3.68-2.76,8.12-4.31,12.71-4.45,4.57-.08,13.89,5.35,17.2,8.42,2.66,2.46,2.64,4.59,2.64,4.59.42,3.55-1.61,7.57-2.42,11-.42,1.8-1.23,7.22-1.23,7.22h0c-1.55,0-2.12-1.2-1.88-2.69l.28-5.84c-3.16-2.4-4.29-6.64-2.76-10.3.4-.48,1.25-2.91-.6-3.9Z"/>
    <path class="cls-4" d="M357,186.89c.09.02.17-.04.19-.13,0,0,0,0,0-.01.03-.09-.03-.18-.12-.21,0,0,0,0,0,0-.1-.01-.18.05-.2.15-.02.09.04.18.13.2Z"/>
    <path class="cls-4" d="M354.1,186.26c.1.01.2-.06.21-.17,0,0,0,0,0,0,.03-.1-.03-.2-.12-.23-.1-.01-.2.06-.21.17,0,0,0,0,0,0-.03.1.03.2.12.23Z"/>
    <path class="cls-4" d="M352.16,186.22c.09,0,.18-.1.2-.25s0-.27-.14-.28-.18.1-.19.24.04.28.13.29Z"/>
    <path class="cls-4" d="M355.58,188.66c.09,0,.17-.05.16-.1s-.07-.11-.16-.11-.17.05-.17.11.08.1.17.1Z"/>
    <path class="cls-4" d="M352.93,188.07c.1,0,.17-.07.18-.17.01-.1-.05-.18-.15-.2-.1,0-.17.07-.18.17-.02.09.04.18.14.2,0,0,0,0,.01,0Z"/>
    <path class="cls-4" d="M339.13,186.47c.1.03.19-.03.22-.13.03-.1-.03-.19-.13-.22-.1-.03-.19.03-.22.13,0,0,0,0,0,.01-.02.09.04.19.13.21Z"/>
    <path class="cls-4" d="M337.16,186.32c.09,0,.17-.08.19-.19-.01-.09-.1-.16-.19-.15s-.16.1-.15.19c0,.08.07.14.15.15Z"/>
    <path class="cls-4" d="M340.87,186.54c.08.01.16-.03.19-.11.02-.08-.03-.15-.11-.17,0,0-.02,0-.02,0-.08-.02-.17.02-.2.1,0,.09.05.16.14.18Z"/>
    <path class="cls-4" d="M339.41,188.47c.09.03.19-.02.23-.11.05-.08.02-.18-.06-.23,0,0,0,0-.01,0-.09-.03-.2.02-.23.11,0,0,0,0,0,0-.05.09-.01.19.07.24Z"/>
    <path class="cls-4" d="M337.73,188.13c.08,0,.13-.08.12-.16,0,0,0,0,0-.01-.03-.08-.12-.12-.2-.09-.08.02-.13.09-.12.17.03.08.11.12.19.09,0,0,0,0,0,0Z"/>
    <path class="cls-11" d="M369.05,166.47c.64-2.45.05-5.06-1.58-7-1.65-1.99-4.13-3.1-6.71-3-1.3.19-2.61.29-3.92.28-2.43-.26-4.3-2.15-6.55-3.07-3.64-1.4-7.77-.2-10.09,2.94-.86,1.24-1.42,2.78-2.72,3.56-1.13.68-2.56.62-3.83,1-2.58.84-4.29,3.29-4.2,6,.26,2.68,1.99,5,4.49,6,2.53.98,5.37.79,7.75-.53,2.12-1.15,4-3.1,6.44-3s4.7,2.38,7.16,1.9c1.25-.39,2.37-1.12,3.23-2.11.86-.99,2.04-1.66,3.34-1.87,1.32-.08,2,1.68,1.53,2.88l5.66-3.92"/>
    <path class="cls-5" d="M335.37,163.3v.1c0,.06.09.15.17.26.22.33.49.63.8.89,2.04,1.73,5.08,1.56,6.9-.4.7-.93,1.34-1.89,1.94-2.88.36-.5.82-.91,1.36-1.2.58-.28,1.22-.41,1.86-.4.67.02,1.32.19,1.91.51.6.32,1.09.81,1.41,1.41.3.63.64,1.24,1,1.84.39.62,1.06,1.01,1.79,1.06.71.02,1.4-.17,2-.55.55-.33,1.05-.73,1.49-1.2.73-.89,1.69-1.55,2.78-1.93.99-.18,2.01.05,2.82.65.67.47,1.21,1.12,1.55,1.86.26.56.46,1.15.58,1.76.1.5.15.9.19,1.16,0,.14.02.28.06.41v-.41c-.03-.4-.07-.79-.14-1.18-.1-.62-.28-1.23-.54-1.8-.35-.77-.89-1.44-1.57-1.95-.85-.65-1.94-.91-3-.71-1.14.38-2.14,1.07-2.9,2-.43.45-.92.84-1.45,1.16-.54.34-1.17.51-1.81.51-.66-.06-1.25-.43-1.59-1-.38-.54-.63-1.2-1-1.82-.35-.64-.87-1.16-1.51-1.51-.62-.33-1.3-.51-2-.53-.69-.02-1.38.13-2,.43-.57.31-1.07.75-1.44,1.28-.74,1-1.18,2.09-1.9,2.87-.69.73-1.58,1.24-2.56,1.46-.82.18-1.66.14-2.46-.11-.6-.19-1.16-.49-1.65-.88-.41-.34-.78-.73-1.09-1.16Z"/>
    <path class="cls-5" d="M330.28,163.4c-.07.16-.11.34-.11.52-.04.49,0,.99.14,1.47.21.71.57,1.37,1.05,1.93.62.68,1.37,1.22,2.22,1.57,1.56.61,3.25.8,4.9.54.5-.07.99-.17,1.47-.29.18-.03.36-.08.52-.17,0,0-.77.14-2,.27-1.61.2-3.25,0-4.77-.59-.81-.34-1.54-.85-2.14-1.49-.47-.53-.83-1.15-1.05-1.82-.19-.63-.26-1.28-.23-1.94Z"/>
    <path class="cls-6" d="M403.49,260.47c-.17,12.86-8,24.71-18.24,32.52s-22.64,12.14-35,15.7-25,6.51-36.64,12c-16.1,7.62-31,18.07-40.12,33.39s-12.34,35.45-11.32,53.23l136.83-13.66,7.49-77.75-3-55.43Z"/>
    <path class="cls-11" d="M280.91,343.18c-.1.2-.22.38-.35.56l-1.09,1.54c-.48.66-1.08,1.46-1.69,2.44s-1.39,2.05-2.09,3.34-1.56,2.62-2.31,4.17-1.56,3.18-2.34,4.94c-1.63,3.86-2.96,7.83-4,11.88-.95,4.07-1.64,8.19-2.04,12.35-.18,1.92-.34,3.75-.39,5.46s-.1,3.31-.12,4.77,0,2.78.06,3.94.07,2.16.12,3,.06,1.4.08,1.88c.03.22.03.44,0,.66-.06-.21-.09-.43-.1-.65-.05-.48-.11-1.1-.18-1.87s-.17-1.81-.21-3-.15-2.48-.14-3.95,0-3.06.05-4.79.19-3.55.35-5.49c.4-4.19,1.1-8.34,2.08-12.43,1.03-4.08,2.36-8.07,4-11.94.8-1.76,1.56-3.44,2.4-4.95s1.62-2.91,2.37-4.17,1.53-2.33,2.17-3.3,1.26-1.76,1.77-2.41l1.16-1.47c.13-.19.28-.36.44-.51Z"/>
    <path class="cls-10" d="M403.49,260.47c-.17,12.86-8,24.71-18.24,32.52s-22.64,12.14-35,15.7-25,6.51-36.64,12c-16.1,7.62-31,18.07-40.12,33.39s-12.34,35.45-11.32,53.23l136.83-13.66,7.49-77.75-3-55.43Z"/>
  </g>
  <g id="freepik--Plant--inject-16">
    <path class="cls-10" d="M87.79,318.32c-12.2-12.2-29.93-17.06-46.65-12.8,13.92,9.49,30.35,14.62,47.2,14.74"/>
    <path class="cls-10" d="M72,262.29c2-13.75-3.4-29.21-13.69-39.2-.34,13.62,5.41,28.95,13.69,39.2"/>
    <path class="cls-10" d="M80.19,288.26c-7.43-14.12-19.27-25.43-33.71-32.22,4.6,16.11,17.54,28.49,33.84,32.36"/>
    <path class="cls-10" d="M81.9,293.27c-8.31.23-16.71-.06-24.74-2.19s-15.72-6.21-21.06-12.56c16.27.05,32.15,4.9,45.67,13.95"/>
    <path class="cls-10" d="M77.68,276.76c4.22-15.79,11.17-26.72,23.59-35.57,1.96,16.05-8.04,31.14-23.59,35.57"/>
    <path class="cls-10" d="M109,304c.06-9.42-5.54-17.95-14.2-21.65.69,8.15,7.1,17.59,14.2,21.65"/>
    <path class="cls-10" d="M113,290.69c1.18-13.5,10.08-25.1,22.82-29.72-2.86,13.2-10.5,24.19-22.82,29.72"/>
    <path class="cls-10" d="M107,314.32c2.93-4.19,7.71-6.79,12.65-8.09s10.11-1.41,15.22-1.51c-7.05,7.65-17.09,11.83-27.48,11.44"/>
    <path class="cls-10" d="M101.08,347.99c19.31-5.95,39.97,3.84,47.6,22.55-17.29-3.28-34.35-11-47.6-22.55"/>
    <path class="cls-10" d="M82.1,336.29c2.87,8.49,2.32,18.75-4.07,26.07-2.57-8.86-1.08-18.41,4.07-26.07"/>
    <path class="cls-10" d="M70.88,331.57c-.96,11.12-7.65,20.93-17.64,25.9-.46.3-1.03.39-1.56.26-.78-.32-.85-1.38-.75-2.22,1.25-10.88,9.31-21.4,19.95-24"/>
    <path class="cls-10" d="M63.55,330.47c-9.83,10.61-26.4,11.25-37.01,1.43-.43-.4-.85-.81-1.25-1.24,12.16-1.33,26.2-2.22,38.26-.19"/>
    <path class="cls-11" d="M61.73,233.22c.03.12.07.24.12.35.09.26.21.6.37,1,.34.93.83,2.25,1.46,3.94s1.41,3.81,2.29,6.25l1.41,3.9c.48,1.39,1,2.86,1.52,4.4,2.15,6.16,4.54,13.56,7.13,21.79s5.2,17.35,7.82,26.95,4.88,18.83,6.83,27.24,3.53,16,4.7,22.43c.31,1.6.59,3.13.87,4.57s.47,2.82.69,4.1c.44,2.55.82,4.75,1.07,6.56s.49,3.18.64,4.15c.08.46.13.82.18,1.08s.07.37.07.37c.01-.12.01-.25,0-.37,0-.27-.08-.63-.14-1.09-.13-1-.31-2.38-.55-4.17s-.58-4-1-6.58c-.21-1.28-.43-2.65-.66-4.1l-.83-4.58c-1.14-6.43-2.74-14-4.61-22.47s-4.21-17.63-6.8-27.26-5.3-18.71-7.86-27-5-15.62-7.23-21.76c-.55-1.54-1.06-3-1.55-4.4s-1-2.67-1.45-3.89c-.9-2.43-1.68-4.53-2.36-6.22s-1.18-3-1.55-3.91c-.17-.43-.31-.76-.41-1-.05-.1-.11-.19-.17-.28Z"/>
    <path class="cls-11" d="M128.55,268.01l-.21.2-.58.61c-.51.54-1.24,1.35-2.16,2.42-2.61,3.01-5,6.2-7.16,9.55-3.22,4.96-5.74,10.35-7.49,16-2,6.37-3.26,13.62-4.5,21.2-2.47,15.17-5.5,28.75-7.7,38.58l-2.64,11.63c-.3,1.35-.53,2.42-.7,3.17-.07.34-.12.61-.17.83,0,.09,0,.19,0,.28.04-.09.07-.18.09-.27,0-.21.12-.48.21-.82l.79-3.15c.66-2.77,1.61-6.72,2.78-11.6,2.28-9.81,5.37-23.39,7.84-38.57,1.24-7.58,2.47-14.81,4.45-21.16,1.71-5.64,4.18-11.03,7.35-16,2.12-3.35,4.46-6.56,7-9.61.89-1.09,1.61-1.91,2.09-2.47l.55-.65c.11-.08.17-.16.16-.17Z"/>
    <path class="cls-11" d="M59.92,329.95c.14.05.29.07.44.08l1.26.14.91.09,1.07.16c.78.11,1.66.23,2.62.44l1.51.3,1.61.41c1.13.25,2.29.67,3.53,1,2.66.92,5.23,2.06,7.71,3.39,2.45,1.38,4.76,2.98,6.9,4.8.93.8,1.82,1.65,2.65,2.55.74.76,1.45,1.57,2.1,2.41.64.74,1.09,1.51,1.55,2.14.39.54.74,1.11,1.06,1.7l.65,1.08c.07.13.15.26.25.37,0,0,0-.15-.17-.41s-.34-.68-.57-1.13c-.29-.61-.63-1.19-1-1.75-.46-.76-.97-1.49-1.51-2.2-.64-.87-1.34-1.7-2.08-2.48-.83-.92-1.72-1.78-2.65-2.6-2.16-1.86-4.51-3.5-7-4.88-2.5-1.35-5.1-2.49-7.79-3.4-1.26-.36-2.43-.76-3.57-1l-1.64-.39-1.53-.27c-1-.2-1.85-.29-2.63-.38l-1.09-.12-.92-.05h-1.27c-.13-.02-.27-.02-.4,0Z"/>
    <path class="cls-11" d="M56.46,268.31c.26.31.55.59.87.84l2.51,2.17c2.12,1.82,5.08,4.31,8.37,7s6.28,5.18,8.46,6.93l2.6,2.06c.31.27.64.51,1,.7-.27-.31-.56-.59-.88-.84l-2.5-2.17c-2.13-1.82-5.09-4.31-8.37-7s-6.28-5.18-8.46-6.93l-2.6-2.06c-.31-.27-.64-.51-1-.7Z"/>
    <path class="cls-11" d="M53.47,284.4c0,.12,6.35,2.12,14.26,4.45s14.36,4.14,14.4,4-6.35-2.12-14.27-4.46-14.36-4.12-14.39-3.99Z"/>
    <path class="cls-11" d="M77.05,277.99c.25-.28.48-.59.66-.92l1.68-2.6c1.43-2.16,3.46-5.11,5.86-8.25s4.71-5.87,6.41-7.82l2-2.31c.27-.27.51-.56.71-.88-.31.22-.59.48-.84.76-.52.5-1.25,1.26-2.14,2.21-1.76,1.9-4.12,4.61-6.53,7.76s-4.4,6.14-5.76,8.35c-.68,1.11-1.22,2-1.57,2.65-.2.33-.36.68-.48,1.05Z"/>
    <path class="cls-11" d="M99.23,286.92c.45.85.95,1.68,1.5,2.47,1,1.5,2.25,3.58,3.59,5.94s2.47,4.53,3.27,6.12c.39.88.85,1.73,1.36,2.55-.27-.93-.63-1.83-1.06-2.69-.73-1.63-1.82-3.84-3.16-6.21s-2.7-4.44-3.73-5.9c-.51-.82-1.11-1.58-1.77-2.28Z"/>
    <path class="cls-11" d="M106.82,314.76c0,.06,1.25-.53,3.25-1.43,2-.9,4.78-2.07,7.92-3.18s6.06-1.92,8.18-2.46,3.44-.83,3.43-.9c-.32-.02-.64.02-.95.1-.61.09-1.48.25-2.56.48-2.79.62-5.55,1.4-8.25,2.35-2.7.94-5.34,2.05-7.91,3.31-1,.49-1.77.91-2.3,1.21-.29.14-.56.31-.81.52Z"/>
    <path class="cls-11" d="M100.85,348.04c.12.06.25.1.39.13l1.15.29,4.25,1c4.68.99,9.31,2.21,13.87,3.67,4.56,1.51,8.92,3.55,13,6.08,1.55,1,2.75,1.85,3.56,2.48.41.34.84.66,1.29.95-.08-.11-.18-.21-.28-.3-.21-.18-.49-.46-.89-.79-1.12-.94-2.28-1.81-3.5-2.62-4.05-2.62-8.42-4.72-13-6.24-4.59-1.48-9.26-2.66-14-3.55l-4.28-.83c-.51-.13-1.03-.22-1.56-.27Z"/>
    <path class="cls-11" d="M79.24,356.24c.13,0,.89-4.46,1.7-10s1.37-10.05,1.24-10.07-.89,4.46-1.7,10-1.37,10.05-1.24,10.07Z"/>
    <path class="cls-11" d="M56.75,348.07c.72-.76,1.39-1.56,2-2.41,1.22-1.51,2.9-3.59,4.81-5.86s3.67-4.28,5-5.74c.72-.76,1.39-1.56,2-2.41,0,0-.25.17-.64.55s-1,.93-1.62,1.63c-1.35,1.41-3.16,3.4-5.07,5.67s-3.55,4.4-4.71,6c-.57.79-1,1.43-1.33,1.88-.18.21-.33.44-.44.69Z"/>
    <polygon class="cls-5" points="116.28 368.93 116.28 380.05 113.5 380.05 103.62 411.23 81.71 411.23 72.14 380.36 68.43 380.05 68.43 368.93 116.28 368.93"/>
    <path class="cls-11" d="M70.28,380.36c0,.13,9.68.23,21.61.23s21.61-.1,21.61-.23-9.68-.23-21.61-.23-21.61.1-21.61.23Z"/>
    <path class="cls-11" d="M54.53,308.86c.45.17.92.3,1.4.38l3.85.93c3.24.8,7.69,2,12.52,3.64s9.11,3.35,12.17,4.67l3.63,1.58c.43.22.88.41,1.35.55-.4-.27-.83-.51-1.27-.71-.83-.43-2.05-1-3.57-1.72-3.97-1.81-8.03-3.42-12.17-4.81-4.13-1.39-8.34-2.56-12.59-3.52-1.63-.36-3-.63-3.88-.78-.47-.11-.96-.18-1.44-.21Z"/>
    <path class="cls-12" d="M77.56,397.67c0,.13,6.79.24,15.16.24s15.16-.11,15.16-.24-6.79-.23-15.16-.23-15.16.11-15.16.23Z"/>
    <path class="cls-12" d="M76.71,395.1c0,.12,7.19.23,16.06.23s16.07-.11,16.07-.23-7.2-.24-16.07-.24-16.06.11-16.06.24Z"/>
  </g>
</svg>