<?xml version="1.0" encoding="UTF-8"?>
<svg id="Layer_1" data-name="Layer 1" xmlns="http://www.w3.org/2000/svg" viewBox="0 0 466.34 431.17">
  <defs>
    <style>
      .cls-1 {
        fill: #000;
      }

      .cls-1, .cls-2, .cls-3, .cls-4, .cls-5, .cls-6, .cls-7, .cls-8, .cls-9, .cls-10, .cls-11, .cls-12, .cls-13 {
        stroke-width: 0px;
      }

      .cls-2 {
        fill: #e0e0e0;
      }

      .cls-3 {
        fill: #5095d0;
      }

      .cls-4 {
        fill: #eb996e;
      }

      .cls-5 {
        fill: #455a64;
      }

      .cls-6 {
        fill: #45b34a;
      }

      .cls-7 {
        fill: #f5f5f5;
      }

      .cls-8 {
        fill: #ffbe9d;
      }

      .cls-9 {
        fill: #ebebeb;
      }

      .cls-10 {
        fill: #1585c4;
      }

      .cls-14 {
        opacity: .6;
      }

      .cls-11 {
        fill: #263238;
      }

      .cls-12 {
        fill: #fafafa;
      }

      .cls-13 {
        fill: #fff;
      }
    </style>
  </defs>
  <g id="freepik--background-complete--inject-12">
    <path class="cls-9" d="M453.26,107.84c.59-4.28-5.45-7.8-10-8.16-2.17-.18-4.41.15-6.46-.56-4.44-1.55-6.22-7.28-10.55-9.11-3.24-1.37-7-.15-10.11,1.43s-6.24,3.57-9.75,3.79c-3.05.2-6.36-.93-9,.56-2,1.11-3,3.4-4.87,4.75s-4.13,1.61-6.36,1.73-4.53.14-6.56,1.07-3.7,3.07-3.28,5.26l76.94-.76Z"/>
    <path class="cls-7" d="M232.99,115.04c-1-2.34-1.28-4.93-2-7.39-.24-1.37-1.05-2.58-2.23-3.32-.87-.26-1.76-.46-2.66-.6-3.13-.94-4-5.3-6.94-6.66-.96-.36-1.97-.57-3-.62-4-.47-8.07-1.84-10.56-5-.71-1.08-1.53-2.09-2.45-3-1-.82-2.59-1.17-3.58-.33.84,1.67,1.66,3.35,2.48,5,.65,1.56,1.59,2.97,2.78,4.17,1.23,1.21,3.05,1.6,4.67,1,.46-.32,1.01-.51,1.57-.55.4.09.76.33,1,.66,2.16,2.39,1.46,6.35-.65,8.8s-5.21,3.7-8.2,4.88c-1.04.52-2.19.75-3.35.66-2.07-.39-3.18-2.65-3.78-4.67-1.36-4.49-2-9.36-4.79-13.14-1-1.1-1.85-2.33-2.52-3.66-.57-1.51-.44-3.27-1.34-4.59s-2.93-2.19-3.07-3.87c.07-1.22.85-2.29,2-2.71,1.07-.52,2.28-.67,3.38-1.12.44-.18.92-.5.94-1,0-.7-1-1-1.22-1.64s.48-1.42.8-2.14c.69-1.64-1-3.3-2.68-4s-3.63-1.15-4.4-2.76c-.28-.77-.46-1.57-.53-2.39-.31-2.1-1.86-3.81-3.92-4.32-2.06-.33-4.33,1.49-4,3.53.2,1.12,1,2,1.49,3s.34,2.58-.74,2.91c-1.75.54-3.44-2.67-4.92-1.57.61,2.06,1.19,4.12,1.79,6.19-2.3,1.17-5.07-.95-6.05-3.36s-1-5.14-2.2-7.45-4.33-4.05-6.34-2.41c-.1,3,3.83,4.18,5.57,6.59,1.26,1.74,1.08,4.57-.78,5.68s-4.77-.82-4.07-2.85c.25-.7.84-1.29.9-2,.07-.94-.71-1.69-1.43-2.29-1.13-1-2.25-1.89-3.37-2.83-.69-.66-1.5-1.17-2.39-1.51-2.31-.67-4.62,1.21-5.84,3.27s-1.91,4.5-3.6,6.22c-2.43,2.51-7,2.66-9.3,0s-1.13-7.55,2.24-8.51c1.27-.35,2.88-.31,3.55-1.43,1.17-2-2.18-4.54-1-6.55.89-1.54,3.23-.83,4.94-1.35s2.65-2.23,3.65-3.7,2.54-2.93,4.28-2.55c-.22-1-.16-2.04.19-3,.4-.95,1.49-1.39,2.43-1,.04.02.09.04.13.06-.85,1.41.17,3.36,1.66,4.07,1.56.56,3.25.68,4.87.35,1.64-.2,3.69-.8,3.83-2.44-.06-.54-.04-1.08.05-1.61.72-2,4.33.74,5.72-.84.8-.82-.08-2.27-1.2-2.54s-2.26.13-3.4.17-2.53-.56-2.58-1.69,1.21-1.93,1.34-3c.22-1.88-3-2.36-4.08-.84s-.72,3.61-.39,5.47.52,4.05-.85,5.36c-.59.88-2.11.42-2.61-.52-.38-1-.55-2.06-.49-3.13-.08-1.07-.55-2.28-1.59-2.56-.75-.06-1.5.02-2.22.25-2.91.35-4.94-3.41-4-6.19s3.55-4.59,6.11-6c1.87-1,4.2-2,6.06-1,.87.48,1.47,1.32,2.32,1.82,1.48.87,3.3.55,5,.59,2.68.07,5.25,1.06,7.28,2.82.75.69,1.46,1.83.87,2.65s-2.46,1-2.14,2.07c1.93.54,3.92-.59,4.46-2.51.04-.14.07-.28.09-.42.98.46,1.65,1.4,1.76,2.48,2.18-2.05,5.61-1.93,7.66.25.12.13.23.26.34.4.38.71.87,1.36,1.47,1.9.67.43,1.84.21,1.92-.57.02-.25-.03-.51-.13-.74-.4-1.14-.82-2.26-1.22-3.38,1.56-.84,3.4.47,4.45,1.87,3.92,5.24,6.71,2.1,12.23,3,3.74.57,5.38,3,7.49,5.86,6.45,8.9,15,16.2,20.86,25.5.62,1,1.19,2,1.73,3l-.29-.75c-2.3-6.04-5.15-11.85-8.53-17.35-.72-1.18-1.46-2.33-2.21-3.47-.47-.7-.95-1.42-1.44-2.11-.62-.9-1.27-1.77-1.92-2.64-.52-.7-1-1.39-1.58-2.06-.37-.47-.75-.94-1.14-1.41-.4-.53-.83-1-1.3-1.57l-1.41-1.62c-.14-.18-.29-.35-.45-.5-.48-.57-1-1.13-1.52-1.68-.04-.06-.09-.11-.15-.16-.14-.16-.29-.31-.44-.46-.42-.47-.87-.92-1.3-1.37-.72-.74-1.46-1.47-2.21-2.17s-1.26-1.21-1.91-1.8-1.14-1-1.72-1.53-1.14-1-1.73-1.48-1.42-1.19-2.16-1.77h0c-2-1.63-4.09-3.17-6.26-4.6l-1.59-1.07c-.54-.37-1.09-.71-1.63-1s-1.08-.69-1.64-1-1.1-.67-1.65-1-.89-.52-1.34-.76c-.22-.14-.45-.26-.69-.38-.95-.54-1.92-1.06-2.89-1.54-.49-.25-1-.5-1.47-.74s-1.26-.62-1.9-.9l-.28-.14c-.57-.26-1.14-.53-1.72-.78-.82-.35-1.64-.71-2.46-1s-1.88-.77-2.83-1.12-2.11-.79-3.18-1.14-2.16-.72-3.25-1.05-2.17-.64-3.28-.94c-2.17-.59-4.38-1.11-6.61-1.56-.04,0-.08,0-.12,0-.85-.17-1.7-.34-2.56-.47h-.16c-.37-.07-.76-.14-1.14-.19-1.59-.26-3.2-.48-4.82-.67-.2-.03-.39-.05-.59-.06-.47-.07-.94-.1-1.42-.15-1.07-.1-2.14-.19-3.23-.25s-2.26-.14-3.4-.17-2.37-.07-3.56-.07c-3.15,0-6.26.13-9.34.42-.74,0-1.46.12-2.18.2l-2.26.27c-.75.1-1.5.2-2.24.32s-1.49.23-2.24.36-1.29.22-1.93.36c-1.57.3-3.12.63-4.66,1-.72.17-1.44.35-2.16.55l-2.15.59c-1.18.33-2.34.7-3.49,1.07h0l-2.81.95s-.05,0-.07,0c-1,.33-1.87.68-2.81,1.05h-.15c-.85.34-1.71.69-2.54,1-1.06.43-2.1.9-3.12,1.37s-1.72.8-2.56,1.22l-2.69,1.37-.1.05c-.86.46-1.71.93-2.55,1.41-.87.49-1.72,1-2.57,1.52h0c-.8.49-1.59,1-2.38,1.48-.3.18-.58.38-.88.58-.84.54-1.64,1.09-2.46,1.66-1,.69-2,1.4-3,2.12s-1.69,1.29-2.51,1.95c-4.76,3.76-9.18,7.93-13.22,12.46-1.43,1.58-2.76,3.18-4.07,4.82-1.1,1.41-2.18,2.83-3.2,4.3-.92,1.32-1.8,2.59-2.66,3.92.86-1.33,1.74-2.64,2.66-3.92l.81-.08c1.51.03,3.02-.21,4.45-.72,1.16-.76,2.25-1.61,3.28-2.54,2.91-2.08,7.68-2.46,8.47-5.94.26-1.18,0-2.45.38-3.57.82-2.09,3.62-2.39,5.86-2.36,1,0,2.07.14,2.51,1,.24.63.21,1.34-.1,1.94-1.4,3.94-4.11,7.27-7.68,9.44-2.91,1.78-6.71,3.15-7.52,6.46.4,1.12,2.45,1,2.61,2.21.12.94-1.08,1.42-1.52,2.26-.64,1.22.82,2.71,2.21,2.64s2.54-1.07,3.56-2c3-2.83,6.25-5.88,7.35-9.89.47-1.66.64-3.6,2-4.71,1.48-1.05,3.52-.71,4.57.77.18.25.32.53.43.82,1.32-.73,3.38-1.29,4.06.09.16.51.26,1.04.29,1.57.43,2.14,3.36,3.11,3.66,5.27.35,2.5-2.84,3.78-5.34,4.17-2.26.35-4.51.7-6.77,1.07-1,.07-1.96.38-2.82.9-.86.57-1.21,1.67-.83,2.63.34.45.73.86,1.17,1.21,1.87,1.87.33,5.74-2.31,5.82-.9,0-1.79-.3-2.69-.33-2.68-.12-4.81,2.24-6.08,4.6s-2.23,5.05-4.37,6.66c-3.44,2.59-9.39,2-11.06,6-.67,1.61-.32,3.42,0,5.14s.39,3.62-.62,5-3.56,1.7-4.3.13c-.25-.71-.29-1.49-.1-2.22.4-2.48.79-4.96,1.17-7.43.29-1.85.54-3.9-.55-5.41-1.52-2.11-4.94-1.91-6.91-.22s-2.78,4.34-3.33,6.86c-.37,2.29-1.01,4.52-1.91,6.66h0c-.35,2.08-.64,4.19-.85,6.31s-.37,4.34-.46,6.55c.3-.25.59-.52.86-.81,1-1.08,3.18-5.69,5.09-3.43.47.62.47,1.48,0,2.1-.59.75-1.76.92-2.21,1.74s.22,2.17,1.12,2.81,2,1,2.64,2c1.23,1.76.06,4.42,1.24,6.21,1,1.54,3.2,1.64,5.06,1.84l.63.1c.52-3.68,2.25-6.68,7.27-7.81,6.92-1.58,16,4.16,19.93,9.39,4.35,5.84,6.41,14.1,13.07,17,4.77,2.09,11.55,1.34,13.87,6,2.08,4.18-1.54,8.89-2.09,13.52-.35,3.06.65,6.11.89,9.17s-.69,6.66-3.48,8c-1.56.71-3.52.62-4.77,1.79-2.23,2.11-.4,6.46-2.63,8.57-.87.63-1.82,1.13-2.83,1.49-5,2.53-4.87,9.89-2.54,15,.08.18.16.35.25.53,16.39,9.8,35.14,14.99,54.24,15,17.3.02,34.35-4.22,49.62-12.35h0c3.22-1.71,6.34-3.6,9.36-5.64,4.65-3.12,9.04-6.62,13.14-10.44,2.82-2.64,5.49-5.44,8-8.39,1.77-2,3.45-4.17,5-6.34.82-1.12,1.63-2.24,2.38-3.4,5.69-8.34,10.12-17.47,13.17-27.09,1.87-5.84,3.21-11.84,4-17.92.32-2.38.57-4.79.73-7.22-1.1,1.18-2.64,1.86-4.25,1.89-2.5-.08-4.59-2.2-5.61-4.55Z"/>
    <path class="cls-9" d="M112.13,32.61c-2.1,1.26-3.21,3.62-4.83,5.45s-4.52,3.13-6.42,1.61c-.87-.8-1.38-1.93-1.42-3.11-.15-1.7.25-3.4,1.14-4.85.91-1.48,2.3-2.65,3.07-4.21s.62-3.85-1-4.58c-.86-.4-1.93-.24-2.69-.8-1.37-1-.39-3.38,1.19-4s3.34-.13,5,0c6.13.39,10.64-3.63,15.25-7,3.58-2.59,11.22-5.66,15.37-3,1.65,1.06,2.3,3.78.74,5-.7.53-1.66.65-2.31,1.25s-.89,1.87-1.34,2.83c-1.16,2.48-4.5,3.38-5.58,5.9-.65,1.51-.36,3.4-1.35,4.71-.92.94-2.13,1.55-3.44,1.71l-8,1.9c-1.18.23-2.32.63-3.38,1.19Z"/>
    <path class="cls-9" d="M183.59,162.78c-2.65,4-3.14,9-3.87,13.73s-2,9.78-5.64,12.9-10.33,2.93-12.34-1.42c-1.09-2.37-.53-5.16-1.12-7.69-.77-3.3-3.4-5.85-4.65-9-1.06-2.69-1.07-5.66-1.15-8.55-.48-15.8-4.33-32.3-15.09-43.88-1.23-1.52-2.85-2.67-4.7-3.31-2.3-.57-4.71.27-6.17,2.13-.87,1.14-1.31,2.6-2.37,3.57-2.3,2.1-6.31.59-7.85-2.11s-1.32-6-1.07-9.14l1-11.54c.17-2,.39-4.17,1.71-5.7,1.88-2.17,5.25-2.27,7.55-4,3-2.26,3.41-6.56,5.31-9.81s7.85-4.63,8.73-1c6.29-13.46,20.19,6.54,28.45,5,2.4-.44,4.75-1.59,7.16-1.26,4.27.6,6.47,5.3,7.92,9.36l7.23,20.2c.92,2.56,2.11,5.41,4.64,6.4,1.95.75,4.21.17,6.17.89,5.19,1.88,3.5,10.05-.67,13.66s-10,5.89-12,11c-1.5,3.88-.31,8.42-1.92,12.26-1.2,2.85-3.62,4.83-5.26,7.31Z"/>
    <path class="cls-9" d="M203.28,167.17c-1.71.24-3.72-.6-5,.53-.64.78-1.06,1.71-1.22,2.71-.37,1.36-1.23,2.53-2.41,3.3-1.21.76-2.76.72-3.94-.08-1.16-.87-1.4-2.52-.55-3.69.42-.48,1-.76,1.47-1.2,2.27-2.14.72-6.1,2.44-8.64,1-1.5,2.61-3,3.72-4.54.86-1.17,1.17-2.1,2.75-2.41,6.92-1.31,9.99,13.01,2.74,14.02Z"/>
    <path class="cls-11" d="M31.68,108.77v3.45-1.55c0-.55-.01-1.26,0-1.9Z"/>
    <g class="cls-14">
      <path class="cls-11" d="M78.51,198.5c.89.61,1.79,1.19,2.7,1.76.64.4,1.28.79,1.93,1.17-.65-.38-1.29-.77-1.93-1.17-.91-.57-1.81-1.15-2.7-1.76Z"/>
    </g>
    <g class="cls-14">
      <path class="cls-11" d="M31.74,106.27h0v2.5-1.91c-.03-.2,0-.39,0-.59Z"/>
    </g>
    <g class="cls-14">
      <path class="cls-11" d="M31.67,112.22v1.55h0c.01-.51.01-1.03,0-1.55Z"/>
    </g>
    <path class="cls-9" d="M98.25,156.93c.55-4.63,4.17-9.34,2.09-13.52-2.32-4.67-9.1-3.92-13.87-6-6.66-2.93-8.72-11.19-13.07-17-3.9-5.23-13-11-19.93-9.39-5,1.13-6.75,4.13-7.27,7.81l-.63-.1c-1.86-.2-4-.3-5.06-1.84-1.18-1.79,0-4.45-1.24-6.21-.63-.92-1.74-1.32-2.64-2s-1.67-1.84-1.12-2.84,1.62-1,2.21-1.74c.48-.62.48-1.48,0-2.1-1.9-2.26-4,2.35-5.08,3.43-.27.29-.56.56-.86.81h0v8.24c.38,11.48,2.64,22.83,6.68,33.58,1.8,4.78,3.96,9.41,6.46,13.86,1,1.92,2.17,3.81,3.36,5.67,1.47,2.29,3,4.54,4.67,6.7s3.18,4.1,4.9,6c2.36,2.67,4.85,5.23,7.48,7.7,2.33,2.17,4.76,4.24,7.28,6.19-5.41-14.53-10.53-29.34-19.28-42,8.75,12.66,13.87,27.47,19.28,42h0c1.07.85,2.16,1.66,3.27,2.44.87.63,1.74,1.24,2.63,1.84s1.79,1.19,2.7,1.76c.64.4,1.28.79,1.93,1.17-.09-.18-.17-.35-.25-.53-2.33-5.02-2.43-12.43,2.57-14.96,1.01-.36,1.96-.86,2.83-1.49,2.23-2.11.4-6.46,2.63-8.57,1.25-1.17,3.21-1.08,4.77-1.79,2.79-1.29,3.69-4.87,3.48-8s-1.27-6.06-.92-9.12ZM46.17,129.35c0-1,0-2.14-.05-3.22,0,1.08.07,2.17.05,3.22ZM40.65,122.14c-.38-.04-.74-.22-1-.5-.18-.34-.26-.73-.22-1.12-.11-1.94-1.66-3.34-3.34-4.44,1.68,1.1,3.23,2.5,3.34,4.44-.04.39.04.78.22,1.12.26.28.62.46,1,.5,1.76.42,3.56.67,5.37.75-1.81-.08-3.61-.33-5.37-.75h0ZM45.46,138.47c-.06-.76-.06-1.51,0-2.27-.06.76-.06,1.51,0,2.27.2,1.59.69,3.12,1.45,4.53-.76-1.41-1.25-2.94-1.45-4.53ZM47.7,144.41c.28.46.58.92.89,1.37-.32-.45-.62-.94-.9-1.37h.01Z"/>
    <path class="cls-9" d="M38.29,79.84c2-1.69,5.39-1.89,6.91.22,1.09,1.51.84,3.56.55,5.41-.38,2.47-.77,4.94-1.17,7.43-.19.73-.15,1.51.1,2.22.74,1.57,3.31,1.27,4.3-.13.99-1.4.89-3.33.62-5s-.62-3.53,0-5.14c1.67-4,7.62-3.38,11.06-6,2.14-1.61,3.1-4.3,4.37-6.66s3.4-4.72,6.08-4.6c.9,0,1.79.36,2.69.33,2.64-.08,4.18-4,2.31-5.82-.44-.35-.83-.76-1.17-1.21-.38-.96-.03-2.06.83-2.63.86-.52,1.82-.83,2.82-.9,2.26-.37,4.51-.72,6.77-1.07,2.5-.39,5.69-1.67,5.34-4.17-.3-2.16-3.23-3.13-3.66-5.27-.03-.53-.13-1.06-.29-1.57-.68-1.38-2.74-.82-4.06-.09-.6-1.71-2.47-2.61-4.18-2.02-.29.1-.57.25-.82.43-1.34,1.11-1.51,3-2,4.71-1.1,4-4.3,7.06-7.35,9.89-1,.93-2.17,1.94-3.56,2s-2.85-1.42-2.21-2.64c.44-.84,1.64-1.32,1.52-2.26-.16-1.17-2.21-1.09-2.61-2.21.81-3.31,4.61-4.68,7.52-6.46,3.57-2.17,6.28-5.5,7.68-9.44.31-.6.34-1.31.1-1.94-.44-.83-1.56-1-2.51-1-2.24,0-5,.27-5.86,2.36-.43,1.12-.12,2.39-.38,3.57-.79,3.48-5.56,3.86-8.47,5.94-1.03.93-2.12,1.78-3.28,2.54-1.43.51-2.94.75-4.45.72l-.81.08c-.82,1.38-1.7,2.65-2.56,3.98s-1.68,2.67-2.47,4c-3.78,6.47-6.86,13.33-9.18,20.45-.82,2.51-1.54,5.06-2.17,7.63-.62,2.58-1.16,5.2-1.59,7.85.9-2.14,1.54-4.37,1.91-6.66.55-2.49,1.37-5.14,3.33-6.87Z"/>
    <g class="cls-14">
      <path class="cls-11" d="M236.46,73.74c.5,1.34,1,2.69,1.42,4-.45-1.35-.92-2.7-1.42-4h0Z"/>
    </g>
    <path class="cls-9" d="M243.08,109.22c0-1.52-.06-3-.14-4.54s-.2-3-.35-4.48c-.11-1.21-.25-2.39-.42-3.58s-.34-2.51-.55-3.75c-.63-3.71-1.45-7.38-2.47-11-.4-1.38-.82-2.75-1.26-4.11-.45-1.35-.92-2.7-1.42-4h0c-.54-1-1.11-2-1.73-3-5.87-9.3-14.41-16.6-20.86-25.5-2.11-2.9-3.75-5.29-7.49-5.86-5.52-.85-8.31,2.29-12.23-3-1-1.4-2.89-2.71-4.45-1.87.4,1.12.82,2.24,1.22,3.38.1.23.15.49.13.74-.08.78-1.25,1-1.92.57-.6-.54-1.09-1.19-1.47-1.9-1.83-2.37-5.23-2.81-7.6-.99-.14.11-.27.22-.4.34-.11-1.08-.78-2.02-1.76-2.48-.29,1.98-2.14,3.34-4.11,3.05-.11-.02-.22-.04-.34-.07-.32-1,1.51-1.2,2.14-2.07s-.12-2-.87-2.65c-2.03-1.76-4.6-2.75-7.28-2.82-1.69,0-3.51.28-5-.59-.85-.5-1.45-1.34-2.32-1.82-1.86-1.06-4.19-.09-6.06,1-2.56,1.42-5.21,3.21-6.11,6s1.11,6.54,4,6.19c.72-.23,1.47-.31,2.22-.25,1,.28,1.51,1.49,1.59,2.56-.06,1.07.11,2.13.49,3.13.5.94,2,1.4,2.61.52,1.37-1.31,1.2-3.5.85-5.36s-.72-3.95.39-5.47,4.3-1,4.08.84c-.13,1.1-1.39,1.9-1.34,3s1.44,1.74,2.58,1.69,2.29-.46,3.4-.17,2,1.72,1.2,2.54c-1.39,1.58-5-1.12-5.72.84-.09.53-.11,1.07-.05,1.61-.14,1.64-2.19,2.24-3.83,2.44-1.62.33-3.31.21-4.87-.35-1.49-.71-2.51-2.66-1.66-4.07-.92-.47-2.04-.1-2.5.81-.02.04-.04.08-.06.13-.35.96-.41,2-.19,3-1.74-.38-3.29,1.09-4.28,2.55s-2,3.18-3.65,3.7-4.05-.19-4.94,1.35c-1.15,2,2.2,4.55,1,6.55-.67,1.12-2.28,1.08-3.55,1.43-3.37,1-4.54,5.88-2.24,8.51s6.87,2.47,9.3,0c1.69-1.72,2.38-4.15,3.6-6.22s3.53-3.94,5.84-3.27c.89.34,1.7.85,2.39,1.51,1.12.94,2.24,1.87,3.37,2.83.72.6,1.5,1.35,1.43,2.29-.06.75-.65,1.34-.9,2-.7,2,2.23,4,4.07,2.85s2-3.94.78-5.68c-1.74-2.41-5.67-3.61-5.57-6.59,2-1.64,5.17.08,6.34,2.41s1.21,5,2.2,7.45,3.75,4.53,6.05,3.36c-.6-2.07-1.18-4.13-1.79-6.19,1.48-1.1,3.17,2.11,4.92,1.57,1.08-.33,1.21-1.87.74-2.91s-1.29-1.91-1.49-3c-.33-2,1.94-3.86,4-3.53,2.06.51,3.61,2.22,3.92,4.32.07.82.25,1.62.53,2.39.77,1.61,2.76,2.09,4.4,2.76s3.37,2.33,2.68,4c-.32.72-1.07,1.4-.8,2.14s1.22.94,1.22,1.64c0,.47-.5.79-.94,1-1.1.45-2.31.6-3.38,1.12-1.15.42-1.93,1.49-2,2.71.14,1.68,2.13,2.48,3.07,3.87s.77,3.08,1.34,4.59c.67,1.33,1.52,2.56,2.52,3.66,2.78,3.78,3.43,8.65,4.79,13.14.6,2,1.71,4.28,3.78,4.67,1.16.09,2.31-.14,3.35-.66,3-1.18,6.11-2.46,8.2-4.88s2.81-6.41.65-8.8c-.24-.33-.6-.57-1-.66-.56.04-1.11.23-1.57.55-1.62.6-3.44.21-4.67-1-1.19-1.2-2.13-2.61-2.78-4.17-.82-1.65-1.64-3.33-2.48-5,1-.84,2.56-.49,3.58.33.92.91,1.74,1.92,2.45,3,2.49,3.11,6.59,4.48,10.56,5,1.03.05,2.04.26,3,.62,3,1.36,3.81,5.72,6.94,6.66.9.14,1.79.34,2.66.6,1.18.74,1.99,1.95,2.23,3.32.68,2.46.92,5.05,2,7.39s3.11,4.47,5.65,4.5c1.61-.03,3.15-.71,4.25-1.89h0c.14-2.31.22-4.62.22-7-.03-.55-.03-1.04-.06-1.52Z"/>
    <path class="cls-9" d="M184.03,94.13c-.36-.72-.89-1.34-1.55-1.8-1.64-1.49-3.75-1.29-4.6-.19-.89,1.31-1.02,2.99-.34,4.42.53,1.34,1.63,2.38,3,2.83,1.39.44,2.9-.07,3.75-1.26.66-1.28.56-2.82-.26-4Z"/>
    <path class="cls-2" d="M25.99,335.26c-4.42-2.76-9.41-4.47-14.59-5-2.38-.25-5-.18-6.9,1.27-.45.26-.73.74-.71,1.26.12.36.35.66.67.86,5.94,4.52,14.92,5.1,21.53,1.63"/>
    <path class="cls-2" d="M25.61,334.84c-3.38-2.48-6.53-5.25-9.42-8.28-2.9-3.06-4.94-6.83-5.91-10.93-.38-1.23-.21-2.56.47-3.65,7.51,5.86,13.41,13.45,14.86,22.86"/>
    <path class="cls-2" d="M25.91,335.2c-.7-4.1-.64-8.28.17-12.36.84-4.11,3.19-7.75,6.59-10.21,1.3,3,.74,6.53-.17,9.7-1.42,4.91-3.63,9.56-6.54,13.76"/>
    <path class="cls-2" d="M33.27,348.39c-4.47.55-8.36,2.9-11.7,5.92-3.36,3.07-5.7,7.09-6.69,11.53,4.38-.27,8.1-3.36,10.8-6.83s4.57-7.27,7.53-10.51"/>
    <path class="cls-2" d="M34.87,350.5c-3.58-9.07-2.32-19.34,3.33-27.29,2.55,9.06,1.61,19.29-3.33,27.29"/>
    <path class="cls-2" d="M44.6,362.08c-8.37-.53-16.24,3.99-20,11.49-.25.49-.47,1.12-.14,1.56.35.34.85.49,1.33.39,3.93-.25,7.41-2.62,10.29-5.31s5.38-5.81,8.55-8.14"/>
    <path class="cls-2" d="M44.29,361.45c-2.1-6.74-2.23-13.94-.37-20.75.73-2.67,1.95-5.48,4.42-6.74.28-.24.71-.21.96.07.08.09.13.19.15.31.81,1.87,1.16,3.91,1,5.95-.15,2.02-.46,4.03-.93,6-.78,3.69-1.19,7.64-3.21,10.82-.47.77-.91,1.56-1.29,2.38-.38.81-.38,1.09-.73,1.73"/>
    <path class="cls-2" d="M70.03,365.29c-1.9-7.26.12-16.05,4.69-22,.34-.44.79-.91,1.34-.86.84.08,1.06,1.2,1,2.05-.35,7.46-2.79,14.67-7.05,20.81"/>
    <path class="cls-2" d="M72.36,366.84c8.81,2.29,18.92.06,26.26-5.35-4.41-2.18-9.43-2.76-14.22-1.65-4.75,1.09-9.09,3.21-12,7.09"/>
    <path class="cls-2" d="M74.31,362.04c4.94-8,14.41-13.3,23.84-13.78-1.09,3.84-4.24,6.82-7.8,8.62s-7.53,2.59-11.44,3.35c-1.52.29-3.61.62-4.6,1.81"/>
    <path class="cls-2" d="M70.52,338.6c1.49-4.55,2.49-9.24,3-14,.37-4.76-.31-9.72-2.78-13.8-4.61,8.92-5.08,19.35-.4,28.24"/>
    <path class="cls-2" d="M86.05,330.75c5.4-9.8,16.4-17.63,27.53-18.73-4.29,10.7-16,19-27.53,18.73"/>
    <path class="cls-2" d="M82.66,332.67c8,1.23,14.89,6.37,22.41,9.48,1.57.77,3.32,1.12,5.07,1,2.21-.09,3.92-1.95,3.83-4.16-.04-1.09-.53-2.12-1.35-2.84-1.07-.98-2.32-1.74-3.68-2.23-8.19-3.41-17-3.49-25.59-1.43"/>
    <path class="cls-2" d="M78,338.32c1.82.52,2.45,1.46,3.89,2.69,4.92,4.18,10.74,7.17,17,8.73.64.16,1.5.22,1.82-.36s-.08-1.14-.44-1.59c-2.73-3.22-6.27-5.63-10.26-7-3.93-1.46-7.32-3.22-12-2.84"/>
    <path class="cls-2" d="M72.75,304.24c6.68,6.17,15.66,9.21,24.71,8.39.41,0,.81-.13,1.12-.4.62-.68-.12-1.72-.84-2.28-7.25-5.65-16-8-24.94-5.71"/>
    <path class="cls-2" d="M78.98,301.96c8.86-6.51,20.29-8.4,30.77-5.07-4.02,3.73-9.19,6-14.66,6.43-5.41.5-10.86.04-16.11-1.36"/>
    <path class="cls-2" d="M76.46,286.31c-.71-7.24-.25-13-.75-20.22,0-.58-.16-1.28-.71-1.49-.75-.29-1.38.64-1.63,1.41-2.14,6.83-.99,14.26,3.09,20.14"/>
    <path class="cls-2" d="M75.98,287.11c4.73-3.05,8.81-7.01,12-11.65,2.37-3.24,4.36-7.13,3.83-11.1-3.37.09-6.54,1.66-8.65,4.29-2.06,2.62-3.57,5.64-4.41,8.87-1,3.18-1.63,6.46-2.76,9.59"/>
    <path class="cls-2" d="M87.76,283.84c10.79-4,20.78-9.88,29.5-17.39-3.52-1.42-7.56-.57-11.08.85-8,3.25-14.63,8.73-18.57,16.47"/>
    <path class="cls-2" d="M79.29,291.06c5.45.6,11,1,16.39.08s10.33-3,15.29-5.08c.42-.13.78-.41,1-.79.16-.47,0-.99-.38-1.3-.38-.3-.82-.52-1.3-.62-5.39-1.5-11.22-.8-16.53,1-5.06,1.73-9.92,3.98-14.51,6.72"/>
    <path class="cls-2" d="M48.2,304.49c-3.72-7.5-3.48-16.25-.27-24,2.26,3.44,2.54,7.82,2.13,11.92s-1.66,8.32-1.75,12.43"/>
    <path class="cls-2" d="M33.36,297c-9.42-.13-18.46,3.71-24.9,10.59,4.69.57,9.44-.31,13.61-2.52,4.14-2.2,8.05-4.82,11.66-7.81"/>
    <path class="cls-2" d="M23.38,293.67c-4.54-.37-8.91-.93-13.27.4-4.46,1.25-8.15,4.38-10.11,8.58,4.29.35,8.59-.46,12.46-2.35,3.86-1.88,7.54-4.1,11-6.63"/>
    <path class="cls-2" d="M38.15,293.84c-4.08-2.68-8.27-5.4-13-6.51s-10.26-.29-13.57,3.3c3.84,2.25,8.51,2.52,13,2.52s9.94-.06,14.14,1.43"/>
    <path class="cls-2" d="M38.18,294.03c-7-6.85-9.63-19.16-6.82-28.53,5.5,8.44,7.91,18.52,6.82,28.53"/>
    <path class="cls-2" d="M57.37,274.62c1.31-3.06,2.24-6.28,3.42-9.39,1.08-3.16,2.73-6.09,4.88-8.65,2.18-2.57,5.29-4.18,8.65-4.48-2.17,9.54-8.26,17.73-16.78,22.56"/>
    <path class="cls-2" d="M53.89,278.66c-2.17-3-4.69-7.07-7.64-9.3s-6.8-3.6-10.41-2.74c3.79,6.62,10.48,11.07,18.05,12"/>
    <path class="cls-2" d="M54.59,274.84c-1.57-3.57-2.72-7.31-3.44-11.15-.72-3.87-.11-7.87,1.74-11.34,3.83,7.24,5.07,15,1.89,22.57"/>
    <path class="cls-2" d="M57.4,252.38c2.17-7.18,8.75-12.47,15.84-14.89.88-.36,1.83-.5,2.78-.42.95.12,1.73.79,2,1.71.26,1.22-.75,2.31-1.7,3.13-5.56,4.74-12.02,8.3-19,10.47"/>
    <path class="cls-2" d="M57.46,246.51c.28-4.63.57-9.33,2.07-13.72s4.41-8.5,8.63-10.42c.72,4.68-1.34,9.33-3.83,13.35s-5.49,7.82-7,12.31"/>
    <path class="cls-2" d="M57.37,249.69c-1.8-5.23-2-11.88-5.11-16.43-2.19-3.19-5.7-5.36-7.59-8.74-1.14,3.24-.98,6.79.44,9.92,1.42,3.09,3.39,5.89,5.8,8.29,2.32,2.48,4.3,4.34,6.46,7"/>
    <path class="cls-2" d="M57.4,403.78c-.14,0-.26-34.91-.27-77.95s.1-78,.24-78,.26,34.9.27,78-.1,77.95-.24,77.95Z"/>
    <path class="cls-2" d="M87.9,299.22c-.42.21-.86.38-1.31.5l-3.61,1.21c-3,1-7.23,2.54-11.77,4.4s-8.75,3.51-11.15,5.59c-.97.82-1.73,1.84-2.24,3-.34.82-.41,1.33-.45,1.32s0-.13,0-.37c.05-.34.14-.68.26-1,.46-1.22,1.21-2.3,2.19-3.16,1.46-1.23,3.08-2.24,4.83-3,1.94-.9,4.08-1.85,6.36-2.78,4.55-1.87,8.77-3.32,11.85-4.27,1.54-.49,2.8-.84,3.67-1.07.44-.16.9-.29,1.37-.37Z"/>
    <path class="cls-2" d="M97.9,274.66s-.11.15-.37.4l-1.12,1-4.18,3.8-13.91,12.44c-5.44,4.84-10.13,9.46-13.38,12.93-1.63,1.74-2.92,3.18-3.79,4.19l-1,1.15c-.11.14-.24.27-.38.38.08-.16.18-.3.3-.44.21-.28.52-.7.94-1.22.83-1.05,2.07-2.52,3.67-4.3,4.21-4.59,8.65-8.95,13.31-13.07,5.45-4.82,10.41-9.15,14-12.28l4.28-3.68,1.19-1c.14-.12.28-.22.44-.3Z"/>
    <path class="cls-2" d="M72.46,297.22c-.14-.07,1-2.69,2.13-6s1.67-6.11,1.82-6.09c-.12,2.14-.58,4.25-1.35,6.25-.48,1.43-1.05,2.83-1.69,4.2-.23.59-.53,1.14-.91,1.64Z"/>
    <path class="cls-2" d="M57.46,318.34c-.31-.31-.59-.64-.83-1l-2.17-2.72c-1.8-2.33-4.29-5.54-7.08-9.06s-5.36-6.67-7.22-9l-2.19-2.71c-.29-.31-.54-.64-.75-1,.33.27.63.57.9.9.56.61,1.35,1.5,2.32,2.62,1.93,2.22,4.54,5.34,7.34,8.87,2.8,3.53,5.24,6.77,7,9.16.86,1.19,1.55,2.16,2,2.84.26.34.49.71.68,1.1Z"/>
    <path class="cls-2" d="M50.75,309.76c-1.35-1.49-2.31-3.3-2.8-5.25-.53-1.71-.75-3.5-.64-5.29h.22c-.1.41-.17.62-.21.61s0-.23,0-.64h.22c.12,1.74.42,3.47.9,5.15.63,1.86,1.4,3.67,2.31,5.42Z"/>
    <path class="cls-2" d="M42.11,298.9c-.6-.46-1.25-.85-1.95-1.14-1.76-.53-3.61-.67-5.43-.43-1.84.14-3.67.44-5.47.88-.74.23-1.49.41-2.25.54.67-.41,1.39-.72,2.15-.91,1.8-.54,3.65-.88,5.53-1,1.89-.25,3.81-.04,5.6.61.76.25,1.41.76,1.82,1.45Z"/>
    <path class="cls-2" d="M40.07,296.26c0,.08-1.14-.45-3-1.09-2.42-.82-4.93-1.33-7.48-1.54-2.55-.18-5.11-.05-7.62.39-1.94.35-3.11.71-3.13.63s.27-.16.79-.34c.74-.26,1.5-.48,2.27-.64,5.1-1.12,10.42-.71,15.29,1.17.74.28,1.45.62,2.14,1,.26.11.51.25.74.42Z"/>
    <path class="cls-2" d="M57.37,285.13c-.9-2.48-1.63-5.01-2.19-7.59-.74-2.53-1.31-5.1-1.72-7.7.88,2.49,1.61,5.02,2.18,7.6.73,2.53,1.31,5.09,1.73,7.69Z"/>
    <path class="cls-2" d="M57.51,285.13c-.7-1.57-1.51-3.09-2.43-4.54-1.02-1.38-2.22-2.61-3.56-3.68,0-.06.59.15,1.38.71,1.01.74,1.89,1.65,2.6,2.68,1.08,1.41,1.77,3.07,2.01,4.83Z"/>
    <path class="cls-2" d="M57.4,385.17s-.15-.84-.55-2.32c-.58-2.07-1.36-4.08-2.33-6-2.41-4.93-6.8-11.18-12.38-17.44-2.76-3.16-5.44-6.13-7.71-9-2.05-2.52-3.89-5.19-5.52-8-1.1-1.89-2.03-3.86-2.79-5.91-.26-.73-.44-1.3-.55-1.69-.07-.19-.12-.4-.14-.6.05,0,.3.79.87,2.22.83,2,1.8,3.94,2.91,5.8,1.67,2.74,3.53,5.36,5.58,7.84,2.28,2.83,5,5.79,7.73,8.95,5.6,6.27,10,12.6,12.32,17.61.95,1.96,1.69,4.03,2.2,6.15.16.76.27,1.35.31,1.75.04.21.06.43.05.64Z"/>
    <path class="cls-2" d="M84.97,354.04c-.47.3-.95.57-1.45.81-1.31.73-2.56,1.56-3.75,2.48-1.75,1.37-3.4,2.88-4.92,4.51-1.72,1.83-3.5,3.95-5.32,6.22-3.63,4.55-7,8.58-9.06,11.8-1,1.6-1.78,2.94-2.27,3.89-.23.5-.5.99-.8,1.45.03-.14.07-.28.14-.41.1-.26.25-.65.48-1.13.63-1.38,1.35-2.71,2.15-4,2-3.29,5.34-7.38,9-11.93,1.82-2.27,3.62-4.4,5.38-6.22,1.54-1.62,3.21-3.11,5-4.45,1.23-.91,2.54-1.7,3.91-2.38.48-.25.87-.39,1.13-.5s.37-.16.38-.14Z"/>
    <path class="cls-2" d="M85.51,364.14c-1.01.22-2.03.36-3.06.44-2.45.25-4.88.73-7.24,1.43-2.34.76-4.53,1.91-6.48,3.4-1.5,1.15-2.2,2.11-2.27,2.05s.12-.27.45-.7c.46-.59.98-1.14,1.55-1.63,1.94-1.61,4.16-2.83,6.56-3.6,2.39-.72,4.86-1.15,7.36-1.3,1.04-.13,2.09-.16,3.13-.09Z"/>
    <path class="cls-2" d="M67.35,370.36c-.16-.1,1.22-2.2,2.28-5s1.24-5.36,1.42-5.33c.09.54.09,1.1,0,1.64-.15,1.32-.45,2.61-.89,3.86-.47,1.24-1.06,2.42-1.77,3.54-.27.48-.63.92-1.04,1.29Z"/>
    <path class="cls-2" d="M93.89,326.92c-.15.11-.31.2-.49.26l-1.43.66c-.63.27-1.39.61-2.25,1.06s-1.87.9-2.92,1.53l-1.67,1c-.57.33-1.14.73-1.75,1.11-1.23.74-2.46,1.66-3.77,2.6-5.62,4.18-10.53,9.25-14.53,15-.89,1.35-1.76,2.61-2.47,3.86-.35.62-.73,1.21-1,1.8l-.89,1.69c-.59,1.07-1,2.09-1.43,3s-.74,1.65-1,2.29-.44,1.07-.6,1.45c-.06.18-.14.35-.25.5.04-.18.09-.36.15-.53.14-.39.31-.89.52-1.49s.51-1.44.91-2.33.79-1.93,1.37-3l.87-1.72c.3-.6.67-1.19,1-1.82.7-1.27,1.56-2.55,2.45-3.91,3.98-5.84,8.93-10.96,14.63-15.14,1.33-.93,2.58-1.84,3.82-2.58.62-.37,1.2-.76,1.79-1.09l1.69-.92c1.06-.61,2.09-1,3-1.47.75-.37,1.51-.71,2.29-1l1.48-.57.48-.24Z"/>
    <path class="cls-2" d="M72.08,341.54c.2-.71.62-1.33,1.2-1.79,1.34-1.17,3.05-1.82,4.83-1.85,1.75,0,3.48.33,5.09,1,.68.22,1.33.54,1.92.94-.68-.14-1.35-.34-2-.6-1.61-.55-3.3-.83-5-.83-1.67.04-3.29.61-4.62,1.62-.51.47-.98.97-1.42,1.51Z"/>
    <path class="cls-2" d="M68.82,344.9c1.46-2.81,1.84-6.05,1.06-9.12.29.38.49.83.57,1.3.3,1.11.38,2.28.24,3.42-.12,1.14-.46,2.25-1,3.27-.45.77-.82,1.17-.87,1.13Z"/>
    <path class="cls-2" d="M33.3,390.17c.75,13.34,4.77,26.91,10.95,40.62h26.89c5.89-13.58,9.63-27.12,10.3-40.62h-48.14Z"/>
    <path class="cls-12" d="M77.08,411.76c0,.14-8.85.25-19.77.25s-19.77-.11-19.77-.25,8.85-.26,19.77-.26,19.77.12,19.77.26Z"/>
    <path class="cls-12" d="M76.46,416.59c0,.14-8.3.25-18.53.25s-18.47-.11-18.47-.25,8.3-.25,18.54-.25,18.46.11,18.46.25Z"/>
    <path class="cls-12" d="M44.68,398.93c.35,4.12.35,8.27,0,12.39-.33-4.12-.33-8.27,0-12.39Z"/>
    <path class="cls-12" d="M59.09,398.93c.33,4.27.33,8.56,0,12.83-.33-4.27-.33-8.56,0-12.83Z"/>
    <path class="cls-12" d="M72.61,398.84c.33,4.35.33,8.73,0,13.08-.33-4.35-.33-8.73,0-13.08Z"/>
    <path class="cls-12" d="M80.59,398.93c0,.14-10.39.25-23.19.25s-23.19-.11-23.19-.25,10.38-.25,23.19-.25,23.19.16,23.19.25Z"/>
  </g>
  <g id="freepik--Floor--inject-12">
    <path class="cls-11" d="M462.92,430.9c0,.15-99.5.27-222.22.27s-222.24-.12-222.24-.27,99.48-.26,222.24-.26,222.22.12,222.22.26Z"/>
  </g>
  <g id="freepik--Screen--inject-12">
    <path class="cls-13" d="M375.02.32h-27.16c-3.72.08-6.67,3.17-6.59,6.89,0,0,0,0,0,0v4.92c.08,3.73-2.87,6.81-6.6,6.9h-52.94c-3.72-.09-6.67-3.17-6.59-6.89v-4.98c.08-3.73-2.87-6.82-6.6-6.9,0,0,0,0,0,0h-33.32c-11.8-.01-21.37,9.54-21.38,21.34v.03l-.07,342.79c0,11.8,9.56,21.36,21.36,21.37l139.8.08c11.8.01,21.37-9.54,21.38-21.34v-.02l.07-342.79c.01-11.81-9.55-21.39-21.36-21.4Z"/>
    <path class="cls-11" d="M375.02.32h.74c.72,0,1.44.05,2.16.16,4.95.66,9.52,3.04,12.89,6.72,1.73,1.87,3.1,4.03,4.07,6.38,1.11,2.76,1.66,5.71,1.6,8.68v10.07c0,28.48,0,69.68.07,120.58s0,111.53,0,178.84v32c.04,2.2-.23,4.4-.82,6.52-.6,2.13-1.52,4.15-2.73,6-1.24,1.85-2.74,3.52-4.45,4.94-3.51,2.85-7.83,4.52-12.34,4.79-4.48.13-8.93,0-13.43.06h-126.03c-4.94.28-9.83-1.07-13.92-3.84-4.07-2.83-7.06-6.95-8.47-11.7-.67-2.35-.97-4.79-.89-7.23v-197.28c0-33.62,0-65.64.05-95.58V21.93c0-.86.07-1.73.12-2.59s.21-1.71.43-2.54c.77-3.33,2.31-6.43,4.5-9.06C222.88,2.61,229.31-.23,236,.02h31.98c1.49-.08,2.97.33,4.2,1.17,1.21.84,2.12,2.04,2.62,3.43.41,1.37.55,2.81.43,4.23v2.08c-.02.67,0,1.34.07,2,.17,1.32.72,2.57,1.59,3.58.86.99,2,1.69,3.27,2,.63.15,1.28.21,1.93.19h37.86l12.51.14c1,0,2,.05,2.91,0,.93-.11,1.83-.42,2.62-.92,1.54-.97,2.62-2.53,3-4.31.16-.85.21-1.72.17-2.59v-2.56c-.03-.83,0-1.66.11-2.49.14-.8.41-1.58.8-2.29.76-1.36,1.97-2.42,3.42-3,1.37-.43,2.81-.59,4.24-.45h25.29-25.29c-1.41-.13-2.82.02-4.17.45-1.44.62-2.62,1.74-3.3,3.16-.39.69-.65,1.44-.78,2.22-.1.82-.14,1.64-.1,2.46v2.56c.04.88-.02,1.77-.17,2.64-.39,1.85-1.5,3.46-3.09,4.47-.82.53-1.75.88-2.72,1-1,.09-1.94,0-2.94,0h-50.29c-.67.03-1.35-.04-2-.2-1.35-.34-2.56-1.09-3.46-2.15-.92-1.06-1.51-2.37-1.69-3.77-.07-.69-.09-1.39-.07-2.08v-2.09c.11-1.38-.03-2.77-.42-4.1-.46-1.31-1.33-2.45-2.47-3.24-1.17-.8-2.58-1.19-4-1.1h-32c-6.56-.25-12.87,2.55-17.09,7.58-2.14,2.57-3.64,5.61-4.39,8.87-.22.81-.28,1.66-.43,2.49s-.1,1.69-.11,2.54v5.19c0,13.89,0,28.32,0,43.31v257.08c0,9.45,0,18.98,0,28.57v7.21c-.08,2.38.22,4.77.87,7.06,1.38,4.61,4.28,8.62,8.24,11.37,3.99,2.71,8.76,4.02,13.57,3.74h126.08c4.48,0,9,.08,13.39,0,4.39-.26,8.58-1.89,12-4.66,1.67-1.38,3.14-3,4.34-4.81,1.18-1.81,2.08-3.78,2.66-5.86.57-2.07.84-4.22.8-6.37v-32.02c0-67.31.07-127.93.1-178.84s.09-92.1.12-120.58v-10.07c.06-2.95-.47-5.87-1.56-8.61-.95-2.34-2.3-4.48-4-6.35-3.35-3.67-7.87-6.06-12.79-6.76-.72-.11-1.44-.17-2.16-.19l-.68-.03Z"/>
    <path class="cls-11" d="M379.15,34.94c0,.09-3.53.19-7.88.23s-7.89,0-7.89-.1,3.53-.2,7.88-.23,7.89,0,7.89.1Z"/>
    <path class="cls-11" d="M379.19,38.97c0,.1-3.53.2-7.89.24s-7.89,0-7.89-.11,3.53-.19,7.89-.23,7.89-.03,7.89.1Z"/>
    <path class="cls-11" d="M379.22,43.01c0,.09-3.53.2-7.89.23s-7.89,0-7.89-.1,3.53-.19,7.89-.23,7.89.01,7.89.1Z"/>
    <path class="cls-11" d="M235.64,47.62h1.24l3.37-.08-.09.09v-3.85c.12-.54.58-.94,1.13-1h1.61c.64.1,1.11.65,1.1,1.3v3.56l-.16-.15h4.25l-.16.17v-6.65c-.04-.4-.25-.77-.59-1l-1.88-1.97-1.79-1.77-.87-.86c-.23-.3-.53-.52-.88-.66-.34-.09-.71-.02-1,.19-.25.22-.53.53-.79.78l-1.52,1.54c-1,1-2,1.9-2.69,2.76-.21.5-.28,1.05-.21,1.59v5.45c.01.19.01.37,0,.56v-2.03l-.05-2.43c0-.48,0-.99,0-1.53v-.84c0-.31.07-.61.23-.88.79-1,1.72-1.82,2.69-2.85.49-.5,1-1,1.51-1.55.28-.26.5-.53.82-.81.36-.26.81-.35,1.24-.24.39.15.74.4,1,.73l.87.85,1.64,1.8,1.86,1.83c.18.15.33.33.47.52.14.21.22.46.23.71v6.82h-4.57v-3.72c0-.5-.36-.93-.86-1h-1.54c-.46.03-.83.38-.91.83v3.9h-4.41l-.29-.11Z"/>
    <rect class="cls-7" x="224.15" y="192.28" width="164.46" height="40.95"/>
    <path class="cls-10" d="M352.1,211.24h23.87c4.1,0,7.42,3.32,7.42,7.42h0c0,4.1-3.32,7.41-7.42,7.41h-23.87c-4.1,0-7.42-3.32-7.42-7.42h0c0-4.1,3.32-7.41,7.42-7.41Z"/>
    <path class="cls-11" d="M230.99,86.74v1h1.72v.69h-1.72v1.36h-.87v-3.75h2.82v.7h-1.95Z"/>
    <path class="cls-11" d="M235.9,89.77l-.72-1h-.79v1h-.86v-3.73h1.61c1,0,1.62.52,1.62,1.36.02.52-.29.99-.77,1.17l.84,1.2h-.93ZM235.09,86.77h-.7v1.3h.7c.53,0,.8-.25.8-.65s-.27-.67-.8-.67v.02Z"/>
    <path class="cls-11" d="M237.21,87.91c-.04-1.1.82-2.03,1.93-2.07,1.1-.04,2.03.82,2.07,1.93.04,1.1-.82,2.03-1.93,2.07-.02,0-.05,0-.07,0-1.07.04-1.96-.79-2-1.86,0-.02,0-.05,0-.07ZM240.41,87.91c-.01-.65-.54-1.16-1.19-1.15-.65.01-1.16.54-1.15,1.19.01.64.53,1.15,1.17,1.15.62.05,1.17-.41,1.22-1.03,0-.05,0-.1,0-.16h-.05Z"/>
    <path class="cls-11" d="M245.33,89.77v-2.23l-1.1,1.84h-.38l-1.1-1.8v2.19h-.81v-3.73h.72l1.39,2.32,1.41-2.32h.7v3.73h-.83Z"/>
    <path class="cls-1" d="M316.46,86.75h-1.19v-.71h3.19v.71h-1.19v3h-.81v-3Z"/>
    <path class="cls-1" d="M318.66,87.91c-.04-1.1.82-2.03,1.93-2.07,1.1-.04,2.03.82,2.07,1.93.04,1.1-.82,2.03-1.93,2.07-.02,0-.05,0-.07,0-1.07.04-1.96-.79-2-1.86,0-.02,0-.05,0-.07ZM321.87,87.91c-.01-.65-.54-1.16-1.19-1.15-.65.01-1.16.54-1.15,1.19.01.64.53,1.15,1.17,1.15.62.02,1.15-.46,1.17-1.09,0-.03,0-.07,0-.1Z"/>
    <path class="cls-11" d="M229.04,121.49h1.57c1.03-.08,1.93.7,2,1.73.08,1.03-.7,1.93-1.73,2-.09,0-.18,0-.27,0h-1.57v-3.73ZM230.58,124.76c.77,0,1.4-.63,1.4-1.4s-.63-1.4-1.4-1.4h-1v2.8h1Z"/>
    <path class="cls-11" d="M236.14,124.76v.46h-2.68v-3.73h2.63v.47h-2.1v1.14h1.87v.45h-1.87v1.21h2.15Z"/>
    <path class="cls-11" d="M240.01,122.84c0,.81-.58,1.3-1.55,1.3h-.92v1.13h-.53v-3.73h1.45c1-.05,1.55.44,1.55,1.3ZM239.48,122.84c0-.53-.35-.83-1-.83h-.9v1.67h.9c.65-.05.98-.36.98-.84h.02Z"/>
    <path class="cls-11" d="M242.99,124.29h-2l-.41.93h-.54l1.68-3.73h.53l1.69,3.73h-.55l-.4-.93ZM242.8,123.86l-.81-1.82-.8,1.82h1.61Z"/>
    <path class="cls-11" d="M247,125.22l-.8-1.14h-1.16v1.13h-.53v-3.73h1.45c1,0,1.56.49,1.56,1.3.03.53-.31,1.02-.82,1.18l.88,1.25h-.58ZM247,122.79c0-.53-.36-.83-1-.83h-.91v1.67h.91c.63,0,.99-.31.99-.79v-.05Z"/>
    <path class="cls-11" d="M249.07,121.96h-1.28v-.47h3.08v.47h-1.28v3.26h-.52v-3.26Z"/>
    <path class="cls-11" d="M251.35,123.61v-2.12h.53v2.1c0,.83.38,1.2,1.05,1.2s1.06-.37,1.06-1.2v-2.1h.47v2.12c.07.87-.58,1.63-1.45,1.7-.87.07-1.63-.58-1.7-1.45,0-.08,0-.17,0-.25h.04Z"/>
    <path class="cls-11" d="M258.09,125.22l-.81-1.14h-1.15v1.13h-.54v-3.73h1.46c1,0,1.55.49,1.55,1.3.03.53-.31,1.02-.82,1.18l.89,1.25h-.58ZM258.09,122.79c0-.53-.36-.83-1-.83h-.9v1.67h.9c.62,0,.98-.31.98-.79l.02-.05Z"/>
    <path class="cls-11" d="M262.17,124.76v.46h-2.71v-3.73h2.63v.47h-2.1v1.14h1.87v.45h-1.87v1.21h2.18Z"/>
    <path class="cls-11" d="M286.64,204.65c.11.99-.61,1.89-1.61,1.99-.1.01-.2.01-.29,0-.35,0-.7-.08-1-.26l.32-.63c.2.13.45.2.69.19.55.03,1.02-.39,1.05-.94,0-.05,0-.1,0-.15-.25.23-.58.35-.92.33-.65.06-1.22-.42-1.28-1.06,0-.03,0-.06,0-.1.02-.71.62-1.27,1.33-1.24.03,0,.05,0,.08,0,1.01.05,1.64.66,1.64,1.86ZM285.64,204c0-.32-.24-.55-.65-.55-.31-.04-.59.17-.63.48s.17.59.48.63c.05,0,.1,0,.15,0,.31.06.62-.14.68-.46,0-.03,0-.07.01-.1h-.04Z"/>
    <path class="cls-11" d="M287.03,204.2c.08-.28.37-.44.64-.36.17.05.31.18.36.36.08.28-.08.56-.36.64-.28.08-.56-.08-.64-.36-.03-.09-.03-.19,0-.29ZM287.03,206.11c.08-.28.37-.44.64-.36.17.05.31.18.36.36.08.28-.08.56-.36.64-.28.08-.56-.08-.64-.36-.03-.09-.03-.19,0-.29Z"/>
    <path class="cls-11" d="M288.46,204.73c0-1.23.68-1.93,1.6-1.93s1.6.7,1.6,1.93-.68,1.93-1.6,1.93-1.6-.7-1.6-1.93ZM290.79,204.73c0-.85-.3-1.2-.73-1.2s-.73.35-.73,1.2.3,1.2.73,1.2.72-.35.72-1.2h0Z"/>
    <path class="cls-11" d="M292.07,204.73c0-1.23.68-1.93,1.59-1.93s1.6.7,1.6,1.93-.68,1.93-1.6,1.93-1.59-.7-1.59-1.93ZM294.39,204.73c0-.85-.3-1.2-.73-1.2s-.72.35-.72,1.2.3,1.2.72,1.2.73-.35.73-1.2Z"/>
    <path class="cls-11" d="M297.26,204.76h1.51v.67h-1.51v-.67Z"/>
    <path class="cls-11" d="M302.19,202.84v3.72h-.86v-3h-.75v-.72h1.61Z"/>
    <path class="cls-11" d="M305.62,205.89v.7h-2.81v-.56l1.43-1.35c.33-.32.39-.51.39-.69s-.2-.46-.59-.46c-.31-.01-.6.12-.78.37l-.62-.41c.34-.47.9-.73,1.48-.69.83,0,1.38.43,1.38,1.1,0,.47-.24.91-.62,1.18l-.86.81h1.6Z"/>
    <path class="cls-11" d="M305.95,204.2c.08-.28.37-.44.64-.36.17.05.31.18.36.36-.08.28-.37.44-.64.36-.17-.05-.31-.18-.36-.36ZM305.95,206.11c.08-.28.37-.44.64-.36.17.05.31.18.36.36.08.28-.08.56-.36.64-.28.08-.56-.08-.64-.36-.03-.09-.03-.19,0-.29Z"/>
    <path class="cls-11" d="M307.38,204.73c0-1.23.68-1.93,1.59-1.93s1.6.7,1.6,1.93-.68,1.93-1.6,1.93-1.59-.7-1.59-1.93ZM309.7,204.73c0-.85-.3-1.2-.73-1.2s-.72.35-.72,1.2.3,1.2.72,1.2.73-.35.73-1.2h0Z"/>
    <path class="cls-11" d="M310.99,204.73c0-1.23.68-1.93,1.6-1.93s1.6.7,1.6,1.93-.68,1.93-1.6,1.93-1.6-.7-1.6-1.93ZM313.32,204.73c0-.85-.3-1.2-.73-1.2s-.73.35-.73,1.2.3,1.2.73,1.2.73-.35.73-1.2Z"/>
    <path class="cls-11" d="M319.58,204.22c0,.83-.62,1.35-1.62,1.35h-.75v1h-.86v-3.73h1.61c1,0,1.62.54,1.62,1.38ZM318.71,204.22c0-.41-.27-.65-.8-.65h-.7v1.27h.7c.55,0,.8-.22.8-.62Z"/>
    <path class="cls-11" d="M323.58,206.59v-2.23l-1.1,1.84h-.39l-1.09-1.79v2.18h-.81v-3.75h.71l1.4,2.31,1.37-2.31h.71v3.72l-.8.03Z"/>
    <path class="cls-10" d="M372.46,178.65h-46.7c-4.45,0-8.06-3.6-8.07-8.05h0c0-4.46,3.61-8.07,8.06-8.07h46.71c4.45,0,8.06,3.61,8.06,8.06h0c0,4.45-3.61,8.06-8.06,8.06Z"/>
    <path class="cls-13" d="M337.52,171.84l.3-.65c.37.25.8.39,1.24.39.52,0,.73-.17.73-.4,0-.71-2.19-.22-2.19-1.63,0-.64.52-1.17,1.59-1.17.46,0,.91.1,1.31.33l-.27.67c-.3-.18-.65-.28-1-.3-.51,0-.71.19-.71.43,0,.7,2.19.22,2.19,1.6,0,.63-.52,1.17-1.6,1.17-.56.02-1.12-.13-1.59-.44Z"/>
    <path class="cls-13" d="M344.17,171.47v.7h-2.91v-3.77h2.85v.7h-2v.81h1.75v.68h-1.75v.88h2.06Z"/>
    <path class="cls-13" d="M347.35,171.36h-1.75l-.33.81h-.9l1.68-3.77h.87l1.68,3.77h-.91l-.34-.81ZM347.08,170.69l-.6-1.44-.6,1.44h1.2Z"/>
    <path class="cls-13" d="M351.4,172.17l-.73-1.05h-.8v1.05h-.88v-3.77h1.64c1,0,1.63.52,1.63,1.36.02.52-.29,1-.77,1.19l.84,1.22h-.93ZM350.58,169.11h-.71v1.31h.71c.53,0,.8-.25.8-.66s-.27-.65-.8-.65Z"/>
    <path class="cls-13" d="M352.72,170.28c.07-1.14,1.05-2.01,2.19-1.95.54.03,1.04.27,1.4.67l-.56.52c-.23-.29-.57-.45-.94-.45-.67,0-1.21.54-1.21,1.21,0,.67.54,1.21,1.21,1.21.37,0,.71-.16.94-.45l.56.52c-.77.84-2.08.9-2.92.12-.4-.36-.63-.87-.67-1.4h0Z"/>
    <path class="cls-13" d="M360.36,168.4v3.77h-.9v-1.55h-1.72v1.55h-.87v-3.77h.87v1.44h1.72v-1.48l.9.04Z"/>
    <path class="cls-13" d="M359.46,220.84v1h-3.89v-.78l2-1.87c.46-.44.54-.7.54-.95s-.28-.64-.83-.64c-.42-.02-.81.18-1.06.51l-.87-.55c.46-.64,1.21-1.02,2-1,1.15,0,1.91.59,1.91,1.52-.01.65-.33,1.25-.86,1.63l-1.18,1.13h2.24Z"/>
    <path class="cls-13" d="M359.91,219.25c0-1.7.94-2.66,2.2-2.66s2.21,1,2.21,2.66-.93,2.66-2.21,2.66-2.2-.96-2.2-2.66ZM363.12,219.25c0-1.17-.41-1.65-1-1.65s-1,.48-1,1.65.42,1.66,1,1.66,1-.49,1-1.66Z"/>
    <path class="cls-13" d="M369.69,220.29l.76.71c-.53.61-1.31.95-2.12.91-1.2.06-2.3-.69-2.67-1.84h-.83v-.62h.72c0-.07,0-.13,0-.2,0-.07,0-.13,0-.2h-.72v-.61h.83c.37-1.15,1.47-1.9,2.67-1.85.81-.04,1.59.3,2.12.91l-.76.71c-.32-.39-.8-.61-1.3-.61-.6-.02-1.17.31-1.45.84h1.86v.61h-2c0,.07,0,.13,0,.2,0,.07,0,.13,0,.2h2v.62h-1.86c.29.53.85.85,1.45.83.5,0,.98-.22,1.3-.61Z"/>
    <path class="cls-1" d="M318.27,125.22l-.8-1.14h-1.16v1.13h-.53v-3.73h1.45c1,0,1.56.49,1.56,1.3.03.53-.31,1.02-.82,1.18l.88,1.25h-.58ZM318.27,122.79c0-.53-.35-.83-1-.83h-.91v1.67h.91c.63,0,.98-.3.98-.79l.02-.05Z"/>
    <path class="cls-1" d="M322.35,124.76v.46h-2.7v-3.73h2.63v.47h-2.1v1.14h1.87v.45h-1.87v1.21h2.17Z"/>
    <path class="cls-1" d="M323.96,121.96h-1.28v-.47h3.08v.47h-1.3v3.26h-.52l.02-3.26Z"/>
    <path class="cls-1" d="M326.24,123.61v-2.12h.53v2.1c0,.83.38,1.2,1.05,1.2s1.06-.37,1.06-1.2v-2.1h.51v2.12c.07.87-.58,1.63-1.45,1.7-.87.07-1.63-.58-1.7-1.45,0-.08,0-.17,0-.25Z"/>
    <path class="cls-1" d="M332.98,125.22l-.81-1.14h-1.15v1.13h-.56v-3.73h1.45c1,0,1.55.49,1.55,1.3.03.53-.31,1.02-.82,1.18l.89,1.25h-.55ZM332.98,122.79c0-.53-.36-.83-1-.83h-.9v1.67h.9c.62,0,.98-.3.98-.79l.02-.05Z"/>
    <path class="cls-1" d="M337.56,121.49v3.73h-.43l-2.24-2.78v2.78h-.53v-3.73h.43l2.24,2.78v-2.78h.53Z"/>
    <path class="cls-11" d="M235.96,162.02h-2l-.41.93h-.55l1.69-3.73h.53l1.69,3.73h-.56l-.39-.93ZM235.78,161.59l-.81-1.83-.8,1.83h1.61Z"/>
    <path class="cls-11" d="M237.46,159.22h1.57c1.03-.08,1.93.7,2,1.73.08,1.03-.7,1.93-1.73,2-.09,0-.18,0-.27,0h-1.57v-3.73ZM239,162.48c.77,0,1.4-.63,1.4-1.4s-.63-1.4-1.4-1.4h-1v2.8h1Z"/>
    <path class="cls-11" d="M241.85,161.34v-2.12h.54v2.1c0,.82.37,1.2,1.05,1.2s1-.38,1-1.2v-2.1h.52v2.12c0,.87-.71,1.58-1.58,1.58s-1.58-.71-1.58-1.58h.05Z"/>
    <path class="cls-11" d="M246.1,159.22h.53v3.26h2v.47h-2.55l.02-3.73Z"/>
    <path class="cls-11" d="M249.65,159.68h-1.27v-.46h3.08v.46h-1.28v3.27h-.53v-3.27Z"/>
    <path class="cls-11" d="M251.65,162.52l.2-.41c.35.28.78.43,1.23.43.64,0,.92-.25.92-.58,0-.91-2.26-.33-2.26-1.72,0-.57.45-1.06,1.43-1.06.42-.01.84.1,1.2.33l-.18.42c-.3-.19-.65-.29-1-.3-.63,0-.91.27-.91.59,0,.91,2.26.34,2.26,1.71,0,.57-.46,1.06-1.44,1.06-.52.02-1.04-.15-1.45-.47Z"/>
    <path class="cls-2" d="M254.2,178.24c.25-.05.5-.09.75-.11.71-.12,1.39-.37,2-.75.97-.6,1.73-1.48,2.18-2.52.58-1.39.57-2.96-.05-4.33-.76-1.66-2.3-2.82-4.1-3.08-.94-.12-2,0-3.07-.05h-17.9c-2.92-.01-5.29,2.34-5.3,5.26,0,1.94,1.05,3.73,2.76,4.66.47.25.97.44,1.49.55.52.09,1.04.12,1.57.11h8.66l8.05.09h2.19c.25-.01.51,0,.76.05-.25.02-.51.02-.76,0l-2.19.05-8.05.08h-8.66c-.56.02-1.11-.02-1.66-.11-.57-.12-1.12-.32-1.63-.59-1.06-.58-1.92-1.47-2.44-2.56-1.39-2.87-.19-6.33,2.68-7.72.79-.38,1.65-.58,2.53-.58h17.9c1.08,0,2.08,0,3.13.08,3.11.46,5.25,3.35,4.79,6.46-.08.51-.22,1.01-.43,1.49-.49,1.09-1.31,1.99-2.35,2.58-.64.38-1.35.61-2.09.68-.24.12-.5.2-.76.26Z"/>
    <path class="cls-11" d="M245.46,174.15v.86h-3.46v-.69l1.77-1.67c.4-.38.47-.62.47-.84s-.25-.57-.73-.57c-.37-.01-.73.16-.95.46l-.77-.5c.42-.57,1.11-.89,1.82-.85,1,0,1.7.52,1.7,1.35,0,.58-.3,1.12-.77,1.45l-1,1h1.92Z"/>
    <rect class="cls-11" x="251.45" y="171.13" width="1" height="3.52"/>
    <rect class="cls-11" x="250.19" y="172.39" width="3.52" height="1"/>
    <path class="cls-11" d="M272.05,161.08c-.01-1.04.82-1.89,1.86-1.9.05,0,.1,0,.14,0,.54-.03,1.06.19,1.42.58l-.35.33c-.27-.29-.65-.45-1.05-.44-.79-.07-1.49.52-1.55,1.32-.07.79.52,1.49,1.32,1.55.08,0,.16,0,.24,0,.4,0,.78-.16,1.05-.45l.35.33c-.36.4-.88.61-1.42.59-1.04.07-1.93-.72-2-1.76,0-.05,0-.1,0-.15Z"/>
    <path class="cls-11" d="M279.46,159.22v3.73h-.54v-1.66h-2.14v1.66h-.53v-3.73h.53v1.62h2.14v-1.6l.54-.02Z"/>
    <path class="cls-11" d="M280.52,159.22h.54v3.73h-.54v-3.73Z"/>
    <path class="cls-11" d="M282.17,159.22h.54v3.26h2v.47h-2.56l.02-3.73Z"/>
    <path class="cls-11" d="M285.34,159.22h1.57c1.03-.08,1.93.7,2,1.73.08,1.03-.7,1.93-1.73,2-.09,0-.18,0-.27,0h-1.57v-3.73ZM286.88,162.48c.77,0,1.4-.63,1.4-1.4s-.63-1.4-1.4-1.4h-1v2.8h1Z"/>
    <path class="cls-2" d="M290.65,178.24c.25-.05.5-.09.75-.11,2.97-.46,5.01-3.23,4.55-6.2-.07-.48-.21-.95-.41-1.4-.76-1.66-2.31-2.82-4.11-3.08-.93-.12-2,0-3.06-.05h-17.9c-2.92-.01-5.29,2.34-5.3,5.26,0,1.94,1.05,3.73,2.76,4.66.47.25.97.44,1.49.55.52.09,1.04.12,1.57.11h8.65l8.06.09h2.18c.26-.01.52,0,.77.05-.26.02-.51.02-.77,0l-2.18.05-8.06.08h-8.65c-.56.02-1.11-.02-1.66-.11-.57-.12-1.12-.32-1.63-.59-1.06-.58-1.92-1.47-2.44-2.56-1.39-2.87-.19-6.33,2.68-7.72.79-.38,1.65-.58,2.53-.58h17.9c1.08,0,2.08,0,3.13.08,1.94.3,3.58,1.57,4.37,3.36.65,1.46.65,3.13,0,4.59-.48,1.09-1.3,1.99-2.34,2.58-.64.38-1.35.61-2.09.68-.25.12-.52.21-.79.26Z"/>
    <path class="cls-11" d="M278.46,172.72c0-1.51.84-2.37,2-2.37s2,.86,2,2.37-.83,2.37-2,2.37-2-.86-2-2.37ZM281.33,172.72c0-1-.37-1.47-.9-1.47s-.89.43-.89,1.47.36,1.47.89,1.47.93-.43.93-1.47h-.03Z"/>
    <rect class="cls-11" x="287.9" y="171.13" width="1" height="3.52"/>
    <rect class="cls-11" x="286.63" y="172.39" width="3.52" height="1"/>
    <path class="cls-2" d="M393.56,186.67c0,.14-39.44.26-88.09.26s-88.09-.12-88.09-.26,39.43-.26,88.09-.26,88.09.11,88.09.26Z"/>
    <path class="cls-2" d="M328.85,213.41c0,.15-10.59.26-23.64.26s-23.64-.11-23.64-.26,10.58-.26,23.64-.26,23.64.12,23.64.26Z"/>
    <path class="cls-2" d="M328.67,218.84c0,.15-10.58.26-23.64.26s-23.64-.11-23.64-.26,10.59-.26,23.64-.26,23.64.13,23.64.26Z"/>
    <path class="cls-2" d="M303.36,224.3c0,.14-4.88.26-10.89.26s-10.9-.12-10.9-.26,4.88-.27,10.9-.27,10.89.12,10.89.27Z"/>
    <path class="cls-11" d="M377.15,205.51c0,.14-6.94.26-15.5.26s-15.5-.12-15.5-.26,6.94-.26,15.5-.26,15.5.12,15.5.26Z"/>
    <path class="cls-6" d="M259.46,225.97c0,.14-5.73.26-12.79.26s-12.79-.12-12.79-.26,5.72-.26,12.79-.26,12.79.13,12.79.26Z"/>
    <path class="cls-11" d="M273.09,233.02c-.14,0-.26-8.94-.26-20s.12-20,.26-20,.26,8.93.26,20-.12,20-.26,20Z"/>
    <rect class="cls-7" x="224.15" y="238.96" width="164.46" height="40.95"/>
    <path class="cls-5" d="M374.54,273.24h-23.88c-4.09,0-7.41-3.33-7.41-7.42h0c0-4.09,3.32-7.41,7.41-7.42h23.88c4.1,0,7.42,3.32,7.42,7.42,0,0,0,.01,0,.02h0c-.01,4.09-3.33,7.4-7.42,7.4Z"/>
    <path class="cls-11" d="M286.64,251.33c.11.99-.61,1.89-1.61,1.99-.1.01-.2.01-.29,0-.35,0-.7-.08-1-.26l.32-.63c.21.13.45.19.69.18.55.03,1.02-.39,1.05-.95,0-.04,0-.09,0-.13-.25.23-.58.35-.92.33-.65.06-1.22-.42-1.28-1.06,0-.03,0-.06,0-.1.02-.71.62-1.27,1.33-1.24.03,0,.05,0,.08,0,1.01.01,1.64.66,1.64,1.86ZM285.64,250.68c0-.32-.24-.55-.65-.55-.31-.04-.59.17-.63.48-.04.31.17.59.48.63.05,0,.1,0,.15,0,.31.06.62-.14.68-.46,0-.03,0-.07.01-.1h-.04Z"/>
    <path class="cls-11" d="M287.03,250.84c.08-.28.37-.44.64-.36.17.05.31.18.36.36.08.28-.08.56-.36.64-.28.08-.56-.08-.64-.36-.03-.09-.03-.19,0-.29ZM287.03,252.75c.08-.28.37-.44.64-.36.17.05.31.18.36.36.08.28-.08.56-.36.64-.28.08-.56-.08-.64-.36-.03-.09-.03-.19,0-.29Z"/>
    <path class="cls-11" d="M288.46,251.41c0-1.23.68-1.93,1.6-1.93s1.6.7,1.6,1.93-.68,1.93-1.6,1.93-1.6-.7-1.6-1.93ZM290.79,251.41c0-.85-.3-1.2-.73-1.2s-.73.35-.73,1.2.3,1.2.73,1.2.72-.35.72-1.2h0Z"/>
    <path class="cls-11" d="M292.07,251.41c0-1.23.68-1.93,1.59-1.93s1.6.7,1.6,1.93-.68,1.93-1.6,1.93-1.59-.7-1.59-1.93ZM294.39,251.41c0-.85-.3-1.2-.73-1.2s-.72.35-.72,1.2.3,1.2.72,1.2.73-.35.73-1.2Z"/>
    <path class="cls-11" d="M297.26,251.44h1.51v.67h-1.51v-.67Z"/>
    <path class="cls-11" d="M302.19,249.55v3.72h-.86v-3h-.75v-.69l1.61-.03Z"/>
    <path class="cls-11" d="M305.62,252.57v.7h-2.81v-.56l1.43-1.35c.33-.32.39-.51.39-.69s-.2-.46-.59-.46c-.31-.01-.6.12-.78.37l-.62-.41c.34-.47.9-.73,1.48-.69.83,0,1.38.43,1.38,1.1,0,.47-.24.91-.62,1.18l-.86.81h1.6Z"/>
    <path class="cls-11" d="M305.95,250.84c.08-.28.37-.44.64-.36.17.05.31.18.36.36-.08.28-.37.44-.64.36-.17-.05-.31-.18-.36-.36ZM305.95,252.75c.08-.28.37-.44.64-.36.17.05.31.18.36.36.08.28-.08.56-.36.64-.28.08-.56-.08-.64-.36-.03-.09-.03-.19,0-.29Z"/>
    <path class="cls-11" d="M307.38,251.41c0-1.23.68-1.93,1.59-1.93s1.6.7,1.6,1.93-.68,1.93-1.6,1.93-1.59-.7-1.59-1.93ZM309.7,251.41c0-.85-.3-1.2-.73-1.2s-.72.35-.72,1.2.3,1.2.72,1.2.73-.35.73-1.2h0Z"/>
    <path class="cls-11" d="M310.99,251.41c0-1.23.68-1.93,1.6-1.93s1.6.7,1.6,1.93-.68,1.93-1.6,1.93-1.6-.7-1.6-1.93ZM313.32,251.41c0-.85-.3-1.2-.73-1.2s-.73.35-.73,1.2.3,1.2.73,1.2.73-.35.73-1.2Z"/>
    <path class="cls-11" d="M319.58,250.9c0,.83-.62,1.35-1.62,1.35h-.75v1h-.86v-3.72h1.61c1,.02,1.62.53,1.62,1.37ZM318.71,250.9c0-.41-.27-.65-.8-.65h-.7v1.29h.7c.55,0,.8-.24.8-.64Z"/>
    <path class="cls-11" d="M323.58,253.27v-2.23l-1.12,1.8h-.39l-1.09-1.8v2.19h-.81v-3.72h.71l1.4,2.31,1.37-2.31h.71v3.72l-.78.04Z"/>
    <path class="cls-13" d="M359.46,266.89c0,.91-.67,1.7-2.14,1.7-.71.02-1.4-.17-2-.55l.47-.91c.43.31.94.47,1.47.46.59,0,1-.25,1-.66s-.26-.67-1.2-.67h-1.3l.26-2.9h3.14v1h-2.15l-.08,1h.42c1.52-.07,2.11.62,2.11,1.53Z"/>
    <path class="cls-13" d="M359.96,265.93c0-1.7.94-2.66,2.21-2.66s2.2,1,2.2,2.66-.93,2.66-2.2,2.66-2.21-.96-2.21-2.66ZM363.17,265.93c0-1.17-.41-1.65-1-1.65s-1,.48-1,1.65.41,1.66,1,1.66,1-.49,1-1.66Z"/>
    <path class="cls-13" d="M369.74,266.97l.76.71c-.53.61-1.31.95-2.12.91-1.2.06-2.3-.69-2.67-1.84h-.83v-.62h.72v-.4h-.72v-.61h.83c.37-1.15,1.47-1.9,2.67-1.85.81-.04,1.59.3,2.12.91l-.76.71c-.32-.39-.8-.61-1.3-.61-.6-.02-1.17.31-1.45.84h1.86v.61h-2.05c0,.07,0,.13,0,.2,0,.07,0,.13,0,.2h2.05v.62h-1.86c.29.53.85.85,1.45.83.5,0,.98-.22,1.3-.61Z"/>
    <path class="cls-5" d="M263.74,253.53c-1.72-2.23-6.56-1.14-9.92.44,0,0-2.31.95-3.18,1.45h0l-7.6-1.36c-.62-.11-1.25-.03-1.82.22l-.64.29c-.21.1-.3.35-.2.56.04.09.11.16.2.2l5.5,2.7v.07l-5.74,3.36-.09.05c-1.08.61-2.36.8-3.57.52l-3-.69c-.39-.13-.82.09-.94.49-.09.28,0,.6.22.79l3.3,3.06c.51.48,1.26.62,1.91.36l1.66-.66,8.37-3.46-1.19,4.6c-.04.16.06.32.22.36.03,0,.05,0,.08,0h.38c.53,0,1.02-.26,1.31-.7l3.62-6.11,9.88-4.08c1.32-.51,1.84-1.59,1.24-2.47Z"/>
    <path class="cls-10" d="M263.74,205.84c-1.72-2.24-6.56-1.14-9.92.44,0,0-2.31.94-3.18,1.45h0l-7.6-1.35c-.62-.11-1.25-.03-1.82.22l-.64.29c-.21.1-.3.35-.2.56.04.09.11.16.2.2l5.5,2.7v.07l-5.74,3.36h-.09c-1.08.61-2.36.8-3.57.51l-3-.68c-.15-.04-.3-.04-.45,0-.39.13-.6.56-.47.95.04.12.11.22.2.31l3.3,3.07c.51.48,1.26.62,1.91.35l1.66-.65,8.37-3.46-1.19,4.6c-.04.16.06.32.22.36.03,0,.05,0,.08,0h.38c.53,0,1.02-.26,1.31-.7l3.62-6.11,9.88-4.09c1.32-.41,1.84-1.54,1.24-2.41Z"/>
    <path class="cls-2" d="M328.85,260.09c0,.15-10.59.26-23.64.26s-23.64-.11-23.64-.26,10.58-.26,23.64-.26,23.64.12,23.64.26Z"/>
    <path class="cls-2" d="M328.67,265.53c0,.15-10.58.26-23.64.26s-23.64-.11-23.64-.26,10.59-.26,23.64-.26,23.64.12,23.64.26Z"/>
    <path class="cls-2" d="M303.36,270.97c0,.15-4.88.27-10.89.27s-10.9-.12-10.9-.27,4.88-.26,10.9-.26,10.89.13,10.89.26Z"/>
    <path class="cls-11" d="M377.15,252.19c0,.14-6.94.26-15.5.26s-15.5-.12-15.5-.26,6.94-.26,15.5-.26,15.5.11,15.5.26Z"/>
    <path class="cls-5" d="M259.46,272.65c0,.14-5.73.26-12.79.26s-12.79-.12-12.79-.26,5.72-.26,12.79-.26,12.79.11,12.79.26Z"/>
    <path class="cls-11" d="M273.09,279.7c-.14,0-.26-8.94-.26-20s.12-20,.26-20,.26,8.93.26,20-.12,20-.26,20Z"/>
    <rect class="cls-7" x="224.15" y="285.64" width="164.46" height="40.95"/>
    <path class="cls-10" d="M374.54,319.91h-23.88c-4.09,0-7.41-3.32-7.41-7.41h0c0-4.09,3.32-7.41,7.41-7.42h23.88c4.1,0,7.42,3.32,7.42,7.42h0c0,4.09-3.33,7.41-7.42,7.41Z"/>
    <path class="cls-11" d="M286.64,298.01c.11.99-.61,1.89-1.61,1.99-.1.01-.2.01-.29,0-.35,0-.7-.08-1-.26l.32-.63c.21.13.45.19.69.18.55.03,1.02-.39,1.05-.95,0-.04,0-.09,0-.13-.25.23-.58.35-.92.33-.65.06-1.23-.43-1.29-1.09,0-.02,0-.05,0-.07.02-.71.62-1.27,1.33-1.24.03,0,.05,0,.08,0,1.01.01,1.64.69,1.64,1.86ZM285.64,297.36c0-.32-.24-.55-.65-.55-.31-.04-.59.17-.63.48-.04.31.17.59.48.63.05,0,.1,0,.15,0,.31.06.62-.14.68-.46,0-.03,0-.07.01-.1h-.04Z"/>
    <path class="cls-11" d="M287.03,297.56c.08-.28.37-.44.64-.36.17.05.31.18.36.36.08.28-.08.56-.36.64-.28.08-.56-.08-.64-.36-.03-.09-.03-.19,0-.29ZM287.03,299.47c.08-.28.37-.44.64-.36.17.05.31.18.36.36.08.28-.08.56-.36.64-.28.08-.56-.08-.64-.36-.03-.09-.03-.19,0-.29Z"/>
    <path class="cls-11" d="M288.46,298.09c0-1.23.68-1.93,1.6-1.93s1.6.7,1.6,1.93-.68,1.93-1.6,1.93-1.6-.7-1.6-1.93ZM290.79,298.09c0-.85-.3-1.2-.73-1.2s-.73.35-.73,1.2.3,1.2.73,1.2.72-.35.72-1.2h0Z"/>
    <path class="cls-11" d="M292.07,298.09c0-1.23.68-1.93,1.59-1.93s1.6.7,1.6,1.93-.68,1.93-1.6,1.93-1.59-.7-1.59-1.93ZM294.39,298.09c0-.85-.3-1.2-.73-1.2s-.72.35-.72,1.2.3,1.2.72,1.2.73-.35.73-1.2Z"/>
    <path class="cls-11" d="M297.26,298.12h1.51v.72h-1.51v-.72Z"/>
    <path class="cls-11" d="M302.19,296.23v3.72h-.86v-3h-.75v-.69l1.61-.03Z"/>
    <path class="cls-11" d="M305.62,299.25v.7h-2.81v-.56l1.43-1.35c.33-.32.39-.51.39-.69s-.2-.46-.59-.46c-.31-.01-.6.12-.78.37l-.62-.41c.34-.47.9-.73,1.48-.69.83,0,1.38.43,1.38,1.1,0,.47-.24.91-.62,1.18l-.86.81h1.6Z"/>
    <path class="cls-11" d="M305.95,297.56c.08-.28.37-.44.64-.36.17.05.31.18.36.36-.08.28-.37.44-.64.36-.17-.05-.31-.18-.36-.36ZM305.95,299.47c.08-.28.37-.44.64-.36.17.05.31.18.36.36.08.28-.08.56-.36.64-.28.08-.56-.08-.64-.36-.03-.09-.03-.19,0-.29Z"/>
    <path class="cls-11" d="M307.38,298.09c0-1.23.68-1.93,1.59-1.93s1.6.7,1.6,1.93-.68,1.93-1.6,1.93-1.59-.7-1.59-1.93ZM309.7,298.09c0-.85-.3-1.2-.73-1.2s-.72.35-.72,1.2.3,1.2.72,1.2.73-.35.73-1.2h0Z"/>
    <path class="cls-11" d="M310.99,298.09c0-1.23.68-1.93,1.6-1.93s1.6.7,1.6,1.93-.68,1.93-1.6,1.93-1.6-.7-1.6-1.93ZM313.32,298.09c0-.85-.3-1.2-.73-1.2s-.73.35-.73,1.2.3,1.2.73,1.2.73-.35.73-1.2Z"/>
    <path class="cls-11" d="M319.58,297.58c0,.83-.62,1.35-1.62,1.35h-.75v1h-.86v-3.72h1.61c1,.02,1.62.53,1.62,1.37ZM318.71,297.58c0-.41-.27-.65-.8-.65h-.7v1.29h.7c.55,0,.8-.24.8-.64Z"/>
    <path class="cls-11" d="M323.58,299.95v-2.23l-1.1,1.84h-.39l-1.09-1.8v2.19h-.81v-3.72h.71l1.4,2.31,1.37-2.31h.71v3.72h-.8Z"/>
    <path class="cls-13" d="M356.57,310.04v5.15h-1.19v-4.2h-1v-.95h2.19Z"/>
    <path class="cls-13" d="M357.46,312.61c0-1.7.94-2.66,2.2-2.66s2.21,1,2.21,2.66-.93,2.66-2.21,2.66-2.2-.96-2.2-2.66ZM360.67,312.61c0-1.17-.41-1.65-1-1.65s-1,.48-1,1.65.42,1.66,1,1.66,1.01-.49,1.01-1.66h-.01Z"/>
    <path class="cls-13" d="M362.46,312.61c0-1.7.94-2.66,2.2-2.66s2.21,1,2.21,2.66-.93,2.66-2.21,2.66-2.2-.96-2.2-2.66ZM365.67,312.61c0-1.17-.41-1.65-1-1.65s-1,.48-1,1.65.42,1.66,1,1.66,1-.49,1-1.66Z"/>
    <path class="cls-13" d="M372.24,313.65l.76.7c-.53.62-1.31.96-2.12.92-1.2.06-2.3-.69-2.67-1.84h-.83v-.59h.72c0-.07,0-.13,0-.2,0-.07,0-.13,0-.2h-.72v-.6h.83c.37-1.15,1.47-1.9,2.67-1.85.81-.04,1.59.3,2.12.91l-.76.71c-.32-.39-.8-.61-1.3-.61-.61-.02-1.19.3-1.48.84h1.86v.61h-2c0,.07,0,.13,0,.2,0,.07,0,.13,0,.2h2v.62h-1.86c.29.53.86.85,1.46.83.52,0,1-.24,1.32-.65Z"/>
    <path class="cls-10" d="M263.74,300.21c-1.72-2.23-6.56-1.14-9.92.44,0,0-2.31.94-3.18,1.45h0l-7.6-1.36c-.62-.11-1.25-.03-1.82.22l-.64.29c-.21.1-.3.35-.2.56.04.09.11.16.2.2l5.5,2.7v.13l-5.74,3.36-.09.05c-1.08.61-2.36.8-3.57.52l-3-.69c-.39-.13-.82.09-.94.49-.09.28,0,.6.22.79l3.3,3.06c.51.48,1.26.62,1.91.36l1.66-.66,8.37-3.46-1.19,4.6c-.04.16.06.32.22.36.03,0,.05,0,.08,0h.38c.53,0,1.02-.26,1.31-.7l3.62-6.11,9.88-4.09c1.32-.56,1.84-1.64,1.24-2.52Z"/>
    <path class="cls-2" d="M328.85,306.77c0,.15-10.59.26-23.64.26s-23.64-.11-23.64-.26,10.58-.26,23.64-.26,23.64.12,23.64.26Z"/>
    <path class="cls-2" d="M328.67,312.21c0,.15-10.58.26-23.64.26s-23.64-.11-23.64-.26,10.59-.26,23.64-.26,23.64.12,23.64.26Z"/>
    <path class="cls-2" d="M303.36,317.65c0,.15-4.88.26-10.89.26s-10.9-.11-10.9-.26,4.88-.26,10.9-.26,10.89.12,10.89.26Z"/>
    <path class="cls-11" d="M377.15,298.84c0,.14-6.94.26-15.5.26s-15.5-.12-15.5-.26,6.94-.26,15.5-.26,15.5.14,15.5.26Z"/>
    <path class="cls-6" d="M259.46,319.33c0,.14-5.73.26-12.79.26s-12.79-.12-12.79-.26,5.72-.26,12.79-.26,12.79.11,12.79.26Z"/>
    <path class="cls-11" d="M273.09,326.38c-.14,0-.26-8.94-.26-20s.12-20,.26-20,.26,8.93.26,20-.12,20-.26,20Z"/>
    <rect class="cls-7" x="224.15" y="332.32" width="164.46" height="40.94"/>
    <path class="cls-5" d="M374.54,366.59h-23.88c-4.09,0-7.41-3.32-7.41-7.41h0c0-4.09,3.32-7.41,7.41-7.42h23.88c4.1,0,7.42,3.32,7.42,7.42h0c0,4.09-3.33,7.41-7.42,7.41Z"/>
    <path class="cls-11" d="M286.64,344.69c.11.99-.6,1.88-1.58,1.99-.1.01-.21.01-.32,0-.35,0-.69-.08-1-.25l.32-.63c.21.13.45.19.69.18.55.03,1.02-.39,1.05-.95,0-.04,0-.09,0-.13-.25.22-.58.34-.92.33-.65.06-1.23-.43-1.29-1.09,0-.02,0-.05,0-.07.02-.71.62-1.27,1.33-1.24.03,0,.05,0,.08,0,1.01,0,1.64.64,1.64,1.85ZM285.64,344.04c0-.31-.26-.57-.57-.57-.03,0-.05,0-.08,0-.31,0-.56.25-.56.56,0,.31.25.56.56.56h0c.31.06.62-.14.68-.46,0-.03,0-.07.01-.1h-.04Z"/>
    <path class="cls-11" d="M287.03,344.24c.08-.28.37-.44.64-.36.17.05.31.18.36.36.08.28-.08.56-.36.64-.28.08-.56-.08-.64-.36-.03-.09-.03-.19,0-.29ZM287.03,346.15c.08-.28.37-.44.64-.36.17.05.31.18.36.36.08.28-.08.56-.36.64-.28.08-.56-.08-.64-.36-.03-.09-.03-.19,0-.29Z"/>
    <path class="cls-11" d="M288.46,344.77c0-1.23.68-1.93,1.6-1.93s1.6.7,1.6,1.93-.68,1.92-1.6,1.92-1.6-.69-1.6-1.92ZM290.79,344.77c0-.85-.3-1.2-.73-1.2s-.73.35-.73,1.2.3,1.2.73,1.2.72-.36.72-1.2h0Z"/>
    <path class="cls-11" d="M292.07,344.77c0-1.23.68-1.93,1.59-1.93s1.6.7,1.6,1.93-.68,1.92-1.6,1.92-1.59-.69-1.59-1.92ZM294.39,344.77c0-.85-.3-1.2-.73-1.2s-.72.35-.72,1.2.3,1.2.72,1.2.73-.36.73-1.2Z"/>
    <path class="cls-11" d="M297.26,344.84h1.51v.67h-1.51v-.67Z"/>
    <path class="cls-11" d="M302.19,342.9v3.73h-.86v-3h-.75v-.7l1.61-.03Z"/>
    <path class="cls-11" d="M305.62,345.93v.7h-2.81v-.56l1.43-1.36c.33-.31.39-.5.39-.68s-.2-.47-.59-.47c-.31,0-.6.13-.78.38l-.62-.41c.34-.47.9-.73,1.48-.69.83,0,1.38.43,1.38,1.1-.01.47-.24.91-.62,1.18l-.86.81h1.6Z"/>
    <path class="cls-11" d="M305.95,344.24c.08-.28.37-.44.64-.36.17.05.31.18.36.36.08.28-.08.56-.36.64-.28.08-.56-.08-.64-.36-.03-.09-.03-.19,0-.29ZM305.95,346.15c.08-.28.37-.44.64-.36.17.05.31.18.36.36-.08.28-.37.44-.64.36-.17-.05-.31-.18-.36-.36Z"/>
    <path class="cls-11" d="M307.38,344.77c0-1.23.68-1.93,1.59-1.93s1.6.7,1.6,1.93-.68,1.92-1.6,1.92-1.59-.69-1.59-1.92ZM309.7,344.77c0-.85-.3-1.2-.73-1.2s-.72.35-.72,1.2.3,1.2.72,1.2.73-.36.73-1.2h0Z"/>
    <path class="cls-11" d="M310.99,344.77c0-1.23.68-1.93,1.6-1.93s1.6.7,1.6,1.93-.68,1.92-1.6,1.92-1.6-.69-1.6-1.92ZM313.32,344.77c0-.85-.3-1.2-.73-1.2s-.73.35-.73,1.2.3,1.2.73,1.2.73-.36.73-1.2Z"/>
    <path class="cls-11" d="M319.58,344.26c0,.83-.62,1.34-1.62,1.34h-.75v1h-.86v-3.73h1.61c1,.03,1.62.55,1.62,1.39ZM318.71,344.26c0-.41-.27-.65-.8-.65h-.7v1.29h.7c.55,0,.8-.24.8-.64Z"/>
    <path class="cls-11" d="M323.58,346.63v-2.23l-1.12,1.84h-.39l-1.09-1.8v2.19h-.81v-3.73h.71l1.4,2.32,1.37-2.32h.71v3.73h-.78Z"/>
    <path class="cls-13" d="M357.46,360.89v1h-3.89v-.77l2-1.87c.46-.44.54-.7.54-.95,0-.41-.28-.64-.83-.64-.42-.02-.81.18-1.06.51l-.87-.56c.47-.63,1.22-.98,2-.95,1.15,0,1.91.59,1.91,1.52-.01.65-.33,1.25-.86,1.63l-1.18,1.11,2.24-.03Z"/>
    <path class="cls-13" d="M357.91,359.29c0-1.7.94-2.66,2.2-2.66s2.21,1,2.21,2.66-.93,2.66-2.21,2.66-2.2-.96-2.2-2.66ZM361.12,359.29c0-1.17-.41-1.65-1-1.65s-1,.48-1,1.65.42,1.66,1,1.66,1-.49,1-1.66Z"/>
    <path class="cls-13" d="M362.9,359.29c0-1.7.94-2.66,2.2-2.66s2.21,1,2.21,2.66-.93,2.66-2.21,2.66-2.2-.96-2.2-2.66ZM366.11,359.29c0-1.17-.41-1.65-1-1.65s-1,.48-1,1.65.42,1.66,1,1.66,1-.49,1-1.66Z"/>
    <path class="cls-13" d="M372.68,360.33l.76.7c-.53.62-1.31.96-2.12.92-1.2.06-2.3-.69-2.67-1.84h-.83v-.62h.72c-.01-.13-.01-.27,0-.4h-.72v-.62h.83c.57-1.48,2.24-2.22,3.72-1.65.4.16.77.4,1.07.72l-.76.71c-.32-.39-.8-.61-1.3-.61-.6-.02-1.17.3-1.46.83h1.86v.62h-2c-.01.13-.01.27,0,.4h2v.62h-1.86c.29.53.86.85,1.46.83.5,0,.98-.22,1.3-.61Z"/>
    <path class="cls-5" d="M263.74,346.89c-1.72-2.23-6.56-1.14-9.92.44,0,0-2.31.94-3.18,1.45h0l-7.6-1.36c-.62-.11-1.25-.03-1.82.22l-.64.29c-.21.1-.3.35-.2.56.04.09.11.16.2.2l5.5,2.7v.07l-5.78,3.38-.09.05c-1.08.61-2.36.8-3.57.52l-3-.69c-.39-.13-.82.09-.94.49-.09.28,0,.6.22.79l3.3,3.06c.51.48,1.26.62,1.91.36l1.66-.66,8.37-3.46-1.19,4.6c-.04.16.06.32.22.36.03,0,.05,0,.08,0h.38c.53,0,1.02-.26,1.31-.7l3.62-6.11,9.88-4.09c1.36-.53,1.88-1.6,1.28-2.48Z"/>
    <path class="cls-2" d="M328.85,353.45c0,.14-10.59.26-23.64.26s-23.64-.12-23.64-.26,10.58-.26,23.64-.26,23.64.12,23.64.26Z"/>
    <path class="cls-2" d="M328.67,358.89c0,.15-10.58.26-23.64.26s-23.64-.11-23.64-.26,10.59-.26,23.64-.26,23.64.12,23.64.26Z"/>
    <path class="cls-2" d="M303.36,364.33c0,.15-4.88.26-10.89.26s-10.9-.11-10.9-.26,4.88-.26,10.9-.26,10.89.12,10.89.26Z"/>
    <path class="cls-11" d="M377.15,345.55c0,.14-6.94.26-15.5.26s-15.5-.12-15.5-.26,6.94-.26,15.5-.26,15.5.11,15.5.26Z"/>
    <path class="cls-5" d="M259.46,366.01c0,.14-5.73.26-12.79.26s-12.79-.12-12.79-.26,5.72-.26,12.79-.26,12.79.09,12.79.26Z"/>
    <path class="cls-11" d="M273.09,373.06c-.14,0-.26-8.94-.26-20s.12-20,.26-20,.26,8.93.26,20-.12,20-.26,20Z"/>
    <path class="cls-11" d="M319.72,31.1c-1.63-2.11-6.21-1.08-9.4.42,0,0-2.18.89-3,1.37h0l-7.2-1.29c-.58-.1-1.18-.03-1.72.22l-.61.27c-.2.1-.28.34-.19.53.04.08.1.15.19.19l5.22,2.56v.06c-2.93,1.72-5.45,3.18-5.45,3.18h-.08c-1.03.58-2.24.76-3.39.49l-2.79-.65c-.14-.04-.29-.04-.43,0-.37.14-.57.55-.43.92.04.11.1.2.18.28l3.12,2.9c.49.45,1.2.59,1.82.34l1.57-.62,7.93-3.28-1.12,4.36c-.04.15.05.3.2.34.02,0,.05,0,.07,0h.37c.5,0,.97-.25,1.24-.67l3.43-5.79,9.35-3.86c1.2-.42,1.69-1.44,1.12-2.28Z"/>
    <path class="cls-11" d="M285.04,48.05v2.27h4v1.6h-4v3.13h-2v-8.59h6.49v1.59h-4.49Z"/>
    <path class="cls-11" d="M290.9,46.46h2v7h4.31v1.62h-6.29l-.02-8.62Z"/>
    <path class="cls-11" d="M298.31,46.46h2v8.59h-2v-8.59Z"/>
    <path class="cls-11" d="M308.13,50.62h1.82v3.48c-1.02.72-2.24,1.1-3.49,1.09-2.45.16-4.57-1.69-4.74-4.14-.16-2.45,1.69-4.57,4.14-4.74.2-.01.4-.01.6,0,1.36-.06,2.68.48,3.6,1.49l-1.28,1.17c-.56-.64-1.37-1.01-2.22-1-1.52,0-2.75,1.23-2.75,2.75s1.23,2.75,2.75,2.75c.54.01,1.07-.12,1.54-.37l.03-2.48Z"/>
    <path class="cls-11" d="M319.66,46.46v8.59h-2v-3.53h-3.91v3.53h-2v-8.59h2v3.38h3.91v-3.38h2Z"/>
    <path class="cls-11" d="M323.46,48.08h-2.75v-1.62h7.48v1.62h-2.73v7h-2v-7Z"/>
    <path class="cls-11" d="M292.94,61.74c0,.8-.59,1.26-1.77,1.26h-2.16v-4.7h2c1.05,0,1.65.44,1.65,1.2.02.48-.27.91-.72,1.07.59.06,1.03.58,1,1.17ZM289.51,58.74v1.7h1.5c.75,0,1.18-.29,1.18-.85s-.43-.85-1.18-.85h-1.5ZM292.44,61.74c0-.61-.45-.88-1.27-.88h-1.66v1.77h1.66c.82-.04,1.29-.31,1.29-.93l-.02.04Z"/>
    <path class="cls-11" d="M293.66,60.65c-.04-1.36,1.03-2.5,2.39-2.55s2.5,1.03,2.55,2.39c.04,1.36-1.03,2.5-2.39,2.55-.03,0-.05,0-.08,0-1.31.06-2.41-.96-2.47-2.27,0-.04,0-.08,0-.12ZM298.1,60.65c.03-1.1-.84-2.03-1.94-2.06-1.1-.03-2.03.84-2.06,1.94s.84,2.03,1.94,2.06c.02,0,.04,0,.06,0,1.05.06,1.94-.75,2-1.8,0-.05,0-.1,0-.14Z"/>
    <path class="cls-11" d="M299.3,60.65c-.04-1.36,1.03-2.5,2.39-2.55s2.5,1.03,2.55,2.39c.04,1.36-1.03,2.5-2.39,2.55-.03,0-.05,0-.08,0-1.31.06-2.41-.96-2.47-2.27,0-.04,0-.08,0-.12ZM303.74,60.65c.03-1.1-.84-2.03-1.94-2.06-1.1-.03-2.03.84-2.06,1.94s.84,2.03,1.94,2.06c.02,0,.04,0,.06,0,1.05.06,1.94-.75,2-1.8,0-.05,0-.1,0-.14Z"/>
    <path class="cls-11" d="M306.81,60.84l-1,1v1.24h-.49v-4.7h.49v2.84l2.76-2.84h.57l-2,2.12,2.17,2.58h-.59l-1.91-2.24Z"/>
    <path class="cls-11" d="M310.13,58.3h.5v4.7h-.5v-4.7Z"/>
    <path class="cls-11" d="M316.09,58.3v4.7h-.41l-3-3.82v3.82h-.5v-4.7h.41l3,3.81v-3.81h.5Z"/>
    <path class="cls-11" d="M320.94,60.65h.52v1.79c-.48.4-1.09.61-1.72.6-1.32.09-2.46-.92-2.55-2.24s.92-2.46,2.24-2.55c.1,0,.21,0,.31,0,.65-.03,1.29.21,1.75.68l-.31.32c-.37-.37-.88-.57-1.41-.55-1.07-.08-2.01.73-2.08,1.81-.08,1.07.73,2.01,1.81,2.08.09,0,.19,0,.28,0,.44.01.87-.11,1.23-.36l-.06-1.58Z"/>
    <path class="cls-2" d="M393.56,73.05c0,.14-39.32.26-87.81.26s-87.81-.12-87.81-.26,39.31-.26,87.81-.26,87.81.11,87.81.26Z"/>
    <path class="cls-7" d="M297.06,106.46h-64.66c-3.48,0-6.3-2.82-6.3-6.3h0c0-3.48,2.82-6.3,6.3-6.3h64.66c3.48,0,6.3,2.82,6.3,6.3h0c0,3.48-2.82,6.3-6.3,6.3Z"/>
    <path class="cls-7" d="M297.06,146.41h-64.66c-3.48,0-6.3-2.82-6.3-6.3h0c0-3.48,2.82-6.3,6.3-6.3h64.66c3.48,0,6.3,2.82,6.3,6.3h0c0,3.48-2.82,6.3-6.3,6.3Z"/>
    <path class="cls-7" d="M378.76,106.46h-59.3c-3.48,0-6.3-2.82-6.31-6.3h0c0-3.48,2.82-6.31,6.3-6.32,0,0,0,0,.01,0h59.3c3.48,0,6.3,2.82,6.3,6.3h0c.01,3.48-2.8,6.31-6.28,6.32,0,0-.01,0-.02,0Z"/>
    <path class="cls-7" d="M378.76,147.45h-59.3c-3.48,0-6.3-2.83-6.31-6.31h0c0-3.48,2.83-6.3,6.31-6.3h59.3c3.48,0,6.3,2.82,6.3,6.3h0c0,3.48-2.82,6.3-6.3,6.31Z"/>
  </g>
  <g id="freepik--Plant--inject-12">
    <g id="freepik--plant--inject-12">
      <path class="cls-10" d="M416.87,389.17c-4.31-5.08-4.88-13.25-4.25-19.88s2.17-13.32,1.13-19.9c-.62-3.9-2.14-7.62-2.65-11.54s.22-8.34,3.25-10.87c3.49-2.91,9-2.22,12.61.51s5.73,7,7.26,11.28c3.38,9.39,4.62,19.79,1.84,29.37s-9.27,18.14-18.82,21"/>
      <path class="cls-6" d="M439.76,400.73c.59-2.53,2.26-4.66,4.57-5.84,2.44-1.05,5.27-.45,7.76.46s4.95,2.12,7.61,2.28,5.64-1.09,6.44-3.63c.74-2.38-.69-4.93-2.49-6.66-6.25-6.02-16.2-5.84-22.23.42-1.58,1.64-2.79,3.61-3.53,5.76"/>
      <path class="cls-10" d="M439.76,400.73c.59-2.53,2.26-4.66,4.57-5.84,2.44-1.05,5.27-.45,7.76.46s4.95,2.12,7.61,2.28,5.64-1.09,6.44-3.63c.74-2.38-.69-4.93-2.49-6.66-6.25-6.02-16.2-5.84-22.23.42-1.58,1.64-2.79,3.61-3.53,5.76"/>
      <path class="cls-10" d="M418.74,411.39c-3.89-3.7-3.7-10.14-1.76-15.14s6.18-8.85,10.92-11.38c9.36-4.92,20.45-5.29,30.11-1-4.74.22-9.06,2.77-11.55,6.81-2.13,3.54-2.6,7.84-4.37,11.58-4.12,8.76-14.37,12.77-23.34,9.13"/>
      <path class="cls-11" d="M414.8,430.9c-.02-.19-.02-.39,0-.58v-1.68c.05-1.46.19-3.57.51-6.17.38-3.03.93-6.03,1.64-9,.9-3.66,2.28-7.18,4.12-10.46,3.37-5.97,8.1-11.07,13.81-14.86,1.08-.74,2.12-1.3,3-1.83s1.72-.87,2.38-1.18l1.56-.65c.18-.08.36-.14.55-.19-.16.11-.33.21-.51.28l-1.52.72c-.64.34-1.43.76-2.33,1.26s-1.91,1.12-3,1.87c-5.58,3.84-10.21,8.9-13.55,14.79-3.95,6.91-5,14.19-5.84,19.3-.36,2.57-.55,4.67-.65,6.13,0,.68-.08,1.24-.11,1.67,0,.2-.02.39-.06.58Z"/>
      <path class="cls-6" d="M377.35,375.08c-8,4.82-7.94,9.19-6.61,13.33s6.22,7,10.28,5.45c2.29-.87,3.95-2.87,5.37-4.87s2.75-4.15,4.74-5.58,4.87-2,6.87-.57"/>
      <path class="cls-10" d="M377.35,375.08c-8,4.82-7.94,9.19-6.61,13.33s6.22,7,10.28,5.45c2.29-.87,3.95-2.87,5.37-4.87s2.75-4.15,4.74-5.58,4.87-2,6.87-.57"/>
      <path class="cls-10" d="M371.39,380.36c2.08-2.88,7.23-3.72,10.48-2.28s5.64,4.29,7.77,7.13,4.2,5.85,7.16,7.83,7.08,2.7,10,.71c1.9-1.42,3.12-3.55,3.4-5.9.26-2.33.11-4.68-.46-6.95-.71-3.34-1.86-6.84-4.53-9-3-2.37-7.12-2.48-10.93-2.36-4.36.15-8.8.48-12.89,2s-8.28,4.78-10,8.79"/>
      <path class="cls-11" d="M407.89,430.5c-.03-.23-.05-.46-.06-.69,0-.5,0-1.16-.08-2-.05-1.77-.13-4.24-.23-7.28s-.23-6.73-.45-10.78-.53-8.51-1.15-13.15c-.26-2.26-.7-4.49-1.32-6.67-.63-2.02-1.44-3.97-2.43-5.84-1.65-3.18-3.82-6.07-6.43-8.53-1.77-1.64-3.78-3.01-5.95-4.07-.58-.3-1.19-.56-1.8-.79-.22-.08-.43-.17-.64-.28.23.04.45.1.67.19.63.19,1.25.43,1.85.71,2.23,1.01,4.28,2.36,6.1,4,2.68,2.45,4.91,5.35,6.59,8.57,1.01,1.89,1.84,3.86,2.49,5.9.63,2.21,1.08,4.47,1.34,6.75.62,4.66.91,9.13,1.12,13.19s.29,7.72.35,10.79.08,5.57.08,7.28v2c0,.23,0,.47-.05.7Z"/>
      <path class="cls-11" d="M411.46,430.5c-.03-.07-.06-.15-.08-.23-.06-.17-.12-.39-.21-.67-.25-.86-.46-1.73-.62-2.61-.57-3.26-.78-6.57-.62-9.87.2-4.9,1-9.76,2.39-14.47,1.6-5.29,3.88-10.92,5.88-16.95,1.94-5.65,3.19-11.5,3.73-17.45.41-4.86.52-9.74.33-14.61-.13-4.17-.34-7.54-.47-9.86-.07-1.14-.11-2-.15-2.68v-.7c-.01-.08-.01-.16,0-.24,0,.08,0,.15,0,.23,0,.19,0,.42.08.7.05.65.13,1.54.23,2.67.19,2.33.45,5.69.63,9.87.24,4.89.16,9.78-.24,14.66-.51,5.98-1.75,11.88-3.7,17.56-2,6.05-4.3,11.67-5.92,16.93-1.4,4.67-2.23,9.48-2.47,14.35-.19,3.28-.04,6.57.46,9.82.2,1.15.38,2,.53,2.63.07.28.12.5.16.68.04.08.06.16.06.24Z"/>
    </g>
  </g>
  <g id="freepik--Suitcase--inject-12">
    <path class="cls-11" d="M117.22,305.84h-31c-1.9,0-3.44-1.54-3.44-3.44h0c0-1.9,1.53-3.44,3.43-3.45h31.01c1.9,0,3.44,1.54,3.44,3.44,0,0,0,0,0,.01h0c0,1.9-1.54,3.44-3.44,3.44h0Z"/>
    <rect class="cls-6" x="59.31" y="304.01" width="71.86" height="114.5" rx="8.96" ry="8.96"/>
    <rect class="cls-10" x="59.31" y="304.01" width="71.86" height="114.5" rx="8.96" ry="8.96"/>
    <rect class="cls-10" x="76.37" y="304.01" width="71.86" height="114.5" rx="8.96" ry="8.96"/>
    <path class="cls-11" d="M147.62,399.37c0,.14-16,.26-35.76.26s-35.77-.12-35.77-.26,16-.26,35.77-.26,35.76.12,35.76.26Z"/>
    <path class="cls-11" d="M147.62,383.59c0,.14-16,.26-35.76.26s-35.77-.12-35.77-.26,16-.26,35.77-.26,35.76.12,35.76.26Z"/>
    <path class="cls-11" d="M147.62,367.84c0,.14-16,.26-35.76.26s-35.77-.12-35.77-.26,16-.26,35.77-.26,35.76.08,35.76.26Z"/>
    <path class="cls-11" d="M147.62,352.03c0,.14-16,.26-35.76.26s-35.77-.12-35.77-.26,16-.26,35.77-.26,35.76.07,35.76.26Z"/>
    <path class="cls-11" d="M147.62,336.24c0,.15-16,.26-35.76.26s-35.77-.11-35.77-.26,16-.26,35.77-.26,35.76.12,35.76.26Z"/>
    <path class="cls-11" d="M147.62,320.46c0,.15-16,.26-35.76.26s-35.77-.11-35.77-.26,16-.26,35.77-.26,35.76.12,35.76.26Z"/>
    <path class="cls-11" d="M136.31,424.71c0,3.42-2.78,6.2-6.2,6.2s-6.2-2.78-6.2-6.2c0-3.42,2.78-6.2,6.2-6.2,3.42,0,6.19,2.76,6.2,6.18,0,0,0,.01,0,.02Z"/>
    <path class="cls-5" d="M140.63,424.71c0,3.42-2.78,6.2-6.2,6.2s-6.2-2.78-6.2-6.2c0-3.42,2.78-6.2,6.2-6.2s6.2,2.78,6.2,6.2h0Z"/>
    <path class="cls-11" d="M87,424.71c0,3.42-2.78,6.2-6.2,6.2s-6.2-2.78-6.2-6.2,2.78-6.2,6.2-6.2c3.42,0,6.19,2.76,6.2,6.18,0,0,0,.01,0,.02Z"/>
    <path class="cls-5" d="M91.32,424.71c0,3.42-2.78,6.2-6.2,6.2s-6.2-2.78-6.2-6.2,2.78-6.2,6.2-6.2,6.2,2.78,6.2,6.2h0Z"/>
    <rect class="cls-11" x="63.53" y="336.24" width="7.69" height="40.9" rx="3.84" ry="3.84"/>
    <path class="cls-11" d="M68.86,417.48c-.09-.05-.18-.11-.25-.18l-.69-.57c-.84-.8-1.55-1.72-2.13-2.72-1.57-2.61-2.5-7-2.47-12.36.18-10.71.6-25.48,1-41.8s.9-31.07,1.21-41.8c-.02-2.42.19-4.83.64-7.21.37-1.81,1.21-3.49,2.44-4.87.78-.87,1.76-1.54,2.85-1.94.38-.14.78-.23,1.18-.26,0,0-.41.08-1.14.36-1.06.44-2,1.12-2.74,2-1.18,1.37-1.97,3.03-2.31,4.8-.41,2.36-.59,4.75-.55,7.15-.27,10.73-.64,25.49-1.06,41.8s-.88,31.06-1.18,41.79c-.08,5.33.79,9.67,2.28,12.26.76,1.34,1.75,2.54,2.92,3.55Z"/>
  </g>
  <g id="freepik--Character--inject-12">
    <path class="cls-8" d="M192.01,227.47l-13.66,8.85-1.24,13.8s4,1.87,9.91-3.49,13.57-16.22,13.57-16.22l-8.58-2.94Z"/>
    <polygon class="cls-8" points="191.4 233.13 186.93 210.45 174.99 215.17 178.04 245.05 191.4 233.13"/>
    <path class="cls-11" d="M223.74,204.42c-.18-.48-.59-.84-1.1-.94l-8.58-1.64c-.76-.14-1.53.06-2.14.53l-25.9,20.38,1.06,1.18,9.16,2.79,27.65-21.88-.15-.42Z"/>
    <path class="cls-13" d="M216.78,205.84c.08.33.42.54.75.45.33-.08.54-.42.45-.75s-.42-.54-.75-.45c-.05.01-.11.03-.15.06-.27.11-.4.42-.3.69Z"/>
    <path class="cls-5" d="M223.89,204.84c-.57-.04-1.13-.11-1.69-.23l-4.57-.8-3.16-.58c-.53-.13-1.09-.02-1.52.31l-1.49,1.17-6.62,5.22c-4.71,3.7-9,7-12.1,9.4l-3.7,2.81c-.44.37-.91.7-1.4,1,.39-.41.81-.79,1.27-1.13l3.6-2.94c3.06-2.45,7.3-5.82,12-9.52l6.65-5.19,1.5-1.16c.54-.4,1.22-.54,1.87-.38l3.14.65,4.55,1c.57.07,1.13.2,1.67.37Z"/>
    <path class="cls-8" d="M211.62,211.09s-.68-.38-1.76,1.48-4.32,7.16-4.32,7.16l-3.08-3.33-5-1s-1.38.61-.79,1.4c1.05.91,2.2,1.7,3.43,2.35l1.15,4-5.41-5.31s-2.33-.17-2.15,1.35,3.12,7.07,3.12,7.07l-3.13-1.34-3-3.61s-1.19-.34-1.1.8,2.85,6.1,2.85,6.1l4,4s2.69.68,3.21,0c.38-.56.69-1.15.95-1.77,0,0,1.52.1,2-.49.35-.52.58-1.1.69-1.71,0,0,2.06,1.13,2.74,0,.71-1.46,1.18-3.02,1.38-4.63.09-1,4.21-9.34,4.21-9.64s1.58-2.99,0-2.88Z"/>
    <path class="cls-4" d="M199.8,232.25c-.46.11-.93.11-1.39,0-1.11-.21-2.17-.62-3.12-1.22-.96-.6-1.79-1.38-2.45-2.29-.31-.35-.53-.77-.64-1.23.99,1.16,2.12,2.2,3.37,3.08,1.34.72,2.76,1.28,4.23,1.66Z"/>
    <path class="cls-4" d="M199.25,230.13c-.11.09-.81-.65-1.47-1.71s-1-2-.88-2.07.68.77,1.32,1.8,1.15,1.89,1.03,1.98Z"/>
    <path class="cls-4" d="M203.19,226.84c-.11.09-.81-.64-1.39-1.72-.43-.62-.67-1.35-.69-2.1.14-.05.58.81,1.14,1.85s1.06,1.88.94,1.97Z"/>
    <path class="cls-4" d="M206.99,224.4c-.32-.74-.58-1.51-.76-2.3-.32-.73-.58-1.49-.77-2.26,1.19,1.21,1.76,2.9,1.56,4.58l-.03-.02Z"/>
    <path class="cls-11" d="M146.56,120.21c1.7-6.76,8.57-10.87,15.33-9.17,3.48.87,6.42,3.19,8.09,6.36,2.23,4.22,2.19,9.84,5.9,12.86,2.54,2.07,6.23,2.3,8.71,4.44,5.25,4.54,2.21,14.61,7.78,18.75-3.49,2.84-7.6,4.82-12,5.78-.31-1.52-1.06-2.91-2.16-4,.94,2.55-.47,5.49-2.64,7.13s-4.93,2.24-7.6,2.71c-6.44,1.16-13.11,1.8-19.5.4s-12.52-5.15-15.53-11c-.77-1.47-1.36-3.1-2.59-4.21s-3.19-1.6-4.84-2.33c-4.6-2.14-7.46-6.84-7.25-11.91,4.23-.27,7.14-4.35,8.84-8.23s3.09-8.27,6.57-10.69c4.22-2.93,10.01-1.89,12.94,2.33.43.62.79,1.29,1.06,2"/>
    <path class="cls-8" d="M136.57,129.5l-.18-3.56,21.26-4.73c6.57-.9,13.91,5.49,14.53,12.09.69,7.34,1.25,16.33.55,21.84-1.41,11.09-9.82,12.75-9.82,12.75l.29,13.49-24.36-.87-2.27-51.01Z"/>
    <path class="cls-11" d="M169.25,141.49c.03.77-.55,1.42-1.32,1.47-.74.09-1.41-.45-1.5-1.19,0-.01,0-.03,0-.04-.03-.77.55-1.42,1.32-1.47.74-.09,1.41.45,1.5,1.19,0,.01,0,.03,0,.04Z"/>
    <path class="cls-11" d="M169.99,138.06c-.17.19-1.26-.57-2.78-.52s-2.62.85-2.79.67.08-.42.56-.79c.64-.48,1.42-.75,2.22-.76.79-.03,1.57.19,2.23.64.48.35.65.68.56.76Z"/>
    <path class="cls-11" d="M155.07,142.14c.03.77-.55,1.42-1.32,1.47-.74.09-1.41-.45-1.5-1.19,0-.01,0-.03,0-.04-.02-.76.56-1.41,1.32-1.47.75-.08,1.42.46,1.5,1.21,0,0,0,.02,0,.02Z"/>
    <path class="cls-11" d="M155.04,138.84c-.17.19-1.27-.57-2.79-.52s-2.61.85-2.79.67.09-.42.56-.79c.65-.48,1.43-.75,2.23-.76.79-.03,1.57.19,2.22.64.48.32.65.64.57.76Z"/>
    <path class="cls-11" d="M160.91,149.93c.79-.28,1.62-.45,2.46-.52.39-.06.76-.15.81-.41.03-.4-.08-.81-.29-1.15-.4-.93-.81-1.9-1.24-2.92-1.73-4.17-3-7.6-2.83-7.66s1.71,3.25,3.44,7.41c.41,1,.81,2,1.19,2.95.26.46.35,1,.25,1.52-.11.28-.34.49-.62.58-.21.07-.44.11-.66.12-.83.13-1.67.16-2.51.08Z"/>
    <path class="cls-4" d="M162.9,167.92c-5.31.25-10.59-.96-15.27-3.49,0,0,4,7.61,15.35,6.24l-.08-2.75Z"/>
    <path class="cls-4" d="M160.38,153.62c-.61-.73-1.55-1.09-2.49-.95-.68.09-1.29.45-1.7,1-.4.53-.42,1.25-.06,1.81.51.54,1.3.72,2,.45.71-.28,1.36-.69,1.91-1.22.17-.13.31-.29.42-.47.12-.17.12-.4,0-.57"/>
    <path class="cls-11" d="M156.46,151.12c.24,0,.3,1.63,1.75,2.76s3.2.89,3.22,1.12-.38.34-1.12.38c-.97.05-1.92-.25-2.69-.85-.74-.56-1.23-1.39-1.36-2.31-.08-.69.09-1.11.2-1.1Z"/>
    <path class="cls-11" d="M155.25,134.5c-.14.42-1.67.27-3.45.54s-3.21.8-3.45.44c-.12-.18.12-.57.69-1,.76-.53,1.63-.88,2.55-1,.91-.14,1.84-.06,2.71.23.66.28,1,.59.95.79Z"/>
    <path class="cls-11" d="M169.79,132.84c-.26.35-1.32,0-2.58.05s-2.32.31-2.58-.05c-.11-.17,0-.52.5-.86,1.25-.85,2.9-.85,4.15,0,.46.34.62.69.51.86Z"/>
    <path class="cls-11" d="M157.32,121.68c-.32,4.75-3.48,8.84-8,10.35-1.76.56-4,1-4.55,2.73s1.1,3.5,1.91,5.24c.97,2.21.52,4.79-1.14,6.54-.93,1-2.18,1.58-3.06,2.58-1.15,1.39-1.61,3.23-1.23,5,.38,1.75,1.3,3.33,2.63,4.52-4.17.24-8.75-1.88-10.11-5.83-.81-2.36-.39-4.93-.06-7.4.75-5.63.98-11.32.69-17-.15-.95,0-1.93.45-2.79.63-.72,1.47-1.22,2.41-1.41,5.9-1.83,11.91-3.27,18-4.31"/>
    <path class="cls-11" d="M154.85,120.08c1.05,2.17,2.43,4.16,4.1,5.91,1.71,1.76,4.14,2.62,6.57,2.33-.43-.72-.86-1.44-1.28-2.16,3.36,3.47,7.41,6.19,11.89,8-2.2-4.14-4.48-8.38-8-11.48s-8.62-4.86-13-3.21"/>
    <polygon class="cls-8" points="164.56 177.02 137.38 174.93 141.94 189.33 165.2 197.08 168.29 191.86 164.56 177.02"/>
    <path class="cls-5" d="M112.96,200.4c-12.12-3.91-25.12,2.75-29.02,14.87-.48,1.49-.81,3.02-.98,4.58-.72,6.6,1.42,13.32.29,19.86-.83,4.82-3.38,9.17-4.51,13.93-2.44,10.25,2.44,21.56,11,27.66s20.27,7.11,30.19,3.57l10.2-16-6.76-61.48-10.43-7"/>
    <path class="cls-10" d="M129.25,243.94s-2.33,12.49-.93,14.38c.92,1.16,2.25,1.92,3.71,2.12l45.08-3.49,1.5-24.81s4.54-17,2.45-24.21-11.06-29.28-11.06-29.28l-6.91-2.07s0,7.21-2.54,7.67-14.83.54-20.85-7.23l-2.32-2.09-12.86,9.37,5.94,50.81-1.21,8.83Z"/>
    <path class="cls-5" d="M108.92,199.51s8.4-12.61,11.76-16.17c5.29-5.6,12.76-7.88,14.55-6.84,2.46,1.42,14.73,14.19,15.71,22.81s0,30,0,30l-10.37,3.13-.11-10.33-1.72-25.41s-4.25-12-14.21-12.4c0,0-10.41,8.75-10.78,17.17l-4.83-1.96Z"/>
    <path class="cls-5" d="M133.09,247.1l-20.79,19,5.49,7.33s25.29-16.12,27.93-32.19l-12.63,5.86Z"/>
    <path class="cls-11" d="M106.79,286.9c-1.07-.59-2.07-1.28-3-2.07-2.56-2.14-4.67-4.77-6.18-7.75-1.05-2.05-1.85-4.22-2.37-6.46-.55-2.58-.83-5.22-.84-7.86-.1-5.57.81-11.64,1.88-17.94,1.16-5.88,1.86-11.85,2.1-17.84.04-2.61-.15-5.22-.55-7.8-.4-2.42-.91-4.67-1.16-6.76-.28-1.88-.28-3.8,0-5.68.21-1.42.67-2.8,1.36-4.06.43-.8,1-1.52,1.67-2.14.23-.22.47-.41.74-.58-.9.8-1.66,1.75-2.23,2.81-.64,1.25-1.07,2.61-1.26,4-.23,1.85-.2,3.73.09,5.58.28,2.07.8,4.3,1.22,6.74.43,2.6.64,5.23.61,7.87-.2,6.02-.89,12.02-2.06,17.93-1.17,5.88-1.81,11.85-1.92,17.85,0,2.61.26,5.21.78,7.76.5,2.22,1.26,4.37,2.28,6.4,1.47,2.95,3.51,5.59,6,7.76.43.39.85.71,1.2,1s.66.51.91.68l.57.41c.06.05.11.1.16.15Z"/>
    <path class="cls-11" d="M97.12,239.04c-2.39.26-4.79.35-7.19.26-2.4.09-4.8,0-7.18-.26,2.38-.26,4.78-.34,7.18-.26,2.4-.08,4.8,0,7.19.26Z"/>
    <path class="cls-3" d="M170,178.65s8.1,3.63,10.88,8.21,10.32,30.83,10.32,30.83l-10.6,2.09-10.6-41.13Z"/>
    <path class="cls-5" d="M175.87,216.52s-2.44-24-3.46-25.54-2.67-13.24-7.85-14c0,0,5.46,1.26,8.61,3.28s6.57,12.92,6.57,12.92l2,19-5.87,4.34Z"/>
    <path class="cls-11" d="M111.26,195.51c-.41-.58-.91-1.09-1.49-1.51-.65-.4-1.39-.63-2.15-.66-.94-.02-1.86.21-2.67.68-1.47.9-2.62,2.25-3.28,3.85-.55,1.23-.76,2.05-.84,2,.02-.75.19-1.49.5-2.17.6-1.74,1.79-3.22,3.37-4.17.89-.51,1.91-.76,2.94-.7.84.06,1.64.35,2.33.83.67.41,1.14,1.08,1.29,1.85Z"/>
    <path class="cls-11" d="M138.73,196.7c-.24-.44-.45-.89-.64-1.35l-.33-.74c-.14-.27-.29-.55-.46-.85s-.35-.63-.53-1l-.7-1c-1.18-1.72-2.66-3.21-4.36-4.42-2.13-1.52-4.6-2.47-7.2-2.78h0c-1.94-.06-3.84.52-5.42,1.65h.06c-.07.07-.13.15-.2.23-3.99,4.69-7.57,9.71-10.72,15-1.2,2-2.13,3.71-2.76,4.87l-.72,1.34c-.08.17-.17.32-.29.46.04-.17.11-.34.19-.5.14-.32.35-.8.64-1.39.58-1.2,1.45-2.91,2.63-5,3.06-5.38,6.63-10.46,10.64-15.17l.19-.23h0c.88-.56,1.82-1.01,2.8-1.36.96-.35,1.99-.47,3-.36h0c2.69.32,5.25,1.33,7.43,2.93,1.73,1.25,3.22,2.8,4.38,4.59l.68,1.07c.18.35.34.69.5,1l.44.87.29.76c.19.45.34.91.46,1.38Z"/>
    <path class="cls-11" d="M129.97,256.32c-.72.69-1.52,1.3-2.38,1.82-4.05,2.65-8.55,4.56-13.27,5.64-.98.27-1.99.42-3,.45.94-.33,1.9-.6,2.87-.81,4.63-1.25,9.07-3.13,13.2-5.58.83-.56,1.69-1.07,2.58-1.52Z"/>
    <polygon class="cls-8" points="249.78 361.17 243.45 422.59 224.12 422.33 222.73 357.42 249.78 361.17"/>
    <path class="cls-5" d="M244.01,416.74v1.29s21.77,8.81,22,12.94l-43.27-.33.7-14.4c6.46,3.14,13.97,3.33,20.57.5Z"/>
    <g class="cls-14">
      <path class="cls-13" d="M227.78,420.84c-.86.26-1.39,1.12-1.24,2,.23.88,1.11,1.43,2,1.24.91-.27,1.47-1.19,1.3-2.13-.33-.89-1.3-1.36-2.2-1.07"/>
    </g>
    <g class="cls-14">
      <path class="cls-13" d="M222.73,430.64l.17-3.47,41.41,1.59s1.92.86,1.69,2.21l-43.27-.33Z"/>
    </g>
    <path class="cls-11" d="M244.16,418.15c0,.21-1.06.3-2.11,1s-1.6,1.55-1.8,1.47.13-1.31,1.41-2.1c1.28-.79,2.55-.57,2.5-.37Z"/>
    <path class="cls-11" d="M248.69,420.06c0,.21-.87.56-1.6,1.45s-.94,1.83-1.15,1.82-.33-1.21.59-2.3,2.16-1.19,2.16-.97Z"/>
    <path class="cls-11" d="M251.22,425.51c-.19.05-.47-1,.08-2.16s1.54-1.61,1.63-1.43-.53.79-1,1.74-.47,1.83-.71,1.85Z"/>
    <polygon class="cls-8" points="255.49 376.61 284.89 410.09 271.08 423.62 236.2 393.15 255.49 376.61"/>
    <path class="cls-5" d="M281.13,405.57l.92.91s21.59-9.24,24.68-6.49l-30.73,30.47-9.72-10.62c6.67-2.43,11.68-6.93,14.85-14.27Z"/>
    <g class="cls-14">
      <path class="cls-13" d="M272.63,420.01c-.42.79-.19,1.78.55,2.29.78.46,1.78.23,2.28-.53.45-.84.19-1.89-.6-2.42-.86-.4-1.88-.04-2.3.81"/>
    </g>
    <g class="cls-14">
      <path class="cls-13" d="M276,430.46l-2.34-2.56,30.31-28.26s2-.76,2.76.35l-30.73,30.47Z"/>
    </g>
    <path class="cls-11" d="M282.24,406.46c.14.15-.54,1-.8,2.18s0,2.23-.22,2.31-.84-1-.5-2.48,1.42-2.18,1.52-2.01Z"/>
    <path class="cls-11" d="M286.78,404.59c.18.11-.21,1-.09,2.15s.63,2,.48,2.1-1.1-.61-1.22-2,.69-2.39.83-2.25Z"/>
    <path class="cls-11" d="M292.46,406.64c-.11.16-1.06-.38-1.49-1.58s-.05-2.23.14-2.17.19.93.56,1.92.9,1.66.79,1.83Z"/>
    <path class="cls-3" d="M130.29,184.99c-2.19-1.75-5.34-1.59-7.33.39-3.68,3.68-9,9.86-9.18,14.87-.25,7.67-1.48,28-1.48,28l28.2-1s0-27-2.47-33.15c-1.4-3.53-4.93-6.87-7.74-9.11Z"/>
    <path class="cls-8" d="M115.55,228.21s-1.61,15.51.18,22.63c1.85,7.37,5.5,7.26,8.57,7.48s51.54-25.19,51.54-25.19l-5.38-9.55-36.49,11,.33-7.13-18.75.76Z"/>
    <path class="cls-8" d="M170.16,223.84l8.75-10.95,7.9-1.83,9.62,1.06c.18.91-.3,1.83-1.15,2.21l3.37.19c.37,1-.15,2.11-1.15,2.48-.03.01-.07.02-.1.03l2.4.42c-.64,1.45-2.19,2.27-3.75,2-2.36-.32-4.75-.48-7.13-.48l-4.71,2.6,7-.29,5.11,1s.67,1.3-.48,1.61c-1.86.16-3.73.16-5.59,0l-6.74,1.76s-1.44,4.33-2.31,5.29-5.68,2.21-5.68,2.21l-5.36-9.31Z"/>
    <path class="cls-4" d="M198.65,214.55c-.87.06-1.75.03-2.62-.09-1.61-.13-3.83-.34-6.28-.6l-2.35-.27h.1c-1.83.51-3.41.94-4.54,1.22-.59.19-1.21.32-1.83.36.55-.29,1.14-.51,1.74-.67,1.11-.36,2.67-.85,4.49-1.4h.1l2.36.25c2.44.26,4.66.53,6.26.75.87.07,1.73.22,2.57.45Z"/>
    <path class="cls-4" d="M199.23,217.38c-.79.03-1.59-.02-2.37-.16-1.46-.17-3.47-.43-5.68-.76l-2.2-.33h.13c-1.8.8-3.65,1.47-5.54,2,1.72-.94,3.51-1.75,5.35-2.42h.13l2.21.31c2.21.32,4.21.64,5.65.9.79.07,1.57.22,2.32.46Z"/>
    <path class="cls-4" d="M175.54,233.13c.25-.1.51-.19.77-.26.51-.16,1.27-.39,2.23-.74.47-.18,1-.38,1.57-.65.29-.13.57-.28.82-.47.26-.22.46-.49.6-.8.72-1.5,1.34-3.05,1.84-4.64v-.08h.09l6.73-1.79h.07c1.14.07,2.36.12,3.62.12.63.01,1.25-.03,1.87-.13.25-.04.45-.22.51-.47.03-.29-.02-.58-.16-.83l.16.12-5.1-.95h.05l-7,.3h-1.08l.95-.52,4.71-2.6h.12c1.79,0,3.66.08,5.57.27.53.06,1.05.12,1.57.21.47.1.96.1,1.43,0,.91-.28,1.67-.93,2.08-1.79l.19.35-2.41-.42-.88-.16.83-.33c.43-.16.78-.47,1-.87.2-.41.22-.87.07-1.3l.22.16-3.37-.2-.92-.05.83-.42c.37-.18.67-.46.87-.81.18-.34.24-.74.16-1.12l.21.18-9.63-1.09h.08l-7.91,1.79.1-.06-6.47,8-1.77,2.14-.47.55c-.11.12-.17.18-.18.17l.14-.21.43-.58,1.78-2.31c1.53-1.93,3.68-4.68,6.35-8.08h.06l7.89-1.92h.07l9.63,1h.17v.17c.11.5.05,1.02-.19,1.47-.25.44-.63.79-1.09,1l-.1-.47,3.37.19h.17v.15c.2.56.18,1.18-.08,1.72-.29.52-.75.92-1.31,1.12l.06-.35,2.41.43.33.05-.14.3c-.47,1.01-1.35,1.78-2.42,2.09-.54.11-1.11.11-1.65,0-.5-.08-1-.15-1.53-.2-1.88-.19-3.75-.25-5.52-.27h.13l-4.74,2.6-.13-.47,7-.28h.06l5.1,1h.12v.1c.18.35.25.74.2,1.13-.1.42-.43.73-.85.81-.66.12-1.33.16-2,.14-1.28,0-2.49-.08-3.65-.16h.06l-6.66,1.73.11-.11c-.52,1.6-1.16,3.16-1.93,4.66-.16.34-.39.63-.68.87-.28.19-.57.35-.88.48-.52.23-1.06.43-1.6.61-1,.32-1.74.53-2.26.66l-.59.14c-.14-.02-.2-.01-.21-.02Z"/>
    <path class="cls-10" d="M111.81,228.21c.15-.05.31-.07.47-.06l1.37-.09,5.1-.24,17.49-.67-.24.24c.06-2.45,0-5.06-.12-7.75-.22-4.44-.61-8.66-.85-12.51-.14-1.93-.19-3.76-.35-5.46-.12-1.58-.36-3.14-.72-4.68-.5-2.24-1.43-4.36-2.74-6.24-.95-1.31-1.65-1.9-1.61-1.93.19.11.36.25.51.41.46.43.89.9,1.27,1.4,1.39,1.87,2.38,4,2.92,6.27.39,1.55.66,3.14.8,4.73.18,1.71.25,3.54.39,5.46.28,3.85.68,8.07.9,12.52.14,2.7.18,5.33.1,7.8v.24h-.23l-17.5.49-5.11.09h-1.37l-.48-.02Z"/>
    <path class="cls-11" d="M132.03,260.44s-12.77,17.4-12.77,24.4.27,17.41,8.58,24.91,109.88,95.25,109.88,95.25l24.74-21.86-92.06-93s4.29-7.77,2.41-11c-1.11-1.91-2.8-3.41-4.82-4.29l-.27-17.23-35.69,2.82Z"/>
    <path class="cls-11" d="M177.11,256.95l2.16,18.37s65.39,33.88,70.66,43.89c2.39,4.54,4.71,45.61,4.71,45.61l-32.24.73-4.17-32.55-17.3-9.35-30.93-31.43-10.54-33.9,17.65-1.37Z"/>
    <path class="cls-11" d="M147.62,259.75c.15.35.25.72.3,1.09.19,1.01.32,2.03.37,3.05.08,1.53-.03,3.07-.33,4.57-.38,1.86-1.12,3.62-2.2,5.18-1.08,1.57-2.56,2.83-4.28,3.65-1.42.64-2.98.92-4.53.82-1.04-.07-2.06-.35-3-.82-.25-.13-.49-.27-.71-.44-.16-.11-.23-.18-.22-.2,1.22.64,2.56,1.01,3.94,1.09,1.48.05,2.96-.26,4.3-.89,1.63-.8,3.03-2.01,4.06-3.51,1.83-2.79,2.74-6.09,2.59-9.43-.04-2.57-.38-4.15-.29-4.16Z"/>
    <path class="cls-5" d="M172.69,272.2c-.48.53-1.05.98-1.69,1.31-1.47.91-3.07,1.62-4.73,2.1-1.66.49-3.39.74-5.12.76-.72.05-1.44-.02-2.13-.2,2.4-.12,4.77-.48,7.1-1.06,2.28-.75,4.48-1.73,6.57-2.91Z"/>
    <path class="cls-5" d="M170.71,259.89s.62-.22,1.39.36c.46.35.72.9.71,1.48,0,.73-.43,1.39-1.09,1.7-.69.29-1.5.11-2-.45-.55-.62-.49-1.56.13-2.1.13-.12.29-.21.45-.28.25-.08.4,0,.4,0,0,0-.59.15-.87.9-.16.4-.07.86.24,1.17.38.37.93.48,1.42.3.48-.23.8-.71.82-1.25.02-.44-.15-.87-.47-1.18-.56-.57-1.14-.56-1.13-.65Z"/>
    <path class="cls-5" d="M172.82,293.73c-.77-.54-1.49-1.13-2.16-1.78-1.71-1.45-3.49-2.81-5.35-4.06-1.86-1.25-3.81-2.35-5.83-3.31-.86-.35-1.71-.76-2.52-1.21.92.17,1.82.47,2.67.87,2.1.87,4.11,1.94,6,3.21,1.88,1.26,3.65,2.68,5.3,4.23.7.61,1.34,1.3,1.89,2.05Z"/>
    <path class="cls-5" d="M176.95,281.41c-.13-2.34.96-4.57,2.88-5.91.11.12-1,1.18-1.74,2.81s-.98,3.12-1.14,3.1Z"/>
    <path class="cls-5" d="M250.46,409.84c-.63-.51-1.2-1.1-1.7-1.74-1-1.12-2.36-2.69-3.83-4.44-.31-.43-.7-.8-1.13-1.1-.4-.24-.88-.33-1.34-.27-.83.14-1.62.46-2.31.95-.63.54-1.38.91-2.19,1.08,0-.05.8-.45,2-1.38.7-.56,1.52-.93,2.4-1.1.57-.08,1.16.03,1.66.31.49.33.91.74,1.26,1.21,1.47,1.75,2.78,3.35,3.71,4.53.56.6,1.05,1.25,1.47,1.95Z"/>
    <path class="cls-5" d="M237.72,404.98s.14-.15.42-.41l1.27-1.15,4.89-4.39,18.05-16v.29l-46.71-46.57-33.55-33.56-3.63-3.71-1.77-1.78c-.58-.59-1.16-1.17-1.78-1.69-1.31-.96-2.37-2.22-3.09-3.67-.3-.75-.37-1.57-.19-2.36.18-.78.51-1.43.72-2.13.46-1.34.79-2.72,1-4.12.23-1.29.12-2.63-.3-3.87-.59-1.08-1.35-2.05-2.25-2.88-.82-.79-1.75-1.44-2.78-1.93h-.09v-.09c-.06-5.24-.1-9.38-.13-12.24v-4.36c.01.09.01.19,0,.28v.83c0,.76,0,1.85.09,3.25.06,2.85.15,7,.26,12.23l-.09-.13c1.07.5,2.05,1.18,2.9,2,.94.86,1.74,1.87,2.34,3,.46,1.3.58,2.69.35,4.05-.2,1.42-.54,2.83-1,4.19-.21.7-.54,1.4-.7,2.09-.16.72-.09,1.46.18,2.14.71,1.38,1.74,2.58,3,3.49.63.53,1.22,1.1,1.79,1.69l1.78,1.78,3.68,3.65c10,9.95,21.42,21.38,33.6,33.52l46.63,46.67.14.15-.15.13-18.14,15.82-5,4.31-1.3,1.11-.44.37Z"/>
    <path class="cls-5" d="M252.22,406.19c-1.22-1.37-2.23-2.9-3-4.56-.91-1.58-1.58-3.28-2-5.05.14-.06,1.1,2.17,2.47,4.81s2.66,4.72,2.53,4.8Z"/>
    <path class="cls-5" d="M258.59,401.67c-3.1-2.34-5.54-5.44-7.08-9,.13-.07,1.41,2.16,3.37,4.63s3.81,4.26,3.71,4.37Z"/>
    <path class="cls-5" d="M262.61,397.23c-1.21-1.29-2.33-2.66-3.34-4.1-1.15-1.34-2.2-2.77-3.15-4.26,1.34,1.16,2.54,2.49,3.56,3.94,1.16,1.35,2.14,2.83,2.93,4.42Z"/>
    <path class="cls-5" d="M266.81,389.84c-1.2-.52-2.34-1.19-3.37-2-1.12-.68-2.15-1.5-3.06-2.44,1.2.51,2.33,1.19,3.36,2,1.12.68,2.16,1.5,3.07,2.44Z"/>
    <path class="cls-5" d="M207.92,331.49c.1.1-4.35,4.19-9.92,9.12s-10.18,8.85-10.27,8.74,4.35-4.19,9.92-9.13,10.18-8.84,10.27-8.73Z"/>
    <path class="cls-5" d="M207.07,333.22c-.3.72-.69,1.39-1.17,2-1.05,1.51-2.2,2.94-3.44,4.29-1.25,1.35-2.58,2.62-4,3.79-.56.52-1.18.96-1.86,1.32-.1-.12,2.59-2.32,5.47-5.46s4.86-6.03,5-5.94Z"/>
    <path class="cls-5" d="M149.53,261.42s0,.3-.14.83c-.19.75-.44,1.48-.75,2.18-.46,1.05-1.01,2.05-1.66,3-.81,1.15-1.73,2.22-2.75,3.19-1.03.95-2.16,1.78-3.37,2.5-.99.57-2.04,1.05-3.12,1.43-.72.26-1.47.45-2.23.58-.27.07-.56.1-.84.09,0-.1,1.16-.31,2.94-1,1.04-.41,2.05-.91,3-1.5,1.17-.72,2.26-1.54,3.27-2.47,1-.94,1.9-1.97,2.71-3.07.64-.91,1.22-1.88,1.71-2.88.84-1.75,1.16-2.91,1.23-2.88Z"/>
    <path class="cls-5" d="M226.79,320.66c-1.89,1.76-3.62,3.67-5.17,5.73-1.4,2.16-2.62,4.43-3.64,6.8.09-.76.29-1.51.61-2.21.67-1.73,1.54-3.37,2.61-4.89,1.06-1.52,2.31-2.9,3.72-4.11.55-.54,1.18-.98,1.87-1.32Z"/>
    <path class="cls-5" d="M233.37,324.3c0,.16-3.55.81-7.64,2.54s-7.07,3.83-7.16,3.69c.56-.57,1.19-1.06,1.88-1.46,1.61-1.06,3.31-1.96,5.08-2.71,1.77-.74,3.6-1.32,5.48-1.74.77-.21,1.56-.32,2.36-.32Z"/>
  </g>
</svg>