<?xml version="1.0" encoding="UTF-8"?>
<svg id="Layer_1" data-name="Layer 1" xmlns="http://www.w3.org/2000/svg" viewBox="0 0 770.2 743.4">
  <defs>
    <style>
      .cls-1 {
        fill: #000;
      }

      .cls-1, .cls-2, .cls-3, .cls-4, .cls-5, .cls-6, .cls-7, .cls-8, .cls-9, .cls-10, .cls-11, .cls-12, .cls-13, .cls-14, .cls-15, .cls-16, .cls-17, .cls-18, .cls-19 {
        stroke-width: 0px;
      }

      .cls-2 {
        fill: #dceee0;
      }

      .cls-3 {
        fill: #1c1c1c;
      }

      .cls-4 {
        fill: #5095d0;
      }

      .cls-5 {
        fill: #243354;
      }

      .cls-6 {
        fill: #45b34a;
      }

      .cls-7 {
        fill: #f5b0a6;
      }

      .cls-8 {
        fill: #1d2f59;
      }

      .cls-9 {
        fill: #ffbe9d;
      }

      .cls-10 {
        fill: #1585c4;
      }

      .cls-11 {
        fill: #2b2b2b;
      }

      .cls-12 {
        fill: #2c2c2c;
      }

      .cls-13 {
        fill: #263238;
      }

      .cls-14 {
        fill: #cfcfcf;
      }

      .cls-15 {
        fill: #3d5891;
      }

      .cls-16 {
        fill: #f18a8b;
      }

      .cls-17 {
        fill: #333;
      }

      .cls-18 {
        fill: #fff;
      }

      .cls-19 {
        fill: #050707;
      }
    </style>
  </defs>
  <g>
    <g>
      <path class="cls-7" d="M508.26,203.75c.3-2.6,2.3-20.4,1.5-22.4s-9.5-3.3-10.5-4.2-2-4.3-2-4.3c-2.2.2-5.6,2.7-4.3,6.3s5.6,6.4,5.6,6.4l-3.7,25.1c-2.7,11.7,32.1,45.4,50.8,49.2,15.5-2.6,6.1-37.6,6.1-37.6-26.4-3.1-43.8-15.9-43.5-18.5Z"/>
      <path class="cls-4" d="M512.96,205.55l-11.6,24.2c27.1,30.7,114.9,69.1,133.7,52.3,18.9-16.8,9.1-68.6,9.1-68.6-42.3,21.9-131.2-7.9-131.2-7.9Z"/>
      <path class="cls-18" d="M696.16,210.05l-31.5.5c-1.9-.5-20.6,2.8-20.6,2.8-21,17.1-18.2,63.8-16.6,81.4,1.6,17.6-7.5,73.3-7.5,73.3,38.4,38.4,111.7,13,111.7,13,10.9-24.4,11-141.9,5.8-150.7-5.3-8.6-41.3-20.3-41.3-20.3Z"/>
      <rect class="cls-2" x="630.26" y="354.55" width="76.6" height="7.9"/>
      <g>
        <g>
          <path class="cls-7" d="M707.86,649.45s-1.6,21.5-5.2,28.7c-3.7,7.2-38.7,8.5-46.7,23.6l74.7-.3s1.6-12.7-2.2-22.7l3-18.3-23.6-11Z"/>
          <path class="cls-13" d="M714.66,679.85c.1-2.6-1.9-12-8.6-14.8-.8,5.1-1.9,10.3-3.4,13.2-3.7,7.2-38.7,8.5-46.7,23.6l74.7-.3s1.6-12.7-2.2-22.7c-.1,0-13.6,5.7-13.8,1Z"/>
          <path class="cls-1" d="M655.86,701.85l74.7-.3s.1-1.1.2-3l-72.9.4c-.7.9-1.4,1.9-2,2.9Z"/>
          <path class="cls-15" d="M704.66,676.65c-1.1-.5-2.3-.5-3.6.1-.2.1-.3.3-.2.6.1.2.3.3.6.2,1-.4,2-.5,2.9-.1,2.2.9,3.3,4,3.3,4,.1.2.2.3.4.3h.2c.2-.1.3-.3.3-.5-.1-.2-1.3-3.5-3.9-4.6Z"/>
          <path class="cls-15" d="M697.66,681.65c-1.1-.5-2.3-.5-3.6.1-.2.1-.3.3-.2.6.1.2.3.3.6.2,1-.4,2-.5,2.9-.1,2.2.9,3.3,4,3.3,4,.1.2.2.3.4.3h.2c.2-.1.3-.3.3-.5-.2-.2-1.4-3.5-3.9-4.6Z"/>
          <path class="cls-15" d="M686.06,684.95c-1.1-.5-2.3-.5-3.6.1-.2.1-.3.3-.2.6.1.2.3.3.6.2,1-.4,2-.5,2.9-.1,2.2.9,3.3,4,3.3,4,.1.2.2.3.4.3h.2c.2-.1.3-.3.3-.5-.1-.2-1.3-3.5-3.9-4.6Z"/>
        </g>
        <g>
          <path class="cls-7" d="M618.26,649.45s-1.6,21.5-5.3,28.7-38.7,8.4-46.8,23.5l74.7-.1s1.7-12.7-2.1-22.7l3-18.3-23.5-11.1Z"/>
          <path class="cls-13" d="M624.96,679.75c.1-2.6-1.8-12-8.6-14.8-.8,5.1-2,10.3-3.4,13.2-3.7,7.2-38.7,8.4-46.8,23.5l74.7-.1s1.7-12.7-2.1-22.7c0,0-13.5,5.6-13.8.9Z"/>
          <path class="cls-1" d="M566.16,701.65l74.7-.1s.1-1.1.3-3l-72.9.1c-.8,1-1.5,1.9-2.1,3Z"/>
          <path class="cls-15" d="M615.06,676.65c-1.1-.5-2.3-.5-3.6.1-.2.1-.3.3-.2.6.1.2.3.3.6.2,1-.4,2-.5,2.9-.1,2.2,1,3.3,4,3.3,4,.1.2.2.3.4.3h.2c.2-.1.3-.3.3-.5-.2-.3-1.4-3.5-3.9-4.6Z"/>
          <path class="cls-15" d="M608.06,681.55c-1.1-.5-2.3-.5-3.6.1-.2.1-.3.3-.2.6.1.2.3.3.6.2,1-.4,2-.5,2.9-.1,2.2,1,3.3,4,3.3,4,.1.2.2.3.4.3h.2c.2-.1.3-.3.3-.5-.2-.2-1.4-3.5-3.9-4.6Z"/>
          <path class="cls-15" d="M596.46,684.85c-1.1-.5-2.3-.5-3.6.1-.2.1-.3.3-.2.6.1.2.3.3.6.2,1-.4,2-.5,2.9-.1,2.2,1,3.3,4,3.3,4,.1.2.2.3.4.3h.2c.2-.1.3-.3.3-.5-.2-.2-1.4-3.5-3.9-4.6Z"/>
        </g>
        <path class="cls-13" d="M623.56,362.15c-11.4,114.7-15.5,313.9-15.5,313.9h37.6l22.1-175.1,25,175.1h38c1-55.1,12.3-262.9-6.9-313.9h-100.3Z"/>
        <path class="cls-18" d="M662.86,405.25l-7.4-1.9,1.7-23.2c0-.2-.2-.4-.4-.5-.2,0-.4.2-.5.4l-1.7,23.5c0,.2.1.4.3.4l7.4,1.9,5,89.1c0,.2.2.4.4.4h0c.2,0,.4-.2.4-.5l-5-89.4c.1,0,0-.2-.2-.2Z"/>
        <path class="cls-8" d="M643.66,668.75h-33.2c-.2,0-.4.2-.4.4s.2.4.4.4h33.2c.2,0,.4-.2.4-.4s-.2-.4-.4-.4Z"/>
        <path class="cls-8" d="M726.96,669.45h-32.3c-.2,0-.4.2-.4.4s.2.4.4.4h32.3c.2,0,.4-.2.4-.4.1-.2-.1-.4-.4-.4Z"/>
        <path class="cls-18" d="M717.06,395.55c-11.1-1.1-18.1-11.2-18.7-27.1,0-.2-.2-.4-.4-.4s-.4.2-.4.4c.9,24.3,15.1,27.5,19.4,28h0c.2,0,.4-.2.4-.4.1-.3,0-.5-.3-.5Z"/>
        <path class="cls-18" d="M717.66,371.35c-.2,0-.4.3-.3.5,6.6,35.6,8.4,290.9,8.4,293,0,.2.2.4.4.4h0c.2,0,.4-.2.4-.4.1-2.2-1.7-257.5-8.4-293.2-.1-.2-.3-.3-.5-.3Z"/>
      </g>
      <g>
        <path class="cls-9" d="M757.36,408.95c-.2-7.3-.5-16.8-.5-16.8l-20.3,6.1c.7,3.8,5.7,16.1,1.9,19.6-3.8,3.6-7.9,9-7.7,15.4.2,6.3-6,12.1-5.4,13.4.5,1.3,7.9-2.4,10-5.7,2-3.3,1.3-5.2,3.1-3.9,1.7,1.3,4.2,22,4.2,28.8s4.5-1,4.5-1c2.9,1.2,4.9-2.6,4.9-2.6,4.5,1,6.6-12.1,7.7-11.3,5.1,1.4,6.7-13,4.1-20.8-2.8-7.8-6.3-13.9-6.5-21.2Z"/>
        <path class="cls-16" d="M747.36,439.45c-.2.1-.3.3-.3.5,2.8,8.8-.3,23.2-.3,23.3,0,.2.1.4.3.5h.2c.1,0,.3-.1.3-.3.1-.6,3.2-14.7.3-23.7-.1-.3-.3-.4-.5-.3Z"/>
        <path class="cls-16" d="M755.56,440.25c-.2,0-.3.2-.3.5,1.5,7.6-2.7,19.3-2.7,19.4-.1.2,0,.4.2.5h.2c.1,0,.2-.1.3-.2.2-.5,4.3-12,2.8-19.8,0-.3-.2-.4-.5-.4Z"/>
        <path class="cls-16" d="M760.06,440.55c-.2,0-.4.2-.3.4,0,0,.4,2.7-.7,7.8,0,.2.1.4.3.5h.2c.1,0,.3-.1.3-.3,1.1-5.3.7-8,.7-8.1-.1-.2-.3-.4-.5-.3Z"/>
      </g>
      <path class="cls-10" d="M627.36,294.85c1.6,17.6-8.8,82.8-8.8,82.8,3.5,3.5,10.7,6.8,14.7,9.3,2-21.1,3.7-71.3,3.4-86-.4-20-.7-65.7,21.1-89.7-6,.9-13.7,2.2-13.7,2.2-21.1,17.1-18.2,63.7-16.7,81.4Z"/>
      <path class="cls-10" d="M708.36,214.35c-13.1,20.7-19,40.6-16.5,92.5,1.8,35.9.5,66.1-.6,82.1,22.6-1.7,40.3-7.8,40.3-7.8,10.9-24.4,11-141.9,5.8-150.7-3.2-5.4-18-11.9-29-16.1Z"/>
      <path class="cls-4" d="M732.66,225.85c-11.5,8.9-25.1,28.4-14.2,65.4,10.9,37,9.1,123.4,9.1,123.4l39.7,1.6c7.7-58.4,1.7-170.7-34.6-190.4Z"/>
      <g>
        <path class="cls-1" d="M671.36,138.55c-10.9,2.9-13.5,5-13.9,9.8-.4,4.7,1.3,9.4,4.3,13.1l22.3,27.3s12.3-3.1,14.2-8.9c1.9-5.8,4.4-22.1,2.8-28.6-2.6-10.4-20.7-15.1-29.7-12.7Z"/>
        <path class="cls-9" d="M694.46,185.55l.9-8.6c-4.2,2.9-6.2-2.3-5.6-5.6.6-3.3,1.5-10.7,1.5-10.7,0,0-5.5,2.6-5.6-4.4-2.9,1.4,4.6-21.8-26.5-5-.9,5.5-2,17.8-1.6,24.8.8,14.9-.5,25,12.4,27.3,0,5.3-.2,7.3-5.5,7.3,3,8.4,27.8,6,35.5,1-7.9-4.3-5.5-26.1-5.5-26.1Z"/>
        <path class="cls-9" d="M695.06,171.45c-3.5,0-6.4,2.9-6.4,6.4s2.9,6.4,6.4,6.4,6.4-2.9,6.4-6.4c.1-3.5-2.8-6.4-6.4-6.4Z"/>
      </g>
      <g>
        <path class="cls-4" d="M698.36,219.95c-.2-.1-.4,0-.5.1s-5.2,8.5-15.3,13.4l-9.6-15.3q-.1-.1-.2-.2c-.1,0-.2,0-.3.1l-15,10.3c-.2.1-.2.3-.1.5.1.2.3.2.5.1l14.7-10.1,9.6,15.3c.1.1.2.2.3.2h.2c10.5-5.1,15.9-13.8,15.9-13.9,0-.2-.1-.4-.2-.5Z"/>
        <path class="cls-4" d="M662.16,225.95c-1.4,5.5.6,15.5.8,15.3,6.2-.8,9.3,1.4,9.3,1.4,5.4-3.5,7.1-12.7,7.1-12.7l-6.9-11s-10.2,6.7-10.3,7Z"/>
        <path class="cls-4" d="M672.36,242.65c-2.8-3.2-9.3-1.4-9.3-1.4-9,11.2-13.8,40.8-11.6,58,2.3,17.2-8.5,36.6-8.5,36.6l13,33.5s24.2-27.9,25.4-29.3c6.5-16.6-8.5-35.5-11.3-51.8-2.8-16.4,2.3-45.6,2.3-45.6Z"/>
      </g>
    </g>
    <g>
      <path class="cls-12" d="M683.1,159.7c-1,.1-2,.5-2.8,1.2-.6.5-.1,1.3.6,1.4.4,0,.8-.1,1.1-.2.9-.3,2.4,0,3.2.1.5.1.9-.5.8-1-.1-1.1-2.1-1.6-2.9-1.5Z"/>
      <path class="cls-12" d="M667.3,161.8c-1-.5-2-.7-3.1-.5-.9.1-2.2.6-2.2,1.6,0,.5.5.9,1,.8.9-.3,1.8-.5,2.8-.4.4,0,.8.1,1.2-.1.7-.1,1-1,.3-1.4Z"/>
      <path class="cls-18" d="M680.8,177.4c-.3,0-.6,0-.9.1-2.8.6-5.4,1.4-8.3,1-.7-.1-1.4-.4-2.2-.3-.1,0-.3.1-.4.1-.4.2-.7.5-.6.9,0,.6.7,1.3,1.1,1.6,1.1,1.1,2.5,1.8,4.1,1.8,1.9.1,3.8-.6,5.4-1.6.7-.5,1.4-1,1.9-1.6.5-.4,1.1-1.8-.1-2Z"/>
      <g>
        <path class="cls-17" d="M687.2,153.5c-.3-.1-6.4-2.5-7.6-1.2-.5.5-.5,1.5,0,2.2.7,1.1,2.3.5,6,1.3,1.8.4,2.5.7,2.6.5.3-.5.9-1.8-1-2.8Z"/>
        <path class="cls-17" d="M662.5,153.9c-1.6.7-1.6,1.7-1.4,2.1.1.2.7,0,2.2-.2,3.1-.4,4.4.2,5-.7.4-.5.4-1.3.1-1.8-.9-1.2-5.7.5-5.9.6Z"/>
        <path class="cls-11" d="M669.7,169.9c-.3-1.1.4-2.7,2-4.4l-.7-.7c-1.9,2-2.7,3.8-2.3,5.3.5,2,2.8,2.7,2.9,2.7l.3-.9s-1.9-.6-2.2-2Z"/>
      </g>
    </g>
    <path class="cls-16" d="M673.9,196.6s0,2.3-.6,5c6.2,1.1,13.6-2.6,16.6-12.2-6.4,7.9-16,7.2-16,7.2Z"/>
    <path class="cls-16" d="M699.9,167.8c-1.2.3-2.3,1.3-3.2,2.9l-.2.4.5.1c.7.2,2.6.8,2.9,1.9l.7-.2c-.4-1.3-2.1-2.1-3-2.3.7-1.2,1.5-1.9,2.4-2.1,1.2-.3,2.3.4,2.3.4l.4-.6c0,.1-1.2-.8-2.8-.5Z"/>
  </g>
  <path class="cls-2" d="M568.6,0h-139.7c-8.4,0-15.1,6.8-15.1,15.1v91.6c0,7.7,6.3,14,14,14h141.9c7.7,0,14-6.3,14-14V15.2c0-8.4-6.7-15.2-15.1-15.2Z"/>
  <path class="cls-2" d="M612.9,222h-251.5c-4.4,0-8,3.6-8,8v175.7c0,3.5,2.8,6.3,6.3,6.3h254.9c3.5,0,6.3-2.8,6.3-6.3v-175.7c0-4.4-3.6-8-8-8Z"/>
  <g>
    <path class="cls-2" d="M301.8,454.1v159.5h111.1c9.9,0,17.9-8,17.9-17.9v-159.5h-111.1c-9.9,0-17.9,8-17.9,17.9Z"/>
    <path class="cls-10" d="M297.3,449.4v159.5h111.1c9.9,0,17.9-8,17.9-17.9v-159.5h-111.1c-9.9,0-17.9,8-17.9,17.9Z"/>
    <rect class="cls-18" x="313.1" y="522.9" width="19.4" height="19.4"/>
    <path class="cls-18" d="M380.5,523.6h-36.6c-1.8,0-3.3,1.5-3.3,3.3h0c0,1.8,1.5,3.3,3.3,3.3h36.6c1.8,0,3.3-1.5,3.3-3.3h0c0-1.9-1.5-3.3-3.3-3.3Z"/>
    <path class="cls-18" d="M405.6,536.3h-61.8c-1.8,0-3.3,1.5-3.3,3.3s1.5,3.3,3.3,3.3h61.8c1.8,0,3.3-1.5,3.3-3.3,0-1.8-1.4-3.3-3.3-3.3Z"/>
    <rect class="cls-18" x="313.1" y="559.9" width="19.4" height="19.4"/>
    <path class="cls-18" d="M380.5,560.5h-36.6c-1.8,0-3.3,1.5-3.3,3.3s1.5,3.3,3.3,3.3h36.6c1.8,0,3.3-1.5,3.3-3.3s-1.5-3.3-3.3-3.3Z"/>
    <path class="cls-18" d="M405.6,573.3h-61.8c-1.8,0-3.3,1.5-3.3,3.3s1.5,3.3,3.3,3.3h61.8c1.8,0,3.3-1.5,3.3-3.3,0-1.9-1.4-3.3-3.3-3.3Z"/>
  </g>
  <g>
    <path class="cls-2" d="M457.1,454.4v159.5h111.1c9.9,0,17.9-8,17.9-17.9v-159.5h-111.1c-9.8,0-17.9,8-17.9,17.9Z"/>
    <path class="cls-10" d="M452.6,449.6v159.5h111.1c9.9,0,17.9-8,17.9-17.9v-159.5h-111.1c-9.9,0-17.9,8-17.9,17.9Z"/>
    <rect class="cls-18" x="468.4" y="523.2" width="19.4" height="19.4"/>
    <path class="cls-18" d="M535.8,523.8h-36.6c-1.8,0-3.3,1.5-3.3,3.3s1.5,3.3,3.3,3.3h36.6c1.8,0,3.3-1.5,3.3-3.3,0-1.8-1.4-3.3-3.3-3.3Z"/>
    <path class="cls-18" d="M561,536.6h-61.8c-1.8,0-3.3,1.5-3.3,3.3s1.5,3.3,3.3,3.3h61.8c1.8,0,3.3-1.5,3.3-3.3s-1.5-3.3-3.3-3.3Z"/>
    <rect class="cls-18" x="468.4" y="560.2" width="19.4" height="19.4"/>
    <path class="cls-18" d="M535.8,560.8h-36.6c-1.8,0-3.3,1.5-3.3,3.3s1.5,3.3,3.3,3.3h36.6c1.8,0,3.3-1.5,3.3-3.3,0-1.8-1.4-3.3-3.3-3.3Z"/>
    <path class="cls-18" d="M561,573.5h-61.8c-1.8,0-3.3,1.5-3.3,3.3s1.5,3.3,3.3,3.3h61.8c1.8,0,3.3-1.5,3.3-3.3s-1.5-3.3-3.3-3.3Z"/>
  </g>
  <g>
    <g>
      <path class="cls-18" d="M576.8,111.5H203.6c-6.6,0-11.9,5.3-11.9,11.9v260.8c0,5.2,4.2,9.3,9.3,9.3h378.3c5.2,0,9.3-4.2,9.3-9.3V123.4c.1-6.6-5.2-11.9-11.8-11.9Z"/>
      <path class="cls-13" d="M576.8,111.5H203.6c-6.6,0-11.9,5.3-11.9,11.9v29.1h397v-29.1c0-6.6-5.3-11.9-11.9-11.9Z"/>
      <g>
        <path class="cls-10" d="M263.7,125.7c-3.5,0-6.3,2.8-6.3,6.3s2.8,6.3,6.3,6.3,6.3-2.8,6.3-6.3-2.8-6.3-6.3-6.3Z"/>
        <path class="cls-10" d="M239.4,125.7c-3.5,0-6.3,2.8-6.3,6.3s2.8,6.3,6.3,6.3,6.3-2.8,6.3-6.3-2.8-6.3-6.3-6.3Z"/>
        <path class="cls-10" d="M215.2,125.7c-3.5,0-6.3,2.8-6.3,6.3s2.8,6.3,6.3,6.3,6.3-2.8,6.3-6.3-2.9-6.3-6.3-6.3Z"/>
      </g>
      <polygon class="cls-18" points="570.7 124.3 566.2 128.7 561.8 124.3 558.7 127.4 563.1 131.9 558.7 136.3 561.8 139.4 566.2 135 570.7 139.4 573.8 136.3 569.4 131.9 573.8 127.4 570.7 124.3"/>
    </g>
    <g>
      <g>
        <path class="cls-10" d="M337.8,340.7h-27c-1.3,0-2.4,1.1-2.4,2.4s1.1,2.4,2.4,2.4h27c1.3,0,2.4-1.1,2.4-2.4s-1-2.4-2.4-2.4Z"/>
        <path class="cls-10" d="M302,340.7h-1c-1.3,0-2.4,1.1-2.4,2.4s1.1,2.4,2.4,2.4h1c1.3,0,2.4-1.1,2.4-2.4,0-1.3-1.1-2.4-2.4-2.4Z"/>
        <path class="cls-10" d="M377.5,348.6h-42.2c-1.3,0-2.4,1.1-2.4,2.4s1.1,2.4,2.4,2.4h42.2c1.3,0,2.4-1.1,2.4-2.4,0-1.3-1-2.4-2.4-2.4Z"/>
        <path class="cls-10" d="M326.5,348.6h-1c-1.3,0-2.4,1.1-2.4,2.4s1.1,2.4,2.4,2.4h1c1.3,0,2.4-1.1,2.4-2.4,0-1.3-1.1-2.4-2.4-2.4Z"/>
        <path class="cls-10" d="M377.5,340.7h-30.3c-1.3,0-2.4,1.1-2.4,2.4s1.1,2.4,2.4,2.4h30.4c1.3,0,2.4-1.1,2.4-2.4-.1-1.3-1.1-2.4-2.5-2.4Z"/>
        <path class="cls-10" d="M316.2,348.6h-15.2c-1.3,0-2.4,1.1-2.4,2.4s1.1,2.4,2.4,2.4h15.2c1.3,0,2.4-1.1,2.4-2.4s-1.1-2.4-2.4-2.4Z"/>
      </g>
      <g>
        <path class="cls-10" d="M337.8,357.2h-27c-1.3,0-2.4,1.1-2.4,2.4s1.1,2.4,2.4,2.4h27c1.3,0,2.4-1.1,2.4-2.4s-1-2.4-2.4-2.4Z"/>
        <path class="cls-10" d="M302,357.2h-1c-1.3,0-2.4,1.1-2.4,2.4s1.1,2.4,2.4,2.4h1c1.3,0,2.4-1.1,2.4-2.4,0-1.3-1.1-2.4-2.4-2.4Z"/>
        <path class="cls-10" d="M377.5,365h-42.2c-1.3,0-2.4,1.1-2.4,2.4s1.1,2.4,2.4,2.4h42.2c1.3,0,2.4-1.1,2.4-2.4,0-1.3-1-2.4-2.4-2.4Z"/>
        <path class="cls-10" d="M326.5,365h-1c-1.3,0-2.4,1.1-2.4,2.4s1.1,2.4,2.4,2.4h1c1.3,0,2.4-1.1,2.4-2.4,0-1.3-1.1-2.4-2.4-2.4Z"/>
        <path class="cls-10" d="M377.5,357.2h-30.3c-1.3,0-2.4,1.1-2.4,2.4s1.1,2.4,2.4,2.4h30.4c1.3,0,2.4-1.1,2.4-2.4-.1-1.3-1.1-2.4-2.5-2.4Z"/>
        <path class="cls-10" d="M316.2,365h-15.2c-1.3,0-2.4,1.1-2.4,2.4s1.1,2.4,2.4,2.4h15.2c1.3,0,2.4-1.1,2.4-2.4s-1.1-2.4-2.4-2.4Z"/>
      </g>
    </g>
    <g>
      <g>
        <path class="cls-10" d="M258.2,340.7h-27c-1.3,0-2.4,1.1-2.4,2.4s1.1,2.4,2.4,2.4h27c1.3,0,2.4-1.1,2.4-2.4s-1-2.4-2.4-2.4Z"/>
        <path class="cls-10" d="M222.4,340.7h-1c-1.3,0-2.4,1.1-2.4,2.4s1.1,2.4,2.4,2.4h1c1.3,0,2.4-1.1,2.4-2.4,0-1.3-1.1-2.4-2.4-2.4Z"/>
        <path class="cls-10" d="M282.7,348.6h-27c-1.3,0-2.4,1.1-2.4,2.4s1.1,2.4,2.4,2.4h27c1.3,0,2.4-1.1,2.4-2.4s-1-2.4-2.4-2.4Z"/>
        <path class="cls-10" d="M246.9,348.6h-1c-1.3,0-2.4,1.1-2.4,2.4s1.1,2.4,2.4,2.4h1c1.3,0,2.4-1.1,2.4-2.4s-1.1-2.4-2.4-2.4Z"/>
        <path class="cls-10" d="M282.7,340.7h-15.2c-1.3,0-2.4,1.1-2.4,2.4s1.1,2.4,2.4,2.4h15.2c1.3,0,2.4-1.1,2.4-2.4s-1-2.4-2.4-2.4Z"/>
        <path class="cls-10" d="M236.6,348.6h-15.2c-1.3,0-2.4,1.1-2.4,2.4s1.1,2.4,2.4,2.4h15.2c1.3,0,2.4-1.1,2.4-2.4s-1.1-2.4-2.4-2.4Z"/>
      </g>
      <g>
        <path class="cls-10" d="M258.2,357.2h-27c-1.3,0-2.4,1.1-2.4,2.4s1.1,2.4,2.4,2.4h27c1.3,0,2.4-1.1,2.4-2.4s-1-2.4-2.4-2.4Z"/>
        <path class="cls-10" d="M222.4,357.2h-1c-1.3,0-2.4,1.1-2.4,2.4s1.1,2.4,2.4,2.4h1c1.3,0,2.4-1.1,2.4-2.4,0-1.3-1.1-2.4-2.4-2.4Z"/>
        <path class="cls-10" d="M282.7,365h-27c-1.3,0-2.4,1.1-2.4,2.4s1.1,2.4,2.4,2.4h27c1.3,0,2.4-1.1,2.4-2.4s-1-2.4-2.4-2.4Z"/>
        <path class="cls-10" d="M246.9,365h-1c-1.3,0-2.4,1.1-2.4,2.4s1.1,2.4,2.4,2.4h1c1.3,0,2.4-1.1,2.4-2.4s-1.1-2.4-2.4-2.4Z"/>
        <path class="cls-10" d="M282.7,357.2h-15.2c-1.3,0-2.4,1.1-2.4,2.4s1.1,2.4,2.4,2.4h15.2c1.3,0,2.4-1.1,2.4-2.4s-1-2.4-2.4-2.4Z"/>
        <path class="cls-10" d="M236.6,365h-15.2c-1.3,0-2.4,1.1-2.4,2.4s1.1,2.4,2.4,2.4h15.2c1.3,0,2.4-1.1,2.4-2.4s-1.1-2.4-2.4-2.4Z"/>
      </g>
    </g>
    <g>
      <g>
        <path class="cls-10" d="M533.4,340.7h-27c-1.3,0-2.4,1.1-2.4,2.4s1.1,2.4,2.4,2.4h27c1.3,0,2.4-1.1,2.4-2.4,0-1.3-1.1-2.4-2.4-2.4Z"/>
        <path class="cls-10" d="M497.5,340.7h-1c-1.3,0-2.4,1.1-2.4,2.4s1.1,2.4,2.4,2.4h1c1.3,0,2.4-1.1,2.4-2.4s-1.1-2.4-2.4-2.4Z"/>
        <path class="cls-10" d="M557.9,348.6h-27c-1.3,0-2.4,1.1-2.4,2.4s1.1,2.4,2.4,2.4h27c1.3,0,2.4-1.1,2.4-2.4,0-1.3-1.1-2.4-2.4-2.4Z"/>
        <path class="cls-10" d="M522,348.6h-1c-1.3,0-2.4,1.1-2.4,2.4s1.1,2.4,2.4,2.4h1c1.3,0,2.4-1.1,2.4-2.4s-1.1-2.4-2.4-2.4Z"/>
        <path class="cls-10" d="M557.9,340.7h-15.2c-1.3,0-2.4,1.1-2.4,2.4s1.1,2.4,2.4,2.4h15.2c1.3,0,2.4-1.1,2.4-2.4,0-1.3-1.1-2.4-2.4-2.4Z"/>
        <path class="cls-10" d="M511.7,348.6h-15.2c-1.3,0-2.4,1.1-2.4,2.4s1.1,2.4,2.4,2.4h15.2c1.3,0,2.4-1.1,2.4-2.4s-1-2.4-2.4-2.4Z"/>
      </g>
      <g>
        <path class="cls-10" d="M533.4,357.2h-27c-1.3,0-2.4,1.1-2.4,2.4s1.1,2.4,2.4,2.4h27c1.3,0,2.4-1.1,2.4-2.4,0-1.3-1.1-2.4-2.4-2.4Z"/>
        <path class="cls-10" d="M497.5,357.2h-1c-1.3,0-2.4,1.1-2.4,2.4s1.1,2.4,2.4,2.4h1c1.3,0,2.4-1.1,2.4-2.4s-1.1-2.4-2.4-2.4Z"/>
        <path class="cls-10" d="M557.9,365h-27c-1.3,0-2.4,1.1-2.4,2.4s1.1,2.4,2.4,2.4h27c1.3,0,2.4-1.1,2.4-2.4,0-1.3-1.1-2.4-2.4-2.4Z"/>
        <path class="cls-10" d="M522,365h-1c-1.3,0-2.4,1.1-2.4,2.4s1.1,2.4,2.4,2.4h1c1.3,0,2.4-1.1,2.4-2.4s-1.1-2.4-2.4-2.4Z"/>
        <path class="cls-10" d="M557.9,357.2h-15.2c-1.3,0-2.4,1.1-2.4,2.4s1.1,2.4,2.4,2.4h15.2c1.3,0,2.4-1.1,2.4-2.4,0-1.3-1.1-2.4-2.4-2.4Z"/>
        <path class="cls-10" d="M511.7,365h-15.2c-1.3,0-2.4,1.1-2.4,2.4s1.1,2.4,2.4,2.4h15.2c1.3,0,2.4-1.1,2.4-2.4s-1-2.4-2.4-2.4Z"/>
      </g>
    </g>
    <g>
      <g>
        <path class="cls-10" d="M453.8,340.7h-27c-1.3,0-2.4,1.1-2.4,2.4s1.1,2.4,2.4,2.4h27c1.3,0,2.4-1.1,2.4-2.4s-1.1-2.4-2.4-2.4Z"/>
        <path class="cls-10" d="M417.9,340.7h-1c-1.3,0-2.4,1.1-2.4,2.4s1.1,2.4,2.4,2.4h1c1.3,0,2.4-1.1,2.4-2.4s-1.1-2.4-2.4-2.4Z"/>
        <path class="cls-10" d="M478.3,348.6h-27c-1.3,0-2.4,1.1-2.4,2.4s1.1,2.4,2.4,2.4h27c1.3,0,2.4-1.1,2.4-2.4s-1.1-2.4-2.4-2.4Z"/>
        <path class="cls-10" d="M442.4,348.6h-1c-1.3,0-2.4,1.1-2.4,2.4s1.1,2.4,2.4,2.4h1c1.3,0,2.4-1.1,2.4-2.4s-1.1-2.4-2.4-2.4Z"/>
        <path class="cls-10" d="M478.3,340.7h-15.2c-1.3,0-2.4,1.1-2.4,2.4s1.1,2.4,2.4,2.4h15.2c1.3,0,2.4-1.1,2.4-2.4s-1.1-2.4-2.4-2.4Z"/>
        <path class="cls-10" d="M432.1,348.6h-15.2c-1.3,0-2.4,1.1-2.4,2.4s1.1,2.4,2.4,2.4h15.2c1.3,0,2.4-1.1,2.4-2.4s-1.1-2.4-2.4-2.4Z"/>
      </g>
      <g>
        <path class="cls-10" d="M453.8,357.2h-27c-1.3,0-2.4,1.1-2.4,2.4s1.1,2.4,2.4,2.4h27c1.3,0,2.4-1.1,2.4-2.4s-1.1-2.4-2.4-2.4Z"/>
        <path class="cls-10" d="M417.9,357.2h-1c-1.3,0-2.4,1.1-2.4,2.4s1.1,2.4,2.4,2.4h1c1.3,0,2.4-1.1,2.4-2.4s-1.1-2.4-2.4-2.4Z"/>
        <path class="cls-10" d="M478.3,365h-27c-1.3,0-2.4,1.1-2.4,2.4s1.1,2.4,2.4,2.4h27c1.3,0,2.4-1.1,2.4-2.4s-1.1-2.4-2.4-2.4Z"/>
        <path class="cls-10" d="M442.4,365h-1c-1.3,0-2.4,1.1-2.4,2.4s1.1,2.4,2.4,2.4h1c1.3,0,2.4-1.1,2.4-2.4s-1.1-2.4-2.4-2.4Z"/>
        <path class="cls-10" d="M478.3,357.2h-15.2c-1.3,0-2.4,1.1-2.4,2.4s1.1,2.4,2.4,2.4h15.2c1.3,0,2.4-1.1,2.4-2.4s-1.1-2.4-2.4-2.4Z"/>
        <path class="cls-10" d="M432.1,365h-15.2c-1.3,0-2.4,1.1-2.4,2.4s1.1,2.4,2.4,2.4h15.2c1.3,0,2.4-1.1,2.4-2.4s-1.1-2.4-2.4-2.4Z"/>
      </g>
    </g>
    <g>
      <polygon class="cls-10" points="210.3 188.8 206.6 188.7 206.6 186.2 205.3 186.2 205.3 188.7 201.6 188.7 201.7 199.7 205.4 199.7 205.4 209.7 206.7 209.7 206.7 199.7 210.4 199.7 210.3 188.8"/>
      <polygon class="cls-10" points="222.6 194.8 218.9 194.8 218.9 189.7 217.5 189.7 217.6 194.7 213.9 194.7 214 224.4 217.7 224.4 217.8 235.3 219.1 235.3 219 224.4 222.7 224.4 222.6 194.8"/>
      <polygon class="cls-13" points="234.9 222.9 231.3 222.9 231.2 210.6 229.9 210.6 229.9 222.9 226.2 222.8 226.3 238.7 230 238.7 230.1 253.3 231.4 253.3 231.3 238.7 235 238.7 234.9 222.9"/>
      <polygon class="cls-10" points="247.2 232.6 243.5 232.6 243.5 226.9 242.2 226.9 242.2 232.6 238.5 232.6 238.6 249.4 242.3 249.4 242.4 264 243.7 264 243.6 249.4 247.3 249.5 247.2 232.6"/>
      <polygon class="cls-10" points="259.5 238.1 255.8 238.1 255.8 230.5 254.4 230.5 254.5 238.1 250.8 238.1 250.8 249.5 254.5 249.5 254.6 267.8 255.9 267.8 255.8 249.5 259.5 249.5 259.5 238.1"/>
      <polygon class="cls-13" points="271.6 221.9 267.9 221.9 267.9 215.7 266.6 215.7 266.6 221.9 262.9 221.9 263.1 256 266.8 256 266.8 268.8 268.2 268.8 268.1 256 271.8 256 271.6 221.9"/>
      <polygon class="cls-13" points="283.8 221.9 280.2 221.8 280.1 208.2 278.7 208.2 278.8 221.8 275.1 221.8 275.2 234.4 278.9 234.5 278.9 241.1 280.3 241.1 280.2 234.5 283.9 234.5 283.8 221.9"/>
      <polygon class="cls-13" points="296.1 233.4 292.4 233.4 292.4 223 291 223 291.1 233.4 287.4 233.4 287.5 248.1 291.2 248.1 291.2 255.8 292.6 255.8 292.5 248.2 296.2 248.2 296.1 233.4"/>
      <polygon class="cls-10" points="308.4 246.1 304.7 246.1 304.7 231.1 303.3 231.1 303.4 246.1 299.7 246.1 299.9 279.9 303.6 279.9 303.7 300.7 305 300.7 304.9 280 308.6 280 308.4 246.1"/>
      <polygon class="cls-13" points="467 197.5 463.3 197.5 463.3 190.3 461.9 190.3 462 197.5 458.3 197.5 458.3 201.9 462 202 462.1 215.3 463.4 215.3 463.3 202 467 202 467 197.5"/>
      <polygon class="cls-10" points="479.2 188.8 475.5 188.7 475.5 186.2 474.1 186.2 474.2 188.7 470.5 188.7 470.5 199.7 474.2 199.7 474.3 209.7 475.6 209.7 475.5 199.7 479.2 199.7 479.2 188.8"/>
      <polygon class="cls-10" points="491.4 194.8 487.7 194.8 487.7 189.7 486.4 189.7 486.4 194.7 482.7 194.7 482.9 224.4 486.6 224.4 486.6 235.3 488 235.3 487.9 224.4 491.6 224.4 491.4 194.8"/>
      <polygon class="cls-13" points="503.8 222.9 500.1 222.9 500.1 210.6 498.7 210.6 498.8 222.9 495.1 222.8 495.2 238.7 498.9 238.7 498.9 253.3 500.3 253.3 500.2 238.7 503.9 238.7 503.8 222.9"/>
      <polygon class="cls-10" points="516.1 232.6 512.4 232.6 512.4 226.9 511 226.9 511 232.6 507.4 232.6 507.5 249.4 511.1 249.4 511.2 264 512.5 264 512.5 249.4 516.2 249.5 516.1 232.6"/>
      <polygon class="cls-10" points="528.3 238.1 524.6 238.1 524.6 230.5 523.3 230.5 523.3 238.1 519.6 238.1 519.7 249.5 523.4 249.5 523.4 267.8 524.8 267.8 524.7 249.5 528.4 249.5 528.3 238.1"/>
      <polygon class="cls-13" points="540.5 221.9 536.8 221.9 536.8 215.7 535.4 215.7 535.4 221.9 531.8 221.9 531.9 256 535.6 256 535.7 268.8 537 268.8 537 256 540.6 256 540.5 221.9"/>
      <polygon class="cls-13" points="552.7 221.9 549 221.8 548.9 208.2 547.6 208.2 547.7 221.8 544 221.8 544 234.4 547.7 234.5 547.8 241.1 549.1 241.1 549.1 234.5 552.8 234.5 552.7 221.9"/>
      <polygon class="cls-13" points="565 233.4 561.3 233.4 561.2 223 559.9 223 560 233.4 556.3 233.4 556.3 248.1 560 248.1 560.1 255.8 561.4 255.8 561.4 248.2 565 248.2 565 233.4"/>
      <polygon class="cls-10" points="577.3 246.1 573.6 246.1 573.5 231.1 572.2 231.1 572.2 246.1 568.6 246.1 568.7 279.9 572.4 279.9 572.5 300.7 573.9 300.7 573.7 280 577.4 280 577.3 246.1"/>
      <polygon class="cls-13" points="320.7 263.5 317 263.4 317 254.8 315.7 254.8 315.7 263.4 312 263.4 312.2 301.8 315.9 301.9 315.9 312.1 317.3 312.1 317.2 301.9 320.9 301.9 320.7 263.5"/>
      <polygon class="cls-10" points="332.9 259.2 329.2 259.2 329.2 250.6 327.9 250.6 327.9 259.2 324.2 259.2 324.3 276.2 328 276.3 328 278.6 329.3 278.6 329.3 276.3 333 276.3 332.9 259.2"/>
      <polygon class="cls-10" points="345 231.6 341.3 231.6 341.3 224.5 340 224.5 340 231.6 336.3 231.5 336.5 263 340.1 263 340.2 271.8 341.5 271.8 341.5 263 345.2 263 345 231.6"/>
      <polygon class="cls-10" points="357.2 228.4 353.5 228.4 353.5 225.8 352.2 225.7 352.2 228.4 348.5 228.3 348.6 242.8 352.3 242.8 352.3 251.2 353.7 251.2 353.6 242.8 357.3 242.8 357.2 228.4"/>
      <polygon class="cls-13" points="369.3 207.2 365.7 207.1 365.6 199.5 364.3 199.5 364.3 207.1 360.6 207.1 360.8 231.3 364.4 231.3 364.5 239.3 365.8 239.3 365.8 231.3 369.5 231.3 369.3 207.2"/>
      <polygon class="cls-13" points="381.5 187 377.8 187 377.7 181.2 376.4 181.2 376.4 187 372.8 187 372.9 211.1 376.6 211.1 376.7 232.5 378 232.5 377.9 211.1 381.6 211.1 381.5 187"/>
      <polygon class="cls-10" points="393.6 167.6 389.9 167.6 389.9 162 388.5 161.9 388.6 167.6 384.9 167.5 385.1 209.3 388.8 209.4 388.8 219.7 390.2 219.7 390.1 209.4 393.8 209.4 393.6 167.6"/>
      <polygon class="cls-10" points="405.9 176 402.2 176 402.1 167.3 400.8 167.3 400.8 176 397.1 175.9 397.2 185.6 400.9 185.6 400.9 193.3 402.3 193.3 402.2 185.7 405.9 185.7 405.9 176"/>
      <polygon class="cls-13" points="418.1 182 414.4 181.9 414.4 173.3 413 173.3 413.1 181.9 409.4 181.9 409.5 203.8 413.2 203.8 413.2 208 414.6 208 414.5 203.8 418.2 203.8 418.1 182"/>
      <polygon class="cls-13" points="430.3 183.1 426.7 183.1 426.6 174.5 425.3 174.5 425.3 183.1 421.6 183.1 421.7 189.1 425.3 189.1 425.4 196.8 426.7 196.8 426.7 189.1 430.4 189.2 430.3 183.1"/>
      <polygon class="cls-10" points="442.5 176.4 438.8 176.4 438.8 173.8 437.5 173.8 437.5 176.4 433.8 176.4 434 211.3 437.7 211.3 437.7 220.1 439.1 220.1 439 211.4 442.7 211.4 442.5 176.4"/>
      <polygon class="cls-10" points="454.8 188.5 451.1 188.5 451.1 183.1 449.8 183.1 449.8 188.5 446.1 188.5 446.2 206.9 449.9 206.9 450 220.2 451.3 220.2 451.2 207 454.9 207 454.8 188.5"/>
    </g>
    <g>
      <rect class="cls-13" x="303.75" y="174.97" width="20.9" height="8.1" transform="translate(133.94 492.51) rotate(-89.77)"/>
      <polygon class="cls-13" points="314 210.9 329 185.1 299.2 185 314 210.9"/>
    </g>
    <g>
      <rect class="cls-10" x="427.47" y="274.43" width="20.9" height="8.1" transform="translate(157.72 715.29) rotate(-89.77)"/>
      <polygon class="cls-10" points="423.1 272.3 452.9 272.5 438.1 246.6 423.1 272.3"/>
    </g>
  </g>
  <g>
    <polygon class="cls-18" points="341.1 125.4 345.3 125.4 345.3 138.1 348.9 138.1 348.9 125.4 353.2 125.4 353.2 122.4 341.1 122.4 341.1 125.4"/>
    <path class="cls-18" d="M365.5,130.7h0c1.4-.6,2.8-1.9,2.8-3.9,0-1.4-.5-2.5-1.4-3.3-1.1-.9-2.8-1.2-5.1-1.2-1.9,0-3.6.1-4.7.3v15.5h3.5v-6.2h1.1c1.4,0,2.1.6,2.5,2.5.5,1.9.8,3.2,1.1,3.7h3.6c-.3-.6-.8-2.7-1.3-4.4-.4-1.5-1-2.5-2.1-3ZM361.9,129.4h-1.4v-4.3c.3,0,.7-.1,1.6-.1,1.6,0,2.6.7,2.6,2.2,0,1.3-1,2.2-2.8,2.2Z"/>
    <path class="cls-18" d="M376.6,122.4l-4.8,15.7h3.7l1.1-4h4.5l1.2,4h3.8l-4.9-15.7h-4.6ZM377.1,131.4l.9-3.3c.3-.9.5-2.1.7-3h0c.2.9.5,2.1.8,3l1,3.3h-3.4Z"/>
    <rect class="cls-18" x="390.2" y="122.4" width="3.6" height="15.7"/>
    <path class="cls-18" d="M408.5,127c0,2.4.1,4.5.3,6.6h-.1c-.7-1.8-1.6-3.7-2.6-5.4l-3.3-5.8h-4.2v15.7h3.3v-4.7c0-2.6,0-4.8-.1-6.9h.1c.8,1.8,1.8,3.9,2.7,5.6l3.4,6.1h3.7v-15.7h-3.3v4.5h.1Z"/>
    <rect class="cls-18" x="416.8" y="122.4" width="3.6" height="15.7"/>
    <path class="cls-18" d="M435.1,127c0,2.4.1,4.5.3,6.6h-.1c-.7-1.8-1.6-3.7-2.6-5.4l-3.3-5.8h-4.2v15.7h3.3v-4.7c0-2.6,0-4.8-.1-6.9h.1c.8,1.8,1.8,3.9,2.7,5.6l3.4,6.1h3.7v-15.7h-3.3v4.5h.1Z"/>
    <path class="cls-18" d="M450.7,131.9h2.4v3.3c-.3.1-.9.2-1.8.2-2.9,0-5-1.9-5-5.2s2.2-5.1,5.2-5.1c1.7,0,2.8.3,3.7.7l.7-2.8c-.8-.4-2.3-.8-4.4-.8-5.2,0-9,3-9,8.2,0,2.3.8,4.4,2.2,5.7,1.4,1.4,3.5,2.1,6.4,2.1,2.1,0,4.2-.5,5.3-.9v-8.3h-5.9v2.9h.2Z"/>
  </g>
  <g>
    <path class="cls-18" d="M519.2,26.5h-70.5c-5.6,0-10.1,4.5-10.1,10.1v50c0,5.6,4.5,10.1,10.1,10.1h70.5c5.6,0,10.1-4.5,10.1-10.1v-50c0-5.6-4.5-10.1-10.1-10.1Z"/>
    <g>
      <rect class="cls-10" x="453.4" y="18.6" width="3.6" height="13.7"/>
      <rect class="cls-10" x="463" y="18.6" width="3.6" height="13.7"/>
      <rect class="cls-10" x="501.4" y="18.6" width="3.6" height="13.7"/>
      <rect class="cls-10" x="511" y="18.6" width="3.6" height="13.7"/>
    </g>
    <path class="cls-10" d="M468.9,43.5h-18c-2.6,0-4.7,2.1-4.7,4.7s2.1,4.7,4.7,4.7h18c2.6,0,4.7-2.1,4.7-4.7,0-2.6-2.1-4.7-4.7-4.7Z"/>
    <path class="cls-10" d="M515.6,66.2h-64.7c-2.6,0-4.7,2.1-4.7,4.7s2.1,4.7,4.7,4.7h64.7c2.6,0,4.7-2.1,4.7-4.7,0-2.6-2.1-4.7-4.7-4.7Z"/>
    <path class="cls-10" d="M481.1,43.5c-2.6,0-4.7,2.1-4.7,4.7s2.1,4.7,4.7,4.7,4.7-2.1,4.7-4.7c.1-2.6-2.1-4.7-4.7-4.7Z"/>
  </g>
  <g>
    <circle class="cls-18" cx="361.1" cy="478.34" r="29.7"/>
    <g>
      <path class="cls-13" d="M374.6,468.9c1.9,2.7,3,6,3,9.5,0,8-5.8,14.7-13.4,16.2v13.4c15-1.5,26.7-14.2,26.7-29.5,0-7.3-2.6-13.9-7-19.1l-9.3,9.5Z"/>
      <g>
        <path class="cls-13" d="M344.7,478.4c0-1.4.2-2.7.5-4l-12.2-5.6c-1,3-1.6,6.2-1.6,9.5,0,15.4,11.7,28,26.7,29.5v-13.2c-7.6-1.4-13.4-8.1-13.4-16.2Z"/>
        <path class="cls-13" d="M335.5,463.4l12.2,5.6c3-4.2,7.9-7,13.4-7,3.4,0,6.5,1,9.1,2.7l9.3-9.6c-5.1-4-11.4-6.4-18.4-6.4-10.9,0-20.4,5.9-25.6,14.7Z"/>
      </g>
    </g>
    <g>
      <path class="cls-6" d="M366.9,476.5c-2.3,0-4.2,2-4.2,5.5s1.9,5.2,4.1,5.2,4.2-1.8,4.2-5.5c-.1-3.3-1.6-5.2-4.1-5.2ZM366.8,485.8c-1.4,0-2.3-1.7-2.3-3.9s.8-3.9,2.3-3.9c1.6,0,2.3,1.8,2.3,3.9,0,2.3-.7,3.9-2.3,3.9Z"/>
      <path class="cls-6" d="M359.6,474.5c0-3.3-1.6-5.2-4-5.2s-4.2,2-4.2,5.4,1.9,5.3,4.1,5.3c2.2,0,4.1-1.8,4.1-5.5ZM353.2,474.7c0-2.2.8-3.9,2.3-3.9,1.6,0,2.3,1.8,2.3,3.9,0,2.3-.7,4-2.3,4-1.5-.1-2.3-1.8-2.3-4Z"/>
      <polygon class="cls-6" points="365.5 469.3 355.3 487.4 356.8 487.4 367 469.3 365.5 469.3"/>
    </g>
  </g>
  <g>
    <g>
      <rect class="cls-13" x="501.8" y="486.4" width="12.4" height="19.5" transform="translate(-6.95 7.22) rotate(-.81)"/>
      <rect class="cls-13" x="483.9" y="500.3" width="12.4" height="5.8" transform="translate(-7.01 6.92) rotate(-.8)"/>
      <rect class="cls-13" x="518.7" y="478.9" width="12.4" height="26.7" transform="translate(-6.89 7.45) rotate(-.81)"/>
      <rect class="cls-13" x="535.7" y="471.5" width="12.4" height="33.8" transform="translate(-6.82 7.67) rotate(-.81)"/>
    </g>
    <g>
      <g>
        <path class="cls-18" d="M541,454.3l-1.3,1-9.6,7.6-1.8,1.4-.5.4h0l-1.2.9-1.4-1.1-5.8-4.4-2.8-2.1-1.6,2.8-6.2,10.9-1,1.7-1.8.6h0l-6.1,1.9-1.4.4-1.6.5-.1.1-2,2.1h0l-8.3,8.9-.3.3-1.3,1.4h0l-.9-.9-.4-.4c-.1.1-.2.1-.2.2-.3.3-.4.6-.6.9l2.1,2.1h0l.1.1,2.2-2.3h0l8.8-9.4h0l.6-.7.2-.2,1-1,1.4-.4h0l7.4-2.3h0l1.5-.5.8-.3,1.2-2.1,6-10.5,1-1.8,1.5,1.2.2.1.9.7,4.6,3.5,2,1.6.2.2.1.1,2-1.5h0l2.8-2.2,9.2-7.2h0l.2-.2,1.1-.8.6-.5-.9-1.1-.6.3Z"/>
        <polygon class="cls-13" points="545.3 462.4 551.5 446.9 535 449.3 545.3 462.4"/>
      </g>
      <path class="cls-13" d="M486.3,488.1c-.3-.2-.7-.4-1.1-.4h0c-.6,0-1.1.2-1.5.5-.1.1-.2.1-.2.2-.3.3-.4.6-.6.9-.1.2-.1.3-.1.5-.1,1.3.9,2.3,2.2,2.4h0c1.3.1,2.3-.9,2.4-2.2,0-.3,0-.6-.1-.9-.2-.3-.6-.7-1-1Z"/>
      <path class="cls-13" d="M497,475.5c-1.3-.1-2.3.9-2.4,2.2-.1,1.3.9,2.4,2.2,2.4,1.3.1,2.3-.9,2.4-2.2.1-1.3-.9-2.4-2.2-2.4Z"/>
      <path class="cls-13" d="M508.5,471.6c-1.3-.1-2.3.9-2.4,2.2-.1,1.3.9,2.4,2.2,2.4,1.3.1,2.3-.9,2.4-2.2.1-1.3-.9-2.4-2.2-2.4Z"/>
      <path class="cls-13" d="M526.5,464.2c-1.3-.1-2.3.9-2.4,2.2-.1,1.3.9,2.3,2.2,2.4s2.3-.9,2.4-2.2c.1-1.3-.9-2.4-2.2-2.4Z"/>
      <path class="cls-13" d="M517.3,457.5c-1.3-.1-2.4.9-2.4,2.2-.1,1.3.9,2.3,2.2,2.4s2.3-.9,2.4-2.2c0-1.3-1-2.4-2.2-2.4Z"/>
    </g>
  </g>
  <g>
    <g>
      <g>
        <rect class="cls-13" x="114.2" y="688.2" width="6.2" height="47.6"/>
        <polygon class="cls-19" points="112.2 691.4 122 691.4 124 591.9 110.2 591.9 112.2 691.4"/>
        <polygon class="cls-13" points="105.8 627.2 128.5 627.2 133.1 591.9 101.1 591.9 105.8 627.2"/>
        <g>
          <circle class="cls-19" cx="117.09" cy="734.94" r="8.4" transform="translate(-616.48 609.54) rotate(-71.25)"/>
          <circle class="cls-13" cx="117.1" cy="734.9" r="4.2"/>
        </g>
        <path class="cls-13" d="M169,707.4c-13.7-14.4-31.4-22.1-51.2-22.4h-1.2c-19.9.3-37.6,8-51.2,22.4-11.1,11.7-16,23.9-16.7,26.5-.5,1.7.6,3.5,2.3,4,.3.1.6.1.8.1,1.4,0,2.7-1,3.1-2.4.6-2.2,5.1-13.2,15.1-23.7,12.8-13.4,28.6-20.3,47.1-20.4,18.5.1,34.4,6.9,47.1,20.4,10,10.6,14.5,21.6,15.1,23.7.4,1.5,1.7,2.4,3.1,2.4.3,0,.6,0,.8-.1,1.7-.5,2.8-2.2,2.3-4-.5-2.6-5.4-14.8-16.5-26.5Z"/>
        <g>
          <path class="cls-19" d="M51.6,726.6c-4.6,0-8.4,3.7-8.4,8.4s3.7,8.4,8.4,8.4,8.4-3.7,8.4-8.4-3.8-8.4-8.4-8.4Z"/>
          <path class="cls-13" d="M51.6,730.7c-2.3,0-4.2,1.9-4.2,4.2s1.9,4.2,4.2,4.2,4.2-1.9,4.2-4.2-1.9-4.2-4.2-4.2Z"/>
        </g>
        <g>
          <circle class="cls-19" cx="182.08" cy="734.96" r="8.4" transform="translate(-571.72 663.49) rotate(-70.67)"/>
          <circle class="cls-13" cx="182.12" cy="734.86" r="4.2" transform="translate(-164 61.52) rotate(-13.29)"/>
        </g>
      </g>
      <path class="cls-19" d="M77.8,581.8c0,7.4,6,13.3,13.3,13.3h57.8c7.4,0,13.3-6,13.3-13.3v-14.6h-84.4v14.6Z"/>
      <path class="cls-1" d="M137.3,348.8c-6.3-10.9-3.2-20,.9-32,4-12-5.6-25.7-26.9-18.6-18.3-5.4-41.7,3.9-44.8,22.9-3.2,19-9.8,34.5-22.2,39.4-12.3,4.8-36.6,23.1-29.2,42.1s12.7,13.7,10.9,30.2,17.6,24.3,31.3,22.9c13.7-1.4,32.4,6,34.5,5.3s19-34.5,19-34.5c11.3.2,29.5-7.7,30.2-20.2s-7.2-16.2-.5-28.7c6.7-12.5,3.2-17.9-3.2-28.8Z"/>
      <g>
        <g>
          <path class="cls-7" d="M243.4,736.7c-5-9.1-15.9-19.7-17.4-22.8-.4-.8-.8-2.4-1.1-4.3-1.1-6.2-1.3-12.5-.7-18.7.3-2.9.6-6.1.9-9.6l-19-5.1c.4,3.2.8,6.2,1.2,9.1.8,5.7,1.4,10.7,2,14.7.5,10.6-1.6,18-3.5,21.9-2,3.9.9,7.8,1.3,10.3.4,2.5,1.4,11,1.4,11h8.5s0-9.5.4-9.5c5.9,1.2,11.1,6.5,13.3,8.6s21.9.6,22.9,0c1.5-2.7-9.8-4.5-10.2-5.6Z"/>
          <path class="cls-5" d="M243.4,736.8c-3.6.4-7.5,1.2-8.8.6-1.8-.8-14-15.9-27.3-19.6-.5,1.6-1.1,3-1.6,4.1-2,3.9.9,7.8,1.3,10.3.4,2.5,1.4,11,1.4,11h8.5s0-9.5.4-9.5c5.9,1.2,11.1,6.5,13.3,8.6s21.9.6,22.9,0c1.5-2.6-9-4.3-10.1-5.5Z"/>
        </g>
        <path class="cls-13" d="M153.6,500l-16.6-13.5-13.1-19.6-49.5,31.5s-9.7,24.5,2.7,45.4c15.3,26,100.9,22.5,100.9,22.5l22.8,137.3h37.2l1.9-49.9s30.9-97.4,27.5-120.4c-3.4-23-72.6-27.2-113.8-33.3Z"/>
        <path class="cls-18" d="M143.1,507.4c-.3,0-.5.2-.5.4,0,.3.2.5.4.5.8.1,78.1,7.3,85.5,19.7,7.5,12.5,9.9,121.9,9.9,122.6,0,.3.2.5.5.5h0c.3,0,.5-.2.5-.5-.1-3.1-2.4-110.3-10.1-123.1-7.7-12.8-83-19.8-86.2-20.1Z"/>
        <path class="cls-14" d="M183.4,562.7c-1.7,1-3.7,2.1-4.4,2.3,0-.6.4-2.3.8-3.6.5-1.9,1-3.9,1-5.1,0-.3-.2-.5-.5-.5s-.5.2-.5.5c0,1.1-.5,3.1-1,4.9-.7,2.9-1,4-.6,4.5.1.2.3.3.5.3h.1c1.1,0,4-1.7,5.2-2.5.2-.1.3-.4.2-.7-.3-.2-.6-.3-.8-.1Z"/>
        <path class="cls-8" d="M101.7,502.9c-.2.1-.4.4-.2.7,2.9,6.2,1.4,11.4.3,14-1.4,3.2-3.6,5.4-5,5.9-.3.1-.4.4-.3.6.1.2.3.3.5.3h.2c2-.7,4.3-3.3,5.6-6.4,1.2-2.7,2.7-8.2-.3-14.8-.3-.3-.6-.4-.8-.3Z"/>
        <path class="cls-18" d="M195.9,560.1c-1.5-.7-2.3-1.4-2.5-2.1-.2-.9.6-2,1.6-3.4.5-.7,1-1.4,1.5-2.2.2-.3.2-.5,0-.8-1.2-2.6-22.2-5.4-54-9.5-13.3-1.7-24.8-3.2-30-4.2-14.4-2.9-24.2-14.8-24.2-29.4,0-.3-.2-.5-.5-.5s-.5.2-.5.5c0,14.9,10.3,27.4,24.9,30.4,5.2,1.1,16.7,2.5,30.1,4.2,20.6,2.6,51.6,6.6,53.2,8.9-.5.8-1,1.4-1.4,2.1-1.1,1.5-2.1,2.9-1.7,4.2.3,1,1.2,1.9,3.1,2.7,3.8,1.7,11.6,99.4,15.6,141.1,0,.3.2.4.5.4h0c.3,0,.5-.3.4-.5-1-10.7-10.6-139.4-16.1-141.9Z"/>
      </g>
      <path class="cls-10" d="M84.5,381.7s-13,5.9-17.8,32.9,8.5,60.2,6.9,84.8h53.3s1.2-19.8,4.8-34.7c3.6-14.9,6.5-20.6,8.1-29.1s-11.7-20.6-19.8-32.8c-1-2.5-22.3-23.3-35.5-21.1Z"/>
      <path class="cls-9" d="M131,334.8c-1.1-1.6-1.1-4.9-.8-8.5.3-3.7.2-12.3-6.4-20.4.8,3.6-3.9,12.7-17.3,19.7.7,7.9-6.7,15.7-11.1,14.4l-3.8,5.4s2.7,24.6-7,36.3c0,0,8.8-2.6,35.4,21.1-10.9-14.6-8.6-36.9-5-38.5,3.7-1.6,6.2-.5,9.9-1.4s4.7-9.1,5.8-19.9c0,0,5.1-3.5,5.1-4.5s-3.7-2.2-4.8-3.7Z"/>
      <path class="cls-3" d="M121.4,327.2c-.8.1-1.4,1.3-1.3,2.7.1,1.4.8,2.5,1.6,2.5.8-.1,1.4-1.3,1.3-2.7,0-1.5-.8-2.6-1.6-2.5Z"/>
      <path class="cls-3" d="M117.2,325.1c-.3.6.4,1.1.9.7,1.1-.9,4.3-1.9,6.2-2.3.3-.1.5-.3.5-.6-.4-2.8-5.8-1.8-7.6,2.2Z"/>
      <path class="cls-9" d="M91.8,336.2c-3.5.1-6.3,3-6.2,6.5.1,3.5,3,6.3,6.5,6.2,3.5-.1,6.3-3,6.2-6.5-.1-3.5-3-6.3-6.5-6.2Z"/>
      <path class="cls-16" d="M100,352.2c4.5,14,8.8,17.7,10.9,18.6.7-6,4.3-7.5,5.5-7.7-10.3-1.4-15.8-9.4-16.4-10.9Z"/>
      <path class="cls-3" d="M109,321.3c-.2,0-.3.2-.3.4,1.1,7.1.1,12.1-2.8,14.5-2.2,1.9-5.6,2.2-10.1.8-.2-.1-.4,0-.4.2-.1.2,0,.4.2.4,2.8.9,5.3,1.1,7.3.7,1.3-.3,2.4-.8,3.4-1.6,3-2.6,4.1-7.8,3-15.2.1,0-.1-.2-.3-.2Z"/>
      <g>
        <path class="cls-7" d="M226.2,419.4c-1.1-.3-17.3,8.5-20.9,6.6-2.3-1.2-1.2-3,2.3-5.7,3.4-2.7,3.6-5.8,2.1-5.9s-5.8,4.4-9.9,4.8c-4.2.4-7.7,4.5-9.7,9.4s-1.9,11.1-6.7,15.7l14.4,4.3c1.9-7,9-7.7,12.6-8.8,3.6-1.1,11.7-5.2,12.1-7.5,1.3-1,3.7-4.4,3.7-6.4,0,0,1.1-2.4.5-3.7.8-.9.6-2.5-.5-2.8Z"/>
        <path class="cls-16" d="M225.4,422.9c-2.1,2.2-10.9,6.4-13.7,6.8-.1,0-.2.1-.2.3,0,.1.1.2.3.2h0c2.9-.4,11.8-4.7,14-6.9.1-.1.1-.3,0-.4-.2-.1-.3-.1-.4,0Z"/>
        <path class="cls-16" d="M225.2,426.1c-2.3,2.5-9.7,6.6-11.1,7.1-.1,0-.2.2-.2.3s.1.2.2.2h.1c1.4-.5,8.9-4.7,11.3-7.2.1-.1.1-.3,0-.4s-.2-.1-.3,0Z"/>
        <path class="cls-16" d="M220,432.8c-3,2.3-4.5,3-4.5,3.1-.1.1-.2.2-.1.3,0,.1.1.1.2.1h.1c.1,0,1.6-.8,4.6-3.1.1-.1.1-.2,0-.4h-.3Z"/>
      </g>
      <path class="cls-4" d="M128,465.5c-20.6-35.1-17-66.2-42-75.5-9.7,0-21.8,10.9-16.6,52.1,5.2,41.2,37.1,82,76.7,75.9,39.6-6.1,52.5-46.8,52.9-69l-15.7-4.6c-8.1,21.9-34.7,56.2-55.3,21.1Z"/>
      <path class="cls-13" d="M171.5,551h-89.4c-5,0-6.7-.7-7-.9-2-3.4.5-19.5,2.9-35.1l.3-2.2c5.8-37.8,3.1-46-7-76.6-.9-2.9-2-6-3.1-9.4-1.8-5.4-7.6-8.4-13-6.6s-8.4,7.6-6.6,13c1.1,3.4,2.1,6.5,3.1,9.5,9.5,29,11.2,34.2,6.2,67.1l-.3,2.2c-4.3,28-6.4,42.1,1.9,51.7,6.1,7.1,15.3,8,22.7,8h89.4c5.7,0,10.3-4.6,10.3-10.3-.1-5.8-4.7-10.4-10.4-10.4Z"/>
      <path class="cls-1" d="M69.3,320c-.3-.1-.6,0-.7.3l-.3.8c-10.5,24.9-10.7,25.3-30.5,32.5-22.2,8-32.1,19.6-29.4,34.5,1.8,10.3,1,18.5-2.4,22.6-1.5,1.7-3.3,2.6-5.5,2.6-.3,0-.5.2-.5.5s.2.5.5.5c2.5,0,4.7-1,6.3-3,3.6-4.3,4.6-12.8,2.7-23.4-2.6-14.3,7.1-25.5,28.7-33.3,20.2-7.3,20.4-7.8,31.1-33l.3-.8c0-.3-.1-.7-.3-.8Z"/>
      <path class="cls-1" d="M74.2,316.2c-.2-.1-.6,0-.7.2-11.5,20.8-18.5,26.6-33.7,28.2l-1.4.1c-14.7,1.5-24.5,2.5-28.9,15.7-.1.3.1.6.3.7h.2c.2,0,.4-.1.5-.4,4.2-12.6,13.2-13.5,28-15l1.4-.1c15.7-1.6,22.8-7.5,34.5-28.7.1-.2,0-.5-.2-.7Z"/>
    </g>
    <path class="cls-3" d="M120.6,350.8c-1.7,0-4.3-.5-6.4-3l1.3-1c2.5,3.2,6.3,2.3,6.4,2.3l.4,1.6c-.1-.1-.7.1-1.7.1Z"/>
  </g>
  <path class="cls-11" d="M79.7,336.9c-1.4-.3-2.6.5-2.6.5l.4.5s.9-.7,2.1-.4c.8.2,1.6.9,2.2,1.9-.8.3-2.4.9-2.7,2.1l.7.2c.3-1,2-1.6,2.6-1.8l.4-.1-.2-.4c-.8-1.4-1.7-2.3-2.9-2.5Z"/>
</svg>