<svg id="Layer_1" enable-background="new 0 0 480 480" height="512" viewBox="0 0 480 480" width="512" xmlns="http://www.w3.org/2000/svg"><path d="m126.047 175.33c-49.454 86.948 13.687 195.67 113.953 195.67 72.234 0 131-58.767 131-131 0-104.372-116.574-166.435-203.008-109.453-3.688 2.435-8.65 1.415-11.083-2.275-2.432-3.688-1.413-8.65 2.276-11.082 96.997-63.952 227.815 5.684 227.815 122.81 0 81.056-65.944 147-147 147-112.685 0-183.26-122.182-127.86-219.58 2.185-3.84 7.068-5.183 10.909-2.999s5.183 7.069 2.998 10.909zm97.953 64.67c0 8.822 7.178 16 16 16s16-7.178 16-16-7.178-16-16-16-16 7.178-16 16zm248-8h-24.169c-4.119-108.341-91.49-195.712-199.831-199.831v-24.169c0-4.418-3.582-8-8-8s-8 3.582-8 8v24.169c-108.341 4.119-195.712 91.49-199.831 199.831h-24.169c-4.418 0-8 3.582-8 8s3.582 8 8 8h24.169c4.12 108.341 91.49 195.712 199.831 199.831v24.169c0 4.418 3.582 8 8 8s8-3.582 8-8v-32c0-4.418-3.582-8-8-8-105.869 0-192-86.131-192-192s86.131-192 192-192 192 86.131 192 192c0 77.34-46.03 146.783-117.268 176.915-4.069 1.722-5.973 6.415-4.251 10.484 1.721 4.068 6.415 5.971 10.484 4.252 74.707-31.598 123.82-103.107 126.882-183.651h24.153c4.418 0 8-3.582 8-8s-3.582-8-8-8zm-232-90c-4.418 0-8 3.582-8 8v13.794c-35.875 3.739-64.467 32.331-68.206 68.206h-13.794c-4.418 0-8 3.582-8 8s3.582 8 8 8h13.794c3.739 35.875 32.331 64.467 68.206 68.206v13.794c0 4.418 3.582 8 8 8s8-3.582 8-8v-13.795c19.994-2.077 38.361-11.894 51.28-27.65 2.801-3.417 2.302-8.457-1.114-11.259-3.416-2.8-8.457-2.302-11.259 1.114-9.863 12.029-23.739 19.666-38.907 21.669v-12.829c0-4.418-3.582-8-8-8s-8 3.582-8 8v12.831c-27.039-3.583-48.498-25.042-52.081-52.081h12.831c4.418 0 8-3.582 8-8s-3.582-8-8-8h-12.831c3.583-27.039 25.042-48.498 52.081-52.081v12.831c0 4.418 3.582 8 8 8s8-3.582 8-8v-12.831c27.039 3.583 48.498 25.042 52.081 52.081h-12.831c-4.418 0-8 3.582-8 8s3.582 8 8 8h42.75c4.418 0 8-3.582 8-8s-3.582-8-8-8h-13.794c-3.739-35.875-32.331-64.467-68.206-68.206v-13.794c0-4.418-3.582-8-8-8z"/></svg>