<?xml version="1.0" encoding="UTF-8" standalone="no"?>
<!-- Created with Inkscape (http://www.inkscape.org/) -->

<svg
   version="1.1"
   id="svg3657"
   xml:space="preserve"
   width="682.66669"
   height="682.66669"
   viewBox="0 0 682.66669 682.66669"
   xmlns="http://www.w3.org/2000/svg"
   xmlns:svg="http://www.w3.org/2000/svg"><defs
     id="defs3661"><clipPath
       clipPathUnits="userSpaceOnUse"
       id="clipPath3671"><path
         d="M 0,512 H 512 V 0 H 0 Z"
         id="path3669" /></clipPath></defs><g
     id="g3663"
     transform="matrix(1.3333333,0,0,-1.3333333,0,682.66667)"><g
       id="g3665"><g
         id="g3667"
         clip-path="url(#clipPath3671)"><g
           id="g3673"
           transform="translate(385.4492,62.5234)"><path
             d="m 0,0 h 48.17 c 8.27,0 14.974,6.704 14.974,14.974 v 311.008 l -81,80.997 h -254.025 c -8.271,0 -14.975,-6.705 -14.975,-14.974 v -40.573"
             style="fill:none;stroke:#000000;stroke-width:15;stroke-linecap:round;stroke-linejoin:round;stroke-miterlimit:10;stroke-dasharray:none;stroke-opacity:1"
             id="path3675" /></g><g
           id="g3677"
           transform="translate(98.5933,379.041)"><path
             d="m 0,0 v -301.544 c 0,-8.269 6.704,-14.974 14.975,-14.974 h 48.753"
             style="fill:none;stroke:#000000;stroke-width:15;stroke-linecap:round;stroke-linejoin:round;stroke-miterlimit:10;stroke-dasharray:none;stroke-opacity:1"
             id="path3679" /></g><g
           id="g3681"
           transform="translate(98.5933,97.5215)"><path
             d="m 0,0 h -20.212 c -8.27,0 -14.975,6.704 -14.975,14.974 v 377.031 c 0,8.269 6.705,14.974 14.975,14.974 h 314.453 c 8.427,0 15.259,-6.832 15.259,-15.258 v -60.239"
             style="fill:none;stroke:#000000;stroke-width:15;stroke-linecap:round;stroke-linejoin:round;stroke-miterlimit:10;stroke-dasharray:none;stroke-opacity:1"
             id="path3683" /></g><g
           id="g3685"
           transform="translate(367.5933,469.502)"><path
             d="m 0,0 v -80.982 l 81,-0.014"
             style="fill:none;stroke:#000000;stroke-width:15;stroke-linecap:butt;stroke-linejoin:round;stroke-miterlimit:10;stroke-dasharray:none;stroke-opacity:1"
             id="path3687" /></g><g
           id="g3689"
           transform="translate(184.0679,329.0439)"><path
             d="M 0,0 H 179.422"
             style="fill:none;stroke:#000000;stroke-width:15;stroke-linecap:round;stroke-linejoin:round;stroke-miterlimit:10;stroke-dasharray:none;stroke-opacity:1"
             id="path3691" /></g><g
           id="g3693"
           transform="translate(184.0679,284.8115)"><path
             d="M 0,0 H 179.422"
             style="fill:none;stroke:#000000;stroke-width:15;stroke-linecap:round;stroke-linejoin:round;stroke-miterlimit:10;stroke-dasharray:none;stroke-opacity:1"
             id="path3695" /></g><g
           id="g3697"
           transform="translate(328.043,239.6982)"><path
             d="M 0,0 H 35.447"
             style="fill:none;stroke:#000000;stroke-width:15;stroke-linecap:round;stroke-linejoin:round;stroke-miterlimit:10;stroke-dasharray:none;stroke-opacity:1"
             id="path3699" /></g><g
           id="g3701"
           transform="translate(184.0679,239.6982)"><path
             d="M 0,0 H 108.678"
             style="fill:none;stroke:#000000;stroke-width:15;stroke-linecap:round;stroke-linejoin:round;stroke-miterlimit:10;stroke-dasharray:none;stroke-opacity:1"
             id="path3703" /></g><g
           id="g3705"
           transform="translate(273.7788,48.8887)"><path
             d="M 0,0 V 89.612"
             style="fill:none;stroke:#000000;stroke-width:15;stroke-linecap:round;stroke-linejoin:round;stroke-miterlimit:10;stroke-dasharray:none;stroke-opacity:1"
             id="path3707" /></g><g
           id="g3709"
           transform="translate(240.9814,106.7051)"><path
             d="M 0,0 32.797,32.796 65.595,0"
             style="fill:none;stroke:#000000;stroke-width:15;stroke-linecap:round;stroke-linejoin:round;stroke-miterlimit:10;stroke-dasharray:none;stroke-opacity:1"
             id="path3711" /></g><g
           id="g3713"
           transform="translate(360.478,94.1943)"><path
             d="m 0,0 c 0,47.881 -38.816,86.695 -86.699,86.695 -47.883,0 -86.699,-38.814 -86.699,-86.695 0,-47.88 38.816,-86.694 86.699,-86.694 C -38.816,-86.694 0,-47.88 0,0 Z"
             style="fill:none;stroke:#000000;stroke-width:15;stroke-linecap:round;stroke-linejoin:round;stroke-miterlimit:10;stroke-dasharray:none;stroke-opacity:1"
             id="path3715" /></g></g></g></g></svg>
