<svg xmlns="http://www.w3.org/2000/svg" version="1.1" xmlns:xlink="http://www.w3.org/1999/xlink" width="512" height="512" x="0" y="0" viewBox="0 0 66 66" style="enable-background:new 0 0 512 512" xml:space="preserve"><g><path d="M39.7 39.54a2.656 2.656 0 0 0-3.76 0L25.47 50.01c-2.61 2.61-6.75 2.82-9.43.48a6.834 6.834 0 0 1-2.33-5.13c0-1.81.7-3.52 1.99-4.8l10.63-10.63a2.656 2.656 0 0 0 0-3.76l-5-5c-1.01-1.01-2.76-1.01-3.76 0l-3.52 3.52-7.4 7.4c-7.48 7.48-7.48 19.66.01 27.15 3.74 3.74 8.66 5.61 13.57 5.61s9.83-1.87 13.57-5.61l7.4-7.4 3.52-3.52c.5-.5.78-1.17.78-1.88s-.28-1.38-.78-1.88zM18.6 22.19c.23-.23.54-.35.85-.35s.61.12.84.35l5 5c.47.47.47 1.22 0 1.69l-3.01 3.01-6.69-6.69zm14.15 36c-6.91 6.91-18.16 6.91-25.08-.01-6.91-6.91-6.91-18.16 0-25.07l6.88-6.88 6.69 6.69-6.59 6.59a8.216 8.216 0 0 0-2.42 5.84c0 2.39 1.03 4.66 2.83 6.23 3.25 2.85 8.27 2.61 11.43-.55l6.43-6.43 6.69 6.69zm10.92-10.92-3.01 3.01-6.69-6.69 3.01-3.01c.47-.47 1.23-.46 1.69 0l5 5c.47.46.47 1.22 0 1.69zM31.93 23.68c3.73 0 7.21-1.84 9.31-4.93 1.27-1.89 1.95-4.08 1.95-6.33 0-6.21-5.05-11.26-11.26-11.26S20.67 6.21 20.67 12.42a11.27 11.27 0 0 0 11.26 11.26zm0-1.47c-3.07 0-5.93-1.45-7.78-3.87a9.744 9.744 0 0 1 7.67-3.87c.04 0 .07.01.11.01s.07-.01.11-.01c3.03.03 5.85 1.47 7.67 3.87-1.85 2.42-4.71 3.87-7.78 3.87zm-2.94-10.76c-.4-.6-.62-1.29-.62-2 0-1.96 1.6-3.56 3.56-3.56s3.56 1.6 3.56 3.56c0 .71-.21 1.41-.62 2-.65.95-1.72 1.52-2.87 1.55h-.14c-1.16-.03-2.23-.6-2.87-1.55zm2.94-8.83c5.4 0 9.79 4.39 9.79 9.79 0 1.62-.42 3.19-1.18 4.61-1.46-1.75-3.4-2.99-5.56-3.6a5.016 5.016 0 0 0 1.97-3.98c0-2.77-2.25-5.02-5.02-5.02S26.9 6.68 26.9 9.45c0 1.01.3 1.98.87 2.83.31.45.68.83 1.1 1.15-2.16.61-4.1 1.85-5.56 3.6a9.752 9.752 0 0 1-1.18-4.61c0-5.4 4.4-9.8 9.8-9.8zM55.18 25.94c-5.4 0-9.79 4.39-9.79 9.79 0 1.96.59 3.87 1.69 5.51a9.793 9.793 0 0 0 8.1 4.28 9.79 9.79 0 0 0 9.79-9.8c.01-5.39-4.39-9.78-9.79-9.78zm-8.32 9.79c0-4.59 3.73-8.33 8.33-8.33s8.33 3.74 8.33 8.33c0 1.32-.33 2.61-.92 3.78a9.719 9.719 0 0 0-4.56-2.95c.31-.26.59-.56.82-.9.5-.74.76-1.6.76-2.49 0-2.44-1.98-4.42-4.42-4.42s-4.42 1.98-4.42 4.42c0 .89.26 1.75.77 2.49.23.34.51.64.82.9a9.815 9.815 0 0 0-4.56 2.96 8.068 8.068 0 0 1-.95-3.79zm8.32.4h-.06a2.94 2.94 0 0 1-2.38-1.28 2.966 2.966 0 0 1 2.45-4.63c1.63 0 2.96 1.33 2.96 2.96 0 .59-.18 1.17-.51 1.66-.54.79-1.43 1.27-2.39 1.29h-.07zm0 7.93c-2.58 0-5-1.21-6.57-3.23a8.274 8.274 0 0 1 6.47-3.23c.03 0 .06.01.09.01s.06-.01.09-.01c2.55.03 4.92 1.23 6.47 3.23a8.223 8.223 0 0 1-6.55 3.23zM47.98 18.88c1.54 2.01 3.89 3.17 6.43 3.17s4.89-1.16 6.44-3.18c.1-.13.18-.25.26-.37a8.093 8.093 0 0 0 1.41-4.55c0-4.47-3.64-8.11-8.11-8.11s-8.11 3.64-8.11 8.11c0 1.62.49 3.2 1.4 4.55.09.13.18.25.28.38zm6.43 1.71c-1.89 0-3.64-.78-4.89-2.15 1.26-1.37 3.01-2.15 4.89-2.15s3.63.78 4.89 2.15c-1.26 1.37-3 2.15-4.89 2.15zm1.88-6.76c-.42.62-1.13.99-1.88.99s-1.46-.37-1.88-.99c-.26-.38-.4-.83-.4-1.28 0-1.25 1.02-2.27 2.27-2.27s2.27 1.02 2.27 2.27c.01.46-.12.9-.38 1.28zm-1.88-6.52c3.66 0 6.64 2.98 6.64 6.65 0 1.15-.32 2.26-.89 3.27-.9-.91-1.98-1.58-3.18-1.97.19-.18.36-.38.51-.6.42-.63.65-1.35.65-2.1 0-2.06-1.68-3.74-3.74-3.74s-3.74 1.68-3.74 3.74a3.67 3.67 0 0 0 1.16 2.69c-1.19.4-2.28 1.07-3.18 1.98-.57-1-.89-2.12-.89-3.27.02-3.67 3-6.65 6.66-6.65z" fill="#ffffff" opacity="1" data-original="#000000"></path><path d="M33.62 37.54c.09.04.19.06.28.06.29 0 .56-.17.68-.45l1.98-4.74c.09-.23.07-.48-.07-.69a.745.745 0 0 0-.61-.33h-2.89l1.38-3.57c.15-.38-.04-.8-.42-.95s-.8.04-.95.42l-1.76 4.56c-.09.23-.06.48.08.68s.36.32.6.32h2.86l-1.56 3.72c-.15.38.03.81.4.97zM10.46 16.58a.735.735 0 0 0 1.2-.15l1.32-2.53 2.58 3.1c.15.17.35.26.56.26.17 0 .33-.06.47-.17a.74.74 0 0 0 .1-1.03l-3.28-3.95a.75.75 0 0 0-.64-.26c-.24.03-.46.17-.57.39l-1.34 2.56-2.52-2.88a.739.739 0 0 0-1.03-.07c-.31.28-.34.75-.08 1.05zM52.44 52.19l-2.78.79.35-3.81c.04-.4-.26-.76-.66-.8s-.76.26-.8.66l-.45 4.87c-.02.24.08.48.26.63.19.15.44.21.67.14l2.75-.78-.48 4c-.05.4.24.77.64.81h.09c.37 0 .68-.27.73-.65l.61-5.1a.732.732 0 0 0-.25-.64.848.848 0 0 0-.68-.12z" fill="#ffffff" opacity="1" data-original="#000000"></path></g></svg>