<?xml version="1.0" encoding="UTF-8"?>
<svg id="Layer_1" data-name="Layer 1" xmlns="http://www.w3.org/2000/svg" viewBox="0 0 672.9 441.26">
  <defs>
    <style>
      .cls-1 {
        fill: #000;
      }

      .cls-1, .cls-2, .cls-3, .cls-4, .cls-5, .cls-6, .cls-7, .cls-8, .cls-9, .cls-10, .cls-11, .cls-12, .cls-13 {
        stroke-width: 0px;
      }

      .cls-2 {
        fill: #e0e0e0;
      }

      .cls-3 {
        fill: #5095d0;
      }

      .cls-4 {
        fill: #664d42;
      }

      .cls-5 {
        fill: #455a64;
      }

      .cls-6 {
        fill: #45b34a;
      }

      .cls-7 {
        fill: #f5f5f5;
      }

      .cls-8 {
        fill: #ebebeb;
      }

      .cls-9 {
        fill: #1585c4;
      }

      .cls-14 {
        opacity: .3;
      }

      .cls-10 {
        fill: #263238;
      }

      .cls-11 {
        fill: #fafafa;
      }

      .cls-12 {
        fill: #fff;
      }

      .cls-13 {
        fill: #84685e;
      }
    </style>
  </defs>
  <g id="freepik--background-complete--inject-13">
    <path class="cls-2" d="M195.64,282.65c0-.4,1.25-.73,2.79-.73l-.73.73h0v-.25c0-.09,0-.18,0-.27v-.53c.03-.3.09-.6.16-.89.13-.5.31-.81.51-.81s.38.31.52.81c.07.29.12.59.15.89v1.07h0l-.73.73c-1.41,0-2.67-.35-2.67-.75Z"/>
    <path class="cls-2" d="M184.45,282.65c0-.4,1.25-.73,2.8-.73s2.79.33,2.79.73-1.25.73-2.79.73-2.8-.33-2.8-.73Z"/>
    <path class="cls-2" d="M173.26,282.65c0-.4,1.26-.73,2.8-.73s2.8.33,2.8.73-1.25.73-2.8.73-2.8-.33-2.8-.73Z"/>
    <path class="cls-2" d="M162.08,282.65c0-.4,1.25-.73,2.79-.73s2.8.33,2.8.73-1.25.73-2.8.73-2.79-.33-2.79-.73Z"/>
    <path class="cls-2" d="M150.9,282.65c0-.4,1.25-.73,2.8-.73s2.8.33,2.8.73-1.26.73-2.8.73-2.8-.33-2.8-.73Z"/>
    <path class="cls-2" d="M139.71,282.65c0-.4,1.25-.73,2.79-.73s2.8.33,2.8.73-1.25.73-2.8.73-2.79-.33-2.79-.73Z"/>
    <path class="cls-2" d="M128.52,282.65c0-.4,1.25-.73,2.8-.73s2.79.33,2.79.73-1.25.73-2.79.73-2.8-.33-2.8-.73Z"/>
    <path class="cls-2" d="M117.34,282.65c0-.4,1.25-.73,2.79-.73s2.8.33,2.8.73-1.25.73-2.8.73-2.79-.33-2.79-.73Z"/>
    <path class="cls-2" d="M106.15,282.65c0-.4,1.25-.73,2.8-.73s2.79.33,2.79.73-1.25.73-2.79.73-2.8-.33-2.8-.73Z"/>
    <path class="cls-2" d="M94.96,282.65c0-.4,1.26-.73,2.8-.73s2.8.33,2.8.73-1.26.73-2.8.73-2.8-.33-2.8-.73Z"/>
    <path class="cls-2" d="M83.78,282.65c0-.4,1.25-.73,2.79-.73s2.8.33,2.8.73-1.25.73-2.8.73-2.79-.33-2.79-.73Z"/>
    <path class="cls-2" d="M72.59,282.65c0-.4,1.25-.73,2.8-.73s2.8.33,2.8.73-1.26.73-2.8.73-2.8-.33-2.8-.73Z"/>
    <path class="cls-2" d="M61.41,282.65c0-.4,1.25-.73,2.79-.73s2.8.33,2.8.73-1.25.73-2.8.73-2.79-.33-2.79-.73Z"/>
    <path class="cls-2" d="M50.22,282.65c0-.4,1.25-.73,2.8-.73s2.79.33,2.79.73-1.25.73-2.79.73-2.8-.33-2.8-.73Z"/>
    <path class="cls-2" d="M39.04,282.65c0-.4,1.25-.73,2.79-.73s2.8.33,2.8.73-1.25.73-2.8.73-2.79-.33-2.79-.73Z"/>
    <path class="cls-2" d="M30.65,279.86c.4,0,.73,1.25.73,2.79-1.46-1.45-.41-.4-.73-.73h1.09c.3.03.59.09.88.16.51.13.82.31.82.51s-.31.38-.82.51c-.29.07-.58.13-.88.16h-1.09l-.73-.73c-.02-1.42.33-2.67.73-2.67Z"/>
    <path class="cls-2" d="M30.65,268.74c.4,0,.73,1.24.73,2.78s-.33,2.78-.73,2.78-.73-1.25-.73-2.78.33-2.78.73-2.78Z"/>
    <path class="cls-2" d="M30.65,257.62c.4,0,.73,1.25.73,2.78s-.33,2.78-.73,2.78-.75-1.24-.75-2.78.35-2.78.75-2.78Z"/>
    <path class="cls-2" d="M30.65,246.5c.4,0,.73,1.25.73,2.78s-.33,2.78-.73,2.78-.73-1.24-.73-2.78.33-2.78.73-2.78Z"/>
    <path class="cls-2" d="M30.65,235.4c.4,0,.73,1.24.73,2.78s-.33,2.78-.73,2.78-.75-1.26-.75-2.79.35-2.77.75-2.77Z"/>
    <path class="cls-2" d="M30.65,224.27c.4,0,.73,1.25.73,2.78s-.33,2.78-.73,2.78-.73-1.24-.73-2.78.33-2.78.73-2.78Z"/>
    <path class="cls-2" d="M30.65,213.15c.4,0,.73,1.25.73,2.78s-.33,2.78-.73,2.78-.73-1.24-.73-2.78.33-2.78.73-2.78Z"/>
    <path class="cls-2" d="M30.65,202.04c.4,0,.73,1.24.73,2.78s-.33,2.78-.73,2.78-.75-1.2-.75-2.78.35-2.78.75-2.78Z"/>
    <path class="cls-2" d="M30.65,190.92c.4,0,.73,1.25.73,2.78s-.33,2.78-.73,2.78-.75-1.24-.75-2.78.35-2.78.75-2.78Z"/>
    <path class="cls-2" d="M33.44,182.57c0,.4-1.25.73-2.79.73l.73-.73h0v1.06c-.03.3-.09.59-.16.88-.13.51-.31.82-.51.82s-.39-.31-.52-.82c-.07-.29-.12-.58-.15-.88v-1.06h0l.73-.73c1.42,0,2.67.33,2.67.73Z"/>
    <path class="cls-2" d="M44.63,182.57c0,.4-1.25.73-2.8.73s-2.79-.33-2.79-.73,1.25-.73,2.79-.73,2.8.33,2.8.73Z"/>
    <path class="cls-2" d="M55.81,182.57c0,.4-1.25.73-2.79.73s-2.8-.33-2.8-.73,1.25-.73,2.8-.73,2.79.33,2.79.73Z"/>
    <path class="cls-2" d="M67,182.57c0,.4-1.25.73-2.8.73s-2.79-.33-2.79-.73,1.25-.73,2.79-.73,2.8.33,2.8.73Z"/>
    <path class="cls-2" d="M78.19,182.57c0,.4-1.26.73-2.8.73s-2.8-.33-2.8-.73,1.25-.73,2.8-.73,2.8.33,2.8.73Z"/>
    <path class="cls-2" d="M89.37,182.57c0,.4-1.25.73-2.8.73s-2.79-.33-2.79-.73,1.25-.73,2.79-.73,2.8.33,2.8.73Z"/>
    <path class="cls-2" d="M100.56,182.57c0,.4-1.26.73-2.8.73s-2.8-.33-2.8-.73,1.26-.73,2.8-.73,2.8.33,2.8.73Z"/>
    <path class="cls-2" d="M111.74,182.57c0,.4-1.25.73-2.79.73s-2.8-.33-2.8-.73,1.25-.73,2.8-.73,2.79.33,2.79.73Z"/>
    <path class="cls-2" d="M122.9,182.57c0,.4-1.25.73-2.8.73s-2.79-.33-2.79-.73,1.25-.73,2.79-.73,2.8.33,2.8.73Z"/>
    <path class="cls-2" d="M134.11,182.57c0,.4-1.25.73-2.79.73s-2.8-.33-2.8-.73,1.25-.73,2.8-.73,2.79.33,2.79.73Z"/>
    <path class="cls-2" d="M145.3,182.57c0,.4-1.25.73-2.8.73s-2.79-.33-2.79-.73,1.25-.73,2.79-.73,2.8.33,2.8.73Z"/>
    <path class="cls-2" d="M156.49,182.57c0,.4-1.26.73-2.8.73s-2.8-.33-2.8-.73,1.25-.73,2.8-.73,2.8.33,2.8.73Z"/>
    <path class="cls-2" d="M167.67,182.57c0,.4-1.25.73-2.8.73s-2.79-.33-2.79-.73,1.25-.73,2.79-.73,2.8.33,2.8.73Z"/>
    <path class="cls-2" d="M178.9,182.57c0,.4-1.25.73-2.8.73s-2.8-.33-2.8-.73,1.26-.73,2.8-.73,2.8.33,2.8.73Z"/>
    <path class="cls-2" d="M190.04,182.57c0,.4-1.25.73-2.79.73s-2.8-.33-2.8-.73,1.25-.73,2.8-.73,2.79.33,2.79.73Z"/>
    <path class="cls-2" d="M198.43,185.4c-.4,0-.73-1.25-.73-2.79,1.46,1.45.41.4.73.73h-1.06c-.3-.03-.6-.09-.89-.16-.5-.13-.81-.31-.81-.51s.31-.39.81-.52c.29-.07.59-.12.89-.15l.53-.05h.56l.73.73c-.03,1.43-.36,2.72-.76,2.72Z"/>
    <path class="cls-2" d="M198.43,196.48c-.4,0-.73-1.24-.73-2.78s.33-2.78.73-2.78.73,1.25.73,2.78-.33,2.78-.73,2.78Z"/>
    <path class="cls-2" d="M198.43,207.6c-.4,0-.73-1.25-.73-2.78s.33-2.78.73-2.78.73,1.24.73,2.78-.33,2.78-.73,2.78Z"/>
    <path class="cls-2" d="M198.43,218.71c-.4,0-.73-1.24-.73-2.78s.33-2.78.73-2.78.73,1.25.73,2.78-.33,2.78-.73,2.78Z"/>
    <path class="cls-2" d="M198.43,229.83c-.4,0-.73-1.24-.73-2.78s.33-2.78.73-2.78.73,1.25.73,2.78-.33,2.78-.73,2.78Z"/>
    <path class="cls-2" d="M198.43,240.95c-.4,0-.73-1.25-.73-2.78s.33-2.78.73-2.78.73,1.24.73,2.78-.33,2.78-.73,2.78Z"/>
    <path class="cls-2" d="M198.43,252.06c-.4,0-.73-1.24-.73-2.78s.33-2.78.73-2.78.73,1.25.73,2.78-.33,2.78-.73,2.78Z"/>
    <path class="cls-2" d="M198.43,263.18c-.4,0-.73-1.24-.73-2.78s.33-2.78.73-2.78.73,1.25.73,2.78-.33,2.78-.73,2.78Z"/>
    <path class="cls-2" d="M198.43,274.3c-.4,0-.73-1.25-.73-2.78s.33-2.78.73-2.78.73,1.24.73,2.78-.33,2.78-.73,2.78Z"/>
    <rect class="cls-2" x="26.65" y="277.83" width="8" height="8"/>
    <rect class="cls-2" x="26.65" y="178.57" width="8" height="8"/>
    <rect class="cls-2" x="194.43" y="178.57" width="8" height="8"/>
    <rect class="cls-2" x="194.43" y="277.47" width="8" height="8"/>
    <rect class="cls-2" x="110.54" y="277.47" width="8" height="8"/>
    <rect class="cls-2" x="110.54" y="178.57" width="8" height="8"/>
    <rect class="cls-2" x="26.65" y="228.61" width="8" height="8"/>
    <rect class="cls-2" x="194.43" y="228.61" width="8" height="8"/>
    <path class="cls-2" d="M644.9,78.61c0-.3.94-.55,2.11-.55-1.1,1.1-.3.31-.55.55h0v-.21c0-.07,0-.14,0-.21v-.4c.03-.23.07-.45.12-.67.1-.38.24-.62.39-.62s.29.24.39.62c.05.22.09.44.12.67v.8h0c-.25.25.55-.54-.55.55-1.03.02-2.03-.22-2.03-.53Z"/>
    <path class="cls-2" d="M636.46,78.61c0-.3,1-.55,2.11-.55s2.12.25,2.12.55-.95.55-2.12.55-2.11-.24-2.11-.55Z"/>
    <path class="cls-2" d="M628.01,78.61c0-.3.95-.55,2.11-.55s2.12.25,2.12.55-1,.55-2.12.55-2.11-.24-2.11-.55Z"/>
    <path class="cls-2" d="M619.56,78.61c0-.3,1-.55,2.12-.55s2.11.25,2.11.55-.95.55-2.11.55-2.12-.24-2.12-.55Z"/>
    <path class="cls-2" d="M611.12,78.61c0-.3.94-.55,2.11-.55s2.11.25,2.11.55-1,.55-2.11.55-2.11-.24-2.11-.55Z"/>
    <path class="cls-2" d="M602.67,78.61c0-.3.94-.55,2.11-.55s2.11.25,2.11.55-.94.55-2.11.55-2.11-.24-2.11-.55Z"/>
    <path class="cls-2" d="M594.22,78.61c0-.3.95-.55,2.11-.55s2.11.25,2.11.55-.94.55-2.11.55-2.11-.24-2.11-.55Z"/>
    <path class="cls-2" d="M585.77,78.61c0-.3,1-.55,2.11-.55s2.12.25,2.12.55-1,.55-2.12.55-2.11-.24-2.11-.55Z"/>
    <path class="cls-2" d="M577.32,78.61c0-.3,1-.55,2.11-.55s2.12.25,2.12.55-.95.55-2.12.55-2.11-.24-2.11-.55Z"/>
    <path class="cls-2" d="M568.9,78.61c0-.3.95-.55,2.12-.55s2.11.25,2.11.55-1,.55-2.11.55-2.12-.24-2.12-.55Z"/>
    <path class="cls-2" d="M560.43,78.61c0-.3.94-.55,2.11-.55s2.11.25,2.11.55-.94.55-2.11.55-2.11-.24-2.11-.55Z"/>
    <path class="cls-2" d="M551.98,78.61c0-.3.94-.55,2.11-.55s2.11.25,2.11.55-.94.55-2.11.55-2.11-.24-2.11-.55Z"/>
    <path class="cls-2" d="M543.53,78.61c0-.3,1-.55,2.11-.55s2.11.25,2.11.55-.94.55-2.11.55-2.11-.24-2.11-.55Z"/>
    <path class="cls-2" d="M535.08,78.61c0-.3,1-.55,2.11-.55s2.12.25,2.12.55-.95.55-2.12.55-2.11-.24-2.11-.55Z"/>
    <path class="cls-2" d="M526.63,78.61c0-.3.95-.55,2.12-.55s2.11.25,2.11.55-1,.55-2.11.55-2.12-.24-2.12-.55Z"/>
    <path class="cls-2" d="M520.3,76.5c.3,0,.55,1,.55,2.11-1.1-1.09-.31-.3-.55-.55h.82c.23.03.45.07.67.12.38.1.62.23.62.38s-.24.29-.62.39c-.22.05-.44.09-.67.12h-.82c-.25-.24.55.55-.55-.55,0-1.07.24-2.02.55-2.02Z"/>
    <path class="cls-2" d="M520.3,68.11c.3,0,.55.94.55,2.1s-.25,2.1-.55,2.1-.55-.94-.55-2.1.24-2.1.55-2.1Z"/>
    <path class="cls-2" d="M520.3,59.71c.3,0,.55.94.55,2.1s-.25,2.1-.55,2.1-.55-.94-.55-2.1.24-2.1.55-2.1Z"/>
    <path class="cls-2" d="M520.3,51.31c.3,0,.55.94.55,2.1s-.25,2.1-.55,2.1-.55-.94-.55-2.1.24-2.1.55-2.1Z"/>
    <path class="cls-2" d="M520.3,42.92c.3,0,.55.94.55,2.1s-.25,2.1-.55,2.1-.55-.94-.55-2.1.24-2.1.55-2.1Z"/>
    <path class="cls-2" d="M520.3,34.52c.3,0,.55.94.55,2.1s-.25,2.1-.55,2.1-.55-.94-.55-2.1.24-2.1.55-2.1Z"/>
    <path class="cls-2" d="M520.3,26.13c.3,0,.55.94.55,2.1s-.25,2.09-.55,2.09-.55-.94-.55-2.09.24-2.1.55-2.1Z"/>
    <path class="cls-2" d="M520.3,17.73c.3,0,.55.94.55,2.1s-.25,2.1-.55,2.1-.55-.94-.55-2.1.24-2.1.55-2.1Z"/>
    <path class="cls-2" d="M520.3,9.33c.3,0,.55.94.55,2.1s-.25,2.1-.55,2.1-.55-.94-.55-2.1.24-2.1.55-2.1Z"/>
    <path class="cls-2" d="M522.41,3.02c0,.31-1,.55-2.11.55,1.1-1.09.3-.3.55-.54h0v.8c-.02.23-.05.45-.11.67-.1.38-.24.62-.39.62s-.29-.24-.39-.62c-.05-.22-.09-.44-.12-.67v-.8h0c.24-.25-.55.54.55-.55,1.07,0,2.02.24,2.02.54Z"/>
    <path class="cls-2" d="M530.9,3.02c0,.31-1,.55-2.11.55s-2.12-.24-2.12-.55.95-.54,2.12-.54,2.11.24,2.11.54Z"/>
    <path class="cls-2" d="M539.31,3.02c0,.31-.95.55-2.12.55s-2.11-.24-2.11-.55,1-.54,2.11-.54,2.12.24,2.12.54Z"/>
    <path class="cls-2" d="M547.75,3.02c0,.31-.94.55-2.11.55s-2.11-.24-2.11-.55,1-.54,2.11-.54,2.11.24,2.11.54Z"/>
    <path class="cls-2" d="M556.2,3.02c0,.31-.94.55-2.11.55s-2.11-.24-2.11-.55.94-.54,2.11-.54,2.11.24,2.11.54Z"/>
    <path class="cls-2" d="M564.65,3.02c0,.31-1,.55-2.11.55s-2.11-.24-2.11-.55.94-.54,2.11-.54,2.11.24,2.11.54Z"/>
    <path class="cls-2" d="M573.1,3.02c0,.31-1,.55-2.11.55s-2.12-.24-2.12-.55.95-.54,2.12-.54,2.11.24,2.11.54Z"/>
    <path class="cls-2" d="M581.55,3.02c0,.31-.95.55-2.11.55s-2.12-.24-2.12-.55,1-.54,2.12-.54,2.11.24,2.11.54Z"/>
    <path class="cls-2" d="M590,3.02c0,.31-1,.55-2.12.55s-2.11-.24-2.11-.55,1-.54,2.11-.54,2.12.24,2.12.54Z"/>
    <path class="cls-2" d="M598.44,3.02c0,.31-.94.55-2.11.55s-2.11-.24-2.11-.55.95-.54,2.11-.54,2.11.24,2.11.54Z"/>
    <path class="cls-2" d="M606.9,3.02c0,.31-.94.55-2.11.55s-2.11-.24-2.11-.55.94-.54,2.11-.54,2.11.24,2.11.54Z"/>
    <path class="cls-2" d="M615.34,3.02c0,.31-1,.55-2.11.55s-2.11-.24-2.11-.55.94-.54,2.11-.54,2.11.24,2.11.54Z"/>
    <path class="cls-2" d="M623.79,3.02c0,.31-.95.55-2.11.55s-2.12-.24-2.12-.55,1-.54,2.12-.54,2.11.24,2.11.54Z"/>
    <path class="cls-2" d="M632.24,3.02c0,.31-1,.55-2.12.55s-2.11-.24-2.11-.55.95-.54,2.11-.54,2.12.24,2.12.54Z"/>
    <path class="cls-2" d="M640.69,3.02c0,.31-.95.55-2.12.55s-2.11-.24-2.11-.55,1-.54,2.11-.54,2.12.24,2.12.54Z"/>
    <path class="cls-2" d="M647.02,5.14c-.3,0-.55-1-.55-2.11l.55.54h-.82c-.23-.03-.45-.07-.67-.12-.38-.1-.62-.23-.62-.39s.24-.28.62-.38c.22-.05.44-.09.67-.12h.82c.25.24-.55-.55.55.55,0,1.08-.25,2.03-.55,2.03Z"/>
    <path class="cls-2" d="M647.02,13.53c-.3,0-.55-.94-.55-2.1s.25-2.1.55-2.1.55.94.55,2.1-.25,2.1-.55,2.1Z"/>
    <path class="cls-2" d="M647.02,21.93c-.3,0-.55-.94-.55-2.1s.25-2.1.55-2.1.55.94.55,2.1-.25,2.1-.55,2.1Z"/>
    <path class="cls-2" d="M647.02,30.32c-.3,0-.55-.94-.55-2.09s.25-2.1.55-2.1.55.94.55,2.1-.25,2.09-.55,2.09Z"/>
    <path class="cls-2" d="M647.02,38.72c-.3,0-.55-.94-.55-2.1s.25-2.1.55-2.1.55.94.55,2.1-.25,2.1-.55,2.1Z"/>
    <path class="cls-2" d="M647.02,47.12c-.3,0-.55-.94-.55-2.1s.25-2.1.55-2.1.55.94.55,2.1-.25,2.1-.55,2.1Z"/>
    <path class="cls-2" d="M647.02,55.51c-.3,0-.55-.94-.55-2.1s.25-2.1.55-2.1.55.94.55,2.1-.25,2.1-.55,2.1Z"/>
    <path class="cls-2" d="M647.02,63.91c-.3,0-.55-.94-.55-2.1s.25-2.1.55-2.1.55.94.55,2.1-.25,2.1-.55,2.1Z"/>
    <path class="cls-2" d="M647.02,72.31c-.3,0-.55-.94-.55-2.1s.25-2.1.55-2.1.55.94.55,2.1-.25,2.1-.55,2.1Z"/>
    <rect class="cls-2" x="517.28" y="74.97" width="6.04" height="6.04"/>
    <rect class="cls-2" x="517.28" width="6.04" height="6.04"/>
    <rect class="cls-2" x="644" width="6.04" height="6.04"/>
    <rect class="cls-2" x="644" y="74.7" width="6.04" height="6.04"/>
    <rect class="cls-2" x="580.64" y="74.7" width="6.04" height="6.04"/>
    <rect class="cls-2" x="580.64" width="6.04" height="6.04"/>
    <rect class="cls-2" x="517.28" y="37.8" width="6.04" height="6.04"/>
    <rect class="cls-2" x="644" y="37.8" width="6.04" height="6.04"/>
    <polygon class="cls-2" points="7.1 22.57 93.98 22.57 93.98 148.53 7.7 148.53 7.1 22.57"/>
    <rect class="cls-12" x=".59" y="23.17" width="86.08" height="124.77"/>
    <path class="cls-2" d="M87.26,22.57v126H0V22.57h87.26ZM86.08,147.34V23.76H1.18v123.58h84.9Z"/>
    <rect class="cls-12" x="11.28" y="36.68" width="64.69" height="97.74"/>
    <path class="cls-2" d="M11.28,36.68v7.24c0,4.69,0,11.52.08,20.14,0,17.24.08,41.64.14,70.36l-.29-.28h64.69l-.3.31c0-36.87,0-70.86.06-97.74l.24.24-47-.16-13-.06h-4.61,4.51l13-.06,47.17-.27h.25v.25c0,26.88,0,60.87.06,97.74v.31H11v-.3c.06-28.8.11-53.26.14-70.55,0-8.59.06-15.39.08-20.07v-6.67c0-.35.06-.43.06-.43Z"/>
    <path class="cls-2" d="M.35,147.93c.37-.77.84-1.49,1.39-2.14.92-1.28,2.22-3,3.73-4.89s2.92-3.53,4-4.69c.53-.67,1.14-1.28,1.81-1.81.13.12-2.34,3.12-5.33,6.86s-5.46,6.78-5.6,6.67Z"/>
    <path class="cls-2" d="M.59,23.16c2.01,2.06,3.88,4.26,5.59,6.57,2.95,3.73,5.24,6.84,5.1,7-2.01-2.06-3.88-4.26-5.59-6.57-2.95-3.76-5.24-6.89-5.1-7Z"/>
    <path class="cls-12" d="M86.68,23.26l-11.27,13.91"/>
    <path class="cls-2" d="M75.41,37.17c-.14-.1,2.28-3.3,5.39-7.14,1.81-2.39,3.77-4.65,5.88-6.77.13.11-2.28,3.31-5.4,7.15s-5.74,6.87-5.87,6.76Z"/>
    <path class="cls-2" d="M86.67,147.93c-.13.11-2.61-2.8-5.53-6.49s-5.18-6.77-5-6.88,2.61,2.8,5.53,6.5c1.82,2.17,3.5,4.47,5,6.87Z"/>
    <path class="cls-2" d="M47.8,86.98h-11.38l-1.36,3.13c-.38.81-.61,1.69-.66,2.59-.05.82.37,1.6,1.09,2,1.01.37,2.08.56,3.16.57v.88h-10.75v-.88c1.09-.13,2.1-.64,2.85-1.44,1.16-1.47,2.09-3.11,2.76-4.86l11.56-25.71h.45l11.62,26.43c.64,1.72,1.58,3.31,2.76,4.71.64.54,1.44.84,2.28.86v.88h-15.62v-.88h.65c.91.08,1.82-.1,2.63-.52.35-.25.55-.67.53-1.1,0-.3-.05-.6-.15-.88,0-.14-.27-.73-.71-1.78l-1.71-4ZM46.99,85.22l-4.8-11.1-4.94,11.1h9.74Z"/>
    <polygon class="cls-7" points="583.76 361.6 583.76 386.79 620.61 386.79 661.24 386.79 661.24 361.6 583.76 361.6"/>
    <polygon class="cls-2" points="580.51 354.56 580.51 361.6 663.95 361.6 663.95 354.56 620.61 354.56 580.51 354.56"/>
    <polygon class="cls-2" points="622.23 386.79 661.24 386.79 661.24 361.6 663.95 361.6 663.95 354.56 620.61 354.56 620.61 360.95 622.23 386.79"/>
    <rect class="cls-2" x="594.6" y="365.66" width="15.71" height="3.79"/>
    <rect class="cls-12" x="592.58" y="374.2" width="20.18" height="8.01"/>
    <path class="cls-2" d="M672.9,440.95l-1.63-345.06h-6.68v68h-17.28l-.32-68h-6.68v68h-59.36l-.32-68h-6.68v68h-17.21l-.32-68h-6.68v345.06h8.31l-.22-46.31h16.12v46.31h8.3l-.21-46.31h58.27v46.31h8.31l-.22-46.31h16.17v46.31h8.33ZM565.47,348.95l-6-25.58h12.26l-6.26,25.58ZM573.97,324.95v60.41l-7.24-31,7.24-29.41ZM573.97,237.13l-7.24-31,7.24-29.43v60.43ZM572.67,242.68h-14.93l7.65-31.13,7.28,31.13ZM565.47,200.68l-6.86-29.28h14l-7.14,29.28ZM564.14,206.09l-7.05,28.68-.28-60.1,7.33,31.42ZM557.5,325.97l6.62,28.36-6.36,25.88-.26-54.24ZM565.38,359.75l6.39,27.35h-13.11l6.72-27.35ZM557.72,315.75l-.05-.23-.21.05-.31-65.44h16.8v65.67l-16.23-.05ZM581.35,250.13h59v65.67h-58.69l-.31-65.67ZM655.55,211.46l7.26,31.13h-14.91l7.65-31.13ZM647.64,233.05l-.27-56.6,6.91,29.58-6.64,27.02ZM664.57,239.05l-7.7-33,7.7-31.33v64.33ZM664.57,242.49v.11h-.46l.46-.11ZM664.57,326.66v56.74l-6.79-29.1,6.79-27.64ZM656.57,348.88l-6-25.58h12.23l-6.23,25.58ZM655.66,200.64l-6.89-29.24h14l-7.11,29.24ZM664.66,250.14v65.66h-15.87l-.06-.23-.7.16-.31-65.55,16.94-.04ZM655.28,354.29l-6.84,27.84-.28-58.35,7.12,30.51ZM656.54,359.71l6.39,27.35h-13.2l6.81-27.35ZM640.31,171.4v71.25h-59l-.33-71.25h59.33ZM583.07,387.1h-1.07l-.3-63.76h58.61v63.76h-57.24Z"/>
    <rect class="cls-2" x="624.1" y="191.5" width="11.04" height="51.43"/>
    <path class="cls-11" d="M632.03,230.59c0,1.21-.97,2.19-2.18,2.2-1.21,0-2.19-.97-2.2-2.18,0-1.21.97-2.19,2.18-2.2,0,0,0,0,.01,0,1.21,0,2.18.97,2.19,2.18Z"/>
    <rect class="cls-11" x="628.06" y="205.13" width="3.38" height="21.02"/>
    <rect class="cls-8" x="612.89" y="191.5" width="11.04" height="51.43"/>
    <path class="cls-11" d="M620.82,230.59c0,1.21-.97,2.19-2.18,2.2-1.21,0-2.19-.97-2.2-2.18,0-1.21.97-2.19,2.18-2.2,0,0,0,0,.01,0,1.21,0,2.18.97,2.19,2.18Z"/>
    <rect class="cls-11" x="616.85" y="205.13" width="3.38" height="21.02"/>
    <rect class="cls-7" x="602.22" y="191.5" width="11.04" height="51.43"/>
    <path class="cls-2" d="M610.14,230.59c0,1.21-.97,2.19-2.18,2.2-1.21,0-2.19-.97-2.2-2.18,0-1.21.97-2.19,2.18-2.2,0,0,.01,0,.02,0,1.2,0,2.18.98,2.18,2.18Z"/>
    <rect class="cls-2" x="606.18" y="205.13" width="3.38" height="21.02"/>
    <polygon class="cls-7" points="588.57 242.15 601.83 196.9 597.26 194.9 583.66 240.51 588.57 242.15"/>
    <polygon class="cls-7" points="568.92 315.8 568.92 308.02 623.93 308.02 624.1 315.8 568.92 315.8"/>
    <path class="cls-12" d="M623.96,309.29s-48.79.36-51.95,1.1c-.68.16-1.37,3.15,0,3.43s51.95.68,51.95.68v-5.21Z"/>
    <polygon class="cls-8" points="575.31 307.71 575.31 299.92 618.89 299.92 619.03 307.71 575.31 307.71"/>
    <path class="cls-11" d="M618.9,301.19s-38.64.36-41.15,1.1c-.54.17-1.08,3.16,0,3.43s41.15.68,41.15.68v-5.21Z"/>
    <polygon class="cls-2" points="575.12 300.01 575.12 292.23 618.69 292.23 618.83 300.01 575.12 300.01"/>
    <path class="cls-11" d="M618.71,293.5s-38.64.36-41.14,1.1c-.54.16-1.09,3.16,0,3.43s41.14.69,41.14.69v-5.22Z"/>
    <rect class="cls-7" x="629.06" y="113.41" width="11.04" height="51.43"/>
    <path class="cls-2" d="M636.98,152.5c0,1.21-.97,2.19-2.18,2.2-1.21,0-2.19-.97-2.2-2.18,0-1.21.97-2.19,2.18-2.2,0,0,.01,0,.02,0,1.2,0,2.17.98,2.18,2.18Z"/>
    <rect class="cls-2" x="633.01" y="127.03" width="3.38" height="21.02"/>
    <rect class="cls-8" x="617.85" y="113.41" width="11.03" height="51.43"/>
    <path class="cls-11" d="M625.77,152.5c0,1.21-.97,2.19-2.18,2.2-1.21,0-2.19-.97-2.2-2.18,0-1.21.97-2.19,2.18-2.2,0,0,.01,0,.02,0,1.2,0,2.17.98,2.18,2.18Z"/>
    <rect class="cls-11" x="621.8" y="127.03" width="3.37" height="21.02"/>
    <rect class="cls-2" x="607.17" y="113.41" width="11.04" height="51.43"/>
    <path class="cls-11" d="M615.1,152.5c0,1.21-.97,2.19-2.18,2.2-1.21,0-2.19-.97-2.2-2.18,0-1.21.97-2.19,2.18-2.2,0,0,0,0,.01,0,1.21,0,2.18.97,2.19,2.18Z"/>
    <rect class="cls-11" x="611.13" y="127.03" width="3.38" height="21.02"/>
    <path class="cls-7" d="M64.06,432.49c-1.32-1.14-4.29-4.75-2-8.94.84-1.54,2.61-2.3,4.22-3,1.66-.56,3.22-1.37,4.64-2.4,2.51-2.14,3.2-5.69,4.87-8.54,1.92-3.27,5.49-5.73,9.26-5.55,4.33.19,7.93,3.72,9.57,7.75s1.69,8.5,1.72,12.84c0,2.41-.09,5.12-1.85,6.74s-4.08,1.52-6.28,1.45l-23.63-.73"/>
    <path class="cls-2" d="M109.25,367.52h-62.13l11.19,66.74c.48,2.84,2.54,5.15,5.31,5.94l.21.06c.18.06.37.1.56.14.41.09.84.14,1.26.15v.06h28c.51,0,1.02-.05,1.52-.15,3.32-.51,5.9-3.18,6.28-6.52l5.4-46,.24-1.83h0l2.14-18.21.02-.38ZM97.53,410.09h-6.38l.65-19.37h7.39l-1.66,19.37ZM99.8,390.72h6.1l-2.27,19.37h-5.49l1.66-19.37ZM81.59,431.56l-.39-16.82h9.18l-.56,16.82h-8.23ZM71.66,414.74h8.92l.39,16.82h-8l-1.31-16.82ZM72.35,431.56h-7.45c-.71-4.54-1.64-10.44-2.64-16.82h8.81l1.28,16.82ZM71.35,410.09l-1.51-19.37h10.24l.45,19.37h-9.18ZM81.14,410.09l-.44-19.37h10.53l-.64,19.37h-9.45ZM80.59,386.09l-.41-17.94h11.72l-.6,17.94h-10.71ZM79.97,386.09h-10.54l-1.39-17.94h11.47l.46,17.94ZM68.87,386.09h-11.15c-.4-2.48-.77-4.82-1.1-6.93-1.16-7.26-1.6-10-1.84-11h12.64l1.45,17.93ZM69.23,390.73l1.5,19.37h-9.23c-.31-2-.62-3.95-.93-5.94-.72-4.57-1.44-9.14-2.12-13.43h10.78ZM60.9,410.09h-6l-3.24-19.37h6.19c.92,5.99,1.97,12.68,3.05,19.37ZM61.63,414.74c.91,5.82,1.81,11.56,2.64,16.82h-5.79l-2.82-16.82h5.97ZM90.46,431.56l.56-16.82h6.13l-1.43,16.82h-5.26ZM91.97,386.08l.6-17.94h8.56l-1.53,17.94h-7.63ZM54.19,368.14c.25,1.3,1.38,8.36,2.9,17.94h-6.19l-3-17.94h6.29ZM101.12,431.56h-4.81l1.44-16.82h5.34l-1.97,16.82ZM106.45,386.08h-6.25l1.53-17.94h6.83l-2.11,17.94Z"/>
  </g>
  <g id="freepik--Screen--inject-13">
    <polygon class="cls-11" points="559.72 12.13 113.78 12.13 113.78 272.49 355.69 272.49 371.83 287.28 385.78 272.49 559.72 272.49 559.72 12.13"/>
    <rect class="cls-2" x="113.78" y="12.13" width="445.95" height="19.24"/>
    <circle class="cls-10" cx="124.84" cy="22.09" r="2.5"/>
    <circle class="cls-10" cx="134.14" cy="22.09" r="2.5"/>
    <circle class="cls-10" cx="143.44" cy="22.09" r="2.5"/>
    <path class="cls-10" d="M337.37,53.56c0,.14-8.8.26-19.66.26s-19.66-.12-19.66-.26,8.8-.26,19.66-.26,19.66.1,19.66.26Z"/>
    <path class="cls-10" d="M389.66,53.56c0,.14-8.8.26-19.65.26s-19.66-.12-19.66-.26,8.8-.26,19.66-.26,19.65.1,19.65.26Z"/>
    <path class="cls-10" d="M441.96,53.56c0,.14-8.8.26-19.66.26s-19.66-.12-19.66-.26,8.8-.26,19.66-.26,19.66.1,19.66.26Z"/>
    <path class="cls-10" d="M494.71,53.56c0,.14-8.8.26-19.65.26s-19.66-.12-19.66-.26,8.8-.26,19.66-.26,19.65.1,19.65.26Z"/>
    <path class="cls-9" d="M183.5,74.12v13.36c0,1.3,1.04,2.35,2.34,2.36,0,0,.01,0,.02,0h15.12l3.78,4.81,4.14-4.63h15.73c1.3,0,2.36-1.06,2.36-2.36v-13.61c0-1.3-1.06-2.36-2.36-2.36l-38.78.07c-1.3,0-2.35,1.06-2.35,2.36Z"/>
    <path class="cls-12" d="M192.59,84.74h-2.26v-2.13l5.22-5.71h.1c.57-.23,1.21-.14,1.69.24.43.51.6,1.19.46,1.84v.1l-5.21,5.66ZM191.08,83.99h1.18l4.82-5.27c.05-.35-.03-.71-.24-1-.26-.17-.59-.21-.89-.1l-4.87,5.33v1.04Z"/>
    <path class="cls-12" d="M207.36,83.3v.74h-4.31v-5.94h4.2v.74h-3.35v1.83h3v.73h-3v1.91h3.46Z"/>
    <path class="cls-12" d="M212.81,77.75v6.29h-.78v-.71c-.38.5-.98.79-1.61.76-1.27-.08-2.23-1.18-2.14-2.45.08-1.15.99-2.07,2.14-2.14.61-.02,1.2.25,1.57.73v-2.48h.82ZM212,81.75c.14-.83-.43-1.61-1.25-1.75-.83-.14-1.61.43-1.75,1.25-.03.16-.03.33,0,.49-.14.83.43,1.61,1.25,1.75.83.14,1.61-.43,1.75-1.25.03-.16.03-.33,0-.49Z"/>
    <path class="cls-12" d="M214.21,78.16c0-.3.24-.54.54-.54,0,0,0,0,.01,0,.29-.02.53.2.55.49,0,.01,0,.02,0,.03,0,.3-.25.55-.55.55s-.55-.25-.55-.55v.02ZM214.35,79.55h.82v4.49h-.82v-4.49Z"/>
    <path class="cls-12" d="M219.25,83.78c-.29.22-.64.33-1,.31-.7.09-1.34-.41-1.43-1.11-.01-.09-.01-.19,0-.29v-2.47h-.76v-.67h.76v-1h.82v1h1.29v.67h-1.29v2.43c0,.49.25.76.7.76.23,0,.46-.07.64-.22l.27.59Z"/>
    <path class="cls-9" d="M294.83,242.21h-147.46V94.32h147.46v147.89ZM148.37,241.21h145.46V95.32h-145.46v145.89Z"/>
    <path class="cls-6" d="M222.72,244.55h-5.09v-5h5.09v5ZM218.63,243.55h3.09v-3h-3.09v3Z"/>
    <path class="cls-6" d="M296.9,163.23h-5.09v-5h5.09v5ZM292.81,162.23h3.09v-3h-3.09v3Z"/>
    <path class="cls-6" d="M149.9,163.23h-5.1v-5h5.1v5ZM145.81,162.23h3.09v-3h-3.1v3Z"/>
    <path class="cls-9" d="M518.97,170.95h-195.72v-47.25h195.72v47.25ZM324.25,169.95h193.72v-45.25h-193.72v45.25Z"/>
    <path class="cls-10" d="M520.38,190.18c0,.14-42.7.26-95.37.26s-95.38-.12-95.38-.26,42.69-.26,95.38-.26,95.37.12,95.37.26Z"/>
    <path class="cls-2" d="M519.36,219.2c0,.15-42.71.27-95.38.27s-95.38-.12-95.38-.27,42.7-.26,95.38-.26,95.38.12,95.38.26Z"/>
    <path class="cls-2" d="M519.36,226.88c0,.14-42.71.26-95.38.26s-95.38-.12-95.38-.26,42.7-.26,95.38-.26,95.38.11,95.38.26Z"/>
    <path class="cls-10" d="M426.23,200.25c0,.15-21.63.26-48.3.26s-48.3-.11-48.3-.26,21.62-.26,48.3-.26,48.3.12,48.3.26Z"/>
    <path class="cls-10" d="M537.9,251.66h-5v-1h5v1ZM527.9,251.66h-5v-1h5v1ZM517.9,251.66h-5v-1h5v1ZM507.9,251.66h-5v-1h5v1ZM538.4,250.56h-1v-5h1v5ZM499.5,250.06h-1v-5h1v5ZM538.4,240.56h-1v-5h1v5ZM499.5,240.06h-1v-5h1v5ZM538.4,230.56h-1v-5h1v5ZM499.5,230.06h-1v-5h1v5ZM538.4,220.56h-1v-5h1v5ZM499.5,220.06h-1v-5h1v5ZM536.2,212.76h-5v-1h5v1ZM526.2,212.76h-5v-1h5v1ZM516.2,212.76h-5v-1h5v1ZM506.2,212.76h-5v-1h5v1Z"/>
    <path class="cls-10" d="M499.29,216.4c-2.03,0-3.68-1.65-3.68-3.68s1.65-3.68,3.68-3.68,3.68,1.65,3.68,3.68h0c0,2.03-1.65,3.68-3.68,3.68ZM499.29,210.05c-1.48,0-2.68,1.2-2.68,2.68s1.2,2.68,2.68,2.68,2.68-1.2,2.68-2.68h0c-.02-1.47-1.22-2.65-2.68-2.65v-.03Z"/>
    <path class="cls-10" d="M537.65,216.4c-2.03,0-3.68-1.65-3.68-3.68s1.65-3.68,3.68-3.68,3.68,1.65,3.68,3.68h0c0,2.03-1.65,3.68-3.68,3.68ZM537.65,210.05c-1.48,0-2.68,1.2-2.68,2.68s1.2,2.68,2.68,2.68,2.68-1.2,2.68-2.68h0c-.02-1.47-1.22-2.65-2.68-2.65v-.03Z"/>
    <path class="cls-10" d="M499.29,255.88c-2.03,0-3.68-1.65-3.68-3.68s1.65-3.68,3.68-3.68c2.03,0,3.68,1.65,3.68,3.68h0c0,2.04-1.65,3.68-3.68,3.68ZM499.29,249.53c-1.48,0-2.68,1.2-2.68,2.68s1.2,2.68,2.68,2.68c1.48,0,2.68-1.2,2.68-2.68h0c0-1.48-1.2-2.68-2.68-2.68Z"/>
    <path class="cls-10" d="M537.65,255.88c-2.03,0-3.68-1.65-3.68-3.68s1.65-3.68,3.68-3.68c2.03,0,3.68,1.65,3.68,3.68h0c0,2.04-1.65,3.68-3.68,3.68ZM537.65,249.53c-1.48,0-2.68,1.2-2.68,2.68s1.2,2.68,2.68,2.68c1.48,0,2.68-1.2,2.68-2.68h0c0-1.48-1.2-2.68-2.68-2.68Z"/>
    <path class="cls-10" d="M517.6,224.6h-7.2v-3.41h18.43v3.41h-7.2v18.31h-4l-.03-18.31Z"/>
    <path class="cls-10" d="M540.54,59.81s.34,0,.94-.16c.88-.21,1.67-.7,2.26-1.38.43-.49.74-1.06.9-1.69.15-.76.2-1.54.14-2.32-.11-1.64.39-3.79-1.1-5.35-.72-.8-1.72-1.3-2.8-1.38h-29.95c-1.55,0-2.96.87-3.67,2.25-.34.67-.5,1.41-.46,2.16v2.33c-.05.74,0,1.48.14,2.2.18.67.53,1.3,1,1.81.49.51,1.1.9,1.78,1.12.65.16,1.33.22,2,.18l15,.06,10.1.08h3.7c-.08.01-.16.01-.24,0h-.71l-2.75.05-10.1.09-15,.05c-.74.05-1.48-.02-2.19-.2-1.53-.46-2.71-1.67-3.12-3.21-.11-.39-.16-.79-.17-1.19v-3.33c-.14-2.58,1.84-4.79,4.42-4.92.08,0,.16,0,.24,0h29.98c1.16.11,2.23.66,3,1.53.71.8,1.11,1.82,1.13,2.89v2.71c.05.8-.01,1.6-.19,2.38-.46,1.58-1.76,2.78-3.38,3.12-.29.09-.6.13-.9.13Z"/>
    <rect class="cls-9" x="229.22" y="71.69" width="27.03" height="18.27" rx="3.51" ry="3.51"/>
    <path class="cls-12" d="M241.38,84.53h-6v-7.36h6v7.36ZM236.38,83.53h4v-5.36h-4v5.36Z"/>
    <rect class="cls-12" x="237.39" y="76.3" width="1.96" height="1.28"/>
    <rect class="cls-12" x="234.45" y="77.12" width="7.84" height="1"/>
    <path class="cls-12" d="M252.03,77.85c0,.55-.45,1-1,1s-1-.45-1-1,.45-1,1-1,1,.45,1,1Z"/>
    <path class="cls-12" d="M252.03,80.51c0,.55-.45,1-1,1s-1-.45-1-1,.45-1,1-1,1,.45,1,1Z"/>
    <path class="cls-12" d="M252.03,83.17c0,.55-.45,1-1,1s-1-.45-1-1,.45-1,1-1,1,.45,1,1Z"/>
    <g class="cls-14">
      <path class="cls-12" d="M245.82,71.69h6.92c1.94,0,3.51,1.57,3.51,3.51h0v11.25c0,1.94-1.57,3.51-3.51,3.51h-6.92v-18.27h0Z"/>
    </g>
    <rect class="cls-5" x="157.41" y="104.49" width="127.39" height="123.24"/>
    <g class="cls-14">
      <polygon class="cls-1" points="167.29 217.19 202.53 153.77 231.35 194.3 248.86 172.78 274.92 217.19 167.29 217.19"/>
    </g>
    <g class="cls-14">
      <path class="cls-1" d="M243.63,141.4c0,5.06-4.1,9.17-9.16,9.18s-9.17-4.1-9.18-9.16c0-5.06,4.1-9.17,9.16-9.18h0c5.06,0,9.16,4.1,9.17,9.16Z"/>
    </g>
    <g class="cls-14">
      <path class="cls-1" d="M274.9,114.18l-107.62-.09c.12-.13-1.16,1.16-.62.63v54.22c0,17.26,0,33.58.06,48.59v.53h.53l78.16-.27,21.83-.14,5.72-.06h1.45c.16.01.31.01.47,0h-2.04l-5.82-.06-22-.14-77.29-.27c0-14.86,0-31,.05-48.06v-53.76l106.51-.08c.11,30.55.2,56,.27,73.89.05,9,.1,16,.13,20.93,0,2.39.02,4.24.06,5.55v1.44c-.01.17-.01.33,0,.5.01-.15.01-.3,0-.45v-1.38c0-1.28,0-3.1.06-5.44,0-4.86.08-11.89.13-20.82.07-18.08.16-43.83.27-74.74v-.52h-.31Z"/>
    </g>
    <rect class="cls-9" x="339.2" y="98.82" width="147.78" height="18.22" rx="4.08" ry="4.08"/>
    <g class="cls-14">
      <rect class="cls-12" x="343.82" y="102.24" width="48.26" height="10.72"/>
    </g>
    <path class="cls-12" d="M348.78,106.22h-1.74v-.63h4.19v.63h-1.73v4.44h-.72v-4.44Z"/>
    <path class="cls-12" d="M351.7,105.64c0-.26.21-.47.47-.47s.47.21.47.47h0c0,.26-.21.47-.47.47s-.47-.21-.47-.47ZM351.82,106.82h.7v3.84h-.7v-3.84Z"/>
    <path class="cls-12" d="M356,110.4c-.24.18-.54.28-.84.27-.6.07-1.15-.36-1.22-.97,0-.08,0-.16,0-.23v-2.07h-.65v-.57h.61v-.84h.7v.84h1.1v.57h-1.1v2.08c-.05.31.17.59.47.64.04,0,.09,0,.13,0,.2,0,.39-.06.54-.18l.26.46Z"/>
    <path class="cls-12" d="M356.84,105.29h.69v5.37h-.69v-5.37Z"/>
    <path class="cls-12" d="M362.3,108.97h-3.11c.09.68.7,1.17,1.39,1.12.42.02.83-.15,1.11-.46l.38.45c-.81.82-2.14.83-2.96.01-.36-.36-.58-.84-.61-1.35-.07-1.03.7-1.92,1.73-2,.06,0,.12,0,.19,0,1.02-.03,1.87.77,1.91,1.79,0,.07,0,.14,0,.21,0,.08,0,.15-.02.23ZM359.19,108.47h2.46c-.09-.68-.71-1.16-1.39-1.07-.56.07-1,.51-1.07,1.07Z"/>
    <polygon class="cls-12" points="384.4 107.15 388.99 107.15 386.7 109.44 384.4 107.15"/>
    <path class="cls-12" d="M405.9,109.13c0,.92-.76,1.46-2.19,1.46h-2.88v-5.33h2.72c1.41,0,2.09.58,2.09,1.4,0,.49-.27.94-.71,1.16.58.17.98.7.97,1.31ZM402.33,106.4v1h1c.5,0,.76-.17.76-.52s-.26-.51-.76-.51l-1,.03ZM404.39,109.02c0-.37-.28-.55-.79-.55h-1.27v1.09h1.27c.51-.05.79-.23.79-.59v.05Z"/>
    <path class="cls-12" d="M414.18,105.18h.39l-1.07,5.33h-.39l1.07-5.33Z"/>
    <rect class="cls-12" x="422.12" y="102.07" width="1" height="11.54"/>
    <rect class="cls-12" x="445.25" y="101.84" width="1" height="11.54"/>
    <rect class="cls-12" x="466.77" y="102.07" width="1" height="11.54"/>
    <rect class="cls-12" x="428.55" y="104.93" width="6.31" height="1"/>
    <rect class="cls-12" x="428.55" y="108.57" width="6.31" height="1"/>
    <rect class="cls-12" x="428.55" y="106.82" width="3.16" height="1"/>
    <polygon class="cls-12" points="438.73 107.18 442.06 107.18 440.4 108.68 438.73 107.18"/>
    <polygon class="cls-12" points="455.1 110 449.33 110 449.33 105.26 452.32 105.26 452.32 106.26 450.33 106.26 450.33 109 454.1 109 454.1 108 455.1 108 455.1 110"/>
    <polygon class="cls-12" points="458.43 110 455.97 110 455.97 109 457.43 109 457.43 106.26 453.66 106.26 453.66 107.53 452.66 107.53 452.66 105.26 458.43 105.26 458.43 110"/>
    <polygon class="cls-12" points="460.77 107.25 463.85 107.25 462.31 108.68 460.77 107.25"/>
    <path class="cls-12" d="M478.53,111.33h-5.33v-6.48h5.33v6.48ZM474.2,110.33h3.33v-4.48h-3.33v4.48Z"/>
    <rect class="cls-12" x="475.02" y="104.18" width="1.69" height="1.1"/>
    <rect class="cls-12" x="472.49" y="104.82" width="6.75" height="1"/>
    <polygon class="cls-3" points="415.42 116.01 421.34 122.52 427.07 115.88 415.42 116.01"/>
    <rect class="cls-2" x="430.13" y="131.6" width="83.17" height="34.51"/>
    <path class="cls-10" d="M345.97,151.47v7.23h-3v-7.3l-8.3-13.62h3.23l6.69,11,6.73-11h3l-8.35,13.69Z"/>
    <path class="cls-10" d="M354.7,148.25c0-6.13,4.72-10.7,11.14-10.7s11.06,4.54,11.06,10.7-4.73,10.69-11.09,10.69-11.11-4.54-11.11-10.69ZM373.94,148.25c.07-4.49-3.51-8.19-8-8.26s-8.19,3.51-8.26,8c-.07,4.49,3.51,8.19,8,8.26.05,0,.11,0,.16,0,4.33.12,7.94-3.3,8.06-7.64,0-.12,0-.24,0-.36h.04Z"/>
    <path class="cls-10" d="M381.32,149.68v-11.89h3v11.77c0,4.63,2.12,6.72,5.88,6.72s5.92-2.09,5.92-6.72v-11.77h2.9v11.89c0,6.06-3.32,9.26-8.84,9.26s-8.86-3.2-8.86-9.26Z"/>
    <path class="cls-10" d="M419.12,158.7l-4.51-6.42c-.42,0-.87.06-1.32.06h-5.17v6.36h-3v-20.91h8.15c5.44,0,8.73,2.75,8.73,7.29.14,2.99-1.75,5.7-4.6,6.6l5,7-3.28.02ZM419.03,145.08c0-3-2-4.69-5.83-4.69h-5.08v9.41h5.08c3.83,0,5.83-1.73,5.83-4.72h0Z"/>
    <path class="cls-3" d="M440.34,141.73h-6.7l.81-3.94h18.23l-.81,3.94h-6.66l-3.41,17h-4.84l3.38-17Z"/>
    <path class="cls-3" d="M459.31,141.67l-.89,4.54h9.71l-.75,3.77h-9.74l-1,4.84h11.46l-.81,3.88h-16.19l4.18-20.91h15.8l-.8,3.88h-10.97Z"/>
    <path class="cls-3" d="M483.9,148.16l5.74,10.54h-5.23l-3.7-7.11-6.34,7.11h-5.79l10-10.84-5.41-10.07h5.17l3.49,6.72,6.1-6.72h5.49l-9.52,10.37Z"/>
    <path class="cls-3" d="M499.09,141.73h-6.7l.81-3.94h18.23l-.81,3.94h-6.66l-3.41,17h-4.84l3.38-17Z"/>
    <circle class="cls-2" cx="149.39" cy="53.56" r="8.49"/>
    <path class="cls-10" d="M559.72,12.13c0,1.62.08,101,.2,260.36v.2h-174.14l.18-.08-13.95,14.8-.17.17-.17-.16-16.14-14.79.16.06H113.52V11.83h.24l445.94.24-445.92.33.24-.24v260.36l-.26-.26h242l.07.07,16.13,14.79h-.34l14-14.8.07-.07h174.04l-.2.2c.11-159.35.19-258.7.19-260.32Z"/>
  </g>
  <g id="freepik--Plant--inject-13">
    <g>
      <path class="cls-9" d="M126.6,355.83c-3.94-2.46-8.38-3.99-13-4.46-2.12-.22-4.44-.16-6.14,1.12-.4.24-.64.67-.63,1.13.1.32.32.59.6.76,5.62,4.01,12.99,4.57,19.15,1.45"/>
      <path class="cls-9" d="M126.27,355.47c-3.01-2.21-5.81-4.68-8.39-7.38-2.58-2.72-4.39-6.07-5.25-9.72-.35-1.09-.2-2.28.41-3.25,6.69,5.22,11.94,12,13.23,20.35"/>
      <path class="cls-9" d="M126.53,355.78c-.62-3.65-.56-7.37.16-11,.74-3.66,2.83-6.9,5.86-9.09,1.16,2.7.66,5.81-.15,8.63-1.26,4.37-3.23,8.5-5.82,12.24"/>
      <path class="cls-9" d="M133.08,367.52c-3.93.63-7.57,2.47-10.41,5.27-3,2.71-5.1,6.28-6,10.22,3.9-.24,7.21-3,9.61-6.07s4.06-6.47,6.7-9.36"/>
      <path class="cls-9" d="M134.51,369.4c-3.17-8.08-2.05-17.22,3-24.29,2.27,8.06,1.43,17.17-3,24.29"/>
      <path class="cls-9" d="M143.16,379.71c-7.43-.46-14.41,3.56-17.75,10.21-.29.41-.33.95-.12,1.4.31.3.75.43,1.18.34,3.5-.22,6.6-2.33,9.16-4.73s4.78-5.16,7.61-7.23"/>
      <path class="cls-9" d="M142.9,379.14c-1.87-6-1.98-12.4-.33-18.46.65-2.38,1.74-4.88,3.94-6,.18-.12.39-.15.6-.1.18.09.31.25.38.44.74,1.66,1.06,3.48.93,5.3-.13,1.81-.41,3.6-.83,5.36-.69,3.28-1.06,6.8-2.86,9.63-.42.68-.81,1.38-1.14,2.11-.34.72-.34,1-.66,1.55"/>
      <path class="cls-9" d="M165.8,382.56c-1.56-6.82-.03-13.98,4.17-19.58.3-.39.7-.81,1.19-.76.75.07.94,1.07.91,1.82-.31,6.64-2.49,13.06-6.27,18.52"/>
      <path class="cls-9" d="M167.9,383.97c8.11,1.91,16.65.18,23.37-4.75-3.91-1.96-8.38-2.51-12.65-1.56-4.22,1-8.09,2.86-10.72,6.31"/>
      <path class="cls-9" d="M169.61,379.67c4.39-7.16,12.81-11.84,21.2-12.26-1,3.41-3.77,6.06-6.93,7.67-3.24,1.47-6.66,2.48-10.18,3-1.36.27-3.22.56-4.09,1.62"/>
      <path class="cls-9" d="M166.23,358.81c1.33-4.03,2.24-8.19,2.72-12.41.46-4.25-.4-8.55-2.48-12.29-4.1,7.94-4.52,17.22-.36,25.13"/>
      <path class="cls-9" d="M180.05,351.83c4.8-8.73,14.59-15.69,24.5-16.67-3.82,9.52-14.25,16.87-24.5,16.67"/>
      <path class="cls-9" d="M177.03,353.53c7.16,1.09,13.26,5.67,20,8.44,1.4.67,2.96.97,4.51.86,1.95-.03,3.51-1.63,3.48-3.58-.02-1.03-.48-2-1.27-2.66-.95-.88-2.06-1.56-3.28-2-7.29-3-15.1-3.11-22.77-1.27"/>
      <path class="cls-9" d="M172.9,358.55c1.62.47,2.17,1.31,3.46,2.4,4.37,3.72,9.55,6.38,15.12,7.77.58.14,1.34.2,1.62-.32s-.06-1-.39-1.42c-2.43-2.85-5.59-4.98-9.13-6.19-3.49-1.3-6.51-2.87-10.68-2.54"/>
      <path class="cls-9" d="M168.22,328.23c5.93,5.48,13.9,8.19,21.94,7.47.37,0,.72-.12,1-.36.55-.6-.11-1.53-.75-2-6.46-5-14.27-7.11-22.19-5.08"/>
      <path class="cls-9" d="M173.76,326.21c7.88-5.8,18.06-7.48,27.38-4.52-3.58,3.32-8.18,5.33-13.05,5.71-4.81.43-9.66.02-14.33-1.21"/>
      <path class="cls-9" d="M171.56,312.27c-.64-6.44-.23-11.52-.67-18,0-.52-.15-1.14-.63-1.32-.68-.26-1.24.56-1.46,1.25-1.9,6.08-.89,12.69,2.75,17.92"/>
      <path class="cls-9" d="M171.09,312.99c4.21-2.72,7.83-6.24,10.67-10.37,2.11-2.89,3.88-6.34,3.4-9.88-3,.08-5.81,1.48-7.69,3.82-1.84,2.33-3.18,5.02-3.92,7.9-.86,2.83-1.46,5.74-2.46,8.53"/>
      <path class="cls-9" d="M181.57,310.07c9.6-3.55,18.49-8.8,26.25-15.48-3.13-1.26-6.72-.5-9.86.76-7.11,2.7-12.99,7.91-16.52,14.65"/>
      <path class="cls-9" d="M174.04,316.51c4.83.69,9.74.71,14.58.07,4.72-.79,9.19-2.66,13.6-4.52.39-.11.72-.36.93-.7.14-.42,0-.88-.33-1.17-.34-.27-.74-.45-1.16-.54-4.8-1.35-10-.72-14.71.88-4.5,1.54-8.83,3.55-12.91,6"/>
      <path class="cls-9" d="M146.37,328.45c-3.31-6.67-3.09-14.46-.24-21.34,2,3.07,2.26,7,1.89,10.61s-1.48,7.4-1.55,11.07"/>
      <path class="cls-9" d="M133.16,321.79c-8.37-.11-16.4,3.32-22.12,9.43,4.17.49,8.39-.29,12.11-2.25,3.69-1.96,7.17-4.29,10.38-6.95"/>
      <path class="cls-9" d="M124.28,318.82c-4-.32-7.93-.82-11.81.37-3.97,1.12-7.25,3.9-9,7.63,3.81.3,7.63-.42,11.07-2.09,3.42-1.68,6.67-3.66,9.74-5.91"/>
      <path class="cls-9" d="M137.43,318.96c-3.64-2.38-7.37-4.81-11.6-5.79s-9.13-.26-12.08,2.93c3.43,2,7.58,2.25,11.55,2.24s8.84,0,12.58,1.28"/>
      <path class="cls-9" d="M137.45,319.15c-6.21-6.1-8.57-17.05-6.07-25.39,4.9,7.51,7.05,16.48,6.07,25.39"/>
      <path class="cls-9" d="M154.53,301.87c1.17-2.72,2-5.58,3-8.35.96-2.81,2.43-5.43,4.35-7.7,1.94-2.29,4.7-3.73,7.69-4-1.93,8.49-7.35,15.78-14.93,20.08"/>
      <path class="cls-9" d="M151.44,305.47c-1.94-2.67-4.18-6.29-6.81-8.28s-6-3.2-9.26-2.43c3.37,5.9,9.33,9.87,16.07,10.71"/>
      <path class="cls-9" d="M152.05,302.09c-1.39-3.18-2.42-6.51-3.06-9.92-.64-3.44-.09-7,1.55-10.09,3.41,6.45,4.51,13.36,1.69,20.09"/>
      <path class="cls-9" d="M154.56,282.08c1.93-6.39,7.78-11.09,14.09-13.25.79-.32,1.64-.45,2.48-.37.86.1,1.57.7,1.82,1.52.23,1.09-.67,2.06-1.51,2.78-4.94,4.22-10.68,7.39-16.88,9.32"/>
      <path class="cls-9" d="M154.63,276.86c.24-4.12.5-8.3,1.84-12.2s3.92-7.57,7.68-9.28c.64,4.16-1.2,8.3-3.41,11.88s-4.88,7-6.21,11"/>
      <path class="cls-9" d="M154.53,279.69c-1.6-4.65-1.76-10.57-4.55-14.62-2-2.84-5.07-4.77-6.75-7.77-1.02,2.88-.88,6.04.39,8.82,1.27,2.74,3.02,5.24,5.16,7.38,2.06,2.2,3.83,3.86,5.75,6.19"/>
      <path class="cls-9" d="M154.56,416.81c-.13,0-.23-31.06-.24-69.37s.08-69.37.21-69.37.23,31.05.24,69.37-.09,69.37-.21,69.37Z"/>
      <path class="cls-9" d="M181.7,323.77c-.38.18-.77.33-1.17.44l-3.21,1.08c-2.71.92-6.43,2.26-10.47,3.92s-7.78,3.11-9.93,5c-.86.72-1.54,1.61-2,2.63-.31.73-.36,1.18-.4,1.17s0-.11,0-.32c.05-.31.13-.61.23-.91.4-1.08,1.07-2.05,1.94-2.81,1.3-1.09,2.75-1.99,4.31-2.67,1.72-.81,3.63-1.65,5.66-2.48,4.05-1.66,7.8-2.95,10.54-3.8,1.37-.43,2.49-.74,3.26-.95.4-.14.82-.24,1.24-.3Z"/>
      <path class="cls-9" d="M190.6,301.91s-.11.14-.33.35l-1,.94-3.72,3.38-12.38,11c-4.84,4.3-9,8.41-11.91,11.51-1.45,1.54-2.59,2.82-3.37,3.72l-.9,1c-.1.12-.21.24-.33.34,0,0,.08-.15.26-.4s.46-.62.84-1.08c.74-.93,1.84-2.25,3.27-3.83,3.75-4.06,7.71-7.93,11.87-11.57,4.85-4.29,9.26-8.15,12.47-10.93l3.82-3.27,1.05-.87c.11-.11.23-.21.36-.29Z"/>
      <path class="cls-9" d="M167.95,321.98c-.13-.05.88-2.39,1.89-5.33s1.49-5.44,1.62-5.42c-.1,1.9-.51,3.78-1.2,5.56-.43,1.27-.93,2.52-1.5,3.73-.2.52-.47,1.01-.81,1.46Z"/>
      <path class="cls-9" d="M154.59,340.78c-.28-.26-.53-.55-.75-.86l-1.94-2.45c-1.6-2.07-3.82-4.93-6.3-8.06s-4.77-5.94-6.42-8l-1.95-2.42c-.26-.28-.48-.59-.68-.92.3.24.57.51.81.81.5.54,1.2,1.33,2.06,2.32,1.72,2,4,4.76,6.53,7.9s4.67,6,6.21,8.15c.77,1.06,1.38,1.93,1.79,2.53.24.31.46.65.64,1Z"/>
      <path class="cls-9" d="M148.63,333.14c-1.2-1.33-2.06-2.93-2.49-4.67-.47-1.52-.66-3.11-.56-4.7h.19c-.08.36-.15.55-.18.55s0-.21,0-.58h.2c.1,1.55.36,3.09.79,4.58.57,1.65,1.25,3.26,2.05,4.82Z"/>
      <path class="cls-9" d="M140.95,323.48c-.53-.41-1.12-.74-1.74-1-1.57-.47-3.21-.6-4.83-.39-1.64.12-3.27.39-4.87.79-.66.2-1.32.36-2,.48.59-.36,1.24-.63,1.92-.79,1.6-.49,3.24-.8,4.91-.93,1.69-.22,3.4-.03,5,.54.67.23,1.24.69,1.61,1.3Z"/>
      <path class="cls-9" d="M139.13,321.13c0,.07-1-.4-2.67-1-4.32-1.47-8.95-1.82-13.44-1-1.72.31-2.76.63-2.78.55.22-.13.46-.24.71-.3.65-.23,1.32-.42,2-.56,2.26-.5,4.58-.66,6.88-.48,2.3.17,4.57.68,6.73,1.51.65.25,1.29.54,1.91.87.24.11.46.24.66.41Z"/>
      <path class="cls-9" d="M154.53,311.23c-.79-2.21-1.44-4.47-1.95-6.76-.65-2.25-1.15-4.54-1.51-6.86,1.45,4.46,2.6,9.01,3.46,13.62h0Z"/>
      <path class="cls-9" d="M154.65,311.23c-.62-1.4-1.34-2.76-2.16-4.05-.91-1.23-1.97-2.33-3.17-3.27.45.11.88.32,1.23.63.9.66,1.68,1.47,2.31,2.39.97,1.25,1.58,2.73,1.79,4.3Z"/>
      <path class="cls-9" d="M154.56,400.25s-.14-.75-.49-2.07c-.52-1.85-1.21-3.65-2.08-5.37-2.99-5.62-6.68-10.84-11-15.52-2.46-2.81-4.84-5.46-6.87-8-1.82-2.23-3.46-4.6-4.91-7.09-.98-1.68-1.81-3.43-2.48-5.25-.23-.65-.39-1.16-.49-1.51-.06-.17-.1-.35-.12-.53,0,0,.26.71.77,2,.74,1.78,1.6,3.5,2.59,5.16,1.5,2.45,3.17,4.79,5,7,2,2.51,4.43,5.14,6.89,8,4.36,4.7,8.06,9.97,11,15.67.86,1.75,1.53,3.58,2,5.47.12.51.21,1.04.27,1.56-.01.16-.04.32-.08.48Z"/>
      <path class="cls-9" d="M179.08,372.55c-.41.27-.84.51-1.28.72-1.16.65-2.27,1.39-3.33,2.2-1.56,1.22-3.03,2.55-4.38,4-1.54,1.62-3.12,3.5-4.74,5.52-3.23,4.06-6.25,7.64-8.06,10.51-.92,1.42-1.59,2.62-2,3.46s-.68,1.3-.71,1.29,0-.13.12-.37.22-.57.43-1c.56-1.22,1.2-2.41,1.91-3.55,2.46-3.69,5.14-7.23,8-10.62,1.62-2,3.22-3.91,4.79-5.53,1.38-1.46,2.88-2.8,4.49-4,1.08-.8,2.23-1.51,3.44-2.11.42-.21.77-.34,1-.44s.32-.1.32-.08Z"/>
      <path class="cls-9" d="M179.56,381.53c-.89.21-1.8.34-2.71.4-2.19.22-4.35.64-6.45,1.27-2.08.67-4.03,1.68-5.77,3-1.33,1-1.95,1.87-2,1.82s.1-.24.4-.62c.42-.53.89-1.02,1.41-1.45,1.72-1.44,3.7-2.53,5.84-3.21,2.13-.63,4.33-1.02,6.55-1.16.91-.09,1.82-.11,2.73-.05Z"/>
      <path class="cls-9" d="M163.41,387.07c-.14-.08,1.08-1.95,2-4.47s1.1-4.76,1.26-4.74c.09.48.09.98,0,1.46-.13,1.17-.4,2.32-.8,3.43-.41,1.1-.93,2.16-1.57,3.15-.23.44-.53.83-.89,1.17Z"/>
      <path class="cls-9" d="M187.03,348.4c-.14.09-.29.16-.44.23l-1.27.58c-.56.24-1.24.54-2,.95s-1.66.8-2.59,1.36l-1.48.84c-.52.3-1,.65-1.57,1-1.09.66-2.19,1.48-3.35,2.31-5.01,3.73-9.37,8.24-12.93,13.37-.79,1.2-1.57,2.32-2.19,3.44-.32.55-.66,1.07-.94,1.59s-.53,1-.79,1.51c-.52,1-.9,1.86-1.27,2.65s-.66,1.46-.88,2-.39.95-.54,1.3c-.05.15-.13.3-.21.44.02-.17.06-.33.13-.48l.46-1.32c.23-.7.5-1.4.81-2.07.35-.8.71-1.72,1.22-2.69l.77-1.53c.27-.53.6-1.06.91-1.62.62-1.13,1.39-2.27,2.18-3.48,3.54-5.19,7.94-9.75,13-13.47,1.18-.83,2.29-1.64,3.4-2.3.55-.33,1.07-.68,1.59-1l1.51-.82c.94-.54,1.85-.93,2.64-1.31.65-.33,1.32-.62,2-.88l1.31-.5c.17-.07.34-.1.52-.1Z"/>
      <path class="cls-9" d="M167.62,361.4c.18-.63.55-1.18,1.06-1.59,1.2-1.03,2.72-1.62,4.3-1.65,1.55,0,3.09.3,4.53.89.61.19,1.18.47,1.71.83-.62-.12-1.22-.3-1.81-.53-1.42-.48-2.91-.73-4.41-.74-1.49.03-2.93.54-4.11,1.45-.46.41-.88.86-1.27,1.34Z"/>
      <path class="cls-9" d="M164.72,364.4c.57-1.28.98-2.62,1.22-4,.09-1.39,0-2.78-.28-4.14.26.33.44.73.51,1.15.53,2.02.28,4.16-.7,6-.38.68-.71,1.04-.75.99Z"/>
      <path class="cls-9" d="M133.11,404.7c.67,11.87,4.24,23.94,9.74,36.15h23.93c5.25-12.09,8.58-24.14,9.17-36.15h-42.84Z"/>
      <path class="cls-9" d="M172.07,423.91c0,.12-7.88.22-17.59.22s-17.6-.1-17.6-.22,7.88-.23,17.6-.23,17.59.1,17.59.23Z"/>
      <path class="cls-9" d="M171.54,428.21c0,.12-7.39.22-16.5.22s-16.49-.1-16.49-.22,7.38-.23,16.49-.23,16.5.1,16.5.23Z"/>
    </g>
  </g>
  <g id="freepik--Floor--inject-13">
    <path class="cls-10" d="M658.59,441c0,.15-140.91.26-314.67.26s-314.7-.11-314.7-.26,140.87-.26,314.7-.26,314.67.12,314.67.26Z"/>
  </g>
  <g id="freepik--Pallet--inject-13">
    <rect class="cls-5" x="255.51" y="414.91" width="25.09" height="25.95"/>
    <path class="cls-10" d="M270.2,415.62s-.28.15-.78.43c-.7.4-1.37.87-2,1.38-2.04,1.75-3.73,3.86-5,6.22-.79,1.36-1.42,2.71-2,3.94-.52,1.09-1.2,2.1-2,3-.56.62-1.24,1.12-2,1.47-.27.14-.56.24-.86.29,0,0,.31-.1.82-.36.71-.38,1.35-.89,1.88-1.5,1.43-1.51,2.38-4.25,4-7,1.28-2.39,3.01-4.5,5.1-6.23.64-.51,1.33-.96,2.05-1.34.26-.12.52-.22.79-.3Z"/>
    <path class="cls-10" d="M269.8,432.27l.48-.4c.31-.26.77-.65,1.32-1.2.28-.27.58-.58.89-.94.37-.33.61-.79.66-1.29-.12-.54-.65-.88-1.19-.76-.03,0-.06.01-.09.02-.62.21-1.19.54-1.7.95-1.27.83-2.43,1.81-3.45,2.92-.56.62-1.02,1.32-1.37,2.08-.18.39-.23.82-.14,1.24.12.41.43.74.84.88.89.25,1.85.17,2.69-.21.9-.37,1.73-.88,2.48-1.5,1.65-1.23,2.94-2.88,3.73-4.78.36-.96.49-1.98.39-3-.02-1.01-.63-1.91-1.55-2.31-.95-.17-1.93.04-2.72.59-.81.47-1.57,1.03-2.26,1.66-2.69,2.5-4.36,5.42-6.13,7.57-1.32,1.78-2.99,3.26-4.9,4.37-.53.28-1.08.51-1.65.69-.2.06-.4.11-.61.15l.15-.05.44-.14c.57-.19,1.11-.44,1.63-.73,1.89-1.12,3.53-2.61,4.83-4.38,1.75-2.15,3.4-5.09,6.12-7.62.69-.65,1.46-1.22,2.28-1.69.84-.59,1.88-.81,2.88-.61.52.17.95.53,1.21,1,.26.46.42.97.48,1.49.12,1.06-.02,2.14-.39,3.14-.81,1.93-2.12,3.61-3.8,4.87-.76.63-1.62,1.15-2.54,1.52-.89.4-1.89.48-2.83.21-.48-.15-.85-.52-1-1-.09-.46-.04-.94.16-1.36.36-.77.84-1.49,1.41-2.12,1.04-1.12,2.22-2.1,3.5-2.93.52-.43,1.11-.77,1.75-1,.59-.18,1.22.16,1.39.75.01.04.02.07.03.11-.04.53-.29,1.02-.7,1.37-.32.35-.62.66-.9.93-.56.56-1.17,1.06-1.82,1.51Z"/>
    <path class="cls-10" d="M280.44,419.4s-.09.34-.23,1c-.2.89-.34,1.79-.42,2.7-.13,1.14-.22,2.52-.44,4-.67,4.7-3.17,8.95-6.94,11.83-.98.78-2.07,1.42-3.23,1.89,0,0,.07-.06.22-.14l.66-.35c3.43-1.94,6.13-4.93,7.72-8.53,1.49-3.21,1.56-6.47,1.86-8.75.1-.91.27-1.81.49-2.7.08-.32.18-.64.31-.95Z"/>
    <path class="cls-10" d="M260.9,415.54c.02.15.02.31,0,.46-.05.42-.11.83-.2,1.24-.58,2.72-1.91,5.23-3.84,7.23-.29.3-.6.59-.92.85-.11.11-.23.2-.37.27,0,0,.47-.45,1.18-1.22.92-1.02,1.71-2.14,2.35-3.35.64-1.21,1.13-2.49,1.46-3.82.27-1.02.34-1.67.34-1.66Z"/>
    <rect class="cls-5" x="255.51" y="382.84" width="25.09" height="25.09"/>
    <path class="cls-10" d="M266.29,383.89c-.02.22-.07.43-.14.64-.14.58-.33,1.14-.56,1.69-.75,1.82-1.82,3.5-3.16,4.95-1.34,1.45-2.92,2.64-4.68,3.54-.53.27-1.08.5-1.64.7l-.62.19c.19-.11.38-.2.59-.27.39-.15.94-.41,1.6-.75,1.72-.92,3.27-2.12,4.6-3.55,1.32-1.43,2.39-3.07,3.17-4.86.24-.54.45-1.1.63-1.66.06-.21.13-.42.21-.62Z"/>
    <path class="cls-10" d="M271.5,392.02c-.43.81-.93,1.57-1.51,2.28-1.55,1.96-3.48,3.58-5.69,4.75-.73.39-1.48.72-2.26,1-.83.4-1.77.51-2.66.3-.48-.18-.82-.63-.86-1.14-.02-.5.09-1,.32-1.45.45-.91.98-1.78,1.59-2.6,2.74-3.69,6.78-6.2,11.31-7,.59-.11,1.19-.18,1.79-.21.59-.06,1.19-.04,1.78.06.6.09,1.15.41,1.53.89.34.49.53,1.07.55,1.66-.03,2.24-.92,4.39-2.48,6-1.38,1.43-2.99,2.61-4.76,3.5-1.52.79-3.09,1.5-4.69,2.12-2.93,1.15-5.37,1.88-7.05,2.39l-1.95.57c-.44.13-.68.18-.68.18l.67-.22,1.93-.61c1.68-.53,4.11-1.28,7-2.44,1.59-.63,3.15-1.35,4.66-2.15,1.75-.88,3.34-2.05,4.69-3.47,1.51-1.56,2.38-3.64,2.42-5.81-.01-.55-.19-1.09-.5-1.54-.35-.44-.85-.73-1.41-.82-.57-.09-1.15-.11-1.73-.05-5.15.32-9.9,2.91-12.95,7.07-.61.81-1.13,1.67-1.58,2.57-.22.42-.33.88-.32,1.35.04.45.33.83.75,1,.85.2,1.75.09,2.54-.29.77-.27,1.53-.61,2.25-1,2.2-1.15,4.14-2.74,5.7-4.67.55-.68.93-1.25,1.19-1.63s.41-.59.41-.59Z"/>
    <path class="cls-10" d="M280.4,399.1s0,.06-.11.16l-.34.41c-.43.51-.89.99-1.37,1.45-3.17,3.07-7.07,5.28-11.33,6.41-.64.18-1.29.32-1.94.43l-.53.08h-.19s.06,0,.18-.06l.53-.12c.45-.09,1.11-.26,1.92-.49,2.09-.61,4.1-1.46,6-2.52,1.9-1.08,3.66-2.37,5.26-3.86.61-.57,1.09-1.05,1.41-1.39l.37-.39.14-.11Z"/>
    <rect class="cls-5" x="465.61" y="382.84" width="25.09" height="25.09"/>
    <path class="cls-10" d="M476.39,383.89c-.02.22-.07.43-.14.64-.14.58-.33,1.14-.56,1.69-.75,1.82-1.82,3.5-3.16,4.95-1.34,1.45-2.92,2.64-4.68,3.54-.53.27-1.08.5-1.64.7l-.62.19c.19-.11.38-.2.59-.27,2.36-.95,4.48-2.42,6.2-4.3,1.32-1.43,2.39-3.07,3.17-4.86.24-.54.45-1.1.63-1.66.06-.21.13-.42.21-.62Z"/>
    <path class="cls-10" d="M481.6,392.02c-.43.81-.93,1.57-1.51,2.28-1.55,1.96-3.48,3.58-5.69,4.75-.73.39-1.48.72-2.26,1-.83.4-1.77.51-2.66.3-.48-.18-.82-.63-.86-1.14-.02-.5.09-1,.32-1.45.45-.91.98-1.78,1.59-2.6,2.74-3.69,6.78-6.2,11.31-7,.59-.1,1.19-.17,1.79-.21.59-.06,1.19-.04,1.78.06.6.09,1.15.41,1.53.89.34.49.53,1.07.55,1.66-.03,2.24-.92,4.39-2.48,6-1.38,1.43-2.99,2.61-4.76,3.5-1.52.79-3.09,1.5-4.69,2.12-2.93,1.15-5.37,1.88-7,2.39l-1.95.57c-.44.13-.68.18-.68.18l.67-.22,1.93-.61c1.68-.53,4.11-1.28,7-2.44,1.59-.63,3.15-1.35,4.66-2.15,1.76-.89,3.35-2.07,4.71-3.5,1.51-1.56,2.37-3.64,2.41-5.81-.01-.55-.19-1.09-.5-1.54-.35-.44-.85-.73-1.41-.82-.57-.09-1.15-.11-1.73-.05-5.15.32-9.9,2.91-12.95,7.07-.61.81-1.13,1.67-1.58,2.57-.22.42-.33.88-.32,1.35.04.45.33.83.75,1,.85.2,1.75.09,2.54-.29.78-.27,1.53-.61,2.25-1,2.2-1.15,4.14-2.74,5.7-4.67.55-.68.93-1.25,1.19-1.63s.35-.56.35-.56Z"/>
    <path class="cls-10" d="M490.5,399.1s0,.06-.11.16l-.34.41c-.43.51-.89.99-1.37,1.45-3.16,3.07-7.06,5.27-11.32,6.41-.66.18-1.33.32-2,.43l-.53.08h-.19s.06,0,.18-.06l.53-.12c.45-.09,1.11-.26,1.92-.49,2.09-.61,4.1-1.46,6-2.52,1.89-1.08,3.65-2.38,5.25-3.86.61-.57,1.09-1.05,1.41-1.39l.37-.39.2-.11Z"/>
    <rect class="cls-5" x="465.61" y="414.91" width="25.09" height="25.95"/>
    <path class="cls-10" d="M480.3,415.62s-.28.15-.78.43c-.7.4-1.37.87-2,1.38-2.03,1.75-3.73,3.86-5,6.22-.78,1.36-1.42,2.71-2,3.94-.52,1.09-1.2,2.1-2,3-.55.62-1.21,1.12-1.95,1.47-.27.14-.56.24-.86.29,0,0,.31-.1.82-.36.72-.38,1.36-.89,1.89-1.5,1.43-1.51,2.37-4.25,3.95-7,1.28-2.39,3.01-4.5,5.1-6.23.64-.51,1.33-.96,2.05-1.34.25-.12.51-.22.78-.3Z"/>
    <path class="cls-10" d="M479.9,432.27l.48-.4c.32-.26.77-.65,1.33-1.2.27-.27.57-.58.88-.94.37-.33.61-.79.66-1.29-.12-.54-.65-.88-1.19-.76-.03,0-.06.01-.09.02-.62.21-1.19.54-1.7.95-1.26.83-2.42,1.81-3.45,2.92-.56.62-1.02,1.32-1.37,2.08-.18.39-.23.82-.14,1.24.12.41.43.74.84.88.89.25,1.85.17,2.69-.21.9-.37,1.73-.88,2.48-1.5,1.65-1.23,2.94-2.88,3.73-4.78.36-.96.49-1.98.39-3-.02-1.01-.63-1.91-1.55-2.31-.95-.17-1.93.04-2.72.59-.81.47-1.56,1.02-2.25,1.66-2.7,2.5-4.37,5.42-6.14,7.57-1.32,1.78-2.99,3.26-4.9,4.37-.53.28-1.08.51-1.65.69-.2.06-.4.11-.61.15l.15-.05.44-.14c.57-.19,1.11-.43,1.63-.73,1.89-1.12,3.53-2.61,4.83-4.38,1.75-2.15,3.4-5.09,6.12-7.62.69-.65,1.46-1.22,2.28-1.69.84-.59,1.88-.81,2.88-.61.52.17.95.53,1.21,1,.26.46.42.97.48,1.49.13,1.06,0,2.14-.39,3.14-.8,1.94-2.12,3.62-3.8,4.87-.76.64-1.62,1.15-2.54,1.52-.89.4-1.89.48-2.83.21-.48-.15-.85-.52-1-1-.09-.46-.04-.94.16-1.36.36-.77.84-1.49,1.41-2.12,1.04-1.12,2.22-2.1,3.5-2.93.52-.43,1.11-.77,1.75-1,.59-.18,1.22.16,1.39.75.01.04.02.07.03.11-.04.53-.29,1.02-.7,1.37-.31.35-.62.66-.9.93-.56.56-1.17,1.06-1.82,1.51Z"/>
    <path class="cls-10" d="M490.54,419.4s-.09.34-.23,1c-.19.89-.33,1.79-.42,2.7-.13,1.14-.22,2.52-.44,4-.23,1.65-.69,3.26-1.37,4.79-1.25,2.76-3.16,5.17-5.57,7-.98.78-2.07,1.42-3.23,1.89.07-.06.14-.11.22-.14l.66-.35c3.43-1.94,6.14-4.93,7.73-8.53,1.48-3.21,1.55-6.47,1.85-8.75.1-.91.27-1.81.49-2.7.09-.31.19-.61.31-.91Z"/>
    <path class="cls-10" d="M471.04,415.54c.02.15.02.31,0,.46-.05.42-.11.83-.2,1.24-.58,2.72-1.91,5.23-3.84,7.23-.29.3-.6.59-.92.85-.11.11-.23.2-.37.27,0,0,.47-.45,1.18-1.22.92-1.02,1.71-2.14,2.35-3.35.64-1.21,1.13-2.49,1.46-3.82.2-1.02.3-1.67.34-1.66Z"/>
    <rect class="cls-5" x="249.94" y="407.93" width="246.92" height="7.84"/>
    <path class="cls-10" d="M496.9,415.77c0,.14-55.27.26-123.43.26s-123.45-.12-123.45-.26,55.26-.26,123.45-.26,123.43.12,123.43.26Z"/>
    <path class="cls-10" d="M496.9,407.93c0,.15-55.27.26-123.43.26s-123.45-.11-123.45-.26,55.26-.26,123.45-.26,123.43.12,123.43.26Z"/>
    <rect class="cls-5" x="249.62" y="376.82" width="247.21" height="7.06"/>
    <path class="cls-10" d="M494,383.89c0,.14-54.63.26-122,.26s-122-.12-122-.26,54.62-.26,122-.26,122,.11,122,.26Z"/>
  </g>
  <g id="freepik--Character--inject-13">
    <path class="cls-13" d="M428.82,370.28l-19.79-15.31,12.47-17.94,20.51,17.94s-.07,7.49-2.93,10.62-10.26,4.69-10.26,4.69Z"/>
    <path class="cls-9" d="M443.14,355.66l-1.47-1.35c-2.62,6.63-7.38,12.19-13.52,15.81l11,9.33,28.25-32.86c-3.34-2.51-24.26,9.07-24.26,9.07Z"/>
    <path class="cls-10" d="M439.11,379.45l-2.68-2.28,28.15-30.72s1.9-.91,2.78.14l-28.25,32.86Z"/>
    <path class="cls-10" d="M443.43,354.99c.16.14-.46,1-.62,2.24s.15,2.23,0,2.32-.91-.94-.69-2.43,1.19-2.3,1.31-2.13Z"/>
    <path class="cls-10" d="M447.82,352.76c.19.1-.14,1,.07,2.16s.8,1.9.65,2.06-1.14-.53-1.37-1.94.5-2.4.65-2.28Z"/>
    <path class="cls-10" d="M453.63,354.4c-.09.18-1.09-.29-1.61-1.45s-.23-2.22,0-2.18.27.92.71,1.87,1.02,1.54.9,1.76Z"/>
    <path class="cls-10" d="M326.98,323.93c.05-.56,29.64-25.73,32.9-27.74,4.1-2.53,14.13-3.67,19.32.81,4.81,4.16,46.32,38.83,46.32,38.83l-16.74,20.43-36.07-28.16s-34.22,20.58-34.56,21.09-16.37-5.57-16.37-6.08,5.2-19.18,5.2-19.18Z"/>
    <path class="cls-10" d="M295.76,222.84c-.64-4.45-.9-8.95-.77-13.44.14-4.52,1.4-8.93,3.66-12.84.36-.58,3.18-4.38,3.84-4.18.46.14-1.55,3.81-1.39,4.27,1.36,4.48,1.33,9.27-.1,13.73-1.28,4.34-3.04,8.51-5.24,12.46"/>
    <path class="cls-13" d="M300.29,261.96c-6.79-1.51-11.14-8.17-9.78-15l8.21-41.13c1.85-11.12,9.87-19.31,20.94-17.15l1,.26c10.18,2.61,16.64,12.6,14.85,22.95-1.66,9.63-3.62,20.25-5,25.29-2.82,10.45-13.72,9.39-13.72,9.39,0,0-.55,2.44-1.2,5.55-1.47,6.93-8.27,11.35-15.2,9.89-.04,0-.09-.02-.13-.03l.03-.02Z"/>
    <path class="cls-4" d="M316.8,246.67c-4.84-1.25-9.21-3.87-12.61-7.53,0,0,1.37,8.47,12.07,10.21l.54-2.68Z"/>
    <path class="cls-4" d="M313.35,227.94c1.06-.72,2.51-.45,3.24.62.72,1.06.45,2.51-.62,3.24-.29.2-.62.33-.96.38-.64.08-1.28-.05-1.84-.37-.43-.22-.78-.57-1-1-.27-.67-.16-1.43.27-2,.32-.48.77-.86,1.3-1.1"/>
    <path class="cls-10" d="M330.58,220.11c-.2.81-1.01,1.32-1.83,1.14-.8-.14-1.34-.91-1.2-1.72,0-.01,0-.02,0-.03.2-.81,1-1.32,1.82-1.14.81.14,1.35.9,1.21,1.71,0,.01,0,.03,0,.04Z"/>
    <path class="cls-10" d="M331.99,216.46c-.23.14-1.15-1-2.76-1.39s-3,.09-3.12-.15.21-.42.82-.66c.82-.3,1.71-.34,2.56-.12.84.21,1.59.68,2.14,1.35.4.51.48.91.36.97Z"/>
    <path class="cls-10" d="M316,216.77c-.2.81-1.01,1.32-1.83,1.14-.8-.13-1.33-.88-1.2-1.68,0-.02,0-.04.01-.06.2-.81,1.01-1.32,1.83-1.14.8.14,1.34.9,1.2,1.7,0,.01,0,.03,0,.04Z"/>
    <path class="cls-10" d="M316.41,212.87c-.24.14-1.16-1-2.77-1.39s-3,.09-3.12-.15.21-.42.82-.66c.82-.3,1.72-.34,2.57-.12.84.21,1.58.68,2.13,1.35.4.5.48.9.37.97Z"/>
    <path class="cls-10" d="M318.8,226.23c.92-.05,1.84.01,2.74.2.42.06.83.08,1-.19.13-.42.13-.86,0-1.28-.13-1.1-.27-2.25-.41-3.45-.55-4.89-.83-8.87-.63-8.89s.8,3.93,1.34,8.82c.12,1.2.24,2.35.36,3.45.12.56.05,1.15-.2,1.67-.2.26-.5.42-.83.43-.25,0-.49-.03-.73-.09-.9-.11-1.79-.34-2.64-.67Z"/>
    <path class="cls-10" d="M313.78,226.12c.26.06-.18,1.8,1,3.43s3.09,1.91,3,2.16-.5.23-1.29.05c-1.03-.25-1.93-.85-2.56-1.7-.6-.82-.86-1.84-.73-2.85.15-.74.46-1.13.58-1.09Z"/>
    <path class="cls-10" d="M318.06,206.58c-.27.4-1.83-.22-3.78-.48s-3.6-.13-3.75-.59c-.07-.22.3-.56,1-.83.97-.32,1.99-.4,3-.25,1,.13,1.95.5,2.78,1.07.59.46.87.9.75,1.08Z"/>
    <path class="cls-10" d="M332.53,211.74c-.38.29-1.39-.38-2.72-.74s-2.52-.38-2.69-.83c-.06-.22.21-.54.79-.76,1.58-.5,3.3,0,4.36,1.27.37.49.43.91.26,1.06Z"/>
    <path class="cls-13" d="M297.56,213.92c-.16-.13-6.66-4-8.27,3.24-1.61,7.24,6,7.35,6,7.15s2.27-10.39,2.27-10.39Z"/>
    <path class="cls-4" d="M293.73,221.08s-.15.06-.38.11c-.33.06-.67,0-.95-.19-.81-.82-1.12-2.01-.81-3.12.12-.62.38-1.21.75-1.72.24-.43.67-.71,1.16-.75.32-.02.6.2.67.51.05.22,0,.35,0,.38s.18-.09.19-.4c0-.19-.07-.37-.19-.52-.17-.19-.4-.31-.65-.34-.63-.01-1.22.3-1.56.83-.45.56-.76,1.22-.89,1.92-.28,1.46.16,3,1.14,3.52.37.2.8.23,1.19.07.28-.13.35-.28.33-.3Z"/>
    <path class="cls-10" d="M333.57,199.21c1.31-.4-1.59-5.14-4.19-7.06-3.93-2.91-10.31-5.54-14.56-5.26-5.12.34-9.65,1.88-13,5.76-3.29,3.98-5.47,8.76-6.3,13.85-.39,1.53-.37,3.13.07,4.64.66,1.79,2.36,3.2,1.86,5.35-.22.77-.15,1.59.18,2.31,1,1.87,3,.88,4-.32,2.19-2.49,3.09-5.82,3.93-9,.75-2.54,1.19-5.16,1.3-7.8-.04-.84.05-1.68.26-2.5.31-1.34,1.01-2.57,2-3.53.24-.2.51-.37.79-.51,2.09-1.1,4.61-.99,6.61.27,3.8,2.31,6.6,5.33,11.76,4.39.91-.25,1.75-.71,2.44-1.35.98-.53,2.21-.22,2.83.71l.02.05Z"/>
    <path class="cls-10" d="M294.7,226.88s0,.18-.17.37c-.3.23-.68.32-1.05.26-.54-.06-1.04-.29-1.43-.67-.5-.46-.8-1.1-.83-1.78-.03-.67.19-1.33.6-1.86.34-.42.8-.72,1.31-.88.87-.25,1.42,0,1.4.05s-.54,0-1.25.35c-.92.39-1.5,1.31-1.45,2.31.06.99.76,1.82,1.72,2.06.28.09.57.09.85,0,.18-.12.25-.23.3-.21Z"/>
    <path class="cls-13" d="M397.97,324.76l-19.33-12.69-6.81,5.15-46.8-2.11v1.33l-2.93,15.65,58.12-3.47s3.43,2.59,4.95,2,2.87-1.25,2.87-1.25l2.31.73c1.57-.24,2.95-1.19,3.74-2.57,0,0,3.24,3.43,4.91,3.47s-1.03-6.24-1.03-6.24Z"/>
    <path class="cls-9" d="M291.9,244.24s-6.92.8-11.64,4.14c-7.47,5.28-15.32,17.45-17.91,34.33-2.16,14-.78,29.07-1.44,39.37-1,15.61-1.05,22.65,0,26.1,1.74,5.73,4.88,25.37,17.82,27.36,2.7-3.89,4.78-8.17,6.17-12.69,1.74-6.47,7.69-24.45,24.34-26.66,1.48-.2,18.23-2.72,18.23-2.72,0,0-1.12-16.1-1.12-22.45,0-3.17,1-9.15,2.1-14.33,1.35-6.63-.53-13.66-2.33-20.18s-3.16-15.33-4.37-17.62c-1.63-2.77-4-5.02-6.85-6.49l-23-8.16Z"/>
    <path class="cls-13" d="M291.9,244.24s8.61,10.09,13,21.75c3.1,8.22,14,29.55,14,29.55,0,0-.44-15.48-1.4-23.63-1.4-11.86-2.05-19.18-2.05-19.18l-11.15-6.05-12.4-2.44Z"/>
    <path class="cls-10" d="M304.69,336.69c-.54.03-1.09.03-1.63,0-1.47.03-2.94.19-4.38.49-2.14.44-4.22,1.11-6.21,2-2.45,1.07-4.73,2.49-6.77,4.22-3.55,3.32-6.63,7.12-9.15,11.28-1,1.53-1.77,2.79-2.37,3.76-.27.47-.58.93-.92,1.35.21-.51.46-.99.74-1.46.51-.92,1.26-2.24,2.23-3.84,2.46-4.26,5.53-8.13,9.13-11.49,2.08-1.74,4.42-3.17,6.92-4.22,2.03-.89,4.16-1.53,6.34-1.92,1.46-.28,2.95-.39,4.44-.33.41,0,.81.04,1.21.1.14,0,.28.02.42.06Z"/>
    <path class="cls-3" d="M265.14,286.61s5.58-34.58,21.14-35.88,13.95,17.08,13.16,25.94c-.36,4.57-.96,9.11-1.8,13.61l-32.5-3.67Z"/>
    <path class="cls-10" d="M298.9,290.28h-.6l-1.78-.16-6.83-.65-24.41-2.41h-.28l.08-.27c1.37-4.2,2.25-8.92,3.39-13.85s2.62-10.15,5.63-14.84c2.29-3.75,5.76-6.63,9.86-8.19,1.98-.69,4.09-.89,6.16-.58,2.01.29,3.85,1.31,5.16,2.87,1.19,1.47,2.17,3.09,2.92,4.83.37.83.65,1.7.84,2.59.15.88.27,1.73.38,2.58.4,3.13.62,6.29.66,9.45.01,4.57-.2,9.14-.65,13.69-.16,1.6-.28,2.84-.37,3.73,0,.4-.08.72-.11,1,0,.1-.02.21-.05.31v-.35c0-.23,0-.56.06-1,.06-.88.15-2.12.26-3.7.21-3.23.58-7.9.48-13.67-.06-3.15-.3-6.29-.72-9.41-.11-.83-.24-1.7-.39-2.55-.18-.86-.46-1.69-.82-2.49-.74-1.69-1.7-3.26-2.86-4.69-1.24-1.47-2.98-2.43-4.88-2.7-1.99-.29-4.02-.1-5.92.57-3.99,1.54-7.36,4.35-9.58,8-2.95,4.59-4.42,9.78-5.58,14.67s-2,9.64-3.44,13.87l-.19-.3,24.24,2.63,6.86.77,1.83.22.47.06.18-.03Z"/>
    <g class="cls-14">
      <path class="cls-1" d="M272.25,352.54c-.57.61-.98,1.35-1.2,2.16-.2.83.18,1.7.92,2.12,1.05.47,2.18-.43,3-1.28,2.84-3.11,5.3-6.55,8.13-9.68,2.52-3.06,5.77-5.45,9.44-6.94-9.8,2.97-13.87,5.69-20.29,13.62Z"/>
    </g>
    <g class="cls-14">
      <path class="cls-1" d="M325.37,316.65c-.04-.52-.31-1.01-.73-1.32-.58-.22-1.22-.17-1.76.13l-22,8.46c-4.3,1.66-9,3.34-13.43,2-4.63-1.38-7.82-5.86-8.93-10.56s-.5-9.62.29-14.39,2.16-12.4,2.16-12.4l-13.68-1.35c-1.52,14.44-2.6,31.34.15,43.31,1.05,4.57,3.57,7.43,7.5,10,3.23,2.09,9.33-.33,13.33-1.92,10.39-4.14,20.28-8.29,28.47-13,2-1.15,8.14-5.31,9.49-7.18s-.46.49-.86-1.78Z"/>
    </g>
    <path class="cls-13" d="M268.96,287.4s-.94,25.31.07,35.45c.78,7.71,3.62,13.12,8.06,13.86s22.9-4.07,33.8-9.61c6.93-3.56,13.68-7.46,20.22-11.7l-.83-10.25s-20.31,4.6-23.82,5.15-14.23,1.73-14.23,1.73c0-.32,3.41-21.94,3.41-21.94l-26.68-2.69Z"/>
    <path class="cls-13" d="M357.15,303.03c-.93-.94-22.66,1.59-26.34,2l-.53.06.83,10.25h15.67l.51,2.44s-2-.31-3.06.61,3.49,1.79,4.48,1.93c2.79.39,4.19-2.36,4.19-2.36,2.24,1.47,4.26-1.29,4.26-1.29,1.79,1.29,3.35-1.54,3.35-1.54,0,0,2.85,3,4.48,3.36,1.08.18,2.17.18,3.25,0,0,0-10.07-14.45-11.09-15.46Z"/>
    <path class="cls-4" d="M352.9,317.63c-.16,0-.43-1.62-1.23-3.46-.55-1.08-1.17-2.14-1.84-3.15,1.08.69,1.9,1.73,2.32,2.94.57,1.13.83,2.4.75,3.67Z"/>
    <path class="cls-4" d="M352.96,308.56s.52.2,1.14.83c.77.84,1.38,1.81,1.82,2.86.46,1.03.84,2.09,1.14,3.17.21.86.06,1.43,0,1.41s-.06-.53-.34-1.31-.75-1.89-1.26-3.06c-.43-1.01-.97-1.96-1.63-2.83-.52-.66-.93-1.01-.87-1.07Z"/>
    <path class="cls-4" d="M356.77,306.64c2.05,2.66,3.42,5.77,4,9.07-.14,0-.82-2.07-1.94-4.57s-2.19-4.42-2.06-4.5Z"/>
    <path class="cls-13" d="M369.14,426.61l-1.7-20.21h23.17l-.71,19.79s-6.33,5.29-10.56,5.16-10.2-4.74-10.2-4.74Z"/>
    <path class="cls-9" d="M389.9,428.19v-2c-6.69,2.46-14.01,2.61-20.8.42l.33,14.39,43.33-.77c-.29-4.13-22.86-12.04-22.86-12.04Z"/>
    <path class="cls-10" d="M369.47,441l-.08-3.51,41.66.58s1.94.8,1.75,2.16l-43.33.77Z"/>
    <path class="cls-10" d="M390.61,427.95c0,.22-1.06.33-2.09,1s-1.57,1.6-1.77,1.52.1-1.31,1.36-2.13,2.54-.58,2.5-.39Z"/>
    <path class="cls-10" d="M395.18,429.75c.06.21-.85.58-1.56,1.49s-.89,1.86-1.1,1.85-.37-1.2.53-2.31,2.13-1.23,2.13-1.03Z"/>
    <path class="cls-10" d="M397.9,435.15c-.19.05-.5-1,0-2.17s1.5-1.65,1.6-1.48-.51.81-.93,1.77-.5,1.85-.67,1.88Z"/>
    <path class="cls-10" d="M375.58,433.57c0,.63-.51,1.14-1.14,1.14s-1.14-.51-1.14-1.14.51-1.14,1.14-1.14c.62,0,1.13.5,1.14,1.12,0,0,0,.01,0,.02Z"/>
    <path class="cls-10" d="M279.38,374.55c-.19.3,18.52,3,34.48,2.18s49.69-13.33,49.69-13.33c-.81,4.84-1.28,9.74-1.42,14.65-.05,6.7,3.25,29.38,3.25,29.38h27.7v-48.61s-.78-18.35-.83-21.38c-.09-4.55-5.51-11.09-14.37-10.58-7.47.44-73.69,9.9-73.69,9.9,0,0-10,3.16-14,8.48s-10.81,29.31-10.81,29.31Z"/>
    <path class="cls-5" d="M289.49,358.4c-.81.23-1.66.29-2.5.18-.85.06-1.69-.06-2.49-.35.82-.22,1.67-.28,2.51-.17.84-.06,1.68.06,2.48.34Z"/>
    <path class="cls-5" d="M299.48,357.91c-.79.31-1.63.46-2.48.44-.83.15-1.69.13-2.51-.07.79-.31,1.63-.46,2.47-.44.84-.15,1.69-.12,2.52.07Z"/>
    <path class="cls-5" d="M309.39,356.59c-.76.37-1.59.58-2.44.63-.82.21-1.67.25-2.51.12.76-.38,1.59-.6,2.44-.64.82-.2,1.67-.24,2.51-.11Z"/>
    <path class="cls-5" d="M319.21,354.73c-1.55.66-3.22,1-4.9,1,1.54-.68,3.21-1.02,4.9-1Z"/>
    <path class="cls-5" d="M328.98,352.58c-1.53.7-3.2,1.07-4.88,1.09.73-.43,1.54-.7,2.38-.8.81-.26,1.66-.36,2.5-.29Z"/>
    <path class="cls-5" d="M338.73,350.4c-.73.43-1.54.7-2.38.8-.81.26-1.66.36-2.5.29.74-.42,1.55-.69,2.39-.8.8-.26,1.65-.36,2.49-.29Z"/>
    <path class="cls-5" d="M348.53,348.4c-.74.4-1.56.65-2.4.74-.81.25-1.67.32-2.51.23.75-.41,1.57-.66,2.41-.74.81-.25,1.66-.32,2.5-.23Z"/>
    <path class="cls-5" d="M358.4,346.8c-.76.37-1.59.58-2.43.61-.82.2-1.68.24-2.52.1.76-.36,1.59-.57,2.44-.61.82-.21,1.68-.24,2.51-.1Z"/>
    <path class="cls-5" d="M368.37,346.19c-.81.17-1.64.24-2.47.21-.83.13-1.69.1-2.51-.09.79-.32,1.64-.47,2.49-.43.84-.13,1.71-.02,2.49.31Z"/>
    <path class="cls-5" d="M374.1,353.04c-.28-.78-.47-1.59-.56-2.42-.28-1.31-.89-2.22-.79-2.31s1,.76,1.3,2.19c.27.82.29,1.71.05,2.54Z"/>
    <path class="cls-5" d="M374.49,363.03c-.28-.8-.41-1.64-.36-2.49-.12-.83-.07-1.69.15-2.5.42,1.63.5,3.34.21,5h0Z"/>
    <path class="cls-5" d="M374.99,373.02c-.43-1.63-.52-3.33-.26-5,.3.79.44,1.64.39,2.48.13.84.08,1.7-.13,2.52Z"/>
    <path class="cls-5" d="M375.53,383c-.43-1.63-.52-3.33-.27-5,.3.79.43,1.63.4,2.48.13.84.09,1.7-.13,2.52Z"/>
    <path class="cls-5" d="M376.06,392.99c-.43-1.63-.52-3.33-.26-5,.3.79.43,1.64.39,2.49.12.84.08,1.69-.13,2.51Z"/>
    <path class="cls-5" d="M376.51,402.98c-.29-.8-.41-1.64-.37-2.49-.11-.84-.06-1.69.16-2.51.29.8.41,1.64.36,2.49.12.84.07,1.69-.15,2.51Z"/>
    <path class="cls-5" d="M373.9,339.65c-.51,1.19-1.08,2.36-1.71,3.49-1.08,2.14-2.51,5.12-3.94,8.48s-2.55,6.47-3.33,8.73c-.37,1.24-.81,2.46-1.31,3.66.02-.34.08-.68.19-1,.16-.65.42-1.59.77-2.74.92-3,1.98-5.94,3.2-8.83,1.22-2.88,2.59-5.7,4.1-8.44.58-1.05,1.07-1.89,1.43-2.46.16-.32.36-.62.6-.89Z"/>
    <path class="cls-5" d="M382.51,348.55c0,.08-1.3.6-3.35,1.65-2.66,1.38-5.17,3.02-7.49,4.91-2.31,1.91-4.41,4.05-6.27,6.4-1.43,1.8-2.21,3-2.28,3,.11-.32.26-.62.46-.9.47-.79.97-1.55,1.52-2.29,1.8-2.44,3.9-4.64,6.24-6.57,2.34-1.92,4.92-3.55,7.66-4.84.83-.39,1.68-.74,2.54-1.05.31-.15.63-.26.97-.31Z"/>
    <path class="cls-4" d="M325.17,319.1c.11-.1.24-.2.37-.28l1.13-.74,4.37-2.82h0l15.67-.11h.17v.17l.52,2.44.06.3h-.31c-.99-.18-2.01.02-2.86.57-.31.11.34.5.8.66.52.19,1.06.35,1.6.48,1.07.36,2.21.46,3.33.3,1.1-.36,2.02-1.13,2.56-2.15l.14-.24.22.14c.61.42,1.39.5,2.07.22.73-.32,1.37-.82,1.85-1.45l.14-.18.21.12c.23.17.51.27.8.29.3,0,.59-.1.84-.27.55-.38,1.01-.88,1.34-1.47l.17-.3.24.25c.76.8,1.58,1.54,2.44,2.23.44.34.91.64,1.41.88.52.19,1.06.29,1.61.29.67.02,1.34-.02,2-.13l-.17.41c-2.81-4-5.54-7.92-8.16-11.58l-1.83-2.73-.49-.64c-.14-.2-.3-.38-.47-.55-.22-.06-.45-.1-.68-.11h-.78c-2.09,0-4.13.16-6.07.3-7.78.63-14.2,1.36-18.6,1.83h0l-5.24,1.08-1.36.26c-.15.04-.31.06-.47.06l.45-.13,1.35-.32,5.22-1.19h0c4.39-.54,10.81-1.33,18.6-2,1.95-.15,4-.32,6.11-.33h.81c.3,0,.61.06.89.17.23.19.43.42.6.66l.5.65c.64.88,1.3,1.78,2,2.68,2.63,3.65,5.36,7.54,8.18,11.57l.23.34-.4.07c-.71.11-1.43.15-2.15.13-.62,0-1.23-.12-1.8-.34-.54-.25-1.05-.57-1.51-.94-.89-.7-1.73-1.47-2.51-2.29l.42-.05c-.37.66-.89,1.23-1.52,1.66-.34.21-.72.33-1.12.34-.39-.02-.77-.15-1.09-.38l.36-.06c-.54.68-1.25,1.21-2.06,1.53-.84.33-1.78.23-2.53-.27l.36-.1c-.61,1.14-1.65,2-2.88,2.4-.61.13-1.25.13-1.86,0-.58-.1-1.15-.22-1.71-.36-.56-.13-1.11-.3-1.65-.5-.28-.11-.55-.24-.8-.41-.16-.1-.28-.25-.35-.42-.06-.22.02-.46.2-.6.46-.37,1.01-.6,1.6-.66.54-.07,1.1-.07,1.64,0l-.25.26c-.17-.85-.34-1.69-.5-2.44l.21.17h-15.67.07l-4.43,2.71-1.17.69c-.13.09-.27.16-.41.23Z"/>
    <path class="cls-5" d="M393.08,361.78c-.05-.17-.07-.35-.07-.53,0-.41-.05-.92-.09-1.54-.06-1.4-.14-3.32-.23-5.64s-.18-5.25-.28-8.38c-.07-1.57-.06-3.25-.19-4.94-.15-1.75-.46-3.48-.91-5.18-.23-.86-.52-1.7-.87-2.51-.35-.77-.84-1.46-1.44-2.06-1.15-1.15-2.51-2.07-4-2.71-1.34-.6-2.78-.96-4.25-1.05-1.29-.08-2.59-.08-3.88,0-2.38.13-4.3.33-5.63.44l-1.53.11c-.18.02-.36.02-.54,0,.17-.06.35-.1.53-.11l1.52-.21c1.32-.17,3.24-.42,5.63-.61,1.3-.11,2.61-.14,3.92-.1,1.52.08,3.02.44,4.42,1.05,1.55.66,2.97,1.6,4.17,2.79.64.64,1.17,1.39,1.55,2.21.36.84.66,1.71.89,2.59.47,1.72.78,3.49.92,5.27.12,1.74.11,3.38.16,5,.06,3.14.12,6,.17,8.39s0,4.24.06,5.65v1.54c.01.18,0,.36-.03.53Z"/>
    <path class="cls-5" d="M331.68,329.85l40.9-7.32,28.63-44.63,28.1,5.88-26.41,40.56-74,9.24h0c-.21-1.78,1.01-3.42,2.78-3.73Z"/>
    <path class="cls-12" d="M402.43,302.46c-.86,1.17-1,2.55-.27,3.06s2,0,2.83-1.19,1-2.54.27-3.06-1.98.02-2.83,1.19Z"/>
  </g>
</svg>