<?xml version="1.0" encoding="utf-8"?>
<!-- Generator: Adobe Illustrator 26.0.1, SVG Export Plug-In . SVG Version: 6.00 Build 0)  -->
<svg version="1.1" id="Layer_1" xmlns="http://www.w3.org/2000/svg" xmlns:xlink="http://www.w3.org/1999/xlink" x="0px" y="0px"
	 viewBox="0 0 500 500" style="enable-background:new 0 0 500 500;" xml:space="preserve">
<style type="text/css">
	.st0{fill:#F5F5F5;}
	.st1{fill:#E0E0E0;}
	.st2{fill-rule:evenodd;clip-rule:evenodd;fill:#E0E0E0;}
	.st3{fill-rule:evenodd;clip-rule:evenodd;fill:#F5F5F5;}
	.st4{fill-rule:evenodd;clip-rule:evenodd;fill:#EBEBEB;}
	.st5{fill:#EBEBEB;}
	.st6{fill:#FAFAFA;}
	.st7{fill:#FFFFFF;}
	.st8{fill:none;}
	.st9{fill:#7ABDE8;}
	.st10{fill:#263238;}
	.st11{fill:#455A64;}
	.st12{fill:#5095D0;}
	.st13{fill:#5CBB61;}
	.st14{fill:#FF725E;}
	.st15{fill:#1585C4;}
	.st16{fill:#339135;}
	.st17{fill:#FFBE9D;}
	.st18{fill:#EB996E;}
	.st19{opacity:0.3;}
</style>
<g id="freepik--background-complete--inject-6">
	<path class="st0" d="M288.5,462.9c-1.2-1.1-4-4.4-1.9-8.3c0.8-1.4,2.4-2.1,3.9-2.8c1.5-0.5,3-1.3,4.3-2.2c2.3-2,3-5.3,4.5-7.9
		c1.8-3,5.1-5.3,8.6-5.1c4,0.2,7.3,3.5,8.8,7.2s1.6,7.9,1.6,11.9c0,2.2-0.1,4.7-1.7,6.2s-3.8,1.4-5.8,1.3l-21.8-0.7"/>
	<path class="st1" d="M330.3,402.8h-57.4l10.4,61.7c0.4,2.6,2.4,4.8,4.9,5.5l0.2,0.1c0.2,0,0.3,0.1,0.5,0.1c0.4,0.1,0.8,0.1,1.2,0.1
		v0.1H316c0.5,0,1,0,1.4-0.1c3.1-0.5,5.4-2.9,5.8-6l5-42.5l0.2-1.7l0,0l1.9-16.9V402.8L330.3,402.8z M319.5,442.2h-5.9l0.6-17.9h6.8
		L319.5,442.2z M321.6,424.3h5.7l-2.1,17.9h-5.1L321.6,424.3z M304.8,462l-0.4-15.5h8.5l-0.5,15.5H304.8L304.8,462z M295.6,446.5
		h8.2l0.4,15.5h-7.4L295.6,446.5z M296.2,462h-7c-0.7-4.2-1.5-9.7-2.4-15.5h8.1L296.2,462z M295.3,442.2l-1.4-17.9h9.5l0.4,17.9
		H295.3L295.3,442.2z M304.3,442.2l-0.4-17.9h9.7l-0.6,17.9H304.3L304.3,442.2z M303.8,420l-0.4-16.6h10.9l-0.5,16.6H303.8z
		 M303.2,420h-9.7l-1.2-16.6h10.6L303.2,420z M292.9,420h-10.2c-0.4-2.3-0.7-4.5-1-6.4c-1.1-6.7-1.5-9.2-1.7-10.2h11.7L292.9,420
		L292.9,420z M293.3,424.3l1.4,17.9h-8.5c-0.3-1.8-0.6-3.6-0.9-5.5c-0.7-4.2-1.3-8.5-2-12.4H293.3L293.3,424.3z M285.6,442.2h-5.5
		l-3-17.9h5.7C283.7,429.8,284.6,435.9,285.6,442.2L285.6,442.2z M286.3,446.5c0.9,5.4,1.7,10.7,2.4,15.5h-5.3l-2.6-15.5H286.3
		L286.3,446.5z M312.9,462l0.5-15.5h5.7l-1.3,15.5H312.9L312.9,462z M314.3,420l0.5-16.6h7.9l-1.4,16.6H314.3z M279.4,403.4
		c0.2,1.2,1.3,7.7,2.7,16.6h-5.8l-2.8-16.6H279.4z M322.8,462h-4.4l1.3-15.5h4.9L322.8,462z M327.7,420H322l1.4-16.6h6.3L327.7,420z
		"/>
	<path class="st2" d="M214.1,129.2c0.3,3,0.1,6-0.4,8.9l6.5,5l-5.8,12.4l-8.1-1.7c-1.9,2.3-4.1,4.3-6.6,6l1.1,8.2l-12.8,4.7
		l-4.5-6.9c-3,0.3-6,0.1-8.9-0.4l-5,6.6l-12.4-5.7l1.7-8.1c-2.3-1.9-4.3-4.1-6-6.6l-8.2,1l-4.7-12.8l6.9-4.5c-0.3-3-0.1-6,0.4-8.9
		l-6.6-5l5.8-12.4l8.1,1.7c1.9-2.3,4.1-4.3,6.6-6l-1-8.2l12.8-4.7l4.5,6.9c3-0.3,6-0.1,8.9,0.4l5.1-6.5l12.3,5.7l-1.7,8.1
		c2.3,1.9,4.3,4.1,6,6.6l8.2-1l4.7,12.8L214.1,129.2z M194.6,127.8c-2.8-7.6-11.2-11.5-18.8-8.7s-11.5,11.2-8.7,18.8
		s11.2,11.5,18.8,8.7C193.4,143.8,197.4,135.4,194.6,127.8C194.6,127.8,194.6,127.7,194.6,127.8L194.6,127.8L194.6,127.8z"/>
	<path class="st3" d="M209.1,54.4c0.2,2,0.1,4-0.2,5.9l4.4,3.3l-3.8,8.2l-5.4-1.2c-1.3,1.5-2.7,2.9-4.3,4l0.7,5.4l-8.5,3.1l-3-4.6
		c-2,0.2-3.9,0.1-5.9-0.2l-3.3,4.3l-8.2-3.8l1.1-5.3c-1.5-1.3-2.9-2.7-4-4.3l-5.4,0.7l-3.1-8.5l4.6-3c-0.2-2-0.1-4,0.2-5.9l-4.3-3.3
		l3.8-8.2l5.4,1.2c1.3-1.5,2.7-2.9,4.3-4l-0.7-5.4l8.5-3.1l3,4.6c2-0.2,3.9-0.1,5.9,0.2l3.3-4.3l8.2,3.8l-1.1,5.4
		c1.5,1.3,2.9,2.7,4,4.3l5.4-0.7l3.1,8.5L209.1,54.4L209.1,54.4z M196.2,53.5c-1.8-5-7.4-7.6-12.4-5.8s-7.6,7.4-5.8,12.4
		s7.4,7.6,12.4,5.8l0,0C195.5,64.1,198.1,58.6,196.2,53.5C196.3,53.5,196.3,53.5,196.2,53.5L196.2,53.5z"/>
	<path class="st3" d="M267.6,153c0.1,1.6,0.1,3.1-0.2,4.6l3.4,2.6l-3,6.5l-4.2-0.9c-1,1.2-2.1,2.2-3.4,3.1l0.5,4.3l-6.7,2.4
		l-2.3-3.6c-1.6,0.1-3.1,0.1-4.6-0.2l-2.6,3.4l-6.5-3l0.9-4.2c-1.2-1-2.2-2.1-3.1-3.4l-4.3,0.6l-2.4-6.7l3.6-2.3
		c-0.1-1.6-0.1-3.1,0.2-4.6l-3.4-2.6l3-6.5l4.2,0.9c1-1.2,2.1-2.2,3.4-3.1l-0.5-4.3l6.7-2.4l2.3,3.6c1.6-0.1,3.1-0.1,4.6,0.2
		l2.6-3.4l6.5,3l-0.9,4.2c1.2,1,2.2,2.1,3.1,3.4l4.3-0.5l2.5,6.7L267.6,153L267.6,153L267.6,153z M257.4,152.2c-1.4-4-5.8-6-9.8-4.6
		s-6,5.8-4.6,9.8s5.8,6,9.8,4.6l0,0C256.8,160.6,258.9,156.2,257.4,152.2z"/>
	<path class="st4" d="M261.3,99.1c0.2,1.8,0.1,3.6-0.2,5.3l3.9,3l-3.4,7.4l-4.8-1c-1.1,1.4-2.5,2.6-3.9,3.6l0.6,4.9l-7.7,2.8
		L243,121c-1.8,0.2-3.6,0.1-5.3-0.2l-3,3.9l-7.5-3.5l1-4.8c-1.4-1.1-2.6-2.5-3.6-3.9l-4.9,0.6l-2.8-7.7l4.1-2.7
		c-0.2-1.8-0.1-3.6,0.2-5.3l-3.9-3l3.4-7.4l4.8,1c1.1-1.4,2.4-2.6,3.9-3.6l-0.6-4.9l7.7-2.8l2.7,4.2c1.8-0.2,3.6-0.1,5.3,0.2l3-3.9
		l7.4,3.4l-1,4.8c1.4,1.1,2.6,2.5,3.6,3.9l4.9-0.6l2.8,7.7L261.3,99.1z M249.6,98.2c-1.7-4.5-6.7-6.9-11.2-5.2s-6.9,6.7-5.2,11.2
		s6.7,6.9,11.2,5.2l0,0C248.9,107.8,251.2,102.8,249.6,98.2L249.6,98.2L249.6,98.2z"/>
	<path class="st4" d="M79.7,228.2c0.2,1.8,0.1,3.6-0.2,5.3l3.9,3L80,244l-4.8-1c-1.1,1.4-2.4,2.6-3.9,3.6l0.6,4.9l-7.7,2.8l-2.7-4.1
		c-1.8,0.2-3.6,0.1-5.3-0.2l-3,3.9l-7.4-3.4l1-4.8c-1.4-1.1-2.6-2.5-3.6-3.9l-4.9,0.6l-2.8-7.7l4.1-2.7c-0.2-1.8-0.1-3.6,0.2-5.3
		l-3.9-3l3.5-7.4l4.9,1c1.1-1.4,2.5-2.6,3.9-3.6l-0.6-4.9l7.7-2.8l2.7,4.1c1.8-0.2,3.6-0.1,5.3,0.2l3-3.9l7.4,3.4l-1,4.8
		c1.4,1.1,2.6,2.5,3.6,3.9l4.9-0.6l2.8,7.7L79.7,228.2L79.7,228.2L79.7,228.2z M68,227.4c-1.7-4.5-6.7-6.9-11.2-5.2
		s-6.9,6.7-5.2,11.2s6.7,6.9,11.2,5.2l0,0C67.3,236.9,69.7,231.9,68,227.4L68,227.4L68,227.4z"/>
	<polygon class="st5" points="414.6,88 422.4,112.4 416.8,112.4 414.3,104 	"/>
	<rect x="315.2" y="112.4" class="st5" width="115" height="6.9"/>
	<rect x="331.3" y="117.7" class="st5" width="5.6" height="10.5"/>
	<rect x="403" y="117.7" class="st5" width="5.6" height="10.5"/>
	<path class="st5" d="M319.1,80.5c0,0-5.2,3.9-0.2,9.1c0.1,0.1,0.2,0.1,0.3,0.1l45.1-0.3c0,0,3.9-4.3,0.7-9.3L319.1,80.5L319.1,80.5
		z"/>
	<path class="st1" d="M354.4,84.6c0,0-5.6,0.1-12.5,0.1s-12.6,0-12.6-0.1s5.6-0.1,12.5-0.1S354.4,84.6,354.4,84.6z"/>
	<path class="st1" d="M347.4,86.2c0,0-2.6,0.1-5.9,0.1s-5.9,0-5.9-0.1s2.7-0.1,5.9-0.1S347.4,86.2,347.4,86.2z"/>
	<path class="st1" d="M359,89.4c0,0,0.1-0.5,0.2-1.3c0.4-2.2,0.4-4.4-0.1-6.6c-0.1-0.8-0.3-1.3-0.3-1.3c0.1,0.1,0.1,0.2,0.1,0.3
		c0.1,0.3,0.2,0.7,0.3,1c0.2,1.1,0.4,2.2,0.4,3.3s-0.1,2.2-0.3,3.3c-0.1,0.3-0.1,0.7-0.2,1C359.1,89.2,359,89.3,359,89.4z"/>
	<path class="st1" d="M362.4,80.2c0.1,0.1,0.1,0.2,0.2,0.3c0.1,0.1,0.1,0.3,0.2,0.4c0.1,0.2,0.2,0.3,0.2,0.6c0.2,0.5,0.3,1,0.4,1.5
		c0.1,0.6,0.2,1.3,0.2,1.9s-0.1,1.3-0.2,1.9c-0.1,0.5-0.2,1-0.4,1.5c-0.1,0.2-0.2,0.4-0.2,0.6s-0.1,0.3-0.2,0.4
		c0,0.1-0.1,0.2-0.2,0.3c0,0,0.2-0.5,0.5-1.3c0.1-0.5,0.3-1,0.4-1.5c0.2-1.2,0.2-2.5,0-3.7c-0.1-0.5-0.2-1-0.4-1.5
		C362.6,80.7,362.3,80.2,362.4,80.2L362.4,80.2z"/>
	<path class="st1" d="M326.3,89.4c-0.1-0.1-0.1-0.2-0.2-0.3c-0.1-0.1-0.1-0.2-0.2-0.4c-0.1-0.2-0.2-0.3-0.2-0.5
		c-0.2-0.5-0.3-0.9-0.4-1.4c-0.1-0.6-0.2-1.2-0.2-1.8c0-0.6,0.1-1.2,0.3-1.8c0.1-0.5,0.3-1,0.5-1.4c0.1-0.2,0.2-0.3,0.2-0.5
		c0.1-0.2,0.2-0.3,0.2-0.4c0.1-0.1,0.1-0.2,0.2-0.3c0,0-0.3,0.5-0.6,1.2c-0.2,0.4-0.3,0.9-0.4,1.4c-0.1,0.6-0.2,1.2-0.2,1.8
		c0,0.6,0,1.2,0.2,1.8c0.1,0.5,0.2,0.9,0.4,1.4C326,89,326.3,89.4,326.3,89.4z"/>
	<path class="st1" d="M321.4,90.5c-0.1-0.1-0.2-0.2-0.2-0.3c-0.1-0.1-0.2-0.3-0.2-0.4c-0.1-0.2-0.2-0.4-0.3-0.6
		c-0.2-0.5-0.4-1.1-0.5-1.6c-0.1-0.7-0.2-1.3-0.3-2c0-0.7,0-1.3,0.2-2c0.1-0.6,0.2-1.1,0.4-1.6c0.1-0.2,0.2-0.4,0.2-0.6
		c0.1-0.2,0.1-0.3,0.2-0.4s0.1-0.2,0.2-0.3c0,0-0.2,0.5-0.5,1.4c-0.2,0.5-0.3,1.1-0.4,1.6c-0.1,0.7-0.1,1.3-0.1,2
		c0,1.2,0.3,2.4,0.7,3.6C321.1,90,321.4,90.5,321.4,90.5L321.4,90.5z"/>
	<path class="st5" d="M362.7,103.2v8.6H346v-8.6H362.7z"/>
	<path class="st1" d="M308.8,107.6c0,0.1,0,0.2,0,0.2c0.2,2.6,2.4,4.6,5,4.6h49.7v-0.6h-11.8c-2.4,0-4.3-1.9-4.3-4.3l0,0
		c0-2.4,1.9-4.3,4.3-4.3h11.8v-0.9l-49.7,0.2c-2.8,0-5,2.3-5,5C308.8,107.6,308.8,107.6,308.8,107.6z"/>
	<path class="st1" d="M362.7,107.7c0,0-3.4,0.1-7.7,0.1s-7.7,0-7.7-0.1s3.4-0.1,7.7-0.1S362.7,107.6,362.7,107.7z"/>
	<path class="st1" d="M362.5,109.6c0,0-3.2,0.1-7.3,0.1s-7.2,0-7.2-0.1s3.2-0.1,7.2-0.1S362.5,109.6,362.5,109.6z"/>
	<path class="st1" d="M362.7,111.4c0,0-2.9,0.1-6.5,0.1s-6.5,0-6.5-0.1s2.9-0.1,6.5-0.1S362.7,111.3,362.7,111.4z"/>
	<path class="st1" d="M362.7,105.9c0,0-3.4,0.1-7.5,0.1s-7.5,0-7.5-0.1s3.4-0.1,7.5-0.1S362.7,105.9,362.7,105.9z"/>
	<path class="st1" d="M362.5,104.2c0,0-3,0.1-6.7,0.1s-6.7,0-6.7-0.1s3-0.1,6.7-0.1S362.5,104.2,362.5,104.2z"/>
	<path class="st0" d="M314.8,102.6c-0.4,0.4-0.7,0.8-1.1,1.3c-1.5,2.2-1.5,5.2,0.1,7.4c0.3,0.4,0.7,0.8,1.1,1.2
		c-0.1-0.1-0.2-0.2-0.4-0.3c-0.3-0.3-0.6-0.6-0.8-0.9c-1.7-2.2-1.7-5.3-0.1-7.5c0.2-0.3,0.5-0.6,0.8-0.9
		C314.6,102.8,314.7,102.7,314.8,102.6z"/>
	<path class="st0" d="M313.1,102.4c-0.4,0.4-0.7,0.8-1.1,1.3c-1.5,2.2-1.5,5.2,0.1,7.4c0.3,0.4,0.7,0.8,1.1,1.2
		c-0.1-0.1-0.2-0.2-0.4-0.3c-0.3-0.3-0.6-0.6-0.8-0.9c-1.7-2.2-1.7-5.3-0.1-7.5c0.2-0.3,0.5-0.6,0.8-0.9
		C312.9,102.6,313,102.5,313.1,102.4z"/>
	<path class="st0" d="M346.9,102.6c-0.4,0.4-0.7,0.8-1.1,1.3c-1.5,2.2-1.5,5.2,0.1,7.4c0.3,0.4,0.7,0.8,1.1,1.2
		c-0.1-0.1-0.2-0.2-0.4-0.3c-0.3-0.3-0.6-0.6-0.8-0.9c-0.8-1.1-1.3-2.4-1.3-3.8s0.4-2.7,1.2-3.8c0.2-0.3,0.5-0.6,0.8-0.9
		C346.6,102.8,346.8,102.7,346.9,102.6z"/>
	<path class="st0" d="M345.3,102.4c-0.4,0.4-0.7,0.8-1.1,1.3c-1.5,2.2-1.5,5.2,0.1,7.4c0.3,0.4,0.7,0.8,1.1,1.2
		c-0.1-0.1-0.2-0.2-0.4-0.3c-0.3-0.3-0.6-0.6-0.8-0.9c-0.8-1.1-1.3-2.4-1.3-3.8s0.4-2.7,1.2-3.8c0.2-0.3,0.5-0.6,0.8-0.9
		C345,102.6,345.1,102.5,345.3,102.4z"/>
	<path class="st0" d="M320.5,108.8c0-1.2,0-2.3,0-3.5c0-0.3,0-0.6-0.1-0.9s-0.4-0.5-0.7-0.6c-0.6-0.1-1.1,0.2-1.4,0.7
		s-0.4,1.1-0.4,1.7c0,0.9,0,1.8,0.1,2.8c0,0.4,0.1,0.9,0.3,1.3c0.2,0.5,0.9,0.8,1.4,0.6c0.3-0.1,0.5-0.4,0.6-0.7
		C320.4,109.7,320.5,109.3,320.5,108.8L320.5,108.8z"/>
	<path class="st0" d="M339.8,107.8c0,0-3.6,0.1-8,0.1s-8,0-8-0.1s3.6-0.1,8-0.1S339.8,107.8,339.8,107.8z"/>
	<polygon class="st0" points="317.1,102.3 317,94.1 321.5,94.1 321.6,102.3 	"/>
	<path class="st1" d="M321.3,95.6c-1.4,0.1-2.8,0.1-4.1,0C318.5,95.4,319.9,95.4,321.3,95.6z"/>
	<path class="st1" d="M321.3,96.8c-1.4,0.1-2.8,0.1-4.1,0C318.5,96.7,319.9,96.7,321.3,96.8z"/>
	<path class="st1" d="M321.3,98.1c-1.4,0.1-2.8,0.1-4.1,0C318.5,98,319.9,98,321.3,98.1z"/>
	<path class="st1" d="M321.3,99.3c-1.4,0.1-2.8,0.1-4.1,0C318.5,99.2,319.9,99.2,321.3,99.3z"/>
	<path class="st1" d="M321.3,100.6c-1.4,0.1-2.8,0.1-4.1,0C318.5,100.5,319.9,100.5,321.3,100.6z"/>
	<path class="st5" d="M316.8,93.9h49.3c0.6,2.9,0.6,5.9,0,8.8H317v-0.6h3c0.8,0,1.4-0.6,1.4-1.4l0,0v-4.9c0-0.8-0.6-1.4-1.4-1.4
		h-3.2V93.9L316.8,93.9z"/>
	<path class="st6" d="M328.5,98.3h0.9c0.1,0,0.1,0.1,0.1,0.2l0,0c0,0.1,0,0.1,0,0.2c-0.1,0.3-0.3,0.7-0.5,0.9
		c-0.2,0.2-0.4,0.3-0.7,0.4h-0.1c-0.2-0.1-0.4-0.2-0.6-0.4c-0.2-0.3-0.3-0.7-0.2-1c0-0.2,0-0.5,0.1-0.7c0.1-0.4,0.2-0.7,0.5-1
		c0.2-0.2,0.5-0.4,0.7-0.4c0.1,0,0.2,0,0.3,0.1c0.2,0.1,0.4,0.3,0.5,0.6v0.1v0.1c0,0.1-0.1,0.1-0.1,0.1h-0.1l-0.1-0.1l0,0
		c0-0.1-0.1-0.1-0.1-0.2c-0.1-0.1-0.2-0.2-0.4-0.2c-0.1,0-0.2,0-0.3,0.1c-0.2,0.2-0.4,0.4-0.5,0.7c-0.1,0.3-0.2,0.6-0.2,0.9
		c0,0.2,0,0.5,0.1,0.7s0.2,0.3,0.4,0.3c0.2,0,0.3-0.1,0.4-0.2c0.2-0.2,0.3-0.5,0.4-0.8h-0.6c-0.1,0-0.2-0.1-0.2-0.2v-0.1
		C328.3,98.3,328.4,98.3,328.5,98.3L328.5,98.3z"/>
	<path class="st6" d="M331.3,96.7C331.3,96.7,331.3,96.8,331.3,96.7c0,0.2,0.2,1.2,0.6,3.1l0,0v0.1c0,0.1-0.1,0.1-0.1,0.1l0,0
		c-0.1,0-0.1-0.1-0.1-0.1l-0.2-1h-1l-0.5,1l0,0c0,0.1-0.1,0.1-0.1,0.1h-0.1c0,0-0.1-0.1-0.1-0.2v-0.1c0-0.1,0.1-0.2,0.2-0.3
		c0.7-1.6,1.1-2.5,1.3-2.7C331.2,96.6,331.3,96.6,331.3,96.7C331.2,96.6,331.2,96.6,331.3,96.7z M331,97.4l-0.5,1.2h0.8L331,97.4z"
		/>
	<path class="st6" d="M334,100.1h-1.6c0-0.1-0.1-0.1-0.1-0.2l0,0c0-0.1,0.1-1.1,0.4-3.1c0,0,0,0,0-0.1s0.1-0.1,0.2-0.1h0.1
		c0.1,0,0.1,0.1,0.1,0.2s0,0.4-0.1,0.8l-0.3,2.1h1.3h0.1c0.1,0,0.1,0.1,0.1,0.2v0.1C334.2,100,334.1,100.1,334,100.1z"/>
	<path class="st6" d="M336,96.7C336,96.7,336,96.8,336,96.7c0,0.2,0.2,1.2,0.6,3.1l0,0v0.1c0,0.1-0.1,0.1-0.1,0.1l0,0
		c-0.1,0-0.1-0.1-0.1-0.1l-0.2-1h-1l-0.5,1l0,0l-0.1,0.1h-0.1c0,0-0.1-0.1-0.1-0.2c0,0,0,0,0-0.1l0.1-0.3c0.7-1.6,1.1-2.5,1.3-2.7
		C335.8,96.6,335.9,96.6,336,96.7C336,96.6,336,96.6,336,96.7L336,96.7z M335.8,97.4l-0.6,1.2h0.8L335.8,97.4z"/>
	<path class="st6" d="M338.4,98.5l0.3,0.7c0.2,0.4,0.2,0.7,0.2,0.7v0.1c0,0.1-0.1,0.1-0.1,0.1c-0.1,0-0.1-0.1-0.1-0.1v-0.1
		c-0.1-0.2-0.2-0.5-0.4-1l-0.8,1.2c0,0.1-0.1,0.1-0.2,0.1h-0.1c0,0-0.1-0.1-0.1-0.2l0,0l0.1-0.1c0.3-0.4,0.6-0.8,0.9-1.3
		c0-0.1-0.1-0.2-0.1-0.3c-0.3-0.8-0.5-1.3-0.5-1.3v-0.1c0-0.1,0.1-0.1,0.1-0.1c0.1,0,0.1,0,0.2,0.1l0.5,1.3l1-1.3
		c0-0.1,0.1-0.1,0.2-0.1c0,0,0,0,0.1,0c0,0,0.1,0.1,0.1,0.2v0.1L338.4,98.5L338.4,98.5z"/>
	<path class="st6" d="M342.1,96.6L342.1,96.6c0.1,0,0.2,0.1,0.2,0.2c-0.2,1.9-0.4,3-0.4,3.1c0,0.3-0.1,0.6-0.3,0.8
		c-0.2,0.3-0.6,0.5-1,0.5c-0.2,0-0.3-0.1-0.5-0.1c-0.2-0.1-0.4-0.2-0.5-0.5v-0.1v-0.1c0-0.1,0.1-0.1,0.1-0.1s0.1,0,0.1,0.1
		c0.2,0.3,0.5,0.4,0.8,0.4c0.2,0,0.5-0.1,0.6-0.3c0.2-0.3,0.3-0.6,0.3-0.9c-0.1,0.3-0.4,0.4-0.8,0.4h-0.1c-0.2,0-0.5-0.2-0.6-0.4
		c-0.2-0.3-0.3-0.7-0.2-1V98c0-0.2,0.1-0.7,0.2-1.3c0,0,0,0,0-0.1s0.1-0.1,0.2-0.1h0.1c0.1,0,0.1,0.1,0.1,0.1c0,0.2,0,0.5-0.1,0.7
		c-0.1,0.5-0.1,0.9-0.1,1c0,0.3,0,0.6,0.1,0.8c0.1,0.2,0.2,0.4,0.4,0.4h0.1c0.2-0.1,0.3-0.2,0.4-0.4c0.2-0.2,0.3-0.5,0.4-0.8
		l0.2-1.7v-0.1C341.9,96.6,342,96.6,342.1,96.6L342.1,96.6z"/>
	<path class="st0" d="M364.3,102.8c0,0-0.1-2-0.1-4.5s0-4.5,0.1-4.5s0.1,2,0.1,4.5S364.3,102.8,364.3,102.8z"/>
	<path class="st1" d="M323.9,102.8c0,0-0.1-2-0.1-4.5s0-4.5,0.1-4.5s0.1,2,0.1,4.5S323.9,102.8,323.9,102.8z"/>
	<path class="st0" d="M365.1,102.8c0,0-0.1-2-0.1-4.5s0-4.5,0.1-4.5s0.1,2,0.1,4.5S365.2,102.8,365.1,102.8z"/>
	<path class="st1" d="M323.1,102.8c0,0-0.1-2-0.1-4.5s0-4.5,0.1-4.5s0.1,2,0.1,4.5S323.1,102.8,323.1,102.8z"/>
	<path class="st1" d="M352.3,95.3L352.3,95.3l5.2,4.2l0,0l-0.7,0.2l-4.4,1.2l0,0l-4-1.7l-1.2-0.4l-0.3-0.1l0,0l0.3,0.1l1.1,0.5
		l4,1.7l0,0l4.4-1.2l0.7-0.2l0,0L352.3,95.3L352.3,95.3"/>
	<polygon class="st1" points="357,98.8 357.3,99.1 357.7,99 357.5,99.3 357.7,99.7 357.4,99.6 357.1,99.9 357,99.5 356.7,99.4 
		357,99.2 	"/>
	<polygon class="st1" points="352,100.5 352.2,100.6 352.5,100.6 352.4,100.8 352.5,101 352.3,101 352.1,101.2 352,100.9 
		351.8,100.8 352,100.7 	"/>
	<polygon class="st1" points="346.5,98.2 346.8,98.2 347,98 347.1,98.3 347.4,98.4 347.1,98.6 347.1,98.9 346.9,98.7 346.6,98.8 
		346.7,98.5 	"/>
	<polygon class="st1" points="359.4,95.3 359.7,95.4 359.9,95.1 360,95.4 360.3,95.5 360,95.7 360,96 359.7,95.8 359.5,95.9 
		359.5,95.6 	"/>
	<polygon class="st1" points="352,95.1 352.3,95.2 352.4,95 352.4,95.2 352.6,95.2 352.5,95.4 352.4,95.6 352.3,95.4 352.1,95.5 
		352.2,95.3 	"/>
	<path class="st1" d="M359.8,95.6c0,0-1.7,0-3.8-0.1s-3.8-0.2-3.8-0.2s1.7,0,3.8,0.1S359.8,95.5,359.8,95.6z"/>
	<path class="st1" d="M361.7,93.8h-50c-0.7-1.3-0.7-2.9,0-4.2h50C362.3,91,362.3,92.5,361.7,93.8z"/>
	<rect x="322" y="90.8" class="st5" width="27.1" height="1.5"/>
	<path class="st1" d="M313.6,93.8c-0.2-0.1-0.3-0.3-0.4-0.5c-0.2-0.5-0.4-1-0.5-1.5c0-0.5,0-1,0.2-1.5c0.1-0.2,0.2-0.4,0.3-0.6
		c0,0.2-0.1,0.4-0.2,0.6c-0.1,0.5-0.2,1-0.1,1.5c0,0.5,0.2,1,0.4,1.4C313.5,93.6,313.6,93.8,313.6,93.8L313.6,93.8z"/>
	<path class="st1" d="M314.7,93.8c-0.2-0.1-0.3-0.3-0.4-0.5c-0.2-0.5-0.4-1-0.5-1.5c0-0.5,0-1.1,0.2-1.5c0-0.2,0.2-0.4,0.3-0.6
		c0,0-0.1,0.2-0.2,0.6c-0.1,0.5-0.2,1-0.1,1.5s0.2,1,0.4,1.4C314.5,93.5,314.6,93.7,314.7,93.8L314.7,93.8z"/>
	<path class="st0" d="M359.7,93.7c0.2-0.7,0.3-1.3,0.4-2c0-0.7-0.1-1.3-0.3-2c0.4,0.6,0.5,1.3,0.5,2
		C360.2,92.4,360.1,93.1,359.7,93.7z"/>
	<path class="st0" d="M358.8,93.7c0,0,0.2-0.9,0.1-2s-0.2-2-0.1-2c0.2,0.6,0.4,1.3,0.3,2C359.1,92.4,359,93.1,358.8,93.7z"/>
	<polygon class="st1" points="380.3,68 414.6,68 414.6,112.8 380.5,112.8 	"/>
	<rect x="377.8" y="68.2" class="st7" width="34.1" height="44.3"/>
	<path class="st1" d="M412.1,68.1v44.7h-34.5V68.1H412.1z M411.8,112.4v-44H378v44H411.8z"/>
	<rect x="381.4" y="73" class="st7" width="26.1" height="34.7"/>
	<path class="st1" d="M381.3,73c0,0.1,0,0.1,0,0.2v34.6l-0.1-0.1h26.1l-0.1,0.1V73l0.1,0.1l0,0V108h-26.2V73.2L381.3,73L381.3,73z"
		/>
	<path class="st1" d="M377.7,112.6c0.1-0.3,0.3-0.5,0.5-0.8c0.3-0.4,0.7-1.1,1.2-1.7s1-1.2,1.3-1.7c0.2-0.2,0.4-0.5,0.6-0.7
		c-0.1,0.3-0.3,0.5-0.5,0.7l-1.3,1.7l-1.3,1.7C378.1,112.2,378,112.4,377.7,112.6L377.7,112.6z"/>
	<path class="st1" d="M377.8,68.2c0.6,0.8,1.3,1.5,1.8,2.3c0.6,0.8,1.2,1.6,1.7,2.5c-0.6-0.8-1.3-1.5-1.8-2.3
		C378.9,69.9,378.3,69.1,377.8,68.2L377.8,68.2z"/>
	<line class="st8" x1="412" y1="68.2" x2="407.5" y2="73.2"/>
	<path class="st1" d="M407.5,73.2c0.7-0.9,1.4-1.7,2.2-2.6c1.2-1.4,2.3-2.5,2.3-2.4c-0.7,0.9-1.4,1.7-2.2,2.6
		C409.1,71.6,408.3,72.4,407.5,73.2z"/>
	<path class="st1" d="M412,112.6c-0.8-0.7-1.5-1.5-2.2-2.3s-1.4-1.6-2.1-2.4c0.8,0.7,1.5,1.5,2.2,2.3
		C410.6,110.9,411.3,111.7,412,112.6z"/>
	<path class="st1" d="M382.6,107.8c0,0,2.8-8.7,4.5-9.6c2.2-1.2,4.8-1.9,7.3-2c3.9,0,5.7,0.3,8,1.8c2.6,1.8,4.4,9.7,4.4,9.7"/>
	<path class="st1" d="M390.4,81.8c-2.4,0.1-3,3.3-2.8,5.2c0.2,0.8,0.2,1.8-0.1,2.6c-0.3,0.5-0.9,0.9-1.2,1.4
		c-0.2,0.7-0.1,1.5,0.2,2.2c0.3,0.7,0.2,1.5-0.2,2.1c1.4,0.4,2.7,0.7,4.1,0.8c1.4,0.1,2.8-0.2,4.1-0.9"/>
	<path class="st1" d="M388.7,88.3c-1.3-2.4-0.4-5.4,2-6.7c0.9-0.4,1.8-0.6,2.8-0.6s1.9,0,2.8,0.2s1.8,0.7,2.5,1.4
		c1.1,1.3,1.5,3.1,1.3,4.7c-0.1,2-0.7,3.9-1.7,5.7c-0.1,0.2-0.3,0.4-0.5,0.6c-0.2,0.1-0.5,0.1-0.7-0.1"/>
	<path class="st0" d="M394,100.8c1.6,0.1,3-1.3,3.2-3.8l0.9-12.8l-0.1,0.9c0-0.5-0.4-1-0.9-1l-5.1-0.5c-1.7-0.2-3.2,1-3.4,2.7
		c0,0.1,0,0.1,0,0.2c-0.2,1.9-0.1,3.9,0,5.8c0.1,1.6,1.2,2.9,2.7,3.3l-0.2,2.1C391.1,99.2,392.4,100.6,394,100.8L394,100.8
		L394,100.8z"/>
	<path class="st1" d="M389.6,88c0,0.2,0.2,0.4,0.4,0.4c0.2,0,0.4-0.1,0.4-0.3l0,0c0-0.2-0.2-0.4-0.4-0.4
		C389.8,87.7,389.7,87.8,389.6,88L389.6,88z"/>
	<path class="st1" d="M389.3,87.6c0,0,0.3-0.2,0.7-0.2s0.7,0.2,0.7,0.2s0-0.1-0.1-0.2c-0.2-0.1-0.4-0.2-0.6-0.2s-0.4,0.1-0.6,0.2
		C389.3,87.5,389.2,87.6,389.3,87.6z"/>
	<path class="st1" d="M393.5,88c0,0.2,0.2,0.4,0.4,0.4c0.2,0,0.4-0.1,0.4-0.3l0,0c0-0.2-0.2-0.4-0.4-0.4S393.5,87.8,393.5,88
		L393.5,88z"/>
	<path class="st1" d="M393.2,87.7c0,0,0.3-0.2,0.7-0.2s0.7,0.2,0.7,0.2s0-0.1-0.1-0.2c-0.2-0.1-0.4-0.2-0.6-0.2s-0.4,0.1-0.6,0.2
		C393.2,87.6,393.1,87.7,393.2,87.7z"/>
	<path class="st1" d="M391.7,90.7c-0.2-0.1-0.4-0.1-0.6-0.1c-0.1,0-0.2,0-0.2-0.1s0-0.2,0.1-0.3c0.1-0.2,0.2-0.5,0.3-0.8
		c0.3-0.7,0.5-1.3,0.7-2c-0.3,0.6-0.6,1.3-0.8,2l-0.3,0.8c-0.1,0.1-0.1,0.3,0,0.4c0,0.1,0.1,0.1,0.2,0.2c0.1,0,0.1,0,0.2,0
		C391.3,90.7,391.5,90.7,391.7,90.7L391.7,90.7z"/>
	<path class="st5" d="M391.5,95.4c1.4,0,2.7-0.3,3.9-1.1c-0.9,1.3-2.4,2-4,1.8C391.4,96.1,391.5,95.4,391.5,95.4z"/>
	<path class="st1" d="M391.9,91.6c0.1-0.2,0.4-0.3,0.6-0.3s0.3,0.1,0.5,0.2c0.1,0.2,0.1,0.3,0,0.5s-0.3,0.2-0.5,0.1
		s-0.4-0.2-0.5-0.3L391.9,91.6C391.9,91.7,391.8,91.7,391.9,91.6"/>
	<path class="st1" d="M392.9,90.9c-0.1,0-0.1,0.4-0.4,0.7s-0.8,0.3-0.8,0.3s0.1,0.1,0.3,0.1c0.3,0,0.5-0.1,0.7-0.2
		c0.2-0.2,0.3-0.4,0.3-0.6C393,91,392.9,90.9,392.9,90.9z"/>
	<path class="st1" d="M393,87c0,0.1,0.5,0.1,0.9,0.1s0.9,0.2,0.9,0.1s0-0.2-0.2-0.2c-0.2-0.1-0.4-0.2-0.7-0.2c-0.2,0-0.5,0-0.7,0.1
		C393.1,86.8,393,86.9,393,87L393,87z"/>
	<path class="st1" d="M389.4,86.4c0.1,0.1,0.4,0,0.7,0s0.6,0.1,0.7,0s0-0.1-0.1-0.2c-0.2-0.1-0.4-0.2-0.6-0.2s-0.4,0.1-0.5,0.2
		C389.4,86.3,389.3,86.4,389.4,86.4L389.4,86.4z"/>
	<path class="st1" d="M391,81.4c2.8-1.6,5.9-0.5,8.1,1.8c0.5,0.6,1,1,1.6,1.4c0.7,0.3,1.7,0.2,2.1,0.9s-0.2,1.8,0.2,2.7
		s1.4,1,1.8,1.7c0.2,0.6,0.2,1.3,0,1.9s-0.1,1.3,0.3,1.8l-6.1,2.3c-0.3,0.1-0.6,0.1-0.9,0.1c-0.9-0.2-0.9-1-0.9-1.6
		c0.1-0.5,0.1-1,0-1.5c-0.2-0.5-0.9-0.8-1.1-1.4c-0.4-1,0.7-2,0.6-3c-0.1-0.7-0.6-1.2-1.2-1.4c-0.6-0.3-1.3-0.3-1.9-0.5
		c-1.5-0.6-2.7-1.8-3.2-3.2C390,82.7,390.3,81.8,391,81.4L391,81.4L391,81.4z"/>
	<path class="st1" d="M393.3,380.3c-4.1-2.6-8.8-4.2-13.7-4.7c-2.2-0.2-4.7-0.2-6.5,1.2c-0.4,0.2-0.7,0.7-0.7,1.2
		c0.1,0.3,0.3,0.6,0.6,0.8C379,383,386.8,383.6,393.3,380.3"/>
	<path class="st1" d="M392.9,379.9c-3.2-2.3-6.1-4.9-8.8-7.8c-2.7-2.9-4.6-6.4-5.5-10.2c-0.4-1.1-0.2-2.4,0.4-3.4
		C386,364,391.5,371.1,392.9,379.9"/>
	<path class="st1" d="M393.2,380.2c-0.6-3.8-0.6-7.8,0.2-11.6c0.8-3.9,3-7.3,6.2-9.6c1.2,2.8,0.7,6.1-0.2,9.1
		c-1.3,4.6-3.4,9-6.1,12.9"/>
	<path class="st1" d="M400.1,392.6c-4.2,0.5-7.8,2.7-11,5.5c-3.1,2.9-5.3,6.6-6.3,10.8c4.1-0.2,7.6-3.1,10.1-6.4
		S397.2,395.7,400.1,392.6"/>
	<path class="st1" d="M401.6,394.6c-3.4-8.5-2.2-18.1,3.1-25.6C407.1,377.5,406.2,387.1,401.6,394.6"/>
	<path class="st1" d="M410.7,405.4c-7.8-0.5-15.2,3.7-18.7,10.7c-0.2,0.5-0.4,1-0.1,1.5c0.3,0.3,0.8,0.5,1.2,0.4
		c3.7-0.2,7-2.5,9.6-5S407.8,407.5,410.7,405.4"/>
	<path class="st1" d="M410.4,404.8c-2-6.3-2.1-13.1-0.4-19.5c0.7-2.5,1.8-5.1,4.1-6.3c0.2-0.1,0.4-0.2,0.6-0.1s0.3,0.3,0.4,0.5
		c0.8,1.8,1.1,3.7,1,5.6s-0.4,3.8-0.9,5.6c-0.7,3.5-1.1,7.2-3,10.1c-0.4,0.7-0.9,1.5-1.2,2.2c-0.4,0.8-0.4,1-0.7,1.6"/>
	<path class="st1" d="M434.5,408.4c-1.8-6.8,0.1-15,4.4-20.6c0.3-0.4,0.7-0.9,1.2-0.8c0.8,0.1,1,1.1,1,1.9
		C440.9,395.9,438.6,402.7,434.5,408.4"/>
	<path class="st1" d="M436.7,409.9c8.5,2,17.5,0.2,24.6-5c-4.1-2.1-8.8-2.7-13.3-1.6C443.6,404.3,439.5,406.3,436.7,409.9"/>
	<path class="st1" d="M438.6,405.4c4.6-7.5,13.5-12.5,22.3-12.9c-1,3.6-4,6.4-7.3,8.1c-3.4,1.5-7,2.6-10.7,3.1
		C441.5,404,439.5,404.3,438.6,405.4"/>
	<path class="st1" d="M435,383.4c1.4-4.2,2.4-8.6,2.9-13.1s-0.4-9-2.6-12.9c-4.3,8.4-4.8,18.1-0.4,26.5"/>
	<path class="st1" d="M449.6,376c5.1-9.2,15.4-16.5,25.8-17.6C471.4,368.5,460.4,376.3,449.6,376"/>
	<path class="st1" d="M446.4,377.9c7.5,1.1,14,6,21,8.9c1.5,0.7,3.1,1,4.8,0.9c2,0,3.7-1.7,3.7-3.8c0-1.1-0.5-2.1-1.3-2.8
		c-1-0.9-2.2-1.6-3.5-2.1c-7.7-3.2-15.9-3.3-24-1.3"/>
	<path class="st1" d="M442,383.2c1.7,0.5,2.3,1.4,3.6,2.5c4.6,3.9,10.1,6.7,15.9,8.2c0.6,0.1,1.4,0.2,1.7-0.3s-0.1-1.1-0.4-1.5
		c-2.6-3-5.9-5.3-9.6-6.5c-3.7-1.4-6.9-3-11.2-2.7"/>
	<path class="st1" d="M437.1,351.2c6.3,5.8,14.7,8.7,23.2,7.9c0.4,0,0.8-0.1,1-0.4c0.6-0.6-0.1-1.6-0.8-2.1
		C453.7,351.2,445.5,349,437.1,351.2"/>
	<path class="st1" d="M442.9,349.1c8.3-6.1,19-7.9,28.9-4.8c-3.8,3.5-8.6,5.6-13.8,6C453,350.8,447.9,350.3,442.9,349.1"/>
	<path class="st1" d="M440.6,334.4c-0.7-6.8-0.2-12.1-0.7-19c0-0.5-0.2-1.2-0.7-1.4c-0.7-0.3-1.3,0.6-1.5,1.3
		c-2,6.4-0.9,13.4,2.9,18.9"/>
	<path class="st1" d="M440.1,335.2c4.4-2.9,8.2-6.6,11.2-10.9c2.2-3,4.1-6.7,3.6-10.4c-3.2,0.1-6.1,1.5-8.1,4
		c-1.9,2.5-3.3,5.3-4.1,8.3C441.8,329.1,441.2,332.2,440.1,335.2"/>
	<path class="st1" d="M451.2,332.1c10.1-3.7,19.5-9.3,27.7-16.3c-3.3-1.3-7.1-0.5-10.4,0.8c-7.5,2.8-13.7,8.3-17.4,15.4"/>
	<path class="st1" d="M443.3,338.9c5.1,0.5,10.3,0.9,15.4,0.1s9.6-2.8,14.3-4.8c0.4-0.1,0.8-0.4,1-0.7c0.1-0.4,0-0.9-0.4-1.2
		c-0.4-0.3-0.8-0.5-1.2-0.6c-5.1-1.4-10.5-0.8-15.5,0.9C452.1,334.2,447.6,336.3,443.3,338.9"/>
	<path class="st1" d="M414.1,351.4c-3.5-7-3.3-15.2-0.2-22.5c2.1,3.2,2.4,7.3,2,11.2s-1.6,7.8-1.6,11.6"/>
	<path class="st1" d="M400.2,344.4c-8.8-0.1-17.3,3.5-23.3,9.9c4.4,0.5,8.9-0.3,12.8-2.4s7.5-4.5,10.9-7.3"/>
	<path class="st1" d="M390.8,341.3c-4.3-0.4-8.4-0.9-12.4,0.4c-4.2,1.2-7.6,4.1-9.5,8c4,0.3,8-0.4,11.7-2.2
		C384.2,345.7,387.6,343.6,390.8,341.3"/>
	<path class="st1" d="M404.7,341.4c-3.8-2.5-7.8-5.1-12.2-6.1s-9.6-0.3-12.7,3.1c3.6,2.1,8,2.4,12.2,2.4s9.3,0,13.3,1.3"/>
	<path class="st1" d="M404.7,341.6c-6.5-6.4-9-18-6.4-26.8C403.4,322.8,405.7,332.2,404.7,341.6"/>
	<path class="st1" d="M422.7,323.4c1.2-2.9,2.1-5.9,3.2-8.8c1-3,2.6-5.7,4.6-8.1s5-3.9,8.1-4.2c-2,9-7.7,16.6-15.7,21.1"/>
	<path class="st1" d="M419.4,327.2c-2-2.8-4.4-6.6-7.2-8.7s-6.4-3.4-9.8-2.6C406,322.1,412.3,326.3,419.4,327.2"/>
	<path class="st1" d="M420.1,323.7c-1.5-3.4-2.5-6.9-3.2-10.5s-0.1-7.4,1.6-10.6c3.6,6.8,4.8,14.1,1.8,21.2"/>
	<path class="st1" d="M422.7,302.6c2-6.7,8.2-11.7,14.9-14c0.8-0.3,1.7-0.5,2.6-0.4s1.7,0.7,1.9,1.6c0.2,1.1-0.7,2.2-1.6,2.9
		C435.3,297.2,429.2,300.5,422.7,302.6"/>
	<path class="st1" d="M422.8,297.1c0.3-4.3,0.5-8.8,1.9-12.9s4.1-8,8.1-9.8c0.7,4.4-1.3,8.7-3.6,12.5s-5.1,7.3-6.5,11.5"/>
	<path class="st1" d="M422.7,300.1c-1.7-4.9-1.9-11.1-4.8-15.4c-2-3-5.3-5-7.1-8.2c-1.1,3-0.9,6.4,0.4,9.3s3.2,5.5,5.4,7.8
		C418.8,295.9,420.6,297.6,422.7,300.1"/>
	<path class="st1" d="M422.7,444.5c-0.1,0-0.2-32.7-0.3-73.1s0.1-73.1,0.2-73.1s0.2,32.7,0.3,73.1S422.8,444.5,422.7,444.5z"/>
	<path class="st1" d="M451.3,346.5c-0.4,0.2-0.8,0.4-1.2,0.5l-3.4,1.1c-2.9,1-6.8,2.4-11,4.1s-8.2,3.3-10.5,5.2
		c-0.9,0.8-1.6,1.7-2.1,2.8c-0.3,0.8-0.4,1.2-0.4,1.2c0-0.1,0-0.2,0-0.3c0-0.3,0.1-0.7,0.2-1c0.4-1.2,1.1-2.2,2-3
		c1.4-1.2,2.9-2.1,4.5-2.8c1.8-0.8,3.8-1.7,6-2.6c4.3-1.8,8.2-3.1,11.1-4c1.4-0.5,2.6-0.8,3.4-1
		C450.5,346.6,450.9,346.5,451.3,346.5L451.3,346.5z"/>
	<path class="st1" d="M460.7,323.5c0,0-0.1,0.1-0.3,0.4l-1,1l-3.9,3.6l-13,11.6c-5.1,4.5-9.5,8.9-12.5,12.1c-1.5,1.6-2.7,3-3.5,3.9
		l-1,1.1c-0.1,0.1-0.2,0.2-0.4,0.4c0,0,0.1-0.1,0.3-0.4s0.5-0.6,0.9-1.1c0.8-1,1.9-2.4,3.4-4c3.9-4.3,8.1-8.4,12.5-12.2
		c5.1-4.5,9.8-8.6,13.1-11.5c1.6-1.4,3-2.6,4-3.5l1.1-0.9C460.4,323.7,460.5,323.6,460.7,323.5L460.7,323.5z"/>
	<path class="st1" d="M436.8,344.6c-0.1-0.1,0.9-2.5,2-5.6s1.6-5.7,1.7-5.7c-0.1,2-0.5,4-1.3,5.9c-0.5,1.3-1,2.6-1.6,3.9
		C437.5,343.6,437.2,344.1,436.8,344.6L436.8,344.6z"/>
	<path class="st1" d="M422.7,364.4c-0.3-0.3-0.6-0.6-0.8-0.9l-2-2.6c-1.7-2.2-4-5.2-6.6-8.5s-5-6.3-6.8-8.4l-2.1-2.5
		c-0.3-0.3-0.5-0.6-0.7-1c0.3,0.2,0.6,0.5,0.9,0.9c0.5,0.6,1.3,1.4,2.2,2.5c1.8,2.1,4.3,5,6.9,8.3s4.9,6.4,6.5,8.6
		c0.8,1.1,1.5,2,1.9,2.7C422.4,363.7,422.6,364.1,422.7,364.4L422.7,364.4z"/>
	<path class="st1" d="M416.5,356.4c-1.3-1.4-2.2-3.1-2.6-4.9c-0.5-1.6-0.7-3.3-0.6-5h0.2c-0.1,0.4-0.2,0.6-0.2,0.6s0-0.2,0-0.6h0.2
		c0.1,1.6,0.4,3.2,0.8,4.8C414.9,353,415.6,354.7,416.5,356.4L416.5,356.4z"/>
	<path class="st1" d="M408.4,346.2c-0.6-0.4-1.2-0.8-1.8-1.1c-1.6-0.5-3.4-0.6-5.1-0.4c-1.7,0.1-3.4,0.4-5.1,0.8
		c-0.7,0.2-1.4,0.4-2.1,0.5c0.6-0.4,1.3-0.6,2-0.8c1.7-0.5,3.4-0.9,5.2-1c1.8-0.2,3.6,0,5.2,0.6C407.4,345,408,345.5,408.4,346.2
		L408.4,346.2z"/>
	<path class="st1" d="M406.5,343.7c0,0.1-1.1-0.4-2.8-1c-2.3-0.8-4.6-1.3-7-1.5s-4.8,0-7.1,0.4c-1.8,0.3-2.9,0.7-2.9,0.6
		c0.2-0.1,0.5-0.2,0.8-0.3c0.7-0.2,1.4-0.5,2.1-0.6c4.8-1,9.8-0.7,14.3,1.1c0.7,0.3,1.4,0.6,2,0.9
		C406.3,343.5,406.5,343.7,406.5,343.7L406.5,343.7z"/>
	<path class="st1" d="M422.7,333.3c-0.8-2.3-1.5-4.7-2-7.1c-0.7-2.4-1.2-4.8-1.6-7.2c0.8,2.3,1.5,4.7,2,7.1
		C421.8,328.4,422.3,330.8,422.7,333.3z"/>
	<path class="st1" d="M422.8,333.3c-0.6-1.5-1.4-2.9-2.3-4.3c-1-1.3-2.1-2.4-3.3-3.4c0.5,0.1,0.9,0.3,1.3,0.7c1,0.7,1.8,1.5,2.4,2.5
		C421.9,330.1,422.6,331.6,422.8,333.3L422.8,333.3z"/>
	<path class="st1" d="M422.7,427.1c-0.1,0-0.1-0.8-0.5-2.2c-0.5-2-1.3-3.9-2.2-5.7c-3.1-5.9-7-11.4-11.6-16.3
		c-2.6-3-5.1-5.8-7.2-8.4c-1.9-2.4-3.6-4.9-5.2-7.5c-1-1.8-1.9-3.6-2.6-5.5c-0.2-0.7-0.4-1.2-0.5-1.6c-0.1-0.2-0.1-0.4-0.1-0.6
		c0,0,0.3,0.8,0.8,2.1c0.8,1.9,1.7,3.7,2.7,5.4c1.6,2.6,3.3,5,5.2,7.4c2.1,2.6,4.6,5.4,7.2,8.4c5.2,5.9,9.3,11.8,11.5,16.5
		c0.9,1.8,1.6,3.8,2.1,5.8c0.1,0.7,0.2,1.3,0.3,1.6C422.7,426.7,422.7,426.9,422.7,427.1L422.7,427.1z"/>
	<path class="st1" d="M448.5,397.9c-0.4,0.3-0.9,0.5-1.4,0.8c-1.2,0.7-2.4,1.5-3.5,2.3c-1.6,1.3-3.2,2.7-4.6,4.2
		c-1.6,1.7-3.3,3.7-5,5.8c-3.4,4.3-6.6,8-8.5,11.1c-1,1.5-1.7,2.8-2.1,3.6c-0.2,0.5-0.5,0.9-0.7,1.4c0,0,0-0.1,0.1-0.4
		s0.2-0.6,0.5-1.1c0.6-1.3,1.3-2.5,2-3.7c2.6-3.9,5.4-7.6,8.4-11.2c1.7-2.1,3.4-4.1,5-5.8c1.5-1.5,3-2.9,4.7-4.2
		c1.1-0.8,2.4-1.6,3.6-2.2c0.5-0.2,0.8-0.4,1.1-0.5S448.5,397.9,448.5,397.9L448.5,397.9z"/>
	<path class="st1" d="M449,407.4c-0.9,0.2-1.9,0.4-2.9,0.4c-2.3,0.2-4.6,0.7-6.8,1.3c-2.2,0.7-4.2,1.8-6.1,3.2
		c-1.4,1.1-2.1,2-2.1,1.9c0.1-0.2,0.2-0.5,0.4-0.7c0.4-0.6,0.9-1.1,1.5-1.5c1.8-1.5,3.9-2.7,6.1-3.4c2.2-0.7,4.6-1.1,6.9-1.2
		C447.1,407.3,448.1,407.3,449,407.4z"/>
	<path class="st1" d="M432,413.2c-0.1-0.1,1.1-2.1,2.1-4.7s1.2-5,1.3-5c0.1,0.5,0,1,0,1.5c-0.1,1.2-0.4,2.5-0.8,3.6
		c-0.4,1.2-1,2.3-1.7,3.3C432.7,412.4,432.4,412.8,432,413.2L432,413.2z"/>
	<path class="st1" d="M456.9,372.5c-0.1,0.1-0.3,0.2-0.5,0.2l-1.3,0.6c-0.6,0.2-1.3,0.6-2.1,1s-1.8,0.8-2.8,1.4
		c-0.5,0.3-1,0.6-1.6,0.9s-1.1,0.7-1.6,1c-1.2,0.7-2.3,1.6-3.5,2.4c-5.3,3.9-9.9,8.7-13.6,14.1c-0.8,1.3-1.7,2.4-2.3,3.6
		c-0.3,0.6-0.7,1.1-1,1.7s-0.6,1.1-0.8,1.6c-0.6,1-1,2-1.4,2.8s-0.7,1.5-0.9,2.1l-0.6,1.4c-0.1,0.2-0.1,0.3-0.2,0.5
		c0-0.2,0.1-0.3,0.1-0.5l0.5-1.4c0.2-0.7,0.5-1.5,0.9-2.2c0.4-0.8,0.8-1.8,1.3-2.8l0.8-1.6c0.3-0.6,0.6-1.1,1-1.7
		c0.6-1.2,1.5-2.4,2.3-3.7c1.9-2.7,4-5.3,6.2-7.7c2.3-2.4,4.8-4.5,7.4-6.5c1.2-0.9,2.4-1.7,3.6-2.4c0.6-0.4,1.1-0.7,1.7-1l1.6-0.9
		c1-0.6,2-1,2.8-1.4c0.7-0.4,1.4-0.7,2.2-0.9l1.4-0.5C456.6,372.6,456.7,372.5,456.9,372.5L456.9,372.5z"/>
	<path class="st1" d="M436.5,386.2c0.2-0.7,0.6-1.2,1.1-1.7c1.3-1.1,2.9-1.7,4.5-1.7s3.3,0.3,4.8,0.9c0.6,0.2,1.2,0.5,1.8,0.9
		c-0.6-0.1-1.3-0.3-1.9-0.6c-1.5-0.5-3.1-0.8-4.6-0.8c-1.6,0-3.1,0.6-4.3,1.5C437.3,385.2,436.9,385.7,436.5,386.2L436.5,386.2z"/>
	<path class="st1" d="M433.4,389.3c0.6-1.3,1-2.7,1.3-4.2c0.1-1.5,0-2.9-0.3-4.4c0.1,0,0.3,0.4,0.5,1.2c0.5,2.1,0.3,4.4-0.7,6.3
		C433.8,389,433.5,389.4,433.4,389.3z"/>
	<path class="st1" d="M400.1,431.8c0.7,12.5,4.5,25.2,10.3,38.1h25.2c5.5-12.7,9-25.4,9.7-38.1H400.1z"/>
	<path class="st6" d="M441.1,452c0,0.1-8.3,0.2-18.5,0.2s-18.5-0.1-18.5-0.2s8.3-0.2,18.5-0.2S441.1,451.9,441.1,452z"/>
	<path class="st6" d="M440.6,456.5c0,0.1-7.8,0.2-17.4,0.2s-17.4-0.1-17.4-0.2s7.8-0.2,17.4-0.2S440.6,456.4,440.6,456.5z"/>
	<path class="st6" d="M410.8,440c0.3,3.9,0.3,7.8,0,11.6C410.5,447.7,410.5,443.8,410.8,440z"/>
	<path class="st6" d="M424.3,440c0.3,4,0.3,8,0,12C423.9,448,423.9,443.9,424.3,440z"/>
	<path class="st6" d="M437,439.9c0.3,4.1,0.3,8.2,0,12.3C436.6,448,436.6,443.9,437,439.9z"/>
	<path class="st6" d="M444.5,440c0,0.1-9.7,0.2-21.7,0.2S401,440.1,401,440s9.7-0.2,21.7-0.2S444.5,439.8,444.5,440z"/>
</g>
<g id="freepik--Plant--inject-6">
	<path class="st9" d="M71.4,392.9c4.1-2.1,8.9-2.4,13.4-1.6c2.4,0.4,5,1.1,6.7,3s2,5.1,0.1,6.6c-1.2,0.8-2.7,1.2-4.2,1.1
		c-3.6,0-7.5-0.7-10.3,1.5c-1.6,1.2-2.7,3.2-4.6,3.9c-2,0.5-4-0.5-5-2.2c-0.9-1.8-1.1-3.9-0.6-5.8C67.2,396.6,68.9,394.2,71.4,392.9
		L71.4,392.9z"/>
	<path class="st9" d="M62,374.8c2.5,3.6,7.4,2.4,9.6,0.2s3.2-5.4,4.1-8.4c2-6.9,4-14.1,2.5-21.1c-0.4-2.1-1.3-4.1-2.7-5.7
		c-1.4-1.6-3.7-2.4-5.8-1.9c-2.4,0.6-4,3-5.1,5.3c-3.2,6.7-5,14.1-5,21.6C59.6,368.3,60,371.9,62,374.8"/>
	<path class="st9" d="M55.1,379.9c2.7-3.2,3.2-7.9,2-12c-1.4-4-3.8-7.6-7.1-10.3c-3.7-3.3-8-5.8-12.7-7.5c-1.8-0.7-3.8-1.1-5.7-1
		c-2,0.1-3.8,1.2-4.8,2.9c-1.3,2.5-0.1,5.6,1.3,8.2c2.4,4.4,5.2,8.7,8.3,12.7c2.5,3.2,5.4,6.4,9.2,7.9s7.8,1.3,9.8-1.4"/>
	<path class="st10" d="M61.8,428.7c0.1-0.5,0.2-1.1,0.2-1.6c0.1-1.2,0.3-2.7,0.4-4.4c0.2-2.2,0.6-4.4,1-6.5c0.6-2.6,1.4-5.2,2.4-7.7
		s2.3-4.8,3.9-6.9c1.3-1.7,3.1-3.1,5-4.1c1.3-0.6,2.7-1.1,4.2-1.3c0.5,0,1.1-0.1,1.6-0.2c-0.5-0.1-1.1-0.1-1.6,0
		c-1.5,0.1-3,0.5-4.3,1.1c-2.1,1-3.9,2.4-5.3,4.1c-1.7,2.1-3,4.5-4,7.1c-1,2.5-1.8,5.1-2.3,7.8c-0.4,2.2-0.7,4.4-0.9,6.6
		c-0.1,1.9-0.2,3.4-0.2,4.5C61.8,427.6,61.8,428.2,61.8,428.7L61.8,428.7z"/>
	<path class="st10" d="M62.1,425.3c0-0.2,0.1-0.5,0-0.8v-2.1c0-1.9,0-4.6,0.1-7.9c0.2-6.7,0.7-13.9,1.9-24c1-9.5,2.5-20.6,4-27.8
		c0.3-1.6,0.6-3.1,0.9-4.4s0.5-2.4,0.8-3.3s0.4-1.5,0.5-2.1c0.1-0.2,0.1-0.5,0.1-0.8c-0.1,0.2-0.2,0.5-0.3,0.7
		c-0.2,0.5-0.4,1.2-0.6,2.1s-0.6,2-0.9,3.3s-0.7,2.8-1,4.4c-1.8,8.5-3.2,17.1-4.2,25.8c-1.1,10.2-1.6,19.4-1.7,26.1
		c0,3.4,0,6.1,0.1,7.9c0.1,0.9,0.1,1.6,0.1,2.1C62.1,424.8,62.1,425,62.1,425.3L62.1,425.3z"/>
	<path class="st10" d="M62.2,407.5c0.1-0.8,0.1-1.5,0-2.2c-0.1-2-0.4-4.1-0.7-6.1c-0.5-3-1.2-6-2-8.9c-1-3.6-2.2-7.1-3.7-10.5
		c-2.6-6.3-6.3-12-10.9-17c-0.8-0.9-1.7-1.6-2.6-2.4c-0.4-0.3-0.7-0.7-1.1-0.9l-1-0.7c-0.6-0.5-1.2-0.9-1.9-1.2
		c2.2,1.7,4.3,3.6,6.2,5.5c4.5,5,8.1,10.7,10.6,16.9c1.5,3.4,2.7,6.9,3.7,10.4c1,3.3,1.6,6.3,2.1,8.8s0.7,4.6,0.9,6
		C61.9,405.9,62,406.7,62.2,407.5L62.2,407.5z"/>
	<polygon class="st10" points="44.9,438.9 46.7,463.4 78.2,463.4 80,438.9 	"/>
	<rect x="41.9" y="429.3" class="st10" width="41.8" height="9.6"/>
	<polygon class="st11" points="41.9,462.5 41.9,465.2 43.9,465.2 83.1,465.2 83.1,462.5 	"/>
	<polygon class="st11" points="45.8,469.9 43.9,465.2 81.6,465.2 79.3,469.9 	"/>
	<path class="st1" d="M79.4,446.9c0,0,0,0.1-0.2,0.2s-0.3,0.4-0.5,0.6l-1.8,2.4l-0.1,0.1l-0.1-0.1l-4.5-6.3h0.3l-4.4,6.3l-0.1,0.2
		l-0.2-0.2l-5.3-6.2h0.3l-0.3,0.4l-4.7,5.9l-0.2,0.2l-0.2-0.2c-1.6-2.2-3.1-4.4-4.4-6.3h0.2l-5.5,6.3l-0.1,0.1l-0.1-0.1
		c-0.7-1.2-1.3-2.2-1.7-2.9l-0.4-0.8c-0.1-0.1-0.1-0.2-0.1-0.3c0.1,0.1,0.1,0.1,0.2,0.2c0.1,0.2,0.3,0.4,0.5,0.7l1.8,2.8h-0.2
		l5.4-6.3l0.1-0.1l0.1,0.2l4.5,6.2h-0.3l4.7-6l0.3-0.4l0.2-0.2l0.2,0.2l5.2,6.3h-0.3l4.5-6.2l0.1-0.2l0.1,0.2l4.4,6.3h-0.2l1.9-2.3
		c0.2-0.2,0.4-0.4,0.5-0.6L79.4,446.9L79.4,446.9z"/>
	<path class="st11" d="M80.4,438.8c0,0.1-7.9,0.2-17.6,0.2s-17.6-0.1-17.6-0.2s7.9-0.2,17.6-0.2S80.4,438.7,80.4,438.8z"/>
	<path class="st10" d="M82,465.4c0,0.1-8.6,0.2-19.1,0.2s-19.1-0.1-19.1-0.2s8.6-0.2,19.1-0.2S82,465.3,82,465.4z"/>
</g>
<g id="freepik--Screens--inject-6">
	<path class="st7" d="M162.5,65.2l-17.7,0.2c-2.4,0.1-4.3,2.1-4.3,4.5v3.2c0.1,2.4-1.8,4.4-4.2,4.5L101.7,78c-2.4,0-4.4-2-4.3-4.5
		l0,0v-3.2c0-2.4-1.9-4.4-4.3-4.5h-6.2L71.3,66c-7.7,0.1-13.9,6.3-13.9,14.1l1.9,223.7c0.1,7.7,6.4,13.9,14.1,13.8l0,0l91.2-0.8
		c7.7-0.1,13.9-6.4,13.8-14.1L176.5,79C176.4,71.4,170.2,65.2,162.5,65.2L162.5,65.2z"/>
	<path class="st10" d="M162.5,65.2h0.5c0.5,0,0.9,0,1.4,0.1c1.9,0.2,3.6,0.8,5.2,1.8c1.2,0.7,2.3,1.5,3.2,2.6
		c1.1,1.2,2.1,2.6,2.7,4.1c0.7,1.8,1.1,3.7,1.1,5.7c0,2.1,0,4.3,0.1,6.6c0.2,18.6,0.4,45.5,0.7,78.7s0.6,72.8,1.1,116.7
		c0,5.5,0.1,11,0.1,16.7v4.2c0,1.4-0.1,2.9-0.5,4.3s-1,2.7-1.7,3.9c-0.8,1.2-1.8,2.3-2.9,3.2c-2.3,1.9-5.1,3-8,3.2
		c-2.9,0.1-5.8,0.1-8.8,0.1l-17.8,0.1l-36.5,0.3l-18.6,0.2l-9.4,0.1c-3.2,0.2-6.4-0.6-9.1-2.4c-2.7-1.8-4.7-4.5-5.6-7.6
		c-0.5-1.5-0.7-3.1-0.6-4.7v-4.7c0-6.3-0.1-12.5-0.2-18.6c-0.1-12.4-0.2-24.5-0.3-36.5c-0.2-23.9-0.4-47-0.6-68.9
		s-0.3-42.9-0.5-62.4c-0.1-9.8-0.2-19.2-0.2-28.3v-3.4c0-0.6,0-1.1,0.1-1.7s0.1-1.1,0.3-1.7c0.5-2.2,1.5-4.2,2.9-5.9
		c2.8-3.4,7-5.3,11.3-5.1L84,65.7h8.7c1-0.1,1.9,0.2,2.8,0.7c0.8,0.5,1.4,1.3,1.7,2.2c0.3,0.9,0.4,1.8,0.3,2.8v1.4
		c0,0.4,0,0.9,0.1,1.3c0.1,0.9,0.5,1.7,1.1,2.3c0.6,0.7,1.3,1.1,2.1,1.3c0.4,0.1,0.8,0.1,1.3,0.1h6.3l18.4-0.1l8.1-0.1h1.9
		c0.6-0.1,1.2-0.3,1.7-0.6c1-0.7,1.7-1.7,1.9-2.8c0.1-0.6,0.1-1.1,0.1-1.7v-1.7c0-0.6,0-1.2,0.1-1.7s0.2-1,0.5-1.5
		c0.5-0.9,1.3-1.6,2.2-2c0.9-0.3,1.8-0.4,2.8-0.3l9.1-0.1h5.6l-5.6,0.1l-9.1,0.1c-0.9-0.1-1.8,0-2.7,0.3c-0.9,0.4-1.7,1.1-2.1,1.9
		c-0.2,0.5-0.4,0.9-0.5,1.5c-0.1,0.5-0.1,1.1-0.1,1.6v1.7c0,0.6,0,1.2-0.1,1.7c-0.2,1.2-1,2.3-2,2.9c-0.5,0.3-1.1,0.6-1.8,0.6
		c-0.6,0.1-1.3,0-1.9,0l-8.1,0.1L108.3,78H102c-0.4,0-0.9,0-1.3-0.1c-0.9-0.2-1.7-0.7-2.3-1.4c-0.6-0.7-1-1.5-1.1-2.3
		c-0.1-0.4-0.1-0.9-0.1-1.4v-1.4c0.1-0.9,0-1.8-0.3-2.7c-0.3-0.9-0.9-1.6-1.6-2.1c-0.8-0.5-1.7-0.8-2.6-0.7h-2.9L83.9,66l-12.2,0.2
		c-2.1-0.1-4.2,0.4-6.1,1.2c-1.9,0.9-3.6,2.2-5,3.8c-1.4,1.7-2.3,3.7-2.8,5.8c-0.1,0.5-0.2,1.1-0.3,1.6s-0.1,1.1-0.1,1.7v3.4
		c0.1,9.1,0.2,18.5,0.2,28.3c0.2,19.5,0.4,40.4,0.6,62.4s0.4,45,0.6,68.9c0.1,12,0.2,24.1,0.3,36.5c0,6.2,0.1,12.4,0.2,18.7v4.7
		c0,1.6,0.2,3.1,0.6,4.6c0.9,3,2.8,5.6,5.4,7.4c2.6,1.7,5.7,2.6,8.9,2.4l9.4-0.1l18.7-0.1l36.5-0.3l17.8-0.1c2.9,0,5.9,0,8.8-0.1
		c2.9-0.2,5.6-1.3,7.8-3.1c1.1-0.9,2-2,2.8-3.2s1.3-2.5,1.7-3.8s0.5-2.8,0.5-4.2v-4.2c0-5.6-0.1-11.2-0.1-16.7
		c-0.4-43.9-0.7-83.5-1-116.7s-0.5-60.1-0.6-78.7c0-2.3,0-4.5-0.1-6.6c0-1.9-0.3-3.8-1.1-5.6c-0.6-1.5-1.5-2.9-2.7-4.1
		c-0.9-1-2-1.9-3.1-2.6c-1.6-1-3.4-1.6-5.2-1.8c-0.5-0.1-0.9-0.1-1.4-0.1L162.5,65.2L162.5,65.2z"/>
	<path class="st10" d="M165.4,87.8c0,0.1-2.3,0.2-5.1,0.2s-5.1,0-5.2,0s2.3-0.1,5.1-0.2S165.3,87.7,165.4,87.8L165.4,87.8z"/>
	<path class="st10" d="M165.4,90.4c0,0.1-2.3,0.2-5.1,0.2s-5.1,0-5.1,0s2.3-0.2,5.1-0.2S165.4,90.4,165.4,90.4z"/>
	<path class="st10" d="M165.4,93.1c0,0.1-2.3,0.2-5.1,0.2s-5.1,0-5.2,0s2.3-0.1,5.1-0.2S165.4,93,165.4,93.1L165.4,93.1z"/>
	<path class="st10" d="M71.8,96.9h0.8l2.2-0.1l-0.1,0.1v-2.5c0.1-0.4,0.4-0.6,0.7-0.7h1.1c0.4,0.1,0.7,0.4,0.7,0.8v2.3l-0.1-0.1h2.8
		l-0.1,0.1c0-1.1,0-2.3-0.1-3.4v-0.9c0-0.3-0.2-0.5-0.4-0.7l-1.2-1.2l-1.2-1.1c-0.2-0.2-0.4-0.4-0.6-0.6s-0.4-0.4-0.6-0.4
		c-0.2-0.1-0.5,0-0.6,0.1c-0.2,0.1-0.3,0.3-0.5,0.5c-0.3,0.3-0.7,0.7-1,1c-0.6,0.7-1.3,1.3-1.7,1.8c-0.1,0.3-0.2,0.7-0.1,1
		L71.8,96.9c0-0.1,0-0.2,0-0.3v-4.1c0-0.2,0-0.4,0.2-0.6c0.5-0.6,1.1-1.2,1.7-1.9l1-1c0.2-0.2,0.3-0.4,0.5-0.5
		c0.2-0.2,0.5-0.2,0.8-0.2c0.3,0.1,0.5,0.2,0.7,0.5l0.6,0.6l1.1,1.1l1.2,1.2c0.1,0.1,0.2,0.2,0.3,0.3c0.1,0.1,0.2,0.3,0.2,0.5v0.9
		c0,1.2,0,2.3,0.1,3.5V97h-3v-2.4c0-0.3-0.2-0.6-0.6-0.7h-1c-0.3,0-0.5,0.3-0.6,0.6V97h-3C71.8,96.9,71.8,96.9,71.8,96.9z"/>
	<path class="st0" d="M75.2,110.8l82.3-0.7c4.1,0,7.5,3.3,7.5,7.4v2.8c0,4.1-3.3,7.5-7.4,7.5l-82.3,0.7c-4.1,0-7.5-3.3-7.5-7.4v-2.8
		C67.8,114.2,71.1,110.8,75.2,110.8z"/>
	<path class="st10" d="M157.7,127.8l0.6-0.1c0.5-0.1,1.1-0.2,1.6-0.3c0.8-0.3,1.6-0.7,2.3-1.2c1-0.8,1.7-1.7,2.2-2.8
		c0.3-0.7,0.5-1.3,0.6-2.1c0.1-0.8,0.1-1.6,0.1-2.4c0-0.9,0-1.7-0.1-2.6c-0.2-0.9-0.5-1.8-1-2.6c-1.1-1.8-2.9-3-4.9-3.4
		c-1.1-0.1-2.2-0.2-3.4-0.1h-3.6L75.3,111c-3.8,0-6.9,3-7.2,6.7v2.7c0,0.9,0.1,1.8,0.3,2.6c0.5,1.7,1.5,3.1,3,4.1
		c0.7,0.5,1.5,0.8,2.4,1c0.8,0.2,1.7,0.2,2.6,0.2h5.2l10-0.1l34.5-0.3l23.3-0.2h6.3l-6.3,0.1l-23.3,0.3l-34.5,0.4l-10,0.1h-5.2
		c-0.9,0-1.8,0-2.6-0.2c-0.9-0.2-1.7-0.5-2.5-1c-1.6-1-2.7-2.5-3.2-4.3c-0.2-0.9-0.3-1.8-0.3-2.7v-2.7c0.3-4,3.6-7,7.6-7.1l76.8-0.6
		h3.6c1.1-0.1,2.3,0,3.4,0.1c2.1,0.4,3.9,1.7,5.1,3.5c0.5,0.8,0.8,1.7,1,2.7c0.1,0.9,0.1,1.7,0.1,2.6c0,0.8,0,1.6-0.1,2.4
		c-0.1,0.7-0.3,1.4-0.6,2.1c-0.5,1.1-1.3,2.1-2.2,2.9c-0.7,0.6-1.5,1-2.4,1.2c-0.5,0.2-1.1,0.2-1.6,0.3L157.7,127.8L157.7,127.8z"/>
	<path class="st10" d="M159.1,118.5c0,0,0-0.3-0.2-0.8c-0.2-0.7-0.6-1.3-1.2-1.7c-1.4-1-3.2-0.6-4.2,0.7c-1,1.3-0.6,3.2,0.7,4.2
		c1,0.7,2.4,0.7,3.5,0c0.6-0.4,1-1,1.2-1.7C159.1,118.8,159.1,118.5,159.1,118.5s0,0.1,0,0.2c0,0.2,0,0.4,0,0.6
		c-0.1,0.7-0.5,1.4-1.1,1.9c-0.9,0.7-2.1,0.9-3.2,0.6c-1.8-0.6-2.7-2.5-2.1-4.3c0.3-0.9,1.1-1.7,2-2.1c1.1-0.4,2.3-0.2,3.2,0.5
		c0.6,0.4,1,1.1,1.2,1.8c0.1,0.2,0.1,0.4,0.1,0.6C159.2,118.4,159.2,118.5,159.1,118.5L159.1,118.5z"/>
	<path class="st10" d="M160.9,124c-0.6-0.4-1.1-0.8-1.6-1.4c-0.5-0.5-1-1-1.3-1.7c0.6,0.4,1.1,0.9,1.6,1.4
		C160.1,122.8,160.6,123.4,160.9,124L160.9,124z"/>
	<path class="st1" d="M80.9,117.8h-1.7v-0.4h4v0.5h-1.7v4.5H81v-4.6H80.9z"/>
	<path class="st1" d="M86.8,120.6h-3.1c0.1,0.8,0.7,1.3,1.5,1.3c0.4,0,0.8-0.2,1.1-0.5l0.3,0.3c-0.8,0.8-2.1,0.8-2.8,0
		c-0.3-0.3-0.5-0.8-0.6-1.2c-0.1-1,0.7-1.8,1.7-1.9H85c1,0,1.8,0.7,1.8,1.7C86.8,120.4,86.8,120.4,86.8,120.6
		C86.8,120.4,86.8,120.5,86.8,120.6z M83.7,120.2h2.6c-0.1-0.7-0.7-1.3-1.4-1.2C84.2,119.1,83.7,119.6,83.7,120.2z"/>
	<path class="st1" d="M90.1,122.2l-1.2-1.5l-1.2,1.6h-0.6l1.4-1.9l-1.4-1.8h0.6l1.1,1.4l1.1-1.5h0.6l-1.4,1.8l1.5,1.9H90.1z"/>
	<path class="st1" d="M93.4,122c-0.2,0.2-0.5,0.3-0.8,0.3c-0.6,0.1-1-0.3-1.1-0.9c0-0.1,0-0.1,0-0.2V119h-0.7v-0.4h0.7v-0.8H92v0.8
		h1.1v0.4h-1.2v2.2c0,0.4,0.2,0.7,0.6,0.7c0.2,0,0.4-0.1,0.6-0.2C93.2,121.6,93.4,122,93.4,122z"/>
	
		<rect x="72.2" y="143.1" transform="matrix(1 -8.900708e-03 8.900708e-03 1 -1.3653 0.7435)" class="st12" width="21.3" height="21.3"/>
	<path class="st13" d="M134.4,144.8c0,0.1-7.1,0.2-15.9,0.3s-15.9,0.1-15.9,0s7.1-0.2,15.9-0.3S134.4,144.7,134.4,144.8z"/>
	<path class="st10" d="M159.8,151.2c0,0.1-12.8,0.3-28.6,0.4s-28.6,0.2-28.6,0.1s12.8-0.3,28.6-0.4S159.8,151,159.8,151.2z"/>
	<path class="st10" d="M159.2,155.8c0,0.1-12.6,0.3-28.2,0.4s-28.2,0.2-28.2,0.1s12.6-0.3,28.2-0.4S159.2,155.7,159.2,155.8z"/>
	<path class="st10" d="M136.1,160.4c0,0.1-7.5,0.2-16.7,0.3s-16.7,0.1-16.7,0s7.5-0.2,16.7-0.3S136.1,160.3,136.1,160.4L136.1,160.4
		z"/>
	
		<rect x="72.7" y="178.4" transform="matrix(1 -9.947720e-03 9.947720e-03 1 -1.8766 0.8385)" class="st12" width="21.3" height="21.3"/>
	<path class="st14" d="M134.7,180.3c0,0.1-7.1,0.2-15.9,0.3s-15.9,0.1-15.9,0s7.1-0.2,15.9-0.3S134.7,180.2,134.7,180.3z"/>
	<path class="st10" d="M160.1,186.6c0,0.1-12.8,0.3-28.6,0.4s-28.6,0.2-28.6,0.1s12.8-0.3,28.6-0.4
		C147.3,186.5,160.1,186.5,160.1,186.6L160.1,186.6z"/>
	<path class="st10" d="M159.5,191.3c0,0.1-12.6,0.3-28.2,0.4s-28.2,0.2-28.2,0.1s12.6-0.3,28.2-0.4S159.5,191.2,159.5,191.3z"/>
	<path class="st10" d="M136.4,195.9c0,0.1-7.5,0.2-16.7,0.3s-16.7,0.1-16.7,0s7.5-0.2,16.7-0.3S136.4,195.8,136.4,195.9z"/>
	
		<rect x="72.9" y="213.9" transform="matrix(1 -8.900708e-03 8.900708e-03 1 -1.9954 0.7526)" class="st10" width="21.3" height="21.3"/>
	<path class="st14" d="M135,215.8c0,0.1-7.1,0.2-15.9,0.3s-15.9,0.1-15.9,0s7.1-0.2,15.9-0.3S135,215.7,135,215.8z"/>
	<path class="st10" d="M160.4,222.1c0,0.1-12.8,0.3-28.6,0.4s-28.6,0.2-28.6,0.1s12.8-0.3,28.6-0.4S160.4,222,160.4,222.1z"/>
	<path class="st10" d="M159.8,226.7c0,0.1-12.6,0.3-28.2,0.4s-28.2,0.2-28.2,0.1s12.6-0.3,28.2-0.4S159.8,226.6,159.8,226.7z"/>
	<path class="st10" d="M136.7,231.4c0,0.1-7.5,0.2-16.7,0.3s-16.7,0.1-16.7,0s7.5-0.2,16.7-0.3S136.7,231.3,136.7,231.4z"/>
	
		<rect x="73.2" y="249.4" transform="matrix(1 -8.900708e-03 8.900708e-03 1 -2.3114 0.7567)" class="st14" width="21.3" height="21.3"/>
	<path class="st11" d="M135.3,251.2c0,0.1-7.1,0.2-15.9,0.3s-15.9,0.1-15.9,0s7.1-0.2,15.9-0.3S135.3,251.2,135.3,251.2z"/>
	<path class="st10" d="M160.8,257.5c0,0.1-12.8,0.3-28.6,0.4s-28.6,0.2-28.6,0.1s12.8-0.3,28.6-0.4S160.8,257.4,160.8,257.5z"/>
	<path class="st10" d="M160.1,262.2c0,0.1-12.6,0.3-28.2,0.4s-28.2,0.2-28.2,0.1s12.6-0.3,28.2-0.4S160.1,262.1,160.1,262.2
		L160.1,262.2z"/>
	<path class="st10" d="M137,266.9c0,0.1-7.5,0.2-16.7,0.3s-16.7,0.1-16.7,0s7.5-0.2,16.7-0.3S137,266.8,137,266.9z"/>
	
		<rect x="73.8" y="284.8" transform="matrix(1 -9.947720e-03 9.947720e-03 1 -2.935 0.8547)" class="st1" width="21.3" height="21.3"/>
	<path class="st1" d="M135.6,286.7c0,0.1-7.1,0.2-15.9,0.3s-15.9,0-15.9,0s7.1-0.2,15.9-0.3S135.6,286.6,135.6,286.7z"/>
	<path class="st5" d="M161.1,293c0,0.1-12.8,0.3-28.6,0.4s-28.6,0.2-28.6,0.1s12.8-0.3,28.6-0.4S161.1,292.9,161.1,293z"/>
	<path class="st5" d="M160.4,297.7c0,0.1-12.6,0.3-28.2,0.4s-28.2,0.2-28.2,0.1s12.7-0.3,28.2-0.4
		C147.8,297.6,160.4,297.6,160.4,297.7z"/>
	<path class="st5" d="M137.3,302.3c0,0.1-7.5,0.2-16.7,0.3s-16.7,0.1-16.7,0s7.5-0.2,16.7-0.3S137.3,302.2,137.3,302.3z"/>
	
		<rect x="73.2" y="249.4" transform="matrix(1 -8.900708e-03 8.900708e-03 1 -2.3114 0.7567)" class="st15" width="21.3" height="21.3"/>
	<path class="st7" d="M411.6,308.5l-11.8-0.1c-1.6,0-2.9,1.4-2.9,3l0,0v2.1c0,1.6-1.2,3-2.9,3l0,0l-23.1-0.2c-1.6,0-2.9-1.4-2.9-3
		v-2.1c0-1.6-1.3-2.9-2.9-3h-4.2l-10.4-0.1c-5.1,0-9.3,4.1-9.4,9.2l0,0l-0.9,96c0,5.1,4.1,9.3,9.2,9.4l0,0l60.9,0.4
		c5.1,0,9.3-4.1,9.4-9.2l0,0l0.9-96c0.1-5.1-4-9.4-9.1-9.5C411.7,308.5,411.7,308.5,411.6,308.5L411.6,308.5z"/>
	<path class="st10" d="M411.6,308.5h1c1,0.1,1.9,0.4,2.8,0.8c3.5,1.6,5.7,5.2,5.5,9c-0.1,9.7-0.2,23.7-0.3,41.1
		c-0.1,8.7-0.1,18.2-0.2,28.4c0,5.1-0.1,10.4-0.1,15.8c0,2.7,0,5.5-0.1,8.3c0.1,1.4,0,2.8-0.3,4.2c-0.4,1.4-1,2.7-2,3.8
		c-1,1.1-2.2,2-3.5,2.5c-1.4,0.6-2.8,0.8-4.3,0.7l-8.9-0.1l-18.4-0.1l-19-0.1l-9.7-0.1c-1.6,0-3.3,0-4.9-0.1
		c-1.7-0.1-3.3-0.7-4.7-1.6c-1.4-1-2.5-2.3-3.2-3.8s-1-3.2-0.9-4.8c0-3.3,0-6.5,0.1-9.7c0.1-6.5,0.1-12.8,0.2-19
		c0.1-12.5,0.2-24.5,0.3-36c0-5.7,0.1-11.3,0.2-16.8c0-2.7,0-5.4,0.1-8V319c-0.1-1.3,0-2.6,0.3-3.9c0.6-2.5,2.2-4.6,4.5-5.9
		c1.1-0.6,2.2-1,3.5-1.1c1.2-0.1,2.4,0,3.6-0.1h7h5c0.6,0,1.1,0.1,1.6,0.4c1,0.6,1.5,1.6,1.5,2.8v1.6c0,0.5,0,1,0.2,1.5
		c0.3,1,1.1,1.7,2.1,1.9c1,0.1,2,0,3,0.1l11,0.1l9.6,0.1c1.5,0,2.6-1.2,2.8-2.6v-2c0-0.6,0.1-1.3,0.3-1.8c0.5-1.1,1.6-1.7,2.8-1.7
		h7.7h3.9h-11.6c-1.2-0.1-2.2,0.6-2.7,1.6c-0.3,0.6-0.4,1.2-0.3,1.8v2c-0.1,1.5-1.4,2.6-2.9,2.7l-9.6-0.1l-11-0.1c-1,0-2,0-3-0.1
		c-1-0.2-1.9-1-2.2-2c-0.2-0.5-0.2-1-0.2-1.6V311c0-1.1-0.5-2.1-1.4-2.6c-0.5-0.3-1-0.4-1.5-0.4h-5h-7c-1.2,0-2.4,0-3.6,0.1
		c-3.8,0.5-6.9,3.2-7.8,6.9c-0.3,1.3-0.4,2.5-0.3,3.8v3.9c0,2.6,0,5.3-0.1,8c0,5.4-0.1,11-0.1,16.8c-0.1,11.5-0.2,23.5-0.3,36
		c-0.1,6.2-0.1,12.6-0.2,19c0,3.2,0,6.5-0.1,9.7c-0.1,1.6,0.2,3.3,0.8,4.8c0.7,1.5,1.8,2.8,3.1,3.7c1.4,0.9,2.9,1.5,4.6,1.6
		c1.6,0.1,3.3,0,4.9,0.1l9.7,0.1l19,0.1l18.4,0.1l8.9,0.1c1.5,0.1,2.9-0.2,4.2-0.7c1.3-0.6,2.5-1.4,3.4-2.5s1.6-2.4,1.9-3.7
		c0.3-1.4,0.4-2.8,0.3-4.2c0-2.8,0.1-5.5,0.1-8.3c0-5.4,0.1-10.7,0.1-15.8c0.1-10.2,0.2-19.7,0.3-28.4c0.2-17.3,0.3-31.4,0.4-41.1
		c0.1-2.1-0.5-4.3-1.8-6c-0.9-1.3-2.2-2.3-3.6-2.9c-0.9-0.4-1.8-0.7-2.8-0.8L411.6,308.5L411.6,308.5z"/>
	
		<rect x="358.4" y="326.1" transform="matrix(2.443441e-03 -1 1 2.443441e-03 21.52 738.0917)" class="st12" width="44.7" height="64.4"/>
	<circle class="st7" cx="380.7" cy="358.1" r="9.3"/>
	<polygon class="st15" points="378.4,358.1 378.4,353.9 382,356 385.7,358.1 382,360.2 378.4,362.3 	"/>
	<path class="st10" d="M355.4,387.2v-0.7c0,0,0-0.1,0.1-0.1l0,0l0.6,0.4l0.6,0.4v0.1l0,0l-0.6,0.4l-0.6,0.4h-0.1l0,0V387.2
		L355.4,387.2z"/>
	<path class="st10" d="M361.3,386.6h-0.5c0,0-0.1,0-0.1,0.1l0,0v1c0,0,0,0.1,0.1,0.1h0.5l0.8,0.8v-2.8L361.3,386.6z"/>
	<path class="st10" d="M357.3,388.1L357.3,388.1c-0.1,0-0.1-0.1-0.1-0.1l0,0v-1.4c0-0.1,0.1-0.1,0.1-0.1l0,0c0.1,0,0.1,0.1,0.1,0.1
		v1.4L357.3,388.1z"/>
	<path class="st10" d="M362.4,386.3v1.8c0.4-0.1,0.6-0.5,0.6-0.9S362.8,386.5,362.4,386.3z"/>
	<path class="st10" d="M362.4,385.7v0.4c0.5,0.1,0.9,0.6,0.9,1.2c0,0.5-0.4,1-0.9,1.2v0.4c0.9-0.2,1.4-1,1.2-1.9
		C363.5,386.3,363,385.8,362.4,385.7L362.4,385.7L362.4,385.7z"/>
	<path class="st10" d="M366.9,386.6v1.7h-0.2v-1.5h-0.4v-0.2H366.9z"/>
	<path class="st10" d="M367.3,387.2c0-0.1,0.1-0.2,0.2-0.2l0,0c0.1,0,0.2,0.1,0.2,0.2l0,0c0,0.1-0.1,0.2-0.1,0.2l0,0
		C367.3,387.4,367.3,387.3,367.3,387.2L367.3,387.2z M367.3,388.2c0-0.1,0.1-0.2,0.2-0.2l0,0c0.1,0,0.2,0.1,0.2,0.2l0,0
		c0,0.1-0.1,0.2-0.2,0.2C367.3,388.4,367.3,388.3,367.3,388.2L367.3,388.2L367.3,388.2L367.3,388.2z"/>
	<path class="st10" d="M367.9,387.5c0-0.6,0.3-0.9,0.7-0.9s0.7,0.3,0.7,0.9s-0.3,0.9-0.7,0.9S367.9,388,367.9,387.5z M369,387.5
		c0-0.4-0.2-0.6-0.5-0.6s-0.5,0.2-0.5,0.6s0.2,0.6,0.5,0.6S369,387.9,369,387.5L369,387.5z"/>
	<path class="st10" d="M370,386.6v1.7h-0.2v-1.5h-0.4v-0.2H370L370,386.6z"/>
	<path class="st10" d="M371.6,386.3h0.2l-0.8,2.3h-0.2L371.6,386.3z"/>
	<path class="st10" d="M373.9,387.9c0,0.3-0.3,0.5-0.7,0.5s-0.7-0.2-0.7-0.5c0-0.2,0.1-0.4,0.3-0.4c-0.1-0.1-0.2-0.2-0.2-0.4
		c0-0.3,0.2-0.5,0.6-0.5s0.6,0.2,0.6,0.5c0,0.2-0.1,0.3-0.2,0.4C373.7,387.5,373.9,387.7,373.9,387.9L373.9,387.9z M373.6,387.9
		c0-0.2-0.2-0.3-0.4-0.3s-0.4,0.1-0.4,0.3s0.2,0.3,0.4,0.3S373.6,388.1,373.6,387.9L373.6,387.9L373.6,387.9z M372.8,387.1
		c0,0.2,0.1,0.3,0.4,0.3s0.4-0.1,0.4-0.3s-0.1-0.3-0.4-0.3S372.8,387,372.8,387.1L372.8,387.1z"/>
	<path class="st10" d="M374.1,387.2c0-0.1,0.1-0.2,0.2-0.2s0.2,0.1,0.2,0.2s-0.1,0.2-0.2,0.2C374.1,387.4,374.1,387.3,374.1,387.2z
		 M374.1,388.2c0-0.1,0.1-0.2,0.2-0.2s0.2,0.1,0.2,0.2s-0.1,0.2-0.2,0.2S374.1,388.3,374.1,388.2z"/>
	<path class="st10" d="M374.6,387.5c0-0.5,0.3-0.9,0.7-0.9s0.7,0.3,0.7,0.9s-0.3,0.9-0.7,0.9S374.6,388.1,374.6,387.5z M375.8,387.5
		c0-0.4-0.2-0.7-0.4-0.7s-0.5,0.2-0.5,0.6s0.2,0.7,0.4,0.7S375.8,388,375.8,387.5L375.8,387.5L375.8,387.5z"/>
	<path class="st10" d="M376.3,387.5c0-0.6,0.3-0.9,0.7-0.9s0.7,0.3,0.7,0.9s-0.3,0.9-0.7,0.9S376.3,388.1,376.3,387.5z M377.4,387.5
		c0-0.4-0.2-0.6-0.5-0.6s-0.5,0.2-0.5,0.6s0.2,0.6,0.5,0.6S377.4,387.9,377.4,387.5L377.4,387.5L377.4,387.5z"/>
	<path class="st10" d="M349.3,388.1L349.3,388.1c-0.1,0-0.3-0.1-0.3-0.3v-1.5c0-0.2,0.1-0.3,0.3-0.3l0,0c0.1,0,0.3,0.1,0.3,0.3l0,0
		v1.5C349.6,387.9,349.4,388.1,349.3,388.1L349.3,388.1z"/>
	<path class="st10" d="M350.5,388.1L350.5,388.1c-0.1,0-0.3-0.1-0.3-0.3l0,0v-1.5c0-0.2,0.1-0.3,0.3-0.3l0,0c0.2,0,0.3,0.1,0.3,0.3
		v1.5C350.8,387.9,350.7,388.1,350.5,388.1L350.5,388.1z"/>
	<path class="st1" d="M412.5,384.6l-63.4-0.1c-0.3,0-0.6-0.3-0.6-0.6l0,0c0-0.3,0.3-0.6,0.6-0.6l63.5,0.1c0.3,0,0.6,0.3,0.6,0.6l0,0
		C413.1,384.4,412.8,384.6,412.5,384.6L412.5,384.6z"/>
	<path class="st13" d="M372.4,384.5h-23.3c-0.3,0-0.6-0.3-0.6-0.6l0,0c0-0.3,0.3-0.6,0.6-0.6h23.3c0.3,0,0.5,0.2,0.5,0.5v0.2
		C372.9,384.3,372.7,384.5,372.4,384.5L372.4,384.5L372.4,384.5z"/>
	<path class="st13" d="M373.5,383.9c0,0.6-0.5,1.1-1.2,1.2c-0.6,0-1.2-0.5-1.2-1.2c0-0.6,0.5-1.2,1.2-1.2
		C373,382.7,373.5,383.3,373.5,383.9L373.5,383.9L373.5,383.9z"/>
	<path class="st10" d="M412.6,395.9c0,0.1-14.2,0.2-31.7,0.2s-31.7-0.2-31.7-0.3s14.2-0.2,31.7-0.2S412.6,395.7,412.6,395.9z"/>
	<path class="st10" d="M412.6,402.2c0,0.1-14.2,0.2-31.7,0.2s-31.7-0.2-31.7-0.4s14.2-0.2,31.7-0.2S412.6,402,412.6,402.2
		L412.6,402.2z"/>
	<path class="st10" d="M412.6,408.4c0,0.1-14.2,0.2-31.7,0.2s-31.7-0.2-31.7-0.3s14.2-0.2,31.7-0.2S412.6,408.2,412.6,408.4z"/>
	<path class="st7" d="M412,135.7l-11.8-0.1c-1.6,0-2.9,1.4-2.9,3l0,0v2.1c0,1.6-1.3,3-2.9,3l0,0l-23.1-0.1c-1.6,0-2.9-1.4-2.9-3l0,0
		v-2.1c0-1.6-1.3-2.9-2.9-3H351c-5.1,0-9.3,4.1-9.4,9.2l0,0L341,293.6c0,5.1,4.1,9.3,9.3,9.3l60.9,0.3c5.1,0,9.3-4.1,9.4-9.2l0,0
		l0.6-149.1C421.3,139.9,417.1,135.8,412,135.7L412,135.7z"/>
	<path class="st10" d="M412,135.7h0.3c0.3,0,0.6,0,0.9,0.1c1.2,0.1,2.4,0.6,3.5,1.2c1.7,1,3.1,2.6,3.9,4.5c0.5,1.2,0.7,2.5,0.7,3.8
		v4.4c0,12.4-0.1,30.3-0.2,52.4s-0.2,48.5-0.3,77.8c0,3.7,0,7.4,0,11.1c0,1.9,0.2,3.8-0.4,5.6c-0.3,0.9-0.7,1.8-1.2,2.6
		c-0.6,0.8-1.2,1.5-2,2.1c-1.5,1.2-3.4,1.9-5.4,2H406l-11.8-0.1l-24.3-0.1h-12.4h-6.3c-2.1,0.1-4.2-0.5-6-1.7s-3.1-3-3.7-5.1
		c-0.3-1-0.4-2.1-0.4-3.1v-3.1c0-4.2,0-8.3,0.1-12.4c0-8.2,0-16.3,0.1-24.3c0.1-15.9,0.1-31.3,0.2-45.9s0.1-28.6,0.2-41.6
		c0-6.5,0-12.8,0.1-18.8c-0.1-1.5,0-3,0.3-4.5c0.4-1.4,1-2.8,2-3.9c1-1.1,2.1-1.9,3.5-2.5c1.3-0.5,2.7-0.8,4.1-0.7h13.9
		c0.6,0,1.3,0.2,1.8,0.6c0.5,0.4,0.9,0.9,1.1,1.5c0.1,0.6,0.2,1.2,0.2,1.8s0,1.2,0,1.8c0.1,0.6,0.3,1.1,0.7,1.6
		c0.4,0.4,0.9,0.7,1.5,0.9c0.6,0.1,1.1,0.1,1.7,0.1h3.4l12.3,0.1h6.7c0.4,0,0.8-0.2,1.1-0.4c0.7-0.4,1.1-1.1,1.3-1.9
		c0.1-0.7,0.1-1.5,0.1-2.2c-0.1-0.7,0.1-1.4,0.4-2.1c0.3-0.6,0.9-1,1.5-1.3c0.6-0.2,1.2-0.2,1.8-0.2h6L412,135.7h-11
		c-0.6-0.1-1.2,0-1.8,0.2c-0.6,0.2-1.1,0.7-1.5,1.3c-0.3,0.6-0.5,1.3-0.4,2c0,0.8,0,1.5-0.1,2.3c-0.2,0.8-0.6,1.5-1.3,1.9
		c-0.4,0.2-0.8,0.4-1.2,0.4h-22.3c-0.6,0-1.2,0-1.7-0.1c-0.6-0.1-1.1-0.4-1.5-0.9c-0.4-0.4-0.7-1-0.8-1.6c-0.1-0.6,0-1.2,0-1.8
		s0-1.2-0.1-1.8c-0.2-0.6-0.5-1.1-1-1.4c-1-0.8-2.4-0.5-3.6-0.5h-12c-1.4-0.1-2.8,0.2-4.1,0.7c-1.3,0.6-2.5,1.4-3.4,2.5
		c-1,1.1-1.6,2.4-2,3.8c-0.3,1.5-0.4,2.9-0.3,4.4c0,6.1,0,12.3-0.1,18.8c0,13-0.1,26.9-0.2,41.6s-0.1,30-0.2,45.9
		c0,8,0,16.1-0.1,24.3c0,4.1,0,8.2,0,12.4v3.1c0,1,0.1,2.1,0.4,3.1c0.6,2,1.9,3.8,3.6,5s3.8,1.8,5.9,1.6h6.3l12.4,0.1l24.3,0.1
		l11.8,0.1h5.8c1.9-0.1,3.8-0.8,5.3-1.9c0.7-0.6,1.4-1.3,1.9-2.1c0.5-0.8,0.9-1.6,1.2-2.5c0.6-1.8,0.3-3.7,0.4-5.6
		c0-3.8,0-7.5,0-11.1c0.1-29.3,0.2-55.6,0.4-77.8s0.2-40,0.2-52.4c-0.1-3.1,0.4-5.9-0.6-8.1c-0.8-1.9-2.1-3.4-3.8-4.5
		c-1.1-0.6-2.2-1.1-3.5-1.2c-0.3-0.1-0.6-0.1-0.9-0.1L412,135.7L412,135.7z"/>
	<path class="st10" d="M410.9,157.3c0,0.1-12.9,0.3-28.7,0.3s-28.7-0.1-28.7-0.3s12.9-0.3,28.7-0.3S410.9,157.2,410.9,157.3z"/>
	<rect x="356.1" y="253.2" class="st12" width="52.2" height="36.3"/>
	<path class="st7" d="M303.3,172h-17.7c-2.4,0.1-4.4,2.1-4.3,4.5v3.2c0,2.4-1.9,4.4-4.3,4.5h-34.6c-2.4-0.1-4.4-2.1-4.3-4.5l0,0
		v-3.2c0.1-2.4-1.9-4.4-4.3-4.5H212c-7.7,0-13.9,6.2-13.9,13.9L198,409.6c0,7.7,6.2,13.9,13.9,14l91.3,0.1c7.7,0,13.9-6.3,14-14
		V185.9C317.2,178.2,311,172,303.3,172L303.3,172z"/>
	<path class="st10" d="M303.5,172.2h0.5c0.5,0,1,0,1.4,0.1c1.9,0.2,3.6,0.8,5.2,1.8c1.2,0.7,2.3,1.6,3.2,2.6c1.1,1.2,2,2.6,2.7,4.2
		c0.7,1.8,1,3.7,1,5.7v6.6c0,18.6,0,45.5,0,78.7s0,72.8,0,116.7v20.9c0,1.4-0.2,2.9-0.5,4.3c-0.4,1.4-1,2.7-1.8,3.9
		c-0.8,1.2-1.8,2.3-2.9,3.2c-2.3,1.9-5.1,3-8.1,3.1c-2.9,0.1-5.8,0-8.8,0h-82.2c-3.2,0.2-6.4-0.7-9.1-2.5c-2.7-1.8-4.6-4.5-5.5-7.6
		c-0.4-1.5-0.6-3.1-0.6-4.7V186.3c0-0.6,0-1.1,0.1-1.7s0.1-1.1,0.3-1.7c0.5-2.2,1.5-4.2,2.9-5.9c2.8-3.3,7-5.2,11.4-5h20.9
		c1-0.1,1.9,0.2,2.8,0.8c0.8,0.6,1.4,1.3,1.7,2.2s0.4,1.8,0.3,2.8v1.4c0,0.4,0,0.9,0,1.3c0.1,0.9,0.4,1.7,1,2.3s1.3,1.1,2.1,1.3
		c0.4,0.1,0.8,0.1,1.3,0.1h34.7c0.6-0.1,1.2-0.3,1.7-0.6c1-0.6,1.7-1.6,2-2.8c0.1-0.6,0.1-1.1,0.1-1.7v-1.7c0-0.5,0-1.1,0.1-1.6
		s0.3-1,0.5-1.5c0.5-0.9,1.3-1.6,2.2-2c0.9-0.3,1.8-0.4,2.8-0.3l0,0c-0.9-0.1-1.9,0-2.7,0.3c-0.9,0.4-1.7,1-2.1,1.9
		c-0.2,0.4-0.4,0.9-0.5,1.5c-0.1,0.5-0.1,1.1-0.1,1.6v1.9c0,0.6,0,1.1-0.1,1.7c-0.2,1.2-1,2.3-2,2.9c-0.5,0.3-1.1,0.6-1.8,0.6
		c-0.6,0.1-1.3,0-1.9,0H243c-0.4,0-0.9,0-1.3-0.1c-0.9-0.2-1.7-0.7-2.3-1.4s-1-1.6-1.1-2.5c0-0.4,0-0.9,0-1.4v-1.4
		c0.1-0.9,0-1.8-0.3-2.7s-0.9-1.6-1.6-2.1c-0.8-0.5-1.7-0.8-2.6-0.7h-20.9c-4.3-0.2-8.4,1.7-11.1,5c-1.4,1.7-2.4,3.7-2.9,5.8
		c-0.1,0.5-0.2,1.1-0.3,1.6s-0.1,1.1-0.1,1.7V409c-0.1,1.6,0.1,3.1,0.6,4.6c0.9,3,2.8,5.6,5.4,7.4c2.6,1.8,5.7,2.6,8.9,2.4h82.3
		c2.9,0,5.9,0,8.8,0c2.9-0.2,5.6-1.2,7.8-3c1.1-0.9,2-2,2.8-3.1c0.8-1.2,1.4-2.5,1.7-3.8c0.4-1.4,0.5-2.8,0.5-4.2v-20.9
		c0-43.9,0-83.5,0.1-116.7s0.1-60.1,0.1-78.7v-6.6c0-1.9-0.3-3.8-1-5.6c-0.6-1.5-1.5-2.9-2.6-4.1c-0.9-1-2-1.9-3.1-2.6
		c-1.6-1-3.4-1.6-5.2-1.8c-0.5-0.1-0.9-0.1-1.4-0.1L303.5,172.2L303.5,172.2z"/>
	<path class="st10" d="M306.3,196.2c0,0.1-2.3,0.1-5.1,0.1s-5.1,0-5.1-0.1s2.3-0.1,5.1-0.1S306.3,196.2,306.3,196.2z"/>
	<path class="st10" d="M306.3,198.9c0,0.1-2.3,0.1-5.1,0.2s-5.1,0-5.1-0.1s2.3-0.1,5.1-0.1S306.3,198.8,306.3,198.9L306.3,198.9z"/>
	<path class="st10" d="M306.3,201.5c0,0.1-2.3,0.1-5.1,0.1s-5.1,0-5.1-0.1s2.3-0.1,5.1-0.1S306.3,201.4,306.3,201.5z"/>
	<path class="st10" d="M208.3,203.2h0.8l2.2-0.1v0.1c0-0.5,0-1,0-1.6v-0.9c0.1-0.4,0.4-0.6,0.7-0.7h1c0.4,0.1,0.7,0.4,0.7,0.9v2.3
		l-0.1-0.1h2.8l-0.1,0.1v-4.3c0-0.3-0.2-0.5-0.4-0.7l-1.2-1.2l-1.2-1.1l-0.6-0.6c-0.1-0.2-0.3-0.3-0.6-0.4c-0.2-0.1-0.5,0-0.6,0.1
		l-0.5,0.5l-1,1c-0.6,0.6-1.3,1.2-1.8,1.8c-0.1,0.3-0.2,0.7-0.1,1v3.6C208.3,202.9,208.3,203.1,208.3,203.2l0.1-4.4
		c0-0.2,0.1-0.4,0.2-0.6c0.5-0.6,1.1-1.2,1.8-1.9l1-1c0.2-0.2,0.3-0.4,0.5-0.5c0.2-0.2,0.5-0.2,0.8-0.2c0.3,0.1,0.5,0.2,0.7,0.5
		l0.6,0.6l1.2,1.1l1.2,1.2c0.1,0.1,0.2,0.2,0.3,0.3s0.1,0.3,0.1,0.5v4.4h-3v-2.4c0-0.3-0.2-0.6-0.6-0.7h-1c-0.3,0-0.5,0.2-0.6,0.5
		v2.6L208.3,203.2L208.3,203.2L208.3,203.2z"/>
	<rect x="214" y="346" class="st14" width="21.3" height="21.3"/>
	<path class="st16" d="M276.3,348.3c0,0.1-7.1,0.2-15.9,0.2s-15.9-0.1-15.9-0.2s7.1-0.2,15.9-0.2
		C269.2,348.1,276.3,348.2,276.3,348.3z"/>
	<path class="st10" d="M301.6,354.8c0,0.1-12.8,0.2-28.6,0.2s-28.6-0.1-28.6-0.2s12.8-0.2,28.6-0.2S301.6,354.7,301.6,354.8z"/>
	<path class="st10" d="M300.9,359.5c0,0.1-12.6,0.2-28.2,0.2s-28.2-0.1-28.2-0.2s12.6-0.2,28.2-0.2S300.9,359.4,300.9,359.5z"/>
	<path class="st10" d="M277.8,363.9c0,0.1-7.5,0.2-16.7,0.2s-16.7-0.1-16.7-0.2s7.5-0.2,16.7-0.2
		C270.3,363.7,277.8,363.8,277.8,363.9z"/>
	<rect x="214" y="346" class="st15" width="21.3" height="21.3"/>
	<rect x="214" y="380.6" class="st14" width="21.3" height="21.3"/>
	<path class="st16" d="M276.3,382.9c0,0.1-7.1,0.2-15.9,0.2s-15.9-0.1-15.9-0.2s7.1-0.2,15.9-0.2
		C269.2,382.7,276.3,382.8,276.3,382.9z"/>
	<path class="st10" d="M301.6,389.4c0,0.1-12.8,0.2-28.6,0.2s-28.6-0.1-28.6-0.2s12.8-0.2,28.6-0.2S301.6,389.3,301.6,389.4z"/>
	<path class="st10" d="M300.9,394.2c0,0.1-12.6,0.2-28.2,0.2s-28.2-0.1-28.2-0.2s12.6-0.2,28.2-0.2S300.9,394,300.9,394.2z"/>
	<path class="st10" d="M277.8,398.5c0,0.1-7.5,0.2-16.7,0.2s-16.7-0.1-16.7-0.2s7.5-0.2,16.7-0.2
		C270.3,398.3,277.8,398.4,277.8,398.5z"/>
	<rect x="214" y="380.6" class="st15" width="21.3" height="21.3"/>
	
		<rect x="234" y="225.4" transform="matrix(5.584932e-03 -1 1 5.584932e-03 -1.0042 515.325)" class="st12" width="49.3" height="65.6"/>
	<polygon class="st14" points="224.8,282.7 247.9,252.1 262,271.4 271.7,261.2 290.4,283 	"/>
	<path class="st14" d="M268.1,248.5c0,2.9-2.3,5.1-5.2,5.1s-5.1-2.3-5.1-5.2s2.3-5.1,5.2-5.1C265.9,243.3,268.2,245.7,268.1,248.5
		L268.1,248.5z"/>
	<polygon class="st15" points="224.8,282.7 247.9,252.1 262,271.4 271.7,261.2 290.4,283 	"/>
	<path class="st15" d="M268.1,248.5c0,2.9-2.3,5.1-5.2,5.1s-5.1-2.3-5.1-5.2s2.3-5.1,5.2-5.1C265.9,243.3,268.2,245.7,268.1,248.5
		L268.1,248.5z"/>
	<path class="st10" d="M300.3,292.4c0,0.1-19,0.3-42.5,0.3s-42.5-0.1-42.5-0.3s19-0.2,42.5-0.2S300.3,292.3,300.3,292.4z"/>
	<path class="st10" d="M300.3,297.9c0,0.1-19,0.3-42.5,0.3s-42.5-0.1-42.5-0.3s19.1-0.3,42.5-0.3S300.3,297.8,300.3,297.9z"/>
	<path class="st9" d="M271.6,324.5h-27.7c-4,0-7.3-3.2-7.3-7.3l0,0c0-4,3.2-7.3,7.3-7.3h27.7c4,0,7.3,3.2,7.3,7.2l0,0l0,0
		C278.9,321.2,275.7,324.5,271.6,324.5L271.6,324.5z"/>
	<path class="st1" d="M316.2,331.7c0,0.1-26.2,0.3-58.6,0.3s-58.6-0.1-58.6-0.3s26.2-0.3,58.6-0.3S316.2,331.6,316.2,331.7z"/>
	<path class="st15" d="M281.9,221.4c0,0.1-10.8,0.3-24.1,0.3s-24.1-0.1-24.1-0.3s10.8-0.3,24.1-0.3
		C271.1,221.1,281.9,221.2,281.9,221.4L281.9,221.4z"/>
	<path class="st15" d="M286.7,317.2c0,0.9-0.7,1.6-1.6,1.6s-1.6-0.7-1.6-1.6s0.7-1.6,1.6-1.6l0,0C286,315.6,286.7,316.3,286.7,317.2
		z"/>
	<path class="st15" d="M350.7,213c-0.1,0-0.2,0-0.4,0h-5.5l-16.4,0.2l0.2-0.2v62.5c0,15.2-0.1,29.5-0.1,41.7v0.2h-0.3l-31.2-0.1
		l-8.8-0.1l0,0l8.8-0.1l31.2-0.1l-0.2,0.2c0-12.2,0-26.5,0-41.7c0.1-24.9,0.1-47.2,0.2-62.5l0,0h0.2l16.4,0.1h5.5L350.7,213
		L350.7,213z"/>
	<circle class="st7" cx="382.2" cy="271.2" r="7.6"/>
	<polygon class="st15" points="380.3,271.2 380.3,267.8 383.3,269.5 386.2,271.2 383.3,273 380.3,274.7 	"/>
	
		<rect x="361.8" y="159.6" transform="matrix(5.584932e-03 -1 1 5.584932e-03 193.6993 565.7082)" class="st11" width="38.9" height="51.8"/>
	<polygon class="st10" points="354.6,204.7 372.9,180.6 384,195.8 391.6,187.8 406.4,205 	"/>
	<path class="st10" d="M388.9,177.8c0,2.2-1.9,4.1-4.1,4.1s-4.1-1.9-4.1-4.1s1.9-4.1,4.1-4.1S388.9,175.5,388.9,177.8z"/>
	<rect x="361.4" y="212.4" class="st11" width="40.1" height="2.7"/>
	<path class="st10" d="M410.1,222.8c0,0.1-12.9,0.3-28.7,0.3s-28.7-0.1-28.7-0.3s12.9-0.3,28.7-0.3S410.1,222.7,410.1,222.8z"/>
	<path class="st10" d="M410.1,230.2c0,0.1-12.9,0.3-28.7,0.3s-28.7-0.1-28.7-0.3s12.9-0.3,28.7-0.3S410.1,230,410.1,230.2z"/>
	<path class="st10" d="M410.1,237.5c0,0.1-12.9,0.3-28.7,0.3s-28.7-0.1-28.7-0.3s12.9-0.3,28.7-0.3S410.1,237.4,410.1,237.5z"/>
	<path class="st10" d="M410.1,244.8c0,0.1-12.9,0.3-28.7,0.3s-28.7-0.1-28.7-0.3s12.9-0.3,28.7-0.3S410.1,244.7,410.1,244.8z"/>
	<path class="st15" d="M352.3,213c0,0.9-0.7,1.6-1.6,1.6s-1.6-0.7-1.6-1.6s0.7-1.6,1.6-1.6l0,0C351.6,211.4,352.3,212.1,352.3,213z"
		/>
	<path class="st15" d="M383.7,294.4c0.1,0.8-0.5,1.6-1.3,1.7s-1.6-0.5-1.7-1.3s0.5-1.6,1.3-1.7c0.1,0,0.1,0,0.2,0
		C383,293,383.7,293.6,383.7,294.4z"/>
	<path class="st15" d="M383.7,330c0.1,0.8-0.5,1.6-1.4,1.7c-0.8,0.1-1.6-0.5-1.7-1.4c-0.1-0.8,0.5-1.6,1.4-1.7c0.1,0,0.1,0,0.2,0
		C383,328.6,383.7,329.2,383.7,330L383.7,330z"/>
	<path class="st15" d="M382.2,330c-0.1,0-0.3-8-0.3-17.8s0.1-17.8,0.3-17.8s0.3,8,0.3,17.8S382.3,330,382.2,330z"/>
	<path class="st15" d="M257.6,208.9v-4.1c0-2.7,0-6.6-0.1-11.5c0-9.8,0-23.6-0.1-39.4l0.2,0.3h-17.5l-51.3-0.1l-15.5-0.1l-4.2-0.1
		H168c-0.1,0-0.2,0-0.4,0h1.5l4.2-0.1l15.5-0.1l51.3-0.1h17.7v0.2c0,15.8-0.1,29.6-0.1,39.4c0,4.9-0.1,8.8-0.1,11.5v3.9
		C257.7,208.7,257.7,208.8,257.6,208.9L257.6,208.9z"/>
	<path class="st15" d="M259.3,208.9c0,0.9-0.7,1.6-1.6,1.6s-1.6-0.7-1.6-1.6c0-0.9,0.7-1.6,1.6-1.6l0,0
		C258.5,207.3,259.2,208,259.3,208.9L259.3,208.9z"/>
	<path class="st15" d="M169.3,153.8c0,0.9-0.7,1.6-1.6,1.6s-1.6-0.7-1.6-1.6s0.7-1.6,1.6-1.6S169.2,153,169.3,153.8z"/>
</g>
<g id="freepik--Character--inject-6">
	<path class="st17" d="M138.3,156.4l5,6.5c0,0,2.4,3.7,0.5,4.5c-1.7,0.7-2.7-1.4-2.7-1.4s-1.1-4.8-3.1-3.6c-0.3,0.2,0.2,3.6,0.5,5.3
		c0.1,0.6,0.4,1.2,0.9,1.6l5.5,4.2c1,0.8,2.2,1.3,3.5,1.4l1.9,0.2l1.6,3.2l8.9-3.6l-7-9.1l-3.8-5.8c-0.6-0.5-1.4-0.7-2.1-0.5
		l-0.9,0.2l-0.7-0.6c-0.4-0.4-0.9-0.5-1.5-0.4l-0.5,0.1l-1.5-1.5c-0.5-0.5-3.9-3.6-4.5-3.4c-0.7,0.6-0.8,1.7-0.2,2.5
		C138.2,156.3,138.3,156.4,138.3,156.4L138.3,156.4z"/>
	<path class="st18" d="M148.4,162.6c-0.1-0.2-0.3-0.5-0.5-0.7c-0.5-0.5-1.1-0.9-1.9-1c-0.6-0.5-1.1-1-1.5-1.6
		c-0.2-0.2-0.3-0.5-0.4-0.8c0.2,0.2,0.4,0.5,0.5,0.7c0.4,0.6,0.9,1.1,1.5,1.6c0.2,0.1,0.4,0.1,0.6,0.2c0.5,0.2,0.9,0.5,1.3,0.9
		c0.1,0.2,0.2,0.4,0.3,0.6C148.3,162.5,148.4,162.5,148.4,162.6z"/>
	<path class="st18" d="M149.4,161.3c-0.1-0.1-0.2-0.2-0.3-0.4c-0.3-0.2-0.7-0.3-1-0.2H148l-0.1-0.1c-0.4-0.4-0.8-0.9-1.2-1.4
		c0.5,0.4,0.9,0.8,1.3,1.3l0.1,0.1H148c0.4-0.1,0.9,0,1.2,0.3C149.4,161.1,149.4,161.3,149.4,161.3z"/>
	<polygon class="st12" points="139.3,439.2 136.1,467.9 151.6,469.9 154.8,441.2 	"/>
	<path class="st10" d="M143.9,467.8c0.1,0,0.9-6.3,1.6-14s1.2-14,1.1-14.1s-0.8,6.3-1.6,14S143.7,467.8,143.9,467.8z"/>
	<polygon class="st10" points="136.4,466 151.8,467.9 151.6,469.9 136.1,467.9 	"/>
	<path class="st10" d="M152.6,460.8c0,0-0.1-0.2-0.3-0.7c-0.4-0.6-0.8-1.1-1.2-1.6c-0.7-0.8-1.5-1.4-2.3-1.9
		c-3.1-1.9-7.1-1.6-9.8,0.8c-0.5,0.5-0.9,1-1.3,1.6c-0.2,0.4-0.4,0.7-0.3,0.7c0.6-0.7,1.2-1.4,1.9-2c1.7-1.4,3.9-2,6-1.8
		c2.2,0.3,4.1,1.3,5.6,2.9C152,459.9,152.5,460.8,152.6,460.8L152.6,460.8z"/>
	<g class="st19">
		<polygon points="153.9,449.4 153.5,452.5 138,450.5 138.3,448.1 		"/>
	</g>
	<polygon class="st12" points="117,441.1 118.3,470 133.8,469.6 132.6,440.7 	"/>
	<path class="st10" d="M125.9,468.7c0.1,0-0.1-6.3-0.5-14.1s-0.9-14.1-1-14.1s0.1,6.3,0.5,14.1S125.8,468.7,125.9,468.7z"/>
	<polygon class="st10" points="118.2,468 133.7,467.6 133.8,469.6 118.3,470 	"/>
	<path class="st10" d="M133.4,460.4c-0.1-0.2-0.2-0.4-0.4-0.6c-0.4-0.5-0.9-1-1.4-1.4c-0.8-0.6-1.7-1.2-2.6-1.6
		c-3.3-1.4-7.2-0.5-9.6,2.2c-0.4,0.5-0.8,1.1-1.1,1.7c-0.1,0.2-0.2,0.5-0.2,0.7c0.4-0.8,1-1.5,1.5-2.2c1.5-1.6,3.5-2.6,5.7-2.7
		c2.2,0,4.3,0.7,6,2C132.7,459.6,133.4,460.4,133.4,460.4L133.4,460.4z"/>
	<g class="st19">
		<polygon points="133,449 133.1,452.1 117.5,452.4 117.4,450 		"/>
	</g>
	<path class="st10" d="M134.5,377.8l-0.6-78.9h-30.7c0,0-2.4,19.6-1.3,27.5s9.3,51.5,9.3,51.5s2.7,57.9,4,72.8l19.1-1.7L134.5,377.8
		L134.5,377.8z"/>
	<path class="st10" d="M153.3,282.2c6.2,5.8,10.3,13.5,11.7,21.9c2.1,13.7-4.3,68.7-4.3,68.7l-5.4,76.2h-18.9l0.6-73.4l-3.3-54.6
		l-2.1-17.3L153.3,282.2L153.3,282.2z"/>
	<path class="st11" d="M136.4,371.7c-0.1-0.1-0.1-0.3-0.1-0.5c0-0.4-0.1-0.8-0.1-1.4c-0.1-1.3-0.2-3-0.4-5
		c-0.3-4.2-0.6-10.1-0.9-16.6s-0.5-12.3-0.6-16.6v-6.4c0-0.2,0-0.3,0.1-0.5c0.1,0.2,0.1,0.3,0.1,0.5c0,0.4,0,0.8,0.1,1.4
		c0,1.3,0.1,3,0.2,5c0.2,4.3,0.4,10.1,0.7,16.6s0.6,12.3,0.8,16.6c0.1,2.1,0.1,3.8,0.2,5v1.4C136.4,371.4,136.4,371.5,136.4,371.7
		L136.4,371.7z"/>
	<path class="st11" d="M159.6,376.2c-0.9,0-1.9-0.1-2.8-0.2c-4.4-0.3-8.9,0.1-13.2,1.2c-0.9,0.3-1.8,0.5-2.7,0.7
		c0.8-0.4,1.7-0.8,2.6-1c4.3-1.3,8.9-1.8,13.3-1.2C157.8,375.7,158.7,375.9,159.6,376.2L159.6,376.2z"/>
	<path class="st11" d="M129.3,376.9c0,0.1-0.9-0.2-2.4-0.4c-1.9-0.3-3.8-0.3-5.8,0c-1.9,0.3-3.8,1-5.5,1.8c-1.3,0.7-2.1,1.2-2.1,1.2
		c0.6-0.6,1.2-1.1,1.9-1.5c1.7-1,3.6-1.7,5.6-2s4-0.3,5.9,0.1C127.7,376.2,128.5,376.5,129.3,376.9z"/>
	<path class="st11" d="M129.4,377.9c-1.8,1-3.7,1.7-5.6,2.1c-1.9,0.6-4,0.8-6,0.8c0-0.1,2.7-0.5,5.8-1.3S129.4,377.7,129.4,377.9z"
		/>
	<path class="st11" d="M135.4,324c-0.2,0.3-0.4,0.6-0.7,0.8c-0.2,0.2-0.5,0.5-0.9,0.9s-0.8,0.7-1.3,1.1c-1.1,0.9-2.3,1.7-3.6,2.4
		c-1.6,0.9-3.3,1.5-5.1,1.9l0,0l-0.9,0.2c-3.4,0.7-6.9,0.7-10.3,0c-1-0.2-2-0.5-3-0.9c-0.3-0.1-0.7-0.3-1-0.5c0-0.1,1.5,0.5,4.1,1
		c3.3,0.6,6.8,0.6,10.1-0.1l0.9-0.2l0,0c1.7-0.3,3.4-0.9,4.9-1.8c1.3-0.7,2.5-1.4,3.6-2.3C134.3,325,135.4,324,135.4,324L135.4,324z
		"/>
	<path class="st11" d="M141.9,304.6c0,0,0.1,0.3,0.2,0.9s0.3,1.4,0.5,2.4c0.4,2.1,0.9,5,1.6,8.4l-0.1-0.2l8.3,3.1l-0.3,0.1l4.1-5.4
		l1-1.3l-0.1,0.2c-0.5-4.1-0.9-7.9-1.3-11.3l0.4,0.2c-1.8,0.9-3.7,1.5-5.7,1.8c-1.7,0.4-3.3,0.6-4.5,0.7s-2.3,0.3-2.9,0.3
		C142.6,304.6,142.3,304.6,141.9,304.6c0.4-0.1,0.7-0.2,1.1-0.2l2.9-0.4c1.2-0.2,2.8-0.5,4.5-0.8c1.9-0.4,3.8-1,5.5-1.9l0.3-0.2v0.3
		c0.4,3.4,0.9,7.2,1.3,11.2v0.1l-0.1,0.1l-1,1.3l-4.2,5.4l-0.1,0.1l-0.2-0.1c-3-1.2-5.8-2.2-8.2-3.2h-0.1v-0.1
		c-0.6-3.5-1-6.5-1.4-8.6c-0.1-1-0.3-1.7-0.4-2.3C141.9,305.1,141.9,304.8,141.9,304.6L141.9,304.6z"/>
	<path class="st11" d="M125,307.3c0,0.3,0,0.5,0,0.8c0,0.6,0,1.4-0.1,2.4c-0.1,2.2-0.2,5.1-0.4,8.7v0.1l-0.1,0.1l-7.8,4.1l-0.2,0.1
		l-0.1-0.1l-4.7-4.9l-1.1-1.2l-0.1-0.1v-0.1c0-4.1,0.1-8,0.1-11.3v-0.3l0.3,0.1c1.8,0.7,3.8,1.1,5.7,1.2c1.8,0.2,3.3,0.3,4.6,0.3
		l2.9,0.1C124.3,307.3,124.7,307.3,125,307.3c-0.4,0.1-0.7,0.1-1.1,0.1H121c-1.3,0-2.8-0.1-4.6-0.2c-2-0.1-4-0.5-5.8-1.2l0.3-0.2
		v11.3l-0.1-0.2l1.1,1.2l4.7,4.9h-0.3l7.8-4l-0.1,0.2c0.3-3.5,0.5-6.4,0.6-8.5c0.1-1,0.2-1.8,0.2-2.4C125,307.9,125,307.6,125,307.3
		L125,307.3z"/>
	<path class="st11" d="M134,320.8c-0.3-0.7-0.5-1.5-0.6-2.2c-0.4-1.8-0.6-3.6-0.7-5.5c-0.1-1.8-0.1-3.7,0-5.5c0-0.8,0.1-1.5,0.3-2.3
		c0.2,0-0.1,3.5,0.1,7.8S134.1,320.7,134,320.8L134,320.8z"/>
	<path class="st11" d="M159.6,325.5c-0.2,0.2-0.5,0.3-0.8,0.4c-0.7,0.3-1.4,0.5-2.2,0.7c-2.4,0.7-5,1-7.5,1s-5.1-0.3-7.5-1
		c-0.7-0.2-1.5-0.5-2.2-0.7c-0.3-0.1-0.5-0.2-0.8-0.4c0-0.1,1.1,0.3,3,0.8c4.9,1.1,9.9,1.1,14.8,0
		C158.4,325.8,159.6,325.4,159.6,325.5L159.6,325.5z"/>
	<path class="st12" d="M111.8,200.6c0,0-13.8,7.5-17.8,9.3l5.5,26.4l8.7,31.6l-5.8,33.4c0,0,20.5,3.6,30.5,2.3
		c13.7-1.8,31.2-6.8,31.2-6.8l-13.6-40.7L154,228l-5.9-23.7l-14.3-1.7L111.8,200.6L111.8,200.6z"/>
	<g class="st19">
		<path d="M105.3,226.9c0.9,1.9,3.1,2.7,5.1,3.3s4.1,1,5.7,2.3c2.8,2.4,2.7,7,5.3,9.6c1.7,1.7,4.2,2.3,6.5,1.6
			c1.4-0.5,2.7-1.5,4.2-1.6c1-0.1,2.1,0.2,3.1,0.1c2.9-0.2,4.6-3.3,5.8-6s2.4-5.7,2.1-8.7c-0.4-4.5-4.2-8.1-4.8-12.6
			c-0.2-1.7,0-3.4-0.1-5s-0.9-3.4-2.4-4.1"/>
	</g>
	<path class="st12" d="M160.3,197.4L149.7,176l8.6-5.5c0,0,10.7,11.1,12.8,13.2c0,0,12.3,11.4,9.1,16.9c-1.9,3.1-4.3,5.9-7.1,8.3
		L160.3,197.4z"/>
	<path class="st12" d="M94,209.9c-0.2,0.6-28.7,40-30.2,44.2c-0.1,0.2-0.2,0.5-0.2,0.7c-1.6,5.5-0.3,11.4,3.6,15.7l23.5,26.2
		l10.3-11.9L84.5,256l15.6-17.2L94,209.9L94,209.9z"/>
	<path class="st17" d="M111.9,286.6c-1,0.1-2.7,1.4-3.5,2c-0.2,0.2-0.6,0.3-0.9,0.3l0,0c-0.5,0-1-0.4-1.2-0.9l-1-3.4
		c-1,0.1-2,0.7-2.5,1.6l-1.1,1.9l-2-1.9l-9.2,10.5c0,0,3.6,3.9,5.9,4s13-8.8,13-8.8l2.8-2.5C112.3,289.3,114.7,286.4,111.9,286.6
		L111.9,286.6z"/>
	<path class="st12" d="M141.5,203.5l8.1,0.4l11.5-8.8l16.3,9c0,0-7.4,7.9-14.3,15.9c-5.6,6.5-9.6,10.6-9.6,10.6L141.5,203.5
		L141.5,203.5z"/>
	<path class="st10" d="M149.1,273c-0.4,0.4-0.7,0.9-1.2,1.2c-0.8,0.8-1.9,1.8-3.4,3.1c-7.7,6.6-16.5,11.9-26,15.5
		c-1.8,0.7-3.3,1.2-4.3,1.5c-0.5,0.2-1.1,0.3-1.6,0.4c0.5-0.2,1-0.5,1.6-0.6c1-0.4,2.5-0.9,4.3-1.7c4.7-1.9,9.2-4.1,13.5-6.7
		s8.5-5.5,12.4-8.7c1.5-1.2,2.7-2.3,3.5-3C148.2,273.7,148.6,273.3,149.1,273L149.1,273z"/>
	<path class="st10" d="M120.8,268.4c0.1,0.1-2.8,4.7-6.4,10.4s-6.7,10.2-6.9,10.1s2.8-4.7,6.4-10.4S120.7,268.3,120.8,268.4z"/>
	<path class="st10" d="M152.6,228.3c-0.1,0,0-1.2-0.1-3s-0.2-4.4-0.5-7.3s-0.6-5.4-0.9-7.2s-0.7-2.9-0.6-2.9c0.5,0.9,0.8,1.9,1,2.9
		c0.5,2.4,0.9,4.8,1.1,7.3c0.3,2.9,0.4,5.4,0.3,7.3C152.9,226.3,152.9,227.3,152.6,228.3z"/>
	<path class="st10" d="M172.3,195.9c-0.6-0.2-1.3-0.5-1.9-0.8c-1.5-0.6-3.1-0.9-4.7-1c-1.6-0.1-3.2,0.3-4.6,1.1
		c-1.1,0.6-1.6,1.2-1.6,1.2c0.3-0.6,0.8-1.1,1.4-1.5c1.4-0.9,3.1-1.4,4.8-1.3c1.7,0.1,3.3,0.5,4.8,1.2
		C171.2,195.1,171.8,195.4,172.3,195.9L172.3,195.9z"/>
	<path class="st10" d="M167.1,191.3c0,0.2-2.3-0.1-4.5,1.4s-2.9,3.6-3.1,3.5c0.1-0.5,0.2-1,0.5-1.4c0.6-1,1.4-1.9,2.4-2.6
		c1-0.6,2.1-1,3.3-1.1C166.1,191.1,166.6,191.2,167.1,191.3L167.1,191.3z"/>
	<g class="st19">
		<path d="M121.7,263.5c-0.2-0.9-0.8-1.9-1.7-2s-1.8,1.1-2.2,2.1l-10,23.7l-0.3,1.5c4-6.4,8-12.5,12-18.9
			C120.8,268.1,122.1,265.9,121.7,263.5L121.7,263.5z"/>
	</g>
	<g class="st19">
		<path d="M159.5,195.9c1.2-1.8,2.3-3.9,4.4-4.3c2.2-0.4,4.4,0,6.3,1.1c0.4,0.2,0.9,0.7,0.7,1.1c-0.1,0.3-0.5,0.6-0.8,0.6
			c-1.9,0.5-3.9-0.1-5.8-0.3c-1.8-0.2-3.6,0.5-4.7,2"/>
	</g>
	<path class="st10" d="M98.5,234.6c-0.5-0.9-0.9-1.8-1.2-2.7c-1.7-4.5-2.8-9.2-3.3-14c-0.2-1-0.2-2-0.2-3c0.3,1,0.4,1.9,0.6,2.9
		c0.3,1.8,0.8,4.3,1.4,7s1.4,5.1,1.9,6.9C98,232.6,98.3,233.6,98.5,234.6L98.5,234.6z"/>
	<path class="st17" d="M113.4,208.6l20.2,0.3l-1.9-18.3c0,0,1.5,0.8,1.8-6.8s1-20.2,1-20.2l0,0c-8.6-4-18.7-3-26.3,2.6l-1.1,0.8
		L113.4,208.6z"/>
	<path class="st17" d="M109.3,176.3c-0.1-0.1-5.1-1.7-5.1,3.5s5.2,4.1,5.2,3.9S109.3,176.3,109.3,176.3z"/>
	<path class="st17" d="M133.4,175.9c0.1-0.1,4.7-1.2,4.4,4s-5.4,3.8-5.4,3.6S133.4,175.9,133.4,175.9z"/>
	<path class="st10" d="M121.3,154.6c0,0-7-0.3-9.5,1c-4.2,2.1-7.4,8-7.4,15.3s3.2,17.2,8.6,22.1s9.6,5.8,9.6,5.8s11.3-6.2,12.6-15.2
		s2.1-17.8-1.4-22.2S123.9,154.7,121.3,154.6L121.3,154.6z"/>
	<path class="st10" d="M105.3,175.7c-0.4-4.6-0.8-9.4,0.7-13.9s5.3-8.4,9.9-8.6c1.5,0.1,3,0.1,4.5,0c1.2-0.3,2.5-0.8,3.6-1.3
		c2-0.9,4.3-1,6.5-0.4c2.2,0.7,3.7,2.6,3.9,4.9c-0.1,0.9-0.1,1.8,0.1,2.7c0.5,0.8,1.1,1.5,1.8,2.1c0.9,1.2,1.2,2.7,1,4.2
		c-0.2,1.4-0.6,2.9-1.2,4.2l-3.8,10.2"/>
	<path class="st10" d="M117.1,178.3c4.6-2.2,10.1-0.4,12.3,4.2c0.5,1,0.8,2,0.9,3.1c0.3,3,0.3,3.5,2.3,5.9c1.2,1.4,2.4,1.4,3.8,2.6
		c1.9,1.7,2.4,4.4,1.3,6.7c3.7-0.2,7.1-0.4,8.4,3c-5.5-1.1-11,4-16.4,2.9c-1.8-0.2-3.4-0.9-4.9-1.8c-1.6-1.2-2.5-3.2-3.3-5l-4.4-10
		c-1-2.2-2-4.6-2-7.1s1.4-5.1,3.8-5.7"/>
	<path class="st14" d="M114.8,181.6c-1-3.1,0.1-6.6,2.7-8.5c2.8-1.8,6.4-1.6,9,0.4c2,1.5,3.2,3.9,3.1,6.4c-0.2,2.4-2.1,4.3-4.5,4.5"
		/>
	<path class="st10" d="M126.9,176.6c-3.2-2.5-7.7-2.3-10.7,0.5c-2.6,2.6-2.9,8-2.1,11.6c0.8,3.9,3.2,7.7,2.4,11.6
		c-0.5,2.4-2.1,4.8-1.2,7c0.8,1.8,2.9,2.6,4.1,4.2c1.7,2.3,0.9,5.6-0.3,8.2s-2.6,5.5-1.8,8.3c0.6,2.1,2.4,3.7,3.9,5.4
		s2.6,4.1,1.6,6.1c2.5,1.9,6.1,1.4,8-1.2c1-1.3,1.4-3,1-4.6c1.1,1.2,1.8,2.7,1.9,4.4c5.1-0.4,8.8-4.9,8.4-9.9
		c-0.1-1.5-0.6-2.9-1.4-4.2c-1.2-1.9-3.2-3.5-3.7-5.8c-0.5-2.7,1.4-5.3,1.2-8.1c-0.2-2.4-2.2-4.4-4.1-5.8s-4.2-2.8-5.5-4.9
		c-2.1-3.4-1.1-7.7-0.3-11.6C129.1,183.9,129.7,179.4,126.9,176.6"/>
	<path class="st10" d="M115,179c-2.8,1.9-3,5.8-2.6,9.2s0.9,7.1-1.1,9.7c-1.4,1.8-3.8,2.8-4.5,5c-0.9,2.6,1.3,5.2,1.5,8
		c0,2-0.5,4-1.6,5.6c-1.1,1.7-1.9,3.5-2.5,5.4s-0.1,4.1,1.4,5.5c1,0.7,2.2,1.1,3.5,1.2c4.4,0.7,8.9,0.7,13.3-0.1
		c1.3-5.4,2.6-10.9,2.6-16.5c0-11.1-5.2-21.7-5.4-32.8"/>
	<path class="st11" d="M122.8,235.9c-0.2-0.1-0.3-0.3-0.4-0.5l-1.2-1.5c-1.6-1.8-3-3.7-4.3-5.6c-0.9-1.4-1.7-2.9-2.2-4.5
		c-0.6-1.9-0.5-3.8,0.1-5.7c0.8-1.9,1.7-3.8,2.8-5.6c1-1.9,2-3.9,1.8-6.2s-1.7-4.1-2.3-6.2c-0.2-0.5-0.3-1.1-0.3-1.6
		c0-0.6,0.1-1.1,0.3-1.6c0.4-1,1-1.8,1.7-2.6c0.7-0.7,1.3-1.4,1.8-2.2c0.4-0.8,0.7-1.6,0.7-2.5c0-1.6-0.3-3.2-0.9-4.7
		c-0.4-1.3-0.7-2.6-0.8-4c-0.1-1,0.2-2.1,0.6-3c0.3-0.6,0.7-1.1,1.3-1.5c0.2-0.1,0.4-0.2,0.6-0.3c-0.7,0.5-1.3,1.1-1.7,1.9
		c-0.4,0.9-0.6,1.9-0.5,2.9c0.2,1.3,0.4,2.6,0.9,3.9c0.6,1.6,0.9,3.2,1,4.9c0,1-0.3,1.9-0.8,2.7s-1.1,1.6-1.8,2.3
		c-0.7,0.7-1.2,1.5-1.6,2.4c-0.2,0.5-0.2,1-0.2,1.5s0.1,1,0.3,1.5c0.6,2,2.2,3.9,2.4,6.3c0.1,1.2,0,2.4-0.4,3.4s-0.8,2-1.4,3
		c-1.1,1.8-2,3.6-2.8,5.5c-0.6,1.7-0.7,3.6-0.2,5.4c0.4,1.6,1.1,3,2,4.4c1.6,2.5,3.2,4.4,4.2,5.7c0.5,0.7,0.9,1.2,1.2,1.6
		C122.6,235.5,122.7,235.7,122.8,235.9L122.8,235.9z"/>
	<path class="st11" d="M111.9,197.4c0.5-1.2,0.9-2.5,1.1-3.8c0.2-1.4,0.2-2.8,0.2-4.2c0-1.6-0.2-3.4-0.1-5.3
		c0.1-1.8,0.5-3.5,1.3-5.1c0.7-1.3,1.7-2.4,3-3.1c0.9-0.5,1.9-0.8,2.9-0.7c0.3,0,0.5,0.1,0.8,0.1c0.1,0,0.2,0.1,0.3,0.1
		c-0.3,0-0.7,0-1,0c-0.9,0-1.9,0.3-2.7,0.8c-1.2,0.7-2.2,1.8-2.8,3c-0.7,1.6-1.2,3.3-1.2,5c-0.1,1.8,0,3.6,0,5.2
		c0,1.4-0.1,2.9-0.3,4.3c-0.2,1-0.4,1.9-0.9,2.8C112.4,196.8,112.2,197.1,111.9,197.4L111.9,197.4z"/>
	<path class="st11" d="M141.3,233.2c0-0.2,0-0.4,0.1-0.6c0.1-0.6,0.1-1.2,0-1.8c-0.2-2.2-0.7-4.4-1.6-6.5c-0.6-1.3-1.5-2.6-2.1-4.2
		c-0.4-0.8-0.6-1.7-0.8-2.6c-0.1-0.9-0.1-1.9,0-2.8c0.1-1,0.4-1.9,0.5-2.9s0.1-2-0.1-2.9c-0.4-2.1-1.4-3.9-2.9-5.4s-3.6-2.2-5.2-3.6
		c-1.4-1.4-2.4-3.3-2.7-5.4c-0.3-1.8-0.4-3.6-0.2-5.4c0.1-1.7,0.3-3.2,0.4-4.7c0.1-1.3,0.1-2.6-0.1-3.8c-0.1-0.9-0.5-1.9-1.1-2.6
		c-0.5-0.6-1.2-1.1-2-1.2c0.2,0,0.4,0,0.6,0.1c0.6,0.2,1.1,0.5,1.6,1c0.7,0.8,1.1,1.7,1.2,2.7c0.2,1.3,0.2,2.6,0.1,3.9
		c-0.1,1.4-0.3,3-0.4,4.7c-0.2,1.8-0.1,3.5,0.2,5.3c0.3,1.9,1.2,3.7,2.6,5.1c1.4,1.4,3.6,2.1,5.2,3.6c1.6,1.5,2.6,3.5,3,5.7
		c0.2,1,0.2,2.1,0.1,3.1c-0.1,1-0.4,1.9-0.5,2.9c-0.2,0.9-0.2,1.8-0.1,2.7c0.1,0.8,0.4,1.7,0.7,2.4c0.6,1.5,1.5,2.8,2.1,4.2
		c0.8,2.1,1.3,4.4,1.4,6.6c0,0.6,0,1.2-0.1,1.9c0,0.2-0.1,0.4-0.1,0.5S141.3,233.2,141.3,233.2L141.3,233.2z"/>
	<path class="st11" d="M137.4,204.9c0.2-0.4,0.3-0.8,0.4-1.2c0.2-1.2,0.2-2.4-0.2-3.5c-0.6-1.6-1.9-3-3.4-3.8c-1-0.4-2-1-2.7-1.8
		c-0.7-0.9-1.3-2-1.7-3.1c-0.7-2.1-1-4.4-0.8-6.6c0.1-1.8-0.1-3.6-0.6-5.3c-0.4-1.1-1.1-2.1-2-2.9c-0.4-0.2-0.7-0.5-1.1-0.7
		c0,0,0.1,0,0.3,0.1c0.3,0.1,0.6,0.3,0.9,0.5c1,0.7,1.8,1.7,2.2,2.9c0.6,1.7,0.9,3.6,0.8,5.4c-0.1,2.2,0.1,4.4,0.8,6.4
		c0.4,1,1,2,1.6,2.9c0.3,0.4,0.7,0.7,1.2,1s0.9,0.4,1.4,0.7c1.7,0.9,3,2.3,3.6,4.1c0.4,1.2,0.4,2.5,0.1,3.7
		c-0.1,0.3-0.2,0.6-0.4,0.9C137.5,204.8,137.4,204.9,137.4,204.9L137.4,204.9z"/>
	<path class="st11" d="M113.4,177.9c-0.7-0.3-1.4-0.7-2-1.2c-3.1-2.5-4.9-6.1-5.1-10.1c-0.1-0.8,0-1.6,0.2-2.4c0.1,0,0,0.9,0.2,2.4
		c0.4,3.8,2.2,7.3,5,9.9C112.7,177.3,113.5,177.8,113.4,177.9z"/>
	<path class="st11" d="M112.5,179.2c-1.3-0.4-2.5-1-3.5-1.8c-1.1-0.7-2.1-1.6-2.9-2.7c1.1,0.7,2.2,1.4,3.2,2.2
		C110.4,177.6,111.5,178.4,112.5,179.2L112.5,179.2z"/>
	<path class="st11" d="M134.4,166.1c-0.4,4.2-2.5,8.1-5.8,10.6c1.3-1.6,2.5-3.2,3.6-4.9C133,169.9,133.8,168,134.4,166.1
		L134.4,166.1z"/>
	<path class="st11" d="M136,170.1c-0.6,3.4-2.1,6.5-4.2,9.1c-0.1-0.1,1.1-2,2.2-4.5S135.9,170,136,170.1z"/>
	<path class="st11" d="M133.7,157.2c-0.4-0.6-0.7-1.2-1-1.9s-0.8-1.3-1.4-1.8c-0.7-0.6-1.5-0.9-2.4-0.9c-1.7,0.1-3.2,0.9-4.4,2.1
		c-0.5,0.5-1,1-1.6,1.5c0.3-0.6,0.8-1.2,1.3-1.7c0.5-0.6,1.1-1.1,1.8-1.5c0.8-0.5,1.8-0.8,2.8-0.9c1,0,2,0.4,2.8,1.1
		c0.6,0.6,1,1.2,1.4,2C133.3,155.8,133.6,156.5,133.7,157.2L133.7,157.2z"/>
	<path class="st11" d="M131.6,235.3c-0.2-0.1-0.3-0.3-0.5-0.4c-0.3-0.3-0.7-0.7-1.3-1.3c-0.6-0.7-1.2-1.5-1.8-2.3
		c-0.7-1.1-1.1-2.3-1.2-3.6c0-0.8,0.1-1.5,0.3-2.2c0.3-0.8,0.6-1.5,1-2.2c0.8-1.4,1.8-2.9,1.9-4.7c0-1.9-0.6-3.8-1.6-5.4
		c-1-1.7-2.3-3.3-3.5-5.1c-1.2-1.7-2-3.7-2.4-5.8c-0.3-1.9-0.3-3.9-0.1-5.8c0.4-3.7,1.1-6.9,1.2-9.7c0.2-2.2,0-4.4-0.6-6.5
		c-0.5-1.5-0.9-2.2-0.9-2.2c0.1,0.2,0.2,0.3,0.3,0.5c0.3,0.5,0.6,1.1,0.7,1.6c0.7,2.1,1,4.4,0.8,6.6c-0.1,2.8-0.8,6.1-1.1,9.7
		c-0.2,1.9-0.2,3.8,0.1,5.7c0.3,2,1.1,3.9,2.3,5.6c1.2,1.8,2.5,3.3,3.6,5.1c1.1,1.7,1.6,3.6,1.6,5.6c-0.1,2-1.2,3.5-2,4.9
		c-0.4,0.7-0.7,1.4-1,2.1c-0.2,0.7-0.3,1.4-0.3,2.1c0.1,1.2,0.5,2.4,1.1,3.5c0.5,0.8,1,1.6,1.6,2.3c0.5,0.6,0.9,1,1.2,1.3
		C131.4,234.9,131.5,235.1,131.6,235.3L131.6,235.3z"/>
</g>
<g id="freepik--Floor--inject-6">
	<path class="st10" d="M471.3,469.9c0,0.1-100.8,0.3-225.1,0.3s-225.1-0.1-225.1-0.3s100.8-0.3,225.1-0.3S471.3,469.8,471.3,469.9z"
		/>
</g>
</svg>
