<svg id="Layer_1" height="512" viewBox="0 0 50 50" width="512" xmlns="http://www.w3.org/2000/svg"><g fill="none" stroke="#000" stroke-linecap="round" stroke-linejoin="round" stroke-miterlimit="10"><path d="m1.9 42.7c.2 1.9 1.6 3.4 3.2 3.4h40.1c1.6 0 2.9-1.5 3.2-3.4z"/><path d="m8.4 17.3h3.7v25.4h-5.7v-23.5c0-1.1.9-1.9 2-1.9z"/><path d="m43.9 42.7v-19.3"/><path d="m38.3 17.3h3.6c.4 0 .7.1 1 .3"/><path d="m36.6 44.4h.3"/><path d="m41.2 44.4h.3"/><path d="m38.9 44.4h.4"/><path d="m38.3 36.5v6.1h-26.2v-36.1c0-1.4-1.2-2.6-2.7-2.6h26.3c1.5 0 2.7 1.2 2.7 2.7v21.9"/><path d="m12.1 6.5v7.5h-8c1.5 0 2.6-1.2 2.6-2.6v-3-1.9c0-1.5 1.2-2.6 2.6-2.6 1.6 0 2.8 1.2 2.8 2.6z"/><path d="m6.8 11.4v-3.3h-5.3v3.2c0 1.5 1.2 2.6 2.6 2.6 1.5.1 2.7-1.1 2.7-2.5z"/><path d="m15.2 7.3h8.2v8.6h-8.2z"/><path d="m26.3 7.4h8.9"/><path d="m26.3 10.2h8.9"/><path d="m26.3 13h8.9"/><path d="m26.3 15.8h8.9"/><path d="m25 18.7h10.2"/><path d="m25 21.5h10.2"/><path d="m15.2 18.7h9.8"/><path d="m15.2 21.5h9.8"/><path d="m35.9 38.2-.9-2 9.8-22.8c.3-.8 1.3-1.2 2.1-.8.8.3 1.2 1.3.8 2.1l-9.8 22.8z"/><path d="m35.9 38.2-.7 1.6"/><path d="m43.9 15.4 3.5 1.5c.9.4 1.3 1.4.9 2.3l-2.8 6.6c-.3.7 0 1.4.7 1.7"/><path d="m36.3 33.3 2.9 1.2"/><path d="m30.6 32.2c0-.7.5-1.3 1.2-1.6-.2-.8-.5-1.5-.9-2.1-.8.3-1.5.2-2-.3s-.6-1.3-.3-2.1c-.7-.4-1.4-.7-2.2-.9-.3.8-1 1.3-1.7 1.3s-1.3-.5-1.7-1.3c-.8.2-1.5.5-2.2.9.3.8.2 1.6-.3 2.1s-1.3.6-2 .3c-.4.7-.7 1.4-.9 2.1.7.3 1.2.9 1.2 1.6s-.5 1.3-1.2 1.6c.2.8.5 1.5.9 2.1.8-.3 1.6-.2 2 .3.5.5.6 1.3.3 2 .7.4 1.4.7 2.2.9.3-.8 1-1.3 1.7-1.3s1.3.5 1.7 1.3c.8-.2 1.5-.5 2.2-.9-.3-.8-.2-1.6.3-2 .5-.5 1.3-.6 2-.3.4-.7.7-1.4.9-2.1-.7-.3-1.2-.9-1.2-1.6z"/><circle cx="24.8" cy="32.2" r="3.2"/></g></svg>